<?xml version="1.0" encoding="utf-8"?>
<!-- Generator: Adobe Illustrator 16.0.0, SVG Export Plug-In . SVG Version: 6.00 Build 0)  -->
<!DOCTYPE svg PUBLIC "-//W3C//DTD SVG 1.1//EN" "http://www.w3.org/Graphics/SVG/1.1/DTD/svg11.dtd">
<svg version="1.1" id="Layer_1" xmlns="http://www.w3.org/2000/svg" xmlns:xlink="http://www.w3.org/1999/xlink" x="0px" y="0px"
	 width="500px" height="500px" viewBox="0 0 500 500" enable-background="new 0 0 500 500" xml:space="preserve">
<path d="M377.969,70.195h-87.831v24.139c0,4.046-3.28,7.326-7.326,7.326h-59.52c-3.164,0-5.851-2.01-6.876-4.819
	c0.353,0.054,0.71,0.089,1.077,0.089h59.52c4.046,0,7.326-3.28,7.326-7.326V13.6c0-4.045-3.28-7.326-7.326-7.326h-59.52
	c-4.047,0-7.326,3.281-7.326,7.326v56.596h-88.136c-4.046,0-7.326,3.281-7.326,7.326V486.4c0,4.045,3.28,7.326,7.326,7.326h255.938
	c4.046,0,7.326-3.281,7.326-7.326V77.521C385.295,73.477,382.015,70.195,377.969,70.195z M232.755,32.521h28.994
	c5.27,0,9.541,4.271,9.541,9.54s-4.271,9.54-9.541,9.54h-28.994c-5.268,0-9.54-4.271-9.54-9.54S227.487,32.521,232.755,32.521z
	 M211.841,175.358l0.293-0.337c1.13-0.82,1.68-2.11,1.464-3.43c-2.823-17.042-0.974-24.141-0.336-25.921
	c4.931-15.135,20.479-22.223,23.53-23.474c0.638-0.248,1.827-0.615,3.082-0.811l0.32-0.075l2.575-0.143l0.014,0.158l0.55-0.045
	l2.183-0.386c0.479,0.003,6.479,0.752,15.52,3.53l6.238,2.14c11.381,3.365,16.675,9.663,17.656,10.922
	c9.139,10.367,6.701,26.012,4.424,34.415c-0.249,0.966-0.098,1.975,0.448,2.796l0.517,0.659c0.833,1.11,1.146,4.843-0.719,11.769
	c-0.383,2.26-1.214,4.094-2.458,5.315c-0.428,0.473-0.75,1.117-0.87,1.807c-3.096,18.125-19.324,38.402-36.438,38.402
	c-14.546,0-31.129-18.662-34.11-38.384c-0.11-0.72-0.417-1.361-0.918-1.912c-1.238-1.285-2.035-3.145-2.518-5.899
	C210.847,181.266,210.703,177.098,211.841,175.358z M178.361,254.615c0.121-0.156,3.497-4.445,11.511-7.503
	c0,0,17.322-6.747,17.646-6.855c9.015-3.272,18.066-10.093,18.066-10.093l0.621,0.539c7.484,6.446,15.589,9.857,23.432,9.857
	c0.045,0,0.091-0.004,0.136-0.006c0,0,0.546,0.006,0.591,0.006c7.843,0,15.947-3.411,23.432-9.857l0.622-0.539
	c0,0,9.051,6.82,18.065,10.093c0.324,0.108,17.646,6.855,17.646,6.855c8.014,3.058,11.391,7.347,11.511,7.503
	c12.41,18.43,14.507,58.694,14.717,63.192c-0.096,6.308-1.884,7.915-2.361,8.238c-26.686,11.94-62.956,16.792-84.223,16.792
	s-57.082-4.852-83.768-16.792c-0.477-0.323-2.265-1.931-2.36-8.238C163.854,313.31,165.951,273.045,178.361,254.615z
	 M291.712,440.135H156.844v-21.553h134.868V440.135z M343.156,397.729H156.844v-21.553h186.312V397.729z"/>
</svg>
