<?xml version="1.0" encoding="utf-8"?>
<!-- Generator: Adobe Illustrator 16.0.0, SVG Export Plug-In . SVG Version: 6.00 Build 0)  -->
<!DOCTYPE svg PUBLIC "-//W3C//DTD SVG 1.1//EN" "http://www.w3.org/Graphics/SVG/1.1/DTD/svg11.dtd">
<svg version="1.1" id="Layer_1" xmlns="http://www.w3.org/2000/svg" xmlns:xlink="http://www.w3.org/1999/xlink" x="0px" y="0px"
	 width="500px" height="500px" viewBox="0 0 500 500" enable-background="new 0 0 500 500" xml:space="preserve">
<g>
	<path d="M416.252,290.105c-3.841-5.468-8.665-11.242-26.508-17.969c-14.626-4.529-50.846-16.531-70.673-30.878
		c-7.988-5.939,56.855-16.747,56.855-16.747l-71.274-0.344c-16.678,15.702-35.029,31.442-51.973,32.192
		c-0.774-0.034-1.554-0.096-2.336-0.17c-0.115,0.011-0.229,0.014-0.344,0.025c-0.115-0.011-0.229-0.014-0.344-0.025
		c-0.781,0.075-1.561,0.136-2.336,0.17c-16.943-0.75-35.295-16.491-51.973-32.192l-71.274,0.344c0,0,64.844,10.808,56.855,16.747
		c-19.827,14.347-56.046,26.349-70.672,30.878c-17.843,6.727-22.668,12.501-26.509,17.969
		c-30.665,45.532-34.146,147.69-34.173,148.703c0.274,13.598,4.318,18.241,5.711,18.814
		c68.269,30.375,174.884,37.381,186.826,38.085h3.161c0.672,0,1.354-0.006,2.047-0.017c0.69,0.011,1.375,0.017,2.045,0.017h0.581
		c0.019,0,0.037-0.001,0.054-0.001c0.018,0,0.036,0.001,0.054,0.001h0.581c0.671,0,1.354-0.006,2.045-0.017
		c0.692,0.011,1.375,0.017,2.047,0.017h3.161c11.942-0.704,118.559-7.71,186.826-38.085c1.394-0.574,5.437-5.216,5.711-18.814
		C450.398,437.795,446.917,335.637,416.252,290.105z"/>
	<path d="M208.46,114.024c13.666,0.095,25.177,6.902,28.932,16.184l-0.001,0.012c16.852-0.225,83.832-2.238,127.996-19.677
		l27.197-37.088c0.775-1.018,1.401-2.157,1.844-3.383c1.778-4.893,0.454-10.563-3.691-14.075c-2.397-2.031-5.33-3.04-8.249-3.04
		c-3.274,0-6.53,1.269-8.997,3.785c-2.572,2.492-10.888,8.837-19.005,8.837c-2.771,0-5.347-0.736-7.87-2.25
		c-5.067-3.04-9.869-10.535-14.952-18.469c-10.97-17.12-25.991-40.567-59.409-40.567h-3.181h-38.146h-3.182
		c-33.417,0-48.439,23.447-59.409,40.567c-5.083,7.934-9.885,15.429-14.952,18.469c-2.523,1.515-5.099,2.25-7.87,2.25
		c-9.731,0-18.896-8.728-18.983-8.816c-2.474-2.472-5.729-3.723-8.994-3.723c-2.939,0-5.888,1.014-8.277,3.064
		c-5.046,4.328-5.906,11.812-1.975,17.172l34.968,47.685c2.396,3.268,6.204,5.197,10.256,5.197h2.018
		c-0.167,1.155-0.306,2.313-0.431,3.472l25.213,0.176C183.193,120.576,194.795,113.93,208.46,114.024z M159.928,83.074
		c-10.708,6.425-21.412,4.192-29.387,0.411l-13.001-17.73c0,0,12.54,12.541,27.975,12.541c4.63,0,9.521-1.129,14.413-4.063
		c21.191-12.716,26.49-57.223,67.818-57.223h3.182h38.146h3.181c41.328,0,46.627,44.507,67.818,57.223
		c4.894,2.935,9.781,4.063,14.413,4.063c15.433,0,27.976-12.541,27.976-12.541l-13.001,17.73
		c-7.976,3.781-18.679,6.015-29.388-0.411c-21.191-12.716-26.49-57.223-67.818-57.223h-3.181h-38.146h-3.182
		C186.418,25.851,181.119,70.358,159.928,83.074z"/>
	<path d="M208.147,159.329c-12.854-0.089-23.796-6.121-28.176-14.562l-26.331-0.183c1.12,24.095,11.198,47.797,30.133,65.66
		c38.773,36.577,99.846,34.795,136.428-3.971c19.368-20.532,27.949-47.318,26.004-73.411
		c-45.174,11.701-97.166,12.783-110.021,12.864C231.501,153.799,220.707,159.417,208.147,159.329z"/>
</g>
</svg>
