<?xml version="1.0" encoding="utf-8"?>
<!-- Generator: Adobe Illustrator 16.0.0, SVG Export Plug-In . SVG Version: 6.00 Build 0)  -->
<!DOCTYPE svg PUBLIC "-//W3C//DTD SVG 1.1//EN" "http://www.w3.org/Graphics/SVG/1.1/DTD/svg11.dtd">
<svg version="1.1" id="Layer_1" xmlns="http://www.w3.org/2000/svg" xmlns:xlink="http://www.w3.org/1999/xlink" x="0px" y="0px"
	 width="500px" height="500px" viewBox="0 0 500 500" enable-background="new 0 0 500 500" xml:space="preserve">
<g>
	<path d="M274.64,431.602c-13.56-26.537-19.875-65.191-19.875-121.647v-15.486h15.487c35.347,0,57.145-10.782,69.205-19.828
		c11.621-8.714,16.368-17.348,16.408-17.431l1.734-3.486c-18.16-6.172-44.652-16.352-60.772-28.017
		c-0.163-0.122-0.321-0.251-0.482-0.375c-18.477,14.575-40.753,23.099-64.707,23.099c-23.956,0-46.229-8.524-64.707-23.099
		c-0.161,0.124-0.32,0.253-0.481,0.375c-20.712,14.986-58.543,27.522-73.832,32.253c-17.421,6.646-26.12,16.771-27.685,18.77
		c-32.038,47.563-35.668,154.273-35.696,155.332c0.287,14.2,4.505,19.052,5.961,19.651c71.313,31.729,155.26,39.783,196.44,39.783
		c22.256,0,57.007-2.355,95.499-9.526c-1.541-0.981-3.092-1.96-4.654-2.943C305.371,468.255,287.676,457.118,274.64,431.602z"/>
	<path d="M138.822,109.27h185.506v75.743c11.479-18.572,18.166-40.795,18.166-64.682c0-65.118-49.632-117.905-110.856-117.905
		c-61.227,0-110.856,52.788-110.856,117.905c0,23.803,6.639,45.953,18.041,64.485V109.27z"/>
	<path d="M231.638,149.339c-5.646,8.1-11.923,15.342-21.566,15.342h-47.696c-7.043,0-13.555-2.321-18.813-6.238v27.181
		c0,0,26.855,52.93,88.076,52.93c61.219,0,88.074-52.93,88.074-52.93v-27.181c-5.255,3.917-11.771,6.238-18.813,6.238h-47.694
		C243.563,164.682,237.284,157.439,231.638,149.339z"/>
	<path d="M413.775,362.278h-4.531v14.926h3.198c2.636,0,4.73-0.74,6.285-2.22c1.555-1.48,2.333-3.525,2.333-6.133
		C421.061,364.47,418.631,362.278,413.775,362.278z"/>
	<path d="M371.281,263.589c0,0-22.796,45.849-99.48,45.849c0,165.212,55.606,133.908,99.48,188.137
		c43.877-54.229,99.482-22.925,99.482-188.137C394.08,309.438,371.281,263.589,371.281,263.589z M377.702,413.056h-16.128V384.58
		c0-1.481,0.022-3.125,0.068-4.932c0.043-1.807,0.244-6.233,0.6-13.283h-0.399l-13.105,46.69h-16.704l-13.283-46.778h-0.401
		c0.623,7.967,0.934,14.157,0.934,18.569v28.209h-15.549v-64.949h23.367l13.551,46.113h0.354l13.285-46.113h23.411V413.056z
		 M432.412,385.579c-4.281,3.954-10.359,5.931-18.237,5.931h-4.931v21.546h-17.549v-64.949h22.479
		c8.203,0,14.363,1.792,18.481,5.376c4.115,3.583,6.174,8.679,6.174,15.281C438.83,376.021,436.69,381.624,432.412,385.579z"/>
</g>
</svg>
