<?xml version="1.0" encoding="utf-8"?>
<!-- Generator: Adobe Illustrator 16.0.0, SVG Export Plug-In . SVG Version: 6.00 Build 0)  -->
<!DOCTYPE svg PUBLIC "-//W3C//DTD SVG 1.1//EN" "http://www.w3.org/Graphics/SVG/1.1/DTD/svg11.dtd">
<svg version="1.1" id="Layer_1" xmlns="http://www.w3.org/2000/svg" xmlns:xlink="http://www.w3.org/1999/xlink" x="0px" y="0px"
	 width="500px" height="500px" viewBox="0 0 500 500" enable-background="new 0 0 500 500" xml:space="preserve">
<g>
	<rect x="216.893" y="295.119" width="21.323" height="43.91"/>
	<rect x="247.755" y="295.119" width="21.324" height="43.91"/>
	<rect x="186.029" y="295.119" width="21.324" height="43.91"/>
	<path d="M351.5,189.754h-1.639l25.639-25.639c0-5.877-1.568-11.383-4.296-16.141h4.296v-86c0-11.246-3.73-21.609-10-29.959V19.969
		c0-3.084-2.5-5.584-5.583-5.584c-3.084,0-5.584,2.5-5.584,5.584v18.088c-4.989-4.514-10.987-8.203-17.277-8.203v1
		c4.876,0,12.227,18.463,17.189,25.189c-2.54,25.232-23.842,44.932-49.745,44.932h-109c-25.907,0-47.211-19.705-49.746-44.943
		c4.949-6.721,12.291-25.178,17.19-25.178v-1c-6.291,0-12.289,3.689-17.277,8.203V19.969c0-3.084-2.5-5.584-5.583-5.584
		c-3.084,0-5.584,2.5-5.584,5.584v12.047c-6.27,8.35-10,18.713-10,29.959v86h4.296c-2.728,4.758-4.296,10.264-4.296,16.141
		l25.639,25.639H148.5c-16.568,0-30,13.432-30,30v235.861c0,16.568,13.432,30,30,30h203c16.568,0,30-13.432,30-30V219.754
		C381.5,203.186,368.068,189.754,351.5,189.754z M322.946,333.057h-10.942v11.793H177.054v-55.553h134.951v11.793h10.942V333.057z"
		/>
	<rect x="278.619" y="295.119" width="21.324" height="43.91"/>
	<polygon points="234.139,86.023 310.513,38.041 255.737,55.256 261.957,26.848 189.487,68.807 241.692,52.629 	"/>
</g>
</svg>
