<?xml version="1.0" encoding="utf-8"?>
<!-- Generator: Adobe Illustrator 16.0.4, SVG Export Plug-In . SVG Version: 6.00 Build 0)  -->
<!DOCTYPE svg PUBLIC "-//W3C//DTD SVG 1.1//EN" "http://www.w3.org/Graphics/SVG/1.1/DTD/svg11.dtd">
<svg version="1.1" id="Layer_1" xmlns="http://www.w3.org/2000/svg" xmlns:xlink="http://www.w3.org/1999/xlink" x="0px" y="0px"
	 width="47.521px" height="47.521px" viewBox="0 0 47.521 47.521" enable-background="new 0 0 47.521 47.521" xml:space="preserve">
<g>
	<circle cx="28.541" cy="24.906" r="1.388"/>
	<path d="M26.376,31.472c-0.031,0.037-0.795,0.928-2.562,0.928c-1.772,0-2.598-0.779-2.611-0.797c-0.133-0.133-0.351-0.133-0.481,0
		c-0.135,0.131-0.136,0.35-0.004,0.482c0.041,0.041,1.01,0.998,3.099,0.998c2.109,0,3.052-1.133,3.091-1.18
		c0.116-0.146,0.097-0.357-0.051-0.479C26.711,31.306,26.496,31.325,26.376,31.472z"/>
	<path d="M38.358,24.956c-0.242-2.236-1.175-2.706-1.91-2.706c-0.123,0-0.241,0.016-0.355,0.04c0.12-0.604,0.207-2.082,0.207-2.417
		C36.297,13.184,30.684,7.761,23.76,7.761c-6.924,0-12.537,5.423-12.537,12.112c0,0.479-0.095,1.65-0.013,2.389
		c-0.046-0.003-0.089-0.012-0.135-0.012c-0.737,0-1.667,0.47-1.912,2.706c-0.362,3.312,1.75,4.469,2.545,4.781
		c0.523,1.611,3.671,10.021,11.975,10.023h0.08c8.356-0.055,11.521-8.418,12.048-10.021C36.606,29.427,38.721,28.273,38.358,24.956z
		 M21.455,16.302c0,0,0.816,0.838-0.378,1.437c1.065,0.641,2.513-1.437,2.513-1.437s0.32,1.493-0.662,2.005
		c1.708,1.025,3.139-2.005,3.139-2.005s5.683-0.315,8.061,5.955H13.323C15.56,17.405,21.455,16.302,21.455,16.302z M21.956,22.976
		v1.919h-1.852c-0.006-0.763-0.625-1.378-1.388-1.378s-1.381,0.615-1.387,1.378h-0.937v-1.919H21.956z M13.593,23.043
		c0.293,0,0.531,0.238,0.531,0.531s-0.238,0.53-0.531,0.53s-0.531-0.237-0.531-0.529S13.3,23.043,13.593,23.043z M35.281,28.841
		l-0.294,0.07l-0.08,0.291c-0.026,0.096-2.735,9.479-11.149,9.533h-0.073c-8.35-0.002-11.043-9.438-11.067-9.531l-0.08-0.293
		l-0.296-0.07c-0.1-0.023-2.404-0.613-2.061-3.773c0.073-0.668,0.287-1.792,0.896-1.792c0.33,0,0.708,0.262,0.821,0.359l0.31,0.267
		v1.494h5.218c0.198,0.525,0.701,0.9,1.295,0.9s1.097-0.375,1.295-0.9h2.442v-2.418h11.92c0.114,0.363,0.226,0.729,0.317,1.135
		l-0.033,0.358l0.962-0.834c0.087-0.076,0.48-0.359,0.823-0.359c0.604,0,0.818,1.125,0.894,1.792
		C37.681,28.198,35.375,28.818,35.281,28.841z"/>
</g>
</svg>
