<?xml version="1.0" encoding="utf-8"?>
<!-- Generator: Adobe Illustrator 16.0.4, SVG Export Plug-In . SVG Version: 6.00 Build 0)  -->
<!DOCTYPE svg PUBLIC "-//W3C//DTD SVG 1.1//EN" "http://www.w3.org/Graphics/SVG/1.1/DTD/svg11.dtd">
<svg version="1.1" id="Layer_1" xmlns="http://www.w3.org/2000/svg" xmlns:xlink="http://www.w3.org/1999/xlink" x="0px" y="0px"
	 width="47.521px" height="47.521px" viewBox="0 0 47.521 47.521" enable-background="new 0 0 47.521 47.521" xml:space="preserve">
<g>
	<circle cx="28.541" cy="24.906" r="1.388"/>
	<path d="M26.376,31.472c-0.031,0.037-0.795,0.928-2.562,0.928c-1.772,0-2.598-0.779-2.611-0.797c-0.133-0.133-0.351-0.133-0.481,0
		c-0.135,0.131-0.136,0.35-0.004,0.482c0.041,0.041,1.01,0.998,3.099,0.998c2.109,0,3.052-1.133,3.091-1.18
		c0.116-0.146,0.097-0.357-0.051-0.479C26.711,31.306,26.496,31.325,26.376,31.472z"/>
	<path d="M38.358,24.956c-0.242-2.236-1.175-2.706-1.91-2.706c-0.123,0-0.241,0.016-0.355,0.04c0.12-0.604,0.207-2.082,0.207-2.417
		C36.297,13.184,30.684,7.761,23.76,7.761c-6.924,0-12.537,5.423-12.537,12.112c0,0.479-0.095,1.65-0.013,2.389
		c-0.046-0.003-0.089-0.012-0.135-0.012c-0.737,0-1.667,0.47-1.912,2.706c-0.362,3.312,1.75,4.469,2.545,4.781
		c0.523,1.611,3.671,10.021,11.975,10.023h0.08c8.356-0.055,11.521-8.418,12.048-10.021C36.606,29.427,38.721,28.273,38.358,24.956z
		 M21.455,16.302c0,0,0.816,0.838-0.378,1.437c1.065,0.641,2.513-1.437,2.513-1.437s0.32,1.493-0.662,2.005
		c1.708,1.025,3.139-2.005,3.139-2.005s5.409-0.301,7.883,5.511H13.537C15.917,17.334,21.455,16.302,21.455,16.302z M19.857,24.115
		c-0.251-0.36-0.667-0.598-1.139-0.598c-0.539,0-1.002,0.312-1.229,0.763h-1.835v-1.432h4.202L19.857,24.115L19.857,24.115z
		 M12.594,22.739c0.282,0,0.512,0.229,0.512,0.512c0,0.282-0.229,0.511-0.512,0.511s-0.512-0.229-0.512-0.512
		S12.311,22.739,12.594,22.739z M35.281,28.841l-0.294,0.07l-0.08,0.291c-0.026,0.096-2.735,9.479-11.149,9.533h-0.073
		c-8.35-0.002-11.043-9.438-11.067-9.531l-0.08-0.293l-0.296-0.07c-0.1-0.023-2.404-0.613-2.061-3.773
		c0.073-0.668,0.287-1.792,0.896-1.792c0.08,0,0.163,0.018,0.244,0.041v1.524h1.181v0.01h4.837c-0.001,0.02-0.006,0.037-0.006,0.057
		c0,0.768,0.621,1.389,1.388,1.389c0.769,0,1.389-0.621,1.389-1.389c0-0.02-0.005-0.037-0.006-0.057h0.328v-2.108h2.162
		c0.166,0.455,0.362,1.207,0.122,1.766c-0.245,0.566-0.804,1.375-1.181,1.893c-0.088-0.295-0.352-0.516-0.677-0.516
		c-0.395,0-0.715,0.318-0.715,0.713c0,0.396,0.32,0.715,0.715,0.715c0.209,0,0.394-0.09,0.522-0.232l0.002,0.002
		c0.048-0.062,1.193-1.537,1.594-2.461c0.264-0.605,0.092-1.375-0.078-1.877h1.833c-0.174,0.404-0.55,1.445-0.214,2.229
		c0.401,0.924,1.546,2.398,1.597,2.461l0.001-0.002c0.13,0.143,0.312,0.234,0.521,0.234c0.396,0,0.716-0.32,0.716-0.715
		c0-0.396-0.318-0.717-0.716-0.717c-0.323,0-0.586,0.223-0.673,0.52c-0.377-0.521-0.938-1.33-1.182-1.895
		c-0.328-0.762,0.153-1.886,0.263-2.117h9.268c0.145,0.429,0.272,0.881,0.385,1.367l-0.033,0.359l0.962-0.834
		c0.087-0.076,0.48-0.359,0.823-0.359c0.604,0,0.818,1.125,0.894,1.792C37.681,28.198,35.375,28.818,35.281,28.841z"/>
</g>
</svg>
