<?xml version="1.0" encoding="utf-8"?>
<!-- Generator: Adobe Illustrator 16.0.4, SVG Export Plug-In . SVG Version: 6.00 Build 0)  -->
<!DOCTYPE svg PUBLIC "-//W3C//DTD SVG 1.1//EN" "http://www.w3.org/Graphics/SVG/1.1/DTD/svg11.dtd">
<svg version="1.1" id="Layer_1" xmlns="http://www.w3.org/2000/svg" xmlns:xlink="http://www.w3.org/1999/xlink" x="0px" y="0px"
	 width="47.521px" height="47.521px" viewBox="0 0 47.521 47.521" enable-background="new 0 0 47.521 47.521" xml:space="preserve">
<g>
	<circle cx="28.541" cy="24.906" r="1.388"/>
	<path d="M26.376,31.472c-0.031,0.037-0.795,0.928-2.562,0.928c-1.772,0-2.598-0.779-2.611-0.797c-0.133-0.133-0.351-0.133-0.481,0
		c-0.135,0.131-0.136,0.35-0.004,0.482c0.041,0.041,1.01,0.998,3.099,0.998c2.109,0,3.052-1.133,3.091-1.18
		c0.116-0.146,0.097-0.357-0.051-0.479C26.711,31.306,26.496,31.325,26.376,31.472z"/>
	<path d="M38.358,24.956c-0.242-2.236-1.175-2.706-1.91-2.706c-0.123,0-0.241,0.016-0.355,0.04c0.12-0.604,0.207-2.082,0.207-2.417
		C36.297,13.184,30.684,7.761,23.76,7.761c-6.924,0-12.537,5.423-12.537,12.112c0,0.479-0.095,1.65-0.013,2.389
		c-0.046-0.003-0.089-0.012-0.135-0.012c-0.737,0-1.667,0.47-1.912,2.706c-0.362,3.312,1.75,4.469,2.545,4.781
		c0.523,1.611,3.671,10.021,11.975,10.023h0.08c8.356-0.055,11.521-8.418,12.048-10.021C36.606,29.427,38.721,28.273,38.358,24.956z
		 M21.455,16.302c0,0,0.816,0.838-0.378,1.437c1.065,0.641,2.513-1.437,2.513-1.437s0.32,1.493-0.662,2.005
		c1.708,1.025,3.139-2.005,3.139-2.005s4.688-0.26,7.331,4.391H14.235C16.854,17.156,21.455,16.302,21.455,16.302z M31.576,24.907
		c0,1.672-1.361,3.033-3.034,3.033c-1.674,0-3.035-1.359-3.035-3.033c0-1.673,1.361-3.035,3.035-3.035
		C30.214,21.872,31.576,23.233,31.576,24.907z M21.754,24.907c0,1.672-1.361,3.033-3.034,3.033s-3.034-1.359-3.034-3.033l0,0h1.646
		l0,0c0,0.766,0.621,1.387,1.388,1.387c0.769,0,1.389-0.621,1.389-1.387l0,0H21.754L21.754,24.907z M16.35,21.658
		c-0.225,0.164-0.428,0.351-0.611,0.557v-0.557H16.35z M18.719,21.872c1.564,0,2.842,1.194,3.002,2.719h-1.653
		c-0.144-0.615-0.689-1.074-1.35-1.074s-1.205,0.459-1.349,1.074h-1.632v-0.197C15.982,22.966,17.221,21.872,18.719,21.872z
		 M22.224,22.948c-0.285-0.508-0.668-0.948-1.136-1.29h1.136V22.948z M35.281,28.841l-0.294,0.07l-0.08,0.291
		c-0.026,0.096-2.735,9.479-11.149,9.533h-0.073c-8.35-0.002-11.043-9.438-11.067-9.531l-0.08-0.293l-0.296-0.07
		c-0.1-0.023-2.404-0.613-2.061-3.773c0.073-0.668,0.287-1.792,0.896-1.792c0.33,0,0.708,0.262,0.821,0.359l0.807,0.698l0.139,0.572
		h1.844v0.002c0,2.223,1.812,4.031,4.034,4.031c1.435,0,2.688-0.756,3.401-1.885c0.099,0.23,0.232,0.369,0.385,0.369
		c0.3,0,0.543-0.561,0.543-1.26c0-0.5-0.127-0.92-0.309-1.125c0.002-0.045,0.014-0.088,0.014-0.135c0-0.475-0.098-0.922-0.248-1.346
		v-1.992h3.774c-1.069,0.728-1.773,1.951-1.773,3.336c0,0.074,0.018,0.146,0.022,0.219c-0.089,0.225-0.146,0.512-0.146,0.834
		c0,0.697,0.243,1.262,0.544,1.262c0.083,0,0.159-0.053,0.229-0.129c0.72,1.109,1.964,1.85,3.383,1.85
		c2.225,0,4.034-1.809,4.034-4.031c0-1.389-0.704-2.612-1.772-3.339h3.047c0.335,0.741,0.625,1.577,0.846,2.542l-0.033,0.36
		l0.962-0.835c0.087-0.076,0.48-0.359,0.823-0.359c0.604,0,0.818,1.125,0.894,1.792C37.681,28.198,35.375,28.818,35.281,28.841z"/>
</g>
</svg>
