<?xml version="1.0" encoding="utf-8"?>
<!-- Generator: Adobe Illustrator 16.0.4, SVG Export Plug-In . SVG Version: 6.00 Build 0)  -->
<!DOCTYPE svg PUBLIC "-//W3C//DTD SVG 1.1//EN" "http://www.w3.org/Graphics/SVG/1.1/DTD/svg11.dtd">
<svg version="1.1" id="Layer_1" xmlns="http://www.w3.org/2000/svg" xmlns:xlink="http://www.w3.org/1999/xlink" x="0px" y="0px"
	 width="47.521px" height="47.521px" viewBox="0 0 47.521 47.521" enable-background="new 0 0 47.521 47.521" xml:space="preserve">
<g>
	<circle cx="28.541" cy="24.906" r="1.388"/>
	<path d="M26.376,31.472c-0.031,0.037-0.795,0.928-2.562,0.928c-1.772,0-2.598-0.779-2.611-0.797c-0.133-0.133-0.351-0.133-0.481,0
		c-0.135,0.131-0.136,0.35-0.004,0.482c0.041,0.041,1.01,0.998,3.099,0.998c2.109,0,3.052-1.133,3.091-1.18
		c0.116-0.146,0.097-0.357-0.051-0.479C26.711,31.306,26.496,31.325,26.376,31.472z"/>
	<path d="M38.358,24.956c-0.242-2.236-1.175-2.706-1.91-2.706c-0.123,0-0.241,0.016-0.355,0.04c0.12-0.604,0.207-2.082,0.207-2.417
		C36.297,13.184,30.684,7.761,23.76,7.761c-6.924,0-12.537,5.423-12.537,12.112c0,0.479-0.095,1.65-0.013,2.389
		c-0.046-0.003-0.089-0.012-0.135-0.012c-0.737,0-1.667,0.47-1.912,2.706c-0.362,3.312,1.75,4.469,2.545,4.781
		c0.523,1.611,3.671,10.021,11.975,10.023h0.08c8.356-0.055,11.521-8.418,12.048-10.021C36.606,29.427,38.721,28.273,38.358,24.956z
		 M21.455,16.302c0,0,0.816,0.838-0.378,1.437c1.065,0.641,2.513-1.437,2.513-1.437s0.32,1.493-0.662,2.005
		c1.708,1.025,3.139-2.005,3.139-2.005s5.906-0.345,8.198,6.304c-0.121-0.009-0.242-0.019-0.396-0.019
		c-0.482,0-5.225-0.012-7.567-0.027c0.347-0.605,0.832-0.933,0.864-0.952l-0.341-0.522c-0.044,0.029-0.796,0.53-1.219,1.47
		c-1.245-0.01-2.582-0.02-3.875-0.029c-0.423-0.921-1.159-1.411-1.204-1.439l-0.343,0.522c0.031,0.021,0.493,0.334,0.838,0.912
		c-0.999-0.008-1.95-0.016-2.801-0.022V21.14h-4.283C16.488,17.233,21.455,16.302,21.455,16.302z M14.864,22.466
		c-0.798,0-1.025,0.644-1.039,1.354l-1.083,0.006l0.048-0.131c0.188-0.709,0.455-1.347,0.77-1.931h4.038v0.729
		C16.04,22.479,14.958,22.469,14.864,22.466z M15.216,23.224c0,0.188-0.152,0.341-0.34,0.341c-0.189,0-0.343-0.151-0.343-0.341
		c0-0.188,0.152-0.342,0.343-0.342C15.062,22.883,15.216,23.035,15.216,23.224z M35.281,28.841l-0.294,0.07l-0.08,0.291
		c-0.026,0.096-2.735,9.479-11.149,9.533h-0.073c-8.35-0.002-11.043-9.438-11.067-9.531l-0.08-0.293l-0.296-0.07
		c-0.1-0.023-2.404-0.613-2.061-3.773c0.073-0.668,0.287-1.792,0.896-1.792c0.33,0,0.708,0.262,0.821,0.359l0.025,0.022v0.787h1.897
		c0,0.674,0,1.406,0,1.406h1.027v-1.229h2.509c-0.019,0.092-0.026,0.186-0.026,0.281c0,0.768,0.621,1.389,1.388,1.389
		s1.389-0.621,1.389-1.389c0-0.514-0.279-0.955-0.692-1.196v-0.613c0.595,0.005,1.223,0.01,1.865,0.014
		c0.074,0.25,0.129,0.521,0.118,0.829c-0.018,0.558-0.127,1.041-0.261,1.437c-0.326-0.162-0.809,0.098-1.086,0.6
		c-0.283,0.508-0.248,1.066,0.079,1.25c0.266,0.146,0.641-0.002,0.925-0.336c0,0,0.913-1.154,0.967-2.93
		c0.012-0.306-0.024-0.586-0.087-0.843c1.162,0.009,2.352,0.017,3.476,0.025c-0.059,0.251-0.091,0.521-0.081,0.816
		c0.055,1.773,0.967,2.929,0.967,2.929c0.283,0.334,0.657,0.482,0.923,0.338c0.327-0.184,0.362-0.742,0.08-1.252
		c-0.279-0.5-0.761-0.762-1.086-0.6c-0.133-0.396-0.243-0.877-0.26-1.436c-0.009-0.294,0.039-0.553,0.107-0.793
		c2.455,0.018,8.312,0.019,8.312,0.019s0.243,0.599,0.322,0.945l-0.033,0.359l0.962-0.834c0.087-0.076,0.48-0.359,0.823-0.359
		c0.604,0,0.818,1.124,0.894,1.792C37.681,28.198,35.375,28.818,35.281,28.841z"/>
</g>
</svg>
