<?xml version="1.0" encoding="utf-8"?>
<!-- Generator: Adobe Illustrator 16.0.4, SVG Export Plug-In . SVG Version: 6.00 Build 0)  -->
<!DOCTYPE svg PUBLIC "-//W3C//DTD SVG 1.1//EN" "http://www.w3.org/Graphics/SVG/1.1/DTD/svg11.dtd">
<svg version="1.1" id="Layer_1" xmlns="http://www.w3.org/2000/svg" xmlns:xlink="http://www.w3.org/1999/xlink" x="0px" y="0px"
	 width="47.521px" height="47.521px" viewBox="0 0 47.521 47.521" enable-background="new 0 0 47.521 47.521" xml:space="preserve">
<g>
	<circle cx="28.541" cy="24.906" r="1.388"/>
	<path d="M26.376,31.472c-0.031,0.037-0.795,0.928-2.562,0.928c-1.772,0-2.598-0.779-2.611-0.797c-0.133-0.133-0.351-0.133-0.481,0
		c-0.135,0.131-0.136,0.35-0.004,0.482c0.041,0.041,1.01,0.998,3.099,0.998c2.109,0,3.052-1.133,3.091-1.18
		c0.116-0.146,0.097-0.357-0.051-0.479C26.711,31.306,26.496,31.325,26.376,31.472z"/>
	<path d="M38.358,24.956c-0.242-2.236-1.175-2.706-1.91-2.706c-0.123,0-0.241,0.016-0.355,0.04c0.12-0.604,0.207-2.082,0.207-2.417
		C36.297,13.184,30.684,7.761,23.76,7.761c-6.924,0-12.537,5.423-12.537,12.112c0,0.479-0.095,1.65-0.013,2.389
		c-0.046-0.003-0.089-0.012-0.135-0.012c-0.737,0-1.667,0.47-1.912,2.706c-0.362,3.312,1.75,4.469,2.545,4.781
		c0.523,1.611,3.671,10.021,11.975,10.023h0.08c8.356-0.055,11.521-8.418,12.048-10.021C36.606,29.427,38.721,28.273,38.358,24.956z
		 M21.455,16.302c0,0,0.816,0.838-0.378,1.437c1.065,0.641,2.513-1.437,2.513-1.437s0.32,1.493-0.662,2.005
		c1.708,1.025,3.139-2.005,3.139-2.005s5.584-0.309,7.997,5.8H13.396C15.688,17.382,21.455,16.302,21.455,16.302z M18.719,23.517
		c-0.642,0-1.176,0.438-1.335,1.029h-0.696l0.021-1.74h3.706v1.74h-0.36C19.895,23.955,19.36,23.517,18.719,23.517z M12.895,23.377
		c0.012-0.029,0.021-0.06,0.03-0.088c0.086-0.176,0.263-0.299,0.472-0.299c0.291,0,0.527,0.236,0.527,0.528
		c0,0.291-0.236,0.529-0.527,0.529c-0.293,0-0.528-0.238-0.528-0.529C12.868,23.469,12.883,23.424,12.895,23.377z M35.281,28.841
		l-0.294,0.07l-0.08,0.291c-0.026,0.096-2.735,9.479-11.149,9.533h-0.073c-8.35-0.002-11.043-9.438-11.067-9.531l-0.08-0.293
		l-0.296-0.07c-0.1-0.023-2.404-0.613-2.061-3.773c0.064-0.586,0.237-1.521,0.688-1.743c-0.003,0.053-0.02,0.102-0.02,0.156
		c0,0.704,0.33,1.418,0.959,1.418h5.522c0,0.002-0.001,0.004-0.001,0.006c0,0.768,0.621,1.389,1.388,1.389s1.389-0.621,1.389-1.389
		c0-0.002-0.001-0.004-0.001-0.006h0.485c0.098,0,0.177-0.078,0.177-0.178v-1.917h1.598c0.13,0.58,0.312,1.614,0.182,2.321
		c-0.097,0.51-0.369,1.02-0.654,1.422c-0.191-0.156-0.497-0.033-0.6,0.008c-0.477,0.189-0.664,0.578-0.604,0.844
		c0.044,0.191,0.2,0.311,0.404,0.311c0.014,0,0.027,0,0.043-0.002c0.526-0.039,1.578-1.395,1.791-2.508
		c0.144-0.748-0.03-1.771-0.165-2.395h1.502c-0.136,0.622-0.307,1.647-0.166,2.395c0.21,1.115,1.265,2.469,1.79,2.508
		c0.018,0.002,0.028,0.002,0.044,0.002c0.203,0,0.359-0.117,0.404-0.311c0.062-0.266-0.128-0.65-0.604-0.844
		c-0.103-0.041-0.406-0.164-0.6-0.008c-0.285-0.4-0.558-0.912-0.654-1.422c-0.135-0.707,0.052-1.741,0.184-2.321h9.666
		c0.135,0.411,0.26,0.84,0.363,1.304l-0.031,0.359l0.962-0.834c0.087-0.076,0.48-0.359,0.823-0.359c0.604,0,0.818,1.125,0.894,1.792
		C37.681,28.198,35.375,28.818,35.281,28.841z M21.641,26.868c-0.231,0.271-0.44,0.445-0.534,0.451c-0.024,0.004-0.035,0-0.036,0
		h-0.004c-0.003-0.006-0.008-0.033,0.011-0.082c0.016-0.047,0.089-0.213,0.357-0.318c0.095-0.037,0.153-0.053,0.188-0.057
		L21.641,26.868z M25.384,26.868l0.021-0.006c0.032,0.004,0.095,0.02,0.188,0.057c0.271,0.105,0.344,0.271,0.359,0.318
		c0.018,0.049,0.011,0.076,0.011,0.08c0,0-0.011,0.008-0.041,0.002C25.828,27.314,25.619,27.142,25.384,26.868z"/>
</g>
</svg>
