<?xml version="1.0" encoding="utf-8"?>
<!-- Generator: Adobe Illustrator 16.0.4, SVG Export Plug-In . SVG Version: 6.00 Build 0)  -->
<!DOCTYPE svg PUBLIC "-//W3C//DTD SVG 1.1//EN" "http://www.w3.org/Graphics/SVG/1.1/DTD/svg11.dtd">
<svg version="1.1" id="Layer_1" xmlns="http://www.w3.org/2000/svg" xmlns:xlink="http://www.w3.org/1999/xlink" x="0px" y="0px"
	 width="47.521px" height="47.521px" viewBox="0 0 47.521 47.521" enable-background="new 0 0 47.521 47.521" xml:space="preserve">
<g>
	<circle cx="18.719" cy="24.906" r="1.388"/>
	<circle cx="28.541" cy="24.906" r="1.388"/>
	<path d="M26.376,31.472c-0.031,0.037-0.795,0.928-2.562,0.928c-1.772,0-2.598-0.779-2.611-0.797c-0.133-0.133-0.351-0.133-0.481,0
		c-0.135,0.131-0.136,0.35-0.004,0.482c0.041,0.041,1.01,0.998,3.099,0.998c2.109,0,3.052-1.133,3.091-1.18
		c0.116-0.146,0.097-0.357-0.051-0.479C26.711,31.306,26.496,31.325,26.376,31.472z"/>
	<path d="M38.358,24.956c-0.242-2.236-1.175-2.706-1.91-2.706c-0.123,0-0.241,0.016-0.355,0.04c0.12-0.604,0.207-2.082,0.207-2.417
		C36.297,13.184,30.684,7.761,23.76,7.761c-6.924,0-12.537,5.423-12.537,12.112c0,0.479-0.095,1.65-0.013,2.389
		c-0.046-0.003-0.089-0.012-0.135-0.012c-0.737,0-1.667,0.47-1.912,2.706c-0.362,3.312,1.75,4.469,2.545,4.781
		c0.523,1.611,3.671,10.021,11.975,10.023h0.08c8.356-0.055,11.521-8.418,12.048-10.021C36.606,29.427,38.721,28.273,38.358,24.956z
		 M21.455,16.302c0,0,0.816,0.838-0.378,1.437c1.065,0.641,2.513-1.437,2.513-1.437s0.32,1.493-0.662,2.005
		c1.708,1.025,3.139-2.005,3.139-2.005s5.561-0.307,7.98,5.759h-20.63C15.721,17.375,21.455,16.302,21.455,16.302z M21.956,22.89
		v4.031h-5.562V22.89H21.956z M35.281,28.841l-0.294,0.07l-0.08,0.291c-0.026,0.096-2.735,9.479-11.149,9.533h-0.073
		c-8.35-0.002-11.043-9.438-11.067-9.531l-0.08-0.293l-0.296-0.07c-0.1-0.023-2.404-0.613-2.061-3.773
		c0.073-0.668,0.287-1.792,0.896-1.792c0.33,0,0.708,0.262,0.821,0.359l0.31,0.267v3.521h10.25v-4.535h0.283
		c0.524,0.388,1.332,1.163,1.332,2.31c0,1.195-0.382,2.35-0.619,2.959c-0.09-0.115-0.227-0.195-0.383-0.195
		c-0.271,0-0.492,0.221-0.492,0.492s0.221,0.492,0.492,0.492c0.174,0,0.316-0.096,0.404-0.23l0.014,0.006
		c0.003-0.008,0.019-0.041,0.031-0.072c0.001-0.002,0.002-0.004,0.003-0.006c0.153-0.334,0.799-1.834,0.799-3.445
		c0-1.083-0.638-1.849-1.179-2.309h3.673c-0.562,0.442-1.308,1.247-1.308,2.418c0,1.613,0.646,3.113,0.798,3.447
		c0.001,0.002,0.002,0.004,0.003,0.006c0.017,0.031,0.03,0.064,0.033,0.07l0.012-0.006c0.088,0.137,0.232,0.232,0.406,0.232
		c0.271,0,0.492-0.221,0.492-0.492s-0.221-0.492-0.492-0.492c-0.158,0-0.293,0.08-0.383,0.195c-0.239-0.609-0.619-1.764-0.619-2.961
		c0-1.257,0.979-2.079,1.484-2.419h7.106c0.124,0.389,0.243,0.787,0.342,1.224L34.66,24.47l0.962-0.834
		c0.087-0.076,0.48-0.359,0.823-0.359c0.604,0,0.818,1.124,0.894,1.793C37.681,28.198,35.375,28.818,35.281,28.841z"/>
</g>
</svg>
