<?xml version="1.0" encoding="utf-8"?>
<!-- Generator: Adobe Illustrator 16.0.4, SVG Export Plug-In . SVG Version: 6.00 Build 0)  -->
<!DOCTYPE svg PUBLIC "-//W3C//DTD SVG 1.1//EN" "http://www.w3.org/Graphics/SVG/1.1/DTD/svg11.dtd">
<svg version="1.1" id="Layer_1" xmlns="http://www.w3.org/2000/svg" xmlns:xlink="http://www.w3.org/1999/xlink" x="0px" y="0px"
	 width="47.521px" height="47.521px" viewBox="0 0 47.521 47.521" enable-background="new 0 0 47.521 47.521" xml:space="preserve">
<g>
	<circle cx="18.719" cy="24.906" r="1.388"/>
	<circle cx="28.541" cy="24.906" r="1.388"/>
	<path d="M26.376,31.472c-0.031,0.037-0.795,0.928-2.562,0.928c-1.772,0-2.598-0.779-2.611-0.797c-0.133-0.133-0.351-0.133-0.481,0
		c-0.135,0.131-0.136,0.35-0.004,0.482c0.041,0.041,1.01,0.998,3.099,0.998c2.109,0,3.052-1.133,3.091-1.18
		c0.116-0.146,0.097-0.357-0.051-0.479C26.711,31.306,26.496,31.325,26.376,31.472z"/>
	<path d="M38.358,24.956c-0.242-2.236-1.175-2.706-1.91-2.706c-0.123,0-0.241,0.016-0.355,0.04c0.12-0.604,0.207-2.082,0.207-2.417
		C36.297,13.184,30.684,7.761,23.76,7.761c-6.924,0-12.537,5.423-12.537,12.112c0,0.479-0.095,1.65-0.013,2.389
		c-0.046-0.003-0.089-0.012-0.135-0.012c-0.737,0-1.667,0.47-1.912,2.706c-0.362,3.312,1.75,4.469,2.545,4.781
		c0.523,1.611,3.671,10.021,11.975,10.023h0.08c8.356-0.055,11.521-8.418,12.048-10.021C36.606,29.427,38.721,28.273,38.358,24.956z
		 M35.281,28.841l-0.294,0.07l-0.08,0.291c-0.026,0.096-2.735,9.479-11.149,9.533h-0.073c-8.35-0.002-11.043-9.438-11.067-9.531
		l-0.08-0.293l-0.296-0.07c-0.1-0.023-2.404-0.613-2.061-3.773c0.073-0.668,0.287-1.792,0.896-1.792c0.33,0,0.708,0.262,0.821,0.359
		l0.579,0.502v2.604h8.251l0.001-3.012h3.016c0,0,0.008,2.083-0.021,2.879c-0.018,0.504-0.417,0.857-0.651,1.025
		c-0.193,0.137-0.396,0.23-0.584,0.289c-0.063-0.242-0.31-0.43-0.613-0.43c-0.355,0-0.646,0.244-0.646,0.545
		c0,0.275,0.24,0.492,0.554,0.531v0.002c0.011,0.004,0.025,0.002,0.041,0.006c0.017,0,0.03,0.008,0.051,0.008
		c0.001,0,0.002,0,0.005,0c0.071,0.014,0.143,0.029,0.223,0.029c0.401,0,0.896-0.172,1.327-0.479
		c0.568-0.402,0.894-0.938,0.911-1.506c0.028-0.807,0.017-2.064,0.007-2.709c0.006,0,0.009,0,0.017,0v-0.803
		c-0.773-0.011-1.909-0.022-3.653-0.022l-0.001,0.003h-7.72c1.901-5.568,8.466-6.796,8.466-6.796s0.816,0.838-0.378,1.437
		c1.065,0.641,2.513-1.437,2.513-1.437s0.32,1.493-0.662,2.005c1.708,1.025,3.139-2.005,3.139-2.005s6.771-0.4,8.629,7.808
		l-0.033,0.36l0.962-0.835c0.087-0.076,0.48-0.359,0.823-0.359c0.604,0,0.818,1.125,0.894,1.792
		C37.681,28.198,35.375,28.818,35.281,28.841z M13.202,24.235c0-0.256,0.207-0.463,0.463-0.463c0.255,0,0.462,0.207,0.462,0.463
		c0,0.254-0.207,0.461-0.462,0.461C13.409,24.698,13.202,24.491,13.202,24.235z M16.682,26.388v-2.937l3.694-0.002v2.937
		L16.682,26.388z"/>
</g>
</svg>
