<?xml version="1.0" encoding="utf-8"?>
<!-- Generator: Adobe Illustrator 16.0.4, SVG Export Plug-In . SVG Version: 6.00 Build 0)  -->
<!DOCTYPE svg PUBLIC "-//W3C//DTD SVG 1.1//EN" "http://www.w3.org/Graphics/SVG/1.1/DTD/svg11.dtd">
<svg version="1.1" id="Layer_1" xmlns="http://www.w3.org/2000/svg" xmlns:xlink="http://www.w3.org/1999/xlink" x="0px" y="0px"
	 width="44.799px" height="44.799px" viewBox="0 0 44.799 44.799" enable-background="new 0 0 44.799 44.799" xml:space="preserve">
<g>
	<circle cx="24.896" cy="24.322" r="0.942"/>
	<circle cx="30.457" cy="24.422" r="0.943"/>
	<path d="M38.248,23.333c0.514-2.951,0.191-12.83-10.071-14.017c-10.263-1.186-12.091,6.768-12.091,6.768s-7.121-3.272-9.686,1.86
		c2.951-0.706,4.586,0.096,4.586,0.096s-4.298,4.234-2.405,9.333c1.059-6.734,6.832-9.687,6.832-9.687s0.588,5.228,0.353,5.966
		c-0.237,0.735,0.225,1.539-0.129,1.796c-0.353,0.257-5.003,7.855,3.688,10.008c-3.496-3.527-1.957-6.319-1.957-6.319
		s0.866,5.581,5.518,5.581c-2.275-2.41-2.666-6.225-2.621-8.854h1.404v-0.001h4.963v-2.821h0.145c0.125,0.5,0.418,1.752,0.4,2.221
		c-0.015,0.396-0.394,0.992-0.628,1.33c-0.059-0.113-0.174-0.194-0.312-0.194c-0.194,0-0.354,0.155-0.354,0.354
		c0,0.193,0.158,0.354,0.354,0.354c0.113,0,0.209-0.059,0.272-0.141l0.004,0.002c0.033-0.043,0.831-1.062,0.854-1.692
		c0.02-0.484-0.264-1.695-0.395-2.229h1.67c-0.132,0.533-0.412,1.744-0.396,2.229c0.023,0.633,0.82,1.649,0.854,1.692l0.004-0.002
		c0.063,0.082,0.16,0.141,0.273,0.141c0.192,0,0.354-0.158,0.354-0.354c0-0.194-0.158-0.354-0.354-0.354
		c-0.14,0-0.254,0.081-0.312,0.194c-0.234-0.338-0.611-0.937-0.629-1.33c-0.018-0.469,0.277-1.721,0.4-2.221h6.354
		c0.02,0.571,0.021,1.188,0.004,1.83c-0.096,3.506-3.453,7.998-8.914,8.212c1.06,1.699,5.484-0.576,5.484-0.576
		s0.225,1.635-2.406,1.986c1.636,0.771,4.008-0.674,4.008-0.674s-0.346,1.631-1.492,1.704
		C40.937,36.616,37.742,26.228,38.248,23.333z M19.039,24.322c-0.287,0-0.521-0.233-0.521-0.521s0.234-0.521,0.521-0.521
		c0.288,0,0.521,0.231,0.521,0.521C19.56,24.088,19.327,24.322,19.039,24.322z M26.246,25.477h-4.481v-2.311h4.481V25.477z
		 M22.872,22.197l4.239-1.339l7.641-2.08c0,0,0.281,1.353,0.404,3.419H22.872z"/>
	<path d="M29.431,30.058c0.094-0.051,0.127-0.168,0.075-0.26c-0.051-0.094-0.168-0.127-0.261-0.076
		c-0.009,0.004-0.642,0.347-1.447,0.347c-0.814,0-1.587-0.351-1.595-0.353c-0.098-0.045-0.213-0.002-0.256,0.095
		c-0.045,0.097-0.002,0.21,0.096,0.255c0.033,0.016,0.854,0.389,1.755,0.389C28.708,30.454,29.4,30.075,29.431,30.058z"/>
</g>
</svg>
