<?xml version="1.0" encoding="utf-8"?>
<!-- Generator: Adobe Illustrator 16.0.4, SVG Export Plug-In . SVG Version: 6.00 Build 0)  -->
<!DOCTYPE svg PUBLIC "-//W3C//DTD SVG 1.1//EN" "http://www.w3.org/Graphics/SVG/1.1/DTD/svg11.dtd">
<svg version="1.1" id="Layer_1" xmlns="http://www.w3.org/2000/svg" xmlns:xlink="http://www.w3.org/1999/xlink" x="0px" y="0px"
	 width="44.8px" height="44.8px" viewBox="0 0 44.8 44.8" enable-background="new 0 0 44.8 44.8" xml:space="preserve">
<g>
	<path d="M38.248,23.333c0.514-2.951,0.192-12.83-10.07-14.017c-10.263-1.186-12.091,6.768-12.091,6.768s-7.121-3.272-9.686,1.86
		c2.951-0.706,4.587,0.096,4.587,0.096s-4.298,4.234-2.406,9.333c1.059-6.734,6.832-9.687,6.832-9.687s0.589,5.228,0.353,5.966
		c-0.236,0.737,0.225,1.54-0.128,1.797c-0.354,0.257-5.004,7.855,3.688,10.007c-3.495-3.527-1.956-6.317-1.956-6.317
		s0.866,5.579,5.517,5.579c-2.771-2.937-2.746-7.952-2.544-10.377h0.484v0.004h1.971c0.012,0.513,0.428,0.923,0.94,0.923
		c0.514,0,0.93-0.41,0.938-0.923h0.689v-1.207h1.238c0.094,0.263,0.207,0.691,0.067,1.013c-0.141,0.324-0.459,0.788-0.676,1.085
		c-0.05-0.169-0.201-0.295-0.387-0.295c-0.228,0-0.409,0.183-0.409,0.407c0,0.228,0.185,0.409,0.409,0.409
		c0.119,0,0.225-0.054,0.299-0.135h0.002c0.026-0.035,0.684-0.88,0.912-1.408c0.149-0.348,0.053-0.787-0.045-1.076h1.051
		c-0.101,0.231-0.316,0.828-0.121,1.276c0.229,0.529,0.885,1.373,0.912,1.409v-0.002c0.075,0.082,0.18,0.137,0.299,0.137
		c0.229,0,0.41-0.185,0.41-0.41c0-0.227-0.184-0.41-0.41-0.41c-0.186,0-0.336,0.128-0.386,0.298
		c-0.216-0.298-0.536-0.761-0.677-1.086c-0.188-0.436,0.089-1.077,0.149-1.212h7.188c0.018,0.548,0.021,1.125,0.004,1.733
		c-0.098,3.505-3.455,7.998-8.916,8.212c1.059,1.698,5.483-0.578,5.483-0.578s0.226,1.638-2.405,1.987
		c1.637,0.771,4.01-0.672,4.01-0.672s-0.348,1.629-1.494,1.703C40.936,36.618,37.746,26.228,38.248,23.333z M20.857,23.618
		c-0.134,0-0.241-0.106-0.241-0.241c0-0.134,0.107-0.24,0.241-0.24s0.242,0.106,0.242,0.24S20.991,23.618,20.857,23.618z
		 M25.041,24.017h-0.416c-0.127-0.369-0.474-0.64-0.888-0.64c-0.413,0-0.761,0.271-0.888,0.64h-0.216V23.2h2.406v0.817H25.041z
		 M21.575,22.606l5.538-1.748l7.639-2.081c0,0,0.321,1.531,0.428,3.829H21.575z"/>
	<circle cx="30.458" cy="24.423" r="0.943"/>
	<path d="M28.799,29.204c0.094-0.051,0.127-0.168,0.074-0.261c-0.051-0.094-0.168-0.126-0.262-0.075
		c-0.006,0.003-0.635,0.347-1.445,0.347c-0.814,0-1.588-0.35-1.596-0.354c-0.097-0.044-0.21-0.001-0.255,0.095
		c-0.044,0.097-0.002,0.212,0.095,0.255c0.034,0.018,0.854,0.39,1.756,0.39C28.078,29.596,28.771,29.219,28.799,29.204z"/>
</g>
</svg>
