<?xml version="1.0" encoding="utf-8"?>
<!-- Generator: Adobe Illustrator 16.0.4, SVG Export Plug-In . SVG Version: 6.00 Build 0)  -->
<!DOCTYPE svg PUBLIC "-//W3C//DTD SVG 1.1//EN" "http://www.w3.org/Graphics/SVG/1.1/DTD/svg11.dtd">
<svg version="1.1" id="Layer_1" xmlns="http://www.w3.org/2000/svg" xmlns:xlink="http://www.w3.org/1999/xlink" x="0px" y="0px"
	 width="44.801px" height="44.801px" viewBox="0 0 44.801 44.801" enable-background="new 0 0 44.801 44.801" xml:space="preserve">
<g>
	<path d="M38.25,23.335c0.512-2.952,0.191-12.83-10.072-14.017s-12.091,6.768-12.091,6.768S8.966,12.814,6.4,17.945
		c2.951-0.706,4.587,0.096,4.587,0.096s-4.298,4.234-2.405,9.334c1.059-6.735,6.832-9.687,6.832-9.687s0.589,5.228,0.353,5.966
		c-0.236,0.736,0.225,1.539-0.128,1.796c-0.354,0.257-5.004,7.856,3.688,10.007c-3.494-3.527-1.955-6.317-1.955-6.317
		s0.865,5.579,5.517,5.579c-2.314-2.452-2.679-6.356-2.617-8.99h6.401v-2.796c0.422,0.062,0.653,0.985,0.653,1.633
		c0,0.547-0.227,1.396-0.588,1.783c-0.028-0.151-0.157-0.269-0.317-0.269c-0.184,0-0.33,0.147-0.33,0.33
		c0,0.184,0.146,0.33,0.33,0.33c0.06,0,0.111-0.021,0.16-0.047c0.625-0.26,0.938-1.491,0.938-2.13c0-0.74-0.265-1.773-0.847-1.826
		v-0.02h-5.453l5.895-1.859l7.641-2.081c0,0,0.545,2.589,0.447,6.093c-0.096,3.505-3.453,7.998-8.915,8.213
		c1.06,1.698,5.483-0.578,5.483-0.578s0.227,1.637-2.404,1.987c1.637,0.771,4.01-0.674,4.01-0.674s-0.348,1.631-1.494,1.704
		C40.936,36.619,37.747,26.229,38.25,23.335z M22.028,23.105h4.257v2.236h-4.257V23.105z"/>
	<circle cx="23.737" cy="24.324" r="0.942"/>
	<circle cx="30.459" cy="24.424" r="0.943"/>
	<path d="M28.8,29.205c0.093-0.051,0.127-0.168,0.074-0.261c-0.052-0.094-0.168-0.126-0.263-0.075
		c-0.006,0.003-0.635,0.347-1.444,0.347c-0.815,0-1.588-0.35-1.597-0.354c-0.096-0.044-0.21-0.001-0.255,0.095
		c-0.044,0.097-0.002,0.212,0.096,0.255c0.033,0.018,0.854,0.39,1.756,0.39C28.079,29.599,28.771,29.221,28.8,29.205z"/>
</g>
</svg>
