<?xml version="1.0" encoding="utf-8"?>
<!-- Generator: Adobe Illustrator 16.0.4, SVG Export Plug-In . SVG Version: 6.00 Build 0)  -->
<!DOCTYPE svg PUBLIC "-//W3C//DTD SVG 1.1//EN" "http://www.w3.org/Graphics/SVG/1.1/DTD/svg11.dtd">
<svg version="1.1" id="Layer_1" xmlns="http://www.w3.org/2000/svg" xmlns:xlink="http://www.w3.org/1999/xlink" x="0px" y="0px"
	 width="44.801px" height="44.801px" viewBox="0 0 44.801 44.801" enable-background="new 0 0 44.801 44.801" xml:space="preserve">
<g>
	<path d="M38.25,22.631c0.512-2.952,0.191-12.83-10.072-14.017c-10.264-1.185-12.091,6.769-12.091,6.769S8.966,12.11,6.4,17.242
		c2.951-0.706,4.587,0.097,4.587,0.097s-4.298,4.234-2.406,9.333c1.059-6.735,6.832-9.688,6.832-9.688s0.589,5.229,0.353,5.966
		c-0.236,0.737,0.225,1.539-0.128,1.797c-0.354,0.257-5.004,7.856,3.688,10.007c-3.495-3.527-1.956-6.317-1.956-6.317
		s0.866,5.58,5.517,5.58c-2.407-2.552-2.704-6.672-2.608-9.301c1.121,0.3,2.646,0.588,3.603,0.588c0.293,0,0.533-0.027,0.691-0.089
		c0.719-0.275,0.859-0.703,0.938-0.936c0.008-0.021,0.017-0.05,0.025-0.07c0.639,1.056,1,2.068,1.092,2.346h-0.213v0.826h0.344
		v1.099c-0.646-0.081-1.178-0.316-1.186-0.32c-0.096-0.044-0.21-0.002-0.255,0.096c-0.044,0.098-0.002,0.211,0.097,0.256
		c0.027,0.014,0.617,0.273,1.344,0.355v3.484c-0.154,0.014-0.312,0.022-0.473,0.03c0.118,0.188,0.28,0.326,0.473,0.428v0.669h-0.215
		l-0.269,0.812l0,0l-0.133,0.395h0.003v1.221h0.325v0.401h1.052v-0.402h0.401v-1.223l-0.104-0.282l-0.004-0.011l-0.037-0.101h-0.002
		l-0.321-0.812h-0.16v-0.501c1.68,0.266,4.479-1.173,4.479-1.173s0.226,1.636-2.406,1.986c1.638,0.771,4.011-0.674,4.011-0.674
		s-0.349,1.631-1.494,1.704C40.936,35.915,37.747,25.526,38.25,22.631z M27.048,22.693c0.5,0.017,0.807,0.779,0.892,1.022
		c-0.357,0.65-0.688,1.389-0.923,1.952c-0.252-0.605-0.562-1.293-0.893-1.899C26.268,23.438,26.608,22.679,27.048,22.693z
		 M25.827,23.253c-0.197-0.317-0.398-0.595-0.597-0.792c-0.528-0.528-1.102-0.906-1.52-1.146h6.612
		c-0.418,0.238-0.989,0.616-1.52,1.146c-0.185,0.185-0.372,0.438-0.557,0.729c-0.193-0.488-0.527-1.243-1.199-1.225
		C26.394,21.986,26.027,22.808,25.827,23.253z M27.069,25.849c0.408-0.988,1.151-2.642,1.817-3.308
		c0.604-0.603,1.263-1.005,1.679-1.226h0.582v0.271c-0.593,0.266-1.354,0.727-2.001,1.51c-1.155,1.399-1.792,3.173-1.891,3.459
		h-0.465C26.861,26.383,27.025,25.977,27.069,25.849z M29.235,23.169c0.617-0.747,1.34-1.194,1.912-1.458v1.164h4.062
		c0.004,0.227,0.006,0.456,0.004,0.69c-0.039,0.204-0.109,0.397-0.25,0.516c-0.422,0.351-4.545,1.348-5.512,0.975
		c-0.675-0.26-0.727-0.615-0.76-0.854c-0.013-0.079-0.021-0.149-0.062-0.202C28.813,23.719,29.013,23.437,29.235,23.169z
		 M32.145,21.374l0.289-0.051l-0.033-0.007h1.518v1.239h1.283c0.002,0.048,0.004,0.098,0.004,0.146h-3.887v-1.065
		C31.798,21.435,32.136,21.374,32.145,21.374z M31.319,21.514v-0.196h0.553l0.01,0.003C31.741,21.358,31.546,21.42,31.319,21.514z
		 M35.149,21.364c0.012,0.16,0.021,0.322,0.026,0.491c-0.037,0.02-0.078,0.034-0.125,0.034c-0.149,0-0.272-0.122-0.272-0.272
		c0-0.148,0.123-0.271,0.272-0.271C35.086,21.345,35.12,21.353,35.149,21.364z M35.138,21.19c-0.028-0.006-0.057-0.018-0.088-0.018
		c-0.246,0-0.444,0.198-0.444,0.443c0,0.245,0.198,0.444,0.444,0.444c0.048,0,0.093-0.015,0.134-0.027
		c0.006,0.115,0.01,0.23,0.014,0.35H34.09v-1.291h1.041C35.132,21.125,35.134,21.157,35.138,21.19z M27.113,20.156l7.64-2.081
		c0,0,0.215,1.02,0.352,2.639h-3.955v0.087h-6.073L27.113,20.156z M25.343,24.227c-0.071,0.217-0.193,0.581-0.836,0.827
		c-0.66,0.256-2.804-0.134-4.227-0.516c0.061-1.373,0.224-2.298,0.224-2.298l2.082-0.657c0.6,0.232,1.48,0.696,2.212,1.584
		c0.232,0.283,0.442,0.581,0.633,0.881C25.39,24.092,25.367,24.16,25.343,24.227z M26.709,26.44
		c-0.133-0.377-0.515-1.393-1.158-2.42l0.002-0.006c-0.002,0-0.004,0.001-0.006,0c-0.194-0.312-0.412-0.623-0.656-0.919
		c-0.697-0.846-1.524-1.312-2.132-1.563l0.682-0.216h0.032c0.416,0.221,1.074,0.622,1.678,1.226
		c0.674,0.676,1.417,2.333,1.808,3.276C26.845,26.087,26.759,26.306,26.709,26.44z M26.874,28.876
		c0.049,0.006,0.094,0.012,0.144,0.014v-0.386c-0.048-0.003-0.097-0.009-0.144-0.015v-1.107h0.307v4.924
		c-0.104,0.013-0.203,0.023-0.307,0.035V28.876z M27.407,36.191h-0.82v-0.229h0.82V36.191z M27.757,34.567l-1.455,0.001l0.055-0.161
		l1.341-0.004L27.757,34.567z M27.375,33.593l0.274,0.69l-1.253,0.005l0.229-0.695H27.375z M27.177,33.474h-0.307v-0.611
		c0.098,0.04,0.197,0.072,0.307,0.096V33.474z M27.293,32.29v-4.908h0.344v-0.826h-0.258c0.098-0.278,0.479-1.309,1.137-2.371
		c0.003,0.016,0.005,0.03,0.007,0.044c0.034,0.241,0.102,0.69,0.868,0.987c0.158,0.062,0.398,0.089,0.691,0.089
		c1.551,0,4.586-0.757,4.99-1.092c0.051-0.042,0.094-0.092,0.131-0.146c-0.002,0.036-0.002,0.069-0.002,0.104
		C35.112,27.453,32.157,31.604,27.293,32.29z"/>
	<circle cx="23.737" cy="23.621" r="0.943"/>
	<circle cx="30.459" cy="23.721" r="0.943"/>
	<path d="M28.614,28.166c-0.005,0.003-0.468,0.252-1.107,0.323v0.39c0.737-0.072,1.271-0.361,1.295-0.377
		c0.094-0.052,0.127-0.168,0.076-0.262C28.825,28.147,28.709,28.115,28.614,28.166z"/>
</g>
</svg>
