<?xml version="1.0" encoding="utf-8"?>
<!-- Generator: Adobe Illustrator 16.0.4, SVG Export Plug-In . SVG Version: 6.00 Build 0)  -->
<!DOCTYPE svg PUBLIC "-//W3C//DTD SVG 1.1//EN" "http://www.w3.org/Graphics/SVG/1.1/DTD/svg11.dtd">
<svg version="1.1" id="Layer_1" xmlns="http://www.w3.org/2000/svg" xmlns:xlink="http://www.w3.org/1999/xlink" x="0px" y="0px"
	 width="44.801px" height="44.801px" viewBox="0 0 44.801 44.801" enable-background="new 0 0 44.801 44.801" xml:space="preserve">
<g>
	<path d="M38.25,23.333c0.512-2.951,0.191-12.83-10.072-14.017c-10.263-1.187-12.091,6.768-12.091,6.768s-7.121-3.272-9.687,1.86
		c2.951-0.706,4.587,0.096,4.587,0.096s-4.298,4.234-2.406,9.333c1.059-6.733,6.832-9.687,6.832-9.687s0.589,5.228,0.353,5.966
		c-0.236,0.737,0.225,1.54-0.128,1.797c-0.354,0.257-5.004,7.856,3.688,10.007c-3.495-3.527-1.956-6.317-1.956-6.317
		s0.866,5.579,5.517,5.579c-2.876-3.047-2.741-8.336-2.521-10.643h0.698c0,0.411,0,0.857,0,0.857h0.629v-0.747h1.116
		c-0.007,0.045-0.014,0.09-0.014,0.137c0,0.521,0.421,0.942,0.941,0.942c0.521,0,0.942-0.423,0.942-0.942
		c0-0.22-0.077-0.42-0.204-0.58v-0.489c0.362,0.004,0.745,0.006,1.138,0.011c0.047,0.15,0.079,0.316,0.073,0.506
		c-0.011,0.34-0.077,0.634-0.158,0.876c-0.197-0.102-0.494,0.06-0.663,0.363c-0.173,0.312-0.149,0.651,0.05,0.765
		c0.161,0.09,0.391-0.002,0.562-0.205c0,0,0.557-0.705,0.59-1.787c0.006-0.187-0.017-0.357-0.054-0.514
		c0.709,0.005,1.435,0.01,2.121,0.015c-0.035,0.153-0.058,0.319-0.051,0.499c0.032,1.082,0.59,1.787,0.59,1.787
		c0.174,0.203,0.401,0.295,0.562,0.205c0.2-0.111,0.223-0.453,0.05-0.765c-0.171-0.306-0.465-0.465-0.663-0.363
		c-0.08-0.242-0.146-0.536-0.158-0.876c-0.006-0.181,0.023-0.338,0.065-0.484c1.498,0.012,5.123,0.021,5.429,0.021
		c0.592,0,1.037,0.392,1.252,0.622c0,0.309-0.002,0.621-0.011,0.945c-0.098,3.506-3.454,7.999-8.917,8.212
		c1.061,1.699,5.485-0.576,5.485-0.576s0.225,1.635-2.406,1.986c1.638,0.771,4.011-0.673,4.011-0.673s-0.349,1.63-1.494,1.703
		C40.936,36.617,37.747,26.228,38.25,23.333z M21.065,23.693h-0.661c0.054-0.475,0.103-0.75,0.103-0.75l1.596-0.504h1.265v0.445
		c-0.95-0.008-1.609-0.016-1.669-0.018C21.213,22.868,21.073,23.26,21.065,23.693z M21.708,23.54c-0.116,0-0.209-0.094-0.209-0.209
		s0.093-0.209,0.209-0.209c0.114,0,0.207,0.094,0.207,0.209S21.821,23.54,21.708,23.54z M33.959,22.943
		c-0.293,0-3.85-0.008-5.279-0.02c0.211-0.367,0.507-0.566,0.525-0.58l-0.207-0.319c-0.027,0.02-0.486,0.324-0.744,0.896
		c-0.761-0.006-1.574-0.013-2.362-0.019c-0.259-0.562-0.709-0.861-0.736-0.88l-0.207,0.319c0.02,0.013,0.303,0.204,0.512,0.557
		c-0.608-0.005-1.19-0.009-1.709-0.014v-0.829H23.31l3.803-1.2l7.64-2.08c0,0,0.398,1.901,0.453,4.646
		C34.915,23.186,34.489,22.943,33.959,22.943z"/>
	<circle cx="30.459" cy="24.422" r="0.943"/>
	<path d="M28.8,29.203c0.093-0.051,0.127-0.168,0.074-0.261c-0.052-0.094-0.168-0.126-0.263-0.075
		c-0.006,0.003-0.635,0.347-1.444,0.347c-0.815,0-1.588-0.35-1.597-0.354c-0.096-0.044-0.21-0.001-0.255,0.095
		c-0.044,0.097-0.002,0.212,0.096,0.255c0.033,0.018,0.854,0.39,1.756,0.39C28.079,29.597,28.771,29.219,28.8,29.203z"/>
</g>
</svg>
