<?xml version="1.0" encoding="utf-8"?>
<!-- Generator: Adobe Illustrator 16.0.4, SVG Export Plug-In . SVG Version: 6.00 Build 0)  -->
<!DOCTYPE svg PUBLIC "-//W3C//DTD SVG 1.1//EN" "http://www.w3.org/Graphics/SVG/1.1/DTD/svg11.dtd">
<svg version="1.1" id="Layer_1" xmlns="http://www.w3.org/2000/svg" xmlns:xlink="http://www.w3.org/1999/xlink" x="0px" y="0px"
	 width="44.799px" height="44.799px" viewBox="0 0 44.799 44.799" enable-background="new 0 0 44.799 44.799" xml:space="preserve">
<g>
	<path d="M38.248,23.333c0.512-2.951,0.191-12.83-10.072-14.017c-10.264-1.187-12.09,6.769-12.09,6.769s-7.12-3.272-9.686,1.859
		c2.951-0.706,4.587,0.096,4.587,0.096s-4.298,4.234-2.405,9.334c1.059-6.735,6.831-9.688,6.831-9.688s0.589,5.229,0.353,5.967
		c-0.236,0.736,0.225,1.539-0.127,1.795c-0.354,0.258-5.004,7.857,3.687,10.009c-3.494-3.529-1.956-6.318-1.956-6.318
		s0.866,5.58,5.518,5.58c-2.72-2.883-2.746-7.771-2.556-10.24l2.479-0.014c0.069,0.453,0.458,0.802,0.929,0.802
		c0.521,0,0.943-0.423,0.943-0.942c0-0.521-0.422-0.941-0.943-0.941c-0.125,0-0.246,0.025-0.354,0.07l-2.952,0.041
		c0.01-0.078,0.02-0.151,0.028-0.215c1.705-0.004,6.232,0,6.307,0.013c0.073,0.014,0.11,0.062,0.127,0.112
		c0.057,0.184-0.201,0.531-0.428,0.84c-0.23,0.312-0.433,0.584-0.359,0.736c0.03,0.062,0.102,0.098,0.209,0.104l0,0h0.002
		c0.213-0.004,0.35-0.043,0.429-0.127c0.092-0.1,0.104-0.311,0.097-0.445c-0.005-0.093-0.011-0.188,0.017-0.271
		c0.045-0.135,0.27-0.199,0.479-0.198c0.192,0.002,0.287,0.091,0.322,0.192c0.034,0.103-0.011,0.241-0.054,0.36
		c-0.054,0.146-0.078,0.28-0.01,0.384c0.051,0.077,0.157,0.116,0.334,0.129c0.064,0.002,0.141,0.002,0.23-0.007
		c0.062-0.011,0.104-0.041,0.13-0.091c0.064-0.135-0.057-0.372-0.21-0.676c-0.168-0.33-0.359-0.704-0.271-0.929
		c0.031-0.076,0.09-0.137,0.191-0.166c0.104-0.029,5.298-0.014,7.2,0c0.014,0.517,0.018,1.062,0,1.631
		c-0.096,3.506-3.453,7.998-8.915,8.211c1.06,1.701,5.483-0.576,5.483-0.576s0.225,1.637-2.404,1.988
		c1.637,0.771,4.01-0.674,4.01-0.674s-0.348,1.631-1.494,1.703C40.937,36.616,37.742,26.229,38.248,23.333z M27.111,20.858
		l7.639-2.08c0,0,0.322,1.533,0.428,3.836h-0.006c0.002,0,0.004,0.002,0.006,0.002c0,0.006,0,0.014,0,0.019
		c0,0-10.836,0.061-13.938,0.076L27.111,20.858z M21.365,23.564l1.846-0.025c-0.251,0.171-0.417,0.457-0.417,0.783
		c0,0.021,0.004,0.037,0.006,0.058l-1.476,0.006L21.365,23.564z M21.279,23.567l-0.043,0.817l-0.9,0.005
		c0.012-0.154,0.024-0.304,0.039-0.437c0.018,0.084,0.088,0.152,0.179,0.156c0.108,0.006,0.201-0.078,0.207-0.188
		c0.006-0.108-0.079-0.201-0.188-0.207c-0.079-0.003-0.151,0.041-0.187,0.108c0.01-0.09,0.02-0.172,0.028-0.25L21.279,23.567z
		 M20.454,23.909c0.003-0.062,0.056-0.107,0.115-0.104c0.062,0.002,0.108,0.056,0.105,0.116c-0.003,0.062-0.058,0.106-0.117,0.104
		C20.498,24.023,20.448,23.97,20.454,23.909z M27.974,23.157c-0.152,0.045-0.207,0.117-0.248,0.218
		c-0.104,0.258,0.098,0.651,0.274,0.997c0.126,0.248,0.256,0.503,0.208,0.602c-0.009,0.015-0.021,0.034-0.062,0.043
		c-0.271,0.017-0.435-0.013-0.48-0.086c-0.047-0.065-0.028-0.182,0.017-0.307c0.045-0.123,0.083-0.275,0.055-0.405
		c-0.028-0.129-0.174-0.246-0.402-0.252c-0.249-0.006-0.508,0.078-0.562,0.246c-0.031,0.098-0.023,0.202-0.021,0.303
		c0.008,0.128-0.008,0.311-0.073,0.383c-0.062,0.062-0.18,0.098-0.363,0.1c-0.074-0.004-0.119-0.021-0.135-0.055
		c-0.05-0.105,0.163-0.396,0.352-0.648c0.252-0.34,0.512-0.69,0.44-0.917c-0.041-0.125-0.159-0.175-0.233-0.175
		c-0.072,0-4.556-0.014-6.271-0.01c0.021-0.158,0.038-0.248,0.038-0.248l0.461-0.146c2.9-0.014,10.864-0.053,12.288-0.06h0.002
		c0.127-0.001,0.201,0,0.211-0.001h0.096l-0.002-0.003l1.623-0.016c0.006,0.144,0.01,0.286,0.016,0.436
		C34.277,23.148,28.127,23.114,27.974,23.157z"/>
	<circle cx="30.447" cy="24.423" r="0.943"/>
	<path d="M28.791,29.204c0.093-0.051,0.127-0.168,0.074-0.262c-0.051-0.094-0.168-0.125-0.262-0.074
		c-0.006,0.002-0.636,0.346-1.447,0.346c-0.813,0-1.586-0.35-1.594-0.354c-0.097-0.043-0.211,0-0.256,0.096
		c-0.044,0.097-0.002,0.211,0.096,0.255c0.033,0.018,0.854,0.389,1.754,0.389C28.066,29.599,28.761,29.22,28.791,29.204z"/>
</g>
</svg>
