<?xml version="1.0" encoding="utf-8"?>
<!-- Generator: Adobe Illustrator 16.0.4, SVG Export Plug-In . SVG Version: 6.00 Build 0)  -->
<!DOCTYPE svg PUBLIC "-//W3C//DTD SVG 1.1//EN" "http://www.w3.org/Graphics/SVG/1.1/DTD/svg11.dtd">
<svg version="1.1" id="Layer_1" xmlns="http://www.w3.org/2000/svg" xmlns:xlink="http://www.w3.org/1999/xlink" x="0px" y="0px"
	 width="44.8px" height="44.799px" viewBox="0 0 44.8 44.799" enable-background="new 0 0 44.8 44.799" xml:space="preserve">
<path d="M36.335,21.85l2.063-0.027l-0.026-3.076v-0.179h-2.882v-3.013c0-0.417-0.34-0.756-0.758-0.756
	c-0.416,0-0.756,0.339-0.756,0.756c0,0.034,0.004,0.066,0.008,0.1v2.771L15.19,19.207c0,0-2.48,0.068-3.65,1.448
	c-1.172,1.38-3.803,4.669-4.806,5.95c-1.004,1.282,0.491,2.416,1.477,1.24c0.984-1.176,3.746-4.738,4.415-5.463
	c0.669-0.726,1.919-1.192,3.175-1.282c1.258-0.09,3.707-0.266,3.707-0.266s1.701-0.331,2.033,0.516
	c0.285,0.899,3.101,0.726,3.101,0.726l9.345-0.277v7.345c-0.004,0.033-0.008,0.065-0.008,0.1c0,0.419,0.338,0.757,0.756,0.757
	c0.403,0,0.733-0.318,0.754-0.718h0.002v-10.04h0.822L36.335,21.85z"/>
</svg>
