<?xml version="1.0" encoding="utf-8"?>
<!-- Generator: Adobe Illustrator 16.0.4, SVG Export Plug-In . SVG Version: 6.00 Build 0)  -->
<!DOCTYPE svg PUBLIC "-//W3C//DTD SVG 1.1//EN" "http://www.w3.org/Graphics/SVG/1.1/DTD/svg11.dtd">
<svg version="1.1" id="Layer_1" xmlns="http://www.w3.org/2000/svg" xmlns:xlink="http://www.w3.org/1999/xlink" x="0px" y="0px"
	 width="44.801px" height="44.801px" viewBox="0 0 44.801 44.801" enable-background="new 0 0 44.801 44.801" xml:space="preserve">
<path d="M38.401,12.332c-2.519-0.034-2.857-0.073-8.543-0.076v0.005H6.4v11.869h23.529v-9.812h6.459c0,0,0.025,9.08-0.063,11.685
	c-0.055,1.636-1.357,2.798-2.127,3.342c-0.631,0.448-1.291,0.75-1.902,0.948c-0.207-0.795-1.006-1.401-2-1.401
	c-1.16,0-2.098,0.796-2.098,1.778c0,0.895,0.783,1.604,1.797,1.73v0.002c0.037,0.015,0.09,0.008,0.137,0.021
	c0.053,0.003,0.104,0.026,0.164,0.026c0.004,0,0.008-0.002,0.016-0.002c0.232,0.045,0.465,0.101,0.729,0.101
	c1.307,0,2.92-0.563,4.322-1.563c1.854-1.312,2.912-3.059,2.973-4.91c0.09-2.625,0.053-9.025,0.021-11.126c0.02,0,0.026,0,0.045,0
	V12.332L38.401,12.332z M10.262,17.478c-0.832,0-1.507-0.676-1.507-1.508c0-0.833,0.675-1.508,1.507-1.508s1.509,0.675,1.509,1.508
	C11.771,16.801,11.094,17.478,10.262,17.478z M28.782,22.981H16.474v-9.573h12.308V22.981z"/>
</svg>
