<?xml version="1.0" encoding="utf-8"?>
<!-- Generator: Adobe Illustrator 16.0.4, SVG Export Plug-In . SVG Version: 6.00 Build 0)  -->
<!DOCTYPE svg PUBLIC "-//W3C//DTD SVG 1.1//EN" "http://www.w3.org/Graphics/SVG/1.1/DTD/svg11.dtd">
<svg version="1.1" id="Layer_1" xmlns="http://www.w3.org/2000/svg" xmlns:xlink="http://www.w3.org/1999/xlink" x="0px" y="0px"
	 width="44.805px" height="44.805px" viewBox="0 0 44.805 44.805" enable-background="new 0 0 44.805 44.805" xml:space="preserve">
<path d="M36.799,14.601H8.617c-0.601,0.001-1.403,0.598-1.717,1.122c-0.321,0.545-0.5,1.279-0.5,2.067
	c0,1.63,0.763,3.281,2.217,3.281H25.04c0.225,0,0.407-0.183,0.407-0.407v-4.434h3.689c0.302,1.344,0.787,4.77,0.479,6.405
	c-0.225,1.18-1.061,3.844-1.722,4.771c-0.445-0.357-0.806-0.153-1.179,0.136c-0.375,0.288-1.537,1.333-1.396,1.951
	c0.103,0.438,0.465,0.709,0.937,0.709c0.033,0,0.064,0,0.099-0.004c1.22-0.094,3.653-4.814,4.143-7.396
	c0.325-1.729-0.128-5.134-0.438-6.572h3.475c-0.312,1.438-0.649,4.844-0.323,6.572c0.487,2.58,2.924,7.303,4.144,7.396
	c0.03,0.004,0.063,0.004,0.098,0.004c0.471,0,0.836-0.271,0.938-0.709c0.143-0.618-0.799-1.646-1.396-1.951
	c-0.597-0.309-0.753-0.521-1.194-0.16c-0.662-0.925-1.482-3.565-1.707-4.745c-0.311-1.637,0.062-5.062,0.363-6.405h2.345
	c0.451,0,0.814-0.364,0.814-0.813C37.614,14.966,37.251,14.601,36.799,14.601z M11.589,19.102c-0.676,0-1.226-0.549-1.226-1.223
	c0-0.675,0.55-1.224,1.226-1.224c0.675,0,1.223,0.549,1.223,1.224C12.81,18.554,12.262,19.102,11.589,19.102z M24.631,20.256h-8.623
	l0.05-4.024h8.573V20.256z M26.288,29.304c-0.06,0.009-0.084-0.003-0.09-0.003h-0.002c-0.006-0.015-0.019-0.076,0.02-0.189
	c0.039-0.106,0.207-0.485,0.832-0.736c0.217-0.086,0.354-0.117,0.437-0.128l0.041,0.014C26.983,28.888,26.499,29.287,26.288,29.304z
	 M36.223,28.245c0.079,0.012,0.218,0.042,0.435,0.129c0.625,0.251,0.793,0.63,0.831,0.736c0.039,0.116,0.022,0.182,0.022,0.187
	c0,0-0.022,0.02-0.094,0.008c-0.211-0.018-0.695-0.416-1.235-1.045L36.223,28.245z"/>
</svg>
