<?xml version="1.0" encoding="utf-8"?>
<!-- Generator: Adobe Illustrator 16.0.4, SVG Export Plug-In . SVG Version: 6.00 Build 0)  -->
<!DOCTYPE svg PUBLIC "-//W3C//DTD SVG 1.1//EN" "http://www.w3.org/Graphics/SVG/1.1/DTD/svg11.dtd">
<svg version="1.1" id="Layer_1" xmlns="http://www.w3.org/2000/svg" xmlns:xlink="http://www.w3.org/1999/xlink" x="0px" y="0px"
	 width="47.521px" height="47.521px" viewBox="0 0 47.521 47.521" enable-background="new 0 0 47.521 47.521" xml:space="preserve">
<g>
	<circle cx="18.719" cy="24.906" r="1.388"/>
	<circle cx="28.541" cy="24.906" r="1.388"/>
	<path d="M26.376,31.472c-0.031,0.037-0.795,0.928-2.562,0.928c-1.772,0-2.598-0.779-2.611-0.797c-0.133-0.133-0.351-0.133-0.481,0
		c-0.135,0.131-0.136,0.35-0.004,0.482c0.041,0.041,1.01,0.998,3.099,0.998c2.109,0,3.052-1.133,3.091-1.18
		c0.116-0.146,0.097-0.357-0.051-0.479C26.711,31.306,26.496,31.325,26.376,31.472z"/>
	<path d="M38.358,24.956c-0.189-3.188-2.223-2.797-2.235-2.84c0.104-0.677,0.177-1.938,0.177-2.242
		C36.297,13.184,30.684,7.761,23.76,7.761c-6.924,0-12.537,5.423-12.537,12.112c0,0.479-0.095,1.65-0.013,2.389
		c-0.046-0.003-0.089-0.012-0.134-0.012c-0.737,0-1.668,0.47-1.913,2.706c-0.362,3.312,1.75,4.469,2.545,4.781
		c0.523,1.611,3.671,10.021,11.976,10.023h0.079c8.356-0.055,11.521-8.418,12.048-10.021C36.606,29.427,38.721,28.273,38.358,24.956
		z M21.455,16.302c0,0,0.816,0.838-0.378,1.437c1.065,0.641,2.513-1.437,2.513-1.437s0.32,1.493-0.662,2.005
		c1.708,1.025,3.139-2.005,3.139-2.005s5.806-0.338,8.139,6.132c-1.783,0.157-4.756,0.228-9.549,0.228
		c-6.157,0-9.23-0.079-10.964-0.282c-0.149-0.02-0.284-0.037-0.411-0.057C15.493,17.407,21.455,16.302,21.455,16.302z
		 M20.867,23.186v3.012c0,0.232-0.273,0.393-0.732,0.422c-0.229,0.006-0.458,0.008-0.681,0.008c-2.629,0-4.122-0.326-4.585-0.445
		V23.01c1.286,0.085,3.072,0.136,5.645,0.16L20.867,23.186z M12.796,23.76l-0.006-0.066c0.05-0.188,0.104-0.373,0.166-0.555
		c0.032-0.009,0.062-0.02,0.098-0.02c0.205,0,0.373,0.168,0.373,0.372c0,0.207-0.168,0.373-0.373,0.373
		C12.954,23.866,12.864,23.825,12.796,23.76z M35.281,28.841l-0.294,0.07l-0.08,0.291c-0.026,0.096-2.735,9.479-11.149,9.533h-0.073
		c-8.35-0.002-11.043-9.438-11.067-9.531l-0.08-0.293l-0.296-0.07c-0.1-0.023-2.404-0.613-2.061-3.773
		c0.073-0.668,0.287-1.792,0.896-1.792c0.329,0,0.707,0.262,0.82,0.359l0.149,0.13c0,1.259,0,1.244,0,1.496
		c0,0.668,2.401,1.076,2.695,1.123c0.387,0.107,1.903,0.473,4.71,0.473c0.222,0,0.452-0.002,0.688-0.008
		c0.706-0.045,0.951-0.355,0.951-0.648c0-0.246,0-2.356,0-3.025c0.331,0.004,0.676,0.005,1.033,0.007
		c0.478,0.397,1.444,1.434,1.444,3.305c0,1.561-0.726,2.525-1.263,3.029c0.044-0.162,0.023-0.32-0.07-0.43
		c-0.188-0.217-0.597-0.17-0.909,0.104c-0.313,0.275-0.415,0.672-0.229,0.889c0.169,0.193,0.515,0.174,0.809-0.027
		c0.38-0.238,1.837-1.309,1.837-3.562c0-1.756-0.823-2.809-1.354-3.303c0.704,0.003,1.456,0.004,2.264,0.004
		c0.947,0,1.823-0.003,2.635-0.008c-0.451,0.345-1.615,1.438-1.615,3.526c0,2.256,1.458,3.324,1.837,3.562
		c0.296,0.201,0.638,0.221,0.807,0.027c0.188-0.219,0.089-0.613-0.227-0.889c-0.314-0.273-0.721-0.32-0.909-0.104
		c-0.096,0.109-0.116,0.266-0.072,0.428c-0.535-0.502-1.261-1.469-1.261-3.027c0-2.473,1.688-3.487,1.705-3.497l-0.018-0.031
		c3.263-0.023,5.414-0.096,6.838-0.23c0.117,0.369,0.226,0.755,0.317,1.167l-0.031,0.359l0.962-0.835
		c0.087-0.076,0.48-0.358,0.823-0.358c0.604,0,0.818,1.125,0.894,1.792C37.681,28.198,35.375,28.818,35.281,28.841z"/>
</g>
</svg>
