<?xml version="1.0" encoding="utf-8"?>
<!-- Generator: Adobe Illustrator 16.0.4, SVG Export Plug-In . SVG Version: 6.00 Build 0)  -->
<!DOCTYPE svg PUBLIC "-//W3C//DTD SVG 1.1//EN" "http://www.w3.org/Graphics/SVG/1.1/DTD/svg11.dtd">
<svg version="1.1" id="Layer_1" xmlns="http://www.w3.org/2000/svg" xmlns:xlink="http://www.w3.org/1999/xlink" x="0px" y="0px"
	 width="44.801px" height="44.803px" viewBox="0 0 44.801 44.803" enable-background="new 0 0 44.801 44.803" xml:space="preserve">
<g>
	<path d="M33.704,29.148l-2.323,1.596c-0.022-0.018-0.045-0.031-0.062-0.041c-1.915,1.19-2.917,1.1-3.456,1.13
		c-1.03,0.346-0.403,1.101-0.403,1.101l0.291,1.467c0,0,1.765,0.512,2.867,0.321c1.103-0.188,2.339-1.569,2.339-1.569l-0.002-0.004
		l2.176-1.636v-1.535h-0.002l0.008-0.008L33.704,29.148z M30.859,34.243c-0.309,0.114-0.623,0.034-0.704-0.183
		s0.104-0.483,0.412-0.6s0.623-0.033,0.703,0.183C31.353,33.86,31.168,34.129,30.859,34.243z M32.74,31.719
		c-0.217-0.157-0.886-0.646-1.242-0.894l2.213-1.521l1.189,0.684L32.74,31.719z M35,31.445l-2.061,1.548l-0.122-1.165L35,30.079
		V31.445z"/>
	<path d="M38.225,14.943c-0.721-1.766-2.184-3.102-3.821-3.488c-0.138-0.032-0.269-0.063-0.394-0.095
		c-2.059-0.495-2.754-0.662-15.717-1.311c-0.019-0.006-0.038-0.01-0.059-0.01c-0.114,0-0.207,0.092-0.207,0.207
		c0,0.112,0.092,0.206,0.207,0.206c0.008,0,0.017-0.002,0.025-0.003c12.94,0.646,13.628,0.811,15.66,1.3
		c0.125,0.03,0.254,0.062,0.394,0.094c1.513,0.358,2.87,1.604,3.542,3.25c0.738,1.812-1.271,8.186-2.354,9.895
		c-2.582,4.271-6.51,5.75-9.435,5.757c-0.074-0.021-0.159-0.03-0.257-0.021c-1.425,0.021-8.909-3.33-11.47-4.934
		C12,24.323,7.214,20.237,7.214,20.237s-0.712,0.29-0.802,0.713c-0.088,0.422,0.258,1.841,0.846,2.336
		c0.588,0.498,3.295,2.828,3.786,2.896c0.49,0.066,0.686-0.868,1.291-0.512c0.605,0.355,4.053,2.382,4.053,2.382
		s-0.69,0.869,0.868,1.692c0.776,0.348,10.333,4.631,10.333,4.631l-0.289-1.47c0,0-0.603-0.669,0.377-1.136
		c-0.611-0.111-1.143-0.246-1.143-0.246s0.001-0.192-0.074-0.392c2.986-0.135,6.827-1.712,9.38-5.937
		C36.99,23.382,39.012,16.875,38.225,14.943z"/>
</g>
</svg>
