<?xml version="1.0" encoding="utf-8"?>
<!-- Generator: Adobe Illustrator 16.0.4, SVG Export Plug-In . SVG Version: 6.00 Build 0)  -->
<!DOCTYPE svg PUBLIC "-//W3C//DTD SVG 1.1//EN" "http://www.w3.org/Graphics/SVG/1.1/DTD/svg11.dtd">
<svg version="1.1" id="Layer_1" xmlns="http://www.w3.org/2000/svg" xmlns:xlink="http://www.w3.org/1999/xlink" x="0px" y="0px"
	 width="48.572px" height="48.57px" viewBox="0 0 48.572 48.57" enable-background="new 0 0 48.572 48.57" xml:space="preserve">
<path d="M38.303,25.976c0-1.41-0.789-2.593-1.895-3.082c-0.096-1.24-0.158-2.34-0.119-2.813c0.115-1.371,1.1-7.033,0.115-8.464
	c-0.828-1.207-2.328-1.742-2.779-1.88l-3.367-1.411l-1.008,1.703l3.174,1.705c0.383,0.235,1.936,1.226,2.406,2.03
	c0.229,0.396,0.355,1.1,0.428,1.771c-0.328-0.549-0.745-1.147-1.273-1.749c-1.594-1.809-4.513-3.938-9.432-3.938
	c-0.114,0-0.229,0.001-0.346,0.004c-4.243,0.084-7.534,1.359-9.777,3.789c-1.621,1.754-2.387,3.865-2.561,5.252
	c-0.18,1.042-0.171,2.539-0.056,4.177c-0.917,0.569-1.546,1.648-1.546,2.905c0,1.471,0.854,2.707,2.029,3.158
	c1.047,6.312,5.984,11.11,11.91,11.11c2.873,0,5.512-1.135,7.59-3.017c-0.448,0.959-0.76,1.663-0.771,1.798
	c-0.039,0.485,1.222,1.432,1.443,1.176s3.516-8.309,3.621-9.23c0.056-0.489,0.074-1.221,0.078-1.805
	C37.399,28.75,38.303,27.487,38.303,25.976z M32.308,11.321l-2.626-1.409l0.71-1.197l2.78,1.169L32.308,11.321z M33.367,14.263
	c1.077,1.219,1.678,2.459,1.965,3.182c-0.041,0.589,0.025,2.204,0.101,4.083c-1.509-4.148-4.787-7.269-8.782-8.189
	c0.001-0.037,0.011-0.075-0.011-0.111l-0.322-0.593c-0.054-0.636-0.291-1.209-0.664-1.643v-0.339
	C28.848,10.872,31.436,12.084,33.367,14.263z M23.931,11.167c0.761,0,1.38,0.771,1.38,1.72c0,0.072-0.014,0.143-0.021,0.213
	c-0.357-0.034-0.716-0.062-1.082-0.062c-0.551,0-1.09,0.057-1.621,0.138c-0.014-0.097-0.034-0.188-0.034-0.288
	C22.552,11.938,23.171,11.167,23.931,11.167z M12.649,18.988c0.058-0.438,0.433-2.738,2.365-4.832
	c1.779-1.926,4.287-3.069,7.463-3.42c-0.574,0.497-0.951,1.271-0.951,2.15c0,0.104,0.018,0.205,0.027,0.308l-0.017,0.031
	c-0.027,0.052-0.028,0.107-0.018,0.161c-4.258,1.086-7.67,4.688-8.918,9.34c-0.075,0.019-0.145,0.052-0.217,0.077
	C12.17,20.415,12.557,19.706,12.649,18.988z M11.294,25.976c0-0.675,0.241-1.279,0.623-1.705c0.057,0.561,0.121,1.13,0.198,1.699
	c-0.013,0.225-0.03,0.444-0.03,0.674c0,0.424,0.021,0.84,0.057,1.252C11.631,27.473,11.294,26.774,11.294,25.976z M24.208,39.246
	c-4.44,0-8.271-2.983-10.041-7.272c-0.293-0.979-0.646-2.521-1.018-4.417c-0.02-0.304-0.041-0.604-0.041-0.912
	c0-6.951,4.979-12.606,11.1-12.606s11.098,5.655,11.098,12.606C35.305,33.594,30.328,39.246,24.208,39.246z M36.8,27.448
	c-0.061-0.781-0.18-2.033-0.287-3.305c0.461,0.426,0.765,1.081,0.765,1.833C37.277,26.549,37.089,27.05,36.8,27.448z"/>
</svg>
