<?xml version="1.0" encoding="utf-8"?>
<!-- Generator: Adobe Illustrator 16.0.4, SVG Export Plug-In . SVG Version: 6.00 Build 0)  -->
<!DOCTYPE svg PUBLIC "-//W3C//DTD SVG 1.1//EN" "http://www.w3.org/Graphics/SVG/1.1/DTD/svg11.dtd">
<svg version="1.1" id="Layer_1" xmlns="http://www.w3.org/2000/svg" xmlns:xlink="http://www.w3.org/1999/xlink" x="0px" y="0px"
	 width="42.107px" height="42.107px" viewBox="0 0 42.107 42.107" enable-background="new 0 0 42.107 42.107" xml:space="preserve">
<g>
	<path d="M27.262,11.531c-4.756-0.971-5.154-0.938-5.912-0.938c-0.758,0-1.045,0.94-0.414,0.94c0.629,0,1.486-0.024,6.134,0.924
		c3.596,0.735,6.911,6.181,7.638,7.369c0.113,0.188,0.308,0.6,0.36,0.826c-0.593,0.979-2.644,1.845-9.201,3.123
		c-6.375,1.243-11.878,1.526-14.022,0.726c-4.109-1.536-4.422-7.239-4.426-8.089c0.471,0.132,0.708,0.189,1.208,0.189
		c2.108,0,3.712-1.153,3.779-1.203l0.064-0.048v-0.081c-0.002-0.219-0.044-2.147-0.852-2.518c-0.141-0.053-0.321-0.078-0.541-0.078
		c-1.538,0-4.706,1.351-5.061,2.493c-0.035,0.112,0.249,3.736,0.427,6.362l0.02,0.065c2.895,5.172,4.376,8.474,4.917,8.948v0.003
		l0.042,0.032c0.003,0.004,0.008,0.008,0.011,0.013l0.005,0.002c0.883,0.728,1.934,0.92,2.802,0.92c0.9,0,1.599-0.205,1.707-0.24
		l6.866-0.723v-2.914l-0.123,0.013l0.117-0.017l-1.019-1.057l-6.614,0.712c-0.249,0.022-2.116,0.173-2.888-0.083
		c-0.491-0.165-1.282-0.879-1.848-1.434c-0.07-0.103-0.144-0.204-0.218-0.312c0.844,0.433,2.542,0.964,5.797,0.964
		c0.048,0,0.098,0,0.146,0c1.802-0.01,5.188-0.39,8.765-1.017c0.412,0.365,0.914,0.98,0.785,1.191
		c-0.102,0.166-0.293,0.395-0.492,0.614c-0.096-0.147-0.235-0.301-0.44-0.366c-0.367-0.123-0.859,0.351-1.07,0.737
		c-0.242,0.449-0.064,0.662,0.023,0.732c0.129,0.104,0.271,0.143,0.411,0.143c0.238,0,0.47-0.112,0.613-0.222
		c0.021-0.021,0.312-0.304,0.619-0.638h0.012c-0.002-0.004-0.002-0.004-0.002-0.008c0.252-0.272,0.517-0.58,0.648-0.798
		c0.272-0.448-0.279-1.11-0.646-1.472c1.824-0.329,3.684-0.722,5.393-1.157c-0.292,0.336-0.753,0.749-1.12,1.076
		c-0.326,0.29-0.525,0.474-0.644,0.603c-0.258-0.184-0.688-0.41-0.959-0.17c-0.233,0.211-0.107,0.668-0.043,0.854
		c0.133,0.382,0.414,0.833,0.791,0.856c0.15-0.007,0.276-0.066,0.365-0.18c0.159-0.2,0.189-0.55,0.09-1.068
		c0.088-0.111,0.396-0.388,0.649-0.613c0.576-0.514,1.222-1.092,1.438-1.506c3.664-0.979,4.605-1.461,4.736-2.688
		C36.237,17.68,29.327,11.954,27.262,11.531z M24.515,27.952c-0.004,0.003-0.336,0.237-0.547,0.07
		c-0.019-0.031,0.012-0.197,0.189-0.433c0.201-0.265,0.417-0.387,0.489-0.387c0.006,0,0.01,0.001,0.014,0.001
		c0.136,0.047,0.23,0.181,0.291,0.302C24.713,27.759,24.514,27.952,24.515,27.952z M28.882,26.975
		c-0.017,0.02-0.035,0.033-0.064,0.035c-0.077-0.004-0.225-0.142-0.35-0.391c-0.164-0.322-0.185-0.609-0.152-0.661
		c0.009-0.007,0.021-0.011,0.037-0.011c0.098,0,0.332,0.112,0.545,0.274C29.001,26.77,28.912,26.936,28.882,26.975z M11.499,13.044
		c0.448,0.205,0.636,1.392,0.655,2.146c-0.319,0.212-1.757,1.096-3.526,1.096c-0.409,0-0.811-0.047-1.197-0.139
		c-0.953-0.497,0.675-2.259,1.089-2.546c0.919-0.36,1.897-0.612,2.56-0.612C11.261,12.99,11.406,13.01,11.499,13.044z M6.756,21.473
		c-0.066-0.997-0.405-4.771-0.43-5.484c0.13,0.134,0.251,0.224,0.327,0.272c0.012,0.433,0.22,3.379,0.627,4.47
		s3.053,5.448,3.845,6.538c0.114,0.156,0.216,0.298,0.256,0.354v2.5C10.618,29.13,8.339,24.302,6.756,21.473z M11.697,30.397
		l0.002-1.401c0.001-0.353,0.001-0.691,0.001-0.955c1.102,1.121,3.293,0.859,4.059,0.729V31
		C15.266,31.13,13.198,31.578,11.697,30.397z M22.499,30.266l-6.426,0.677v-2.28l6.426-0.676V30.266z M35.778,21.305
		c-0.265,2.462-13.696,4.773-19.614,4.804c-0.048,0-0.095,0-0.143,0c-5.158,0-6.289-1.363-6.3-1.377l0,0
		C9.418,24.283,9.1,23.8,8.783,23.298c0.686,0.695,1.604,1.334,2.842,1.797c0.942,0.354,2.349,0.508,4.025,0.508
		c7.512,0,18.68-2.275,20.13-4.773C35.793,20.98,35.793,21.139,35.778,21.305z"/>
	<circle cx="14.466" cy="29.966" r="0.641"/>
</g>
</svg>
