<?xml version="1.0" encoding="utf-8"?>
<!-- Generator: Adobe Illustrator 16.0.4, SVG Export Plug-In . SVG Version: 6.00 Build 0)  -->
<!DOCTYPE svg PUBLIC "-//W3C//DTD SVG 1.1//EN" "http://www.w3.org/Graphics/SVG/1.1/DTD/svg11.dtd">
<svg version="1.1" id="Layer_1" xmlns="http://www.w3.org/2000/svg" xmlns:xlink="http://www.w3.org/1999/xlink" x="0px" y="0px"
	 width="44.8px" height="44.8px" viewBox="0 0 44.8 44.8" enable-background="new 0 0 44.8 44.8" xml:space="preserve">
<path d="M35.958,11.932v-0.179H24.849v1.438h8.984v1.393H22.232v0.495h-2.538V15.05h-0.009v-0.467H8.144l-0.091-0.01L6.4,32.75
	l1.01,0.092l1.492-16.42h10.417v1.71H18.61v1.055h0.709h0.375v-1.055v-2.347h2.538v0.637h0.003v1.71v1.055h0.375h0.709v-1.055H22.61
	v-1.71h10.991l0.498,4.241l1.838-0.218l0.83,7.039l-2.037,0.24l0.627,5.321l2.037-0.239L38.4,32.69L35.958,11.932z M29.265,13.049
	h-4.273v-1.154h4.273V13.049L29.265,13.049z"/>
</svg>
