<?xml version="1.0" encoding="utf-8"?>
<!-- Generator: Adobe Illustrator 16.0.4, SVG Export Plug-In . SVG Version: 6.00 Build 0)  -->
<!DOCTYPE svg PUBLIC "-//W3C//DTD SVG 1.1//EN" "http://www.w3.org/Graphics/SVG/1.1/DTD/svg11.dtd">
<svg version="1.1" id="Layer_1" xmlns="http://www.w3.org/2000/svg" xmlns:xlink="http://www.w3.org/1999/xlink" x="0px" y="0px"
	 width="44.8px" height="44.8px" viewBox="0 0 44.8 44.8" enable-background="new 0 0 44.8 44.8" xml:space="preserve">
<g>
	<path d="M22.4,6.4c-8.837,0-16,7.163-16,16c0,8.837,7.163,16,16,16c8.837,0,16-7.162,16-16C38.4,13.563,31.238,6.4,22.4,6.4z
		 M8.4,22.4c0-7.72,6.28-14,14-14c3.559,0,6.803,1.347,9.275,3.542l-2.746,2.744c-0.791-0.47-1.625-0.844-2.416-1.148
		c-1.207-0.468-2.584-0.629-3.916-0.784c-2.189-0.257-4.258-0.5-5.04-2.079l-0.202-0.408l-0.331,0.314
		c-4.568,4.348-3.823,10.391-3.23,12.964v0.616c-0.269-0.053-0.565-0.098-0.821-0.098c-0.337,0-0.571,0.076-0.716,0.232
		c-0.104,0.113-0.153,0.266-0.141,0.428c0.006,0.062,0.008,0.146,0.01,0.248c0.021,0.914,0.078,3.184,2.319,4.197l-2.504,2.504
		C9.748,29.203,8.4,25.961,8.4,22.4z M31.954,21.088h-6.595l4.722-4.723C31.259,17.468,32.046,18.963,31.954,21.088z M14.812,24.668
		h4.139l-3.99,3.989c-2.095-0.801-2.142-2.807-2.161-3.698c-0.002-0.08-0.004-0.147-0.007-0.207
		c0.037-0.009,0.095-0.015,0.181-0.015c0.536,0,1.377,0.25,1.386,0.252l0.643,0.193L14.812,24.668z M20.977,22.641
		c-0.164-0.29-0.464-0.494-0.821-0.494c-0.527,0-0.956,0.428-0.956,0.955c0,0.357,0.205,0.656,0.494,0.82l-0.406,0.408h-1.44v-2.479
		h3.921L20.977,22.641z M21.778,24.668h0.44v-0.44l0.869-0.869c0.02,0.221,0.033,0.414,0.033,0.539c0,0.33-0.215,0.869-0.375,1.229
		c-0.078-0.086-0.188-0.142-0.314-0.142c-0.238,0-0.431,0.191-0.431,0.431s0.191,0.433,0.431,0.433c0.203,0,0.365-0.146,0.41-0.332
		c0.143-0.287,0.531-1.123,0.531-1.617c0-0.172-0.021-0.457-0.055-0.771l1.274-1.273h7.285c-0.103,0.765-0.308,1.602-0.642,2.521
		l-0.225,0.621l0.635-0.184c0.465-0.136,0.881-0.211,1.146-0.211c0.063,0,0.106,0.004,0.14,0.008
		c-0.003,0.072-0.003,0.16-0.003,0.26c-0.004,1.037-0.008,3.197-2.577,3.828l-0.183,0.049l-0.06,0.176
		c-0.067,0.203-1.766,5.119-7.432,4.828c-4.582-0.23-5.996-2.082-6.549-3.436L21.778,24.668z M22.53,21.088h-8.449
		c-0.244-2.756,0.104-6.644,3.104-9.721c1.047,1.552,3.135,1.797,5.336,2.055c1.291,0.151,2.623,0.308,3.751,0.743
		c0.733,0.282,1.477,0.61,2.172,1.01L22.53,21.088z M22.4,36.4c-3.44,0-6.593-1.254-9.033-3.321l2.255-2.255
		c0.687,1.455,2.356,3.361,7.025,3.597c0.174,0.01,0.344,0.015,0.512,0.015c5.255,0,7.181-4.229,7.529-5.132
		c2.906-0.813,2.912-3.435,2.914-4.435c0-0.118,0-0.217,0.006-0.284c0.015-0.166-0.035-0.313-0.141-0.431
		c-0.143-0.151-0.361-0.229-0.674-0.229c-0.225,0-0.48,0.039-0.725,0.088c1.27-3.981,0.242-6.474-1.519-8.122l2.522-2.524
		c2.072,2.44,3.326,5.592,3.326,9.033C36.4,30.122,30.122,36.4,22.4,36.4z"/>
	<circle cx="26.004" cy="23.102" r="0.956"/>
	<path d="M22.923,29.588c1.365,0,2.434-0.688,2.479-0.717c0.125-0.08,0.16-0.248,0.078-0.371c-0.082-0.125-0.248-0.16-0.373-0.078
		c-0.01,0.006-0.977,0.627-2.184,0.627c-1.211,0-2.33-0.629-2.342-0.637c-0.128-0.072-0.293-0.029-0.366,0.103
		c-0.073,0.129-0.029,0.29,0.1,0.366C20.365,28.91,21.566,29.588,22.923,29.588z"/>
</g>
</svg>
