<?xml version="1.0" encoding="utf-8"?>
<!-- Generator: Adobe Illustrator 16.0.4, SVG Export Plug-In . SVG Version: 6.00 Build 0)  -->
<!DOCTYPE svg PUBLIC "-//W3C//DTD SVG 1.1//EN" "http://www.w3.org/Graphics/SVG/1.1/DTD/svg11.dtd">
<svg version="1.1" id="Layer_1" xmlns="http://www.w3.org/2000/svg" xmlns:xlink="http://www.w3.org/1999/xlink" x="0px" y="0px"
	 width="44.8px" height="44.8px" viewBox="0 0 44.8 44.8" enable-background="new 0 0 44.8 44.8" xml:space="preserve">
<path d="M38.4,20.278v-1.245H8.364v-1.111H6.4v5.173h1.581v0.012h10.634v-2.827h2.9c0.222,0.61,0.486,1.619,0.163,2.367
	c-0.329,0.76-1.078,1.846-1.583,2.54c-0.117-0.396-0.47-0.69-0.904-0.69c-0.528,0-0.958,0.43-0.958,0.959
	c0,0.527,0.43,0.956,0.958,0.956c0.279,0,0.525-0.122,0.701-0.313l0.001,0.002c0.065-0.084,1.601-2.061,2.138-3.299
	c0.353-0.813,0.124-1.844-0.104-2.521h2.46c-0.233,0.543-0.739,1.939-0.286,2.988c0.536,1.239,2.071,3.216,2.139,3.3v-0.002
	c0.176,0.191,0.422,0.314,0.701,0.314c0.528,0,0.959-0.431,0.959-0.959s-0.431-0.957-0.959-0.957c-0.435,0-0.787,0.295-0.902,0.69
	c-0.508-0.694-1.256-1.778-1.585-2.54c-0.44-1.019,0.208-2.524,0.353-2.837L38.4,20.278L38.4,20.278z M8.054,21.402
	c-0.313,0-0.566-0.254-0.566-0.564c0-0.313,0.253-0.565,0.566-0.565c0.312,0,0.566,0.252,0.566,0.565
	C8.623,21.15,8.367,21.402,8.054,21.402z M17.85,22.339h-5.636v-1.916h5.637L17.85,22.339L17.85,22.339z"/>
</svg>
