<?xml version="1.0" encoding="utf-8"?>
<!-- Generator: Adobe Illustrator 16.0.4, SVG Export Plug-In . SVG Version: 6.00 Build 0)  -->
<!DOCTYPE svg PUBLIC "-//W3C//DTD SVG 1.1//EN" "http://www.w3.org/Graphics/SVG/1.1/DTD/svg11.dtd">
<svg version="1.1" id="Layer_1" xmlns="http://www.w3.org/2000/svg" xmlns:xlink="http://www.w3.org/1999/xlink" x="0px" y="0px"
	 width="44.8px" height="44.8px" viewBox="0 0 44.8 44.8" enable-background="new 0 0 44.8 44.8" xml:space="preserve">
<g>
	<circle cx="23.428" cy="25.087" r="2.499"/>
	<path d="M38.294,20.69c-0.065-0.177-0.192-0.517-0.261-0.691c-0.01-0.025-0.024-0.048-0.036-0.073
		c-0.113-0.27-0.3-0.559-0.556-0.864c-1.932-2.297-7.873-5.59-15.044-5.721c-6.093-0.111-10.715,1.027-12.673,3.124
		c-0.287,0.308-0.512,0.636-0.678,0.978H6.815H6.4v0.415v4.837v0.415h0.415h6.684c-1.502,1.104-2.484,1.979-2.484,1.979
		s7.143,6.378,12.409,6.378c5.271,0,12.412-6.378,12.412-6.378s-7.142-6.379-12.412-6.379c-0.797,0-1.642,0.148-2.493,0.397v-1.249
		v-0.415h-0.415H10.16c0.079-0.108,0.165-0.219,0.265-0.323c1.747-1.874,6.222-2.931,11.956-2.823
		c6.136,0.111,11.436,2.698,13.705,4.743c-0.267,0.438-0.334,1.385-0.125,1.938c0.065,0.177,0.129,0.342,0.194,0.52
		c0.271,0.714,0.966,1.111,1.558,0.891C38.301,22.165,38.563,21.406,38.294,20.69z M23.424,20.941c2.668,0,6.373,2.294,8.854,4.145
		c-2.469,1.83-6.207,4.147-8.854,4.147c-2.669,0-6.376-2.297-8.857-4.146c0.865-0.646,1.879-1.342,2.945-1.979h3.003h0.415v-0.413
		v-1.25C21.811,21.132,22.662,20.941,23.424,20.941z M20.515,17.858v1.377v2.364v1.096h-2.287h-3.919v-4.837H20.515z"/>
</g>
</svg>
