<?xml version="1.0" encoding="utf-8"?>
<!-- Generator: Adobe Illustrator 16.0.4, SVG Export Plug-In . SVG Version: 6.00 Build 0)  -->
<!DOCTYPE svg PUBLIC "-//W3C//DTD SVG 1.1//EN" "http://www.w3.org/Graphics/SVG/1.1/DTD/svg11.dtd">
<svg version="1.1" id="Layer_1" xmlns="http://www.w3.org/2000/svg" xmlns:xlink="http://www.w3.org/1999/xlink" x="0px" y="0px"
	 width="44.8px" height="44.8px" viewBox="0 0 44.8 44.8" enable-background="new 0 0 44.8 44.8" xml:space="preserve">
<path d="M35.663,10.459c0,0,0.051,1.506,0.243,1.695c0.191,0.191,1.47,2.769,1.47,4.121c0,1.256-0.207,11.27-0.646,11.845
	c-0.324,0.424-1.27,1.11-1.744,1.444v-1.601H24.4v1.687h-1.753v-1.687H12.062v1.271h-0.771l-1.105-5.715l-1.99,0.512
	c0,0-1.085-5.064-0.923-6.388s0.54-1.423,0.54-1.423l1.404,0.733l1.533-4.182l-2.278-1.313c0,0-1.895,3.911-2.065,5.721
	c-0.161,1.714,2.617,14.637,2.912,15.789v0.102h2.743v1.271h10.584v-2.772H24.4v2.771h10.584v-3.447
	c0.429-0.246,2.349-1.363,2.642-1.835c0.332-0.532,0.774-11.313,0.774-12.72C38.4,14.856,36.763,10.896,35.663,10.459z
	 M12.097,31.196c-0.374,0-0.677-0.303-0.677-0.676c0-0.375,0.303-0.678,0.677-0.678c0.373,0,0.677,0.303,0.677,0.678
	C12.774,30.893,12.47,31.196,12.097,31.196z M22.085,33.776h-9.461v-0.709h7.354v-3.832h-7.354v-0.707h9.461V33.776z M15.706,32.813
	v-3.32h4.017v3.32H15.706z M34.421,33.776H24.96v-5.248h9.461V33.776z"/>
</svg>
