<?xml version="1.0" encoding="utf-8"?>
<!-- Generator: Adobe Illustrator 16.0.4, SVG Export Plug-In . SVG Version: 6.00 Build 0)  -->
<!DOCTYPE svg PUBLIC "-//W3C//DTD SVG 1.1//EN" "http://www.w3.org/Graphics/SVG/1.1/DTD/svg11.dtd">
<svg version="1.1" id="Layer_1" xmlns="http://www.w3.org/2000/svg" xmlns:xlink="http://www.w3.org/1999/xlink" x="0px" y="0px"
	 width="44.8px" height="44.799px" viewBox="0 0 44.8 44.799" enable-background="new 0 0 44.8 44.799" xml:space="preserve">
<g>
	<path d="M38.288,16.434l0.112-1.103v-0.005c0-0.335-0.022-0.804-0.213-1.04c-0.195-0.243-1.002-0.204-1.254-0.186l0,0
		c-0.697,0-0.959,1.914-0.967,2.121c-0.006,0.231,0.209,1.308,0.453,1.558c0.018,0.017,0.035,0.03,0.051,0.04
		c-0.641,1.314-4.055,7.893-4.627,8.82c-0.301,0.485-0.52,0.837-0.6,1.01c-0.34,0.719-1.453,0.614-2.088,0.487
		c-0.469-0.094-2.378-0.45-7.565-1.061l-0.297-0.033c-0.534-0.063-0.983,0.017-1.458,0.101c-0.59,0.104-1.258,0.222-2.222,0.075
		c-1.004-0.15-1.48-0.453-1.943-0.745c-0.333-0.212-0.649-0.41-1.129-0.538c-0.375-0.1-0.971-0.271-2.008-0.471
		c-1.004-0.192-2.134-0.408-3.075-0.614c0.646-0.576,2.973-5.001,3.197-5.356c0.841-1.464,6.958-7.51,7.674-7.764
		c0,0,0.508-0.188,0.673-0.214c0.303-0.032,1.145,0.853,1.419,1.29c0.077,0.121,0.152,0.268,0.231,0.424
		c0.196,0.381,0.384,0.743,0.626,0.834c0.311,0.117,0.943,0.143,0.971,0.144l0,0h0.002h0.01c0.361,0,1.229-0.279,1.541-0.791
		c0.152-0.251,0.156-0.535,0.009-0.817c-0.476-0.913-2.104-2.233-3.803-2.233c-0.052,0-0.104,0.001-0.155,0.004
		c-1.005-0.163-1.607,0.061-2.006,0.209c-0.1,0.036-0.185,0.068-0.258,0.085l0,0c-0.725,0.204-6.652,6.385-7.569,7.145
		c-0.403,0.334-5.535,6.716-5.576,6.789c-0.066,0.12-0.045,0.225-0.011,0.286c0.026,0.356,0.289,3.586,1.333,4.929
		c0.494,0.635,1.975,1.235,3.964,1.608c1.477,0.275,3.055,0.418,3.696,0.078c0.695-0.371,0.856-1.097,0.975-1.625
		c0.068-0.308,0.127-0.57,0.255-0.582c0.365-0.035,1.565,0.1,2.257,1.131c0.139,0.209,0.233,0.434,0.333,0.67
		c0.375,0.889,0.799,1.895,3.824,2.705c1.693,0.451,3.238,0.686,4.525,0.686c0.304,0-0.213-0.014,0.061-0.04
		c1.724-0.164,2.662-0.829,3.093-1.976c0.362-0.172,0.646-0.373,0.86-0.564c0.693-0.622,0.867-1.283,0.875-1.316
		c0.002-0.019,0.013-0.061,0.021-0.119c0.189-0.32,2.322-3.943,2.43-4.626c0.094-0.621,0.162-1.564-0.086-1.705
		C35.048,23.628,38.314,17.119,38.288,16.434z M38.021,14.419c0.088,0.108,0.129,0.309,0.148,0.499
		c-0.02-0.018-0.041-0.034-0.062-0.05c-0.143-0.094-0.315-0.126-0.521-0.098c-0.021-0.168-0.064-0.327-0.156-0.447
		c-0.006-0.008-0.012-0.015-0.02-0.023C37.708,14.308,37.962,14.346,38.021,14.419z M36.177,16.228
		c0.012-0.384,0.326-1.916,0.756-1.916h0.004l0.014-0.001c0.14,0,0.24,0.046,0.31,0.14c0.082,0.105,0.115,0.265,0.123,0.438v0.007
		c0.004,0.159-0.01,0.331-0.041,0.514c-0.055-0.08-0.125-0.14-0.211-0.14c-0.015,0-0.028,0.001-0.043,0.005
		c-0.131,0.031-0.164,0.201-0.263,0.979c-0.059,0.484-0.135,1.086-0.25,1.345c-0.006,0.011-0.01,0.02-0.014,0.027
		C36.41,17.466,36.17,16.493,36.177,16.228z M37.271,15.759c-0.065,0.273-0.162,0.567-0.279,0.873
		c0.017-0.118,0.031-0.236,0.046-0.352c0.036-0.286,0.079-0.631,0.118-0.77C37.193,15.561,37.24,15.66,37.271,15.759z
		 M20.118,11.362c0,0.003,0,0.005,0,0.006c0,0.006,0,0.012,0,0.018c0.009,0.072,0.029,0.13,0.056,0.177
		c-0.777,0.3-6.826,6.296-7.699,7.819c-0.193,0.304-2.367,4.605-3.273,5.411c-0.958-0.215-1.37-0.349-1.548-0.422
		c0.242-0.154,11.1-12.825,12.545-13.342C20.147,11.129,20.108,11.246,20.118,11.362z M23.354,13.864
		c-0.168-0.063-0.351-0.419-0.513-0.732c-0.079-0.154-0.159-0.311-0.242-0.441c-0.153-0.244-0.667-0.87-1.124-1.192
		c0.309,0.032,0.589,0.149,0.835,0.352c0.457,0.375,0.816,0.965,1.105,1.44c0.166,0.275,0.311,0.51,0.447,0.673
		C23.685,13.945,23.483,13.915,23.354,13.864z M21.717,10.596c0.038-0.004,0.07-0.008,0.099-0.012
		c0.063-0.004,0.126-0.006,0.19-0.006c1.617,0,3.164,1.253,3.615,2.119c0.113,0.22,0.113,0.419-0.003,0.61
		c-0.274,0.454-1.075,0.688-1.358,0.688h-0.006l0,0c-0.164-0.003-0.416-0.416-0.658-0.815c-0.295-0.486-0.666-1.093-1.15-1.491
		c-0.331-0.273-0.716-0.41-1.145-0.41c-0.117,0-0.229,0.01-0.332,0.027h-0.001l0,0c-0.259,0.042-0.465,0.122-0.578,0.171
		c-0.036-0.038-0.056-0.079-0.06-0.126c-0.007-0.13,0.076-0.29,0.236-0.461l0,0C20.747,10.704,21.426,10.628,21.717,10.596z
		 M20.763,10.551c-0.135,0.045-0.248,0.101-0.326,0.169c-0.048,0.017-0.094,0.033-0.14,0.049c-0.028-0.025-0.07-0.054-0.125-0.083
		C20.338,10.633,20.532,10.584,20.763,10.551z M23.124,33.592c-2.926-0.782-3.329-1.739-3.685-2.582
		c-0.104-0.246-0.202-0.479-0.354-0.705c-0.667-0.997-1.857-1.281-2.45-1.225c-0.281,0.023-0.355,0.357-0.441,0.744
		c-0.114,0.518-0.259,1.16-0.868,1.484c-0.502,0.267-1.824,0.226-3.557-0.102c-1.911-0.355-3.38-0.942-3.836-1.527
		c-0.924-1.189-1.222-4.048-1.28-4.706c2.485,0.47,6.782,1.376,7.26,1.605c0.171,0.081,0.387,0.234,0.636,0.411
		c0.638,0.456,1.511,1.082,2.647,1.235c0.921,0.125,1.781,0.012,2.54-0.088c0.542-0.071,1.011-0.132,1.404-0.097
		c0.937,0.086,7.453,0.875,8.303,1.101c0.363,0.098,0.732,0.146,1.086,0.146c0.314,0,0.615-0.039,0.884-0.113
		c-0.271,0.396-0.642,0.792-1.396,0.927c0-0.096-0.037-0.198-0.107-0.305c-0.204-0.309-0.713-0.653-1.292-0.721
		c-0.105-0.013-0.355-0.043-0.708-0.086c-1.995-0.239-6.338-0.878-7.14-0.878c-0.33,0-0.636,0.255-0.84,0.698
		c-0.401,0.869-0.362,2.333,0.496,3.337c0.798,0.933,3.566,1.399,4.721,1.556c1.108,0.151,1.239,0.229,2.097,0.229
		c0.73,0,1.294-0.058,1.562-0.168c0.652-0.259,0.783-0.736,0.812-0.935c0.318-0.062,0.602-0.146,0.852-0.244
		C29.247,35.166,25.244,34.16,23.124,33.592z M22.129,30.143h-0.003v0.006l-0.013,0.018l0.013,0.002v1.668l5.367,1.06v0.008
		l0.095,0.009l0.119,0.021v-0.011c0.229,0.019,0.448,0.025,0.657,0.025c0.375,0,0.718-0.025,1.026-0.074
		c-0.041,0.18-0.183,0.508-0.668,0.699c-0.544,0.229-1.563,0.197-3.55-0.072c-2.354-0.319-4.067-0.875-4.588-1.483
		c-0.802-0.937-0.837-2.302-0.464-3.111c0.169-0.363,0.404-0.574,0.647-0.574c0.789,0,5.122,0.637,7.115,0.877
		c0.351,0.043,0.602,0.071,0.709,0.084c0.508,0.06,0.967,0.367,1.141,0.628c0.056,0.084,0.078,0.158,0.068,0.215
		c-0.109,0.011-0.227,0.018-0.352,0.018c-0.311,0-0.658-0.038-1.037-0.109l-0.062-0.014l-0.001,0.001l-5.392-1.1L22.129,30.143z
		 M22.338,30.207l5.159,1.117v1.356l-5.159-1.022V30.207z M27.546,31.117l-5.073-1.103l0.583-0.854l5.144,1.057
		c-0.008,0.012-0.018,0.022-0.025,0.035C27.921,30.567,27.701,30.844,27.546,31.117z M28.338,30.381
		c0.033-0.039,0.064-0.08,0.099-0.123c0.368,0.066,0.709,0.103,1.016,0.103l0,0c1.428,0,1.926-0.724,2.273-1.281l0.278,0.045
		c-0.021,0.043-0.041,0.088-0.062,0.133c-0.03,0.071-0.063,0.146-0.102,0.227c-0.303,0.472-0.881,1.174-1.789,1.547
		c-0.357,0.134-0.689,0.204-0.984,0.239c-0.104,0.009-0.212,0.018-0.321,0.018l0,0c-0.316,0-0.646-0.041-0.986-0.119
		C27.907,30.924,28.109,30.67,28.338,30.381z M32.275,30.541c-0.002,0.006-0.166,0.637-0.817,1.213
		c-0.851,0.752-2.146,1.082-3.75,0.953v-1.322c0.238,0.072,0.752,0.185,1.452,0.089c0.363-0.039,0.693-0.13,0.988-0.251
		c0.021-0.008,0.039-0.016,0.062-0.022c1.147-0.444,1.573-1.102,1.819-1.616c0.105-0.166,0.183-0.307,0.226-0.393
		c0.002,0.002,0.004,0.005,0.006,0.007C32.427,29.404,32.359,30.133,32.275,30.541z M34.724,25.808
		c-0.074,0.476-1.324,2.709-2.156,4.134c0.021-0.331,0.004-0.696-0.145-0.878c-0.021-0.023-0.045-0.048-0.07-0.064
		c0.867-1.526,2.117-4.188,2.422-4.638C34.845,24.508,34.783,25.422,34.724,25.808z M34.642,24.187
		c-0.34,0.468-2.146,4.132-2.496,4.748l-0.299-0.05c0.455-0.723,5.1-9.271,6.023-11.393C37.663,18.199,34.642,24.187,34.642,24.187z
		 M38.103,16.153l-0.037,0.162c-0.397,1.762-6.069,11.937-6.444,12.531v-0.002l-0.029,0.047c-0.444,0.181-1.215,0.285-2.094,0.05
		c-0.883-0.234-7.366-1.019-8.341-1.105c-0.417-0.039-0.896,0.023-1.449,0.099c-0.746,0.097-1.592,0.208-2.484,0.088
		c-1.085-0.146-1.934-0.755-2.553-1.198c-0.257-0.184-0.479-0.343-0.668-0.433c-0.607-0.291-6.675-1.502-7.392-1.638
		c0.001-0.013,0.004-0.026,0.014-0.047c0.128-0.134,5.125-6.399,5.53-6.736c0.905-0.749,6.808-6.916,7.502-7.104
		c0.173-0.053,0.3-0.037,0.386-0.005c-1.41,0.508-12.585,13.461-12.709,13.497c0,0,0.385,0.323,1.874,0.654
		c0.982,0.218,2.206,0.451,3.285,0.66c1.032,0.196,1.625,0.369,1.992,0.466c0.449,0.12,0.751,0.31,1.07,0.512
		c0.458,0.291,0.979,0.618,2.025,0.776c0.997,0.152,1.685,0.031,2.289-0.077c0.461-0.081,0.896-0.158,1.397-0.099l0.296,0.034
		c5.185,0.608,7.087,0.966,7.55,1.058c0.32,0.062,0.613,0.095,0.875,0.095c0.727,0,1.229-0.238,1.445-0.7
		c0.075-0.161,0.301-0.524,0.588-0.987c0.604-0.979,4.082-7.66,4.739-9.054c0.002-0.003,0.005-0.006,0.007-0.01
		c0.002-0.002,0.002-0.003,0.002-0.005c0.311-0.658,0.563-1.301,0.705-1.871l0.006-0.027c0.008-0.025,0.114-0.408,0.114-0.802
		c0.158-0.025,0.291-0.004,0.392,0.062c0.143,0.092,0.188,0.252,0.199,0.297L38.103,16.153z"/>
	<path d="M14.257,27.224c-0.857-0.72-6.395-1.847-7.16-1.847c-0.049,0-0.08,0.006-0.104,0.016c-0.051,0.021-0.089,0.062-0.112,0.13
		c-0.167,0.46,0.243,2.508,0.976,3.878c0.656,1.227,3.396,1.905,5.244,1.905l0,0c0.497,0,1.169-0.05,1.548-0.279
		c0.392-0.235,0.618-0.646,0.66-1.185C15.379,28.943,14.906,27.77,14.257,27.224z M7.081,25.588c0.004,0,0.01,0,0.018,0
		c0.122,0,0.426,0.039,0.847,0.105c-0.172,0.233-0.557,0.825-0.663,1.573C7.068,26.419,7.009,25.728,7.081,25.588z M15.098,29.824
		c-0.025,0.327-0.144,0.77-0.559,1.021c-0.264,0.16-0.774,0.248-1.439,0.248c-1.837,0-4.463-0.682-5.058-1.793
		c-0.266-0.495-0.474-1.037-0.628-1.551c-0.039-1.007,0.57-1.851,0.708-2.023c1.888,0.314,5.347,1.113,5.999,1.661
		C14.648,27.831,15.168,28.917,15.098,29.824z"/>
</g>
</svg>
