<?xml version="1.0" encoding="utf-8"?>
<!-- Generator: Adobe Illustrator 16.0.4, SVG Export Plug-In . SVG Version: 6.00 Build 0)  -->
<!DOCTYPE svg PUBLIC "-//W3C//DTD SVG 1.1//EN" "http://www.w3.org/Graphics/SVG/1.1/DTD/svg11.dtd">
<svg version="1.1" id="Layer_1" xmlns="http://www.w3.org/2000/svg" xmlns:xlink="http://www.w3.org/1999/xlink" x="0px" y="0px"
	 width="44.8px" height="44.8px" viewBox="0 0 44.8 44.8" enable-background="new 0 0 44.8 44.8" xml:space="preserve">
<g>
	<path d="M22.4,6.4c-8.837,0-16,7.163-16,16c0,8.837,7.163,16,16,16c8.837,0,16-7.162,16-16C38.4,13.563,31.238,6.4,22.4,6.4z
		 M8.4,22.4c0-7.72,6.28-14,14-14c3.559,0,6.802,1.347,9.275,3.542l-2.045,2.045c-1.693-2.056-4.3-3.378-7.23-3.378
		c-5.103,0-9.238,3.996-9.238,8.927c0,0.354-0.07,1.218-0.01,1.761c-0.034-0.002-0.065-0.009-0.1-0.009
		c-0.543,0-1.229,0.347-1.409,1.994c-0.267,2.441,1.29,3.293,1.875,3.521c0.123,0.377,0.441,1.258,1.011,2.283l-2.587,2.586
		C9.748,29.203,8.4,25.961,8.4,22.4z M31.142,22.308c0.064-0.057,0.355-0.266,0.607-0.266c0.445,0,0.604,0.829,0.656,1.321
		c0.252,2.307-1.445,2.764-1.517,2.779l-0.217,0.053l-0.06,0.215c-0.02,0.068-2.016,6.984-8.216,7.025h-0.054
		c-2.902-0.002-4.867-1.55-6.146-3.189l6.523-6.521c0.245,0.758,0.899,1.559,1.247,1.586c0.014,0,0.021,0,0.033,0
		c0.148,0,0.266-0.086,0.299-0.227c0.045-0.197-0.094-0.48-0.443-0.623c-0.076-0.029-0.303-0.121-0.442-0.006
		c-0.195-0.273-0.371-0.619-0.455-0.971l1.791-1.789h5.44c0.101,0.304,0.189,0.619,0.269,0.961l-0.022,0.265L31.142,22.308z
		 M13.593,23.24h4.069c0,0.002,0,0.004,0,0.004c0,0.566,0.458,1.023,1.021,1.023c0.564,0,1.023-0.457,1.023-1.023
		c0,0,0-0.002,0-0.004h0.356c0.072,0,0.13-0.059,0.13-0.131v-1.412h1.177c0.028,0.128,0.059,0.289,0.088,0.461l-6.374,6.375
		c-0.623-1.17-0.893-2.096-0.898-2.12l-0.059-0.216l-0.216-0.053c-0.071-0.018-1.771-0.451-1.517-2.779
		c0.047-0.434,0.175-1.124,0.507-1.285c-0.003,0.039-0.014,0.075-0.014,0.115C12.886,22.713,13.129,23.24,13.593,23.24z
		 M14.374,22.222c0-0.038,0.012-0.071,0.021-0.105c0.006-0.022,0.014-0.043,0.022-0.065c0.062-0.13,0.192-0.221,0.348-0.221
		c0.214,0,0.389,0.175,0.389,0.391c0,0.214-0.174,0.39-0.389,0.39C14.547,22.612,14.374,22.437,14.374,22.222z M17.188,22.98
		l0.017-1.283h2.73v1.283H19.67c-0.118-0.438-0.513-0.76-0.985-0.76c-0.472,0-0.866,0.322-0.984,0.76H17.188z M21.667,21.697h0.255
		l-0.214,0.214C21.692,21.838,21.678,21.759,21.667,21.697z M23.597,24.691l0.014-0.004c0.025,0.004,0.07,0.014,0.14,0.041
		c0.198,0.078,0.252,0.199,0.264,0.234c0.015,0.037,0.009,0.057,0.009,0.061c0,0-0.009,0.004-0.029,0.002
		C23.923,25.019,23.771,24.892,23.597,24.691z M29.994,21.177h-4.727l2.793-2.793C28.795,19.013,29.49,19.9,29.994,21.177z
		 M22.439,21.177h-7.677c1.688-3.479,5.938-4.273,5.938-4.273s0.604,0.617-0.277,1.059c0.787,0.472,1.852-1.059,1.852-1.059
		s0.236,1.101-0.487,1.479c1.259,0.755,2.312-1.479,2.312-1.479s0.982-0.051,2.193,0.418L22.439,21.177z M22.4,36.4
		c-3.441,0-6.593-1.254-9.034-3.321l2.293-2.294c1.392,1.761,3.529,3.406,6.685,3.408l0.059-0.002
		c6.159-0.039,8.489-6.203,8.879-7.385c0.584-0.23,2.145-1.08,1.875-3.523c-0.18-1.647-0.865-1.994-1.408-1.994
		c-0.092,0-0.178,0.012-0.262,0.029c0.088-0.445,0.151-1.535,0.151-1.781c0-1.371-0.329-2.667-0.901-3.827l2.342-2.342
		c2.066,2.44,3.32,5.592,3.32,9.033C36.4,30.122,30.122,36.4,22.4,36.4z"/>
	<circle cx="25.923" cy="23.244" r="1.023"/>
	<path d="M24.329,28.084c-0.023,0.026-0.587,0.685-1.887,0.685c-1.308,0-1.915-0.576-1.926-0.589c-0.098-0.098-0.257-0.098-0.355,0
		c-0.098,0.099-0.1,0.259-0.003,0.354c0.03,0.031,0.744,0.736,2.284,0.736c1.555,0,2.25-0.834,2.277-0.869
		c0.086-0.106,0.07-0.266-0.035-0.354C24.576,27.961,24.418,27.976,24.329,28.084z"/>
</g>
</svg>
