<?xml version="1.0" encoding="utf-8"?>
<!-- Generator: Adobe Illustrator 16.0.4, SVG Export Plug-In . SVG Version: 6.00 Build 0)  -->
<!DOCTYPE svg PUBLIC "-//W3C//DTD SVG 1.1//EN" "http://www.w3.org/Graphics/SVG/1.1/DTD/svg11.dtd">
<svg version="1.1" id="Layer_1" xmlns="http://www.w3.org/2000/svg" xmlns:xlink="http://www.w3.org/1999/xlink" x="0px" y="0px"
	 width="44.801px" height="44.801px" viewBox="0 0 44.801 44.801" enable-background="new 0 0 44.801 44.801" xml:space="preserve">
<path d="M9.587,13.902C8.809,14.465,6.4,19.15,6.4,19.15l1.068,0.602c0,0,2.228,0.057,3.189-0.138
	c0.963-0.195,2.355-4.928,3.892-4.741s3.688,0.558,4.156,0.768c-3.107,2.253-0.885,2.938-0.885,2.938s2.5,0.191,11.292,6.521
	c0.011,0.001,0.021,0.003,0.035,0.007l-0.021,0.037l4.094,2.242l1.707,0.457l1.427-2.624c1.43,0.938,1.094,1.698,0.864,2.122
	c-0.338,0.622-1.09,2.633-4.08,3.52c-2.991,0.886-10.948,0.701-11.55,0.47c-1.125-0.431-2.227,0.688-0.659,1.213
	c1.091,0.361,9.845,0.484,14.679-1.752c2.379-1.104,2.69-3.541,2.776-3.863c0.279-1.056-2.933-4.854-14.092-11.312
	C13.133,9.158,10.363,13.338,9.587,13.902z M32.432,22.734c0.69,0.315,1.731,0.964,2.901,1.768l-1.265,2.322l-2.988-1.625
	C31.393,24.558,32.313,22.688,32.432,22.734z M33.288,27.135l-3.561-1.936c0.555,0.094,1.246,0.209,1.25,0.209l3.071,1.67
	l0.459,0.398L33.288,27.135z M34.858,27.472l-0.59-0.517l1.262-2.32c0.207,0.145,0.416,0.293,0.629,0.441L34.858,27.472z
	 M29.999,22.552c0.246,0.148,0.301,0.509,0.123,0.806c-0.18,0.295-0.521,0.414-0.77,0.266c-0.246-0.148-0.302-0.51-0.123-0.806
	C29.407,22.523,29.752,22.404,29.999,22.552z"/>
</svg>
