<?xml version="1.0" encoding="utf-8"?>
<!-- Generator: Adobe Illustrator 16.0.4, SVG Export Plug-In . SVG Version: 6.00 Build 0)  -->
<!DOCTYPE svg PUBLIC "-//W3C//DTD SVG 1.1//EN" "http://www.w3.org/Graphics/SVG/1.1/DTD/svg11.dtd">
<svg version="1.1" id="Layer_1" xmlns="http://www.w3.org/2000/svg" xmlns:xlink="http://www.w3.org/1999/xlink" x="0px" y="0px"
	 width="45.027px" height="45.027px" viewBox="0 0 45.027 45.027" enable-background="new 0 0 45.027 45.027" xml:space="preserve">
<g>
	<path d="M37.907,17.302c-0.057-0.033-0.104-0.054-0.149-0.068c-0.027-0.135-0.082-0.266-0.164-0.388
		c-1.021-1.5-6.092-3.063-12.687-2.85c-1.702,0.056-3.122,0.071-3.742,0.032c-0.619-0.039-0.238,0.755-0.238,0.755
		c0.37,0.117,1.562,0.084,4.005,0.004c2.424-0.08,5.434,0.183,7.684,0.683s4.122,1.438,4.279,1.671
		c0.049,0.069,0.129,0.309,0.029,0.491c-0.592,1.092-2.357,3.24-6.099,4.161c-2.563,0.631-6.789,1.314-9.275,1.267
		c-4.235-0.104-7.163-0.581-8.404-1.056c-1.239-0.475-2.822-0.791-4.394-1.711c-1.57-0.919-1.619-2.837-2.16-2.088
		s0.392,5.093,1.145,5.187c0.752,0.095,0.502-1.414,0.502-1.916c0.001-0.502,0.804-0.132,0.804-0.132l-0.001-0.001
		c0.004,0.002,0.008,0.004,0.012,0.006c0.086,0.043,0.186,0.097,0.297,0.153c1.379,0.722,4.609,2.413,11.067,2.536
		c0.124,0.002,0.249,0.004,0.376,0.004c2.886,0,6.486-0.606,9.624-1.48h-0.001c1.181-0.277,1.472,1.201,1.775,2.141
		c-0.135,0.937-1.049,2.484-2.731,4.617c-1.052,1.336-4.906,1.645-8.168,1.26c-2.272-0.269-3.92-0.832-4.197-1.426
		c-0.326-0.906-0.098-1.838,0.052-2.279c2.043,0.646,2.373,0.578,2.373,0.578l-0.316-2.494l0.433-0.633c0,0-4.548,0.092-8.94-1.833
		c-1.201,0.184-0.607,1.768,0.164,2.089c2.791,1.097,4.692,1.774,5.986,2.194c-0.165,0.486-0.405,1.486-0.041,2.496
		c0.498,1.075,3.533,1.513,4.451,1.62c0.856,0.102,1.765,0.157,2.664,0.157c2.51,0,4.924-0.436,5.792-1.534
		c1.489-1.888,2.375-3.31,2.688-4.312c0.084,0.145,0.182,0.231,0.303,0.229c0.169-0.005,0.322-0.224,0.484-0.562
		c0.029,0.312,0.035,0.668,0.037,1.021c0.01,0.838,0.019,1.629,0.371,1.94c0.104,0.092,0.228,0.138,0.369,0.138
		c0.026,0,0.055-0.002,0.081-0.005c1.146-0.133,3.79-3.1,4.323-5.182C38.904,20.694,38.383,17.587,37.907,17.302z M38.059,22.706
		c-0.521,2.029-3.129,4.839-4.053,4.945c-0.115,0.014-0.171-0.023-0.205-0.055c-0.248-0.22-0.256-1.011-0.263-1.707
		c-0.006-0.562-0.014-1.138-0.13-1.556c0.485-1.252,1.086-3.191,2.247-3.731l0,0c0.988-0.522,1.689-2.09,1.965-2.595
		c0.075-0.14,0.122-0.282,0.142-0.421C38.063,17.839,38.565,20.732,38.059,22.706z"/>
	<path d="M19.915,24.347c-0.077,0.094-0.382,0.647-0.382,0.647l0.355,2.463l6.913-0.301l-0.145-2.453l-1.183-0.692
		C25.475,24.011,22.885,24.447,19.915,24.347z"/>
	<path d="M27.133,26.717c0,0,1.676-0.277,2.059-0.384c0.383-0.105,1.146-0.541,0.988-1.809c-0.158-1.267-1.471-0.867-1.961-0.801
		c-0.49,0.067-2.022,0.278-2.022,0.278l0.812,0.589L27.133,26.717z M28.674,24.686c0.209,0,0.379,0.17,0.379,0.379
		s-0.17,0.379-0.379,0.379s-0.38-0.17-0.38-0.379S28.465,24.686,28.674,24.686z"/>
</g>
</svg>
