<?xml version="1.0" encoding="utf-8"?>
<!-- Generator: Adobe Illustrator 16.0.4, SVG Export Plug-In . SVG Version: 6.00 Build 0)  -->
<!DOCTYPE svg PUBLIC "-//W3C//DTD SVG 1.1//EN" "http://www.w3.org/Graphics/SVG/1.1/DTD/svg11.dtd">
<svg version="1.1" id="Layer_1" xmlns="http://www.w3.org/2000/svg" xmlns:xlink="http://www.w3.org/1999/xlink" x="0px" y="0px"
	 width="44.8px" height="44.8px" viewBox="0 0 44.8 44.8" enable-background="new 0 0 44.8 44.8" xml:space="preserve">
<g>
	<path d="M22.4,6.4c-8.837,0-16,7.163-16,16c0,8.837,7.163,16,16,16c8.837,0,16-7.162,16-16C38.4,13.563,31.238,6.4,22.4,6.4z
		 M22.4,8.4c3.559,0,6.802,1.347,9.275,3.542l-1.877,1.877c-1.27-1.485-3.174-2.658-6.049-2.989
		c-8.409-0.973-9.906,5.545-9.906,5.545s-1.721-0.788-3.631-0.836C12.615,11.283,17.174,8.4,22.4,8.4z M29.134,18.583
		c0,0,0.232,1.115,0.332,2.82H29.46c0,0.182,0,0.324-0.771,0.436c-0.713,0.103-2.021,0.155-4.25,0.17l2.949-2.95L29.134,18.583z
		 M14.895,27.068c0,0,0.091,0.562,0.366,1.289l-0.602,0.603C14.491,27.798,14.895,27.068,14.895,27.068z M17.284,23.831
		c0.3,0.084,0.591,0.133,0.659,0.144c0.152,0.043,0.637,0.159,1.485,0.217l-2.084,2.084C17.26,25.379,17.253,24.529,17.284,23.831z
		 M21.17,22.448l-0.357,0.357c-0.122-0.267-0.388-0.454-0.7-0.454c-0.427,0-0.771,0.346-0.771,0.771
		c0,0.312,0.188,0.578,0.455,0.699l-0.251,0.25c-0.841-0.051-1.349-0.158-1.533-0.207v-1.672c0.677,0.045,1.619,0.071,2.973,0.084
		l0.187,0.011L21.17,22.448L21.17,22.448z M21.61,22.005c-1.892-0.012-3.078-0.043-3.849-0.107l5.115-1.614l0.625-0.171
		L21.61,22.005z M21.336,22.282l-0.046,0.047c0-0.015,0-0.033,0-0.047C21.303,22.282,21.319,22.282,21.336,22.282z M9.667,17.978
		c0,0-0.377,0.376-0.83,1.021c0.101-0.399,0.215-0.791,0.349-1.177C9.49,17.9,9.667,17.978,9.667,17.978z M8.433,23.088
		c1.603-3.727,4.859-5.4,4.859-5.4s0.481,4.282,0.289,4.886c-0.192,0.604,0.185,1.263-0.104,1.474
		c-0.223,0.162-2.535,3.9-0.318,6.412l-1.216,1.217C9.889,29.363,8.595,26.377,8.433,23.088z M22.4,36.4
		c-3.441,0-6.593-1.254-9.034-3.321l1.429-1.429c0.481,0.23,1.045,0.433,1.703,0.594c-0.436-0.438-0.767-0.86-1.029-1.268
		l0.815-0.816c0.685,0.818,1.683,1.48,3.13,1.48c-0.792-0.842-1.301-1.891-1.625-2.982l4.785-4.786
		c0.003,0.055,0.021,0.098,0.021,0.153c0,0.822-0.381,1.33-0.664,1.597c0.023-0.087,0.013-0.166-0.037-0.228
		c-0.1-0.111-0.312-0.088-0.479,0.057c-0.164,0.146-0.22,0.354-0.12,0.466c0.089,0.104,0.271,0.094,0.426-0.015
		c0.2-0.125,0.968-0.688,0.968-1.877c0-0.088-0.02-0.156-0.028-0.238l1.503-1.502c0.125,0,0.271,0,0.391-0.001
		c-0.235,0.183-0.85,0.76-0.85,1.857c0,1.188,0.769,1.752,0.967,1.879c0.155,0.105,0.336,0.115,0.427,0.014
		c0.098-0.112,0.045-0.321-0.121-0.467c-0.164-0.145-0.379-0.17-0.479-0.057c-0.051,0.059-0.061,0.143-0.037,0.227
		c-0.283-0.266-0.666-0.772-0.666-1.598c0-1.3,0.891-1.835,0.898-1.842l-0.01-0.016c3.2-0.022,4.379-0.135,4.809-0.389
		c0.021,0.521,0.027,1.084,0.012,1.68c-0.078,2.869-2.83,6.553-7.305,6.727c0.868,1.395,4.493-0.475,4.493-0.475
		s0.186,1.34-1.969,1.631c1.34,0.629,3.282-0.553,3.282-0.553s-0.282,1.336-1.224,1.396c7.421,0.896,4.806-7.614,5.218-9.987
		c0.226-1.293,0.241-4.211-1.07-6.795l2.148-2.149c2.067,2.441,3.321,5.593,3.321,9.034C36.4,30.122,30.122,36.4,22.4,36.4z"/>
	<circle cx="25.619" cy="23.205" r="0.773"/>
	<path d="M24.56,27.462c0.076-0.041,0.104-0.139,0.062-0.213c-0.043-0.076-0.139-0.104-0.215-0.062
		c-0.004,0.004-0.525,0.283-1.186,0.283c-0.668,0-1.301-0.285-1.307-0.287c-0.08-0.037-0.174-0.004-0.209,0.076
		c-0.037,0.08-0.001,0.174,0.076,0.209c0.029,0.014,0.699,0.314,1.439,0.314C23.968,27.785,24.538,27.476,24.56,27.462z"/>
</g>
</svg>
