<?xml version="1.0" encoding="utf-8"?>
<!-- Generator: Adobe Illustrator 16.0.4, SVG Export Plug-In . SVG Version: 6.00 Build 0)  -->
<!DOCTYPE svg PUBLIC "-//W3C//DTD SVG 1.1//EN" "http://www.w3.org/Graphics/SVG/1.1/DTD/svg11.dtd">
<svg version="1.1" id="Layer_1" xmlns="http://www.w3.org/2000/svg" xmlns:xlink="http://www.w3.org/1999/xlink" x="0px" y="0px"
	 width="46.105px" height="46.105px" viewBox="0 0 46.105 46.105" enable-background="new 0 0 46.105 46.105" xml:space="preserve">
<g>
	<path d="M39.424,18.125c-0.449-2.207-0.164-6.827-7.803-8.045c-6.435-1.028-12.312,1.57-12.979,7.474
		c-0.262,0.048-0.575,0.103-0.771,0.165c-1.491,0.466-1.272,0.888-0.861,1.472s1.102,0.627,1.102,0.627s-0.905,0.087-1.47-0.346
		c-0.021,0-0.042,0-0.062,0v-0.464h-1.354v0.464c-0.036,0-0.058,0-0.058,0s-0.118,0.205-0.118,0.379
		c0,0.173-0.012,0.897-0.012,0.897s0.012,0.497,0.367,0.497c0.146,0,1.218,0.1,3.401,0.119c-0.188,1.546-3.012,3.81-2.3,4.593
		c0.736,0.811,1.987,0.841,1.987,0.841s-0.812,1.544-0.448,1.972c0.366,0.428,1.382,0.243,1.382,0.243s-0.942,0.681-0.942,1.208
		s1.596,1.229,1.596,1.229s-0.294,2.923,2.102,2.721c2.394-0.202,2.796-0.878,2.796-0.878l0.71,2.952h9.265l-0.325-6.42
		C34.628,29.827,40.316,23.649,39.424,18.125z M15.238,20.897c-0.047,0-0.086-0.201-0.086-0.446c0-0.246,0.039-0.446,0.086-0.446
		c0.048,0,0.085,0.2,0.085,0.446C15.323,20.696,15.286,20.897,15.238,20.897z M16.447,19.471c-0.465,0-0.868,0-1.091,0v-0.333h1.091
		V19.471z M31.437,22.146c-0.052,0.188-0.098,0.358-0.134,0.509c-0.265,1.092-1.812,1.172-2.264,1.172
		c-0.066,0-0.108-0.002-0.12-0.002c-0.113-0.007-0.201-0.104-0.196-0.218c0.006-0.112,0.107-0.192,0.216-0.195
		c0.021,0.002,1.739,0.067,1.964-0.854c0.038-0.155,0.085-0.33,0.137-0.52c0.287-1.062,0.721-2.664-0.047-2.915
		c-0.569-0.185-1.28-0.063-1.772,0.3c-0.354,0.264-0.544,0.621-0.534,1.009c0.003,0.114-0.088,0.208-0.201,0.211
		c-0.002,0-0.003,0-0.005,0c-0.111,0-0.204-0.09-0.206-0.201c-0.004-0.193,0.038-0.378,0.104-0.555
		c-1.001-0.003-1.989-0.006-2.258-0.006c0.304,0.075,0.418,0.274,0.429,0.502c0.182,0.068,0.317,0.161,0.385,0.294
		c0.142,0.282-0.005,0.631-0.156,0.999c-0.214,0.517-0.436,1.05,0.016,1.481c0.139,0.135,0.254,0.193,0.342,0.179
		c0.179-0.029,0.347-0.349,0.522-0.686c0.289-0.549,0.649-1.219,1.363-1.265c-0.004-0.288,0.145-0.527,0.352-0.543
		c0.005,0,0.009,0.004,0.015,0.003c0.092-0.195,0.235-0.336,0.418-0.35c0.314-0.023,0.597,0.314,0.628,0.76
		c0.033,0.439-0.194,0.817-0.51,0.843c-0.142,0.011-0.271-0.061-0.379-0.172c-0.03,0.012-0.059,0.029-0.09,0.032
		c-0.156,0.012-0.3-0.11-0.376-0.291c-0.58,0.014-0.892,0.598-1.165,1.116c-0.223,0.421-0.413,0.781-0.733,0.834
		c-0.023,0.004-0.049,0.006-0.072,0.006c-0.163,0-0.332-0.085-0.514-0.262c-0.592-0.567-0.311-1.252-0.082-1.801
		c0.127-0.307,0.247-0.597,0.165-0.76c-0.025-0.053-0.086-0.095-0.161-0.133c-0.107,0.351-0.399,0.679-0.663,0.679
		c-0.299,0-3.942-0.036-7.022-0.066c-0.001,0.012-0.005,0.021-0.006,0.031c-0.003-0.043-0.008-0.094-0.008-0.109
		c-0.146-0.719-0.226-1.41-0.251-2.08c-0.83-0.017-1.415-0.036-1.588-0.057c0.896,0.104,0.571-0.76,0.519-0.731
		c0.161-0.083,0.469-0.214,1.104-0.335c-0.021,0.364-0.034,0.736-0.02,1.127c2.828,0.06,8.288,0.104,10.228,0.119
		c0.057-0.053,0.105-0.107,0.17-0.155c0.604-0.446,1.442-0.588,2.146-0.359c0.303,0.099,0.483,0.305,0.591,0.568
		c2.464,0.057,6.178,0.144,6.437,0.169c0.391,0.038,0.475,0.26,0.479,0.562c0.002,0.305-0.164,1.441-0.238,1.688
		c-0.075,0.247-0.075,0.476-0.434,0.476c-0.356,0-1.814,0-2.965,0c-1.443,0-2.381-0.929-3.2-1.605
		C31.712,21.122,31.563,21.679,31.437,22.146z"/>
	<path d="M9.178,15.839l-0.44-0.459c-1.387,1.332-2.151,3.116-2.151,5.026s0.767,3.694,2.151,5.025l0.438-0.456
		c-1.262-1.211-1.957-2.833-1.957-4.569C7.221,18.671,7.917,17.048,9.178,15.839z"/>
	<path d="M10.065,16.729L9.629,16.27c-1.145,1.087-1.773,2.557-1.773,4.136c0,1.58,0.632,3.051,1.776,4.138l0.437-0.46
		c-1.019-0.968-1.579-2.272-1.579-3.678C8.488,19.002,9.049,17.696,10.065,16.729z"/>
	<path d="M10.962,17.629l-0.435-0.463c-0.894,0.835-1.405,2.016-1.405,3.24c0,1.227,0.514,2.406,1.407,3.243l0.434-0.464
		c-0.768-0.716-1.206-1.728-1.206-2.778C9.757,19.341,10.184,18.354,10.962,17.629z"/>
	<path d="M12.341,18.946c-0.436,0.363-0.685,0.896-0.685,1.46c0,0.565,0.248,1.098,0.683,1.458l0.407-0.484
		c-0.579-0.486-0.579-1.463,0.001-1.947L12.341,18.946z"/>
	<path d="M11.855,18.527l-0.427-0.469c-0.66,0.6-1.039,1.455-1.039,2.348c0,0.895,0.381,1.748,1.04,2.35l0.427-0.47
		c-0.528-0.479-0.833-1.165-0.833-1.88S11.327,19.008,11.855,18.527z"/>
	<circle cx="13.732" cy="20.377" r="0.73"/>
</g>
</svg>
