<?xml version="1.0" encoding="utf-8"?>
<!-- Generator: Adobe Illustrator 16.0.4, SVG Export Plug-In . SVG Version: 6.00 Build 0)  -->
<!DOCTYPE svg PUBLIC "-//W3C//DTD SVG 1.1//EN" "http://www.w3.org/Graphics/SVG/1.1/DTD/svg11.dtd">
<svg version="1.1" id="Layer_1" xmlns="http://www.w3.org/2000/svg" xmlns:xlink="http://www.w3.org/1999/xlink" x="0px" y="0px"
	 width="50.934px" height="50.936px" viewBox="0 0 50.934 50.936" enable-background="new 0 0 50.934 50.936" xml:space="preserve">
<g>
	<circle cx="20.425" cy="25.9" r="1.388"/>
	<path d="M40.065,25.95c-0.188-1.729-0.786-2.396-1.392-2.613v-1.173H37.93c0.046-0.555,0.074-1.106,0.074-1.297
		c0-6.688-5.613-12.111-12.537-12.111S12.93,14.179,12.93,20.867c0,0.274-0.03,0.778-0.042,1.297h-0.626v1.173
		c-0.604,0.216-1.203,0.884-1.393,2.613c-0.362,3.314,1.75,4.468,2.545,4.783c0.503,1.541,3.417,9.285,10.938,9.957v0.975h0.417
		v0.514h1.352v-0.514h0.516v-0.99c7.481-0.779,10.381-8.414,10.885-9.939C38.313,30.419,40.428,29.266,40.065,25.95z M24.674,39.587
		l0.293-0.893h0.962l0.354,0.889L24.674,39.587z M25.284,38.544v-7.822h0.394v7.822H25.284z M25.78,29.661h-0.601
		c0.091-0.221,0.3-0.74,0.356-0.906c0.521-1.268,1.479-3.388,2.335-4.243c0.772-0.773,1.617-1.291,2.15-1.572h0.747v0.346
		c-0.759,0.34-1.734,0.933-2.565,1.938C26.72,27.02,25.905,29.294,25.78,29.661z M23.582,26.401
		c-0.251-0.398-0.531-0.801-0.844-1.179c-1.252-1.52-2.846-2.097-3.512-2.28l0.016-0.003h1.678c0.533,0.281,1.378,0.797,2.152,1.572
		c0.862,0.865,1.816,2.994,2.316,4.207c-0.141,0.344-0.25,0.623-0.314,0.799c-0.169-0.484-0.66-1.789-1.487-3.107l0.001-0.008
		C23.586,26.401,23.584,26.401,23.582,26.401z M12.485,24.388c0.088-0.068,0.184-0.118,0.298-0.118c0.33,0,0.708,0.261,0.821,0.358
		l0.104,0.09h-1.224V24.388z M14.496,24.689c0.169-0.639,0.409-1.213,0.683-1.75h0.202v1.779h-0.882L14.496,24.689z M14.826,24.94
		H15.6v-2.001h2.961l-0.043,0.007l0.371,0.065c0.021,0.003,2.153,0.386,3.735,2.306c0.3,0.363,0.57,0.747,0.812,1.129
		c-0.056,0.053-0.086,0.145-0.111,0.229c-0.096,0.277-0.249,0.746-1.073,1.062c-1.239,0.479-6.533-0.803-7.075-1.252
		C14.79,26.169,14.798,25.334,14.826,24.94z M25.512,23.772c-0.842,0.023-1.312,1.078-1.567,1.651
		c-0.257-0.409-0.517-0.763-0.768-1.017c-0.68-0.68-1.413-1.165-1.952-1.469h8.492c-0.538,0.304-1.271,0.789-1.95,1.469
		c-0.233,0.236-0.479,0.563-0.715,0.938C26.804,24.716,26.375,23.746,25.512,23.772z M26.656,26.016
		c-0.462,0.84-0.885,1.783-1.188,2.508c-0.323-0.779-0.72-1.66-1.145-2.439c0.184-0.423,0.619-1.397,1.187-1.379
		C26.153,24.725,26.546,25.704,26.656,26.016z M28.317,25.317c0.794-0.96,1.724-1.535,2.454-1.873v1.172
		c-0.159-0.064-0.337-0.104-0.521-0.104c-0.77,0-1.389,0.621-1.389,1.389c0,0.768,0.619,1.389,1.389,1.389
		c0.767,0,1.388-0.621,1.388-1.389c0-0.374-0.147-0.711-0.389-0.961h4.773c0.028,0.334,0.06,1.208-0.353,1.545
		c-0.544,0.449-5.835,1.727-7.076,1.25c-0.864-0.332-0.931-0.789-0.975-1.092c-0.017-0.105-0.028-0.195-0.077-0.262
		C27.778,26.02,28.036,25.658,28.317,25.317z M30.993,24.718v-1.369c0.617-0.259,1.052-0.336,1.061-0.338l0.369-0.065l-0.042-0.007
		h1.947v1.589h1.911c0.017,0.064,0.034,0.125,0.053,0.19H30.993z M30.993,23.191v-0.252H31.7l0.014,0.003
		C31.533,22.99,31.285,23.071,30.993,23.191z M35.975,23.609c-0.056,0.037-0.119,0.064-0.189,0.064
		c-0.192,0-0.353-0.155-0.353-0.351c0-0.172,0.129-0.31,0.293-0.339C35.81,23.192,35.899,23.387,35.975,23.609z M35.644,22.78
		c-0.245,0.064-0.431,0.278-0.431,0.543c0,0.315,0.256,0.57,0.57,0.57c0.095,0,0.18-0.028,0.259-0.069
		c0.05,0.152,0.089,0.322,0.135,0.482h-1.628v-1.657h1.042C35.611,22.692,35.625,22.738,35.644,22.78z M37.329,24.628
		c0.032-0.027,0.115-0.087,0.215-0.146v0.236h-0.317L37.329,24.628z M37.765,24.368c0.125-0.055,0.259-0.1,0.39-0.1
		c0.112,0,0.212,0.05,0.3,0.12v0.328h-0.688L37.765,24.368L37.765,24.368z M38.453,22.385v0.89c-0.104-0.021-0.202-0.029-0.3-0.029
		c-0.123,0-0.241,0.017-0.355,0.04c0.043-0.218,0.082-0.55,0.114-0.899L38.453,22.385L38.453,22.385z M23.161,17.296
		c0,0,0.816,0.839-0.378,1.437c1.065,0.641,2.513-1.437,2.513-1.437s0.32,1.493-0.662,2.006c1.709,1.024,3.14-2.006,3.14-2.006
		s5.095-0.174,7.677,4.977l-19.85,0.003v-0.072C18.135,18.238,23.161,17.296,23.161,17.296z M12.485,22.385h0.399
		c-0.003,0.312,0.004,0.617,0.032,0.872c-0.045-0.004-0.088-0.013-0.134-0.013c-0.099,0-0.196,0.01-0.298,0.028V22.385z
		 M14.323,30.2l-0.08-0.293l-0.295-0.07c-0.1-0.023-2.404-0.615-2.061-3.773c0.047-0.423,0.15-1.029,0.374-1.417v0.294h1.701
		l0.604,0.522l-0.048-0.522h0.084c-0.026,0.438-0.025,1.337,0.434,1.714c0.519,0.43,4.414,1.4,6.405,1.4
		c0.375,0,0.685-0.033,0.89-0.113c0.921-0.354,1.104-0.902,1.203-1.197c0.012-0.029,0.021-0.062,0.031-0.092
		c0.821,1.354,1.285,2.654,1.402,3.01h-0.271v1.059h0.438v2.648c-1.497-0.105-2.212-0.756-2.227-0.771
		c-0.134-0.133-0.351-0.133-0.481-0.002c-0.135,0.133-0.136,0.35-0.004,0.484c0.038,0.037,0.901,0.859,2.712,0.971v4.496h-0.273
		l-0.345,1.047h-0.001l-0.022,0.072C16.86,39.01,14.347,30.288,14.323,30.2z M25.971,42.034h-1.056v-0.295h1.056V42.034z
		 M36.989,29.835l-0.294,0.07l-0.08,0.291c-0.025,0.09-2.529,8.691-10.146,9.457l-0.021-0.062h-0.002l-0.414-1.047h-0.205v-4.488
		c1.888-0.105,2.751-1.109,2.788-1.156c0.116-0.146,0.097-0.357-0.051-0.48c-0.146-0.117-0.358-0.1-0.479,0.049
		c-0.029,0.033-0.717,0.811-2.259,0.904v-2.65h0.439v-1.062h-0.333c0.125-0.354,0.615-1.678,1.459-3.041
		c0.004,0.02,0.007,0.037,0.012,0.057c0.045,0.311,0.129,0.889,1.111,1.268c0.205,0.08,0.515,0.113,0.89,0.113
		c1.991,0,5.89-0.973,6.406-1.4c0.485-0.398,0.467-1.334,0.437-1.714h0.107c0.016,0.058,0.032,0.105,0.048,0.165l-0.033,0.359
		l0.604-0.524h0.793h0.908v-0.293c0.223,0.388,0.326,0.991,0.373,1.416C39.388,29.194,37.082,29.813,36.989,29.835z"/>
</g>
</svg>
