<?xml version="1.0" encoding="utf-8"?>
<!-- Generator: Adobe Illustrator 16.0.4, SVG Export Plug-In . SVG Version: 6.00 Build 0)  -->
<!DOCTYPE svg PUBLIC "-//W3C//DTD SVG 1.1//EN" "http://www.w3.org/Graphics/SVG/1.1/DTD/svg11.dtd">
<svg version="1.1" id="Capa_1" xmlns="http://www.w3.org/2000/svg" xmlns:xlink="http://www.w3.org/1999/xlink" x="0px" y="0px"
	 width="16.754px" height="18.575px" viewBox="0 0 16.754 18.575" enable-background="new 0 0 16.754 18.575" xml:space="preserve">
<path d="M16.754,15.323c-0.297-0.086-0.709-0.207-1.113-0.312c-0.086-1.817-0.324-6.155-0.658-6.216
	c-0.407-0.076-0.778,4.973-0.738,5.98c-0.256-0.02-0.497-0.033-0.692-0.041l-0.108-14.49c0,0-0.271-0.424-0.5-0.152
	c-0.232,0.268-0.811,7.125-1.043,9.203c-0.229,2.078-0.961,3.582-2.271,4.969c-0.76,0.805-1.664,1.17-2.4,1.301
	c-0.871-0.026-2.187-0.274-2.413-1.494C4.47,12.222,4.7,7.136,4.779,6.021c0.076-1.119-0.348-3.35-0.886-3.428
	C3.351,2.515,2.658,4.019,2.119,6.868c-0.466,2.459-1.217,8.814-1.416,10.515H0v1.191h16.754V15.323z"/>
</svg>
