<?xml version="1.0" encoding="utf-8"?>
<!-- Generator: Adobe Illustrator 16.0.4, SVG Export Plug-In . SVG Version: 6.00 Build 0)  -->
<!DOCTYPE svg PUBLIC "-//W3C//DTD SVG 1.1//EN" "http://www.w3.org/Graphics/SVG/1.1/DTD/svg11.dtd">
<svg version="1.1" id="Capa_1" xmlns="http://www.w3.org/2000/svg" xmlns:xlink="http://www.w3.org/1999/xlink" x="0px" y="0px"
	 width="20.004px" height="19.902px" viewBox="0 0 20.004 19.902" enable-background="new 0 0 20.004 19.902" xml:space="preserve">
<path d="M8.613,13.075h0.394V9.481c-0.394,0.383-0.394,0.938-0.394,0.938V13.075z M9.43,13.075h0.388V9.141
	C9.671,9.155,9.542,9.182,9.43,9.223V13.075z M10.997,13.075h0.394v-2.657c0,0,0-0.556-0.394-0.938V13.075z M10.239,13.075h0.335
	V9.223c-0.099-0.035-0.21-0.062-0.335-0.078V13.075z M19.67,15.278V7.811l-3.525,2.766V8.26h-0.556V7.6h-0.911V5.698h-0.923
	c-0.354-1.295-1.901-2.27-3.753-2.27c-1.853,0-3.398,0.975-3.753,2.27H5.326V7.6H4.415v0.66H3.861v2.315L0.334,7.811v7.467H0v1.197
	h20.004v-1.197H19.67z M1.991,12.139v2.873H1.319v-2.959c0,0-0.08-1.224,0.352-1.267S1.991,12.139,1.991,12.139z M3.227,12.653
	v2.359H2.675v-2.431c0,0-0.066-1.002,0.288-1.038C3.318,11.508,3.227,12.653,3.227,12.653z M10.707,15.278H9.298v-1.373h1.409
	V15.278z M11.693,13.27H8.312v-2.977c0,0,0-1.566,1.691-1.566c1.69,0,1.69,1.566,1.69,1.566V13.27z M17.33,12.581v2.431h-0.551
	v-2.359c0,0-0.092-1.145,0.263-1.107C17.395,11.579,17.33,12.581,17.33,12.581z M18.686,12.053v2.959h-0.672v-2.873
	c0,0-0.113-1.396,0.319-1.353S18.686,12.053,18.686,12.053z"/>
</svg>
