<?xml version="1.0" encoding="utf-8"?>
<!-- Generator: Adobe Illustrator 16.0.4, SVG Export Plug-In . SVG Version: 6.00 Build 0)  -->
<!DOCTYPE svg PUBLIC "-//W3C//DTD SVG 1.1//EN" "http://www.w3.org/Graphics/SVG/1.1/DTD/svg11.dtd">
<svg version="1.1" id="Capa_1" xmlns="http://www.w3.org/2000/svg" xmlns:xlink="http://www.w3.org/1999/xlink" x="0px" y="0px"
	 width="19.5px" height="17.445px" viewBox="0 0 19.5 17.445" enable-background="new 0 0 19.5 17.445" xml:space="preserve">
<path d="M19.411,11.955h-0.24l-0.188-3.696h-0.07l-0.031-2.936l0.084,0.252c0,0,0.055,0.405,0.012,0.46s0.01,0.274,0.01,0.274
	s0.097-0.033,0.16-0.078c0.064-0.043,0-0.656,0.012-0.776c0.009-0.121-0.403-0.68-0.521-0.767C18.518,4.6,18.4,4.622,18.284,4.591
	c-0.117-0.033-0.063-0.241-0.16-0.308c-0.095-0.063-0.233-0.054-0.373,0.044c-0.138,0.1-0.062,0.208-0.074,0.252
	c-0.01,0.043-0.2,0.087-0.286,0.197c-0.084,0.109-0.328,0.351-0.224,0.46c0.104,0.11,0.373-0.021,0.373-0.021L17.436,8.26H17.37
	l-0.129,3.712h-0.525l-0.094-0.755h-0.238l-0.129-2.909H15.73V8.045h-1.291c0,0-1.088-1.461-4.597-1.461
	c-3.51,0-4.778,1.461-4.778,1.461H3.772v0.262H3.245l-0.127,2.91h-0.24l-0.092,0.755H2.258L2.132,8.26H2.064L1.962,5.215
	c0,0,0.265,0.132,0.371,0.021c0.106-0.109-0.139-0.351-0.224-0.46S1.833,4.622,1.823,4.579c-0.01-0.044,0.063-0.153-0.075-0.252
	C1.611,4.229,1.472,4.219,1.376,4.283C1.281,4.349,1.334,4.556,1.217,4.591C1.1,4.622,0.983,4.6,0.865,4.688
	c-0.117,0.087-0.531,0.646-0.52,0.767c0.01,0.12-0.053,0.733,0.01,0.776C0.42,6.276,0.516,6.309,0.516,6.309s0.053-0.22,0.011-0.274
	c-0.043-0.055,0.009-0.46,0.009-0.46l0.076-0.221L0.62,5.371L0.59,8.26H0.521l-0.192,3.695H0.09L0,13.203h19.5L19.411,11.955z
	 M0.468,12.627c0.009-0.104,0.012-0.133,0.02-0.226c0.018,0,0.25,0,0.25,0S0.912,9.04,0.93,8.693h0.783
	c0.013,0.354,0.128,3.721,0.128,3.721h1.325c0,0,0.065-0.541,0.092-0.754c0.03,0,0.271,0,0.271,0s0.113-2.551,0.129-2.908
	c0.157,0,0.545,0,0.545,0s0-0.249,0-0.263c0.271,0,0.862,0,0.862,0l0.19-0.002c0,0,0.124-0.139,0.127-0.142
	c0.013-0.015,1.246-1.318,4.46-1.318c1.706,0,2.784,0.364,3.387,0.668c0.613,0.311,0.865,0.621,0.867,0.622l0.131,0.172
	c0,0,0.785,0,1.068,0c0,0.014,0,0.263,0,0.263s0.389,0,0.547,0c0.014,0.356,0.125,2.908,0.125,2.908s0.242,0,0.271,0
	c0.027,0.213,0.094,0.754,0.094,0.754h1.324c0,0,0.115-3.331,0.127-3.699h0.785c0.02,0.364,0.19,3.687,0.19,3.687s0.232,0,0.251,0
	c0.01,0.094,0.01,0.121,0.02,0.227L0.468,12.627L0.468,12.627z M9.764,7.438c-2.164,0-3.998,0.783-4.623,1.865v1.635
	c0.004,0.004,0.007,0.01,0.011,0.015h9.208c-0.008-0.588-0.02-1.244-0.03-1.745C13.654,8.177,11.866,7.438,9.764,7.438z"/>
</svg>
