<?xml version="1.0" encoding="utf-8"?>
<!-- Generator: Adobe Illustrator 16.0.4, SVG Export Plug-In . SVG Version: 6.00 Build 0)  -->
<!DOCTYPE svg PUBLIC "-//W3C//DTD SVG 1.1//EN" "http://www.w3.org/Graphics/SVG/1.1/DTD/svg11.dtd">
<svg version="1.1" id="Capa_1" xmlns="http://www.w3.org/2000/svg" xmlns:xlink="http://www.w3.org/1999/xlink" x="0px" y="0px"
	 width="20.004px" height="19.007px" viewBox="0 0 20.004 19.007" enable-background="new 0 0 20.004 19.007" xml:space="preserve">
<path d="M19.932,14.544c-1.471-0.93-3.438-2.195-4.955-3.203c-1.069-0.845-1.949-1.668-2.144-2.239
	c-0.603-1.77,0.601-3.929,0.601-3.929c0.094-0.472-0.226-0.021-0.226-0.021s-0.448,0.538-0.836,1.31
	c-0.136-0.051-0.32-0.112-0.544-0.175c0.16-0.901,0.402-1.584,0.402-1.584c0.095-0.47-0.226-0.019-0.226-0.019
	s-0.373,0.622-0.692,1.479c-0.164-0.032-0.338-0.062-0.521-0.086c0.005-0.957,0.047-1.684,0.047-1.684
	c0.094-0.47-0.227-0.021-0.227-0.021s-0.208,0.707-0.383,1.66c-0.066-0.003-0.133-0.003-0.2-0.003c-0.085,0-0.169,0.002-0.252,0.007
	C9.599,5.081,9.39,4.374,9.39,4.374S9.07,3.924,9.165,4.394c0,0,0.042,0.734,0.046,1.699C9.034,6.121,8.863,6.155,8.702,6.192
	C8.379,5.32,7.998,4.684,7.998,4.684S7.679,4.233,7.773,4.703c0,0,0.252,0.706,0.411,1.631C7.978,6.399,7.8,6.465,7.662,6.52
	c-0.395-0.8-0.867-1.366-0.867-1.366S6.476,4.703,6.569,5.174c0,0,1.204,2.162,0.602,3.929C6.94,9.78,5.75,10.811,4.415,11.808
	c-1.993,1.326-4.303,2.713-4.34,2.733c-0.06,0.035-0.087,0.106-0.069,0.175c0.018,0.067,0.08,0.112,0.149,0.112H19.85
	c0.069,0,0.131-0.046,0.148-0.11c0.004-0.015,0.006-0.029,0.006-0.043C20.004,14.623,19.979,14.575,19.932,14.544z M7.659,10.022
	c-0.935,1.579-2.826,3.794-3.356,4.499H0.741C2.24,13.844,6.29,11.755,7.659,10.022z M8.995,9.347
	c0.007-0.02,0.012-0.036,0.018-0.057c-0.253,1.606-0.848,4.422-0.954,5.23H4.501C5.496,13.753,8.368,11.164,8.995,9.347z
	 M9.916,9.523c0.042-0.204,0.07-0.418,0.086-0.641c0.016,0.223,0.045,0.438,0.087,0.641c0.391,1.864,1.347,4.263,1.718,4.998H8.195
	C8.569,13.785,9.523,11.387,9.916,9.523z M10.991,9.292c0.006,0.021,0.011,0.037,0.018,0.057c0.628,1.814,3.499,4.405,4.493,5.173
	h-3.557C11.838,13.712,11.244,10.898,10.991,9.292z M12.346,10.022c1.369,1.732,5.418,3.822,6.916,4.499h-3.561
	C15.17,13.816,13.279,11.601,12.346,10.022z M12.238,6.742c-0.301,0.67-0.521,1.473-0.385,2.237
	c-0.22-0.742-0.188-1.618-0.074-2.384C11.963,6.648,12.119,6.7,12.238,6.742z M10.859,8.186c-0.047-0.596-0.064-1.224-0.067-1.796
	c0.146,0.02,0.283,0.043,0.416,0.066C11.027,6.995,10.882,7.597,10.859,8.186z M10.028,6.339c0.049,0,0.098,0.001,0.146,0.002
	c-0.076,0.458-0.142,0.958-0.172,1.455C9.972,7.299,9.906,6.8,9.831,6.343C9.896,6.34,9.961,6.339,10.028,6.339z M9.211,6.408
	c-0.002,0.567-0.02,1.189-0.066,1.778c-0.023-0.579-0.164-1.171-0.34-1.697C8.936,6.458,9.071,6.43,9.211,6.408z M8.233,6.646
	C8.337,7.399,8.364,8.254,8.15,8.98c0.133-0.744-0.071-1.52-0.356-2.178C7.912,6.754,8.062,6.7,8.233,6.646z"/>
</svg>
