<?xml version="1.0" encoding="utf-8"?>
<!-- Generator: Adobe Illustrator 16.0.4, SVG Export Plug-In . SVG Version: 6.00 Build 0)  -->
<!DOCTYPE svg PUBLIC "-//W3C//DTD SVG 1.1//EN" "http://www.w3.org/Graphics/SVG/1.1/DTD/svg11.dtd">
<svg version="1.1" id="Capa_1" xmlns="http://www.w3.org/2000/svg" xmlns:xlink="http://www.w3.org/1999/xlink" x="0px" y="0px"
	 width="18.943px" height="20.004px" viewBox="0 0 18.943 20.004" enable-background="new 0 0 18.943 20.004" xml:space="preserve">
<path d="M17.78,19.204c0.085-0.459,0.27-1.521,0.196-1.723c-0.095-0.26-1.863-1.723-2.005-1.793s0.708-1.462,0.778-1.889
	c0.071-0.424-0.283-0.824-0.636-0.99c-0.355-0.165-0.472-0.165-0.567-0.4c-0.095-0.236-0.07-0.566-0.377-0.66
	c-0.307-0.095-0.661,0.023-0.755,0.283L12.834,0l-2.192,0.117l0.754,8.895c0,0-0.023,0.896-0.166,1.061
	c-0.142,0.167-1.228,0.662-1.345,0.708c-0.118,0.045-0.33,0.637-0.354,0.942c-0.024,0.308-0.024,1.015-0.024,1.015
	s-0.896,0.26-1.154,0.213c-0.261-0.048-1.346,0.141-1.653,0.424c-0.305,0.283-1.202,1.369-1.51,1.461
	c-0.306,0.096-0.966,0.236-1.296,0.615c-0.331,0.375-0.897,1.202-1.182,1.485c-0.229,0.229-1.613,1.708-2.136,2.265H0v0.803h18.943
	v-0.803H17.78V19.204z M6.323,15.31c0.188-0.095,1.345-0.354,1.769-0.731c0.426-0.377,0.638-0.519,0.85-0.588
	c0.213-0.072,0.354-0.048,0.354-0.048s-0.165,1.627-0.331,1.793c-0.165,0.165-0.942,0.591-1.227,0.825
	c-0.179,0.148-0.677,0.516-1.021,0.764c-0.027-0.199-0.154-0.304-0.301-0.41c-0.166-0.117-0.802-0.85-0.802-0.85
	S6.134,15.404,6.323,15.31z M4.71,19.204H1.502c0.749-0.636,2.927-2.479,3.025-2.59c0.013,0.082,1.206,1.032,1.206,1.032
	L4.71,19.204z M9.343,18.519l-0.024,0.163c-0.199,0.189-0.396,0.376-0.548,0.521H5.906c0.423-0.41,1.07-1.02,1.432-1.274
	c0.567-0.401,1.958-1.155,2.053-1.109C9.483,16.868,9.343,18.519,9.343,18.519z M11.737,12.87l0.035,0.602
	c0,0-0.248-0.036-0.318-0.082c-0.071-0.049-0.271-0.178-0.212-0.249C11.3,13.069,11.701,12.726,11.737,12.87z M11.701,16.819
	c0,0-0.845,0.512-1.368,0.915c0.112-0.866,0.125-1.676,0.391-2.177c0.158-0.301,0.602-0.79,0.602-0.79s0.141,1.155,0.188,1.438
	C11.56,16.491,11.701,16.819,11.701,16.819z M10.168,11.323c0.012-0.13,0.261-0.26,0.4-0.33c0.141-0.07,0.908-0.577,0.908-0.577
	l0.083,1.178c0,0-0.348-0.086-0.651,0.195c-0.137,0.127-0.292,0.619-0.292,0.619l-0.259,0.106c0,0-0.212-0.177-0.236-0.224
	C10.097,12.245,10.156,11.454,10.168,11.323z M9.859,19.204c0.279-0.218,0.665-0.512,0.875-0.638
	c0.354-0.213,0.614-0.565,0.778-0.661c0.167-0.095,0.639-0.234,0.639-0.234l0.12,1.533H9.859z M17.127,17.976
	c-0.017,0.101-0.08,0.808-0.115,1.228h-1.758l-0.298-2.455c0,0,1.273,0.662,1.581,0.756S17.151,17.834,17.127,17.976z"/>
</svg>
