<?xml version="1.0" encoding="utf-8"?>
<!-- Generator: Adobe Illustrator 16.0.4, SVG Export Plug-In . SVG Version: 6.00 Build 0)  -->
<!DOCTYPE svg PUBLIC "-//W3C//DTD SVG 1.1//EN" "http://www.w3.org/Graphics/SVG/1.1/DTD/svg11.dtd">
<svg version="1.1" id="Capa_1" xmlns="http://www.w3.org/2000/svg" xmlns:xlink="http://www.w3.org/1999/xlink" x="0px" y="0px"
	 width="10.365px" height="20.004px" viewBox="0 0 10.365 20.004" enable-background="new 0 0 10.365 20.004" xml:space="preserve">
<path d="M2.729,16.003c0.55,0.756,0.942,2.018,1.193,3.063v0.937h1.049V4.974l0.23-0.003v15.034h0.85v-2.571l0.041-0.011
	c0,0,0.473-3.379,1.541-4.848c1.068-1.468,2.73-2.117,2.73-2.117v-0.272h-0.109c-0.1-0.692-0.826-1.229-1.715-1.229
	c-0.887,0-1.613,0.537-1.713,1.229H6.054V9.824c0,0,0.246-4.101,0.613-5.159H5.602L5.167-0.001H4.841L4.429,4.665h-1.12
	c0.368,1.059,0.614,5.159,0.614,5.159v3.792H3.539c-0.1-0.693-0.827-1.229-1.715-1.229c-0.888,0-1.615,0.536-1.714,1.229H0v0.271
	C0,13.888,1.662,14.537,2.729,16.003z M5.008,1.825C5.043,2.2,5.079,2.577,5.111,2.928L4.924,2.774
	C4.952,2.468,4.979,2.146,5.008,1.825z M4.91,2.956c0.076,0.062,0.15,0.123,0.188,0.155C5.062,3.144,4.972,3.223,4.878,3.308
	C4.889,3.195,4.897,3.076,4.91,2.956z M4.858,3.528c0.068-0.06,0.185-0.165,0.285-0.255c0.02,0.213,0.039,0.413,0.054,0.59
	C5.062,3.757,4.923,3.648,4.853,3.591C4.854,3.572,4.855,3.551,4.858,3.528z M4.836,3.77c0.137,0.107,0.294,0.231,0.381,0.3
	C5.218,4.083,5.22,4.096,5.222,4.109c-0.101,0.04-0.283,0.112-0.429,0.17C4.805,4.137,4.819,3.964,4.836,3.77z M4.778,4.441
	l0.457-0.183c0.019,0.198,0.031,0.34,0.038,0.406H4.758C4.763,4.617,4.769,4.541,4.778,4.441z"/>
</svg>
