<?xml version="1.0" encoding="utf-8"?>
<!-- Generator: Adobe Illustrator 16.0.4, SVG Export Plug-In . SVG Version: 6.00 Build 0)  -->
<!DOCTYPE svg PUBLIC "-//W3C//DTD SVG 1.1//EN" "http://www.w3.org/Graphics/SVG/1.1/DTD/svg11.dtd">
<svg version="1.1" id="Capa_1" xmlns="http://www.w3.org/2000/svg" xmlns:xlink="http://www.w3.org/1999/xlink" x="0px" y="0px"
	 width="20.004px" height="17.125px" viewBox="0 0 20.004 17.125" enable-background="new 0 0 20.004 17.125" xml:space="preserve">
<path d="M19.867,7.419l0.137-0.375c0,0-2.742-1.418-4.87-1.717c-2.125-0.297-4.46,0.361-4.46,0.361l-0.141-0.236l-0.356,0.164H9.828
	L9.472,5.452L9.331,5.688c0,0-2.334-0.658-4.461-0.361C2.743,5.626,0,7.044,0,7.044l0.136,0.375c0,0,1.006,0.15,1.51,0.355
	c0.357,0.145,0.783,0.453,0.999,0.619H1.879v0.355H0.658v3.127h18.688V8.749h-1.029V8.394h-0.957
	c0.217-0.166,0.645-0.475,0.998-0.619C18.861,7.569,19.867,7.419,19.867,7.419z M0.217,7.339L0.149,7.065
	c0,0,1.233-0.252,3.127-0.131c1.691,0.109,5,0.916,5,0.916l1.213-2.133L9.83,5.854L8.459,8.321c0,0-3.247-0.854-4.877-1.021
	S0.217,7.339,0.217,7.339z M8.64,9.875h2.723l0.291,0.612H8.351L8.64,9.875z M8.856,9.415l0.198-0.421h1.895l0.199,0.421H8.856z
	 M7.906,11.435l0.228-0.484h3.736l0.228,0.483L7.906,11.435L7.906,11.435z M16.422,7.3c-1.63,0.168-4.877,1.021-4.877,1.021
	l-1.371-2.467l0.344-0.137l1.211,2.133c0,0,3.311-0.807,5-0.916c1.895-0.121,3.129,0.131,3.129,0.131l-0.069,0.273
	C19.787,7.339,18.053,7.132,16.422,7.3z"/>
</svg>
