<?xml version="1.0" encoding="utf-8"?>
<!-- Generator: Adobe Illustrator 16.0.4, SVG Export Plug-In . SVG Version: 6.00 Build 0)  -->
<!DOCTYPE svg PUBLIC "-//W3C//DTD SVG 1.1//EN" "http://www.w3.org/Graphics/SVG/1.1/DTD/svg11.dtd">
<svg version="1.1" id="Capa_1" xmlns="http://www.w3.org/2000/svg" xmlns:xlink="http://www.w3.org/1999/xlink" x="0px" y="0px"
	 width="4.93px" height="20.004px" viewBox="0 0 4.93 20.004" enable-background="new 0 0 4.93 20.004" xml:space="preserve">
<path d="M3.609,16.695l-0.664-0.086c-0.014-0.066-0.041-0.129-0.078-0.185l0.401-0.536l-0.53,0.405
	c-0.055-0.033-0.117-0.06-0.185-0.071l-0.096-0.664l-0.086,0.664c-0.065,0.014-0.126,0.038-0.181,0.071l-0.53-0.405l0.401,0.536
	c-0.037,0.056-0.064,0.117-0.078,0.185L1.32,16.695l0.664,0.096c0.014,0.066,0.038,0.131,0.075,0.186l-0.408,0.531l0.536-0.402
	c0.056,0.037,0.117,0.062,0.185,0.076l0.086,0.664l0.096-0.664c0.069-0.012,0.133-0.039,0.189-0.076l0.535,0.402L2.87,16.977
	c0.038-0.055,0.062-0.119,0.074-0.186L3.609,16.695z M4.519,7.615V3.979H4.01V3.193c0,0,0.038-1.471-1.389-1.559V1.559
	c0.152-0.051,0.262-0.172,0.262-0.314S2.774,0.982,2.621,0.934V0H2.309v0.934c-0.154,0.05-0.262,0.168-0.262,0.31
	c0,0.142,0.107,0.264,0.262,0.314v0.08c-1.389,0.114-1.39,1.555-1.39,1.555v0.785H0.411v3.637H0v12.389h4.93V7.615H4.519z
	 M2.461,4.877c0.711,0,0.688,0.705,0.688,0.705v1.994H1.78V5.582C1.78,5.582,1.75,4.877,2.461,4.877z M2.465,18.322
	c-0.896,0-1.623-0.729-1.623-1.625c0-0.896,0.727-1.623,1.623-1.623c0.896,0,1.624,0.727,1.624,1.623
	C4.089,17.593,3.361,18.322,2.465,18.322z"/>
</svg>
