<?xml version="1.0" encoding="utf-8"?>
<!-- Generator: Adobe Illustrator 16.0.4, SVG Export Plug-In . SVG Version: 6.00 Build 0)  -->
<!DOCTYPE svg PUBLIC "-//W3C//DTD SVG 1.1//EN" "http://www.w3.org/Graphics/SVG/1.1/DTD/svg11.dtd">
<svg version="1.1" id="Capa_1" xmlns="http://www.w3.org/2000/svg" xmlns:xlink="http://www.w3.org/1999/xlink" x="0px" y="0px"
	 width="19.916px" height="13.945px" viewBox="0 0 19.916 13.945" enable-background="new 0 0 19.916 13.945" xml:space="preserve">
<path d="M18.004,7.811C17.87,6.443,5.794,5.833,0,5.774v5.457C5.896,10.721,18.129,9.094,18.004,7.811z M16.272,0.121v1.104H15.44
	V0.683h-5.283V1.85H7.919V1.33H5.441V0.808c0,0,0.013-0.466-0.375-0.499V0.001H4.983v0.309C4.594,0.341,4.608,0.808,4.608,0.808
	V1.33h-0.54V0.808c0,0,0.011-0.466-0.377-0.499V0.001H3.61v0.309C3.22,0.341,3.233,0.808,3.233,0.808V1.33H2.746l-0.47-0.438H1.784
	l-0.493,0.5H0v3.685l5.839,0.267c5.852,0.24,13.357,1.03,13.541,2.384c0.292,2.168-15.131,4.418-17.381,4.752
	C1.356,12.574,0.663,12.668,0,12.756v1.189h19.916V0.121H16.272z M4.926,3.194H4.454v-0.6h0.472V3.194z M6.073,3.194H5.6v-0.6h0.473
	V3.194z M7.219,3.194H6.746v-0.6h0.473V3.194z M11.562,3.646h-0.65V2.817h0.65V3.646z M11.562,2.275h-0.65V1.446h0.65V2.275z
	 M13.146,3.646h-0.652V2.817h0.652V3.646z M13.146,2.275h-0.652V1.446h0.652V2.275z M14.728,3.646h-0.651V2.817h0.651V3.646z
	 M14.728,2.275h-0.651V1.446h0.651V2.275z M17.192,2.318h-0.471v-0.6h0.471V2.318z M17.192,1.317h-0.471v-0.6h0.471V1.317z
	 M18.338,2.318h-0.472v-0.6h0.472V2.318z M18.338,1.317h-0.472v-0.6h0.472V1.317z M19.485,2.318h-0.473v-0.6h0.473V2.318z
	 M19.485,1.317h-0.473v-0.6h0.473V1.317z"/>
</svg>
