<?xml version="1.0" encoding="utf-8"?>
<!-- Generator: Adobe Illustrator 16.0.4, SVG Export Plug-In . SVG Version: 6.00 Build 0)  -->
<!DOCTYPE svg PUBLIC "-//W3C//DTD SVG 1.1//EN" "http://www.w3.org/Graphics/SVG/1.1/DTD/svg11.dtd">
<svg version="1.1" id="Capa_1" xmlns="http://www.w3.org/2000/svg" xmlns:xlink="http://www.w3.org/1999/xlink" x="0px" y="0px"
	 width="20.004px" height="13.157px" viewBox="0 0 20.004 13.157" enable-background="new 0 0 20.004 13.157" xml:space="preserve">
<path d="M19.254,12.424V2.833h0.594V2.322h-0.621V1.648L18.99,1.38V0.497c0,0-0.031-0.2-0.174-0.349
	C18.738,0.066,18.631,0.022,18.566,0h-0.092c-0.064,0.022-0.173,0.066-0.25,0.148c-0.143,0.149-0.174,0.349-0.174,0.349V1.38
	l-0.236,0.268v0.463l-2.4-1.382H4.591L2.189,2.111V1.648L1.953,1.38V0.497c0,0-0.032-0.2-0.175-0.349
	C1.701,0.066,1.594,0.022,1.529,0h-0.09c-0.065,0.022-0.172,0.066-0.25,0.148C1.046,0.297,1.014,0.497,1.014,0.497V1.38L0.778,1.648
	v0.674H0.157v0.511h0.594v9.591H0v0.732h20.004v-0.732H19.254L19.254,12.424z M18.387,1.644h0.268v0.583h-0.268V1.644z
	 M17.363,4.405c0,0,0.049-0.453,0.478-0.453c0.427,0,0.476,0.453,0.476,0.453v1.16h-0.953V4.405z M16.243,6.778
	c0,0,0.049-0.452,0.478-0.452c0.428,0,0.475,0.452,0.475,0.452v1.161h-0.952V6.778z M15.124,4.405c0,0,0.049-0.453,0.478-0.453
	c0.428,0,0.478,0.453,0.478,0.453v1.16h-0.955V4.405z M12.884,4.405c0,0,0.05-0.453,0.478-0.453c0.429,0,0.478,0.453,0.478,0.453
	v1.16h-0.954L12.884,4.405L12.884,4.405z M13.838,6.778v1.161h-0.954V6.778c0,0,0.05-0.452,0.478-0.452
	C13.79,6.326,13.838,6.778,13.838,6.778z M13.703,9.61c0.919,0,1.023,0.844,1.023,0.844v1.971H12.68v-1.971
	C12.68,10.454,12.784,9.61,13.703,9.61z M11.131,12.424H8.874v-2.037c0,0,0.117-0.932,1.128-0.932c1.014,0,1.129,0.932,1.129,0.932
	V12.424z M10.645,4.405c0,0,0.051-0.453,0.479-0.453c0.427,0,0.477,0.453,0.477,0.453v1.16h-0.955V4.405z M9.525,6.778
	c0,0,0.05-0.452,0.477-0.452c0.428,0,0.478,0.452,0.478,0.452v1.161H9.525V6.778z M8.405,4.405c0,0,0.049-0.453,0.477-0.453
	c0.427,0,0.477,0.453,0.477,0.453v1.16H8.405V4.405z M6.167,4.405c0,0,0.048-0.453,0.477-0.453S7.12,4.405,7.12,4.405v1.16H6.167
	V4.405z M6.167,6.778c0,0,0.048-0.452,0.477-0.452S7.12,6.778,7.12,6.778v1.161H6.167V6.778z M3.927,4.405
	c0,0,0.049-0.453,0.477-0.453c0.428,0,0.478,0.453,0.478,0.453v1.16H3.927V4.405z M2.807,6.778c0,0,0.049-0.452,0.477-0.452
	c0.428,0,0.477,0.452,0.477,0.452v1.161H2.807V6.778z M1.688,4.405c0,0,0.049-0.453,0.477-0.453c0.428,0,0.477,0.453,0.477,0.453
	v1.16H1.688V4.405z M1.35,1.644h0.267v0.583H1.35V1.644z M5.277,10.454c0,0,0.106-0.844,1.024-0.844
	c0.917,0,1.024,0.844,1.024,0.844v1.971H5.277V10.454z"/>
</svg>
