<?xml version="1.0" encoding="utf-8"?>
<!-- Generator: Adobe Illustrator 16.0.4, SVG Export Plug-In . SVG Version: 6.00 Build 0)  -->
<!DOCTYPE svg PUBLIC "-//W3C//DTD SVG 1.1//EN" "http://www.w3.org/Graphics/SVG/1.1/DTD/svg11.dtd">
<svg version="1.1" id="Capa_1" xmlns="http://www.w3.org/2000/svg" xmlns:xlink="http://www.w3.org/1999/xlink" x="0px" y="0px"
	 width="20.004px" height="17.275px" viewBox="0 0 20.004 17.275" enable-background="new 0 0 20.004 17.275" xml:space="preserve">
<path d="M19.204,5.618h0.174c0,0-0.381-0.758-1.032-0.758c-0.646,0-1.021,0.758-1.021,0.758h0.115v2.195h-0.67V5.822h0.141V4.948
	h-4.182l-0.627,0.639v1.81c0,0-0.453-0.467-0.625-0.408c-0.175,0.06-0.662,0.787-0.662,0.787V8.24H9.178V7.813H8.553v-1.83
	l0.149,0.034V5.6L7.389,5.036v-0.04H3.445v0.7h0.254v2.117H1.797V5.539H1.425v2.274H0.729V5.539H0.357v2.274H0v1.009h0.752v2.449H0
	v1.145h20.004v-1.35h-0.627V8.822h0.627V7.813h-0.801L19.204,5.618L19.204,5.618z M2.099,11.271H1.194V8.822h0.904L2.099,11.271
	L2.099,11.271z M3.699,11.271h-1.16V8.822h1.16V11.271z M7.367,5.732l0.856,0.184v1.897H7.367V5.732z M6.3,5.696h0.694v2.117H6.3
	V5.696z M4.813,11.271H4.139V8.822h0.675L4.813,11.271L4.813,11.271z M4.813,7.813H4.071V5.696h0.742V7.813z M5.186,5.696H5.93
	v2.117H5.186V5.696z M6.322,11.271H5.255V8.822h1.067V11.271z M7.668,11.271H6.763V8.822h0.905V11.271z M8.713,11.271H8.11V8.822
	h0.603V11.271z M15.827,5.822h0.553v1.991h-0.553V5.822z M13.159,11.068h-0.291V8.822h0.291V11.068z M14.204,11.068h-0.677V8.822
	h0.677V11.068z M14.204,7.813h-0.777V5.822h0.777V7.813z M15.456,11.068h-0.883V8.822h0.883V11.068z M15.456,7.813h-0.883V5.822
	h0.883V7.813z M16.641,11.068h-0.812V8.822h0.812V11.068z M17.581,11.068h-0.569V8.822h0.569V11.068z M17.812,5.618h1.021v2.195
	h-1.021V5.618z M19.004,11.068h-1.053V8.822h1.053V11.068z"/>
</svg>
