<?xml version="1.0" encoding="utf-8"?>
<!-- Generator: Adobe Illustrator 16.0.4, SVG Export Plug-In . SVG Version: 6.00 Build 0)  -->
<!DOCTYPE svg PUBLIC "-//W3C//DTD SVG 1.1//EN" "http://www.w3.org/Graphics/SVG/1.1/DTD/svg11.dtd">
<svg version="1.1" id="Capa_1" xmlns="http://www.w3.org/2000/svg" xmlns:xlink="http://www.w3.org/1999/xlink" x="0px" y="0px"
	 width="20.006px" height="13.157px" viewBox="0 0 20.006 13.157" enable-background="new 0 0 20.006 13.157" xml:space="preserve">
<path d="M11.663,6.045H9.989V5.541h0.462c-0.013-0.262-0.038-0.972,0.033-1.05c0.09-0.098,0.332-0.631,0.38-0.894
	c0.048-0.262-0.01-0.681,0.048-0.719c0.06-0.04,0.116-0.019,0.116-0.098c0-0.078,0.021-0.446-0.038-0.553
	c-0.06-0.108-0.126-0.155-0.126-0.155s-0.038-0.468-0.088-0.612c-0.049-0.147-0.544-0.38-0.544-0.38V0.583
	c0,0,0.078-0.125,0.04-0.204c-0.04-0.078-0.137-0.136-0.128-0.213C10.155,0.088,10.106-0.008,10.068,0
	c-0.039,0.01-0.048,0.176-0.079,0.225C9.96,0.272,9.872,0.41,9.893,0.468C9.911,0.525,9.951,0.671,9.951,0.72S9.94,1.069,9.94,1.069
	S9.154,1.187,8.911,1.538C8.668,1.885,8.747,2.255,8.795,2.431c0.049,0.175-0.127,0.36-0.048,0.583
	c0.077,0.223,0.185,0.311,0.106,0.485C8.774,3.674,8.658,3.946,8.747,4.014c0.086,0.068,0.396,0.292,0.396,0.292v1.235h0.464v0.505
	H8.191L0,13.157h20.006L11.663,6.045z M4.324,12.767h-3.26l7.57-6.597h0.132L4.324,12.767z M9.863,2.295
	c0,0,0.331-0.243,0.554-0.166c0.225,0.078,0.495,0.418,0.495,0.524s-0.115,0.195-0.115,0.272c0,0.078-0.021,0.583-0.04,0.671
	c-0.02,0.088-0.076,0.233-0.105,0.331c-0.029,0.097-0.116,0.359-0.195,0.349c-0.076-0.009-0.212-0.194-0.135-0.233
	c0.076-0.039,0.204,0.01,0.204-0.058c0-0.067-0.099-0.165-0.156-0.185c-0.057-0.02-0.212-0.068-0.135-0.086
	c0.078-0.02,0.175-0.049,0.233-0.02c0.059,0.028,0.098,0.086,0.108,0.038c0.009-0.047-0.029-0.125-0.09-0.145
	c-0.059-0.02-0.193-0.029-0.193-0.029s-0.039-0.116,0.04-0.145c0.076-0.029,0.164-0.029,0.174-0.078
	c0.012-0.049-0.098-0.175-0.126-0.184c-0.029-0.01-0.088-0.137-0.098-0.243c-0.009-0.107-0.049-0.225,0.01-0.234
	c0.059-0.01,0.135,0.195,0.214,0.234c0.078,0.037,0.176,0.01,0.193-0.059c0.02-0.068,0.117-0.118,0.107-0.166
	c-0.01-0.047-0.156-0.125-0.205-0.165c-0.047-0.04-0.105-0.01-0.185,0.02c-0.077,0.029-0.145,0.01-0.214-0.03
	C10.136,2.469,9.746,2.354,9.863,2.295z"/>
</svg>
