<?xml version="1.0" encoding="utf-8"?>
<!-- Generator: Adobe Illustrator 16.0.4, SVG Export Plug-In . SVG Version: 6.00 Build 0)  -->
<!DOCTYPE svg PUBLIC "-//W3C//DTD SVG 1.1//EN" "http://www.w3.org/Graphics/SVG/1.1/DTD/svg11.dtd">
<svg version="1.1" id="Capa_1" xmlns="http://www.w3.org/2000/svg" xmlns:xlink="http://www.w3.org/1999/xlink" x="0px" y="0px"
	 width="13.668px" height="20.006px" viewBox="0 0 13.668 20.006" enable-background="new 0 0 13.668 20.006" xml:space="preserve">
<path d="M12.352,18.483l-0.525-5.623l0.466-0.322V12.39l-0.72-0.062L10.98,7.019l0.297-0.15v-0.19l-0.973-0.213
	c0,0,0.146-0.295,0.062-0.402c-0.084-0.105-0.211-0.084-0.19-0.211c0.021-0.127-0.022-0.246-0.104-0.273
	C9.943,5.534,9.943,4.075,9.943,4.075s0.189-0.084,0.17-0.148c-0.021-0.064-0.127-0.422-0.19-0.549S9.775,3.103,9.648,2.997
	S9.373,2.849,9.373,2.849L9.33,2.318c0,0-0.059-0.801-0.814-0.957C8.51,1.299,8.505,1.206,8.533,1.188
	c0.042-0.033,0.084-0.127,0.084-0.127S8.533,0.913,8.49,0.892C8.448,0.87,8.384,0.814,8.406,0.763
	c0.021-0.053-0.022-0.316-0.022-0.316L8.346,0.39V0h-0.06v0.4L8.254,0.445c0,0-0.042,0.264-0.021,0.316
	c0.021,0.052-0.041,0.108-0.084,0.13c-0.043,0.021-0.127,0.17-0.127,0.17s0.043,0.094,0.084,0.127
	C8.133,1.206,8.13,1.292,8.124,1.354C7.538,1.474,7.426,2.191,7.426,2.191L7.404,2.976c0,0-0.083,0.275-0.211,0.275
	c-0.127,0-0.233,0.148-0.233,0.213c0,0.061-0.275,0.23-0.19,0.338c0.083,0.105,0.19,0.254,0.19,0.254L6.939,6
	c0,0-0.021,0.359-0.148,0.381C6.665,6.4,6.644,6.424,6.644,6.529s0.084,0.211,0.084,0.211L5.903,7.375c0,0,0.148,0.189,0.212,0.189
	c0.062,0,0.127,0.064,0.127,0.064l-0.149,4.994l-0.677,0.486l0.001,0.1l0.422,0.049l-0.025,0.602l-0.251-0.053L4.54,14.302
	l-0.205-3.617l0.189-0.094l0.006-0.133l-0.6-0.182c0,0,0.101-0.199,0.052-0.277c-0.05-0.076-0.129-0.064-0.113-0.152
	C3.885,9.758,3.861,9.674,3.811,9.65C3.733,9.618,3.777,8.603,3.777,8.603s0.12-0.055,0.109-0.098
	C3.875,8.459,3.821,8.206,3.784,8.116c-0.036-0.092-0.083-0.197-0.16-0.277C3.549,7.763,3.458,7.728,3.458,7.728L3.447,7.359
	c0,0-0.013-0.562-0.48-0.697C2.965,6.622,2.965,6.556,2.984,6.543c0.028-0.021,0.057-0.088,0.057-0.088S2.992,6.353,2.965,6.336
	C2.94,6.318,2.902,6.279,2.917,6.245c0.016-0.037-0.002-0.221-0.002-0.221L2.89,5.98l0.012-0.27L2.865,5.709L2.854,5.986
	L2.833,6.019c0,0-0.035,0.184-0.024,0.221C2.822,6.275,2.78,6.312,2.753,6.325C2.727,6.336,2.668,6.438,2.668,6.438
	s0.024,0.066,0.049,0.09C2.734,6.544,2.73,6.604,2.724,6.646c-0.369,0.064-0.46,0.561-0.46,0.561L2.226,7.75
	c0,0-0.06,0.188-0.139,0.184c-0.08-0.004-0.15,0.096-0.152,0.139C1.933,8.119,1.756,8.228,1.806,8.303
	c0.049,0.076,0.112,0.184,0.112,0.184L1.845,9.84c0,0-0.024,0.25-0.104,0.26c-0.081,0.01-0.094,0.025-0.098,0.098
	c-0.002,0.073,0.047,0.152,0.047,0.152l-0.533,0.412c0,0,0.087,0.137,0.127,0.141c0.04,0.002,0.077,0.047,0.077,0.047l-0.243,3.471
	l-0.437,0.316l-0.003,0.07l0.263,0.047l-0.286,3.629H0v1.521h13.668v-1.521H12.352z M7.404,9.607L6.907,10.01c0,0-0.01-0.994,0-1.27
	c0.011-0.277,0.032-0.572,0.245-0.615c0.209-0.041,0.252,0.277,0.252,0.277V9.607z M7.23,5.747c0,0-0.007-0.596-0.007-0.787
	c0-0.189,0-0.324,0.086-0.412c0.087-0.086,0.103,0.135,0.103,0.135L7.436,5.54L7.23,5.747z M7.968,5.31c0,0-0.007-0.586-0.007-0.752
	c0-0.168,0.021-0.35,0.223-0.365c0.198-0.018,0.229,0.23,0.229,0.23l0.024,0.873L7.968,5.31z M9.047,4.445
	c0,0,0.008-0.248,0.215-0.166c0.206,0.078,0.174,0.277,0.182,0.396C9.451,4.792,9.484,5.46,9.484,5.46l-0.42-0.143L9.047,4.445z
	 M9.129,8.073c0,0,0.117-0.379,0.477-0.295s0.424,0.432,0.444,0.654c0.021,0.225,0.074,1.408,0.074,1.408L9.182,9.661L9.129,8.073z
	 M9.738,13.769l0.619,0.031l0.054,1.301l-0.663-0.018L9.738,13.769z M9.812,17.685L9.801,16.37l0.619,0.031l0.055,1.301
	L9.812,17.685z"/>
</svg>
