<?xml version="1.0" encoding="utf-8"?>
<!-- Generator: Adobe Illustrator 16.0.4, SVG Export Plug-In . SVG Version: 6.00 Build 0)  -->
<!DOCTYPE svg PUBLIC "-//W3C//DTD SVG 1.1//EN" "http://www.w3.org/Graphics/SVG/1.1/DTD/svg11.dtd">
<svg version="1.1" id="Capa_1" xmlns="http://www.w3.org/2000/svg" xmlns:xlink="http://www.w3.org/1999/xlink" x="0px" y="0px"
	 width="10.244px" height="19.938px" viewBox="0 0 10.244 19.938" enable-background="new 0 0 10.244 19.938" xml:space="preserve">
<path d="M9.976,8.631c0,0,0.276,0,0.262-0.072c-0.014-0.072-0.424-0.014-0.6-0.102c-0.173-0.088-0.189-0.22-0.189-0.22
	S9.667,8.209,9.685,8.15c0.012-0.06-0.062-0.045-0.164-0.06c-0.1-0.012-0.233,0.031-0.379,0.06C8.997,8.178,8.748,8.191,8.368,8.09
	c-0.381-0.1-0.848-0.086-1.141-0.174C6.937,7.828,6.924,7.756,6.673,7.74C6.427,7.725,6.12,7.695,5.929,7.582
	C5.74,7.463,5.564,7.494,5.344,7.508c-0.218,0.014-0.35-0.014-0.51-0.133c-0.161-0.115-0.19-0.424-0.19-0.424
	S4.79,6.893,4.893,6.836c0.102-0.06,0.16-0.32,0.219-0.539c0.058-0.221,0.041-0.44,0.041-0.44s0.061-0.028,0.075-0.147
	c0.015-0.115-0.075-0.06-0.133-0.156C5.038,5.448,4.868,5.309,4.658,5.318C4.43,5.332,4.339,5.34,4.236,5.398
	c-0.111,0.063-0.115,0.041-0.22,0.095C3.928,5.535,3.854,5.535,3.752,5.609C3.651,5.682,3.664,5.756,3.681,5.857
	c0.013,0.103-0.059,0.088-0.131,0.16c-0.073,0.074-0.061,0.103-0.119,0.25C3.372,6.412,3.46,6.602,3.606,6.719
	S3.884,6.75,3.884,6.75S3.84,6.98,3.752,7.055S3.592,7.17,3.477,7.113c-0.12-0.058-0.176-0.174-0.322-0.22
	C3.007,6.85,2.965,6.836,2.833,6.719C2.702,6.602,2.291,6.236,2.132,6.047c-0.161-0.189-0.117-0.32-0.336-0.586
	C1.578,5.198,1.123,4.615,1.123,4.615s0.061-0.029,0.061-0.103c0-0.076,0.086-0.133,0.086-0.133l0.336,0.234l0.146-0.117
	L1.359,3.885l2.897-3.578L4.313,0L3.977,0.115L0.978,3.562L0.336,3.258L0.22,3.416l0.365,0.381c0,0,0,0.061-0.205,0.188
	C0.176,4.119,0.305,4.573,0.305,4.573s-0.102-0.029-0.144,0c-0.044,0.03-0.09,0.102-0.09,0.102l0.38,0.277L0.556,4.85L0.541,4.717
	l0.173,0.045c0,0,0.046,0.307,0.146,0.613c0.104,0.307,0.306,0.498,0.644,1.037C1.84,6.951,2.688,7.725,2.688,7.725
	S2.556,8.033,2.57,8.238c0.014,0.205,0.219,0.468,0.219,0.468S2.89,8.82,2.86,9.041C2.833,9.262,2.682,9.596,2.507,9.844
	c-0.174,0.246-0.044,0.424-0.044,0.424s-0.099,0.154-0.146,0.437c-0.065,0.383,0.195,0.764,0.269,1.244
	c0.071,0.479,0.67,1.811,0.994,2.893c0.321,1.082-0.936,2.729-1.185,2.863c-0.248,0.129-0.116,0.16-0.116,0.16L2.176,17.98
	l-2.031,0.291L0,19.938h8.894v-0.719L7.55,18.65l-0.219-0.146c0,0,0.016-0.103,0.016-0.277S7.317,18.051,7.2,17.819
	c-0.117-0.233-0.248-0.481-0.248-0.481s0.219-0.174,0.32-0.279c0.102-0.1,0.146-0.219,0.074-0.584
	c-0.074-0.363-0.352-1.149-0.57-1.692c-0.219-0.539-0.51-2.396-0.832-3.371c-0.32-0.98-0.746-1.347-0.833-1.521
	c-0.09-0.178,0.042-0.703,0.042-0.703s0.044,0.322,0.119,0.47c0.071,0.146,0.116,0.071,0.421,0.247
	c0.31,0.177,0.146,0.308,0.191,0.658c0.043,0.351,0.314,0.511,0.672,0.525c0.539,0.021,0.7-0.16,0.7-0.16s-0.126-0.01-0.212-0.074
	c-0.117-0.088-0.051-0.176-0.051-0.176s0.087,0.029,0.232,0c0.102-0.021,0.162-0.115,0.162-0.115s-0.131,0.023-0.228-0.074
	c-0.146-0.146-0.097-0.29-0.181-0.729C6.894,9.32,6.571,9.262,6.353,9.068c-0.22-0.188-0.205-0.464-0.205-0.464s0.188,0,0.309,0
	c0.115,0,0.29,0.027,0.686,0c0.395-0.03,0.613,0.06,0.967,0.06c0.347,0,0.437-0.045,0.758-0.045c0.32,0,0.466,0.028,0.611,0.088
	c0.146,0.059,0.453,0.131,0.453,0.131s0.248,0.074,0.307-0.017C10.294,8.736,9.976,8.631,9.976,8.631z M4.142,5.617
	C3.962,5.66,3.816,5.84,3.816,5.84s0-0.17,0.078-0.223c0.079-0.06,0.201-0.035,0.39-0.136C4.474,5.381,4.74,5.381,4.74,5.381
	S4.585,5.448,4.518,5.492C4.452,5.537,4.316,5.568,4.142,5.617z"/>
</svg>
