<?xml version="1.0" encoding="utf-8"?>
<!-- Generator: Adobe Illustrator 16.0.4, SVG Export Plug-In . SVG Version: 6.00 Build 0)  -->
<!DOCTYPE svg PUBLIC "-//W3C//DTD SVG 1.1//EN" "http://www.w3.org/Graphics/SVG/1.1/DTD/svg11.dtd">
<svg version="1.1" id="Capa_1" xmlns="http://www.w3.org/2000/svg" xmlns:xlink="http://www.w3.org/1999/xlink" x="0px" y="0px"
	 width="20.004px" height="20.115px" viewBox="0 0 20.004 20.115" enable-background="new 0 0 20.004 20.115" xml:space="preserve">
<path d="M19.65,14.796v-4.338h-0.401v-0.49h-1.252V9.507h-7.119V5.628H10.77V5.197l-0.16-0.16V4.656l-0.144-0.143H9.545l-0.161,0.16
	v0.404l-0.146,0.12v0.432H9.126v3.879H1.987v0.461H0.738v0.49H0.336v4.339H0v0.805h20.004v-0.805L19.65,14.796L19.65,14.796z
	 M11.374,10.828v0.742h-0.496v-0.742H11.374z M9.126,10.828v0.742H8.611v-0.742H9.126z M3.281,14.796H2.548v-3.968h0.733V14.796z
	 M4.899,14.796H3.756v-3.968H4.9L4.899,14.796L4.899,14.796z M6.518,14.796H5.376v-3.968h1.142V14.796z M8.137,14.796H6.993v-3.968
	h1.144V14.796z M12.993,14.796h-1.146v-3.968h1.146V14.796z M14.609,14.796h-1.145v-3.968h1.145V14.796z M16.229,14.796h-1.145
	v-3.968h1.145V14.796z M17.438,14.796h-0.731v-3.968h0.731V14.796z"/>
</svg>
