<?xml version="1.0" encoding="utf-8"?>
<!-- Generator: Adobe Illustrator 16.0.4, SVG Export Plug-In . SVG Version: 6.00 Build 0)  -->
<!DOCTYPE svg PUBLIC "-//W3C//DTD SVG 1.1//EN" "http://www.w3.org/Graphics/SVG/1.1/DTD/svg11.dtd">
<svg version="1.1" id="Capa_1" xmlns="http://www.w3.org/2000/svg" xmlns:xlink="http://www.w3.org/1999/xlink" x="0px" y="0px"
	 width="20.004px" height="18.007px" viewBox="0 0 20.004 18.007" enable-background="new 0 0 20.004 18.007" xml:space="preserve">
<path d="M19.756,11.283c0.021-0.754-0.074-2.812-1.688-3.958c-2.719-1.935-7.131-2.246-7.131-2.246s3.277,2.082,3.627,3.192
	c0.211,0.67,0.244,1.731,0.234,2.478c-0.057-0.01-0.113-0.021-0.172-0.03c-0.006-0.472-0.092-1.721-0.766-2.672
	c-0.844-1.193-3.379-2.617-3.379-2.617s0.167,2.476,0.167,2.988c0,0.449,0.045,1.671,0.059,1.986
	c-0.088-0.002-0.178-0.002-0.265-0.005L10.05,9.056l-0.474,1.34c-0.081,0.002-0.161,0.006-0.243,0.006
	c0.013-0.318,0.059-1.538,0.059-1.985c0-0.514,0.166-2.988,0.166-2.988S7.022,6.851,6.177,8.045
	C5.515,8.98,5.422,10.21,5.414,10.699c-0.059,0.008-0.116,0.019-0.172,0.027c-0.007-0.74,0.026-1.791,0.235-2.455
	c0.35-1.111,3.627-3.193,3.627-3.193s-4.41,0.311-7.131,2.246c-1.611,1.147-1.709,3.205-1.687,3.958H0v1.646h20.004v-1.646H19.756z
	 M14.979,8.129c-0.434-1.258-2.352-2.371-2.352-2.371s3.918,1.465,4.598,2.721c0.68,1.259,0.658,2.722,0.658,2.722h-1.57
	c-0.211-0.127-0.557-0.246-1.012-0.353C15.312,10.26,15.293,9.047,14.979,8.129z M2.818,8.478c0.68-1.255,4.596-2.72,4.596-2.72
	s-1.917,1.113-2.35,2.371c-0.311,0.904-0.335,2.094-0.322,2.693c-0.516,0.11-0.906,0.238-1.135,0.377H2.159
	C2.159,11.199,2.138,9.736,2.818,8.478z"/>
</svg>
