<?xml version="1.0" encoding="utf-8"?>
<!-- Generator: Adobe Illustrator 16.0.4, SVG Export Plug-In . SVG Version: 6.00 Build 0)  -->
<!DOCTYPE svg PUBLIC "-//W3C//DTD SVG 1.1//EN" "http://www.w3.org/Graphics/SVG/1.1/DTD/svg11.dtd">
<svg version="1.1" id="Capa_1" xmlns="http://www.w3.org/2000/svg" xmlns:xlink="http://www.w3.org/1999/xlink" x="0px" y="0px"
	 width="20.004px" height="17.791px" viewBox="0 0 20.004 17.791" enable-background="new 0 0 20.004 17.791" xml:space="preserve">
<path d="M1.5,8.294L0.032,8.477c0.259,2.401,1.909,4.491,4.32,5.782v-1.465C2.732,11.673,1.665,10.081,1.5,8.294z M10.001,1.158
	c4.528,0,8.231,2.754,8.508,6.236l1.494,0.184C19.846,3.373,15.43,0,10.001,0C4.575,0,0.159,3.371,0,7.576l1.494-0.184
	C1.771,3.912,5.474,1.158,10.001,1.158z M15.652,12.794v1.465c2.41-1.291,4.061-3.381,4.32-5.78l-1.469-0.182
	C18.338,10.083,17.27,11.673,15.652,12.794z M10.064,8.503V8.498c3.645-0.572,6.205,1.8,6.229,1.826
	c0.109,0.104,0.283,0.1,0.387-0.01c0.104-0.111,0.1-0.283-0.01-0.387c-0.113-0.105-2.738-2.549-6.604-1.982V7.927
	c3.704-1.486,6.921,0.844,6.952,0.867c0.123,0.09,0.293,0.066,0.381-0.055c0.09-0.121,0.062-0.291-0.057-0.381
	c-0.129-0.098-2.959-2.158-6.512-1.254c1.248-0.547,3.766-1.414,5.902-0.654c0.143,0.051,0.297-0.023,0.348-0.166
	c0.051-0.143-0.023-0.297-0.166-0.348c-2.693-0.957-5.805,0.399-6.811,0.905c0.013-0.01,0.023-0.02,0.035-0.029
	c0.021-0.021,2.203-2.162,5.059-2.082c0.15,0.004,0.277-0.115,0.281-0.264c0.004-0.15-0.115-0.277-0.266-0.279
	c-2.201-0.062-3.982,1.047-4.863,1.729c0.354-0.584,1.297-1.924,2.711-2.391c0.145-0.045,0.221-0.201,0.174-0.344
	c-0.049-0.143-0.201-0.221-0.344-0.172c-1.129,0.371-1.969,1.205-2.504,1.889c0.26-0.639,0.682-1.441,1.072-1.645
	c0.133-0.07,0.186-0.234,0.115-0.367c-0.07-0.135-0.234-0.186-0.367-0.115c-0.479,0.25-0.878,0.934-1.143,1.5V3.108L9.896,2.75H9.86
	L9.689,3.108v1.162c-0.262-0.566-0.662-1.25-1.141-1.5C8.415,2.701,8.25,2.75,8.18,2.885C8.111,3.02,8.164,3.184,8.296,3.253
	c0.391,0.203,0.813,1.006,1.072,1.644C8.834,4.214,7.994,3.38,6.867,3.009C6.723,2.96,6.568,3.039,6.521,3.182
	C6.474,3.324,6.553,3.479,6.694,3.524C8.109,3.992,9.05,5.332,9.408,5.916C8.526,5.233,6.744,4.125,4.542,4.188
	C4.392,4.188,4.274,4.315,4.278,4.466c0.004,0.148,0.13,0.268,0.279,0.264c2.854-0.08,5.037,2.061,5.06,2.082
	c0.01,0.01,0.022,0.02,0.033,0.029C8.646,6.335,5.537,4.979,2.844,5.938c-0.143,0.05-0.217,0.205-0.166,0.347
	c0.05,0.143,0.207,0.217,0.347,0.166C5.163,5.69,7.68,6.558,8.928,7.104C5.375,6.201,2.542,8.262,2.415,8.358
	c-0.121,0.09-0.146,0.26-0.057,0.381C2.446,8.86,2.619,8.884,2.738,8.794C2.771,8.771,5.986,6.44,9.689,7.927v0.018
	C5.825,7.378,3.199,9.821,3.086,9.927c-0.108,0.105-0.114,0.275-0.011,0.389c0.104,0.107,0.276,0.111,0.385,0.01
	C3.487,10.3,6.047,7.926,9.689,8.499v0.006c-3.414,0.246-5.291,2.579-5.371,2.68c-0.092,0.117-0.072,0.289,0.046,0.381
	c0.117,0.094,0.289,0.074,0.382-0.045c0.017-0.021,1.667-2.062,4.594-2.436c-2.112,0.614-3.625,2.967-3.693,3.075
	c-0.081,0.127-0.042,0.297,0.084,0.375c0.127,0.082,0.295,0.043,0.375-0.084c0.017-0.025,1.573-2.441,3.583-2.893v0.154
	c0,0-0.203,0.066-0.272,0.293c-0.068,0.229-0.272,0.184-0.568,0.48c-0.294,0.295-0.249,0.543-0.294,0.635
	c-0.045,0.09-0.84,0-0.998,0.09c-0.16,0.092,0.157,0.273,0.294,0.408c0.137,0.137,0.09,0.389,0.228,0.613
	c0.135,0.227,0.681,0.09,0.681,0.09s-0.159,4.152,0,4.789c0.138,0.551,0.897,0.658,1.093,0.678v0.004c0,0,0.008-0.002,0.023-0.002
	c0.016,0,0.024,0.002,0.024,0.002v-0.004c0.196-0.02,0.957-0.127,1.094-0.678c0.158-0.637,0-4.789,0-4.789s0.543,0.137,0.68-0.09
	s0.092-0.479,0.229-0.613s0.455-0.316,0.295-0.408c-0.158-0.09-0.953,0-1-0.09c-0.045-0.092,0-0.34-0.293-0.635
	c-0.297-0.297-0.501-0.252-0.569-0.48c-0.067-0.227-0.272-0.293-0.272-0.293V9.558c2.013,0.451,3.567,2.867,3.583,2.893
	c0.08,0.127,0.25,0.166,0.375,0.084c0.127-0.078,0.166-0.248,0.084-0.375c-0.066-0.107-1.582-2.461-3.693-3.075
	c2.927,0.374,4.576,2.415,4.593,2.436c0.094,0.119,0.266,0.139,0.383,0.045c0.117-0.092,0.139-0.264,0.045-0.381
	C15.355,11.081,13.479,8.75,10.064,8.503z"/>
</svg>
