<?xml version="1.0" encoding="utf-8"?>
<!-- Generator: Adobe Illustrator 16.0.4, SVG Export Plug-In . SVG Version: 6.00 Build 0)  -->
<!DOCTYPE svg PUBLIC "-//W3C//DTD SVG 1.1//EN" "http://www.w3.org/Graphics/SVG/1.1/DTD/svg11.dtd">
<svg version="1.1" id="Capa_1" xmlns="http://www.w3.org/2000/svg" xmlns:xlink="http://www.w3.org/1999/xlink" x="0px" y="0px"
	 width="18.348px" height="12.354px" viewBox="0 0 18.348 12.354" enable-background="new 0 0 18.348 12.354" xml:space="preserve">
<path d="M17.495,11.515l0.005-0.027V2.419l0.673-0.838V1.374h-1.256V0.79h-2.278V0.536h-1.07V0.001H4.778v0.535H3.708V0.79H1.429
	v0.584H0.173v0.207l0.675,0.838v9.067l0.003,0.027H0v0.84h18.348v-0.84h-0.853V11.515z M10.836,6.257H7.511V4.372h3.325V6.257z
	 M15.615,5.303c0,0,0.07-0.145,0.163-0.145s0.069,0.079,0.075,0.153c0.006,0.076,0.028,0.136,0.064,0.158
	c0,0,0.081,0.029,0.104-0.022s0.14-0.267,0.274-0.232c0.133,0.035,0.133,0.129,0.133,0.238c0,0.11,0,1.182,0,1.182
	s-0.158-0.021-0.204-0.057c-0.047-0.035-0.098-0.088-0.098-0.088v0.176h-0.635V6.473c0,0-0.041,0.094-0.101,0.129
	c-0.058,0.033-0.174,0.07-0.174,0.07V5.448c0,0,0.005-0.232,0.151-0.228c0.146,0.006,0.123,0.25,0.214,0.256
	c0.094,0.006,0.146-0.059,0.146-0.104c0-0.047,0.006-0.07,0.006-0.07L15.615,5.303L15.615,5.303z M14.441,1.503h3.465v0.205h-3.465
	V1.503z M3.964,0.833h10.419v0.264H3.964V0.833z M0.44,1.708V1.503h3.465v0.205H0.44z M2.12,6.579
	C2.074,6.613,1.917,6.635,1.917,6.635s0-1.07,0-1.182c0-0.109,0-0.203,0.134-0.238c0.133-0.033,0.25,0.182,0.274,0.232
	c0.022,0.053,0.104,0.023,0.104,0.023c0.036-0.022,0.059-0.082,0.065-0.158C2.499,5.24,2.476,5.16,2.57,5.16
	c0.095,0,0.163,0.145,0.163,0.145H2.609c0,0,0.007,0.023,0.007,0.07c0,0.045,0.053,0.108,0.146,0.104s0.069-0.25,0.215-0.256
	C3.122,5.217,3.129,5.45,3.129,5.45v1.225c0,0-0.118-0.037-0.175-0.07C2.896,6.566,2.854,6.473,2.854,6.473v0.193H2.22V6.491
	C2.22,6.491,2.168,6.544,2.12,6.579z M8.138,7.187h2.071v4.328H8.138V7.187z"/>
</svg>
