<?xml version="1.0" encoding="utf-8"?>
<!-- Generator: Adobe Illustrator 16.0.4, SVG Export Plug-In . SVG Version: 6.00 Build 0)  -->
<!DOCTYPE svg PUBLIC "-//W3C//DTD SVG 1.1//EN" "http://www.w3.org/Graphics/SVG/1.1/DTD/svg11.dtd">
<svg version="1.1" id="Capa_1" xmlns="http://www.w3.org/2000/svg" xmlns:xlink="http://www.w3.org/1999/xlink" x="0px" y="0px"
	 width="20.004px" height="18.35px" viewBox="0 0 20.004 18.35" enable-background="new 0 0 20.004 18.35" xml:space="preserve">
<path d="M19.943,10.751l0.061-0.062v-0.106h-0.285v-0.45c0,0,0.035-0.049,0.029-0.078c-0.008-0.028-0.08-0.037-0.08-0.037
	s-0.037-0.181-0.254-0.281v-0.14c0,0-0.127-0.152-0.182-0.175c-0.057-0.021-0.164,0.061-0.186,0.104
	c-0.021,0.043-0.021,0.043-0.021,0.043v0.12c0,0-0.143,0.118-0.168,0.164c-0.027,0.042-0.086,0.161-0.086,0.161
	s-0.062-0.021-0.086-0.004c-0.029,0.017-0.023,0.037,0,0.065c0.02,0.024,0.043,0.074,0.043,0.074l-0.039,0.062v0.126
	c0,0-0.557,0.2-1.988,0.293c-1.436,0.092-3.113,0.168-4.027,0.174c-0.492,0.002-0.846,0.008-1.064,0.012v-0.116
	c0,0,0-0.239-0.074-0.271c-0.078-0.032-0.1-0.056-0.121-0.144c-0.02-0.087-0.055-0.173-0.129-0.196
	c-0.078-0.021-0.143-0.076-0.152-0.129c-0.012-0.055-0.176-0.055-0.195-0.098c-0.021-0.045-0.064-0.12-0.119-0.109
	c-0.055,0.012-0.109,0-0.121,0.086c-0.01,0.078-0.021,0.185-0.109,0.243V7.486h0.078V7.377H10.6V6.887h0.174V6.714l-0.189-0.127
	c0,0-0.117-0.264-0.062-0.373c0.057-0.108-0.042-0.141-0.042-0.141s-0.054-0.208-0.185-0.304c-0.038-0.027-0.073-0.049-0.106-0.062
	c-0.013-0.087-0.041-0.287-0.041-0.354c0-0.088,0.036-0.235,0.036-0.235s0.028,0.08,0.036,0.104c0.007,0.026,0,0.048,0.028,0.041
	c0.03-0.008,0.066-0.047,0.07-0.08c0.003-0.032-0.047-0.021-0.047-0.021s-0.004-0.151-0.025-0.207
	c-0.022-0.054-0.062-0.112-0.065-0.145c-0.003-0.033,0.016-0.104,0.016-0.104s0.071,0.011,0.089-0.019
	c0.014-0.03-0.021-0.088-0.024-0.149c-0.004-0.062-0.011-0.191-0.022-0.199c-0.01-0.007-0.03,0.051-0.03,0.051
	s-0.039-0.024-0.062-0.024c-0.021,0-0.05,0.032-0.068,0.024s-0.025-0.032-0.025-0.032s0.025-0.096-0.011-0.108
	C10.007,4.233,9.941,4.227,9.935,4.28C9.928,4.335,9.931,4.388,9.941,4.388c0.012,0,0.027,0.021,0.027,0.021S9.946,4.444,9.92,4.447
	C9.896,4.45,9.841,4.527,9.827,4.578c-0.014,0.05-0.055,0.141-0.083,0.173c-0.03,0.032-0.095,0.124-0.077,0.133
	C9.686,4.897,9.74,4.852,9.779,4.805c0.04-0.047,0.116-0.174,0.116-0.174s-0.011,0.13-0.036,0.164
	C9.833,4.827,9.771,4.907,9.771,4.958S9.765,5.157,9.75,5.174c-0.015,0.02-0.029,0.048-0.018,0.063
	c0.011,0.015,0.032,0.044,0.05,0.041c0.018-0.004,0.04,0.145,0.065,0.19c0.016,0.029,0.013,0.143,0.01,0.223
	C9.814,5.706,9.767,5.73,9.712,5.769C9.582,5.864,9.527,6.073,9.527,6.073S9.43,6.105,9.484,6.214
	c0.054,0.108-0.062,0.373-0.062,0.373L9.234,6.714v0.174H9.41v0.489H9.342v0.109h0.075v2.599C9.331,10.025,9.319,9.919,9.31,9.841
	c-0.01-0.086-0.064-0.075-0.118-0.086C9.137,9.744,9.092,9.82,9.071,9.865C9.05,9.906,8.887,9.906,8.875,9.962
	c-0.011,0.052-0.075,0.108-0.152,0.129c-0.077,0.022-0.109,0.108-0.131,0.195c-0.021,0.088-0.043,0.11-0.119,0.142
	c-0.077,0.032-0.077,0.271-0.077,0.271v0.115c-0.219-0.003-0.57-0.01-1.064-0.012c-0.913-0.005-2.593-0.082-4.027-0.173
	c-1.434-0.094-1.989-0.293-1.989-0.293v-0.125l-0.038-0.062c0,0,0.021-0.049,0.043-0.074c0.022-0.028,0.026-0.05,0-0.065
	c-0.028-0.019-0.086,0.003-0.086,0.003s-0.06-0.118-0.088-0.161C1.122,9.81,0.98,9.69,0.98,9.69V9.57c0,0,0,0-0.022-0.043
	c-0.022-0.044-0.13-0.125-0.184-0.104C0.72,9.445,0.589,9.596,0.589,9.596v0.141c-0.216,0.102-0.253,0.281-0.253,0.281
	s-0.072,0.008-0.079,0.036c-0.008,0.03,0.028,0.078,0.028,0.078v0.449H0v0.106l0.061,0.062h0.103v2.672l-0.117,0.115l0.001,0.575
	h19.908l0.002-0.575l-0.117-0.114v-2.672H19.943z M1.616,13.488c-0.184-0.005-0.293-0.008-0.293-0.008v-2.29
	c0,0,0.099,0.021,0.293,0.055V13.488z M2.949,13.522c-0.138-0.003-0.272-0.008-0.399-0.012v-2.14
	c0.123,0.014,0.257,0.028,0.399,0.042V13.522z M4.271,13.549c-0.127-0.002-0.259-0.006-0.39-0.008v-2.057
	c0.11,0.008,0.225,0.014,0.342,0.021c0.017,0,0.034,0,0.048,0.002V13.549z M5.604,13.561c-0.13,0.001-0.258,0.001-0.384,0.001
	v-2.016c0.13,0.004,0.258,0.008,0.384,0.012V13.561z M6.938,13.548c-0.123,0.001-0.251,0.003-0.384,0.005v-1.975
	c0.132,0.002,0.261,0.003,0.384,0.005V13.548z M8.212,13.524c-0.052,0.002-0.167,0.004-0.327,0.006v-1.938c0.15,0,0.261,0,0.327,0
	V13.524z M9.96,5.309c0.036-0.016,0.083,0.098,0.083,0.178c0,0.041-0.001,0.117-0.004,0.183c-0.018-0.002-0.032-0.001-0.037,0
	c-0.007-0.001-0.022-0.002-0.046,0C9.948,5.537,9.935,5.319,9.96,5.309z M10.564,12.944H9.438v-0.96h1.126V12.944z M12.117,13.53
	c-0.158-0.002-0.271-0.005-0.324-0.007v-1.932c0.064,0,0.174,0,0.324,0V13.53z M13.449,13.553c-0.131-0.002-0.258-0.004-0.383-0.006
	v-1.964c0.123-0.001,0.252-0.003,0.383-0.005V13.553z M14.783,13.562c-0.127,0-0.254,0-0.383-0.001v-2.004
	c0.125-0.004,0.254-0.008,0.383-0.012V13.562z M16.123,13.542c-0.133,0.002-0.264,0.006-0.391,0.008v-2.043
	c0.016,0,0.031-0.002,0.047-0.002c0.119-0.006,0.234-0.012,0.344-0.02V13.542z M17.457,13.51c-0.129,0.004-0.264,0.009-0.4,0.012
	v-2.109c0.143-0.014,0.275-0.028,0.4-0.042V13.51z M18.389,13.488v-2.244c0.195-0.033,0.295-0.055,0.295-0.055v2.29L18.389,13.488z"
	/>
</svg>
