<?xml version="1.0" encoding="utf-8"?>
<!-- Generator: Adobe Illustrator 16.0.4, SVG Export Plug-In . SVG Version: 6.00 Build 0)  -->
<!DOCTYPE svg PUBLIC "-//W3C//DTD SVG 1.1//EN" "http://www.w3.org/Graphics/SVG/1.1/DTD/svg11.dtd">
<svg version="1.1" id="Capa_1" xmlns="http://www.w3.org/2000/svg" xmlns:xlink="http://www.w3.org/1999/xlink" x="0px" y="0px"
	 width="20.004px" height="19.381px" viewBox="0 0 20.004 19.381" enable-background="new 0 0 20.004 19.381" xml:space="preserve">
<path d="M19.346,14.171V4.233H0.66v9.938H0v0.977h20.004v-0.977H19.346z M16.329,5.792c0,0,0.073-0.893,0.919-0.893
	s0.904,0.893,0.904,0.893v1.378h-1.824L16.329,5.792L16.329,5.792z M17.249,7.895c0.847,0,0.905,0.893,0.905,0.893v5.383h-1.825
	V8.788C16.329,8.788,16.402,7.895,17.249,7.895z M13.434,5.792c0,0,0.074-0.893,0.92-0.893c0.847,0,0.905,0.893,0.905,0.893v1.378
	h-1.825V5.792z M14.354,7.895c0.847,0,0.905,0.893,0.905,0.893v5.383h-1.825V8.788C13.434,8.788,13.508,7.895,14.354,7.895z
	 M10.538,5.792c0,0,0.075-0.893,0.92-0.893s0.905,0.893,0.905,0.893v1.378h-1.825V5.792z M11.458,7.895
	c0.845,0,0.905,0.893,0.905,0.893v5.383h-1.825V8.788C10.538,8.788,10.611,7.895,11.458,7.895z M7.643,5.792
	c0,0,0.074-0.893,0.919-0.893c0.846,0,0.906,0.893,0.906,0.893v1.378H7.643V5.792z M8.562,7.895c0.846,0,0.906,0.893,0.906,0.893
	v5.383H7.643V8.788C7.643,8.788,7.717,7.895,8.562,7.895z M4.747,5.792c0,0,0.074-0.893,0.919-0.893s0.906,0.893,0.906,0.893v1.378
	H4.747V5.792z M5.667,7.895c0.846,0,0.906,0.893,0.906,0.893v5.383H4.747V8.788C4.747,8.788,4.821,7.895,5.667,7.895z M1.852,5.792
	c0,0,0.074-0.893,0.92-0.893c0.845,0,0.905,0.893,0.905,0.893v1.378H1.852V5.792z M1.852,8.788c0,0,0.074-0.893,0.92-0.893
	c0.845,0,0.905,0.893,0.905,0.893v5.383H1.852V8.788z"/>
</svg>
