<?xml version="1.0" encoding="utf-8"?>
<!-- Generator: Adobe Illustrator 16.0.4, SVG Export Plug-In . SVG Version: 6.00 Build 0)  -->
<!DOCTYPE svg PUBLIC "-//W3C//DTD SVG 1.1//EN" "http://www.w3.org/Graphics/SVG/1.1/DTD/svg11.dtd">
<svg version="1.1" id="Capa_1" xmlns="http://www.w3.org/2000/svg" xmlns:xlink="http://www.w3.org/1999/xlink" x="0px" y="0px"
	 width="20.004px" height="19.15px" viewBox="0 0 20.004 19.15" enable-background="new 0 0 20.004 19.15" xml:space="preserve">
<path d="M13.866,5.723l-2.413-3.471H8.489L6.077,5.723v1.129h7.789V5.723z M8.523,2.743h2.888v0.366H8.523V2.743z M8.054,3.531
	h3.826V3.9H8.054V3.531z M7.447,4.322h5.04v0.369h-5.04V4.322z M13.104,5.482H6.832V5.113h6.271V5.482L13.104,5.482z M19.393,15.402
	c-0.01-0.027-0.02-0.061-0.031-0.092c-0.061-0.186-0.12-0.186-0.15-0.271c-0.029-0.094,0.15-0.521-0.029-0.582
	c-0.184-0.062-0.184,0.029-0.43,0.029c-0.244,0-0.184-0.184-0.213-0.43c-0.031-0.242-0.307-0.09-0.396-0.119
	c-0.093-0.031-0.062-0.979-0.154-1.189c-0.043-0.102-0.158-0.08-0.273-0.035V8.96H15.15v1.465h-0.153V9.052H5.008v1.374H4.856V8.96
	H2.29v3.752c-0.114-0.045-0.233-0.064-0.275,0.035c-0.091,0.213-0.06,1.158-0.152,1.189c-0.092,0.029-0.367-0.123-0.398,0.119
	c-0.029,0.246,0.031,0.43-0.213,0.43s-0.244-0.092-0.427-0.029c-0.183,0.061,0,0.488-0.031,0.582
	c-0.03,0.088-0.092,0.088-0.152,0.271c-0.012,0.033-0.021,0.064-0.032,0.092H0v1.496h20.004v-1.496H19.393z M5.803,15.402H4.856
	v-3.48h0.947V15.402z M8.337,15.402H6.811v-3.48h1.527L8.337,15.402L8.337,15.402z M10.75,15.402H9.345v-3.48h1.405V15.402z
	 M13.193,15.402h-1.438v-3.48h1.438V15.402z M15.148,15.402H14.2v-3.48h0.948V15.402z M15.18,7.064H4.795v1.709H15.18V7.064z"/>
</svg>
