<?xml version="1.0" encoding="utf-8"?>
<!-- Generator: Adobe Illustrator 16.0.4, SVG Export Plug-In . SVG Version: 6.00 Build 0)  -->
<!DOCTYPE svg PUBLIC "-//W3C//DTD SVG 1.1//EN" "http://www.w3.org/Graphics/SVG/1.1/DTD/svg11.dtd">
<svg version="1.1" id="Capa_1" xmlns="http://www.w3.org/2000/svg" xmlns:xlink="http://www.w3.org/1999/xlink" x="0px" y="0px"
	 width="6.953px" height="20.006px" viewBox="0 0 6.953 20.006" enable-background="new 0 0 6.953 20.006" xml:space="preserve">
<path d="M0.002,18.394c0.015,0.045,0.015,0.166,0.015,0.166v1.446h6.936v-1.483c0,0-0.111-0.865-0.135-1.117
	s-0.023-0.437-0.068-0.572c-0.047-0.136-0.113-0.229-0.113-0.229s-0.047-0.57-0.113-0.662c-0.068-0.09-0.48-0.271-0.48-0.271
	s0.389-0.549,0.434-0.754c0.048-0.205-0.021-0.73-0.184-0.82c-0.158-0.094-0.316-0.115-0.316-0.299c0-0.182-0.023-0.297-0.137-0.34
	c-0.115-0.049-0.274-0.207-0.344-0.254c-0.067-0.045-0.228-0.271-0.228-0.271V8.939c0,0,0.228-0.342,0.204-0.504
	c-0.021-0.158-0.021-0.41,0-0.479c0.021-0.068,0.32-0.732,0.296-0.846c-0.021-0.113,0.39,0.092,0.39,0.092s0.047-0.32-0.068-0.41
	C5.976,6.7,5.496,6.425,5.699,6.335C5.906,6.243,6.205,6.38,6.205,6.38s0-0.295-0.207-0.363c-0.205-0.07-0.113-0.344-0.343-0.412
	s-0.504,0.092-0.71,0.026C4.74,5.561,4.694,5.379,4.537,5.195C4.375,5.014,4.194,4.854,4.194,4.854S4.748,4.549,4.718,4.29
	c-0.03-0.259-0.364-0.655-0.456-1.019C4.171,2.904,4.23,2.51,4.125,2.344C4.017,2.176,3.882,2.039,3.882,2.039l0.015-0.305
	c0,0,0.411,0.23,0.548,0.287C4.582,2.083,4.703,2.404,4.75,2.373c0.045-0.029,0.016-0.381-0.078-0.457
	C4.582,1.84,4.262,1.674,4.125,1.551C3.987,1.43,3.911,1.217,3.911,1.111c0-0.107-0.029-0.289-0.121-0.352
	c-0.093-0.06-0.145-0.073-0.213-0.134C3.509,0.562,3.668,0.389,3.668,0.268C3.668,0.145,3.592,0,3.408,0
	c-0.18,0-0.166,0.289-0.18,0.365C3.211,0.441,3.257,0.549,3.091,0.471C2.923,0.395,2.678,0.699,2.543,0.578
	c-0.137-0.121-0.351-0.09-0.442-0.047C2.01,0.578,1.933,0.746,1.933,0.746S2.04,1.082,2.146,1.172c0.105,0.09,0.26,0.107,0.26,0.107
	s0.197-0.26,0.38-0.215c0.181,0.047,0.228,0.381,0.153,0.457c-0.077,0.076-0.062,0.229,0,0.334c0.059,0.107-0.017,0.488-0.031,0.672
	c-0.017,0.18-0.334,0.531-0.274,0.682c0.06,0.152,0.212,0.336,0.258,0.441C2.94,3.757,2.909,4.214,2.831,4.336
	C2.757,4.457,2.543,4.672,2.437,4.672c-0.107,0-0.259-0.336-0.214-0.412C2.269,4.184,1.98,4.426,1.98,4.549S1.903,4.838,1.903,4.838
	S1.827,4.854,1.735,5.006c-0.092,0.15-0.061,0.363,0,0.516c0.062,0.152-0.015,0.35-0.106,0.473c-0.091,0.121-0.213,0-0.334,0.166
	c-0.12,0.168-0.258,0.41-0.38,0.457C0.793,6.662,0.808,7.045,0.869,7.195C0.93,7.348,1.127,7.727,1.081,7.834
	C1.037,7.941,1.127,8.123,1.175,8.17c0.044,0.045,0.12,0.242,0.135,0.316c0.017,0.08,0.183,0.352,0.183,0.352v3.593
	c0,0-0.395,0.502-0.38,0.637c0.015,0.137,0.031,0.562-0.122,0.625c-0.151,0.061-0.532,0.518-0.577,0.715
	c-0.046,0.199,0.017,0.365,0,0.547c-0.015,0.184-0.062,0.367,0.017,0.473c0.074,0.107,0.288,0.35,0.226,0.365
	c-0.06,0.016-0.257,0.076-0.273,0.15c-0.015,0.078-0.214,0.854-0.197,0.975c0.015,0.123-0.106,0.381-0.106,0.502
	c0,0.123-0.03,0.244-0.016,0.412C0.078,17.998-0.013,18.347,0.002,18.394z"/>
</svg>
