<?xml version="1.0" encoding="utf-8"?>
<!-- Generator: Adobe Illustrator 16.0.4, SVG Export Plug-In . SVG Version: 6.00 Build 0)  -->
<!DOCTYPE svg PUBLIC "-//W3C//DTD SVG 1.1//EN" "http://www.w3.org/Graphics/SVG/1.1/DTD/svg11.dtd">
<svg version="1.1" id="Capa_1" xmlns="http://www.w3.org/2000/svg" xmlns:xlink="http://www.w3.org/1999/xlink" x="0px" y="0px"
	 width="5.02px" height="20.006px" viewBox="0 0 5.02 20.006" enable-background="new 0 0 5.02 20.006" xml:space="preserve">
<path d="M3.058,2.678H1.937v1.205h1.121V2.678z M5.02,20.006c0,0-0.962-13.666-0.974-13.812c0.048-0.062,0.103-0.119,0.132-0.129
	l0.04-0.014c0.134-0.035,0.413-0.109,0.413-0.434V4.941c0,0-0.484,0-0.688,0V4.479c0.074,0,0.363,0,0.363,0V3.873
	c0,0-0.289,0-0.363,0c0-0.332,0-1.895,0-1.895H3.763c-0.078-0.58-0.553-1.037-1.152-1.1V0.561c0.096-0.049,0.161-0.146,0.161-0.26
	C2.771,0.137,2.636,0,2.472,0c-0.166,0-0.3,0.137-0.3,0.301c0,0.113,0.064,0.211,0.159,0.26v0.318
	c-0.599,0.062-1.072,0.52-1.151,1.1H1.074c0,0,0,1.562,0,1.895c-0.075,0-0.363,0-0.363,0v0.605c0,0,0.288,0,0.363,0v0.463
	c-0.203,0-0.688,0-0.688,0v0.676c0,0.324,0.278,0.398,0.413,0.434l0.044,0.014c0.025,0.01,0.081,0.066,0.126,0.129
	C0.961,6.34,0,20.006,0,20.006H5.02z M1.116,4.072h0.38v-1.67h2.025v1.67h0.445V4.23H3.522v0.867H1.496V4.23h-0.38V4.072z
	 M0.961,5.656L0.91,5.643C0.877,5.635,0.835,5.621,0.812,5.611V5.365h0.352c0.175,0,0.334,0,0.334,0h2.025c0,0,0.178,0,0.363,0
	h0.321v0.246C4.184,5.621,4.14,5.635,4.11,5.643L4.058,5.656C3.861,5.713,3.71,5.932,3.659,6.012H1.359
	C1.308,5.932,1.156,5.713,0.961,5.656z M1.389,6.281H3.63c0.113,1.615,0.909,12.895,0.938,13.303H0.451
	C0.479,19.176,1.273,7.896,1.389,6.281z M2.831,10.033H2.187v0.846h0.646L2.831,10.033L2.831,10.033z M2.831,17.192H2.187v0.847
	h0.646L2.831,17.192L2.831,17.192z"/>
</svg>
