<?xml version="1.0" encoding="utf-8"?>
<!-- Generator: Adobe Illustrator 16.0.4, SVG Export Plug-In . SVG Version: 6.00 Build 0)  -->
<!DOCTYPE svg PUBLIC "-//W3C//DTD SVG 1.1//EN" "http://www.w3.org/Graphics/SVG/1.1/DTD/svg11.dtd">
<svg version="1.1" id="Capa_1" xmlns="http://www.w3.org/2000/svg" xmlns:xlink="http://www.w3.org/1999/xlink" x="0px" y="0px"
	 width="20.004px" height="12.594px" viewBox="0 0 20.004 12.594" enable-background="new 0 0 20.004 12.594" xml:space="preserve">
<path d="M18.545,11.156c0.004-0.115,0.007-0.229,0.016-0.32c0.024-0.248,0-0.617-0.1-0.893c-0.1-0.271-0.1-0.469-0.271-0.664
	c-0.174-0.199,0-0.547,0.024-0.867c0.024-0.322-0.048-0.568,0-0.816c0.05-0.248,0.173-0.543,0.347-0.938
	c0.172-0.396,0-1.512-0.123-1.906c-0.125-0.395,0.023-0.494,0.098-0.594c0.076-0.098,0.173-0.691,0.173-0.84
	s0.174-0.842,0.321-1.062c0.148-0.223,0.05-0.521-0.049-0.742c-0.098-0.223-0.049-1.113-0.123-1.336
	c-0.074-0.223-0.42-0.223-0.644-0.074c-0.222,0.148-1.138,0.941-1.409,1.188c-0.272,0.246-1.83,1.781-2.078,1.902
	c-0.248,0.125-0.123,0.52-0.05,0.768c0.062,0.203,0.476,5.386,0.62,7.195h-4.576c-0.068-1.621-0.264-6.074-0.358-6.779
	c-0.119-0.865-0.148-2.15-0.148-2.424c0-0.27,0-0.938-0.205-0.965c-0.205-0.023-0.381-0.17-0.498,0
	c-0.119,0.174-1.88,1.955-1.968,2.176C7.458,3.389,7.458,3.686,7.428,3.982c-0.029,0.297,0.205,6.131,0.176,6.379
	c-0.015,0.121,0,0.471,0.018,0.795H3.837L3.354,5.117c0,0-0.024-0.32-0.131-0.461c-0.106-0.14-0.136-0.115-0.456-0.115
	c-0.32,0-1.469,0.879-1.469,0.879S1.219,5.648,1.212,5.998c-0.002,0.27,0.208,3.67,0.301,5.158H0v1.438h20.004v-1.438H18.545z"/>
</svg>
