<?xml version="1.0" encoding="utf-8"?>
<!-- Generator: Adobe Illustrator 16.0.4, SVG Export Plug-In . SVG Version: 6.00 Build 0)  -->
<!DOCTYPE svg PUBLIC "-//W3C//DTD SVG 1.1//EN" "http://www.w3.org/Graphics/SVG/1.1/DTD/svg11.dtd">
<svg version="1.1" id="Capa_1" xmlns="http://www.w3.org/2000/svg" xmlns:xlink="http://www.w3.org/1999/xlink" x="0px" y="0px"
	 width="20.004px" height="18.09px" viewBox="0 0 20.004 18.09" enable-background="new 0 0 20.004 18.09" xml:space="preserve">
<path d="M19.469,5.008c0,0,0.148-0.186,0.261-0.459c0.112-0.268,0.067-0.586,0.067-0.586s-0.307,0.176-0.475,0.34
	c-0.17,0.164-0.182,0.412-0.182,0.412s-0.146-0.129-0.532-0.342c-0.385-0.209-1.221-0.623-2.512-0.375
	c-1.29,0.248-2.386,1.162-2.567,1.27c-0.182,0.105-0.453,0.07-0.486,0.012c-0.035-0.059,0.023-0.33,0.023-0.33s0.113,0,0.215,0
	s0.146-0.127,0.215-0.234c0.067-0.105-0.011-0.293-0.045-0.4c-0.035-0.105-0.227-0.188-0.385-0.176
	c-0.158,0.012-0.498,0.094-0.589,0.107c-0.091,0.012-0.339-0.271-0.429-0.33c-0.092-0.059-0.204-0.73-0.328-1.07
	c-0.125-0.34-0.678-0.801-0.678-0.801s0.09-0.234,0.043-0.246c-0.043-0.012-0.112-0.094-0.078-0.176
	c0.033-0.082,0.214-0.283,0.226-0.412c0.013-0.131,0.046-0.354,0.067-0.436c0.023-0.082,0.012-0.295-0.055-0.34
	c-0.068-0.049-0.103-0.297-0.182-0.389c-0.08-0.096-0.271-0.025-0.396,0.023c-0.125,0.045-0.284,0.246-0.361,0.365
	c-0.08,0.115-0.113,0.363-0.113,0.492c0,0.131,0.011,0.258,0.067,0.307c0.057,0.047,0.068,0.199,0.068,0.199
	s-0.068,0.199-0.113,0.234C10.17,1.706,9.877,1.282,9.627,1.282c-0.248,0-0.372,0.447-0.372,0.447s-0.215,0.176-0.317,0.2
	c-0.103,0.023-0.499,0.07-0.589,0c-0.09-0.07-0.157-0.141-0.214-0.236C8.078,1.601,7.941,1.551,7.806,1.551
	c-0.136,0-0.237,0.107-0.283,0.166c-0.045,0.056-0.78,0.492-0.871,0.597C6.562,2.422,6.709,2.62,6.687,2.775
	C6.664,2.929,6.823,3.609,6.833,3.799c0.011,0.186-0.091,0.258-0.248,0.305C6.426,4.15,6.098,4.292,6.098,4.292s0.113-0.01,0.261,0
	C6.505,4.304,6.698,4.2,6.743,4.258C6.789,4.314,6.55,4.54,6.459,4.633C6.371,4.728,6.618,4.976,6.743,4.986
	c0.124,0.01,0.226,0.211,0.339,0.129s0.192-0.742,0.25-0.93c0.056-0.188,0.497-0.869,0.543-0.941
	c0.044-0.07,0.056-0.492,0.135-0.551c0.08-0.06,0.08-0.224,0.08-0.224s0.485,0.178,0.7,0.211c0.214,0.035,0.668-0.07,0.668-0.07
	c0,0.494,0.475,1.084,0.543,1.389c0.067,0.305-0.159,0.611-0.385,0.824C9.39,5.034,9.073,5.668,8.825,5.9
	c-0.25,0.236-0.747,0.355-1.449,0.4c-0.701,0.05-1.515,0.755-1.515,0.755S5.272,6.892,4.639,6.915
	C4.006,6.938,3.168,7.76,2.966,8.185c-0.205,0.422-0.498,2.917-0.68,3.152c-0.181,0.234-0.452,1.013-0.655,1.812
	c-0.204,0.8-1.493,3.388-1.493,3.388s0.361-0.236,0.586-0.496c0.226-0.258,2.151-2.893,2.875-4.279
	c0.723-1.389,0.927-2.754,1.04-3.246c0.113-0.494,0.543-0.637,0.543-0.637S5.023,8.583,5.114,9.195
	c0.091,0.612,0.656,1.387,0.633,2.118c-0.022,0.729-0.633,1.529-0.905,1.764c-0.265,0.23-1.094,3.25-1.129,3.381L0,16.745v1.346
	h19.232v-1.346l-4.026-1.176l-2.209,0.172c-0.015-0.023-0.025-0.047-0.031-0.064c-0.035-0.106-0.125-0.295-0.204-0.379
	c-0.079-0.082-0.249-0.573-0.249-0.819c0-0.248,0.249-1.164,0.306-1.317c0.056-0.152,0.315-0.636,0.361-0.998
	c0.045-0.365,0.487-1.447,0.487-1.447s0.791,0.188,1.254,0.27s1.674,0.365,1.867,0.459c0.191,0.096,0.53,0.377,0.678,0.811
	c0.146,0.437,0.565,1.521,0.498,1.636c-0.068,0.116,0.08,0.354-0.022,0.448c-0.103,0.093-0.237,0.375-0.25,0.504
	c-0.011,0.13,0.315,0.447,0.465,0.492c0.146,0.049,0.259-0.149,0.372-0.373c0.113-0.225,0.137-0.602,0.102-0.836
	c-0.033-0.235-0.135-0.692-0.125-0.846c0.013-0.154-0.678-1.566-0.734-1.789c-0.057-0.225-0.35-0.598-0.667-0.717
	c-0.315-0.117-1.743-1.068-1.743-1.068s0.227-0.25,0.329-0.533c0.103-0.281,0.146-0.928,0.079-1.197
	c-0.066-0.271-0.023-0.6,0.339-1.07C16.47,6.435,17.239,6,17.239,6c-0.091,0.271,0.079,0.436,0.09,0.635
	c0.012,0.201,0,0.342-0.102,0.436c-0.102,0.094-0.124,0.354-0.157,0.471c-0.034,0.117,0.113,0.447,0.202,0.482
	c0.091,0.035,0.137,0.199,0.204,0.248c0.067,0.045,0.418,0.045,0.578-0.014c0.157-0.059,0.327-0.576,0.419-0.67
	c0.09-0.094,0.339-0.318,0.508-0.459c0.145-0.121,0.324-0.369,0.35-0.41c-0.029,0.051,0.137,0.271,0.137,0.271
	s-0.01-0.152,0.047-0.281c0.056-0.131,0.35-0.164,0.474-0.67C20.114,5.527,19.469,5.008,19.469,5.008z M6.978,2.603
	C6.886,2.609,6.765,2.719,6.765,2.719s-0.09-0.305-0.06-0.336c0.031-0.031,0.181-0.078,0.181-0.078S6.78,2.375,6.878,2.422
	c0.099,0.047,0.43,0.086,0.43,0.086S7.066,2.594,6.978,2.603z M9.39,1.638c-0.015,0.02,0.098-0.271,0.204-0.271
	c0.106,0,0.226,0.138,0.226,0.138S9.556,1.45,9.39,1.638z M4.299,7.336C3.926,7.549,3.564,7.959,3.394,8.125
	C3.225,8.292,2.953,8.842,2.953,8.842s0.046-0.6,0.352-0.904c0.305-0.307,0.871-0.812,1.21-0.857c0.339-0.049,0.928,0.08,0.928,0.08
	S4.673,7.125,4.299,7.336z M10.89,0.905C10.905,0.85,11,0.672,11.031,0.756c0,0,0.046,0.205,0.021,0.197
	c-0.024-0.006-0.104,0.045-0.12,0.041C10.913,0.993,10.875,0.961,10.89,0.905z M10.438,1.405l0.212,0.131l-0.083,0.307l-0.271-0.133
	L10.438,1.405z M8.9,5.98C8.967,5.89,9.246,5.588,9.337,5.441c0.091-0.15,0.212-0.434,0.454-0.66
	c0.241-0.229,0.339-0.605,0.339-0.605c0.023,0.182-0.075,0.637-0.083,0.66c-0.007,0.023,0.257-0.234,0.257-0.234
	s-0.045,0.299-0.166,0.531c-0.121,0.236-0.49,0.684-0.49,0.684l0.128-0.314c0,0-0.317,0.299-0.505,0.455
	C9.082,6.116,8.65,6.646,8.65,6.646S8.832,6.075,8.9,5.98z M12.263,11.571c-0.022,0.166-0.044,1.012-0.011,1.271
	c0.033,0.256-0.306,1.586-0.351,1.717c-0.046,0.129-0.046,0.199-0.011,0.422c0.033,0.225,0.26,0.424,0.271,0.611
	c0.004,0.066,0.014,0.141,0.026,0.211l-7.627,0.59H4.559c-0.033-0.107,0-0.445,0.091-0.824c0.09-0.375,0.521-1.516,0.759-1.729
	c0.237-0.211,0.553-0.799,0.553-0.799s0.169,0.069,0.282,0.188c0.115,0.119,0.612,0.389,0.86,0.553
	c0.249,0.164,0.905,0.613,0.939,0.719c0.035,0.105,0.035,0.224,0,0.375C8.01,15.03,8.01,15.288,8.01,15.44s0.509,0.447,0.656,0.471
	c0.148,0.023,0.182-0.271,0.215-0.471c0.034-0.199-0.067-0.682-0.157-0.799c-0.091-0.117-0.182-0.424-0.328-0.613
	c-0.148-0.188-1.109-0.893-1.233-0.963c-0.125-0.07-0.146-0.471-0.146-0.658c0-0.189,0.373-0.602,0.689-1.211
	c0.317-0.613,0.509-1.225,0.509-1.225s0.145-0.034,0.36,0.023c0.215,0.06,0.883,0.283,1.551,0.447
	c0.667,0.166,1.945,0.047,1.992,0.07C12.161,10.536,12.286,11.407,12.263,11.571z M13.311,4.304
	c0.084,0.119,0.115,0.273,0.105,0.314c-0.006,0.037-0.149-0.158-0.232-0.205c-0.084-0.045-0.288-0.164-0.288-0.164
	S13.229,4.187,13.311,4.304z M17.603,4.312c-0.22-0.031-0.505-0.064-0.505-0.064l0.475,0.242c0,0-1.031-0.318-1.68-0.092
	c-0.646,0.229-1.948,0.734-1.948,0.734c0.022-0.014,1.583-1.049,2.655-1.078c1.07-0.033,2.158,0.531,2.158,0.531
	S17.821,4.342,17.603,4.312z"/>
</svg>
