<?xml version="1.0" encoding="utf-8"?>
<!-- Generator: Adobe Illustrator 16.0.4, SVG Export Plug-In . SVG Version: 6.00 Build 0)  -->
<!DOCTYPE svg PUBLIC "-//W3C//DTD SVG 1.1//EN" "http://www.w3.org/Graphics/SVG/1.1/DTD/svg11.dtd">
<svg version="1.1" id="Capa_1" xmlns="http://www.w3.org/2000/svg" xmlns:xlink="http://www.w3.org/1999/xlink" x="0px" y="0px"
	 width="18.578px" height="14.053px" viewBox="0 0 18.578 14.053" enable-background="new 0 0 18.578 14.053" xml:space="preserve">
<path d="M18.405,5.095V1.506c0,0-2.354-0.717-2.815-0.747c-0.457-0.029-1.146-0.173-1.318-0.201
	c-0.066-0.011-0.177-0.035-0.296-0.057c-0.21,0.125-0.435,0.252-0.509,0.315c-0.172,0.144-0.4,1.292-0.832,2.384
	c-0.34,0.859-0.447,1.434-0.491,1.779h6.089v0.403H0.316V4.98h11.536c0.093-0.362,0.287-1.105,0.351-1.32
	c0.086-0.288,0.661-1.437,0.774-1.924c0.084-0.359,0.168-0.961,0.206-1.258c-0.087-0.021-0.166-0.053-0.206-0.092
	c-0.086-0.086-1.465-0.345-1.75-0.374c-0.289-0.028-2.786,0-3.016,0c-0.229,0-1.664,0.029-1.953,0.087
	C5.974,0.157,5.17,0.272,5.082,0.272c-0.086,0-0.745,0.057-0.976,0.086C3.879,0.387,1.351,0.587,1.351,0.587
	S0.576,0.674,0.375,0.731C0.174,0.789,0,0.846,0,0.846v6.717c0,0,0.835,0.403,0.806,0.604c-0.029,0.202,0.057,0.46-0.088,0.632
	C0.576,8.97,0.375,9.114,0.346,9.201c-0.029,0.086,0,4.852,0,4.852h7.378v-8.47h3.646v8.125l0.059,0.288l7.148-0.028v-8.73
	L18.405,5.095z M3.445,9.603h-1.75v-0.89h1.75V9.603z M11.917,13.851h-0.203V5.928h0.203V13.851z M17.229,9.517h-1.64V8.685h1.64
	V9.517z"/>
</svg>
