<?xml version="1.0" encoding="utf-8"?>
<!-- Generator: Adobe Illustrator 16.0.4, SVG Export Plug-In . SVG Version: 6.00 Build 0)  -->
<!DOCTYPE svg PUBLIC "-//W3C//DTD SVG 1.1//EN" "http://www.w3.org/Graphics/SVG/1.1/DTD/svg11.dtd">
<svg version="1.1" id="Capa_1" xmlns="http://www.w3.org/2000/svg" xmlns:xlink="http://www.w3.org/1999/xlink" x="0px" y="0px"
	 width="20.004px" height="14.053px" viewBox="0 0 20.004 14.053" enable-background="new 0 0 20.004 14.053" xml:space="preserve">
<path d="M15.713,7.217V2.9h0.314v-0.41h-0.314V1.39h0.314V0.98h-0.314V0H4.402v0.98H4.088v0.408h0.314v1.102H4.088V2.9h0.314v4.316
	H0V9.8h0.325v4.252h19.466v-4.25h0.213V7.217H15.713z M16.521,7.722v1.732h-1.446V7.722H16.521z M4.738,1.062h10.528v0.264H4.738
	V1.062z M4.738,2.538h10.528v0.266H4.738V2.538z M3.481,7.722h1.447v1.732H3.481V7.722z M5.095,13.61H3.584v-3.086h1.511V13.61z
	 M7.956,13.61H6.442v-3.086h1.514V13.61z M10.812,13.61h-1.51v-3.086h1.511L10.812,13.61L10.812,13.61z M9.064,9.454V7.722h1.448
	v1.732H9.064z M11.129,6.838H8.987v-3.34h2.143V6.838z M13.672,13.61h-1.514v-3.086h1.514V13.61z M16.532,13.61H15.02v-3.086h1.514
	v3.086H16.532z"/>
</svg>
