<?xml version="1.0" encoding="utf-8"?>
<!-- Generator: Adobe Illustrator 16.0.4, SVG Export Plug-In . SVG Version: 6.00 Build 0)  -->
<!DOCTYPE svg PUBLIC "-//W3C//DTD SVG 1.1//EN" "http://www.w3.org/Graphics/SVG/1.1/DTD/svg11.dtd">
<svg version="1.1" id="Capa_1" xmlns="http://www.w3.org/2000/svg" xmlns:xlink="http://www.w3.org/1999/xlink" x="0px" y="0px"
	 width="20.006px" height="19.078px" viewBox="0 0 20.006 19.078" enable-background="new 0 0 20.006 19.078" xml:space="preserve">
<path d="M19.625,15.559v-0.342h-0.644v-0.381c0,0,0.104-0.031,0.104-0.131c0-0.102-0.124-0.139-0.124-0.139v-0.414l-0.073-0.059
	c0,0,0.137-0.129,0.067-0.32c-0.042-0.121-0.245-0.193-0.263-0.289c-0.016-0.094-0.016-0.537-0.016-0.537l-0.044-0.043V12.9
	l-0.002,0.002L18.63,12.9v0.004l-0.042,0.043c0,0,0,0.443-0.019,0.537c-0.018,0.096-0.221,0.168-0.264,0.289
	c-0.068,0.191,0.067,0.32,0.067,0.32l-0.071,0.059v0.414c0,0-0.126,0.037-0.126,0.139c0,0.1,0.104,0.131,0.104,0.131v0.381h-0.696
	v-0.436l-0.373-0.373v-0.367c0,0,0.104-0.031,0.104-0.131c0-0.102-0.127-0.137-0.127-0.137v-0.414l-0.072-0.061
	c0,0,0.137-0.127,0.068-0.32c-0.041-0.121-0.246-0.193-0.263-0.289c-0.019-0.092-0.019-0.539-0.019-0.539l-0.043-0.041v-0.004
	l-0.002,0.002l-0.002-0.002v0.004l-0.043,0.041c0,0,0,0.447-0.017,0.539c-0.017,0.096-0.22,0.168-0.262,0.289
	c-0.069,0.193,0.065,0.32,0.065,0.32l-0.07,0.061v0.414c0,0-0.127,0.035-0.127,0.137c0,0.1,0.105,0.131,0.105,0.131v0.324h-0.156
	v-0.65l-0.354-0.354v-0.367c0,0,0.104-0.031,0.104-0.131s-0.125-0.139-0.125-0.139v-0.412l-0.072-0.059c0,0,0.135-0.131,0.066-0.322
	c-0.041-0.121-0.246-0.195-0.263-0.289c-0.017-0.096-0.017-0.539-0.017-0.539l-0.043-0.041v-0.006l-0.002,0.002l-0.002-0.002v0.006
	l-0.043,0.041c0,0,0,0.443-0.018,0.539c-0.018,0.094-0.221,0.168-0.264,0.289c-0.066,0.191,0.068,0.322,0.068,0.322l-0.074,0.059
	v0.412c0,0-0.123,0.039-0.123,0.139s0.104,0.131,0.104,0.131v0.334h-0.48v-4.11l-0.447-0.375V8.641c0,0,0.09-0.025,0.09-0.111
	c0-0.084-0.105-0.113-0.105-0.113V8.067L14.297,8.02c0,0,0.113-0.109,0.058-0.273c-0.037-0.1-0.209-0.162-0.222-0.24
	c-0.015-0.078-0.015-0.453-0.015-0.453l-0.037-0.037V7.012l-0.002,0.002V7.012v0.004l-0.036,0.037c0,0,0,0.375-0.015,0.453
	c-0.014,0.078-0.186,0.141-0.221,0.24C13.751,7.91,13.864,8.02,13.864,8.02l-0.061,0.049v0.008l-0.496-0.43v-0.16
	c0,0,0.088-0.027,0.088-0.113c0-0.084-0.105-0.115-0.105-0.115V6.912l-0.061-0.049c0,0,0.115-0.109,0.057-0.273
	c-0.032-0.1-0.206-0.162-0.219-0.24C13.05,6.27,13.05,5.896,13.05,5.896l-0.033-0.037V5.854l-0.002,0.004l-0.002-0.004v0.004
	l-0.037,0.037c0,0,0,0.373-0.016,0.453c-0.014,0.078-0.184,0.141-0.219,0.24c-0.023,0.07-0.02,0.127-0.004,0.172L12.437,6.49
	c-0.014-0.07-0.102-0.098-0.102-0.098V6.044l-0.062-0.049c0,0,0.115-0.109,0.06-0.271c-0.036-0.104-0.208-0.162-0.222-0.244
	c-0.016-0.078-0.016-0.453-0.016-0.453L12.06,4.995V4.99l-0.002,0.002L12.056,4.99v0.004l-0.037,0.033c0,0,0,0.375-0.015,0.453
	c-0.013,0.082-0.185,0.141-0.219,0.244c-0.04,0.115,0.002,0.201,0.032,0.244H11.55V5.262l-0.324-0.451h-0.145V4.125
	c0,0-0.071-0.523-0.488-0.793V3.022l-0.197-0.199L10.161,1.38V0.458L10.019,0H9.985L9.843,0.458V1.38L9.607,2.824L9.41,3.022v0.309
	c-0.416,0.27-0.489,0.793-0.489,0.793v0.686H8.776L8.453,5.262v0.707H8.187C8.216,5.925,8.26,5.839,8.219,5.725
	C8.185,5.621,8.013,5.562,7.998,5.479C7.985,5.401,7.985,5.026,7.985,5.026L7.949,4.994V4.99L7.947,4.992V4.99v0.004L7.908,5.026
	c0,0,0,0.375-0.013,0.453C7.881,5.562,7.709,5.621,7.673,5.725C7.616,5.887,7.731,5.996,7.731,5.996l-0.06,0.049v0.348
	c0,0-0.089,0.027-0.104,0.098L7.266,6.762C7.28,6.716,7.287,6.66,7.262,6.589c-0.034-0.1-0.206-0.162-0.221-0.24
	C7.028,6.27,7.028,5.896,7.028,5.896L6.991,5.858V5.854L6.989,5.858L6.988,5.854v0.004L6.953,5.896c0,0,0,0.373-0.015,0.453
	C6.924,6.427,6.752,6.49,6.716,6.589C6.659,6.753,6.774,6.862,6.774,6.862l-0.06,0.049v0.346c0,0-0.106,0.031-0.106,0.115
	c0,0.086,0.088,0.113,0.088,0.113v0.16L6.2,8.076V8.067L6.141,8.02c0,0,0.113-0.109,0.057-0.273c-0.035-0.1-0.207-0.162-0.222-0.24
	C5.961,7.429,5.961,7.052,5.961,7.052L5.927,7.016V7.012L5.923,7.014V7.012v0.004L5.887,7.052c0,0,0,0.375-0.015,0.453
	c-0.013,0.078-0.185,0.141-0.22,0.24C5.594,7.91,5.707,8.02,5.707,8.02l-0.06,0.049v0.348c0,0-0.106,0.029-0.106,0.113
	c0,0.086,0.09,0.111,0.09,0.111v0.203L5.183,9.218v4.11h-0.48v-0.334c0,0,0.104-0.031,0.104-0.131s-0.124-0.139-0.124-0.139v-0.412
	L4.61,12.254c0,0,0.137-0.131,0.067-0.322c-0.04-0.121-0.246-0.195-0.263-0.289c-0.017-0.096-0.017-0.539-0.017-0.539l-0.042-0.041
	v-0.006l-0.004,0.002v-0.002v0.006l-0.044,0.041c0,0,0,0.443-0.016,0.539c-0.017,0.094-0.222,0.168-0.264,0.289
	c-0.067,0.191,0.067,0.322,0.067,0.322l-0.071,0.059v0.412c0,0-0.128,0.039-0.128,0.139s0.106,0.131,0.106,0.131v0.367l-0.356,0.354
	v0.65H3.493v-0.324c0,0,0.104-0.031,0.104-0.131c0-0.102-0.126-0.137-0.126-0.137v-0.414L3.4,13.301c0,0,0.135-0.127,0.067-0.322
	c-0.042-0.121-0.247-0.193-0.263-0.289c-0.017-0.092-0.017-0.539-0.017-0.539l-0.042-0.041v-0.004l-0.004,0.002l-0.002-0.002v0.004
	l-0.04,0.041c0,0,0,0.447-0.019,0.539c-0.015,0.096-0.219,0.168-0.261,0.289c-0.069,0.193,0.067,0.32,0.067,0.32l-0.073,0.061v0.414
	c0,0-0.126,0.035-0.126,0.137c0,0.1,0.104,0.131,0.104,0.131v0.367l-0.373,0.373v0.436H1.723v-0.381c0,0,0.104-0.031,0.104-0.131
	c0-0.102-0.126-0.139-0.126-0.139v-0.414l-0.073-0.059c0,0,0.138-0.129,0.069-0.32c-0.042-0.121-0.246-0.193-0.263-0.289
	c-0.017-0.094-0.017-0.537-0.017-0.537l-0.044-0.043V12.9v0.002L1.37,12.9v0.004l-0.042,0.043c0,0,0,0.443-0.018,0.537
	c-0.017,0.096-0.22,0.168-0.262,0.289c-0.069,0.191,0.067,0.32,0.067,0.32l-0.072,0.059v0.414c0,0-0.126,0.037-0.126,0.139
	c0,0.1,0.105,0.131,0.105,0.131v0.381H0.381v0.342L0,16.1v2.979h20.006V16.1L19.625,15.559z M10.543,13.336H9.459v-1.877
	c0,0,0.019-0.67,0.562-0.67c0.505,0,0.522,0.67,0.522,0.67V13.336z"/>
</svg>
