<?xml version="1.0" encoding="utf-8"?>
<!-- Generator: Adobe Illustrator 16.0.4, SVG Export Plug-In . SVG Version: 6.00 Build 0)  -->
<!DOCTYPE svg PUBLIC "-//W3C//DTD SVG 1.1//EN" "http://www.w3.org/Graphics/SVG/1.1/DTD/svg11.dtd">
<svg version="1.1" id="Capa_1" xmlns="http://www.w3.org/2000/svg" xmlns:xlink="http://www.w3.org/1999/xlink" x="0px" y="0px"
	 width="20.004px" height="17.035px" viewBox="0 0 20.004 17.035" enable-background="new 0 0 20.004 17.035" xml:space="preserve">
<path d="M19.982,9.977c-0.03-0.444-0.317-0.639-0.527-0.781c-0.186-0.125-0.33-0.221-0.393-0.483
	c-0.164-0.707-1.053-0.979-1.836-1.22c-0.268-0.083-0.521-0.16-0.729-0.248c-0.413-0.173-0.979-0.34-1.578-0.518
	c-0.623-0.183-1.267-0.371-1.724-0.568c-0.407-0.175-0.567-0.464-0.756-0.801c-0.174-0.308-0.369-0.657-0.765-0.914
	c-0.271-0.176-0.961-0.539-1.757-0.96c-1.193-0.63-3.191-1.687-3.435-1.978C6.02,0.944,3.279,0.354,2.446,0.187
	c-0.963-0.309-2.139-0.141-2.19-0.134L0,0.089v16.945h19.98l0.004-0.298c0-0.166,0.02-2.758,0.02-4.695
	C20.004,11.023,19.998,10.188,19.982,9.977z M0.602,16.434v-4.357C1.584,13.251,3.3,14.648,3.3,14.648s-2.738-3.217-1.957-7.083
	C2.125,3.696,4.255,2.48,4.255,2.48s-2.26,3.65-2.174,6.302c0.088,2.651,2.652,5.301,2.652,5.301s-1.869-3.695-1.478-5.779
	c0.391-2.087,2.65-4.737,2.65-4.737s-1.78,3.345-1.78,4.91c0,1.563,0.65,3.042,0.65,3.042S4.56,9,4.951,7.564
	C5.34,6.129,6.69,4.521,6.69,4.521s-2.028,3.109-1.479,6.39c0.362,2.164,1.957,3.606,1.957,3.606S5.56,11.693,5.82,9.562
	c0.262-2.128,2.042-4.041,2.042-4.041S6.365,8.297,6.858,11.27c0.288,1.734,1.916,3.291,1.916,3.291S7.34,12.475,7.56,10.65
	C7.778,8.826,9.167,6.74,9.167,6.74s-1.263,3.042-1.001,4.692c0.263,1.651,1.505,2.873,1.505,2.873s-0.844-2.181-0.714-3.527
	C9.089,9.43,10.564,8.01,10.564,8.01s-0.895,2.455-0.27,4.599c0.354,1.217,2,2.518,2,2.518s-0.802-1.209-1.105-2.383
	c-0.307-1.174,0.894-3.707,0.894-3.707s-0.401,2.232,0.269,3.975c0.432,1.124,1.607,2.1,1.607,2.1s-0.963-1.948-0.939-2.992
	c0.045-1.92,1.119-2.68,1.119-2.68s0.068,3.125,0.547,4.252c0.479,1.132,1.394,1.522,1.394,1.522s-1.045-1.261-1.087-2.649
	c-0.044-1.392,0.736-2.608,0.781-3.045C15.816,9.086,15.6,8.303,15.6,8.303s0.521,0.521,0.434,1.52c-0.086,1-0.694,2.304-0.477,3.26
	c0.217,0.958,1.65,2.174,1.65,2.174s-1.175-1.739-1.043-2.782c0.129-1.043,0.65-2.13,0.65-2.13s-0.217,1.869,0.174,3.042
	c0.392,1.174,1.218,1.871,1.218,1.871s-0.826-1.434-0.826-2.261c0-0.826,0.479-1.911,0.479-1.911s-0.088,1.434,0.26,2.434
	c0.349,1,0.869,1.479,0.869,1.479s-0.607-1.521-0.564-2.217c0.044-0.695,0.393-1.564,0.393-1.564s0.043,1.303,0.259,2.521
	c0.062,0.332,0.183,0.613,0.321,0.855c-0.002,0.661-0.006,1.303-0.01,1.842H0.602V16.434z"/>
</svg>
