<?xml version="1.0" encoding="utf-8"?>
<!-- Generator: Adobe Illustrator 16.0.4, SVG Export Plug-In . SVG Version: 6.00 Build 0)  -->
<!DOCTYPE svg PUBLIC "-//W3C//DTD SVG 1.1//EN" "http://www.w3.org/Graphics/SVG/1.1/DTD/svg11.dtd">
<svg version="1.1" id="Capa_1" xmlns="http://www.w3.org/2000/svg" xmlns:xlink="http://www.w3.org/1999/xlink" x="0px" y="0px"
	 width="13.34px" height="20.006px" viewBox="0 0 13.34 20.006" enable-background="new 0 0 13.34 20.006" xml:space="preserve">
<path d="M10.674,14.579v-0.227l-0.407-0.211v-2.289l0.151-0.303l-1.401-0.482V10.48H8.76V7.874l0.15-0.332L7.977,7.077v-1.81
	l0.166-0.271l-0.15-0.119V4.62L7.645,3.668H7.45L7.013,1.62l0.136-0.074V1.303L6.861,1.138H6.725v-0.08
	c0.067-0.035,0.113-0.104,0.113-0.186c0-0.096-0.064-0.174-0.151-0.199V0H6.603v0.664c-0.106,0.01-0.187,0.1-0.187,0.207
	c0,0.084,0.048,0.154,0.118,0.189v0.076H6.397L6.111,1.303v0.242L6.246,1.62L5.81,3.668H5.614L5.267,4.62v0.256l-0.15,0.119
	l0.166,0.271v1.811L4.348,7.542L4.5,7.874v2.607H4.243v0.587L2.842,11.55l0.15,0.303v2.289l-0.407,0.211v0.227H0v0.439h0.161v4.986
	h5.023v-2.293c0,0,0.201-1.406,1.487-1.406c1.287,0,1.488,1.406,1.488,1.406v2.293h5.022v-4.984h0.159v-0.441H10.674L10.674,14.579z
	 M7.139,13.302H6.203v-0.998c0,0,0.083-0.352,0.468-0.352c0.385,0,0.468,0.352,0.468,0.352V13.302z M6.671,9.517
	c-0.458,0-0.829-0.371-0.829-0.828c0-0.459,0.371-0.83,0.829-0.83c0.457,0,0.83,0.371,0.83,0.83C7.5,9.146,7.128,9.517,6.671,9.517z
	 M6.671,8.478c-0.116,0-0.211,0.096-0.211,0.211c0,0.117,0.095,0.211,0.211,0.211c0.117,0,0.21-0.094,0.21-0.211
	C6.881,8.573,6.788,8.478,6.671,8.478z"/>
</svg>
