<?xml version="1.0" encoding="utf-8"?>
<!-- Generator: Adobe Illustrator 16.0.4, SVG Export Plug-In . SVG Version: 6.00 Build 0)  -->
<!DOCTYPE svg PUBLIC "-//W3C//DTD SVG 1.1//EN" "http://www.w3.org/Graphics/SVG/1.1/DTD/svg11.dtd">
<svg version="1.1" id="Capa_1" xmlns="http://www.w3.org/2000/svg" xmlns:xlink="http://www.w3.org/1999/xlink" x="0px" y="0px"
	 width="16.133px" height="20.004px" viewBox="0 0 16.133 20.004" enable-background="new 0 0 16.133 20.004" xml:space="preserve">
<path d="M16.036,3.734c0.074-0.186-0.149-0.635-0.336-0.747c-0.187-0.112-0.486-0.448-0.561-0.597s-0.41-0.597-0.598-0.635
	c-0.186-0.037-0.67-0.411-0.709-0.672c-0.037-0.261-0.56-0.261-0.97-0.522C12.454,0.3,12.34,0.187,11.967,0.039
	c-0.373-0.149-0.82,0.187-1.045,0.075C10.7,0.001,9.915,0.487,9.803,0.6C9.691,0.711,9.654,0.786,9.317,1.009
	C8.98,1.233,8.87,1.345,8.533,1.42C8.198,1.495,8.236,1.83,7.899,2.091c-0.334,0.262-0.522,0.747-0.67,1.008
	C7.079,3.36,7.079,3.473,6.93,3.957c-0.107,0.35-0.003,0.448,0.106,0.614c-0.261,0.084-0.853,0.47-0.853,0.47
	S5.922,5.002,5.512,5.002c-0.412,0-1.232,0.71-1.232,0.71S3.794,5.75,3.72,5.898C3.645,6.047,3.943,6.42,4.206,6.532
	c0.261,0.112,0.112,1.381,0.112,1.68S4.28,8.474,4.093,8.81C3.907,9.145,3.832,9.817,3.87,10.116
	c0.038,0.298-1.493,2.164-1.866,2.761c-0.374,0.598-0.747,1.791-0.672,2.5s1.045,2.053,1.083,2.389s-0.559,0.822-0.559,0.822
	l-0.25,0.521H0v0.896h14.467v-0.896h-1.596c-0.107-1.586-0.479-7.245-0.384-7.501c0.113-0.299,1.046-0.82,1.046-0.82
	s0.075-0.374-0.039-0.561c-0.111-0.186-0.521-0.484-0.521-0.484s-0.598,0.261-0.709,0.036c-0.111-0.223,0-2.761,0.037-2.911
	c0.037-0.149,0.336-0.186,0.634-0.186c0.299,0,0.263,0,0.599-0.074c0.336-0.076,0.409-0.113,0.783-0.262
	c0.372-0.149,0.484-0.186,0.746-0.26c0.262-0.076,0.148-0.448,0.299-0.709c0.15-0.261,0.521-0.635,0.709-0.896
	C16.258,4.219,15.959,3.92,16.036,3.734z M2.117,16.43c0.102,0.227-0.205-0.288-0.351-0.555c-0.144-0.267-0.164-0.719-0.102-1.293
	c0.061-0.576,0.636-1.85,0.636-1.85s-0.347,1.417-0.45,1.85C1.747,15.013,2.014,16.204,2.117,16.43z M7.301,3.318
	c0.161-0.081,0.258-0.113,0.274-0.242c0.016-0.128-0.016-0.128,0.113-0.305c0.128-0.176,0.128-0.37,0.257-0.386
	c0.128-0.016-0.081,0.402-0.096,0.579c-0.017,0.178-0.097,0.322-0.21,0.37C7.527,3.382,7.35,3.671,7.301,3.719
	c-0.047,0.049-0.24,0.322-0.24,0.322C7.076,3.977,7.14,3.398,7.301,3.318z M4.591,8.515C4.559,8.643,4.483,8.75,4.367,8.921
	C4.248,9.092,4.023,9.853,4.023,9.853s0.043-0.524,0.075-0.696c0.032-0.172,0.246-0.494,0.31-0.622
	c0.064-0.129,0.055-0.6,0.043-0.826C4.442,7.501,4.468,6.837,4.472,6.747c0-0.006,0-0.01,0-0.01s0,0.003,0,0.01
	C4.474,6.891,4.622,8.391,4.591,8.515z M10.399,10.973c-0.096,1.91-0.572,6.755-0.708,8.136H6.197
	c0.022-0.022,0.043-0.048,0.061-0.075c0.149-0.225-1.045-0.148-1.083-0.26c-0.037-0.113,0.038-0.412,0.299-0.783
	c0.261-0.373,0.448-0.859,0.56-1.345c0.111-0.485-0.486-1.456-0.486-1.456s0.523-0.41,0.822-0.708
	c0.299-0.299,0.671-0.97,0.97-1.681c0.298-0.709,0.932-1.678,1.193-1.752c0.262-0.076,1.045-0.448,1.418-0.671
	c0.229-0.139,0.424-0.626,0.529-0.802C10.467,9.924,10.418,10.606,10.399,10.973z M10.508,7.067
	c-0.023,0.006-0.047,0.014-0.072,0.025c-0.299,0.149-0.334,0.746-0.521,0.933c-0.187,0.187-0.223,0.298-0.56,0.373
	c-0.336,0.076-1.23,0.299-1.306,0.113C7.975,8.324,7.302,7.727,7.302,7.503S6.891,6.682,6.854,6.459
	c-0.036-0.22,0.717-0.871,0.851-1.178C7.766,5.316,7.83,5.358,7.899,5.413C8.272,5.712,8.272,5.525,8.384,5.75
	c0.113,0.223,0.187,0.187,0.561,0.26c0.373,0.076,0.41,0.076,0.599,0.299c0.186,0.223,0.969,0.373,0.969,0.373
	S10.511,6.822,10.508,7.067z"/>
</svg>
