<?xml version="1.0" encoding="utf-8"?>
<!-- Generator: Adobe Illustrator 16.0.4, SVG Export Plug-In . SVG Version: 6.00 Build 0)  -->
<!DOCTYPE svg PUBLIC "-//W3C//DTD SVG 1.1//EN" "http://www.w3.org/Graphics/SVG/1.1/DTD/svg11.dtd">
<svg version="1.1" id="Capa_1" xmlns="http://www.w3.org/2000/svg" xmlns:xlink="http://www.w3.org/1999/xlink" x="0px" y="0px"
	 width="19.502px" height="18.625px" viewBox="0 0 19.502 18.625" enable-background="new 0 0 19.502 18.625" xml:space="preserve">
<path d="M0.659,8.451L0.263,8.495L0.196,8.67L0,8.758l0.859,2.908c0,0,0.153,0.287,0.44,0.176c0.287-0.109,0.242-0.396,0.154-0.684
	C1.365,10.875,0.659,8.451,0.659,8.451z M18.593,3.709l-0.23,0.034c0,0-0.18-0.083-0.379-0.067l0.908,3.271l0.23,0.033l0.182,0.05
	l0.198-0.115L18.593,3.709z M1.938,7.833l1.013,3.436l0.462-0.154L2.355,7.681L1.938,7.833z M17.833,3.661
	c0,0-0.678,0.016-0.744,0.083l0.844,2.957c0,0,0.1,0.363,0.297,0.412c0.199,0.05,0.396,0,0.446-0.115
	c0.05-0.116,0.065-0.166-0.034-0.413C18.544,6.336,17.833,3.661,17.833,3.661z M16.743,4.089l0.197-0.033l-0.082-0.297L16.44,3.805
	C14.981,1.518,12.424,0,9.512,0C5.027,0,1.386,3.592,1.3,8.056L1.276,8.053L1.079,8.208L0.814,8.362l0.947,3.28l0.267-0.035
	c1.292,2.846,4.155,4.824,7.483,4.824c0.693,0,1.367-0.086,2.009-0.25l0.043,0.148l-0.455,0.092l-2.993,2.203h6.386l-1.409-2.6
	l-0.812,0.162l-0.063-0.215c3.207-1.119,5.509-4.168,5.509-7.758c0-1.294-0.301-2.517-0.832-3.605L16.743,4.089z M13.067,2.349
	c0.076-0.151,0.533,0.114,0.76,0.19c0.229,0.077,0.57,0.115,0.798,0.305c0.169,0.14,0.315,0.218,0.563,0.326
	c0.188,0.211,0.365,0.434,0.529,0.665c-0.156,0.04-0.779,0.249-0.562,0.899c0.25,0.744,1.092,1.637,1.109,1.933
	c0.01,0.196-0.058,0.454-0.105,0.609c-0.235-0.804-0.578-1.599-1.031-2.357c-0.195-0.329-0.408-0.642-0.633-0.939
	c0.054-0.047,0.102-0.107,0.13-0.184c0.115-0.305,0-0.419,0-0.419s-0.681-0.278-0.979-0.389c-0.19-0.193-0.385-0.377-0.586-0.551
	C13.054,2.403,13.054,2.373,13.067,2.349z M10.67,1.931c0.267-0.114,0.457,0.229,0.608,0.417c0.152,0.19,0.076,0.419-0.038,0.608
	c-0.079,0.134-0.162,0.193-0.308,0.229c-0.39-0.396-0.791-0.75-1.192-1.058C10.128,2.178,10.417,2.039,10.67,1.931z M8.693,2.043
	c0.155-0.038,0.301-0.037,0.461-0.017c0.481,0.323,0.97,0.728,1.453,1.204c-0.297,0.014-0.695-0.054-1-0.122
	c-0.24-0.053-0.758-0.088-1.192-0.169L8.171,2.102C8.492,1.982,8.402,2.118,8.693,2.043z M7.917,0.787
	c-0.016,0.063-0.046,0.12-0.08,0.176L7.794,0.814C7.835,0.805,7.875,0.794,7.917,0.787z M8.884,7.711
	c0.071,0.016,0.132,0.041,0.186,0.07l0.343,1.178C9.293,9.117,9.03,9.192,9.03,9.192l0.131,0.282c0,0,0.178-0.006,0.359-0.15
	l0.427,1.466C9.537,10.178,9.108,9.5,8.669,8.765c-0.333-0.56-0.65-1.118-0.944-1.662C8.287,7.122,8.414,7.604,8.884,7.711z
	 M7.464,2.282l0.071,0.239C7.469,2.445,7.404,2.374,7.339,2.305C7.38,2.296,7.422,2.289,7.464,2.282z M6.738,1.144
	c0.13-0.001,0.263,0.007,0.403,0.026l0.123,0.426C7.151,1.678,7.022,1.768,6.898,1.856C6.667,1.638,6.454,1.465,6.261,1.348
	C6.418,1.273,6.577,1.208,6.738,1.144z M5.611,1.698c0.123-0.074,0.247-0.146,0.374-0.21C6.136,1.56,6.36,1.709,6.683,2.015
	c-0.186,0.14-0.336,0.272-0.387,0.372C6.144,2.69,6.562,2.539,6.827,2.423c0.056-0.022,0.125-0.042,0.202-0.06
	c0.132,0.139,0.276,0.298,0.433,0.481c-0.056,0.06-0.107,0.132-0.177,0.188c-0.19,0.152-0.418,0.229-0.761,0.342
	C6.235,3.473,6.245,3.649,6.209,3.931C6.186,3.875,6.163,3.815,6.141,3.759C5.674,2.562,5.592,1.979,5.611,1.698z M7.13,8.548
	L6.652,7.027c0.073,0.017,0.151,0.03,0.233,0.042C7,7.182,7.123,7.341,7.196,7.559C7.361,8.053,7.13,8.548,7.13,8.548z M5.182,1.975
	c0.057-0.039,0.115-0.079,0.172-0.116c0.024,0.574,0.302,1.461,0.744,2.51c-0.076,0.173-0.167,0.276-0.22,0.49
	c-0.076,0.305-0.305,0.837-0.457,1.18C5.271,6.38,5.953,6.685,6.144,6.836c0.008,0.006,0.019,0.013,0.03,0.019l0.99,3.129
	L7.51,9.902L7.311,9.228c0,0,0.281,0.297,0.446,0.396c0.166,0.1,0.331,0.165,0.331,0.165l0.116-0.346c0,0-0.217-0.115-0.38-0.215
	c-0.166-0.1-0.38-0.364-0.38-0.364S7.84,8.146,7.477,7.311C7.446,7.236,7.409,7.17,7.372,7.108c0.019,0,0.037-0.002,0.055-0.002
	c0.32,0.595,0.663,1.198,1.017,1.793c0.582,0.978,1.171,1.89,1.74,2.698l0.872,2.986c-1.529-0.793-3.184-2.488-4.44-4.598
	C6.019,8.987,5.55,7.952,5.222,6.957L5.33,6.915L5.246,6.701L5.15,6.729C4.692,5.242,4.559,3.855,4.82,2.824
	C4.903,2.495,5.025,2.21,5.182,1.975z M5.851,9.148L5.577,9.192L5.2,7.691C5.384,8.173,5.604,8.662,5.851,9.148z M9.512,15.814
	c-3.228,0-5.982-2.012-7.084-4.85l-0.37-1.264C1.963,9.22,1.912,8.724,1.912,8.215c0-1.795,0.624-3.445,1.667-4.746
	c-0.166,0.355-0.302,0.736-0.404,1.14C2.948,5.5,2.896,6.45,3.005,7.412l-0.253,0.07L3.18,8.435
	c0.227,0.987,0.622,1.972,1.175,2.899c1.287,2.16,3.237,3.707,5.352,4.242c0.295,0.074,0.588,0.127,0.878,0.158
	C10.234,15.787,9.876,15.814,9.512,15.814z M9.771,15.318c-2.046-0.52-3.938-2.02-5.189-4.119c-0.091-0.154-0.177-0.311-0.26-0.467
	c0.017-0.76-0.248-3.648-0.248-3.648l-0.42,0.044l0.111,1.608L3.316,7.743C3.152,6.688,3.184,5.645,3.43,4.675
	c0.209-0.825,0.56-1.541,1.032-2.134c0.079-0.069,0.16-0.139,0.242-0.206C4.65,2.469,4.603,2.607,4.563,2.758
	c-0.276,1.094-0.146,2.519,0.33,4.053L4.619,6.897l0.926,3.618l0.775-0.23L6.204,9.938l-0.378,0.115L5.693,9.491l0.279-0.065
	L5.924,9.291c0.147,0.279,0.299,0.557,0.464,0.833c1.361,2.289,3.124,4.047,4.767,4.809l0.169,0.576
	C10.821,15.514,10.302,15.455,9.771,15.318z M12.045,15.381l-0.042-0.145c0.094,0.023,0.184,0.043,0.273,0.059
	C12.199,15.324,12.123,15.354,12.045,15.381z M12.783,15.074c-0.226,0-0.468-0.031-0.724-0.094
	c-0.047-0.014-0.096-0.027-0.144-0.041l-0.496-1.695c0.651,0.797,1.228,1.383,1.666,1.678
	C12.985,14.975,12.885,15.023,12.783,15.074z M13.347,14.775c-0.457-0.258-1.205-1.01-2.119-2.195l-0.972-3.33
	c0.068,0.12,0.138,0.252,0.226,0.4c0.265,0.457,0.227,0.762,0.342,1.293c0.113,0.531,0.99,1.217,1.406,1.635
	c0.42,0.418,0.799,0.039,0.914-0.266c0.004-0.01,0.008-0.021,0.014-0.035c0.412,1.016,0.621,1.777,0.635,2.215
	C13.646,14.594,13.498,14.688,13.347,14.775z M14.546,13.906c-0.162,0.145-0.333,0.281-0.507,0.41
	c-0.062-0.549-0.319-1.371-0.735-2.363c0.213-0.455,0.553-1.143,0.639-1.426c0.111-0.369,0.223-0.99,0.367-1.305
	C14.942,11.119,15.036,12.828,14.546,13.906z M16.054,11.578c-0.1,0.395-0.234,0.764-0.396,1.105
	c-0.214,0.293-0.445,0.568-0.696,0.824c0.148-0.551,0.193-1.209,0.124-1.961c-0.093-1.033-0.392-2.166-0.86-3.312
	c-0.008-0.022-0.013-0.043-0.018-0.067c-0.076-0.342,0.076-0.797,0.266-1.292c0.19-0.496,0.305-1.75,0.152-1.865
	c-0.152-0.114-0.684-0.114-0.684-0.114c-0.686-0.115-1.254-0.913-1.56-1.179c-0.305-0.266-0.305-0.532-0.114-0.608
	c0.189-0.076,0.912,0.608,1.026,0.836c0.115,0.229,0.608,0.19,0.724,0.19c0.047,0,0.139-0.008,0.237-0.036
	c0.229,0.301,0.446,0.619,0.644,0.952C16.151,7.153,16.573,9.532,16.054,11.578z M16.319,11.59c0.316-1.289,0.277-2.701-0.096-4.094
	l0.223,0.178c0,0,0.313-0.462,0.214-1.173c-0.099-0.71-1.007-1.438-1.058-1.834c-0.049-0.396,0.299-0.512,0.299-0.512l-0.077-0.169
	c0.812,1.208,1.286,2.664,1.286,4.229C17.11,9.427,16.826,10.574,16.319,11.59z"/>
</svg>
