<?xml version="1.0" encoding="utf-8"?>
<!-- Generator: Adobe Illustrator 16.0.4, SVG Export Plug-In . SVG Version: 6.00 Build 0)  -->
<!DOCTYPE svg PUBLIC "-//W3C//DTD SVG 1.1//EN" "http://www.w3.org/Graphics/SVG/1.1/DTD/svg11.dtd">
<svg version="1.1" id="Capa_1" xmlns="http://www.w3.org/2000/svg" xmlns:xlink="http://www.w3.org/1999/xlink" x="0px" y="0px"
	 width="20.004px" height="18.803px" viewBox="0 0 20.004 18.803" enable-background="new 0 0 20.004 18.803" xml:space="preserve">
<path d="M19.539,8.319V7.946h-0.393c0-0.006,0-0.01,0-0.015c0-0.146-0.129-0.236-0.188-0.304c-0.061-0.069-0.027-0.079,0.039-0.226
	c0.068-0.147,0.039-0.225-0.117-0.225c-0.158,0-0.127,0.196-0.127,0.196s0.068,0.067-0.021,0.107
	c-0.088,0.039-0.176-0.197-0.312-0.235c-0.137-0.039-0.166,0.323-0.213,0.421c-0.049,0.099-0.129,0.099-0.27,0.108
	c-0.086,0.006-0.043,0.102-0.002,0.172H16.76C16.693,7.859,16.57,7.69,16.615,7.67c0.062-0.026,0.146-0.235,0.141-0.341
	c-0.01-0.104-0.078-0.158-0.113-0.158c-0.033,0-0.068,0.07-0.033,0.097c0.033,0.027,0.018,0.061-0.012,0.114
	c-0.023,0.053-0.133-0.044-0.133-0.044s0.035-0.22-0.104-0.236c-0.139-0.018-0.148,0.139-0.133,0.218
	c0.02,0.079-0.059,0.166-0.111,0.175c-0.053,0.008-0.086-0.131-0.211-0.149c-0.121-0.017-0.254-0.051-0.191,0.036
	c0.062,0.086,0.191,0.333,0.191,0.333s-0.262-0.176-0.322-0.141c-0.039,0.022,0.045,0.229,0.107,0.371h-2.469
	c0.018-0.031,0.039-0.07,0.049-0.111c0.023-0.086-0.014-0.187-0.186-0.241c-0.125-0.041-0.225-0.268-0.271-0.393V6.078h-0.012
	c-0.033-0.347-0.771-0.855-1.805-1.071c-0.057-0.039-0.121-0.082-0.168-0.152c-0.104-0.157-0.176-0.106-0.281-0.122
	c-0.104-0.02-0.276-0.141-0.382-0.246c-0.103-0.106-0.067-0.21-0.207-0.21c-0.141,0-0.158,0.174-0.244,0.332
	c-0.088,0.158-0.351,0.158-0.561,0.21C9.068,4.84,9.042,4.916,9.04,4.995C7.981,5.208,7.222,5.726,7.188,6.078H7.184v1.145
	c-0.047,0.13-0.143,0.333-0.258,0.371c-0.171,0.054-0.21,0.155-0.188,0.241c0.011,0.041,0.032,0.08,0.051,0.111H4.589
	C4.685,7.82,4.893,7.536,4.86,7.523C4.815,7.505,4.3,7.777,4.3,7.777S4.204,7.54,4.255,7.478c0.053-0.061,0.149-0.131,0.087-0.139
	C4.283,7.33,4.011,7.321,3.985,7.392c-0.028,0.07-0.061,0.375-0.061,0.375S3.766,7.61,3.749,7.54C3.73,7.47,3.607,7.453,3.607,7.453
	s0.113-0.236-0.053-0.262C3.392,7.165,3.441,7.392,3.45,7.452c0.011,0.062-0.227,0.21-0.227,0.314c0,0.048-0.004,0.117-0.012,0.179
	H2.084c0.096-0.126,0.304-0.41,0.271-0.423C2.311,7.505,1.794,7.777,1.794,7.777S1.698,7.54,1.75,7.478
	c0.053-0.061,0.149-0.131,0.088-0.139C1.775,7.33,1.505,7.321,1.479,7.392c-0.027,0.07-0.061,0.375-0.061,0.375
	S1.262,7.61,1.243,7.54C1.226,7.47,1.104,7.453,1.104,7.453S1.216,7.217,1.05,7.191C0.885,7.165,0.938,7.392,0.944,7.452
	c0.011,0.062-0.226,0.21-0.226,0.315c0,0.048-0.006,0.117-0.011,0.179H0.466v0.373h-0.468l0.281,0.677h0.187v5.531h1.074v-2.521
	h1.352v2.52h1.261v-3.248c0,0,0.031-0.875,1.024-0.875c0.994,0,1.05,0.875,1.05,0.875v3.248h2.734v-3.285
	c0,0,0.059-0.875,1.053-0.875c0.991,0,1.022,0.875,1.022,0.875v3.283h2.734v-3.246c0,0,0.059-0.875,1.053-0.875
	s1.027,0.875,1.027,0.875v3.248h1.26v-2.52h1.355v2.52h1.072v-5.53h0.188l0.279-0.677L19.539,8.319L19.539,8.319z"/>
</svg>
