<?xml version="1.0" encoding="utf-8"?>
<!-- Generator: Adobe Illustrator 16.0.4, SVG Export Plug-In . SVG Version: 6.00 Build 0)  -->
<!DOCTYPE svg PUBLIC "-//W3C//DTD SVG 1.1//EN" "http://www.w3.org/Graphics/SVG/1.1/DTD/svg11.dtd">
<svg version="1.1" id="Capa_1" xmlns="http://www.w3.org/2000/svg" xmlns:xlink="http://www.w3.org/1999/xlink" x="0px" y="0px"
	 width="20.004px" height="13.6px" viewBox="0 0 20.004 13.6" enable-background="new 0 0 20.004 13.6" xml:space="preserve">
<path d="M19.607,12.498l-0.164-2.271l-0.393-0.021l-0.785-6.543L16.916,0l-0.545,0.088v3.139l-0.327,0.326l0.213,5.002l-0.392-3.27
	l-0.879-2.822L14.65,2.432v2.506l-0.262,0.261l0.227,5.311l-0.627,0.035v1.955h-2.453V9.537c0,0,0-0.396-0.479-0.642
	c-0.479-0.246-0.779-0.588-0.833-0.711c-0.055-0.123-0.028-0.246-0.028-0.246h0.171c0,0,0.137-0.041,0.137-0.137s0-0.219,0-0.219
	h-0.335V7.332c0,0,0.103-0.041,0.151-0.104C10.368,7.166,10.381,7.1,10.381,7.1h0.232V6.928H9.39V7.1h0.232
	c0,0,0.014,0.066,0.062,0.129c0.047,0.062,0.15,0.104,0.15,0.104v0.252H9.5c0,0,0,0.123,0,0.219s0.137,0.137,0.137,0.137h0.171
	c0,0,0.027,0.123-0.028,0.246C9.725,8.309,9.424,8.65,8.946,8.896C8.467,9.141,8.467,9.537,8.467,9.537v2.961H6.015v-1.955
	l-0.626-0.035l0.226-5.311L5.354,4.937V2.432L5.019,2.463L4.14,5.285l-0.392,3.27L3.96,3.553L3.634,3.227V0.088L3.088,0L1.737,3.662
	l-0.786,6.543l-0.393,0.021l-0.163,2.271H0V13.6h20.004v-1.102H19.607z M9.688,12.312v-1.955h0.629v1.955H9.688z M10.002,9.525
	c0.177,0,0.321,0.146,0.321,0.32c0,0.178-0.144,0.322-0.321,0.322c-0.177,0-0.321-0.146-0.321-0.322
	C9.681,9.67,9.825,9.525,10.002,9.525z"/>
</svg>
