<?xml version="1.0" encoding="utf-8"?>
<!-- Generator: Adobe Illustrator 16.0.4, SVG Export Plug-In . SVG Version: 6.00 Build 0)  -->
<!DOCTYPE svg PUBLIC "-//W3C//DTD SVG 1.1//EN" "http://www.w3.org/Graphics/SVG/1.1/DTD/svg11.dtd">
<svg version="1.1" id="Capa_1" xmlns="http://www.w3.org/2000/svg" xmlns:xlink="http://www.w3.org/1999/xlink" x="0px" y="0px"
	 width="13.075px" height="20.004px" viewBox="0 0 13.075 20.004" enable-background="new 0 0 13.075 20.004" xml:space="preserve">
<path d="M11.854,18.775V3.174H6.649V0H6.426v3.176H1.221v15.6H0v1.229h13.075v-1.229H11.854L11.854,18.775z M3.152,15.033H2.557
	v-1.939h0.596L3.152,15.033L3.152,15.033z M3.152,11.307H2.557V9.371h0.596L3.152,11.307L3.152,11.307z M8.512,18.775H4.563V7.602
	c0,0,0.117-1.779,1.993-1.779c1.877,0,1.956,1.779,1.956,1.779V18.775z M10.504,15.033H9.909v-1.939h0.596V15.033L10.504,15.033z
	 M10.504,11.307H9.909V9.371h0.596V11.307L10.504,11.307z"/>
</svg>
