<?xml version="1.0" encoding="utf-8"?>
<!-- Generator: Adobe Illustrator 16.0.4, SVG Export Plug-In . SVG Version: 6.00 Build 0)  -->
<!DOCTYPE svg PUBLIC "-//W3C//DTD SVG 1.1//EN" "http://www.w3.org/Graphics/SVG/1.1/DTD/svg11.dtd">
<svg version="1.1" id="Capa_1" xmlns="http://www.w3.org/2000/svg" xmlns:xlink="http://www.w3.org/1999/xlink" x="0px" y="0px"
	 width="20.004px" height="18.865px" viewBox="0 0 20.004 18.865" enable-background="new 0 0 20.004 18.865" xml:space="preserve">
<path d="M20.004,7.507c-0.045-0.061-0.084-0.124-0.094-0.19c-0.035-0.194-0.268-0.368-0.432-0.368c-0.166,0-0.412,0.155-0.412,0.309
	c0,0.155-0.33-0.059-0.479,0.059c-0.147,0.114-0.196,0.347-0.183,0.482c0.019,0.137-0.03-0.114-0.245-0.271
	c-0.214-0.154-0.464-0.231-0.546,0.02c-0.081,0.25,0.166,0.717,0.019,0.774c-0.147,0.058-0.362-0.194-0.528-0.368
	c-0.164-0.172-0.263-0.406-0.263-0.406s0.263-0.734,0.033-0.948c-0.231-0.211-0.608-0.078-0.758,0.077
	c-0.148,0.155-0.199,0.02-0.412-0.077c-0.213-0.098-0.332-0.058-0.332-0.058s0.166-0.503-0.134-0.599
	c-0.295-0.097-0.493-0.021-0.51,0.269c-0.018,0.291,0.017,0.368,0.017,0.368S14.4,6.737,14.219,6.717
	c-0.182-0.019-0.512-0.174-0.512-0.174s0.146-0.677-0.133-0.773c-0.279-0.098-0.361,0.019-0.361,0.328c0,0.31,0,0.543,0,0.543
	s-0.361,0.291-0.43,0.058c-0.064-0.233,0.167-0.815-0.115-0.873c-0.279-0.057-0.461,0.213-0.461,0.213s-0.297-0.155-0.414-0.038
	c-0.113,0.115-0.146,0.406-0.146,0.406s-0.131-0.463-0.444-0.523c-0.312-0.058-0.709,0.039-0.742,0.176
	c-0.034,0.135-0.215-0.021-0.447-0.078C9.783,5.923,9.52,5.866,9.453,6.04c-0.066,0.173-0.23,0.29-0.249,0.503
	C9.19,6.754,9.288,7.046,9.288,7.046S9.109,7.317,9.125,7.549C9.141,7.783,9.19,8.38,9.174,8.553
	C9.158,8.729,9.355,8.922,8.992,9.076C8.629,9.232,8.167,9.678,8.085,9.793C8.004,9.909,7.426,9.502,7.327,9.232
	C7.229,8.961,7.409,8.553,7.409,8.553l0.38,0.235c0,0,0.131-0.871-0.065-1.375C7.523,6.909,7.096,6.987,7.096,6.987
	s-0.229-0.29-0.527-0.386C6.271,6.503,5.792,6.64,5.745,6.407C5.695,6.174,5.73,5.714,5.707,5.582
	C5.672,5.371,5.782,5.207,5.682,4.994c-0.098-0.211-0.07-0.368-0.07-0.368s0.031-0.198-0.068-0.352
	C5.445,4.118,5.009,4.212,5.009,4.212s0.092-0.591-0.171-0.63C4.574,3.544,4.475,3.717,4.441,3.989
	C4.408,4.258,4.326,4.415,4.178,4.493c-0.149,0.077-0.395,0.25-0.395,0.25S3.039,4.375,2.464,4.395
	C1.886,4.415,0.995,4.703,0.98,4.878C0.963,5.054,1.589,6.543,1.786,6.543c0.198,0,0.348-0.077,0.348-0.348S2.065,5.672,2.167,5.711
	C2.265,5.749,2.33,6.446,2.25,6.698C2.167,6.949,1.968,7.452,1.968,7.452S1.326,7.51,1.194,7.529
	c-0.133,0.02,0.048,0.773,0.132,0.947c0.082,0.175,0.329,0.756,0.411,0.795C1.82,9.309,2.182,9.368,2.182,9.368l-0.578,2.03
	l-1.235,0.136v0.709H0v3.045h20.004V7.507z M1.375,4.983C1.193,5.094,1.182,5.128,1.157,5.014c-0.022-0.112,0.445-0.353,0.602-0.31
	C1.914,4.746,1.375,4.983,1.375,4.983z M5.481,6.536C5.372,6.523,5.254,5.001,5.132,5.014c-0.119,0.015-0.035,1.228-0.275,1.24
	c-0.241,0.015-0.53-0.012-0.541-0.069C4.304,6.129,4.208,4.661,4.591,4.564c0,0,0.745-0.296,0.819-0.071
	C5.481,4.72,5.446,5.438,5.47,5.58C5.492,5.72,5.589,6.551,5.481,6.536z M8.796,11.598c-0.024-0.057,0.301-0.197,0.397-0.185
	c0.095,0.017-0.553-1.254-0.637-1.448C8.471,9.766,9.229,9.272,9.229,9.272c0.193,0,0.372,0.508,0.324,0.622
	c-0.049,0.112-0.372,0.198-0.409,0.224c-0.035,0.029,0.505,1.438,0.47,1.564C9.577,11.808,8.821,11.652,8.796,11.598z M10.105,8.356
	c-0.023,0.197,0.013,1.225-0.097,1.225c-0.106,0-0.381-0.141-0.336-0.394c0.047-0.253,0-2.227,0.109-2.241
	c0,0,0.121-0.183,0.24-0.127C10.142,6.876,10.129,8.158,10.105,8.356z M11.318,8.708c-0.034,0.338-0.12,0.846-0.25,0.859
	c-0.133,0.014-0.145-1.902-0.182-2.156c-0.035-0.254,0.133-0.606,0.133-0.606c0.082-0.056,0.275-0.014,0.349,0.114
	C11.439,7.045,11.354,8.369,11.318,8.708z M12.652,6.805c0.097,0.07,0.181,0.394,0.146,0.621c0,0-0.192,1.973-0.301,2.142
	c-0.11,0.169-0.146-0.733-0.158-0.944c-0.01-0.211-0.022-1.592-0.022-1.592C12.303,6.848,12.557,6.736,12.652,6.805z M12.904,11.908
	c-0.096,0.016-0.745,0.057-0.696-0.042c0.047-0.1-0.707-1.495-0.769-1.707c-0.062-0.21,0.072-0.562,0.326-0.422
	c0,0,0.189,0.662,0.371,0.831C12.316,10.737,13,11.894,12.904,11.908z M15.079,11.965c-0.086-0.086-0.25-2.665-0.274-2.764
	c-0.025-0.1-0.146-1.269,0.204-0.93C15.006,8.271,15.161,12.051,15.079,11.965z M17.18,12.231c-0.168-0.029-0.445-0.086-0.529-0.297
	c-0.084-0.209-0.442-1.269-0.491-1.366c-0.048-0.101-0.015-0.464,0.336-0.084c0,0,0.168,0.375,0.289,0.616
	C16.904,11.342,17.35,12.26,17.18,12.231z"/>
</svg>
