<?xml version="1.0" encoding="utf-8"?>
<!-- Generator: Adobe Illustrator 16.0.4, SVG Export Plug-In . SVG Version: 6.00 Build 0)  -->
<!DOCTYPE svg PUBLIC "-//W3C//DTD SVG 1.1//EN" "http://www.w3.org/Graphics/SVG/1.1/DTD/svg11.dtd">
<svg version="1.1" id="Capa_1" xmlns="http://www.w3.org/2000/svg" xmlns:xlink="http://www.w3.org/1999/xlink" x="0px" y="0px"
	 width="10.968px" height="20.004px" viewBox="0 0 10.968 20.004" enable-background="new 0 0 10.968 20.004" xml:space="preserve">
<path d="M10.968,11.936c0,0-0.268,0.008-0.711,0.004c-0.019-0.594-0.065-1.972-0.065-1.972c0.058,0,0.013-1.073,0.013-1.073
	s0.323,1.167,0.416,1.097c0.092-0.07-0.22-1.605-0.244-1.779c-0.021-0.173-0.254-0.264-0.402-0.334
	c-0.15-0.068-0.312-0.022-0.301-0.218C9.678,7.558,9.787,7.44,9.73,7.198C9.673,6.956,9.476,6.968,9.314,7.048
	C9.152,7.129,9.164,7.395,9.21,7.533C9.257,7.67,9.268,7.798,9.166,7.843C9.06,7.89,8.601,7.768,8.53,7.729
	C8.309,7.613,8.195,7.024,8.195,7.024L8.125,6.84c0,0,0.162-0.253,0.117-0.289C8.195,6.518,8.103,6.668,8.103,6.668
	S8.057,6.391,7.917,6.391s-0.149,0.15-0.104,0.324c0.047,0.172,0.22,0.922,0.336,1.084C8.263,7.96,8.632,8.203,8.75,8.331
	c0.114,0.127,0.125,0.322,0.125,0.496c0,0.174,0.012,0.981,0.082,1.016c0.068,0.034,0.172,0.161,0.172,0.161
	s-0.01,1.536-0.034,1.663c-0.015,0.078-0.089,0.178-0.144,0.242c-0.229-0.012-0.47-0.023-0.721-0.041
	c-1.557-0.104-3.983-0.311-5.159-1.211c-1.178-0.901-1.872-2.46-0.625-4.087c1.75-2.283,8.242-4.985,8.242-4.985L9.384,0
	c0,0-5.689,2.76-7.974,5.114c-2.286,2.354-1.604,5.294,0.692,6.614c1.469,0.844,4.662,1.047,6.788,1.086v7.189h1.404v-7.188
	c0.373-0.006,0.674-0.016,0.674-0.016V11.936z M9.476,11.262c0.035-0.219,0.081-1.2,0.15-1.235C9.678,10,9.845,11.301,9.923,11.936
	c-0.172-0.002-0.364-0.006-0.569-0.014C9.384,11.764,9.451,11.424,9.476,11.262z"/>
</svg>
