<?xml version="1.0" encoding="utf-8"?>
<!-- Generator: Adobe Illustrator 16.0.4, SVG Export Plug-In . SVG Version: 6.00 Build 0)  -->
<!DOCTYPE svg PUBLIC "-//W3C//DTD SVG 1.1//EN" "http://www.w3.org/Graphics/SVG/1.1/DTD/svg11.dtd">
<svg version="1.1" id="Capa_1" xmlns="http://www.w3.org/2000/svg" xmlns:xlink="http://www.w3.org/1999/xlink" x="0px" y="0px"
	 width="19.68px" height="13.25px" viewBox="0 0 19.68 13.25" enable-background="new 0 0 19.68 13.25" xml:space="preserve">
<path d="M19.604,3.598c-0.105-0.391-0.418-1.343-0.984-1.768c-0.281-0.212-0.579-0.396-0.841-0.558
	c-0.263-0.162-0.592-0.364-0.641-0.455c-0.042-0.077-0.082-0.189-0.121-0.297C16.922,0.252,16.832,0,16.595,0
	c-0.211,0-0.275,0.203-0.337,0.397c-0.074,0.236-0.176,0.558-0.443,0.753l-0.537,0.391c-0.187,0.134-0.321,0.229-0.436,0.321
	c-0.082,0.067-0.185,0.181-0.271,0.282c-0.125-0.173-0.232-0.348-0.253-0.431l-0.023-0.117c-0.075-0.365-0.133-0.628-0.369-0.64
	c-0.269-0.012-0.331,0.282-0.393,0.567c-0.042,0.186-0.097,0.44-0.183,0.535c-0.146,0.161-0.769,0.563-1.211,0.832
	c-0.201-0.214-0.448-0.519-0.488-0.708l-0.045-0.285c-0.042-0.291-0.1-0.689-0.455-0.667c-0.222,0.014-0.283,0.238-0.39,0.609
	c-0.074,0.26-0.178,0.616-0.3,0.739c-0.158,0.159-0.407,0.339-0.627,0.499C9.657,3.208,9.517,3.309,9.434,3.39
	C9.374,3.449,9.327,3.505,9.287,3.56C9.16,3.46,9.024,3.335,8.974,3.231c-0.049-0.091-0.072-0.213-0.094-0.32
	c-0.037-0.179-0.094-0.45-0.348-0.45c-0.202,0-0.298,0.202-0.51,0.646C7.939,3.285,7.802,3.57,7.735,3.645
	c-0.216,0.068-0.638,0.253-0.843,0.4c-0.116,0.083-0.21,0.228-0.277,0.364C6.345,4.14,6.101,3.86,6.069,3.766
	c-0.013-0.06-0.024-0.157-0.035-0.25C5.994,3.183,5.956,2.84,5.667,2.84c-0.221,0-0.286,0.22-0.402,0.62
	C5.201,3.674,5.071,4.117,4.977,4.188C4.76,4.288,4.182,4.621,3.795,4.931C3.579,4.006,3.479,3.98,3.362,3.955
	C3.119,3.9,3.04,4.127,2.899,4.542c-0.113,0.321-0.319,0.92-0.527,1.03c-0.417,0.221-1.001,0.3-1.007,0.3l-0.18,0.025L1.175,6.079
	c-0.011,0.202-0.07,0.584-0.196,0.738C0.735,7.122,0.499,7.787,0.499,8.062c0,0.137,0.01,0.418,0.018,0.619
	c-0.023,0-0.312,0-0.312,0l0.025,0.242c0.01,0.086,0.019,0.242,0.019,0.42c0,0.244-0.019,0.533-0.088,0.727
	c-0.105,0.303-0.159,0.578-0.159,0.82c0,0.172,0.027,0.326,0.084,0.453c0.062,0.141,0.105,0.605,0.116,0.891l0.008,0.209
	c0,0,0.259,0.002,0.29,0.002c0,0.23,0,0.805,0,0.805h18.964c0,0,0-4.463,0-4.639c0.048-0.045,0.164-0.16,0.164-0.16s0-2.418,0-2.792
	C19.704,5.659,19.695,3.598,19.604,3.598z M0.938,12.812v-0.186c0.088,0.049,0.265,0.133,0.479,0.186H0.938z M1.939,12.812
	c0.359-0.102,0.74-0.346,0.74-0.346l0.347,0.309c0,0,0.145-0.346,0.182-0.639c0.038-0.291,0-0.637,0-0.637s0.493,0.018,0.913-0.02
	c0.42-0.039,1.222-0.166,1.222-0.166s0.564,0.512,0.985,0.768c0.315,0.191,1.018,0.559,1.346,0.729H1.939V12.812z M9.074,12.812
	L8.771,9.967c0,0,0.401,0.02,1.003,0C10.376,9.949,11.07,9.73,11.07,9.73s0.326,0.273,0.893,0.564s1.313,0.529,1.313,0.529
	l0.107,1.988H9.074L9.074,12.812z M13.703,12.812l-0.046-0.564c0,0,0.075-0.074,0.148-0.201c0.07-0.127,0.254-0.475,0.254-0.475
	s0.055,0,0.201-0.055c0.146-0.055,0.291-0.164,0.291-0.164l-0.036-2.518c0,0,0.348,0,1.059-0.164c0.71-0.166,1.295-0.42,1.295-0.42
	s0.256,0.273,0.692,0.547c0.409,0.256,1.345,0.654,1.465,0.707c0,1.209,0,3.043,0,3.307H13.703z M19.189,8.27
	c-0.038,0.037-0.118,0.119-0.149,0.15V8.252l0.146-0.254c0,0-0.146-0.383-0.641-0.439c-0.49-0.053-1.73,0.549-1.73,0.549
	S16.159,7.65,15.3,7.615c-0.855-0.037-1.293,0.326-1.293,0.326l0.092,1.752c0,0-0.549-0.457-1.242-0.584
	c-0.692-0.127-1.914,0.402-1.914,0.402s-0.803-0.311-1.405-0.42C8.936,8.982,8.479,9.475,8.479,9.475l-0.073,1.66
	c0,0-0.311-0.311-1.222-0.402c-0.912-0.09-2.007,0.402-2.007,0.402s-0.784-0.457-1.532-0.529c-0.747-0.072-0.966,0.564-0.966,0.564
	l-0.056,0.949c0,0-0.912-0.254-1.515-0.254c-0.27,0-0.409,0.055-0.484,0.113c-0.018-0.254-0.057-0.625-0.141-0.812
	c-0.027-0.062-0.045-0.154-0.045-0.275c0-0.17,0.034-0.396,0.133-0.672c0.092-0.26,0.113-0.598,0.113-0.873
	c0-0.082-0.002-0.158-0.006-0.225c0.021,0,0.286-0.17,0.286-0.17c0.237-0.037,1.127-0.184,1.62-0.361c0,0-0.493-0.67-1.189-0.629
	c-0.253,0.016-0.39,0.152-0.455,0.32C0.938,8.193,0.938,8.115,0.938,8.062c0-0.154,0.191-0.73,0.382-0.972
	c0.181-0.225,0.25-0.593,0.276-0.813c0.229-0.044,0.643-0.14,0.981-0.32c0.321-0.171,0.518-0.652,0.716-1.222
	c0.053,0.203,0.11,0.447,0.157,0.668l0.101,0.481l0.29-0.397c0.175-0.239,1.004-0.759,1.319-0.903
	c0.216-0.098,0.336-0.384,0.466-0.81c0.006,0.031,0.009,0.063,0.016,0.09c0.061,0.27,0.592,0.795,0.903,1.086l0.252,0.237
	l0.084-0.261C6.946,4.968,7.03,5.024,7.142,5.102c0.446,0.312,0.754,1.054,0.754,1.054l0.451,0.22L8.756,6.06
	c0,0-0.055-0.943,0.083-1.367C8.921,4.438,9.085,4.194,9.204,4.04c0.011,0.007,0.021,0.014,0.025,0.017l0.203,0.125l0.106-0.214
	c0,0,0.071-0.135,0.203-0.267c0.057-0.057,0.2-0.159,0.349-0.268c0.233-0.168,0.495-0.36,0.681-0.543
	c0.199-0.201,0.309-0.572,0.402-0.907c0.01,0.04,0.053,0.292,0.053,0.292c0.091,0.433,0.661,0.989,0.727,1.05l0.12,0.115
	l0.143-0.084c0.014-0.009,0.037-0.022,0.069-0.041c0.157,0.127,0.382,0.306,0.534,0.415c0.256,0.183,0.422,0.493,0.422,0.493v1.479
	c-0.092-0.173-0.251-0.34-0.53-0.421c-0.712-0.206-1.56,0.629-1.56,0.629s1.436,0.598,2.172,0.353l0.19,0.075
	c0,0-0.02-1.713,0.091-1.806c0.106-0.091,0.327-0.036,0.327-0.036s0.108-0.711,0.256-1.312c0.049-0.198,0.133-0.375,0.227-0.524
	l0.157,0.191l0.168-0.218c0.095-0.124,0.283-0.352,0.38-0.428c0.104-0.083,0.233-0.177,0.413-0.306l0.544-0.393
	c0.305-0.226,0.453-0.549,0.543-0.802c0.04,0.114,0.082,0.229,0.137,0.325c0.105,0.191,0.394,0.369,0.791,0.616
	c0.256,0.158,0.544,0.336,0.812,0.534c0.576,0.432,0.859,1.673,0.862,1.687l0.039,0.171l0.013,1.21
	C19.272,5.246,19.189,8.1,19.189,8.27z M18.621,3.802c-0.562-0.191-1.506,0.574-1.506,0.574C17.647,4.677,19.154,4.8,19.154,4.8
	S19.18,3.995,18.621,3.802z M14.27,4.624c0,0,0.15,0.259,0.943,0.137c0.793-0.123,1.382-0.37,1.382-0.37s-0.604-0.602-1.368-0.616
	C14.461,3.76,14.27,4.624,14.27,4.624z M9.414,5.238C8.798,5.307,8.921,6.292,8.921,6.292s0.343,0.109,0.78-0.069
	c0.438-0.178,0.944-0.356,0.944-0.356C10.591,5.868,10.029,5.17,9.414,5.238z M7.089,6.977C6.458,6.771,5.486,7.551,5.486,7.551
	S6.911,7.92,7.839,7.824C7.839,7.824,7.717,7.18,7.089,6.977z M3.927,6.895C3.314,6.853,3.245,7.838,3.245,7.838
	S3.942,8.07,5.037,7.551C5.037,7.551,4.544,6.936,3.927,6.895z"/>
</svg>
