<?xml version="1.0" encoding="utf-8"?>
<!-- Generator: Adobe Illustrator 16.0.4, SVG Export Plug-In . SVG Version: 6.00 Build 0)  -->
<!DOCTYPE svg PUBLIC "-//W3C//DTD SVG 1.1//EN" "http://www.w3.org/Graphics/SVG/1.1/DTD/svg11.dtd">
<svg version="1.1" id="Capa_1" xmlns="http://www.w3.org/2000/svg" xmlns:xlink="http://www.w3.org/1999/xlink" x="0px" y="0px"
	 width="20.004px" height="18.425px" viewBox="0 0 20.004 18.425" enable-background="new 0 0 20.004 18.425" xml:space="preserve">
<path d="M19.742,11.601V8.69h-0.133V7.884h-0.264v0.845h-0.883v0.64h-1.199L16.83,9.031l-0.366,0.366h-1.379V8.391h-0.188V7.583
	l-1.971-2.187V3.933h-0.169v1.446L10.88,7.49v0.433H3.341v4.242h-0.77v-1.858l0.132-0.095V9.987L2.591,9.874V8.091L2.365,7.904
	L2.196,6.795V6.495L1.934,5.667V5.142c0,0,0.018-0.148-0.056-0.281C1.802,4.729,1.614,4.749,1.576,4.599
	c-0.038-0.149-0.038-0.55-0.038-0.55L1.464,3.96L1.389,4.049c0,0,0,0.399-0.038,0.55c-0.037,0.15-0.226,0.131-0.299,0.264
	C0.976,4.994,0.995,5.142,0.995,5.142v0.526L0.732,6.495v0.301L0.563,7.904L0.337,8.091v1.784L0.226,9.987v0.226l0.131,0.094v1.858
	H0v2.328h20.004v-2.892H19.742z M1.052,9.755H0.675V8.978c0,0,0.036-0.162,0.194-0.162c0.158,0,0.183,0.162,0.183,0.162V9.755z
	 M1.676,7.853H1.301V7.077c0,0,0.035-0.163,0.193-0.163c0.158,0,0.182,0.163,0.182,0.163V7.853z M2.303,9.755H1.926V8.978
	c0,0,0.035-0.162,0.194-0.162c0.158,0,0.183,0.162,0.183,0.162V9.755z M9.584,13.441H9.209v-0.771h0.375V13.441z M11.312,13.441
	h-0.508v-0.771h0.508V13.441z M12.7,13.441h-0.375v-0.771H12.7V13.441z M13.208,9.404h-0.64V8.709c0,0-0.006-0.325,0.312-0.325
	c0.32,0,0.327,0.325,0.327,0.325L13.208,9.404L13.208,9.404z M19.348,9.855h-0.326v-0.6h0.326V9.855z"/>
</svg>
