<?xml version="1.0" encoding="utf-8"?>
<!-- Generator: Adobe Illustrator 16.0.4, SVG Export Plug-In . SVG Version: 6.00 Build 0)  -->
<!DOCTYPE svg PUBLIC "-//W3C//DTD SVG 1.1//EN" "http://www.w3.org/Graphics/SVG/1.1/DTD/svg11.dtd">
<svg version="1.1" id="Capa_1" xmlns="http://www.w3.org/2000/svg" xmlns:xlink="http://www.w3.org/1999/xlink" x="0px" y="0px"
	 width="20.003px" height="14.477px" viewBox="0 0 20.003 14.477" enable-background="new 0 0 20.003 14.477" xml:space="preserve">
<path d="M20.003,10.705h-8.234V0H10.14v0.454H9.293V0H7.597v12.271C6.832,11.674,5.618,10.9,4.448,10.9
	c-1.524,0-3.084,1.216-3.651,1.706H0v1.87h19.539v-1.979h-1.234C19.585,11.816,20.003,10.705,20.003,10.705z M10.14,12.606H9.293
	v-0.193h0.847V12.606z M10.14,11.536H9.293V7.539h0.847V11.536z M10.14,6.934H9.293V6.662h0.847V6.934z M10.14,6.055H9.293V0.818
	h0.847V6.055z"/>
</svg>
