<?xml version="1.0" encoding="utf-8"?>
<!-- Generator: Adobe Illustrator 16.0.4, SVG Export Plug-In . SVG Version: 6.00 Build 0)  -->
<!DOCTYPE svg PUBLIC "-//W3C//DTD SVG 1.1//EN" "http://www.w3.org/Graphics/SVG/1.1/DTD/svg11.dtd">
<svg version="1.1" id="Capa_1" xmlns="http://www.w3.org/2000/svg" xmlns:xlink="http://www.w3.org/1999/xlink" x="0px" y="0px"
	 width="17.664px" height="19.504px" viewBox="0 0 17.664 19.504" enable-background="new 0 0 17.664 19.504" xml:space="preserve">
<path d="M16.337,17.832L13.462,0l-0.896,6.014L11.11,0.652l-0.302,6.02L9.14,3.553L8.874,8.387l-1.581-2.11l-0.218,4.35L5.272,9.441
	l-0.13,3.689L3.47,12.296l-0.35,3.69l-1.672-0.482l-0.451,2.328H0v1.672h17.664v-1.672H16.337z M13.166,4.492l1.621,13.34h-0.436
	L13.005,6.65L13.166,4.492z M11.369,4.602l2.523,13.23h-0.068l-2.599-9.834L11.369,4.602z M9.699,6.166l3.205,11.666h-0.017
	L9.354,9.186L9.699,6.166z M7.646,7.639l4.277,10.193h-0.053l-4.4-6.543L7.646,7.639z M5.615,10.012l5.019,7.82h-0.122l-5.004-4.457
	L5.615,10.012z M3.765,12.781l5.329,5.051H8.688l-5.23-1.779L3.765,12.781z M1.787,15.982l5.607,1.832H1.662L1.787,15.982z"/>
</svg>
