<?xml version="1.0" encoding="utf-8"?>
<!-- Generator: Adobe Illustrator 16.0.4, SVG Export Plug-In . SVG Version: 6.00 Build 0)  -->
<!DOCTYPE svg PUBLIC "-//W3C//DTD SVG 1.1//EN" "http://www.w3.org/Graphics/SVG/1.1/DTD/svg11.dtd">
<svg version="1.1" id="Capa_1" xmlns="http://www.w3.org/2000/svg" xmlns:xlink="http://www.w3.org/1999/xlink" x="0px" y="0px"
	 width="15.332px" height="18.574px" viewBox="0 0 15.332 18.574" enable-background="new 0 0 15.332 18.574" xml:space="preserve">
<path d="M13.26,1.963L9.805,0H5.528L2.074,1.963L0,5.633v4.031l2.073,3.537l3.332,1.887v3.486h1.481v-3.473h1.557v3.473h1.482
	v-3.486l3.332-1.887l2.074-3.537V5.633L13.26,1.963z M14.857,9.582c-0.066,0.113-1.879,3.205-1.943,3.318
	c-0.117,0.065-3.311,1.873-3.311,1.873H5.729c0,0-3.191-1.808-3.309-1.873c-0.067-0.113-1.876-3.206-1.943-3.318V5.805
	c0.062-0.111,1.878-3.326,1.945-3.443c0.117-0.066,3.124-1.777,3.235-1.84h4.02c0.113,0.062,3.117,1.773,3.236,1.84
	c0.064,0.117,1.881,3.332,1.945,3.443V9.582z M9.605,0.787H5.729C5.612,0.854,2.736,2.488,2.617,2.555
	c-0.069,0.121-1.81,3.207-1.876,3.32v3.637c0.069,0.117,1.803,3.076,1.872,3.193c0.119,0.064,3.071,1.736,3.187,1.803h3.736
	c0.113-0.066,3.066-1.738,3.186-1.803c0.068-0.117,1.801-3.076,1.871-3.193V5.875c-0.064-0.113-1.807-3.199-1.875-3.32
	C12.596,2.488,9.721,0.854,9.605,0.787z"/>
</svg>
