<?xml version="1.0" encoding="utf-8"?>
<!-- Generator: Adobe Illustrator 16.0.4, SVG Export Plug-In . SVG Version: 6.00 Build 0)  -->
<!DOCTYPE svg PUBLIC "-//W3C//DTD SVG 1.1//EN" "http://www.w3.org/Graphics/SVG/1.1/DTD/svg11.dtd">
<svg version="1.1" id="Capa_1" xmlns="http://www.w3.org/2000/svg" xmlns:xlink="http://www.w3.org/1999/xlink" x="0px" y="0px"
	 width="19.25px" height="20.004px" viewBox="0 0 19.25 20.004" enable-background="new 0 0 19.25 20.004" xml:space="preserve">
<path d="M19.031,13.979l-0.279,0.094c0,0-0.092-0.771-0.15-0.959c-0.064-0.184-0.311-0.402-0.311-0.402s0.4-0.152,0.433-0.34
	c0.028-0.184-0.122-0.492-0.218-0.586c-0.092-0.094-0.371,0.465-0.371,0.465s0.017-0.479-0.061-0.617
	c-0.078-0.141-0.139-0.188-0.139-0.188s0.152,0,0.168-0.107c0.016-0.105,0.062-0.465-0.092-0.512
	c-0.155-0.045-0.356-0.031-0.387,0.156c-0.031,0.186-0.141,0.371-0.092,0.447c0.045,0.078-0.063,0.246-0.078,0.463
	c-0.016,0.219,0,0.695-0.078,0.787c-0.076,0.094-0.17,0.031-0.309,0.141c-0.139,0.111-0.309,0.309-0.309,0.309
	s-0.125-0.354-0.25-0.418c-0.121-0.061-0.184-0.076-0.184-0.076s0.125-0.385-0.017-0.463c-0.138-0.078-0.276-0.078-0.323,0.094
	c-0.046,0.17,0.016,0.369,0,0.416c-0.015,0.049-0.201,0.17-0.201,0.17l-0.078-0.246c0,0,0.217-0.186,0.109-0.322
	c-0.109-0.141-0.216-0.189-0.277-0.156c-0.062,0.031-0.156,0.17-0.156,0.277c0,0.109,0,0.201,0,0.201h-0.123
	c0,0,0.201-2.579-0.262-4.14c-0.465-1.561-1.932-2.457-1.932-2.457V0H5.267v6.518H4.835v1.391l0.247,0.045v5.935l-2.734,4.816H0
	v1.299h16.128l3.121-5.375L19.031,13.979z M12.188,5.403c0.271,0.076,0.481,0.16,0.608,0.217v0.299
	c-0.264-0.121-0.782-0.395-1.166-0.529c-0.478-0.168-0.879-0.232-0.879-0.232S11.507,5.223,12.188,5.403z M4.161,18.635H3.708
	l2.331-5.025h0.229L4.161,18.635z M5.438,13.221v-5.2l0.145,0.047c0,0,1.028,0.535,1.008,1.873
	C6.574,11.021,5.754,12.637,5.438,13.221z M11.617,14.02c0,0,0.053-2.77-0.834-4.582C9.698,7.218,6.611,6.583,6.611,6.583
	c2.021-0.102,4.225,1.215,4.799,2.967C11.985,11.301,11.617,14.02,11.617,14.02z M13.49,13.156c0,0,0.033-2.248-0.812-4.288
	c-1.16-2.803-5.428-3.17-5.428-3.17c2.759-0.104,4.882,1.01,5.766,2.637C13.901,9.962,13.49,13.156,13.49,13.156z"/>
</svg>
