<?xml version="1.0" encoding="utf-8"?>
<!-- Generator: Adobe Illustrator 16.0.4, SVG Export Plug-In . SVG Version: 6.00 Build 0)  -->
<!DOCTYPE svg PUBLIC "-//W3C//DTD SVG 1.1//EN" "http://www.w3.org/Graphics/SVG/1.1/DTD/svg11.dtd">
<svg version="1.1" id="Capa_1" xmlns="http://www.w3.org/2000/svg" xmlns:xlink="http://www.w3.org/1999/xlink" x="0px" y="0px"
	 width="20.003px" height="11.117px" viewBox="0 0 20.003 11.117" enable-background="new 0 0 20.003 11.117" xml:space="preserve">
<path d="M20.003,9.314l-0.034-1.517l-1.2-0.178L14.11,1.975l-0.315-0.033V1.518h-0.741V0.564l-0.281-0.107l-0.071-0.281L7.512,0
	L7.266,0.211L6.807,0.248L6.735,1.094l-0.81,0.035l0.034,0.389L5.642,1.553L4.865,2.93L4.16,2.965L0,9.027l0.291,1.184l8.637-0.35
	l1.02,1.256l4.904-0.25L14.446,9.59L20.003,9.314z M8.982,9.586l-0.023-7.74l0.143-0.059l0.774,8.893L8.982,9.586z M10.839,2.506
	h-0.738V1.529h0.738V2.506z M17.498,7.762l0.033,1.043l-0.65,0.053l-0.018-1.096H17.498z M14.128,8.645l-0.034-0.758h0.687
	L14.8,8.91l-0.584,0.053L14.128,8.645z"/>
</svg>
