<?xml version="1.0" encoding="utf-8"?>
<!-- Generator: Adobe Illustrator 16.0.4, SVG Export Plug-In . SVG Version: 6.00 Build 0)  -->
<!DOCTYPE svg PUBLIC "-//W3C//DTD SVG 1.1//EN" "http://www.w3.org/Graphics/SVG/1.1/DTD/svg11.dtd">
<svg version="1.1" id="Capa_1" xmlns="http://www.w3.org/2000/svg" xmlns:xlink="http://www.w3.org/1999/xlink" x="0px" y="0px"
	 width="20.004px" height="19.932px" viewBox="0 0 20.004 19.932" enable-background="new 0 0 20.004 19.932" xml:space="preserve">
<path d="M10.589,9.758c-0.201-0.303-0.376-0.073-0.679-0.024c-0.305,0.051-0.431,0.379-0.556,0.91C9.227,11.172,9.43,11.4,9.43,11.4
	h2.094c0,0-0.229-0.504-0.303-0.855C11.145,10.189,10.792,10.064,10.589,9.758z M12.584,8.388c0,0,0.066-1.312,0-1.548
	s-0.27-0.338-0.506-0.641c-0.235-0.303-0.27-0.605-0.403-0.807c-0.135-0.203-0.235-0.472-0.571-0.472
	c-0.338,0-0.336,0.234-0.673,0.201C10.093,5.09,9.656,5.461,9.521,5.697C9.388,5.933,9.353,6.874,9.186,7.109
	C9.018,7.344,9.388,8.388,9.388,8.388H12.584z M3.774,9.758C3.498,9.254,3.373,8.902,3.347,8.724
	C3.321,8.547,3.245,8.068,3.019,8.245C2.792,8.422,2.54,8.926,2.463,9.331c-0.077,0.402-0.253,0.807-0.682,1.084
	c-0.428,0.277-0.859,0.554-0.959,0.807c-0.101,0.256-0.075,0.53-0.227,0.885c-0.152,0.354-0.126,0.479-0.303,0.656
	c-0.178,0.178-0.378,0.252-0.253,0.48c0.127,0.228,0.353,0.353,0.353,0.605c0,0.252,0.026,0.452,0.026,0.452h2.978
	c0,0,0.506-0.68,0.48-0.983c-0.025-0.303-0.102-0.58,0-0.857c0.101-0.275,0.025-0.305,0.075-0.529c0.05-0.227,0.05-0.326-0.05-0.604
	C3.8,11.047,4.052,10.263,3.774,9.758z M19.689,3.993c-0.354,0.09-0.398,0.4-0.664,0.578c-0.268,0.178-0.844,0-1.242-0.043
	c-0.399-0.047-0.664-0.047-0.842,0.131S15.92,4.704,15.7,4.704c-0.222,0-0.931,0.178-1.197,0.355
	c-0.265,0.178-1.196,0.043-1.595,0.131c-0.4,0.09-0.4,1.151-0.4,1.151s0.577-0.043,0.842,0c0.269,0.048,0.799,0,0.934,0.224
	c0.132,0.223,0.617,0,0.841,0.266c0.224,0.269,1.151,0.045,0.933,0.488c-0.197,0.395-0.011,4.947,0.034,5.963
	c-0.204,0.336-0.483,0.672-0.794,0.693c-0.631,0.043-1.262,0.293-1.684,0.547c-0.42,0.252-0.672,0.291-1.135,0.42
	c-0.461,0.125-2.606,0.438-3.025,0.447c-2.155,0.032-2.689,0.602-2.689,0.602h13.238V3.941C19.93,3.947,19.826,3.961,19.689,3.993z
	 M4.533,7.286C4.458,7.034,4.458,6.704,4.331,6.353c-0.125-0.354-0.58-0.529-0.706-0.58s-0.077,0.303-0.077,0.58
	c0,0.276,0.152,0.682,0.228,0.858C3.84,7.361,3.721,8.008,3.685,8.197H4.83C4.825,8.148,4.818,8.088,4.811,8.019
	C4.786,7.816,4.608,7.538,4.533,7.286z M8.269,8.187C8,7.851,8.033,7.547,7.897,7.243C7.764,6.941,7.764,6.502,7.764,6.236
	c0-0.271-0.37-1.045-0.572-1.078s-0.539,0.605-0.64,0.908C6.45,6.368,6.316,7.211,6.316,7.581S6.148,8.355,6.113,8.691
	C6.092,8.9,6.111,9.2,6.127,9.398h2.346C8.483,9.178,8.495,8.469,8.269,8.187z"/>
</svg>
