<?xml version="1.0" encoding="utf-8"?>
<!-- Generator: Adobe Illustrator 16.0.4, SVG Export Plug-In . SVG Version: 6.00 Build 0)  -->
<!DOCTYPE svg PUBLIC "-//W3C//DTD SVG 1.1//EN" "http://www.w3.org/Graphics/SVG/1.1/DTD/svg11.dtd">
<svg version="1.1" id="Capa_1" xmlns="http://www.w3.org/2000/svg" xmlns:xlink="http://www.w3.org/1999/xlink" x="0px" y="0px"
	 width="20.006px" height="15.768px" viewBox="0 0 20.006 15.768" enable-background="new 0 0 20.006 15.768" xml:space="preserve">
<path d="M20.006,11.852H17.56l-1.24-8.936c0,0-0.952-0.064-1.396-0.66C14.478,1.662,14.478,0,14.478,0H5.534
	c0,0,0,1.662-0.444,2.256c-0.445,0.596-1.4,0.66-1.4,0.66l-1.238,8.936H0v3.916h20.006V11.852z M11.858,0.646h0.459v1.109h-0.459
	V0.646z M10.47,0.646h0.46v1.109h-0.46V0.646z M9.083,0.646h0.459v1.109H9.083V0.646z M7.695,0.646h0.46v1.109h-0.46V0.646z
	 M6.309,0.646h0.46v1.109h-0.46V0.646z M10.728,13.061H9.286v-2.383h1.441V13.061L10.728,13.061z M13.56,6.455v3.856h-0.74v-3.78
	c0,0,0.07-2.486-2.854-2.486c-2.924,0-2.857,2.486-2.857,2.486v3.78H6.367V6.455c0,0-0.088-3.131,3.597-3.131
	C13.649,3.324,13.56,6.455,13.56,6.455z M13.705,1.756h-0.459v-1.11h0.459V1.756z"/>
</svg>
