<?xml version="1.0" encoding="utf-8"?>
<!-- Generator: Adobe Illustrator 16.0.4, SVG Export Plug-In . SVG Version: 6.00 Build 0)  -->
<!DOCTYPE svg PUBLIC "-//W3C//DTD SVG 1.1//EN" "http://www.w3.org/Graphics/SVG/1.1/DTD/svg11.dtd">
<svg version="1.1" id="Capa_1" xmlns="http://www.w3.org/2000/svg" xmlns:xlink="http://www.w3.org/1999/xlink" x="0px" y="0px"
	 width="19.502px" height="14.152px" viewBox="0 0 19.502 14.152" enable-background="new 0 0 19.502 14.152" xml:space="preserve">
<path d="M19.168,8.121c-0.982-2.979-5.59-5.688-6.295-6.086c-0.029-0.031-0.059-0.051-0.088-0.051l0,0
	c-0.471,0-0.852,4.026-0.852,8.992c0,0.727,0.008,1.432,0.023,2.108h-1.573v-2.553h-0.78v2.553H7.96V0c0,0-5.072,1.701-7.164,6.17
	c-1.724,3.681-0.202,6.156,0.391,6.916H0.265v1.066h19.009v-1.066h-0.683C19.014,12.5,20.025,10.727,19.168,8.121z M13.053,13.107
	h-0.716c-0.009-2.326-0.015-2.836-0.015-3.361c0-3.104,0.166-5.619,0.373-5.619c0.205,0,0.373,2.515,0.373,5.619
	C13.068,10.271,13.062,10.781,13.053,13.107z"/>
</svg>
