<?xml version="1.0" encoding="utf-8"?>
<!-- Generator: Adobe Illustrator 16.0.4, SVG Export Plug-In . SVG Version: 6.00 Build 0)  -->
<!DOCTYPE svg PUBLIC "-//W3C//DTD SVG 1.1//EN" "http://www.w3.org/Graphics/SVG/1.1/DTD/svg11.dtd">
<svg version="1.1" id="Capa_1" xmlns="http://www.w3.org/2000/svg" xmlns:xlink="http://www.w3.org/1999/xlink" x="0px" y="0px"
	 width="6.266px" height="20.007px" viewBox="0 0 6.266 20.007" enable-background="new 0 0 6.266 20.007" xml:space="preserve">
<path d="M6.031,0.534c0,0,0.252-0.26,0.232-0.354c-0.02-0.096-0.566,0.213-0.932,0.4C4.967,0.766,4.696,0.84,4.597,1.082
	C4.495,1.325,4.223,1.97,4.223,1.97s-0.111-0.057-0.12-0.15C4.093,1.726,3.98,1.605,3.832,1.642
	C3.682,1.681,3.691,1.849,3.618,1.886C3.543,1.921,3.403,2.081,3.47,2.222c0.064,0.139,0.093,0.26,0.139,0.297
	C3.652,2.556,3.637,2.704,3.58,2.751C3.524,2.798,3.47,2.788,3.377,2.743c-0.095-0.049-0.245-0.131-0.29-0.178
	C3.039,2.519,2.918,2.138,2.929,2.044C2.938,1.95,2.983,1.886,2.983,1.886S3.3,1.849,3.337,1.792
	c0.04-0.057,0.065-0.168,0.047-0.205c-0.02-0.039-0.037-0.066-0.119-0.066S2.957,1.53,2.88,1.558C2.808,1.587,2.537,1.604,2.5,1.632
	C2.462,1.661,2.462,1.765,2.49,1.829c0.029,0.064,0.019,0.104,0.084,0.104s0.12,0.027,0.12,0.027L2.686,2.249
	c0,0-0.361-0.598-0.858-1.045C1.333,0.757,0.103-0.034,0.029,0.001C-0.045,0.04,0.049,0.374,0.049,0.374S-0.045,0.476,0.029,0.71
	c0.073,0.232,0.504,0.457,0.504,0.457s0.028,0.225,0.148,0.346c0.121,0.119,0.41,0.26,0.41,0.26S1.167,2.128,1.323,2.21
	c0.159,0.084,0.373,0.15,0.373,0.15s0,0.27,0.141,0.334c0.14,0.066,0.361,0.057,0.361,0.057s-0.184,0.297-0.053,0.42
	c0.13,0.123,0.296,0.123,0.296,0.123s-0.027,0.24,0.086,0.279c0.111,0.035,0.187-0.039,0.187-0.039S2.676,3.776,2.798,3.833
	c0.12,0.057,0.224-0.074,0.224-0.074S3.04,3.935,3.169,3.925C3.3,3.917,3.347,3.868,3.347,3.868s0.158,0.17,0.112,0.271
	C3.412,4.243,3.243,4.505,3.243,4.505S3.031,4.513,3.039,4.681c0.011,0.168,0.13,0.197,0.149,0.26
	c0.019,0.066-0.038,0.318-0.12,0.357C2.983,5.333,2.817,5.437,2.808,5.509c-0.01,0.076-0.262,0.15-0.252,0.264
	c0.01,0.111,0.242,0.26,0.271,0.391c0.027,0.129,0.104,0.24,0.25,0.277c0.15,0.039,0.216,0.18,0.188,0.338
	C3.236,6.937,3.384,7.197,3.554,7.224C3.719,7.253,3.739,7.449,3.666,7.57C3.589,7.69,3.357,7.765,3.319,7.915
	c-0.036,0.15,0.038,0.279,0.038,0.279s-0.206,0.112-0.26,0.289C3.065,8.579,3.092,8.647,3.123,8.69L2.938,8.888L2.842,9.075
	C2.815,9.103,2.791,9.134,2.778,9.171C2.773,9.19,2.77,9.208,2.77,9.228L2.686,9.392v0.119L2.64,9.528v0.316h0.046v0.943
	L2.12,10.946v1.728l0.472,0.752v6.582h2.917v-6.582l0.471-0.752v-1.728l-0.562-0.157V9.845H5.49V9.536L5.416,9.507V9.392
	L5.412,9.384C5.416,9.32,5.406,9.243,5.368,9.193c-0.022-0.035-0.062-0.07-0.101-0.1L5.163,8.888L5.07,8.79L5.062,8.745L5.005,8.724
	L4.911,8.626V8.528c0,0-0.051-0.002-0.104-0.012L4.442,8.134H4.424c-0.067-0.096-0.12-0.188-0.116-0.229
	c0.008-0.104,0.11-0.131,0.11-0.215S4.411,7.14,4.495,7.04C4.577,6.937,4.67,6.704,4.661,6.608C4.652,6.517,4.652,6.376,4.652,6.376
	S4.911,6.563,4.95,6.675C4.988,6.786,4.997,7.14,5.062,7.14c0.064,0,0.187-0.203,0.177-0.354C5.23,6.638,5.054,6.452,5.109,6.413
	C5.165,6.376,5.557,6.22,5.565,5.817C5.572,5.415,5.267,5.258,5.024,5.09C4.783,4.923,4.67,4.812,4.697,4.671
	c0.029-0.139-0.193-0.383-0.242-0.502C4.411,4.048,4.372,3.665,4.372,3.665s0.309,0.41,0.373,0.4C4.81,4.055,5.461,4.14,5.461,4.14
	s0.104,0.252,0.161,0.252c0.053,0,0.102-0.131,0.111-0.205C5.741,4.113,5.817,3.955,5.76,3.898C5.704,3.843,5.647,3.786,5.557,3.813
	c-0.097,0.03-0.097,0.141-0.142,0.141c-0.048,0-0.55-0.148-0.596-0.188C4.772,3.729,4.512,3.2,4.512,3.2s0.104-0.074,0.104-0.18
	c0-0.1-0.018-0.447-0.018-0.447s0.213-0.138,0.23-0.213c0.02-0.076,0.02-0.121,0.02-0.121s0.187-0.057,0.206-0.158
	C5.072,1.978,5.079,1.8,5.184,1.782c0.101-0.018,0.214-0.066,0.271-0.186C5.512,1.475,5.48,1.352,5.48,1.352S5.622,1.251,5.647,1.14
	c0.026-0.111,0.038-0.178,0.038-0.178S6.088,0.804,6.106,0.7C6.123,0.599,6.031,0.534,6.031,0.534z"/>
</svg>
