<?xml version="1.0" encoding="utf-8"?>
<!-- Generator: Adobe Illustrator 16.0.4, SVG Export Plug-In . SVG Version: 6.00 Build 0)  -->
<!DOCTYPE svg PUBLIC "-//W3C//DTD SVG 1.1//EN" "http://www.w3.org/Graphics/SVG/1.1/DTD/svg11.dtd">
<svg version="1.1" id="Capa_1" xmlns="http://www.w3.org/2000/svg" xmlns:xlink="http://www.w3.org/1999/xlink" x="0px" y="0px"
	 width="19.843px" height="15.367px" viewBox="-10.144 0 19.843 15.367" enable-background="new -10.144 0 19.843 15.367"
	 xml:space="preserve">
<path d="M9.005,10.785L7.298,3.582h0.149V3.103H7.58V2.759H7.574l0.898-0.437h0.213V2.168L5.74,0H5.623L2.925,2.188v0.134h0.234
	l0.859,0.532H4.03v0.25h0.134v0.477h0.147L4.11,4.459C3.566,5.346,2.657,6.574,1.781,6.578C1.383,6.58,1.022,6.292,0.701,5.755
	L0.649,5.536h0.018V5.479h0.017V5.438H0.682l0.109-0.055h0.025V5.365L0.46,5.101H0.447L0.122,5.367v0.015h0.027l0.103,0.065h0.003
	v0.032h0.016v0.055h0.018l-0.2,0.869H0v0.052h0.047V6.96h0.118l2.144,8.407h6.994v-4.182h0.396v-0.4H9.005z M0.571,6.923L0.57,6.688
	c0,0,0.01-0.078,0.077-0.078s0.077,0.078,0.077,0.078v0.235H0.571z M0.213,6.688c0,0,0.011-0.078,0.077-0.078
	c0.067,0,0.078,0.078,0.078,0.078v0.235H0.213V6.688z M0.891,6.96V6.465c0.272,0.258,0.569,0.401,0.892,0.4
	c0.793-0.004,1.569-0.813,2.145-1.613l-1.267,5.533H2.095L0.625,6.96H0.891z M2.249,11.186h0.06v0.154L2.249,11.186z M4.966,15.084
	H3.688v-1.963c0,0,0.087-0.641,0.639-0.641c0.552,0,0.639,0.641,0.639,0.641V15.084z M7.923,15.084H6.645H6.643v-1.963
	c0,0,0.088-0.641,0.642-0.641c0.551,0,0.639,0.641,0.639,0.641V15.084z"/>
<path d="M-0.536,6.403l-0.196-0.868h0.016V5.479H-0.7V5.447h0.002l0.104-0.064h0.029V5.367l-0.327-0.265h-0.015l-0.355,0.263v0.018
	h0.027l0.107,0.055v0.041h0.014v0.057h0.019L-1.148,5.76C-1.47,6.293-1.831,6.58-2.228,6.578c-0.875-0.004-1.785-1.232-2.328-2.119
	l-0.201-0.878h0.147V3.104h0.134v-0.25h0.014l0.856-0.533h0.233V2.188L-6.066,0h-0.119L-9.13,2.167v0.154h0.212l0.901,0.438h-0.008
	v0.344h0.134v0.479h0.146l-1.706,7.203h-0.692v0.4h0.396v4.182h6.995l2.144-8.409h0.118V6.455h0.048V6.403H-0.536z M-7.087,15.084
	H-8.37v-1.963c0,0,0.089-0.641,0.641-0.641c0.552,0,0.641,0.641,0.641,0.641V15.084z M-0.659,6.688v0.235h-0.153V6.688
	c0,0,0.011-0.078,0.077-0.078S-0.659,6.688-0.659,6.688z M-1.171,6.688c0,0,0.012-0.078,0.078-0.078
	c0.065,0,0.077,0.078,0.077,0.078v0.235h-0.155V6.688z M-4.132,15.084h-1.281v-1.963c0,0,0.088-0.641,0.64-0.641
	c0.553,0,0.641,0.641,0.641,0.641V15.084z M-2.753,11.337v-0.151h0.059L-2.753,11.337z M-2.541,10.785h-0.565L-4.374,5.25
	c0.575,0.801,1.352,1.61,2.146,1.614c0.323,0.001,0.619-0.141,0.892-0.399v0.493h0.269L-2.541,10.785z"/>
</svg>
