<?xml version="1.0" encoding="utf-8"?>
<!-- Generator: Adobe Illustrator 16.0.4, SVG Export Plug-In . SVG Version: 6.00 Build 0)  -->
<!DOCTYPE svg PUBLIC "-//W3C//DTD SVG 1.1//EN" "http://www.w3.org/Graphics/SVG/1.1/DTD/svg11.dtd">
<svg version="1.1" id="Capa_1" xmlns="http://www.w3.org/2000/svg" xmlns:xlink="http://www.w3.org/1999/xlink" x="0px" y="0px"
	 width="17.66px" height="20.006px" viewBox="0 0 17.66 20.006" enable-background="new 0 0 17.66 20.006" xml:space="preserve">
<path d="M17.66,18.427h-1.451l-2.346-1.107h-0.469L12.541,1.536l-1.534-0.17l-0.214-0.598l-0.598-0.172c0,0-0.342-0.211-0.469-0.125
	C9.6,0.556,9.471,1.066,9.555,1.236c0.086,0.17,0.129,1.707,0.129,1.707S9.471,3.413,9.555,3.542C9.641,3.668,9.6,4.691,9.6,4.691
	S9.471,5.459,9.555,5.586c0.086,0.131-0.041,7.979-0.041,7.979s-0.555,0.467-0.555,0.639c0,0.17-0.088,0.428-0.256,0.471
	c-0.172,0.041-0.897,0.342-0.897,0.342L7.637,2.73c0,0,0.213-0.256,0.169-0.426C7.764,2.133,7.423,1.366,7.467,1.195
	c0.04-0.172,0-0.514-0.086-0.725C7.295,0.256,6.995,0,6.995,0S6.697,0.299,6.697,0.426c0,0.129-0.3,0.256-0.3,0.256L6.144,1.366
	L4.735,1.493L4.052,17.317l-2.729,1.107H0v1.58h17.66V18.427z M7.123,17.104H6.869V5.204h0.254V17.104z M10.921,17.104h-0.258V1.834
	h0.258V17.104z"/>
</svg>
