<?xml version="1.0" encoding="utf-8"?>
<!-- Generator: Adobe Illustrator 16.0.4, SVG Export Plug-In . SVG Version: 6.00 Build 0)  -->
<!DOCTYPE svg PUBLIC "-//W3C//DTD SVG 1.1//EN" "http://www.w3.org/Graphics/SVG/1.1/DTD/svg11.dtd">
<svg version="1.1" id="Capa_1" xmlns="http://www.w3.org/2000/svg" xmlns:xlink="http://www.w3.org/1999/xlink" x="0px" y="0px"
	 width="20.004px" height="14.729px" viewBox="0 0 20.004 14.729" enable-background="new 0 0 20.004 14.729" xml:space="preserve">
<path d="M18.39,9.125c0.627-0.027,1.25-0.027,1.305-0.271c0.055-0.246-0.217-0.221-0.135-0.436c0.08-0.217,0.324-0.381,0.434-0.734
	c0.107-0.352-0.57-1.274-1.249-1.737c-0.679-0.46-1.519-1.029-1.737-1.246c-0.218-0.22-0.381-0.354-0.924-0.761
	c-0.543-0.407-0.922-1.522-1.195-1.848c-0.27-0.326-0.65-1.031-0.869-1.168c-0.215-0.137-0.678-0.406-0.895-0.217
	c-0.217,0.188-0.217,0.354-0.57,0.326c-0.353-0.028-0.707,0.434-0.814,0.786s-0.352,1.033-0.352,1.304
	c0,0.272,0.569,1.086,0.487,1.496c-0.081,0.405,0.162,1.055,0.108,1.489c-0.053,0.437,0.137,0.461,0.082,1.007
	c-0.055,0.541,0,0.811,0.055,1.167c0.055,0.352-0.299,0.323,0.189,0.705c0.488,0.379,0.517,0.948,0.869,1.11
	c0.127,0.062,0.234,0.16,0.328,0.262h-1.119c-0.039-0.045-0.088-0.1-0.16-0.18c-0.271-0.297,0,0-0.461-0.053
	c-0.461-0.057-0.246-0.029-0.461,0.024c-0.217,0.056-0.244,0.027-0.787-0.024c-0.543-0.057-0.517,0-0.598,0
	c-0.082,0-0.327,0.024-0.625,0c-0.148-0.014-0.411,0.106-0.638,0.231h-0.74c0.169-0.204,0.416-0.526,0.536-0.803
	c0.189-0.436,0.381-0.896,0.517-0.896c0.135,0,0.435,0.106,0.516-0.056c0.081-0.162-0.434-3.093-0.191-3.421
	c0.245-0.324,0.38-1.221,0.57-1.492c0.189-0.27,0.299-0.598,0.135-0.84C9.838,2.609,9.405,2.529,9.405,2.202
	c0-0.322,0.081-0.298-0.028-0.679C9.268,1.145,8.834,0.52,8.589,0.548C8.346,0.575,7.884,0.575,7.504,0.385
	c-0.38-0.192-0.217-0.328-0.706-0.356C6.31,0.005,6.445-0.05,5.955,0.111C5.468,0.273,5.468,0.385,5.033,0.385
	c-0.434,0-0.651-0.111-0.896,0.217c-0.245,0.324-0.57,0.461-0.543,0.842C3.62,1.824,3.892,2.61,3.62,2.774
	C3.351,2.936,3.187,2.719,3.024,3.07C2.862,3.427,2.047,5.354,1.775,5.975C1.504,6.6,1.667,6.9,1.151,7.253
	c-0.515,0.353-0.706,0.623-0.706,1.14c0,0.517,0.354,0.681,0.407,1.06c0.056,0.381-0.107,0.731,0.056,0.813
	c0.052,0.027,0.108,0.062,0.161,0.099h-1.07v4.364h19.995v-4.364h-2.911C17.354,9.945,17.929,9.145,18.39,9.125z M5.929,8.635
	C5.494,8.609,3.704,8.473,3.704,8.473S4.001,8.338,4.41,8.23C4.815,8.121,4.924,7.85,5.168,7.794c0.245-0.053,0.164,0,0.436,0.166
	c0.271,0.162,0.244,0.217,0.46,0.217c0.218,0,0.272,0.189,0.325,0.326C6.445,8.635,6.363,8.664,5.929,8.635z M8.209,2.094
	c0,0,0.081,0.08,0.408,0.299C8.942,2.61,8.916,2.61,9.025,2.719c0.107,0.109-0.109,0.297,0,0.49c0.107,0.188,0,0.434-0.054,0.541
	c-0.055,0.108-0.11-0.896-0.219-0.978S8.128,2.284,8.209,2.094z M7.504,8.473c0,0,0.027-0.434,0.271-0.379
	C8.019,8.149,8.209,8.23,8.454,8.311C8.699,8.393,9.131,8.42,8.807,8.473C8.482,8.527,8.372,8.582,8.074,8.635
	C7.775,8.689,7.531,8.635,7.504,8.473z M13.8,1.093c0,0,0.481,0.609,0.707,0.93c0.225,0.322,0.16,1.125,0.16,1.125
	s-0.385-0.897-0.545-1.061c-0.16-0.16-0.417-0.416-0.609-0.672c-0.193-0.258-0.418,0-0.418,0C13.416,0.773,13.8,1.093,13.8,1.093z
	 M15.785,8.664c-0.462,0.024-0.897-0.029-1.277-0.029s-0.896-0.053-1.11-0.053c-0.219,0-0.709,0.217-0.789-0.08
	c-0.082-0.299-0.299-0.843-0.244-1.031c0.054-0.193,0.352-1.221,0.379-1.033c0.027,0.189-0.081,1.74,0.109,1.822
	c0,0,0.76-0.027,0.84-0.137c0.082-0.109,0.272-0.844,0.326-0.572c0.056,0.271,0.516,0.681,0.599,0.681
	c0.081,0,0.434-0.055,0.651,0.027c0.215,0.082,0.678-0.055,0.812,0.027c0.137,0.082,0.516-0.248,0.68-0.248
	c0.162,0,0.434,0.108,0.489-0.056c0.054-0.161,0.136-1.302,0.217-1.03c0.081,0.271,0.134,0.976,0.325,1.058
	c0.189,0.082,0.407,0.109,0.598,0.219c0.189,0.107,0.324,0.056,0.488,0.162c0.163,0.109-0.245,0.242-0.57,0.217
	c-0.326-0.026-0.761-0.055-0.896,0.08c-0.138,0.14-0.408,0.056-0.599,0.029C16.624,8.689,16.246,8.637,15.785,8.664z"/>
</svg>
