<?xml version="1.0" encoding="utf-8"?>
<!-- Generator: Adobe Illustrator 16.0.4, SVG Export Plug-In . SVG Version: 6.00 Build 0)  -->
<!DOCTYPE svg PUBLIC "-//W3C//DTD SVG 1.1//EN" "http://www.w3.org/Graphics/SVG/1.1/DTD/svg11.dtd">
<svg version="1.1" id="Capa_1" xmlns="http://www.w3.org/2000/svg" xmlns:xlink="http://www.w3.org/1999/xlink" x="0px" y="0px"
	 width="19.3px" height="20.004px" viewBox="0 0 19.3 20.004" enable-background="new 0 0 19.3 20.004" xml:space="preserve">
<path d="M18.805,18.453V0h-0.812l-3.477,2.664c0,0-0.463,0.58-0.463,1.508v0.287c-1.131-0.467-2.622-0.752-4.258-0.752
	c-1.779,0-3.388,0.338-4.548,0.877V4.172c0-0.928-0.463-1.508-0.463-1.508L1.306,0h-0.81v18.453H0v1.551h19.3v-1.551H18.805z
	 M11.808,10.832c0.033,0.695-0.825,1.582-0.99,1.85c-0.165,0.262,0.528,1.385,0.857,2.076c0.33,0.693,0.166,1.354,0.166,1.354
	s0.428,0.464,0.527,1.058c0.098,0.592,0.065,1.222,0.065,1.222l0.047,0.063h-1.918l-0.015-0.197l-0.084-1.205
	c0,0,0.248-0.163,0.232-0.327c-0.017-0.168-0.479-0.562-0.479-0.562L10.07,14.91c0,0,0.494-0.199,0.561-0.662
	c0.066-0.459-0.593-1.252-0.593-1.252v-0.66h0.248V12.17H9.016v0.166h0.247v0.66c0,0-0.66,0.793-0.593,1.252
	c0.065,0.463,0.56,0.662,0.56,0.662l-0.148,1.25c0,0-0.462,0.395-0.479,0.562c-0.017,0.163,0.232,0.327,0.232,0.327L8.75,18.256
	l-0.014,0.197H6.297c0.021-0.141,0.053-0.346,0.101-0.627c0.098-0.594,0.494-1.221,0.825-1.615c0.329-0.396-0.067-0.793,0.099-1.486
	c0.165-0.69,1.023-1.352,1.221-1.947c0.197-0.592-0.265-1.979-0.727-2.472C7.354,9.809,6.299,9.117,6.068,8.162
	c-0.231-0.959,1.22-1.85,1.55-2.014c0.33-0.166,0.659,0.1,0.626,0.361C8.211,6.775,7.287,6.939,6.99,7.466
	c-0.297,0.529,0.165,1.352,0.595,1.52C8.014,9.15,8.872,8.885,8.872,8.885s-0.66-0.164-0.857-0.328
	c-0.198-0.166-0.165-0.496-0.1-0.826c0.067-0.328,0.529-0.494,1.023-0.297c0.496,0.199,1.09,1.451,1.09,1.451
	s0.56-0.264,0.923-0.461c0.361-0.199,0.627-0.824,0.463-1.188c-0.166-0.365-1.023-0.297-1.354-0.297S9.762,6.644,9.795,6.345
	c0.034-0.297,0.726-0.197,1.253-0.033c0.529,0.164,1.519,0.594,1.519,0.955c0,0.365-0.132,1.125-0.496,1.686
	C11.708,9.514,11.775,10.141,11.808,10.832z M9.856,12.895L9.659,12.85v-0.004L9.65,12.848l-0.01-0.002v0.004l-0.197,0.045v-0.463
	h0.412L9.856,12.895L9.856,12.895z M10,13.273c0,0,0.496,0.692,0.36,0.891c-0.137,0.197-0.447-0.023-0.533-0.209
	c-0.087-0.188-0.049-0.385-0.013-0.471C9.852,13.396,9.938,13.174,10,13.273z M9.486,13.484c0.036,0.086,0.074,0.283-0.013,0.471
	c-0.086,0.186-0.396,0.406-0.533,0.209c-0.135-0.197,0.36-0.891,0.36-0.891C9.362,13.174,9.449,13.396,9.486,13.484z"/>
</svg>
