<?xml version="1.0" encoding="utf-8"?>
<!-- Generator: Adobe Illustrator 16.0.4, SVG Export Plug-In . SVG Version: 6.00 Build 0)  -->
<!DOCTYPE svg PUBLIC "-//W3C//DTD SVG 1.1//EN" "http://www.w3.org/Graphics/SVG/1.1/DTD/svg11.dtd">
<svg version="1.1" id="Capa_1" xmlns="http://www.w3.org/2000/svg" xmlns:xlink="http://www.w3.org/1999/xlink" x="0px" y="0px"
	 width="20.191px" height="12.188px" viewBox="0 0 20.191 12.188" enable-background="new 0 0 20.191 12.188" xml:space="preserve">
<path d="M15.664,6.063c-0.049-0.164-0.584-1.932-0.61-2.024c-0.089,0-3.829,0-3.829,0s-0.179-2.006-0.186-2.08H8.412
	c-0.006,0.074-0.183,2.08-0.183,2.08s-3.741,0-3.827,0c-0.029,0.094-0.564,1.86-0.614,2.024c0.136,0,4.264,0,4.264,0
	S7.755,9.437,7.745,9.552h3.963C11.698,9.437,11.4,6.063,11.4,6.063S15.529,6.063,15.664,6.063z M8.297,9.157
	c0,0,0.193-3.242,0.197-3.342c-0.113,0-4.214,0-4.214,0l0.438-1.598c0,0,3.77,0,3.87,0c0.007-0.086,0.128-2.154,0.128-2.154h2.02
	c0,0,0.123,2.068,0.128,2.154c0.103,0,3.873,0,3.873,0l0.437,1.598c0,0-4.101,0-4.214,0c0.003,0.101,0.197,3.342,0.197,3.342H8.297z
	 M12.197,5.174l-0.051-0.299h-2.141l-0.022-1.26H9.57l-0.017,1.26H7.415l-0.05,0.299H9.55L9.529,6.773h0.515l-0.029-1.599H12.197z
	 M15.315,0.399c0,0-4.154-0.51-5.237-0.377c-1.083,0.134-6.73,0.499-6.73,0.499L0,10.481c0,0,0.451,1.422,0.774,1.422
	c0.327,0,19.417,0.285,19.417,0.285L15.315,0.399z M6.146,10.781l0.556-3.816H2.241l1.305-3.607h3.684l0.285-1.946h4.426
	l0.285,1.946h3.685l1.303,3.607h-4.461l0.556,3.816H6.146z"/>
</svg>
