<?xml version="1.0" encoding="utf-8"?>
<!-- Generator: Adobe Illustrator 16.0.4, SVG Export Plug-In . SVG Version: 6.00 Build 0)  -->
<!DOCTYPE svg PUBLIC "-//W3C//DTD SVG 1.1//EN" "http://www.w3.org/Graphics/SVG/1.1/DTD/svg11.dtd">
<svg version="1.1" id="Capa_1" xmlns="http://www.w3.org/2000/svg" xmlns:xlink="http://www.w3.org/1999/xlink" x="0px" y="0px"
	 width="20.004px" height="18.139px" viewBox="0 0 20.004 18.139" enable-background="new 0 0 20.004 18.139" xml:space="preserve">
<path d="M19.725,11.789v-0.172c0,0-0.957-0.021-0.977-0.067c-0.018-0.049-0.479-0.267-0.479-0.267s-0.662-2.299-0.729-2.513
	c-0.063-0.217-0.496-0.383-0.578-0.479c-0.084-0.101-0.032-1.89-0.166-2.138c-0.133-0.246-0.76-0.312-0.912-0.312
	c-0.146,0-0.098-0.199-0.03-0.199c0.065,0,0.03-0.215,0.018-0.398c-0.018-0.18-0.051-0.396-0.248-0.428
	c-0.199-0.033-0.432,0-0.547,0.23c-0.115,0.229,0.148,0.58,0.148,0.58l-0.031,0.196c0,0-0.545,0-0.745,0.052
	c-0.198,0.049-0.083,0.61-0.034,1.19c0.051,0.578,0.48,1.688,0.564,1.935c0.082,0.25,0.36,0.268,0.36,0.268l-0.246,0.246v2.432
	c-0.352-0.012-0.479-0.023-0.889-0.035v-0.357H13.59c0,0,0-0.183-0.133-0.23c-0.131-0.051-0.197-0.084-0.197-0.084l-0.248-2.049
	c0,0,0.146-0.053,0.146-0.186c0-0.132-0.246-1.604-0.246-1.898c0-0.301,0.031-0.945-0.066-1.111
	c-0.099-0.165-0.547-0.215-0.646-0.23c-0.099-0.017-0.293-0.021-0.308-0.139l0.006-0.144c0,0,0.045-0.092,0.052-0.143
	c0.004-0.052,0.008-0.074,0.008-0.074s0.024-0.053,0.028-0.115c0.005-0.062-0.012-0.387-0.284-0.422
	c-0.272-0.039-0.438,0.104-0.445,0.295c-0.008,0.193,0.017,0.312,0.033,0.35c0.017,0.038,0.065,0.13,0.062,0.189
	c-0.004,0.059,0.025,0.146-0.059,0.195c-0.084,0.051-0.309,0.051-0.447,0.061c-0.145,0.008-0.396,0-0.438,0.24
	c-0.043,0.236,0.025,1.166,0.055,1.385c0,0,0.206,1.508,0.243,1.646c0.037,0.135,0.188,0.174,0.188,0.174v2.617l-0.15,0.092
	c-0.917,0-1.203-0.027-2.157-0.051v-0.166H8.243V9.349c0,0,0.24,0.086,0.275-0.019c0.033-0.102,0.155-3.108,0.155-3.108
	s-0.069-0.205-0.242-0.24C8.259,5.948,7.762,5.912,7.728,5.81c0,0-0.064-0.215-0.038-0.266c0.025-0.05,0.054-0.205,0.054-0.205
	S7.77,5.216,7.77,5.179c0-0.039-0.029-0.369-0.323-0.39C7.155,4.775,7.086,4.974,7.082,5.162C7.08,5.357,7.129,5.523,7.138,5.57
	c0.008,0.045,0.004,0.152,0.004,0.182c0,0.028,0.025,0.062-0.06,0.077C6.998,5.841,6.356,5.873,6.284,5.921
	C6.212,5.968,6.111,6.048,6.12,6.214c0.008,0.164-0.017,2.094-0.031,2.198C6.076,8.519,6.025,9.164,6.046,9.259
	c0.022,0.094,0.183,0.112,0.183,0.112s-0.045,1.964-0.038,2.03c0.009,0.07,0.012,0.173-0.022,0.222
	c-0.033,0.048-0.07,0.173-0.07,0.173H5.397v0.094H4.248V9.404L4.103,9.126c0,0,0.229,0.049,0.314-0.072s0.291-0.437,0.254-0.582
	c-0.037-0.144,0.182-0.81,0.254-1.256C4.998,6.767,5.046,6.14,5.021,5.994C4.998,5.849,4.925,5.716,4.743,5.693
	c-0.181-0.024-0.641,0-0.653-0.098C4.078,5.496,4.103,5.341,4.103,5.341s0.168-0.23,0.15-0.431C4.235,4.711,4.061,4.49,3.758,4.513
	C3.456,4.535,3.479,4.816,3.467,4.966C3.456,5.117,3.46,5.271,3.486,5.287c0.023,0.017,0,0.138,0,0.187s-0.03,0.146-0.127,0.152
	C3.261,5.632,2.815,5.687,2.718,5.687c-0.098,0-0.261,0.072-0.291,0.254C2.398,6.12,2.336,7.041,2.3,7.156
	C2.264,7.271,2.095,8.256,2.095,8.256S1.913,8.509,1.877,8.708c-0.036,0.2-0.513,2.305-0.531,2.383
	c-0.019,0.08-0.042,0.207-0.11,0.221c-0.066,0.01-0.272,0.039-0.327,0.094c-0.054,0.055-0.097,0.193-0.097,0.193H0v2.029h20.004
	v-1.843C19.915,11.785,19.825,11.785,19.725,11.789z"/>
</svg>
