<?xml version="1.0" encoding="utf-8"?>
<!-- Generator: Adobe Illustrator 16.0.4, SVG Export Plug-In . SVG Version: 6.00 Build 0)  -->
<!DOCTYPE svg PUBLIC "-//W3C//DTD SVG 1.1//EN" "http://www.w3.org/Graphics/SVG/1.1/DTD/svg11.dtd">
<svg version="1.1" id="Capa_1" xmlns="http://www.w3.org/2000/svg" xmlns:xlink="http://www.w3.org/1999/xlink" x="0px" y="0px"
	 width="19.502px" height="15.52px" viewBox="0 0 19.502 15.52" enable-background="new 0 0 19.502 15.52" xml:space="preserve">
<path d="M0,0v15.52h19.502V0H0z M0.867,14.813V8.821l1.051,0.631c0,0,2.103,0.49,2.417,0.771c0.314,0.279,0.876,0.596,1.367,0.699
	c0.49,0.105,1.085,0.597,1.437,0.667c0.351,0.07,2.137,1.263,2.487,1.542c0.35,0.28,0.14,0.352,0.912,0.631
	c0.771,0.281,0.876,0.667,1.121,0.911c0.046,0.046,0.096,0.095,0.146,0.142H0.867V14.813z M1.193,8.587c0,0,0.023-1.097,0.373-1.798
	c0.352-0.701,1.238-1.075,1.238-1.075S2.221,6.508,2.175,7.163C2.127,7.816,2.104,8.844,2.104,8.844L1.684,7.7L1.193,8.587z
	 M2.951,7.352c0.222-1.203,0.792-1.646,0.792-1.646S3.692,6.532,3.529,7.21C3.367,7.885,3.273,9.242,3.273,9.242
	S2.729,8.555,2.951,7.352z M4.692,9.472c0,0-0.537-1.107-0.601-1.993C4.028,6.591,4.503,5.99,4.503,5.99l0.063,0.601l0.568-0.598
	C5.042,6.094,4.771,6.464,4.692,7.382C4.598,8.49,4.692,9.472,4.692,9.472z M5.611,7.287c0.253-0.884,0.918-1.361,0.918-1.361
	s-0.285,0.698-0.444,1.71c-0.158,1.014-0.158,2.691-0.158,2.691S5.357,8.175,5.611,7.287z M8.207,6.275c0,0-0.635,1.012-0.729,1.962
	c-0.095,0.95-0.158,2.69-0.158,2.69S6.782,8.586,6.876,7.605C6.972,6.624,7.32,6.211,7.32,6.211L7.288,7.034L8.207,6.275z
	 M8.995,8.824c-0.126,1.17-0.221,2.848-0.221,2.848S8.14,9.708,8.393,8.538c0.254-1.172,1.362-1.772,1.362-1.772
	S9.12,7.651,8.995,8.824z M10.024,8.307c0.466-1.121,1.495-1.868,1.495-1.868s-0.561,0.934-0.771,2.312
	c-0.209,1.377-0.421,4.415-0.421,4.415l-0.279-1.401l-0.444,0.841C9.604,12.605,9.556,9.427,10.024,8.307z M11.588,14.03
	c0,0-0.022-4.438,0.304-5.396c0.328-0.959,1.028-1.846,1.028-1.846l-0.374,1.589l1.122-1.379c0,0-0.444,1.45-1.101,3.106
	C12.048,11.427,11.588,14.03,11.588,14.03z M13.246,10.387c0.28-1.543,2.478-2.967,2.478-2.967s-1.519,1.938-1.916,3.363
	c-0.396,1.425-0.771,3.855-0.771,3.855S12.967,11.927,13.246,10.387z M18.679,14.822h-5.136c0,0,1.647-0.744,1.765-1.136
	s0.195-1.06,0.51-1.254c0.313-0.197,1.543-0.662,1.543-1.533c0-0.274-0.995-1.017-1.229-1.251C15.896,9.413,15.739,9.139,16.17,9.1
	c0.431-0.04,1.881-0.237,1.881-0.667c0-0.432-0.94-1.098-1.763-1.333c-0.824-0.235-2.704-0.354-3.254-0.627
	c-0.549-0.274-1.059-0.433-2.156-0.55c-1.097-0.117-2.43-0.04-2.979-0.195C7.35,5.572,6.37,5.453,5.586,5.415
	c-0.785-0.041-2.469-0.157-2.9-0.157H0.967V4.787h17.712V14.822z M17.885,6.43c0,0-0.305-0.393-0.608-0.479
	c-0.307-0.087-0.48,0.261-0.48,0.261C16.796,6.474,17.885,6.43,17.885,6.43z M17.276,13.308c-0.35-0.175-0.61,0.521-0.61,0.521
	c0,0.261,1.044,0.131,1.044,0.131S17.623,13.482,17.276,13.308z M14.489,5.821c0,0,0-0.174-0.391-0.479
	c-0.393-0.305-0.654,0.306-0.654,0.306C13.662,6.081,14.489,5.821,14.489,5.821z"/>
</svg>
