<?xml version="1.0" encoding="utf-8"?>
<!-- Generator: Adobe Illustrator 16.0.4, SVG Export Plug-In . SVG Version: 6.00 Build 0)  -->
<!DOCTYPE svg PUBLIC "-//W3C//DTD SVG 1.1//EN" "http://www.w3.org/Graphics/SVG/1.1/DTD/svg11.dtd">
<svg version="1.1" id="Capa_1" xmlns="http://www.w3.org/2000/svg" xmlns:xlink="http://www.w3.org/1999/xlink" x="0px" y="0px"
	 width="20.003px" height="18.247px" viewBox="0 0 20.003 18.247" enable-background="new 0 0 20.003 18.247" xml:space="preserve">
<path d="M19.345,5.796c-1.075-0.585-5.18-1.748-10.643-1.544C2.892,4.47,0.109,5.522,0.17,6.52C0.2,7.041,1.242,8.096,2.232,8.986H0
	v0.65h2.976c0.319,0.272,0.598,0.5,0.781,0.648H0v0.559h4.678c0.34,0.141,0.788,0.271,1.296,0.288
	c1.136,0.035,1.975,0.345,2.153,0.757c0.151,0.346,0.091,1.908,0.067,2.13h3.507c-0.033-0.333-0.082-2.027,0.225-2.302
	c0.39-0.344,2.662-0.242,3.264-0.585c0.6-0.344,4.665-4.061,4.665-4.061S20.421,6.381,19.345,5.796z M16.183,9.729
	c-0.38-0.122-1.201-0.309-2.643-0.422C9.166,8.956,5.705,9.375,4.835,9.513C4.371,9.587,4.013,9.679,3.769,9.75L1.958,8.035
	c0.539-0.3,2.052-0.886,5.869-1.09c5.201-0.278,8.333,0.486,9.364,0.848c0.376,0.132,0.623,0.263,0.783,0.367L16.183,9.729z"/>
</svg>
