<?xml version="1.0" encoding="utf-8"?>
<!-- Generator: Adobe Illustrator 16.0.4, SVG Export Plug-In . SVG Version: 6.00 Build 0)  -->
<!DOCTYPE svg PUBLIC "-//W3C//DTD SVG 1.1//EN" "http://www.w3.org/Graphics/SVG/1.1/DTD/svg11.dtd">
<svg version="1.1" id="Capa_1" xmlns="http://www.w3.org/2000/svg" xmlns:xlink="http://www.w3.org/1999/xlink" x="0px" y="0px"
	 width="20.003px" height="20.84px" viewBox="0 0 20.003 20.84" enable-background="new 0 0 20.003 20.84" xml:space="preserve">
<path d="M19.4,15.201v-1.725h-0.452c-1.136-1.062-4.17-3.881-4.386-4.031c-0.266-0.186-0.652-0.344-0.676-0.506
	c-0.023-0.158,0-0.98-0.049-1.164c0,0,0.305-0.096,0.326-0.398c0.024-0.307-0.146-0.426-0.146-0.426s0.072-0.357-0.096-0.529
	c-0.168-0.174-0.361-0.107-0.424-0.16c-0.062-0.055-0.191-0.055-0.191,0c0,0.053-0.146,0.318-0.146,0.318s-0.205,0.146-0.17,0.184
	c0.037,0.041,0.037,0.082,0.037,0.082s-0.156,0.264-0.048,0.316c0.108,0.055,0.181,0.082,0.181,0.082l-0.013,0.557l-2.334-0.883
	c-0.004-0.027-0.008-0.049-0.004-0.057c0.009-0.029,0.053-0.059,0.009-0.129s-0.109-0.148-0.1-0.18
	c0.009-0.029-0.117-0.059-0.117-0.059s0.062-0.18,0.126-0.189c0.063-0.01,0.155-0.078,0.155-0.078s0.115-0.369,0-0.787
	c-0.117-0.414-0.528-0.709-0.854-0.727C10.016,4.71,10.008,4.708,10,4.71c-0.009-0.002-0.017,0-0.027,0.002
	C9.65,4.73,9.239,5.024,9.122,5.438c-0.116,0.418,0,0.787,0,0.787s0.092,0.068,0.154,0.078c0.063,0.01,0.128,0.189,0.128,0.189
	s-0.128,0.03-0.117,0.06c0.007,0.031-0.055,0.109-0.101,0.18s0,0.1,0.009,0.129C9.197,6.868,9.197,6.89,9.192,6.917L6.856,7.8
	L6.845,7.243c0,0,0.071-0.027,0.181-0.082c0.109-0.053-0.05-0.316-0.05-0.316s0-0.041,0.037-0.082
	c0.036-0.037-0.168-0.184-0.168-0.184S6.698,6.313,6.698,6.261c0-0.055-0.132-0.055-0.191,0c-0.061,0.053-0.254-0.014-0.424,0.16
	C5.913,6.593,5.986,6.95,5.986,6.95S5.816,7.069,5.84,7.376c0.025,0.303,0.327,0.398,0.327,0.398
	c-0.05,0.184-0.023,1.006-0.05,1.164C6.094,9.101,5.708,9.259,5.441,9.444c-0.216,0.15-3.246,2.972-4.384,4.031H0.605v1.726H0.002
	v0.931h6.214v-0.931H5.991c0.002-0.193,0.008-0.447,0.008-0.703c0-0.531,0.409-1.59,0.772-2.892
	c0.363-1.301,0.713-3.025,0.713-3.025s0.146,0.105,0.774-0.08c0.23-0.066,0.459-0.252,0.654-0.457
	c0.153,0.016,0.35,0.004,0.556-0.088C9.955,7.735,9.967,6.95,9.967,6.95l0.036-0.066L10.04,6.95c0,0,0.009,0.785,0.5,1.006
	c0.205,0.092,0.396,0.104,0.553,0.088c0.193,0.205,0.425,0.391,0.654,0.457c0.629,0.186,0.773,0.08,0.773,0.08
	s0.35,1.725,0.712,3.025c0.362,1.302,0.771,2.357,0.771,2.892c0,0.256,0.004,0.51,0.01,0.703h-0.227v0.931h6.215v-0.931H19.4z
	 M5.647,10.505l-2.224,2.917L3.06,13.435L5.647,10.505z M16.944,13.435l-0.36-0.013l-2.226-2.917L16.944,13.435z"/>
</svg>
