<?xml version="1.0" encoding="utf-8"?>
<!-- Generator: Adobe Illustrator 16.0.4, SVG Export Plug-In . SVG Version: 6.00 Build 0)  -->
<!DOCTYPE svg PUBLIC "-//W3C//DTD SVG 1.1//EN" "http://www.w3.org/Graphics/SVG/1.1/DTD/svg11.dtd">
<svg version="1.1" id="Capa_1" xmlns="http://www.w3.org/2000/svg" xmlns:xlink="http://www.w3.org/1999/xlink" x="0px" y="0px"
	 width="12.189px" height="20.004px" viewBox="0 0 12.189 20.004" enable-background="new 0 0 12.189 20.004" xml:space="preserve">
<path d="M9.327,18.019V0H2.86v18.019H0v1.985H12.19v-1.985H9.327z M5.854,3.028c0.259-0.322,0.632-0.745,0.705-0.943
	c0.074-0.198-0.705-1.316-0.705-1.316s1.523,1.042,1.448,1.39C7.247,2.413,7.096,3.104,7.044,3.574H5.612
	C5.655,3.392,5.709,3.207,5.854,3.028z M7.822,10.672c-0.481,0.248-0.742,0.869-0.779,1.266c-0.038,0.396,0.26,0.818,0.223,1.216
	c-0.036,0.397-0.074,0.744,0.15,0.919c0.221,0.174-0.038,0.248,0.036,0.62c0.072,0.373-0.149,0.695-0.149,0.868
	c0,0.175-0.223,0.051,0,0.396c0.223,0.349-0.073,0.496-0.037,0.771C7.302,17,7.34,17.026,7.34,17.274s-0.854,0.818-0.854,0.818
	s0.37-0.941,0.26-1.289c-0.111-0.35-0.187-0.497-0.072-0.819c0.109-0.323,0.109-0.694,0.109-0.896c0-0.198,0.148-0.471-0.109-0.744
	c-0.262-0.273-1.08-2.432-1.265-2.779c-0.188-0.348-0.707-0.621-0.818-0.943C4.478,10.3,4.255,9.531,4.291,9.257
	c0.038-0.272,0.558-2.233,0.632-2.68c0.073-0.434,0.39-2.181,0.545-2.553h0.638C6.034,5.002,5.829,7.676,5.604,8.277
	c-0.274,0.737-0.647,1.437-0.274,2.018c0.259,0.407,0.65,0.493,0.926,0.493c0.274,0,0.669-0.086,0.926-0.493
	c0.375-0.582,0-1.281-0.275-2.018c-0.225-0.601-0.43-3.274-0.498-4.252h0.649c0.132,0.428,0.837,2.248,0.767,2.603
	C7.749,7,7.524,7.619,7.636,7.918c0.113,0.297,0.188,1.042,0.262,1.24C7.972,9.358,8.305,10.423,7.822,10.672z M5.734,10.287
	c-0.124,0.03-0.267-0.065-0.313-0.214c-0.051-0.15,0.011-0.295,0.137-0.326c0.127-0.03,0.269,0.065,0.316,0.214
	S5.86,10.255,5.734,10.287z"/>
</svg>
