<?xml version="1.0" encoding="utf-8"?>
<!-- Generator: Adobe Illustrator 16.0.4, SVG Export Plug-In . SVG Version: 6.00 Build 0)  -->
<!DOCTYPE svg PUBLIC "-//W3C//DTD SVG 1.1//EN" "http://www.w3.org/Graphics/SVG/1.1/DTD/svg11.dtd">
<svg version="1.1" id="Capa_1" xmlns="http://www.w3.org/2000/svg" xmlns:xlink="http://www.w3.org/1999/xlink" x="0px" y="0px"
	 width="5.068px" height="20.004px" viewBox="0 0 5.068 20.004" enable-background="new 0 0 5.068 20.004" xml:space="preserve">
<path d="M4.034,8.855V7.43H3.557V5.586h0.239V4.862H3.413V2.959H3.317c-0.04-0.16-0.134-0.302-0.266-0.404V1.833
	c0.006-0.03,0.01-0.06,0.01-0.091c0-0.254-0.182-0.467-0.424-0.516V0H2.43v1.228C2.188,1.275,2.01,1.489,2.01,1.743
	c0,0.031,0.002,0.061,0.006,0.091v0.722C1.888,2.658,1.792,2.799,1.75,2.959H1.653v1.903H1.271v0.724h0.237V7.43H1.034v1.427H0
	v11.147h5.068V8.855H4.034z M2.364,3.296c0,0,0.007-0.172,0.171-0.172c0.166,0,0.17,0.172,0.17,0.172v0.744H2.364V3.296z
	 M2.106,6.09c0,0,0.016-0.386,0.429-0.386c0.415,0,0.429,0.386,0.429,0.386V7.43H2.106V6.09z M2.106,9.608
	c0,0,0.016-0.386,0.429-0.386c0.415,0,0.429,0.386,0.429,0.386v1.985H2.106V9.608z M0.526,10.181c0,0,0.008-0.217,0.243-0.217
	c0.232,0,0.241,0.217,0.241,0.217v1.413H0.526V10.181z M1.5,19.004H0.506V16.16H1.5V19.004z M1.5,15.252H0.506v-2.844H1.5V15.252z
	 M1.781,11.594H1.299v-1.413c0,0,0.01-0.217,0.241-0.217c0.233,0,0.24,0.217,0.24,0.217V11.594z M1.846,3.296
	c0,0,0.003-0.172,0.095-0.172c0.094,0,0.096,0.172,0.096,0.172v0.744h-0.19V3.296z M3.017,19.004H2.022V16.16h0.994L3.017,19.004
	L3.017,19.004z M3.017,15.252H2.022v-2.844h0.994L3.017,15.252L3.017,15.252z M3.223,4.041H3.033V3.296c0,0,0.001-0.172,0.095-0.172
	c0.091,0,0.095,0.172,0.095,0.172V4.041z M3.287,10.181c0,0,0.007-0.217,0.24-0.217c0.231,0,0.24,0.217,0.24,0.217v1.413h-0.48
	V10.181z M4.534,19.004H3.542V16.16h0.992V19.004z M4.534,15.252H3.542v-2.844h0.992V15.252z M4.54,11.594H4.058v-1.413
	c0,0,0.009-0.217,0.243-0.217c0.233,0,0.239,0.217,0.239,0.217V11.594z"/>
</svg>
