<?xml version="1.0" encoding="UTF-8" standalone="yes"?>
<svg xmlns="http://www.w3.org/2000/svg" viewBox="0 0 21.092 32">
  <g fill="#231f20">
    <path d="M19.237 28.29h-3.103v-3.753a9.988 9.988 0 0 0 3.444-3.554h-9.02v-.004H1.513a9.983 9.983 0 0 0 3.444 3.55v3.757H1.854a1.855 1.855 0 0 0 0 3.708h4.2c1.024 0 1.854-.83 1.854-1.854 0-.046-.004-.094-.007-.14.005-.05.008-.1.008-.15v-4.064c.837.215 1.717.336 2.625.345v.007a10.953 10.953 0 0 0 2.648-.346v4.064c0 .05.004.1.01.15-.004.047-.01.094-.01.142 0 1.024.832 1.854 1.856 1.854h4.2a1.855 1.855 0 0 0 0-3.71zM7.455 16.69a1.306 1.306 0 1 0-.15-2.604.785.785 0 0 1-.633 1.244.78.78 0 0 1-.5-.184 1.305 1.305 0 0 0 1.284 1.543z"/>
    <path d="M1.703 17.407c0 .753.107 1.482.306 2.177h8.524v.004h8.55c.198-.694.305-1.423.305-2.176 0-3.608-2.436-6.68-5.85-7.86a2.283 2.283 0 0 0-.303-1.944l1.833-3.44c.125.024.252.038.384.038a2.1 2.1 0 0 0 0-4.202 2.1 2.1 0 0 0-1.57 3.494l-1.736 3.257a2.286 2.286 0 0 0-.8-.147h-.79v-.004h-.813c-.283 0-.55.053-.8.147L7.207 3.493a2.1 2.1 0 1 0-1.185.672l1.832 3.438a2.274 2.274 0 0 0-.304 1.943c-3.413 1.18-5.847 4.255-5.847 7.862zm14.432-2.02a2.498 2.498 0 1 1-4.996 0 2.498 2.498 0 0 1 4.995 0zm-8.68-2.502a2.498 2.498 0 1 1 0 4.996 2.498 2.498 0 0 1 0-4.995z"/>
    <path d="M13.638 16.694a1.306 1.306 0 0 0 1.284-1.543.78.78 0 0 1-1.284-.6.78.78 0 0 1 .15-.46 1.306 1.306 0 1 0-.15 2.604z"/>
  </g>
</svg>