<?xml version="1.0" encoding="UTF-8" standalone="yes"?>
<svg xmlns="http://www.w3.org/2000/svg" viewBox="0 0 126 126">
  <path fill-rule="evenodd" clip-rule="evenodd" d="M63.73 62.938a5.687 5.687 0 0 1-.23 1.473v-3.85c.17.768.256 1.558.23 2.378zm.377 8.263c.126-.307-.065-.595-.45-.72a7.914 7.914 0 0 1-.157-.052v1.035c.235.08.48.05.607-.262zm54.547-11.81l3.564 4.19c-1.896.638-3.64.518-5.193-.492a131.27 131.27 0 0 1-1.865 3.882l3.497 4.11c-1.953.656-3.742.5-5.33-.595a98.954 98.954 0 0 1-2.375 4.137l3.58 4.208c-2.11.71-4.026.465-5.706-.882a60.16 60.16 0 0 1-3.2 4.322l3.88 4.56c-2.45.824-4.645.37-6.504-1.623a27.466 27.466 0 0 1-3.303 2.88c.487 1.654.977 3.31 1.476 4.995-2.24-.21-3.908-1.23-4.893-3.184-9.866 3.15-22.635-8.146-22.635-8.146s-5.625-5.477-9.404-6.32h-.648c-.03.008-.064.02-.096.027v-3.516c.3.072.616.043.908-.148.22-.146.347-.098.558.006.228.108.547.202.764.125.48-.172 1.015-.363 1.356-.713.732-.754 1.36-1.612 2.028-2.43.32-.393.61-.813.953-1.183.25-.267.527-.204.597.146.068.347.106.755-.012 1.073-.354.96-.79 1.89-1.203 2.858-.47-.508-.612-.535-1.008-.23.743.43.794.584.485 1.448-.014.04-.035.078-.046.118-.172.755-.39 1.503-.508 2.267a3.467 3.467 0 0 0 .423 2.275c-.412-1.712-.005-3.294.705-4.818.542-1.163 1.15-2.295 1.707-3.45.818-1.698 1.472-3.438 1.116-5.375-.15-.824-.473-1.576-1.275-1.99-.316-.162-.636-.138-.863.187-.203.283-.168.602.082.89.37-.625.7-.65 1.17-.073.134.162.285.347.32.54.11.575.233 1.162.223 1.74-.015.854-.248 1.675-.59 2.493-.1-.36-.145-.685-.28-.968-.27-.573-.857-.68-1.323-.256-.176.16-.337.35-.46.55-.393.653-.745 1.33-1.15 1.973-.398.63-.798 1.268-1.285 1.827-.26.3-.69.466-1.068.635-.236.105-.538.015-.563-.27-.016-.208.14-.443.262-.64.05-.078.217-.083.375-.138-.312-.315-.628-.332-.99-.22a.825.825 0 0 1-.462.002c-.346-.106-.65-.095-.944.19v-4.21c.077-.097.15-.198.216-.31.725-1.243 1.023-2.596.83-4.028-.16-1.183-.54-2.29-1.045-3.352v-1.088c1.235.507 2.02.4 3.622-.326-.062.128-.104.226-.155.318-.72 1.32-1.322 2.683-1.567 4.18-.254 1.552.028 3.005.83 4.352.33.553.825.92 1.452 1.095.943.267 1.78-.306 1.732-1.22-1.12.78-2.077.616-2.632-.538a6.174 6.174 0 0 1-.56-2.062c-.188-1.998.36-3.86 1.264-5.623.706-1.38 1.48-2.73 2.132-4.138.52-1.124.943-2.294.615-3.598-.22-.88-.796-1.35-1.7-1.278-1.235.095-2.25 1.446-1.967 2.854.104.503.782.904 1.266.722.183-.068.395-.357.394-.546 0-.194-.246-.387-.383-.58-.17.142-.34.28-.505.427-.034.03-.043.09-.063.138l-.12.027c-.06-.176-.183-.355-.173-.53.037-.706.807-1.35 1.508-1.297.697.05 1.19.646 1.127 1.43-.035.402-.147.805-.27 1.193-.477 1.53-1.18 2.933-2.387 4.03-1.188 1.085-2.292 1.24-3.46.443v-8.256c.032 0 .065.007.097.008h.453c-.12-.15-.252-.29-.36-.458-1.382-2.104-.63-5.075 1.772-6.735-.218.588-.448 1.09-.588 1.613-.418 1.563-.23 3.023.922 4.24.396.42.862.706 1.353.888 1.21-.315 2.425-.624 3.642-.924 1.102-1.23 1.483-2.716 1.27-4.34-.042-.346-.147-.782-.386-.98-.524-.432-1.14-.986-1.74-1.016-.46-.02-.956.683-1.545 1.152-.504-.383-.844-1.058-.498-1.905.51-1.246 1.59-1.256 2.8-1.005-.38-2.86.734-4.893 3.045-6.238.307 2.073.605 4.1.905 6.135 2.42-.042 3.7.676 4.185 2.376.08.278.104.575.102.876.542-1.21 1.588-2.265 3.027-2.853-.34.528-.673.968-.922 1.45-.684 1.317-.84 2.66-.197 3.98 2.297-.49 4.607-.895 6.944-1.128a6.12 6.12 0 0 0 .302-1.438c.03-.346.022-.795-.168-1.04-.42-.534-.9-1.208-1.48-1.366-.444-.12-1.08.46-1.757.793-.41-.48-.598-1.214-.078-1.967.767-1.108 1.822-.886 2.952-.38.242-2.876 1.77-4.62 4.315-5.437l-.438 6.186c2.372.48 3.467 1.456 3.575 3.222.013.2 0 .403-.03.606a5.96 5.96 0 0 1 1.475-.884c-.34.527-.673.967-.922 1.45-.132.254-.237.51-.328.766 2.2.654 4.444 1.687 6.79 2.772.324-.64.52-1.352.587-2.125.03-.347.02-.796-.17-1.04-.418-.535-.9-1.21-1.48-1.367-.443-.12-1.08.46-1.756.793-.41-.482-.597-1.215-.077-1.968.767-1.108 1.822-.886 2.952-.38.24-2.876 1.768-4.62 4.314-5.437l-.437 6.187c2.372.48 3.467 1.456 3.575 3.222.044.7-.19 1.437-.593 2.08.402-.305.84-.58 1.34-.784-.34.527-.673.967-.922 1.45-.38.733-.6 1.476-.607 2.217 2.193.766 4.5 1.342 6.954 1.536.395-.694.628-1.48.703-2.34.03-.347.022-.796-.168-1.04-.42-.535-.9-1.21-1.482-1.367-.443-.12-1.08.46-1.756.793-.41-.482-.597-1.215-.077-1.968.767-1.108 1.822-.886 2.952-.38.242-2.876 1.77-4.62 4.315-5.437l-.437 6.187c2.372.48 3.467 1.456 3.575 3.222.074 1.19-.64 2.49-1.66 3.23l-2.152 5.023s-.295.765-.834 2.048zm-15.55-11.84c.67.31 1.347.614 2.034.915a2.53 2.53 0 0 1-.75-.72c.908-.4 1.99-.645 2.753-1.275.924-.765.677-2.158-.26-2.807-.883-.613-1.882-.382-2.5.745-.493.902-.802 1.908-1.167 2.877-.034.09-.073.177-.11.266zm3.875 1.068c-.49.166-.944.175-1.353.06.495.21.998.416 1.505.615.14-.357.32-.702.545-1.028a3.27 3.27 0 0 1-.698.353zM89.1 43.643c.454-.03.906-.064 1.36-.08.778-.025 1.555.033 2.335.15.726-.784.467-2.038-.41-2.645-.883-.613-1.882-.382-2.5.745-.317.58-.556 1.202-.784 1.83zm-16.29 3.12c.77-.187 1.538-.375 2.31-.558 1.19-.283 2.384-.57 3.578-.845a4.178 4.178 0 0 1-.18-1.354c-.314.65-.777 1.224-1.36 1.576-.967.585-1.926.432-2.716-.297.8-.585 1.805-1.057 2.412-1.837.737-.945.195-2.253-.857-2.685-.995-.408-1.92.032-2.28 1.266-.29.986-.374 2.035-.522 3.06-.086.583-.213 1.14-.386 1.672zM74.82 68.78c-.995-.588-1.773-.14-2.567.427.384-.83.77-1.584 1.085-2.367.74-1.833.984-3.703.24-5.604-.285-.723-.68-1.368-1.383-1.766-.58-.327-1.176-.377-1.775-.045-.423.233-.59.626-.487.935.388-.128.767-.335 1.158-.363.64-.05 1.076.356 1.39.882.712 1.185.772 2.49.637 3.812-.17 1.668-.816 3.182-1.59 4.654-.727 1.386-1.44 2.78-2.084 4.203-.447.99-.628 2.05-.266 3.133.215.642.603.946 1.21 1.015 1.643.188 2.566-1.433 2.432-2.635-.07-.638-.726-1.095-1.317-.938-.315.084-.465.317-.386.604.054.197.226.463.395.508.266.068.464-.14.497-.443.002-.038.04-.07.063-.106.397.19.327.493.234.773-.242.744-.95 1.16-1.646.994-.688-.166-1.072-.813-.92-1.625.082-.428.2-.854.355-1.26.86-2.262 1.97-4.288 4.722-4.792zm-1.216-14.44c-.46.122-.97.335-1.29.668-.765.802-1.434 1.695-2.14 2.557-.293.36-.556.748-.872 1.087-.295.313-.585.23-.652-.197-.056-.34-.084-.732.034-1.04.367-.954.81-1.878 1.238-2.848.363.515.605.564.98.25-.748-.376-.774-.44-.534-1.273.176-.61.384-1.214.508-1.833.186-.93.198-1.858-.25-2.85 0 .2-.012.297.002.388.135.896.105 1.8-.203 2.636a38.54 38.54 0 0 1-1.512 3.53c-.673 1.384-1.422 2.73-1.78 4.243-.277 1.172-.42 2.353.13 3.48.204.415.542.777.875 1.108.272.27.628.306.944 0 .25-.242.256-.586-.01-1.016-.033.074-.057.135-.086.19-.228.445-.553.513-.89.142a2.997 2.997 0 0 1-.532-.803c-.354-.81-.27-1.66-.11-2.497.104-.537.28-1.06.452-1.696.14.43.198.74.336 1.012.27.53.816.63 1.274.256a1.69 1.69 0 0 0 .368-.406c.417-.687.79-1.398 1.232-2.07.47-.715.963-1.42 1.514-2.07.208-.247.593-.38.922-.465.147-.04.442.115.52.263.124.234.026.5-.242.64-.115.06-.244.09-.395.146.287.273.614.398.912.223.226-.133.452-.4.516-.65.168-.656-.54-1.297-1.26-1.107zm29.068 7.004s-7.83-4.137-14.93-1.723c-7.1 2.415-10.783 10.47-10.783 10.47s7.83 4.137 14.932 1.723 10.782-10.47 10.782-10.47zm2.485 9.754c-.11 2.06-1.766 3.737-3.984 3.948-.742.07-1.502-.065-2.254-.088-.783-.02-1.574-.09-2.35-.01-.906.095-1.686.7-2.018 1.376 1.1-1.026 1.813-1.28 3.316-1.136.575.055 1.143.185 1.718.23.62.05 1.255.118 1.868.05 2.55-.29 4.438-2.4 4.325-4.816-.07-1.527-.828-2.65-2.183-3.328-1.23-.615-2.455-.562-3.596.253-1.635 1.168-1.668 3.61-.07 4.683 1.426.96 3.293.158 3.434-1.475.087-1.014-.736-1.882-1.723-1.817-.692.045-1.246.622-1.228 1.3.01.414.185.746.575.928.384.18.74.154 1.08-.198-.263.05-.48.136-.692.12-.43-.03-.714-.392-.706-.827.007-.47.38-.895.847-.97.868-.14 1.615.716 1.383 1.6-.164.622-.546 1.064-1.19 1.196-.782.162-1.438-.125-1.92-.73-.92-1.15-.31-3.007 1.15-3.57 2.048-.795 4.342.99 4.22 3.282zm-7.992 4.756c-2.514.414-4.236 2.83-3.944 5.546.062.574.156 1.144.25 1.714.228 1.39.124 2.694-.945 3.77.972-.698 1.373-1.68 1.33-2.833-.03-.864-.166-1.725-.22-2.59-.116-1.806.453-3.325 1.98-4.385 1.996-1.387 4.613-.53 5.28 1.708.535 1.8-.762 3.526-2.545 3.39-1.14-.088-2-1.198-1.784-2.298.134-.68.758-1.215 1.463-1.258a1.255 1.255 0 0 1 1.28.895c.15.492-.015.968-.425 1.222-.368.228-.836.19-1.106-.105-.355-.39-.284-.783.102-1.245-.604.468-.632 1.075-.153 1.486.353.305.758.347 1.17.164.455-.2.743-.55.797-1.062.13-1.226-1.117-2.12-2.316-1.647-.76.3-1.242.85-1.33 1.68-.1.96.268 1.742 1.04 2.297 1.655 1.183 4.147.076 4.564-2.01.514-2.588-1.8-4.88-4.486-4.438zm9.395 1.564c-.08-.82-.495-1.42-1.27-1.724-.814-.32-1.588-.173-2.258.372-.866.706-1.083 1.652-.952 2.73.084.687.1 1.382.14 1.968.21-.324.173-.83.142-1.337-.03-.495-.12-.997-.07-1.485.127-1.253 1.142-2.146 2.293-2.073.667.04 1.153.38 1.44.973.254.523.27 1.053-.09 1.55-.32.444-.98.655-1.457.467a1.082 1.082 0 0 1-.66-1.073c.042-.428.484-.79.91-.747.35.037.62.358.586.698-.037.374-.316.525-.852.464.004.042.008.084.01.127.24-.03.55.023.704-.106.173-.146.3-.465.283-.697-.035-.544-.608-.84-1.158-.66-.5.165-.794.622-.745 1.16a1.34 1.34 0 0 0 1.133 1.2c1.038.146 1.976-.752 1.873-1.81zm2.982-12.416c-1.858.13-3.312 1.723-3.328 3.714-.005.62.114 1.244.204 1.863.15 1.02.096 1.987-.644 2.8.575-.437.883-1.017.9-1.7.017-.67-.044-1.344-.107-2.014-.085-.88-.032-1.73.406-2.522.877-1.587 2.78-2.158 4.133-1.238 1.282.875 1.432 2.722.276 3.575-.57.422-1.206.546-1.852.187-.553-.308-.813-.81-.773-1.443.04-.596.608-1.09 1.214-1.078.506.01.977.425.91.915-.035.27-.255.59-.486.73-.16.094-.544-.01-.715-.155-.26-.22-.22-.546.03-.813-.35.286-.4.613-.156.942.25.336.787.394 1.174.126.38-.262.528-.733.38-1.197a1.26 1.26 0 0 0-1.255-.865c-1.12.047-1.826 1.235-1.34 2.286.353.76.943 1.216 1.812 1.198 1.01-.02 1.76-.506 2.163-1.423.83-1.888-.81-4.036-2.945-3.888zm4.51-7.908c-.015-.112.002-.213-.04-.303-.912-1.995-2.435-3.76-5.355-4.986-3.768-1.58-8.373-1.56-12.11.063-1.693.736-3.268 1.576-5.02 2.256-3.365 1.303-6.946 1.304-10.574.416 3.892.36 6.787-.464 8.408-2.48l-.933.35c-4.315 1.61-9.367 1.047-12.69-.337-.537-.225-.812-.67-1.25-1.048.016.165.012.332.05.495.408 1.8 2.04 3.13 4.56 4.07 4.6 1.718 9.097 1.472 13.47-.335a168.39 168.39 0 0 1 3.386-1.366c4.252-1.655 8.5-1.364 12.703.058 1.996.677 3.497 1.68 4.83 2.777.14.113.278.227.42.34.01.007.04.008.144.03zm5.485-5.7c.507-.198.998-.422 1.4-.754.922-.765.675-2.158-.26-2.807-.885-.613-1.884-.382-2.5.745-.495.902-.804 1.908-1.17 2.877-.003.012-.01.02-.013.033.83.016 1.678-.01 2.543-.095zM62.5 64.41v-3.85a9.54 9.54 0 0 0-.23 2.377c.018.51.085 1.004.23 1.473zm-.607 6.79c.128.313.372.342.607.264V70.43c-.068.02-.115.037-.156.05-.386.125-.577.414-.45.72zm.42-23.032c-.11.168-.24.307-.36.458h.452c.03 0 .064-.007.096-.008v8.256c-1.166.797-2.27.642-3.458-.442-1.206-1.1-1.91-2.5-2.387-4.03-.122-.39-.234-.79-.27-1.193-.064-.785.43-1.38 1.127-1.43.7-.053 1.47.59 1.508 1.296.01.175-.112.354-.174.53-.04-.01-.08-.02-.12-.027-.02-.048-.028-.11-.062-.14-.164-.146-.336-.285-.505-.427-.138.193-.383.386-.384.58 0 .188.21.478.394.546.483.182 1.162-.22 1.266-.723.284-1.407-.73-2.76-1.968-2.854-.903-.07-1.48.398-1.7 1.277-.327 1.304.095 2.474.616 3.598.652 1.407 1.426 2.757 2.132 4.138.904 1.764 1.45 3.625 1.265 5.623a6.157 6.157 0 0 1-.56 2.06c-.555 1.154-1.512 1.318-2.632.537-.048.915.79 1.487 1.732 1.22a2.385 2.385 0 0 0 1.452-1.094c.802-1.347 1.084-2.8.83-4.352-.245-1.496-.85-2.86-1.567-4.18-.05-.092-.094-.19-.155-.317 1.604.728 2.387.833 3.62.326v1.087c-.503 1.063-.885 2.17-1.044 3.352-.193 1.432.105 2.784.83 4.026.065.112.14.214.215.31v4.21c-.294-.284-.598-.296-.943-.19a.825.825 0 0 1-.462 0c-.362-.113-.68-.097-.99.22.158.054.326.06.375.137.122.196.277.432.26.64-.023.284-.325.375-.562.27-.38-.17-.81-.336-1.068-.635-.487-.56-.887-1.197-1.285-1.828-.405-.644-.758-1.32-1.15-1.973-.123-.2-.284-.39-.46-.55-.466-.423-1.054-.317-1.324.256-.133.283-.18.608-.28.968-.34-.817-.573-1.64-.588-2.49-.01-.58.113-1.167.222-1.742.036-.193.188-.378.32-.54.472-.577.802-.552 1.17.073.25-.287.286-.605.083-.89-.228-.324-.547-.35-.863-.186-.803.413-1.125 1.165-1.275 1.99-.356 1.936.297 3.676 1.115 5.374.557 1.155 1.165 2.287 1.707 3.45.71 1.524 1.117 3.106.705 4.818.4-.708.546-1.482.423-2.274-.117-.764-.336-1.512-.51-2.267-.01-.04-.03-.078-.045-.118-.31-.864-.258-1.02.485-1.448-.396-.306-.538-.278-1.007.23-.414-.97-.85-1.898-1.203-2.86-.118-.318-.08-.727-.012-1.073.07-.35.348-.412.597-.145.343.37.632.79.953 1.183.667.817 1.296 1.676 2.028 2.43.342.35.877.54 1.356.713.217.077.536-.017.764-.125.21-.104.337-.15.558-.006.292.19.61.22.908.148v3.515c-.03-.007-.064-.02-.096-.026h-.648c-3.78.843-9.404 6.32-9.404 6.32s-12.77 11.295-22.635 8.145c-.985 1.954-2.652 2.974-4.894 3.183.5-1.687.988-3.34 1.477-4.995-1.13-.825-2.23-1.796-3.303-2.88-1.86 1.992-4.054 2.447-6.504 1.623l3.88-4.56a59.86 59.86 0 0 1-3.2-4.32c-1.68 1.346-3.597 1.59-5.706.88 1.21-1.42 2.394-2.812 3.58-4.207a98.316 98.316 0 0 1-2.374-4.137c-1.59 1.096-3.378 1.25-5.33.595l3.496-4.11a131.27 131.27 0 0 1-1.865-3.88c-1.553 1.01-3.297 1.13-5.193.49l3.564-4.188c-.54-1.282-.832-2.045-.832-2.045l-2.153-5.023c-1.02-.74-1.733-2.04-1.66-3.23.11-1.767 1.204-2.743 3.576-3.223l-.438-6.185c2.547.816 4.073 2.56 4.315 5.437 1.13-.506 2.186-.73 2.952.38.52.753.332 1.485-.078 1.968-.677-.332-1.313-.913-1.756-.793-.58.158-1.063.832-1.48 1.366-.19.245-.2.694-.17 1.04.076.86.31 1.646.704 2.34 2.453-.194 4.76-.77 6.953-1.536-.01-.74-.227-1.483-.607-2.218-.25-.483-.582-.923-.922-1.45.5.204.938.48 1.34.783-.4-.643-.636-1.38-.592-2.08.108-1.766 1.203-2.742 3.575-3.222l-.437-6.185c2.547.816 4.073 2.56 4.315 5.437 1.13-.506 2.186-.73 2.952.38.52.753.333 1.485-.077 1.968-.677-.332-1.313-.913-1.756-.793-.58.158-1.063.832-1.48 1.366-.19.245-.2.694-.17 1.04.068.773.264 1.485.59 2.125 2.344-1.086 4.588-2.118 6.788-2.772a6.096 6.096 0 0 0-.328-.767c-.25-.483-.582-.923-.922-1.45a5.96 5.96 0 0 1 1.474.884c-.03-.203-.042-.406-.03-.606.11-1.766 1.204-2.742 3.576-3.222l-.437-6.186c2.547.816 4.073 2.56 4.315 5.437 1.13-.506 2.186-.73 2.952.38.52.753.333 1.485-.077 1.968-.677-.332-1.313-.913-1.756-.793-.582.158-1.064.832-1.482 1.366-.19.245-.2.694-.168 1.04.044.508.148.986.302 1.438 2.337.233 4.647.64 6.944 1.13.644-1.323.486-2.665-.197-3.982-.25-.482-.583-.922-.923-1.45 1.44.59 2.485 1.645 3.028 2.854-.002-.3.02-.598.102-.876.485-1.7 1.765-2.418 4.185-2.376l.905-6.135c2.31 1.347 3.426 3.38 3.044 6.24 1.213-.252 2.292-.242 2.802 1.005.346.848.006 1.522-.5 1.905-.588-.47-1.084-1.174-1.543-1.152-.603.03-1.218.584-1.742 1.016-.238.198-.344.635-.387.98-.212 1.624.17 3.11 1.272 4.34 1.217.3 2.43.607 3.643.923.49-.182.956-.468 1.353-.887 1.153-1.218 1.34-2.678.922-4.24-.14-.525-.37-1.026-.588-1.614 2.398 1.657 3.15 4.627 1.77 6.732zm-53.31 3.32l-.015-.033c-.365-.97-.674-1.975-1.168-2.877-.617-1.127-1.616-1.358-2.5-.745-.936.648-1.183 2.042-.26 2.807.4.332.893.556 1.4.753.865.084 1.712.11 2.542.095zm38.3-6.128c1.194.275 2.387.562 3.58.845.77.183 1.538.37 2.31.557-.175-.53-.302-1.09-.386-1.67-.148-1.025-.233-2.074-.52-3.062-.36-1.233-1.287-1.674-2.282-1.266-1.053.432-1.595 1.74-.857 2.685.607.78 1.612 1.25 2.412 1.836-.79.73-1.75.882-2.717.297-.582-.353-1.046-.926-1.358-1.576.015.454-.048.907-.182 1.353zm-14.098-1.646c.78-.118 1.557-.177 2.334-.15.454.015.906.048 1.36.08-.23-.63-.47-1.252-.786-1.83-.617-1.128-1.616-1.36-2.5-.746-.876.607-1.135 1.86-.41 2.646zM18.86 46.47c.76.63 1.844.875 2.75 1.274a2.53 2.53 0 0 1-.748.72c.688-.3 1.365-.605 2.034-.913-.036-.088-.075-.174-.11-.265-.364-.97-.673-1.975-1.167-2.877-.618-1.127-1.617-1.358-2.5-.745-.936.65-1.183 2.042-.26 2.807zm.16 2.148a3.207 3.207 0 0 1-.697-.354c.226.326.405.67.545 1.028.507-.2 1.01-.404 1.505-.616-.408.117-.86.108-1.352-.058zm.41 21.048c-.062.67-.123 1.344-.105 2.014.017.684.324 1.264.9 1.7-.74-.813-.794-1.78-.646-2.8.09-.62.208-1.244.203-1.864-.017-1.99-1.47-3.585-3.328-3.714-2.134-.148-3.774 2-2.945 3.885.404.917 1.152 1.402 2.163 1.423.868.018 1.46-.438 1.81-1.198.488-1.05-.22-2.24-1.338-2.286a1.262 1.262 0 0 0-1.254.865c-.148.465 0 .937.38 1.198.386.268.923.21 1.173-.126.245-.33.194-.656-.155-.942.25.268.29.595.03.813-.172.146-.557.25-.716.154-.23-.14-.45-.46-.486-.728-.066-.49.404-.905.91-.916.605-.013 1.174.482 1.213 1.078.04.635-.222 1.136-.774 1.443-.646.36-1.28.235-1.852-.186-1.155-.855-1.006-2.7.277-3.576 1.353-.92 3.257-.35 4.134 1.238.438.795.49 1.644.407 2.524zm5.9.624c.008.436-.277.798-.706.828-.21.015-.43-.07-.693-.12.34.352.698.376 1.082.197.39-.182.564-.514.575-.928.018-.678-.536-1.255-1.23-1.3-.985-.064-1.81.804-1.722 1.817.14 1.633 2.008 2.436 3.435 1.475 1.597-1.074 1.563-3.516-.072-4.684-1.14-.814-2.365-.868-3.596-.253-1.354.678-2.113 1.8-2.184 3.328-.113 2.417 1.774 4.528 4.325 4.816.613.07 1.248 0 1.868-.05.576-.045 1.144-.175 1.72-.23 1.503-.143 2.216.11 3.315 1.137-.332-.676-1.11-1.28-2.02-1.377-.773-.08-1.564-.01-2.348.01-.752.023-1.512.158-2.254.09-2.22-.212-3.873-1.89-3.983-3.95-.123-2.29 2.17-4.075 4.22-3.283 1.458.564 2.07 2.42 1.15 3.57-.482.606-1.14.894-1.922.73-.644-.13-1.025-.573-1.19-1.194-.23-.886.516-1.74 1.384-1.603.467.077.84.503.848.973zm-2.366 5.776c-.67-.545-1.443-.693-2.26-.372-.772.304-1.188.903-1.268 1.724-.103 1.057.836 1.955 1.873 1.807a1.34 1.34 0 0 0 1.132-1.2c.05-.538-.244-.995-.745-1.16-.55-.18-1.123.116-1.16.66-.015.232.11.55.284.697.154.13.464.077.704.105l.01-.127c-.534.062-.813-.09-.85-.464-.035-.34.234-.66.585-.698.425-.044.867.32.91.747.044.443-.242.907-.662 1.073-.476.188-1.136-.022-1.458-.467-.36-.496-.343-1.025-.09-1.55.288-.592.774-.93 1.44-.973 1.152-.073 2.167.82 2.294 2.073.05.488-.04.99-.07 1.485-.03.506-.07 1.013.14 1.337.04-.586.058-1.28.142-1.97.13-1.073-.086-2.02-.952-2.726zm10.508 10.82c-1.07-1.078-1.174-2.382-.944-3.772.093-.57.188-1.14.25-1.714.29-2.717-1.432-5.132-3.945-5.546-2.686-.44-5 1.85-4.484 4.438.415 2.085 2.907 3.19 4.562 2.01.773-.556 1.142-1.34 1.04-2.298-.087-.83-.568-1.38-1.33-1.68-1.2-.472-2.447.422-2.316 1.647.054.512.342.862.796 1.063.413.183.818.14 1.17-.163.48-.41.45-1.02-.153-1.486.385.462.456.855.1 1.244-.27.295-.737.333-1.105.105-.41-.254-.574-.73-.424-1.222.174-.562.697-.93 1.28-.894.705.043 1.33.58 1.462 1.258.217 1.1-.646 2.21-1.784 2.298-1.783.137-3.08-1.59-2.545-3.39.667-2.238 3.284-3.095 5.28-1.708 1.527 1.06 2.097 2.58 1.98 4.386-.054.864-.19 1.725-.22 2.59-.045 1.153.356 2.136 1.33 2.835zM49.04 70.09s-3.685-8.055-10.785-10.47c-7.1-2.413-14.93 1.724-14.93 1.724S27.01 69.4 34.11 71.814s14.93-1.724 14.93-1.724zm2.422-18.57c.037-.163.033-.33.05-.495-.44.378-.714.823-1.25 1.048-3.324 1.384-8.376 1.947-12.692.336l-.933-.35c1.62 2.017 4.517 2.84 8.408 2.48-3.628.887-7.21.886-10.574-.417-1.75-.68-3.325-1.52-5.02-2.256-3.736-1.624-8.342-1.645-12.11-.063-2.92 1.226-4.442 2.99-5.354 4.987-.042.09-.025.19-.04.304.105-.02.135-.02.146-.03.143-.112.28-.226.42-.34 1.334-1.096 2.835-2.1 4.832-2.776 4.204-1.422 8.45-1.713 12.703-.06 1.142.443 2.266.905 3.387 1.367 4.372 1.807 8.868 2.053 13.468.335 2.52-.942 4.15-2.272 4.56-4.07zm4.116 7.906c-.6-.332-1.194-.282-1.775.045-.703.398-1.098 1.044-1.382 1.767-.744 1.9-.5 3.77.24 5.604.316.784.7 1.538 1.085 2.368-.794-.565-1.572-1.015-2.567-.427 2.75.505 3.862 2.53 4.723 4.79.155.407.274.834.355 1.262.153.812-.23 1.46-.92 1.625-.695.167-1.402-.25-1.644-.994-.092-.28-.162-.583.235-.774.023.034.06.067.063.105.033.304.23.512.497.443.17-.045.342-.31.396-.51.08-.285-.07-.52-.385-.603-.592-.156-1.247.3-1.317.938-.135 1.202.79 2.823 2.432 2.635.607-.068.995-.373 1.21-1.015.362-1.083.182-2.143-.266-3.134-.643-1.425-1.357-2.818-2.084-4.204-.773-1.473-1.42-2.986-1.59-4.654-.136-1.32-.075-2.628.636-3.813.314-.526.75-.932 1.39-.883.393.028.772.235 1.16.363.103-.308-.065-.7-.488-.934zm-.006-7.543c-.31-.837-.338-1.74-.203-2.636.013-.09 0-.187 0-.39-.447.993-.435 1.923-.25 2.853.125.62.333 1.224.51 1.833.24.834.213.897-.535 1.272.375.315.617.266.98-.25.43.97.87 1.895 1.238 2.848.118.31.09.702.034 1.04-.067.43-.357.512-.652.198-.316-.338-.58-.726-.873-1.086-.705-.86-1.374-1.755-2.14-2.557-.32-.333-.828-.546-1.29-.668-.72-.19-1.427.45-1.26 1.103.062.25.29.518.516.65.298.176.625.05.912-.223-.15-.056-.28-.086-.395-.146-.27-.14-.366-.405-.243-.64.08-.147.374-.302.52-.263.33.087.715.22.923.465.55.65 1.044 1.356 1.514 2.07.44.673.814 1.385 1.23 2.07.096.154.23.292.37.407.457.373 1.003.274 1.273-.257.138-.27.196-.582.336-1.012.17.636.348 1.16.45 1.696.16.835.245 1.686-.11 2.495a3.012 3.012 0 0 1-.532.803c-.336.37-.66.304-.89-.142-.028-.056-.052-.116-.086-.19-.265.43-.26.772-.01 1.015.317.307.673.272.945 0 .333-.33.67-.692.874-1.108.553-1.126.41-2.307.133-3.48-.36-1.512-1.108-2.858-1.78-4.242a38.95 38.95 0 0 1-1.51-3.527z"/>
</svg>