<?xml version="1.0" encoding="utf-8"?>
<!-- Generator: Adobe Illustrator 16.0.0, SVG Export Plug-In . SVG Version: 6.00 Build 0)  -->
<!DOCTYPE svg PUBLIC "-//W3C//DTD SVG 1.1//EN" "http://www.w3.org/Graphics/SVG/1.1/DTD/svg11.dtd">
<svg version="1.1" id="Layer_1" xmlns="http://www.w3.org/2000/svg" xmlns:xlink="http://www.w3.org/1999/xlink" x="0px" y="0px"
	 width="100px" height="100px" viewBox="0 0 100 100" enable-background="new 0 0 100 100" xml:space="preserve">
<g>
	<path d="M32.205,13.731c1.357,5.518,6.931,8.891,12.449,7.533c5.518-1.357,8.891-6.931,7.532-12.449
		c-1.358-5.518-6.931-8.89-12.449-7.532c-2.813,0.691-5.062,2.481-6.416,4.797l0.123,3.541l-1.528,1.803
		C31.928,12.187,32.016,12.959,32.205,13.731z"/>
	<path d="M78.958,80.393l-10.511-4.286l-0.312-1.269l-1.649-1.604l1.202-0.213l-0.71-2.89l-2.104,0.757c0,0,0.868-0.796,1.87-1.706
		l-0.502-2.04c-1.093,0.209-2.022,0.393-2.022,0.393l1.322-1.977l8.358-1.659c-2.963-10.963-12.438-19.67-15.233-22.192
		l-1.754-6.368l1.697-1.429l-1.237-5.031l7.795-1.19l10.2,8.458c0.94,0.78,2.132,1.056,3.249,0.858
		c0.897-0.159,1.747-0.626,2.376-1.383c1.407-1.698,1.172-4.217-0.525-5.625l-3.159-2.619l-1.355,0.756l-0.724-2.48l-6.343-5.26
		c-0.878-0.729-2.025-1.046-3.152-0.874l-2.375,0.362l-2.543,3.161l-1.16-1.149l-3.233,1.33v-1.935c0,0-3.829-1.511-9.194-0.071
		c-0.008,0-0.017,0.001-0.025,0.001l-1.791,3.127l-3.104-1.893c-4.808,1.502-6.891,3.085-8.34,4.322l0.402,2.271l-4.175,0.74
		l0.329,1.856l-1.8-2.422c-3.001,1.634-3.434,2.547-3.786,3.299c-0.371,0.788-1.901,4.357-3.386,7.831l1.113,0.939l-2.29,1.819
		c-1.015,2.376-1.822,4.272-1.931,4.512c-0.91,2.009-0.02,4.376,1.989,5.287c0.763,0.346,1.576,0.432,2.343,0.296
		c1.254-0.222,2.379-1.038,2.945-2.286c0.023-0.053,0.64-1.524,1.487-3.535l-0.001,0l-2.65-2.84l4.166-0.739
		c1.186-2.787,2.427-5.674,3.117-7.181c0.915-0.56,2.874-1.464,5.149-2.425l0.953,3.875l1.673,0.331l-1.041,2.237l0.67,2.722
		c0.684-0.217,1.948-1.341,2.114-1.201l-0.237,3.411c-1.483,2.811-6.418,13.19-5.497,25.289l6.747-1.197L42.1,72.067l-1.813,11.193
		l1.653,2.59l-3.187,7.178c0,0.004-0.002,0.01-0.002,0.014l3.494,0.214c0,0-0.299,0.412-1.944,1.182
		c-0.472,0.221-1.056,0.452-1.646,0.669c0.233,1.327,1.009,2.549,2.266,3.276c1.002,0.579,2.129,0.749,3.185,0.562
		c1.325-0.235,2.54-1.031,3.266-2.286l4.698-28.709l5.999-1.063l0.279,0.257l-1.164,2.701l2.669,10.854
		c0.361,1.468,1.402,2.673,2.802,3.244l12.738,5.194c0.856,0.349,1.756,0.428,2.603,0.278c1.543-0.273,2.917-1.309,3.552-2.867
		C82.532,84.132,81.374,81.377,78.958,80.393z"/>
</g>
</svg>
