<?xml version="1.0" encoding="utf-8"?>
<!-- Generator: Adobe Illustrator 16.0.0, SVG Export Plug-In . SVG Version: 6.00 Build 0)  -->
<!DOCTYPE svg PUBLIC "-//W3C//DTD SVG 1.1//EN" "http://www.w3.org/Graphics/SVG/1.1/DTD/svg11.dtd">
<svg version="1.1" id="Layer_1" xmlns="http://www.w3.org/2000/svg" xmlns:xlink="http://www.w3.org/1999/xlink" x="0px" y="0px"
	 width="100px" height="100px" viewBox="0 0 100 100" enable-background="new 0 0 100 100" xml:space="preserve">
<g>
	<circle cx="40.881" cy="12.762" r="10.112"/>
	<path d="M81.335,34.288c-8.871-8.275-20.822-11.452-29.286-12.66c-0.2-0.029-3.549-0.535-7.265,0.793
		c-1.628,0.703-3.05,1.656-5.123,4.568c-1.279,1.822-3.488,2.038-4.678,2.008c-3.812-0.103-7.859-2.705-10.311-6.63
		c-1.148-1.839-3.57-2.401-5.409-1.25c-1.839,1.148-2.399,3.57-1.25,5.409c3.867,6.192,10.289,10.146,16.759,10.32
		c0.145,0.004,0.289,0.006,0.433,0.006c1.595,0,3.11-0.252,4.518-0.711l8.268,19.102c0.276,0.639,0.624,1.212,1.023,1.729
		c-2.163,5.94-5.7,16.143-5.8,19.597c-0.043,1.488,0.527,2.923,1.604,4.041c0.82,0.85,2.986,3.083,15.491,4.044l3.247,9.55
		c0.656,1.931,2.46,3.147,4.392,3.147c0.495,0,0.999-0.08,1.494-0.249c2.426-0.825,3.724-3.46,2.899-5.886l-2.088-6.142
		c0.563,0.009,1.13,0.017,1.719,0.021c0.012,0,0.024,0,0.037,0c2.545,0,4.619-2.054,4.638-4.604c0.02-2.562-2.041-4.655-4.603-4.676
		c-1.61-0.013-3.294-0.054-4.979-0.119l-0.646-1.9l1.477-23.129c0.053-0.832-0.083-1.888-0.908-3.649l-6.743-15.579
		c5.434,1.653,11.15,4.311,15.735,8.588c0.756,0.706,1.718,1.055,2.677,1.055c1.051,0,2.099-0.419,2.872-1.248
		C83.007,38.251,82.92,35.767,81.335,34.288z M53.027,74.389c0.901-3.307,3.044-8.966,4.937-14.185
		c0.092-0.011-0.864,13.921-0.864,13.921c-0.019,0.291-0.07,0.87-0.07,0.87S54.112,74.612,53.027,74.389z"/>
	<rect x="54.737" y="11.722" width="17.75" height="1"/>
	<rect x="60.771" y="15.765" width="11.625" height="1"/>
	<rect x="56.324" y="19.639" width="11.625" height="1"/>
</g>
</svg>
