<?xml version="1.0" encoding="utf-8"?>
<!-- Generator: Adobe Illustrator 16.0.0, SVG Export Plug-In . SVG Version: 6.00 Build 0)  -->
<!DOCTYPE svg PUBLIC "-//W3C//DTD SVG 1.1//EN" "http://www.w3.org/Graphics/SVG/1.1/DTD/svg11.dtd">
<svg version="1.1" id="Layer_1" xmlns="http://www.w3.org/2000/svg" xmlns:xlink="http://www.w3.org/1999/xlink" x="0px" y="0px"
	 width="100px" height="100px" viewBox="0 0 100 100" enable-background="new 0 0 100 100" xml:space="preserve">
<g>
	<circle cx="46.783" cy="13.982" r="12.135"/>
	<path d="M86.912,40.283c-1.022-1.942-2.806-5.257-4.667-8.386c-1.322-0.194-2.61-0.413-2.912-0.563
		c-0.321-0.161,0.521-0.864,1.552-1.661c-1.362-2.16-2.679-4.018-3.679-4.958c-0.782-0.735-3.005-2.809-17.934-4.888
		c-0.331,0.744-0.726,1.465-1.196,2.151c-2.016,2.937-5.806,5.855-11.008,5.84c-3.751-0.05-8.175-2.202-8.44-2.338l-3.981,1.854
		l0.605-2.806l-2.68-0.583l-2.405,1.389l-2.796-1.677l-7.043,1.309c-1.776,0.331-3.206,1.647-3.683,3.389l-1.184,4.329l2.038,1.15
		l-2.562,0.763l-1.279,4.681l3.841,1.389l-4.4,0.656l-0.387,1.415c-0.687,2.51,0.791,5.101,3.301,5.787
		c0.416,0.113,0.834,0.168,1.245,0.168c2.07,0,3.969-1.376,4.542-3.47l3.153-11.533l10.886-2.023l2.764,10.125L45,44l-4.858,3.429
		l0.481,1.763c0.223,1.199,0.649,2.281,1.235,3.242l-1.162,9.453l3.137,4.562l-3.823,1.017l-0.661,5.378L28.207,86.699
		c-1.927,2.397-1.547,5.901,0.85,7.829c1.028,0.827,2.261,1.229,3.485,1.229c1.628,0,3.243-0.711,4.343-2.079L45,83.585V80h2.883
		l1.137-1.413c0.648-0.808,1.062-1.78,1.188-2.81l2.227-18.092c0.784-0.014,1.572-0.092,2.355-0.237
		c0.69-0.128,1.364-0.315,2.02-0.541l9.597,16.029l1.313,20.014c0.193,2.945,2.642,5.204,5.55,5.204c0.123,0,0.246-0.004,0.37-0.012
		c3.068-0.202,5.394-2.852,5.191-5.92l-0.625-9.527v0.001l-2.704-5.53l2.229-1.733l-0.3-4.568c-0.058-0.882-0.324-1.737-0.778-2.496
		l-1.15-1.921L72.5,65l1.307-1.379l-1.438-2.401L67,60.167l3.178-2.608l-5.271-8.804c0.327-1.295,0.403-2.672,0.137-4.103
		l-0.297-1.086L61,43.167l3.078-2.052l-3.134-11.485c0.824,0.131,1.629,0.266,2.403,0.401c-0.532-1.24-1.151-2.798-0.848-2.697
		c0.5,0.167,1.501,1.996,2.167,2.081S67,27.333,67,27.333v3.395c1.812,0.383,3.218,0.752,3.949,1.071
		c1.372,1.638,4.944,7.782,7.626,12.874c0.498,0.946,1.276,1.645,2.177,2.065l1.63-3.572l1.9,3.758
		c0.222-0.077,0.441-0.166,0.655-0.278c0.203-0.107,0.382-0.241,0.563-0.373v-1.607l1.124,0.446
		C87.567,43.719,87.751,41.875,86.912,40.283z"/>
</g>
</svg>
