<?xml version="1.0" encoding="utf-8"?>
<!-- Generator: Adobe Illustrator 16.0.0, SVG Export Plug-In . SVG Version: 6.00 Build 0)  -->
<!DOCTYPE svg PUBLIC "-//W3C//DTD SVG 1.1//EN" "http://www.w3.org/Graphics/SVG/1.1/DTD/svg11.dtd">
<svg version="1.1" id="Layer_1" xmlns="http://www.w3.org/2000/svg" xmlns:xlink="http://www.w3.org/1999/xlink" x="0px" y="0px"
	 width="100px" height="100px" viewBox="0 0 100 100" enable-background="new 0 0 100 100" xml:space="preserve">
<g>
	<circle cx="56.866" cy="15.103" r="13.431"/>
	<path d="M60.04,29.408l11.753,0.459c0.069,0.003,0.138,0.004,0.207,0.004c1.978,0,3.698-1.121,4.58-2.769
		c0,0,1.732-3.227-0.603-5.785h-2.331l1.207-1.001c-0.768-0.506-1.668-0.832-2.653-0.87l-1.237-0.048
		C69.4,24.479,65.152,28.297,60.04,29.408z"/>
	<path d="M73.916,34.255c-0.118,0.008-8.641,0.453-15.758-2.934c0.116-0.557,0.165-1.102,0.178-1.639
		c-0.448,0.042-0.899,0.067-1.355,0.067c-0.001,0,0,0-0.001,0c-1.03,0-2.067-0.11-3.082-0.328c-5.736-1.229-9.953-5.688-11.19-11.06
		c-1.033,0.235-1.567,0.494-2.486,0.848c-2.926,1.249-5.434,3.548-6.173,7.001l-0.881,3.594c1.988,0.669,3.647,1.347,3.647,1.347
		l-2.112,1.043l-0.206,1.131l-2.112-0.328l-3.291,13.42c-0.616,2.875,0.188,5.522,1.784,7.676l-0.345,5.267
		c2.24,0.337,4.283,0.625,4.283,0.625l-4.574,3.829h4.074l-1.667,2.171l-2.622,1.102l-0.253,3.861l1.208,0.871l-1.299,0.508
		l-0.119,1.815l-8.174,14.25c-1.823,3.179-0.725,7.235,2.455,9.059c1.041,0.597,2.176,0.881,3.296,0.881
		c2.299,0,4.536-1.197,5.762-3.336l8.94-15.584c0.503-0.877,0.799-1.858,0.866-2.868l0.784-11.973l8.085,12.775l6.151,15.815
		c1.021,2.626,3.529,4.233,6.187,4.233c0.799,0,1.613-0.146,2.404-0.453c3.416-1.329,5.108-5.175,3.779-8.591l-6.385-16.416
		c-0.155-0.398-0.348-0.781-0.577-1.143l-0.244-0.386c-1.614,1.243-3.579,2.244-3.579,2.244l0.727-3c0,0-5.56,0-6.06,0
		c-0.407,0,3.858-3.419,5.463-4.694l-7.045-11.132c0.344-0.685,0.62-1.427,0.795-2.245l0.228-0.929L45.375,54l6.939-5.85
		l-6.833-2.833l9.389-0.573l0.775-3.159c2.853,1.147,5.718,1.879,8.332,2.346c0.73-2.484,1.504-5.282,1.504-5.282l0.805,5.64
		c0.061,0.008,0.124,0.017,0.184,0.025l2.156-2.331l-0.526,2.509c1.828,0.172,3.391,0.222,4.529,0.222
		c1.143,0,1.864-0.046,2.012-0.056c2.873-0.2,5.04-2.691,4.84-5.564S76.779,34.065,73.916,34.255z"/>
</g>
</svg>
