<?xml version="1.0" encoding="utf-8"?>
<!-- Generator: Adobe Illustrator 16.0.0, SVG Export Plug-In . SVG Version: 6.00 Build 0)  -->
<!DOCTYPE svg PUBLIC "-//W3C//DTD SVG 1.1//EN" "http://www.w3.org/Graphics/SVG/1.1/DTD/svg11.dtd">
<svg version="1.1" id="Layer_1" xmlns="http://www.w3.org/2000/svg" xmlns:xlink="http://www.w3.org/1999/xlink" x="0px" y="0px"
	 width="100px" height="100px" viewBox="0 0 100 100" enable-background="new 0 0 100 100" xml:space="preserve">
<g>
	<path d="M75.972,28.5H74l0.471-0.755c-0.469-0.146-0.956-0.246-1.473-0.246H59.306l10.557-2.667c2.677-0.676,4.3-3.395,3.623-6.072
		c-0.622-2.463-2.972-4.011-5.432-3.718L65.5,19v-3.379L54.773,18.33l-0.439,1.836l-1.443-1.361l-13.707,3.462
		c3.282-1.693,5.626-5.007,5.878-8.961c0.383-5.99-4.163-11.155-10.152-11.538c-5.99-0.383-11.156,4.164-11.539,10.153
		c-0.373,5.849,3.957,10.899,9.736,11.49c-2.079,0.93-4.326,2.75-6.191,6.146l2.585,1.609l-4.128,2.103
		c-0.251,0.703-0.525,1.514-0.806,2.397h2.268l-2.482,0.685c-2.369,7.732-4.852,20.577,2.875,25.164l-1.064,8.536l2.338,1.282
		l-2.935,3.502l-2.013,16.146c-0.838,3.065,0.968,6.229,4.033,7.067c0.508,0.139,1.018,0.205,1.52,0.205
		c2.529,0,4.848-1.681,5.547-4.238l2.633-6.529L35.167,85l2.779,0.846l4.239-10.513l4.753,6.058l3.896-0.557l-0.615,4.737
		l6.451,8.222c1.046,1.911,3.018,2.992,5.052,2.992c0.934,0,1.881-0.228,2.758-0.708c2.787-1.526,3.81-5.022,2.284-7.81l-2.1-5.601
		H63l0.602-2.832l-2.815-7.509c-2.228-0.659-5.244-1.638-5.452-2.16c-0.099-0.247,1.506-1.125,3.805-2.236l-3.698-9.862
		c1.858-1.75,2.922-4.167,2.532-7.502L55.33,50l2.364-1.125c-0.242-1.217-0.501-2.372-0.773-3.463L48.75,52.75l3.5-7l-4.083-4.417
		l7.805,0.661c-0.518-1.682-1.054-3.186-1.58-4.496h18.606c2.762,0,5-2.239,5-5C77.998,30.856,77.195,29.412,75.972,28.5z"/>
</g>
</svg>
