<?xml version="1.0" encoding="utf-8"?>
<!-- Generator: Adobe Illustrator 16.0.0, SVG Export Plug-In . SVG Version: 6.00 Build 0)  -->
<!DOCTYPE svg PUBLIC "-//W3C//DTD SVG 1.1//EN" "http://www.w3.org/Graphics/SVG/1.1/DTD/svg11.dtd">
<svg version="1.1" id="Layer_1" xmlns="http://www.w3.org/2000/svg" xmlns:xlink="http://www.w3.org/1999/xlink" x="0px" y="0px"
	 width="100px" height="100px" viewBox="0 0 100 100" enable-background="new 0 0 100 100" xml:space="preserve">
<g>
	<path d="M68.145,83.182c-0.116-0.939-0.232-1.836-0.346-2.697l-3.176-2.223l2.773-0.708c-1.794-12.54-3.167-15.647-3.813-16.791
		l-7.156-3.029l3.245-1.401c-3.261-3.012-8.396-7.052-15.378-12.094l4.787-8.522c0.302,0.463,0.608,0.908,0.922,1.306
		c3.806,4.827,13.773,10.887,15.732,12.053c0.839,0.499,1.759,0.736,2.669,0.736c1.782,0,4.69-1.07,4.497-2.555l-5.014-3.219
		l0.661-4.102l1.402-0.534c-0.348-0.215-0.707-0.439-1.074-0.672c-3.907,0.406-9.522,1.001-10.827,1.193
		c-1.242,0.183,3.112-1.524,7.537-3.367c-3.136-2.153-6.178-4.493-7.371-6.008c-0.905-1.147-1.966-3.359-2.963-5.818l0.729-1.299
		c1.059,1.338,2.385,2.5,3.965,3.388c6.484,3.643,14.694,1.337,18.334-5.147c2.482-4.418,2.198-9.636-0.285-13.667l-7.467,1.846
		l1.163-7.205c-0.828-0.344-1.675-0.602-2.53-0.771l-4.538,2.743l-0.712-2.735c-3.721,0.743-7.109,3.036-9.112,6.603
		c-0.096,0.171-0.171,0.348-0.259,0.522c-0.243-0.265-0.49-0.522-0.746-0.762c0,0-1.029-1.064-2.36-1.773
		c-1.274-0.68-2.84-1.174-2.84-1.174l-0.038-0.015c-4.492-1.25-10.507-0.394-13.218,4.434l-1.369,2.437l12.365,10.718l-12.031-5.928
		l-3.786,1.356l0.289,7.133l-3.537-1.349l-6.485,11.549c-1.944,3.461-1.314,7.293,0.657,10.413l-3.148,10.133l1.311,3.97h-2.544
		l-1.256,4.045l2.12,4.479l-3.682,0.544L8.132,88.879c-1.167,3.76,0.934,7.754,4.693,8.923c0.704,0.219,1.417,0.323,2.117,0.323
		c3.041,0,5.856-1.96,6.806-5.016L33.815,54.27c6.91,4.926,15.184,11.307,17.305,13.547c0.976,3.128,2.643,14.541,3.667,23.891
		c0.399,3.649,3.488,6.353,7.078,6.353c0.259,0,0.521-0.014,0.784-0.043c3.914-0.428,6.739-3.948,6.311-7.862
		c-0.057-0.523-0.114-1.023-0.17-1.528l-7.981-3.424L68.145,83.182z"/>
	<path d="M87.726,19.542c-2.042-0.302-4.158-0.769-6.307-1.381c-0.775,3.831-2.76,7.281-5.153,9.551
		c3.159,0.99,6.9,1.726,9.932,2.173c0.26,0.038,0.516,0.057,0.77,0.057c2.549,0,4.782-1.868,5.166-4.465
		C92.556,22.62,90.582,19.962,87.726,19.542z"/>
</g>
</svg>
