<?xml version="1.0" encoding="utf-8"?>
<!-- Generator: Adobe Illustrator 16.0.0, SVG Export Plug-In . SVG Version: 6.00 Build 0)  -->
<!DOCTYPE svg PUBLIC "-//W3C//DTD SVG 1.1//EN" "http://www.w3.org/Graphics/SVG/1.1/DTD/svg11.dtd">
<svg version="1.1" id="Layer_1" xmlns="http://www.w3.org/2000/svg" xmlns:xlink="http://www.w3.org/1999/xlink" x="0px" y="0px"
	 width="500px" height="500px" viewBox="0 0 500 500" enable-background="new 0 0 500 500" xml:space="preserve">
<g>
	<path d="M339.66,146.002H22.637c-10.412,0-18.852,8.439-18.852,18.85v310.534c0,10.411,8.439,18.851,18.852,18.851H339.66
		c10.412,0,18.852-8.439,18.852-18.851V164.852C358.512,154.441,350.072,146.002,339.66,146.002z M255.039,303.417
		c0,2.864-0.191,5.684-0.553,8.458l7.387-4.102l3.617-2.008l2.445,2.15l45.428,39.94l-48.17-29.105l-16.604,13.008
		c-4.891,10.216-12.342,19.119-21.59,25.992l5.551,0.016l4.668,0.013l1.197,3.083l25.314,65.068l-32.891-55.929l-17.018,5.45
		c-7.578,9.102-19.391,14.959-32.674,14.959c-13.281,0-25.096-5.857-32.674-14.959l-17.018-5.45L98.566,425.93l25.314-65.068
		l1.197-3.083l4.668-0.013l5.551-0.016c-9.248-6.873-16.699-15.775-21.588-25.992L97.104,318.75l-48.17,29.105l45.428-39.94
		l2.445-2.15l3.615,2.008l7.389,4.102c-0.361-2.773-0.553-5.594-0.553-8.458c0-0.46,0.01-0.919,0.02-1.377l-25.805-17.196
		l-56.529,19.114l55.033-30.893l2.105-1.183l3.053,1.424l24.807,11.555c3.059-10.345,8.613-19.715,16.016-27.509l-43.35-28.89
		l-57.557,43.914l53.5-55.431l2.545-2.637l4.105,1.912l58.701,27.343c10.938-5.998,23.66-9.439,37.246-9.439
		s26.309,3.441,37.246,9.439l58.701-27.343l4.107-1.912l2.543,2.637l53.5,55.431l-57.557-43.914l-43.35,28.89
		c7.402,7.794,12.957,17.164,16.016,27.509l24.807-11.554l3.053-1.424l2.105,1.183l55.033,30.893l-56.529-19.114L255.02,302.04
		C255.029,302.499,255.039,302.957,255.039,303.417z"/>
	<path d="M181.148,325.392c-13.189,0-23.885,10.791-23.885,24.102c0,13.312,10.695,24.101,23.885,24.101s23.883-10.79,23.883-24.101
		C205.031,336.182,194.338,325.392,181.148,325.392z M198.563,347.483c-2.43,2.451-7.627,1.179-11.611-2.841
		c-3.984-4.02-5.244-9.266-2.814-11.716c2.43-2.452,7.627-1.18,11.611,2.84C199.73,339.785,200.99,345.032,198.563,347.483z"/>
	<path d="M378.014,124.743c-9.914-9.915-21.26-18.098-33.721-24.324l-2.385-1.192v18.588l0.826,0.476
		c8.666,4.985,16.619,11.073,23.639,18.092c6.242,6.242,11.768,13.246,16.424,20.817l0.482,0.785h18.854l-1.289-2.422
		C394.824,144.24,387.143,133.871,378.014,124.743z"/>
	<path d="M410.545,92.214c-18.92-18.918-41.275-32.942-66.447-41.683l-2.189-0.761v17.457l1.063,0.404
		c21.086,8.007,39.902,20.195,55.934,36.223c15.277,15.279,27.092,33.144,35.111,53.097l0.416,1.033h17.578l-0.814-2.216
		C442.385,131.761,428.707,110.377,410.545,92.214z"/>
	<path d="M495.609,155.88c-10.145-35.204-29.238-67.542-55.215-93.517c-26.719-26.72-60.055-46.095-96.404-56.03l-2.082-0.569
		v17.079l1.186,0.347c32.227,9.43,61.846,27.001,85.658,50.815c23.092,23.092,40.371,51.729,49.969,82.818l0.357,1.162h17.137
		L495.609,155.88z"/>
</g>
</svg>
