<?xml version="1.0" encoding="utf-8"?>
<!-- Generator: Adobe Illustrator 16.0.0, SVG Export Plug-In . SVG Version: 6.00 Build 0)  -->
<!DOCTYPE svg PUBLIC "-//W3C//DTD SVG 1.1//EN" "http://www.w3.org/Graphics/SVG/1.1/DTD/svg11.dtd">
<svg version="1.1" id="Layer_1" xmlns="http://www.w3.org/2000/svg" xmlns:xlink="http://www.w3.org/1999/xlink" x="0px" y="0px"
	 width="500px" height="500px" viewBox="0 0 500 500" enable-background="new 0 0 500 500" xml:space="preserve">
<g>
	<path d="M187.281,458.383c-1.016,1.017-2.669,1.017-3.685,0L80.818,355.605L193.07,243.354
		c12.21-32.267,37.902-57.958,70.168-70.169l83.627-83.628l102.778,102.779c1.017,1.016,1.016,2.668,0.001,3.684l-36.147,36.146
		c2.51,5.02,4.684,10.236,6.483,15.623l40.716-40.718c7.11-7.11,7.11-18.679,0-25.789L294.645,15.231
		c-7.109-7.109-18.679-7.109-25.788,0L6.493,277.596c-7.111,7.109-7.111,18.679,0,25.789l166.052,166.052
		c7.11,7.108,18.679,7.108,25.788,0l69.344-69.346c-5.387-1.799-10.604-3.97-15.625-6.48L187.281,458.383z M17.545,292.331
		c-1.016-1.016-1.016-2.669,0-3.685L279.909,26.285c1.017-1.016,2.668-1.016,3.683,0l22.012,22.01L39.556,314.344L17.545,292.331z"
		/>
	<path d="M492.599,453.727l-98.085-98.087c14.785-18.6,23.631-42.122,23.631-67.676c0-60.076-48.875-108.952-108.953-108.952
		c-60.076,0-108.952,48.876-108.952,108.952c0,60.076,48.876,108.952,108.952,108.952c19.106,0,37.076-4.949,52.704-13.623
		l100.571,100.569c4.16,4.159,9.612,6.238,15.066,6.238c5.453,0,10.907-2.079,15.066-6.238
		C500.921,475.541,500.921,462.049,492.599,453.727z M255.327,344.521c-0.304,0.957-0.826,1.435-1.563,1.435
		c-0.165,0-0.315-0.031-0.458-0.078c-0.295-0.283-0.601-0.559-0.891-0.849c-0.074-0.144-0.147-0.289-0.207-0.463
		c-0.31-0.929-0.464-2.627-0.464-5.1c0-2.494,0.155-4.21,0.464-5.148c0.309-0.935,0.827-1.403,1.555-1.403s1.247,0.484,1.556,1.458
		c0.309,0.971,0.463,2.669,0.463,5.094C255.783,341.88,255.631,343.563,255.327,344.521z M378.913,328.209
		c-2.419,0.107-4.244,1.002-5.458,2.7c-1.233,1.727-1.873,4.401-1.932,7.999c-1.564,1.911-3.219,3.742-4.948,5.501v-15.907h-5.325
		l-7.509,6.117l3.066,3.771l2.483-2.05c0.548-0.488,1.006-0.959,1.375-1.405c-0.059,1.165-0.089,2.452-0.089,3.858v11.141
		c-13.955,11.59-31.868,18.57-51.384,18.57c-19.595,0-37.571-7.04-51.55-18.716c0.817-0.441,1.514-1.041,2.076-1.819
		c1.296-1.801,1.944-4.634,1.944-8.502c0-3.742-0.665-6.556-1.997-8.444c-1.331-1.89-3.297-2.835-5.901-2.835
		c-2.673,0-4.656,0.906-5.953,2.722c-1.092,1.528-1.718,3.803-1.89,6.801c-1.012-1.284-1.99-2.597-2.924-3.942
		c-0.32-1.063-0.743-1.982-1.281-2.745c-0.433-0.614-0.94-1.12-1.508-1.535c-5.294-8.761-8.969-18.605-10.601-29.12
		c0.098,0.164,0.193,0.328,0.3,0.48c1.325,1.879,3.296,2.819,5.907,2.819c2.673,0,4.657-0.899,5.954-2.701
		c1.296-1.8,1.944-4.634,1.944-8.502c0-3.739-0.666-6.555-1.997-8.443c-1.331-1.891-3.298-2.834-5.901-2.834
		c-2.672,0-4.656,0.907-5.952,2.721c-0.479,0.671-0.869,1.486-1.171,2.44c0.208-10.519,2.42-20.554,6.306-29.722
		c0.267,0.023,0.537,0.04,0.818,0.04c2.673,0,4.657-0.902,5.954-2.701s1.944-4.633,1.944-8.503c0-1.435-0.1-2.729-0.295-3.892
		c14.599-20.636,38.631-34.148,65.774-34.148c26.137,0,49.395,12.522,64.119,31.873l-1.621,1.321l3.066,3.769l1.383-1.141
		c0.833,1.241,1.622,2.512,2.386,3.801v9.321h4.744c4.157,9.705,6.465,20.387,6.465,31.598
		C389.734,302.619,385.781,316.358,378.913,328.209z M233.796,292.464c0-2.491,0.154-4.208,0.463-5.146
		c0.309-0.936,0.828-1.407,1.556-1.407c0.727,0,1.247,0.486,1.556,1.46c0.309,0.973,0.463,2.67,0.463,5.093
		c0,2.412-0.152,4.098-0.456,5.056c-0.305,0.957-0.825,1.436-1.563,1.436c-0.728,0-1.247-0.464-1.556-1.392
		C233.951,296.637,233.796,294.936,233.796,292.464z"/>
	<path d="M251.595,242.335c0.548-0.487,1.007-0.957,1.376-1.405c-0.06,1.167-0.09,2.454-0.09,3.859v11.577h5.998v-21.868h-5.324
		l-7.509,6.118l3.066,3.769L251.595,242.335z"/>
	<path d="M271.714,234.184c-2.673,0-4.657,0.909-5.953,2.723c-1.297,1.815-1.945,4.667-1.945,8.555c0,3.709,0.664,6.505,1.99,8.383
		c1.326,1.882,3.295,2.821,5.909,2.821c2.673,0,4.656-0.902,5.953-2.701s1.944-4.633,1.944-8.503c0-3.738-0.665-6.553-1.996-8.442
		C276.283,235.128,274.316,234.184,271.714,234.184z M273.277,250.519c-0.305,0.955-0.826,1.436-1.563,1.436
		c-0.729,0-1.247-0.464-1.556-1.391c-0.31-0.928-0.464-2.627-0.464-5.101c0-2.492,0.155-4.207,0.464-5.145
		c0.309-0.938,0.827-1.407,1.556-1.407c0.727,0,1.246,0.486,1.555,1.458c0.309,0.973,0.463,2.671,0.463,5.093
		C273.732,247.875,273.58,249.56,273.277,250.519z"/>
	<path d="M287.494,242.335c0.548-0.487,1.007-0.957,1.375-1.405c-0.06,1.167-0.089,2.454-0.089,3.859v11.577h5.999v-21.868h-5.326
		l-7.509,6.118l3.066,3.769L287.494,242.335z"/>
	<path d="M307.611,234.184c-2.672,0-4.656,0.909-5.952,2.723c-1.296,1.815-1.945,4.667-1.945,8.555c0,3.709,0.664,6.505,1.989,8.383
		c1.327,1.882,3.296,2.821,5.908,2.821c2.673,0,4.657-0.902,5.954-2.701c1.296-1.799,1.944-4.633,1.944-8.503
		c0-3.738-0.666-6.553-1.997-8.442C312.181,235.128,310.214,234.184,307.611,234.184z M309.175,250.519
		c-0.305,0.955-0.825,1.436-1.564,1.436c-0.728,0-1.246-0.464-1.555-1.391c-0.309-0.928-0.463-2.627-0.463-5.101
		c0-2.492,0.154-4.207,0.463-5.145c0.309-0.938,0.827-1.407,1.555-1.407s1.248,0.486,1.556,1.458
		c0.31,0.973,0.464,2.671,0.464,5.093C309.631,247.875,309.479,249.56,309.175,250.519z"/>
	<path d="M325.56,234.184c-2.672,0-4.657,0.909-5.953,2.723c-1.296,1.815-1.945,4.667-1.945,8.555c0,3.709,0.664,6.505,1.99,8.383
		c1.326,1.882,3.296,2.821,5.908,2.821c2.673,0,4.657-0.902,5.954-2.701s1.944-4.633,1.944-8.503c0-3.738-0.666-6.553-1.997-8.442
		C330.13,235.128,328.164,234.184,325.56,234.184z M327.123,250.519c-0.304,0.955-0.824,1.436-1.563,1.436
		c-0.729,0-1.247-0.464-1.556-1.391c-0.309-0.928-0.463-2.627-0.463-5.101c0-2.492,0.154-4.207,0.463-5.145
		c0.309-0.938,0.827-1.407,1.556-1.407c0.728,0,1.248,0.486,1.555,1.458c0.31,0.973,0.464,2.671,0.464,5.093
		C327.58,247.875,327.427,249.56,327.123,250.519z"/>
	<path d="M341.34,242.335c0.548-0.487,1.008-0.957,1.376-1.405c-0.059,1.167-0.089,2.454-0.089,3.859v11.577h5.998v-21.868H343.3
		l-7.509,6.118l3.067,3.769L341.34,242.335z"/>
	<path d="M353.74,240.616l3.066,3.769l2.483-2.049c0.548-0.487,1.006-0.957,1.375-1.405c-0.059,1.167-0.089,2.454-0.089,3.859
		v11.577h5.999v-21.868h-5.325L353.74,240.616z"/>
	<path d="M253.764,281.187c-2.673,0-4.656,0.907-5.953,2.721c-1.296,1.814-1.945,4.666-1.945,8.557c0,3.71,0.664,6.503,1.99,8.384
		c1.326,1.879,3.295,2.819,5.908,2.819c2.673,0,4.657-0.899,5.954-2.701c1.296-1.8,1.944-4.634,1.944-8.502
		c0-3.739-0.665-6.555-1.997-8.443C258.334,282.13,256.367,281.187,253.764,281.187z M255.327,297.52
		c-0.304,0.957-0.826,1.436-1.563,1.436c-0.728,0-1.246-0.464-1.555-1.392c-0.31-0.927-0.464-2.628-0.464-5.1
		c0-2.491,0.155-4.208,0.464-5.146c0.309-0.936,0.827-1.407,1.555-1.407s1.247,0.486,1.556,1.46c0.309,0.973,0.463,2.67,0.463,5.093
		C255.783,294.876,255.631,296.562,255.327,297.52z"/>
	<path d="M270.831,303.368h5.998v-21.869h-5.325l-7.508,6.118l3.065,3.771l2.483-2.052c0.548-0.486,1.007-0.955,1.376-1.406
		c-0.06,1.17-0.09,2.454-0.09,3.86V303.368z"/>
	<path d="M289.663,281.187c-2.673,0-4.658,0.907-5.954,2.721c-1.296,1.814-1.944,4.666-1.944,8.557c0,3.71,0.664,6.503,1.989,8.384
		c1.327,1.879,3.296,2.819,5.909,2.819c2.672,0,4.656-0.899,5.952-2.701c1.297-1.8,1.946-4.634,1.946-8.502
		c0-3.739-0.667-6.555-1.997-8.443C294.232,282.13,292.265,281.187,289.663,281.187z M291.226,297.52
		c-0.305,0.957-0.826,1.436-1.563,1.436c-0.728,0-1.247-0.464-1.557-1.392c-0.309-0.927-0.462-2.628-0.462-5.1
		c0-2.491,0.154-4.208,0.462-5.146c0.311-0.936,0.829-1.407,1.557-1.407c0.727,0,1.246,0.486,1.556,1.46
		c0.309,0.973,0.463,2.67,0.463,5.093C291.681,294.876,291.529,296.562,291.226,297.52z"/>
	<path d="M299.894,287.617l3.066,3.771l2.483-2.052c0.547-0.486,1.006-0.955,1.375-1.406c-0.059,1.17-0.09,2.454-0.09,3.86v11.578
		h5.998v-21.869h-5.325L299.894,287.617z"/>
	<path d="M325.56,281.187c-2.672,0-4.657,0.907-5.953,2.721c-1.296,1.814-1.945,4.666-1.945,8.557c0,3.71,0.664,6.503,1.99,8.384
		c1.326,1.879,3.296,2.819,5.908,2.819c2.673,0,4.657-0.899,5.954-2.701c1.296-1.8,1.944-4.634,1.944-8.502
		c0-3.739-0.666-6.555-1.997-8.443C330.13,282.13,328.164,281.187,325.56,281.187z M327.123,297.52
		c-0.304,0.957-0.824,1.436-1.563,1.436c-0.729,0-1.247-0.464-1.556-1.392c-0.309-0.927-0.463-2.628-0.463-5.1
		c0-2.491,0.154-4.208,0.463-5.146c0.309-0.936,0.827-1.407,1.556-1.407c0.728,0,1.248,0.486,1.555,1.46
		c0.31,0.973,0.464,2.67,0.464,5.093C327.58,294.876,327.427,296.562,327.123,297.52z"/>
	<path d="M343.51,281.187c-2.673,0-4.657,0.907-5.954,2.721c-1.296,1.814-1.944,4.666-1.944,8.557c0,3.71,0.663,6.503,1.989,8.384
		c1.326,1.879,3.296,2.819,5.909,2.819c2.672,0,4.656-0.899,5.953-2.701c1.296-1.8,1.945-4.634,1.945-8.502
		c0-3.739-0.666-6.555-1.997-8.443C348.08,282.13,346.113,281.187,343.51,281.187z M345.073,297.52
		c-0.305,0.957-0.826,1.436-1.563,1.436c-0.728,0-1.248-0.464-1.556-1.392c-0.309-0.927-0.464-2.628-0.464-5.1
		c0-2.491,0.155-4.208,0.464-5.146c0.308-0.936,0.828-1.407,1.556-1.407c0.727,0,1.246,0.486,1.556,1.46
		c0.308,0.973,0.463,2.67,0.463,5.093C345.528,294.876,345.377,296.562,345.073,297.52z"/>
	<path d="M353.74,287.617l3.066,3.771l2.483-2.052c0.548-0.486,1.006-0.955,1.375-1.406c-0.059,1.17-0.089,2.454-0.089,3.86v11.578
		h5.999v-21.869h-5.325L353.74,287.617z"/>
	<path d="M373.455,283.907c-1.297,1.814-1.944,4.666-1.944,8.557c0,3.71,0.663,6.503,1.989,8.384
		c1.326,1.879,3.295,2.819,5.908,2.819c2.672,0,4.658-0.899,5.954-2.701c1.296-1.8,1.943-4.634,1.943-8.502
		c0-3.739-0.665-6.555-1.997-8.443c-1.331-1.891-3.297-2.834-5.901-2.834C376.735,281.187,374.751,282.094,373.455,283.907z
		 M380.964,287.371c0.308,0.973,0.463,2.67,0.463,5.093c0,2.412-0.152,4.098-0.456,5.056c-0.305,0.957-0.826,1.436-1.563,1.436
		c-0.729,0-1.247-0.464-1.556-1.392c-0.309-0.927-0.463-2.628-0.463-5.1c0-2.491,0.154-4.208,0.463-5.146
		c0.309-0.936,0.827-1.407,1.556-1.407C380.135,285.911,380.654,286.397,380.964,287.371z"/>
	<path d="M271.714,328.188c-2.673,0-4.657,0.906-5.953,2.722c-1.297,1.815-1.945,4.668-1.945,8.558c0,3.708,0.664,6.504,1.99,8.382
		c1.326,1.881,3.295,2.819,5.909,2.819c2.673,0,4.656-0.899,5.953-2.699c1.296-1.801,1.944-4.634,1.944-8.502
		c0-3.742-0.665-6.556-1.996-8.444C276.283,329.133,274.316,328.188,271.714,328.188z M273.277,344.521
		c-0.305,0.957-0.826,1.435-1.563,1.435c-0.729,0-1.247-0.464-1.556-1.39c-0.31-0.929-0.464-2.627-0.464-5.1
		c0-2.494,0.155-4.21,0.464-5.148c0.309-0.935,0.827-1.403,1.556-1.403c0.727,0,1.246,0.484,1.555,1.458
		c0.309,0.971,0.463,2.669,0.463,5.094C273.732,341.88,273.58,343.563,273.277,344.521z"/>
	<path d="M281.943,334.619l3.066,3.771l2.484-2.05c0.548-0.488,1.007-0.959,1.375-1.405c-0.06,1.165-0.089,2.452-0.089,3.858v11.576
		h5.999v-21.867h-5.326L281.943,334.619z"/>
	<path d="M299.894,334.619l3.066,3.771l2.483-2.05c0.547-0.488,1.006-0.959,1.375-1.405c-0.059,1.165-0.09,2.452-0.09,3.858v11.576
		h5.998v-21.867h-5.325L299.894,334.619z"/>
	<path d="M317.842,334.619l3.066,3.771l2.483-2.05c0.548-0.488,1.007-0.959,1.376-1.405c-0.06,1.165-0.091,2.452-0.091,3.858v11.576
		h5.999v-21.867h-5.325L317.842,334.619z"/>
	<path d="M343.51,328.188c-2.673,0-4.657,0.906-5.954,2.722s-1.944,4.668-1.944,8.558c0,3.708,0.663,6.504,1.989,8.382
		c1.326,1.881,3.296,2.819,5.909,2.819c2.672,0,4.656-0.899,5.953-2.699c1.296-1.801,1.945-4.634,1.945-8.502
		c0-3.742-0.666-6.556-1.997-8.444C348.08,329.133,346.113,328.188,343.51,328.188z M345.073,344.521
		c-0.305,0.957-0.826,1.435-1.563,1.435c-0.728,0-1.248-0.464-1.556-1.39c-0.309-0.929-0.464-2.627-0.464-5.1
		c0-2.494,0.155-4.21,0.464-5.148c0.308-0.935,0.828-1.403,1.556-1.403c0.727,0,1.246,0.484,1.556,1.458
		c0.308,0.971,0.463,2.669,0.463,5.094C345.528,341.88,345.377,343.563,345.073,344.521z"/>
</g>
</svg>
