<?xml version="1.0" encoding="utf-8"?>
<!-- Generator: Adobe Illustrator 16.0.0, SVG Export Plug-In . SVG Version: 6.00 Build 0)  -->
<!DOCTYPE svg PUBLIC "-//W3C//DTD SVG 1.1//EN" "http://www.w3.org/Graphics/SVG/1.1/DTD/svg11.dtd">
<svg version="1.1" id="Layer_1" xmlns="http://www.w3.org/2000/svg" xmlns:xlink="http://www.w3.org/1999/xlink" x="0px" y="0px"
	 width="500px" height="500px" viewBox="0 0 500 500" enable-background="new 0 0 500 500" xml:space="preserve">
<g>
	<polygon points="219.938,322.159 250.361,340.477 280.391,321.953 250.368,306.155 	"/>
	<polygon points="211.325,316.964 217.295,282.113 150.436,229.317 139.698,273.815 	"/>
	<path d="M206.444,189.049l-7.995,23.955l-41.722,10.529l33.274,25.478l39.89-5.812l20.477-41.412l20.469,41.425l39.896,5.799
		l33.253-25.478l-41.728-10.529c0,0-28.386-88.873-43.033-88.873c-17.628,0-29.282,0-39.935,0c-16.068,0-11.643,19.127-35.6,19.127
		c-23.949,0-28.282,28.788-28.282,28.788s8.992,0,31.938,0C210.321,172.046,206.444,189.049,206.444,189.049z M218.115,138.442
		c2.862,0,5.166,2.304,5.166,5.151c0,2.844-2.304,5.162-5.166,5.162c-2.843,0-5.154-2.318-5.154-5.162
		C212.961,140.746,215.286,138.442,218.115,138.442z"/>
	<polygon points="289.324,316.434 361.038,272.18 350.33,229.302 283.447,282.113 	"/>
	<path d="M357.52,224.682l10.186,43.454h79.442c32.591,0,49.226-43.454,49.226-43.454H357.52z"/>
	<path d="M299.129,322.456h96.414c32.592,0,57.035-43.456,57.035-43.456h-86.57L299.129,322.456z"/>
	<path d="M250,354.247l-33.604-21.835H102.421c0,0,33.609,43.457,66.198,43.457h48.105h66.552h48.102
		c32.595,0,66.203-43.457,66.203-43.457H283.604L250,354.247z"/>
	<path d="M132.295,268.136l10.185-43.454H3.627c0,0,16.635,43.454,49.229,43.454H132.295z"/>
	<path d="M200.871,322.456L133.993,279H47.422c0,0,24.443,43.456,57.035,43.456H200.871z"/>
</g>
</svg>
