<?xml version="1.0" encoding="utf-8"?>
<!-- Generator: Adobe Illustrator 16.0.0, SVG Export Plug-In . SVG Version: 6.00 Build 0)  -->
<!DOCTYPE svg PUBLIC "-//W3C//DTD SVG 1.1//EN" "http://www.w3.org/Graphics/SVG/1.1/DTD/svg11.dtd">
<svg version="1.1" id="Layer_1" xmlns="http://www.w3.org/2000/svg" xmlns:xlink="http://www.w3.org/1999/xlink" x="0px" y="0px"
	 width="500px" height="500px" viewBox="0 0 500 500" enable-background="new 0 0 500 500" xml:space="preserve">
<g>
	<path d="M387.916,318.051c-1.294-1.653-8.491-10.03-22.903-15.528c-12.648-3.914-43.948-14.286-61.082-26.684
		c-2.768-2.089-5.342-4.58-7.283-6.614c11.322-11.281,20.603-26.241,26.892-42.933c-4.045-4.88-6.48-11.141-6.48-17.96v-64.711
		c0-5.375,1.514-10.402,4.135-14.681C306.855,102.053,280.349,86.678,250,86.678c-30.555,0-57.212,15.587-71.482,42.813
		c2.419,4.157,3.813,8.982,3.813,14.129v64.711c0,6.582-2.274,12.639-6.069,17.441c6.291,16.902,15.65,32.054,27.089,43.452
		c-1.941,2.035-4.515,4.525-7.283,6.614c-17.134,12.397-48.433,22.77-61.081,26.684c-14.412,5.498-21.609,13.875-22.903,15.528
		c-26.505,39.349-29.509,127.631-29.532,128.507c0.237,11.749,3.728,15.763,4.932,16.257
		c58.999,26.25,128.448,32.914,162.517,32.914s103.518-6.664,162.516-32.914c1.205-0.494,4.695-4.509,4.932-16.257
		C417.425,445.682,414.421,357.399,387.916,318.051z"/>
	<path d="M123.756,176v31.591h7.305v1.08c0,12.75,10.335,23.084,23.083,23.084c12.749,0,23.084-10.333,23.084-23.084v-64.71
		c0-12.75-10.335-23.083-23.084-23.083c-12.748,0-23.083,10.333-23.083,23.083v1.081h-4.171c0.144-10.319,0.846-22.126,2.721-33.539
		c0.058,0.25,0.091,0.394,0.091,0.394s0.403-1.294,1.063-3.724c0.083-0.303,0.17-0.624,0.263-0.963
		c0.114-0.327,0.233-0.671,0.359-1.031c0.239-0.708,0.5-1.48,0.783-2.317c0.25-0.822,0.623-1.704,1.002-2.639
		c0.376-0.932,0.73-1.923,1.182-2.943c1.801-4.084,4.28-8.805,7.667-13.694c3.41-4.874,7.642-9.957,12.911-14.748
		c1.358-1.167,2.633-2.423,4.105-3.556c0.71-0.58,1.429-1.167,2.153-1.757c0.751-0.56,1.509-1.126,2.274-1.697
		c0.379-0.283,0.76-0.568,1.143-0.855c0.396-0.272,0.794-0.546,1.193-0.819c0.794-0.547,1.595-1.098,2.401-1.654
		c0.815-0.542,1.679-1.04,2.509-1.578c0.839-0.532,1.667-1.08,2.559-1.565c3.462-2.057,7.157-3.937,10.965-5.748
		c3.86-1.727,7.812-3.433,11.971-4.854c8.252-2.972,17.091-5.16,26.171-6.723c1.13-0.222,2.289-0.326,3.428-0.517
		c1.148-0.153,2.284-0.377,3.444-0.479c2.315-0.236,4.622-0.543,6.958-0.697c1.165-0.083,2.327-0.211,3.499-0.264
		c1.17-0.045,2.341-0.096,3.513-0.163c1.169-0.083,2.345-0.095,3.519-0.105l1.765-0.025l0.881-0.013l0.44-0.008l0.22-0.003
		l0.11-0.001c-0.044-0.001,0.021-0.001,0.063-0.001l3.655,0.058l1.959,0.029c0.349-0.001,0.597,0.022,0.879,0.036l0.828,0.048
		c1.104,0.06,2.208,0.127,3.314,0.165c1.11,0.048,2.316,0.178,3.469,0.262c2.334,0.146,4.639,0.471,6.954,0.704
		c1.161,0.103,2.296,0.325,3.443,0.479c1.143,0.187,2.297,0.308,3.427,0.524c9.076,1.571,17.916,3.751,26.16,6.731
		c1.027,0.378,2.072,0.719,3.077,1.122c1.013,0.399,2.019,0.795,3.02,1.189c1.016,0.374,1.975,0.838,2.954,1.263
		c0.971,0.433,1.972,0.818,2.915,1.283c3.808,1.808,7.499,3.688,10.957,5.746c0.894,0.484,1.721,1.032,2.56,1.563
		c0.832,0.539,1.69,1.04,2.508,1.579c0.806,0.554,1.605,1.104,2.4,1.651c0.398,0.275,0.795,0.548,1.192,0.821
		c0.382,0.285,0.763,0.57,1.143,0.854c0.763,0.569,1.522,1.133,2.274,1.692c0.724,0.591,1.442,1.177,2.152,1.758
		c1.473,1.128,2.746,2.387,4.105,3.553c5.269,4.786,9.502,9.865,12.914,14.734c3.391,4.882,5.874,9.6,7.679,13.683
		c0.455,1.02,0.808,2.011,1.187,2.942c0.379,0.933,0.753,1.813,1.008,2.653c0.282,0.842,0.545,1.623,0.784,2.337
		c0.127,0.361,0.248,0.706,0.361,1.033c0.093,0.332,0.18,0.646,0.263,0.942c0.044,0.157,0.084,0.297,0.124,0.444
		c2.251,12.286,3.064,25.219,3.222,36.407h-4.773v-1.081c0-12.75-10.335-23.083-23.084-23.083s-23.084,10.333-23.084,23.083v64.71
		c0,12.75,10.335,23.084,23.084,23.084s23.084-10.333,23.084-23.084v-1.08h7.305v-31.655l3.646,0.38
		c0.287-2.742,5.41-54.205-7.662-89.282c-0.409-2.421-0.967-4.975-1.721-7.651c-1.892-6.696-5.02-14.11-9.732-21.43
		c-1.197-1.807-2.408-3.695-3.795-5.478c-0.678-0.906-1.364-1.828-2.079-2.738c-0.744-0.883-1.493-1.772-2.25-2.671
		c-0.381-0.449-0.764-0.902-1.148-1.355c-0.393-0.444-0.807-0.865-1.215-1.302c-0.822-0.869-1.652-1.745-2.487-2.627
		c-0.853-0.865-1.741-1.699-2.636-2.548c-0.897-0.845-1.793-1.714-2.747-2.513c-0.949-0.813-1.902-1.633-2.864-2.459
		c-0.97-0.817-1.99-1.567-2.997-2.36c-2.004-1.617-4.151-3.052-6.306-4.552c-4.362-2.886-8.97-5.65-13.844-8.037
		c-9.704-4.915-20.347-8.664-31.425-11.226c-5.546-1.221-11.19-2.261-16.9-2.838c-1.439-0.147-2.824-0.331-4.315-0.444
		c-1.498-0.112-3-0.195-4.5-0.286l-1.126-0.064c-0.371-0.021-0.773-0.049-1.078-0.051l-1.959-0.047l-3.919-0.088l-4.624,0.095
		c-1.438,0.028-2.875,0.064-4.31,0.17l-4.301,0.288c-1.431,0.108-2.859,0.294-4.286,0.439c-5.708,0.584-11.352,1.621-16.896,2.853
		c-11.073,2.572-21.714,6.311-31.412,11.234c-4.872,2.392-9.476,5.155-13.839,8.039c-2.157,1.498-4.298,2.937-6.301,4.551
		c-1.008,0.794-2.03,1.543-2.999,2.36c-0.961,0.826-1.914,1.646-2.862,2.46c-0.954,0.796-1.85,1.665-2.747,2.51
		c-0.893,0.85-1.78,1.686-2.633,2.548c-0.835,0.882-1.665,1.756-2.488,2.625c-0.408,0.436-0.82,0.859-1.212,1.304
		c-0.385,0.454-0.769,0.904-1.149,1.354c-0.756,0.897-1.506,1.786-2.25,2.667c-0.716,0.909-1.396,1.835-2.078,2.738
		c-1.389,1.778-2.596,3.67-3.794,5.475c-4.712,7.315-7.841,14.724-9.735,21.417c-0.475,1.678-0.875,3.31-1.208,4.89
		c-14.419,35.07-9.029,89.213-8.735,92.027L123.756,176z"/>
</g>
</svg>
