<?xml version="1.0" encoding="utf-8"?>
<!-- Generator: Adobe Illustrator 16.0.0, SVG Export Plug-In . SVG Version: 6.00 Build 0)  -->
<!DOCTYPE svg PUBLIC "-//W3C//DTD SVG 1.1//EN" "http://www.w3.org/Graphics/SVG/1.1/DTD/svg11.dtd">
<svg version="1.1" id="Layer_1" xmlns="http://www.w3.org/2000/svg" xmlns:xlink="http://www.w3.org/1999/xlink" x="0px" y="0px"
	 width="500px" height="500px" viewBox="0 0 500 500" enable-background="new 0 0 500 500" xml:space="preserve">
<g>
	<path d="M411.465,289.07c-1.514-1.935-9.94-11.743-26.814-18.179c-14.808-4.582-51.45-16.725-71.51-31.24
		c-0.157-0.118-0.311-0.243-0.467-0.363C294.777,253.404,273.202,261.66,250,261.66s-44.777-8.256-62.674-22.373
		c-0.156,0.12-0.31,0.245-0.467,0.363c-20.06,14.515-56.703,26.658-71.511,31.24c-16.873,6.437-25.3,16.244-26.814,18.179
		c-31.031,46.068-34.548,149.425-34.575,150.451c0.277,13.755,4.364,18.455,5.773,19.034
		c69.073,30.732,150.382,38.533,190.268,38.533c39.885,0,121.193-7.801,190.267-38.533c1.409-0.58,5.496-5.279,5.774-19.034
		C446.014,438.495,442.496,335.138,411.465,289.07z"/>
	<path d="M150.893,158.998c-3.338-5.387-5.271-11.731-5.271-18.521v-38.844c0-7.123,2.641-20.373,20.314-29.086
		c8.469-4.175,17.538-5.917,21.898-6.754c15.193-2.917,35.505-4.334,62.1-4.334s46.906,1.417,62.097,4.334
		c4.362,0.837,13.434,2.579,21.901,6.754c17.674,8.713,20.314,21.964,20.314,29.086v38.844c0,6.791-1.933,13.134-5.271,18.521
		v38.881c12.257-19.831,19.397-43.561,19.397-69.067c0-69.533-52.996-125.9-118.373-125.9s-118.373,56.367-118.373,125.9
		c0,25.416,7.089,49.068,19.266,68.857V158.998z M244.837,23.948l5.163,0.74l5.163-0.74c8.667-3.117,41.771-14.346,29.429,0.74
		C270.442,41.984,267.82,35.17,267.82,35.17L250,48.798L232.181,35.17c0,0-2.62,6.814-16.772-10.483
		C203.065,9.602,236.173,20.831,244.837,23.948z"/>
	<path d="M270.89,180.544c-9.339,0-15.421-7.014-20.89-14.86c-5.469,7.846-11.549,14.86-20.889,14.86h-46.196
		c-6.823,0-13.129-2.248-18.223-6.042v26.327c0,0,26.011,51.266,85.308,51.266c59.296,0,85.307-51.266,85.307-51.266v-26.327
		c-5.09,3.794-11.399,6.042-18.222,6.042H270.89z"/>
	<path d="M340.578,99.017c0-16.387-23.384-20.877-31.069-22.354c-14.327-2.75-33.791-4.087-59.509-4.087
		c-25.715,0-45.182,1.336-59.509,4.087c-7.684,1.477-31.069,5.967-31.069,22.354v50.844c0,11.878,9.666,21.541,21.542,21.541h44.848
		c7.238,0,17.145-7.417,24.188-14.331c7.044,6.913,16.95,14.331,24.19,14.331h44.846c11.879,0,21.542-9.663,21.542-21.541V99.017z
		 M328.571,149.86c0,5.258-4.276,9.535-9.535,9.535h-44.834c-2.761-0.116-12.445-6.606-19.65-14.99L250,139.108l-4.552,5.297
		c-7.205,8.383-16.888,14.874-19.637,14.99h-44.848c-5.257,0-9.535-4.277-9.535-9.535V99.017c0-2.412,3.788-14.435,78.571-14.435
		s78.571,12.023,78.571,14.435V149.86z"/>
</g>
</svg>
