<?xml version="1.0" encoding="utf-8"?>
<!-- Generator: Adobe Illustrator 16.0.0, SVG Export Plug-In . SVG Version: 6.00 Build 0)  -->
<!DOCTYPE svg PUBLIC "-//W3C//DTD SVG 1.1//EN" "http://www.w3.org/Graphics/SVG/1.1/DTD/svg11.dtd">
<svg version="1.1" id="Layer_1" xmlns="http://www.w3.org/2000/svg" xmlns:xlink="http://www.w3.org/1999/xlink" x="0px" y="0px"
	 width="500px" height="500px" viewBox="0 0 500 500" enable-background="new 0 0 500 500" xml:space="preserve">
<path d="M446.406,381.742c-5.713-7.734-17.297-58.861-24.917-102.578v-76.803c15.452-9.611,25.735-29.479,30.606-59.193
	c3.813-23.256,2.865-44.211,2.823-45.092l-0.188-3.916L377.479,20.1c-0.37-0.43-0.758-0.85-1.183-1.25
	c-8.821-8.295-23.825-4.467-51.785,13.213c-11.591,7.326-22.378,15.172-28.092,19.441h-46.05h-0.74h-46.05
	c-5.714-4.27-16.501-12.115-28.092-19.441c-27.96-17.68-42.964-21.508-51.785-13.213c-0.425,0.4-0.813,0.82-1.183,1.25L45.269,94.16
	l-0.188,3.916c-0.042,0.881-0.989,21.836,2.823,45.092c4.871,29.715,15.154,49.582,30.606,59.193v76.803
	c-7.62,43.717-19.204,94.844-24.917,102.578c-15.91,13.717-20.141,61.6-13.247,95.709l1.594,7.889H249.63h0.74H458.06l1.594-7.889
	C466.547,443.342,462.316,395.459,446.406,381.742z M424.654,378.289l7.045,19.064c-28.396,9.003-70.976,9.771-72.56,9.8
	l-0.811-19.496C358.688,387.65,399.069,386.4,424.654,378.289z M95.56,326.841c41.463,6.616,96.311,10.26,154.44,10.26
	s112.978-3.644,154.44-10.26c2.06-0.329,4.064-0.666,6.042-1.008c0.52,2.473,1.053,4.974,1.599,7.481
	c2.776,12.76,5.22,22.857,7.394,30.888c-9.194,2.126-21.695,4.444-38.542,6.629c-36.725,4.763-83.225,7.386-130.933,7.386
	s-94.208-2.623-130.933-7.386c-16.845-2.185-29.347-4.503-38.542-6.629c2.174-8.03,4.617-18.128,7.394-30.888
	c0.546-2.507,1.079-5.007,1.599-7.479C91.493,326.178,93.503,326.513,95.56,326.841z M93.661,308.021l2.545-19.064
	c25.585,8.111,64.966,8.861,65.325,8.868l-0.86,19.996C159.087,317.792,122.057,317.023,93.661,308.021z M342.187,297.824
	c0.359-0.007,35.89-0.757,61.475-8.868l2.045,19.064c-28.396,9.003-61.926,9.771-63.51,9.8L342.187,297.824z M331.107,51.205
	c15.834-10.332,24.76-14.338,29.438-15.885c-1.001,3.148-3.107,8.236-7.474,16.184h-22.421
	C330.804,51.404,330.955,51.305,331.107,51.205z M168.893,51.205c0.152,0.1,0.304,0.199,0.456,0.299h-22.421
	c-4.366-7.947-6.473-13.035-7.474-16.184C144.133,36.867,153.059,40.873,168.893,51.205z M64.609,102.869l11.333-10.865
	c7.131,19.696,22.223,49.746,52.267,71.406l17.545-24.336c-32.622-23.517-43.317-61.026-45.537-70.342l22.634-21.699
	c4.641,11.359,96.979,121.471,126.596,121.471c0.181,0,0.368-0.008,0.554-0.016c0.186,0.008,0.554,0.016,0.554,0.016
	S372.509,58.393,377.149,47.033l22.647,21.712c-2.145,9.222-12.603,46.577-45.551,70.329l17.545,24.336
	c30.044-21.66,45.136-51.71,52.266-71.406l11.334,10.865c0.379,22.383-3.716,74.439-27.554,84.477l-6.02,2.535v86.714
	c-6.083,1.047-13.005,2.099-20.885,3.12c-36.725,4.763-83.225,7.386-130.933,7.386s-94.208-2.623-130.933-7.386
	c-7.879-1.021-14.801-2.072-20.885-3.119v-86.715l-6.02-2.535C68.325,177.309,64.23,125.252,64.609,102.869z M75.54,378.289
	c25.585,8.111,65.966,8.861,66.325,8.868l-1.36,19.996c-1.584-0.028-43.614-0.797-72.01-9.8L75.54,378.289z M441.73,465.668H250.37
	h-0.74H58.27c-3.084-21.54-1.02-41.885,2.211-54.934c9.925,2.662,21.65,5.08,35.079,7.223c41.463,6.616,96.311,10.26,154.44,10.26
	s112.978-3.644,154.44-10.26c13.427-2.143,25.155-4.56,35.079-7.221C442.75,423.784,444.814,444.129,441.73,465.668z"/>
</svg>
