<?xml version="1.0" encoding="utf-8"?>
<!-- Generator: Adobe Illustrator 16.0.0, SVG Export Plug-In . SVG Version: 6.00 Build 0)  -->
<!DOCTYPE svg PUBLIC "-//W3C//DTD SVG 1.1//EN" "http://www.w3.org/Graphics/SVG/1.1/DTD/svg11.dtd">
<svg version="1.1" id="Layer_1" xmlns="http://www.w3.org/2000/svg" xmlns:xlink="http://www.w3.org/1999/xlink" x="0px" y="0px"
	 width="500px" height="500px" viewBox="0 0 500 500" enable-background="new 0 0 500 500" xml:space="preserve">
<g>
	<path d="M191.089,168.355c9.724-4.985,17.673-10.384,24.002-15.47c1.36-1.093,2.665-2.187,3.919-3.276l-60.694-47.929
		l-9.888,40.977L191.089,168.355z"/>
	<path d="M209.892,64.6l-7.362,22.059l-38.42,9.696l30.641,23.461l36.733-5.352l18.855-38.134l18.849,38.146l36.739,5.34
		l30.621-23.461l-38.425-9.696c0,0-26.14-81.839-39.628-81.839c-16.232,0-26.964,0-36.773,0c-14.797,0-10.722,17.613-32.782,17.613
		c-22.054,0-26.044,26.51-26.044,26.51s8.28,0,29.41,0C213.462,48.942,209.892,64.6,209.892,64.6z M220.639,17.998
		c2.636,0,4.758,2.121,4.758,4.744c0,2.618-2.122,4.753-4.758,4.753c-2.617,0-4.746-2.135-4.746-4.753
		C215.893,20.119,218.033,17.998,220.639,17.998z"/>
	<path d="M285.209,152.886c6.206,4.986,13.963,10.274,23.429,15.178l43.612-26.912l-9.86-39.484l-60.917,48.1
		C282.672,150.805,283.915,151.846,285.209,152.886z"/>
	<path d="M349.01,97.412l9.38,40.015h73.155c30.011,0,45.329-40.015,45.329-40.015H349.01z"/>
	<path d="M318.135,172.571c17.699,7.692,40.35,13.686,68.734,14.757c28.578-2.39,49.676-39.896,49.676-39.896h-79.719
		L318.135,172.571z"/>
	<path d="M141.61,137.427l9.379-40.015H23.126c0,0,15.318,40.015,45.332,40.015H141.61z"/>
	<path d="M181.986,172.65l-38.812-25.219h-79.72c0,0,21.137,37.577,49.755,39.903C141.603,186.291,164.269,180.324,181.986,172.65z"
		/>
	<path d="M249.998,123.824c0,0-33.419,72.767-145.842,72.767c0,262.205,81.521,212.524,145.842,298.59
		c64.326-86.065,145.846-36.385,145.846-298.59C283.422,196.591,249.998,123.824,249.998,123.824z M348.536,368.725
		c-13.618,28.854-31.536,41.063-54.222,56.521c-13.949,9.507-29.219,19.912-44.316,35.066
		c-15.095-15.154-30.365-25.562-44.314-35.066c-22.685-15.459-40.602-27.669-54.22-56.521
		c-14.938-31.648-22.909-80.933-24.26-150.263c63.936-5.509,102.069-33.427,122.795-55.829
		c20.725,22.402,58.854,50.32,122.797,55.829C371.446,287.792,363.474,337.076,348.536,368.725z"/>
	<path d="M197.137,285.972c3.43,0,6.639,0.48,9.626,1.438c2.987,0.96,5.976,2.14,8.964,3.541l6.694-17.206
		c-7.968-3.798-16.321-5.698-25.063-5.698c-8.004,0-14.966,1.706-20.885,5.117c-5.921,3.412-10.457,8.29-13.611,14.633
		c-3.153,6.345-4.73,13.703-4.73,22.076c0,13.388,3.256,23.623,9.767,30.705c6.509,7.081,15.868,10.621,28.077,10.621
		c8.52,0,16.154-1.493,22.904-4.48V328.24c-3.394,1.402-6.769,2.6-10.124,3.597c-3.357,0.995-6.824,1.493-10.401,1.493
		c-11.84,0-17.761-7.782-17.761-23.347c0-7.487,1.457-13.361,4.371-17.621C187.878,288.103,191.936,285.972,197.137,285.972z"/>
	<rect x="234.647" y="269.209" width="21.964" height="80.885"/>
	<path d="M293.458,334.935h26.278l3.984,15.159h23.9l-26.723-81.217h-29.156l-26.39,81.217h24.013L293.458,334.935z
		 M304.496,291.504c0.977-4.314,1.631-7.413,1.964-9.294c0.367,2.029,1.133,5.385,2.295,10.069s2.149,8.502,2.96,11.452
		l3.486,13.278h-17.207C301.351,304.321,303.518,295.819,304.496,291.504z"/>
</g>
</svg>
