<?xml version="1.0" encoding="utf-8"?>
<!-- Generator: Adobe Illustrator 16.0.0, SVG Export Plug-In . SVG Version: 6.00 Build 0)  -->
<!DOCTYPE svg PUBLIC "-//W3C//DTD SVG 1.1//EN" "http://www.w3.org/Graphics/SVG/1.1/DTD/svg11.dtd">
<svg version="1.1" id="Layer_1" xmlns="http://www.w3.org/2000/svg" xmlns:xlink="http://www.w3.org/1999/xlink" x="0px" y="0px"
	 width="500px" height="500px" viewBox="0 0 500 500" enable-background="new 0 0 500 500" xml:space="preserve">
<path d="M423.275,3.688h-76.979l-6.241,210.531L332.922,3.688H167.151l-6.241,210.531L153.778,3.688H76.725
	c-5.333,0-9.657,4.322-9.657,9.656v237.303c0,5.334,4.324,9.656,9.657,9.656h150.741l18.255,18.258
	c-1.418,0.803-2.614,1.992-3.404,3.486l-32.095,60.703l-67.652,11.768c-3.173,0.553-5.781,2.814-6.776,5.877
	c-0.996,3.063-0.215,6.426,2.028,8.736l47.816,49.285l-9.717,67.975c-0.455,3.189,0.89,6.369,3.496,8.262
	c2.605,1.893,6.044,2.189,8.938,0.771L250,465.178l61.646,30.246c1.214,0.594,2.523,0.889,3.828,0.889
	c1.803,0,3.597-0.561,5.109-1.66c2.606-1.893,3.951-5.072,3.496-8.262l-9.716-67.975l47.816-49.285
	c2.243-2.311,3.024-5.674,2.028-8.736c-0.996-3.063-3.604-5.324-6.776-5.877l-67.651-11.768l-32.096-60.703
	c-0.79-1.494-1.986-2.684-3.404-3.486l18.255-18.258h150.74c5.334,0,9.658-4.322,9.658-9.656V13.344
	C432.933,8.01,428.609,3.688,423.275,3.688z"/>
</svg>
