<svg xmlns="http://www.w3.org/2000/svg" width="500" height="500" viewBox="0 0 500 500"><path d="M461.78 163.77c-15.927 0-29.42 10.372-34.116 24.727l-68.055-.12-7.65-5.557-11.356-35.065-36.95-.034-10.163-7.382-21.876-63.183c8.645-6.554 14.232-16.932 14.232-28.618 0-19.824-16.07-35.896-35.896-35.896s-35.896 16.073-35.896 35.897c0 11.687 5.588 22.064 14.232 28.618l-21.912 63.28-9.89 7.188-35.175-.03-10.927 33.524-9.99 7.26-68.057.12c-4.695-14.354-18.19-24.728-34.115-24.728-19.825 0-35.895 16.07-35.895 35.895s16.07 35.896 35.896 35.896c7.435 0 14.34-2.26 20.07-6.128l54.274 42.23 4.146 12.764-10.088 30.95-.873 2.685 28.67 20.872 3.718 11.44-19.82 65.228c-19.238.666-34.633 16.464-34.633 35.864 0 19.824 16.072 35.896 35.898 35.896s35.896-16.072 35.896-35.896c0-3.742-.575-7.35-1.638-10.743l55.94-39.026h10.856l30.066 21.886 30.18-21.886h9.227l55.958 39.037a35.812 35.812 0 0 0-1.633 10.734c0 19.824 16.068 35.896 35.895 35.896 19.828 0 35.898-16.072 35.898-35.896 0-19.406-15.404-35.207-34.652-35.865l-19.77-65.065 3.197-9.84 30.85-22.37-11.77-36.344 3.386-10.423 54.187-42.162a35.716 35.716 0 0 0 20.12 6.167c19.83 0 35.897-16.072 35.897-35.896s-16.067-35.897-35.895-35.897zm-361.456 70.22l-28.357-22.063c.145-.402.28-.807.41-1.215l37.363-.068-13.754 9.994 4.338 13.353zm234.623-78.466l6.326 19.53-26.904-19.55 20.577.02zM249.28 84.416c.224.004.444.017.67.017s.444-.013.67-.017l11.46 33.1L250 108.74l-12.217 8.874 11.498-33.198zm-82.33 70.954l18.845.018-24.697 17.943 5.853-17.96zM114.894 315.1l5.9-18.108 9.535 29.345-15.435-11.237zm26.064 107.524c-.42-.312-.846-.616-1.277-.908l10.457-34.418 4.678 14.396h16.145l-30.003 20.93zm109.758-8.655l-16.86-12.276h33.788l-16.928 12.275zm108.236 8.66l-30.01-20.937h16.247l4.623-14.232 10.412 34.267c-.43.29-.855.594-1.27.904zm-9.28-81.338l-61.6 44.755H211.93l-61.6-44.755-23.528-72.415 23.53-72.415 61.6-44.755h76.142l61.6 44.755 23.53 72.415-23.53 72.415zm37.05-25.947l-17.63 12.783 10.9-33.55 6.73 20.767zm12.99-81.46l4.306-13.247-13.754-9.994 37.36.068c.126.386.255.77.39 1.15l-28.3 22.023z"/><path d="M238.52 335.584h6.826l4.654 4.654 4.654-4.654h6.824v-84.712H238.52zM202.754 246.924l-.037.585H297.3l-.054-.586c1.057-8.17 3.932-14.923 7.012-20.09H195.742c3.08 5.167 5.955 11.92 7.012 20.09z"/><path d="M250 171.104c-53.54 0-96.942 43.402-96.942 96.942S196.46 364.99 250 364.99s96.942-43.403 96.942-96.943S303.54 171.104 250 171.104zm53.457 82.875h-.08c.076.938.115 1.886.115 2.844V305.5c0 19.54-15.84 35.38-35.38 35.38h-11.898L250 347.094l-6.214-6.214h-11.9c-19.538 0-35.378-15.84-35.378-35.38v-48.676c0-.958.04-1.905.114-2.845h-.08c0-20.962-14.542-33.36-14.542-33.36h136s-14.543 12.4-14.543 33.36z"/><path d="M274.39 334.957c10.415-2.106 22.956-14.533 22.956-25.055v-59.03H274.39v84.085zM202.654 309.902c0 11.358 12.54 22.948 22.955 25.055v-84.085h-22.956v59.03z"/></svg>