<svg xmlns="http://www.w3.org/2000/svg" width="500" height="500" viewBox="0 0 500 500"><path d="M398.696 160.81v-9.835c0-82.128-66.576-148.707-148.705-148.707-82.127 0-148.705 66.578-148.705 148.707v4.623c0 1.746.043 3.482.105 5.212h-.006c0 42.25 29.348 83.63 61.366 116.212a21.574 21.574 0 0 1 2.495-5.482 21.336 21.336 0 0 1 10.34-8.455C146.445 233.43 121 197 120.26 160.81l-.133-7.237c0-14.497 11.75-26.25 26.25-26.25 14.496 0 26.248 11.753 26.248 26.25v7.094c-.04 1.716-.552 30.548 7.58 66.193 2.945 12.902 6.668 25.023 11.117 36.304 6.445 2.602 11.49 8.244 13.05 15.305 1.888 8.548 8.03 16.567 14.937 19.5 1.34.57 2.558.872 3.518.872.305 0 .578-.033.84-.096-8.462-7.37-13.827-18.207-13.827-30.283 0-1.268.067-2.518.182-3.756-21.634-49.205-20.778-102.927-20.76-103.7l-.06-7.435c0-14.497 11.752-26.25 26.25-26.25 13.857 0 25.178 10.745 26.153 24.352v77.52a40.11 40.11 0 0 1 16.765-.007V151.77c.93-13.65 12.27-24.447 26.16-24.447 14.498 0 26.247 11.752 26.247 26.25l-.08 7.433c.02.773.873 54.44-20.726 103.625.12 1.263.19 2.54.19 3.833 0 12.076-5.366 22.914-13.83 30.283.26.063.535.096.84.096.96 0 2.18-.3 3.522-.87 6.905-2.935 13.047-10.954 14.936-19.503 1.555-7.042 6.58-12.675 13.003-15.284 4.452-11.285 8.18-23.417 11.126-36.326 7.558-33.128 7.647-60.368 7.592-65.43h.008v-7.857c0-14.497 11.754-26.25 26.25-26.25 14.497 0 26.248 11.753 26.248 26.25v7.237h-.016c0 35.95-26.217 72.62-55.38 102.294a21.324 21.324 0 0 1 10.296 8.436 21.638 21.638 0 0 1 2.52 5.56c32.047-32.596 61.44-74.008 61.44-116.29h-.018z"/><circle cx="250" cy="268.186" r="30.493"/><path d="M319.18 271.27c-6.388-1.407-12.703 2.622-14.113 9.007-2.56 11.592-10.838 22.166-20.597 26.313-5.375 2.283-10.147 2.182-14.187-.295-.28-.172-.566-.32-.854-.467a35.262 35.262 0 0 0-11.835-5.38L250 308.097l-7.365-7.732c-.026.01-.05.01-.076.016a35.03 35.03 0 0 0-12.157 5.543c-.23.12-.46.236-.686.373-4.04 2.477-8.813 2.578-14.187.295-9.758-4.145-18.036-14.72-20.596-26.312-1.41-6.385-7.73-10.418-14.113-9.006-6.385 1.408-10.416 7.73-9.007 14.11 4.2 19.017 17.727 35.894 34.46 43 4.173 1.774 8.375 2.876 12.517 3.314v46.623a23.91 23.91 0 0 0 3.044 11.75l-10.84 92.034c-.904 7.674 4.583 14.63 12.258 15.533.556.064 1.108.096 1.654.096 6.997 0 13.04-5.236 13.877-12.355l9.447-80.2c.59.028 1.18.048 1.77.048s1.183-.02 1.772-.05l9.447 80.202c.837 7.12 6.88 12.355 13.876 12.355.545 0 1.1-.03 1.654-.096 7.674-.904 13.163-7.86 12.258-15.533l-10.84-92.033a23.912 23.912 0 0 0 3.045-11.75v-46.624c4.142-.44 8.343-1.54 12.515-3.313 16.734-7.107 30.26-23.984 34.46-43 1.41-6.383-2.623-12.703-9.008-14.112z"/></svg>