<svg xmlns="http://www.w3.org/2000/svg" width="500" height="500" viewBox="0 0 500 500"><path d="M400.005 299.71c-1.417-1.812-9.303-10.99-25.095-17.014-13.804-4.272-47.873-15.563-66.695-29.075 1.235-1.628 2.444-3.31 3.616-5.053 15.445-22.98 23.95-53.896 23.95-87.06 0-5.456-.194-10.577-.546-15.424 34.167-6.835 56.25-17.674 56.25-29.878 0-13.976-28.958-26.162-71.863-32.59-1.06-6.93-1.786-14.61-1.786-22.704 0-30.537-9.064-55.294-34.446-55.294-28.875 0-22.898 34.1-33.388 35.35-10.49-1.25-4.513-35.35-33.388-35.35-25.38 0-34.446 24.757-34.446 55.295 0 8.095-.725 15.776-1.787 22.704-42.906 6.43-71.864 18.615-71.864 32.59 0 12.205 22.083 23.044 56.25 29.88a212.573 212.573 0 0 0-.546 15.423c0 33.163 8.505 64.08 23.95 87.06a108.223 108.223 0 0 0 3.615 5.054c-18.823 13.513-52.892 24.804-66.695 29.076-15.792 6.024-23.678 15.202-25.096 17.014-29.04 43.114-32.33 139.842-32.357 140.803.26 12.87 4.083 17.27 5.403 17.812 64.016 28.482 139.252 35.915 176.96 36.058 37.707-.143 112.944-7.576 176.96-36.06 1.32-.542 5.142-4.94 5.402-17.81-.025-.96-3.315-97.69-32.357-140.803zM174.34 92.485a7.256 7.256 0 0 0-.28 1.98c0 12.738 34 23.065 75.94 23.065s75.94-10.327 75.94-23.066a7.29 7.29 0 0 0-.28-1.98c5.72 3.462 8.943 7.37 8.943 11.51 0 14.192-37.878 25.7-84.604 25.7s-84.605-11.508-84.605-25.7c0-4.14 3.227-8.048 8.946-11.51zm1.664 69.023c0-4.66.137-9.1.407-13.327 21.442 3.462 46.635 5.456 73.59 5.456s52.147-1.994 73.59-5.455c.27 4.23.406 8.667.406 13.328 0 62.924-32.503 112.212-73.996 112.212s-73.996-49.288-73.996-112.212z"/><path d="M245.286 168.924h9.428c1.393 18.262 16.234 32.64 34.347 32.64 18.116 0 32.956-14.378 34.35-32.64h.01v-.14c.063-.883.106-1.77.106-2.673h-.106v-5.223H176.473v8.036h.117c1.394 18.262 16.234 32.64 34.348 32.64s32.955-14.377 34.348-32.64z"/></svg>