<?xml version="1.0" encoding="utf-8"?>
<!-- Generator: Adobe Illustrator 16.0.0, SVG Export Plug-In . SVG Version: 6.00 Build 0)  -->
<!DOCTYPE svg PUBLIC "-//W3C//DTD SVG 1.1//EN" "http://www.w3.org/Graphics/SVG/1.1/DTD/svg11.dtd">
<svg version="1.1" id="Layer_1" xmlns="http://www.w3.org/2000/svg" xmlns:xlink="http://www.w3.org/1999/xlink" x="0px" y="0px"
	 width="500px" height="500px" viewBox="0 0 500 500" enable-background="new 0 0 500 500" xml:space="preserve">
<g>
	<path d="M473.261,124.467L371.658,5.613l-10.693,7.109c-0.305,0.201-30.873,20.139-61.044,20.141
		c-16.005,0-28.95-5.719-38.479-16.994l-4.343-5.143h-14.195l-4.347,5.143c-9.487,11.229-22.413,16.922-38.416,16.924
		c-30.184,0.002-60.807-19.875-61.098-20.066l-10.7-7.111L26.739,124.469l7.573,9.371c16.85,20.859,44.725,60.385,49.486,79.67
		c-33.824,97.939-39.658,157.277-18.932,192.309c18.329,30.977,52.979,36.797,86.498,42.428
		c32.597,5.479,66.304,11.143,86.195,39.889c2.709,3.916,7.17,6.252,11.933,6.252c0.165,0,0.33-0.008,0.506-0.021
		c0.17,0.014,0.341,0.021,0.511,0.021c4.764,0,9.224-2.338,11.932-6.252c19.89-28.744,53.596-34.41,86.203-39.891
		c33.51-5.629,68.16-11.449,86.488-42.426c20.728-35.033,14.895-94.371-18.931-192.309c4.763-19.271,32.639-58.805,49.487-79.67
		L473.261,124.467z M386.864,212.865l-0.42,3.365l1.117,3.205c15.562,44.59,25.281,81.666,28.889,110.201
		c3.512,27.779,1.4,48.443-6.274,61.416c-11.465,19.373-36.893,23.646-66.336,28.594c-31.649,5.316-67.339,11.314-93.84,38.195
		c-26.501-26.881-62.188-32.879-93.839-38.195c-29.442-4.947-54.87-9.219-66.334-28.594c-7.677-12.975-9.788-33.637-6.276-61.416
		c3.607-28.535,13.326-65.611,28.888-110.201l1.117-3.203l-0.418-3.367c-3.158-25.354-33.478-67.699-48.812-87.734l69.868-81.73
		c9.03,4.785,21.854,10.619,36.545,14.473c10.28,2.691,20.219,4.059,29.539,4.059c19.257,0,35.962-5.672,49.723-16.871
		c13.762,11.199,30.467,16.871,49.723,16.871c9.319,0,19.257-1.367,29.538-4.059c14.69-3.854,27.515-9.688,36.545-14.473
		l69.869,81.73C420.342,145.168,390.021,187.516,386.864,212.865z"/>
	<polygon points="250,146.479 214.703,213.24 140.301,226.18 192.888,280.381 182.202,355.139 250,321.875 317.798,355.139 
		307.112,280.381 359.699,226.18 285.298,213.24 	"/>
</g>
</svg>
