<?xml version="1.0" encoding="utf-8"?>
<!-- Generator: Adobe Illustrator 16.0.0, SVG Export Plug-In . SVG Version: 6.00 Build 0)  -->
<!DOCTYPE svg PUBLIC "-//W3C//DTD SVG 1.1//EN" "http://www.w3.org/Graphics/SVG/1.1/DTD/svg11.dtd">
<svg version="1.1" id="Layer_1" xmlns="http://www.w3.org/2000/svg" xmlns:xlink="http://www.w3.org/1999/xlink" x="0px" y="0px"
	 width="500px" height="500px" viewBox="0 0 500 500" enable-background="new 0 0 500 500" xml:space="preserve">
<g>
	<path d="M461.779,163.769c-15.926,0-29.418,10.373-34.115,24.728l-68.055-0.121l-7.648-5.556l-11.357-35.065l-36.951-0.034
		l-10.162-7.383l-21.877-63.183c8.645-6.554,14.232-16.932,14.232-28.618c0-19.824-16.07-35.896-35.896-35.896
		s-35.896,16.072-35.896,35.896c0,11.687,5.588,22.064,14.232,28.618l-21.912,63.281l-9.891,7.187l-35.174-0.031l-10.926,33.525
		l-9.99,7.259l-68.057,0.121c-4.695-14.354-18.189-24.728-34.115-24.728c-19.826,0-35.896,16.072-35.896,35.896
		s16.07,35.896,35.896,35.896c7.434,0,14.34-2.26,20.068-6.129l54.275,42.229l4.146,12.765l-10.088,30.949l-0.873,2.686
		l28.672,20.871l3.717,11.439l-19.82,65.229c-19.238,0.666-34.633,16.464-34.633,35.864c0,19.824,16.072,35.896,35.898,35.896
		s35.896-16.072,35.896-35.896c0-3.742-0.574-7.351-1.637-10.743l55.941-39.027h10.855l30.066,21.886l30.18-21.886h9.227
		l55.957,39.037c-1.063,3.391-1.633,6.994-1.633,10.733c0,19.824,16.068,35.896,35.895,35.896c19.828,0,35.898-16.072,35.898-35.896
		c0-19.406-15.404-35.207-34.652-35.865l-19.77-65.064l3.197-9.841l30.85-22.37l-11.771-36.343l3.387-10.424l54.188-42.162
		c5.738,3.893,12.664,6.167,20.121,6.167c19.828,0,35.896-16.072,35.896-35.896S481.607,163.769,461.779,163.769z M100.324,233.991
		l-28.357-22.064c0.145-0.402,0.279-0.807,0.41-1.215l37.363-0.068l-13.754,9.994L100.324,233.991z M334.947,155.524l6.326,19.529
		l-26.904-19.548L334.947,155.524z M249.281,84.416c0.223,0.004,0.443,0.017,0.668,0.017s0.445-0.013,0.67-0.017l11.461,33.1
		L250,108.739l-12.217,8.875L249.281,84.416z M166.951,155.37l18.844,0.018l-24.697,17.943L166.951,155.37z M114.893,315.1
		l5.9-18.108l9.535,29.345L114.893,315.1z M140.957,422.624c-0.42-0.312-0.846-0.616-1.277-0.908l10.457-34.418l4.678,14.396h16.145
		L140.957,422.624z M250.715,413.969l-16.861-12.275h33.789L250.715,413.969z M358.951,422.631l-30.012-20.938h16.248l4.623-14.232
		l10.412,34.266C359.793,422.018,359.367,422.321,358.951,422.631z M349.671,341.292l-61.6,44.755h-76.143l-61.6-44.755
		L126.8,268.877l23.529-72.415l61.6-44.755h76.143l61.6,44.755l23.529,72.415L349.671,341.292z M386.719,315.345l-17.629,12.783
		l10.9-33.551L386.719,315.345z M399.711,233.885l4.305-13.247l-13.754-9.994l37.361,0.068c0.125,0.386,0.254,0.771,0.389,1.151
		L399.711,233.885z"/>
	<polygon points="238.521,335.584 245.346,335.584 250,340.238 254.654,335.584 261.478,335.584 261.478,250.872 238.521,250.872 	
		"/>
	<path d="M202.754,246.924l-0.037,0.585h94.584l-0.055-0.585c1.057-8.171,3.932-14.923,7.012-20.09H195.742
		C198.822,232.001,201.697,238.753,202.754,246.924z"/>
	<path d="M250,171.104c-53.54,0-96.942,43.402-96.942,96.942S196.46,364.989,250,364.989s96.942-43.402,96.942-96.942
		S303.54,171.104,250,171.104z M303.457,253.979h-0.079c0.075,0.939,0.114,1.887,0.114,2.845v48.677
		c0,19.539-15.84,35.379-35.379,35.379h-11.899L250,347.094l-6.214-6.214h-11.899c-19.539,0-35.379-15.84-35.379-35.379v-48.677
		c0-0.958,0.039-1.905,0.114-2.845h-0.079c0-20.961-14.543-33.36-14.543-33.36h136C318,220.619,303.457,233.019,303.457,253.979z"/>
	<path d="M274.391,334.957c10.414-2.106,22.955-14.533,22.955-25.055v-59.03h-22.955V334.957z"/>
	<path d="M202.654,309.902c0,11.358,12.541,22.948,22.955,25.055v-84.085h-22.955V309.902z"/>
</g>
</svg>
