<?xml version="1.0" encoding="UTF-8" standalone="yes"?>
<svg xmlns="http://www.w3.org/2000/svg" viewBox="0 0 500 500">
  <path d="M423.275 3.688h-76.98l-6.24 210.53-7.133-210.53h-165.77l-6.242 210.53-7.132-210.53H76.725c-5.333 0-9.657 4.322-9.657 9.656v237.303c0 5.334 4.324 9.656 9.657 9.656h150.74l18.256 18.258a8.664 8.664 0 0 0-3.402 3.488l-32.095 60.703-67.652 11.77a8.693 8.693 0 0 0-6.775 5.876 8.686 8.686 0 0 0 2.028 8.736l47.816 49.286-9.718 67.975a8.694 8.694 0 0 0 12.435 9.034L250 465.177l61.646 30.247a8.686 8.686 0 0 0 8.937-.77 8.693 8.693 0 0 0 3.496-8.263l-9.718-67.973 47.816-49.285a8.687 8.687 0 0 0 2.027-8.735 8.696 8.696 0 0 0-6.776-5.877l-67.65-11.768-32.097-60.703a8.658 8.658 0 0 0-3.404-3.487l18.254-18.257h150.74c5.334 0 9.658-4.322 9.658-9.656V13.344c0-5.334-4.324-9.656-9.658-9.656z"/>
</svg>