<?xml version="1.0" encoding="utf-8"?>
<!-- Generator: Adobe Illustrator 16.0.0, SVG Export Plug-In . SVG Version: 6.00 Build 0)  -->
<!DOCTYPE svg PUBLIC "-//W3C//DTD SVG 1.1//EN" "http://www.w3.org/Graphics/SVG/1.1/DTD/svg11.dtd">
<svg version="1.1" id="Layer_1" xmlns="http://www.w3.org/2000/svg" xmlns:xlink="http://www.w3.org/1999/xlink" x="0px" y="0px"
	 width="500px" height="500px" viewBox="0 0 500 500" enable-background="new 0 0 500 500" xml:space="preserve">
<g>
	<path d="M326.562,316H327v-10v-50h-2.19l11.857-46.813V14.629H163.333v194.559L175.19,256H173v60h0.438
		c-15.826,17.97-25.433,41.548-25.433,67.376c0,56.33,45.665,101.995,101.995,101.995s101.995-45.665,101.995-101.995
		C351.995,357.548,342.388,333.97,326.562,316z M290.946,34.629h25.721v172.065L304.178,256h-13.232V34.629z M234.05,34.629h31.896
		V256H234.05V34.629z M183.333,34.629h25.717V256h-13.228l-12.489-49.306V34.629z M183,266h134v40H183V266z M250,461.741
		c-44.04,0-79.741-35.701-79.741-79.741c0-27.458,13.89-51.66,35.016-66h89.447c21.13,14.337,35.019,38.54,35.019,66
		C329.741,426.04,294.04,461.741,250,461.741z"/>
	<path d="M250,316.999c-37.003,0-67,29.997-67,67s29.997,67,67,67s67-29.997,67-67S287.003,316.999,250,316.999z M267.333,329.783
		l-4.522,36.592c-3.596-2.619-8.022-4.167-12.811-4.167c-5.07,0-9.731,1.736-13.433,4.639l-3.9-37.064H267.333z M195.783,401.333
		v-34.666l36.592,4.522c-2.618,3.596-4.167,8.022-4.167,12.811c0,5.07,1.736,9.731,4.639,13.433L195.783,401.333z M232.667,438.217
		l4.522-36.592c3.596,2.619,8.022,4.167,12.811,4.167c5.07,0,9.731-1.736,13.433-4.639l3.9,37.064H232.667z M267.625,396.811
		c2.618-3.596,4.167-8.021,4.167-12.811c0-5.07-1.736-9.731-4.639-13.433l37.064-3.9v34.665L267.625,396.811z"/>
</g>
</svg>
