<?xml version="1.0" encoding="UTF-8" standalone="yes"?>
<svg xmlns="http://www.w3.org/2000/svg" viewBox="0 0 500 500">
  <path d="M446.406 381.742c-5.713-7.734-17.297-58.86-24.917-102.578V202.36c15.45-9.61 25.733-29.478 30.604-59.192 3.813-23.256 2.865-44.21 2.823-45.092l-.188-3.916-77.25-74.06c-.37-.43-.76-.85-1.185-1.25-8.82-8.295-23.825-4.467-51.785 13.213-11.59 7.326-22.377 15.172-28.09 19.44h-92.84c-5.715-4.27-16.502-12.114-28.093-19.44-27.96-17.68-42.964-21.508-51.785-13.213-.425.4-.813.82-1.183 1.25L45.27 94.16l-.19 3.916c-.04.88-.988 21.836 2.824 45.092 4.87 29.715 15.154 49.582 30.606 59.193v76.805c-7.62 43.717-19.204 94.844-24.917 102.578-15.91 13.717-20.14 61.6-13.247 95.71l1.594 7.888h416.12l1.594-7.89c6.893-34.107 2.662-81.99-13.248-95.707zm-21.752-3.453l7.045 19.062c-28.398 9.003-70.978 9.77-72.56 9.8l-.813-19.496c.36-.007 40.74-1.257 66.326-9.368zM95.56 326.84c41.463 6.617 96.31 10.26 154.44 10.26s112.978-3.643 154.44-10.26c2.06-.328 4.064-.665 6.042-1.007.52 2.473 1.053 4.974 1.6 7.48 2.775 12.76 5.22 22.858 7.393 30.89-9.194 2.125-21.695 4.443-38.542 6.628-36.725 4.765-83.225 7.388-130.933 7.388s-94.208-2.623-130.933-7.386c-16.845-2.184-29.347-4.502-38.542-6.628 2.174-8.03 4.617-18.128 7.394-30.888a1124.31 1124.31 0 0 0 1.597-7.48c1.975.344 3.985.68 6.042 1.007zm-1.9-18.82l2.546-19.063c25.585 8.11 64.966 8.86 65.325 8.868l-.86 19.996c-1.582-.027-38.612-.796-67.01-9.8zm248.527-10.196c.36-.007 35.89-.757 61.475-8.868l2.045 19.064c-28.396 9.003-61.926 9.77-63.51 9.8l-.01-19.996zm-11.08-246.62c15.834-10.33 24.76-14.337 29.438-15.884-1 3.148-3.107 8.236-7.474 16.184h-22.42l.458-.3zm-162.214 0l.456.3h-22.423c-4.366-7.947-6.473-13.035-7.474-16.184 4.68 1.547 13.605 5.553 29.44 15.885zM64.61 102.87l11.33-10.867c7.13 19.696 22.223 49.746 52.267 71.406l17.544-24.337c-32.62-23.517-43.316-61.026-45.536-70.342l22.634-21.7c4.642 11.36 96.98 121.473 126.597 121.473.18 0 .368-.008.554-.016.186.008.554.016.554.016S372.51 58.393 377.15 47.033l22.646 21.71c-2.145 9.224-12.603 46.58-45.55 70.33l17.544 24.337c30.044-21.66 45.136-51.71 52.266-71.406l11.334 10.865c.38 22.38-3.716 74.437-27.554 84.475l-6.02 2.535v86.715c-6.083 1.047-13.005 2.1-20.885 3.12-36.723 4.763-83.223 7.386-130.93 7.386s-94.21-2.62-130.934-7.384c-7.88-1.02-14.8-2.072-20.885-3.12v-86.714l-6.02-2.534c-23.834-10.037-27.93-62.094-27.55-84.477zm10.93 275.42c25.585 8.11 65.966 8.86 66.325 8.867l-1.36 19.996c-1.584-.028-43.614-.797-72.01-9.8l7.045-19.064zm366.19 87.378H58.27c-3.084-21.54-1.02-41.885 2.21-54.934 9.926 2.662 21.65 5.08 35.08 7.223 41.463 6.616 96.31 10.26 154.44 10.26s112.978-3.644 154.44-10.26c13.427-2.143 25.155-4.56 35.08-7.22 3.23 13.047 5.294 33.392 2.21 54.93z"/>
</svg>