<?xml version="1.0" encoding="utf-8"?>
<!-- Generator: Adobe Illustrator 16.0.0, SVG Export Plug-In . SVG Version: 6.00 Build 0)  -->
<!DOCTYPE svg PUBLIC "-//W3C//DTD SVG 1.1//EN" "http://www.w3.org/Graphics/SVG/1.1/DTD/svg11.dtd">
<svg version="1.1" id="Layer_1" xmlns="http://www.w3.org/2000/svg" xmlns:xlink="http://www.w3.org/1999/xlink" x="0px" y="0px"
	 width="500px" height="500px" viewBox="0 0 500 500" enable-background="new 0 0 500 500" xml:space="preserve">
<path d="M405.862,302.342h-33.849V3.27h-14.125h-37.749H282.66h-65.32h-37.479h-37.749h-14.125v299.072H94.138
	c-11.27,0-20.407,9.137-20.407,20.407c0,11.269,9.137,20.406,20.407,20.406h42.458c0,0,39.802,153.575,113.404,153.575
	c73.603,0,113.404-153.575,113.404-153.575h42.458c11.27,0,20.407-9.138,20.407-20.406
	C426.269,311.479,417.132,302.342,405.862,302.342z M326.35,242.52l8.079,16.365l18.065,2.626l-13.071,12.747l3.082,17.999
	l-16.154-8.499l-16.159,8.499l3.083-17.999l-13.069-12.747l18.065-2.626L326.35,242.52z M282.66,31.521h37.479v195.026H282.66
	V31.521z M242.286,258.885l8.079-16.365l8.079,16.365l18.066,2.626l-13.071,12.747l3.082,17.999l-16.155-8.499l-16.158,8.499
	l3.083-17.999l-13.069-12.747L242.286,258.885z M179.861,31.521h37.479v195.026h-37.479V31.521z M165.571,258.885l8.079-16.365
	l8.08,16.365l18.065,2.626l-13.072,12.747l3.083,17.999l-16.156-8.499l-16.157,8.499l3.083-17.999l-13.069-12.747L165.571,258.885z"
	/>
</svg>
