<?xml version="1.0" encoding="utf-8"?>
<!-- Generator: Adobe Illustrator 16.0.0, SVG Export Plug-In . SVG Version: 6.00 Build 0)  -->
<!DOCTYPE svg PUBLIC "-//W3C//DTD SVG 1.1//EN" "http://www.w3.org/Graphics/SVG/1.1/DTD/svg11.dtd">
<svg version="1.1" id="Layer_1" xmlns="http://www.w3.org/2000/svg" xmlns:xlink="http://www.w3.org/1999/xlink" x="0px" y="0px"
	 width="500px" height="500px" viewBox="0 0 500 500" enable-background="new 0 0 500 500" xml:space="preserve">
<path d="M336.495,169.41h-10.203v-15.233c0-3.006-2.437-5.443-5.444-5.443h-29.8c-3.007,0-5.444,2.437-5.444,5.443v15.233h-58.77
	v-2.782c0-9.909-6.326-17.765-15.043-20.504V16.384c0-6.33-5.131-11.462-11.462-11.462c-6.33,0-11.462,5.132-11.462,11.462v129.74
	c-8.718,2.739-15.043,10.595-15.043,20.504v2.782h-10.318c-11.868,0-21.49,9.622-21.49,21.491v282.687
	c0,11.869,9.622,21.491,21.49,21.491h172.99c11.869,0,21.49-9.622,21.49-21.491V190.9
	C357.985,179.031,348.364,169.41,336.495,169.41z M195.314,343.561c13.5-14.896,33-24.253,54.686-24.253s41.186,9.357,54.686,24.253
	H195.314z M315.778,359.679c3.512,6.898,5.985,14.413,7.178,22.351H177.043c1.193-7.938,3.667-15.453,7.178-22.351H315.778z
	 M190.9,317.696c-8.308,0-15.043-6.735-15.043-15.043c0-8.309,6.735-15.043,15.043-15.043c8.309,0,15.043,6.735,15.043,15.043
	C205.944,310.96,199.209,317.696,190.9,317.696z M250,466.877c-23.058,0-43.638-10.581-57.169-27.147h114.337
	C293.638,456.296,273.058,466.877,250,466.877z M317.173,423.611H182.827c-3.572-7.85-5.808-16.432-6.42-25.463h147.187
	C322.981,407.18,320.745,415.761,317.173,423.611z M328.974,270.424c0,2.968-2.405,5.373-5.373,5.373H176.398
	c-2.968,0-5.373-2.405-5.373-5.373v-61.249c0-2.967,2.405-5.373,5.373-5.373h147.203c2.968,0,5.373,2.405,5.373,5.373V270.424z"/>
</svg>
