<?xml version="1.0" encoding="UTF-8" standalone="yes"?>
<svg xmlns="http://www.w3.org/2000/svg" viewBox="0 0 64 64">
  <path d="M50.142 25.683c-1.06.356-2.03.88-2.896 1.534L42.21 21.49l-2.248-2.558-1.324-1.506c-.166.08-.303.163-.44.247-1.07-1.386-2.245-2.625-3.865-3.438-2.196-1.1-4.818-.406-7.08-1.298-1.443-.57-2.062 1.74-.64 2.3 1.42.56 2.855.624 4.366.696 2.766.133 4.295 1.745 5.82 3.844.096.134.21.235.33.315-.133.36-.775.514-.775.514-2.45-5.995-7.645-.19-12.47 4.913-1.428.165-2.77.57-3.725 1.553-1.17 1.206-2.976 3.1-4.127.825-.476-.94-1.472-1.125-2.407-1.25-.862-.114-1.233.59-1.124 1.265-4.14-2.578-9.378 1.4-9.378 1.4l1.04.52c-1.866 1.343-3.085 3.518-3.085 5.98 0 4.085 3.337 7.396 7.455 7.396a7.458 7.458 0 0 0 5.918-2.91c3.502.642 11.662.345 15.247.345 4.33 0 4.77-2.624 4.77-2.624S38.8 24.346 39 23.113c.2-1.232 1.042.278 1.042.278l1.323-.716s2.263 2.58 4.83 5.46a10.076 10.076 0 0 0-1.907 2.65 9.933 9.933 0 0 0-.5 7.663 1 1 0 0 0 1.893-.647 7.95 7.95 0 0 1 .4-6.13c.378-.765.87-1.45 1.447-2.046l.464.517a7.572 7.572 0 0 0-2.177 5.316c0 4.216 3.446 7.633 7.696 7.633s7.695-3.42 7.695-7.634-3.446-7.633-7.696-7.633c-1.672 0-3.214.534-4.475 1.43l-.468-.532a8.168 8.168 0 0 1 2.212-1.14c4.252-1.427 8.883.838 10.322 5.053a1 1 0 0 0 1.893-.647c-1.794-5.253-7.56-8.08-12.853-6.303zM7.567 31.53c.312-.07.634-.112.966-.112a4.46 4.46 0 0 1 3.262 1.423 4.332 4.332 0 0 1 1.194 2.973c0 2.423-2 4.395-4.457 4.395s-4.456-1.97-4.456-4.395c0-2.095 1.497-3.846 3.49-4.284zm8.3 5.585c.076-.423.122-.857.122-1.302 0-1.347-.37-2.606-1.004-3.693l.282-.064c2.695 3.917 1.326 4.84.6 5.06zm37.642-6.293c2.59 0 4.695 2.08 4.695 4.633 0 2.555-2.107 4.633-4.696 4.633-2.59 0-4.697-2.078-4.697-4.633 0-1.184.466-2.253 1.21-3.073 1.8 1.97 3.22 3.464 3.407 3.49.56.08.762-.754.762-.754l-3.152-3.585c.72-.443 1.56-.71 2.47-.71z"/>
</svg>