<?xml version="1.0" encoding="UTF-8" standalone="yes"?>
<svg xmlns="http://www.w3.org/2000/svg" viewBox="0 0 64 64">
  <path d="M62.1 42.475h-2.064c.433.61.747 1.31.9 2.07H62.1c1.087-1.63 0-2.07 0-2.07zM51.144 42.475H38.46V41.47l2.903-.187V27.667s-.907-4.706-.967-6.714c-.06-2.008-3.325-1.192-3.325-1.192-14.508 1.758-17.23 7.782-17.23 7.782h-.664L17.3 29.8c.424.753.847.502.847.502-.605.565-1.753 4.078-1.753 4.078s-7.315.753-10.277.816S2.61 36.2 2.61 36.2v6.275s-3.083 3.702-.907 2.95c2.05-.71.78-3.908 4.98-4.278a5.433 5.433 0 0 1 1.67-.265 5.452 5.452 0 0 1 5.446 5.446c0 .226-.02.447-.046.665H42.57c.606-1.067.424-2.447.424-2.447h7.25c.153-.76.467-1.46.9-2.07z"/>
  <path d="M58.74 42.475c-.805-.807-1.92-1.306-3.15-1.306s-2.345.498-3.15 1.305a4.44 4.44 0 0 0-1.158 2.07 4.4 4.4 0 0 0-.146 1.078 4.454 4.454 0 0 0 8.908 0c0-.373-.06-.73-.146-1.077a4.45 4.45 0 0 0-1.157-2.07z"/>
  <circle cx="8.354" cy="46.328" r="4.446"/>
</svg>