<?xml version="1.0" encoding="UTF-8" standalone="yes"?>
<svg xmlns="http://www.w3.org/2000/svg" viewBox="0 0 202.666 202.666">
  <path d="M128.26 200.145H74.422c-.075-.005-.157-.003-.236-.012a2.003 2.003 0 0 1-1.075-.465l-49.645-41.14a2.003 2.003 0 0 1-.72-1.407l-5.1-76.38-3.878-2.936a2 2 0 0 1-.75-1.19L.04 13.835a2.004 2.004 0 0 1 .478-1.75 2.007 2.007 0 0 1 1.693-.644l37.345 3.98c2.688-1.377 14.5-7.063 31.318-9.825 18.65-3.062 29.988-3.082 30.463-3.074.443.007 11.814.014 30.456 3.075 16.82 2.762 28.63 8.448 31.317 9.826l37.344-3.98a2.002 2.002 0 0 1 2.17 2.394l-12.974 62.78a2 2 0 0 1-.75 1.19l-3.878 2.937-5.1 76.38a2.005 2.005 0 0 1-.72 1.408l-49.647 41.14a2.01 2.01 0 0 1-1.295.477zm-50.96-4h48.067l-9.233-24.46h-29.6l-9.234 24.46zm24.033-28.46h16.184a2 2 0 0 1 1.87 1.293l9.754 25.84 12.117-10.04v-66.334L118.82 108.23v43.596a2 2 0 0 1-2 2H85.846a2 2 0 0 1-2-2V108.23L61.41 118.443v66.333l12.116 10.04 9.753-25.84a2 2 0 0 1 1.87-1.293h16.183zM26.68 155.996l30.73 25.465V118.22l-14.606-9.87a2 2 0 0 1-.88-1.656v-8.9l-20.07-14.06 4.825 72.263zm118.577-37.777v63.243l30.73-25.465 4.827-72.264-20.07 14.06v8.9a2 2 0 0 1-.88 1.657l-14.607 9.87zm-43.924 31.606h13.486v-44.18c0-.088.005-.177.017-.265l5.516-41.176-17.896 11.568a1.987 1.987 0 0 1-1.12.345h-.004a1.987 1.987 0 0 1-1.122-.346L82.314 64.206l5.515 41.177c.01.088.017.177.017.266v44.18h13.486zm-55.41-44.195l13.678 9.242 19.18-8.732-32.856-6.922v6.413zm77.963.51l19.18 8.732 13.677-9.24v-6.414l-32.857 6.922zm.884-44.792l-5.585 41.694 38.745-8.162 23.98-16.8 3.975-3.01 12.268-59.362-33.767 3.6-3.684 18.097a2 2 0 0 1-.874 1.28L124.77 61.35zM44.736 94.88l38.745 8.163-5.583-41.694-35.06-22.664a2 2 0 0 1-.874-1.28L38.28 19.307l-33.767-3.6L16.78 75.07l3.977 3.012 23.98 16.8zM80.87 58.51l20.463 13.228 20.488-13.244c.004-.002.008-.004.01-.007l35.12-22.702 3.504-17.21c-3.64-1.763-14.586-6.612-29.31-9.03-18.325-3.01-29.75-3.07-29.808-3.02-.19 0-11.585.027-29.814 3.02-14.758 2.423-25.68 7.267-29.31 9.028l3.503 17.213L80.812 58.47c.02.013.04.025.058.038zM67.06 87.142c-.378 0-.76-.106-1.1-.33L28.015 61.84a2.002 2.002 0 0 1 2.2-3.342L68.16 83.47a2.002 2.002 0 0 1-1.1 3.672zm68.547 0a2.002 2.002 0 0 1-1.102-3.67l37.948-24.974a2 2 0 0 1 2.2 3.342l-37.948 24.973c-.34.223-.72.33-1.098.33zm3.676-17.442a2 2 0 0 1-1.102-3.67l37.948-24.974a2 2 0 0 1 2.2 3.342L140.38 69.37c-.34.224-.72.33-1.097.33zm-75.9 0c-.376 0-.758-.106-1.097-.33L24.338 44.4a2.002 2.002 0 0 1 2.2-3.342L64.486 66.03a2.002 2.002 0 0 1-1.102 3.67zm37.95-21.565c-.4 0-.8-.12-1.143-.358L78.357 32.58a2 2 0 0 1 1.142-3.64h43.668a2 2 0 0 1 1.142 3.64l-21.834 15.196c-.342.24-.742.36-1.14.36zm-15.46-15.197l15.46 10.76 15.46-10.76h-30.92z"/>
</svg>