<?xml version="1.0" encoding="UTF-8" standalone="yes"?>
<svg xmlns="http://www.w3.org/2000/svg" viewBox="0 0 205.643 205.643">
  <path d="M112.224 205.643H93.42c-.125 0-12.432-.03-16.77-2.718-3.134-1.94-6.335-7.06-6.69-7.64l-18.394-28.99c-.178-.28-.283-.6-.307-.93-.017-.21-1.488-21.06-2.283-31.01-.772-9.655-4.125-17.995-4.158-18.078a1.99 1.99 0 0 1-.13-1.012l.292-2.248c-1.486-2.096-4.787-8.39-6.213-24.18-1.487-16.463 3.785-22.956 6.062-24.955l.78-29.894c-.027-1.278.146-14.447 17.796-24.57C80.68-.492 101.18-.037 102.82.015c1.646-.052 22.142-.507 39.414 9.4 17.65 10.126 17.823 23.298 17.797 24.573l.78 29.892c2.277 2 7.55 8.492 6.064 24.956-1.427 15.79-4.728 22.083-6.213 24.18l.294 2.248c.044.342 0 .69-.13 1.01-.034.083-3.388 8.453-4.158 18.08-.796 9.948-2.268 30.8-2.282 31.01-.023.33-.13.65-.307.93l-18.41 29.015c-.338.553-3.54 5.674-6.673 7.614-4.338 2.687-16.645 2.718-16.77 2.718zm-57.01-41.063l18.14 28.588c.844 1.37 3.426 5.132 5.402 6.355 2.046 1.268 9.233 2.12 14.663 2.12h18.804c5.43 0 12.617-.852 14.663-2.12 1.974-1.22 4.616-5.076 5.387-6.33l18.154-28.613c.224-3.18 1.458-20.57 2.194-29.867-.91 1.77-1.798 3.372-2.583 4.594-1.113 1.73-2.23 3.28-3.316 4.768a62.423 62.423 0 0 1-2.037 2.794c-1.808 2.52-3.55 5.162-5.273 8.744-2.845 5.91-4.522 11.053-4.987 12.55l1.52 8.39c.066.368.03.747-.108 1.094-.725 1.823-4.463 11.034-6.978 13.253-2.4 2.12-7.537.48-10.98-1.006l-1.51 4.81a2 2 0 0 1-1.908 1.4H91.18a2 2 0 0 1-1.91-1.402l-1.51-4.81c-3.442 1.487-8.576 3.126-10.978 1.01-2.515-2.22-6.253-11.432-6.977-13.255a1.995 1.995 0 0 1-.108-1.095l1.52-8.39c-.465-1.497-2.143-6.64-4.987-12.55a52.26 52.26 0 0 0-3.213-5.734c-1.713-2.08-3.287-4.243-4.593-6.484a87.093 87.093 0 0 1-2.82-4.09c-.786-1.22-1.673-2.823-2.584-4.593.735 9.297 1.97 26.69 2.194 29.868zm47.607 27.526h10.176l.938-2.985H91.71l.938 2.987h10.173zm-29.084-15.403c1.905 4.715 4.55 10.192 5.693 11.202.783.375 4.183-.54 7.406-1.98-.127-.68-.36-1.683-.787-3.037-.217-.683-.413-1.462-.64-2.365a72.54 72.54 0 0 0-.84-3.115l-3.243 3.32a1.998 1.998 0 0 1-3.155-.386l-3.895-6.632-.54 2.993zm45.073 9.222c3.226 1.438 6.637 2.35 7.46 1.94 1.093-.972 3.734-6.448 5.64-11.162l-.543-2.992-3.895 6.634a1.998 1.998 0 0 1-3.154.386l-3.244-3.32a72.13 72.13 0 0 0-.838 3.114c-.228.902-.424 1.682-.64 2.364-.426 1.35-.66 2.35-.786 3.037zm-28.053-.804h24.132c.16-.852.434-1.986.892-3.436.18-.57.364-1.297.576-2.138.277-1.098.607-2.408 1.062-3.856H88.23c.454 1.447.784 2.757 1.062 3.855.212.84.396 1.568.575 2.14.456 1.448.728 2.582.89 3.436zm31.834-11.88l2.76 2.82 5.177-8.815c.256-.85 1.16-3.737 2.732-7.6l-.088.09c-2.193 2.284-4.266 4.442-6.11 6.51-2.05 2.3-3.46 4.707-4.47 6.995zm-47.472-5.995l5.18 8.817 2.757-2.82c-1.013-2.29-2.42-4.696-4.47-6.996-1.777-1.992-3.855-4.062-6.057-6.25 1.484 3.686 2.342 6.427 2.59 7.25zm27.704 4.444h16.086c1.154-2.623 2.78-5.43 5.17-8.108 1.892-2.122 3.99-4.306 6.21-6.618 3.915-4.077 7.94-8.27 11.2-12.492.503-.702 1.004-1.384 1.502-2.063l.47-.643c2.842-4.172 2.994-8.863 3.155-13.83.078-2.408.16-4.898.553-7.394.164-1.04.203-2.238.152-3.527-3.118 4.845-10.283 7.688-13.934 8.562-4.127.986-12.816 2.554-13.185 2.62a1.994 1.994 0 0 1-1.79-.574c-.58-.598-3.523-3.72-4.25-6.316l-.056-.195c-2.136.6-5.838 1.325-11.283 1.325-5.443 0-9.146-.725-11.28-1.326l-.056.194c-.728 2.597-3.67 5.718-4.253 6.317a2 2 0 0 1-1.787.575c-.368-.066-9.058-1.633-13.186-2.62-3.65-.873-10.814-3.717-13.932-8.562-.052 1.29-.013 2.49.15 3.528.413 2.61.49 5.1.564 7.507.14 4.55.274 8.85 2.74 13.168l.873 1.193c1.192 1.626 2.405 3.28 3.617 5.147 2.734 3.297 5.89 6.435 8.98 9.51 2.28 2.266 4.433 4.408 6.314 6.517 2.39 2.678 4.015 5.486 5.17 8.108h16.087zm-53.105-53.713c.752 1.77 3.034 7.08 5.388 11.947-.022-.586-.04-1.17-.06-1.752-.07-2.283-.144-4.644-.517-7.006-1.164-7.375 2.798-20.6 3.49-22.827v-18.5c0-8.415-1.455-17.09-3.03-24.017V96.72a2 2 0 0 1-.06.486l-5.21 20.77zm97.912-19.64c.69 2.23 4.652 15.453 3.49 22.828-.355 2.25-.433 4.614-.507 6.9-.02.614-.04 1.23-.064 1.848 2.352-4.866 4.63-10.168 5.382-11.936l-5.212-20.77a2 2 0 0 1-.06-.488V55.83c-1.576 6.93-3.03 15.605-3.03 24.008v18.5zm-86.825 7.447c-.398 2.404-.62 5.808.41 8.184 1.713 3.945 8.253 6.827 11.974 7.717 3.18.76 9.384 1.918 11.883 2.376 1.07-1.22 2.29-2.862 2.563-3.835l.2-.715c-2.838-1.566-9.474-5.2-14.413-7.71-4.383-2.224-9.678-4.676-12.617-6.017zm57.007 13.726l.2.714c.272.973 1.493 2.615 2.562 3.836 2.5-.458 8.706-1.617 11.883-2.376 3.72-.89 10.262-3.77 11.974-7.717 1.036-2.388.814-5.788.414-8.186-2.938 1.34-8.236 3.796-12.62 6.02-4.94 2.51-11.575 6.144-14.413 7.71zm-26.72-2.77c.398.173 4.103 1.694 11.73 1.694s11.335-1.52 11.733-1.695c.866-.483 9.667-5.363 15.86-8.507 5.15-2.616 11.536-5.536 13.998-6.65-.398-1.414-.678-2.295-.688-2.33a2.005 2.005 0 0 1-.096-.61V79.84c0-16.128 4.972-32.675 6.626-37.732-1.317-.732-4.1-2.19-9.882-4.974-7.346-3.537-13.32-4.593-16.156-4.907l-5.233 48.52a2.002 2.002 0 0 1-1.696 1.766l-14.173 2.082c-.194.028-.39.028-.582 0l-14.17-2.083a2 2 0 0 1-1.698-1.764l-4.56-42.273a1.482 1.482 0 0 1-.01-.096l-.664-6.154c-2.835.314-8.81 1.37-16.157 4.908-5.782 2.784-8.564 4.24-9.88 4.973 1.653 5.058 6.626 21.604 6.626 37.73v18.807c0 .207-.032.413-.095.61-.01.034-.29.916-.69 2.33 2.464 1.114 8.848 4.034 14 6.65 6.194 3.143 14.994 8.024 15.86 8.504zm63.567-20.268l3.33 13.27c1.276-2.33 3.73-8.316 4.9-21.262 1.582-17.52-5.008-21.835-5.075-21.877-.57-.355-.96-.995-.977-1.667l-.806-30.895v-.133c.014-.47.157-11.872-15.787-21.018-16.602-9.524-37.14-8.876-37.348-8.87h-.15c-.203-.01-20.742-.656-37.347 8.87-15.944 9.145-15.802 20.55-15.787 21.03a1.26 1.26 0 0 1 0 .122l-.805 30.896c-.018.7-.4 1.34-1.01 1.686-.034.022-6.624 4.336-5.042 21.858 1.165 12.907 3.61 18.895 4.904 21.255l3.327-13.263V41.29a2.004 2.004 0 0 1 .17-.855l.002-.004s0 0 0-.003a2.12 2.12 0 0 1 .05-.1v-.004a2.004 2.004 0 0 1 .65-.733c.814-.6 3.248-2 11.678-6.06 11.163-5.375 19.33-5.437 19.673-5.437a2 2 0 0 1 1.99 1.786l.682 6.33h33.88l.684-6.33a2 2 0 0 1 1.988-1.788c.342 0 8.51.062 19.673 5.437 8.454 4.07 10.877 5.466 11.682 6.062.1.068.19.145.275.23.063.06.104.11.14.152a2.002 2.002 0 0 1 .382.74c.05.183.075.375.07.568v55.19zM90.47 78.78l12.35 1.813 12.35-1.814 4.16-38.57H86.31l4.16 38.57z"/>
</svg>