<?xml version="1.0" encoding="UTF-8" standalone="yes"?>
<svg xmlns="http://www.w3.org/2000/svg" viewBox="0 0 204.106 204.106">
  <path d="M135.83 204.106H62.66a2 2 0 0 1-1.7-3.054l17.44-28.112H66.677c-.44 0-.87-.146-1.218-.414l-17.485-13.428a1.994 1.994 0 0 1-.797-1.62V52c0-1.927.105-3.83.31-5.702a2.007 2.007 0 0 1 .166-1.34 51.535 51.535 0 0 1 3.504-12.91c.043-.147.104-.29.178-.42A52.24 52.24 0 0 1 64.74 13.07a2.03 2.03 0 0 1 .46-.402C73.364 5.604 83.742 1.035 95.136.155l.095-.007a52.807 52.807 0 0 1 7.99.007c11.395.88 21.772 5.45 29.935 12.51.177.11.334.25.467.408a52.44 52.44 0 0 1 6.984 7.53c.14.14.26.298.354.473a52.186 52.186 0 0 1 4.728 7.676l5.582-1.95a2 2 0 0 1 2.53 1.18l3 7.915a1.997 1.997 0 0 1-1.203 2.593l-5.697 2.023A52.02 52.02 0 0 1 151.178 52v105.476c0 .06 0 .118-.006.176a1.98 1.98 0 0 1-.693 1.366c-.032.027-.065.054-.1.08l-17.484 13.427a2 2 0 0 1-1.218.414h-11.59l17.44 28.11a2.002 2.002 0 0 1-1.7 3.056zm-69.574-4h65.98L115.38 172.94H107.6a11.715 11.715 0 0 1-8.355 3.49c-.013 0-.037-.002-.035 0h-.02-.065a11.726 11.726 0 0 1-8.303-3.492h-7.715l-16.85 27.168zm26.753-30.74c.106.085.206.182.296.29a7.73 7.73 0 0 0 5.905 2.775h.022a7.738 7.738 0 0 0 3.02-.634 7.76 7.76 0 0 0 4.677-7.115v-50.916H91.495V157.5c0 .18-.023.352-.067.517v6.665c-.002 1.76.587 3.383 1.58 4.685zm23.486-.427H131l12.29-9.44h-32.36v5.18c0 1.502-.284 2.94-.8 4.26h6.366zm-34.5 0h6.23a11.698 11.698 0 0 1-.798-4.26v-5.18H55.066l12.292 9.44h14.638zm29-13.44h36.183V58.106h-37.245c4.092 3.19 6.728 8.164 6.728 13.742V104.606c-.002.462-.16.887-.426 1.224l-5.24 6.83v42.84zm-59.818 0h36.25v-42.926l-5.176-6.744a1.992 1.992 0 0 1-.424-1.19v-.002-32.79c0-5.578 2.636-10.552 6.728-13.742H51.178V155.5zm39.137-45.735h17.86l2.43-3.167h-22.72l2.43 3.167zm-4.486-7.167h26.832v-30.75c0-7.398-6.02-13.417-13.416-13.417-7.398 0-13.417 6.02-13.417 13.418v30.75zM51.177 54.106h96V52c0-1.396-.06-2.778-.177-4.144H117.18a2 2 0 0 1-2-2v-23.83a2 2 0 0 1 2-2h17.77a48.49 48.49 0 0 0-3.654-3.67h-10.116c-.397 0-.786-.12-1.116-.34l-12.926-8.693 2.41 6.32a1.998 1.998 0 0 1-1.868 2.713H89.845a2 2 0 0 1-1.825-2.82l2.334-5.19-10.232 7.614a2.002 2.002 0 0 1-1.194.396H67.062a48.32 48.32 0 0 0-10.85 14.254h17.216a2 2 0 0 1 2 2v13.246a2 2 0 0 1-2 2H51.355A48.55 48.55 0 0 0 51.178 52v2.106zm68-10.25h27.31a47.758 47.758 0 0 0-8.324-19.83H119.18v19.83zm-67.308 0h19.56V34.61H54.436a47.53 47.53 0 0 0-2.567 9.246zm95.478-11.447a52.155 52.155 0 0 1 1.515 4.228l3.472-1.233-1.586-4.184-3.402 1.19zm-25.56-20.054h4.426a47.845 47.845 0 0 0-14.304-6.643l9.878 6.643zm-28.85 0h11.837L101.61 4.06a48.51 48.51 0 0 0-4.943.005l-3.73 8.29zm-20.796 0h6.124l9.33-6.944a47.806 47.806 0 0 0-15.454 6.944zM99.246 87.93c-5.836 0-10.584-4.747-10.584-10.582 0-5.835 4.748-10.583 10.584-10.583s10.583 4.748 10.583 10.583c0 5.836-4.75 10.583-10.584 10.583zm0-17.165a6.59 6.59 0 0 0-6.584 6.583 6.59 6.59 0 0 0 6.584 6.583 6.59 6.59 0 0 0 6.583-6.582 6.59 6.59 0 0 0-6.584-6.583zm5.682-22.91h-20.75a2 2 0 0 1-2-2V32.61a2 2 0 0 1 2-2h20.75a2 2 0 0 1 2 2v13.246a2 2 0 0 1-2 2zm-18.75-4h16.75V34.61h-16.75v9.246zm46.338-1.664c-4.55 0-8.25-3.7-8.25-8.25s3.7-8.25 8.25-8.25 8.25 3.702 8.25 8.25-3.7 8.25-8.25 8.25zm0-12.5c-2.344 0-4.25 1.908-4.25 4.25s1.906 4.25 4.25 4.25 4.25-1.906 4.25-4.25-1.906-4.25-4.25-4.25z"/>
</svg>