<?xml version="1.0" encoding="UTF-8" standalone="yes"?>
<svg xmlns="http://www.w3.org/2000/svg" viewBox="0 0 213.652 213.652">
  <path d="M106.826 213.652c-.378 0-.757-.007-1.142-.02-3.864-.144-17.262-.782-27.405-3.01-12.45-2.737-19.413-4.523-25.296-7.27-4.635-2.163-6.084-5.397-6.53-7.396-4.645-1.036-19.255-4.993-30.91-15.75-4.997-4.614-7.91-9.053-9.584-12.89a2.444 2.444 0 0 1-.063-.147C2.904 160.203 4 155.263 4.073 154.95a2.06 2.06 0 0 1 .11-.333L40 71.907c-.315-3.68-1.31-24.146 12.827-44.862C66.125 7.557 89.653 5.387 96.792 5.19V2a2 2 0 0 1 2-2h16.067a2 2 0 0 1 2 2v3.19c7.136.196 30.664 2.365 43.965 21.855 14.135 20.715 13.14 41.183 12.827 44.862l35.815 82.71c.047.107.084.218.11.332.075.312 1.16 5.213-1.788 12.133-.04.12-.09.236-.15.347-1.68 3.81-4.588 8.208-9.536 12.775-11.654 10.757-26.264 14.714-30.907 15.75-.446 2-1.896 5.233-6.53 7.397-5.886 2.746-12.846 4.53-25.295 7.268-10.143 2.23-23.542 2.867-27.406 3.01a27.29 27.29 0 0 1-1.14.022zM50.24 194.007c.018.127.023.26.016.392 0 .096-.012 3.26 4.42 5.33 5.543 2.585 12.304 4.312 24.46 6.983 9.817 2.158 22.916 2.78 26.696 2.92.67.024 1.318.024 1.984 0 3.782-.14 16.88-.763 26.696-2.92 12.157-2.67 18.918-4.398 24.462-6.985 4.433-2.07 4.42-5.232 4.42-5.366a1.97 1.97 0 0 1 .02-.336c-.454-2.182-2.198-9.937-6.045-20.48-3.268-8.947-8.078-16.327-10.487-19.722a7.348 7.348 0 0 1-3.692 1.794c-1.222 1.865-7.063 10.257-16.844 16.19-10.56 6.405-18.49 9.04-18.896 9.172a1.99 1.99 0 0 1-1.256 0c-.455-.15-8.366-2.79-18.892-9.173-9.78-5.933-15.622-14.325-16.843-16.19a7.358 7.358 0 0 1-3.696-1.794c-2.41 3.395-7.22 10.774-10.484 19.723-3.833 10.507-5.58 18.246-6.04 20.457zM9.938 166.435c1.518 3.197 4.072 6.91 8.32 10.832 10.308 9.514 23.416 13.414 28.35 14.61.532-2.373 1.598-6.692 3.414-12.384.368-1.26 2.38-8.93 2.373-25.768-.008-18.56-5.36-38.844-5.47-39.262-.005-.016-.01-.032-.013-.048v-.003c-.114-.47-.05-.945.148-1.35v-.004a1.992 1.992 0 0 1 1.204-1.027h.005a3.517 3.517 0 0 1 .235-.056l46.15-8.697a2 2 0 0 1 1.926 3.22L71.348 137.84a2 2 0 0 1-1.49.744 2.014 2.014 0 0 1-1.536-.64L52.527 120.86c1.646 7.784 3.863 20.55 3.87 32.866 0 3.8-.097 7.148-.256 10.078 3.4-6.833 6.992-11.852 8.394-13.71a7.342 7.342 0 0 1-.208-1.74c0-4.067 3.308-7.376 7.375-7.376 2.08 0 3.96.864 5.303 2.252l22.623-39.486c1.646-2.872 4.243-4.52 7.128-4.52s5.482 1.648 7.128 4.52l2.975 5.19c.025.04.05.08.07.123l19.635 34.27a7.356 7.356 0 0 1 5.392-2.35c4.066 0 7.375 3.31 7.375 7.376 0 .6-.073 1.183-.21 1.74 1.476 1.958 5.374 7.41 8.92 14.788a181.93 181.93 0 0 1-.315-11.153c.005-12.667 2.35-25.808 4.007-33.518l-16.397 17.734a2.05 2.05 0 0 1-1.537.64 2 2 0 0 1-1.49-.744l-25.234-31.344a2 2 0 0 1 1.928-3.22l46.048 8.678a2 2 0 0 1 2.148 2.506c-.055.205-5.463 20.625-5.47 39.268-.01 18.44 2.405 25.883 2.43 25.956.154.463.13.943-.035 1.365 1.522 4.923 2.444 8.676 2.928 10.83 4.94-1.204 18.065-5.118 28.35-14.61 4.243-3.918 6.793-7.634 8.31-10.838l-38.237-90.9c-1.017-1.436-10.15-13.702-26.165-15.304-15.357-1.536-20.057 6.244-20.705 7.487-.203 1.475-1.132 4.963-5.38 6.622-2.066.808-3.678.41-4.666-.063a6.067 6.067 0 0 1-1.716-1.25 6.07 6.07 0 0 1-1.73 1.267c-1.418.68-3.033.7-4.668.063-4.294-1.677-5.196-5.222-5.386-6.668-.643-1.23-5.345-9.008-20.7-7.474-16.012 1.6-25.143 13.855-26.167 15.3L9.94 166.437zm64.97-11.446c2.21 2.984 7.214 8.997 14.47 13.397 8.54 5.18 15.405 7.836 17.448 8.575 2.042-.738 8.907-3.394 17.448-8.575 7.255-4.4 12.26-10.413 14.47-13.4a7.395 7.395 0 0 1-4.128-5.868h-55.58a7.39 7.39 0 0 1-4.128 5.87zm-66.97 1.025c-.088.49-.307 2.14.11 4.594L44.58 73.767c.048-.114.107-.224.175-.327.413-.623 10.33-15.324 29.198-17.21 15.332-1.534 21.818 5.32 23.962 8.484 1.44-.316 3.605-.633 5.42-.244 1.466.313 2.643 1.06 3.5 1.798.855-.732 2.025-1.47 3.48-1.782 1.815-.39 3.978-.073 5.42.244 2.145-3.165 8.63-10.02 23.963-8.485 18.868 1.887 28.785 16.59 29.198 17.214.068.102.127.21.175.325l36.52 86.815c.423-2.46.207-4.112.125-4.584l-35.938-82.992a1.996 1.996 0 0 1-.15-1.03c.023-.21 2.293-21.59-12.105-42.692-12.052-17.664-34.09-19.844-40.683-20.094v44.714c4.576-3.25 13.322-8.306 23.085-7.922 13.947.542 25.446 11.496 25.93 11.962a2 2 0 0 1-2.777 2.88c-.107-.105-10.907-10.363-23.308-10.845-12.366-.46-23.48 9.415-23.59 9.514a2 2 0 0 1-3.34-1.484V7.184c0-.1.007-.198.02-.294V4h-12.07v2.885c.016.097.023.196.023.297v50.843a2 2 0 0 1-3.34 1.485c-.11-.1-11.217-9.992-23.59-9.514-12.402.48-23.202 10.74-23.31 10.844a2 2 0 0 1-2.777-2.88c.483-.465 11.982-11.42 25.93-11.96 9.75-.393 18.508 4.67 23.085 7.92V9.207c-6.59.25-28.63 2.43-40.682 20.094C41.734 50.404 44.003 71.785 44.028 72c.04.35-.013.704-.152 1.026l-35.94 82.992zm134.013-11.042c-1.86 0-3.373 1.514-3.373 3.375s1.514 3.374 3.375 3.374 3.376-1.514 3.376-3.375-1.514-3.376-3.375-3.376zm-70.25 0c-1.86 0-3.373 1.514-3.373 3.375s1.514 3.374 3.375 3.374 3.376-1.514 3.376-3.375-1.514-3.376-3.375-3.376zm53.78.147h7.5l-7.5-13.086v13.087zm-8.325 0h4.327v-20.067l-4.326-7.553v27.62zm-8.328 0h4.328v-34.6l-2.744-4.79c-.44-.773-.982-1.385-1.583-1.812v41.203zm-8.328 0h4.327v-41.3c-.66.427-1.252 1.075-1.73 1.91l-2.614 4.56c.01.086.017.172.017.26v34.57zm-8.328 0h4.33v-27.876l-4.345 7.583c.01.085.017.17.017.26v20.034zm-11.643 0h7.643v-13.34l-7.643 13.34zm43.06-36.912l20.38 25.314 16.91-18.287-37.29-7.027zm-70.81 7.028l16.91 18.287 20.38-25.314-37.29 7.025zm46.637-46.742c.377.74 1.1 1.592 2.476 2.13.792.308 1.225.18 1.483.056.463-.222.844-.695 1.116-1.14-.467-.454-1.16-.983-1.99-1.16-.868-.186-2.063-.07-3.085.114zm9.76 1.052c.275.444.654.906 1.113 1.122.257.12.688.245 1.473-.06 1.356-.53 2.077-1.365 2.46-2.1-1.066-.19-2.244-.288-3.067-.113-.822.177-1.51.697-1.977 1.15zm29.183 31.666c-3.932 0-7.845-.355-11.275-1.31-6.486-1.8-10.436-6.402-11.42-13.305a15.45 15.45 0 0 1-.147-1.768c-.18-6.61 3.656-12.96 9.773-16.183 4.746-2.5 10.194-3.77 16.193-3.77 16.55 0 22.635 13.847 22.988 20.553.305 5.773-2.6 13.04-11.785 14.52-4.136.668-9.247 1.262-14.326 1.262zm3.124-32.333c-5.343 0-10.163 1.11-14.328 3.307-4.78 2.52-7.78 7.438-7.64 12.53.013.465.05.907.106 1.313v.002c.755 5.284 3.625 8.654 8.532 10.017 7.546 2.094 18.208.87 23.895-.05 8.255-1.33 8.537-8.265 8.43-10.36-.188-3.54-3.96-16.762-18.996-16.762zm-66.19 32.33c-5.08 0-10.19-.594-14.327-1.26-9.185-1.482-12.09-8.748-11.785-14.52.353-6.706 6.437-20.553 22.988-20.553 5.998 0 11.446 1.267 16.193 3.77 6.118 3.223 9.954 9.573 9.773 16.18a15.634 15.634 0 0 1-.145 1.768C97.007 93.5 93.057 98.1 86.57 99.902c-3.43.95-7.344 1.307-11.275 1.307zM72.17 68.88c-15.037 0-18.807 13.222-18.994 16.762-.11 2.094.172 9.028 8.428 10.36 5.687.917 16.353 2.143 23.895.046 4.905-1.363 7.775-4.733 8.53-10.017.06-.406.094-.85.107-1.31.14-5.095-2.86-10.014-7.64-12.53-4.166-2.197-8.987-3.31-14.328-3.31zm39.754 26.425h-10.197a2 2 0 0 1 0-4h10.197a2 2 0 0 1 0 4zm-1.945-6.047h-6.308a2 2 0 0 1 0-4h6.306a2 2 0 0 1 0 4zm0-6.133h-6.308a2 2 0 0 1 0-4h6.306a2 2 0 0 1 0 4z"/>
</svg>