<?xml version="1.0" encoding="iso-8859-1"?>
<!-- Generator: Adobe Illustrator 17.1.0, SVG Export Plug-In . SVG Version: 6.00 Build 0)  -->
<!DOCTYPE svg PUBLIC "-//W3C//DTD SVG 1.1//EN" "http://www.w3.org/Graphics/SVG/1.1/DTD/svg11.dtd">
<svg version="1.1" id="Capa_1" xmlns="http://www.w3.org/2000/svg" xmlns:xlink="http://www.w3.org/1999/xlink" x="0px" y="0px"
	 viewBox="0 0 212 212" style="enable-background:new 0 0 212 212;" xml:space="preserve">
<path d="M131.895,208.756c-0.769,0-1.49-0.445-1.82-1.172c-0.401-0.883-0.112-1.927,0.687-2.476
	c13.57-9.336,24.006-19.067,30.183-28.145c9.208-13.533,17.871-33.763,11.979-46.234c-2.967-6.28-9.462-9.918-19.306-10.813
	c-20.508-1.874-34.464,13.038-41.375,44.182l-0.25,1.118c-1.858,8.129-3.986,25.542-4.007,25.717
	c-0.122,1.004-0.974,1.759-1.985,1.759s-1.863-0.755-1.985-1.759c-0.021-0.175-2.149-17.591-4.007-25.717l-0.25-1.114
	c-6.912-31.146-20.86-46.057-41.376-44.186c-9.843,0.895-16.338,4.532-19.305,10.812c-5.892,12.472,2.771,32.701,11.979,46.235
	c6.177,9.077,16.614,18.81,30.183,28.145c0.798,0.549,1.088,1.593,0.687,2.476s-1.377,1.349-2.317,1.109
	C32.736,196.681,0,154.455,0,106.007C0,57.532,32.758,15.3,79.663,3.306c0.974-0.245,1.984,0.265,2.355,1.201
	c0.371,0.937-0.013,2.002-0.895,2.488c-17.3,9.528-39.234,25.816-45.483,49.297c-3.994,15.009-3.239,26.304,2.244,33.573
	c4.937,6.544,13.785,9.978,26.299,10.204c0.586,0.011,1.167,0.017,1.742,0.017c18.589,0,26.729-6.184,28.096-21.342l1.744-19.342
	c0.092-1.026,0.95-1.814,1.98-1.82c0.003,0,0.008,0,0.011,0c1.026,0,1.886,0.776,1.99,1.798l2.671,26.263h7.166l2.671-26.263
	c0.104-1.021,0.964-1.798,1.99-1.798c0.004,0,0.008,0,0.012,0c1.03,0.006,1.888,0.794,1.98,1.82l1.743,19.342
	c1.367,15.158,9.507,21.342,28.096,21.342c0.576,0,1.155-0.006,1.742-0.017c12.515-0.227,21.363-3.66,26.3-10.204
	c5.483-7.27,6.238-18.564,2.244-33.573c-6.249-23.48-28.184-39.769-45.483-49.297c-0.882-0.486-1.265-1.552-0.895-2.488
	c0.371-0.936,1.379-1.449,2.355-1.201C179.242,15.3,212,57.532,212,106.007c0,48.448-32.736,90.675-79.608,102.687
	C132.227,208.735,132.06,208.756,131.895,208.756z M64.238,12.901C28.062,29.086,4,65.254,4,106.007
	c0,42.549,26.238,80.11,65.108,95.134c-9.277-7.347-16.438-14.693-21.359-21.927c-10.272-15.097-18.895-36.211-12.289-50.193
	c3.615-7.652,11.206-12.056,22.56-13.088c1.255-0.113,2.508-0.172,3.723-0.172c20.825,0,34.929,15.973,41.92,47.475l0.244,1.091
	c0.71,3.105,1.445,7.427,2.093,11.664c0.648-4.237,1.383-8.559,2.093-11.664l0.245-1.094c6.99-31.5,21.093-47.472,41.919-47.472
	c1.215,0,2.468,0.059,3.723,0.172c11.354,1.032,18.945,5.436,22.56,13.088c6.605,13.982-2.017,35.097-12.289,50.193
	c-4.921,7.233-12.082,14.58-21.358,21.927C181.762,186.117,208,148.555,208,106.007c0-40.753-24.062-76.921-60.238-93.105
	c14.005,10.088,27.607,24.115,32.463,42.362c4.327,16.258,3.346,28.71-2.916,37.011c-5.715,7.576-15.614,11.545-29.42,11.796
	c-0.611,0.011-1.214,0.017-1.814,0.017c-13.605,0-29.427-2.727-31.94-23.661l-0.755,7.42c-0.104,1.021-0.963,1.798-1.99,1.798
	h-10.78c-1.026,0-1.886-0.776-1.99-1.798l-0.754-7.42c-2.513,20.935-18.335,23.661-31.941,23.661c-0.599,0-1.204-0.006-1.815-0.017
	c-13.806-0.251-23.704-4.22-29.419-11.796c-6.261-8.301-7.242-20.753-2.916-37.011C36.631,37.016,50.232,22.989,64.238,12.901z"/>
<g>
</g>
<g>
</g>
<g>
</g>
<g>
</g>
<g>
</g>
<g>
</g>
<g>
</g>
<g>
</g>
<g>
</g>
<g>
</g>
<g>
</g>
<g>
</g>
<g>
</g>
<g>
</g>
<g>
</g>
</svg>
