<svg xmlns="http://www.w3.org/2000/svg" viewBox="0 0 213.42 213.42"><path d="M106.71 178.015c-.36 0-.718-.097-1.036-.29-.274-.166-27.792-16.962-61.582-48.413C10.152 97.722.564 76.662.172 75.782a2 2 0 0 1 .263-2.06c.487-.61 12.055-15.076 22.092-22.604 9.952-7.464 18.102-11.886 18.444-12.07.217-.117.452-.193.695-.224.2-.026 20.105-2.57 36.11-3.156 4.773-.175 9.723-.263 14.712-.263 7.913 0 13.45.227 14.223.26.772-.033 6.31-.26 14.223-.26 4.99 0 9.94.088 14.71.263 16.006.585 35.912 3.13 36.11 3.156.244.03.48.107.695.223.342.185 8.492 4.607 18.444 12.07 10.037 7.53 21.604 21.994 22.092 22.606a2 2 0 0 1 .263 2.06c-.392.88-9.98 21.94-43.92 53.53-33.79 31.45-61.307 48.246-61.58 48.412-.32.193-.678.29-1.037.29zM4.36 75.235c2.412 4.676 13.456 24.154 42.458 51.15 29.81 27.746 54.61 43.933 59.893 47.272 5.285-3.342 30.104-19.546 59.894-47.273 28.998-26.99 40.043-46.468 42.457-51.148-2.79-3.397-12.397-14.792-20.566-20.917-8.616-6.463-16.02-10.684-17.624-11.575-2.806-.35-20.756-2.544-35.37-3.08-4.725-.172-9.625-.26-14.565-.26-8.398 0-14.075.258-14.13.26a1.903 1.903 0 0 1-.186 0c-.057-.002-5.732-.26-14.13-.26-4.942 0-9.842.088-14.565.26-14.62.536-32.565 2.73-35.372 3.08-1.602.892-9.007 5.112-17.624 11.574-8.176 6.13-17.78 17.52-20.57 20.916zm102.484 86.174c-.18 0-.36-.025-.535-.074-.145-.04-3.59-1.022-9.872-4.995-6.13-3.875-11.97-8.552-12.215-8.75a2 2 0 0 1-.548-2.43 1.995 1.995 0 0 1 2.246-1.08c.134.03 13.36 3.03 21.04 3.118l.626.003c7.772 0 19.35-1.52 19.465-1.536a2 2 0 0 1 1.403 3.626c-.266.186-6.597 4.575-11.56 7.372-4.987 2.81-9.113 4.523-9.286 4.595-.243.1-.502.152-.763.152zM93.73 149.706a115.6 115.6 0 0 0 4.846 3.253c4.23 2.675 7.02 3.867 8.188 4.307a94.8 94.8 0 0 0 8.167-4.09c1.39-.782 2.91-1.708 4.372-2.63-3.714.344-8.07.655-11.715.655l-.67-.003c-3.877-.046-8.918-.753-13.187-1.493zm21.095-5.386h-.003c-8.362 0-18.35-1.248-28.886-3.61-27.12-6.08-41.75-25.795-42.36-26.63a2 2 0 0 1 2.222-3.086c.026.008 2.73.855 11.474 2.954 7.18 1.723 11.492 2.023 27.538 3.14 3.548.246 7.657.53 12.482.88 28.575 2.07 35.263 4.005 38.234 5.788 2.627 1.576 4.244 3.672 4.677 6.063.465 2.567-.445 5.31-2.705 8.15-3.26 4.095-11.312 6.35-22.673 6.35zm-63.757-27.774c6.005 6.115 18.217 16.332 35.743 20.26 10.253 2.3 19.94 3.515 28.012 3.515h.003c9.824 0 17.13-1.81 19.543-4.842 1.51-1.897 2.15-3.562 1.9-4.946-.28-1.545-1.678-2.672-2.8-3.346-3.39-2.034-14.637-3.646-36.465-5.227-4.82-.35-8.926-.635-12.47-.882-15.894-1.105-20.69-1.438-28.194-3.24-2.08-.498-3.822-.927-5.272-1.292zm120.09-7.51a2 2 0 0 1-2-2.067c.01-.37.156-9.312-7.846-16.083-8.732-7.39-23.89-9.975-36.12-11.4-5.118-.598-10.93-1.167-16.55-1.717-9.477-.928-18.43-1.804-23.444-2.743-3.255-.417-18.75-2.738-21.147-9.41-.572-1.593-.672-4.11 2.098-7.053 4.24-4.505 13.134-6.79 26.436-6.79 9.836 0 20.65 1.31 26.92 2.43 9.36 1.67 23.597 5.153 38.27 12.256 14.564 7.052 27.786 21.973 28.342 22.604a2 2 0 0 1 .054 2.578l-13.458 16.65c-.386.48-.962.744-1.555.744zm-78.574-53.26c-11.983 0-20.117 1.91-23.522 5.53-1.108 1.177-1.528 2.172-1.246 2.958 1.173 3.268 11.2 5.944 17.945 6.802.04.005.08.01.12.02 4.827.91 13.728 1.78 23.152 2.702 5.638.552 11.47 1.123 16.625 1.724 13.582 1.584 28.746 4.287 38.24 12.32 5.552 4.7 7.783 10.315 8.675 14.27l9.405-11.635c-3.484-3.717-14.473-14.853-25.946-20.407-14.26-6.904-28.116-10.293-37.228-11.92-6.11-1.09-16.642-2.365-26.218-2.365zm-63.912 40.45a1.995 1.995 0 0 1-1.623-.832L16.633 80.91a2 2 0 0 1-.276-1.793c.162-.492 4.074-12.155 14.066-20.914C40.308 49.54 47.14 47.176 47.427 47.08c.206-.07.42-.105.64-.105H59.72a2 2 0 0 1 .62 3.902c-.196.063-19.608 6.502-26.2 18.57-6.575 12.032-3.563 24.155-3.532 24.276a2.003 2.003 0 0 1-1.936 2.502zm-8.17-16.788l5.365 7.46c-.042-5.142.854-12.214 4.762-19.368 4.215-7.717 12.662-13.213 19.27-16.554h-1.47c-1.327.527-7.245 3.115-15.37 10.236-7.592 6.656-11.447 15.392-12.557 18.226zm172.294 8.768a2 2 0 0 1-1.434-.606c-.348-.357-8.568-8.84-13.052-15.748-4.574-7.046-6.883-17.34-6.98-17.775a1.998 1.998 0 0 1 .81-2.07 2.003 2.003 0 0 1 2.222-.046c.25.162 6.246 4.027 13.612 11.273 7.415 7.293 11.88 15.073 12.067 15.4a2 2 0 0 1-.203 2.272l-5.507 6.584a2 2 0 0 1-1.46.714c-.024.002-.05.002-.074.002zm-16.034-29.542c1.083 3.364 2.73 7.662 4.903 11.01 3.15 4.852 8.444 10.736 11.04 13.524l3.145-3.762c-1.506-2.398-5.315-8.074-10.682-13.353a103.15 103.15 0 0 0-8.406-7.42zm-14.705 1.743c-4.676 0-11.09-2.32-17.294-4.565-2.49-.9-4.842-1.75-7.042-2.444-8.2-2.58-19.596-5.2-19.71-5.226a2 2 0 0 1 .446-3.95c.145 0 14.593.012 28.27.964 13.716.954 19.142 1.9 19.366 1.94a2 2 0 0 1 1.488 1.183c.25.58 2.378 5.78.433 9.242-.595 1.058-1.817 2.393-4.263 2.743-.525.074-1.095.112-1.693.112zM135.667 48.6c1.115.325 2.21.654 3.254.983 2.282.717 4.784 1.623 7.204 2.498 5.88 2.128 11.96 4.327 15.934 4.328.41 0 .79-.025 1.127-.073.89-.127 1.184-.463 1.34-.743.61-1.082.2-3.236-.257-4.698-2.207-.316-7.783-1.02-17.818-1.717-3.636-.254-7.327-.44-10.784-.576z"/></svg>