<?xml version="1.0" encoding="UTF-8" standalone="yes"?>
<svg xmlns="http://www.w3.org/2000/svg" viewBox="0 0 64 64">
  <path d="M12.79 29.063c-5.407 0-9.79 4.383-9.79 9.79 0 5.407 4.383 9.79 9.79 9.79 3.947 0 7.34-2.343 8.89-5.71l2.325 1.793s17.09.122 18.03-.408c0 0-2.122-5.792.57-8.24.284-.258.64-.552 1.032-.864a9.753 9.753 0 0 0-.706 3.638c0 5.407 4.385 9.79 9.79 9.79 5.408 0 9.79-4.384 9.79-9.79 0-5.407-4.383-9.79-9.79-9.79-.087 0-.172.012-.26.014.707-.46 1.158-.747 1.158-.747l-.734-.655s2.12-.49 1.632-1.55-5.63-7.424-5.63-7.424.912-1.957-.97-3.344l-.905 1.958s-2.304-1.59-3.22-1.285c-.92.305-2.295.46-2.724 1.13l-.428.4s-.122.703.58 1.743c0 0 7.068 2.172 7.404 3.763 0 0 .49 1.01-1.62 1.254l-.428.552-1.132.06-2.05-4.68s-1.958.52-2.967 1.315l.153.795s-8.23-5.598-15.97 2.692c0 0-5.72 1.652-9.727-3.426 0 0-.06-1.652-9.73-1.346l.675.704s-.673.06-.948.49c-.275.427.153.886 2.356.886 0 0 4.987 5.69 8.81 5.354l5.446 2.63 2.416 4.13s.004.355.03.9c-.562.118-1.19.25-1.858.392-1.294-3.893-4.96-6.705-9.288-6.705zm39.93 3a6.797 6.797 0 0 1 6.79 6.79 6.797 6.797 0 0 1-6.79 6.788 6.797 6.797 0 0 1-6.788-6.787 6.797 6.797 0 0 1 6.79-6.79zm-39.93 13.58A6.797 6.797 0 0 1 6 38.853a6.797 6.797 0 0 1 6.79-6.79c2.877 0 5.336 1.803 6.322 4.336l-7.173 1.527.46 2.538 7.05-.31c-.61 3.12-3.363 5.486-6.66 5.486zm11.757-5.714c.2.68.46 1.22.804 1.45l-3.144.123c.135-.482.237-.977.298-1.486l2.044-.09z"/>
</svg>