<?xml version="1.0" encoding="UTF-8" standalone="yes"?>
<svg xmlns="http://www.w3.org/2000/svg" viewBox="0 0 64 64">
  <path d="M43.34 28.815c-4.934-.29-13.497-1.153-15.778-.86-2.31.294-6.7 2.397-8.158 2.934 2.39.486 5.604.94 8.35.613 3.473-.414 10.572-1.66 15.586-2.69z"/>
  <path d="M61.422 24.25c-.234.172-1.22.72-1.75.797s-3.125.734-3.125.734.61-.717-.203-.2-3.297 1.046-3.53 1.25-.595.53-.595.53c-.143.47.654.406 1.295.172s1.5-.437 1.36-.28c-.116.127-.9.85-1.33 1.15-1.922-.106-3.73.14-5.39.33-3.892 1.086-15.66 3.217-20.284 3.767a18.4 18.4 0 0 1-2.155.12c-3.81 0-7.786-.985-9.386-1.428C7.16 31.185.624 38.46.624 38.46s-.396.48.292.875.208 1.917.438 2.27c.23.355.062.73.583.876.43.123 5.188.755 7.15.994a6.572 6.572 0 0 1-.67-2.888c0-3.653 2.97-6.625 6.624-6.625s6.625 2.973 6.625 6.626c0 1.143-.29 2.22-.803 3.16.68-.176 1.456-.39 2.355-.618 3.436-.875 11.67-1.922 11.873-1.797s.89.36.89.36c1.423.31 9.5-.344 9.5-.344.388 0 1.818.27 2.815.445a7.623 7.623 0 0 1-1.264-4.205c0-4.23 3.442-7.673 7.673-7.673 2.124 0 4.05.87 5.44 2.27.443-.174.62-.513.62-.513l-.603-1.105a13.5 13.5 0 0 0-2.43-1.262l1.014-2.932c.61.01 2.25-1.492 2.673-1.71s.234-.58 0-.407zm-6.505 4.286c1.672-1.232 1.856-.948 1.583-.458-.16.287-.28.53-.36.7-.412-.104-.82-.18-1.223-.242z"/>
  <path d="M15.042 34.958a5.624 5.624 0 0 0-5.625 5.625c0 1.075.307 2.075.83 2.93a5.61 5.61 0 0 0 9.216.54 5.592 5.592 0 0 0 1.204-3.47 5.626 5.626 0 0 0-5.625-5.625zm39.666-4.048a6.673 6.673 0 1 0 6.673 6.674c0-1.9-.796-3.61-2.07-4.826a6.642 6.642 0 0 0-4.6-1.847z"/>
</svg>