<?xml version="1.0" encoding="UTF-8" standalone="yes"?>
<svg xmlns="http://www.w3.org/2000/svg" viewBox="0 0 64 64">
  <circle cx="10.887" cy="40.305" r="4.883"/>
  <circle cx="50.954" cy="40.305" r="4.883"/>
  <path d="M2.267 37.672H3.87c.08.764.163 1.38.163 1.38 1.486-.318 4.076-5.966 7.346-5.966s5.39 2.802 5.645 5.35 1.783 2.25 1.783 2.25c12.313.68 25.433-.608 25.433-.608-.34-6.765 8.748-8.734 11.04-4.063 2.294 4.67 6.88 4.034 6.88 4.034l-.106-1.255c1.912-.126.944-.73.944-.73V36.79c0-1.273-3.257-1.496-3.257-1.496-7.302-20.806-34.562-13.31-34.562-13.31-1.274 2.674-4.458 5.413-4.458 5.413-8.852-.574-13.82 4.585-13.82 4.585-1.653.672-2.695 1.804-3.034 2.887h-1.6c-.515 0-.933.625-.933 1.4s.42 1.4.934 1.4z"/>
</svg>