<svg xmlns="http://www.w3.org/2000/svg" width="64" height="64" viewBox="0 0 64 64"><path d="M5.98 31.836a11.173 11.173 0 0 1 6.26-1.91c6.03 0 10.952 4.775 11.217 10.74h15.66c.265-5.966 5.187-10.74 11.217-10.74 3.464 0 6.566 1.576 8.63 4.048 1.39-.29 2.178-4.144 1.454-4.467-.917-.408-1.25-2.925-1.25-2.925-1.417-2.25-12-3.833-12-3.833l-.917.332s-3-1.667-6.25-3.583c-3.25-1.918-11.082-1.5-12-.75s-2.166 5.082-2.166 5.082-18-.75-20.25-.417-2.167 5.977-2.167 5.977c-1.083.644-.583 1.773-.583 1.773l3.146.67z"/><path d="M50.333 30.926c-5.487 0-9.953 4.32-10.216 9.74-.008.168-.025.332-.025.5 0 5.657 4.585 10.242 10.24 10.242s10.242-4.585 10.242-10.24a10.2 10.2 0 0 0-3.342-7.553 10.186 10.186 0 0 0-6.9-2.69zm0 15.957a5.718 5.718 0 0 1-5.717-5.717c0-.247.02-.488.05-.727a5.715 5.715 0 0 1 5.667-4.99c.887 0 1.724.207 2.473.568a5.712 5.712 0 0 1-2.473 10.865zM12.24 51.408c5.657 0 10.242-4.585 10.242-10.24 0-.17-.017-.334-.025-.5-.263-5.423-4.73-9.742-10.216-9.742a10.18 10.18 0 0 0-5.138 1.393C4.054 34.09 2 37.385 2 41.166c0 5.656 4.585 10.24 10.24 10.24zm-1.46-15.763a5.72 5.72 0 0 1 1.46-.195 5.715 5.715 0 0 1 5.693 5.217c.014.165.025.33.025.5a5.718 5.718 0 0 1-11.434 0 5.714 5.714 0 0 1 4.257-5.522z"/></svg>