<?xml version="1.0" encoding="UTF-8" standalone="yes"?>
<svg xmlns="http://www.w3.org/2000/svg" viewBox="0 0 64 64">
  <path d="M60.562 49.438c-.248-.993-2.93-1.027-4.717-.936.304 1.233.392 2.546-.09 3.618 2.18-.3 5.097-1.522 4.807-2.682zm-19.585-5.402c1.484-5.154.716-5.873.714-5.875a.242.242 0 0 0-.07-.006c-.227 0-1.132.147-3.27 2.034-3.48 3.074-9.52 6.345-11.9 7.157 1.846 3.596 4.057 5.524 6.367 6.586l.926-.26c.198-.053 4.878-1.45 7.235-9.633zm10.106 8.667c.014-.043 1.365-4.406-1.334-9.315l-.588-1.065c-.877-.555-1.658-1.29-2.355-2.154.045 1.17-.068 2.286-.447 3.24-.136.344-.275.7-.417 1.066-1.456 3.73-3.222 8.23-6.403 10.673 3.402-.19 8.326-1.197 11.36-1.88l.183-.568zM10.625 54.25L10 31.403c3.72-3.693 11.003 3.78 14.52 11.48 2.07-1.032 14.294-7.29 17.584-12.874l.266-.454C41.3 24.73 41.124 20.5 41.124 20.5s-7.375.75-13.875-4.25S12 7.625 12 7.625L10.875 9.75c18.318 9.375 13.25 24 13.25 24C20 27 5 19.125 3.5 19s-.75 2.625-.75 2.625c5.5 4.75 6 32.625 6 32.625h1.875z"/>
  <path d="M37.665 55.15c4.107-2.065 6.117-7.952 7.767-12.11.503-1.267.48-2.894.21-4.55-.637-3.9-2.676-7.973-2.676-7.973-.082.14-.176.28-.267.42-3.806 5.78-15.84 11.902-17.78 12.863l-.274.135 1.064 2.59a4.25 4.25 0 0 0 .306-.088c1.994-.637 8.123-3.864 11.672-7 1.54-1.36 2.965-2.284 3.932-2.284 1.387 0 1.83 1.905.318 7.16-2.183 7.582-6.38 9.727-7.59 10.202-.213.084-.345.122-.345.122l3.387.658c.094-.043.182-.1.275-.145zM54.25 52.5c.118-.097.22-.204.31-.318.726-.904.625-2.296.272-3.613-.374-1.4-1.026-2.71-1.27-3.258-.5-1.125-.687-1.625-.687-1.625l-2.25-.782c.03.054.052.107.08.16 2.82 5.277 1.33 9.942 1.33 9.942l2.215-.508z"/>
</svg>