<?xml version="1.0" encoding="iso-8859-1"?>
<!-- Generator: Adobe Illustrator 17.0.0, SVG Export Plug-In . SVG Version: 6.00 Build 0)  -->
<!DOCTYPE svg PUBLIC "-//W3C//DTD SVG 1.1//EN" "http://www.w3.org/Graphics/SVG/1.1/DTD/svg11.dtd">
<svg version="1.1" id="Capa_1" xmlns="http://www.w3.org/2000/svg" xmlns:xlink="http://www.w3.org/1999/xlink" x="0px" y="0px"
	 width="64px" height="64px" viewBox="0 0 64 64" style="enable-background:new 0 0 64 64;" xml:space="preserve">
<g>
	<path d="M17.376,38.256c-2.825-1.788-5.612-3.167-7.942-4.316c-1.069-0.528-2.079-1.026-2.922-1.483
		c-0.826-0.449-1.477-0.956-2.008-1.51c0.108,0.165,0.242,0.33,0.417,0.491c1.534,1.415,7.178,7.078,9.394,14.652
		c2.216,7.574,3.932,14.769,3.932,14.769s1.636,0.387,2.307-0.327C21.142,59.908,13.605,40.164,17.376,38.256z"/>
	<path d="M53.292,42.379c0,0-0.187-2.069-1.328-3.579c0,0-0.217,0.012-0.585,0.012c-1.236,0-4.184-0.132-6.436-1.28
		c-0.225-0.115-0.401-0.167-0.537-0.167c-1.23-0.001,0.777,4.291-1.061,5.774c-0.153-0.091-0.309-0.179-0.455-0.277
		c-0.16-0.107-0.316-0.219-0.468-0.334c-1.866-1.408-3.23-3.377-4.415-5.421c-0.104-0.18-0.207-0.36-0.309-0.54
		c-0.102-0.181-0.206-0.361-0.306-0.542c0.567-1.242,1.176-2.455,1.422-3.487c0.853-3.575,1.091-8.199-1.115-9.34
		s-12.668,0.246-9.125-3.111c2.63-2.492,6.977-5.78,7.198-8.585c0.118-0.164,0.171-0.378,0.07-0.606
		c-0.072-0.164-0.145-0.331-0.217-0.497c-0.013-0.03-0.026-0.06-0.039-0.089c-0.239-0.549-0.482-1.103-0.738-1.654
		c-0.136-0.293-0.278-0.583-0.425-0.871c-0.629-1.233-1.367-2.402-2.378-3.34c-1.754-1.627-4.016-2.334-6.327-2.755
		c-3.576-0.652-7.262-0.791-10.909-0.62c-0.65,0.031-1.298,0.072-1.945,0.121c-0.444,0.034-0.888,0.068-1.33,0.11
		c-0.132,0.012-0.232,0.067-0.316,0.135C9.868,1.252,8.883,1.151,8.19,1.151c-3.89,0,1.128,3.116-1.346,11.806
		C4.618,20.776,2.725,25.744,4.32,28.98c0.506,1.028,1.357,1.885,2.67,2.598c2.97,1.613,7.913,3.679,12.752,7.062
		c4.039,2.823,8.006,6.561,10.694,11.747c5.082,9.803,4.343,11.933,9.175,11.933c0.788,0,1.722-0.057,2.855-0.146
		c8.084-0.636,14.851-7.675,15.371-10.286c0.52-2.611,1.759-8.59,1.759-8.59s-0.996-1.119-3.965-1.119
		C54.957,42.18,54.182,42.237,53.292,42.379z M36.344,28.454c-3.116,1.447-6.564,1.903-9.779,3.071
		c-0.03-0.142-0.064-0.281-0.11-0.417c2.654-1.493,5.376-2.862,8.03-4.355C35.451,27.122,36.144,27.65,36.344,28.454z
		 M32.901,26.312c-2.316,1.27-4.671,2.47-6.974,3.763c-0.095-0.139-0.192-0.278-0.304-0.411c1.663-1.182,3.288-2.414,4.846-3.731
		C31.308,26.039,32.138,26.155,32.901,26.312z M28.038,15.347c-0.115-0.07-0.261-0.094-0.433-0.035
		c-2.738,0.939-5.641,1.135-8.515,1.276c0.12-0.166,0.239-0.335,0.354-0.506c3.683-0.934,7.158-2.541,10.823-3.537
		C29.903,13.45,29.059,14.402,28.038,15.347z M16.669,6.489c0.583,0.117,1.225,0.247,1.912,0.389
		c-0.517,0.952-0.956,1.929-1.469,2.883c-0.373-0.185-0.754-0.357-1.131-0.514c0.242-0.799,0.401-1.623,0.681-2.412
		C16.708,6.708,16.699,6.594,16.669,6.489z M18.934,10.863c-0.192-0.146-0.397-0.287-0.61-0.422
		c0.592-1.078,1.071-2.193,1.677-3.266c0.619,0.131,1.279,0.272,1.961,0.42C20.945,8.678,19.995,9.822,18.934,10.863z M23.102,8.069
		c0.06-0.061,0.099-0.128,0.128-0.196c0.751,0.165,1.524,0.338,2.339,0.522c0.507,0.115,0.968,0.237,1.387,0.364
		c-2.272,1.111-4.481,2.335-6.685,3.569c-0.127-0.236-0.291-0.463-0.484-0.681C20.941,10.5,21.964,9.232,23.102,8.069z
		 M23.297,20.167c-0.115,0.298-0.165,0.589-0.169,0.884c-2.304,0.591-4.626-0.034-6.919-0.437c0.151-0.326,0.349-0.658,0.578-0.996
		C18.955,19.905,21.111,20.258,23.297,20.167z M23.319,22.183c0.104,0.322,0.245,0.666,0.415,1.039
		c-2.125,0.642-4.363,0.629-6.561,0.846c-0.98-0.781-1.331-1.549-1.278-2.334C18.393,22.15,20.814,22.761,23.319,22.183z
		 M17.567,18.561c0.2-0.256,0.406-0.516,0.617-0.782c0.026,0.002,0.045,0.013,0.073,0.011c2.658-0.128,5.368-0.253,7.966-0.878
		c-0.005,0.004-0.009,0.008-0.014,0.011c-0.966,0.793-1.667,1.449-2.157,2.034C21.87,19.157,19.722,18.856,17.567,18.561z
		 M20.269,14.658c0.019-0.039,0.04-0.078,0.058-0.118c0.169-0.366,0.242-0.717,0.244-1.055c2.59-1.451,5.18-2.904,7.877-4.164
		c1.248,0.584,1.846,1.256,1.982,1.983C26.969,12.187,23.692,13.66,20.269,14.658z M17.136,2.155
		c0.653-0.007,1.306-0.001,1.958,0.017c2.05,0.055,4.093,0.232,6.087,0.596c2.238,0.408,4.609,0.984,6.236,2.688
		c0.461,0.483,0.857,1.012,1.216,1.566c0.155,0.24,0.304,0.484,0.445,0.733c0.131,0.231,0.258,0.465,0.38,0.703
		C30.88,7.355,22.553,3.911,15.282,2.204C15.899,2.178,16.518,2.162,17.136,2.155z M14.223,6.011
		c0.414,0.079,0.894,0.171,1.432,0.277c-0.025,0.038-0.054,0.069-0.071,0.118c-0.281,0.793-0.441,1.621-0.684,2.423
		c-0.347-0.125-0.677-0.235-0.983-0.332C14.043,7.671,14.174,6.846,14.223,6.011z M15.331,15.416
		c-1.826,2.351-2.374,3.056-2.524,3.785c0,0-0.273-5.606-0.506-6.879C12.302,12.322,17.157,13.065,15.331,15.416z M12.305,5.657
		c0,0,0.284,0.049,0.805,0.145c-0.02,0.055-0.042,0.108-0.045,0.175c-0.041,0.736-0.155,1.462-0.267,2.189
		c-0.412-0.112-0.66-0.169-0.66-0.169L12.305,5.657z M18.08,36.292l-2.968-1.785c0,0-6.047-8.245-2.683-11.689
		c0,0,2.684,3.489,5.935,5.428C21.614,30.186,22.908,35.13,18.08,36.292z M22.037,26.967c-1.043-0.605-2.174-1.213-3.306-1.882
		c1.872-0.134,3.749-0.219,5.551-0.81c0.006-0.002,0.009-0.006,0.014-0.008c0.234,0.271,0.57,0.491,0.984,0.671
		c-1.026,0.627-2.054,1.249-3.08,1.877C22.13,26.858,22.08,26.912,22.037,26.967z M26.758,25.386
		c0.648,0.14,1.366,0.248,2.111,0.345c-1.325,1.078-2.68,2.117-4.076,3.105c-0.492-0.424-1.053-0.827-1.674-1.22
		C24.333,26.875,25.549,26.138,26.758,25.386z M28.895,44.691c-0.712-0.154-3.583-3.49-4.651-4.756
		c1.877,1.062,3.662,2.273,5.475,3.44C29.214,44.194,28.895,44.691,28.895,44.691z M30.321,42.385
		c-1.956-1.259-3.876-2.578-5.917-3.699c-0.002-0.001-0.005-0.001-0.007-0.002c0.112-0.198,0.244-0.45,0.394-0.762
		c2.093,1.121,4.122,2.5,6.482,2.855C30.933,41.36,30.611,41.903,30.321,42.385z M31.906,39.674
		c-2.442-0.181-4.525-1.679-6.64-2.812c0.091-0.215,0.188-0.45,0.289-0.702c2.531,0.496,5.04,1.175,7.629,1.186
		C32.759,38.147,32.327,38.932,31.906,39.674z M33.787,36.183c-2.66,0.102-5.22-0.604-7.806-1.121
		c0.081-0.217,0.167-0.452,0.254-0.691c2.917-0.267,5.877-0.055,8.746-0.692C34.621,34.495,34.215,35.339,33.787,36.183z
		 M35.529,32.364c-0.016,0.003-0.029-0.001-0.046,0.003c-2.906,0.826-5.93,0.585-8.909,0.817c0.029-0.156,0.04-0.304,0.053-0.452
		c3.176-1.198,6.57-1.694,9.7-3.017C36.195,30.474,35.913,31.378,35.529,32.364z M41.642,43.644c-0.442,0-0.957-0.059-1.558-0.19
		c-4.463-0.969-4.282-3.474-3.264-6.091c0.107,0.187,0.214,0.374,0.324,0.561c0.112,0.189,0.228,0.376,0.343,0.563
		c0.904,1.473,1.921,2.876,3.153,4.05c0.214,0.204,0.439,0.396,0.668,0.585c0.203,0.169,0.404,0.341,0.619,0.496
		C41.83,43.624,41.748,43.644,41.642,43.644z"/>
</g>
</svg>
