<?xml version="1.0" encoding="UTF-8" standalone="yes"?>
<svg xmlns="http://www.w3.org/2000/svg" viewBox="0 0 64 64">
  <path d="M54.81 58.477c-.82 0-1.74.015-2.77.045l-.258.01c.313-.776 1.793-4.814-.866-6.023-.87-.398-1.283-1.003-1.647-1.536-.32-.47-.658-.942-1.243-.977-2.74-3.356-4.467-7.358-5.663-11.6l.164-.378c1.225-2.82-.01-4.475-.063-4.543l-.097-.126-.15-.046c-.375-.116-.75-.22-1.125-.326-.72-3.69-1.23-7.414-1.827-10.925l.484.013.588-18.83-.368-.11c-4.477-1.347-8.678-2.03-12.486-2.03-7.423 0-10.82 2.564-10.96 2.674l-.203.157.01.255c.008.233.006.44.01.668l.505-.066.497-.065 3.374-.44a1.323 1.323 0 0 1 1.488 1.144l.33 2.52.05-.006a.5.5 0 1 1 .13.994l-.05.007.33 2.522a1.33 1.33 0 0 1-1.145 1.488l-4.988.653-.5.066-.252.03a1.27 1.27 0 0 1-.174.01c-.026 0-.05-.01-.077-.013-.95 5.807-3.02 8.23-4.55 10.004-.47.545-.873 1.016-1.185 1.515-.61.975-3.582 6.017-2.272 9.56.03.083.082.15.116.228-.036.887.174 2.312.633 4.277 1.062 4.54 2.89 19.153 2.625 22.053l-.012.123.048.114c.072.173.414.74 1.775.74.333 0 .71-.035 1.122-.103l.427-.07-.008-.43c-.01-.59-.228-14.473-.506-17.98-.09-1.122.065-1.908.46-2.335.788-.852 2.82-.463 5.907 1.11 2.007 1.57 5.778 5.044 8.616 10.796C32.74 60.756 34.51 62.5 43.5 62.5c1.095 0 2.3-.023 3.633-.062.136-.004 13.56-.526 13.528-2.74-.01-.644-.463-1.22-5.852-1.22zm-36.817-31.31c-.76-3.385.018-5.135.332-5.666l19.124.507c.59 3.387 1.097 6.94 1.766 10.477a47.986 47.986 0 0 0-11.314-1.372c-4.016 0-7.11.516-8.933.924a116.35 116.35 0 0 0-.978-4.868zM46.327 50.92c-1.833 1.74-3.365 6.16-3.966 8.072a45.21 45.21 0 0 1-2.077.058c-3.88 0-4.937-.774-7.07-5.182-2.97-6.132-6.233-11.924-13.373-15.413a37.914 37.914 0 0 0-.144-1.527c2.01-.827 4.494-1.252 7.417-1.252 5.302 0 10.723 1.387 13.278 2.14 1.235 4.727 3.03 9.227 6.02 13.028-.027.028-.052.046-.082.075z"/>
  <path d="M18.897 8.423l2.65-.346-.33-2.523a.33.33 0 0 0-.126-.217.33.33 0 0 0-.24-.064l-3.49.457-.49.064-.507.066-1.256.164a.328.328 0 0 0-.282.367l-.496.066.79 6.036.494-.063a.33.33 0 0 0 .125.216c.07.053.154.078.24.064l.026-.003.507-.066.504-.066 4.706-.615a.328.328 0 0 0 .282-.368l-.33-2.52-2.65.346a.5.5 0 1 1-.128-.993z"/>
</svg>