<?xml version="1.0" encoding="iso-8859-1"?>
<!-- Generator: Adobe Illustrator 17.0.0, SVG Export Plug-In . SVG Version: 6.00 Build 0)  -->
<!DOCTYPE svg PUBLIC "-//W3C//DTD SVG 1.1//EN" "http://www.w3.org/Graphics/SVG/1.1/DTD/svg11.dtd">
<svg version="1.1" id="Capa_1" xmlns="http://www.w3.org/2000/svg" xmlns:xlink="http://www.w3.org/1999/xlink" x="0px" y="0px"
	 width="64px" height="64px" viewBox="0 0 64 64" style="enable-background:new 0 0 64 64;" xml:space="preserve">
<g>
	<path d="M60.562,49.438c-0.248-0.993-2.93-1.027-4.717-0.936c0.304,1.233,0.392,2.546-0.09,3.618
		C57.936,51.819,60.852,50.598,60.562,49.438z"/>
	<path d="M40.977,44.036c1.484-5.154,0.716-5.873,0.714-5.875c-0.005-0.002-0.029-0.008-0.072-0.008
		c-0.227,0-1.132,0.147-3.269,2.034c-3.48,3.074-9.519,6.345-11.899,7.157c1.844,3.596,4.055,5.524,6.365,6.586l0.926-0.259
		C33.94,53.616,38.62,52.22,40.977,44.036z"/>
	<path d="M51.083,52.703c0.014-0.043,1.365-4.406-1.334-9.315l-0.586-1.065c-0.877-0.555-1.658-1.29-2.355-2.154
		c0.045,1.171-0.068,2.288-0.447,3.242c-0.137,0.344-0.276,0.701-0.418,1.066c-1.456,3.729-3.222,8.23-6.403,10.673
		c3.402-0.188,8.326-1.196,11.361-1.88L51.083,52.703z"/>
	<path d="M10.625,54.25L10,31.403c3.719-3.693,11.003,3.78,14.519,11.479c2.07-1.031,14.295-7.288,17.585-12.873l0.266-0.452
		c-1.069-4.828-1.246-9.057-1.246-9.057s-7.375,0.75-13.875-4.25S12,7.625,12,7.625L10.875,9.75c18.318,9.375,13.25,24,13.25,24
		C20,27,5,19.125,3.5,19s-0.75,2.625-0.75,2.625c5.5,4.75,6,32.625,6,32.625H10.625z"/>
	<path d="M37.665,55.15c4.107-2.065,6.117-7.952,7.767-12.109c0.503-1.268,0.481-2.895,0.21-4.552
		c-0.637-3.899-2.676-7.972-2.676-7.972c-0.082,0.139-0.176,0.279-0.267,0.419C38.895,36.718,26.861,42.839,24.921,43.8
		c-0.172,0.085-0.274,0.135-0.274,0.135l1.064,2.589c0.085-0.019,0.192-0.051,0.305-0.087c1.994-0.637,8.123-3.864,11.672-6.999
		c1.54-1.36,2.965-2.285,3.932-2.285c1.387,0,1.831,1.905,0.318,7.16c-2.183,7.582-6.379,9.727-7.59,10.202
		c-0.213,0.084-0.345,0.122-0.345,0.122l3.387,0.658C37.484,55.252,37.572,55.196,37.665,55.15z"/>
	<path d="M54.25,52.5c0.118-0.097,0.219-0.204,0.31-0.318c0.726-0.904,0.625-2.296,0.272-3.613c-0.374-1.398-1.026-2.71-1.269-3.256
		c-0.5-1.125-0.688-1.625-0.688-1.625l-2.25-0.782c0.03,0.054,0.052,0.107,0.081,0.16c2.819,5.277,1.33,9.942,1.33,9.942L54.25,52.5
		z"/>
</g>
</svg>
