<?xml version="1.0" encoding="UTF-8" standalone="yes"?>
<svg xmlns="http://www.w3.org/2000/svg" viewBox="0 0 64 64">
  <path d="M31.137 55.867c.086 1.49.217 2.898.416 3.446 0 0 3.57 6.938 20.438-1.375 0 0 1.54-4.093 1.838-7.62-1.86 1.46-10.602 8.044-17.178 8.044-2.357 0-4.22-.863-5.513-2.495z"/>
  <path d="M30.047 35.065c-.125 0-.283-.22-.484-.752-.872-2.305-.005-31.063-1.176-31.063h-.01a3.34 3.34 0 0 1-.48.027c-1.883 0-7.083-.714-7.083-.714-1.604 15.312-10.73 14.77-7.98 26.104 2.75 11.333 1.084 30 1.084 30h1.833s1.585-15.5 2-19.75c.334-3.383.77-6.278 3.08-6.278.59 0 1.305.19 2.172.61 4.25 2.06 7.813 20 7.813 20 .07.185.153.342.23.514 1.16 2.607 3.2 3.597 5.607 3.597 6.965 0 16.913-8.11 16.913-8.11.102-.3.17-.593.222-.88.588-3.21-1.887-5.412-5.847-5.87-4.312-.5-6.125-5.19-6-7.436.125-2.248-1.25-8.877-1.938-16.877s.812-13.062-.312-13.312c-1.026-.228-1.74-.508-3.47-.508-.168 0-.344.003-.53.008a8.272 8.272 0 0 1-.222.003c-1.313 0-2.443-.333-3.17-.333-.393 0-.67.096-.795.39-.374.876 0 1.75-.624 5.69s-.25 18.687-.313 20.81c-.05 1.638-.098 4.128-.517 4.128z"/>
</svg>