<?xml version="1.0" encoding="iso-8859-1"?>
<!-- Generator: Adobe Illustrator 17.0.0, SVG Export Plug-In . SVG Version: 6.00 Build 0)  -->
<!DOCTYPE svg PUBLIC "-//W3C//DTD SVG 1.1//EN" "http://www.w3.org/Graphics/SVG/1.1/DTD/svg11.dtd">
<svg version="1.1" id="Capa_1" xmlns="http://www.w3.org/2000/svg" xmlns:xlink="http://www.w3.org/1999/xlink" x="0px" y="0px"
	 width="64px" height="64px" viewBox="0 0 64 64" style="enable-background:new 0 0 64 64;" xml:space="preserve">
<g>
	<path d="M62.235,39.206c-0.928-0.309-7.732,0.309-9.897-0.928c-2.165-1.237-0.619-2.938-8.815-1.856S22.182,16.009,17.078,9.823
		c-5.103-6.186-7.114-4.33-7.114-4.33S9.164,6.09,8.099,7.171c-0.006-0.005-0.01-0.012-0.016-0.018
		C7.687,6.813,6.559,6.298,5.761,6.298C5.257,6.298,4.976,6.5,4.83,6.67C4.002,7.633,5.483,9.545,5.796,9.814
		c0.017,0.014,0.039,0.019,0.056,0.033c-0.176,0.248-0.35,0.506-0.522,0.773c-0.649-0.138-1.225-0.17-1.367,0.093
		c-0.138,0.256,0.154,0.754,0.571,1.271c-0.181,0.344-0.354,0.698-0.515,1.064c-0.317-0.078-0.745-0.126-1.158-0.126
		c-0.993,0-1.604,0.268-1.817,0.797c-0.473,1.179,1.545,2.511,1.928,2.664c0.008,0.003,0.017,0.002,0.025,0.005
		c-0.042,0.241-0.079,0.485-0.108,0.732c-0.631,0.159-1.15,0.379-1.162,0.675c-0.013,0.291,0.468,0.611,1.069,0.894
		c0.001,0.378,0.025,0.764,0.062,1.154c-0.064,0.016-0.132,0.013-0.193,0.039c-0.38,0.16-2.375,1.527-1.881,2.698
		c0.215,0.509,0.8,0.766,1.741,0.766c0.381,0,0.782-0.046,1.105-0.117c0.136,0.373,0.286,0.75,0.46,1.13
		c4.949,10.825,3.711,34.177,3.711,34.177h3.402c0-19.176-1.083-31.703,6.959-27.372c8.042,4.33,13.145,22.115,16.238,25.362
		c3.093,3.248,12.99,2.01,12.99,2.01s6.959-2.784,11.289-4.949C63.008,51.423,63.163,39.515,62.235,39.206z M6.187,9.359
		C5.815,9.039,4.87,7.545,5.285,7.061c0.1-0.116,0.27-0.164,0.476-0.164c0.644,0,1.634,0.462,1.924,0.706
		C7.687,7.605,7.69,7.607,7.692,7.609c0.372,0.32,0.337,0.971-0.079,1.455C7.351,9.368,7,9.534,6.683,9.534
		c-0.179,0-0.345-0.056-0.48-0.165C6.198,9.364,6.192,9.363,6.187,9.359z M1.602,13.943c0.127-0.317,0.692-0.421,1.26-0.421
		c0.339,0,0.673,0.038,0.921,0.089c0.111,0.023,0.209,0.047,0.274,0.074c0.456,0.183,0.632,0.811,0.395,1.402
		c-0.193,0.481-0.601,0.79-0.992,0.79c-0.09,0-0.178-0.016-0.263-0.05c-0.022-0.009-0.054-0.029-0.08-0.042
		C2.604,15.529,1.375,14.506,1.602,13.943z M1.335,22.347c-0.248-0.587,1.109-1.721,1.561-1.912
		c0.007-0.003,0.015-0.002,0.022-0.004c0.082-0.032,0.167-0.051,0.253-0.051c0.387,0,0.793,0.3,0.993,0.773
		c0.248,0.587,0.082,1.218-0.37,1.409c-0.08,0.034-0.211,0.066-0.358,0.095c-0.258,0.051-0.584,0.089-0.913,0.089
		C1.983,22.746,1.462,22.647,1.335,22.347z M4.137,18.562c0-0.481,0.648-0.903,1.316-1.149c0.387-0.142,0.781-0.226,1.059-0.226
		c0.759,0,1.375,0.616,1.375,1.375s-0.616,1.375-1.375,1.375c-0.423,0-1.104-0.195-1.631-0.495
		C4.461,19.204,4.137,18.899,4.137,18.562z M7.895,24.738c-0.652,0.388-2.356,0.686-2.744,0.034
		c-0.388-0.653,0.685-2.008,1.337-2.396c0.652-0.388,1.496-0.174,1.885,0.478C8.761,23.506,8.547,24.35,7.895,24.738z M8.86,14.043
		c-0.397,0.647-1.244,0.85-1.891,0.453c-0.292-0.179-0.662-0.559-0.949-0.978c-0.349-0.51-0.574-1.081-0.355-1.436
		c0.271-0.441,1.141-0.429,1.875-0.253c0.344,0.082,0.661,0.197,0.868,0.324C9.054,12.549,9.257,13.396,8.86,14.043z M12.205,10.381
		c-0.537,0.537-1.408,0.537-1.945,0s-0.979-1.85-0.442-2.386c0.537-0.537,1.85-0.095,2.386,0.442
		C12.742,8.973,12.742,9.844,12.205,10.381z"/>
</g>
</svg>
