<svg xmlns="http://www.w3.org/2000/svg" width="64" height="64" viewBox="0 0 64 64"><path d="M17.376 38.256c-2.825-1.788-5.612-3.167-7.942-4.316-1.07-.528-2.08-1.026-2.922-1.483a8.083 8.083 0 0 1-2.008-1.51c.108.165.242.33.417.49 1.535 1.416 7.18 7.08 9.395 14.653 2.216 7.574 3.932 14.77 3.932 14.77s1.636.386 2.307-.328c.588-.624-6.95-20.368-3.178-22.276z"/><path d="M53.292 42.38s-.187-2.07-1.328-3.58c0 0-.217.012-.585.012-1.237 0-4.185-.132-6.437-1.28-.225-.115-.4-.167-.537-.167-1.23 0 .777 4.29-1.06 5.774-.154-.092-.31-.18-.456-.278a9.877 9.877 0 0 1-.468-.334c-1.866-1.408-3.23-3.377-4.415-5.42a74.33 74.33 0 0 1-.31-.54c-.1-.182-.205-.362-.305-.543.567-1.242 1.176-2.455 1.422-3.487.853-3.575 1.09-8.2-1.115-9.34s-12.67.246-9.126-3.11c2.63-2.493 6.977-5.78 7.198-8.586a.593.593 0 0 0 .07-.606 122.497 122.497 0 0 1-.256-.586c-.24-.55-.482-1.103-.738-1.654a25.923 25.923 0 0 0-.425-.87c-.63-1.234-1.367-2.403-2.378-3.34C30.29 2.817 28.03 2.11 25.718 1.69c-3.576-.652-7.262-.79-10.91-.62-.65.03-1.297.072-1.944.12-.444.035-.888.07-1.33.11a.57.57 0 0 0-.316.136c-1.35-.184-2.335-.285-3.028-.285-3.89 0 1.128 3.117-1.346 11.807-2.226 7.82-4.12 12.787-2.524 16.023.506 1.028 1.357 1.885 2.67 2.598 2.97 1.613 7.913 3.68 12.752 7.062 4.04 2.823 8.006 6.56 10.694 11.747C35.518 60.19 34.78 62.32 39.61 62.32c.79 0 1.723-.057 2.856-.146 8.084-.636 14.85-7.675 15.37-10.286.52-2.61 1.76-8.59 1.76-8.59s-.996-1.12-3.965-1.12c-.673.002-1.448.06-2.338.2zM36.344 28.453c-3.116 1.447-6.564 1.903-9.78 3.07a3.65 3.65 0 0 0-.11-.416c2.655-1.493 5.377-2.862 8.03-4.355.967.37 1.66.897 1.86 1.7zM32.9 26.312c-2.315 1.27-4.67 2.47-6.973 3.763a5.057 5.057 0 0 0-.304-.41 72.934 72.934 0 0 0 4.846-3.732c.838.106 1.668.222 2.43.38zM28.04 15.347a.495.495 0 0 0-.433-.035c-2.738.94-5.64 1.135-8.515 1.276.12-.166.24-.335.354-.506 3.683-.934 7.158-2.54 10.823-3.537-.364.905-1.208 1.857-2.23 2.802zM16.668 6.49c.584.116 1.226.246 1.913.388-.516.952-.955 1.93-1.468 2.883a18.956 18.956 0 0 0-1.13-.513c.24-.8.4-1.623.68-2.412a.54.54 0 0 0 .007-.346zm2.266 4.373a8.74 8.74 0 0 0-.61-.422c.592-1.077 1.07-2.192 1.677-3.265.62.13 1.28.272 1.962.42-1.017 1.083-1.967 2.227-3.028 3.268zm4.168-2.794c.06-.062.1-.13.128-.197.75.165 1.524.338 2.34.522.506.115.967.237 1.386.364-2.272 1.11-4.48 2.334-6.685 3.568a3.633 3.633 0 0 0-.483-.68c1.154-1.148 2.177-2.416 3.315-3.58zm.195 12.097a2.51 2.51 0 0 0-.17.884c-2.303.592-4.625-.033-6.918-.436a7.2 7.2 0 0 1 .577-.996c2.168.287 4.324.64 6.51.55zm.022 2.016c.103.322.244.666.414 1.04-2.125.64-4.363.628-6.56.845-.98-.78-1.332-1.55-1.28-2.334 2.5.416 4.92 1.027 7.425.45zm-5.753-3.622c.2-.255.406-.515.617-.78.026 0 .045.012.073.01 2.658-.128 5.368-.253 7.966-.878l-.014.01c-.967.794-1.668 1.45-2.158 2.035-2.182.2-4.33-.1-6.485-.396zm2.702-3.902c.018-.04.04-.078.057-.118.17-.366.242-.717.244-1.055 2.59-1.45 5.18-2.904 7.878-4.164 1.248.585 1.846 1.257 1.982 1.984-3.46.883-6.738 2.356-10.16 3.354zM17.135 2.155c.653-.007 1.306 0 1.958.017 2.05.055 4.093.232 6.087.596 2.24.408 4.61.984 6.237 2.688.46.483.857 1.012 1.216 1.566.155.24.304.484.445.733.13.23.258.465.38.703C30.88 7.355 22.553 3.91 15.282 2.204a60.287 60.287 0 0 1 1.854-.05zM14.223 6.01c.414.08.894.172 1.432.278-.025.038-.054.07-.07.118-.282.793-.442 1.62-.685 2.423a26.733 26.733 0 0 0-.983-.333c.126-.826.257-1.65.306-2.486zm1.108 9.406c-1.825 2.35-2.373 3.056-2.523 3.785 0 0-.273-5.605-.506-6.878.002 0 4.857.743 3.03 3.094zm-3.025-9.76s.284.05.805.146c-.02.055-.042.108-.045.175-.04.736-.155 1.462-.267 2.19-.412-.113-.66-.17-.66-.17l.167-2.34zm5.775 30.636l-2.968-1.785s-6.047-8.245-2.683-11.69c0 0 2.683 3.49 5.934 5.43 3.25 1.94 4.544 6.883-.284 8.045zm3.957-9.325c-1.043-.605-2.174-1.213-3.306-1.882 1.873-.134 3.75-.22 5.552-.81.006-.002.01-.006.014-.008.234.27.57.49.984.67-1.026.628-2.054 1.25-3.08 1.878a.613.613 0 0 0-.163.152zm4.72-1.58c.65.14 1.367.247 2.112.344a76.376 76.376 0 0 1-4.077 3.106 14.162 14.162 0 0 0-1.674-1.22c1.213-.74 2.43-1.478 3.638-2.23zm2.138 19.304c-.712-.153-3.583-3.49-4.65-4.755 1.876 1.062 3.66 2.273 5.474 3.44-.506.82-.825 1.316-.825 1.316zm1.426-2.305c-1.955-1.26-3.875-2.578-5.916-3.7h-.007c.112-.2.244-.45.394-.763 2.094 1.12 4.123 2.5 6.483 2.855-.34.583-.662 1.126-.952 1.608zm1.586-2.71c-2.442-.182-4.525-1.68-6.64-2.813.09-.215.188-.45.29-.702 2.53.496 5.04 1.175 7.628 1.186-.425.8-.857 1.586-1.278 2.328zm1.88-3.492c-2.66.102-5.22-.604-7.805-1.12.082-.218.168-.453.255-.692 2.917-.266 5.877-.054 8.746-.69-.36.815-.765 1.66-1.193 2.503zm1.743-3.82c-.017.004-.03 0-.047.004-2.906.826-5.93.585-8.91.817.03-.156.04-.304.054-.452 3.176-1.198 6.57-1.694 9.7-3.017-.132.76-.414 1.663-.798 2.65zm6.112 11.28c-.442 0-.957-.058-1.558-.19-4.463-.968-4.282-3.473-3.264-6.09.107.187.214.374.324.56.112.19.228.377.343.564.904 1.473 1.92 2.876 3.153 4.05.214.204.44.396.668.585.203.17.404.34.62.496-.098.006-.18.026-.286.026z"/></svg>