<?xml version="1.0" encoding="utf-8"?>
<!-- Generator: Adobe Illustrator 16.0.0, SVG Export Plug-In . SVG Version: 6.00 Build 0)  -->
<!DOCTYPE svg PUBLIC "-//W3C//DTD SVG 1.1//EN" "http://www.w3.org/Graphics/SVG/1.1/DTD/svg11.dtd">
<svg version="1.1" xmlns="http://www.w3.org/2000/svg" xmlns:xlink="http://www.w3.org/1999/xlink" x="0px" y="0px" width="50px"
	 height="50px" viewBox="0 0 50 50" enable-background="new 0 0 50 50" xml:space="preserve">
<g id="Layer_2" display="none">
	<rect x="2.5" y="2.5" display="inline" fill="none" stroke="#999999" stroke-miterlimit="10" width="45" height="45"/>
</g>
<g id="Layer_1">
	<path d="M34.28,5.455c-3.477,0-6.648,0.67-9.28,1.865c-2.631-1.194-5.803-1.865-9.28-1.865c-7.783,0-13.22,6.479-13.22,15.755
		c0,5.619,2.005,11.281,5.5,15.526c2.932,3.563,8.262,7.811,17,7.811s14.068-4.247,17-7.811c3.495-4.245,5.5-9.907,5.5-15.526
		C47.5,11.933,42.063,5.455,34.28,5.455z M6.7,14.266c0.215-0.469,0.769-0.676,1.247-0.46c0.469,0.217,0.674,0.769,0.459,1.238
		c-0.16,0.347-0.496,0.553-0.853,0.553c-0.131,0-0.262-0.028-0.384-0.084C6.69,15.297,6.485,14.744,6.7,14.266z M6.259,22.824
		c-0.497,0-0.918-0.394-0.937-0.9c-0.02-0.516,0.394-0.956,0.909-0.976c0.516-0.008,0.947,0.394,0.965,0.91
		c0.019,0.516-0.384,0.947-0.9,0.965C6.278,22.824,6.269,22.824,6.259,22.824z M8.153,29.978c-0.113,0.038-0.235,0.064-0.347,0.064
		c-0.375,0-0.723-0.226-0.873-0.588c-0.197-0.478,0.038-1.022,0.516-1.222c0.488-0.194,1.031,0.041,1.218,0.525v-0.007
		C8.865,29.238,8.631,29.78,8.153,29.978z M36.24,9.353c0.16-0.497,0.695-0.769,1.183-0.609c0.487,0.16,0.759,0.693,0.599,1.181
		c-0.121,0.394-0.496,0.647-0.89,0.647c-0.094,0-0.188-0.01-0.291-0.047C36.353,10.365,36.082,9.84,36.24,9.353z M29.604,8.752
		c0.505-0.103,1.003,0.217,1.115,0.723c0.113,0.496-0.207,1.002-0.713,1.115c-0.065,0.008-0.131,0.019-0.206,0.019
		c-0.432,0-0.815-0.3-0.91-0.732C28.778,9.371,29.097,8.865,29.604,8.752z M28.788,18.708c0.486,0.178,0.74,0.713,0.572,1.201
		c-0.141,0.384-0.498,0.619-0.881,0.619c-0.104,0-0.216-0.02-0.32-0.057c-0.488-0.168-0.74-0.703-0.562-1.2
		C27.765,18.793,28.309,18.54,28.788,18.708z M25.976,12.212c0.355-0.375,0.947-0.384,1.32-0.029
		c0.375,0.367,0.385,0.957,0.029,1.333c-0.187,0.187-0.431,0.281-0.675,0.281c-0.234,0-0.469-0.084-0.647-0.262
		C25.627,13.177,25.619,12.587,25.976,12.212z M25.74,24.54c0.272-0.44,0.853-0.582,1.293-0.299c0.44,0.271,0.572,0.853,0.301,1.284
		c-0.178,0.291-0.488,0.45-0.797,0.45c-0.168,0-0.346-0.047-0.496-0.141C25.6,25.553,25.469,24.981,25.74,24.54z M24.933,17.268
		c0.014-0.091,0.036-0.186,0.067-0.28c0.031,0.094,0.053,0.188,0.067,0.28c0.042,0.27,0.021,0.563-0.067,0.874
		C24.912,17.83,24.891,17.538,24.933,17.268z M24.071,25.758c-0.159,0.104-0.328,0.151-0.506,0.151c-0.31,0-0.609-0.16-0.787-0.44
		c-0.281-0.441-0.15-1.013,0.291-1.294c0.44-0.282,1.013-0.151,1.293,0.29C24.635,24.905,24.503,25.487,24.071,25.758z M22.6,12.277
		c0.375-0.365,0.965-0.356,1.332,0.01c0.355,0.365,0.355,0.965-0.01,1.331c-0.187,0.178-0.422,0.262-0.656,0.262
		c-0.244,0-0.488-0.084-0.666-0.272C22.234,13.243,22.234,12.643,22.6,12.277z M22.44,19.375c0.188,0.488-0.056,1.031-0.544,1.209
		c-0.113,0.047-0.226,0.065-0.328,0.065c-0.384,0-0.731-0.234-0.881-0.609c-0.178-0.488,0.065-1.023,0.544-1.209
		C21.718,18.653,22.263,18.887,22.44,19.375z M19.16,9.446c0.103-0.506,0.609-0.826,1.115-0.722
		c0.506,0.113,0.825,0.609,0.722,1.115c-0.094,0.441-0.488,0.74-0.918,0.74c-0.066,0-0.131,0-0.197-0.019
		C19.375,10.459,19.057,9.953,19.16,9.446z M12.446,8.791c0.488-0.17,1.022,0.093,1.191,0.58c0.168,0.488-0.094,1.023-0.59,1.191
		c-0.094,0.037-0.197,0.057-0.3,0.057c-0.385,0-0.75-0.254-0.881-0.637C11.696,9.494,11.959,8.958,12.446,8.791z M12.399,36.008
		c-0.177,0.168-0.413,0.252-0.646,0.252c-0.244,0-0.497-0.094-0.674-0.293c-0.367-0.374-0.348-0.965,0.027-1.32
		c0.375-0.354,0.976-0.348,1.332,0.027C12.794,35.058,12.774,35.65,12.399,36.008z M18.69,39.821
		c-0.14,0.364-0.497,0.582-0.872,0.582c-0.113,0-0.235-0.019-0.347-0.066c-0.479-0.197-0.713-0.741-0.516-1.219
		c0.188-0.478,0.74-0.713,1.219-0.517C18.653,38.789,18.887,39.334,18.69,39.821z M25.065,41.733c-0.516,0-0.937-0.422-0.937-0.936
		c-0.01-0.519,0.412-0.938,0.927-0.938c0.526,0,0.938,0.412,0.947,0.938C26.002,41.312,25.582,41.733,25.065,41.733z M32.65,40.289
		c-0.123,0.048-0.244,0.067-0.356,0.067c-0.375,0-0.722-0.217-0.872-0.581c-0.197-0.478,0.037-1.022,0.515-1.219
		c0.479-0.197,1.022,0.028,1.219,0.506S33.128,40.095,32.65,40.289z M39.015,35.876c-0.187,0.194-0.431,0.3-0.685,0.3
		c-0.234,0-0.459-0.084-0.637-0.255c-0.384-0.354-0.402-0.947-0.047-1.331c0.356-0.375,0.947-0.394,1.322-0.036
		C39.354,34.899,39.372,35.489,39.015,35.876z M36.209,31.97c-1.906,2.318-5.398,5.077-11.209,5.077s-9.304-2.759-11.209-5.077
		C11.417,29.085,10,25.063,10,21.209c0-1.379,0.275-8.256,5.72-8.256c0.999,0,1.919,0.074,2.761,0.205
		c-0.468,0.92-0.792,1.903-0.956,2.938c-0.193,1.225-0.307,3.961,1.619,6.996c-1.048,0.484-2.243,0.952-3.593,1.389
		c-1.969,0.639-3.049,2.752-2.41,4.722c0.64,1.972,2.752,3.052,4.724,2.411c2.906-0.941,5.25-2.01,7.135-3.133
		c1.886,1.123,4.229,2.191,7.135,3.133c1.971,0.637,4.085-0.439,4.724-2.411c0.639-1.97-0.441-4.083-2.41-4.722
		c-1.35-0.437-2.544-0.905-3.593-1.389c1.926-3.035,1.812-5.771,1.619-6.996c-0.164-1.035-0.488-2.018-0.956-2.938
		c0.841-0.13,1.762-0.205,2.761-0.205c5.444,0,5.72,6.876,5.72,8.256C40,25.063,38.583,29.085,36.209,31.97z M17.641,28.048
		c0,0.242-0.094,0.487-0.272,0.665c-0.168,0.177-0.412,0.271-0.656,0.271c-0.252,0-0.496-0.094-0.666-0.271
		c-0.177-0.178-0.281-0.413-0.281-0.665c0-0.245,0.104-0.489,0.281-0.667c0.348-0.346,0.976-0.346,1.322,0
		C17.546,27.559,17.641,27.803,17.641,28.048z M32.359,28.048c0-0.245,0.094-0.489,0.272-0.667c0.347-0.346,0.974-0.346,1.322,0
		c0.177,0.178,0.281,0.422,0.281,0.667c0,0.252-0.104,0.487-0.281,0.665c-0.17,0.177-0.414,0.271-0.658,0.271
		c-0.252,0-0.496-0.094-0.665-0.271C32.453,28.535,32.359,28.3,32.359,28.048z M41.996,13.694c0.469-0.217,1.022-0.01,1.248,0.449
		c0.215,0.478,0.019,1.031-0.451,1.256c-0.131,0.056-0.263,0.084-0.402,0.084c-0.348,0-0.685-0.197-0.844-0.543
		C41.321,14.471,41.528,13.917,41.996,13.694z M43.113,29.329c-0.141,0.377-0.498,0.593-0.873,0.593
		c-0.112,0-0.234-0.021-0.346-0.065c-0.478-0.188-0.712-0.733-0.525-1.211c0.188-0.487,0.74-0.723,1.219-0.523
		C43.066,28.31,43.3,28.852,43.113,29.329z M43.74,22.703c-0.009,0-0.019,0-0.028,0c-0.515-0.01-0.927-0.441-0.909-0.966
		c0.019-0.516,0.449-0.919,0.966-0.91c0.515,0.019,0.928,0.449,0.908,0.965C44.669,22.299,44.247,22.703,43.74,22.703z"/>
</g>
</svg>
