<?xml version="1.0" encoding="UTF-8" standalone="yes"?>
<svg xmlns="http://www.w3.org/2000/svg" viewBox="0 0 50 50">
  <path d="M28.062 26.415a9.948 9.948 0 0 1-2.04.575V23c-.342.012-.68.037-1.022.037s-.68-.025-1.02-.036v3.99a9.887 9.887 0 0 1-2.042-.573V22.89a35.98 35.98 0 0 1-2.042-.22v4.412c0 2.23 1.51 4.102 3.573 4.744v11.188a1.53 1.53 0 0 0 3.062 0V31.826c2.062-.643 3.572-2.515 3.572-4.744V22.67c-.68.096-1.36.163-2.042.22v3.525zM46.657 8.085L45.44 7.87l.214-1.216a1.02 1.02 0 0 0-.828-1.183 1.014 1.014 0 0 0-1.183.828l-.216 1.227a5.09 5.09 0 0 0-5.785-.33c-7.8 4.78-17.488 4.78-25.287 0a5.093 5.093 0 0 0-5.784.33L6.357 6.3a1.015 1.015 0 0 0-1.183-.828 1.02 1.02 0 0 0-.827 1.182L4.56 7.87l-1.217.215a1.02 1.02 0 1 0 .356 2.008l1.172-.206a5.1 5.1 0 0 0 2.153 6.01c5.544 3.397 11.76 5.096 17.976 5.096s12.433-1.698 17.977-5.096a5.1 5.1 0 0 0 2.153-6.01l1.173.206a1.02 1.02 0 1 0 .354-2.008zm-6.347 1.42c-.293.18-.59.813-.854 1.37-.426.906-.91 1.93-1.895 2.363-1 .437-2.09.092-3.053-.213-.55-.175-1.234-.394-1.554-.302-.326.09-.78.615-1.184 1.08-.66.758-1.405 1.617-2.476 1.765-.11.016-.218.022-.325.022-.945 0-1.792-.556-2.547-1.053-.51-.335-1.088-.716-1.423-.716-.335 0-.913.382-1.424.717-.84.553-1.796 1.188-2.87 1.03-1.072-.147-1.818-1.007-2.476-1.766-.402-.463-.858-.987-1.184-1.078-.314-.092-1.002.127-1.553.302-.963.305-2.055.65-3.054.213-.987-.433-1.47-1.457-1.896-2.364-.263-.557-.56-1.19-.854-1.368a1.02 1.02 0 0 1 1.067-1.74c.814.5 1.25 1.425 1.634 2.24.248.522.584 1.238.868 1.363.294.128 1.03-.103 1.62-.29.85-.27 1.817-.573 2.723-.32.915.258 1.583 1.028 2.173 1.706.402.464.9 1.04 1.214 1.083.31.05.956-.377 1.47-.715.75-.492 1.6-1.05 2.544-1.05.946 0 1.795.558 2.545 1.05.514.337 1.15.747 1.47.715.313-.044.813-.62 1.214-1.083.59-.678 1.257-1.448 2.17-1.706.906-.253 1.872.05 2.724.32.59.187 1.322.417 1.62.29.283-.125.62-.84.865-1.363.383-.815.82-1.74 1.633-2.24a1.02 1.02 0 0 1 1.067 1.74z"/>
</svg>