<?xml version="1.0" encoding="utf-8"?>
<!-- Generator: Adobe Illustrator 16.0.0, SVG Export Plug-In . SVG Version: 6.00 Build 0)  -->
<!DOCTYPE svg PUBLIC "-//W3C//DTD SVG 1.1//EN" "http://www.w3.org/Graphics/SVG/1.1/DTD/svg11.dtd">
<svg version="1.1" xmlns="http://www.w3.org/2000/svg" xmlns:xlink="http://www.w3.org/1999/xlink" x="0px" y="0px" width="50px"
	 height="50px" viewBox="0 0 50 50" enable-background="new 0 0 50 50" xml:space="preserve">
<g id="Layer_2" display="none">
	<rect x="2.5" y="2.5" display="inline" fill="none" stroke="#999999" stroke-miterlimit="10" width="45" height="45"/>
</g>
<g id="Layer_1">
	<path d="M36.97,16.067h-1.972c0,0,0-1.88,0-1.93c0-3.034-2.468-5.504-5.502-5.504c-0.582,0-1.162,0.096-1.715,0.28
		C26.754,5.181,23.349,2.5,19.395,2.5c-3.954,0-7.358,2.68-8.385,6.413c-0.553-0.184-1.131-0.279-1.715-0.279
		c-3.034,0-5.503,2.47-5.503,5.504c0,0.051,0,25.081,0,25.081c0,4.567,3.715,8.281,8.281,8.281h14.646
		c4.564,0,8.279-3.714,8.279-8.281v-0.28h1.972c5.094,0,9.237-3.707,9.237-8.263V24.33C46.207,19.774,42.063,16.067,36.97,16.067z
		 M9.294,10.549c0.666,0,1.324,0.193,1.904,0.559c0.277,0.176,0.625,0.196,0.921,0.056s0.5-0.423,0.54-0.749
		c0.417-3.42,3.313-5.999,6.735-5.999c3.423,0,6.319,2.579,6.736,5.999c0.039,0.326,0.242,0.607,0.539,0.749
		c0.295,0.14,0.643,0.119,0.92-0.055c0.584-0.366,1.242-0.56,1.906-0.56c1.979,0,3.588,1.61,3.588,3.589s-1.609,3.589-3.588,3.589
		c-0.627,0-1.234-0.172-1.809-0.51c-0.258-0.151-0.572-0.175-0.852-0.06c-0.277,0.114-0.486,0.353-0.561,0.644
		c-0.413,1.582-1.836,2.688-3.459,2.688c-1.147,0-2.237-0.564-2.912-1.51c-0.18-0.25-0.47-0.4-0.779-0.4s-0.599,0.149-0.778,0.4
		c-0.676,0.945-1.766,1.51-2.914,1.51c-1.548,0-2.912-1.001-3.395-2.49c-0.083-0.258-0.272-0.468-0.519-0.578
		c-0.249-0.111-0.53-0.112-0.777-0.002c-0.466,0.204-0.953,0.309-1.447,0.309c-1.979,0-3.588-1.61-3.588-3.589
		S7.316,10.549,9.294,10.549z M10.608,39.923c-0.793,0-1.437-0.643-1.437-1.436V20.912c0-0.612,0.385-1.131,0.924-1.338
		c0.167-0.025,0.334-0.05,0.499-0.091c0.362,0.684,0.86,1.271,1.45,1.738v17.266C12.044,39.28,11.401,39.923,10.608,39.923z
		 M19.395,39.923c-0.793,0-1.436-0.643-1.436-1.436v-16.73c0.416-0.218,0.815-0.47,1.166-0.788c0.502,0.455,1.081,0.813,1.707,1.059
		v16.46C20.832,39.28,20.188,39.923,19.395,39.923z M29.619,38.487c0,0.793-0.644,1.436-1.437,1.436
		c-0.792,0-1.437-0.643-1.437-1.436V20.724c0.32-0.33,0.596-0.703,0.826-1.108c0.186-0.087,0.392-0.139,0.61-0.139
		c0.793,0,1.437,0.643,1.437,1.436V38.487z M42.378,30.676c0,2.443-2.426,4.433-5.408,4.433h-1.972V19.897h1.972
		c2.982,0,5.408,1.989,5.408,4.433V30.676z"/>
</g>
</svg>
