<?xml version="1.0" encoding="UTF-8" standalone="yes"?>
<svg xmlns="http://www.w3.org/2000/svg" viewBox="0 0 64 64">
  <path d="M16.57 31.377L6.934 25.63c3.645 6.016 7.847 15.864 7.847 21.1v14.974h2.497c-.858-17.474-.837-26.244-.707-30.327z"/>
  <path d="M56.707 45.562c-1.012 0-1.995.18-1.995.18.078-1.95-.624-5.38-.624-5.38s-.624-.547-5.147-1.64-9.202-15.52-11.308-19.81c-2.106-4.288-3.588-10.918-3.588-10.918-.988-.48-1.74-.688-2.305-.688-1.985 0-1.612 2.595-.755 5.167a17.39 17.39 0 0 0-1.128-.208c-3.68-.57-8.97-.524-12.12-.427-.178.006-.35.01-.513.017-.185.006-.358.013-.523.02.524-2.3 1.044-3.882 1.044-3.882 1.072.858 2.525 1.18 4.1 1.18 4.728 0 10.563-2.895 10.563-2.895.546-1.482-.558-1.482-.558-1.482-1.194.167-2.166.24-3.05.24-2.01 0-3.564-.376-6.22-.864-2.858-.525-6.415-2.665-8.09-2.665-.565 0-.917.243-.956.87-.157 2.5-4.992 10.844-7.254 15.29s-.546 6.082-.546 6.082l10.88 6.49 2.3 1.37c15.52 12.932 7.955 28.015 15.442 29.73 1.13.26 2.417.373 3.788.373 7.712 0 18.096-3.583 18.36-4.974.313-1.64 1.795-7.8 2.34-9.828.297-1.098-.94-1.35-2.137-1.35zm-40.65-30.328c.16-.02.332-.035.52-.048.16-.01.328-.02.505-.026 3.54-.13 10.63.55 14.25.933l.588.063.587.064c.367.784.63 1.29.63 1.29.767 2.106.55 3.97-.212 5.587l-.436-.244-.44-.243c-3.845-2.126-10.576-5.61-15.088-6.648a11.34 11.34 0 0 0-.984-.192c.025-.18.05-.36.08-.536zm.44 10.23c-.65-1.585-.875-3.532-.854-5.543l.117.032.388.106.49.137c2.518.708 9.82 2.86 13.553 5.006a12.78 12.78 0 0 1 .864.542c-3.172 3.307-8.162 5.025-8.162 5.025l-6.395-5.302zm23.397 11.7c-.624.936-7.435 6.24-7.894 6.03-.458-.207-2.245-3.17-2.245-3.17 8.37-4.524 10.762-3.796 10.14-2.86z"/>
</svg>