<?xml version="1.0" encoding="UTF-8" standalone="yes"?>
<svg xmlns="http://www.w3.org/2000/svg" viewBox="0 0 31.875 32">
  <g fill="#231f20">
    <path d="M3.996 10.703c-.023-.022-.048-.04-.073-.06-.018-.023-.036-.048-.06-.07l-.773-.776a.723.723 0 1 0-1.022 1.023l.27.27-.832.833-.27-.27A.724.724 0 0 0 .21 12.674l.774.774a.723.723 0 0 0 .137.104.9.9 0 0 0 1.28.012l1.593-1.593c.35-.35.35-.92 0-1.27zM15.1 29.555a.878.878 0 0 0 .482-.78.88.88 0 0 0-.59-.83.88.88 0 0 0 .59-.827c0-.385-.25-.71-.596-.83a.878.878 0 0 0-.285-1.71h-.563a.878.878 0 0 0-.285 1.71.878.878 0 0 0-.596.83.88.88 0 0 0 .59.828.88.88 0 0 0-.59.828c0 .29.144.547.362.708a2.56 2.56 0 0 0-1.94 2.483h5.124a2.56 2.56 0 0 0-1.7-2.41zM21.652 29.518a.88.88 0 0 0 .36-.71.88.88 0 0 0-.588-.826.877.877 0 0 0 .59-.827.88.88 0 0 0-.597-.83.877.877 0 0 0 .596-.83.88.88 0 0 0-.88-.88h-.564a.882.882 0 0 0-.882.88c0 .387.25.71.596.83a.88.88 0 0 0-.596.83c0 .383.247.707.588.827a.88.88 0 0 0-.588.827.88.88 0 0 0 .48.78 2.56 2.56 0 0 0-1.7 2.41h5.125a2.56 2.56 0 0 0-1.94-2.482zM31.748 20.476l-.62-.904a.705.705 0 0 0-.114-.128l-.007-.014a.897.897 0 0 0-1.22-.25.848.848 0 0 0-.103-.206.885.885 0 0 0-.813-.38.89.89 0 0 0-.06-.897.892.892 0 0 0-.97-.355.89.89 0 0 0-.034-.947.888.888 0 0 0-.828-.38.887.887 0 0 0-.908-1.21.892.892 0 0 0-1.303-1.128l-.472.322a.893.893 0 0 0-.232 1.24c.19.275.505.408.814.382a.89.89 0 0 0 .06.896c.192.28.514.412.83.38a.89.89 0 0 0 1.064 1.184.89.89 0 0 0 .035.948c.19.275.504.407.814.38a.887.887 0 0 0 .06.897c.045.064.1.12.155.168a.9.9 0 0 0-.227 1.244c.018.025.04.046.06.07.015.028.027.056.046.083l.62.903a.72.72 0 0 0 1.003.188.724.724 0 0 0 .188-1.006l-.216-.315.97-.665.217.316a.723.723 0 0 0 1.19-.818zM10.71 13.815a.893.893 0 0 0-1.434 1.02.89.89 0 0 0-1.173.986c-.058-.007-.116-.017-.176-.017-.07 0-.136.01-.203.02a.886.886 0 0 0-1.274-.864.89.89 0 0 0-1.176-1.122.893.893 0 0 0-1.447-.992l-.403.404a.893.893 0 0 0 .968 1.46.892.892 0 0 0 .184.99.894.894 0 0 0 1.02.17.89.89 0 0 0 .207.925.89.89 0 0 0 .88.223c0 .012-.004.023-.004.036a1.25 1.25 0 0 0 2.5 0c0-.04-.01-.076-.012-.114a.888.888 0 0 0 1.02-1.25.89.89 0 0 0 .926-1.47l-.405-.405zm-2.782 3.703a.464.464 0 1 1 0-.927.464.464 0 0 1 0 .928zM14.06 6.773v-.69a.607.607 0 0 0-.608-.608h-.692a.607.607 0 0 0-.607.607v.69c0 .336.272.61.607.61h.69a.608.608 0 0 0 .61-.61zM21.475 6.084v.69c0 .336.272.61.607.61h.69a.608.608 0 0 0 .608-.61v-.69a.607.607 0 0 0-.607-.607h-.69a.607.607 0 0 0-.608.607zM17.65 16.315a1.57 1.57 0 0 0-.108 3.14 1.57 1.57 0 1 0 .107-3.14zm-.074 2.165a.596.596 0 1 1 .042-1.192.596.596 0 0 1-.042 1.192z"/>
    <path d="M22.353 12.292H20.23c.07-.193.11-.4.11-.617 0-.23-.045-.45-.122-.65h1.516a1.24 1.24 0 0 0 1.24-1.24V8.622h.16a1.49 1.49 0 0 0 1.488-1.488v-1.41a1.49 1.49 0 0 0-1.488-1.488h-.254a1.237 1.237 0 0 0-1.147-.774h-2.18l.697-1.96c.02.003.042.007.063.007a.754.754 0 1 0-.414-.126l-.74 2.08h-1.393V3.46h-1.393l-.738-2.078A.753.753 0 0 0 15.22 0a.754.754 0 0 0 0 1.508c.022 0 .043-.004.064-.007l.696 1.96H13.8c-.52 0-.962.32-1.147.774H12.4a1.49 1.49 0 0 0-1.486 1.487v1.41c0 .82.667 1.488 1.487 1.488h.16V9.78c0 .685.556 1.24 1.24 1.24h1.516a1.818 1.818 0 0 0-.012 1.27H12.84a1.24 1.24 0 0 0-1.24 1.24v9.203c0 .685.555 1.24 1.24 1.24h9.513a1.24 1.24 0 0 0 1.24-1.24V13.53a1.24 1.24 0 0 0-1.24-1.238zm1.772-6.567v1.41a.993.993 0 0 1-.992.992h-1.41a.993.993 0 0 1-.992-.992v-1.41c0-.547.446-.992.993-.992h1.41c.547 0 .992.445.992.992zM11.41 7.132v-1.41c0-.547.444-.99.99-.99h1.41c.547 0 .992.443.992.99v1.41c0 .546-.444.99-.99.99H12.4a.992.992 0 0 1-.993-.99zm5.01 1.193h1.347v.002h1.347c.517 0 .936.325.936.727 0 .4-.418.727-.936.727H16.42c-.517 0-.936-.326-.936-.727 0-.402.42-.728.936-.728zm4.533 10.01a.15.15 0 0 1-.154.144l-.42-.015a2.856 2.856 0 0 1-.495 1.1l.285.307a.15.15 0 0 1-.007.21l-.517.483a.145.145 0 0 1-.107.04.146.146 0 0 1-.105-.047l-.277-.297c-.347.232-.742.386-1.155.45l-.014.412a.15.15 0 0 1-.155.144l-.707-.023a.152.152 0 0 1-.145-.154l.014-.402c-.41-.083-.8-.256-1.14-.508l-.278.26a.15.15 0 0 1-.212-.007l-.483-.518a.153.153 0 0 1 .008-.21l.272-.254a2.87 2.87 0 0 1-.448-1.178l-.356-.012a.15.15 0 0 1-.143-.154l.023-.707a.15.15 0 0 1 .154-.145l.357.013c.09-.42.272-.813.534-1.153l-.247-.265a.15.15 0 0 1-.04-.106c0-.04.018-.077.047-.104l.517-.484a.15.15 0 0 1 .21.007l.255.273c.354-.225.752-.37 1.165-.424l.013-.363a.15.15 0 0 1 .153-.145l.708.024a.15.15 0 0 1 .143.153l-.012.375c.404.09.785.268 1.114.52l.29-.27a.145.145 0 0 1 .107-.04c.04 0 .077.017.104.046l.484.518a.15.15 0 0 1-.007.21l-.297.277c.22.346.366.736.424 1.14l.418.014a.15.15 0 0 1 .144.154l-.023.707z"/>
  </g>
</svg>