<?xml version="1.0" encoding="UTF-8" standalone="yes"?>
<svg xmlns="http://www.w3.org/2000/svg" viewBox="0 0 22.335 32">
  <g fill="#231f20">
    <path d="M8.43 5.405h.897v.84H8.43z"/>
    <path d="M20.628 19.34c.023-1.147-.064-4.706-1.877-6.73-.788-.878-1.787-1.366-2.972-1.453a1.073 1.073 0 0 0-.14-.01h-2.654V9.802h1.235c.618 0 1.12-.5 1.12-1.12v-.424c.782-.154 1.375-.858 1.375-1.705s-.593-1.55-1.375-1.705V4.2c0-.618-.502-1.12-1.12-1.12h-2.774V1.574a.827.827 0 1 0-.71 0V3.08h-2.77c-.62 0-1.122.502-1.122 1.12v.65C6.062 5 5.47 5.706 5.47 6.552s.592 1.55 1.374 1.705v.424c0 .62.5 1.12 1.12 1.12H9.2v1.345H6.73l-.035.002v-.003c-1.246.057-2.294.55-3.113 1.464-1.813 2.024-1.9 5.583-1.876 6.73C.715 19.65 0 20.498 0 21.494c0 .02.003.037.004.056H1.35c0-.02-.004-.038-.004-.057 0-.515.53-.934 1.186-.934.653 0 1.186.417 1.186.933 0 .02-.004.037-.005.056H5.06l.002-.057c0-.907-.593-1.69-1.446-2.055-.047-1.195.113-4.136 1.39-5.558.185-.205.387-.37.607-.5v7.542c0 .618.5 1.12 1.12 1.12h.353v1.177H9.5V22.04H12.9v1.177h2.415V22.04h.328c.62 0 1.12-.5 1.12-1.12v-7.58c.192.128.364.305.573.538 1.277 1.422 1.438 4.363 1.39 5.558-.854.366-1.446 1.148-1.446 2.055 0 .02.003.037.004.056h1.347c-.002-.02-.005-.038-.005-.057 0-.515.532-.934 1.185-.934.654 0 1.187.417 1.187.933 0 .02-.004.037-.005.056h1.345c0-.02.004-.038.004-.057-.005-.997-.72-1.843-1.712-2.152zM12.4 7.927v.7H9.784v-.7H12.4zm-.123-3.08h2.09v1.94h-2.09v-1.94zm-4.462 1.94v-1.94h2.09v1.94h-2.09zm6.414 5.927l1.08 1.08a.78.78 0 0 1-1.205-.658c0-.156.046-.3.124-.422zm0 2.27l1.08 1.08a.78.78 0 0 1-1.205-.66c0-.153.046-.298.124-.42zm0 2.378l1.08 1.083a.784.784 0 0 1-1.082-1.082zm-5.138-.35l-.008.235c0 .047-.04.083-.088.082l-.402-.014a.085.085 0 0 1-.082-.087l.008-.228a1.624 1.624 0 0 1-.648-.29l-.158.148a.084.084 0 0 1-.12-.004l-.275-.294a.088.088 0 0 1 .003-.12l.155-.144a1.626 1.626 0 0 1-.254-.67l-.203-.006a.085.085 0 0 1-.08-.087l.012-.4c0-.047.042-.084.088-.083l.204.007a1.64 1.64 0 0 1 .302-.656l-.14-.15a.085.085 0 0 1-.022-.06.08.08 0 0 1 .027-.06l.295-.275a.085.085 0 0 1 .12.004l.145.156c.024-.015.048-.028.073-.04.183-.105.382-.174.59-.202l.006-.205c0-.047.04-.083.086-.082l.402.014c.047 0 .084.04.082.087l-.007.213c.23.05.446.153.634.296L10 13.94a.086.086 0 0 1 .12.005l.274.293a.085.085 0 0 1-.004.12l-.168.158c.126.196.208.418.24.648l.24.008c.046 0 .083.04.08.087l-.012.4a.086.086 0 0 1-.088.083l-.238-.007c-.048.226-.144.44-.28.625l.16.174a.083.083 0 0 1-.003.12l-.293.274a.083.083 0 0 1-.06.022.09.09 0 0 1-.06-.027l-.157-.168c-.2.132-.424.22-.658.256zm4.606 1.825a.086.086 0 0 1-.088.082l-.238-.008a1.62 1.62 0 0 1-.282.625l.162.173a.085.085 0 0 1-.004.12l-.294.275a.09.09 0 0 1-.06.023.093.093 0 0 1-.06-.027l-.158-.17c-.198.132-.422.22-.657.256l-.01.234a.085.085 0 0 1-.087.082l-.4-.013a.087.087 0 0 1-.084-.09l.007-.227a1.616 1.616 0 0 1-.48-.18 1.398 1.398 0 0 1-.17-.11l-.157.15a.083.083 0 0 1-.12-.006l-.274-.294a.087.087 0 0 1 .004-.12l.155-.144a1.627 1.627 0 0 1-.255-.67l-.2-.008a.086.086 0 0 1-.082-.088l.014-.402c0-.047.04-.083.088-.082l.203.007c.05-.238.154-.462.303-.656l-.14-.148a.083.083 0 0 1-.022-.06c0-.023.01-.045.026-.06l.294-.275a.086.086 0 0 1 .12.004l.146.156c.023-.015.048-.027.072-.04.182-.104.382-.174.59-.202l.006-.206a.086.086 0 0 1 .088-.082l.402.014c.046 0 .083.04.08.087l-.006.213c.23.05.446.153.634.295l.166-.155a.085.085 0 0 1 .12.005l.274.294a.085.085 0 0 1-.004.12l-.168.157c.126.197.208.418.24.648l.24.008c.046 0 .082.04.08.088l-.016.405zm1.19 2.002a.784.784 0 0 1-.66-1.205l1.083 1.08a.785.785 0 0 1-.422.125zm.66-.36l-1.082-1.083a.78.78 0 0 1 1.206.66c0 .155-.047.3-.125.422zm0-2.272l-1.082-1.08a.78.78 0 0 1 1.206.658.78.78 0 0 1-.125.422zm0-2.378l-1.082-1.082a.78.78 0 0 1 1.206.66.78.78 0 0 1-.125.422zm0-2.27l-1.082-1.08a.78.78 0 0 1 1.206.658.78.78 0 0 1-.125.422zM8.89 14.513zm-.04 1.23z"/>
    <path d="M11.82 17.688a.89.89 0 0 0-.85 1.246.894.894 0 1 0 .85-1.246zm-.043 1.23a.338.338 0 1 1 .024-.677.338.338 0 0 1 .328.35.34.34 0 0 1-.35.328zM8.274 23.506c-.238 0-.458.07-.643.19l1.65 1.648a1.195 1.195 0 0 0-1.005-1.838zM7.08 24.7c0 .662.534 1.197 1.194 1.197.237 0 .457-.07.642-.19L7.27 24.06c-.12.184-.19.404-.19.64zM7.084 26.328H9.5v1.512H7.083zM9.5 29.48v-1.11H7.083v1.11c-.94.45-1.59 1.408-1.59 2.52h5.595c0-1.112-.652-2.07-1.59-2.52zM14.086 23.506c-.238 0-.457.07-.643.19l1.648 1.648a1.193 1.193 0 0 0-1.005-1.838zM12.89 24.7a1.195 1.195 0 0 0 1.84 1.007L13.08 24.06c-.12.184-.192.404-.192.64zM12.896 26.328h2.415v1.512h-2.414zM15.31 29.48v-1.11h-2.414v1.11c-.94.45-1.59 1.408-1.59 2.52h5.596a2.8 2.8 0 0 0-1.59-2.52zM12.856 5.405h.896v.84h-.896z"/>
  </g>
</svg>