<svg xmlns="http://www.w3.org/2000/svg" width="24.283" height="32" viewBox="0 0 24.283 32"><circle cx="11.772" cy="3.573" r=".49" fill="#231f20"/><circle cx="16.511" cy="3.573" r=".49" fill="#231f20"/><g fill="#231f20"><path d="M13.77 18.928zm.715-.555a.315.315 0 1 1 0 0z"/><path d="M23.514 4.232a.77.77 0 0 0-.664.385h-1.652a1.282 1.282 0 0 0-1.19-.813 1.28 1.28 0 0 0-1.19.813H17.57v-.02C17.57 2.056 15.15 0 12.164 0h-.043C9.134 0 6.712 2.058 6.712 4.596v.02H5.468a1.28 1.28 0 0 0-2.382 0H1.433A.767.767 0 0 0 0 5.002a.767.767 0 0 0 1.433.385h1.6c.134.565.638.985 1.242.985s1.11-.42 1.245-.983h1.273c.33 1.605 1.636 2.926 3.38 3.498v1.162H9.107c-.78 0-1.476.35-1.947.898H4.2c-.572 0-1.036.463-1.036 1.036v8.733h-.14a.93.93 0 0 0-.93.93l.002.016a.732.732 0 0 0-.023.175v1.133a.75.75 0 0 0 1.497 0v-.395h1.22v.395a.748.748 0 0 0 1.496 0v-1.133c0-.033-.006-.064-.01-.096.003-.033.01-.064.01-.097a.93.93 0 0 0-.93-.93h-.12v-7.46h1.305v6.584c0 1.014.59 1.887 1.444 2.304v7.31A2.803 2.803 0 0 0 6.35 32h5.59c0-1.135-.673-2.11-1.637-2.552v-7.046h3.678v7.046A2.806 2.806 0 0 0 12.344 32h5.59c0-1.135-.67-2.11-1.636-2.552V22.14a2.562 2.562 0 0 0 1.443-2.304v-6.584h1.305v7.46h-.118a.93.93 0 0 0-.93.93c0 .033.007.064.01.096-.004.032-.01.063-.01.096v1.133a.75.75 0 0 0 1.498 0v-.395h1.218v.395a.748.748 0 0 0 1.497 0v-1.133c0-.06-.01-.12-.023-.176l.002-.016a.93.93 0 0 0-.93-.93h-.14V11.98c0-.572-.464-1.036-1.037-1.036h-2.96a2.557 2.557 0 0 0-1.946-.898H14.11V8.884c1.744-.572 3.052-1.892 3.38-3.498h1.274c.135.563.64.983 1.244.983a1.28 1.28 0 0 0 1.243-.984h1.6a.768.768 0 1 0 .664-1.154zM8.53 4.04a1.134 1.134 0 1 1 2.267.002A1.134 1.134 0 0 1 8.53 4.04zm5.79 12.927l.06.19a1.53 1.53 0 0 1 .648.062l.097-.188a.082.082 0 0 1 .046-.038.074.074 0 0 1 .06.005l.334.172c.04.02.054.067.034.106l-.1.19c.172.134.313.303.414.495l.21-.067a.08.08 0 0 1 .1.05l.113.358a.08.08 0 0 1-.05.1l-.212.066c.027.213.01.43-.053.638l.196.1c.04.02.054.07.033.108l-.174.332a.073.073 0 0 1-.046.038.074.074 0 0 1-.06-.005l-.19-.098a1.52 1.52 0 0 1-.498.428l.066.208a.08.08 0 0 1-.052.1l-.357.112a.08.08 0 0 1-.1-.05l-.064-.203c-.22.03-.445.013-.658-.052l-.093.18a.08.08 0 0 1-.107.033l-.332-.173a.082.082 0 0 1-.034-.106l.09-.176a1.496 1.496 0 0 1-.43-.508l-.18.057a.08.08 0 0 1-.1-.052l-.113-.355a.08.08 0 0 1 .05-.1l.18-.056a1.515 1.515 0 0 1 .063-.67l-.17-.09c-.018-.008-.032-.025-.04-.045s-.003-.042.006-.06l.172-.333a.08.08 0 0 1 .106-.033l.176.09a1.51 1.51 0 0 1 .506-.417l-.058-.184a.077.077 0 0 1 .05-.1l.358-.112a.078.078 0 0 1 .1.05zm-.112-2.574l-.023.655a.137.137 0 0 1-.143.134l-.388-.013a2.66 2.66 0 0 1-.46 1.02l.265.282a.14.14 0 0 1-.007.195l-.48.447a.14.14 0 0 1-.195-.007l-.256-.274a2.673 2.673 0 0 1-1.07.415l-.013.382a.137.137 0 0 1-.143.133l-.655-.022a.138.138 0 0 1-.133-.142l.01-.37a2.67 2.67 0 0 1-1.055-.472l-.258.24a.137.137 0 0 1-.195-.006l-.447-.48a.142.142 0 0 1 .006-.194l.253-.236a2.652 2.652 0 0 1-.415-1.092l-.33-.012a.138.138 0 0 1-.135-.142l.023-.655a.136.136 0 0 1 .143-.134l.33.01c.082-.387.25-.752.493-1.067l-.23-.246a.143.143 0 0 1-.036-.1c0-.036.017-.07.044-.096l.48-.447a.138.138 0 0 1 .195.008l.235.252a2.674 2.674 0 0 1 1.08-.393l.01-.335a.138.138 0 0 1 .143-.134l.654.022a.14.14 0 0 1 .134.143l-.012.348c.375.086.728.25 1.033.483l.27-.25a.138.138 0 0 1 .195.006l.447.478a.138.138 0 0 1-.007.195l-.275.257c.205.32.34.68.393 1.056l.388.013c.08.004.14.067.138.143zm-.4-7.094h-3.333a.45.45 0 0 1 0-.9h3.334a.448.448 0 0 1 0 .9zm.813-2.127a1.133 1.133 0 1 1 0-2.265 1.133 1.133 0 0 1 0 2.265z"/><path d="M11.125 13.178a1.454 1.454 0 1 0-.1 2.906 1.454 1.454 0 0 0 .1-2.906zm-.068 2.006a.553.553 0 0 1 .038-1.104.553.553 0 0 1-.038 1.104z"/></g></svg>