<svg xmlns="http://www.w3.org/2000/svg" width="23.649" height="32" viewBox="0 0 23.649 32"><g fill="#231f20"><path d="M23.33 21.99h-.027v-.672h-.224v-9.51l.002-.084c0-2.358-2.277-4.414-5.65-5.496H6.216C2.846 7.31.566 9.366.566 11.724c0 .028.004.055.005.083v9.51H.346v.674H0v1.852h.848v-.925h1.537v.925h.85v-1.85h-.408v-.674h-.224V15.36c.904.728 2.072 1.34 3.424 1.794a1.6 1.6 0 0 0-.295.897c0 1.228 1.58 2.28 3.823 2.716-1.026.305-1.694.8-1.694 1.36 0 .672.957 1.25 2.336 1.518H5.554c-.237 0-.455.077-.634.204-.33.22-.548.594-.548 1.02v4.745c-.943.45-1.588 1.348-1.588 2.387H8.68c0-1.136-.77-2.105-1.86-2.5v-3.663h10.01V29.5c-1.088.395-1.86 1.364-1.86 2.5h5.896c0-1.04-.646-1.938-1.59-2.387v-4.746c0-.425-.216-.8-.546-1.02a1.092 1.092 0 0 0-.634-.203h-4.643c1.38-.27 2.335-.846 2.335-1.517 0-.56-.668-1.056-1.694-1.36 2.243-.438 3.824-1.49 3.824-2.716 0-.312-.106-.613-.295-.896 1.352-.454 2.52-1.067 3.424-1.793v5.958h-.224v.673h-.407v1.852h.848v-.925H22.8v.925h.85v-1.85h-.32zM17.402 5.514A5.514 5.514 0 0 0 11.888 0l-.063.003c-.022 0-.042-.003-.063-.003a5.515 5.515 0 0 0-5.515 5.514H17.402zm-7.5-2.588a2.068 2.068 0 1 1 4.135 0 2.068 2.068 0 0 1-4.136 0z"/><path d="M13.05 2.926a1.082 1.082 0 0 0-1.206-1.074.647.647 0 0 1-.937.88 1.08 1.08 0 1 0 2.144.195z"/></g></svg>