<?xml version="1.0" encoding="UTF-8" standalone="yes"?>
<svg xmlns="http://www.w3.org/2000/svg" viewBox="0 0 32 29.412">
  <path fill="#231F20" d="M2.357 17.283l2.72.71-.234.9-2.72-.71.234-.9zm-.56 2.137l2.722.71.233-.9-2.72-.71-.236.9zm2.634 1.056l-2.72-.71-.235.9 2.722.71.235-.9zm-1.02-7.22l2.72.71.236-.9-2.72-.712-.236.9zm-.323 1.234l2.72.71.236-.9-2.72-.712-.236.902zm-.326 1.246l2.72.71.237-.898-2.72-.71-.236.898zm-.32 1.235l2.72.71.235-.9-2.72-.71-.235.9zM0 23.274l1.032.246.268-1.125 1.87.445-.27 1.124 1.033.247.52-2.18-3.933-.936-.52 2.18zm29.646-5.988l-2.723.71.235.9 2.722-.71-.234-.9zm.323 1.235l-2.723.71.235.9 2.72-.71-.234-.9zm-2.166 2.856l2.72-.71-.234-.9-2.72.71.235.9zm.552-9.02l-2.72.71.234.9 2.722-.71-.235-.9zm.32 1.235l-2.72.71.236.903 2.72-.71-.235-.9zm.327 1.245l-2.72.71.233.9 2.722-.71-.236-.9zm.322 1.235l-2.72.71.234.9 2.72-.71-.235-.9zm-1.262-5.566a1.73 1.73 0 0 0-3.38-.304c-.413-.582-1.048-.955-1.76-.955H9.076c-.71 0-1.346.374-1.76.956a1.728 1.728 0 1 0-.503 1.766v9.32c0 1.417 1.014 2.567 2.264 2.567h2.376v3.665H10.08a.947.947 0 0 0 0 1.893h3.842v-4.455h4.158v4.457h3.845a.946.946 0 0 0 0-1.893H20.55v-3.666h2.376c1.25 0 2.264-1.15 2.264-2.568v-9.318a1.727 1.727 0 0 0 2.874-1.462zm3.416 10.59l-3.935.937.52 2.18 1.033-.245-.27-1.125 1.87-.446.27 1.125L32 23.27l-.52-2.18zM15.96 8.17h-6.76V5.188c0-2.864 2.004-5.186 4.478-5.186L15.963 0h.077l2.28.002c2.474 0 4.478 2.322 4.478 5.186V8.17h-6.836zm-2.374-3.36h4.824a1.67 1.67 0 0 0 0-3.342h-4.825a1.67 1.67 0 1 0 0 3.342zm1.05 2.785h2.724c.523 0 .945-.424.945-.947s-.422-.947-.945-.947h-2.726a.946.946 0 0 0 0 1.896zm-.474-5.404a.947.947 0 1 0 0 1.896.947.947 0 0 0 0-1.894zm3.673 1.896a.948.948 0 1 0 0-1.895.948.948 0 0 0 0 1.896z"/>
</svg>