<?xml version="1.0" encoding="UTF-8" standalone="yes"?>
<svg xmlns="http://www.w3.org/2000/svg" viewBox="0 0 50 50">
  <path d="M38.134 15.837h-4.38l2.19 3.79zm-7.662 3.79l2.19-3.79h-4.378zm-8.756-3.79H17.34l2.188 3.79zm-5.47 0h-4.38l2.19 3.79zm2.734 4.107l-2.188-3.79-2.19 3.79zm1.095 0h4.378l-2.19-3.79zm7.66-3.79l-2.19 3.79h4.38zm7.662 3.79l-2.19-3.79-2.187 3.79zm-9.85.632l2.19 3.79 2.188-3.79zm-3.283 3.79l2.19-3.79h-4.38zM25 20.893l-2.19 3.793h4.38zm0 8.215l2.19-3.793h-4.38zm-.547.316l-2.19-3.79-2.188 3.79zm3.283-3.79l-2.19 3.79h4.38zm3.284 4.422l2.188 3.79 2.19-3.79zm-1.095 0h-4.378l2.19 3.79zm-7.66 3.79l2.19-3.79h-4.38zm-7.662-3.79l2.19 3.79 2.187-3.79zm-2.737 4.107h4.38l-2.19-3.79zm7.662-3.792l-2.19 3.792h4.378zm8.756 3.792h4.377l-2.187-3.79zm5.47 0h4.38l-2.19-3.79zm4.926-9.795l2.19-3.79h-4.378zm-25.172-3.79H9.13l2.19 3.79zm-4.925.315l-2.19 3.793h4.378zm5.472 0l-2.19 3.793h4.38zm21.89 0l-2.19 3.793h4.38zm7.66 3.793l-2.19-3.793-2.186 3.793zM27.19 6.358h-4.38l2.19 3.79zm-4.926.316l-2.19 3.793h4.38zm7.66 3.793l-2.19-3.793-2.187 3.793zm0 .63h-4.377l2.19 3.793zm-5.47 0h-4.38l2.19 3.793zm-1.644 4.108h4.38L25 11.415zm13.135 13.902l2.19-3.793h-4.38zm-21.89 0l2.19-3.793h-4.38zm-7.66-3.793l2.19 3.793 2.186-3.793zm4.925.318l-2.19 3.79h4.378zm25.172 3.79h4.378l-2.19-3.79zm4.925-.315l2.19-3.793H39.23zM27.19 34.794h-4.38l2.19 3.79zM24.453 38.9l-2.19-3.79-2.188 3.79zm1.094 0h4.378l-2.19-3.79zm2.19 4.425l2.19-3.793h-4.38zm-7.662-3.793l2.19 3.793 2.188-3.793zm2.735 4.108h4.38L25 39.85z"/>
</svg>