<svg xmlns="http://www.w3.org/2000/svg" width="50" height="50" viewBox="0 0 50 50"><path d="M38.134 15.837h-4.38l2.19 3.79zM30.472 19.628l2.19-3.79h-4.378zM21.716 15.837H17.34l2.188 3.79zM16.245 15.837h-4.38l2.19 3.79zM18.98 19.944l-2.188-3.79-2.19 3.79zM20.075 19.944h4.378l-2.19-3.79zM27.736 16.153l-2.19 3.79h4.38zM35.397 19.944l-2.19-3.79-2.187 3.79zM25.547 20.576l2.19 3.79 2.188-3.79zM22.264 24.367l2.19-3.79h-4.38zM25 20.892l-2.19 3.793h4.38zM25 29.107l2.19-3.793h-4.38zM24.453 29.423l-2.19-3.79-2.188 3.79zM27.736 25.632l-2.19 3.79h4.38zM31.02 30.055l2.188 3.79 2.19-3.79zM29.925 30.055h-4.378l2.19 3.79zM22.264 33.846l2.19-3.79h-4.38zM14.603 30.055l2.19 3.79 2.187-3.79zM11.866 34.162h4.38l-2.19-3.79zM19.528 30.37l-2.19 3.792h4.378zM28.284 34.162h4.377l-2.188-3.79zM33.755 34.162h4.38l-2.19-3.79zM38.68 24.367l2.19-3.79h-4.378zM13.508 20.576H9.13l2.19 3.79zM8.583 20.892l-2.19 3.793h4.378zM14.055 20.892l-2.19 3.793h4.38zM35.945 20.892l-2.19 3.793h4.38zM43.606 24.685l-2.19-3.793-2.187 3.793zM27.19 6.358h-4.38l2.19 3.79zM22.264 6.674l-2.19 3.793h4.38zM29.925 10.467l-2.19-3.793-2.188 3.793zM29.925 11.098h-4.378l2.19 3.792zM24.453 11.098h-4.378l2.19 3.792zM22.81 15.205h4.38L25 11.415zM35.945 29.107l2.19-3.793h-4.38zM14.055 29.107l2.19-3.793h-4.38zM6.394 25.314l2.19 3.793 2.187-3.793zM11.32 25.632l-2.19 3.79h4.378zM36.492 29.423h4.378l-2.19-3.79zM41.417 29.107l2.19-3.793h-4.378zM27.19 34.794h-4.38l2.19 3.79zM24.453 38.9l-2.19-3.79-2.188 3.79zM25.547 38.9h4.378l-2.19-3.79zM27.736 43.325l2.19-3.793h-4.38zM20.075 39.532l2.19 3.793 2.188-3.793zM22.81 43.64h4.38L25 39.85z"/></svg>