<svg xmlns="http://www.w3.org/2000/svg" width="50" height="50" viewBox="0 0 50 50"><path d="M30.892 14.038h-5.237l2.618 4.536zM24.345 14.038h-5.238l2.62 4.536zM18.453 14.416l-2.62 4.536h5.238zM34.166 18.952l-2.62-4.536-2.618 4.536zM31.547 24.244l2.62-4.536h-5.24zM27.62 19.708h-5.24L25 24.244zM15.834 19.708l2.62 4.536 2.617-4.536zM19.107 24.622h5.238l-2.62-4.536zM25.655 24.622h5.237l-2.62-4.536zM27.62 8.368h-5.24L25 12.904zM21.726 8.746l-2.62 4.536h5.24zM30.892 13.282l-2.62-4.536-2.617 4.536zM28.273 29.914l2.62-4.536h-5.238zM19.107 25.378l2.62 4.536 2.618-4.536zM22.38 30.292h5.24L25 25.756zM25 35.584l2.62-4.536h-5.24zM22.38 41.632h5.24L25 37.096z"/></svg>