<svg xmlns="http://www.w3.org/2000/svg" width="50" height="50" viewBox="0 0 50 50"><path d="M40.07 14.487h-5.024l2.512 4.35zM33.79 14.487h-5.022l2.51 4.35zM21.232 14.487H16.21l2.513 4.35zM14.954 14.487H9.93l2.512 4.35zM9.304 14.85L6.792 19.2h5.022zM21.86 14.85l-2.51 4.35h5.022zM28.14 14.85l-2.512 4.35h5.023zM40.698 14.85l-2.512 4.35h5.022zM36.93 19.926h-5.023l2.512 4.35zM43.208 19.926h-5.022l2.512 4.35zM30.65 19.926H25.63l2.512 4.35zM24.372 19.926H19.35l2.51 4.35zM18.093 19.926H13.07l2.512 4.35zM11.814 19.926H6.792l2.512 4.35zM12.442 20.288l-2.51 4.35h5.022zM25 20.288l-2.512 4.35h5.024zM37.558 20.288l-2.512 4.35h5.023zM36.93 9.05h-5.023l2.512 4.35zM18.093 9.05H13.07l2.512 4.35zM12.442 9.412l-2.51 4.35h5.022zM18.723 9.412l-2.513 4.35h5.022zM31.28 9.412l-2.512 4.35h5.022zM37.558 9.412l-2.512 4.35h5.023zM40.07 25.363h-5.024l2.512 4.35zM27.512 25.363h-5.024L25 29.713zM14.954 25.363H9.93l2.512 4.35zM9.304 25.726l-2.512 4.35h5.022zM15.582 25.726l-2.512 4.35h5.023zM21.86 25.726l-2.51 4.35h5.022zM28.14 25.726l-2.512 4.35h5.023zM34.42 25.726l-2.513 4.35h5.023zM40.698 25.726l-2.512 4.35h5.022zM43.208 30.8h-5.022l2.512 4.35zM30.65 30.8H25.63l2.512 4.35zM24.372 30.8H19.35l2.51 4.35zM11.814 30.8H6.792l2.512 4.35zM12.442 31.163l-2.51 4.35h5.022zM18.723 31.163l-2.513 4.35h5.022zM31.28 31.163l-2.512 4.35h5.022zM37.558 31.163l-2.512 4.35h5.023zM40.07 36.24h-5.024l2.512 4.35zM33.79 36.24h-5.022l2.51 4.35zM21.232 36.24H16.21l2.513 4.35zM14.954 36.24H9.93l2.512 4.35zM15.582 36.6l-2.512 4.35h5.023zM34.42 36.6l-2.513 4.35h5.023z"/></svg>