<?xml version="1.0" encoding="UTF-8" standalone="yes"?>
<svg xmlns="http://www.w3.org/2000/svg" viewBox="0 0 50 50">
  <path d="M17.906 34.79v-6.14l-5.32 3.072zm0-7.678V20.97l-5.32 3.07zm.887-6.142v6.142l5.32-3.07zm5.764 17.66v-6.143l-5.32 3.073zm0-7.68v-6.14l-5.32 3.07zm0-7.678V17.13l-5.32 3.072zm.887-6.142v6.142l5.32-3.07zm0 13.82l5.32-3.07-5.32-3.07zm0 7.68l5.32-3.07-5.32-3.073zm5.763-11.518V20.97l-5.32 3.07zm.887 0l5.32-3.07-5.32-3.072zm0 7.678l5.32-3.07-5.32-3.072zm-20.838-3.84v-6.14l-5.32 3.07zm27.488-6.14v6.14l5.32-3.07zm-4.21-13.44l-5.323 3.07 5.323 3.073zm-19.064 0l-.002 6.145 5.32-3.073z"/>
</svg>