<?xml version="1.0" encoding="UTF-8" standalone="yes"?>
<svg xmlns="http://www.w3.org/2000/svg" viewBox="0 0 50 50">
  <path d="M25.78 15.3l3.127 5.414 3.126-5.414zM17.967 15.3l3.126 5.414L24.22 15.3zM35.94 21.165l-3.126-5.414-3.125 5.415zM32.814 27.482l3.126-5.415h-6.25zM28.126 8.532h-6.252L25 13.946zM21.093 8.983l-3.126 5.414h6.252zM32.033 14.397l-3.126-5.414-3.126 5.414zM17.186 27.482l3.125-5.415h-6.25zM13.278 22.52l-3.126 5.414h6.25zM16.403 28.836h-6.25l3.125 5.414zM9.37 29.287L6.246 34.7h6.25zM17.186 41.018l3.125-5.414h-6.25zM6.245 35.604l3.126 5.414 3.126-5.414zM10.152 41.47h6.25l-3.124-5.415zM36.722 34.25l3.126-5.414h-6.25zM43.755 34.7l-3.126-5.413-3.126 5.414zM40.63 41.018l3.125-5.414h-6.25zM29.69 35.604l3.124 5.414 3.126-5.414zM21.874 35.604L25 41.018l3.126-5.414zM25.78 41.47h6.253l-3.126-5.415zM33.597 41.47h6.25l-3.125-5.415z"/>
</svg>