<svg xmlns="http://www.w3.org/2000/svg" viewBox="0 0 372.278 372.278"><path d="M364.35 286.384c-26.963-57.117-43.33-114.73-49.118-136.855-1.046-4-2.817-7.78-5.178-11.166l-.03-13.358c-.014-6.636-3.236-12.89-8.618-16.73a249.983 249.983 0 0 1-8.855-6.62c-40.42-58.883-64.984-73.89-66.013-74.5a2.995 2.995 0 0 0-.944-.363c-.84-.172-5.31-.647-11.44 6.216-12.433 12.53-37.36 65.71-39.445 78.923-1.5 9.495-16.136 31.186-22.026 39.443l-.49.137c-14.455 4.065-32.752 13.563-36.746 26.95-2.035 6.82-.273 13.67 5.236 20.375.12 9.498 1.76 29.71 7.26 51.402-.823 1.222-1.603 2.384-2.328 3.467-2.73 4.077-6.545 7.406-11.04 9.626-4.796 2.37-8.922 5.127-12.264 8.19-2.56 2.347-6.52 6.618-11.11 11.564a1480.643 1480.643 0 0 1-5.72 6.144c-3.486-.02-13.142.088-23.377 1.628-17.747 2.67-28.053 8.275-30.633 16.66-2.43 7.893-2.336 13.987.277 18.113.122.194.252.368.38.545-9.484 3.203-19.662 6.03-28.317 8.015a4.877 4.877 0 0 0-3.795 5.165 4.88 4.88 0 0 0 4.555 4.518c11.17.784 28.66 1.348 29.08 1.348a47.07 47.07 0 0 0 22.626-5.797l.657-.362a62.055 62.055 0 0 0 20.9 3.628l144.28-.578a7.385 7.385 0 0 0 6.742-4.337c.02-.043.03-.088.05-.13 55.94 6.91 89.702 7.925 108.712 7.925 4.748 0 8.58-.064 11.604-.113l.998-.016c3.172-.052 6.3-.922 8.96-2.65 5.462-3.546 9.258-8.438 11.313-14.595 6.083-18.217-5.237-40.115-6.14-41.81zm-21.94-35.45c-8.875-.91-18.89 3.112-24.52 5.862-1.11-16.023-8.278-49.442-8.62-51.03a3.003 3.003 0 0 0-1.564-2.037l-14.374-7.372c-2.342-1.2-3.887-3.512-4.075-6.2-.138-1.98.593-3.926 1.855-5.458l4.1-4.975c4.484-5.448 5.83-12.697 3.6-19.393l-1.343-4.023a17.604 17.604 0 0 1-.666-8.465l2.17-13.026 3.378 3.544a29.12 29.12 0 0 1 7.075 12.682c4.536 17.34 15.528 56.324 32.982 99.89zm-219.394 60.11c-3.247-1.622-7.852-3.162-13.73-4.598 5.816-4.22 11.365-8.556 16.33-12.896l17.978-3.655c2.038 3.34 4.187 6.384 6.435 9.096 5.16 6.19 14.36 16.426 18.257 20.74-10.342-.822-34.426-3.254-45.27-8.685zm16.517-28.518c.316.63.63 1.264.953 1.878l-4.51.917a27.217 27.217 0 0 0 3.557-2.794zm13.816 11c-3.505-4.526-6.75-9.972-9.682-16.224.733-1.334 1.15-2.485 1.378-3.298 4.49-4.01 27.122-24.368 43.708-42.16-.787 1.628-1.424 3.007-1.865 4.112-1.304 3.256-1.067 6.77.683 10.157 1.727 3.344 4.956 6.577 9.295 9.496-5.08 7.477-21.696 29.842-43.52 37.916zm39.554-50.166c-.953-1.847-1.1-3.54-.443-5.177.757-1.893 2.27-4.923 4.19-8.76 2.714-5.432 6.092-12.19 9.265-19.602.07-.152.362-.854.435-1.05 1.087-2.57 2.213-5.048 3.302-7.445 2.91-6.407 5.55-12.228 6.742-18.11 2.65 3.41 6.207 6.86 10.892 9.45 6.527 3.61 13.93 4.79 22.09 3.56-2.348 5.562-4.852 14.196-4.852 25.764 0 21.23 11.906 41.172 12.413 42.01a3 3 0 0 0 5.493-.892c.273-1.215 6.685-29.892 5.847-42.963-.61-9.465-5.196-20.855-7.91-26.872 11.302-4.3 19.088-11.254 23.142-20.702 5.78-13.48 2.237-28.19-.444-34.084-3.54-7.787-23.87-30.374-48.694-35.1a10.87 10.87 0 0 0-9.616 2.895c-1.997 1.948-4.037 4.005-6.198 6.18-3.494 3.522-7.196 7.25-11.075 10.872l-.058-3.165a21.932 21.932 0 0 1 1.27-7.81c8.57-24.263 16.797-42.555 21.736-48.558 21.62 19.104 38.123 38.93 41.087 42.556l1.083 6.1a16.598 16.598 0 0 0 4.96 9.236l15.126 14.375-1.798 10.79a23.61 23.61 0 0 0 .89 11.348l1.343 4.024a14.37 14.37 0 0 1-2.54 13.68l-4.252 5.16c-2.81 3.414-3.78 7.93-2.584 12.237 1.038 3.736 3.737 6.792 7.188 8.56l12.768 6.548c1.573 7.47 8.88 42.862 8.31 53.15-.52 9.39.99 23.564 6.4 36.38l-69.883-16.12c-2.08-4.678-9.454-18.148-26.816-22.344-13.996-3.378-25.573-9.858-28.806-16.12zm-12.552-80.31c-17.6 1.93-23.4-1.325-25.292-3.47-.722-.82-1.017-1.647-1.13-2.325 2.378-.668 4.575-1.273 6.624-1.837 14.743-4.06 22.143-6.097 34.784-14.522 10.198-6.797 19.378-16.046 27.478-24.205 2.144-2.16 4.17-4.2 6.132-6.114a4.843 4.843 0 0 1 4.287-1.294c22.933 4.356 41.58 25.554 44.37 31.69 1.852 4.07 5.53 17.255.39 29.236-3.56 8.302-10.728 14.367-21.3 18.027-10.174 3.518-19.06 3.26-26.418-.77-7.635-4.184-11.772-11.27-13.62-15.324-.245-.536-1.362-3.196-1.753-4.123a6.04 6.04 0 0 0-.176-.384c-1.83-3.668-4.506-6.807-7.855-9.082-4.607-3.13-9.353-4.204-14.12-3.183-4.262.91-8.41 3.486-12.4 7.682zm75.163 34.098c2.49 5.724 6.27 15.534 6.774 23.384.52 8.09-2.13 23.44-3.993 32.966-3.37-7.398-7.773-19.388-7.773-31.508 0-11.717 2.746-20.016 4.99-24.842zm-74.88-84.28c1.913-12.114 26.144-64 37.824-75.68a2.44 2.44 0 0 0 .12-.13c2.82-3.17 4.78-4.03 5.63-4.262 4.387 2.987 27.843 20.384 63.653 72.633.172.25.382.474.62.662a258.26 258.26 0 0 0 9.437 7.066c3.812 2.72 6.094 7.154 6.105 11.86l.014 6.417-1.235-1.295c-1.655-1.738-4.204-2.253-6.446-1.224a5.28 5.28 0 0 0-1.443.996l-13.23-12.57a10.645 10.645 0 0 1-3.18-5.93l-1.22-6.868a3.01 3.01 0 0 0-.61-1.35c-.188-.234-19.122-23.807-44.376-45.732a3 3 0 0 0-3.71-.176c-3.4 2.43-11.24 12.553-25.554 53.066a27.857 27.857 0 0 0-1.61 9.93l.152 8.32c-3.097 2.63-6.29 5.113-9.57 7.3-10.936 7.29-17.457 9.41-29.874 12.852 6.106-9.056 16.978-26.246 18.5-35.887zm-53.96 84.86a3 3 0 0 0-.738-1.97c-4.642-5.327-6.237-10.57-4.74-15.582 2.676-8.972 14.714-16.636 27.007-21.083a10.59 10.59 0 0 0 2.196 4.266c3.52 4.17 10.342 6.268 20.34 6.268 1.423 0 2.925-.053 4.475-.138-.64.93-1.274 1.896-1.902 2.916-4.193 6.804-7.424 14.55-9.602 23.026-1.147 4.47-3.917 12.87-9.564 18.92-5.04 5.4-14.128 18.204-21.64 29.173-3.994-17.625-5.83-35.585-5.83-45.796zM36.738 322.292c-1.5-2.533-1.335-7.153.467-13.01 3.202-10.405 27.837-13.44 42.488-13.97a339.388 339.388 0 0 1-5.388 5.46c-4.244-.46-6.933-.68-7.057-.69a3 3 0 0 0-.487 5.98c.015 0 .673.054 1.83.163-3.997 3.668-7.836 6.84-11.196 8.978-4.59 2.922-11.337 5.925-18.93 8.736-.482-.235-1.172-.708-1.726-1.645zm-4.185 16.914a671.41 671.41 0 0 1-20.426-.86c17.66-4.515 37.94-11.37 48.487-18.08 10.465-6.66 24.637-21.94 34.986-33.1 4.498-4.85 8.384-9.038 10.764-11.22 2.923-2.68 6.58-5.114 10.87-7.234 5.432-2.685 10.054-6.72 13.365-11.668 7.656-11.442 21.466-31.67 27.93-38.597 6.226-6.67 9.413-15.385 10.99-21.52 2.027-7.893 5.02-15.083 8.897-21.372 5.103-8.277 10.493-13.23 15.59-14.32 3.14-.668 6.244.073 9.49 2.28 3.606 2.448 6.207 6.25 7.324 10.706.087.34.152.613.172.747.627 7.518-2.817 15.098-6.806 23.876-1.115 2.456-3.844 8.742-3.88 8.825-6.1 12.998-45.057 49.258-59.962 62.485-.556.493-.902 1.12-.984 1.86-.036.24-.987 5.94-10.305 10.338a3 3 0 0 0-.84.593c-7.482 7.48-17.317 15.154-27.704 22.38-.13.076-.25.16-.368.255-16.7 11.588-34.77 22.003-46.756 28.58a41.04 41.04 0 0 1-20.833 5.046zm45.508-2.52h-.228A56.1 56.1 0 0 1 64.202 335c11.166-6.332 25.18-14.716 38.483-23.89 7.87 1.633 13.74 3.388 17.47 5.216-3.34 4.17-8.464 11.87-8.886 20.225l-33.21.135zm145.345-1.423c-.117.254-.48.844-1.315.848l-104.812.42c.514-7.54 6.162-14.872 8.717-17.828 16.886 5.666 45.49 7.29 46.846 7.365.67.04 1.314-.145 1.86-.52 4.452-3.047 12.18-6.492 14.504-4.747.43.32.936.523 1.468.582 3.933.44 11.528-.15 17.205-.725a7.462 7.462 0 0 1 6.443 2.6l8.873 10.456c.54.64.328 1.297.212 1.55zm141.396-8.968c-1.404 4.21-3.87 7.68-7.353 10.367-2.362 1.82-5.295 2.745-8.277 2.793h-.045c-15.07.25-50.24.823-120.24-7.86a7.544 7.544 0 0 0-1.117-1.764l-8.873-10.456a13.43 13.43 0 0 0-11.62-4.687c-7.024.708-12.386.982-15.263.79-3.116-1.788-7.55-1.45-13.203 1.006a46.647 46.647 0 0 0-3.76 1.854c-.155-.2-10.74-11.903-17.663-19.95 23-9.404 39.646-32.184 44.67-39.715 5.19 2.696 11.39 4.987 18.243 6.642 17.423 4.21 22.976 19.428 23.2 20.065a2.995 2.995 0 0 0 2.16 1.94l76.183 17.576c.2.347.383.702.59 1.044l8 13.334a3 3 0 0 0 4.597.672c1.08-.97 1.232-2.616.485-3.86l-7.938-13.233c-7.615-12.69-9.932-28.728-9.637-39.347 5.945-3.27 18.923-8.827 27.186-5.888 4.255 10.334 8.863 20.87 13.832 31.394.022.048.047.095.07.142 3.88 7.205 10.08 24.237 5.773 37.138z"/></svg>