<?xml version="1.0" encoding="UTF-8" standalone="yes"?>
<svg xmlns="http://www.w3.org/2000/svg" viewBox="0 0 458.47 458.47">
  <path d="M405.09 215.832c-6.39-7.39-15.54-12.316-23.116-12.51-1.78-1.13-5.243-3.073-9.11-3.877a13.823 13.823 0 0 0-2.81-.29c-4.877 0-9.32 2.548-11.89 6.815-2.356 3.916-2.922 8.654-2.38 13.663a48.338 48.338 0 0 0-2.523 3.52 7.122 7.122 0 0 1-5.4 3.202l-.484-7.408c1.282-3.342 6.414-18.075 2.942-31.462-1.772-6.833-1.682-14.262.262-21.483 6.42-23.853 15.957-66.876 18.727-79.494a32.22 32.22 0 0 0 .625-9.76l-2.296-26.02a31.6 31.6 0 0 0-.4-2.958l-.585-3.196a8.974 8.974 0 0 0-.146-.665l-4.22-16.04c-.414-1.57-1.96-2.67-3.552-2.34a3 3 0 0 0-2.294 3.703l3.59 13.636-2.667-.89-6.345-10.876c-.82-1.403-2.603-2.048-4.047-1.304a3 3 0 0 0-1.22 4.182l5.89 10.1-1.748 1.922-8.127-10.304c-.898-1.14-2.493-1.576-3.78-.91a3.003 3.003 0 0 0-1 4.538l8.815 11.176-.87.957-8.688-6.317c-1.314-.955-3.207-.828-4.23.435a3 3 0 0 0 .564 4.318l10.223 7.435 5.772 17.318c1.012 3.04.957 6.37-.156 9.374-6.14 16.576-16.325 46.165-15.538 58.104.132 1.995-.18 4.07-.928 6.17-.972 2.727-2.222 5.962-3.545 9.387-5.068 13.118-10.77 27.874-10.22 36.622-3.935 3.49-18.544 15.15-34.12 11.257-18.436-4.61-48.058-23.638-50.867-25.46L176.09 126.51a63.954 63.954 0 0 1-11.715-14.82c-6.652-11.598-20.042-33.174-34.97-47.392-19.792-18.85-38.033-37.94-39.762-39.755L77.455 7.863A19.178 19.178 0 0 0 56.605.77L52.034 2.1c-2.82.822-5.145 2.974-5.904 5.81a8.097 8.097 0 0 0 2.03 7.8l25.72 26.477a27.02 27.02 0 0 0 5.568 4.4c8.712 5.18 15.122 9.846 17.587 12.803 2.178 2.614 5.005 10.067 7.5 16.643 2.92 7.7 5.678 14.97 8.5 18.356 4.736 5.68 21.07 20.41 23.908 22.96l52.374 98.065c-6.7 6.043-11.977 15.437-11.977 30.052 0 34.945 5.108 74.546 5.92 80.62-1.615 4.098-8.86 23.295-7.912 35.61.593 7.71 3.832 21.218 6.69 33.135 2.013 8.396 3.915 16.326 4.32 19.966.68 6.115-.102 17.255-.627 23.35a7.928 7.928 0 0 0 5.833 8.336c9.762 2.65 25.732 6.52 35.81 6.52 2.296 0 4.29-.202 5.83-.665 6.38-1.914 11.24-5.976 14.224-9.09 1.16-1.21 1.795-2.87 1.604-4.535a5.6 5.6 0 0 0-4.55-4.897c-26.856-4.943-33.093-15.406-34.365-18.495-6.455-15.676-.19-66.368.185-69.34l16.32-72.97 48.738 10.31c2.445 1.175 16.196 7.475 27.817 6.32 5.515 5.86 12.233 9.97 15.244 11.658.37 7.926 2.113 40.243 6.256 50.765.356.904.6 1.857.725 2.83 2.263 17.646 10.723 57.182 17.05 68.564 1.603 11.55 1.137 18.6-1.462 22.14-.738 1.006-.91 2.35-.242 3.4 1.227 1.928 3.775 1.89 4.993.266 1.72-2.29 2.81-5.218 3.315-9.02 1.174.24 2.63.612 4.226 1.178l-2.85 13.31c-.308 1.433.396 2.947 1.75 3.5a3.002 3.002 0 0 0 4.094-2.14l2.575-12.014c1.83 1.137 3.64 2.57 5.25 4.38l8 9a2.992 2.992 0 0 0 2.24 1.008c.68 0 1.366-.23 1.925-.7 1.303-1.09 1.33-3.152.202-4.422l-7.885-8.87c-6.343-7.136-14.832-9.51-19.21-10.287-.043-3.463-.393-7.458-1.058-12.114a3.022 3.022 0 0 0-.39-1.13c-5.416-8.99-14.163-48.02-16.57-66.81a17.877 17.877 0 0 0-1.094-4.266c-4.266-10.834-5.905-50.126-5.92-50.522a3 3 0 0 0-1.657-2.562c-.09-.045-8.66-4.383-15.124-11.247.783-3.747 3.724-14.47 12.343-19.394 6.294-3.594 14.52-3.468 24.467.362.095 7.997.185 38.416-3.535 52.932-.93 3.637-1.165 7.305-.695 10.905 1.032 7.89 1.992 17.35 2.616 23.896.375 3.943 1.42 7.594 3.11 10.854 1.128 2.18 2.475 5.922 2.475 11.372 0 2.06-.11 4.576-.23 7.24-.53 11.842-1.26 28.06 5.676 39.333 7.586 12.327 13.172 20.67 21.374 24.185a3.002 3.002 0 0 0 4.07-1.945c.418-1.463-.412-3.003-1.807-3.612-5.997-2.618-10.577-8.853-18.528-21.773-5.97-9.7-5.29-24.855-4.793-35.92.122-2.732.238-5.313.238-7.508 0-6.66-1.712-11.362-3.148-14.133-1.333-2.574-2.162-5.488-2.464-8.662-.628-6.594-1.596-16.13-2.64-24.105-.37-2.84-.183-5.745.558-8.638 4.485-17.5 3.728-54.944 3.693-56.53-.044-1.013.744-1.87 1.757-1.876l7.824-.05 3.676 4.495c2.3 2.803 5.704 4.313 9.158 4.313 1.847 0 3.708-.432 5.422-1.328 11.717-6.127 31.73-18.427 34.114-31.967 1.307-7.405-1.25-15.274-7.2-22.158zm-41.784-6.768c1.473-2.448 3.996-3.91 6.748-3.91.53 0 1.064.056 1.59.166.815.17 1.617.413 2.38.694-2.413 2.04-4.16 5.47-4.16 10.747 0 6.556 1.132 18.948 2.102 28.354-6.768-11.47-13.813-27.484-8.66-36.05zM323.46 197.59a3 3 0 0 0 .83-2.657c-1.23-6.77 5.093-23.138 9.71-35.09 1.34-3.463 2.603-6.735 3.6-9.536 1.025-2.875 1.45-5.76 1.264-8.578-.514-7.794 5.16-28.587 15.177-55.626a20.2 20.2 0 0 0 .22-13.356l-5.52-16.562 7.505-8.254 5.28 1.76 2.433 27.583a26.24 26.24 0 0 1-.51 7.945c-2.762 12.586-12.272 55.494-18.66 79.22-2.215 8.223-2.31 16.712-.277 24.55 3.35 12.91-2.88 28.174-2.94 28.325a2.995 2.995 0 0 0-.225 1.35l.508 7.79c-19.44.037-30.914-11.958-35.274-17.677a52.996 52.996 0 0 0 4.71-2.31c7.288-4.034 11.974-8.683 12.17-8.88zM117.642 90.55c-2.178-2.615-5.005-10.068-7.5-16.645-2.92-7.7-5.678-14.97-8.5-18.356-3.947-4.738-13.68-10.88-19.13-14.12a21 21 0 0 1-4.33-3.425l-25.72-26.478a2.125 2.125 0 0 1-.54-2.056 2.123 2.123 0 0 1 1.484-1.52l4.875-1.423c5.31-1.55 11.067.41 14.33 4.875L84.916 28.24c.076.104.16.203.248.296.19.2 19.292 20.284 40.106 40.106 9.974 9.5 19.3 22.528 26.246 33.394-2.68 4.747-8.716 8.317-11.673 9.852-4.55-4.107-18.198-16.534-22.2-21.34zm124.982 349.03c-2.502 2.512-6.327 5.57-11.15 7.017-4.87 1.46-19.563-.798-38.342-5.898a1.935 1.935 0 0 1-1.426-2.03c.545-6.318 1.35-17.904.612-24.53-.447-4.014-2.3-11.75-4.45-20.705-2.805-11.7-5.984-24.96-6.54-32.195-.01-.128-.014-.264-.02-.396 3.542 1.255 8.913 2.718 14.743 2.718 2.12 0 4.297-.2 6.466-.67-1.472 17.606-2.598 43.444 2.046 54.72 5.68 13.793 25.944 19.653 38.06 21.967zm-38.215-94.765c-.02.09-.037.18-.048.27-.08.612-.643 5.022-1.27 11.455-8.238 2.598-17.605-.453-21.51-2.013 1.464-11.95 7.46-26.744 7.532-26.922.2-.49.268-1.025.194-1.55-.06-.428-5.972-43.226-5.972-80.585 0-25.874 18.724-32.72 29.884-34.5a3 3 0 1 0-.945-5.925c-4.494.716-11.537 2.47-18.126 6.694l-50.714-94.963c3.13-1.704 8.103-4.86 11.536-9.203a310.778 310.778 0 0 1 4.2 7.1 69.908 69.908 0 0 0 12.812 16.21l55.752 52.32c-3.73 8.86-17.104 45.063-6.483 86.31l-16.844 75.3zm112.475-83.855c-10.34 5.93-13.974 17.752-15.088 22.783-10.636.692-23.978-5.886-24.12-5.957a3.07 3.07 0 0 0-.72-.25l-50.172-10.614c-9.06-36.7 1.96-69.856 5.94-80 8.53 5.382 33.03 20.245 49.885 24.46 5.713 1.426 11.833 1.237 18.077-.505 4.027 5.753 17.272 21.592 41.022 21.592.173 0 .357-.017.533-.02l1.797 27.563c-10.658-3.595-19.778-3.283-27.154.946zm89.495-24.01c-1.415 8.042-12.708 18.136-30.984 27.692-2.414 1.262-5.425.643-7.158-1.47l-4.58-5.6a3 3 0 0 0-2.323-1.102h-.02l-11.488.072-1.58-24.207a13.004 13.004 0 0 0 9.188-4.763c4.503 15.238 15.75 30.402 16.463 31.352a3 3 0 0 0 2.4 1.2h.044c1.128 0 2.215-.608 2.675-1.64.32-.714.37-1.42.22-2.053-.382-3.3-3.375-29.45-3.375-39.67 0-5.95 2.754-7.2 5.063-7.2.036 0 .814.073 1.85.17 2.948.272 5.83 1.094 8.428 2.512 3.384 1.848 6.7 4.458 9.345 7.517 2.752 3.18 7.165 9.642 5.833 17.192z"/>
</svg>