<?xml version="1.0" encoding="UTF-8" standalone="yes"?>
<svg xmlns="http://www.w3.org/2000/svg" viewBox="0 0 348.114 348.114">
  <path d="M335.37 107.698c-3.465-3.07-7.422-5.393-11.534-7.074a34.51 34.51 0 0 0-.74-5.08c-1.9-8.344-8.72-14.375-17.38-15.365-13.272-1.5-28.126 7.777-44.18 27.577-4.05-6.125-11.133-15.922-21.177-26.508-27.368-28.84-54.65-40.105-72.723-44.477-28.76-6.958-56.058-7.03-78.938-.21-19.584 5.84-35.03 16.645-42.38 29.65-8.307 14.694-3.357 33.467 2.257 46.626 4.24 9.94 10.104 19.435 17.427 28.223l13.92 16.703c-8.776 1.422-26.176 4.66-35.335 9.24-4.967 2.485-8.314 1.48-11.856.417-3.81-1.142-8.55-2.563-13.778 2.01-5.676 4.965-6.13 11.517-5.144 16.297-2.54.45-4.316 1.626-5.475 2.736-5.013 4.807-4.63 13.747-4.433 16.088l-2.878 15.35A59.73 59.73 0 0 0 4.28 253.14l3.02 7.55c1.71 4.273 5.63 7.01 10.234 7.143.116.003.23.005.345.005 4.45 0 8.355-2.478 10.25-6.528 2.514-5.37 4.414-9.97 5.647-13.67 1.15-3.454 1.898-7.238 2.62-10.898 2.084-10.563 3.798-17.053 10.027-18.09 6.172-1.024 30.65 3.2 52.245 6.932 9.07 1.568 17.89 3.092 25.31 4.226-.68 12.213-2.67 60.28 7.033 75.9.602.97 1.54 1.683 2.616 2.056 10.505 3.63 23.67 6.508 32.954 8.297a30.217 30.217 0 0 0 18.39-2.215l11.336-5.195a5.478 5.478 0 0 0 3.224-5.03c0-2.18-1.382-4.126-3.342-5.076l-7.63-3.7c-12.907-6.257-27.103-8.563-41.25-6.717.178-1.69.412-3.89.695-6.465 1.48.058 3.035.09 4.67.09 15.418 0 36.878-2.47 47.717-5.12 2.566-.627 4.338-2.83 4.41-5.48.074-2.647-1.575-4.942-4.1-5.708-11.95-3.625-32.455-5.454-40.118-6.037l1.845-34.128c2.236-1.478 4.264-3.173 5.995-5.068 5.747-6.292 8.338-14.52 7.496-23.792-.084-.933-.275-1.973-.546-3.095l26.326-22.2c2.252-1.4 20.013-12.622 33.99-26.327 3.005 3.137 12.157 11.3 28.577 14.47a685.986 685.986 0 0 1 2.225 17.526c.454 4.005 3.843 6.937 7.852 6.887 16.57-.327 70.84-4.16 73.58-39.76 1.182-15.376-3.16-27.9-12.553-36.225zM305.04 86.14c6.09.696 10.88 4.91 12.206 10.735.125.55.228 1.12.32 1.703-6.965-1.763-13.89-1.896-19.22-.83-13.386 2.677-23.597 11.89-26.677 14.94h-6.4c10.727-13.454 25.827-28.12 39.77-26.548zM166.23 42.606c33.278 8.05 58.49 29.944 74.402 47.937a76.836 76.836 0 0 0-1.61-.65c-8.98-3.488-20.66 4.31-35.714 23.84-9.607 12.468-17.23 25.44-18.726 28.028l-1.845 1.616c-15.004-8.71-17.8-28.858-17.827-29.064a3 3 0 0 0-2.975-2.62h-.067l-33.487.737a1251.255 1251.255 0 0 0-9.73-13.8c4.174-10.008 4.887-23.684 2.106-40.705a166.503 166.503 0 0 0-4.602-20.056c14.95-1 31.81.32 50.074 4.74zm-22.257 75.48l20.928 14.67a45.765 45.765 0 0 0 4.286 6.564l-13.464 14.63c-7.432-12.145-15.834-24.79-23.26-35.613l11.51-.252zm10.135-.224l5.326-.117c.262 1.242.65 2.85 1.208 4.697l-6.533-4.58zm4.842 41.442l14.306-15.546a35.82 35.82 0 0 0 4.758 3.75l-17.167 15.016c-.62-1.065-1.254-2.14-1.896-3.22zM22.91 173.948c2.628-2.297 4.284-1.924 8.104-.777 3.87 1.163 9.17 2.75 16.264-.795 9.792-4.896 31.1-8.328 37.133-9.228l11.34 13.607c-8.894-.45-25.51.415-51.573 8.034-11.816 2.726-13.06 2.872-24.086 1.198-.82-2.52-1.83-7.967 2.82-12.037zm22.53 38.782c-10.776 1.797-12.982 12.98-14.93 22.85-.685 3.476-1.394 7.07-2.424 10.162-1.16 3.48-2.973 7.86-5.387 13.022-.93 1.984-2.793 3.142-4.993 3.068-2.21-.063-4.017-1.324-4.837-3.373l-3.018-7.55a53.722 53.722 0 0 1-2.927-29.9l2.955-15.77c.056-.29.066-.59.034-.884-.237-2.132-.27-8.83 2.578-11.563 1.154-1.107 2.783-1.48 4.985-1.142 13.51 2.08 14.823 2.03 28.13-1.04a2.6 2.6 0 0 0 .17-.044c20.082-5.878 34.285-7.585 43.41-7.847-1.285 6.857-3.047 21.72 2.124 35.506-23.814-4.066-39.875-6.502-45.87-5.496zm140.506 87.513l5.36 2.6a.834.834 0 0 1-.015 1.508l-8.81 4.04a24.396 24.396 0 0 1-14.785 1.773c-9-1.734-21.686-4.502-31.795-7.965-7.512-12.68-6.988-53.08-5.96-71.528 4.7.635 8.51 1.02 10.992 1.02 2.568 0 5.138-.268 7.65-.77-4.25 26.454-7.6 60.117-7.636 60.474a3 3 0 0 0 3.498 3.25l.798-.137a67.07 67.07 0 0 1 40.703 5.736zm-28.7-35.06c.266.017 25.864 1.655 40.18 5.56.217.06.208.374-.012.423-11.95 2.65-34.72 4.998-48.737 4.518 1.472-12.93 3.737-31.304 6.286-46.602.43-.163.86-.325 1.282-.502l-1.808 33.447a3 3 0 0 0 2.808 3.157zm6.748-49.02c-6.414 7.024-16.118 9.526-23.062 9.526-6.4 0-23.323-2.927-41.24-6.02-.452-.08-.896-.157-1.344-.234-6.676-13.828-4.255-30.62-3.045-36.674 3.15.15 5.16.47 6.114.658l12.7 12.76a2.99 2.99 0 0 0 2.125.883 3 3 0 0 0 2.126-5.116l-13.215-13.28-34.54-41.446c-6.948-8.337-12.506-17.332-16.517-26.734-5.083-11.917-9.653-28.758-2.553-41.32 8.57-15.163 29.507-27.455 58.503-30.743 2.458 8.068 9.9 35.412 4.34 54.284-1.095-1.51-1.807-2.48-2.037-2.794a3 3 0 1 0-4.837 3.552c16.83 22.898 60.85 86.13 62.43 103.495.697 7.658-1.305 14.118-5.95 19.204zm34.363-50.027a3.065 3.065 0 0 0-.36.26l-24.626 20.766c-2.14-5.483-5.47-12.12-9.493-19.32l25.03-21.895c.253-.22.467-.482.633-.774.08-.144 8.293-14.518 18.55-27.82 12.46-16.157 22.937-24.12 28.754-21.867 7.845 3.05 11.902 6.04 13.157 9.69 1.485 4.318-.564 10.787-6.644 20.977-11.415 19.132-44.663 39.777-44.998 39.983zM341.94 143.46c-.987 12.845-10.53 22.332-28.367 28.2-14.758 4.854-30.987 5.856-39.347 6.02-.914.03-1.67-.655-1.772-1.563-.496-4.38-1.34-11.38-2.552-19.852a3 3 0 0 0-2.498-2.54c-16.388-2.608-25.252-10.847-27.525-13.24 3.38-3.68 6.37-7.475 8.63-11.26 4.565-7.652 7.083-13.582 7.76-18.49 2.607 3.89 3.977 6.298 4.042 6.416a3.002 3.002 0 0 0 2.62 1.54h10c.84 0 1.643-.353 2.21-.973.105-.113 10.5-11.31 24.378-14.086 7.287-1.456 21.787-.38 31.872 8.558 8.047 7.133 11.597 17.653 10.55 31.272z"/>
</svg>