<?xml version="1.0" encoding="UTF-8" standalone="yes"?>
<svg xmlns="http://www.w3.org/2000/svg" viewBox="0 0 468.887 468.887">
  <path d="M433.3 454.614c-3.59-2.1-7.882-4.303-12.423-6.634-8.122-4.17-21.715-11.15-22.53-14.415-2.197-8.788 5.286-30.654 9.307-42.4 1.1-3.217 2.05-5.995 2.655-8.01 10.48-34.94 5.562-50.964 1.697-57.405-8.514-14.19-51.624-10.202-66.568-8.353 8.683-32.88 5.267-54.66 4.186-59.93 1.432-2.785 4.47-10.245 1.887-19.534-3.02-10.848-12.497-20.28-28.176-28.046-.194-.096-1.632-.718-2.005-.892-5.768-2.68-7.823-7.323-8.542-10.63 5.213 1.183 13.527 2.016 17.143-3.407 2.37-3.554 2.78-12.962 2.85-15.76.21-8.414-.746-17.34-2.69-25.133-3.766-15.098-11.108-25.96-21.235-31.414-2.695-1.447-5.438-2.526-8.156-3.227a81.71 81.71 0 0 0-3.71-13.025c-5.875-15.54-14.477-37.616-22.363-55.316l.11-.38c4.445-15.065 8.645-29.293-1.06-46.328-1.335-2.342-3.64-3.902-6.33-4.28a8.715 8.715 0 0 0-7.36 2.402c-12.73 12.412-17.83 32.458-12.4 48.75l6 18c.023.065.05.132.075.197.163.394 11.173 27.405 15.59 60.312-3.804 4.043-6.883 8.856-8.557 13.448a20.11 20.11 0 0 0-.258.742c-2.18-1.208-5.206-2.607-8.487-3.29a15.596 15.596 0 0 0-3.174-.328c-5.503 0-10.52 2.877-13.42 7.698-12.12 20.143 17.045 59.447 18.292 61.11a3 3 0 0 0 2.4 1.2h.044c1.275 0 2.455-.798 2.826-2.018a3.197 3.197 0 0 0 .07-1.675c-.417-3.597-3.94-34.322-3.94-46.308 0-5.813 2.183-7.98 4.538-8.634 1.056 9.196 7.493 21.923 9.585 25.865-2.334 7.123-11.876 40.852 6.5 68.002.55 2.03 1.2 4.224 1.882 6.536 4.404 14.907 10.438 35.322 3.09 54.1-4.19 10.708-11.036 17.31-16.533 21.865-1.672 1.388-3.316 2.664-4.905 3.897-5.188 4.024-9.666 7.5-11.556 12.217-3.035 7.587-3.384 14.606-3.32 18.114-7.96 3.17-37.093 15.07-55.474 26.448-11.004 6.81-22.43 4.906-33.193 2.37a404.583 404.583 0 0 1-4.03-.974c-7.587-1.863-14.752-3.625-21.548-2.824-13.474 1.585-45.854 11.126-59.15 15.155a10.5 10.5 0 0 1-9.22-1.522c-3.032-2.17-6.917-2.854-10.394-1.83-7.392 2.178-12.983 8.496-14.245 16.093l-5.187 31.12c-.256 1.54-.293 3.114-.005 4.646.147.785.383 1.635.756 2.474 1.94 4.364 6.736 11.042 18.36 11.04a34 34 0 0 0 3.766-.216c7.43-.826 11.697-3.088 13.04-6.917 1.75-4.99-1.482-9.222-3.25-10.186-2.888-1.574-6.63-2.71-6.63-2.71l16.61-11.454a24.594 24.594 0 0 1 14.99-4.304l102.776 4.59c.056.002.113.003.17.002.842-.01 20.944-.326 46.537-7.573 23.203-6.57 55.22-20.323 77.386-48.585 10.44 3.127 33.143-4.695 55.73-13.107 1.206-.45 2.396-.892 3.522-1.308-3.827 8.733-5.953 21.92-6.335 39.38-.337 15.37.838 29.22 1.092 31.99l-4.204 18.216c-.41 1.773-.4 3.642.188 5.364 1.222 3.577 4.345 5.987 7.996 6.37l54.417 4.804c.29.03.575.045.858.045 3.352 0 6.215-2.1 7.228-5.41 1.03-3.4-.53-7.075-3.593-8.867zM249.05 160.33c0 8.135 1.504 24.03 2.674 35.163-8.25-13.54-17.63-33.737-11.227-44.38 1.806-3 4.9-4.79 8.28-4.79.65 0 1.307.067 1.95.2a21.05 21.05 0 0 1 3.61 1.127c-3.8 2.857-5.287 8.032-5.287 12.68zm16.385-11.038c0-.934.803-3.777.827-3.847.85-2.398 2.234-4.95 3.94-7.38.893 9.412 1.16 19.147.42 28.76-2.615-5.9-5.187-12.937-5.187-17.533zm9.816 29.037c.02-.05.025-.104.04-.155.043-.137.087-.273.11-.42l.008-.052v-.004c7.746-49.524-13.695-104.37-16.028-110.137-.09-.223-.172-.442-.248-.67l-5.85-17.55c-4.73-14.19-.25-31.688 10.897-42.555a2.765 2.765 0 0 1 2.33-.76c.49.07 1.397.332 1.954 1.31 8.44 14.817 4.77 27.256.52 41.66l-.427 1.447a2.977 2.977 0 0 0 .138 2.067c7.948 17.73 16.723 40.243 22.684 56.005a75.515 75.515 0 0 1 4.865 29.072l-1.417 48.277a106.568 106.568 0 0 0 2.684 27.1 3 3 0 0 0 2.92 2.325c.62 0 1.27-.192 1.847-.627.954-.72 1.323-1.982 1.055-3.148a100.622 100.622 0 0 1-2.51-25.473l1.418-48.278a82.336 82.336 0 0 0-.496-11.74 32.2 32.2 0 0 1 4.267 1.907c10.86 5.85 15.923 18.227 18.256 27.58 4.274 17.136 2.134 33.92.67 36.114-1.832 2.75-9.733 1.53-14.494-.16a3 3 0 0 0-4 2.596c-.387 5.037 1.805 15.462 12.435 20.378.94 4.304 3.043 18.37-7.295 26.494-10.982 8.628-27.475 2.494-31.12.97-18.182-27.267-5.346-63.217-5.213-63.578zm10.98 130.054c8.097-20.693 1.728-42.248-2.923-57.986l-.36-1.217c3.673 1.14 8.727 2.29 14.182 2.29 6.035 0 12.546-1.41 18.16-5.822 6.437-5.058 10.03-12.62 10.394-21.866a41.94 41.94 0 0 0-.203-5.97c11.154 6.358 17.95 13.61 20.22 21.61 2.446 8.61-1.27 15.125-1.72 15.87-.524.668-5.74 6.953-14.69 5.377a3 3 0 0 0-1.042 5.91c1.377.242 2.69.35 3.937.35 5.3 0 9.417-1.965 12.236-3.97 1.133 9.026 2.097 29.305-5.96 57.178-2.706 9.363-6.287 18.5-10.69 27.335-38.115 10.71-53.932-9.734-57.947-16.397 5.673-4.945 12.192-11.92 16.407-22.693zm-215.1 119.68L49.734 442.82a3 3 0 0 0-1.075 3.605c.333.828 1.063 1.434 1.902 1.74l8.603 3.128c1.284.467 2.355 1.436 2.834 2.715.196.522.272 1.008.145 1.365-.35.98-2.665 2.338-8.04 2.936-10.182 1.13-14.21-3.43-15.767-6.633-.054-.11-.115-.43-.177-.847-.3-2.022-.258-4.08.078-6.098l4.758-28.538c.888-5.345 4.822-9.79 10.023-11.323 1.718-.503 3.667-.147 5.21.957a16.682 16.682 0 0 0 14.45 2.384c13.142-3.98 45.114-13.41 58.108-14.937 5.715-.672 12.37.962 19.418 2.692.503.123 1.016.245 1.523.37l-2.95 29.006-58.982-2.632c-6.607-.304-13.227 1.608-18.664 5.358zm121.346-.774l-37.697-1.682 2.84-27.905c10.667 2.277 22.68 3.392 34.395-3.86 20.52-12.703 56.15-26.616 56.508-26.755a3.008 3.008 0 0 0 1.896-3.12c-.01-.084-.847-8.44 2.802-17.56 1.284-3.205 5.167-6.22 9.663-9.708.75-.583 1.516-1.18 2.292-1.79 2.145 3.33 6.247 8.6 12.932 13.12 9.295 6.28 19.593 8.444 29.37 8.444 5.807 0 11.42-.772 16.54-1.89a171.12 171.12 0 0 1-6.403 10.537c-.536.83-3.54 5.17-4.568 6.54-40.046 53.28-117.695 55.57-120.574 55.63zm177.554-68.886c-12.23 4.554-39.034 14.533-49.746 13.477.208-.297 1.806-2.627 2.356-3.48 9.23-14.02 16.292-29.055 21.023-44.716 4.444-.577 16.137-1.95 28.405-2.177 19.113-.357 31.788 2.317 34.795 7.33 5.817 9.696 3.684 27.165.965 39.84-13.075 2.11-22.81-1.164-26.946-2.986 1.11-2.653 2.38-4.8 3.802-6.412a2.998 2.998 0 0 0-2.742-4.944c-1.7.283-5.066 1.52-11.913 4.07zm61.103 103.37c-.123.372-.55 1.217-1.755 1.096l-54.416-4.803a3.375 3.375 0 0 1-2.425-1.414 3.38 3.38 0 0 1-.548-2.753l4.367-18.933c.074-.32.095-.647.063-.973-.014-.148-1.48-15.066-1.108-31.82.282-12.727 1.525-23.076 3.643-30.765 3.89 1.67 10.938 3.97 20.315 3.97 2.232 0 4.61-.15 7.09-.45a164.583 164.583 0 0 1-1.797 6.5c-.572 1.905-1.505 4.632-2.586 7.79-4.81 14.054-12.078 35.292-9.45 45.8 1.376 5.507 10.593 10.586 25.61 18.296 4.528 2.325 8.806 4.522 12.28 6.562 1.013.594.838 1.522.716 1.894z"/>
</svg>