<svg xmlns="http://www.w3.org/2000/svg" viewBox="0 0 448.477 448.477"><path d="M283.503 155.07c5.938-10.986 15.875-29.373 5.28-47.03-6.347-11.42-24.457-14.556-27.7-15.03l-10.44-4.746 5.252-11.448c3.006-6.572 2.524-13.945-.746-19.937.088-.315.164-.602.223-.836.175-.693 4.22-17.174-.906-33.83C251.49 12.54 240.227 1.646 226.533.16c-11.415-1.23-21.43 4.63-28.15 16.522-14.98 26.502 2.508 52.163 6.83 57.828-1.64 8.16-7.104 14.992-14.802 18.423-18.475 8.23-29.5 15.39-32.773 21.28-7.012 12.624 1.128 26.19 12.395 44.966 9.712 16.187 15.7 67.13 16.714 76.33-4.607 4.723-21.036 23.832-10.706 46.787 2.156 4.8 5.74 9.967 10.656 15.358l.05.053c5.823 6.368 12.902 12.41 19.836 17.683-4.705 7.484-17.225 30.672-9.692 55.42a355.39 355.39 0 0 0 3.538 10.996l-5.86 16.792a7.675 7.675 0 0 0 1.34 7.473 7.662 7.662 0 0 0 5.934 2.808c.382 0 .768-.028 1.154-.085l7.82-1.158a85.196 85.196 0 0 0 1.965 3.79l-.878 28.13a8.642 8.642 0 0 0 4.32 7.76 8.65 8.65 0 0 0 8.882-.135l4.146-2.57a20.75 20.75 0 0 0 8.31-25.578l-5.083-12.425 5.74-36.736c8.494-2.36 41.196-12.774 44.733-33.998 2.685-16.11-4.91-31.682-12.136-42.29 2.506-6.432 11.372-32.145 4.68-58.912-7.015-28.064.988-65.777 5.946-75.692.572-1.15 1.296-2.49 2.063-3.91zM258.998 98.65c.274.124.567.207.866.245.183.023 18.322 2.426 23.724 12.144 6.224 10.376 3.88 21.266-.033 30.468l-.007.01c-2.46 4.948-13.046 8.318-31.428 10.034a84.423 84.423 0 0 0 1.3-8.967c.682-7.555-.502-15.273-3.388-22.462l9.007-9.33a3.002 3.002 0 0 0-.075-4.24 3.003 3.003 0 0 0-4.242.073l-7.294 7.554-4.827-10.725 5.356-9.82 11.038 5.017zm-8.56-24.336L243.98 88.4l-5.914 10.847s-1.72 3.32-1.84 3.66c-1.627 4.55-13.045 35.568-26.152 47.583-1.74 1.6-3.236 2.333-4.19 2.074-.528-.144-2.388-1.06-4.156-6.827-1.425-4.657-1.796-9.608-1.165-14.49.063-.482.454-2.875.62-3.452.745-3.25 1.93-6.43 3.567-9.426l15.262-27.89 8.615-.854a8.916 8.916 0 0 0 6.077-3.267 8.92 8.92 0 0 0 1.97-6.615l-1.84-17.466a2.848 2.848 0 0 0-.317-1.033c-.09-.17-.712-1.004-.712-1.004l-8.338-10.19a4.93 4.93 0 0 1-1.015-4.14l2.986-14.332 2.9 9.67a13.15 13.15 0 0 0 5.677 7.408l8.203 5.08c6.946 4.305 9.62 13.152 6.223 20.578zm-29.276 10.02l.046-6.764a11.082 11.082 0 0 1 6.903-10.208l1.175-.48 1.42 13.49a2.964 2.964 0 0 1-.654 2.196 2.968 2.968 0 0 1-2.017 1.085l-6.87.68zm-45.712 72.09a10.66 10.66 0 0 1-.682-1.012c-11.308-18.867-16.92-29.228-11.887-38.287 2.517-4.527 13.44-11.348 29.972-18.713 9.936-4.427 16.85-13.458 18.496-24.158l.016-.104a3.008 3.008 0 0 0-.692-2.407c-.9-1.047-21.858-25.94-7.067-52.11 5.55-9.817 13.262-14.492 22.282-13.51 10.738 1.165 20.48 10.17 22.846 17.853 3.243 10.54 2.356 21.287 1.526 26.808a22.218 22.218 0 0 0-2.88-2.147l-8.204-5.082a7.17 7.17 0 0 1-3.092-4.035l-4.09-13.638c-.662-2.206-2.64-3.607-4.953-3.52-2.3.1-4.16 1.68-4.63 3.933L218.58 44.69a10.9 10.9 0 0 0 2.245 9.165l6.137 7.5-1.12.458a17.112 17.112 0 0 0-10.63 15.722l-.064 9.336-15.662 28.622a42.826 42.826 0 0 0-2.497 5.466l-6.156-9.275c-.897-1.353-2.715-1.892-4.113-1.066a3.003 3.003 0 0 0-.98 4.246l9.157 13.795c-1.095 6.305-.76 12.78 1.095 18.84 1.936 6.312 4.657 9.863 8.32 10.858a7.57 7.57 0 0 0 1.992.267c2.513 0 5.137-1.242 7.826-3.71 11.292-10.35 20.952-32.422 25.385-43.7l4.262 9.47c3.05 6.778 4.32 14.166 3.67 21.365-1.733 19.216-9.995 34.172-17.26 39.016-4.376 2.92-14.312 1.81-25.307-2.827-11.826-4.99-22.768-13.108-29.428-21.81zm26.665 246.43a1.708 1.708 0 0 1-1.587-.608 1.703 1.703 0 0 1-.3-1.672l3.414-9.782a223.09 223.09 0 0 0 4.537 11.165l-6.065.897zm30.446-35.67l-6.143 39.32c-.085.54-.02 1.094.188 1.6l5.4 13.198a14.768 14.768 0 0 1-5.916 18.206l-4.148 2.57c-1.218.753-2.308.28-2.72.04-.414-.238-1.37-.947-1.325-2.378l.906-28.977a3.014 3.014 0 0 0-.425-1.635c-.072-.12-7.352-12.47-15.75-40.066-6.616-21.734 4.453-42.933 8.81-50.08 9.867 7.103 18.732 12.363 22.288 14.405l-1.165 33.797zm44.47-32.3c-2.7 16.196-28.44 25.557-38.338 28.58l.92-26.686.106.06c.474.275.99.406 1.5.406a3 3 0 0 0 1.508-5.597s-6.043-3.466-8.51-4.937c-8.51-5.076-28.66-17.8-42.04-31.974 2.943-14.084 8.728-23.916 17.203-29.237 9.433-5.926 19.612-4.436 22.257-3.905 2.97 2.75 16.44 15.255 24.012 22.824 2.612 2.616 25.417 26.236 21.38 50.463zm-10.52-47.157c-3.2-4.05-5.807-6.738-6.62-7.55-6.912-6.912-18.655-17.86-23.047-21.937-1.06-.985-6.373-4.995-6.373-4.995l-7.487-5.43a3 3 0 0 0-3.523 4.856l3.356 2.435c-4.86.334-10.766 1.655-16.542 5.26-9.01 5.62-15.367 15.285-18.94 28.774-2.563-3.272-4.514-6.388-5.825-9.307-8.926-19.83 5.504-36.14 9.437-40.072 4.36.46 18.357 1.85 33.68 2.488 5.362.224 10.336.335 14.918.335 14.01 0 24.333-1.046 30.865-3.122 3.99 20.04-.99 39.432-3.9 48.263zm9.56-131.435c-4.708 9.417-13.63 46.777-6.985 77.295-15.273 5.29-57.84 2.29-76.478.32-1.017-9.153-4.922-41.513-11.486-63.18 12.907 10.65 29.99 17.89 42.17 17.89 4.067 0 7.59-.81 10.224-2.565 7.266-4.844 13.567-15.585 17.13-28.34.22-.018.443-.038.67-.058 9.04-.788 19.09-2.09 26.7-5.047a136.52 136.52 0 0 0-1.944 3.685z"/></svg>