<svg xmlns="http://www.w3.org/2000/svg" viewBox="0 0 474.185 474.185"><path d="M440.217 224.036c-.57-.394-14.225-9.623-38.096-6.508-16.517 2.158-37.608.12-55.035-5.32-6.383-1.994-13.157-3.103-20.134-3.295-8.092-.218-17.475-1.756-33.02-4.305-11.534-1.89-25.852-4.24-45.233-6.968-10.52-8.007-12.02-12.215-12.232-13.262l6.204-10.857 7.1 3.788c4.664 2.488 10.524 1.165 13.626-3.078 6.604-9.038 16.03-28.943 4.947-60.715a2.23 2.23 0 0 0-.04-.105c-3.824-9.773-12.876-14.94-24.84-14.172-13.55.87-27.786 9.228-29.863 17.538-.406 1.622-.672 3.422-.837 5.323-1.936-1.287-6.636-4.123-11.945-5.227a16.813 16.813 0 0 0-3.415-.353c-5.92 0-11.316 3.096-14.438 8.283-1.225 2.035-2.06 4.253-2.566 6.6l-17.6-14.89-16.752-26.608a2.966 2.966 0 0 0-.158-.227c-.26-.338-25.89-33.66-51.445-58.444.043-2.43.065-5.02.065-7.726-.01-.147-.02-.296-.032-.443-1.57-10.46-8.13-18.43-18.475-22.45a8.886 8.886 0 0 0-7.953.733 8.802 8.802 0 0 0-4.157 6.728l-1.44 15.516c-6.556.703-11.898 6-12.298 13.013-.296 5.188 2.527 10.063 7.005 12.702l.057.034c.865.51 1.79.892 2.746 1.15L59.6 54.38a5.994 5.994 0 0 1-.208 1.103c-2.185 7.563-18.967 65.452-25.547 82.216-1.11 2.84-1.438 5.97-.948 9.055 3.807 23.856 34.4 83.528 40.095 94.49-3.012 4.583-9.876 18.21-2.657 39.273.19.557.364 1.134.5 1.707 1.824 7.73 3.258 14.627 4.91 22.56 2.427 11.67 5.18 24.898 10.088 45.21.98 4.07 1.192 8.366.632 12.764-3.117 24.157 2.912 44.43 8.743 64.036 2.225 7.48 4.524 15.212 6.325 23.14l.654 9.838c.413 6.158 5.047 11.145 11.02 11.858.657.078 2.528.197 6.36.438 7.255.455 19.396 1.217 23.45 1.892.888.148 1.817.224 2.793.224 3.78 0 8.264-1.126 13.835-3.454a7.54 7.54 0 0 0 4.65-7.046 7.576 7.576 0 0 0-4.78-7.008l-33.17-13.273-6.803-80.662c1.27-5.18 10.87-45.49 7.448-66.194 25.376-8.234 84.83-32.965 117.38-60.824 21.733 4.11 56.006 5.448 82.117-1.12 27.885 7.49 59.366 5.205 62.99 4.91 2.515.257 18.608 1.6 34.087-4.205l15.854-5.944c.83-.31 1.55-.92 1.877-1.743a3.005 3.005 0 0 0-1.078-3.587zM220.09 144.394c-1.785-11.46-2.023-20.753-.67-26.165 1.308-5.234 12.837-12.264 24.427-13.006 6.58-.423 15.184 1.03 18.85 10.32 10.15 29.153 1.762 47.062-4.146 55.145-1.35 1.846-3.91 2.415-5.957 1.324l-9.672-5.158a2.997 2.997 0 0 0-4.015 1.16l-7.022 12.288c-6.557-.815-11.262-3.01-13.956-6.572-3.03-4.01-2.72-8.763-2.542-10.19l1.41-2.352a25.186 25.186 0 0 0 3.296-16.796zm4.007 99.1c-29.544 19.923-69.253 36.91-92.212 45.05-12.737-25.864-10.19-66.108-9.12-77.737 4.29.813 9.22 1.447 14.182 1.447 6.43 0 12.913-1.064 18.105-4.18 8.386-5.032 10.515-10.95 10.91-17.634 4.416-2.13 16.34-8.382 25.218-17.678 5.578 10.22 11.22 17.822 11.776 18.563a3 3 0 0 0 2.4 1.2h.044a3 3 0 0 0 2.895-3.693c-.265-2.28-1.778-15.46-2.94-28.454l3.982 3.37c-.212 2.847-.033 8.47 3.74 13.517 3.18 4.256 8.11 7.082 14.686 8.45-8.875 2.995-24.472 10.91-25.254 29.66-.703 16.927 11.407 25.043 21.587 28.118zM78.5 104.213c.448-7.703.997-17.142 1.794-28.572 1.72-.105 3.556-.6 5.29-1.936 2.853-2.202 4.875-6.25 6.282-12.75 17.917 30.23 28.43 40.255 34.393 42.906 5.27 11.88 22.392 41.75 31.74 58.057l2.393 4.18c-.864 6.435-.66 11.856-.48 16.667.365 9.706.566 15.053-7.95 20.163-12.164 7.298-34.718.613-39.53-.947-4.23-6.313-29.234-43.39-41.673-56.487 5.72-6.488 6.208-14.888 7.74-41.283zm132.75 23.916c.184 0 .994.027 1.313-.044.07 5.89.805 12.136 1.6 17.232a19.16 19.16 0 0 1-2.41 12.613l-7.094-6.004c-.407-5.416-.678-10.332-.678-13.806 0-8.692 4.554-9.99 7.268-9.99zm-23.144-.235c2.026-3.367 5.5-5.376 9.296-5.376.73 0 1.468.075 2.193.226 1.58.33 3.117.864 4.508 1.46-3.163 2.035-6.12 6.04-6.12 13.915 0 3.918.32 9.488.787 15.53v.002c.628 8.134 1.522 17.127 2.264 24.127-9.198-14.86-20.166-37.857-12.928-49.885zm-47.06-34.675l16.925 26.88c.165.26.367.493.602.69l21.233 17.967c.312 9.158 4.05 19.362 8.438 28.33-6.886 7.848-16.772 13.718-22.288 16.623l-.043-1.17c-.18-4.805-.386-10.252.565-16.594a2.995 2.995 0 0 0-.362-1.933l-2.908-5.08c-9.617-16.776-27.518-48.004-31.927-58.585a2.997 2.997 0 0 0-1.944-1.73c-6.665-1.907-20.433-19.92-36.013-47.084.392-3.575.68-7.59.877-12.115 23.148 23.21 45.31 51.81 46.846 53.8zm-84.86-56.746a7.783 7.783 0 0 1 6.51-6.874c.41-.066.84.02 1.194.24a7.42 7.42 0 0 1 3.463 5.878l.255 4.928c.016.312-.01.63-.114.925-.776 2.167-2.864 3.294-4.715 3.294a4.917 4.917 0 0 1-2.523-.696l-.05-.03c-2.686-1.583-4.362-4.563-4.022-7.664zm9.206 19.858a2.98 2.98 0 0 0 .104-.553l.5-5.407c3.817-1.17 6.815-4.36 7.6-8.44.046-.237.063-.48.05-.72l-.3-5.807c-.202-3.873-2.098-7.43-5.057-9.787l1.576-16.995c.114-1.243.89-1.9 1.344-2.18.79-.49 1.75-.577 2.623-.238 5.794 2.25 13.023 7.116 14.676 17.524-.002 3.074-.132 10.49-.158 11.365-.19 6.48-.56 12.085-1.1 16.694l-.008.073c-1.366 11.782-3.65 15.798-5.327 17.092-.923.713-1.966.864-3.986.576a3.003 3.003 0 0 0-3.414 2.758c-.914 12.797-1.52 23.21-2.005 31.577-.606 10.452-1.06 17.82-1.672 23.23l-25.32-4.85c8.234-25.503 19.28-63.844 19.874-65.913zm57.003 391.955l34.893 13.96c.9.36 1.004 1.157 1.007 1.483.003.318-.086 1.098-.96 1.463-5.842 2.44-10.2 3.374-13.332 2.85-4.357-.728-16.214-1.47-24.06-1.963-2.833-.178-5.508-.346-6.027-.408-3.107-.37-5.523-3.022-5.743-6.3l-.67-10.07a2.978 2.978 0 0 0-.067-.46c-1.852-8.206-4.203-16.11-6.477-23.757-3.077-10.344-6.053-20.394-7.796-30.878l23.097 1.044 4.26 50.503a2.997 2.997 0 0 0 1.875 2.534zm-1.797-153.057c4.76 19.042-6.882 66.072-7 66.545-.08.32-.106.65-.08.98l2.233 26.467-23.447-1.06c-.896-7.81-1.014-15.925.11-24.64.654-5.128.402-10.15-.75-14.935-4.887-20.22-7.628-33.398-10.047-45.024-1.732-8.328-3.23-15.52-5.19-23.756a28.543 28.543 0 0 0-.333-.99c-7.638-21.99 1.84-34.315 2.646-35.306 1.476-1.532 6.3-5.674 10.1-5.674a3 3 0 0 0 0-6c-4.422 0-8.688 2.66-11.45 4.847-7.342-14.27-35.123-69.27-38.57-90.87-.322-2.03-.11-4.08.61-5.923 1.152-2.937 2.595-7.054 4.205-11.894l26.305 5.037c-1.06 5.163-2.63 7.743-5.426 10.23a3 3 0 0 0-.034 4.452c11.597 10.63 43.213 57.976 43.53 58.453.36.537.88.944 1.488 1.16.36.13 3.17 1.116 7.355 2.173-.474 4.804-1.32 15.543-.99 28.566.546 21.717 4.015 39.326 10.306 52.44-1.263.415-2.447.793-3.546 1.13a3 3 0 0 0-2.026 3.594zm300.858-65.537c-15.093 5.66-31.436 3.848-31.596 3.83a3 3 0 0 0-.614-.01c-.335.03-33.818 2.854-61.94-4.903a3.01 3.01 0 0 0-1.55-.012c-27.628 7.163-63.972 4.5-81.66.962a3 3 0 0 0-2.563.684c-3.308 2.895-6.927 5.757-10.777 8.573-4.687-.7-23.024-4.632-22.25-23.19.367-8.81 4.782-15.76 13.123-20.664 4.36-2.563 8.732-3.9 11.17-4.51 2.133 3.178 6.02 7.283 12.91 12.448.404.305.88.502 1.382.572 19.705 2.766 34.21 5.144 45.867 7.056 15.794 2.59 25.328 4.153 33.827 4.382 6.425.176 12.652 1.194 18.51 3.025 18.478 5.765 40.01 7.837 57.6 5.54 12.78-1.666 22.333.58 27.988 2.682l-9.43 3.536z"/></svg>