<?xml version="1.0" encoding="UTF-8" standalone="yes"?>
<svg xmlns="http://www.w3.org/2000/svg" viewBox="0 0 454.158 454.158">
  <path d="M446.77 276.823a6.48 6.48 0 0 0-4.865-4.495 6.584 6.584 0 0 0-6.366 2.16c-.21.245-.415.49-.61.733a63.637 63.637 0 0 0-2.72-9.95c-.694-1.92-2.556-3.186-4.566-3.123a4.72 4.72 0 0 0-4.4 3.35c-6.89 22.588-15.947 38.052-24.23 41.366-13.016 5.2-83.554-2.152-110.144-5.485-2.482-.946-16.308-5.925-30.39-5.098a37.457 37.457 0 0 1-13.066-1.54c-19.224-5.787-62.65-11.523-74.578-13.033.607-5.405 1.48-17.284-.394-31.132-1.798-13.29-7.87-38.676-9.164-44.02 1.47-3.705 5.886-16.76-.707-25.99-6.63-9.29-53.24-22.548-66.114-26.065l-9.022-26.464 4.324-6.848c2.51-3.976 1.513-9.273-2.3-12.085-11.38-8.398-38.03-28.062-60.262-13.99-12.372 7.83-20.37 20.455-21.945 34.64-1.12 10.098 1.406 19.323 6.76 24.676 3.464 3.463 7.22 6.45 11.04 8.854-2.09 5.412-4.175 13.432-4.175 23.91 0 20.955 11.742 40.643 12.242 41.47a3 3 0 0 0 3.05 1.41c.045-.006.087-.022.132-.03-6.547 17.82-13.19 36.705-14.773 44.046-.23 1.063-.68 2.1-1.337 3.085-5.632 8.417-9.757 26.857-13.395 43.125-1.25 5.596-2.434 10.88-3.568 15.256-3.034 11.72.14 19.032 3.335 23.103a12.325 12.325 0 0 0 9.578 4.72c10.957.137 38.018-.18 52.5-6.31a3 3 0 0 0 1.512-4.11c-2.608-5.2-13.85-7.124-32.054-9.672-5.636-.79-11.426-1.6-14.83-2.462.265-2.175.915-4.564 1.85-7.13 1.496 1.74 3.535 3.195 6.084 4.28 3.972 1.69 7.893 1.98 8.058 1.992l.146.006c.322.007 2.372.046 5.46.046 9.92 0 30.54-.402 38.988-3.57a3.002 3.002 0 0 0 .94-5.05c-5.74-5.104-33.554-10.01-43.66-11.652v-16.93c.32-.573.637-1.135.96-1.715 9.134-16.442 10.732-31.667 10.99-35.242l25.61-44.516c.725.797 1.57 1.734 2.513 2.79l.09.1c17.84 20.02 29.232 36.34 31.257 44.772 1.986 8.28 1.915 16.517 1.824 26.946-.086 9.865-.184 21.047 1.442 35.362 1.062 9.355 4.767 16.567 11.01 21.44 10.25 7.997 23.724 6.754 25.517 6.548l135.596-3.052c6.105-.143 12.165 1.155 18.01 3.84 5.604 2.58 11.72 3.886 18.18 3.886 15.703 0 90.57-10.687 98.366-13.512 2.98-1.086 7.05-.47 11.763.25 3.133.48 6.373.972 9.794 1.043 5.244.156 9.835-3.546 10.886-8.69 3.287-16.117-.538-47.266-6.173-66.247zm-45.527 35.61c12.688-5.078 21.717-26.66 26.538-41.386 1.025 3.55 1.92 7.912 2.01 12.497.01.476-.02.95-.07 1.422-.655 5.855-5.265 38.597-26.406 39.68-14.513.75-49.015-1.486-76.213-3.565l.123-9.49c17.34 1.62 37.044 3.067 52.162 3.066 9.908 0 17.852-.622 21.86-2.223zm-390.03-182.02c1.372-12.362 8.367-23.38 19.19-30.232 18.765-11.88 43.1 6.08 53.524 13.774a3.02 3.02 0 0 1 .755 4.03l-11.106 16.883c-.824 1.21-.76 2.877.28 3.906a3.003 3.003 0 0 0 4.608-.427l2.762-4.052 8.063 23.648a3.002 3.002 0 0 0 2.06 1.93 594.268 594.268 0 0 1 27.62 8.214c1.736.564 3.097 1.988 3.47 3.777a1.03 1.03 0 0 1-.708 1.216c-1.392.416-5.124.777-14.314-1.636-6.29-1.652-12.276-3.866-14.11-4.563-2.424-2.507-5.077-4.536-7.84-5.915-4.947-2.476-12.744-2.992-22.507 7.628l-6.66-7.01a3 3 0 0 0-3.72-.507c-11.727 7.038-26.456-1.01-36.333-10.888-4.015-4.012-5.945-11.588-5.037-19.77zm21.264 87.746c-3.312-7.298-7.604-19.05-7.604-30.967 0-9.105 1.698-16.122 3.48-20.984 1.14.54 2.276 1.03 3.4 1.445 2.718 7.08 4.326 13.324 4.636 18.102.514 7.95-2.075 22.998-3.914 32.4zm9.9-32.79c-.292-4.498-1.5-9.837-3.578-15.904 5.25.737 10.234.037 14.727-2.098l5.584 5.877c-4.853 6.464-8.524 13.71-10.437 18.642a2667.38 2667.38 0 0 0-10.19 26.853c1.888-9.714 4.444-24.873 3.893-33.373zM70.98 332.654c-10.9 1.367-26.598 1.457-33.36 1.325-.792-.073-9.035-.955-11.016-5.956-.338-.854-.265-1.816.142-2.64 1.844-3.732 4.03-7.722 6.385-11.917v8.843a2.998 2.998 0 0 0 2.54 2.965c11.048 1.714 26.088 4.65 35.31 7.38zm7.333-118.406a3.003 3.003 0 0 0-4.784.56l-28 48.67c-.243.42-.38.892-.4 1.376-.005.16-.74 16.155-10.283 33.332-1.476 2.653-2.936 5.235-4.353 7.742-8.584 15.176-15.364 27.162-15.364 37.044a3 3 0 0 0 1.848 2.77c3.348 1.393 10.27 2.362 18.29 3.485 6.12.857 17.084 2.392 23.213 4.26-14.727 3.92-37.035 3.98-44.26 3.89a6.346 6.346 0 0 1-4.94-2.428c-2.357-3.006-4.663-8.55-2.244-17.894 1.16-4.473 2.352-9.806 3.615-15.45 3.35-14.978 7.52-33.616 12.526-41.1 1.082-1.618 1.827-3.354 2.216-5.158 2.814-13.06 23.825-68.31 28.877-81.29 1.865-4.812 5.896-12.7 11.12-19.1a.106.106 0 0 1 .007-.01c4.576-5.617 11.31-11.666 17.396-8.623 5.65 2.82 10.837 9.145 13.877 16.92 3.017 7.712 3.31 15.333.783 20.384-4.087 8.175-11.717 12.985-15.24 14.864-2.356-2.61-3.824-4.17-3.897-4.248zm7.988 8.853c4.52-2.587 12.108-7.97 16.517-16.785 3.32-6.644 3.116-15.848-.563-25.255a45.827 45.827 0 0 0-2.625-5.564c6.182 1.992 13.423 3.83 19.107 3.83 3.68 0 6.708-.77 8.365-2.77 1.19-1.433 1.618-3.207 1.305-5.302 13.57 4.733 24.975 9.558 27.283 12.79 5.57 7.8-.23 20.89-.29 21.016a3 3 0 0 0-.183 1.956c.073.3 7.35 30.086 9.28 44.358 2.075 15.334.567 28.423.123 31.668-3.01 3.558-20.038 22.456-46.182 28.05-.143-5.453-.1-10.425-.06-15.092.09-10.41.168-19.403-1.99-28.398-2.848-11.87-19.06-31.908-30.085-44.504zM306.457 354.64c-6.354-2.92-12.953-4.398-19.63-4.398-.34 0-.68.004-1.02.012L150.06 353.31c-.105 0-.217.01-.322.023-.125.015-12.502 1.524-21.252-5.333-4.906-3.845-7.835-9.686-8.707-17.36a218.9 218.9 0 0 1-1.11-13.463c27.6-5.5 45.533-24.44 50.05-29.686 9.24 1.164 55.614 7.17 74.96 12.998a43.58 43.58 0 0 0 15.15 1.783c13.858-.82 28.04 4.77 28.185 4.825.236.094.485.158.737.19 3.527.444 16.94 2.1 33.475 3.73l-.124 9.603a2931.09 2931.09 0 0 1-30.983-2.593c-2.57-.92-16.993-5.926-29.107-6.78-4.233-.3-8.155-1.192-11.656-2.656-17.564-7.343-60.95-18.54-79.322-17.943a3 3 0 0 0-2.9 3.095c.052 1.657 1.458 2.947 3.094 2.902 17.62-.552 59.71 10.333 76.813 17.48 4.104 1.717 8.662 2.762 13.55 3.106 12.206.86 27.683 6.508 27.838 6.565.246.09.504.148.765.172 1.6.146 19.233 1.74 40.613 3.352l-1.832 30.384c-2.418.178-4.406.276-5.847.276-5.588 0-10.86-1.123-15.676-3.337zm140.607-12.772c-.47 2.304-2.53 3.895-4.882 3.892-3.03-.064-6.07-.527-9.015-.976-5.294-.807-10.296-1.57-14.718.042-5.953 2.157-58.4 9.844-84.43 12.352l1.774-29.42c21.545 1.573 45.606 3.035 60.595 3.035 2.736 0 5.175-.05 7.235-.154 24.67-1.267 30.664-33.964 31.892-43.543a11.5 11.5 0 0 1 1.533-4.456 31.286 31.286 0 0 1 3.05-4.25.557.557 0 0 1 .56-.195c.283.06.342.26.364.334 5.427 18.287 9.15 48.102 6.04 63.337z"/>
</svg>