<?xml version="1.0" encoding="UTF-8" standalone="yes"?>
<svg xmlns="http://www.w3.org/2000/svg" viewBox="0 0 64 64">
  <path d="M1.312 36.99c.014 1.175 1.78 1.137 1.86 1.135a6.633 6.633 0 0 1 6.493-7.938 6.633 6.633 0 0 1 6.623 6.625 6.57 6.57 0 0 1-.378 2.18c7.372-.483 30.583-.31 31.564-.2.124.013.38.01.732-.006a6.693 6.693 0 0 1-.17-1.474c0-3.688 3-6.688 6.69-6.688 3.655 0 6.632 2.95 6.682 6.595l1.148-.486c.254-.107.217-.117-.028-.244-.284-.146-.457-.6.28-1.908.932-1.652.066-2.85-.49-3.39-.197-.19-.38-.542-.384-.818-.062-4.014-1.59-5.398-2.376-5.845-.24-.138-.236-.236.036-.283 3.586-.62 1.16-.583.84-1.542-.333-1-2.5.083-3.625.375-.415.11-1.72.34-3.204.592.07-.075.11-.153.09-.236-.06-.23-.13-.414-.198-.556a2.79 2.79 0 0 0-.6-.793c-.263-.22-.69-.44-1.303-.338a.91.91 0 0 0-.526.31c-.03-.05-.06-.1-.09-.137-.253-.345-.705-.745-1.384-.585-.784.184-1.125 2.054-1.262 3.187a7.638 7.638 0 0 1-.817.055h-4.25c.872-1.11-.14-1.795-.948-1.85-.217-.014-.53.117-.875.312a1.206 1.206 0 0 0-.895-.58c-.537-.048-1.78 1.294-2.37 1.972a.446.446 0 0 0-.08.145h-11v-1.405a.875.875 0 0 0-1.75 0v1.405h-1.958c-.276 0-.335-.152-.134-.34 1.268-1.192 5.388-5.11 5.176-5.534-.144-.287.03-.74.202-1.072.127-.245.104-.595-.126-.748-.39-.26-1.076-.567-2.044-.443a3.682 3.682 0 0 0-.954.28c-2.1 1.027-7.265 5.48-8.702 6.735-.208.182-.6.347-.875.37-12.235 1.03-13.96 5.014-14.183 6.424-.043.273-.212.63-.385.844-1.045 1.304-.44 3.87-.127 4.928.08.265.07.69.072.967z"/>
  <path d="M43.664 22.003c0-1.123-.602-2.034-1.344-2.034-.45 0-.848.337-1.092.853-.192-.33-.47-.543-.783-.543-.578 0-1.047.71-1.047 1.586 0 .875.47.57 1.047.57.225 0 .43.045.602.05.174.49.675.25 1.273.25.743 0 1.344.39 1.344-.733zm6.058-.983c.225 0 .43.045.602.05.174.49.675.248 1.273.248.742 0 1.344.39 1.344-.732s-.6-2.034-1.342-2.034c-.45 0-.848.34-1.092.855-.192-.33-.47-.543-.783-.543-.578 0-1.047.71-1.047 1.585s.468.57 1.047.57zM9.664 42.438a5.625 5.625 0 0 0 5.625-5.625 5.624 5.624 0 1 0-5.627 5.625zm45.063-10.813a5.688 5.688 0 0 0-5.688 5.688c0 .488.066.96.182 1.41A5.684 5.684 0 0 0 54.727 43c3.04 0 5.518-2.39 5.673-5.392.005-.1.015-.196.015-.296a5.688 5.688 0 0 0-5.688-5.687z"/>
</svg>