<svg xmlns="http://www.w3.org/2000/svg" width="64" height="64" viewBox="0 0 64 64"><path d="M61.74 35.924l-.226-1.474-.093-.108c-5.087-5.953-9.582-6.258-11.273-6.373-.17-.013-.356-.025-.45-.04-.752-.596-3.767-1.263-4.477-1.263h-.004c-.24.016-.497.096-.768.18-.573.178-1.286.342-1.863.074-1.23-.57-3.946-.587-4.252-.587l-2.64.645c-2.204-.798-6.033-2.55-7.11-3.047v-1.038l-.23-.147c-.464-.294-.946-.443-1.436-.443-1.128 0-1.963.79-2.312 1.188-1.004-.024-4.655.043-8.124 2.256-2.38 1.52-3.33 1.942-3.67 2.06l-.033-.046-.032.01-.367-.405a1.496 1.496 0 0 0 1.06-1.427v-.875c0-.827-.673-1.5-1.5-1.5H9.062c-.49 0-.924.24-1.198.606-.2-.277-.573-.545-1.302-.545-.554 0-1.13-.013-1.69-.025-.535-.012-1.056-.024-1.528-.024-1.156 0-2.594 0-2.594.924v6.42l3.188.79v-.64c0-2.417 2.498-2.985 2.604-3.01l.185-.04.112-.15c.064-.086.19-.262.33-.482l.61 1.794-3.446.98.577 5.443.286.11c.19.073 2.903 1.117 5.544 1.962a4.92 4.92 0 0 1-.567-.71 4.78 4.78 0 0 1-.35-.645 4.834 4.834 0 0 1-.447-2.01c0-2.688 2.187-4.875 4.875-4.875s4.876 2.187 4.876 4.875a4.848 4.848 0 0 1-1.343 3.34 4.88 4.88 0 0 1-.586.518 4.834 4.834 0 0 1-.86.53c4.172-.165 21.356-.442 30.672-.576l.238-.002a4.93 4.93 0 0 1-.548-.493 4.834 4.834 0 0 1-1.323-3.317c0-2.69 2.187-4.876 4.875-4.876s4.875 2.187 4.875 4.875a4.83 4.83 0 0 1-.96 2.877c-.127.172-.26.34-.41.494-.173.18-.368.34-.568.493a496.6 496.6 0 0 0 5.834.05c2.086 0 3.282-.035 3.762-.108.56-.087.864-.318.9-.687.02-.246.068-.748-1.945-1.51z"/><path d="M14.448 38.167a3.817 3.817 0 0 0 1.623-.456c1.217-.653 2.055-1.923 2.055-3.398 0-2.137-1.738-3.875-3.875-3.875s-3.875 1.738-3.875 3.875c0 .957.362 1.822.938 2.5.276.323.6.6.968.82a3.83 3.83 0 0 0 1.97.555c.068 0 .13-.016.198-.02zM50.25 38.188c.143 0 .28-.027.418-.042a3.89 3.89 0 0 0 2.173-.972 3.85 3.85 0 0 0 1.284-2.86c0-2.138-1.738-3.876-3.875-3.876s-3.875 1.738-3.875 3.875a3.855 3.855 0 0 0 1.89 3.31c.438.265.93.44 1.456.512.176.023.35.053.53.053z"/></svg>