<?xml version="1.0" encoding="UTF-8" standalone="yes"?>
<svg xmlns="http://www.w3.org/2000/svg" viewBox="0 0 64 64">
  <path d="M51.625 28.188c-4.71 0-8.727 2.932-10.35 7.066-1-.167-1.844-.225-2.358-.087l-.083-1.25s2-.333 2.333-3.25C41.5 27.75 47.583 21 52.417 20.25c4.833-.75 9-2.417 9-2.417s-3.083.583-8.917 1.25-11.417 9.083-15 9.417c-3.583.333-6.364-1.984-14.667-8.417-.304-.235-.593-.338-.856-.363l.595-1.382a3.24 3.24 0 0 1-1.698-2.838c0-.145.024-.284.043-.425-.078.093-.152.19-.203.31L15.28 27.997a11.085 11.085 0 0 0-4.156-.81C4.98 27.188 0 32.168 0 38.312s4.98 11.125 11.125 11.125 11.125-4.98 11.125-11.125c0-3.638-1.754-6.858-4.453-8.887l2.814-6.533c.546.727 3.067 4.21 4.474 8.358 1.583 4.667 2.75 8.833 9.833 7.25 1.81-.405 3.755-.486 5.65-.386-.042.394-.067.793-.067 1.198 0 6.144 4.98 11.125 11.125 11.125s11.125-4.98 11.125-11.125-4.98-11.124-11.125-11.124zM19.25 38.312c0 4.48-3.645 8.125-8.125 8.125S3 42.793 3 38.312c0-4.48 3.645-8.125 8.125-8.125 1.048 0 2.047.206 2.967.57l-3.01 6.986c-.25.58-.04 1.226.466 1.445l.804.346c.507.22 1.12-.074 1.37-.653l2.84-6.588a8.094 8.094 0 0 1 2.688 6.02zm32.375 9.126c-4.48 0-8.125-3.645-8.125-8.125 0-.303.02-.602.052-.897 4.235.612 7.614 1.834 7.614 1.834s1.834.833 2.584-.667-1.583-1.5-3.167-1.833c-.87-.183-3.645-1.118-6.332-1.828 1.29-2.79 4.106-4.734 7.375-4.734 4.48 0 8.125 3.645 8.125 8.125s-3.645 8.125-8.125 8.125z"/>
  <path d="M22.022 14.72c-.09.243-.147.504-.147.78 0 .818.44 1.527 1.093 1.92.34.206.732.33 1.157.33a2.25 2.25 0 0 0 0-4.5c-.967 0-1.784.613-2.103 1.47z"/>
</svg>