<?xml version="1.0" encoding="UTF-8" standalone="yes"?>
<svg xmlns="http://www.w3.org/2000/svg" viewBox="0 0 64 64">
  <path d="M11.114 52.03c5.398 0 9.773-4.377 9.773-9.774 0-.34-.017-.673-.05-1.003l3.937-.692s.133-.176 1.104.796c.415.415.98.468 1.495.4.916.31 2.988.906 5.38.906 1.858 0 3.902-.36 5.73-1.5 2.788-1.738 4.436-4.902 4.935-9.378a19.55 19.55 0 0 1 3.76-3.232l1.075 3.206c-3.38 1.538-5.734 4.937-5.734 8.892 0 5.398 4.375 9.773 9.772 9.773s9.773-4.376 9.773-9.773c0-5.398-4.376-9.773-9.773-9.773-.737 0-1.452.088-2.143.243l-1.208-3.597c3.766-1.92 6.883-1.89 6.883-1.89l1.17.64 3.887.31c-2.34-2.717-11.572-2.232-11.572-2.232l1.966-.33s-.066-2.12-1.28-4.726c-1.216-2.606-2.54-4.13-2.54-4.13-.122.137-.2.298-.264.465.022-1.795.045-3.59.183-5.38.002-.025-.007-.042-.008-.065a.414.414 0 0 0-.24-.492C46.404 9.34 45.69 9.04 44.876 9c-.22-.01-.425.16-.482.367a7.53 7.53 0 0 0-.214 2.865c-.08-.162-.16-.324-.248-.484-.135-.244-.37-.28-.573-.206-.23-.04-.49.05-.592.326-.164.448-.52.75-.54 1.268-.028.815.92 1.345 1.52 1.67a.486.486 0 0 0 .333.046c.296 1.194.393 2.427.32 3.693-1.823 1.183-1.12 2.262-1.12 2.262l-.33.563s-1.724-2.45-7.355 1.193c-5.63 3.644-10.07 1.325-13.78 0-3.71-1.325-17.358-1.656-17.358-1.656 6.714 1.016 9.673 6.537 9.673 6.537l-5.3-3.268c-2.34.22-1.723 2.694-1.723 2.694l9.76 5.963c1.9-.707 4.064 1.413 4.064 1.413l2.033 3.578-2.784.793c-1.446-3.593-4.956-6.132-9.066-6.132-5.398 0-9.773 4.376-9.773 9.773 0 5.396 4.377 9.77 9.774 9.77zM52.29 33.875a6.78 6.78 0 0 1 6.774 6.773 6.78 6.78 0 0 1-6.773 6.772 6.78 6.78 0 0 1-6.772-6.773 6.774 6.774 0 0 1 3.696-6.027l2.13 6.344a1 1 0 0 0 1.895-.637l-2.13-6.345a6.86 6.86 0 0 1 1.18-.11zM45.355 13.98c.305-.24.6-.47.88-.716-.04 1.48-.047 2.96-.078 4.44a11.75 11.75 0 0 0-.728.295 12.717 12.717 0 0 0-.51-3.9.57.57 0 0 0 .436-.12zM34.712 29.606c4.658-1.397 6.238.706 6.735 1.83-.412 3.9-1.752 6.608-4.015 8.023-2.966 1.854-6.853 1.13-8.72.61.206-2.738 1.2-9.022 6-10.463zm-23.598 5.876c2.73 0 5.083 1.628 6.154 3.96l-7.335 2.09.265 1.59 7.664-1.347c.01.16.024.318.024.48a6.78 6.78 0 0 1-6.773 6.773 6.78 6.78 0 0 1-6.773-6.774 6.782 6.782 0 0 1 6.774-6.773z"/>
  <path d="M40.233 33.163H31.42l-1.457 6.228c8.88 1.657 10.27-6.227 10.27-6.227z"/>
</svg>