<svg xmlns="http://www.w3.org/2000/svg" viewBox="0 0 475.939 475.939"><path d="M475.56 192.42c-10.252-42.766-29.992-48.824-40.82-48.61-17.194.32-27.09 9.286-32.367 16.752-4.027 5.7-6.474 12.082-7.62 18.01-2.03-1.053-4.622-2.158-7.403-2.738-6.34-1.323-12.867 1.582-16.255 7.217-6.913 11.492-.324 29.136 7.354 43.133-13.778 2.43-31.51 5.116-47.97 6.27-25.006 1.755-42.116 9.475-50.09 13.92a11.095 11.095 0 0 1-7.326 1.247l-7.03-1.262a53.963 53.963 0 0 0-23.02.826l-3.597.916a7.25 7.25 0 0 0-4.753 3.89 7.246 7.246 0 0 0-.072 6.144l.91 2.01a54.676 54.676 0 0 0-14.746.577c-8.352.704-22.96-4.49-24.013-4.87-1.982-.83-30.32-12.652-43.387-15.028-11.368-2.067-54.79-1.52-67.83-1.302a7.38 7.38 0 0 1-4.52-1.486l-4.197-3.2a12.3 12.3 0 0 0-14.606-.265 15.72 15.72 0 0 1-8.387 2.872l-32.874.993a8.094 8.094 0 0 0-7.343 5.468 8.096 8.096 0 0 0 2.385 8.838l.314.27-8.255.105c-3.47.043-6.444 2.185-7.58 5.456-1.142 3.29-.128 6.835 2.583 9.032 7.276 5.896 19.284 13.36 35.166 15.432 9.363 1.22 22.79 1.828 37.006 2.47 28.31 1.28 60.398 2.728 76.475 9.24 2.578 1.042 5.612 2.3 9.023 3.716 28.92 11.996 81.172 33.675 115.897 33.674 2.34 0 4.602-.1 6.77-.305 10.394-.99 21.6-1.283 33.466-1.593 30.348-.793 61.716-1.61 82.553-14.477 10.503-.342 18.558-3.993 23.95-10.86 10.612-13.517 7.124-34.946 6.22-39.527l8.897-26.704c4.076-2.46 18.068-12.045 18.93-28.154 2.685-.58 5.434-1.204 8.204-1.857a13.308 13.308 0 0 0 8.332-6.02 13.41 13.41 0 0 0 1.625-10.22zm-82.86-4.495a5 5 0 0 1 1.284-.84c.058 2.69.428 5.106 1.085 7.073 3.527 10.6 16.096 15.074 22.462 16.694l-2.127 5.048-12.98 5.592c-.95.21-4.54.993-9.956 2.067-1-9.99-2.044-21.984-2.044-28.467 0-3.376.765-5.787 2.275-7.168zm-16.463-1.78c2.108-3.507 5.988-5.247 9.89-4.437 1.183.247 2.34.625 3.415 1.057-.266.197-.53.41-.79.642-2.87 2.56-4.327 6.493-4.327 11.685 0 6.84 1.1 19.373 2.128 29.61-.607.116-1.232.232-1.865.35-6.215-10.963-14.448-28.94-8.45-38.908zM240.06 255.66c-.212-.468-.084-.87.012-1.07.095-.198.33-.55.827-.676l3.596-.916a48.068 48.068 0 0 1 20.48-.735l7.03 1.262c3.844.692 7.858.012 11.307-1.912 7.538-4.202 23.743-11.502 47.588-13.175 16.204-1.137 33.605-3.733 47.37-6.135-11.423 4.513-26.633 9.543-42.695 12.08-27.27 4.306-60.32 15.354-73.265 19.905a12.734 12.734 0 0 1-7.607.27l-10.145-2.765c-.64-.175-1.29-.32-1.936-.47l-2.563-5.663zm2.91 11.92l10.157 2.768a18.764 18.764 0 0 0 11.162-.398c12.782-4.493 45.43-15.412 72.22-19.642 33.285-5.255 62.105-20.396 64.496-21.675l6.63-2.856c3.917 1.457 18.576 8.018 20.516 24.877l-2.535 7.61c-5.253 6.78-10.537 10.173-15.69 10.016-3.612-.097-6.707-1.91-8.972-3.788 2.805-.13 5.107-.122 6.647.1a3 3 0 0 0 3.423-3.092c-.048-1.5-1.272-2.68-2.76-2.874-6.365-.837-20.818.926-36.11 2.79-13.467 1.64-27.395 3.337-34.78 3.083-3.28-.117-6.49.488-9.55 1.79-14.245 6.055-55.32 17.316-69.112 17.316-13.17 0-32.575-6.325-39.025-8.562l-2.684-5.958a1.24 1.24 0 0 1 .034-1.107c.107-.204.365-.56.893-.656l3.68-.67a48.338 48.338 0 0 1 21.36.924zm95.14 2.935c-2.22.338-4.38.58-6.44.752a16.292 16.292 0 0 1 5.496-.77c.3.01.627.013.945.017zm-143.62-9.104c.04.018 8.666 3.16 16.87 4.593a7.21 7.21 0 0 0 .172 5.548l.497 1.102a206.412 206.412 0 0 1-19.503-4.462 31.28 31.28 0 0 1-5.754-2.267c-13.93-7.132-31.802-10.655-49.57-12.17l.035-8.13c6.843.227 12.2.582 15.044 1.1 12.615 2.293 41.913 14.562 42.207 14.686zm-174.596-13.22c-.996-.856-.77-1.91-.628-2.324.144-.415.62-1.382 1.893-1.438l32.873-.993a21.73 21.73 0 0 0 11.628-3.968 6.324 6.324 0 0 1 7.51.137l4.198 3.198c2.36 1.8 5.316 2.78 8.255 2.713 15.36-.255 32.344-.334 45.614-.054l-.035 7.85c-22.984-1.405-45.03.276-57.276 1.574a7.983 7.983 0 0 1-7.455-3.448c-3.76-5.513-11.366-7.028-16.955-3.38l-3.227 2.11a15.757 15.757 0 0 1-8.434 2.57l-12.487.156-5.473-4.705zm19.095 28.893c-14.493-1.89-25.49-8.735-32.166-14.144-1.105-.896-.81-2.065-.693-2.4.148-.424.635-1.41 1.988-1.426l29.813-.375a21.743 21.743 0 0 0 11.642-3.545l3.227-2.108a6.293 6.293 0 0 1 3.45-1.023c2.037 0 4.046.97 5.267 2.76a13.982 13.982 0 0 0 13.044 6.033c25.736-2.73 46.4-2.543 62.62-1.02-1.134 5.564-2.992 16.46-2.092 24.492-17.274-2.903-39.38-3.905-59.597-4.818-14.086-.637-27.39-1.238-36.5-2.426zm277.703 47.154c-11.97.313-23.28.608-33.878 1.618-32.858 3.124-91.58-21.23-119.798-32.938-3.43-1.423-6.48-2.688-9.07-3.737-3.577-1.448-7.85-2.655-12.62-3.674-1.37-6.523.49-18.43 1.848-25.02 23.157 2.822 36.048 8.312 40.865 10.778a37.443 37.443 0 0 0 6.856 2.7 213.028 213.028 0 0 0 21.694 4.876c.883.15 4.76 1.77 7.383 2.65 8.228 2.76 25.846 8.115 38.74 8.115 11.487 0 37.522-6.556 55.815-12.292.775.072 2.246.19 4.252.27l-.01 46.597c-.693.02-1.386.037-2.077.055zm101.94-23.045c-4.32 5.5-11.013 8.382-19.893 8.577-1.206-.234-5.86-1.18-10.27-2.65a3 3 0 1 0-1.898 5.693c1.202.4 2.41.76 3.572 1.084-17.445 8.02-41.373 9.417-65.376 10.12l.01-46.365c10.175-.16 25.65-1.802 38.285-9.1 3.237-.377 6.538-.78 9.815-1.18 7.008-.853 14.125-1.72 20.222-2.295 2.35 2.868 8.29 8.953 16.615 9.2.177.005.352.008.528.008 4.728 0 9.345-1.898 13.8-5.645.982 6.43 2.442 22.55-5.41 32.552zm49.95-101.33c-1.08 1.55-2.765 2.58-4.604 3.012a449.162 449.162 0 0 1-10.173 2.272 2.99 2.99 0 0 0-2.378 3.015c.54 16.31-16.685 25.734-16.854 25.824-.68.36-1.195.97-1.44 1.7l-1.524 4.577c-3.913-9.29-11.178-14.75-16.563-17.682l3.838-1.654a2.997 2.997 0 0 0 1.578-1.59l4.004-9.502a3 3 0 0 0-2.316-4.13c-4.955-.75-18.457-4.63-21.393-13.448-1.79-5.365-.95-17.67 6.513-28.236 4.476-6.334 12.893-13.943 27.578-14.216.15-.003.295-.004.44-.004 20.766 0 30.483 27.526 34.435 44.014a7.45 7.45 0 0 1-1.14 6.046z"/></svg>