<svg xmlns="http://www.w3.org/2000/svg" viewBox="0 0 467.993 467.993"><path d="M328.507 0c-1.602 0-5.855 0-20.973 26.73-.073.13-.137.264-.19.402-.035.095-3.678 9.592-7.416 20.223a33.704 33.704 0 0 1-8.11 12.783c-12.77 12.51-24.845 25.46-33.647 35.185-10.39-.58-29.828 3.745-38.354 24.455-4.308 10.48-5.944 18.285-6.538 23.267-4.68 4.353-9.566 8.65-14.408 12.524-18.972 15.177-20.597 37.354-22.17 58.8-.396 5.42-.808 11.027-1.49 16.48-2.534 20.28-13.605 33.353-19.1 37.427a2.93 2.93 0 0 0-.104.082c-1.052.845-25.677 20.99-19.057 44.87 3.976 14.334 18.22 28.354 42.337 41.672 15.87 8.765 33.07 15.607 45.07 20.107-14.11 5.154-22.244 16.327-26.764 25.638-8.058 16.618-13.462 26.522-24.19 41.275l-.06.085-1.925 2.85a8.12 8.12 0 0 0-1.275 6.766 8.117 8.117 0 0 0 4.422 5.347c8.762 4.117 26.162 11.023 44.26 11.023 16.644 0 20.468-4.93 21.245-12.883.397-4.09-2.04-7.852-5.93-9.148l-25.134-8.375 55.226-46.843c.102-.086.197-.178.286-.277.438-.485 10.706-12.028 9.763-25.836-.505-7.41-4.105-13.98-10.7-19.534-12.298-10.36-27.25-19.658-40.44-27.862-11.683-7.265-21.87-13.6-26.054-18.182 1.106-5.308 10.48-15.45 19.563-25.28 7.092-7.674 15.13-16.372 21.474-24.98 14.17-19.225 3.303-61.09-1.183-75.844a240.36 240.36 0 0 1 2.132-2.535c2.246 2.88 5.42 4.925 9.09 5.78 1.263.293 2.533.438 3.794.438 3.752 0 7.408-1.28 10.41-3.71 7.867-6.382 17.9-17.434 21.01-33.846 1.29-6.777 1.488-13.028.59-18.58a2.963 2.963 0 0 0-.66-1.423c8.49-13.655 17.682-32.587 24.324-46.268.995-2.048 1.932-3.978 2.8-5.753 1.28-2.62 3.178-4.554 5.623-5.74 2.994-1.428 5.194-4.143 6.036-7.446 3.766-14.767 10.085-40.732 10.085-48.72C332.173.5 329.61 0 328.507 0zM225.365 122.06c5.99-14.548 18.27-19.565 27.285-20.587-5.225 5.873-8.385 9.574-8.463 9.666-.152.175-10.258 11.814-23.47 24.788.958-3.828 2.42-8.45 4.648-13.868zm34.35 227.626c5.292 4.456 8.178 9.61 8.577 15.32.74 10.552-7.073 20.09-8.114 21.31l-59.12 50.144a3 3 0 0 0 .993 5.134l30.192 10.06a2.732 2.732 0 0 1 1.856 2.875c-.392 4.004-.73 7.464-15.274 7.464-16.93 0-33.398-6.55-41.705-10.45a2.11 2.11 0 0 1-1.164-1.406 2.11 2.11 0 0 1 .348-1.795l.06-.087 1.924-2.844c10.976-15.1 16.495-25.21 24.705-42.144 4.837-9.965 14.313-22.34 31.985-24.706a3 3 0 0 0 .64-5.79l-2.1-.77c-12.5-4.59-36.482-13.393-56.794-25.46 13.002-4.365 33.236-12.864 41.25-25.454l1.997 1.242c13.02 8.097 27.776 17.275 39.745 27.356zm-46.857-31.797c-3.467 5.234-13.73 15.717-42.798 24.476-13.345-8.84-24.127-19.19-27.33-30.74-4.713-16.996 10.62-32.755 15.55-37.285l34.637 19.125c-1.236 2.39-1.94 4.58-1.94 6.558 0 .667.222 1.315.63 1.842 3.48 4.47 11.207 9.7 21.25 16.024zm64.622-179.936c-2.773 14.63-11.806 24.555-18.893 30.304a10.518 10.518 0 0 1-9.064 2.092c-2.707-.63-4.984-2.283-6.394-4.605 4.82-5.452 10.09-11.122 15.26-16.673 6.224-6.683 12.1-12.995 16.823-18.54a66.918 66.918 0 0 0 3.274-4.214c.11 3.598-.218 7.488-1.007 11.636zm38.793-85.573c-.4 1.575-1.424 2.856-2.822 3.524-3.645 1.767-6.555 4.71-8.412 8.51-.87 1.78-1.81 3.714-2.807 5.768-8.71 17.944-21.877 45.06-31.586 56.46-4.637 5.442-10.47 11.707-16.646 18.34-7.978 8.57-16.227 17.43-22.727 25.416 0 .003-.004.006-.006.01-6.935 8.54-10.74 14.68-11.953 19.292-.377 1.436.222 2.99 1.565 3.624a3 3 0 0 0 4.21-1.98c.722-2.897 3.17-7.134 7.294-12.63 6.702 23.744 10.516 53.49.912 66.518-6.145 8.34-14.064 16.91-21.05 24.47-6.51 7.043-12.258 13.27-16.136 18.668l-33.05-18.247c5.39-5.31 15.514-17.79 18.106-38.53.7-5.604 1.118-11.29 1.52-16.785 1.547-21.09 3.007-41.013 19.934-54.554 22.512-18.01 45.873-44.92 46.12-45.207.223-.26 22.452-26.297 47.282-50.628a39.75 39.75 0 0 0 9.568-15.074 859.534 859.534 0 0 1 6.283-17.228 34.264 34.264 0 0 1 2.482-5.21c3.895-6.67 8.323-13.52 11.438-17.54-1.09 7.893-4.478 23.26-9.517 43.013z"/></svg>