<?xml version="1.0" encoding="UTF-8" standalone="yes"?>
<svg xmlns="http://www.w3.org/2000/svg" viewBox="0 0 437.948 437.948">
  <path d="M434.017 366.59l-34.807-13.31c2.483-11.205 11.984-55.305 11.182-70.733a28.67 28.67 0 0 1 .305-6.042c1.213-7.513 2.89-19.614 4.487-31.608 3.352-1.282 9-3.77 13.747-7.486 9.756-7.63 9.704-15.53 7.94-20.81-5.327-15.99-28.36-49.678-32.562-55.75l2.17-25.21c.274-3.178 2.648-5.705 5.773-6.144 5.92-.833 10.62-2.953 13.968-6.303 2.203-2.203 3.013-5.73 2.406-10.484-1.903-14.928-16.678-38.4-35.638-49.555-6.6-3.882-14.386-5.2-22.508-3.81-7.234 1.237-14.52 4.638-20.51 9.575-9.19 7.57-14.08 17.324-13.84 26.8-2.232-1.22-5.273-2.6-8.56-3.285a16.035 16.035 0 0 0-3.26-.337c-5.657 0-10.815 2.958-13.797 7.913-12.5 20.78 17.63 61.387 18.92 63.105a3 3 0 0 0 2.4 1.2h.043a3 3 0 0 0 2.896-3.693c-.426-3.662-4.078-35.51-4.078-47.927 0-8.08 4.206-9.288 6.713-9.288.036 0 .058 0 .09.002.024.072.04.146.066.22 8.096 22.935 19.36 29.772 29.623 33.72v1.93c-6.168 4.258-27.72 23.135-30.88 80.55-.37 6.75-2.697 13.15-6.727 18.51-6.15 8.18-13.1 11.668-23.236 11.668-17.965 0-41.718 7.968-52.97 23.208-17.872 6.642-47.156 15.704-59.055 19.333a26.327 26.327 0 0 1-8.956 1.127c-13.547-.653-60.714-1.147-99.075 19.83-.965.528-1.835.924-2.662 1.212-5.718 1.992-10.653 1.662-14.67-.986-4.833-3.19-11.285-3.322-16.433-.336L4.046 341.513c-3.167 1.837-4.66 5.324-3.808 8.883.853 3.555 3.76 5.982 7.41 6.182a415.5 415.5 0 0 0 22.636.634c11.058 0 23.303-.48 35.242-1.914 31.42-3.772 106.39-6.458 121.1-6.958a36.52 36.52 0 0 1 5.928.28c13.115 1.7 81.276 8.568 135.183-23.517a294.963 294.963 0 0 0 19.807-12.902l1.75 9.935a9.36 9.36 0 0 0 9.065 7.728l16.125.247c-1.142 12.1-1.126 24.015 1.19 33.557.993 4.09 3.848 7.522 7.635 9.18 11.025 4.83 23.542 6.294 34.66 6.294 5.252 0 10.193-.325 14.515-.777 2.86-.3 5.034-2.417 5.408-5.27.375-2.86-1.182-5.474-3.876-6.503zM324.69 112.692c0 8.52 1.597 25.278 2.813 36.81-8.598-14.035-18.554-35.26-11.852-46.398 1.89-3.135 5.124-5.007 8.657-5.007.68 0 1.365.07 2.04.21 1.365.285 2.7.735 3.923 1.243-4.013 2.913-5.58 8.306-5.58 13.143zm91.402 125.33a4062.52 4062.52 0 0 0 3.24-25.38 44.21 44.21 0 0 0-.037-11.283c-.32-2.4-.754-5.33-1.322-8.43 5.74 9.486 11.078 19.18 13.206 25.565 3.212 9.64-8.03 16.358-15.09 19.527zm-81.723 3.924c4.746-6.314 7.486-13.848 7.922-21.787 3.405-61.87 29.04-76.44 29.28-76.57a3 3 0 0 0 1.608-2.657v-5.675a3 3 0 0 0-1.986-2.825c-7.8-2.796-19.583-7.022-27.978-30.806-3.906-11.068 2.896-21.762 10.565-28.08 9.34-7.696 24.147-12.294 36.16-5.225 18.778 11.044 31.273 33.702 32.73 45.14.4 3.13-.1 4.885-.696 5.484-3 2.998-7.398 4.158-10.56 4.603-5.91.83-10.4 5.59-10.915 11.57l-1.79 20.777c-5.396-3.994-11.915-7.984-15.814-8.373-5.638-.557-11.04 2.726-16.534 10.05-7.485 9.98-10 25.703-6.406 40.053 2.808 11.21 8.827 19.705 17.035 24.105l9.547 48.325c-17.17 18.627-37.297 34.987-59.876 48.675-15.73-16.847-17.232-52.576-17.33-62.836 10.53-.68 18.348-5.054 25.04-13.953zm42.307 71.597l-6.83-1.938-3.397-14.038a273.917 273.917 0 0 0 17.13-15.764c-2.13 8.053-4.858 19.453-6.902 31.74zm-311.027 5.2c3.89 2.564 10.508 4.932 19.948 1.64 1.14-.397 2.308-.924 3.565-1.612 24.944-13.64 53.87-17.85 74.102-18.96l-2.484 8.76c-21.983.376-52.767 3.34-77.71 15.047-6.996 3.284-15.1 2.8-21.672-1.296a37.5 37.5 0 0 1-3.314-2.33 13.71 13.71 0 0 0-2.368-1.493c3.165-1.747 7.04-1.663 9.936.246zm-.84 30.6c-20.646 2.476-42.305 2.044-56.833 1.245-1.395-.077-1.797-1.137-1.906-1.59-.083-.355-.264-1.57.985-2.294 0 0 39.145-22.703 39.196-22.73 2.585-1.413 5.755-1.133 8.126.733 1.245.98 2.54 1.89 3.85 2.705 8.308 5.178 18.55 5.788 27.395 1.636 20.488-9.616 45.217-13.106 65.32-14.147l-4.76 29.037c-27.85 1.25-62.41 3.13-81.37 5.406zm128.515-6.674a42.263 42.263 0 0 0-6.905-.327c-5.26.18-18.202.637-34.114 1.324l4.756-29.017c12.37-.37 22.4.133 27.646.505a32.19 32.19 0 0 0 11.42-1.23c16.438-4.846 56.037-16.612 68.677-21.208a3 3 0 0 0 1.885-2.092c3.712-14.846 16.933-17.53 17.5-17.64a3 3 0 0 0-1.086-5.9c-.694.125-16.607 3.212-21.802 20.51-14.33 5.023-54.535 16.938-66.87 20.574a26.227 26.227 0 0 1-9.3 1c-3.835-.273-10.18-.61-18.102-.64l2.547-8.98c6.793-.19 12.18-.04 15.493.12a32.283 32.283 0 0 0 10.995-1.38c12.143-3.706 42.322-13.047 60.26-19.774a2.994 2.994 0 0 0 1.405-1.09c9.143-13.073 29.628-20.488 45.593-21.336.038 4.674.35 14.006 2.004 24.69 2.84 18.353 8.24 32.125 16.06 41.054-51.67 28.907-115.556 22.46-128.062 20.835zM358.45 323.86a3.355 3.355 0 0 1-3.25-2.77l-2.258-12.815a283.714 283.714 0 0 0 8.36-6.472l3.124 12.913a3.002 3.002 0 0 0 2.097 2.18l9.228 2.618a230.16 230.16 0 0 0-.612 4.6l-16.69-.255zm73.41 48.53c-12.755 1.335-31.11 1.544-46.146-5.04-2.083-.913-3.657-2.82-4.212-5.1-7.4-30.49 10.948-89.785 11.135-90.38a3 3 0 0 0 .08-1.478l-13.92-70.457a3 3 0 0 0-3.72-2.317c-1.552.41-2.45 2.052-2.137 3.63l2.375 12.015c-4.422-3.977-7.726-9.844-9.54-17.09-3.124-12.472-.96-26.536 5.387-34.998 4.07-5.426 7.814-8.015 11.138-7.678 1.635.16 4.685 1.776 7.954 3.874 5.3 3.4 9.83 7.87 13.34 13.102.034.052.69 1.045.97 1.495a46.22 46.22 0 0 1 5.6 13.168c1.47 5.852 2.45 11.735 3.05 16.05.546 3.917.578 7.877.08 11.8-1.715 13.52-6.058 47.308-8.52 62.56a34.703 34.703 0 0 0-.374 7.31c.86 16.53-11.484 71.082-11.61 71.63a3 3 0 0 0 1.855 3.468l37.292 14.255c.02.043.007.15-.077.18z"/>
</svg>