<?xml version="1.0" encoding="iso-8859-1"?>
<!-- Generator: Adobe Illustrator 17.1.0, SVG Export Plug-In . SVG Version: 6.00 Build 0)  -->
<!DOCTYPE svg PUBLIC "-//W3C//DTD SVG 1.1//EN" "http://www.w3.org/Graphics/SVG/1.1/DTD/svg11.dtd">
<svg version="1.1" id="Capa_1" xmlns="http://www.w3.org/2000/svg" xmlns:xlink="http://www.w3.org/1999/xlink" x="0px" y="0px"
	 viewBox="0 0 439.324 439.324" style="enable-background:new 0 0 439.324 439.324;" xml:space="preserve">
<path d="M413.287,424.048c-5.908-27.291-26.989-52.391-59.608-71.184c0.005-0.272,0.021-0.542,0.021-0.814v-10.241
	c0-22.399-18.223-40.622-40.621-40.622c-16.573,0-30.851,9.981-37.161,24.245c-13.134-2.407-26.714-3.97-40.523-4.653v-48.02h13.186
	c14.253,0,25.85-11.596,25.85-25.85c0-9.949-5.653-18.598-13.913-22.917V59.415C260.517,26.653,233.862,0,201.099,0h-27.144
	c-23.745,0-43.063,19.318-43.063,43.063c0,23.696,19.278,43.014,43.013,43.063c0.263,0,0.486,0.221,0.486,0.482v11.266h-0.434
	c-8.755,0-15.878,7.123-15.878,15.879V135.5c0,8.756,7.123,15.879,15.878,15.879h0.434v0.866h-0.434
	c-8.755,0-15.878,7.123-15.878,15.879v21.745c0,8.755,7.123,15.878,15.878,15.878h0.434v18.306
	c-8.195,4.34-13.794,12.955-13.794,22.856c0,14.254,11.596,25.85,25.85,25.85h9.805v48.47c-11.173,0.813-22.169,2.205-32.869,4.155
	c-6.321-14.238-20.585-24.198-37.14-24.198c-22.398,0-40.621,18.223-40.621,40.622v10.241c0,0.22,0.013,0.437,0.017,0.657
	c-32.879,18.87-54.085,44.123-59.937,71.585c-0.306,1.433-1.042,6.43,2.3,10.559c1.652,2.041,4.854,4.474,10.732,4.474H402.4
	c4.166,0,7.311-1.279,9.346-3.803C414.919,431.589,413.818,426.499,413.287,424.048z M240.671,415.71H194.13
	c-13.063,0-23.653-10.59-23.653-23.653s10.59-23.653,23.653-23.653h46.541c13.063,0,23.653,10.59,23.653,23.653
	S253.734,415.71,240.671,415.71z"/>
<g>
</g>
<g>
</g>
<g>
</g>
<g>
</g>
<g>
</g>
<g>
</g>
<g>
</g>
<g>
</g>
<g>
</g>
<g>
</g>
<g>
</g>
<g>
</g>
<g>
</g>
<g>
</g>
<g>
</g>
</svg>
