<?xml version="1.0" encoding="iso-8859-1"?>
<!-- Generator: Adobe Illustrator 17.1.0, SVG Export Plug-In . SVG Version: 6.00 Build 0)  -->
<!DOCTYPE svg PUBLIC "-//W3C//DTD SVG 1.1//EN" "http://www.w3.org/Graphics/SVG/1.1/DTD/svg11.dtd">
<svg version="1.1" id="Capa_1" xmlns="http://www.w3.org/2000/svg" xmlns:xlink="http://www.w3.org/1999/xlink" x="0px" y="0px"
	 viewBox="0 0 482 482" style="enable-background:new 0 0 482 482;" xml:space="preserve">
<path d="M395.987,224.795c-3.586-12.984-15.496-22.551-29.606-22.551h-20.565c-14.318,0-26.378,9.849-29.765,23.127H257.5v-73.403
	h26.663c8.788,0,16.968-3.466,23.033-9.761c6.064-6.294,9.226-14.596,8.9-23.376l-0.843-22.773
	c-0.357-9.659-8.493-17.188-18.136-16.841c-9.658,0.358-17.198,8.477-16.841,18.135l0.727,19.615H255
	c-17.921,0-32.5,14.58-32.5,32.5v75.903h-56.55c-3.387-13.278-15.447-23.127-29.765-23.127h-20.565
	c-14.129,0-26.054,9.593-29.621,22.605C38.308,226.439,0,265.724,0,313.793c0,49.075,39.925,89,89,89
	c34.668,0,64.766-19.926,79.452-48.925h145.123c14.696,28.97,44.779,48.872,79.425,48.872c49.075,0,89-39.925,89-89
	C482,265.665,443.684,226.376,395.987,224.795z M64.063,326.771c-3.438,3.438-8.008,5.331-12.869,5.331s-9.432-1.893-12.869-5.331
	c-7.096-7.096-7.096-18.642,0-25.738c3.438-3.438,8.008-5.331,12.869-5.331s9.432,1.893,12.869,5.331s5.331,8.008,5.331,12.869
	C69.395,318.764,67.501,323.334,64.063,326.771z M101.761,364.468c-3.438,3.438-8.008,5.331-12.869,5.331s-9.432-1.893-12.869-5.331
	c-7.096-7.096-7.096-18.642,0-25.738c3.438-3.438,8.008-5.331,12.869-5.331s9.432,1.893,12.869,5.331
	C108.856,345.826,108.856,357.372,101.761,364.468z M101.978,288.857c-3.438,3.438-8.008,5.331-12.869,5.331
	s-9.432-1.893-12.869-5.331c-7.096-7.096-7.096-18.643,0-25.738c3.438-3.438,8.008-5.331,12.869-5.331s9.432,1.893,12.869,5.331
	C109.073,270.215,109.073,281.761,101.978,288.857z M139.675,326.555c-3.438,3.438-8.008,5.331-12.869,5.331
	s-9.432-1.893-12.869-5.331s-5.331-8.008-5.331-12.87c0-4.861,1.894-9.432,5.331-12.87c3.438-3.437,8.008-5.33,12.869-5.33
	s9.432,1.893,12.869,5.331C146.771,307.912,146.771,319.458,139.675,326.555z M393,354.24c-22.332,0-40.5-18.168-40.5-40.5
	s18.168-40.5,40.5-40.5s40.5,18.168,40.5,40.5S415.332,354.24,393,354.24z"/>
<g>
</g>
<g>
</g>
<g>
</g>
<g>
</g>
<g>
</g>
<g>
</g>
<g>
</g>
<g>
</g>
<g>
</g>
<g>
</g>
<g>
</g>
<g>
</g>
<g>
</g>
<g>
</g>
<g>
</g>
</svg>
