<?xml version="1.0" encoding="iso-8859-1"?>
<!-- Generator: Adobe Illustrator 17.1.0, SVG Export Plug-In . SVG Version: 6.00 Build 0)  -->
<!DOCTYPE svg PUBLIC "-//W3C//DTD SVG 1.1//EN" "http://www.w3.org/Graphics/SVG/1.1/DTD/svg11.dtd">
<svg version="1.1" id="Capa_1" xmlns="http://www.w3.org/2000/svg" xmlns:xlink="http://www.w3.org/1999/xlink" x="0px" y="0px"
	 viewBox="0 0 419.039 419.039" style="enable-background:new 0 0 419.039 419.039;" xml:space="preserve">
<path d="M339.034,0H80.005c-8.271,0-15,6.729-15,15v389.039c0,8.271,6.729,15,15,15h259.028c8.271,0,15-6.729,15-15V15
	C354.034,6.729,347.305,0,339.034,0z M108.49,60.738c0-5.5,4.5-10,10-10h182.06c5.5,0,10,4.5,10,10v105.782c0,5.5-4.5,10-10,10
	H118.49c-5.5,0-10-4.5-10-10V60.738z M108.49,224.395c0-2.681,2.194-4.875,4.875-4.875h192.31c2.681,0,4.875,2.194,4.875,4.875
	v20.142c0,2.681-2.194,4.875-4.875,4.875h-192.31c-2.681,0-4.875-2.194-4.875-4.875V224.395z M182.255,340.658h-15.88v15.88
	c0,9.197-7.482,16.68-16.679,16.68s-16.679-7.482-16.679-16.68v-15.88h-15.88c-9.197,0-16.679-7.482-16.679-16.679
	s7.482-16.679,16.679-16.679h15.88V291.42c0-9.196,7.482-16.679,16.679-16.679s16.679,7.482,16.679,16.679v15.881h15.88
	c9.197,0,16.679,7.482,16.679,16.679S191.452,340.658,182.255,340.658z M283.487,359.073c-19.351,0-35.094-15.743-35.094-35.094
	s15.743-35.094,35.094-35.094c19.351,0,35.094,15.743,35.094,35.094S302.838,359.073,283.487,359.073z"/>
<g>
</g>
<g>
</g>
<g>
</g>
<g>
</g>
<g>
</g>
<g>
</g>
<g>
</g>
<g>
</g>
<g>
</g>
<g>
</g>
<g>
</g>
<g>
</g>
<g>
</g>
<g>
</g>
<g>
</g>
</svg>
