<?xml version="1.0" encoding="iso-8859-1"?>
<!-- Generator: Adobe Illustrator 17.1.0, SVG Export Plug-In . SVG Version: 6.00 Build 0)  -->
<!DOCTYPE svg PUBLIC "-//W3C//DTD SVG 1.1//EN" "http://www.w3.org/Graphics/SVG/1.1/DTD/svg11.dtd">
<svg version="1.1" id="Capa_1" xmlns="http://www.w3.org/2000/svg" xmlns:xlink="http://www.w3.org/1999/xlink" x="0px" y="0px"
	 viewBox="0 0 412.595 412.595" style="enable-background:new 0 0 412.595 412.595;" xml:space="preserve">
<path d="M338.309,301.403h-13.495c-5.757-13.236-16.811-25.279-32.479-35.083c-15.776-9.872-35.057-16.706-56.037-20.043v-116.39
	c22.726-11.137,38.416-34.503,38.416-61.471C274.713,30.691,244.021,0,206.297,0s-68.416,30.691-68.416,68.416
	c0,26.169,14.775,48.942,36.416,60.445v117.763c-20.201,3.447-38.765,10.14-54.037,19.696
	c-15.669,9.804-26.722,21.848-32.479,35.083H74.286c-11.028,0-20,8.972-20,20v71.191c0,11.028,8.972,20,20,20h264.022
	c11.028,0,20-8.972,20-20v-71.191C358.309,310.375,349.336,301.403,338.309,301.403z M304.404,382.799h-34.219
	c-9.605,0-17.391-7.786-17.391-17.391s7.786-17.391,17.391-17.391h34.219c9.605,0,17.391,7.786,17.391,17.391
	S314.008,382.799,304.404,382.799z"/>
<g>
</g>
<g>
</g>
<g>
</g>
<g>
</g>
<g>
</g>
<g>
</g>
<g>
</g>
<g>
</g>
<g>
</g>
<g>
</g>
<g>
</g>
<g>
</g>
<g>
</g>
<g>
</g>
<g>
</g>
</svg>
