<?xml version="1.0" encoding="utf-8"?>
<!-- Generator: Adobe Illustrator 16.0.0, SVG Export Plug-In . SVG Version: 6.00 Build 0)  -->
<!DOCTYPE svg PUBLIC "-//W3C//DTD SVG 1.1//EN" "http://www.w3.org/Graphics/SVG/1.1/DTD/svg11.dtd">
<svg version="1.1" xmlns="http://www.w3.org/2000/svg" xmlns:xlink="http://www.w3.org/1999/xlink" x="0px" y="0px" width="50px"
	 height="50px" viewBox="0 0 50 50" enable-background="new 0 0 50 50" xml:space="preserve">
<g id="Layer_2" display="none">
	<rect x="2.5" y="2.5" display="inline" fill="none" stroke="#999999" stroke-miterlimit="10" width="45" height="45"/>
</g>
<g id="Layer_1">
	<path d="M46.554,28.667H45.3c-0.31-1.568-0.863-3.71-1.739-4.846c-4.1-5.317-9.248-8.171-15.719-8.171
		c-4.193,0-6.924,0.41-8.346,1.253c-0.192,0.114-0.758,0.449-2.287,3.524c-2.232,0.035-8.136,0.44-10.967,3.631
		c-1.421,1.601-1.986,3.322-2.204,4.608H3.446c-0.523,0-0.946,0.424-0.946,0.947s0.423,0.947,0.946,0.947h0.473
		c0.004,0.052,0.008,0.091,0.009,0.102c0.05,0.48,0.457,0.846,0.94,0.846H6.06c0.732,1.67,2.397,2.841,4.335,2.841
		s3.603-1.171,4.337-2.841h18.064c0.732,1.67,2.397,2.841,4.335,2.841s3.603-1.171,4.335-2.841h3.192c0.007,0,0.013,0,0.018,0
		c0.523,0,0.948-0.424,0.948-0.948h0.93c0.523,0,0.946-0.424,0.946-0.947S47.077,28.667,46.554,28.667z M10.395,32.456
		c-1.566,0-2.841-1.275-2.841-2.842s1.274-2.842,2.841-2.842c1.568,0,2.844,1.275,2.844,2.842S11.963,32.456,10.395,32.456z
		 M27.188,21.438c0,0.262-0.211,0.474-0.474,0.474l-7.357,0c-0.162,0-0.313-0.085-0.4-0.223c-0.088-0.139-0.096-0.312-0.024-0.458
		c0.347-0.714,0.976-1.951,1.277-2.208c1.002-0.637,3.011-0.939,6.023-0.939c0.164,0,0.328,0.002,0.493,0.005
		c0.257,0.006,0.462,0.217,0.462,0.474V21.438z M28.137,21.438v-2.741c0-0.135,0.058-0.264,0.159-0.354
		c0.101-0.09,0.235-0.135,0.37-0.117c3.334,0.392,5.898,1.495,6.863,2.95c0.097,0.146,0.105,0.332,0.023,0.486
		s-0.243,0.25-0.418,0.25H28.61C28.349,21.912,28.137,21.7,28.137,21.438z M37.131,32.456c-1.566,0-2.842-1.275-2.842-2.842
		s1.275-2.842,2.842-2.842s2.842,1.275,2.842,2.842S38.697,32.456,37.131,32.456z"/>
</g>
</svg>
