<?xml version="1.0" encoding="utf-8"?>
<!-- Generator: Adobe Illustrator 16.0.0, SVG Export Plug-In . SVG Version: 6.00 Build 0)  -->
<!DOCTYPE svg PUBLIC "-//W3C//DTD SVG 1.1//EN" "http://www.w3.org/Graphics/SVG/1.1/DTD/svg11.dtd">
<svg version="1.1" xmlns="http://www.w3.org/2000/svg" xmlns:xlink="http://www.w3.org/1999/xlink" x="0px" y="0px" width="50px"
	 height="50px" viewBox="0 0 50 50" enable-background="new 0 0 50 50" xml:space="preserve">
<g id="Layer_2" display="none">
	<rect x="2.5" y="2.5" display="inline" fill="none" stroke="#999999" stroke-miterlimit="10" width="45" height="45"/>
</g>
<g id="Layer_1">
	<path d="M25,11.835c-12.407,0-22.5,10.094-22.5,22.5v2.871c0,0.529,0.428,0.957,0.957,0.957h43.086
		c0.529,0,0.957-0.428,0.957-0.957v-2.871C47.5,21.929,37.407,11.835,25,11.835z M18.792,33.377c0.028-1.85,0.124-3.615,0.292-5.266
		h4.959v5.266H18.792z M11.627,33.377c0.056-1.824,0.253-3.594,0.599-5.266h4.944c-0.173,1.73-0.274,3.503-0.301,5.266H11.627z
		 M4.463,33.377c0.084-1.824,0.389-3.594,0.918-5.266h4.9c-0.331,1.686-0.531,3.447-0.584,5.266H4.463z M9.411,20.931h3.294
		c-0.814,1.604-1.482,3.375-1.982,5.266H6.1C6.933,24.27,8.059,22.502,9.411,20.931z M40.589,20.931
		c1.353,1.571,2.479,3.338,3.312,5.266h-4.623c-0.5-1.891-1.168-3.662-1.982-5.266H40.589z M37.308,26.197h-4.7
		c-0.248-1.854-0.585-3.629-1.002-5.266h3.546C36.032,22.502,36.765,24.27,37.308,26.197z M24.043,14.057v4.959h-3.088
		C21.857,16.441,22.945,14.708,24.043,14.057z M29.045,19.016h-3.088v-4.959C27.055,14.708,28.143,16.441,29.045,19.016z
		 M24.043,20.931v5.266h-4.732c0.268-1.947,0.623-3.716,1.046-5.266H24.043z M25.957,20.931h3.687
		c0.423,1.55,0.778,3.319,1.046,5.266h-4.732V20.931z M31.058,19.016c-0.526-1.637-1.151-3.073-1.869-4.222
		c1.771,0.898,3.374,2.352,4.733,4.222H31.058z M20.812,14.794c-0.718,1.149-1.343,2.585-1.869,4.222h-2.864
		C17.438,17.146,19.041,15.692,20.812,14.794z M18.395,20.931c-0.417,1.637-0.754,3.413-1.002,5.266h-4.7
		c0.543-1.928,1.275-3.695,2.156-5.266H18.395z M25.957,28.111h4.959c0.168,1.65,0.264,3.416,0.292,5.266h-5.251V28.111z
		 M33.131,33.377c-0.026-1.763-0.128-3.535-0.301-5.266h4.944c0.346,1.672,0.543,3.441,0.599,5.266H33.131z M40.303,33.377
		c-0.053-1.818-0.253-3.58-0.584-5.266h4.9c0.529,1.672,0.834,3.441,0.918,5.266H40.303z M38.701,19.016h-2.495
		c-0.819-1.292-1.74-2.444-2.747-3.426C35.386,16.463,37.147,17.624,38.701,19.016z M13.794,19.016h-2.495
		c1.554-1.392,3.315-2.553,5.242-3.426C15.534,16.572,14.613,17.724,13.794,19.016z M45.586,36.25H4.414v-0.957h41.172V36.25z"/>
</g>
</svg>
