<?xml version="1.0" encoding="utf-8"?>
<!-- Generator: Adobe Illustrator 16.0.0, SVG Export Plug-In . SVG Version: 6.00 Build 0)  -->
<!DOCTYPE svg PUBLIC "-//W3C//DTD SVG 1.1//EN" "http://www.w3.org/Graphics/SVG/1.1/DTD/svg11.dtd">
<svg version="1.1" xmlns="http://www.w3.org/2000/svg" xmlns:xlink="http://www.w3.org/1999/xlink" x="0px" y="0px" width="50px"
	 height="50px" viewBox="0 0 50 50" enable-background="new 0 0 50 50" xml:space="preserve">
<g id="Layer_2" display="none">
	<rect x="2.5" y="2.5" display="inline" fill="none" stroke="#999999" stroke-miterlimit="10" width="45" height="45"/>
</g>
<g id="Layer_1">
	<g>
		<path d="M37.976,19.582L25.957,8.724V7.482c2.515-0.016,4.338,0.397,4.734,1.067c0.089,0.148,0.248,0.233,0.412,0.233
			c0.006,0,0.015-0.001,0.02,0c0.265,0,0.544-0.223,0.479-0.479c-0.587-2.249-2.577-2.984-4.337-3.636
			c-0.464-0.172-0.907-0.34-1.308-0.521V3.457C25.957,2.928,25.529,2.5,25,2.5s-0.957,0.428-0.957,0.957v5.267L12.024,19.582
			c-1.317,0.428-2.152,1.002-2.152,1.77v23.167c0,2.594,9.479,2.981,15.128,2.981s15.128-0.387,15.128-2.981V21.352
			C40.128,20.584,39.293,20.01,37.976,19.582z M38.212,44.22c-0.846,0.455-4.327,1.15-10.339,1.324v-6.661
			c0-0.265-0.215-0.479-0.479-0.479h-4.789c-0.264,0-0.479,0.214-0.479,0.479v6.661c-6.012-0.174-9.493-0.869-10.339-1.324V21.65
			c0.974-0.522,5.426-1.364,13.212-1.364s12.238,0.842,13.212,1.364V44.22z"/>
		<path d="M15.904,23.085H13.99c-0.265,0-0.48,0.214-0.48,0.479v3.83c0,0.265,0.216,0.479,0.48,0.479h1.914
			c0.265,0,0.479-0.214,0.479-0.479v-3.83C16.383,23.299,16.169,23.085,15.904,23.085z"/>
		<path d="M22.605,23.085h-1.914c-0.265,0-0.479,0.214-0.479,0.479v3.83c0,0.265,0.214,0.479,0.479,0.479h1.914
			c0.265,0,0.48-0.214,0.48-0.479v-3.83C23.086,23.299,22.87,23.085,22.605,23.085z"/>
		<path d="M27.395,27.872h1.914c0.265,0,0.479-0.214,0.479-0.479v-3.83c0-0.265-0.214-0.479-0.479-0.479h-1.914
			c-0.265,0-0.48,0.214-0.48,0.479v3.83C26.914,27.658,27.13,27.872,27.395,27.872z"/>
		<path d="M34.096,27.872h1.914c0.265,0,0.48-0.214,0.48-0.479v-3.83c0-0.265-0.216-0.479-0.48-0.479h-1.914
			c-0.265,0-0.479,0.214-0.479,0.479v3.83C33.617,27.658,33.831,27.872,34.096,27.872z"/>
	</g>
</g>
</svg>
