<?xml version="1.0" encoding="utf-8"?>
<!-- Generator: Adobe Illustrator 16.0.0, SVG Export Plug-In . SVG Version: 6.00 Build 0)  -->
<!DOCTYPE svg PUBLIC "-//W3C//DTD SVG 1.1//EN" "http://www.w3.org/Graphics/SVG/1.1/DTD/svg11.dtd">
<svg version="1.1" xmlns="http://www.w3.org/2000/svg" xmlns:xlink="http://www.w3.org/1999/xlink" x="0px" y="0px" width="50px"
	 height="50px" viewBox="0 0 50 50" enable-background="new 0 0 50 50" xml:space="preserve">
<g id="Layer_2" display="none">
	<rect x="2.5" y="2.5" display="inline" fill="none" stroke="#999999" stroke-miterlimit="10" width="45" height="45"/>
</g>
<g id="Layer_1">
	<path d="M46.769,25.411V15.1c0.028-0.01,0.054-0.022,0.082-0.032c0.501-0.17,0.768-0.714,0.598-1.215s-0.714-0.767-1.215-0.598
		c-3.93,1.337-6.946,4.33-8.397,8.04c-2.016-5.127-7.003-8.772-12.836-8.772c-5.833,0-10.822,3.646-12.836,8.774
		c-1.451-3.71-4.468-6.702-8.397-8.038c-0.503-0.171-1.045,0.097-1.215,0.598c-0.17,0.5,0.098,1.045,0.599,1.215
		c0.028,0.01,0.054,0.022,0.083,0.032v10.307c-0.409,0.108-0.718,0.466-0.718,0.91c0,0.529,0.428,0.957,0.957,0.957H8.92v9.243
		c0,0.529,0.429,0.958,0.958,0.958h4.565c0.528,0,0.957-0.429,0.957-0.958v-9.243h19.2v9.243c0,0.529,0.428,0.958,0.957,0.958h4.565
		c0.529,0,0.958-0.429,0.958-0.958v-9.243h5.449c0.529,0,0.957-0.428,0.957-0.957C47.486,25.876,47.178,25.519,46.769,25.411z
		 M46.29,15.283v10.08h-1.596v-9.302C45.201,15.765,45.733,15.504,46.29,15.283z M42.619,17.596
		c0.494-0.457,1.025-0.876,1.597-1.246v9.013h-1.597V17.596z M42.14,18.056v7.307h-1.598v-5.244
		C40.998,19.375,41.533,18.685,42.14,18.056z M38.836,25.363c0.125-1.553,0.551-3.037,1.228-4.384v4.384H38.836z M35.616,25.363
		v-4.351c0.667,1.329,1.093,2.796,1.218,4.351H35.616z M35.137,20.152v5.21h-1.596v-7.284
		C34.147,18.707,34.679,19.403,35.137,20.152z M16.938,17.616c0.496-0.46,1.028-0.882,1.597-1.253v9h-1.597V17.616z M19.015,16.072
		c0.51-0.299,1.042-0.563,1.596-0.784v10.075h-1.596V16.072z M21.089,15.112c0.518-0.182,1.048-0.336,1.596-0.445v10.696h-1.596
		V15.112z M23.165,14.595c0.522-0.082,1.054-0.134,1.597-0.146v10.914h-1.597V14.595z M25.24,14.449
		c0.542,0.011,1.074,0.063,1.597,0.146v10.768H25.24V14.449z M27.316,14.667c0.548,0.109,1.078,0.264,1.596,0.445v10.25h-1.596
		V14.667z M29.39,15.288c0.555,0.222,1.086,0.485,1.596,0.784v9.291H29.39V15.288z M31.465,16.363
		c0.569,0.371,1.101,0.792,1.597,1.253v7.747h-1.597V16.363z M16.46,18.079v7.284h-1.596v-5.21
		C15.322,19.403,15.854,18.707,16.46,18.079z M13.167,25.363c0.125-1.555,0.551-3.022,1.218-4.351v4.351H13.167z M9.937,25.363
		v-4.38c0.677,1.346,1.103,2.828,1.228,4.38H9.937z M9.458,20.123v5.24H7.861V18.06C8.468,18.688,9.003,19.379,9.458,20.123z
		 M7.382,25.363H5.786v-9.009c0.571,0.37,1.103,0.79,1.597,1.246V25.363z M5.307,16.064v9.298H3.711V15.287
		C4.268,15.508,4.8,15.769,5.307,16.064z"/>
</g>
</svg>
