<?xml version="1.0" encoding="utf-8"?>
<!-- Generator: Adobe Illustrator 16.0.0, SVG Export Plug-In . SVG Version: 6.00 Build 0)  -->
<!DOCTYPE svg PUBLIC "-//W3C//DTD SVG 1.1//EN" "http://www.w3.org/Graphics/SVG/1.1/DTD/svg11.dtd">
<svg version="1.1" xmlns="http://www.w3.org/2000/svg" xmlns:xlink="http://www.w3.org/1999/xlink" x="0px" y="0px" width="50px"
	 height="50px" viewBox="0 0 50 50" enable-background="new 0 0 50 50" xml:space="preserve">
<g id="Layer_2" display="none">
	<rect x="2.5" y="2.5" display="inline" fill="none" stroke="#999999" stroke-miterlimit="10" width="45" height="45"/>
</g>
<g id="Layer_1">
	<g>
		<path d="M28.062,26.415c-0.478,0.191-1.222,0.443-2.041,0.575v-3.989c-0.341,0.011-0.68,0.036-1.021,0.036
			s-0.68-0.025-1.021-0.036v3.989c-0.822-0.131-1.564-0.383-2.041-0.573v-3.526c-0.682-0.058-1.363-0.125-2.042-0.222v4.413
			c0,2.229,1.51,4.102,3.573,4.744v11.188c0,0.846,0.685,1.53,1.531,1.53s1.531-0.685,1.531-1.53V31.826
			c2.063-0.643,3.573-2.515,3.573-4.744v-4.413c-0.679,0.097-1.36,0.164-2.042,0.222V26.415z"/>
		<path d="M46.657,8.085L45.44,7.87l0.214-1.216c0.098-0.555-0.272-1.084-0.828-1.183c-0.562-0.103-1.084,0.272-1.183,0.827
			l-0.216,1.227c-1.629-1.264-3.925-1.471-5.785-0.331c-7.799,4.78-17.488,4.78-25.287,0c-1.861-1.139-4.156-0.931-5.784,0.331
			L6.356,6.299C6.258,5.744,5.731,5.368,5.173,5.472C4.618,5.57,4.248,6.1,4.346,6.654L4.56,7.87L3.343,8.085
			C2.789,8.183,2.418,8.712,2.516,9.267C2.603,9.763,3.034,10.11,3.52,10.11c0.059,0,0.118-0.005,0.179-0.017l1.173-0.206
			c-0.764,2.212,0.074,4.735,2.153,6.01c5.544,3.397,11.76,5.096,17.976,5.096s12.432-1.698,17.976-5.096
			c2.079-1.274,2.917-3.798,2.153-6.01l1.173,0.206c0.061,0.012,0.12,0.017,0.179,0.017c0.486,0,0.917-0.348,1.004-0.844
			C47.582,8.712,47.211,8.183,46.657,8.085z M40.31,9.506c-0.293,0.179-0.591,0.812-0.854,1.368
			c-0.426,0.907-0.909,1.932-1.895,2.364c-1.002,0.437-2.091,0.092-3.054-0.213c-0.55-0.175-1.234-0.394-1.554-0.302
			c-0.326,0.091-0.781,0.615-1.184,1.079c-0.658,0.759-1.404,1.618-2.475,1.766c-0.109,0.016-0.218,0.022-0.325,0.022
			c-0.944,0-1.791-0.556-2.546-1.053c-0.51-0.335-1.088-0.716-1.423-0.716c-0.335,0-0.913,0.381-1.424,0.716
			c-0.841,0.553-1.796,1.188-2.871,1.03c-1.071-0.147-1.817-1.007-2.475-1.766c-0.402-0.464-0.858-0.988-1.184-1.079
			c-0.314-0.092-1.002,0.127-1.553,0.302c-0.963,0.305-2.055,0.651-3.054,0.213c-0.986-0.433-1.469-1.457-1.895-2.364
			c-0.263-0.557-0.561-1.189-0.854-1.368C9.21,9.211,9.059,8.583,9.354,8.102c0.295-0.48,0.923-0.63,1.403-0.337
			c0.814,0.499,1.25,1.425,1.634,2.24c0.247,0.522,0.583,1.238,0.867,1.363c0.294,0.128,1.029-0.103,1.619-0.289
			c0.852-0.271,1.818-0.574,2.724-0.321c0.914,0.258,1.582,1.028,2.172,1.706c0.402,0.464,0.901,1.039,1.214,1.083
			c0.311,0.049,0.956-0.377,1.47-0.715c0.75-0.492,1.599-1.05,2.544-1.05c0.945,0,1.794,0.558,2.544,1.05
			c0.514,0.337,1.15,0.747,1.47,0.715c0.313-0.044,0.813-0.619,1.214-1.083c0.59-0.678,1.258-1.448,2.171-1.706
			c0.906-0.253,1.872,0.051,2.724,0.321c0.589,0.186,1.322,0.416,1.619,0.289c0.284-0.125,0.62-0.841,0.866-1.363
			c0.384-0.815,0.82-1.741,1.634-2.24c0.48-0.294,1.108-0.144,1.403,0.337C40.941,8.583,40.79,9.211,40.31,9.506z"/>
	</g>
</g>
</svg>
