<?xml version="1.0" encoding="UTF-8" standalone="yes"?>
<svg xmlns="http://www.w3.org/2000/svg" viewBox="0 0 126 126">
  <path d="M36.188 42.94c.607.134 1.17.125 2.9-1.204.77-.59 1.906-1.586 2.955-2.974l.46-.61c3.93-5.227 13.13-17.465 26.42-16.8 10.96.8 18.728 9.076 22.466 23.936.126.505.202.815.288 1.053.57 2.43 1.53 5.46 2.91 6.455a1.93 1.93 0 0 0 2.7-.438 1.934 1.934 0 0 0-.35-2.633c-.382-.494-1.1-2.563-1.526-4.412a1.993 1.993 0 0 0-.104-.32c-.037-.126-.105-.4-.168-.648-.592-2.355-2.166-8.61-5.982-14.496C84.23 22.25 77.508 18.092 69.18 17.49c-.012 0-.025 0-.04-.002-15.35-.783-25.43 12.617-29.73 18.34l-.453.6c-1.178 1.558-2.568 2.527-3.05 2.808a1.962 1.962 0 0 0-1.197 2.232 1.93 1.93 0 0 0 1.478 1.473z"/>
  <path d="M84.648 50.363c1.46-3.648 1.496-7.418.096-10.34-1.246-2.607-3.572-4.497-6.725-5.463-4.628-1.416-10.237 1.154-15.376 7.04-.064.073-7.38 7.767-15.06 12.47-.058.035-5.68 3.408-11.554 5.008a1.93 1.93 0 0 0-1.154.88h9.777c2.834-1.317 4.793-2.492 4.94-2.58 8.333-5.103 15.89-13.144 15.954-13.218 3.12-3.574 7.736-7.002 11.338-5.898 2.12.648 3.588 1.803 4.367 3.432.934 1.95.86 4.585-.2 7.23-1.33 3.326-4.563 7.116-9.343 11.035h5.843c3.123-2.982 5.752-6.243 7.095-9.597zM69.46 66.514h-7.005c-5.223 3.307-15.56 9.637-23.053 12.84a1.938 1.938 0 0 0-1.02 2.54 1.938 1.938 0 0 0 2.54 1.02c8.448-3.612 20.253-10.98 24.935-13.98a102.76 102.76 0 0 0 3.604-2.42zM37.785 52.58c1.98-.594 3.77-1.612 5.557-2.627 1.508-.858 3.008-1.63 4.395-2.686 2.7-2.055 5.027-4.454 7.166-7.08a41.258 41.258 0 0 1 4.39-4.592c.292-.26.587-.514.886-.765.15-.128.304-.253.456-.378l.418-.33a28.24 28.24 0 0 1 4.293-2.727c1.426-.732 2.857-1.246 4.594-1.607.577-.12.702-.133 1.134-.178 1.05-.11 1.936-.8 1.936-1.936 0-.973-.883-2.043-1.936-1.935-6.994.725-12.977 5.097-17.586 10.175-.877.968-1.666 2.006-2.516 2.997a39.796 39.796 0 0 1-3.594 3.66c-1.305 1.178-2.36 2.02-3.9 2.903-1.63.937-3.295 1.884-4.986 2.707-.58.284-1.08.468-1.734.665-1.01.303-1.637 1.345-1.352 2.38.274 1 1.37 1.658 2.38 1.354zM38.428 72.967c1.94-.666 7.586-2.746 14.29-6.453h-8.603c-3.273 1.48-5.793 2.398-6.943 2.793l-.158.057a1.935 1.935 0 0 0 1.346 3.627l.07-.024z"/>
  <path d="M75.85 43.826c-.87-.62-2.08-.42-2.7.45-4.706 6.598-10.976 11.776-16.997 15.683h6.738c4.853-3.646 9.603-8.1 13.41-13.437.62-.87.42-2.077-.45-2.697zM91.08 84.486c-2.682-.895-5.963-3.232-9.137-5.492-4.598-3.273-8.564-6.102-11.8-5.544-2.43.42-6.673 3.132-13.374 7.55-4.833 3.185-10.308 6.794-12.69 7.436a1.935 1.935 0 1 0 1.006 3.737c2.984-.803 8.244-4.27 13.813-7.94 4.497-2.966 10.095-6.655 11.903-6.968 1.645-.28 5.664 2.58 8.896 4.883 3.403 2.426 6.925 4.934 10.155 6.01 1.014.34 2.11-.21 2.447-1.223a1.933 1.933 0 0 0-1.222-2.45z"/>
  <path d="M86.236 93.965c-1.56-.564-4.096-2.13-6.547-3.646-5.18-3.2-8.474-5.143-10.835-4.734-2.393.412-7.418 3.828-15.854 9.986-1.03.753-1.923 1.404-2.54 1.842a1.934 1.934 0 0 0 2.232 3.16c.643-.455 1.545-1.113 2.592-1.877 3.355-2.45 12.273-8.96 14.21-9.295 1.204-.082 5.558 2.602 8.16 4.21 2.74 1.692 5.33 3.29 7.265 3.99a1.933 1.933 0 1 0 1.317-3.638z"/>
  <path d="M79.7 103.584c-1.087-.71-2.087-1.423-3.052-2.11-3.174-2.267-5.918-4.226-8.924-3.704-3.385.585-8.777 6.006-9.824 7.087a1.935 1.935 0 1 0 2.782 2.692c2.592-2.68 6.273-5.72 7.7-5.967 1.415-.24 3.55 1.276 6.02 3.038.95.68 2.028 1.45 3.185 2.204a1.935 1.935 0 1 0 2.114-3.24zM85.838 57.384c.154.936.408 1.79.748 2.575h4.398c-.768-1.04-1.193-2.257-1.414-3.605-.406-2.458-4.134-1.412-3.732 1.03zM94.773 66.984c.89.377 1.877.31 2.486-.47h-3.54c.346.162.696.32 1.053.47zM92.97 73.74c-1.45-.448-2.554-1.016-4.093-1.924-2.22-1.313-4.277-3.1-5.666-5.303h-4.33c2.464 5.275 7.517 9.25 13.063 10.957 2.39.737 3.407-2.998 1.028-3.73zM28.44 61.69h76.333v2.554H28.44zM108.242 60.46h7v5.015h-7zM17.076 60.46h7v5.015h-7z"/>
</svg>