<?xml version="1.0" encoding="utf-8"?>
<!-- Generator: Adobe Illustrator 16.0.0, SVG Export Plug-In . SVG Version: 6.00 Build 0)  -->
<!DOCTYPE svg PUBLIC "-//W3C//DTD SVG 1.1//EN" "http://www.w3.org/Graphics/SVG/1.1/DTD/svg11.dtd">
<svg version="1.1" id="Layer_1" xmlns="http://www.w3.org/2000/svg" xmlns:xlink="http://www.w3.org/1999/xlink" x="0px" y="0px"
	 width="126px" height="126px" viewBox="0 0 126 126" enable-background="new 0 0 126 126" xml:space="preserve">
<g>
	<path d="M32.352,41.224c0.595,0.129,1.147,0.12,2.843-1.182c0.753-0.579,1.866-1.553,2.894-2.913l0.45-0.597
		c3.85-5.121,12.864-17.11,25.883-16.458c10.736,0.783,18.347,8.891,22.008,23.448c0.125,0.495,0.2,0.798,0.284,1.032
		c0.559,2.38,1.498,5.346,2.85,6.323c0.334,0.242,0.723,0.358,1.108,0.358c0.587,0,1.168-0.272,1.538-0.786
		c0.592-0.819,0.434-1.953-0.342-2.581c-0.374-0.484-1.077-2.51-1.496-4.322c-0.024-0.108-0.059-0.212-0.102-0.313
		c-0.035-0.124-0.103-0.394-0.164-0.636c-0.58-2.308-2.122-8.437-5.86-14.201c-4.828-7.444-11.413-11.517-19.572-12.105
		c-0.013-0.002-0.026-0.002-0.04-0.002c-15.039-0.768-24.911,12.36-29.125,17.965l-0.443,0.589c-1.154,1.525-2.517,2.475-2.987,2.75
		c-0.158,0.063-0.312,0.148-0.455,0.256c-0.59,0.447-0.878,1.209-0.719,1.931C31.064,40.501,31.629,41.066,32.352,41.224z"/>
	<path d="M79.828,48.493c1.43-3.574,1.466-7.266,0.094-10.129c-1.221-2.555-3.5-4.405-6.588-5.351
		c-4.533-1.387-10.028,1.13-15.062,6.898c-0.064,0.071-7.23,7.608-14.755,12.216c-0.055,0.033-5.564,3.337-11.317,4.905
		c-1.01,0.274-1.606,1.317-1.331,2.326c0.274,1.01,1.316,1.607,2.327,1.33c6.257-1.702,12.038-5.169,12.291-5.321
		c8.163-4.999,15.567-12.876,15.629-12.95c3.057-3.501,7.58-6.858,11.107-5.778c2.077,0.636,3.517,1.767,4.28,3.363
		c0.914,1.909,0.843,4.492-0.195,7.085c-1.931,4.826-7.945,10.652-16.935,16.409c-4.507,2.887-15.856,9.975-23.873,13.401
		c-0.963,0.412-1.409,1.524-0.998,2.488c0.308,0.72,1.008,1.151,1.744,1.151c0.249,0,0.502-0.049,0.745-0.152
		c8.276-3.541,19.84-10.757,24.427-13.695C68.244,62.317,76.979,55.612,79.828,48.493z"/>
	<path d="M49.299,34.341c-0.86,0.948-1.632,1.966-2.464,2.937c-1.089,1.273-2.279,2.462-3.522,3.584
		c-1.278,1.154-2.312,1.979-3.819,2.846c-1.599,0.916-3.229,1.844-4.885,2.651c-0.57,0.278-1.06,0.458-1.701,0.651
		c-0.988,0.297-1.602,1.317-1.323,2.332c0.268,0.978,1.342,1.622,2.332,1.325c1.938-0.584,3.695-1.582,5.444-2.576
		c1.479-0.84,2.946-1.597,4.304-2.63c2.648-2.013,4.926-4.363,7.021-6.936c0.849-1.042,1.756-2.034,2.704-2.987
		c0.517-0.52,1.052-1.021,1.599-1.512c0.284-0.255,0.573-0.503,0.866-0.75c0.148-0.124,0.298-0.247,0.449-0.37
		c0.039-0.032,0.333-0.264,0.408-0.324c1.32-1.011,2.727-1.91,4.207-2.67c1.398-0.719,2.8-1.221,4.501-1.576
		c0.564-0.117,0.687-0.13,1.109-0.173c1.027-0.106,1.896-0.782,1.896-1.895c0-0.954-0.866-2.003-1.896-1.896
		C59.676,25.083,53.815,29.367,49.299,34.341z"/>
	<path d="M34.547,70.638c4.118-1.413,25.262-9.308,37.103-25.905c0.608-0.852,0.41-2.035-0.442-2.644
		c-0.853-0.608-2.037-0.41-2.645,0.442C57.395,58.187,37.242,65.704,33.315,67.054c-0.084,0.028-0.136,0.046-0.154,0.052
		c-0.979,0.373-1.472,1.466-1.101,2.445c0.287,0.758,1.008,1.223,1.774,1.223c0.214,0,0.433-0.036,0.646-0.112L34.547,70.638z"/>
	<path d="M86.128,81.923c-2.627-0.876-5.843-3.165-8.951-5.379c-4.503-3.209-8.39-5.978-11.558-5.433
		c-2.38,0.412-6.539,3.07-13.104,7.396c-4.732,3.12-10.097,6.656-12.43,7.284c-1.011,0.274-1.61,1.313-1.338,2.323
		c0.228,0.848,0.993,1.404,1.83,1.404c0.163,0,0.329-0.021,0.493-0.065c2.925-0.789,8.078-4.186,13.533-7.78
		c4.406-2.905,9.889-6.52,11.661-6.826c1.609-0.275,5.549,2.528,8.714,4.783c3.336,2.376,6.785,4.833,9.951,5.889
		c0.994,0.33,2.067-0.207,2.398-1.199C87.658,83.328,87.121,82.254,86.128,81.923z"/>
	<path d="M81.382,91.209c-1.528-0.552-4.012-2.087-6.414-3.571c-5.074-3.135-8.299-5.038-10.613-4.639
		c-2.344,0.406-7.267,3.751-15.529,9.785c-1.012,0.738-1.885,1.375-2.491,1.804c-0.854,0.605-1.058,1.787-0.455,2.642
		c0.371,0.523,0.956,0.802,1.55,0.802c0.378,0,0.76-0.113,1.092-0.347c0.63-0.445,1.514-1.092,2.539-1.838
		c3.288-2.401,12.024-8.779,13.92-9.106c1.182-0.081,5.447,2.55,7.995,4.124c2.685,1.658,5.221,3.225,7.119,3.912
		c0.983,0.356,2.071-0.154,2.427-1.14C82.877,92.65,82.368,91.565,81.382,91.209z"/>
	<path d="M74.98,100.633c-1.065-0.695-2.043-1.395-2.991-2.069c-3.108-2.221-5.796-4.139-8.741-3.626
		c-3.317,0.573-8.598,5.884-9.624,6.941c-0.728,0.753-0.708,1.953,0.044,2.682c0.368,0.354,0.843,0.534,1.317,0.534
		c0.496,0,0.991-0.193,1.362-0.578c2.539-2.622,6.146-5.601,7.545-5.843c1.384-0.238,3.476,1.25,5.895,2.976
		c0.932,0.666,1.989,1.419,3.121,2.159c0.876,0.572,2.052,0.325,2.624-0.552C76.103,102.379,75.856,101.206,74.98,100.633z"/>
	<path d="M91.66,61.504c-1.58-0.667-3.232-1.369-4.562-2.476c-1.464-1.218-2.145-2.817-2.45-4.664
		c-0.396-2.408-4.05-1.383-3.656,1.007c0.811,4.917,4.43,7.58,8.754,9.405c0.952,0.404,2.021,0.299,2.593-0.679
		C92.812,63.293,92.612,61.907,91.66,61.504z"/>
	<path d="M87.981,71.395c-1.423-0.439-2.504-0.994-4.01-1.884c-2.759-1.63-5.275-3.992-6.499-7.01
		c-0.388-0.956-1.247-1.622-2.332-1.323c-0.909,0.25-1.712,1.373-1.324,2.333c2.259,5.569,7.445,9.78,13.158,11.541
		C89.317,75.772,90.311,72.113,87.981,71.395z"/>
</g>
</svg>
