<?xml version="1.0" encoding="utf-8"?>
<!-- Generator: Adobe Illustrator 16.0.0, SVG Export Plug-In . SVG Version: 6.00 Build 0)  -->
<!DOCTYPE svg PUBLIC "-//W3C//DTD SVG 1.1//EN" "http://www.w3.org/Graphics/SVG/1.1/DTD/svg11.dtd">
<svg version="1.1" id="Layer_1" xmlns="http://www.w3.org/2000/svg" xmlns:xlink="http://www.w3.org/1999/xlink" x="0px" y="0px"
	 width="126px" height="126px" viewBox="0 0 126 126" enable-background="new 0 0 126 126" xml:space="preserve">
<g>
	<path d="M92.29,63.424c0.592,2.52,1.585,5.66,3.016,6.691c0.355,0.258,0.766,0.379,1.173,0.379c0.622,0,1.236-0.287,1.628-0.832
		c0.626-0.867,0.459-2.064-0.362-2.729c-0.396-0.514-1.141-2.658-1.583-4.574c-0.026-0.115-0.063-0.225-0.108-0.332
		c-0.037-0.131-0.109-0.416-0.174-0.672c-0.614-2.443-2.246-8.93-6.202-15.031C84.568,38.447,77.6,34.137,68.965,33.514
		c-0.014,0-0.028-0.001-0.042-0.002c-15.916-0.813-26.362,13.081-30.822,19.013l-0.469,0.623c-1.221,1.614-2.664,2.619-3.161,2.91
		c-0.168,0.065-0.331,0.155-0.482,0.271c-0.624,0.473-0.929,1.279-0.761,2.043c0.168,0.765,0.767,1.362,1.531,1.529
		c0.63,0.138,1.213,0.128,3.008-1.25c0.797-0.612,1.975-1.645,3.063-3.083l0.476-0.632c4.074-5.419,13.613-18.107,27.391-17.418
		c11.362,0.83,19.416,9.41,23.292,24.816C92.121,62.857,92.202,63.178,92.29,63.424z"/>
	<path d="M70.927,42.067c-7.251,0.751-13.453,5.285-18.232,10.55c-0.91,1.004-1.728,2.08-2.608,3.107
		c-1.152,1.349-2.412,2.606-3.727,3.794c-1.353,1.222-2.446,2.097-4.042,3.011c-1.692,0.971-3.416,1.953-5.169,2.807
		c-0.603,0.295-1.121,0.484-1.799,0.689c-1.046,0.314-1.696,1.395-1.401,2.467c0.285,1.035,1.42,1.717,2.467,1.402
		c2.051-0.617,3.911-1.672,5.762-2.725c1.563-0.891,3.117-1.689,4.555-2.783c2.801-2.131,5.212-4.619,7.43-7.342
		c0.898-1.102,1.858-2.152,2.861-3.16c0.548-0.551,1.114-1.081,1.692-1.6c0.301-0.271,0.607-0.533,0.916-0.794
		c0.157-0.132,0.316-0.262,0.475-0.392c0.042-0.033,0.352-0.277,0.433-0.343c1.397-1.07,2.885-2.022,4.451-2.825
		c1.479-0.761,2.963-1.293,4.764-1.668c0.597-0.125,0.727-0.138,1.174-0.184c1.087-0.113,2.007-0.828,2.007-2.006
		C72.934,43.064,72.018,41.955,70.927,42.067z"/>
	<path d="M36.328,91.176c0.228,0,0.458-0.039,0.685-0.121l0.07-0.025c4.358-1.496,26.734-9.852,39.264-27.414
		c0.644-0.902,0.434-2.154-0.467-2.799c-0.902-0.644-2.155-0.434-2.798,0.468c-11.819,16.567-33.146,24.524-37.302,25.95
		c-0.089,0.031-0.143,0.051-0.163,0.059c-1.036,0.391-1.558,1.549-1.166,2.586C34.755,90.682,35.518,91.176,36.328,91.176z"/>
	<path d="M97.525,81.363c-1.673-0.707-3.42-1.449-4.828-2.619c-1.55-1.289-2.271-2.982-2.592-4.938
		c-0.42-2.547-4.286-1.463-3.869,1.066c0.858,5.205,4.688,8.021,9.264,9.955c1.008,0.424,2.14,0.313,2.745-0.719
		C98.743,83.258,98.533,81.789,97.525,81.363z"/>
	<path d="M65.834,12.877c-26.346,0-47.78,21.435-47.78,47.781c0,26.348,21.434,47.781,47.78,47.781
		c26.347,0,47.781-21.434,47.781-47.781C113.615,34.312,92.181,12.877,65.834,12.877z M68.628,104.113
		c-0.772,0.133-1.823,0.58-3.158,1.318c-3.297-0.027-6.508-0.418-9.6-1.123c0.802-0.525,1.614-1.059,2.436-1.602
		c4.664-3.074,10.466-6.898,12.342-7.223c1.704-0.289,5.872,2.676,9.222,5.063c0.816,0.582,1.638,1.16,2.462,1.73
		c-3.09,1.229-6.343,2.135-9.724,2.65C71.029,104.236,69.726,103.924,68.628,104.113z M94.756,94.809
		c0.55-1.023,0.319-2.533-1.125-2.979c-1.506-0.463-2.65-1.051-4.244-1.992c-2.92-1.727-5.583-4.227-6.877-7.42
		c-0.411-1.012-1.32-1.715-2.468-1.4c-0.961,0.266-1.813,1.453-1.401,2.469c2.391,5.895,7.878,10.352,13.923,12.213
		c0.395,0.121,0.749,0.115,1.063,0.033c-2.187,1.736-4.536,3.273-7.025,4.582c-1.448-0.938-2.936-1.99-4.405-3.035
		c-4.766-3.395-8.878-6.326-12.232-5.748c-2.519,0.436-6.92,3.246-13.867,7.826c-1.755,1.158-3.583,2.359-5.331,3.467
		c-2.496-0.895-4.885-2.008-7.155-3.313c8.169-4.014,17.747-9.996,21.908-12.662c7.224-4.627,16.467-11.723,19.481-19.254
		c1.514-3.785,1.551-7.691,0.1-10.722c-1.293-2.703-3.705-4.661-6.973-5.663c-4.797-1.468-10.612,1.197-15.939,7.301
		c-0.068,0.074-7.651,8.051-15.615,12.926c-0.058,0.037-5.889,3.535-11.977,5.193c-1.068,0.291-1.699,1.393-1.408,2.461
		s1.393,1.701,2.462,1.408c6.623-1.803,12.74-5.471,13.007-5.633C57.298,69.578,65.133,61.24,65.2,61.163
		c3.235-3.706,8.021-7.259,11.754-6.115c2.197,0.673,3.721,1.87,4.529,3.559c0.967,2.021,0.892,4.753-0.207,7.497
		c-2.044,5.107-8.408,11.275-17.92,17.367c-4.484,2.871-15.366,9.67-23.701,13.486c-11.257-8.143-18.602-21.375-18.602-36.299
		c0-24.693,20.088-44.781,44.78-44.781c24.692,0,44.781,20.088,44.781,44.781C110.615,74.332,104.448,86.588,94.756,94.809z"/>
</g>
</svg>
