<svg xmlns="http://www.w3.org/2000/svg" viewBox="0 0 612.002 612.002"><circle cx="305.78" cy="358.459" r="9.237"/><circle cx="305.78" cy="392.192" r="9.237"/><circle cx="288.92" cy="138.59" r="14.457"/><circle cx="369.603" cy="138.59" r="14.457"/><path d="M529.096 353.71S404.48 228.774 401.06 225.1c17.502-18.003 28.325-42.532 28.392-69.554 13.02-3.07 22.533-14.67 22.533-28.605 0-13.95-9.534-25.56-22.574-28.616C428.398 43.938 383.89 0 329.29 0c-54.598 0-99.103 43.932-100.123 98.312-13.077 3.03-22.636 14.645-22.636 28.63 0 13.97 9.54 25.575 22.595 28.62.07 27 10.88 51.51 28.362 69.507-3.12 3.663-51.34 52.51-72.853 74.28.298-1.483.46-3.016.46-4.586 0-12.823-10.43-23.257-23.25-23.257s-23.25 10.433-23.25 23.257c0 5.027 1.62 9.675 4.343 13.483-29.184 7.73-51.344 32.905-54.602 63.65h-16.74v12.234h47.62c.93 9.77 4.966 18.494 11.392 24.39l.327.297c.274.257.55.51.83.755l.61.557h.032c7.34 6.214 16.453 9.32 25.515 9.32 9.9 0 19.742-3.706 27.15-11.115l24.178-24.205h12.22v70.35h32.117V612H404.99V454.48h32.115v-83.5l37.33 37.346c7.408 7.416 17.247 11.126 27.15 11.126 9.06 0 18.173-3.108 25.517-9.324h.133l1.777-1.713c7.25-6.988 11.296-16.528 11.39-26.86.097-10.415-4.025-20.565-11.306-27.846zM429.46 111.19c6.09 2.637 10.292 8.674 10.292 15.75 0 7.077-4.2 13.115-10.292 15.75v-31.5zm-200.343 31.524c-6.125-2.62-10.354-8.67-10.354-15.774 0-7.105 4.23-13.155 10.354-15.775v31.55zM386.47 33.456c10.103 8.677 18.23 19.593 23.58 31.987-13.505-2.09-23.89-13.764-23.89-27.852.002-1.4.112-2.778.31-4.133zm-57.18-21.22a87.36 87.36 0 0 1 46.16 13.136c-9.264 16.66-26.847 27.184-46.19 27.184-19.324 0-36.896-10.513-46.173-27.158 13.436-8.335 29.263-13.163 46.202-13.163zm-57.23 21.26c.194 1.344.302 2.706.302 4.095 0 14.07-10.355 25.734-23.833 27.846 5.343-12.373 13.45-23.27 23.53-31.94zm-30.708 121.8v-55.083c0-7.656.986-15.085 2.832-22.17 19.343-.013 35.546-13.684 39.49-31.874a65.058 65.058 0 0 0 45.584 18.62c17.396 0 33.647-6.798 45.594-18.51 3.946 18.197 20.158 31.982 39.513 31.982h.026c1.847 6.117 2.835 14.295 2.835 21.95v55.082c0 48.512-39.448 87.978-87.937 87.978s-87.936-39.467-87.936-87.977zM352.1 268.802a24.35 24.35 0 0 0 .847-6.348c0-3.256-.677-6.423-1.9-9.358a99.543 99.543 0 0 0 31.003-12.67v46.012l-29.95-17.637zm2.793 15.843l-20.253 34.636v-33.255a24.548 24.548 0 0 0 11.4-6.594l8.853 5.213zm-49.538-15.113l-30.36 17.132v-47.22a99.636 99.636 0 0 0 31.316 13.37 24.306 24.306 0 0 0-2.012 9.64c0 2.462.374 4.836 1.057 7.078zm6.41 10.432a24.294 24.294 0 0 0 10.64 6v33.18l-19.163-34.37 8.522-4.81zm-149.923 3.777c6.073 0 11.014 4.944 11.014 11.022s-4.94 11.02-11.014 11.02c-6.075 0-11.014-4.944-11.014-11.02 0-6.078 4.94-11.022 11.014-11.022zm14.577 115.944c-10.105 10.104-26.89 10.07-37.418-.078l-.928-.89c-3.453-3.578-5.743-8.802-6.52-14.587h60.403l-15.538 15.556zm46.274-27.792h-122.03c3.87-30.34 29.82-53.875 61.18-53.875 28.55 0 52.622 19.506 59.626 45.894 0 0 1.34 5.783 1.224 7.98zm-1.223-66.617v30.815c-7.973-10.87-18.834-19.488-31.45-24.713l35.56-35.578a107.765 107.765 0 0 0-4.11 29.475zm12.235 136.967V384.13h16.823v-12.236H235.35a73.282 73.282 0 0 0-1.645-9.464v-57.154c0-26.09 10.49-50.505 29.057-68.404v70.745l29.707-16.765 29.936 53.09v61.615l-36.294 36.687h-52.407zm88.702-19.38v19.38h-19.242l19.242-19.38zm-55.492 176.9c2.846-13.763 14.293-22.144 27.964-22.144 13.668 0 25.115 8.38 27.96 22.145h-55.925zm57.02-25.23c-7.646-7.06-17.9-11.355-28.92-11.355-11.152 0-21.547 4.397-29.194 11.614V454.48h58.116v120.053zm4.696-299.966c-6.668 0-12.096-5.434-12.096-12.112 0-2.745.928-5.36 2.588-7.462 3.343.338 6.735.514 10.167.514 3.004 0 5.973-.158 8.91-.418a12.066 12.066 0 0 1 2.513 7.367 12.1 12.1 0 0 1-1.57 5.96c-2.048 3.64-5.907 5.994-10.07 6.14l-.442.01zm6.01 148.296l19.502 19.38h-19.5v-19.38zm1.095 176.9c2.846-13.763 14.293-22.144 27.964-22.144 13.668 0 25.115 8.38 27.96 22.145h-55.925zm57.02-24.97c-7.646-7.218-17.368-11.616-28.52-11.616-10.927 0-21.947 4.224-28.064 11.18v-119.88h56.586v120.315zm32.117-132.55h-53.186l-37.045-36.687v-61.4l30.933-53.222 28.712 16.907V235.51c19.513 18.028 30.587 43.02 30.587 69.767v136.967zm12.235-88.57V305.28c0-10.604-1.572-20.955-4.522-30.818l66.74 66.77-38.06 36.612-24.158-24.167zm83.925 45.427l-.525.507c-10.533 10.152-27.315 10.184-37.415.072l-13.178-13.185 38.06-36.61 12.468 12.472c4.977 4.976 7.794 11.932 7.728 19.085-.063 6.773-2.59 13.016-7.138 17.66z"/><path fill="none" stroke="#F00" stroke-width=".25" stroke-miterlimit="10" d="M525.245 408.543h3.848v3.01h-3.848z"/></svg>