<?xml version="1.0" encoding="iso-8859-1"?>
<!-- Generator: Adobe Illustrator 18.1.1, SVG Export Plug-In . SVG Version: 6.00 Build 0)  -->
<svg version="1.1" id="Capa_1" xmlns="http://www.w3.org/2000/svg" xmlns:xlink="http://www.w3.org/1999/xlink" x="0px" y="0px"
	 viewBox="0 0 612.001 612.001" style="enable-background:new 0 0 612.001 612.001;" xml:space="preserve">
<g>
	<circle cx="265.77" cy="138.612" r="14.457"/>
	<circle cx="346.485" cy="138.612" r="14.457"/>
	<g>
		<path d="M506.314,353.439c0,0-125.84-125.972-128.666-128.487c17.486-17.979,28.304-42.461,28.388-69.434
			c13.046-2.996,22.867-14.769,22.867-28.635c0-13.887-9.841-25.679-22.908-28.661C404.957,43.888,360.44,0,305.831,0
			c-54.65,0-99.193,43.954-100.166,98.345c-12.896,3.167-22.322,14.75-22.322,28.537c0,13.765,9.406,25.33,22.281,28.511
			c0.052,27.04,10.893,51.585,28.425,69.595C230.524,228.121,105.7,353.441,105.7,353.441c-7.298,7.298-11.316,17.004-11.316,27.331
			c0,10.327,4.019,20.032,11.32,27.333c7.529,7.521,17.42,11.282,27.311,11.282s19.784-3.761,27.314-11.283l37.64-37.615v175.726
			h32.129v65.788h152.995v-65.788h30.599V370.133l37.993,37.97c7.529,7.521,17.42,11.28,27.311,11.28
			c9.891,0,19.784-3.761,27.316-11.283C521.385,393.031,521.385,368.511,506.314,353.439z M406.045,111.044
			c6.12,2.59,10.618,8.741,10.618,15.838c0,7.091-4.498,13.236-10.618,15.824V111.044z M205.621,142.485
			c-6.12-2.702-10.036-8.675-10.036-15.602c0-6.935,3.917-12.914,10.036-15.618V142.485z M151.679,399.443
			c-10.292,10.278-27.034,10.28-37.323,0.003c-10.298-10.298-10.298-27.053-0.002-37.349l13.921-13.912l38.079,36.59
			L151.679,399.443z M197.971,305.091v48.091l-22.955,22.94l-38.081-36.59l65.728-65.686
			C199.579,283.923,197.971,294.46,197.971,305.091z M305.831,12.24c20.136,0,38.7,6.811,53.544,18.228
			c-15.267,11.597-33.904,17.92-53.253,17.92c-19.473,0-38.223-6.407-53.544-18.148C267.373,18.958,285.829,12.24,305.831,12.24z
			 M217.861,155.2v-55.046c0-24.02,9.697-45.811,25.374-61.695c17.79,14.325,39.898,22.169,62.889,22.169
			c22.848,0,44.823-7.751,62.555-21.907c15.527,15.861,25.126,37.544,25.126,61.434V155.2c0,48.477-39.464,87.916-87.972,87.916
			C257.324,243.116,217.861,203.677,217.861,155.2z M311.188,255.209v29.381h-10.71v-29.381c1.773,0.093,3.557,0.145,5.355,0.145
			C307.629,255.355,309.413,255.303,311.188,255.209z M243.122,599.76c2.847-13.034,14.473-22.827,28.356-22.827
			c13.884,0,25.509,9.793,28.356,22.827H243.122z M300.478,576.624c-7.46-7.37-17.706-11.931-28.999-11.931
			c-11.363,0-21.667,4.614-29.14,12.064V546.21h58.138V576.624z M313.131,599.76c2.847-13.034,14.472-22.827,28.358-22.827
			c13.884,0,25.509,9.793,28.356,22.827H313.131z M370.856,576.995c-7.489-7.587-17.887-12.299-29.367-12.299
			c-11.179,0-21.331,4.472-28.771,11.713v-30.195h58.138V576.995z M401.455,533.972H210.211V305.091
			c0-21.568,7.466-42.692,21.032-59.489c3.602-4.477,7.604-8.601,11.92-12.331c12.824,10.304,28.226,17.51,45.077,20.508v43.051
			h35.189v-43.051c16.865-2.999,32.281-10.217,45.112-20.537c4.377,3.791,8.429,7.979,12.062,12.523
			c13.643,17.008,20.853,37.522,20.853,59.327v228.881H401.455z M413.695,352.83v-47.738c0-10.811-1.669-21.522-4.851-31.754
			l67.723,67.679l-38.081,36.589L413.695,352.83z M497.663,399.443c-10.292,10.278-27.034,10.278-37.325,0.002l-13.193-13.185
			l38.081-36.59l12.435,12.426C507.958,372.392,507.958,389.148,497.663,399.443z"/>
		<polygon points="312.126,313.659 299.886,313.659 299.886,332.018 281.527,332.018 281.527,344.258 299.886,344.258 
			299.886,380.977 312.126,380.977 312.126,344.258 330.485,344.258 330.485,332.018 312.126,332.018 		"/>
	</g>
</g>
<g>
</g>
<g>
</g>
<g>
</g>
<g>
</g>
<g>
</g>
<g>
</g>
<g>
</g>
<g>
</g>
<g>
</g>
<g>
</g>
<g>
</g>
<g>
</g>
<g>
</g>
<g>
</g>
<g>
</g>
</svg>
