<?xml version="1.0" encoding="UTF-8" standalone="yes"?>
<svg xmlns="http://www.w3.org/2000/svg" viewBox="0 0 612 612">
  <path d="M506.692 353.532s-126.566-127.275-128.187-128.71c17.644-17.836 28.64-42.244 28.965-69.18 12.995-3.074 22.49-14.667 22.49-28.582 0-13.912-9.502-25.502-22.502-28.572a100.62 100.62 0 0 0-.408-7.65h7.69V78.615h-9.603a99.4 99.4 0 0 0-5.292-16.81h14.894V49.577h-21.01C376.31 19.947 344.11 0 307.32 0c-36.788 0-68.988 19.947-86.407 49.578H199.26v12.226h15.54a99.37 99.37 0 0 0-5.292 16.81H199.26V90.84h8.335a100.725 100.725 0 0 0-.408 7.652c-13.002 3.078-22.508 14.668-22.508 28.567 0 13.9 9.5 25.492 22.494 28.58.326 26.935 11.32 51.344 28.966 69.18-5.383 4.77-127.503 128.71-127.503 128.71-15.044 15.045-15.046 39.537 0 54.6.998.998 2.04 1.926 3.116 2.79-10.475 5.09-17.73 15.808-17.73 28.214v13.238h12.227v-13.238c0-10.563 8.595-19.156 19.158-19.156s19.158 8.592 19.158 19.155V608.3h12.226V439.135c0-8.404-3.34-16.03-8.737-21.67a38.407 38.407 0 0 0 15.183-9.333l36.727-36.727v82.363h31.008V612h152.702V453.768h31.023v-83.035l37.4 37.398c7.52 7.524 17.404 11.285 27.29 11.285s19.777-3.76 27.31-11.285c15.04-15.062 15.04-39.554-.006-54.598zm-199.37-111.164c-44.65 0-81.61-33.453-87.196-76.61a55.148 55.148 0 0 1 26.2 26.31l5.52 11.723 5.536-11.713c9.092-19.24 28.693-31.673 49.935-31.673 21.255 0 40.856 12.43 49.935 31.67l5.53 11.715 5.527-11.716a55.23 55.23 0 0 1 26.207-26.315c-5.583 43.154-42.543 76.61-87.195 76.61zm-15.288 11.06l-27.18 22.61-4.488-33.165a99.457 99.457 0 0 0 31.668 10.555zm62.523-10.698l-4.505 33.302-26.993-22.684a99.42 99.42 0 0 0 31.496-10.618zm63.18-115.67c0 7.054-4.178 13.078-10.236 15.724v-31.43c6.06 2.64 10.237 8.66 10.237 15.707zM222.052 78.615a87.373 87.373 0 0 1 6.145-16.81h24.55V49.577H235.45c15.937-22.57 42.203-37.352 71.873-37.352s55.935 14.783 71.873 37.352h-17.943v12.226h25.195a87.348 87.348 0 0 1 6.145 16.81h-31.34V90.84h33.523c.326 3.07.5 6.183.5 9.338v52.038a67.344 67.344 0 0 0-32.502 25.054c-12.466-17.957-33.22-29.095-55.455-29.095-22.227 0-42.98 11.136-55.45 29.095a67.308 67.308 0 0 0-32.5-25.05v-52.04c0-3.155.175-6.27.5-9.34h32.877V78.617H222.05v-.002zm-25.147 48.447a17.07 17.07 0 0 1 10.24-15.702v31.418a17.085 17.085 0 0 1-10.24-15.715zm-42.313 272.423c-10.294 10.282-27.03 10.284-37.31.005C107 389.197 107 372.46 117.28 362.178l10.31-10.308 38.04 36.577-11.037 11.038zm19.686-19.685l-38.043-36.577L204.16 275.3c-2.774 9.608-4.198 19.64-4.198 29.892v48.924L174.28 379.8zm37.908-74.607c0-20.673 6.52-40.337 18.852-56.86 4.184-5.607 9.007-10.71 14.326-15.28.497.392.99.79 1.493 1.173l8.85 65.462 45.5-38.25V441.54h-89.02V305.19h-.002zm89.02 148.578V576.52a41.137 41.137 0 0 0-29.003-11.888 41.138 41.138 0 0 0-29.01 11.893V453.768h58.013zm-.706 146.007h-56.594c2.887-12.657 14.468-22.922 28.297-22.922s25.41 10.265 28.297 22.922zm13.643 0c2.887-12.657 14.468-22.922 28.297-22.922s25.41 10.265 28.297 22.922h-56.595zm57.3-23.258a41.13 41.13 0 0 0-29.003-11.89 41.136 41.136 0 0 0-29.008 11.892V453.767h58.012v122.748zm31.024-134.975h-89.033v-180.31l45.75 38.46 8.89-65.698c.413-.316.818-.643 1.228-.966 1.82 1.565 10.025 9.887 12.145 12.535 13.75 17.052 21.02 37.67 21.02 59.63V441.54zm7.64-167.303l67.336 67.335-36.577 38.042-26.177-26.175V305.19a107.256 107.256 0 0 0-4.584-30.95zm87.94 125.243c-10.294 10.284-27.03 10.282-37.312.003l-11.222-11.222 36.577-38.042 11.954 11.954c10.28 10.282 10.28 27.02.003 37.307z"/>
  <path d="M341.385 315.49h42.79v12.227h-42.79z"/>
  <circle cx="267.011" cy="138.697" r="14.44"/>
  <circle cx="347.636" cy="138.697" r="14.44"/>
</svg>