<svg xmlns="http://www.w3.org/2000/svg" viewBox="0 0 612 612"><circle cx="259.067" cy="165.184" r="13.447"/><circle cx="334.144" cy="165.184" r="13.447"/><path d="M450.88 491.922c-33.106 0-60.04 26.934-60.04 60.04 0 13.355 4.388 25.702 11.793 35.685a18.032 18.032 0 0 1-21.63-7.993l-13.3-23.052v-98.027h28.875v-77.35l34.837 34.84c6.788 6.794 15.815 10.537 25.416 10.537 9.602 0 18.63-3.743 25.413-10.534 6.795-6.79 10.538-15.814 10.54-25.416 0-9.6-3.744-18.63-10.537-25.415 0 0-117.827-118.517-119.33-119.847 16.94-17.145 26.65-40.226 26.944-64.44 12.103-2.87 20.95-13.662 20.95-26.6 0-12.94-8.85-23.734-20.958-26.6-.4-24.334-10.037-47.154-27.287-64.402a93.762 93.762 0 0 0-6.983-6.292V0h-117.95v57.066c-21.397 17.48-33.806 43.116-34.265 70.678-12.11 2.855-20.963 13.65-20.963 26.607 0 12.954 8.846 23.745 20.95 26.605.294 24.215 10.005 47.296 26.946 64.44-5.032 4.46-118.707 119.843-118.707 119.843-14.013 14.014-14.013 36.815 0 50.826 6.787 6.795 15.812 10.538 25.415 10.538 9.6 0 18.628-3.743 25.413-10.536l34.213-34.213v76.723h28.874V605.92H367.7v-26.54l3.44 5.962a29.41 29.41 0 0 0 19.96 14.198 29.397 29.397 0 0 0 19.562-3.04c10.654 9.626 24.76 15.5 40.215 15.5 33.105 0 60.04-26.934 60.04-60.04.002-33.105-26.932-60.038-60.037-60.038zm-213.985-7.062h54.02v21.346h-54.02V484.86zm119.423 54.077h-54.02V517.59h54.02v21.347zm0-32.73h-54.02V484.86h54.02v21.346zM236.895 517.59h54.02v21.347h-54.02V517.59zm54.02 55.217a38.303 38.303 0 0 0-27.01-11.073 38.303 38.303 0 0 0-27.01 11.073V550.32h54.02v22.487zm-27.01.312c12.903 0 23.707 9.596 26.367 21.416h-52.736c2.66-11.818 13.464-21.417 26.368-21.417zm92.413-.31a38.307 38.307 0 0 0-27.01-11.074 38.306 38.306 0 0 0-27.01 11.07v-22.485h54.02v22.49zm-.643 21.726H302.94c2.66-11.82 13.464-21.417 26.367-21.417 12.905 0 23.71 9.598 26.368 21.416zm.643-121.06h-54.02v-14.9h54.02v14.9zM296.6 289.102c-18.307 0-34.503-10.556-42.34-26.17a93.2 93.2 0 0 0 42.347 10.175 93.196 93.196 0 0 0 42.343-10.172c-7.844 15.612-24.043 26.167-42.35 26.167zm-38.98-3.47c10.44 9.267 24.153 14.854 38.98 14.854 14.83 0 28.543-5.587 38.987-14.855h42.624a86.934 86.934 0 0 1 5.534 18.5H209.482c1.16-6.37 3-12.565 5.523-18.5h42.614zm134.694 5.767l25.362 25.364-21.098 21.1v-17.652c0-9.807-1.467-19.52-4.264-28.813zm-7.122 44.038h-177.17s.054-18.363.136-19.923h176.9c.08 1.56.134 19.923.134 19.923zm-177.17 11.385h177.17V363.9h-177.17v-17.077zm-11.386-12.814l-18.858-18.852 22.76-22.76c-2.578 8.94-3.9 18.273-3.9 27.813v13.8zm11.385 41.274h177.173v17.077H208.02v-17.076zm0 28.46h177.173v18.5H208.02v-18.5zm188.557-49.782l29.15-29.15 16.512 16.517-34.73 34.73-10.933-10.933v-11.165zm35.493 46.66l-16.512-16.512 34.73-34.73 16.51 16.515-34.728 34.727zm42.12 7.397c-4.637 4.642-10.8 7.2-17.36 7.2-6.247 0-12.123-2.344-16.678-6.58l34.664-34.664c4.235 4.554 6.58 10.43 6.58 16.678 0 6.558-2.56 12.723-7.205 17.365zM365.648 264.695a89.97 89.97 0 0 1 6.718 9.55h-26.848a58.184 58.184 0 0 0 8.698-21.083l.147-.117a88.906 88.906 0 0 1 4.89 4.52 90.12 90.12 0 0 1 5.61 6.156l.785.974zm33.776-110.343c0 6.553-3.89 12.157-9.535 14.62v-29.242a15.895 15.895 0 0 1 9.535 14.623zM249.016 40.863h95.18V55.31h-95.18V40.863zm95.18-29.478V29.48h-95.18V11.384h95.18zM193.79 154.353c0-6.563 3.89-12.17 9.535-14.63v29.26c-5.644-2.46-9.535-8.067-9.535-14.63zm20.92-25.032c0-24.302 10.62-47.003 29.166-62.625h105.5a81.99 81.99 0 0 1 5.136 4.705c15.47 15.47 23.99 36.04 23.99 57.922v50.505c0 23.15-9.813 45.214-26.967 60.745l-.952.837a81.755 81.755 0 0 1-53.978 20.315 81.757 81.757 0 0 1-53.978-20.316l-.72-.626c-17.3-15.543-27.2-37.703-27.2-60.956v-50.506h.002zm10.826 137.996a88.884 88.884 0 0 1 13.32-14.263c.048.037.094.075.14.112a58.218 58.218 0 0 0 8.693 21.083h-26.82a89.843 89.843 0 0 1 4.666-6.932zm-80.372 80.455l34.727 34.73-16.512 16.512-34.73-34.73 16.516-16.51zm-8.154 67.448c-6.56 0-12.724-2.557-17.364-7.202-9.574-9.574-9.574-25.154 0-34.73l.955-.954 34.73 34.727-.958.957c-4.64 4.644-10.804 7.2-17.362 7.2zm50.93-40.77l-34.727-34.728 16.513-16.513 26.91 26.9v15.647l-8.696 8.695zm20.08 59.182h177.173v13.562H208.02V433.63zm82.894 24.946v14.9h-54.02v-14.9h54.02zm159.966 142.04c-26.828 0-48.655-21.827-48.655-48.654 0-26.83 21.827-48.655 48.655-48.655s48.655 21.827 48.655 48.655-21.827 48.653-48.655 48.653z"/></svg>