<?xml version="1.0" encoding="UTF-8" standalone="yes"?>
<svg xmlns="http://www.w3.org/2000/svg" viewBox="0 0 612 612">
  <path fill="none" stroke="#F00" stroke-width=".25" stroke-miterlimit="10" d="M354.096 321.93h17.883v3.75h-17.885z"/>
  <path d="M490.81 372.54S373.305 254.49 371.98 253.294a93.37 93.37 0 0 0 26.48-64.487c12.15-2.79 21.028-13.552 21.028-26.55 0-13.006-8.895-23.778-21.05-26.563-.2-17.42-5.67-34.008-14.19-48.42V0H228.054v58.992c-11.36 8.197-19.448 21.806-19.448 37.19 0 8.06 2.13 15.628 5.835 22.193-1.22 5.92-1.88 11.766-1.95 17.423a27.208 27.208 0 0 0-20.632 26.46 27.2 27.2 0 0 0 20.615 26.44c.15 24.58 10.06 47.636 26.758 64.62-4.587 4.106-118.07 119.222-118.07 119.222-13.894 13.896-13.894 36.518 0 50.43l.318.302c6.944 6.91 16.047 10.366 25.15 10.366 9.13 0 18.246-3.475 25.197-10.424l33.514-33.526v114.397h29.82V612h141.99V504.084h28.4V388.65l34.578 34.568c6.952 6.942 16.087 10.413 25.218 10.413 9.135 0 18.273-3.47 25.228-10.42l.237-.235c6.74-6.74 10.45-15.696 10.45-25.22-.002-9.53-3.714-18.483-10.452-25.214zm-92.363-224.93a15.854 15.854 0 0 1 9.656 14.648c0 6.614-3.976 12.23-9.656 14.635V147.61zm-186.014 29.098c-5.68-2.516-9.244-8.045-9.244-14.45 0-6.41 3.562-11.944 9.242-14.463v28.913zm26.98-165.348h133.475v68.158h-76.81c-6.655-16.768-23.042-28.66-42.15-28.66-5.072 0-10.256.85-14.516 2.394V11.36zm14.53 50.857c18.727 0 33.964 15.236 33.964 33.964s-15.236 33.967-33.965 33.967-33.964-15.236-33.964-33.965 15.235-33.963 33.964-33.963zm-30.15 125.913v-51.317c0-2.16.144-4.332.343-6.518 7.973 6.972 18.4 11.21 29.8 11.21 24.992 0 45.327-20.33 45.327-45.324a45.53 45.53 0 0 0-.318-5.302h74.11c9.203 13.453 14.032 29.27 14.032 45.935v51.317c0 32.36-19 61.714-48.432 74.782-10.25 4.564-21.17 6.878-32.48 6.878h-1.008c-8.605 0-17.528-1.576-26.59-4.693-1.543-.53-6.065-2.273-6.155-2.31-29.533-13.155-48.63-42.46-48.63-74.657zm149.924 153.463c0 7.49-6.093 13.583-13.582 13.583s-13.582-6.093-13.582-13.583 6.093-13.583 13.582-13.583c7.49 0 13.582 6.092 13.582 13.583zM163.8 415.183c-9.472 9.47-24.88 9.47-34.353 0l-.307-.294c-9.416-9.49-9.4-24.867.05-34.318l9.69-9.687 35.288 33.928-10.367 10.37zm41.533-87.628v46.068l-23.147 23.16-35.28-33.928 62.234-62.235a97.36 97.36 0 0 0-3.807 26.935zm41.812 273.085c2.714-11.966 13.357-20.93 26.063-20.93s23.348 8.965 26.063 20.93h-52.124zm53.325-20.695c-7.1-7.144-16.598-11.592-27.29-11.592-10.375 0-19.57 4.19-26.67 10.966v-75.237h53.96v75.86zm0-87.22h-83.777v-165.17c0-17.948 5.58-35.01 16.133-50.614l.055-.05s6.453-9.184 14.826-15.91c.078.06.226.12.226.18v42.188c-5.68 1.12-10.352 3.726-14.17 7.54-5.513 5.515-8.55 12.518-8.55 19.723v51.36c0 10.177 8.52 18.46 18.46 18.46v-11.36c-4.26 0-7.1-3.187-7.1-7.1v-51.36c0-4.11 1.917-8.37 5.235-11.69 3.032-3.03 7.537-4.84 12.065-4.84 9.255 0 16.778 7.414 16.778 16.527v51.36c0 3.915-3.16 7.1-7.074 7.1h-1.446v11.36h1.446c10.178 0 18.434-8.28 18.434-18.46v-51.36c0-13.537-9.94-24.843-22.72-27.356V268.84c2.84 1.488 5.27 2.86 8.03 4.11l33.15 46.916v172.86zm5.722-184.484l-20.782-29.41c6.672 1.526 13.28 2.323 19.757 2.323h1.008a91.47 91.47 0 0 0 20.436-2.316l-20.417 29.405zm5.816 292.4c2.714-11.965 13.358-20.93 26.062-20.93 12.706 0 23.348 8.966 26.063 20.93h-52.125zm53.78-20.215c-7.1-7.424-16.817-12.072-27.744-12.072-10.148 0-19.114 4.013-26.214 10.53v-74.8h53.958v76.342zm28.4-87.7H311.83V320l32.913-47.4c3.354-1.56 6.846-3.306 9.686-5.225v49.954c-11.36 2.58-19.25 12.467-19.25 24.264 0 13.754 11.195 24.943 24.95 24.943s24.93-11.19 24.93-24.943c0-11.797-7.91-21.684-19.27-24.266v-54.276c1.42.667 1.43 1.36 2.152 2.08 2.21 2.203 6.185 7.068 6.185 7.068 12.94 16.305 20.06 35.965 20.06 55.354v165.17zm11.358-120.138v-45.03c0-9.64-1.536-19.32-4.5-28.7l62.482 62.476-33.94 35.29-24.042-24.036zm77.227 42.36l-.234.235c-9.477 9.466-24.897 9.466-34.37.002l-10.53-10.528 33.93-35.29 11.21 11.212c4.593 4.585 7.12 10.685 7.12 17.176 0 6.492-2.53 12.596-7.13 17.195z"/>
  <path d="M300.47 61.058h11.36v-11.36h11.36v-11.36h-11.36V26.98h-11.36v11.36h-11.36V49.7h11.36z"/>
  <circle cx="268.262" cy="173.051" r="13.402"/>
  <circle cx="343.084" cy="173.051" r="13.402"/>
  <circle cx="253.942" cy="96.74" r="10.05"/>
</svg>