<?xml version="1.0" encoding="UTF-8" standalone="yes"?>
<svg xmlns="http://www.w3.org/2000/svg" viewBox="0 0 612 612">
  <path d="M545.24 305.84l-.144.143-.007-.007-60.616 60.617S373.607 255.603 372.026 254.21c16.222-16.492 26.33-39.008 26.646-63.85a27.076 27.076 0 0 0 21.176-26.527c0-12.99-8.97-23.797-21.183-26.527-.367-21.37-7.887-41.547-21.384-57.694l29.948-57.83h-50.195C343.727 7.63 325.38 0 306.263 0c-19.12 0-37.466 7.63-50.77 21.784h-50.2l29.81 57.572c-13.766 16.325-21.435 36.728-21.782 58.154a27.015 27.015 0 0 0-20.642 26.364c0 12.81 8.702 23.466 20.635 26.383.285 25.008 10.49 47.66 26.875 64.2-3.512 3.054-112.37 112.283-112.37 112.283l-61.053-61.046-48.088 48.088 28.31 10.43 10.43 28.312 40.088-40.085 22.335 22.334c-6.035 6.6-9.342 15.087-9.342 24.086 0 9.55 3.72 18.532 10.48 25.29 6.75 6.75 15.728 10.47 25.277 10.47s18.18-3.72 24.93-10.47l34.33-34.678v76.744h29.724V612h141.538V466.215h28.308v-77.197l35.478 35.13c6.75 6.752 15.902 10.47 25.45 10.47s18.612-3.717 25.365-10.47c13.59-13.606 13.958-35.52 1.032-49.522l22.07-22.043 40.094 40.084 10.434-28.312 28.315-10.43-48.085-48.086zM407.83 163.834c0 6.647-2.746 12.304-9.823 14.676v-29.35c7.077 2.373 9.823 8.028 9.823 14.675zM306.262 11.323c11.983 0 23.606 3.384 33.383 10.46H272.88c9.776-7.076 21.4-10.46 33.382-10.46zm82.372 21.784l-21.78 41.046H245.66L223.88 33.107h164.754zM203.307 163.835c0-6.45 5.04-11.98 9.285-14.468v28.938c-4.247-2.49-9.285-8.02-9.285-14.47zm20.608-24.896c0-19.383 7.544-37.894 20.028-53.463h124.272c12.372 15.57 18.47 33.968 18.47 53.462v50.23c0 44.915-36.51 81.456-81.386 81.456s-81.386-36.54-81.386-81.455v-50.23zm24.81 123.11c15.78 12.444 35.664 19.9 57.268 19.9 21.725 0 41.71-7.538 57.533-20.11 3.565 1.774 12.502 13.133 12.92 13.682-24.12 3.71-45.692 17.105-59.82 37.273a21.368 21.368 0 0 0-10.368-2.677c-3.65 0-7.088.92-10.103 2.532-14.04-20.244-35.69-33.77-59.968-37.62.288-.373 7.995-9.14 12.537-12.98zm51.308 91.784c-2.567 14.01-13.64 25.083-27.65 27.65 2.566-14.01 13.64-25.083 27.65-27.65zm16.405-22.21c0 5.612-4.567 10.18-10.18 10.18s-10.182-4.567-10.182-10.18 4.567-10.182 10.18-10.182 10.182 4.568 10.182 10.18zm23.695 49.86c-14.01-2.567-25.083-13.64-27.65-27.65 14.01 2.567 25.083 13.64 27.65 27.65zm-278.21-9.478l-6.118-16.61-16.61-6.12 27.567-27.566 22.728 22.728-27.566 27.568zm101.6 44.14c-4.612 4.612-10.747 7.15-17.27 7.15-6.524 0-12.658-2.538-17.27-7.152-4.62-4.618-7.164-10.757-7.164-17.282 0-6.524 2.542-12.656 7.152-17.262l12.898-12.898 35.225 33.87-13.573 13.573zm21.235-21.585l-35.052-33.868 60.49-60.75c-2.903 9.354-4.68 19.09-4.68 28.87v44.646l-20.758 21.103zm115.588 71.655v113.627c-5.662-6.93-16.336-11.42-26.74-11.42-10.557 0-19.968 4.62-27.045 11.723v-113.93h53.786zm.152 134.462h-52.4c2.685-11.323 13.403-21.202 26.2-21.202 12.798 0 23.517 9.88 26.2 21.202zm12.085 0c2.684-11.323 13.402-21.202 26.2-21.202s23.517 9.88 26.2 21.202h-52.4zm52.87-20.19c-5.662-7.292-16.64-12.064-27.365-12.064-10.246 0-19.343 4.358-26.42 11.107V466.215h53.785v114.273zm28.308-125.595H216.84v-126.08c0-15.037 4.417-29.98 11.964-43.233 23.943 2.183 45.643 15.032 58.852 35.023-1.938 3.23-2.986 6.99-2.986 11.022 0 5.11 1.244 9.804 4.233 13.5-16.986 6.69-29.6 23.25-29.6 42.587v4.906h6.858c17.255 0 32.306-9.602 40.102-23.742 7.796 14.14 22.846 23.742 40.1 23.742h4.94v-4.906c0-19.336-11.697-35.896-28.685-42.588 2.99-3.694 4.968-8.388 4.968-13.5 0-3.92-.98-7.585-2.82-10.754 13.3-19.977 34.47-32.722 58.263-34.76 7.254 12.984 10.736 27.51 10.736 42.703v126.08zm7.188-155.463l62.81 62.635-35.484 33.867-23.19-22.93V328.81c0-9.996-1.196-19.91-4.136-29.38zm82.507 116.715c-4.61 4.613-10.746 7.152-17.27 7.152s-12.657-2.54-17.27-7.153l-12.202-12.202 35.226-33.867 11.515 11.516c9.522 9.52 9.52 25.023 0 34.555zm72.743-60.607l-6.12 16.61-27.566-27.567 22.728-22.726 27.567 27.566-16.61 6.118z"/>
  <circle cx="268.921" cy="174.61" r="13.374"/>
  <circle cx="343.594" cy="174.61" r="13.374"/>
</svg>