<?xml version="1.0" encoding="UTF-8" standalone="yes"?>
<svg xmlns="http://www.w3.org/2000/svg" viewBox="0 0 612.001 612.001">
  <circle cx="265.77" cy="138.612" r="14.457"/>
  <circle cx="346.485" cy="138.612" r="14.457"/>
  <path d="M506.314 353.44s-125.84-125.974-128.666-128.49c17.486-17.98 28.304-42.46 28.388-69.434 13.046-2.996 22.867-14.77 22.867-28.635 0-13.886-9.84-25.68-22.908-28.66C404.957 43.888 360.44 0 305.83 0c-54.65 0-99.192 43.954-100.165 98.345a29.33 29.33 0 0 0-22.322 28.537 29.315 29.315 0 0 0 22.28 28.51c.053 27.04 10.894 51.586 28.426 69.596C230.522 228.12 105.7 353.44 105.7 353.44c-7.298 7.3-11.316 17.005-11.316 27.332 0 10.327 4.02 20.032 11.32 27.333 7.53 7.52 17.42 11.282 27.31 11.282s19.785-3.76 27.315-11.283l37.64-37.615v175.724h32.127v65.788h152.995v-65.788h30.6v-176.08l37.992 37.97c7.53 7.52 17.42 11.28 27.31 11.28 9.892 0 19.785-3.76 27.317-11.284 15.074-15.07 15.074-39.59.003-54.66zm-100.27-242.396c6.12 2.59 10.62 8.74 10.62 15.838 0 7.09-4.5 13.236-10.62 15.824v-31.662zm-200.423 31.44c-6.12-2.7-10.034-8.674-10.034-15.6 0-6.936 3.917-12.915 10.036-15.62v31.22zm-53.94 256.96c-10.292 10.277-27.034 10.28-37.323.002-10.298-10.298-10.298-27.053-.002-37.35l13.92-13.91 38.08 36.59-14.675 14.667zm46.29-94.353v48.093l-22.953 22.94-38.08-36.59 65.727-65.686a106.828 106.828 0 0 0-4.692 31.245zM305.83 12.24c20.137 0 38.7 6.81 53.545 18.228a87.907 87.907 0 0 1-53.253 17.92 87.895 87.895 0 0 1-53.544-18.148c14.795-11.282 33.25-18 53.253-18zM217.86 155.2v-55.046c0-24.02 9.698-45.81 25.375-61.695a100.117 100.117 0 0 0 62.89 22.167c22.847 0 44.822-7.75 62.554-21.907 15.525 15.862 25.124 37.545 25.124 61.435V155.2c0 48.477-39.464 87.916-87.972 87.916-48.51 0-87.972-39.44-87.972-87.916zm93.328 100.01v29.38h-10.71v-29.38c1.773.092 3.557.144 5.355.144 1.796 0 3.58-.05 5.355-.145zm-68.066 344.55c2.847-13.034 14.473-22.827 28.356-22.827 13.884 0 25.51 9.793 28.356 22.827h-56.712zm57.356-23.136c-7.46-7.37-17.706-11.93-29-11.93-11.362 0-21.666 4.613-29.14 12.063V546.21h58.14v30.414zm12.653 23.136c2.85-13.034 14.474-22.827 28.36-22.827 13.884 0 25.51 9.793 28.356 22.827H313.13zm57.727-22.765c-7.49-7.587-17.887-12.3-29.367-12.3-11.18 0-21.332 4.473-28.772 11.714v-30.197h58.138v30.78zm30.6-43.023H210.21v-228.88c0-21.57 7.467-42.693 21.033-59.49a95.15 95.15 0 0 1 11.92-12.33c12.824 10.303 28.226 17.51 45.077 20.507v43.05h35.19v-43.05c16.864-3 32.28-10.22 45.11-20.54a95.425 95.425 0 0 1 12.063 12.524c13.643 17.008 20.853 37.522 20.853 59.327v228.88zm12.24-181.142v-47.738c0-10.81-1.67-21.522-4.852-31.754l67.723 67.68-38.08 36.588-24.792-24.776zm83.967 46.613c-10.292 10.278-27.034 10.278-37.325.002l-13.194-13.185 38.08-36.59 12.436 12.426c10.298 10.296 10.298 27.052.003 37.347z"/>
  <path d="M312.126 313.66h-12.24v18.358h-18.36v12.24h18.36v36.72h12.24v-36.72h18.36v-12.24h-18.36z"/>
</svg>