<?xml version="1.0" encoding="UTF-8" standalone="yes"?>
<svg xmlns="http://www.w3.org/2000/svg" viewBox="0 0 611.998 611.998">
  <path d="M488.538 304.237l79.602-129.842-89.765 123.046.002.003-32.577 48.635c-27.095-27.247-119.39-120.05-120.76-121.263 17.643-17.84 28.636-42.25 28.96-69.187 12.99-3.082 22.486-14.67 22.486-28.564 0-13.9-9.5-25.49-22.497-28.57C353.08 44.035 308.526 0 253.85 0c-54.674 0-99.23 44.033-100.135 98.496-12.996 3.078-22.495 14.67-22.495 28.567 0 13.895 9.493 25.482 22.483 28.564.322 26.936 11.316 51.347 28.958 69.186-5.543 4.896-127.5 128.722-127.5 128.722-7.29 7.29-11.304 16.98-11.304 27.29 0 10.31 4.014 20.002 11.303 27.29 7.296 7.297 16.994 11.316 27.305 11.316 10.312 0 20.007-4.02 27.293-11.315l36.727-36.726v82.376h31.023v158.232h152.685V453.766h31.023v-83.05l37.397 37.397a39.31 39.31 0 0 0 3.547 3.13l-14.787 22.08 10.158 6.802 15.362-22.94a38.617 38.617 0 0 0 13.025 2.243c10.312 0 20.006-4.02 27.294-11.315 7.29-7.29 11.304-16.98 11.304-27.29 0-9.653-3.52-18.765-9.952-25.868l33.972-50.718zM354.03 111.362a17.07 17.07 0 0 1 10.23 15.7 17.068 17.068 0 0 1-10.23 15.702v-31.402zm-200.356 31.402a17.068 17.068 0 0 1-10.227-15.7 17.07 17.07 0 0 1 10.227-15.702v31.402zM307.864 30.84c20.51 16.01 33.767 40.89 33.928 68.827-14.003-5.957-24.99-16.862-31.017-30.867-5.22-12.13-6.186-25.365-2.91-37.96zm-98.907-6.254a87.41 87.41 0 0 1 44.895-12.36c15.762 0 30.557 4.19 43.365 11.48-5.318 16.405-4.545 33.957 2.326 49.926 6.58 15.294 18.05 27.54 32.687 35.062l-11.665 7.667c-6.353-7.496-15.828-12.27-26.402-12.27-18.592 0-33.8 14.742-34.567 33.15h-11.49c-.765-18.407-15.974-33.15-34.566-33.15-10.004 0-19.025 4.272-25.35 11.082l-11.97-7.87c13.412-7.597 23.942-19.28 30.134-33.672 6.748-15.68 7.614-32.892 2.603-49.044zm107.585 114.11c0 12.34-10.04 22.38-22.378 22.38-12.34 0-22.38-10.04-22.38-22.38s10.04-22.378 22.38-22.378 22.378 10.04 22.378 22.38zm-80.623 0c0 12.34-10.04 22.38-22.38 22.38s-22.38-10.04-22.38-22.38 10.04-22.378 22.38-22.378 22.38 10.04 22.38 22.38zM198.34 32.02c2.917 12.24 1.838 25.03-3.218 36.783-5.763 13.393-16.06 23.956-29.19 30.064.398-26.93 12.943-50.965 32.408-66.846zM165.9 154.415v-39.262l15.674 10.303a34.43 34.43 0 0 0-2.64 13.24c0 19.08 15.525 34.606 34.606 34.606 15.32 0 28.34-10.01 32.88-23.834h14.867c4.54 13.82 17.56 23.834 32.88 23.834 19.08 0 34.604-15.524 34.604-34.605 0-4.122-.726-8.075-2.054-11.744l15.09-9.92v37.382c0 48.497-39.455 87.952-87.95 87.952h-.003c-48.498 0-87.954-39.456-87.954-87.952zm87.952 246.803l-21.26-25.512 21.26-68.95 21.262 68.95-21.262 25.512zm-.006-124.047l-26.032-26.03a99.922 99.922 0 0 0 52.068 0l-26.036 26.03zm-13.9 3.392l-25.173 11.064-27.647-54.276a97.062 97.062 0 0 1 4.74-4.326c.802.634 48.08 47.538 48.08 47.538zm75.895-47.54a95.208 95.208 0 0 1 4.465 4.09l-27.768 54.514-24.91-10.948c.003 0 47.413-47.023 48.214-47.656zM101.116 399.475c-4.98 4.987-11.602 7.733-18.646 7.733-7.046 0-13.674-2.748-18.662-7.734-4.98-4.98-7.722-11.602-7.722-18.647 0-7.044 2.743-13.665 7.722-18.646l13.922-13.92 38.034 36.568-14.65 14.647zm45.373-94.298V354.1l-22.077 22.077-38.033-36.57 64.292-64.29a108.114 108.114 0 0 0-4.182 29.86zm12.226 136.365V305.18c0-21.37 7.02-41.564 19.705-57.988l30.7 60.273 36.692-16.126-26.86 87.1 28.825 34.587v28.515h-89.063zm31.747 158.232c2.92-13.286 14.478-22.373 28.275-22.373 13.798 0 25.355 9.088 28.274 22.374h-56.55zm57.273-22.715a41.137 41.137 0 0 0-29-11.884 41.14 41.14 0 0 0-28.998 11.883V453.767h57.996v123.29h.003zm12.962 22.714c2.92-13.286 14.477-22.373 28.275-22.373s25.355 9.088 28.274 22.374h-56.55zm57.275-22.714a41.138 41.138 0 0 0-29-11.885 41.137 41.137 0 0 0-29.012 11.896V453.767h58.01V577.06zm31.023-135.518h-88.988v-28.608l28.746-34.494-26.796-86.9 36.236 15.925 30.85-60.56c12.924 16.6 19.954 36.887 19.954 58.274V441.54zm7.748-167.192l65.25 65.247-38.034 36.57-22.737-22.738v-48.253c0-10.595-1.536-20.953-4.48-30.827zm87.826 125.125c-4.98 4.987-11.602 7.73-18.646 7.73-7.045 0-13.673-2.745-18.66-7.732l-14.66-14.66 38.035-36.568 13.934 13.934c4.98 4.98 7.72 11.6 7.72 18.645.003 7.046-2.74 13.668-7.724 18.65z"/>
  <path d="M175.035 319.1h47.375v12.227h-47.375z"/>
  <circle cx="213.54" cy="138.697" r="8.654"/>
  <circle cx="294.165" cy="138.697" r="8.654"/>
</svg>