<?xml version="1.0" encoding="iso-8859-1"?>
<!-- Generator: Adobe Illustrator 18.1.1, SVG Export Plug-In . SVG Version: 6.00 Build 0)  -->
<svg version="1.1" id="Capa_1" xmlns="http://www.w3.org/2000/svg" xmlns:xlink="http://www.w3.org/1999/xlink" x="0px" y="0px"
	 viewBox="0 0 612 612" style="enable-background:new 0 0 612 612;" xml:space="preserve">
<g>
	<g>
		<path d="M545.24,305.839l-0.144,0.144l-0.007-0.007l-60.615,60.617c0,0-110.867-110.99-112.448-112.383
			c16.222-16.492,26.33-39.008,26.646-63.851c12.211-2.732,21.176-13.537,21.176-26.526c0-12.99-8.969-23.797-21.183-26.527
			c-0.367-21.371-7.887-41.547-21.384-57.694l29.947-57.83h-50.195C343.727,7.63,325.379,0,306.262,0
			c-19.118,0-37.465,7.63-50.768,21.784h-50.202l29.812,57.572c-13.767,16.325-21.436,36.728-21.783,58.154
			c-11.937,2.914-20.643,13.552-20.643,26.364c0,12.809,8.702,23.466,20.635,26.383c0.285,25.008,10.491,47.66,26.875,64.2
			c-3.512,3.054-112.37,112.283-112.37,112.283l-61.053-61.046l-48.088,48.088l28.311,10.43l10.43,28.312l40.087-40.085
			l22.335,22.335c-6.035,6.599-9.342,15.087-9.342,24.086c0,9.551,3.721,18.532,10.48,25.289c6.751,6.751,15.728,10.47,25.277,10.47
			s18.179-3.718,24.929-10.47l34.332-34.677v76.744h29.723V612h141.539V466.215h28.308v-77.197l35.478,35.131
			c6.751,6.751,15.902,10.47,25.45,10.47s18.612-3.718,25.365-10.471c13.591-13.606,13.959-35.521,1.033-49.522l22.069-22.043
			l40.095,40.084l10.434-28.312l28.315-10.43L545.24,305.839z M407.83,163.835c0,6.647-2.746,12.304-9.823,14.676v-29.352
			C405.084,151.533,407.83,157.188,407.83,163.835z M306.262,11.323c11.983,0,23.606,3.384,33.383,10.461H272.88
			C282.656,14.707,294.279,11.323,306.262,11.323z M388.634,33.107l-21.779,41.046H245.658l-21.777-41.046
			C223.881,33.107,388.634,33.107,388.634,33.107z M203.307,163.835c0-6.451,5.039-11.98,9.285-14.468v28.938
			C208.345,175.814,203.307,170.286,203.307,163.835z M223.915,138.939c0-19.382,7.544-37.893,20.028-53.462h124.272
			c12.372,15.569,18.469,33.968,18.469,53.462v50.232c0,44.914-36.508,81.455-81.385,81.455s-81.385-36.541-81.385-81.455
			L223.915,138.939L223.915,138.939z M248.724,262.049c15.78,12.445,35.665,19.9,57.269,19.9c21.725,0,41.711-7.537,57.533-20.108
			c3.565,1.773,12.502,13.132,12.921,13.681c-24.12,3.71-45.693,17.105-59.82,37.273c-3.077-1.701-6.61-2.677-10.369-2.677
			c-3.65,0-7.088,0.92-10.103,2.532c-14.041-20.244-35.69-33.77-59.968-37.621C236.475,274.657,244.182,265.889,248.724,262.049z
			 M300.033,353.834c-2.567,14.011-13.64,25.083-27.651,27.651C274.949,367.474,286.022,356.401,300.033,353.834z M316.438,331.623
			c0,5.613-4.567,10.181-10.181,10.181s-10.181-4.567-10.181-10.181s4.567-10.181,10.181-10.181S316.438,326.01,316.438,331.623z
			 M340.133,381.485c-14.009-2.568-25.083-13.64-27.651-27.651C326.493,356.401,337.566,367.474,340.133,381.485z M61.924,372.006
			l-6.119-16.61l-16.61-6.119l27.567-27.567l22.728,22.728L61.924,372.006z M163.522,416.145
			c-4.611,4.613-10.746,7.152-17.269,7.152c-6.524,0-12.658-2.539-17.271-7.153c-4.618-4.618-7.163-10.757-7.163-17.282
			c0-6.524,2.543-12.656,7.153-17.262l12.898-12.898l35.225,33.869L163.522,416.145z M184.758,394.561l-35.052-33.869l60.491-60.75
			c-2.904,9.354-4.682,19.091-4.682,28.87v44.646L184.758,394.561z M300.346,466.215v113.627
			c-5.662-6.93-16.336-11.419-26.741-11.419c-10.556,0-19.967,4.62-27.044,11.722v-113.93H300.346z M300.498,600.677h-52.399
			c2.684-11.323,13.402-21.202,26.199-21.202C287.096,579.474,297.815,589.354,300.498,600.677z M312.583,600.677
			c2.684-11.323,13.402-21.202,26.2-21.202s23.517,9.879,26.2,21.202H312.583z M365.453,580.488
			c-5.662-7.293-16.641-12.065-27.365-12.065c-10.246,0-19.343,4.358-26.42,11.107V466.215h53.785V580.488z M393.761,454.892
			H216.838v-126.08c0-15.037,4.417-29.979,11.964-43.233c23.943,2.184,45.643,15.033,58.852,35.024
			c-1.938,3.229-2.986,6.991-2.986,11.022c0,5.111,1.244,9.804,4.233,13.499c-16.987,6.692-29.601,23.252-29.601,42.588v4.906h6.858
			c17.255,0,32.306-9.602,40.102-23.742c7.796,14.14,22.846,23.742,40.101,23.742h4.94v-4.906c0-19.336-11.698-35.896-28.686-42.588
			c2.989-3.694,4.968-8.388,4.968-13.499c0-3.921-0.981-7.586-2.821-10.755c13.3-19.977,34.47-32.722,58.264-34.759
			c7.254,12.983,10.736,27.509,10.736,42.702V454.892z M400.948,299.429l62.811,62.636l-35.485,33.867l-23.19-22.929v-44.193
			C405.084,318.814,403.888,308.901,400.948,299.429z M483.455,416.145c-4.611,4.613-10.746,7.152-17.269,7.152
			s-12.658-2.539-17.271-7.153l-12.202-12.202l35.226-33.867l11.516,11.516C492.977,391.111,492.975,406.613,483.455,416.145z
			 M556.198,355.538l-6.119,16.61l-27.567-27.567l22.728-22.727l27.567,27.566L556.198,355.538z"/>
		<circle cx="268.921" cy="174.61" r="13.374"/>
		<circle cx="343.594" cy="174.61" r="13.374"/>
	</g>
</g>
<g>
</g>
<g>
</g>
<g>
</g>
<g>
</g>
<g>
</g>
<g>
</g>
<g>
</g>
<g>
</g>
<g>
</g>
<g>
</g>
<g>
</g>
<g>
</g>
<g>
</g>
<g>
</g>
<g>
</g>
</svg>
