<?xml version="1.0" encoding="iso-8859-1"?>
<!-- Generator: Adobe Illustrator 18.1.1, SVG Export Plug-In . SVG Version: 6.00 Build 0)  -->
<svg version="1.1" id="Capa_1" xmlns="http://www.w3.org/2000/svg" xmlns:xlink="http://www.w3.org/1999/xlink" x="0px" y="0px"
	 viewBox="0 0 612 612" style="enable-background:new 0 0 612 612;" xml:space="preserve">
<g>
	<circle cx="345.975" cy="138.696" r="14.44"/>
	<path d="M157.549,490.271c-33.561,0-60.866,27.303-60.866,60.865S123.988,612,157.549,612s60.866-27.303,60.866-60.865
		S191.11,490.271,157.549,490.271z M157.549,599.774c-26.82,0-48.64-21.818-48.64-48.639s21.82-48.639,48.64-48.639
		s48.64,21.819,48.64,48.639S184.369,599.774,157.549,599.774z"/>
	<g>
		<path d="M505.027,353.528c0,0-126.56-127.271-128.183-128.707c17.643-17.836,28.639-42.245,28.964-69.181
			c12.993-3.076,22.488-14.669,22.488-28.582c0-13.91-9.501-25.5-22.5-28.57C404.887,44.028,360.333,0,305.662,0
			c-54.672,0-99.226,44.03-100.136,98.488c-13.004,3.078-22.511,14.669-22.511,28.569c0,13.904,9.499,25.497,22.499,28.581
			c0.326,26.938,11.323,51.35,28.969,69.187c-4.744,4.201-127.512,128.706-127.512,128.706c-15.042,15.059-15.042,39.552,0.005,54.6
			c7.53,7.522,17.416,11.281,27.302,11.281c9.886,0,19.772-3.763,27.294-11.284l36.725-36.726v82.361h31.008v158.233h152.7V453.761
			h31.023v-83.033l37.397,37.399c7.526,7.526,17.414,11.291,27.299,11.291c9.886,0,19.772-3.764,27.3-11.291
			C520.072,393.081,520.072,368.59,505.027,353.528z M405.84,111.35c6.056,2.642,10.232,8.662,10.232,15.706
			c0,7.051-4.175,13.076-10.232,15.721V111.35z M205.483,142.773c-6.062-2.648-10.242-8.673-10.242-15.718
			c0-7.037,4.18-13.056,10.242-15.703V142.773z M217.709,154.414v-51.961h23.883V90.227h-23.305
			c0.472-4.169,1.223-8.254,2.259-12.226h30.216V65.775h-26.039c4.381-10.268,10.664-19.532,18.398-27.364v13.61h12.226V28.103
			c4.773-3.341,9.885-6.224,15.282-8.578V61.19h12.226V15.243c5.416-1.456,11.038-2.398,16.811-2.789v56.378h12.226V12.47
			c5.774,0.407,11.394,1.366,16.81,2.838V61.19h12.226V19.63c5.401,2.373,10.513,5.275,15.282,8.639v23.752h12.226V38.657
			c7.626,7.779,13.829,16.956,18.165,27.118h-27.334v12.226h31.511c1.036,3.972,1.786,8.057,2.259,12.226h-24.598v12.226h25.178
			v51.961c0,48.497-39.454,87.953-87.953,87.953C257.165,242.366,217.709,202.91,217.709,154.414z M351.165,243.616
			c-8.411,16.795-25.826,28.156-45.508,28.156s-37.09-11.361-45.497-28.156c13.665,6.999,29.123,10.976,45.501,10.976
			C322.041,254.592,337.501,250.616,351.165,243.616z M198.299,354.11l-45.37,45.372c-10.28,10.279-27.018,10.277-37.309,0
			c-10.28-10.282-10.28-27.019-0.002-37.31l45.184-45.179l37.495,36.049v1.068H198.299z M198.299,336.082l-28.847-27.736
			l8.204-8.202L198.299,320V336.082z M198.339,303.077l-12.036-11.578l16.207-16.205
			C199.925,284.241,198.521,293.556,198.339,303.077z M242.104,599.768c2.645-12.938,14.388-23.533,28.44-23.533
			s25.795,10.597,28.44,23.533H242.104z M299.544,576.463c-7.455-7.554-17.701-12.455-29-12.455
			c-11.303,0-21.556,4.906-29.012,12.466v-56.815h58.012L299.544,576.463L299.544,576.463z M299.544,507.433h-58.012v-10.698h58.011
			L299.544,507.433L299.544,507.433z M299.544,484.509h-58.012v-30.748h58.011L299.544,484.509L299.544,484.509z M312.34,599.768
			c2.645-12.938,14.388-23.533,28.44-23.533s25.795,10.597,28.44,23.533H312.34z M369.782,576.464
			c-7.455-7.554-17.703-12.457-29.001-12.457c-11.303,0-21.554,4.906-29.01,12.464v-56.813h58.012V576.464L369.782,576.464z
			 M369.782,507.433H311.77v-10.698h58.012V507.433L369.782,507.433z M369.782,484.509H311.77v-30.748h58.012V484.509
			L369.782,484.509z M400.805,441.535h-190.28V305.187c0-20.383,6.333-39.781,18.325-56.15c0,0,7.268-9.935,14.85-15.994
			c0.028,0.021,0.055,0.043,0.083,0.064c5.731,29.278,31.643,50.89,61.875,50.89c30.233,0,56.153-21.615,61.889-50.893
			c0.028-0.021,0.055-0.044,0.083-0.066c5.138,4.406,12.169,12.528,12.169,12.528c13.743,17.063,21.007,37.677,21.007,59.619
			V441.535z M408.449,274.25l20.15,20.148l-15.568,14.96v-4.171C413.03,294.661,411.456,284.233,408.449,274.25z M413.03,326.315
			l24.216-23.269l7.025,7.024l-31.242,30.037L413.03,326.315L413.03,326.315z M496.382,399.482
			c-10.285,10.283-27.022,10.283-37.309,0l-44.192-44.193l38.039-36.572l43.46,43.454
			C506.662,372.464,506.662,389.201,496.382,399.482z"/>
		<circle cx="265.35" cy="138.696" r="14.44"/>
		<polygon points="283.918,308.297 271.692,308.297 271.692,322.433 258.168,322.433 258.168,334.659 271.692,334.659 
			271.692,370.19 260.995,370.19 260.995,382.416 294.998,382.416 294.998,370.19 283.918,370.19 		"/>
		<polygon points="342.755,308.297 330.529,308.297 330.529,322.433 317.004,322.433 317.004,334.659 330.529,334.659 
			330.529,370.19 319.832,370.19 319.832,382.416 353.835,382.416 353.835,370.19 342.755,370.19 		"/>
	</g>
</g>
<g>
</g>
<g>
</g>
<g>
</g>
<g>
</g>
<g>
</g>
<g>
</g>
<g>
</g>
<g>
</g>
<g>
</g>
<g>
</g>
<g>
</g>
<g>
</g>
<g>
</g>
<g>
</g>
<g>
</g>
</svg>
