<?xml version="1.0" encoding="utf-8"?>
<!-- Generator: Adobe Illustrator 16.0.0, SVG Export Plug-In . SVG Version: 6.00 Build 0)  -->
<!DOCTYPE svg PUBLIC "-//W3C//DTD SVG 1.1//EN" "http://www.w3.org/Graphics/SVG/1.1/DTD/svg11.dtd">
<svg version="1.1" id="Layer_1" xmlns="http://www.w3.org/2000/svg" xmlns:xlink="http://www.w3.org/1999/xlink" x="0px" y="0px"
	 width="126px" height="126px" viewBox="0 0 126 126" enable-background="new 0 0 126 126" xml:space="preserve">
<g>
	<path d="M37.046,75.326c0.3-0.334,0.413-0.707,0.244-1.139c-0.147-0.371-0.567-0.649-0.971-0.642
		c-0.456,0.011-0.637,0.337-0.769,0.708c-0.139,0.385-0.384,0.635-0.834,0.671c-0.166-0.373-0.118-0.635,0.233-0.858
		c0.469-0.307,0.553-0.668,0.312-1.073c-0.194-0.332-0.508-0.478-0.871-0.522c-0.362-0.047-0.709,0.174-0.878,0.522
		c-0.161,0.33-0.023,0.575,0.205,0.817c0.158,0.17,0.294,0.365,0.404,0.568c0.041,0.079-0.016,0.217-0.031,0.325
		c-0.104-0.022-0.249-0.011-0.308-0.078c-0.171-0.188-0.294-0.416-0.458-0.61c-0.205-0.244-0.403-0.515-0.661-0.691
		c-0.264-0.182-0.587-0.151-0.834,0.103c-0.258,0.261-0.428,0.546-0.313,0.945c0.145,0.513,0.536,0.619,0.991,0.685
		c0.323,0.045,0.64,0.142,0.947,0.25c0.086,0.027,0.167,0.168,0.184,0.266c0.009,0.044-0.138,0.162-0.223,0.169
		c-0.286,0.024-0.579,0.05-0.862,0.011c-0.465-0.064-0.805-0.004-0.955,0.327c-0.118,0.254-0.167,0.56-0.165,0.842
		c0.006,0.552,0.576,0.968,1.088,0.782c0.484-0.174,0.896-0.448,0.974-1.044c0.024-0.188,0.186-0.356,0.288-0.534
		c0.031,0.018,0.062,0.034,0.094,0.05c0.029,0.4,0.18,0.83-0.303,1.11c-0.069,0.041-0.111,0.15-0.134,0.236
		c-0.087,0.334,0.148,0.834,0.474,1.03c0.319,0.189,0.766,0.144,1.052-0.104c0.353-0.302,0.375-0.755,0.03-1.234
		c-0.26-0.364-0.305-0.761-0.308-1.192c0.499,0.058,0.619,0.221,0.659,0.817c0.04,0.626,0.786,1.074,1.361,0.813
		c0.363-0.161,0.572-0.555,0.51-0.951c-0.059-0.377-0.362-0.662-0.777-0.691c-0.425-0.031-0.83-0.086-1.209-0.542
		c0.385,0.011,0.681-0.005,0.969,0.035C36.514,75.544,36.808,75.593,37.046,75.326z"/>
	<path d="M122.702,53.455c-0.091-0.411-0.44-0.715-0.859-0.746c-0.735-0.056-1.458-0.021-2.179,0.015
		c-0.723,0.034-1.443,0.074-2.171-0.004c-4.679-0.509-8.947-2.433-12.144-4.052c-7.726-3.917-13.99-5.665-20.315-5.665
		c-0.933,0-1.877,0.041-2.806,0.121c-3.565,0.307-8.17,1.058-12.156,4.16c-4.17,3.244-6,7.685-7.072,11.422
		c-1.072-3.738-2.903-8.178-7.072-11.422c-3.985-3.102-8.59-3.854-12.156-4.16c-0.929-0.08-1.873-0.121-2.806-0.121
		c-6.325,0-12.591,1.748-20.316,5.665c-3.196,1.619-7.464,3.543-12.143,4.052c-0.726,0.078-1.448,0.04-2.171,0.004
		c-0.722-0.035-1.444-0.07-2.179-0.015c-0.419,0.031-0.77,0.335-0.859,0.746c-0.09,0.411,0.1,0.832,0.469,1.037
		c5.396,2.989,9.319,7.698,13.112,12.252c0.874,1.049,1.747,2.097,2.637,3.125c4.299,4.969,10.409,10.893,19.587,12.62
		c1.817,0.342,3.669,0.509,5.661,0.509c2.617,0,5.412-0.288,8.794-0.909c2.503-0.459,5.01-0.911,7.517-1.362L63,80.381l1.926,0.348
		c2.508,0.451,5.014,0.901,7.518,1.361c3.382,0.621,6.176,0.909,8.793,0.909c0.002,0,0.002,0,0.002,0c1.99,0,3.843-0.167,5.66-0.509
		c9.178-1.727,15.287-7.651,19.586-12.62c0.891-1.028,1.764-2.076,2.638-3.125c3.793-4.554,7.716-9.263,13.112-12.252
		C122.602,54.287,122.792,53.866,122.702,53.455z M115.807,54.397c-1.289,0.54-2.813,0.185-3.779-0.892
		C113.236,53.874,114.501,54.178,115.807,54.397z M114.137,57.023c-0.289,0.045-0.721,0.108-0.865-0.049
		c-0.318-0.347-0.174-1.183,0.127-1.338c0.281-0.144,0.596-0.048,0.752,0.231C114.33,56.19,114.333,56.991,114.137,57.023z
		 M111.775,54.391c0.44,0.271,0.857,0.521,1.277,0.777c-0.132,0.161-0.257,0.313-0.354,0.432c-0.359-0.187-0.681-0.356-1.03-0.54
		C111.7,54.868,111.736,54.627,111.775,54.391z M111.434,55.768c0.207-0.042,0.455,0.071,0.67,0.156
		c0.082,0.033,0.133,0.155,0.252,0.303c0.045,0.202,0.117,0.47,0.156,0.745c0.01,0.063-0.08,0.191-0.148,0.212
		c-0.721,0.217-0.928,0.091-1.076-0.638c-0.014-0.066-0.045-0.141-0.029-0.204C111.305,56.135,111.338,55.787,111.434,55.768z
		 M97.637,50.23c0.1-0.371,0.094-0.767,0.168-1.148c0.102-0.516,0.198-1.035,0.328-1.543c2.018,0.768,4.115,1.692,6.354,2.827
		c0.104,0.051,0.218,0.105,0.322,0.157c-0.326,0.45-0.725,0.839-1.156,1.195c-0.678,0.561-1.371,1.103-2.068,1.637
		c-0.201,0.151-0.438,0.25-0.659,0.375c-0.04-0.039-0.079-0.076-0.12-0.113c0.109-0.269,0.152-0.604,0.34-0.797
		c0.623-0.634,1.297-1.217,1.949-1.83c0.063-0.06,0.08-0.169,0.118-0.257c-0.103,0.021-0.231,0.009-0.296,0.068
		c-0.374,0.338-0.73,0.696-1.098,1.043c-0.264,0.244-0.533,0.484-0.813,0.733c-0.181-0.268-0.156-0.432,0.026-0.657
		c0.433-0.536,0.819-1.111,1.213-1.677c0.047-0.065,0.019-0.183,0.026-0.279c-0.086,0.053-0.185,0.1-0.258,0.165
		c-0.05,0.047-0.063,0.127-0.103,0.183c-0.378,0.529-0.755,1.058-1.127,1.572c-0.409-0.206-0.452-0.399-0.244-0.712
		c0.364-0.544,0.687-1.117,1.019-1.685c0.037-0.062,0.017-0.157,0.021-0.239c-0.071,0.021-0.164,0.024-0.211,0.068
		c-0.085,0.077-0.155,0.179-0.213,0.279c-0.316,0.534-0.625,1.074-0.947,1.608c-0.046,0.079-0.143,0.184-0.216,0.187
		c-0.226,0.007-0.45-0.033-0.722-0.058c0.145-0.258,0.271-0.482,0.399-0.702c0.306-0.512,0.618-1.025,0.913-1.545
		c0.043-0.074,0.01-0.187,0.012-0.283c-0.08,0.047-0.191,0.079-0.232,0.15c-0.484,0.819-0.954,1.646-1.44,2.462
		c-0.121,0.201-0.29,0.378-0.448,0.575c-0.242-0.296-0.205-0.517-0.031-0.796c0.394-0.641,0.74-1.306,1.104-1.963
		c0.055-0.095,0.085-0.206,0.126-0.312c-0.037-0.026-0.073-0.055-0.108-0.085c-0.084,0.087-0.188,0.165-0.246,0.267
		c-0.4,0.71-0.791,1.428-1.183,2.143C97.682,50.991,97.512,50.701,97.637,50.23z M79.986,71.823
		c-1.635,0.137-3.682,0.062-5.584-0.035c-1.154-0.06-2.35-0.12-3.536-0.12c-0.425,0-0.851,0.009-1.318,0.027
		c-0.002,0-0.003,0-0.004,0c0.972-3.553,2.36-5.858,4.491-7.473c1.734-1.313,3.779-1.962,5.764-1.875
		c0.016,0.001,0.096,0.001,0.111,0.001c3.162,0,6.095,0.788,9.511,2.553c0.376,0.195,0.44,0.313,0.44,0.313
		c0,0.005,0.017,0.163-0.256,0.612C87.391,69.506,84.243,71.466,79.986,71.823z M88.417,70.979c-0.263,0.09-0.418,0.049-0.58-0.181
		c0.111-0.089,0.215-0.194,0.324-0.288c0.038,0.141,0.118,0.281,0.235,0.406C88.41,70.932,88.411,70.958,88.417,70.979z
		 M78.341,76.43c0.282-0.086,0.599-0.059,0.901-0.057c0.063,0.001,0.152,0.104,0.17,0.171c0.066,0.296,0.111,0.595,0.167,0.922
		c-0.485,0.132-0.935,0.181-1.334-0.073c-0.157-0.1-0.32-0.352-0.304-0.52C77.956,76.707,78.171,76.479,78.341,76.43z
		 M77.618,74.773c0.047-0.353,0.259-0.58,0.638-0.572c0.366,0.003,0.729,0.085,1.096,0.131c-0.014,0.468-0.024,0.861-0.039,1.329
		c-0.446-0.073-0.847-0.109-1.227-0.21C77.708,75.352,77.573,75.118,77.618,74.773z M77.473,73.802
		c-0.002,0.322-0.184,0.539-0.546,0.654c-0.437,0.14-0.804,0.019-0.921-0.435c-0.021-0.082-0.027-0.17-0.044-0.254
		C76.463,73.787,76.968,73.797,77.473,73.802z M75.042,73.725c-0.01,0.101-0.015,0.2-0.028,0.299
		c-0.027,0.185-0.217,0.344-0.277,0.435c-0.576,0.312-1.196,0.007-1.161-0.534c0.007-0.09,0.024-0.179,0.038-0.268
		c0.232,0.011,0.463,0.021,0.691,0.033C74.548,73.702,74.797,73.712,75.042,73.725z M66.807,73.843
		c-0.736-0.397-0.843-1.366-0.193-1.884c0.322-0.257,0.678-0.432,1.049-0.563c-0.094,0.42-0.069,0.82,0.081,1.166
		c-0.11,0.067-0.222,0.131-0.33,0.201c-0.093,0.055-0.153,0.16-0.228,0.241c0.023,0.036,0.047,0.065,0.071,0.099
		c0.116-0.049,0.244-0.09,0.354-0.154c0.088-0.053,0.176-0.106,0.265-0.158c0.021,0.034,0.036,0.072,0.062,0.104
		c0.222,0.291,0.541,0.486,0.918,0.599c-0.121,0.079-0.244,0.155-0.365,0.237c-0.08,0.057-0.123,0.166-0.186,0.25
		c0.1-0.004,0.221,0.022,0.301-0.023c0.209-0.124,0.412-0.258,0.617-0.387c0.107,0.014,0.213,0.029,0.327,0.029
		c0.013,0,0.11,0,0.123-0.002c0.088-0.004,0.179-0.002,0.267-0.006c-0.353,0.307-0.715,0.594-1.061,0.901
		c-0.068,0.062-0.082,0.184-0.12,0.278c0.103-0.03,0.214-0.041,0.3-0.092c0.117-0.074,0.217-0.182,0.324-0.271
		c0.327-0.275,0.653-0.551,0.979-0.824c0.117-0.002,0.234-0.007,0.352-0.007c-0.012,0.058-0.027,0.112-0.054,0.164
		c-0.228,0.426-0.476,0.836-0.701,1.26c-0.056,0.11-0.05,0.249-0.073,0.372c0.104-0.084,0.239-0.148,0.305-0.255
		c0.254-0.417,0.487-0.849,0.752-1.318c0.42,0.417,0.891,0.56,1.467,0.431c-0.26,0.49-0.501,0.97-0.846,1.354
		c-0.4,0.45-0.851,0.887-1.356,1.206c-0.649,0.413-1.125,0.138-1.258-0.62c-0.023-0.132-0.063-0.256-0.108-0.439
		c-0.635,0.352-1.264,0.857-1.838,0.08c-0.47-0.637-0.057-1.164,0.391-1.678C67.175,74.023,66.986,73.938,66.807,73.843z
		 M65.3,69.383c-0.399-0.207-0.843-0.377-1.168-0.671c-0.499-0.452-0.399-1.168,0.16-1.539c0.22-0.146,0.483-0.247,0.74-0.312
		c0.298-0.078,0.413-0.146,0.26-0.491c-0.3-0.679,0.083-1.416,0.763-1.476c1.053-0.094,1.908,0.405,2.652,0.873
		c-0.091,0.51-0.164,0.918-0.243,1.351c-0.075-0.026-0.194-0.065-0.312-0.108c-0.506-0.193-1.004-0.395-1.516-0.572
		c-0.082-0.028-0.195,0.033-0.297,0.053c0.068,0.064,0.125,0.158,0.207,0.189c0.721,0.279,1.45,0.545,2.17,0.825
		c0.094,0.038,0.182,0.095,0.27,0.151c-0.038,0.08-0.073,0.164-0.109,0.244c-0.064,0.005-0.127,0.007-0.188-0.006
		c-0.506-0.104-1.006-0.235-1.512-0.343c-0.088-0.019-0.193,0.04-0.294,0.063c0.084,0.066,0.156,0.152,0.25,0.191
		c0.117,0.049,0.25,0.062,0.374,0.092c0.352,0.088,0.699,0.172,1.078,0.266c-0.111,0.184-0.199,0.333-0.29,0.48
		c-0.407-0.074-0.8-0.151-1.192-0.209c-0.063-0.014-0.144,0.071-0.215,0.11c0.057,0.046,0.105,0.123,0.168,0.138
		c0.323,0.072,0.646,0.127,0.969,0.191c0.216,0.042,0.305,0.146,0.191,0.364c-0.421-0.015-0.83-0.04-1.24-0.036
		c-0.088,0.001-0.177,0.091-0.266,0.139c0.086,0.04,0.17,0.113,0.258,0.118c0.373,0.03,0.75,0.03,1.124,0.06
		c0.042,0.004,0.085,0.019,0.128,0.035c-0.15,0.432-0.291,0.885-0.425,1.354c-0.348,0.075-0.696,0.142-1.047,0.188
		c-0.358,0.047-0.759-0.005-1.106-0.119c-0.574-0.188-0.66-0.92-0.183-1.297c0.058-0.047,0.114-0.103,0.173-0.15
		c0.004-0.043,0.01-0.084,0.016-0.125C65.529,69.398,65.396,69.432,65.3,69.383z M67.607,61.95c-0.166-0.208-0.36-0.404-0.481-0.64
		c-0.183-0.355-0.178-0.736,0.104-1.05c0.271-0.302,0.623-0.297,0.979-0.184c0.178,0.056,0.341,0.149,0.516,0.223
		c0.077,0.033,0.155,0.063,0.279,0.113c-0.021-0.136-0.031-0.214-0.043-0.293c-0.078-0.524,0.325-1.038,0.855-1.091
		c0.701-0.073,1.44,0.617,1.428,1.322c-0.01,0.5,0.248,1.001,0.66,1.097c0.462,0.108,0.506,0.451,0.619,0.82
		c-0.162,0.063-0.307,0.117-0.461,0.176c-0.121-0.276-0.22-0.513-0.336-0.743c-0.033-0.069-0.127-0.102-0.192-0.151
		c-0.021,0.081-0.07,0.169-0.05,0.235c0.057,0.18,0.132,0.355,0.224,0.518c0.151,0.277,0.091,0.484-0.188,0.673
		c-0.059-0.106-0.123-0.2-0.168-0.304c-0.233-0.55-0.461-1.102-0.697-1.65c-0.049-0.116-0.137-0.211-0.205-0.316
		c-0.041,0.022-0.082,0.043-0.124,0.066c0.026,0.12,0.04,0.245,0.087,0.354c0.303,0.698,0.615,1.392,0.919,2.092
		c0.054,0.122,0.084,0.256,0.131,0.406c-0.417-0.018-0.631-0.206-0.792-0.488c-0.311-0.541-0.626-1.075-0.952-1.604
		c-0.042-0.066-0.155-0.09-0.235-0.134c0.002,0.086-0.016,0.176,0.004,0.255c0.025,0.087,0.086,0.165,0.132,0.249
		c0.296,0.529,0.592,1.059,0.889,1.59c-0.021,0.038-0.046,0.079-0.071,0.118c-0.113-0.067-0.265-0.11-0.343-0.206
		c-0.366-0.458-0.708-0.935-1.071-1.395c-0.08-0.1-0.222-0.157-0.332-0.231c0.041,0.132,0.064,0.274,0.129,0.396
		c0.062,0.123,0.16,0.229,0.244,0.341c0.309,0.407,0.619,0.815,0.945,1.246c-0.105,0.097-0.193,0.177-0.271,0.25
		c-0.32-0.206-0.394-0.666-0.844-0.646c0.039,0.128,0.113,0.221,0.184,0.318c0.156,0.217,0.388,0.42,0.447,0.662
		c0.1,0.411,0.093,0.85,0.131,1.323c-0.11-0.022-0.299-0.021-0.43-0.103c-0.484-0.308-0.992-0.594-1.408-0.979
		c-0.414-0.385-0.78-0.844-1.068-1.331c-0.318-0.546-0.055-0.937,0.576-0.978c0.156-0.008,0.31-0.025,0.56-0.046
		C67.744,62.091,67.669,62.026,67.607,61.95z M67.895,58.832c-0.24-0.085-0.453-0.161-0.687-0.242
		c0.076-0.119,0.136-0.213,0.196-0.303C67.939,58.62,67.939,58.62,67.895,58.832z M67.486,56.654
		c0.959-0.317,1.188-0.19,1.338,0.686c0.061,0.354-0.051,0.567-0.352,0.669c-0.332,0.113-0.623,0.016-0.748-0.323
		C67.609,57.354,67.563,56.994,67.486,56.654z M69.906,56.723c0.066,0.19,0.193,0.357,0.311,0.571
		c-0.093,0.009-0.146,0.021-0.201,0.014c-0.396-0.037-0.978-0.705-0.966-1.113c0.002-0.055,0.06-0.121,0.104-0.16
		c0.22-0.176,0.435-0.353,0.668-0.505c0.062-0.04,0.179,0,0.269,0.001c-0.007,0.079,0.011,0.18-0.028,0.232
		C69.839,56.058,69.787,56.383,69.906,56.723z M73.38,60.424c-0.269,0.214-0.582,0.381-0.896,0.521
		c-0.235,0.108-0.461,0.033-0.603-0.205c-0.142-0.246-0.165-0.498,0.058-0.705c0.144-0.13,0.313-0.244,0.485-0.33
		c0.534-0.256,0.535-0.249,0.942,0.229C73.375,60.103,73.457,60.363,73.38,60.424z M73.908,60.967
		c0.029-0.027,0.146-0.013,0.183,0.023c0.192,0.181,0.384,0.377,0.601,0.598c-0.441,0.221-0.871,0.475-1.289,0.758
		c-0.004-0.004-0.016-0.002-0.021-0.005c-0.219-0.133-0.315-0.431-0.168-0.653C73.396,61.416,73.668,61.199,73.908,60.967z
		 M72.51,58.728c-0.098,0.2-0.557,0.263-0.871,0.313c-0.367,0.062-0.662-0.13-0.738-0.396c-0.069-0.26,0.096-0.559,0.523-0.798
		c0.135-0.026,0.383-0.084,0.637-0.118c0.061-0.009,0.172,0.046,0.19,0.099C72.363,58.129,72.611,58.516,72.51,58.728z
		 M72.203,51.689c-0.573,0-1.064-0.251-1.255-0.63c-0.171-0.341-0.013-0.707,0.331-0.651c0.386,0.062,0.771,0.244,1.101,0.459
		c0.076,0.047-0.067,0.438-0.114,0.667C72.255,51.591,72.223,51.643,72.203,51.689z M71.082,52.275
		c0.3,0.008,0.598,0.135,0.893,0.225c0.021,0.003,0.025,0.106,0.017,0.158c-0.043,0.29-0.097,0.577-0.155,0.938
		c-0.341-0.104-0.671-0.177-0.975-0.307c-0.289-0.124-0.391-0.397-0.238-0.67C70.713,52.461,70.928,52.272,71.082,52.275z
		 M70.846,54.252c0.288-0.085,0.607-0.067,0.948-0.097c-0.003,0.433-0.003,0.788-0.003,1.238c-0.38-0.085-0.721-0.115-1.014-0.248
		c-0.147-0.068-0.291-0.325-0.283-0.491C70.497,54.51,70.693,54.295,70.846,54.252z M71.842,56.059
		c0.026,0.033,0.037,0.082,0.045,0.128c0.039,0.227,0.074,0.458,0.127,0.798c-0.431-0.017-0.818,0.017-1.185-0.055
		c-0.372-0.074-0.524-0.428-0.381-0.721C70.605,55.876,71.611,55.765,71.842,56.059z M72.727,62.837
		c-0.242,0.189-0.479,0.383-0.705,0.587c0.045-0.256,0.203-0.458,0.459-0.557C72.561,62.837,72.645,62.828,72.727,62.837z
		 M71.225,64.223c-0.326,0.356-0.629,0.738-0.918,1.142c-0.027-0.039-0.063-0.067-0.089-0.109c-0.231-0.384-0.196-0.75,0.074-0.994
		C70.546,64.029,70.906,64,71.225,64.223z M69.748,66.202c-0.178,0.293-0.344,0.604-0.506,0.922c-0.161-0.194-0.234-0.44-0.16-0.638
		C69.154,66.296,69.421,66.173,69.748,66.202z M71.552,73.583c0.231,0.005,0.464,0.008,0.695,0.017
		c-0.011,0.006-0.021,0.014-0.031,0.02C71.973,73.743,71.754,73.716,71.552,73.583z M77.896,60.562
		c-1.107-0.468-2.018-1.217-2.742-2.196c-0.293-0.395-0.488-0.875-0.657-1.343c-0.118-0.327,0.069-0.619,0.372-0.798
		c0.297-0.171,0.57-0.084,0.806,0.131c0.152,0.143,0.304,0.298,0.409,0.476c0.232,0.409,0.434,0.832,0.65,1.247
		c0.285,0.539,0.521,1.11,0.873,1.601c0.213,0.3,0.488,0.561,0.771,0.824C78.217,60.52,78.057,60.536,77.896,60.562z M86.646,52.286
		c0.164-0.061,0.338-0.112,0.512-0.13c1.607-0.154,2.996,0.344,4.154,1.357c-0.194,0.395-0.379,0.763-0.592,1.188
		c-0.707-0.29-1.467-0.6-2.23-0.909c-0.025,0.038-0.053,0.075-0.078,0.111c0.083,0.077,0.152,0.182,0.25,0.227
		c0.613,0.265,1.224,0.543,1.855,0.759c0.314,0.109,0.431,0.289,0.496,0.645c-0.867-0.319-1.681-0.62-2.494-0.918l-0.071,0.116
		c0.093,0.077,0.167,0.182,0.272,0.222c0.654,0.259,1.315,0.503,1.973,0.751c0.121,0.044,0.238,0.096,0.356,0.145l-0.026,0.109
		c-0.217,0.003-0.443,0.042-0.648-0.002c-0.837-0.18-1.667-0.388-2.5-0.587c-0.068-0.016-0.139-0.056-0.203-0.047
		c-0.066,0.007-0.127,0.063-0.191,0.098c0.039,0.051,0.067,0.124,0.119,0.147c0.08,0.043,0.176,0.058,0.27,0.08
		c0.768,0.2,1.539,0.398,2.309,0.597c-0.148,0.364-0.395,0.511-0.791,0.391c-0.338-0.099-0.685-0.175-1.029-0.237
		c-0.149-0.03-0.313-0.003-0.469,0c0.137,0.084,0.26,0.213,0.406,0.252c0.494,0.133,0.996,0.237,1.5,0.352
		c-0.003,0.155-0.003,0.289-0.003,0.441c-0.417-0.045-0.787-0.089-1.161-0.13c-0.546-0.063-1.095-0.133-1.643-0.184
		c-0.076-0.006-0.161,0.077-0.243,0.117c0.069,0.05,0.133,0.11,0.208,0.142c0.061,0.028,0.14,0.019,0.208,0.028
		c0.815,0.095,1.631,0.186,2.446,0.287c0.11,0.014,0.256,0.038,0.316,0.109c0.289,0.354,0.553,0.729,0.833,1.106
		c-1.264,0.445-2.596,0.552-3.946,0.342c-0.865-0.136-1.106-0.646-0.709-1.419c0.155-0.304,0.047-0.349-0.22-0.45
		c-0.474-0.181-0.948-0.396-1.37-0.676c-0.353-0.231-0.492-0.632-0.361-1.063c0.139-0.457,0.474-0.713,0.929-0.818
		c0.121-0.029,0.244-0.04,0.366-0.061C85.113,53.369,85.416,52.752,86.646,52.286z M100.014,57.636
		c0.073,0.841-0.416,1.491-1.008,2.028c-0.229,0.21-0.564,0.372-0.872,0.408c-1.174,0.135-2.174-0.469-2.646-1.562
		c-0.312-0.719-0.215-1.403,0.285-2.013c0.427-0.517,1.22-0.641,1.795-0.311c0.375,0.222,0.554,0.64,0.445,1.056
		c-0.105,0.398-0.408,0.67-0.781,0.685c0.033-0.048,0.06-0.085,0.086-0.12c0.195-0.245,0.189-0.5,0.022-0.749
		c-0.187-0.274-0.459-0.405-0.79-0.356c-0.31,0.045-0.453,0.268-0.516,0.555c-0.113,0.536,0.211,1.067,0.771,1.208
		c0.566,0.146,1.035-0.061,1.424-0.47c0.44-0.463,0.509-0.996,0.236-1.561c-0.558-1.15-2.015-1.339-3.006-0.415
		c-1.135,1.062-0.822,3.292,0.842,4.177c0.6,0.32,1.221,0.577,1.946,0.397c0.002,0.043,0.004,0.083,0.006,0.126
		c-0.358,0.108-0.711,0.288-1.078,0.313c-0.868,0.063-1.681-0.106-2.386-0.699c-1.139-0.955-1.523-2.506-0.9-3.852
		c0.613-1.322,2.049-2.072,3.487-1.798C98.941,54.984,99.891,56.203,100.014,57.636z M98.418,53.995
		c0.076-0.618,0.143-1.243,0.536-1.76c0.364-0.477,1.053-0.434,1.371,0.162c0.015,0.084,0.073,0.268,0.073,0.451
		c0,0.732-0.414,1.273-0.881,1.78c-0.039,0.042-0.158,0.066-0.207,0.039c-0.274-0.155-0.541-0.326-0.805-0.501
		C98.458,54.133,98.41,54.048,98.418,53.995z M99.139,62.131c0.086,0.264,0.201,0.525,0.254,0.796
		c0.072,0.371-0.108,0.765-0.382,0.868c-0.368,0.145-0.651-0.063-0.805-0.333c-0.229-0.412-0.356-0.876-0.554-1.308
		c-0.137-0.305-0.008-0.394,0.271-0.476C98.721,61.452,98.716,61.44,99.139,62.131z M97.104,63.476
		c-0.004,0.327-0.185,0.584-0.523,0.67c-0.35,0.09-0.668,0.043-0.924-0.254c-0.355-0.41-0.438-1.687-0.12-2.099
		c0.039-0.051,0.141-0.089,0.204-0.078c0.41,0.063,0.82,0.145,1.302,0.235C97.064,62.435,97.111,62.956,97.104,63.476z
		 M89.172,61.748c0.299-0.208,0.577-0.443,0.872-0.656c0.464-0.337,0.5-0.33,0.871,0.162c-0.104,0.069-0.208,0.142-0.313,0.214
		c-0.469,0.313-0.94,0.62-1.401,0.945c-0.058,0.039-0.081,0.124-0.108,0.206c-0.607-0.281-1.201-0.532-1.787-0.757
		c-0.049-0.319,0.031-0.659,0.275-0.958c0.67-0.821,1.648-1.031,2.611-1.25c0.029,0.259,0.022,0.476,0.084,0.672
		c0.059,0.2-0.004,0.287-0.162,0.396c-0.377,0.259-0.739,0.541-1.1,0.822c-0.06,0.043-0.076,0.149-0.111,0.223
		C88.992,61.763,89.109,61.79,89.172,61.748z M90.777,60.039c-0.033-0.355,0.176-0.586,0.478-0.698
		c0.324-0.124,0.669-0.211,1.011-0.265c0.613-0.096,0.616-0.083,0.875,0.474c0.274,0.591,0.274,0.591-0.287,0.941
		c-0.068,0.043-0.14,0.085-0.213,0.124c-0.408,0.214-0.838,0.291-1.287,0.146C91.01,60.647,90.811,60.402,90.777,60.039z
		 M92.714,61.71c0.181-0.483,0.597-0.765,1.007-1.033c0.051-0.033,0.168-0.014,0.221,0.026c0.361,0.253,0.711,0.518,1.154,0.845
		c-0.183,0.326-0.35,0.7-0.584,1.029c-0.322,0.447-0.994,0.644-1.365,0.452C92.729,62.812,92.523,62.233,92.714,61.71z
		 M95.38,54.041c-0.2,0.117-0.421,0.204-0.553,0.264c-0.144,0.091-0.224,0.124-0.283,0.179c-0.226,0.216-0.422,0.164-0.576-0.072
		c-0.261-0.409-0.563-0.809-0.741-1.257c-0.227-0.577-0.019-1.068,0.434-1.3c0.398-0.204,0.947-0.081,1.248,0.413
		c0.285,0.473,0.441,1.019,0.635,1.54C95.563,53.861,95.46,53.996,95.38,54.041z M93.813,55.043c-0.278,0.422-0.5,0.766-0.744,1.134
		c-0.653-0.184-1.262-0.417-1.569-1.079c-0.142-0.308-0.22-0.628,0.044-0.919c0.208-0.229,0.667-0.333,0.977-0.135
		C92.98,54.345,93.396,54.717,93.813,55.043z M92.65,56.906c0.076,0.025,0.154,0.174,0.154,0.265
		c-0.006,0.405-0.033,0.813-0.06,1.296c-0.313,0.024-0.625,0.078-0.938,0.071c-0.619-0.019-1.06-0.34-1.328-0.887
		c-0.313-0.635,0.029-1.219,0.735-1.15C91.702,56.546,92.178,56.75,92.65,56.906z M86.686,60.699
		c-0.053,0.046-0.076,0.083-0.112,0.1c-0.326,0.176-0.663,0.32-0.995,0.478c-0.266-0.078-0.532-0.155-0.796-0.222
		c0.282-0.104,0.563-0.212,0.839-0.342C85.986,60.542,86.299,60.556,86.686,60.699z M89.203,62.676
		c0.05-0.006,0.098-0.016,0.136-0.042c0.531-0.344,1.077-0.672,1.574-1.063c0.323-0.255,0.631-0.23,1.032-0.153
		c-0.463,0.461-0.896,0.891-1.322,1.32c-0.141,0.141-0.28,0.285-0.419,0.428C89.866,62.992,89.534,62.832,89.203,62.676z
		 M91.885,61.819c0.053-0.048,0.125-0.079,0.188-0.117c0.038,0.015,0.077,0.032,0.118,0.048c-0.078,0.287-0.067,0.661-0.248,0.842
		c-0.348,0.342-0.731,0.645-1.115,0.947c-0.128-0.095-0.278-0.182-0.436-0.269C90.889,62.785,91.385,62.302,91.885,61.819z
		 M91.945,62.943c0.227-0.197,0.354-0.199,0.428,0.089c0.025,0.108-0.043,0.263-0.111,0.37c-0.222,0.345-0.46,0.678-0.685,1.018
		c-0.122-0.26-0.308-0.497-0.556-0.714C91.333,63.455,91.646,63.206,91.945,62.943z M91.697,64.706
		c0.238-0.354,0.482-0.707,0.705-1.07c0.215-0.35,0.24-0.364,0.566-0.054c-0.154,0.432-0.507,0.795-0.496,1.3
		c0.174-0.194,0.299-0.413,0.396-0.643c0.152-0.351,0.331-0.62,0.794-0.585c0.188,0.012,0.405-0.116,0.584-0.215
		c0.18-0.099,0.33-0.245,0.472-0.354c0.174,0.379,0.299,0.743,0.497,1.062c0.123,0.199,0.099,0.299-0.034,0.449
		c-0.768,0.854-1.668,1.523-2.75,1.907c-0.371,0.13-0.768,0.211-1.162,0.252C91.57,66.246,91.918,65.501,91.697,64.706z
		 M95.67,64.917c0.051-0.097,0.186-0.19,0.292-0.203c0.179-0.022,0.367,0.021,0.569,0.036c-0.02,0.854-0.072,1.705,0.169,2.537
		c0.073-0.11,0.084-0.214,0.083-0.321c-0.012-0.653-0.02-1.312-0.043-1.965c-0.01-0.342,0.164-0.513,0.505-0.601
		c0.077,0.324,0.142,0.621,0.223,0.914c0.078,0.278,0.151,0.563,0.269,0.83c0.109,0.256,0.103,0.586,0.426,0.737
		c0.001-0.216-0.039-0.416-0.098-0.608c-0.185-0.602-0.397-1.196-0.547-1.809c-0.054-0.213,0.045-0.469,0.078-0.706
		c0.043,0,0.086,0.003,0.127,0.005c0.604,0.736,0.641,1.713,1.039,2.547c0.026-0.676-0.271-1.283-0.414-1.924
		c0.293-0.056,0.437,0.053,0.525,0.281c0.18,0.46,0.363,0.917,0.564,1.367c0.041,0.097,0.154,0.162,0.234,0.238
		c0.002-0.104,0.035-0.221,0.002-0.313c-0.185-0.515-0.386-1.028-0.582-1.538c0.182-0.188,0.313-0.17,0.439,0.057
		c0.094,0.176,0.211,0.338,0.33,0.5c0.033,0.039,0.115,0.047,0.174,0.069c0.017-0.067,0.063-0.157,0.037-0.204
		c-0.104-0.197-0.245-0.375-0.348-0.568c-0.049-0.094-0.086-0.228-0.057-0.321c0.1-0.332,0.23-0.653,0.361-1.01
		c0.234,0.112,0.635,0.171,0.764,0.39c0.739,1.273,1.313,2.623,1.412,4.124c0.044,0.626-0.074,1.215-0.432,1.741
		c-0.353,0.521-0.612,0.601-1.195,0.378c-0.484-0.185-0.467-0.173-0.725,0.291c-0.142,0.258-0.313,0.582-0.558,0.688
		c-0.692,0.297-1.668,0.166-1.878-0.891c-0.061-0.293-0.131-0.584-0.206-0.924c-0.183,0.085-0.312,0.152-0.448,0.206
		c-0.25,0.094-0.502,0.229-0.758,0.241c-0.189,0.008-0.46-0.107-0.561-0.256c-0.174-0.267-0.328-0.595-0.35-0.906
		C95.025,66.945,95.16,65.893,95.67,64.917z M100.669,62.584c-0.155-0.022-0.345-0.07-0.444-0.178
		c-0.341-0.352-0.654-0.725-0.955-1.109c-0.047-0.063-0.016-0.257,0.047-0.326c0.258-0.284,0.545-0.541,0.836-0.824
		c0.531,0.311,1.078,1.041,1.229,1.634C101.52,62.318,101.216,62.67,100.669,62.584z M100.618,59.703
		c-0.062-0.056-0.136-0.168-0.119-0.234c0.077-0.33,0.175-0.651,0.28-0.974c0.017-0.046,0.109-0.081,0.172-0.094
		c0.477-0.085,1.631,0.464,1.872,0.883c0.194,0.343-0.132,0.884-0.597,0.953C101.605,60.324,101.076,60.107,100.618,59.703z
		 M100.762,57.216c-0.119-0.511-0.119-0.511,0.334-0.776c0.215-0.09,0.426-0.223,0.649-0.257c0.29-0.05,0.604-0.077,0.883-0.011
		c0.353,0.082,0.463,0.443,0.328,0.785c-0.255,0.628-0.806,0.77-1.394,0.826C100.912,57.846,100.906,57.828,100.762,57.216z
		 M101.746,55.343c-0.355,0.256-0.752,0.458-1.137,0.672c-0.051,0.027-0.168,0.003-0.213-0.039
		c-0.596-0.567-0.554-1.023,0.133-1.477c0.039-0.026,0.08-0.053,0.119-0.074c-0.002-0.007-0.006-0.017-0.008-0.023
		c0.209-0.076,0.411-0.172,0.627-0.223c0.492-0.114,0.816,0.182,0.73,0.682C101.965,55.035,101.88,55.251,101.746,55.343z
		 M97.734,51.786c0.336,0.691,0.19,1.383,0.025,2.073c-0.431-0.024-0.804-0.034-1.176-0.072c-0.075-0.007-0.195-0.094-0.206-0.161
		c-0.084-0.505-0.188-1.013-0.204-1.521c-0.016-0.491,0.26-0.797,0.651-0.878C97.188,51.151,97.52,51.347,97.734,51.786z
		 M90.593,48.531c0.13-0.011,0.261-0.007,0.388-0.002c0.192,0.007,0.261-0.064,0.19-0.256c-0.058-0.165-0.121-0.333-0.146-0.504
		c-0.086-0.559,0.08-1.016,0.562-1.345c0.491-0.336,0.979-0.341,1.483-0.034c0.619,0.377,0.621,0.375,1.092-0.174
		c0.004-0.004,0.008-0.006,0.011-0.009c0.593,0.167,1.2,0.364,1.806,0.564c0.004,0.005,0.008,0.008,0.01,0.013
		c0.578,0.957,0.889,2.013,1.094,3.103c0.045,0.239,0.041,0.482,0.063,0.754c-0.685,0.003-1.164,0.278-1.442,0.949
		c-0.066-0.18-0.111-0.284-0.144-0.395c-0.275-0.946-0.541-1.893-0.824-2.838c-0.034-0.117-0.135-0.212-0.209-0.319
		c-0.014,0.135-0.03,0.266-0.045,0.4c-0.002,0.02,0.014,0.043,0.02,0.065c0.327,1.15,0.658,2.302,0.988,3.456
		c-0.596-0.358-0.955-0.875-1.116-1.541c-0.087-0.364-0.222-0.716-0.343-1.072c-0.047-0.144-0.092-0.292-0.164-0.424
		c-0.043-0.081-0.133-0.136-0.202-0.2c-0.013,0.103-0.039,0.203-0.036,0.306c0.002,0.066,0.049,0.13,0.073,0.197
		c0.218,0.651,0.433,1.302,0.651,1.959c-0.506,0.058-0.521,0.064-0.725-0.318c-0.331-0.621-0.641-1.255-0.968-1.877
		c-0.04-0.075-0.146-0.115-0.222-0.171c-0.006,0.095-0.045,0.204-0.014,0.278c0.186,0.405,0.378,0.807,0.582,1.205
		c0.166,0.316,0.35,0.628,0.532,0.953c-0.192,0.129-0.343,0.23-0.55,0.372c-0.193-0.339-0.342-0.661-0.541-0.95
		c-0.184-0.264-0.23-0.648-0.611-0.775c-0.005,0.135,0.018,0.258,0.074,0.358c0.261,0.457,0.525,0.916,0.809,1.36
		c0.145,0.227,0.131,0.402-0.109,0.622c-0.325-0.5-0.631-0.984-0.955-1.457c-0.06-0.086-0.18-0.132-0.275-0.194
		c0.016,0.103-0.006,0.228,0.044,0.309c0.272,0.437,0.513,0.911,0.861,1.283c0.362,0.385,0.352,0.825,0.424,1.268
		c-0.56,0.053-0.978-0.153-1.313-0.555c-0.166-0.196-0.379-0.357-0.535-0.559c-0.473-0.611-1-1.194-1.373-1.862
		C88.993,49.599,89.592,48.622,90.593,48.531z M82.621,46.354c0.145-0.068,0.4-0.038,0.529,0.057
		c0.076,0.055,0.072,0.369-0.012,0.477c-0.181,0.235-0.439,0.419-0.695,0.65C82.066,46.868,82.109,46.6,82.621,46.354z
		 M81.898,51.288c0.158-0.294,0.246-0.485,0.363-0.659c0.036-0.056,0.164-0.103,0.221-0.078c0.226,0.085,0.461,0.179,0.648,0.323
		c0.105,0.083,0.207,0.3,0.168,0.406c-0.039,0.115-0.253,0.255-0.376,0.242C82.598,51.492,82.281,51.379,81.898,51.288z
		 M82.148,52.72c-0.354,0.204-0.73,0.056-0.942-0.307c-0.185-0.316-0.129-0.472,0.242-0.69c0.172-0.098,0.534,0.125,0.731,0.462
		C82.303,52.397,82.341,52.601,82.148,52.72z M82.516,49.933c0.055-0.294,0.094-0.52,0.145-0.805c0.376,0.075,0.73,0.11,1.051,0.231
		c0.121,0.047,0.258,0.304,0.23,0.433c-0.023,0.125-0.25,0.299-0.385,0.296C83.225,50.087,82.893,49.996,82.516,49.933z
		 M83.573,48.417c-0.155,0.083-0.354,0.113-0.539,0.127c-0.147,0.008-0.356,0.126-0.429-0.147c-0.062-0.241-0.013-0.413,0.229-0.548
		c0.214-0.036,0.434-0.117,0.639-0.089c0.137,0.019,0.31,0.181,0.354,0.317C83.854,48.155,83.693,48.351,83.573,48.417z
		 M81.414,45.287c0.055-0.068,0.118-0.134,0.188-0.181c0.084-0.009,0.164-0.018,0.248-0.026c0.021,0.008,0.039,0.008,0.061,0.024
		c0.138,0.109,0.266,0.356,0.24,0.516c-0.045,0.273-0.217,0.524-0.346,0.812C81.044,45.949,81.008,45.81,81.414,45.287z
		 M80.688,45.206c-0.049,0.145-0.104,0.293-0.158,0.456c-0.209-0.06-0.381-0.083-0.518-0.158c-0.06-0.035-0.111-0.1-0.15-0.167
		C80.137,45.292,80.402,45.244,80.688,45.206z M76.214,46.704c1.017-0.652,2.127-0.922,3.328-0.73
		c1.926,0.307,2.965,1.927,2.435,3.809c-0.104,0.369-0.272,0.733-0.48,1.049c-0.527,0.807-1.286,1.203-2.255,1.048
		c-1.009-0.164-1.773-0.688-2.117-1.685c-0.342-0.998,0.313-2.029,1.354-2.17c0.17-0.023,0.353,0.023,0.615,0.045
		c-0.126,0.113-0.166,0.151-0.211,0.187c-0.292,0.258-0.387,0.571-0.253,0.876c0.128,0.298,0.359,0.459,0.685,0.46
		c0.33,0.002,0.656-0.25,0.768-0.581c0.188-0.567-0.209-1.246-0.855-1.449c-1.313-0.417-2.705,0.611-2.75,2.028
		c-0.006,0.116,0,0.231-0.002,0.376c-0.336-0.125-0.672-0.255-0.92,0.118c-0.146,0.22-0.134,0.453,0.036,0.651
		c0.233,0.274,0.515,0.221,0.858-0.002c0.083,0.268,0.18,0.492,0.219,0.723c0.037,0.228,0.021,0.467,0.018,0.702
		c-0.008,0.684,0.312,1.159,0.918,1.457c0.562,0.275,1.066,0.19,1.543-0.258c0.252,0.433,0.588,0.72,1.098,0.71
		c0.525-0.014,0.857-0.277,0.995-0.82c0.403,0.138,0.802,0.216,1.181-0.041c0.389-0.267,0.475-0.644,0.377-1.071
		c1.114-0.212,1.249-0.77,0.956-1.455c0.392-0.132,0.715-0.345,0.767-0.804c0.047-0.421-0.103-0.755-0.472-0.975
		c0.542-0.946,0.496-1.158-0.348-1.719c0.385-0.913-0.14-1.433-0.944-1.511c-0.037-0.274-0.097-0.491-0.177-0.666
		c0.815-0.065,1.642-0.101,2.458-0.101c0.318,0.002,0.643,0.026,0.966,0.036c0.03,0.055,0.065,0.106,0.093,0.163
		c0.113,0.233,0.197,0.477,0.254,0.727c0.155-0.155,0.327-0.299,0.512-0.433c0.022-0.146,0.072-0.282,0.106-0.423
		c0.884,0.054,1.771,0.138,2.664,0.266c-0.239,0.513-0.271,1.113-0.087,1.791c-0.271,0.092-0.509,0.157-0.732,0.251
		c-0.916,0.396-1.244,1.154-0.781,2.034c0.34,0.647,0.82,1.222,1.242,1.828c0.059,0.085,0.133,0.159,0.174,0.281
		c-0.266-0.127-0.532-0.258-0.801-0.381c-1.115-0.511-2.266-0.617-3.418-0.173c-0.754,0.294-1.302,0.833-1.383,1.677
		c-0.035,0.367,0.092,0.751,0.151,1.16c-1.195,0.403-1.919,1.234-1.728,2.614c0.176,1.277,1.054,1.808,2.287,1.853
		c-0.05,0.302-0.095,0.574-0.145,0.867c-0.895,0.082-1.77,0.083-2.534-0.568c0.103-0.102,0.19-0.174,0.259-0.264
		c0.2-0.265,0.189-0.551,0.025-0.82c-0.173-0.282-0.54-0.408-0.833-0.3c-0.31,0.115-0.416,0.372-0.41,0.673
		c0.013,0.476,0.261,0.843,0.608,1.146c0.688,0.611,1.531,0.722,2.404,0.708c0.26-0.004,0.518-0.012,0.778-0.017
		c0.009,0.035,0.015,0.069,0.021,0.104c-0.117,0.052-0.233,0.123-0.356,0.155c-0.922,0.251-1.841,0.222-2.737-0.093
		c-0.58-0.202-0.97-0.645-1.231-1.194c-0.205-0.423-0.375-0.864-0.614-1.266c-0.139-0.233-0.355-0.434-0.578-0.592
		c-0.232-0.166-0.555-0.193-0.749,0.023c-0.153,0.168-0.29,0.475-0.243,0.676c0.084,0.365,0.262,0.732,0.484,1.035
		c1.309,1.809,4.133,2.593,6.213,1.759c0.107-0.044,0.227-0.07,0.436-0.134c-0.078,0.132-0.088,0.184-0.119,0.197
		c-0.481,0.216-0.967,0.403-1.461,0.55c-1.277-0.254-2.556-0.375-3.877-0.375c-0.002,0-0.006,0-0.008,0
		c-0.182-0.008-0.363-0.001-0.546,0.002c-0.931-0.549-1.598-1.396-2.058-2.486c-0.273-0.653-0.641-1.279-1.061-1.85
		c-0.438-0.597-1.017-0.681-1.588-0.379c-0.562,0.296-0.807,0.881-0.66,1.559c0.133,0.617,0.485,1.113,0.875,1.588
		c0.657,0.799,1.397,1.396,2.198,1.845c-0.61,0.146-1.212,0.347-1.799,0.602c-0.961-0.816-1.708-1.887-2.226-3.109
		c-1.213-2.853-0.84-5.652,0.505-8.364C74.16,48.585,75.002,47.48,76.214,46.704z M80.573,53.367
		c-0.105,0.109-0.371,0.132-0.542,0.095c-0.368-0.084-0.396-0.412-0.405-0.725c-0.002-0.078,0.013-0.159,0.021-0.251
		c0.207-0.037,0.396-0.094,0.593-0.099c0.086-0.004,0.224,0.07,0.26,0.142C80.623,52.797,80.827,53.1,80.573,53.367z M78.868,52.545
		c0.021,0.413-0.356,0.731-0.765,0.656c-0.434-0.083-0.728-0.337-0.815-0.769c-0.062-0.29-0.058-0.598-0.078-0.862
		c0.526,0.272,1.024,0.52,1.515,0.782C78.789,52.39,78.867,52.478,78.868,52.545z M75.039,46.621
		c0.003,0.017,0.018,0.036,0.016,0.051c-0.009,0.137-0.091,0.286-0.187,0.394c-0.068,0.079-0.28,0.166-0.3,0.139
		c-0.082-0.09-0.162-0.182-0.243-0.273C74.559,46.824,74.796,46.719,75.039,46.621z M73.568,47.292
		c0.184,0.126,0.356,0.275,0.529,0.42c0.033,0.026,0.022,0.158-0.012,0.209c-0.148,0.221-0.318,0.427-0.486,0.653
		c-0.572-0.255-0.785-0.468-0.853-0.808C73.018,47.603,73.286,47.441,73.568,47.292z M71.938,48.752
		c0.244-0.112,0.89,0.112,1.152,0.399c0.21,0.231-0.066,0.375-0.115,0.555c-0.031,0.121-0.104,0.23-0.207,0.433
		c-0.326-0.208-0.635-0.355-0.881-0.573C71.618,49.335,71.675,48.872,71.938,48.752z M70.969,49.021
		c0.092,0.049,0.17,0.114,0.196,0.207c0.05,0.189,0.086,0.382,0.123,0.544l-0.953,0.533c-0.076-0.085-0.198-0.213-0.296-0.357
		c-0.014-0.021-0.025-0.051-0.04-0.078C70.309,49.573,70.634,49.293,70.969,49.021z M68.449,51.621
		c0.386,0.615,0.348,1.426-0.139,1.936c-0.343,0.362-0.77,0.489-1.252,0.35c-0.026-0.007-0.051-0.02-0.076-0.028
		C67.432,53.062,67.919,52.311,68.449,51.621z M66.718,54.379c0.017,0.006,0.03,0.018,0.048,0.023
		c1.465,0.44,2.786-0.79,2.457-2.291c-0.072-0.336-0.225-0.651-0.428-0.929c0.251-0.305,0.516-0.596,0.786-0.878
		c0.334,0.353,0.616,0.778,0.806,1.297c0.064,0.181,0.041,0.313-0.096,0.476c-0.361,0.419-0.359,0.883-0.085,1.364
		c0.058,0.1,0.052,0.295-0.013,0.393c-0.441,0.672-1.077,1.101-1.84,1.341c-0.729,0.23-1.418,0.171-1.987-0.09
		C66.479,54.842,66.6,54.612,66.718,54.379z M66.139,55.607c0.103,0.047,0.198,0.103,0.309,0.14
		c0.408,0.135,0.848,0.166,1.279,0.247c-0.043,0.012-0.076,0.026-0.108,0.03c-0.556,0.091-1.097,0.026-1.601-0.141
		C66.059,55.79,66.098,55.699,66.139,55.607z M66.119,56.622c0.218-0.095,0.74-0.01,0.783,0.114
		c0.149,0.417,0.199,0.895-0.064,1.319c-0.268,0.432-0.689,0.42-0.926-0.025C65.741,57.709,65.824,56.75,66.119,56.622z
		 M60.116,56.193c0.199,0.489,0.387,1.004,0.567,1.535c-0.093,0.018-0.187,0.023-0.237,0.037c-0.356-0.186-0.824-1.017-0.705-1.263
		C59.806,56.371,59.96,56.277,60.116,56.193z M59.887,55.666c-0.673,0.402-1.476,0.59-2.298,0.454
		c-0.034-0.004-0.066-0.019-0.108-0.03c0.432-0.081,0.872-0.112,1.279-0.247c0.369-0.122,0.687-0.318,0.965-0.548
		C59.78,55.416,59.833,55.543,59.887,55.666z M60.176,66.958c0.255,0.065,0.521,0.166,0.739,0.312
		c0.56,0.371,0.659,1.088,0.16,1.539c-0.326,0.295-0.769,0.465-1.168,0.672c-0.096,0.047-0.229,0.015-0.347,0.021
		c0.005,0.041,0.011,0.082,0.015,0.126c0.059,0.048,0.115,0.104,0.173,0.148c0.478,0.377,0.392,1.109-0.183,1.299
		c-0.347,0.113-0.747,0.166-1.105,0.119c-0.061-0.008-0.12-0.023-0.181-0.033c-0.152-0.555-0.316-1.078-0.49-1.581
		c0.151-0.005,0.3-0.011,0.45-0.022c0.088-0.006,0.172-0.078,0.259-0.119c-0.089-0.047-0.178-0.138-0.266-0.139
		c-0.179-0.002-0.36,0.01-0.54,0.016c-0.049-0.139-0.1-0.278-0.151-0.414c0.204-0.039,0.407-0.075,0.612-0.121
		c0.062-0.014,0.11-0.09,0.167-0.137c-0.071-0.039-0.151-0.125-0.215-0.111c-0.216,0.031-0.438,0.074-0.657,0.115
		c-0.072-0.185-0.151-0.356-0.229-0.533c0.159-0.038,0.325-0.079,0.481-0.118c0.125-0.031,0.257-0.042,0.374-0.093
		c0.094-0.039,0.166-0.125,0.25-0.191c-0.1-0.023-0.206-0.082-0.294-0.063c-0.31,0.064-0.618,0.138-0.926,0.209
		c-0.063-0.139-0.123-0.283-0.188-0.418c0.581-0.221,1.164-0.438,1.744-0.662c0.082-0.032,0.139-0.125,0.208-0.19
		c-0.102-0.021-0.215-0.081-0.298-0.052c-0.51,0.178-1.01,0.378-1.515,0.572c-0.094,0.035-0.184,0.065-0.258,0.09
		c-0.027-0.053-0.057-0.102-0.083-0.154c-0.068-0.37-0.133-0.734-0.212-1.176c0.745-0.469,1.601-0.967,2.653-0.875
		c0.679,0.061,1.063,0.798,0.763,1.476C59.763,66.813,59.877,66.879,60.176,66.958z M58.207,75.904
		c-0.574,0.777-1.202,0.271-1.837-0.08c-0.046,0.184-0.085,0.308-0.108,0.439c-0.134,0.758-0.609,1.033-1.258,0.62
		c-0.506-0.319-0.957-0.755-1.357-1.204c-0.344-0.385-0.585-0.863-0.846-1.354c0.576,0.13,1.045-0.013,1.466-0.431
		c0.265,0.471,0.499,0.9,0.753,1.318c0.065,0.107,0.2,0.17,0.304,0.255c-0.023-0.124-0.018-0.261-0.074-0.372
		c-0.225-0.424-0.472-0.834-0.7-1.26c-0.041-0.075-0.057-0.164-0.074-0.253c0.084-0.002,0.167-0.003,0.251-0.003
		c0.365,0.309,0.731,0.615,1.098,0.924c0.108,0.092,0.208,0.197,0.326,0.271c0.085,0.052,0.196,0.062,0.298,0.093
		c-0.038-0.095-0.051-0.218-0.12-0.279c-0.349-0.312-0.717-0.603-1.073-0.912c-0.037-0.032-0.071-0.069-0.108-0.104
		c0.238,0,0.474,0.007,0.71,0.014c0.248,0.155,0.492,0.315,0.744,0.465c0.079,0.046,0.2,0.021,0.301,0.023
		c-0.063-0.084-0.106-0.193-0.186-0.25c-0.116-0.077-0.234-0.151-0.352-0.228c0.033,0,0.075,0,0.083,0
		c0.55,0,1.019-0.164,1.365-0.459c0.046,0.02,0.09,0.041,0.135,0.06c0.024-0.032,0.047-0.063,0.071-0.099
		c-0.027-0.027-0.051-0.061-0.075-0.091c0.037-0.04,0.082-0.073,0.115-0.116c0.21-0.274,0.313-0.61,0.324-0.973
		c0.069,0.047,0.142,0.082,0.208,0.135c0.649,0.518,0.542,1.485-0.193,1.883c-0.18,0.097-0.369,0.182-0.583,0.289
		C58.264,74.741,58.677,75.27,58.207,75.904z M51.596,71.788c-1.9,0.097-3.949,0.171-5.583,0.035
		c-4.257-0.357-7.404-2.317-9.62-5.995c-0.271-0.449-0.256-0.605-0.257-0.605c0.001-0.004,0.063-0.123,0.442-0.32
		c3.416-1.765,6.348-2.553,9.511-2.553c0.015,0,0.096,0,0.111-0.001c1.999-0.086,4.029,0.563,5.764,1.876
		c2.118,1.602,3.5,3.887,4.484,7.469c-0.013,0-0.023,0.002-0.039,0C54.794,71.628,53.165,71.709,51.596,71.788z M51.631,74.021
		c0.035,0.541-0.585,0.846-1.161,0.533c-0.062-0.091-0.25-0.25-0.277-0.436c-0.018-0.118-0.023-0.239-0.034-0.358
		c0.479-0.02,0.956-0.043,1.426-0.067C51.606,73.805,51.624,73.912,51.631,74.021z M49.258,73.786
		c-0.02,0.112-0.029,0.224-0.057,0.333c-0.117,0.451-0.485,0.574-0.922,0.434c-0.395-0.126-0.573-0.376-0.539-0.75
		c0.138,0.002,0.265,0.008,0.408,0.008C48.519,73.811,48.888,73.796,49.258,73.786z M47.121,75.547
		c-0.379,0.102-0.779,0.137-1.226,0.21c-0.015-0.467-0.026-0.86-0.039-1.329c0.366-0.046,0.729-0.128,1.095-0.131
		c0.379-0.006,0.592,0.221,0.638,0.573C47.633,75.214,47.499,75.448,47.121,75.547z M47.266,76.971
		c0.016,0.168-0.147,0.42-0.304,0.519c-0.399,0.254-0.849,0.206-1.334,0.073c0.056-0.326,0.099-0.625,0.167-0.922
		c0.017-0.068,0.108-0.17,0.17-0.17c0.302-0.002,0.62-0.029,0.901,0.055C47.036,76.576,47.251,76.805,47.266,76.971z M28.03,61.13
		c-0.367-0.024-0.72-0.204-1.078-0.313c0.002-0.043,0.005-0.083,0.007-0.126c0.724,0.18,1.346-0.077,1.945-0.397
		c1.665-0.885,1.978-3.115,0.842-4.177c-0.99-0.924-2.448-0.736-3.006,0.415c-0.271,0.564-0.205,1.098,0.236,1.561
		c0.389,0.409,0.857,0.616,1.425,0.47c0.559-0.141,0.883-0.672,0.77-1.208c-0.063-0.287-0.206-0.51-0.515-0.555
		c-0.331-0.049-0.604,0.082-0.791,0.356c-0.167,0.249-0.172,0.504,0.022,0.749c0.028,0.035,0.053,0.072,0.087,0.12
		c-0.374-0.014-0.676-0.287-0.781-0.685c-0.108-0.416,0.07-0.833,0.446-1.056c0.575-0.33,1.368-0.207,1.794,0.311
		c0.5,0.609,0.596,1.294,0.286,2.013c-0.472,1.093-1.471,1.696-2.645,1.562c-0.308-0.036-0.644-0.198-0.873-0.408
		c-0.59-0.537-1.081-1.187-1.008-2.028c0.125-1.434,1.074-2.653,2.636-2.953c1.438-0.273,2.874,0.476,3.488,1.799
		c0.623,1.345,0.237,2.896-0.901,3.851C29.711,61.023,28.899,61.193,28.03,61.13z M29.553,63.99
		c-0.257,0.297-0.575,0.344-0.924,0.254c-0.341-0.086-0.52-0.346-0.525-0.671c-0.009-0.52,0.038-1.042,0.061-1.525
		c0.483-0.09,0.891-0.172,1.302-0.235c0.063-0.011,0.166,0.027,0.205,0.078C29.99,62.303,29.907,63.58,29.553,63.99z M24.678,54.597
		c0.686,0.454,0.729,0.91,0.132,1.477c-0.046,0.042-0.162,0.066-0.212,0.039c-0.385-0.214-0.78-0.417-1.136-0.672
		c-0.134-0.093-0.22-0.309-0.252-0.482c-0.087-0.5,0.238-0.796,0.731-0.682c0.215,0.051,0.417,0.147,0.627,0.223
		c-0.003,0.006-0.007,0.016-0.009,0.023C24.598,54.544,24.638,54.571,24.678,54.597z M24.809,52.945
		c0.001-0.184,0.059-0.367,0.073-0.451c0.318-0.596,1.005-0.639,1.371-0.162c0.394,0.517,0.46,1.142,0.536,1.76
		c0.007,0.053-0.04,0.138-0.088,0.171c-0.263,0.175-0.529,0.346-0.804,0.501c-0.049,0.027-0.168,0.003-0.208-0.039
		C25.221,54.217,24.809,53.676,24.809,52.945z M23.463,56.28c0.224,0.035,0.435,0.167,0.65,0.257
		c0.453,0.264,0.453,0.264,0.332,0.775c-0.144,0.613-0.151,0.63-0.801,0.568c-0.588-0.056-1.137-0.197-1.392-0.826
		c-0.136-0.342-0.025-0.703,0.327-0.785C22.858,56.203,23.172,56.23,23.463,56.28z M24.256,58.498
		c0.063,0.013,0.155,0.047,0.172,0.094c0.105,0.322,0.204,0.644,0.28,0.974c0.017,0.066-0.057,0.179-0.119,0.234
		c-0.458,0.404-0.989,0.621-1.608,0.534c-0.465-0.069-0.792-0.61-0.596-0.953C22.625,58.962,23.779,58.412,24.256,58.498z
		 M23.825,61.878c0.151-0.593,0.697-1.324,1.229-1.634c0.291,0.284,0.578,0.541,0.836,0.824c0.063,0.069,0.095,0.263,0.046,0.326
		c-0.299,0.384-0.614,0.757-0.953,1.109c-0.101,0.108-0.29,0.155-0.446,0.178C23.991,62.767,23.688,62.415,23.825,61.878z
		 M25.815,63.025c0.052-0.272,0.167-0.533,0.254-0.797c0.421-0.691,0.417-0.679,1.214-0.453c0.279,0.082,0.408,0.17,0.271,0.477
		c-0.196,0.431-0.323,0.896-0.554,1.309c-0.152,0.27-0.437,0.476-0.804,0.332C25.923,63.789,25.741,63.396,25.815,63.025z
		 M40.127,54.93c0.455,0.105,0.79,0.362,0.928,0.819c0.131,0.43-0.009,0.831-0.362,1.062c-0.422,0.28-0.896,0.495-1.37,0.676
		c-0.267,0.101-0.375,0.146-0.218,0.45c0.396,0.772,0.155,1.284-0.711,1.419c-1.35,0.209-2.682,0.103-3.946-0.342
		c0.281-0.377,0.544-0.751,0.833-1.105c0.062-0.072,0.207-0.096,0.317-0.11c0.814-0.101,1.63-0.192,2.446-0.287
		c0.069-0.009,0.148,0,0.208-0.028c0.075-0.032,0.139-0.091,0.208-0.142c-0.082-0.041-0.167-0.124-0.243-0.117
		c-0.547,0.051-1.097,0.121-1.643,0.184c-0.374,0.041-0.744,0.085-1.161,0.13c0-0.152,0-0.286-0.003-0.441
		c0.504-0.114,1.006-0.218,1.5-0.352c0.146-0.039,0.27-0.168,0.406-0.252c-0.154-0.003-0.318-0.03-0.469,0
		c-0.344,0.063-0.69,0.139-1.028,0.237c-0.398,0.121-0.643-0.026-0.792-0.391c0.77-0.199,1.542-0.397,2.31-0.597
		c0.093-0.022,0.189-0.037,0.27-0.08c0.051-0.023,0.079-0.096,0.119-0.147c-0.064-0.035-0.125-0.091-0.192-0.098
		c-0.064-0.008-0.134,0.032-0.203,0.047c-0.833,0.199-1.663,0.407-2.5,0.587c-0.206,0.044-0.432,0.005-0.648,0.002l-0.027-0.109
		c0.119-0.049,0.235-0.101,0.356-0.145c0.658-0.249,1.318-0.493,1.973-0.751c0.106-0.04,0.18-0.145,0.273-0.222l-0.073-0.116
		c-0.813,0.298-1.625,0.6-2.492,0.919c0.065-0.356,0.18-0.537,0.496-0.646c0.631-0.216,1.241-0.494,1.855-0.759
		c0.096-0.044,0.167-0.149,0.249-0.227c-0.026-0.036-0.053-0.073-0.078-0.111c-0.763,0.309-1.524,0.619-2.231,0.909
		c-0.211-0.425-0.396-0.793-0.592-1.188c1.16-1.013,2.548-1.511,4.156-1.357c0.173,0.018,0.347,0.069,0.51,0.13
		c1.231,0.466,1.535,1.083,1.202,2.486C39.883,54.89,40.006,54.901,40.127,54.93z M39.588,60.81
		c0.332,0.157,0.671,0.293,1.013,0.413c-0.263,0.075-0.526,0.151-0.791,0.238c-0.393-0.184-0.791-0.357-1.174-0.564
		c-0.037-0.018-0.061-0.054-0.113-0.101C38.909,60.652,39.221,60.639,39.588,60.81z M33.992,56.598
		c0.706-0.068,1.049,0.515,0.737,1.15c-0.27,0.547-0.709,0.869-1.329,0.887c-0.313,0.007-0.625-0.046-0.938-0.071
		c-0.026-0.483-0.054-0.891-0.06-1.296c-0.001-0.091,0.079-0.24,0.153-0.265C33.03,56.847,33.505,56.643,33.992,56.598z
		 M32.352,60.587c-0.559-0.349-0.559-0.349-0.286-0.942c0.258-0.556,0.261-0.569,0.874-0.474c0.342,0.054,0.688,0.142,1.011,0.265
		c0.303,0.113,0.511,0.343,0.478,0.699c-0.032,0.362-0.232,0.608-0.576,0.722c-0.449,0.145-0.879,0.068-1.288-0.146
		C32.492,60.673,32.421,60.63,32.352,60.587z M32.06,63.126c-0.371,0.192-1.043-0.005-1.366-0.452
		c-0.233-0.329-0.4-0.703-0.582-1.029c0.442-0.327,0.792-0.591,1.154-0.845c0.053-0.04,0.169-0.059,0.221-0.026
		c0.41,0.268,0.826,0.549,1.005,1.033C32.683,62.33,32.479,62.909,32.06,63.126z M33.708,55.195
		c-0.308,0.662-0.916,0.895-1.57,1.079c-0.243-0.368-0.465-0.711-0.744-1.134c0.416-0.327,0.832-0.699,1.293-0.999
		c0.31-0.198,0.768-0.095,0.977,0.135C33.928,54.567,33.849,54.887,33.708,55.195z M31.978,53.25
		c-0.177,0.449-0.479,0.85-0.741,1.258c-0.153,0.236-0.351,0.288-0.576,0.072c-0.059-0.055-0.138-0.087-0.283-0.179
		c-0.132-0.059-0.352-0.146-0.552-0.264c-0.079-0.045-0.182-0.18-0.163-0.233c0.193-0.521,0.351-1.067,0.635-1.54
		c0.302-0.494,0.85-0.617,1.249-0.413C31.999,52.183,32.206,52.674,31.978,53.25z M29.99,64.244
		c0.199-0.319,0.324-0.684,0.497-1.062c0.143,0.109,0.292,0.255,0.473,0.354c0.179,0.099,0.395,0.228,0.584,0.216
		c0.463-0.036,0.641,0.232,0.794,0.584c0.099,0.23,0.222,0.448,0.396,0.643c0.011-0.504-0.34-0.869-0.496-1.299
		c0.327-0.311,0.353-0.296,0.566,0.053c0.285,0.463,0.597,0.908,0.896,1.36c0.04-0.011,0.081-0.022,0.123-0.036
		c-0.024-0.121-0.014-0.267-0.078-0.365c-0.255-0.402-0.542-0.789-0.801-1.19c-0.069-0.107-0.137-0.262-0.111-0.37
		c0.072-0.289,0.201-0.287,0.427-0.089c0.432,0.376,0.879,0.735,1.326,1.095c-0.124,0.178-0.226,0.363-0.284,0.566
		c-0.206,0.734,0.074,1.428,0.354,1.931c-0.106,0.175-0.276,0.263-0.551,0.244c-0.45-0.03-0.908-0.126-1.332-0.274
		c-1.081-0.387-1.981-1.057-2.748-1.91C29.891,64.543,29.867,64.441,29.99,64.244z M33.264,62.688
		c-0.181-0.181-0.17-0.555-0.248-0.842c0.04-0.017,0.08-0.033,0.118-0.048c0.064,0.038,0.137,0.069,0.189,0.117
		c0.588,0.567,1.173,1.136,1.753,1.706c-0.123,0.098-0.236,0.197-0.331,0.304C34.243,63.521,33.723,63.139,33.264,62.688z
		 M34.585,62.835c-0.428-0.429-0.86-0.858-1.323-1.32c0.401-0.077,0.709-0.102,1.032,0.153c0.497,0.391,1.042,0.719,1.574,1.063
		c0.074,0.048,0.183,0.04,0.276,0.059c-0.045-0.097-0.063-0.228-0.136-0.279c-0.46-0.325-0.933-0.632-1.402-0.945
		c-0.106-0.072-0.208-0.145-0.313-0.214c0.371-0.492,0.407-0.5,0.871-0.162c0.295,0.213,0.574,0.448,0.872,0.656
		c0.063,0.042,0.18,0.015,0.27,0.019c-0.036-0.074-0.052-0.18-0.111-0.223c-0.36-0.282-0.722-0.563-1.1-0.822
		c-0.157-0.109-0.22-0.196-0.162-0.396c0.061-0.196,0.054-0.413,0.083-0.671c0.963,0.218,1.942,0.428,2.611,1.249
		c0.311,0.379,0.36,0.828,0.206,1.212c-0.696,0.296-1.401,0.619-2.128,0.996c-0.175,0.09-0.329,0.187-0.471,0.287
		C35.018,63.276,34.802,63.054,34.585,62.835z M46.983,60.453c0.226-0.215,0.442-0.432,0.617-0.677
		c0.352-0.49,0.587-1.062,0.872-1.601c0.216-0.415,0.417-0.838,0.65-1.247c0.105-0.178,0.256-0.333,0.409-0.476
		c0.234-0.215,0.509-0.302,0.805-0.131c0.303,0.179,0.49,0.471,0.372,0.798c-0.168,0.468-0.364,0.949-0.657,1.343
		c-0.642,0.868-1.418,1.568-2.357,2.042C47.458,60.479,47.221,60.462,46.983,60.453z M52.827,50.964
		c0.33-0.215,0.715-0.397,1.102-0.459c0.343-0.056,0.502,0.31,0.331,0.651c-0.192,0.379-0.683,0.63-1.256,0.63
		c-0.02-0.046-0.051-0.099-0.062-0.155C52.894,51.401,52.75,51.011,52.827,50.964z M52.438,50.236
		c-0.101-0.203-0.175-0.313-0.206-0.433c-0.048-0.18-0.325-0.324-0.115-0.555c0.263-0.287,0.91-0.51,1.152-0.399
		c0.262,0.119,0.32,0.583,0.052,0.814C53.073,49.881,52.765,50.028,52.438,50.236z M55.145,55.86
		c-0.039-0.052-0.021-0.153-0.028-0.232c0.09-0.001,0.207-0.041,0.269-0.001c0.234,0.153,0.449,0.329,0.668,0.505
		c0.045,0.039,0.102,0.105,0.104,0.16c0.011,0.408-0.57,1.076-0.966,1.113c-0.054,0.006-0.108-0.005-0.201-0.014
		c0.117-0.214,0.245-0.38,0.311-0.571C55.42,56.479,55.368,56.155,55.145,55.86z M55.392,59.125
		c0.531,0.053,0.934,0.566,0.855,1.091c-0.011,0.079-0.022,0.157-0.042,0.293c0.124-0.049,0.203-0.08,0.28-0.112
		c0.174-0.075,0.338-0.167,0.515-0.223c0.354-0.114,0.708-0.119,0.978,0.183c0.283,0.314,0.289,0.695,0.105,1.05
		c-0.121,0.236-0.314,0.433-0.481,0.64c-0.061,0.076-0.136,0.141-0.278,0.284c0.247,0.021,0.402,0.038,0.557,0.046
		c0.63,0.041,0.896,0.432,0.577,0.978c-0.289,0.486-0.656,0.946-1.07,1.331c-0.415,0.385-0.922,0.672-1.408,0.979
		c-0.021,0.013-0.048,0.015-0.071,0.022c-0.108-0.16-0.209-0.328-0.323-0.481c0.016-0.265,0.038-0.521,0.097-0.765
		c0.06-0.241,0.291-0.443,0.447-0.66c0.07-0.098,0.145-0.19,0.184-0.319c-0.451-0.02-0.523,0.44-0.843,0.646
		c-0.078-0.072-0.167-0.152-0.272-0.25c0.326-0.431,0.637-0.838,0.946-1.246c0.084-0.112,0.182-0.219,0.245-0.341
		c0.064-0.121,0.086-0.263,0.129-0.396c-0.111,0.075-0.252,0.131-0.332,0.231c-0.364,0.459-0.706,0.936-1.073,1.395
		c-0.078,0.095-0.229,0.138-0.343,0.205c-0.024-0.039-0.049-0.08-0.07-0.118c0.296-0.531,0.593-1.061,0.889-1.589
		c0.045-0.085,0.106-0.162,0.131-0.25c0.021-0.079,0.004-0.168,0.005-0.255c-0.081,0.044-0.194,0.068-0.235,0.134
		c-0.327,0.529-0.643,1.063-0.953,1.604c-0.093,0.165-0.21,0.292-0.369,0.377c-0.098-0.094-0.196-0.186-0.297-0.274
		c0.002-0.007,0.003-0.014,0.006-0.021c0.304-0.7,0.617-1.394,0.919-2.092c0.047-0.11,0.06-0.234,0.087-0.354
		c-0.042-0.023-0.083-0.043-0.124-0.066c-0.069,0.105-0.155,0.201-0.206,0.316c-0.236,0.548-0.463,1.1-0.698,1.65
		c-0.044,0.104-0.11,0.198-0.168,0.304c-0.279-0.19-0.339-0.396-0.188-0.673c0.091-0.163,0.167-0.339,0.222-0.518
		c0.021-0.066-0.029-0.155-0.048-0.235c-0.066,0.049-0.16,0.083-0.193,0.151c-0.117,0.231-0.214,0.467-0.336,0.743
		c-0.154-0.059-0.298-0.112-0.46-0.176c0.113-0.369,0.157-0.712,0.62-0.82c0.412-0.096,0.669-0.597,0.659-1.097
		C53.951,59.741,54.692,59.052,55.392,59.125z M57.481,57.783c-0.125,0.339-0.415,0.436-0.748,0.323
		c-0.3-0.102-0.411-0.316-0.351-0.669c0.149-0.875,0.378-1.003,1.338-0.686C57.645,57.09,57.598,57.451,57.481,57.783z
		 M57.803,58.383c0.061,0.09,0.12,0.184,0.196,0.303c-0.233,0.082-0.446,0.157-0.686,0.242
		C57.267,58.717,57.267,58.717,57.803,58.383z M55.081,64.584c-0.07-0.083-0.136-0.172-0.207-0.253
		c0.013,0.011,0.029,0.015,0.042,0.026C54.989,64.424,55.042,64.501,55.081,64.584z M54.379,57.028
		c-0.367,0.071-0.753,0.038-1.184,0.055c0.051-0.341,0.087-0.572,0.126-0.799c0.007-0.047,0.019-0.096,0.044-0.128
		c0.231-0.294,1.235-0.183,1.395,0.151C54.904,56.6,54.75,56.954,54.379,57.028z M54.43,55.242
		c-0.293,0.132-0.633,0.162-1.013,0.248c0-0.45-0.001-0.804-0.004-1.238c0.34,0.03,0.66,0.012,0.949,0.097
		c0.152,0.043,0.348,0.257,0.352,0.402C54.722,54.917,54.578,55.174,54.43,55.242z M54.345,53.386
		c-0.302,0.13-0.632,0.203-0.974,0.307c-0.06-0.362-0.113-0.648-0.155-0.938c-0.01-0.052-0.006-0.155,0.016-0.158
		c0.296-0.09,0.592-0.217,0.893-0.225c0.155-0.003,0.37,0.186,0.459,0.344C54.738,52.989,54.635,53.263,54.345,53.386z
		 M52.955,57.925c0.019-0.052,0.131-0.108,0.192-0.099c0.254,0.034,0.502,0.092,0.636,0.118c0.428,0.239,0.593,0.539,0.522,0.798
		c-0.074,0.265-0.37,0.458-0.737,0.396c-0.313-0.05-0.773-0.114-0.871-0.313C52.596,58.613,52.843,58.226,52.955,57.925z
		 M52.782,59.803c0.173,0.086,0.343,0.199,0.486,0.33c0.222,0.207,0.198,0.458,0.057,0.705c-0.141,0.237-0.366,0.313-0.602,0.204
		c-0.314-0.14-0.628-0.308-0.896-0.521c-0.076-0.061,0.005-0.321,0.013-0.488C52.248,59.554,52.249,59.547,52.782,59.803z
		 M51.994,61.784c0.044,0.067,0.061,0.142,0.064,0.216c-0.397-0.239-0.803-0.458-1.217-0.643c0.093-0.093,0.184-0.184,0.276-0.271
		c0.036-0.036,0.152-0.05,0.182-0.023C51.54,61.295,51.811,61.512,51.994,61.784z M53.769,73.6
		c-0.231,0.205-0.488,0.262-0.777,0.115c-0.048-0.023-0.087-0.056-0.133-0.082C53.162,73.619,53.465,73.607,53.769,73.6z
		 M58.369,58.151c-0.264-0.425-0.215-0.902-0.065-1.319c0.044-0.124,0.566-0.208,0.784-0.114c0.295,0.128,0.379,1.087,0.208,1.408
		C59.058,58.572,58.636,58.583,58.369,58.151z M57.791,51.923c-0.152,0.181-0.236,0.418-0.195,0.668
		c0.077,0.495,0.543,0.822,1.031,0.711c0.019-0.003,0.039-0.017,0.059-0.023c0.047,0.081,0.095,0.163,0.142,0.244
		c-0.168,0.259-0.403,0.396-0.679,0.479c-0.483,0.14-0.909,0.012-1.252-0.35c-0.514-0.539-0.544-1.421-0.083-2.045
		c0.117-0.157,0.266-0.277,0.423-0.385C57.425,51.451,57.613,51.68,57.791,51.923z M56.106,49.977
		c0.268,0.262,0.53,0.529,0.779,0.812c-0.441,0.362-0.779,0.859-0.901,1.419c-0.328,1.501,0.993,2.731,2.457,2.291
		c0.272-0.082,0.49-0.244,0.671-0.438c0.125,0.231,0.253,0.455,0.37,0.697c-0.645,0.594-1.598,0.839-2.629,0.514
		c-0.762-0.24-1.398-0.668-1.839-1.341c-0.064-0.098-0.069-0.293-0.012-0.393c0.274-0.481,0.275-0.945-0.085-1.364
		c-0.137-0.163-0.16-0.295-0.095-0.476C55.095,50.947,55.556,50.381,56.106,49.977z M54.809,49.158
		c0.19,0.16,0.318,0.396,0.443,0.616c0.033,0.058-0.032,0.195-0.083,0.271c-0.099,0.144-0.221,0.271-0.297,0.357l-0.952-0.533
		c0.036-0.162,0.072-0.355,0.123-0.544C54.116,49.06,54.559,48.94,54.809,49.158z M53.012,47.624
		c0.479,0.277,0.939,0.577,1.382,0.902c-0.125,0.025-0.252,0.051-0.376,0.071c-0.063,0.01-0.141,0.008-0.197-0.021
		c-0.275-0.128-0.545-0.27-0.833-0.413C53.014,47.956,53.02,47.782,53.012,47.624z M52.484,47.765
		c-0.042,0.407-0.248,0.626-0.876,0.907c-0.168-0.226-0.336-0.432-0.486-0.653c-0.035-0.051-0.045-0.184-0.012-0.209
		c0.238-0.201,0.469-0.434,0.744-0.561C52.215,47.082,52.53,47.365,52.484,47.765z M50.316,46.399
		c0.004-0.005,0.009-0.014,0.012-0.02c0.274,0.099,0.548,0.2,0.811,0.31c-0.149,0.213-0.322,0.415-0.5,0.611
		c-0.021,0.027-0.232-0.06-0.3-0.139c-0.096-0.108-0.178-0.257-0.187-0.394C50.146,46.658,50.25,46.537,50.316,46.399z
		 M49.599,46.132c-0.113,0.244-0.266,0.319-0.498,0.094c-0.217-0.055-0.278-0.176-0.264-0.32
		C49.096,45.977,49.35,46.053,49.599,46.132z M48.019,45.703c-0.007,0-0.021,0.008-0.028,0.007c-0.031-0.01-0.067-0.023-0.103-0.037
		C47.932,45.683,47.976,45.692,48.019,45.703z M46.679,45.424c-0.119,0.084-0.285,0.094-0.505,0.023
		c-0.048-0.015-0.115-0.064-0.119-0.103c-0.001-0.007-0.001-0.015-0.002-0.022C46.264,45.356,46.476,45.388,46.679,45.424z
		 M45.391,45.215c0.002,0.034,0.007,0.067,0.005,0.1c-0.01,0.101-0.107,0.231-0.2,0.286c-0.138,0.075-0.309,0.099-0.519,0.158
		c-0.077-0.233-0.156-0.438-0.212-0.645C44.775,45.147,45.094,45.175,45.391,45.215z M43.297,45.201
		c0.193-0.152,0.367,0.021,0.496,0.183c0.406,0.523,0.37,0.662-0.39,1.145c-0.13-0.288-0.3-0.539-0.346-0.812
		C43.032,45.557,43.16,45.31,43.297,45.201z M42.283,51.619c-0.123,0.013-0.336-0.127-0.375-0.242
		c-0.038-0.106,0.062-0.323,0.168-0.406c0.188-0.144,0.423-0.237,0.649-0.323c0.057-0.025,0.184,0.022,0.221,0.078
		c0.116,0.174,0.205,0.365,0.361,0.659C42.925,51.477,42.608,51.589,42.283,51.619z M43.759,51.82
		c0.371,0.218,0.427,0.374,0.242,0.69c-0.212,0.363-0.588,0.511-0.943,0.307c-0.191-0.119-0.153-0.323-0.03-0.535
		C43.225,51.945,43.587,51.722,43.759,51.82z M41.496,49.457c0.321-0.121,0.675-0.156,1.051-0.231
		c0.05,0.286,0.089,0.511,0.144,0.805c-0.375,0.063-0.708,0.154-1.04,0.155c-0.135,0.003-0.362-0.171-0.386-0.296
		C41.238,49.76,41.375,49.503,41.496,49.457z M41.381,48.172c0.044-0.136,0.217-0.298,0.354-0.317
		c0.204-0.027,0.424,0.055,0.638,0.09c0.241,0.135,0.289,0.307,0.228,0.548c-0.072,0.273-0.281,0.155-0.428,0.147
		c-0.185-0.014-0.384-0.043-0.538-0.127C41.514,48.447,41.354,48.251,41.381,48.172z M42.764,47.635
		c-0.256-0.231-0.514-0.415-0.696-0.65c-0.083-0.108-0.087-0.421-0.011-0.477c0.128-0.095,0.385-0.125,0.529-0.057
		C43.098,46.696,43.141,46.965,42.764,47.635z M38.229,45.043c0.04,0.151,0.091,0.299,0.115,0.457
		c0.185,0.134,0.356,0.278,0.513,0.433c0.056-0.25,0.141-0.494,0.254-0.727c0.039-0.081,0.087-0.156,0.132-0.233
		c0.575-0.031,1.149-0.061,1.722-0.061c0.579-0.005,1.161,0.017,1.742,0.05c-0.122,0.189-0.205,0.454-0.252,0.808
		c-0.805,0.078-1.329,0.598-0.944,1.511c-0.843,0.561-0.889,0.773-0.348,1.719c-0.368,0.219-0.519,0.553-0.471,0.975
		c0.051,0.458,0.375,0.671,0.767,0.804c-0.293,0.685-0.159,1.242,0.955,1.455c-0.096,0.428-0.01,0.804,0.377,1.071
		c0.379,0.257,0.778,0.18,1.181,0.041c0.138,0.543,0.469,0.806,0.995,0.82c0.51,0.01,0.845-0.277,1.097-0.71
		c0.477,0.448,0.982,0.533,1.544,0.258c0.606-0.297,0.925-0.773,0.918-1.457c-0.005-0.235-0.021-0.474,0.017-0.702
		c0.039-0.23,0.136-0.455,0.22-0.723c0.343,0.223,0.625,0.276,0.858,0.002c0.169-0.198,0.181-0.432,0.035-0.651
		c-0.248-0.373-0.582-0.243-0.919-0.118c-0.002-0.144,0.003-0.26-0.002-0.376c-0.045-1.417-1.437-2.445-2.751-2.028
		c-0.646,0.203-1.043,0.882-0.854,1.449c0.11,0.332,0.437,0.583,0.766,0.581c0.326-0.001,0.556-0.163,0.685-0.46
		c0.134-0.305,0.039-0.617-0.253-0.876c-0.043-0.036-0.084-0.074-0.211-0.187c0.263-0.022,0.444-0.069,0.615-0.045
		c1.041,0.141,1.696,1.173,1.355,2.171c-0.344,0.996-1.109,1.521-2.118,1.684c-0.969,0.154-1.727-0.242-2.254-1.048
		c-0.208-0.316-0.377-0.68-0.482-1.049c-0.53-1.882,0.509-3.502,2.435-3.809c1.201-0.192,2.312,0.078,3.328,0.729
		c1.213,0.776,2.054,1.881,2.684,3.15c1.345,2.712,1.717,5.512,0.505,8.364c-0.458,1.082-1.096,2.044-1.901,2.82
		c-0.585-0.224-1.184-0.396-1.792-0.511c0.673-0.426,1.302-0.959,1.868-1.646c0.389-0.475,0.741-0.971,0.875-1.588
		c0.146-0.678-0.1-1.263-0.661-1.559c-0.572-0.302-1.151-0.218-1.588,0.379c-0.419,0.571-0.786,1.197-1.061,1.85
		c-0.434,1.03-1.053,1.84-1.901,2.389c-1.507,0.004-2.962,0.178-4.429,0.521c-0.548-0.151-1.087-0.361-1.62-0.6
		c-0.031-0.013-0.042-0.065-0.118-0.197c0.207,0.064,0.326,0.09,0.434,0.134c2.08,0.834,4.904,0.05,6.213-1.759
		c0.222-0.303,0.402-0.67,0.484-1.035c0.047-0.202-0.088-0.508-0.243-0.676c-0.194-0.217-0.516-0.189-0.749-0.023
		c-0.223,0.158-0.441,0.359-0.579,0.592c-0.238,0.402-0.409,0.843-0.614,1.266c-0.262,0.549-0.651,0.992-1.231,1.194
		c-0.896,0.315-1.816,0.344-2.738,0.093c-0.123-0.033-0.239-0.104-0.357-0.155c0.007-0.035,0.013-0.069,0.021-0.104
		c0.261,0.005,0.519,0.012,0.778,0.017c0.875,0.013,1.716-0.098,2.405-0.708c0.348-0.303,0.596-0.67,0.608-1.146
		c0.005-0.301-0.102-0.559-0.41-0.673c-0.294-0.108-0.661,0.018-0.833,0.3c-0.165,0.27-0.175,0.555,0.025,0.82
		c0.068,0.09,0.157,0.163,0.259,0.264c-0.765,0.651-1.639,0.65-2.534,0.568c-0.05-0.293-0.095-0.565-0.145-0.867
		c1.234-0.044,2.112-0.576,2.288-1.853c0.191-1.38-0.532-2.211-1.727-2.614c0.059-0.409,0.187-0.793,0.15-1.16
		c-0.081-0.844-0.627-1.383-1.382-1.677c-1.154-0.444-2.304-0.338-3.419,0.173c-0.269,0.123-0.535,0.254-0.801,0.382
		c0.041-0.122,0.115-0.196,0.174-0.281c0.421-0.605,0.902-1.18,1.242-1.828c0.462-0.879,0.134-1.638-0.781-2.034
		c-0.223-0.094-0.461-0.159-0.733-0.251c0.18-0.66,0.155-1.246-0.068-1.75C36.479,45.234,37.357,45.117,38.229,45.043z
		 M44.708,52.626c0.035-0.072,0.173-0.146,0.259-0.142c0.196,0.004,0.386,0.062,0.593,0.099c0.007,0.092,0.022,0.173,0.021,0.251
		c-0.01,0.313-0.038,0.641-0.406,0.725c-0.17,0.037-0.436,0.015-0.542-0.095C44.38,53.196,44.585,52.894,44.708,52.626z
		 M46.339,52.642c0.002-0.068,0.079-0.155,0.143-0.193c0.491-0.262,0.988-0.51,1.515-0.782c-0.021,0.264-0.016,0.572-0.078,0.862
		c-0.088,0.432-0.382,0.687-0.815,0.77C46.695,53.373,46.318,53.055,46.339,52.642z M28.123,49.984
		c0.192-1.02,0.485-2.009,0.996-2.917c0.684-0.24,1.354-0.449,2.019-0.647c0.377,0.435,0.427,0.417,0.999,0.068
		c0.505-0.307,0.994-0.302,1.484,0.034c0.482,0.329,0.646,0.786,0.562,1.345c-0.026,0.171-0.089,0.339-0.147,0.504
		c-0.069,0.192-0.002,0.263,0.191,0.256c0.126-0.005,0.258-0.009,0.387,0.002c1,0.091,1.6,1.067,1.106,1.943
		c-0.374,0.667-0.9,1.251-1.373,1.862c-0.157,0.202-0.37,0.363-0.536,0.559c-0.337,0.402-0.753,0.608-1.313,0.555
		c0.072-0.443,0.063-0.883,0.424-1.268c0.348-0.372,0.588-0.846,0.861-1.283c0.05-0.081,0.029-0.206,0.044-0.309
		c-0.095,0.062-0.217,0.108-0.276,0.194c-0.323,0.473-0.628,0.956-0.953,1.457c-0.242-0.22-0.255-0.395-0.111-0.622
		c0.284-0.444,0.548-0.904,0.809-1.36c0.057-0.101,0.079-0.223,0.075-0.358c-0.38,0.126-0.427,0.51-0.611,0.774
		c-0.199,0.289-0.348,0.61-0.54,0.95c-0.208-0.142-0.358-0.243-0.551-0.372c0.182-0.325,0.366-0.636,0.532-0.953
		c0.204-0.398,0.397-0.8,0.581-1.205c0.033-0.074-0.006-0.183-0.013-0.278c-0.076,0.057-0.182,0.097-0.222,0.171
		c-0.328,0.622-0.637,1.256-0.968,1.877c-0.203,0.382-0.218,0.375-0.724,0.318c0.218-0.657,0.434-1.309,0.651-1.959
		c0.023-0.067,0.07-0.131,0.072-0.197c0.004-0.103-0.022-0.204-0.035-0.306c-0.07,0.064-0.159,0.119-0.202,0.2
		c-0.072,0.132-0.117,0.28-0.165,0.424c-0.121,0.356-0.255,0.708-0.342,1.073c-0.162,0.666-0.521,1.182-1.116,1.54
		c0.329-1.154,0.66-2.306,0.988-3.456c0.005-0.022,0.02-0.045,0.02-0.065c-0.016-0.134-0.033-0.265-0.047-0.4
		c-0.073,0.107-0.175,0.202-0.209,0.319c-0.282,0.946-0.548,1.893-0.824,2.838c-0.032,0.111-0.076,0.215-0.143,0.395
		c-0.278-0.671-0.758-0.946-1.442-0.949C28.082,50.466,28.077,50.223,28.123,49.984z M28.382,51.324
		c0.392,0.081,0.667,0.387,0.651,0.878c-0.015,0.509-0.12,1.017-0.204,1.521c-0.01,0.067-0.131,0.153-0.207,0.161
		c-0.372,0.037-0.745,0.047-1.176,0.071c-0.166-0.69-0.312-1.383,0.025-2.073C27.687,51.444,28.02,51.249,28.382,51.324z
		 M21.511,50.365c1.963-0.995,3.82-1.836,5.607-2.547c0.106,0.45,0.193,0.906,0.282,1.361c0.075,0.381,0.069,0.776,0.168,1.147
		c0.125,0.471-0.043,0.761-0.499,1.013c-0.393-0.714-0.782-1.432-1.182-2.143c-0.058-0.103-0.163-0.18-0.246-0.267
		c-0.036,0.031-0.071,0.06-0.109,0.085c0.041,0.106,0.073,0.217,0.127,0.312c0.362,0.658,0.71,1.323,1.104,1.963
		c0.174,0.279,0.209,0.5-0.032,0.796c-0.158-0.197-0.328-0.374-0.448-0.575c-0.485-0.817-0.955-1.644-1.44-2.463
		c-0.042-0.071-0.152-0.103-0.231-0.15c0.001,0.096-0.033,0.208,0.01,0.283c0.296,0.52,0.608,1.033,0.913,1.545
		c0.128,0.22,0.255,0.444,0.4,0.702c-0.271,0.025-0.496,0.065-0.722,0.058c-0.073-0.002-0.169-0.108-0.216-0.187
		c-0.322-0.534-0.63-1.074-0.947-1.608c-0.058-0.1-0.127-0.202-0.213-0.279c-0.047-0.044-0.14-0.048-0.211-0.068
		c0.005,0.082-0.016,0.178,0.021,0.239c0.333,0.568,0.654,1.141,1.018,1.686c0.208,0.313,0.166,0.506-0.244,0.712
		c-0.372-0.514-0.75-1.042-1.127-1.571c-0.041-0.056-0.053-0.136-0.104-0.184c-0.073-0.065-0.17-0.111-0.257-0.165
		c0.008,0.096-0.02,0.214,0.027,0.279c0.394,0.566,0.78,1.142,1.214,1.677c0.181,0.225,0.206,0.39,0.026,0.657
		c-0.279-0.249-0.549-0.489-0.812-0.733c-0.367-0.348-0.724-0.706-1.098-1.043c-0.064-0.059-0.194-0.046-0.295-0.068
		c0.038,0.087,0.055,0.197,0.118,0.257c0.651,0.613,1.327,1.195,1.949,1.83c0.187,0.192,0.23,0.528,0.34,0.797
		c-0.042,0.037-0.081,0.074-0.121,0.113c-0.222-0.125-0.458-0.223-0.66-0.375c-0.697-0.534-1.391-1.076-2.069-1.637
		c-0.362-0.298-0.698-0.62-0.991-0.981C20.885,50.677,21.208,50.519,21.511,50.365z M13.774,55.866
		c0.096,0.019,0.128,0.367,0.176,0.574c0.016,0.063-0.016,0.138-0.03,0.204c-0.148,0.729-0.356,0.855-1.077,0.638
		c-0.068-0.021-0.157-0.149-0.147-0.212c0.038-0.276,0.111-0.544,0.156-0.746c0.118-0.148,0.168-0.27,0.252-0.303
		C13.319,55.936,13.567,55.824,13.774,55.866z M13.54,55.156c-0.349,0.185-0.672,0.353-1.031,0.54
		c-0.099-0.118-0.223-0.271-0.355-0.432c0.42-0.256,0.837-0.507,1.278-0.777C13.47,54.723,13.507,54.964,13.54,55.156z M8.43,55.307
		c-0.278-0.213-0.549-0.433-0.834-0.638c0.203,0,0.406-0.021,0.61-0.031c0.087,0.065,0.176,0.125,0.26,0.195
		C8.696,55.02,8.536,55.15,8.43,55.307z M10.191,56.313c-0.001,0.157-0.023,0.279-0.052,0.391c-0.347-0.302-0.694-0.605-1.054-0.896
		c0.001-0.006,0.001-0.01,0.001-0.016c0.248-0.063,0.47-0.185,0.661-0.149c0.16,0.032,0.296,0.241,0.416,0.396
		C10.211,56.099,10.193,56.219,10.191,56.313z M9.43,54.509c1.24-0.172,2.445-0.426,3.607-0.743
		C12.074,54.712,10.647,55.005,9.43,54.509z M11.055,55.964c0.157-0.28,0.472-0.375,0.752-0.231
		c0.301,0.155,0.446,0.992,0.127,1.338c-0.144,0.157-0.576,0.095-0.864,0.049C10.874,57.088,10.877,56.287,11.055,55.964z
		 M11.275,57.731c0.891,0.06,1.783,0.137,2.674,0.229c0.067,0.007,0.157,0.02,0.19,0.064c0.231,0.3,0.445,0.611,0.686,0.947
		c-0.116-0.018-0.196-0.022-0.273-0.042c-0.827-0.202-1.656-0.351-2.49-0.456C11.805,58.223,11.538,57.979,11.275,57.731z
		 M14.666,61.218c-0.196-0.218-0.399-0.433-0.598-0.65c0.247,0.05,0.496,0.091,0.743,0.147c0.03,0.007,0.054,0.041,0.079,0.06
		C14.798,61.037,14.751,61.167,14.666,61.218z M14.911,60.182c-0.473-0.085-0.947-0.164-1.421-0.241
		c-0.261-0.278-0.529-0.548-0.796-0.821c0.927,0.152,1.855,0.355,2.779,0.622c0.148,0.044,0.294,0.1,0.466,0.157
		C15.614,60.206,15.311,60.255,14.911,60.182z M15.867,57.646c-0.229-0.419-0.12-0.795,0.281-1.061
		c0.085-0.059,0.171-0.113,0.296-0.194c-0.107-0.127-0.203-0.224-0.279-0.333c-0.176-0.26-0.394-0.508-0.502-0.795
		c-0.174-0.451-0.029-0.885,0.362-1.152c0.333-0.229,0.723-0.381,1.101-0.524c0.238-0.087,0.33-0.159,0.202-0.417
		c-0.098-0.197-0.157-0.422-0.177-0.64c-0.005-0.059,0.01-0.107,0.012-0.162c0.798-0.325,1.557-0.662,2.286-1.003
		c0.212,0.051,0.423,0.114,0.63,0.198c1.181,0.481,2.152,1.275,3.103,2.101c0.032,0.026,0.051,0.074,0.091,0.14
		c-0.403,0.225-0.65,0.545-0.622,1.11c-0.648-0.334-1.227-0.629-1.808-0.923c-0.033,0.042-0.062,0.087-0.093,0.126
		c0.086,0.084,0.157,0.188,0.257,0.242c0.474,0.258,0.963,0.492,1.432,0.757c0.176,0.099,0.32,0.264,0.476,0.4
		c-0.021,0.044-0.044,0.09-0.068,0.135c-0.122-0.021-0.249-0.021-0.363-0.063c-0.925-0.335-1.847-0.675-2.771-1.014
		c-0.066-0.024-0.137-0.057-0.204-0.056c-0.07,0.004-0.138,0.042-0.206,0.066c0.041,0.059,0.073,0.152,0.128,0.171
		c0.3,0.105,0.606,0.175,0.907,0.278c0.636,0.224,1.267,0.458,1.911,0.687c-0.123,0.285-0.264,0.296-0.458,0.219
		c-0.788-0.297-1.578-0.588-2.369-0.877c-0.188-0.067-0.38-0.125-0.575-0.165c-0.066-0.013-0.146,0.054-0.221,0.085
		c0.05,0.053,0.089,0.133,0.151,0.159c0.197,0.073,0.405,0.116,0.603,0.189c0.788,0.293,1.574,0.592,2.39,0.9
		c-0.05,0.171-0.102,0.342-0.171,0.573c-0.582-0.151-1.152-0.302-1.725-0.446c-0.192-0.048-0.388-0.092-0.583-0.107
		c-0.089-0.005-0.184,0.073-0.277,0.113c0.082,0.044,0.155,0.117,0.245,0.14c0.638,0.153,1.281,0.277,1.912,0.445
		c0.267,0.072,0.595,0.123,0.623,0.554c-0.829,0.024-1.595-0.513-2.44-0.306c1.107,0.479,2.412,0.303,3.487,1.144
		c-0.261,0.111-0.482,0.272-0.712,0.289c-1.297,0.089-2.599,0.17-3.898,0.203c-0.742,0.021-1.445-0.173-2.003-0.712
		C16.086,57.982,15.961,57.819,15.867,57.646z M20.955,68.623c-0.092-0.107-0.181-0.217-0.272-0.324
		c0.19-0.195,0.408-0.365,0.616-0.547c0.03,0.014,0.061,0.027,0.09,0.041c0.001,0.143,0.005,0.288,0.002,0.432
		c-0.008,0.325,0.012,0.646,0.064,0.961C21.288,68.997,21.122,68.816,20.955,68.623z M21.318,66.273
		c-0.176,0.146-0.381,0.275-0.596,0.355c-0.511,0.194-0.854,0.027-1.068-0.482c-0.07-0.17-0.131-0.346-0.208-0.556
		c-0.215,0.103-0.403,0.193-0.589,0.282c-0.058,0.027-0.113,0.042-0.171,0.063c-0.114-0.137-0.23-0.271-0.344-0.408
		c-0.356-0.428-0.714-0.856-1.073-1.285c0.145-0.326,0.36-0.629,0.581-0.913c0.152-0.196,0.146-0.3-0.048-0.42
		c-0.06-0.035-0.122-0.072-0.182-0.104c-0.976-0.548-1.087-1.864-0.159-2.507c0.451-0.315,0.996-0.536,1.533-0.666
		c0.952-0.232,1.926-0.363,2.862-0.532c-0.003,0.404-0.008,0.763-0.013,1.188c-0.349,0.172-0.782,0.384-1.204,0.607
		c-0.082,0.042-0.121,0.159-0.179,0.242c0.103-0.001,0.213,0.023,0.301-0.011c0.217-0.086,0.445-0.171,0.63-0.308
		c0.491-0.363,0.95-0.356,1.469,0.125c-0.817,0.409-1.62,0.812-2.424,1.215c0.023,0.045,0.044,0.085,0.068,0.131
		c0.977-0.404,1.965-0.784,2.875-1.355c-0.901,1.071-2.166,1.667-3.285,2.447c0.035,0.056,0.071,0.109,0.107,0.165
		c1.01-0.651,2.026-1.299,3.027-1.938c0.049,0.33,0.03,0.359-0.233,0.571c-0.431,0.343-0.854,0.693-1.279,1.044
		c-0.096,0.079-0.177,0.178-0.264,0.264c0.03,0.041,0.058,0.078,0.086,0.115c0.558-0.415,1.114-0.831,1.674-1.245
		c0.231,0.255,0.079,0.444-0.061,0.583c-0.404,0.403-0.84,0.778-1.251,1.179c-0.107,0.105-0.164,0.26-0.243,0.391
		c0.135-0.06,0.293-0.097,0.402-0.189c0.504-0.437,0.992-0.889,1.535-1.38c0.155,0.036,0.23,0.137,0.074,0.363
		C22.953,64.348,22.308,65.445,21.318,66.273z M22.998,67.55c0.102-1.5,0.675-2.85,1.415-4.123c0.128-0.218,0.529-0.278,0.763-0.39
		c0.131,0.357,0.262,0.679,0.362,1.01c0.03,0.094-0.007,0.227-0.056,0.321c-0.104,0.194-0.244,0.371-0.348,0.569
		c-0.025,0.045,0.02,0.137,0.037,0.203c0.059-0.021,0.14-0.029,0.173-0.07c0.12-0.161,0.237-0.324,0.331-0.5
		c0.125-0.225,0.257-0.243,0.439-0.055c-0.195,0.51-0.396,1.022-0.581,1.537c-0.034,0.094,0,0.211,0.001,0.314
		c0.08-0.077,0.194-0.143,0.234-0.239c0.201-0.448,0.385-0.905,0.565-1.366c0.089-0.229,0.233-0.337,0.527-0.281
		c-0.143,0.643-0.441,1.248-0.415,1.924c0.398-0.834,0.436-1.811,1.039-2.547c0.042-0.002,0.085-0.004,0.127-0.004
		c0.032,0.236,0.132,0.492,0.079,0.705c-0.15,0.612-0.364,1.209-0.549,1.809c-0.058,0.193-0.099,0.395-0.097,0.609
		c0.323-0.152,0.316-0.482,0.426-0.737c0.116-0.267,0.19-0.552,0.268-0.831c0.081-0.293,0.145-0.588,0.222-0.912
		c0.34,0.086,0.514,0.257,0.505,0.6c-0.023,0.655-0.032,1.313-0.043,1.965c0,0.107,0.01,0.211,0.083,0.321
		c0.241-0.833,0.189-1.683,0.169-2.536c0.202-0.017,0.391-0.06,0.569-0.037c0.107,0.012,0.241,0.107,0.292,0.203
		c0.51,0.977,0.644,2.029,0.574,3.107c-0.022,0.311-0.176,0.639-0.351,0.904c-0.101,0.149-0.371,0.265-0.56,0.258
		c-0.255-0.012-0.508-0.147-0.757-0.241c-0.137-0.052-0.268-0.121-0.449-0.206c-0.074,0.34-0.146,0.631-0.205,0.924
		c-0.21,1.057-1.187,1.188-1.879,0.891c-0.244-0.107-0.416-0.431-0.558-0.688c-0.257-0.464-0.239-0.476-0.724-0.291
		c-0.583,0.222-0.843,0.142-1.195-0.378C23.073,68.766,22.954,68.176,22.998,67.55z M23.514,71.4
		c0.142-0.045,0.282-0.102,0.419-0.174c0.101-0.055,0.2-0.119,0.371-0.225c0.183,1.182,0.896,1.809,2.014,1.993
		c-0.21,0.155-0.419,0.313-0.637,0.478C24.96,72.827,24.239,72.136,23.514,71.4z M26.896,74.516c-0.28-0.232-0.56-0.472-0.84-0.716
		c0.147-0.171,0.341-0.241,0.579-0.155c0.151,0.051,0.364,0.27,0.354,0.394C26.971,74.198,26.934,74.357,26.896,74.516z
		 M28.804,75.66c-0.025,0.09-0.062,0.173-0.102,0.252c-0.358-0.258-0.715-0.525-1.072-0.805c0.134-0.141,0.286-0.241,0.511-0.252
		C28.644,74.824,28.94,75.172,28.804,75.66z M39.453,80.617c-1.114-0.21-2.199-0.494-3.264-0.842
		c-0.08-0.207-0.211-0.398-0.414-0.521c-0.321-0.193-0.709-0.167-1.022,0.007c-1.539-0.608-3.038-1.376-4.517-2.313
		c-0.204-0.45-0.56-0.659-1.042-0.692c-0.019-0.013-0.038-0.025-0.058-0.039c0.145-0.576,0.323-1.121-0.071-1.6
		c-0.428-0.518-0.985-0.348-1.519-0.174c-0.006-0.907-0.169-1.156-0.971-1.439c1.513-0.256,2.318-1.133,2.427-2.607
		c0.072-0.01,0.108-0.022,0.138-0.018c1.321,0.292,1.987-0.809,1.906-1.833c-0.027-0.366-0.036-0.735-0.055-1.173
		c0.126,0.083,0.197,0.138,0.272,0.179c0.639,0.341,1.247,0.759,1.919,1c0.802,0.291,1.581,0.177,2.123-0.61
		c0.028-0.041,0.1-0.066,0.167-0.075c0.652,0.924,1.368,1.735,2.147,2.438c-0.034,0.188-0.106,0.375-0.226,0.559
		c-0.171,0.26-0.329,0.304-0.604,0.21c0.006-0.021,0.007-0.048,0.021-0.062c0.252-0.27,0.362-0.604,0.145-0.893
		c-0.127-0.172-0.427-0.276-0.662-0.294c-0.342-0.023-0.613,0.249-0.703,0.628c-0.121,0.515-0.041,0.995,0.395,1.335
		c0.427,0.334,0.914,0.364,1.394,0.124c0.462-0.232,0.697-0.627,0.812-1.096c0.388,0.313,0.789,0.603,1.207,0.865
		c0,0.353-0.066,0.713-0.226,1.084c-0.13,0.301-0.303,0.586-0.47,0.866c-0.205,0.354-0.314,0.711-0.135,1.104
		c0.171,0.373,0.514,0.5,0.825,0.248c0.246-0.201,0.476-0.463,0.615-0.745c0.345-0.694,0.448-1.366,0.381-2.022
		c0.398,0.203,0.812,0.383,1.236,0.547c0.068,0.313,0.096,0.645,0.071,0.996c-0.095,1.395-0.634,2.573-1.677,3.533
		c-0.366,0.334-0.675,0.742-0.965,1.146c-0.183,0.256-0.105,0.549,0.118,0.77c0.217,0.218,0.495,0.309,0.772,0.16
		c0.251-0.139,0.517-0.301,0.696-0.52c1.343-1.631,1.916-3.479,1.589-5.599c-0.015-0.101-0.051-0.187-0.07-0.284
		c0.428,0.143,0.874,0.26,1.328,0.365c0.143,0.682,0.168,1.404,0.033,2.188c-0.23,1.32-0.737,2.521-1.545,3.584
		c-0.538,0.707-1.206,1.252-2.008,1.597C39.796,80.671,39.623,80.648,39.453,80.617z M40.821,80.837
		c0.395-0.265,0.762-0.575,1.102-0.933c0.347-0.362,0.665-0.75,1.022-1.154c-0.322,0.836-0.783,1.547-1.366,2.173
		C41.326,80.896,41.071,80.872,40.821,80.837z M42.16,80.984c0.963-1.077,1.625-2.364,1.941-3.869
		c0.265-1.262,0.29-2.475,0.048-3.625c0.323,0.06,0.664,0.093,1,0.135c0.509,2.428-0.041,5.123-1.971,7.427
		C42.836,81.035,42.495,81.014,42.16,80.984z M45.82,81.083c-0.551,0.019-1.089,0.021-1.616,0.013
		c-0.145-0.136-0.147-0.287,0.039-0.519c0.405-0.504,0.382-0.522,0.962-0.285C45.698,80.492,45.899,80.77,45.82,81.083z
		 M44.939,79.428c0.131-0.312,0.24-0.582,0.36-0.847c0.025-0.056,0.095-0.14,0.134-0.133c0.366,0.05,0.756,0.063,1.083,0.208
		c0.166,0.072,0.327,0.416,0.291,0.595c-0.037,0.181-0.301,0.39-0.506,0.444C45.843,79.818,45.407,79.645,44.939,79.428z
		 M46.357,81.055c0.026-0.242-0.002-0.517-0.131-0.832c0.237,0.014,0.514-0.053,0.628,0.055c0.708,0.654,1.203,0.707,2.031,0.142
		c0.106,0.138,0.213,0.272,0.323,0.407C48.208,80.941,47.269,81.012,46.357,81.055z M51.292,78.346
		c0.015,0.463-0.147,0.853-0.533,1.127c-0.403,0.293-0.819,0.274-1.182-0.065c-0.144-0.136-0.268-0.296-0.385-0.457
		c-0.12-0.156-0.218-0.329-0.354-0.54c-0.217,0.42-0.521,0.619-0.972,0.503c-0.422-0.108-0.693-0.364-0.834-0.767
		c1.013-0.814,1.088-1.352,0.28-2.105c0.399-0.184,0.755-0.41,0.816-0.91c0.184,0.01,0.341,0.021,0.539,0.033
		c-0.031,0.291-0.068,0.559-0.078,0.824c-0.001,0.082,0.071,0.171,0.107,0.258c0.052-0.074,0.136-0.143,0.152-0.223
		c0.041-0.207,0.064-0.42,0.066-0.629c0.003-0.25,0.099-0.399,0.402-0.44c-0.031,0.685-0.068,1.338-0.087,1.993
		c-0.005,0.098,0.062,0.201,0.097,0.301c0.055-0.096,0.153-0.189,0.16-0.286c0.044-0.635,0.066-1.269,0.107-1.899
		c0.01-0.181,0.058-0.354,0.086-0.535c0.034-0.006,0.071-0.01,0.106-0.018c0.074,0.159,0.194,0.313,0.219,0.479
		c0.106,0.729,0.183,1.464,0.278,2.195c0.014,0.102,0.076,0.196,0.115,0.291c0.05-0.102,0.15-0.207,0.143-0.308
		c-0.035-0.537-0.095-1.072-0.149-1.608c-0.014-0.139-0.041-0.271-0.064-0.42c0.328,0.002,0.514,0.12,0.572,0.428
		c0.042,0.23,0.104,0.457,0.179,0.68c0.034,0.088,0.128,0.156,0.195,0.232c0.022-0.09,0.078-0.188,0.063-0.271
		c-0.063-0.31-0.149-0.612-0.227-0.923c0.217-0.146,0.34-0.092,0.417,0.145c0.113,0.348,0.232,0.691,0.369,1.028
		c0.043,0.108,0.149,0.19,0.227,0.285c0.007-0.127,0.049-0.263,0.014-0.38c-0.098-0.338-0.215-0.668-0.35-0.995
		c-0.082-0.2-0.075-0.337,0.093-0.494c0.122-0.11,0.188-0.285,0.328-0.506c0.146,0.373,0.29,0.676,0.382,0.995
		c0.111,0.392,0.195,0.798,0.259,1.201c0.138,0.858-0.627,1.496-1.422,1.028c-0.046-0.028-0.102-0.038-0.196-0.069
		C51.254,77.818,51.285,78.083,51.292,78.346z M72.785,80.217c-2.506-0.461-5.014-0.912-7.521-1.363l-1.47-0.265
		c-0.211-0.272-0.428-0.608-0.599-1.017l0.03,0.914l-0.057-0.01c-0.056-0.011-0.112-0.016-0.169-0.016s-0.114,0.004-0.169,0.016
		l-0.851,0.152l0.033-0.96c-0.182,0.437-0.417,0.79-0.642,1.07l-0.634,0.114c-2.509,0.451-5.017,0.901-7.523,1.362
		c-0.477,0.087-0.926,0.158-1.381,0.232c0.031-0.071,0.077-0.13,0.1-0.207c0.086-0.277,0.145-0.562,0.224-0.871
		c0.523,0.177,0.963,0.071,1.262-0.399c0.13-0.207,0.255-0.432,0.314-0.664c0.094-0.367,0.132-0.746,0.201-1.166
		c0.396,0.51,0.844,0.907,1.48,1.026c0.708,0.128,1.169-0.188,1.444-0.812c1.18,0.48,1.755,0.474,2.315-0.071
		c0.815-0.8,0.586-1.667,0.073-2.532c1.445-0.083,1.918-1.335,0.697-2.6c1.437-0.121,1.926-0.764,1.406-1.877
		c0.366-0.133,0.675-0.311,0.929-0.524l0.105-3.144c-0.265-0.201-0.588-0.353-0.994-0.424c0.272-0.605,0.242-1.144-0.26-1.591
		c-0.462-0.416-1.039-0.485-1.691-0.515c0.414-0.417,0.752-0.811,0.725-1.376c-0.031-0.597-0.399-0.938-0.834-1.095
		c0.209-0.477,0.486-0.916,0.585-1.387c0.105-0.516-0.208-0.959-0.56-1.253c0.229-0.3,0.419-0.553,0.633-0.833
		c0.281,0.204,0.584,0.28,0.896,0.169c0.191,0.596,0.372,1.214,0.543,1.863c0.202,0.763,0.382,1.593,0.552,2.494
		c-0.007,0.035-0.014,0.069-0.021,0.104c-0.011-0.063-0.025-0.124-0.037-0.186c-0.131,0.182-0.193,0.409-0.153,0.662
		c0.066,0.396,0.342,0.666,0.703,0.734l0.009-0.277c0.079,0.053,0.163,0.095,0.255,0.121l0.001,0.061
		c0.04-0.007,0.075-0.025,0.113-0.039c0.05,0.008,0.098,0.027,0.151,0.027c0.461,0,0.855-0.33,0.938-0.783
		c0.067-0.373,0.139-0.713,0.209-1.058c0.033-0.022,0.068-0.04,0.099-0.068c0.223-0.211,0.268-0.567,0.116-0.908
		c0.07-0.298,0.139-0.602,0.213-0.884c0.195-0.743,0.408-1.443,0.629-2.117c0.006-0.004,0.013-0.006,0.02-0.011
		c0.213,0.279,0.404,0.532,0.633,0.833c-0.353,0.294-0.666,0.737-0.561,1.253c0.098,0.471,0.375,0.91,0.585,1.387
		c-0.437,0.156-0.804,0.498-0.834,1.094c-0.026,0.566,0.312,0.959,0.726,1.377c-0.652,0.027-1.229,0.099-1.691,0.515
		c-0.502,0.446-0.532,0.985-0.26,1.591c-0.406,0.071-0.729,0.223-0.993,0.423l0.105,3.144c0.254,0.216,0.563,0.394,0.929,0.527
		c-0.521,1.111-0.031,1.754,1.406,1.875c-1.222,1.264-0.75,2.518,0.695,2.601c-0.512,0.864-0.742,1.733,0.074,2.532
		c0.561,0.545,1.134,0.552,2.314,0.071c0.274,0.623,0.735,0.939,1.443,0.812c0.637-0.119,1.085-0.516,1.48-1.027
		c0.068,0.42,0.106,0.801,0.201,1.166c0.06,0.232,0.184,0.458,0.313,0.665c0.299,0.472,0.739,0.577,1.262,0.399
		c0.079,0.31,0.138,0.594,0.224,0.871c0.021,0.063,0.059,0.112,0.084,0.17C73.165,80.284,72.98,80.253,72.785,80.217z
		 M74.448,79.375c-0.386-0.275-0.548-0.665-0.533-1.128c0.007-0.261,0.038-0.524,0.062-0.822c-0.095,0.032-0.149,0.042-0.195,0.07
		c-0.797,0.469-1.561-0.168-1.424-1.027c0.064-0.403,0.148-0.81,0.261-1.202c0.092-0.318,0.235-0.621,0.382-0.994
		c0.139,0.221,0.205,0.395,0.327,0.506c0.168,0.156,0.175,0.293,0.093,0.494c-0.135,0.326-0.252,0.658-0.35,0.994
		c-0.035,0.118,0.007,0.252,0.014,0.379c0.077-0.094,0.184-0.174,0.227-0.283c0.138-0.338,0.256-0.68,0.369-1.028
		c0.076-0.235,0.2-0.292,0.418-0.146c-0.078,0.313-0.166,0.614-0.228,0.924c-0.015,0.082,0.041,0.181,0.063,0.271
		c0.066-0.077,0.162-0.146,0.194-0.233c0.075-0.222,0.138-0.448,0.181-0.681c0.059-0.307,0.244-0.426,0.571-0.427
		c-0.022,0.148-0.05,0.282-0.063,0.419c-0.055,0.537-0.115,1.072-0.149,1.608c-0.007,0.102,0.092,0.207,0.142,0.308
		c0.039-0.093,0.103-0.188,0.115-0.29c0.096-0.732,0.172-1.466,0.278-2.195c0.024-0.168,0.146-0.32,0.219-0.479
		c0.036,0.006,0.072,0.011,0.106,0.018c0.029,0.18,0.076,0.354,0.087,0.534c0.04,0.634,0.062,1.265,0.106,1.9
		c0.006,0.097,0.105,0.188,0.16,0.286c0.036-0.101,0.102-0.205,0.098-0.301c-0.021-0.656-0.058-1.31-0.088-1.994
		c0.303,0.041,0.399,0.191,0.402,0.44c0.002,0.209,0.025,0.422,0.066,0.629c0.016,0.08,0.099,0.149,0.15,0.222
		c0.036-0.086,0.109-0.174,0.107-0.256c-0.01-0.267-0.047-0.533-0.078-0.824c0.197-0.014,0.355-0.024,0.539-0.033
		c0.063,0.5,0.417,0.727,0.816,0.91c-0.809,0.754-0.733,1.291,0.279,2.104c-0.142,0.403-0.412,0.658-0.834,0.767
		c-0.451,0.117-0.755-0.082-0.972-0.502c-0.136,0.211-0.233,0.383-0.353,0.539c-0.117,0.162-0.242,0.322-0.386,0.457
		C75.268,79.648,74.852,79.668,74.448,79.375z M78.852,81.009c-0.908-0.061-1.853-0.153-2.849-0.284
		c0.108-0.133,0.215-0.267,0.319-0.402c0.828,0.564,1.322,0.512,2.031-0.143c0.114-0.106,0.392-0.039,0.629-0.054
		C78.843,80.463,78.814,80.755,78.852,81.009z M78.906,79.6c-0.205-0.055-0.469-0.263-0.506-0.443
		c-0.037-0.18,0.125-0.524,0.291-0.596c0.326-0.145,0.717-0.158,1.082-0.209c0.039-0.006,0.108,0.078,0.134,0.135
		c0.12,0.266,0.229,0.535,0.36,0.847C79.799,79.55,79.363,79.723,78.906,79.6z M80.881,81.089c-0.484-0.006-0.979-0.019-1.48-0.045
		c-0.125-0.336,0.078-0.636,0.602-0.849c0.58-0.237,0.557-0.219,0.962,0.285C81.193,80.768,81.141,80.93,80.881,81.089z
		 M82.135,81.074c-1.959-2.268-2.564-4.928-2.119-7.346c0.043-0.002,0.086-0.004,0.129-0.008c0.301-0.025,0.582-0.078,0.873-0.117
		c-0.197,1.088-0.162,2.23,0.088,3.416c0.33,1.571,1.043,2.902,2.078,4.008C82.839,81.048,82.488,81.064,82.135,81.074z
		 M83.777,80.986c-0.655-0.663-1.166-1.426-1.516-2.332c0.357,0.404,0.676,0.791,1.022,1.154c0.409,0.432,0.86,0.795,1.353,1.09
		C84.352,80.932,84.066,80.963,83.777,80.986z M95.418,77.161c0.004-0.037,0.005-0.074,0.016-0.111
		c0.067-0.266,0.273-0.407,0.545-0.407c0.078,0,0.152,0.01,0.228,0.021C95.943,76.836,95.682,76.999,95.418,77.161z M96.833,76.236
		c-0.199-0.18-0.353-0.398-0.431-0.674c-0.137-0.487,0.16-0.836,0.664-0.804c0.422,0.022,0.593,0.354,0.854,0.688
		C97.561,75.721,97.197,75.984,96.833,76.236z M97.659,74.348c-0.534-0.175-1.091-0.345-1.519,0.174
		c-0.402,0.485-0.209,1.041-0.063,1.629c-0.522,0.018-0.904,0.232-1.116,0.716c-0.098,0.226-0.113,0.429-0.074,0.62
		c-1.346,0.789-2.714,1.432-4.115,1.951c-0.316-0.412-0.894-0.549-1.34-0.28c-0.317,0.192-0.48,0.538-0.483,0.889
		c-0.788,0.228-1.587,0.418-2.402,0.571c-0.299,0.056-0.603,0.101-0.903,0.146c-0.992-0.318-1.785-0.934-2.41-1.758
		c-0.81-1.064-1.315-2.263-1.547-3.584c-0.117-0.676-0.109-1.308-0.016-1.908c0.447-0.078,0.877-0.184,1.301-0.296
		c-0.306,2.093,0.266,3.921,1.596,5.536c0.179,0.219,0.445,0.381,0.697,0.52c0.276,0.146,0.555,0.058,0.771-0.16
		c0.224-0.223,0.302-0.516,0.118-0.771c-0.291-0.403-0.601-0.812-0.965-1.146c-1.043-0.961-1.582-2.139-1.678-3.533
		c-0.014-0.202-0.006-0.396,0.012-0.583c0.441-0.138,0.865-0.306,1.281-0.481c0.018,0.504,0.135,1.018,0.396,1.543
		c0.14,0.282,0.369,0.545,0.615,0.746c0.311,0.254,0.653,0.127,0.824-0.248c0.18-0.393,0.07-0.75-0.135-1.104
		c-0.166-0.28-0.339-0.564-0.47-0.866c-0.085-0.198-0.138-0.394-0.177-0.585c0.47-0.252,0.922-0.534,1.356-0.844
		c0.14,0.236,0.334,0.435,0.612,0.574c0.48,0.24,0.967,0.211,1.395-0.123c0.436-0.34,0.516-0.82,0.395-1.336
		c-0.084-0.351-0.323-0.598-0.629-0.616c0.449-0.459,0.88-0.955,1.283-1.495c0.5,0.41,1.119,0.439,1.752,0.21
		c0.672-0.243,1.281-0.659,1.92-1c0.076-0.041,0.146-0.097,0.272-0.179c-0.019,0.437-0.028,0.806-0.055,1.173
		c-0.081,1.024,0.585,2.125,1.905,1.833c0.031-0.006,0.066,0.007,0.139,0.018c0.109,1.475,0.915,2.352,2.427,2.607
		C97.829,73.191,97.666,73.439,97.659,74.348z M98.479,75.018c-0.111-0.352-0.22-0.713-0.261-1.078
		c-0.01-0.123,0.203-0.34,0.354-0.393c0.345-0.125,0.607,0.063,0.748,0.445c0.037,0.104,0.066,0.191,0.091,0.271
		C99.1,74.525,98.789,74.773,98.479,75.018z M100.38,73.418c0.005-0.02,0.003-0.04,0.009-0.059c0.031-0.102,0.188-0.207,0.344-0.262
		C100.615,73.205,100.498,73.313,100.38,73.418z M101.259,72.604c-0.125-0.051-0.262-0.082-0.426-0.074
		c-0.616,0.035-0.91,0.492-1.049,1.037c-0.321-0.241-0.603-0.45-0.894-0.668c1.117-0.185,1.83-0.812,2.014-1.994
		c0.171,0.104,0.271,0.17,0.371,0.225c0.442,0.24,0.927,0.38,1.347,0.025c0.313-0.268,0.581-0.618,0.778-0.979
		c0.336-0.632,0.436-1.333,0.418-2.047c-0.004-0.144,0-0.289,0-0.433c0.031-0.012,0.062-0.027,0.091-0.041
		c0.218,0.191,0.448,0.367,0.646,0.572c0.146,0.154,0.281,0.317,0.414,0.48C103.721,70.146,102.488,71.438,101.259,72.604z
		 M105.331,68.284c-0.028-0.037-0.058-0.075-0.085-0.112c0.068-0.013,0.132-0.016,0.188-0.009
		C105.398,68.203,105.366,68.244,105.331,68.284z M107.357,63.228c0.248,0.317,0.5,0.654,0.641,1.025
		c0.127,0.34,0.072,0.663-0.077,0.955c-0.088,0.106-0.176,0.212-0.264,0.317c-0.063,0.076-0.128,0.151-0.192,0.228
		c-0.338,0.241-0.724,0.208-1.115,0.021c-0.186-0.088-0.373-0.178-0.588-0.281c-0.078,0.21-0.14,0.386-0.209,0.555
		c-0.215,0.512-0.557,0.678-1.068,0.482c-0.215-0.079-0.42-0.209-0.596-0.355c-0.99-0.826-1.636-1.925-2.351-2.97
		c-0.155-0.226-0.081-0.327,0.073-0.363c0.543,0.491,1.031,0.944,1.535,1.38c0.109,0.094,0.268,0.131,0.402,0.19
		c-0.078-0.132-0.136-0.286-0.242-0.392c-0.412-0.4-0.848-0.775-1.252-1.179c-0.14-0.139-0.291-0.328-0.061-0.583
		c0.561,0.415,1.115,0.831,1.674,1.244c0.027-0.036,0.057-0.074,0.085-0.114c-0.087-0.086-0.168-0.185-0.264-0.264
		c-0.425-0.352-0.847-0.701-1.279-1.044c-0.263-0.212-0.282-0.241-0.233-0.571c1.002,0.639,2.018,1.288,3.027,1.938
		c0.036-0.056,0.072-0.109,0.107-0.165c-1.118-0.78-2.383-1.375-3.284-2.447c0.911,0.571,1.899,0.951,2.876,1.355
		c0.023-0.046,0.044-0.086,0.068-0.131c-0.806-0.403-1.607-0.806-2.426-1.215c0.52-0.482,0.979-0.488,1.471-0.125
		c0.185,0.137,0.412,0.221,0.629,0.308c0.088,0.034,0.199,0.01,0.301,0.011c-0.059-0.083-0.098-0.199-0.18-0.242
		c-0.42-0.224-0.854-0.436-1.202-0.607c-0.005-0.424-0.009-0.783-0.013-1.188c0.936,0.169,1.91,0.3,2.861,0.532
		c0.537,0.13,1.082,0.351,1.533,0.666c0.928,0.644,0.816,1.959-0.159,2.507c-0.06,0.032-0.123,0.069-0.183,0.104
		C107.211,62.93,107.205,63.034,107.357,63.228z M108.982,58.022c-0.558,0.539-1.262,0.733-2.002,0.712
		c-1.301-0.033-2.603-0.114-3.899-0.203c-0.229-0.016-0.451-0.177-0.712-0.288c1.074-0.841,2.38-0.665,3.486-1.144
		c-0.844-0.207-1.61,0.33-2.438,0.306c0.026-0.432,0.354-0.482,0.622-0.554c0.631-0.167,1.273-0.292,1.912-0.445
		c0.089-0.022,0.162-0.096,0.244-0.14c-0.092-0.041-0.188-0.119-0.276-0.113c-0.194,0.015-0.392,0.059-0.583,0.107
		c-0.572,0.144-1.143,0.295-1.725,0.446c-0.07-0.23-0.121-0.402-0.172-0.573c0.817-0.309,1.604-0.607,2.392-0.9
		c0.198-0.073,0.405-0.116,0.603-0.19c0.063-0.026,0.103-0.106,0.151-0.159c-0.075-0.032-0.155-0.099-0.222-0.085
		c-0.193,0.039-0.387,0.098-0.574,0.165c-0.792,0.289-1.581,0.579-2.369,0.877c-0.193,0.077-0.335,0.066-0.458-0.22
		c0.644-0.229,1.274-0.462,1.91-0.686c0.3-0.104,0.606-0.173,0.907-0.278c0.056-0.019,0.087-0.112,0.128-0.171
		c-0.067-0.024-0.136-0.063-0.206-0.066c-0.067-0.001-0.139,0.032-0.204,0.056c-0.924,0.338-1.845,0.679-2.771,1.014
		c-0.115,0.041-0.242,0.041-0.363,0.062c-0.024-0.044-0.047-0.091-0.068-0.135c0.156-0.136,0.299-0.301,0.477-0.4
		c0.469-0.265,0.957-0.499,1.431-0.757c0.1-0.053,0.171-0.157,0.257-0.242c-0.032-0.039-0.061-0.084-0.093-0.127
		c-0.582,0.295-1.16,0.59-1.808,0.924c0.027-0.565-0.221-0.885-0.623-1.11c0.039-0.065,0.06-0.114,0.09-0.14
		c0.951-0.826,1.922-1.62,3.104-2.101c0.342-0.136,0.691-0.232,1.048-0.273c0.591,0.28,1.21,0.559,1.853,0.833
		c0.031,0.126,0.045,0.262,0.031,0.408c-0.021,0.218-0.08,0.443-0.178,0.64c-0.128,0.258-0.035,0.33,0.202,0.417
		c0.379,0.143,0.769,0.296,1.103,0.524c0.391,0.267,0.535,0.701,0.361,1.152c-0.107,0.288-0.326,0.535-0.502,0.795
		c-0.076,0.109-0.172,0.206-0.279,0.333c0.125,0.082,0.211,0.136,0.295,0.194c0.401,0.266,0.511,0.642,0.281,1.061
		C109.25,57.721,109.124,57.884,108.982,58.022z M109.65,63.153c-0.01-0.014-0.016-0.028-0.027-0.041
		c0.059-0.032,0.102-0.071,0.152-0.105C109.734,63.055,109.693,63.105,109.65,63.153z M110.434,62.245
		c0.051-0.11,0.094-0.226,0.129-0.349c0.022-0.083,0.158-0.168,0.254-0.187c0.033-0.006,0.068-0.011,0.104-0.019
		C110.757,61.874,110.596,62.059,110.434,62.245z M111.525,61.008c-0.178,0.031-0.356,0.055-0.533,0.091
		c-0.492,0.1-0.492,0.098-0.674-0.421c0.024-0.019,0.049-0.052,0.078-0.06c0.603-0.135,1.205-0.249,1.81-0.347
		C111.979,60.515,111.75,60.761,111.525,61.008z M112.746,59.691c-0.818,0.116-1.635,0.247-2.45,0.394
		c-0.399,0.073-0.703,0.024-1.028-0.283c0.172-0.058,0.318-0.113,0.467-0.157c1.267-0.364,2.535-0.615,3.809-0.766
		C113.275,59.148,113.007,59.417,112.746,59.691z M114.143,58.279c-1.168,0.097-2.332,0.274-3.486,0.555
		c-0.077,0.02-0.157,0.024-0.273,0.042c0.241-0.336,0.455-0.647,0.686-0.948c0.035-0.044,0.125-0.057,0.191-0.064
		c1.204-0.125,2.409-0.212,3.613-0.271C114.628,57.821,114.382,58.047,114.143,58.279z M115.495,57.016
		c-0.318-0.047-0.478-0.296-0.479-0.8c-0.002-0.094-0.021-0.215,0.028-0.274c0.12-0.154,0.256-0.364,0.416-0.396
		c0.192-0.036,0.414,0.085,0.662,0.149c0.012,0.284,0.022,0.525,0.03,0.758C115.934,56.641,115.71,56.824,115.495,57.016z
		 M118.045,54.944c-0.383-0.113-0.79,0.022-1.216,0.347c-0.086-0.195-0.356-0.335-0.087-0.554c0.072-0.061,0.15-0.113,0.227-0.171
		c0.107,0.013,0.211,0.034,0.318,0.046c0.296,0.033,0.59,0.039,0.883,0.044c0.049,0.027,0.1,0.054,0.146,0.08
		C118.225,54.803,118.137,54.876,118.045,54.944z"/>
	<path d="M61.508,60.623c-0.281,0.027-0.527,0.226-0.66,0.515c-0.156,0.343-0.111,0.703,0.114,0.916
		c0.23,0.218,0.575,0.272,0.896,0.207C61.754,61.714,61.637,61.168,61.508,60.623z"/>
	<path d="M50.823,54.316c0.252,0.138,0.587,0.048,0.741-0.2c0.159-0.255,0.068-0.612-0.193-0.769
		c-0.265-0.154-0.606-0.065-0.762,0.206C50.455,53.822,50.553,54.166,50.823,54.316z"/>
	<path d="M74.385,54.22c0.27-0.151,0.367-0.494,0.215-0.763c-0.158-0.271-0.498-0.36-0.764-0.206
		c-0.26,0.158-0.352,0.514-0.191,0.769C73.797,54.268,74.133,54.359,74.385,54.22z"/>
	<path d="M92.652,75.656c-0.281,0.039-0.574,0.014-0.861-0.012c-0.084-0.006-0.23-0.123-0.223-0.168
		c0.017-0.1,0.099-0.238,0.184-0.267c0.307-0.108,0.624-0.205,0.947-0.25c0.455-0.065,0.846-0.171,0.99-0.685
		c0.117-0.398-0.055-0.685-0.313-0.944c-0.247-0.254-0.57-0.284-0.834-0.103c-0.258,0.176-0.455,0.447-0.66,0.69
		c-0.164,0.195-0.287,0.423-0.458,0.61c-0.059,0.068-0.204,0.056-0.308,0.078c-0.016-0.108-0.072-0.246-0.031-0.325
		c0.109-0.203,0.246-0.398,0.404-0.569c0.228-0.24,0.367-0.486,0.205-0.816c-0.17-0.349-0.516-0.569-0.879-0.522
		c-0.363,0.044-0.678,0.19-0.871,0.522c-0.24,0.404-0.157,0.767,0.312,1.072c0.351,0.225,0.399,0.486,0.233,0.859
		c-0.45-0.037-0.694-0.287-0.834-0.672c-0.133-0.372-0.313-0.698-0.771-0.708c-0.405-0.009-0.823,0.27-0.971,0.642
		c-0.169,0.432-0.056,0.805,0.244,1.139c0.239,0.268,0.532,0.22,0.846,0.178c0.288-0.04,0.584-0.025,0.97-0.035
		c-0.379,0.455-0.785,0.51-1.209,0.542c-0.416,0.028-0.719,0.313-0.779,0.69c-0.061,0.397,0.148,0.789,0.511,0.953
		c0.575,0.26,1.321-0.188,1.36-0.814c0.041-0.598,0.16-0.76,0.66-0.817c-0.002,0.431-0.049,0.827-0.308,1.192
		c-0.345,0.48-0.323,0.932,0.03,1.234c0.285,0.246,0.734,0.293,1.052,0.104c0.327-0.196,0.562-0.696,0.476-1.03
		c-0.023-0.086-0.065-0.196-0.135-0.237c-0.482-0.278-0.332-0.709-0.303-1.109c0.031-0.016,0.063-0.031,0.094-0.051
		c0.102,0.179,0.264,0.347,0.287,0.535c0.078,0.596,0.49,0.869,0.975,1.043c0.51,0.187,1.082-0.229,1.088-0.781
		c0.002-0.282-0.049-0.59-0.166-0.844C93.458,75.65,93.118,75.59,92.652,75.656z"/>
	<path d="M51.263,52.084c0.025-0.047,0.052-0.095,0.078-0.141c-0.07-0.147-0.108-0.341-0.224-0.432
		c-0.181-0.146-0.417-0.084-0.479,0.139c-0.038,0.136,0.038,0.379,0.146,0.456C50.888,52.179,51.098,52.1,51.263,52.084z"/>
	<path d="M74.424,52.009c0.108-0.077,0.184-0.32,0.146-0.456c-0.063-0.223-0.299-0.286-0.48-0.14
		c-0.115,0.092-0.152,0.286-0.223,0.433c0.025,0.046,0.053,0.095,0.078,0.141C74.109,52.003,74.318,52.082,74.424,52.009z"/>
</g>
</svg>
