<svg xmlns="http://www.w3.org/2000/svg" width="126" height="126" viewBox="0 0 126 126"><path fill-rule="evenodd" clip-rule="evenodd" d="M120.807 62.703c-.234-7.888-3.38-14.38-9.478-19.376-5.657-4.632-12.324-7.12-19.345-8.75-9.51-2.21-19.186-2.798-28.915-2.772-2.902.078-5.803.068-8.708.2-5.646.256-11.25.78-16.798 1.838-7.438 1.417-14.583 3.622-20.888 8.01-5.967 4.152-9.798 9.696-11.044 16.93-1.027 5.957-.272 11.745 1.774 17.374 2.73 7.508 7.92 12.622 15.373 15.455 5.075 1.93 10.355 2.51 15.755 2.57 5.51.06 10.348-1.586 14.638-5.016 2.172-1.737 4.08-3.782 6.35-5.4 2.375-1.692 4.363-1.724 6.795-.117 1.67 1.103 3.096 2.5 4.573 3.834 3.612 3.258 7.6 5.834 12.546 6.407 6.39.74 12.675.14 18.79-1.91 7.27-2.438 12.6-7.066 15.732-14.11 2.144-4.824 3.005-9.905 2.85-15.167zm-13.89-7.66a2 2 0 1 1-1.453 3.728c-1.03-.4-2.438-2.693-3.673-3.175 1.88-.824 4.098-.952 5.127-.55zm-14.705 3.124c8.164 0 14.783 7.807 14.783 7.807s-6.62 7.807-14.783 7.807-14.783-7.806-14.783-7.806 6.618-7.807 14.782-7.807zm-15.156 1.48c.227-2.037 1.227-4.02 2.09-4.71a2 2 0 1 1 2.498 3.124c-.863.69-3.553.76-4.588 1.588zm7.412-4.92c1.07-1.748 2.818-3.12 3.893-3.38a2 2 0 1 1 .936 3.89c-1.073.258-3.54-.82-4.828-.51zm15.01-.437a2 2 0 0 1-2.59 1.138c-1.03-.4-2.438-2.694-3.673-3.176 1.878-.824 4.096-.952 5.125-.552a2 2 0 0 1 1.137 2.59zm-78.358.776c1.03-.4 3.248-.273 5.126.552-1.235.48-2.644 2.774-3.673 3.175a2 2 0 0 1-1.453-3.727zm15.283 3.1c8.164 0 14.78 7.808 14.78 7.808s-6.616 7.807-14.78 7.807c-8.166 0-14.783-7.806-14.783-7.806s6.617-7.807 14.783-7.807zm-6.706-6.442c1.03-.4 3.247-.273 5.125.55-1.234.482-2.644 2.775-3.673 3.177a2 2 0 1 1-1.453-3.726zm7.568 1.124a2 2 0 0 1 2.412-1.477c1.074.26 2.822 1.63 3.893 3.38-1.29-.31-3.755.77-4.828.51a1.998 1.998 0 0 1-1.477-2.412zm8.816 2.424a2 2 0 0 1 2.812-.313c.863.69 1.863 2.674 2.09 4.712-1.035-.828-3.726-.898-4.588-1.59a2 2 0 0 1-.313-2.81zm18.79 19.076s-.378-.188-.91-.563c-.912.783-1.7 1.176-1.7 1.176s-41.665 26-51.998-11.5c0 0 6.28 10.5 13.624 10.876l-5.5.563s18.125 8.75 28.75-1.814c0 0-.924 4.625-4.306 5.375-2.945.654 15.746-2.11 17.645-11.534.02-.177.045-.356.08-.54.16-1.25.047-2.608-.46-4.092 0 0-12.322-23.667-32.41-14.667 0 0 20.134-15.108 35.71 12.44 15.62-28.386 36.053-13.054 36.053-13.054-20.09-9-32.41 14.667-32.41 14.667-4.5 13.167 20.645 16.917 17.264 16.167s-4.306-5.375-4.306-5.375c10.625 10.563 28.75 1.813 28.75 1.813l-5.5-.563c7.344-.375 13.624-10.875 13.624-10.875-10.334 37.5-52 11.5-52 11.5zm-11.717-13.21a2 2 0 0 1 2.81.324c.687.866 1.216 3.023.98 5.06-.823-1.037-3.43-1.71-4.115-2.574s-.54-2.124.325-2.81zm22.056 2.786c-.688.866-3.293 1.538-4.117 2.576-.234-2.037.295-4.195.98-5.06a2 2 0 0 1 3.136 2.484zm-11.25 9.86c-1.402-.98-3.882-3.26-3.485-6.858.035-.177.056-.358.08-.54.17-.93.53-1.942 1.148-3.038a68.2 68.2 0 0 1 1.69-3.28 66.38 66.38 0 0 1 2.034 3.894c2.794 4.955.4 8.217-1.468 9.823z"/></svg>