<svg xmlns="http://www.w3.org/2000/svg" width="126" height="126" viewBox="0 0 126 126"><path d="M123.333 41.042c-3.313 4.155-8.473 6.22-13.414 7.722-5.892 1.792-11.998 2.806-18.024 4.035-5.172 1.054-11.958 2.272-17.257 5.166l-9.21 3.812-2.43-2.43-2.515 2.515L48.19 56.45l-.014.03c-4.653-1.868-9.892-2.828-14.074-3.68-6.025-1.23-12.132-2.243-18.022-4.036-4.943-1.503-10.103-3.567-13.414-7.722-.536-.674-1.66.207-1.187.916C8.89 53.116 14.937 65.462 24.52 75.01c4.306 4.288 9.47 8.155 15.488 9.57 6.53 1.535 12.98.09 18.84-2.975 2.754-1.146 4.148.115 4.148.115s-3.49-7.436 0-12.074H63c3.49 4.638 0 12.074 0 12.074s1.395-1.26 4.147-.115c5.862 3.063 12.31 4.51 18.84 2.975 6.02-1.415 11.184-5.282 15.488-9.57 9.587-9.547 15.634-21.894 23.046-33.05.47-.71-.65-1.592-1.187-.918zM15.2 57.072a1.512 1.512 0 0 1 2.517-1.68c.463.696.34 2.728.896 3.56-1.52-.303-2.95-1.185-3.413-1.88zm3.86 5.79a1.513 1.513 0 1 1 2.517-1.678c.464.695.342 2.727.896 3.56-1.52-.304-2.95-1.187-3.413-1.882zm3.978 5.947a1.513 1.513 0 0 1 2.27-2c.55.625.702 2.654 1.365 3.405-1.548-.097-3.083-.78-3.635-1.406zM28.35 73.6a1.512 1.512 0 1 1 1.98-2.287c.634.548 1.055 2.538 1.813 3.194-1.548.11-3.16-.362-3.792-.908zm5.683 4.315a1.512 1.512 0 0 1 1.58-2.58c.71.437 1.453 2.332 2.308 2.855-1.507.363-3.175.162-3.887-.275zm6.6 2.868a1.512 1.512 0 1 1 1.138-2.803c.773.313 1.816 2.062 2.745 2.438-1.428.604-3.108.68-3.882.365zM24.41 60.223c10.927 2.912 30.685-.947 32.546 13.565-12.385 6.184-25.43-3.14-32.547-13.565zm23.56 21.494a1.513 1.513 0 0 1 .165-3.02c.834.046 2.387 1.362 3.388 1.417-1.156 1.035-2.72 1.65-3.554 1.603zm7.45-1.384a1.512 1.512 0 1 1-1.17-2.788c.77-.324 2.74.182 3.665-.207-.588 1.436-1.725 2.672-2.495 2.995zm17.14-.81a1.512 1.512 0 0 1-1.98.81c-.77-.323-1.907-1.56-2.494-2.995.924.388 2.896-.117 3.664.207.77.323 1.132 1.21.81 1.98zm5.47 2.194c-.834.046-2.4-.568-3.553-1.603 1-.056 2.552-1.372 3.386-1.417a1.513 1.513 0 0 1 .167 3.02zm-8.987-7.93c1.86-14.51 21.618-10.653 32.547-13.564-7.118 10.426-20.162 19.75-32.547 13.565zm16.32 6.998c-.77.313-2.45.24-3.88-.365.93-.376 1.973-2.125 2.746-2.438a1.512 1.512 0 1 1 1.134 2.803zm6.603-2.868c-.712.437-2.38.638-3.89.275.856-.524 1.597-2.418 2.31-2.854a1.512 1.512 0 0 1 1.58 2.58zm5.68-4.315c-.63.547-2.243 1.018-3.79.907.76-.657 1.18-2.647 1.813-3.195a1.512 1.512 0 0 1 1.977 2.287zm5.315-4.793c-.552.624-2.086 1.308-3.635 1.405.663-.75.815-2.78 1.367-3.406a1.513 1.513 0 0 1 2.27 2zm3.978-5.948c-.463.695-1.893 1.578-3.412 1.882.555-.833.433-2.865.896-3.56a1.512 1.512 0 0 1 2.516 1.678zm3.86-5.79c-.462.694-1.893 1.577-3.41 1.88.554-.832.43-2.864.895-3.56a1.512 1.512 0 1 1 2.516 1.678zm-14.225 4.82c-4.6 1.852-9.847 1.048-14.623 2.198-.017.003-.03.01-.047.013-5.007.766-8.3 3.692-11.3 7.68-.587.782.727 1.534 1.306.764 1.42-1.89 2.942-3.56 4.737-4.807-.995 1.932-.71 4.397-.262 6.422.11.5.566.62.942.487.1.046.215.077.354.067 7.944-.533 14.745-5.558 19.627-11.563.42-.51.047-1.577-.734-1.262zM77.73 73.202c-.393-2.048-.446-4.27 1.07-5.883.88-.937 2.135-1.438 3.42-1.754l.094-.015c.023-.002.04-.015.062-.02.66-.156 1.327-.27 1.95-.368 3.327-.52 6.856-.347 10.17-1.067C90.077 68.872 84.34 72.74 77.73 73.2zm-28.118.96c.448-2.024.734-4.49-.26-6.42 1.792 1.247 3.315 2.916 4.737 4.806.577.77 1.89.018 1.305-.763-3-3.99-6.293-6.915-11.3-7.68l-.047-.014c-4.775-1.15-10.022-.346-14.623-2.197-.783-.315-1.152.75-.735 1.264 4.882 6.005 11.685 11.03 19.625 11.563.14.01.255-.02.354-.068.377.13.832.013.942-.49zm-1.343-.96c-6.61-.46-12.35-4.33-16.766-9.107 3.313.72 6.842.548 10.168 1.067.624.098 1.29.21 1.95.368.023.004.04.018.063.02l.093.016c1.284.317 2.54.817 3.42 1.753 1.517 1.61 1.462 3.834 1.07 5.88z"/></svg>