<?xml version="1.0" encoding="UTF-8" standalone="yes"?>
<svg xmlns="http://www.w3.org/2000/svg" viewBox="0 0 126 126">
  <path fill-rule="evenodd" clip-rule="evenodd" d="M63.12 62.428c.288.152.563.48.333.94a3.444 3.444 0 0 0-.33.874c-.025.12-.043.242-.063.363-.012 0-.02 0-.03.002-.01-.023-.024-.047-.028-.07a3.13 3.13 0 0 0-.357-1.13c-.084-.165-.133-.335-.08-.522.063-.225.22-.37.422-.467.034-.018.095-.01.132.01zm55.515-11.336c-.52 1.248-2.12 2.158-3.49 1.982-1.006-.13-1.592-.773-1.74-1.727.89.035 1.857.268 2.72.06 1.044-.25 1.395-1.472.897-2.362-.47-.842-1.365-1.05-2.307-.387-.695.49-1.3 1.113-1.918 1.705.467 8.932-.36 17.46-3.93 25.59-2.164 4.934-5.227 9.2-9.686 12.293-7.21 5.002-15.072 6.22-23.404 3.39-1.33-.454-2.56-1.233-3.766-2.046.468.69.692 1.537.57 2.414-.05.34-.18.72-.4.967-.175.2-.56.324-.82.285-.204-.03-.5-.367-.503-.57-.002-.266.205-.566.396-.785.12-.14.383-.157.63-.245-.202-1.885-1.272-2.938-2.897-2.957-1.77-.02-3.295 1.357-3.498 3.162-.217 1.883.824 3.55 2.688 4.318.38.156.76.305 1.37.55-3.263 2.515-5.495 5.497-6.49 9.647-1-4.133-3.23-7.127-6.49-9.645.73-.303 1.224-.47 1.687-.703 1.545-.773 2.42-2.014 2.38-3.77-.034-1.53-.772-2.668-2.192-3.293-1.637-.72-3.562.07-4.072 1.666-.162.5-.365 1.043.455 1.27.213.058.47.49.45.73-.024.24-.337.59-.575.643-.242.053-.744-.145-.797-.328-.192-.664-.44-1.406-.317-2.05a3.59 3.59 0 0 1 .326-.952c-1.038.68-2.1 1.305-3.237 1.69-8.33 2.83-16.19 1.614-23.406-3.388-4.46-3.094-7.52-7.36-9.686-12.293-3.515-8.014-4.372-16.412-3.95-25.2-.09-.08-.18-.157-.27-.24-.674-.634-1.32-1.323-2.072-1.854-.94-.664-1.838-.455-2.307.387-.497.89-.145 2.11.9 2.36.86.21 1.83-.022 2.72-.058-.15.953-.736 1.596-1.74 1.727-1.37.176-2.973-.734-3.49-1.982-.61-1.465-.115-2.684 1.605-4.006-.926-1.594-1.848-3.184-2.793-4.807 2.374-.35 4.292.45 5.622 2.672.71-.854 1.473-1.45 2.527-.86.715.4.854 1.065.713 1.616-.676 0-1.416-.218-1.727.054-.404.357-.527 1.088-.652 1.684-.057.273.113.64.275.904.76 1.26 1.856 2.09 3.317 2.334 1.8.303 3.363-.94 3.52-2.766.13-1.498-.556-2.627-1.722-3.488-.39-.29-.832-.514-1.314-.803 2.61-.18 4.8 1.483 5.01 3.73a4.94 4.94 0 0 1-.185 1.876 193.14 193.14 0 0 0 4.248-1.78c2.627-1.138 5.29-2.056 8.014-2.692-1.385-.022-2.732-.3-3.98-1.075-.6-.375-1.126-.918-1.58-1.473-.454-.55-.427-1.297-.093-1.75.336-.455 1.084-.633 1.768-.408.16.053.312.13.372.158-.373.416-1.066.89-.998 1.178.14.576.602 1.182 1.098 1.547 1.25.92 2.76 1.148 4.248.936 1.63-.23 3.227-.69 4.834-1.06.09-.02.168-.093.346-.196-.54-.107-.98-.158-1.4-.285-.725-.22-1.352-.594-1.545-1.402-.19-.793.166-1.438.78-1.844 1.433-.948 2.93-1.794 4.378-2.718 1.355-.865 2.713-1.734 4.006-2.688.73-.54 1.223-1.322 1.42-2.248.16-.736-.053-1.215-.62-1.326-.68-.137-1.257.307-1.347 1.037-.014.105-.02.213-.035.387-.56-.3-.674-.8-.69-1.3-.02-.587.2-1.095.726-1.425 1.2-.755 2.813.1 2.975 1.562.11.975-.21 1.82-.73 2.61-1 1.522-2.4 2.632-3.837 3.7-1.086.807-2.195 1.588-3.29 2.387-.24.177-.51.347-.685.58-.238.325-.4.708-.596 1.065.4.206.786.542 1.204.585.582.065 1.242.044 1.775-.17 1.887-.765 3.736-1.626 5.5-2.407-.273-.457-.604-.826-.71-1.252-.07-.276.185-.634.294-.956.06.014.123.025.184.04.027.067.07.134.082.206.16 1.043.708 1.434 1.712 1.16.932-.256 1.848-.572 2.775-.836 1.46-.414 3.055-.785 5.414-.133-.47-.612-.853-1.134-1.262-1.636-1.494-1.84-2.97-3.692-3.91-5.892a5.63 5.63 0 0 1-.44-1.73c-.083-1.028.868-1.694 1.812-1.267.493.228.915.626 1.33.99.257.223.454.52.657.795.28.38.54.77.81 1.16-.038.04-.075.076-.114.115-.336-.32-.666-.647-1.012-.956-.303-.27-.607-.543-.945-.77-.105-.07-.36-.047-.46.037-.095.08-.144.32-.1.45.558 1.54 1.362 2.92 2.657 3.97.15.117.33.2.505.283.625.297 1.207.21 1.75-.215.514-.4.568-.94.457-1.516-.46-2.354-3.262-5.112-5.625-5.52-1.065-.184-2 .133-2.804.844-.158.14-.31.29-.496.463.41-2.106 2.54-3.175 4.662-2.37 1.896.72 3.313 2.043 4.48 3.662l.397.56c.007-2.888-3.503-6.052-6.09-5.573.47-.82 2.185-.946 3.187-.32.97.6 1.842 1.354 2.715 2.01.15-.745.27-1.636.523-2.485.303-1.033.855-1.94 1.922-2.354.264-.102.67-.057.92.08 1.3.725 1.77 1.984 2.02 3.354.093.506.128 1.02.2 1.625 1.672-1.698 3.3-3.48 5.957-2.007-1.652-.24-2.934.502-4.037 1.615-1.086 1.098-1.86 2.38-2.117 3.88.883-.913 1.693-1.93 2.686-2.716.805-.636 1.78-1.163 2.764-1.442 1.97-.56 3.506.406 4.19 2.492-.165-.137-.276-.22-.376-.313-1.063-1.02-2.31-1.35-3.684-.815-2.402.936-4.02 2.668-4.852 5.105-.287.842-.105 1.37.457 1.79.613.452 1.268.487 1.98 0 1.466-1.003 2.272-2.49 2.87-4.108.143-.387-.152-.652-.53-.482-.265.12-.495.33-.716.53-.423.386-.827.79-1.3 1.132.615-1.104 1.29-2.156 2.38-2.852.535-.34 1.096-.33 1.643.01.527.326.652.87.48 1.357-.404 1.145-.78 2.342-1.424 3.352-1.075 1.68-2.35 3.23-3.54 4.833-.188.253-.367.505-.65.896 2.52-.855 4.736-.167 6.953.563.285.094.572.19.86.268 1.435.396 1.858.146 2.185-1.28.818.637.717 1.33-.37 2.06.478.226.91.437 1.347.636 1.37.62 2.713 1.313 4.123 1.818.695.25 1.518.214 2.277.185.297-.013.717-.3.826-.567.083-.206-.153-.67-.38-.855-1.12-.902-2.28-1.758-3.44-2.613-1.54-1.14-3.09-2.27-4.26-3.816-.65-.86-1.124-1.786-1.026-2.91.12-1.394 1.402-2.286 2.65-1.843.604.217.96.652 1.03 1.285.07.612-.038 1.18-.44 1.48-.33-.43-.57-.903-.955-1.18-.22-.157-.77-.11-.995.067-.223.18-.383.687-.293.96.216.656.5 1.34.927 1.875 1.093 1.375 2.64 2.18 4.134 3.033 1.307.748 2.615 1.49 3.912 2.252.313.184.594.428.865.67.555.492.97 1.06.764 1.857-.205.805-.828 1.178-1.555 1.396-.407.122-.837.165-1.306.374.543.182 1.078.395 1.63.54 2.007.536 4.024.954 6.106.42 1.026-.263 1.942-.73 2.51-1.653.47-.76.37-.958-.42-1.417-.142-.082-.278-.176-.42-.264.708-.52 1.505-.524 2.044-.02.45.425.51 1.228.04 1.9-.313.45-.7.89-1.147 1.2-1.04.725-2.184 1.113-3.396 1.262 2.838.64 5.613 1.59 8.346 2.77a205.46 205.46 0 0 0 3.752 1.587 4.91 4.91 0 0 1-.13-1.683c.206-2.247 2.394-3.91 5.005-3.73-.48.29-.922.51-1.313.802-1.17.86-1.855 1.99-1.726 3.488.096 1.11.715 1.996 1.586 2.46a7.6 7.6 0 0 0 1.283.35 3.21 3.21 0 0 0 .652-.044c1.46-.244 2.56-1.074 3.32-2.334.16-.266.332-.63.273-.904-.125-.596-.246-1.326-.652-1.684-.31-.27-1.05-.055-1.727-.055-.143-.55-.004-1.216.71-1.616 1.056-.59 1.817.006 2.528.86 1.33-2.222 3.247-3.022 5.62-2.675l-2.793 4.806c1.72 1.324 2.217 2.543 1.608 4.008zm-79.078-7.2a31.943 31.943 0 0 1 4.375.005c2.14.156 4.254.432 6.342.824a3.415 3.415 0 0 0-.828 1.416c-.2.656-.27 1.334-.363 2.01-.06.45-.12.898-.225 1.338-.21.898-.73 1.568-1.582 1.95a3.164 3.164 0 0 1-1.3.28c-.048 0-.1.008-.145.012.295.176.584.34.908.422.115.03.234.055.355.068.594.063 1.166-.057 1.72-.262.384-.143.688-.395.927-.727.183-.252.312-.53.403-.828.018-.06.04-.12.07-.204.037.05.063.074.078.104.23.452.598.747 1.068.93.406.155.61.47.668.892.01.082.012.164.02.285.218-.262.388-.508.446-.813.056-.29-.04-.52-.274-.7-.047-.034-.09-.07-.123-.095.06-.15.12-.277.16-.41s.01-.264-.072-.377c-.138-.19-.45-.295-.663-.225-.22.073-.38.315-.373.567 0 .05.004.104.006.16-.355-.066-.83-.697-.775-1.03.254.1.51.194.787.18s.514-.124.703-.327c.188-.203.305-.44.393-.732-.073.027-.11.04-.145.057-.3.125-.584.107-.83-.115-.246-.225-.34-.506-.246-.836a3.71 3.71 0 0 0 .063-.246c.08-.354.166-.705.16-1.072-.01-.48-.414-.727-.846-.516-.043.02-.082.05-.125.072-.03.014-.064.02-.124.04.09-.2.19-.354.307-.5.2-.257.426-.458.684-.605.372.076.743.166 1.114.25-.03.21-.047.418-.045.627.003.553.116 1.09.245 1.625.156.65.334 1.298.463 1.954a5.55 5.55 0 0 1-.297 3.2c-.02.05-.035.1-.05.148.77-.538 1.34-1.224 1.657-2.147.525.704 1.24 1.048 2.053 1.27.095-.17.185-.33.284-.51l-.152-.086a3.614 3.614 0 0 1-1.383-1.424c-.145-.264-.246-.54-.254-.842-.008-.352-.01-.7-.023-1.05a8.714 8.714 0 0 0-.04-.706 1.273 1.273 0 0 0-.23-.64c-.38-.522-1.05-.52-1.418 0-.018.028-.043.054-.088.106-.053-.14-.107-.252-.14-.37-.1-.34-.097-.69-.062-1.036.79.19 1.576.402 2.357.63.03.05.07.09.1.142.053.094.092.195.137.29-.144.155-.265.304-.31.5-.1.42.22.864.65.895.344.023.607-.19.67-.55.02-.124.03-.25.045-.394.12.09.22.174.328.242.11.07.23.124.357.192.054-.195.093-.365.147-.527a.237.237 0 0 0 .016-.107l.09.03c-.2.585-.28 1.196-.285 1.823 0 .04.012.082.018.123h.518c.014-.055.03-.105.043-.158.146-.52.348-1.02.64-1.473.263.094.524.178.788.258-.273-.028-.54-.06-.82-.09-.06.114-.123.24-.19.376.42.076.815.092 1.222.076l.016-.287c.04.012.078.025.117.035a.5.5 0 0 0 .074.447.89.89 0 0 0 .645.357c.23.02.38-.068.477-.277.02-.047.04-.096.072-.162.034.05.063.076.083.11.145.27.234.558.238.864.01.836-.33 1.53-.903 2.12-.053.054-.123.095-.188.14-.128.086-.257.17-.39.26.053.07.102.12.146.18.03.035.057.076.094.127.288-.18.52-.363.714-.588.662-.77 1.045-1.63.855-2.675a2.992 2.992 0 0 0-.143-.51c.285.05.568.1.852.133a3.312 3.312 0 0 0-.18 1.962c.27 1.27 1.097 2.123 2.27 2.61.933.386 1.76.09 2.48-.57.006-.005.008-.02.016-.044l-.416-.217a4.005 4.005 0 0 1-.167.137 1.755 1.755 0 0 1-1.416.35c-.89-.158-1.86-.924-2.205-1.793-.336-.842-.318-1.645.012-2.402.25.023.5.055.75.064.135-.006.27-.025.404-.035l.006.01c.443 1.12.326 2.165-.475 3.1-.02.02-.037.044-.066.08l.273.247c.025-.014.03-.014.035-.02.816-.926 1.107-1.975.736-3.174-.03-.096-.07-.184-.108-.277.246-.023.49-.05.736-.084-.145.38-.2.78-.148 1.19.13 1.056.662 1.895 1.563 2.472a3.78 3.78 0 0 0 2.737.56c.103-.017.206-.038.323-.06l-.238-.434c-.05.015-.098.024-.145.036-.39.1-.785.117-1.184.055-.56-.09-1.057-.326-1.523-.635a2.024 2.024 0 0 1-.45-.39 3.21 3.21 0 0 1-.622-1.175c-.15-.538-.136-1.064.124-1.57.02-.038.05-.083.082-.136l.033-.006c.026.066.05.12.07.166.09.182.23.275.435.264a.89.89 0 0 0 .67-.348.517.517 0 0 0 .115-.365c.03-.008.06-.014.092-.02l.01.17c.03.005.054.01.077.01.48.013.953-.022 1.422-.126.487-.11.95-.27 1.327-.62.01-.01.033 0 .064 0 0 .087-.005.17.003.255.012.088.03.178.063.262.112.307.41.46.728.385a.733.733 0 0 0 .47-1.072c-.058-.11-.144-.206-.22-.315.033-.094.082-.178.13-.264a47.86 47.86 0 0 1 2.464-.684c.033.375.012.746-.127 1.104-.022.062-.034.138-.114.173-.043-.06-.08-.115-.12-.166a.74.74 0 0 0-.856-.262c-.318.105-.55.31-.643.635-.06.227-.1.46-.112.693-.025.447-.025.895-.03 1.34-.003.33-.1.63-.255.914a3.6 3.6 0 0 1-1.367 1.416c-.05.03-.102.06-.168.104.1.174.19.338.285.502.33-.084.62-.193.904-.33a2.96 2.96 0 0 0 1.145-.947c.32.938.894 1.62 1.645 2.162a.114.114 0 0 0-.004-.074c-.476-1.14-.552-2.315-.286-3.513.13-.59.285-1.174.43-1.758.15-.62.268-1.24.234-1.88-.005-.08-.017-.164-.026-.246.398-.094.8-.182 1.2-.268.364.232.645.56.86.967.006.014 0 .033 0 .068-.102-.05-.188-.1-.28-.14-.306-.13-.548-.047-.702.244a.7.7 0 0 0-.076.273c-.006.143 0 .29.025.432.06.32.133.64.205.954.074.322-.03.586-.268.797-.23.206-.496.23-.78.126-.054-.018-.106-.043-.167-.068.05.28.218.585.435.784a.95.95 0 0 0 .814.262c.176-.027.35-.092.52-.14.038-.01.077-.015.12-.024-.08.48-.477.98-.807 1.018.004-.053.012-.105.012-.156.01-.31-.232-.584-.52-.592-.447-.016-.717.373-.543.787.035.08.078.157.12.24-.058.046-.11.085-.16.126-.17.137-.272.314-.263.533.017.364.21.65.45.937.01-.04.02-.06.02-.074.01-.544.24-.933.77-1.128.422-.158.736-.447.953-.848.023-.043.055-.084.102-.152.05.145.084.258.125.37.292.792.823 1.323 1.66 1.52.063.015.128.034.192.048.45.1.904.152 1.363.057.342-.07.646-.23.953-.384.035-.016.064-.04.098-.06-.086-.026-.162-.024-.238-.026-1.088-.035-2.408-.598-2.81-2.258-.146-.6-.196-1.216-.276-1.825-.07-.533-.154-1.063-.324-1.576a3.443 3.443 0 0 0-.725-1.27c2.2-.43 4.428-.724 6.684-.89a32.12 32.12 0 0 1 2.768-.064 33.118 33.118 0 0 1-3.04-1.08c-3.144-1.286-6.224-2.722-9.358-4.024a19.03 19.03 0 0 0-3.447-1.035c-1.373-.278-2.645-.128-3.385 1.69-.33.812-.793 1.577-.715 2.51.06.726.453 1 1.135.726.7-.28.998-.908 1.273-1.545.07-.163.113-.34.213-.636.443 1.135.348 2.06-.346 2.89-.617.74-1.883 1.097-2.766.798-.68-.23-1.11-.682-1.307-1.39-.466-1.655-.12-3.21.61-4.687.494-.996 1.125-1.922 1.71-2.91-.32-.37-.81-.734-1.02-1.22-.615-1.4-1.232-2.82-1.617-4.294-.184-.703.064-1.57.277-2.318.476-1.658.222-3.234-.372-4.785-.084-.22-.398-.492-.598-.484-.203.006-.492.29-.576.516-.582 1.58-.883 3.19-.295 4.84.412 1.163.455 2.345-.023 3.468-.646 1.52-.967 3.24-2.387 4.188.692 1.264 1.417 2.408 1.962 3.635.557 1.25.793 2.593.395 3.964-.252.857-.78 1.447-1.7 1.545-1.08.11-2.005-.21-2.632-1.15-.51-.768-.516-1.58-.158-2.57.186.45.26.793.45 1.053.302.404.626.838 1.04 1.102.59.377 1.146.04 1.145-.664-.006-1.41-.566-2.657-1.432-3.72-.55-.674-1.467-.773-2.277-.6-1.295.285-2.607.594-3.828 1.094-2.885 1.178-5.707 2.506-8.578 3.72a35.105 35.105 0 0 1-4.08 1.438zm33.69 15.655c-.003.322-.042.645-.067.984l.494.033c.033-.164.068-.31.09-.457.088-.574.033-1.146-.092-1.707-.135-.597-.29-1.185-.436-1.776-.146-.6-.258-1.203-.25-1.824.006-.62.115-1.212.436-1.753.004-.006-.002-.02-.008-.05-.84.28-1.396.823-1.627 1.704-.043-.037-.066-.055-.084-.076-.297-.396-.69-.67-1.133-.877a5.57 5.57 0 0 0-1.45-.436c-.59-.1-1.177-.136-1.76.028-.17.05-.34.104-.532.162.1.118.178.214.258.312.027.004.033.006.04.006l.226-.064c.467-.127.94-.152 1.414-.033 1.064.268 1.805.934 2.29 1.9.114.23.175.475.18.734.003.324.007.652.02.977.01.26.02.52.048.776.02.213.09.414.215.59.377.53 1.055.53 1.426.002.02-.027.045-.05.078-.084.174.3.23.614.223.934zm-6.493 1.12c.053-.022.09-.042.127-.056.736-.254 1.26-.744 1.606-1.434.377-.76.502-1.57.49-2.408 0-.02-.014-.04-.02-.057h-.51c-.03.103-.053.196-.08.29-.193.64-.46 1.244-.902 1.758a2.217 2.217 0 0 1-1.162.73c-.448.11-.9.172-1.362.102-.557-.085-1.018-.358-1.428-.735a8.55 8.55 0 0 0-.16-.146l-.252.275c.043.05.074.086.107.12.39.437.793.862 1.164 1.315.316.388.627.786.887 1.212.486.8.596 1.66.27 2.557-.185.512-.5.945-.868 1.342-.235.252-.47.504-.69.77-.33.404-.593.852-.765 1.348-.086.247-.156.495-.113.763.015.07-.005.143-.007.217-.002.066-.006.133.004.197.06.36.16.707.36 1.016a.73.73 0 0 1 .123.43c-.02.44-.235.783-.532 1.117a2.043 2.043 0 0 1-.483-.813.912.912 0 0 1 .1-.78 2.62 2.62 0 0 0 .207-.442c.114-.297.13-.605.138-.922a2.397 2.397 0 0 0-.2-.984 3.8 3.8 0 0 0-.146-.313c-.29-.56-.676-1.043-1.115-1.488a4.47 4.47 0 0 1-.81-1.064c-.32-.615-.432-1.264-.297-1.947a3.39 3.39 0 0 1 .593-1.33c.59-.837 1.27-1.597 1.98-2.33a5.05 5.05 0 0 0 .855-1.165c.263-.498.427-1.025.44-1.592.015-.734-.228-1.387-.66-1.97-.08-.108-.165-.208-.257-.32-.104.097-.195.18-.285.267l.07.09c.71.823.887 1.763.57 2.792-.28.918-.867 1.62-1.658 2.152a2.466 2.466 0 0 1-.47.232c-.5.197-1.015.193-1.532.084a3.734 3.734 0 0 1-.738-.23c-.387-.167-.67-.468-.912-.806-.36-.502-.588-1.066-.752-1.656a1.957 1.957 0 0 0-.045-.145h-.517c-.003.047-.01.082-.01.117.006.72.1 1.42.377 2.088.344.822.9 1.422 1.764 1.707.026.008.048.03.08.05l-.093.165a3.663 3.663 0 0 0-.497 1.555c-.062.813.196 1.52.706 2.148.224.277.485.52.767.74.596.467 1.162.963 1.658 1.537.28.32.525.662.72 1.04.192.364.2.74.09 1.124a.927.927 0 0 1-.165.318c-.2.258-.62.344-.88.19.032-.03.064-.058.095-.085A.457.457 0 0 0 61.88 69a.582.582 0 0 0-.526-.55 1.168 1.168 0 0 0-.343.005c-.38.064-.597.338-.59.725.01.347.167.608.456.796.2.133.42.207.654.25.1.018.2.033.3.05-.022.147-.048.284-.056.42-.02.366.086.704.236 1.032.244.53.59.994.984 1.424.016.016.04.025.064.043.1-.115.197-.22.29-.332.34-.42.638-.863.83-1.375.104-.287.16-.58.13-.887-.01-.105-.033-.21-.05-.307.015-.014.02-.02.024-.02.035-.007.07-.01.107-.017.312-.047.612-.125.876-.314a.94.94 0 0 0 .404-.806.632.632 0 0 0-.398-.615.953.953 0 0 0-.602-.064c-.244.05-.383.213-.445.45-.06.224 0 .4.185.542.02.014.03.045.043.072-.525.15-.932-.08-1.06-.597-.09-.37-.07-.727.112-1.072.205-.387.46-.736.748-1.064.486-.557 1.04-1.043 1.62-1.498.345-.27.657-.568.913-.926.4-.558.603-1.175.573-1.866-.026-.592-.21-1.135-.5-1.648l-.1-.18zM53.016 55.38c-.047.515-.164 1.015-.29 1.51-.18.708-.394 1.41-.472 2.138-.053.508-.045 1.012.104 1.516.262.02.38.01.508-.053-.104-.63-.182-1.262.143-1.89.055.077.092.13.13.18.226.292.54.384.886.265.322-.11.543-.324.63-.648.062-.232.1-.473.11-.713.02-.367.018-.736.012-1.105a2.305 2.305 0 0 1 .47-1.437c.158-.213.328-.42.52-.602.674-.632 1.47-.966 2.406-.874.266.027.53.104.81.16l.24-.29c-.022-.017-.036-.032-.052-.038-.455-.166-.924-.285-1.412-.27a6.184 6.184 0 0 0-1.965.378c-.588.22-1.11.533-1.492 1.045-.014.017-.04.02-.072.04a2.288 2.288 0 0 0-.32-.754 2.292 2.292 0 0 0-.58-.59c-.28-.195-.576-.322-.713-.313.078.186.172.37.238.56.203.582.214 1.185.16 1.79zm1.07-3.22a1.97 1.97 0 0 1-.01.117c-.387.04-.746.11-1.008.434.29.3.627.356 1.014.264 0 .143-.008.262.002.38.018.245.158.388.4.413a.876.876 0 0 0 .217-.002c.447-.06.647-.506.398-.883-.02-.032-.035-.067-.068-.134.15.008.272-.002.386.023.375.084.652.328.902.594.11-.027.207-.05.316-.078-.166-.27-.387-.457-.62-.66.036-.023.058-.035.077-.05.365-.276.625-.638.82-1.044a5.32 5.32 0 0 0 .47-1.57c.026-.163.065-.327.038-.51l-.38.02c-.007.054-.013.083-.015.112-.05.34-.086.682-.154 1.018-.083.404-.216.795-.448 1.14-.24.354-.552.62-.972.74a.658.658 0 0 1-.416-.003c.03-.044.047-.073.066-.103a.58.58 0 0 0-.01-.678c-.148-.187-.48-.267-.732-.177-.2.073-.285.23-.28.53.004.038.01.075.01.11zm5.477-2.47a.958.958 0 0 1 .105-.07c.238-.146.484-.173.734-.026.025.016.05.025.113.055-.13-.303-.254-.563-.492-.74a.81.81 0 0 0-1.02-.01c-.138.103-.245.246-.364.373-.037.04-.065.084-.107.145-.05-.064-.092-.112-.133-.163a1.94 1.94 0 0 0-.493-.475c-.355-.22-.715-.23-1.068.006-.273.18-.473.432-.645.703-.066.104-.123.213-.19.33.226-.107.427-.217.638-.295.313-.115.63-.193.97-.104.37.097.65.276.784.65.086.243.188.483.295.72a3.21 3.21 0 0 0 1.402 1.512c.357.193.742.29 1.15.262.682-.05 1.23-.39 1.73-.836l-.285-.296a3.95 3.95 0 0 0-.157.11 2.84 2.84 0 0 1-.746.4c-.602.21-1.176.175-1.71-.196a2.568 2.568 0 0 1-.77-.852c-.27-.48-.183-.875.255-1.207zm1.273 7.746c-.03.055-.064.107-.113.188-.033-.076-.05-.12-.07-.16-.104-.23-.252-.318-.504-.29a.877.877 0 0 0-.627.356.507.507 0 0 0-.102.41.75.75 0 0 0 .62.582c.365.043.645-.113.867-.387.426-.52.563-1.145.498-1.785-.104-1.07-.654-1.898-1.54-2.502-.015-.008-.034-.008-.065-.014l-.245.28c.145.095.275.17.393.263.133.104.266.21.375.336.275.318.475.684.6 1.086.175.553.177 1.1-.087 1.635zm.06.837l.965 1.006.29-.174a5.905 5.905 0 0 0-1.056-1.096c-.077.103-.14.19-.197.263zm1.625-4.568l.158.115c.104-.1.197-.193.29-.283a3.22 3.22 0 0 0-.942-.645c-.676-.3-1.34-.27-1.982.092a3.17 3.17 0 0 0-1.346 1.473c-.115.25-.22.508-.32.766-.145.385-.44.56-.824.615-.5.072-.953-.07-1.38-.322a6.362 6.362 0 0 0-.147-.082c.045.125.104.232.17.332.15.242.33.46.55.643a.95.95 0 0 0 1.233.012c.155-.13.29-.287.433-.434.04-.042.076-.09.123-.147.04.06.068.105.105.144.12.127.227.27.363.375.293.227.615.23.934.05.3-.17.43-.47.582-.8-.09.04-.134.066-.18.088a.646.646 0 0 1-.495.026c-.61-.203-.846-.785-.545-1.348a.774.774 0 0 1 .044-.08c.184-.287.404-.543.678-.746a1.747 1.747 0 0 1 1.4-.334c.408.07.766.25 1.1.487zm-3.205 4.016c-.406-.01-.805 0-1.223.084l.198.37c.363-.04.703-.075 1.047-.114-.007-.1-.013-.208-.02-.34zm-2.28-1.95l.397.024a5.744 5.744 0 0 0-.464-1.924c-.1.042-.188.08-.297.124.22.58.315 1.166.364 1.774zm1.93-4.357c-.642.232-1.28.266-1.94.066l-.234.437c.843.193 1.647.154 2.444-.186-.1-.114-.184-.215-.27-.317zm-6.52 2.096c-.077-.194-.202-.368-.31-.55-.02-.03-.055-.05-.086-.076-.01.02-.015.027-.015.03v.056c-.01.522-.236.9-.738 1.09a1.79 1.79 0 0 0-.984.864c-.023.043-.055.08-.094.137-.085-.22-.15-.414-.23-.6-.27-.594-.71-1.01-1.34-1.215a4.635 4.635 0 0 0-.4-.11c-.464-.103-.93-.157-1.4-.052-.368.08-.694.256-1.02.447.09.02.18.015.267.02 1.06.042 2.37.593 2.775 2.253.126.523.183 1.057.247 1.59.067.545.14 1.09.292 1.62.164.563.406 1.087.826 1.51.672.677 1.512.987 2.443 1.032 1.2.055 2.3-.283 3.295-.965.043-.03.088-.055.135-.084.304.232.62.416 1.01.408.366-.006.765-.254.886-.557-.102-.04-.2-.078-.303-.12a1.77 1.77 0 0 1-.55-.34.57.57 0 0 1-.18-.59c.05-.192.144-.356.265-.51.03-.038.07-.097.063-.136-.045-.195-.105-.39-.164-.594-.266.09-.473.252-.695.436-.005-.087-.003-.142-.01-.194-.02-.123-.03-.254-.073-.37a.6.6 0 0 0-.72-.374.733.733 0 0 0-.48 1.068c.06.11.146.205.23.324-.037.08-.074.176-.123.264-.275.492-.686.836-1.193 1.07-.62.29-1.29.37-1.96.348-.887-.03-1.49-.527-1.902-1.28-.01-.02-.014-.042-.03-.093l.132.055c.1.043.194.1.296.127a.44.44 0 0 0 .45-.117c.126-.13.214-.28.206-.467-.006-.12-.004-.243-.025-.36a32.164 32.164 0 0 0-.21-.99.783.783 0 0 1 .26-.8c.23-.212.505-.24.794-.128.05.018.098.035.15.057-.027-.282-.25-.655-.496-.845a.974.974 0 0 0-.588-.203 1.554 1.554 0 0 0-.617.125c-.054.02-.108.036-.17.056.034-.436.448-.97.788-1.03 0 .06-.002.118 0 .177.01.243.117.43.34.534.195.09.48.02.65-.154.166-.17.162-.367.078-.57-.035-.09-.082-.172-.127-.264.03-.026.06-.05.087-.07.318-.24.418-.52.27-.89zm12.548 3.175c-.03-.855.313-1.56.89-2.162.046-.047.105-.084.157-.12.15-.1.3-.198.466-.31a31.235 31.235 0 0 1-.262-.293 2.795 2.795 0 0 0-.682.546c-.705.79-1.11 1.678-.896 2.764.072.36.188.7.418.99.146.186.324.324.55.395a.752.752 0 0 0 .923-.408.514.514 0 0 0-.057-.563.876.876 0 0 0-.664-.355c-.213-.018-.36.08-.45.27a5.54 5.54 0 0 0-.077.17c-.035-.043-.06-.068-.078-.1a1.82 1.82 0 0 1-.24-.827zM63.93 59.11c.115.065.207.12.29.17.317-.333.624-.653.94-.983-.064-.074-.136-.16-.214-.254-.385.318-.72.666-1.016 1.066zm-.668 2.03c.127-.448.346-.85.564-1.253l-.242-.27c-.078.148-.15.27-.21.4-.064.13-.114.268-.175.398-.06.125-.068.273-.178.412-.143-.43-.29-.826-.535-1.203l-.234.27c.232.408.44.807.566 1.252-.435.145-.716.445-.937.82a.702.702 0 0 1-.213.22c-.16.106-.33.196-.5.284-.095.05-.196.082-.302.127.13.207.297.36.508.463.213.105.436.115.688.066a2.75 2.75 0 0 0 .974 2.537c.28-.23.492-.492.66-.79.3-.538.396-1.116.322-1.745.535.104.902-.117 1.19-.523-.204-.094-.397-.176-.585-.27a1.154 1.154 0 0 1-.504-.48 1.598 1.598 0 0 0-.582-.586c-.082-.05-.178-.087-.275-.13zm.623 3.567l-.13.254c.306.164.6.318.895.477l.184-.21c-.33-.18-.637-.347-.95-.52zm-1.688 0l-.95.52.183.208.896-.475c-.045-.09-.082-.163-.13-.253zm5.584-6.525c.07-.117.156-.23.184-.38-.42-.073-.83-.1-1.25-.077l-.02.332 1.088.125zm1.58-1.8c.28-.23.48-.522.658-.835.018-.03.027-.068.053-.133-.05.03-.07.043-.09.057-.343.23-.724.354-1.134.39-.557.046-.96-.196-1.172-.706-.098-.234-.188-.473-.295-.703a3.085 3.085 0 0 0-1.274-1.415c-.676-.39-1.37-.424-2.084-.11-.526.235-.962.597-1.343 1.024-.524.587-.82 1.272-.847 2.065a3.6 3.6 0 0 0 .78 2.393c.043.055.094.104.146.162.09-.103.163-.19.25-.286-.032-.04-.056-.068-.077-.098-.66-.846-.855-1.795-.596-2.83.277-1.117 1.438-1.94 2.184-2.11.536-.124 1.034-.052 1.485.267.31.217.56.496.752.822.328.56.16 1.002-.38 1.326l-.015.01a.662.662 0 0 1-.675 0c-.027-.014-.057-.025-.1-.047.076.254.24.525.4.676.29.27.703.312 1.037.103.166-.105.297-.246.41-.404.033-.05.066-.097.11-.16.05.064.083.114.124.155.152.154.297.32.465.455a.877.877 0 0 0 .716.188c.2-.034.364-.13.514-.255zm-.36-.606c.04-.623.146-1.21.357-1.783-.107-.043-.197-.078-.297-.12a5.956 5.956 0 0 0-.467 1.903H69zm.994-3.138c-.11.104-.22.195-.32.3-.098.103-.184.218-.29.347l.32.076c.624-.55.938-.692 1.28-.567l-.074.12a.586.586 0 0 0 .04.66c.153.183.49.257.735.16.19-.07.275-.24.268-.522 0-.036-.005-.07-.005-.106-.002-.04 0-.078 0-.127.39.088.73.037 1.012-.266-.27-.33-.643-.394-1.02-.437.005-.086.013-.158.015-.23.008-.405-.19-.59-.596-.55a.67.67 0 0 0-.09.014c-.395.092-.565.5-.354.85.023.037.047.076.078.13-.06.01-.1.022-.14.022-.238.015-.45-.07-.648-.19-.385-.238-.643-.578-.814-.99a5.094 5.094 0 0 1-.334-1.31c-.023-.18-.04-.358-.064-.55h-.385c-.007.023-.015.04-.013.055.063.666.2 1.31.482 1.922.202.445.474.84.87 1.137.02.013.03.034.046.054zm-3.097-2.045c-.04.13-.107.254-.166.38-.025.052-.063.1-.105.17l.445.198a3.67 3.67 0 0 0 .423-.78c.084-.2.158-.406.25-.6.053-.107.117-.223.21-.293.302-.232.65-.338 1.034-.262.36.07.713.182 1.018.402.014.008.033.008.076.02-.225-.416-.463-.79-.844-1.045-.354-.237-.732-.24-1.08.02-.186.14-.338.325-.504.49-.034.036-.067.077-.1.114-.122-.146-.228-.287-.35-.408a.844.844 0 0 0-.58-.268c-.472-.014-.95.408-1.017.906.035-.02.066-.04.098-.055a.65.65 0 0 1 .61-.014c.186.086.336.213.46.373.15.196.19.42.125.653zm1.564-2.047h.5c.045-.365-.014-1.04-.102-1.238l-.744.213.346 1.026zm-42.926 22.87c-.52-1.743-1.47-3.23-2.693-4.536-1.605-1.71-3.272-3.36-4.92-5.028-1.307-1.32-2.298-2.816-2.346-4.735a5.163 5.163 0 0 1 .37-2.02c.324-.8 1.33-1.252 2.052-.942.353.15.558.638.83.973-.32.11-.64.223-1.2.418-.263.44-.162 1.025.528 1.44.588.354 1.407.02 1.752-.663.534-1.052-.114-2.54-1.34-3.048-.26-.107-.536-.172-.806-.258l-1.673.38c-1.776 1.736-2.047 3.99-.787 6.614.154.32.507.63-.016.935.19.315.316.712.588.925.406.317.914.505 1.314.933-.237-.022-.494-.113-.706-.05-.307.092-.795.27-.82.46-.062.476.12.86.79.916 1.008.085 2.002.33 3.004.51l-.05.32c-.688-.02-1.378-.08-2.064-.04-1.11.06-1.325.392-1 1.444.094.293.256.564.404.886 1.683-.71 3.326-1.24 4.812-.152-1.146.233-2.422.354-3.598.767-1.327.464-1.447 1.454-.49 2.57 1.518-2.01 3.558-2.51 5.34-1.306 1.826 1.232 2.52 4.12 1.412 5.923-.676 1.096-1.682 1.628-2.956 1.55-1.097-.067-1.918-.614-2.364-1.646-.475-1.1-.01-2.348 1.033-2.82.957-.43 1.813.085 1.93 1.16-.028.008-.062.03-.084.023-.48-.153-1.034-.427-1.3.218-.106.26.065.907.24.964.454.146 1.085.24 1.457.027 1.096-.624.924-2.33-.24-3.11-1.594-1.068-3.843.057-4.163 2.08-.224 1.412.422 2.835 1.69 3.553 1.49.843 2.986.774 4.396-.195 1.665-1.147 2.298-3.34 1.673-5.444zm26.53 4.087S49.32 64.63 41.157 60.37c-8.16-4.26-18.648-.29-18.648-.29s1.824 12.633 9.986 16.89 19.566-1.468 19.566-1.468zM58.7 66.63c.046 0 .095.01.177.017a5.28 5.28 0 0 1-.127.11c-.256.21-.416.48-.482.806-.105.512.12.98.57 1.168.203.088.418.123.64.096.724-.094 1.24-.54 1.735-1.023a.816.816 0 0 0-.19.045c-.306.1-.616.12-.925.014-.303-.103-.48-.35-.46-.642.022-.28.103-.553.317-.75.2-.184.422-.344.633-.512.05-.04.105-.074.174-.123l-.23-.195c-.054-.053-.106-.057-.18-.027-.134.054-.27.1-.41.144-.323.1-.647.186-.99.2-.036 0-.073-.01-.114-.02.133-.25.137-.388.008-.587a1.15 1.15 0 0 0-.203-.227c-.115-.098-.25-.11-.393-.064-.3.1-.42.313-.342.62.018.062.047.123.066.186.012.037.018.074.027.113-.592.034-1.662-.388-1.9-.747l.184-.076c.232-.11.334-.283.316-.537-.01-.076-.017-.16-.046-.23-.08-.188-.176-.37-.262-.555-.06-.123-.13-.248-.166-.38a1.76 1.76 0 0 1-.035-.718 1.66 1.66 0 0 1 .23-.7c.184-.278.436-.41.77-.36.205.033.4.096.576.21.12.075.22.17.28.3.093.195.083.39-.015.602a1.364 1.364 0 0 1-.095-.09c-.223-.23-.445-.24-.682-.03a.61.61 0 0 0-.13.83c.122.186.323.27.57.205a.957.957 0 0 0 .356-.166c.51-.4.743-1.36.03-1.944a1.912 1.912 0 0 0-.88-.398c-.44-.09-.83.02-1.144.346a2.525 2.525 0 0 0-.354.48c-.233.406-.354.855-.433 1.316l-.038.203c-.033-.03-.055-.038-.06-.052-.07-.23-.226-.397-.41-.536a8.18 8.18 0 0 0-.655-.452 2.093 2.093 0 0 1-.807-.836c-.004-.01-.018-.014-.025-.02h-.52c.015.063.022.115.042.164.123.334.232.676.375.998.484 1.094 1.19 2.016 2.178 2.703 1.04.717 2.195 1.074 3.45 1.123zm9.54 14.1c-.11-.512-.547-1.05-.988-1.354-.195-.137-1.072.223-1.105.44-.074.472.197.997.324 1.503.02.062.023.13.04.244-.878.447-1.66.28-2.315-.416-.766-.814-.695-1.728-.256-2.692.82-1.807.536-2.95-.995-4.19-1.54 1.636-1.674 2.35-.846 4.31.122.295.24.607.272.922.167 1.645-1.36 2.697-2.882 2.002.012-.064.023-.13.04-.195.122-.506.382-1.035.306-1.51-.033-.21-.918-.553-1.115-.412-.436.31-.87.852-.97 1.365-.2 1.04.605 2.053 1.724 2.41 1.467.47 2.563-.197 3.498-1.223.384.326.704.678 1.093.92 1 .62 2.045.627 3.05.014.787-.48 1.326-1.21 1.127-2.14zm5.18-19.09h-.525c-.35.538-.385.565-.943.93a9.09 9.09 0 0 0-.615.446.976.976 0 0 0-.326.447c-.006.023-.03.04-.06.072-.017-.08-.026-.14-.042-.197-.072-.29-.137-.588-.23-.873a2.362 2.362 0 0 0-.5-.875c-.296-.324-.665-.475-1.104-.416-.303.04-.584.146-.84.314-.816.53-.678 1.504-.178 1.984.145.14.314.223.514.244.243.027.452-.1.546-.328a.645.645 0 0 0-.398-.85.38.38 0 0 0-.402.086c-.047.045-.082.102-.14.172-.16-.29-.128-.563.067-.77.168-.18.38-.27.615-.327.44-.11.754.03.96.436.19.38.216.787.16 1.2-.026.19-.1.358-.202.52-.148.228-.275.47-.293.75-.016.288.09.452.357.565.047.02.096.04.176.077a3.275 3.275 0 0 1-1.96.738c.034-.078.058-.127.07-.178.024-.104.062-.21.062-.316.004-.29-.33-.53-.61-.446-.343.098-.522.533-.35.844.005.013.003.032.005.077-.186-.023-.37-.03-.54-.074-.32-.08-.638-.183-.956-.28-.057-.016-.11-.045-.166.006-.08.07-.16.137-.252.215.068.05.117.08.164.118.198.148.397.295.587.455.226.193.33.457.37.744.05.38-.19.67-.6.753-.273.055-.54.025-.803-.063-.047-.016-.092-.027-.14-.04.42.45.878.823 1.476.983.202.057.405.063.612.025.523-.09.852-.48.848-1.01 0-.412-.168-.746-.47-1.02l-.153-.135c.074-.008.107-.014.14-.016.33-.035.665-.047.99-.105 1.31-.235 2.442-.815 3.372-1.77.823-.854 1.347-1.877 1.69-3 .01-.034.012-.07.02-.11zm.646-.185c1.336-.322 2.193-1.135 2.557-2.465.148-.54.22-1.098.295-1.654.064-.48.12-.96.22-1.43.278-1.313 1.15-2.123 2.474-2.326.193-.03.39-.033.586-.05a4.62 4.62 0 0 0-.568-.302 2.165 2.165 0 0 0-.695-.186c-.604-.06-1.18.06-1.736.27a1.985 1.985 0 0 0-.91.72 2.94 2.94 0 0 0-.41.847c-.018.05-.035.105-.063.186-.037-.05-.06-.066-.072-.092-.234-.467-.607-.766-1.092-.95-.36-.14-.56-.425-.637-.8-.02-.107-.027-.22-.04-.336-.202.19-.376.493-.43.73-.075.312.02.558.272.75.04.03.08.063.118.09-.055.13-.113.243-.152.36a.45.45 0 0 0 .055.416c.14.197.46.307.68.23.227-.08.387-.348.363-.61l-.008-.12c.365.084.826.695.78 1.037-.382-.15-.77-.28-1.17-.087-.4.19-.583.545-.72.975.066-.03.1-.043.133-.06.3-.13.593-.12.843.106.25.223.345.504.253.836a5.948 5.948 0 0 0-.05.19c-.093.376-.187.753-.173 1.144.014.465.4.705.822.51.05-.02.094-.05.143-.076.027-.014.06-.023.088-.035l.027.025c-.055.096-.107.195-.17.29-.346.524-.81.884-1.438 1.013-.27.056-.54.036-.813.02a4.283 4.283 0 0 1-1.084-.185c-.648-.205-1.186-.564-1.545-1.156-.063-.105-.11-.225-.16-.324.087-.12.17-.22.23-.328a.73.73 0 0 0-.347-1.022c-.363-.168-.754 0-.87.38-.036.114-.038.237-.056.356a7.602 7.602 0 0 0-.02.152c-.207-.172-.396-.328-.643-.41-.053.19-.096.373-.154.55-.03.087-.01.142.04.212.072.098.14.2.184.31.143.343.074.587-.217.815-.188.147-.4.245-.623.33-.053.02-.105.04-.162.064.342.52.87.678 1.398.45.182-.08.348-.19.54-.3l.13.086a5.207 5.207 0 0 0 1.633.763c.78.207 1.567.283 2.363.092zm29.873-1.375s-10.49-3.97-18.65.29C77.125 64.63 74.38 75.5 74.38 75.5s11.406 5.727 19.568 1.47c8.16-4.26 9.99-16.892 9.99-16.892zm7.27-.07c1.26-2.622.99-4.877-.787-6.614l-1.672-.38c-.27.087-.546.15-.806.26-1.225.507-1.873 1.995-1.34 3.047.346.683 1.165 1.017 1.753.663.69-.415.79-1 .527-1.44l-1.2-.418c.273-.335.48-.822.83-.973.722-.31 1.73.144 2.053.943.253.623.387 1.345.37 2.02-.048 1.918-1.04 3.413-2.345 4.734-1.648 1.67-3.315 3.32-4.922 5.027-1.223 1.303-2.173 2.79-2.692 4.535-.625 2.104.008 4.297 1.672 5.44 1.41.97 2.906 1.038 4.395.195 1.27-.717 1.915-2.14 1.69-3.554-.32-2.02-2.568-3.146-4.16-2.08-1.166.783-1.338 2.488-.242 3.11.372.212 1.003.118 1.456-.027.174-.06.346-.705.24-.966-.267-.645-.82-.37-1.3-.217-.02.008-.055-.016-.082-.023.115-1.075.97-1.59 1.928-1.16 1.044.473 1.508 1.72 1.033 2.82-.446 1.032-1.268 1.58-2.364 1.647-1.274.078-2.28-.454-2.956-1.55-1.106-1.803-.413-4.69 1.414-5.925 1.78-1.204 3.82-.704 5.338 1.306.958-1.115.838-2.105-.49-2.57-1.175-.41-2.45-.532-3.597-.766 1.485-1.09 3.13-.56 4.812.153.148-.32.31-.593.404-.886.327-1.052.11-1.384-1-1.444-.685-.037-1.374.023-2.063.042-.016-.107-.032-.216-.05-.323 1.003-.178 1.997-.424 3.006-.51.668-.057.85-.44.79-.918-.026-.19-.515-.368-.82-.46-.213-.063-.47.027-.707.05.4-.428.908-.615 1.314-.934.27-.213.395-.61.587-.925-.523-.3-.17-.612-.016-.93z"/>
</svg>