<?xml version="1.0" encoding="UTF-8" standalone="yes"?>
<svg xmlns="http://www.w3.org/2000/svg" viewBox="0 0 126 126">
  <path fill-rule="evenodd" clip-rule="evenodd" d="M103.973 63.023c6.344 0 12.2-2.053 14.91-3.168-3.426-1.104-4.29-3.61-4.328-3.73l-.213-.65.674-.105c3.848-.61 6.773-1.877 8.527-2.814-5.008-.332-9.836-3.986-10.05-4.148l-1.253-.96 1.576-.083a22.94 22.94 0 0 0 5.68-1.018l-9.268-2.07 2.94-.492c.622-.104 2.57-.922 4.255-1.678-2.643-.846-5.215-1.273-7.664-1.273-3.584 0-5.63.94-5.65.95l-.54.253-.24-.547a2.35 2.35 0 0 1 .04-2.03c.652-1.34 2.494-2.34 4.066-2.978a38.25 38.25 0 0 0-2.94-.11c-6.274 0-12.27 1.366-12.33 1.38l-.618.143-.09-.627c-.198-1.387.743-2.523 1.882-3.367-9.188 1.998-14.22 6.846-14.275 6.9l-.99.97V35.24c-4.596 2.676-9.354 9.758-9.404 9.834l-1.585 2.376.53-2.807c.192-1.02.403-2.082.58-2.955L63 46.877l-5.092-5.326c.113.897.273 2.023.475 3.088l.53 2.807-1.585-2.375c-.05-.077-4.81-7.16-9.404-9.835v6.533l-.99-.97c-.055-.056-5.088-4.903-14.275-6.9 1.137.845 2.08 1.98 1.88 3.368l-.09.627-.616-.143c-.06-.014-6.057-1.38-12.33-1.38-1.027 0-2.01.038-2.94.11 1.57.64 3.413 1.64 4.065 2.977.32.658.335 1.36.04 2.03l-.238.548-.54-.254c-.022-.01-2.07-.947-5.65-.947-2.45 0-5.022.428-7.665 1.273 1.684.756 3.633 1.574 4.254 1.678l2.94.492-9.266 2.07c1.3.414 3.262.89 5.68 1.018l1.576.084-1.253.96c-.213.16-5.04 3.815-10.05 4.147 1.755.938 4.68 2.205 8.528 2.814l.674.104-.215.65c-.04.12-.902 2.627-4.328 3.73 2.715 1.115 8.574 3.168 14.91 3.168.707 0 1.41-.024 2.092-.075l2.366-.176-2.016 1.25c-.15.094-3.503 2.15-9.29 3.87 1.63.673 4.734 1.642 9.127 1.642 1.66 0 3.387-.138 5.133-.41l1.914-.3-4.28 3.895c1.442-.172 3.925-.496 7.972-1.088l.633-.093.03.64c.005.12.093 2.688-2.58 5.015.53.047 1.19.084 1.95.084 5.19 0 14.59-1.7 19.287-13.072.053-.104.53-1 1.506-2.016-.098 13.045-.523 24.805 7.082 29.848l.002.066c.016-.01.027-.023.043-.033.017.01.028.022.044.032v-.066c7.633-5.06 7.176-16.88 7.082-29.98 1.008 1.073 1.46 2.04 1.5 2.13 4.703 11.39 14.105 13.09 19.293 13.09.76 0 1.42-.037 1.95-.084-2.673-2.326-2.587-4.895-2.58-5.016l.03-.64.635.093c4.047.59 6.527.915 7.97 1.087l-4.28-3.895 1.916.3c1.747.272 3.474.41 5.134.41 4.393 0 7.496-.968 9.13-1.642-5.79-1.72-9.142-3.775-9.294-3.87l-2.015-1.25 2.365.177c.68.053 1.386.078 2.093.078zM53.3 56.73c-.4 3.505-4.67 5.95-10.208 6.224-3.553 3.05-8.088 2.115-8.088 2.115 1.713-1.135 1.627-2.6 1.627-2.6-3.69.537-4.633.605-4.633.605l1.79-1.668c-.087-.035-.165-.072-.25-.107-4.618.603-7.185-1.022-7.185-1.022a23.582 23.582 0 0 0 3.372-1.182 12.12 12.12 0 0 1-1.01-.908c-3.512-.39-6.34-1.83-6.34-1.83 2.186-.297 2.65-1.797 2.65-1.797-3.207-.523-5.09-1.984-5.09-1.984 2.63.48 5.643-1.88 5.643-1.88-2.22-.13-3.648-.858-3.648-.858l3.903-.88c-.552-.095-2.73-1.134-2.73-1.134 4.448-1.676 7.183-.352 7.183-.352.627-1.5-2.977-2.45-2.977-2.45 3.77-.64 8.57.5 8.57.5.17-1.313-2.327-2.166-2.327-2.166 5.627.674 8.7 3.736 8.7 3.736l-.034-2.96c1.98.933 4.097 3.757 4.796 4.74.063.03.123.062.188.09-.208-1.038-.437-2.09-.437-2.09l3.03 3.198-.147.334c2.48 1.786 3.915 4.05 3.653 6.327zm6.278 20.83l-1.357-5.427 1.36-5.43s1.356 2.43 1.356 5.43c0 2.998-1.357 5.428-1.357 5.428zm7.067 0s-1.357-2.43-1.357-5.427c0-3 1.357-5.43 1.357-5.43L68 72.133l-1.355 5.428zm-3.42-26.423c.223 2.752.38 9.438.38 17.262 0 10.277-.27 18.61-.605 18.61s-.605-8.333-.605-18.612c0-7.825.156-14.51.38-17.263-5.798-.043-10.464-1.65-10.464-3.633 0-.146.037-.293.086-.436.63 1.787 5.063 3.174 10.47 3.197.044-.305.09-.48.136-.48s.09.176.134.48c5.408-.023 9.842-1.41 10.47-3.197.052.143.085.29.085.436 0 1.982-4.666 3.59-10.464 3.633zM92.463 61.3c-.084.036-.162.073-.248.108l1.79 1.668s-.942-.068-4.636-.607c0 0-.09 1.465 1.625 2.6 0 0-4.535.934-8.088-2.117-5.537-.273-9.81-2.72-10.21-6.225-.26-2.276 1.175-4.542 3.655-6.327l-.148-.333 3.03-3.2s-.228 1.053-.437 2.092c.063-.03.125-.06.188-.093.7-.982 2.818-3.807 4.797-4.738l-.035 2.96s3.074-3.065 8.7-3.738c0 0-2.495.854-2.327 2.166 0 0 4.804-1.14 8.573-.5 0 0-3.604.952-2.977 2.452 0 0 2.732-1.324 7.182.352 0 0-2.178 1.04-2.73 1.135l3.904.878s-1.428.73-3.648.857c0 0 3.012 2.36 5.643 1.88 0 0-1.883 1.462-5.092 1.987 0 0 .467 1.5 2.652 1.796 0 0-2.828 1.438-6.34 1.83-.31.312-.643.612-1.01.907.84.37 1.98.805 3.37 1.182 0-.003-2.565 1.622-7.184 1.02zm-29.33-11.034c.033.22.063.508.092.87-.076 0-.148.005-.225.005s-.15-.002-.225-.002c.027-.363.06-.652.09-.87h.268z"/>
</svg>