<?xml version="1.0" encoding="UTF-8" standalone="yes"?>
<svg xmlns="http://www.w3.org/2000/svg" viewBox="0 0 126 126">
  <path d="M37.046 75.326c.3-.334.413-.707.244-1.14a1.074 1.074 0 0 0-.97-.64c-.457.01-.638.336-.77.707-.14.385-.384.635-.834.67-.166-.372-.118-.634.233-.857.467-.307.55-.668.31-1.073-.194-.332-.508-.478-.87-.522-.363-.045-.71.176-.88.524-.16.33-.022.575.206.817.158.17.294.366.404.57.042.08-.015.216-.03.324-.104-.022-.25-.01-.308-.078-.17-.188-.294-.416-.458-.61-.205-.244-.403-.515-.66-.69-.265-.183-.588-.152-.835.102-.26.26-.43.546-.315.945.145.513.536.62.99.685.324.045.64.142.948.25.086.027.167.168.184.266.01.044-.138.162-.223.17-.286.023-.58.05-.862.01-.465-.064-.805-.004-.955.327-.118.255-.167.56-.165.843.006.552.576.968 1.088.782.485-.174.897-.448.975-1.044.024-.187.186-.355.288-.533.03.018.062.034.094.05.03.4.18.83-.303 1.11-.07.04-.11.15-.134.236-.087.334.148.834.474 1.03a.93.93 0 0 0 1.052-.104c.353-.303.375-.756.03-1.235-.26-.364-.305-.76-.308-1.192.5.058.62.22.66.817.04.625.785 1.073 1.36.812a.89.89 0 0 0 .51-.95.82.82 0 0 0-.777-.692c-.423-.03-.83-.086-1.207-.542.385.01.68-.005.97.035.312.04.606.09.844-.177z"/>
  <path d="M122.702 53.455a.954.954 0 0 0-.86-.746c-.734-.058-1.457-.023-2.178.013-.723.034-1.443.074-2.17-.004-4.68-.51-8.948-2.434-12.145-4.053-7.728-3.917-13.99-5.665-20.317-5.665-.933 0-1.877.04-2.806.12-3.565.308-8.17 1.06-12.156 4.16-4.17 3.245-6 7.686-7.07 11.423-1.073-3.738-2.904-8.178-7.073-11.422-3.985-3.102-8.59-3.854-12.156-4.16a32.86 32.86 0 0 0-2.805-.12c-6.325 0-12.59 1.747-20.316 5.664-3.197 1.62-7.465 3.543-12.144 4.052-.726.077-1.448.04-2.17.003-.723-.035-1.445-.07-2.18-.015a.952.952 0 0 0-.39 1.782c5.396 2.99 9.32 7.698 13.112 12.252a204.99 204.99 0 0 0 2.636 3.125c4.3 4.968 10.41 10.892 19.587 12.62 1.818.34 3.67.508 5.66.508 2.62 0 5.414-.288 8.796-.91 2.503-.458 5.01-.91 7.517-1.36L63 80.38l1.926.35c2.508.45 5.014.9 7.518 1.36 3.382.62 6.176.91 8.793.91h.002c1.99 0 3.84-.168 5.66-.51 9.176-1.727 15.285-7.65 19.584-12.62.89-1.028 1.764-2.076 2.638-3.125 3.793-4.554 7.716-9.263 13.112-12.252a.956.956 0 0 0 .467-1.038zm-6.895.942c-1.29.54-2.813.185-3.78-.892 1.21.37 2.474.673 3.78.892zm-1.67 2.626c-.29.045-.72.108-.865-.05-.318-.346-.174-1.182.127-1.337a.55.55 0 0 1 .75.23c.18.324.182 1.125-.014 1.157zm-2.362-2.632c.44.273.857.523 1.277.78l-.354.43c-.36-.186-.68-.355-1.03-.54.032-.19.068-.432.107-.67zm-.34 1.38c.206-.043.454.07.67.155.08.033.132.155.25.303.046.202.118.47.157.745.01.063-.08.19-.148.212-.72.217-.928.09-1.076-.638-.014-.066-.045-.14-.03-.204.047-.207.08-.555.176-.574zm-13.8-5.54c.1-.37.095-.767.17-1.148.1-.516.197-1.035.327-1.543a65.628 65.628 0 0 1 6.354 2.825c.104.05.218.105.322.157a6.57 6.57 0 0 1-1.157 1.195c-.677.56-1.37 1.103-2.067 1.637-.2.15-.438.25-.66.375a4.23 4.23 0 0 0-.12-.114c.11-.27.153-.604.34-.797.624-.635 1.298-1.218 1.95-1.83.063-.06.08-.17.118-.258-.102.02-.23.01-.295.068-.374.34-.73.697-1.098 1.044a63.26 63.26 0 0 1-.814.733c-.18-.268-.156-.432.026-.657.432-.536.82-1.11 1.212-1.677.047-.065.02-.183.026-.28-.085.054-.184.1-.257.166-.05.045-.062.125-.102.18-.378.53-.755 1.06-1.127 1.573-.41-.206-.45-.4-.243-.712.363-.543.686-1.116 1.018-1.684.037-.062.017-.157.02-.24-.07.022-.163.025-.21.07a1.14 1.14 0 0 0-.213.278c-.316.534-.625 1.074-.947 1.608-.046.08-.143.184-.216.187-.227.006-.45-.034-.723-.06.145-.257.27-.48.4-.7.305-.513.617-1.026.912-1.546.042-.074.01-.187.01-.283-.08.048-.19.08-.23.15-.485.82-.955 1.647-1.44 2.463-.12.2-.29.378-.45.575-.24-.297-.204-.518-.03-.797.394-.64.74-1.305 1.104-1.962.055-.095.085-.206.126-.312a1.438 1.438 0 0 1-.108-.085c-.084.088-.188.166-.246.268-.4.71-.792 1.428-1.184 2.143-.454-.25-.624-.54-.5-1.012zm-17.65 21.593c-1.635.137-3.682.062-5.584-.035-1.153-.06-2.35-.12-3.535-.12-.425 0-.85.01-1.318.027h-.004c.972-3.553 2.36-5.858 4.49-7.473 1.735-1.313 3.78-1.962 5.765-1.875h.11c3.162 0 6.095.79 9.51 2.554.377.197.44.315.44.315 0 .005.018.163-.255.612-2.214 3.68-5.362 5.64-9.62 5.997zm8.43-.844c-.262.09-.417.047-.58-.183.11-.09.216-.194.325-.288.04.14.12.28.236.405.014.016.015.042.02.063zM78.34 76.43c.283-.086.6-.06.902-.057.063 0 .152.104.17.17.066.297.11.596.167.923-.487.132-.937.18-1.336-.073-.157-.1-.32-.352-.304-.52.016-.166.23-.394.4-.443zm-.722-1.657c.047-.353.26-.58.638-.572.366.005.73.087 1.096.133-.014.468-.024.86-.04 1.33-.445-.074-.846-.11-1.226-.21-.378-.1-.513-.334-.468-.68zm-.145-.97c-.002.32-.184.538-.546.653-.437.14-.804.02-.92-.435-.022-.08-.028-.17-.045-.252.5.02 1.006.03 1.51.035zm-2.43-.078c-.01.1-.016.2-.03.3-.026.184-.216.343-.276.434-.576.31-1.196.005-1.16-.536.006-.09.023-.18.037-.268.232.01.463.02.69.033.244.01.493.02.738.034zm-8.236.118c-.736-.397-.843-1.366-.193-1.884a3.546 3.546 0 0 1 1.05-.565c-.095.42-.07.82.08 1.166-.11.068-.222.13-.33.2-.093.057-.153.16-.228.243.023.036.047.065.07.1.117-.05.245-.09.355-.155l.267-.16c.02.035.036.073.062.105.22.29.54.486.917.6-.12.078-.244.154-.365.236-.08.057-.122.166-.185.25.1-.004.22.022.3-.023.21-.124.413-.258.618-.387.107.015.213.03.327.03.013 0 .11 0 .123-.002.088-.004.18-.002.267-.006-.353.307-.715.594-1.06.9-.07.063-.083.185-.12.28.102-.03.213-.042.3-.093.116-.076.216-.184.323-.273l.98-.824c.116-.002.233-.007.35-.007a.62.62 0 0 1-.053.164c-.228.427-.476.837-.7 1.26-.057.11-.05.25-.074.373.104-.084.24-.148.305-.255.255-.417.488-.85.753-1.318.42.417.89.56 1.467.43-.26.49-.5.97-.846 1.355-.4.45-.85.887-1.356 1.206-.65.415-1.124.14-1.257-.62-.023-.13-.063-.254-.108-.437-.635.352-1.264.857-1.838.08-.47-.637-.057-1.164.39-1.678-.22-.11-.408-.196-.587-.29zm-1.507-4.46c-.4-.207-.843-.377-1.168-.67-.5-.453-.4-1.17.16-1.54.22-.146.483-.247.74-.312.298-.076.413-.144.26-.49-.3-.68.083-1.415.763-1.475 1.053-.094 1.908.405 2.652.873-.09.51-.164.918-.243 1.35-.075-.025-.194-.064-.312-.107-.506-.192-1.004-.394-1.516-.57-.082-.03-.195.032-.297.052.066.065.123.16.205.19.72.28 1.45.545 2.17.825.094.038.182.095.27.15-.038.08-.073.165-.11.245a.655.655 0 0 1-.187-.006c-.507-.104-1.007-.235-1.513-.343-.088-.018-.193.04-.294.064.085.066.157.152.25.19.118.05.25.063.375.093.352.088.7.172 1.078.266-.11.184-.2.333-.29.48-.407-.074-.8-.15-1.192-.21-.062-.013-.143.072-.214.11.057.047.105.124.168.14.323.07.646.126.97.19.215.042.304.146.19.364-.42-.015-.83-.04-1.24-.036-.088.002-.177.092-.266.14.086.04.17.113.258.118.373.03.75.03 1.124.06a.52.52 0 0 1 .128.035c-.15.432-.29.885-.425 1.354a12.98 12.98 0 0 1-1.047.19 2.588 2.588 0 0 1-1.106-.12c-.574-.188-.66-.92-.183-1.297.057-.048.113-.104.172-.15.003-.044.01-.085.015-.126-.12-.006-.252.028-.348-.02zm2.307-7.433c-.166-.208-.36-.404-.48-.64-.184-.355-.18-.736.103-1.05.27-.302.623-.297.98-.184.177.056.34.15.515.223l.28.11c-.022-.135-.032-.213-.044-.292a.977.977 0 0 1 .857-1.092c.7-.073 1.44.617 1.428 1.322-.01.5.248 1 .66 1.097.462.108.506.45.62.82l-.462.176c-.12-.275-.22-.512-.336-.742-.033-.07-.127-.102-.192-.15-.02.08-.07.168-.05.234.057.18.132.355.224.518.15.277.09.484-.19.673-.06-.106-.122-.2-.167-.304-.233-.55-.46-1.1-.697-1.65-.05-.116-.137-.21-.205-.316l-.123.066c.026.12.04.246.087.355.303.698.615 1.392.92 2.092.053.122.083.256.13.406-.417-.018-.63-.206-.792-.488-.31-.54-.625-1.075-.95-1.604-.043-.064-.156-.09-.236-.132.002.086-.016.176.004.255.025.087.086.165.132.25l.89 1.59a2.17 2.17 0 0 1-.072.117c-.113-.068-.265-.11-.343-.207-.366-.458-.708-.935-1.07-1.395-.08-.1-.223-.157-.333-.23.04.13.064.273.13.395.06.123.16.23.243.34.31.408.62.816.945 1.247-.105.097-.193.177-.27.25-.32-.206-.395-.666-.845-.646.04.128.113.22.184.318.156.217.388.42.447.662.1.41.093.85.13 1.323-.11-.022-.298-.02-.43-.103-.483-.308-.99-.594-1.407-.98a6.018 6.018 0 0 1-1.07-1.33c-.317-.546-.054-.937.577-.978.156-.008.31-.025.56-.046-.143-.14-.218-.204-.28-.28zm.288-3.118l-.687-.242c.076-.12.136-.213.196-.303.535.333.535.333.49.545zm-.41-2.178c.96-.317 1.19-.19 1.34.686.06.354-.052.567-.353.67-.332.112-.623.015-.748-.324-.115-.332-.16-.692-.238-1.032zm2.42.07c.067.19.194.356.312.57-.093.01-.146.02-.2.014-.397-.037-.98-.705-.967-1.113.002-.055.06-.12.104-.16.22-.176.435-.353.668-.505.062-.04.18 0 .27 0-.008.08.01.18-.03.233a.977.977 0 0 0-.156.96zm3.475 3.7c-.27.214-.582.38-.896.52-.235.11-.46.034-.603-.204-.14-.246-.163-.498.06-.705a2.21 2.21 0 0 1 .485-.33c.534-.256.535-.25.942.23.01.168.09.428.014.49zm.528.543c.03-.027.146-.013.183.023.194.18.386.377.603.598-.44.22-.87.475-1.29.758-.003-.004-.015-.002-.02-.005-.22-.13-.315-.43-.168-.65.182-.273.454-.49.694-.72zm-1.398-2.24c-.098.2-.557.264-.87.314-.368.064-.663-.13-.74-.394-.068-.26.097-.56.524-.798.135-.026.383-.084.637-.118.063-.01.174.045.19.098.114.3.36.688.26.9zm-.307-7.038c-.573 0-1.064-.253-1.255-.63-.17-.343-.013-.71.33-.653.387.062.772.244 1.102.46.076.046-.067.437-.114.666-.01.057-.043.11-.063.155zm-1.12.584c.3.008.597.135.892.225.02.002.025.105.017.157-.043.29-.097.577-.155.938-.34-.104-.67-.177-.975-.307-.29-.125-.39-.398-.238-.67.09-.16.304-.348.458-.345zm-.237 1.977c.288-.084.607-.066.948-.096-.003.433-.003.788-.003 1.238-.38-.085-.72-.115-1.012-.248-.147-.068-.29-.325-.283-.49.003-.145.2-.36.352-.403zm.996 1.808a.292.292 0 0 1 .045.127c.04.227.074.458.127.798-.43-.017-.818.017-1.185-.055-.374-.074-.526-.428-.383-.72.157-.334 1.163-.445 1.394-.15zm.885 6.777c-.242.19-.48.383-.705.587a.71.71 0 0 1 .46-.557c.08-.03.163-.04.245-.03zm-1.502 1.386a12 12 0 0 0-.918 1.143c-.027-.04-.063-.067-.09-.11-.23-.383-.195-.75.075-.993.254-.233.614-.262.933-.04zm-1.477 1.98a14.1 14.1 0 0 0-.506.92c-.16-.192-.234-.44-.16-.636.072-.19.34-.313.666-.284zm1.804 7.38c.23.006.464.01.695.018l-.03.02a.62.62 0 0 1-.665-.037zm6.344-13.02c-1.107-.47-2.018-1.217-2.742-2.196-.293-.395-.488-.875-.657-1.343-.118-.326.07-.62.372-.797.295-.17.57-.084.804.13.152.144.304.3.41.477.23.41.433.832.65 1.247.284.538.52 1.11.872 1.6.213.3.488.56.77.824-.16.017-.32.033-.48.06zm8.75-8.276c.164-.06.338-.112.512-.13 1.607-.154 2.996.344 4.154 1.357-.194.396-.38.764-.592 1.19-.707-.29-1.467-.6-2.23-.91-.025.04-.053.076-.078.11.083.08.152.184.25.23.613.264 1.224.542 1.855.76.314.107.43.287.496.643-.867-.32-1.68-.62-2.494-.918l-.073.116c.093.078.167.183.272.223.653.26 1.314.503 1.972.75.12.045.238.097.356.146l-.027.11c-.216 0-.442.04-.647-.004-.837-.18-1.667-.388-2.5-.587-.068-.017-.14-.057-.203-.048-.066.007-.127.063-.19.098.038.052.066.125.118.148.08.043.176.058.27.08.768.2 1.54.398 2.31.597-.15.364-.396.51-.792.39a9.944 9.944 0 0 0-1.03-.236c-.148-.03-.312-.005-.468 0 .137.082.26.21.406.25.494.133.996.237 1.5.352-.003.155-.003.29-.003.44-.416-.044-.786-.088-1.16-.13-.546-.062-1.095-.132-1.643-.183-.077-.007-.162.076-.244.116.07.05.133.11.208.142.06.027.14.018.21.027.814.095 1.63.186 2.445.287.11.014.256.038.316.11.29.353.554.728.834 1.105-1.264.444-2.596.55-3.946.34-.864-.135-1.105-.645-.708-1.418.155-.305.047-.35-.22-.45a6.98 6.98 0 0 1-1.37-.677c-.353-.23-.492-.632-.36-1.063.138-.457.473-.713.928-.818.12-.03.244-.04.366-.06-.333-1.406-.03-2.023 1.2-2.49zm13.368 5.35c.073.84-.416 1.49-1.008 2.028-.23.21-.564.372-.872.408-1.174.135-2.174-.47-2.646-1.562-.312-.72-.215-1.403.285-2.013.427-.517 1.22-.64 1.795-.31.375.22.554.64.445 1.055-.105.398-.408.67-.78.685.032-.048.06-.085.085-.12.195-.245.19-.5.022-.75-.187-.273-.46-.404-.79-.355-.31.045-.453.268-.516.555-.113.536.21 1.067.77 1.208.567.146 1.036-.06 1.425-.47.44-.463.507-.996.234-1.56-.558-1.15-2.015-1.34-3.006-.416-1.136 1.06-.823 3.29.84 4.176.6.32 1.222.577 1.947.397l.006.126c-.357.107-.71.287-1.077.312-.868.063-1.68-.106-2.386-.7-1.14-.954-1.524-2.505-.9-3.85a3.193 3.193 0 0 1 3.486-1.8c1.565.302 2.515 1.52 2.638 2.954zm-1.596-3.64c.076-.62.143-1.244.536-1.76.364-.478 1.053-.435 1.37.16.016.085.074.27.074.452 0 .732-.414 1.273-.88 1.78-.04.042-.16.066-.208.04a14.37 14.37 0 0 1-.805-.502c-.047-.033-.095-.118-.087-.17zm.72 8.135c.087.264.202.525.255.796.072.37-.108.765-.382.868-.366.145-.65-.063-.803-.333-.23-.41-.356-.875-.554-1.307-.137-.305-.008-.394.27-.476.8-.226.794-.238 1.217.453zm-2.034 1.345c-.004.327-.185.584-.523.67-.35.09-.666.043-.922-.254-.355-.41-.438-1.686-.12-2.1.04-.05.14-.087.204-.076.41.063.82.145 1.303.235.02.484.068 1.005.06 1.525zm-7.932-1.728c.3-.208.577-.443.872-.656.464-.336.5-.33.87.163l-.312.214c-.47.313-.94.62-1.4.945-.06.04-.082.124-.11.206a28.1 28.1 0 0 0-1.786-.758c-.05-.32.03-.66.275-.958.67-.82 1.65-1.03 2.613-1.25.03.26.022.476.084.672.06.2-.004.287-.162.396-.377.26-.74.54-1.1.822-.06.043-.076.15-.11.223.088-.004.205.023.268-.02zm1.605-1.71c-.033-.354.176-.585.478-.697a5.05 5.05 0 0 1 1.01-.264c.614-.096.617-.083.876.474.276.59.276.59-.285.94a3.39 3.39 0 0 1-.213.125c-.407.214-.837.29-1.286.146-.344-.112-.543-.357-.577-.72zm1.937 1.672c.18-.484.597-.766 1.007-1.034.053-.033.17-.014.223.026.36.253.71.518 1.154.845-.183.326-.35.7-.584 1.03-.322.446-.994.643-1.365.45-.418-.216-.624-.795-.433-1.318zm2.666-7.67c-.2.117-.42.204-.553.264-.144.09-.224.124-.283.18-.226.215-.422.163-.576-.073-.26-.41-.563-.81-.74-1.256-.228-.577-.02-1.068.433-1.3.4-.204.95-.08 1.25.413.285.473.44 1.02.635 1.54.02.053-.084.188-.164.233zm-1.567 1.002c-.278.422-.5.766-.744 1.134-.655-.184-1.264-.417-1.57-1.08-.143-.307-.22-.627.043-.918.208-.23.667-.334.977-.136.46.3.876.673 1.293 1zm-1.163 1.863c.076.025.154.174.154.265-.006.406-.033.814-.06 1.297-.313.024-.625.078-.938.07-.62-.018-1.06-.34-1.328-.886-.313-.633.03-1.217.735-1.15.49.047.965.25 1.437.407zM86.686 60.7c-.053.045-.076.082-.112.1-.326.175-.663.32-.995.477a22.633 22.633 0 0 0-.798-.222c.282-.104.563-.212.84-.342.363-.17.676-.157 1.063-.014zm2.517 1.976a.302.302 0 0 0 .136-.042c.53-.344 1.075-.672 1.572-1.063.323-.253.63-.23 1.032-.15-.463.46-.896.89-1.322 1.32-.14.14-.28.284-.42.427a31.63 31.63 0 0 0-1-.49zm2.682-.857c.053-.05.125-.08.188-.12l.118.05c-.076.286-.065.66-.246.84-.348.343-.73.646-1.115.948a3.878 3.878 0 0 0-.437-.27c.497-.485.993-.968 1.493-1.45zm.06 1.122c.227-.197.354-.2.428.09.025.107-.043.262-.11.37-.223.344-.46.677-.686 1.017a2.19 2.19 0 0 0-.556-.715c.314-.25.627-.5.926-.763zm-.248 1.763c.238-.354.482-.707.705-1.07.215-.35.24-.364.566-.054-.154.433-.507.796-.496 1.3.174-.193.3-.412.396-.642.152-.352.33-.62.794-.586.188.012.405-.116.584-.215.18-.1.33-.246.472-.355.174.38.3.743.497 1.062.123.2.1.3-.034.45-.766.853-1.666 1.522-2.75 1.906-.37.13-.766.21-1.16.252.3-.51.65-1.254.428-2.05zm3.973.21a.44.44 0 0 1 .292-.202c.18-.022.367.02.57.036-.02.853-.073 1.704.168 2.536a.53.53 0 0 0 .083-.32c-.012-.654-.02-1.313-.043-1.966-.01-.34.164-.512.505-.6.077.324.142.62.223.914.078.278.15.563.27.83.108.256.102.586.425.737 0-.214-.04-.414-.098-.606-.185-.602-.397-1.196-.547-1.81-.054-.212.045-.468.078-.705.043 0 .086.002.127.004.604.736.64 1.713 1.04 2.547.025-.675-.272-1.282-.415-1.923.293-.056.437.053.525.28.18.46.363.918.564 1.368.04.097.154.162.234.238.004-.104.037-.22.004-.313-.185-.516-.386-1.03-.582-1.54.183-.187.314-.17.44.058.094.176.21.338.33.5.033.04.115.047.174.07.017-.068.063-.158.037-.205-.103-.197-.244-.375-.347-.568-.05-.094-.086-.228-.057-.32.1-.333.23-.654.36-1.01.234.11.635.17.764.39.74 1.272 1.314 2.622 1.413 4.123.044.626-.074 1.215-.432 1.74-.352.522-.61.602-1.194.38-.483-.186-.466-.174-.724.29-.14.258-.312.582-.557.688-.693.297-1.67.166-1.88-.89-.06-.294-.13-.585-.205-.925-.184.087-.313.154-.45.208-.25.094-.5.23-.757.24-.19.01-.46-.106-.56-.255-.175-.267-.33-.595-.35-.906-.068-1.08.067-2.133.577-3.11zm5-2.332c-.156-.022-.346-.07-.445-.178a14 14 0 0 1-.955-1.11c-.047-.062-.016-.256.047-.325.258-.283.545-.54.836-.823.53.31 1.078 1.04 1.23 1.634.137.54-.167.89-.714.805zm-.052-2.88c-.062-.057-.136-.17-.12-.235.078-.33.176-.652.28-.975.018-.046.11-.08.173-.094.48-.085 1.633.464 1.874.883.194.343-.132.884-.597.953-.62.087-1.15-.13-1.608-.534zm.144-2.488c-.12-.51-.12-.51.334-.776.215-.09.426-.224.65-.258.29-.05.603-.077.882-.01.353.08.463.442.328.784-.255.628-.806.77-1.394.826-.65.063-.656.045-.8-.567zm.984-1.873c-.355.256-.752.458-1.137.672-.053.027-.17.003-.215-.04-.596-.566-.554-1.022.133-1.476.038-.027.08-.054.118-.075l-.008-.023c.21-.076.41-.172.627-.223.492-.115.816.18.73.68-.032.175-.117.39-.25.483zm-4.012-3.557c.336.69.19 1.383.025 2.073-.433-.025-.806-.035-1.178-.073-.075-.007-.195-.094-.206-.16-.084-.506-.188-1.014-.204-1.522-.016-.49.26-.797.65-.878.365-.076.697.12.91.56zm-7.14-3.255c.13-.01.26-.006.387 0 .194.006.263-.065.19-.257-.056-.165-.12-.333-.144-.504-.086-.56.08-1.018.562-1.347.49-.336.98-.34 1.483-.034.62.376.62.374 1.093-.175.004-.004.008-.006.01-.01.594.168 1.2.365 1.807.565.003.006.007.01.01.014.577.957.888 2.013 1.093 3.103.045.24.04.482.063.754-.685.005-1.164.28-1.442.95-.066-.18-.11-.283-.144-.394-.275-.946-.54-1.893-.824-2.838-.034-.117-.135-.212-.21-.32-.013.136-.03.267-.044.4-.002.02.014.044.02.066.327 1.15.658 2.302.988 3.456-.596-.36-.955-.876-1.116-1.542-.087-.364-.222-.716-.343-1.072-.045-.144-.09-.292-.162-.424-.043-.08-.133-.136-.202-.2-.013.103-.04.203-.036.306 0 .066.048.13.072.197.218.65.433 1.302.65 1.96-.505.057-.52.063-.724-.32-.33-.62-.64-1.254-.968-1.876-.04-.077-.146-.117-.222-.173-.006.095-.045.204-.014.278.186.405.378.807.582 1.205.166.317.35.63.532.954-.192.13-.343.23-.55.372-.193-.34-.342-.66-.54-.95-.185-.264-.23-.648-.612-.775a.678.678 0 0 0 .074.36c.26.457.525.916.81 1.36.144.227.13.4-.11.62-.325-.5-.63-.982-.955-1.455-.06-.086-.18-.132-.275-.194.016.104-.006.23.044.31.272.437.513.91.86 1.283.363.385.353.825.425 1.268-.56.054-.98-.152-1.315-.554-.166-.196-.38-.357-.535-.56-.472-.61-1-1.193-1.372-1.86-.495-.876.104-1.853 1.105-1.944zm-7.973-2.176a.607.607 0 0 1 .53.057c.077.057.073.37-.01.48-.18.234-.44.42-.696.65-.377-.67-.334-.94.178-1.185zm-.72 4.934c.157-.294.245-.485.362-.66.037-.055.165-.102.222-.077.226.087.46.18.648.325.105.083.207.3.168.406-.04.116-.253.256-.376.243-.324-.03-.64-.143-1.024-.234zm.25 1.432c-.355.204-.73.056-.943-.307-.185-.316-.13-.472.242-.69.17-.098.533.125.73.462.124.212.162.416-.03.535zm.367-2.787c.055-.294.094-.52.145-.805.377.075.73.11 1.052.23.12.048.258.305.23.434-.023.125-.25.3-.385.296-.333 0-.665-.092-1.04-.155zm1.057-1.516c-.155.083-.354.113-.54.127-.146.008-.355.126-.428-.147-.062-.24-.013-.413.23-.548.213-.038.433-.12.638-.09.137.02.31.18.354.316.027.078-.134.274-.254.34zm-2.16-3.13a.894.894 0 0 1 .19-.18c.083-.01.163-.02.247-.027.02.008.04.008.06.024.14.11.268.356.24.516-.043.273-.215.524-.344.812-.76-.483-.797-.622-.39-1.145zm-.725-.08c-.05.144-.105.292-.16.455-.21-.06-.38-.083-.517-.158a.46.46 0 0 1-.15-.167c.275-.045.54-.093.826-.13zm-4.475 1.497c1.017-.652 2.127-.922 3.328-.73 1.926.307 2.965 1.927 2.435 3.81a3.833 3.833 0 0 1-.48 1.048c-.527.807-1.286 1.203-2.255 1.048-1.01-.164-1.773-.688-2.117-1.685a1.645 1.645 0 0 1 1.354-2.17c.17-.023.352.023.614.045-.126.113-.166.15-.21.187-.293.258-.388.57-.254.876.128.298.36.46.685.46.33.002.656-.25.768-.58.188-.568-.21-1.247-.855-1.45-1.313-.417-2.705.61-2.75 2.028-.006.118 0 .233-.002.378-.336-.125-.672-.255-.92.118a.507.507 0 0 0 .036.65c.233.275.515.222.858 0 .083.267.18.49.22.722.036.228.02.467.017.702-.008.683.312 1.158.918 1.456.562.275 1.066.19 1.543-.258.252.433.588.72 1.098.71.525-.014.857-.277.995-.82.405.138.804.216 1.183-.04.39-.268.475-.645.377-1.072 1.113-.212 1.248-.77.955-1.455.392-.13.715-.343.767-.802.047-.42-.103-.755-.472-.975.542-.946.496-1.158-.348-1.72.385-.912-.14-1.432-.944-1.51a2.356 2.356 0 0 0-.177-.666c.817-.065 1.644-.1 2.46-.1.318 0 .643.025.966.035.03.056.065.107.093.164.112.233.196.477.253.727.155-.154.327-.298.512-.432.022-.145.072-.28.106-.422.885.054 1.77.138 2.665.266-.24.514-.27 1.114-.087 1.792-.27.092-.51.157-.732.25-.916.397-1.244 1.155-.78 2.035.34.648.82 1.223 1.24 1.83.06.084.134.16.175.28-.265-.127-.53-.258-.8-.38-1.115-.51-2.266-.618-3.42-.174-.752.294-1.3.833-1.38 1.677-.036.366.09.75.15 1.16-1.195.402-1.92 1.233-1.728 2.613.177 1.277 1.055 1.808 2.288 1.853l-.145.866c-.895.082-1.77.083-2.534-.568.103-.102.19-.174.26-.264.2-.264.19-.55.024-.82a.717.717 0 0 0-.833-.3c-.31.116-.415.373-.41.674.014.476.26.843.61 1.146.687.61 1.53.722 2.403.708.26-.004.518-.012.778-.017.01.036.016.07.02.105-.115.052-.23.123-.354.155a4.52 4.52 0 0 1-2.737-.093c-.58-.202-.97-.645-1.23-1.194-.207-.423-.377-.864-.616-1.266a2.05 2.05 0 0 0-.578-.592c-.232-.166-.555-.193-.75.023-.152.168-.29.475-.242.676.084.364.262.73.484 1.034 1.31 1.808 4.133 2.592 6.213 1.758.108-.044.228-.07.437-.134-.078.132-.088.184-.12.197-.48.217-.966.404-1.46.55a19.722 19.722 0 0 0-3.877-.374h-.01c-.18-.007-.362 0-.545.003-.93-.55-1.598-1.396-2.058-2.486a9.04 9.04 0 0 0-1.06-1.85c-.44-.597-1.018-.68-1.59-.38-.56.297-.806.882-.66 1.56.134.617.486 1.113.876 1.588a7.672 7.672 0 0 0 2.198 1.845 10.86 10.86 0 0 0-1.797.602c-.96-.816-1.708-1.887-2.226-3.11-1.213-2.852-.84-5.65.505-8.363.63-1.27 1.472-2.375 2.684-3.15zm4.36 6.663c-.106.11-.372.132-.543.095-.367-.084-.395-.412-.404-.725-.002-.078.013-.16.02-.25.208-.038.397-.095.594-.1.086-.004.224.07.26.142.123.266.327.57.073.836zm-1.706-.822a.642.642 0 0 1-.766.656c-.434-.08-.728-.335-.815-.767-.063-.29-.06-.598-.08-.862.527.273 1.025.52 1.516.783.064.038.142.126.143.193zm-3.83-5.924c.003.02.02.038.016.053a.713.713 0 0 1-.187.394c-.07.08-.28.166-.3.14-.083-.09-.163-.183-.244-.274.234-.108.47-.213.714-.31zm-1.47.673c.183.126.355.275.53.42.03.026.02.158-.014.21-.148.22-.318.426-.486.652-.573-.255-.786-.468-.854-.808.272-.163.54-.325.822-.474zm-1.63 1.46c.243-.112.89.112 1.15.4.21.23-.065.374-.114.554-.03.12-.104.23-.207.433-.327-.21-.636-.356-.88-.574-.27-.23-.214-.694.05-.814zm-.97.27c.092.048.17.113.196.206.05.19.086.38.123.543l-.954.533c-.076-.085-.198-.213-.296-.357-.015-.02-.026-.05-.04-.08.31-.296.634-.576.97-.85zm-2.52 2.6c.386.614.35 1.425-.14 1.935-.342.362-.77.49-1.25.35-.027-.007-.05-.02-.077-.028.45-.818.937-1.57 1.467-2.26zm-1.73 2.757c.016.005.03.017.047.022 1.465.44 2.786-.79 2.457-2.29a2.46 2.46 0 0 0-.428-.93c.25-.305.516-.596.786-.878.335.353.617.778.807 1.297.063.183.04.315-.097.478-.36.42-.358.883-.084 1.364.057.1.05.296-.014.394-.44.672-1.077 1.1-1.84 1.34-.73.23-1.418.172-1.987-.09.112-.242.233-.472.35-.705zm-.58 1.227c.103.047.2.103.31.14.407.135.847.166 1.28.247-.045.012-.078.026-.11.03a3.34 3.34 0 0 1-1.6-.14l.12-.277zm-.02 1.015c.22-.095.74-.01.783.114.15.417.2.895-.064 1.32-.27.43-.69.42-.927-.026-.17-.32-.088-1.28.207-1.408zm-6.003-.43c.2.49.387 1.005.567 1.536-.093.018-.187.023-.237.037-.356-.186-.824-1.017-.705-1.263.066-.13.22-.225.376-.31zm-.23-.526a3.39 3.39 0 0 1-2.297.454c-.035-.004-.067-.02-.11-.03.433-.08.873-.112 1.28-.247a2.97 2.97 0 0 0 .965-.548c.055.12.108.248.162.37zm.29 11.292c.255.065.52.166.74.312.56.37.658 1.088.16 1.54-.327.294-.77.464-1.17.67-.095.048-.228.016-.346.022l.016.126c.06.048.115.104.173.148.477.377.39 1.11-.184 1.3a2.6 2.6 0 0 1-1.105.118c-.06-.008-.12-.023-.18-.033a25.08 25.08 0 0 0-.49-1.58c.15-.004.3-.01.45-.02.088-.007.17-.08.26-.12-.09-.047-.18-.138-.267-.14-.18 0-.36.01-.54.017l-.15-.414c.203-.04.406-.075.61-.12.063-.015.11-.09.168-.138-.07-.04-.15-.125-.214-.11-.216.03-.438.073-.657.114-.073-.186-.15-.357-.23-.534.16-.038.325-.08.48-.118.126-.03.258-.042.375-.093.094-.04.166-.125.25-.19-.1-.024-.206-.083-.294-.064-.31.065-.617.14-.925.21-.063-.14-.123-.283-.188-.42.58-.22 1.164-.436 1.744-.66.083-.032.14-.125.21-.19-.103-.02-.216-.08-.3-.052-.51.178-1.01.378-1.514.572-.094.034-.184.064-.258.09-.027-.054-.057-.103-.083-.155-.068-.37-.133-.734-.212-1.176.745-.47 1.6-.97 2.653-.877.68.06 1.063.798.763 1.476-.156.342-.04.41.257.487zm-1.97 8.946c-.573.777-1.2.27-1.836-.08-.045.184-.084.308-.107.44-.134.757-.61 1.032-1.258.62-.506-.32-.957-.756-1.357-1.205-.344-.387-.585-.865-.846-1.356.577.13 1.046-.013 1.467-.43.264.47.5.9.752 1.317.065.108.2.17.304.256-.023-.124-.018-.26-.074-.372-.225-.424-.472-.834-.7-1.26-.04-.075-.057-.164-.074-.253l.25-.002 1.1.923c.107.093.207.198.325.27.086.054.197.064.3.095-.04-.095-.052-.218-.12-.28-.35-.31-.718-.602-1.074-.91-.038-.033-.07-.07-.11-.105.24 0 .475.007.71.014.25.155.493.315.745.465.08.046.2.02.3.023-.062-.084-.105-.193-.185-.25-.116-.077-.234-.15-.352-.228h.083c.55 0 1.02-.164 1.366-.46.046.02.09.042.135.06.025-.03.048-.062.07-.098-.025-.027-.05-.06-.073-.09.037-.04.082-.074.115-.117.21-.273.312-.61.323-.972.07.047.142.082.208.135.65.518.543 1.485-.192 1.883-.18.097-.37.182-.582.29.45.515.862 1.044.392 1.678zm-6.61-4.116c-1.9.097-3.95.17-5.583.035-4.257-.357-7.404-2.317-9.62-5.995-.27-.45-.256-.605-.257-.605 0-.004.063-.123.442-.32 3.415-1.765 6.347-2.553 9.51-2.553h.11c2-.087 4.03.562 5.765 1.875 2.118 1.602 3.5 3.887 4.484 7.47h-.04c-1.615-.067-3.244.014-4.813.093zm.035 2.233c.036.543-.584.848-1.16.535-.062-.09-.25-.25-.277-.436-.018-.12-.023-.24-.034-.36.48-.02.956-.042 1.426-.066.02.112.04.22.046.328zm-2.372-.233c-.02.112-.03.224-.057.333-.116.45-.484.573-.92.433-.396-.126-.574-.376-.54-.75.138.002.265.008.408.008.37 0 .74-.013 1.11-.023zm-2.137 1.76c-.378.103-.778.138-1.225.21l-.04-1.328c.367-.047.73-.13 1.096-.13.38-.008.593.22.64.57.043.345-.09.58-.47.678zm.146 1.425c.015.17-.148.42-.305.52-.4.254-.85.206-1.334.073.057-.326.1-.625.168-.922.017-.067.108-.17.17-.17.302 0 .62-.028.9.056.17.05.386.28.4.444zM28.03 61.13c-.367-.024-.72-.204-1.078-.313l.007-.126c.722.18 1.344-.075 1.943-.395 1.665-.885 1.978-3.115.842-4.177-.99-.924-2.448-.736-3.006.415-.27.564-.206 1.098.235 1.56.39.41.857.617 1.425.47.56-.14.884-.67.77-1.207-.062-.287-.205-.51-.514-.555-.33-.05-.604.083-.79.357-.168.25-.173.504.02.75.03.034.054.07.088.12-.374-.015-.676-.288-.78-.686a.938.938 0 0 1 .445-1.055c.573-.33 1.366-.207 1.792.31.5.61.596 1.295.286 2.014-.473 1.092-1.472 1.695-2.646 1.56a1.656 1.656 0 0 1-.873-.407c-.59-.537-1.08-1.187-1.008-2.028.125-1.434 1.074-2.653 2.636-2.953a3.195 3.195 0 0 1 3.487 1.8c.623 1.345.237 2.896-.9 3.85-.706.593-1.518.763-2.387.7zm1.523 2.86c-.257.297-.575.344-.924.254-.343-.086-.52-.346-.527-.67-.01-.52.038-1.043.06-1.526.484-.09.892-.172 1.303-.235a.254.254 0 0 1 .205.078c.32.414.236 1.69-.12 2.1zm-4.875-9.393c.686.454.73.91.132 1.477-.046.042-.162.066-.212.04-.385-.215-.78-.418-1.136-.673-.134-.09-.22-.307-.252-.48-.087-.5.238-.796.73-.682.216.05.418.147.628.223a.157.157 0 0 0-.01.024c.04.02.08.048.12.074zm.13-1.652c.002-.184.06-.367.074-.45.318-.597 1.005-.64 1.37-.163.395.517.46 1.142.537 1.76.005.053-.04.138-.09.17-.263.176-.53.347-.804.502-.05.027-.168.003-.208-.04-.47-.507-.88-1.048-.88-1.78zm-1.345 3.335c.224.035.435.167.65.257.453.264.453.264.332.775-.144.613-.15.63-.8.568-.59-.056-1.138-.197-1.393-.826-.136-.342-.025-.703.327-.785.277-.068.59-.04.882.01zm.793 2.218c.063.013.155.047.172.094.105.322.204.644.28.974.017.066-.057.18-.12.234-.457.404-.988.62-1.607.534-.463-.07-.79-.61-.594-.953.24-.417 1.394-.967 1.87-.88zm-.43 3.38c.15-.593.696-1.324 1.228-1.634.29.284.578.54.836.824.063.07.095.263.046.326-.3.384-.614.757-.953 1.11-.1.107-.29.154-.446.177-.546.088-.85-.264-.712-.8zm1.99 1.147c.05-.272.166-.533.253-.797.42-.69.415-.68 1.212-.453.28.082.408.17.27.477-.195.43-.322.896-.553 1.31-.153.27-.438.475-.805.33-.273-.103-.455-.496-.38-.867zm14.31-8.095c.456.105.79.362.93.82.13.43-.01.83-.363 1.06a6.98 6.98 0 0 1-1.37.677c-.267.1-.375.146-.218.45.396.772.155 1.284-.71 1.42-1.35.208-2.683.102-3.947-.343.28-.377.544-.75.833-1.105.064-.074.21-.098.32-.11.813-.103 1.63-.194 2.445-.29.07-.01.148 0 .208-.027.075-.032.14-.09.208-.142-.08-.04-.166-.123-.242-.116-.547.05-1.097.12-1.643.184-.374.04-.744.084-1.16.13 0-.153 0-.287-.004-.442.505-.114 1.007-.218 1.5-.352.147-.04.27-.168.407-.252-.154-.003-.318-.03-.47 0-.343.063-.69.14-1.027.237-.4.12-.644-.026-.793-.39.77-.2 1.542-.398 2.31-.598.093-.022.19-.037.27-.08.05-.023.08-.096.12-.147-.065-.035-.126-.09-.193-.098-.064-.008-.134.032-.203.047-.83.2-1.66.407-2.5.587-.204.045-.43.006-.646.003l-.027-.11c.12-.048.235-.1.356-.144.658-.25 1.318-.494 1.973-.75.106-.04.18-.147.273-.224l-.074-.116-2.492.92c.065-.356.18-.537.496-.646.63-.216 1.24-.494 1.854-.76.096-.043.167-.148.25-.226l-.08-.11c-.762.308-1.523.618-2.23.908-.21-.425-.396-.793-.592-1.188 1.16-1.013 2.548-1.51 4.156-1.357a2.1 2.1 0 0 1 .51.13c1.23.468 1.535 1.085 1.202 2.488.123.023.246.034.367.063zm-.538 5.88c.332.157.67.293 1.013.413-.26.075-.524.15-.79.238-.392-.182-.79-.355-1.173-.562-.037-.018-.06-.054-.113-.1.386-.145.698-.158 1.065.013zm-5.596-4.212c.706-.068 1.05.515.737 1.15-.27.547-.71.87-1.33.887-.314.007-.626-.046-.94-.07-.025-.484-.053-.892-.06-1.297 0-.09.08-.24.154-.265.475-.156.95-.36 1.437-.405zm-1.64 3.99c-.56-.35-.56-.35-.286-.943.258-.556.26-.57.874-.474a5.1 5.1 0 0 1 1.01.267c.304.113.512.343.48.7-.033.36-.233.607-.577.72-.45.146-.88.07-1.288-.145a3.198 3.198 0 0 1-.213-.123zm-.292 2.538c-.37.192-1.043-.005-1.366-.452-.233-.33-.4-.703-.582-1.03.442-.326.792-.59 1.154-.844.053-.04.17-.06.22-.026.41.268.827.55 1.006 1.033.19.523-.013 1.102-.432 1.32zm1.648-7.93c-.308.66-.916.894-1.57 1.078-.243-.368-.465-.71-.744-1.134.416-.327.832-.7 1.293-1 .31-.197.768-.094.977.136.264.29.185.61.044.92zm-1.73-1.946c-.177.45-.48.85-.74 1.258-.154.236-.352.288-.577.072-.057-.055-.136-.087-.28-.18-.133-.058-.353-.145-.553-.263-.08-.045-.182-.18-.163-.233.193-.52.35-1.067.635-1.54.3-.494.85-.617 1.25-.413.45.234.657.725.43 1.3zM29.99 64.244c.2-.32.324-.684.497-1.062.143.11.292.255.473.354.18.1.395.228.584.216.463-.036.64.232.794.584.1.23.222.448.396.643.01-.506-.34-.87-.496-1.3.327-.31.353-.297.566.052.285.463.597.908.896 1.36.04-.01.08-.022.123-.036-.024-.12-.014-.267-.078-.365-.255-.4-.542-.79-.8-1.19-.07-.106-.138-.26-.112-.37.072-.29.2-.286.427-.09.432.378.88.737 1.326 1.097a1.917 1.917 0 0 0-.284.566c-.206.734.074 1.428.354 1.93-.106.176-.276.264-.55.245a5.125 5.125 0 0 1-1.333-.275c-1.08-.387-1.98-1.057-2.748-1.91-.134-.152-.158-.254-.035-.45zm3.274-1.556c-.18-.18-.17-.555-.248-.842l.118-.048c.064.038.137.07.19.117a258.04 258.04 0 0 1 1.752 1.706 2.636 2.636 0 0 0-.33.306c-.503-.404-1.023-.786-1.482-1.237zm1.32.147c-.427-.43-.86-.858-1.322-1.32.4-.077.71-.102 1.032.153.497.39 1.042.72 1.574 1.063.074.05.183.04.276.06-.045-.096-.063-.227-.136-.28-.46-.323-.933-.63-1.402-.943-.106-.072-.208-.145-.313-.214.37-.492.407-.5.87-.162.296.214.575.45.873.657.063.042.18.015.27.02-.036-.075-.052-.18-.11-.224-.36-.282-.723-.563-1.1-.822-.158-.11-.22-.195-.163-.395.06-.196.054-.413.083-.67.963.217 1.942.427 2.61 1.248.312.38.36.828.207 1.212-.696.296-1.4.62-2.128.996-.175.09-.33.188-.47.288-.217-.22-.433-.443-.65-.662zm12.4-2.382a4.84 4.84 0 0 0 .616-.677c.352-.49.587-1.062.872-1.6.216-.416.417-.84.65-1.248.105-.178.256-.333.41-.476.233-.215.508-.302.804-.13.303.178.49.47.372.797-.168.466-.364.947-.657 1.34-.64.87-1.416 1.57-2.355 2.043a10.522 10.522 0 0 0-.71-.05zm5.843-9.49c.33-.214.715-.396 1.102-.458.34-.056.5.31.33.65-.193.38-.684.63-1.257.63-.02-.045-.05-.098-.062-.154-.047-.23-.19-.62-.114-.665zm-.39-.727c-.1-.203-.174-.313-.205-.433-.048-.18-.325-.324-.115-.555.263-.287.91-.51 1.152-.4.26.12.32.584.05.815-.248.218-.556.365-.883.573zm2.708 5.624c-.04-.052-.02-.153-.028-.232.09 0 .207-.04.27 0 .233.152.448.328.667.504.045.04.102.105.104.16.01.408-.57 1.076-.966 1.113-.054.006-.108-.005-.2-.014.116-.212.244-.38.31-.57a.98.98 0 0 0-.157-.96zm.247 3.265c.53.053.934.566.855 1.09-.01.08-.022.158-.042.294.124-.05.203-.08.28-.114.174-.075.338-.167.515-.223.354-.114.708-.12.978.183.283.314.29.695.105 1.05-.12.236-.314.433-.48.64-.062.076-.137.14-.28.284.248.022.403.04.558.047.63.04.898.432.58.978a6.08 6.08 0 0 1-1.07 1.33c-.416.386-.923.673-1.41.98-.02.013-.047.015-.07.022-.11-.16-.21-.328-.323-.48.016-.266.038-.522.097-.766.06-.24.29-.44.447-.66.07-.096.146-.19.185-.317-.45-.02-.523.44-.843.646-.077-.073-.166-.153-.27-.25l.945-1.247c.084-.112.182-.22.245-.34.064-.122.086-.264.13-.397-.112.075-.253.13-.333.23-.365.46-.707.937-1.074 1.396-.078.096-.23.14-.343.206a3.03 3.03 0 0 1-.07-.118l.89-1.59c.045-.084.106-.16.13-.25.022-.078.005-.167.006-.254-.08.044-.195.068-.236.134a55.94 55.94 0 0 0-.952 1.604.92.92 0 0 1-.37.377 8.447 8.447 0 0 0-.296-.274c.002-.007.003-.014.006-.02.304-.7.617-1.395.92-2.093.046-.11.06-.234.086-.354-.042-.024-.083-.044-.124-.067-.07.105-.155.2-.206.316-.236.547-.463 1.1-.698 1.65-.044.103-.11.197-.168.303-.28-.19-.34-.396-.188-.673.09-.164.167-.34.222-.52.02-.065-.03-.154-.048-.234-.066.05-.16.083-.193.15-.116.232-.213.468-.335.744-.154-.06-.298-.112-.46-.176.113-.37.157-.712.62-.82.412-.096.67-.597.66-1.097-.014-.706.727-1.395 1.427-1.322zm2.09-1.342c-.126.34-.416.436-.75.323-.3-.102-.41-.316-.35-.67.15-.874.378-1.002 1.338-.685-.075.34-.122.7-.24 1.034zm.32.6c.062.09.12.184.197.303l-.688.242c-.046-.21-.046-.21.49-.545zm-2.72 6.2c-.07-.082-.137-.17-.208-.252.013.013.03.017.042.028a.718.718 0 0 1 .165.227zm-.703-7.555c-.37.07-.755.038-1.186.055.05-.34.087-.572.126-.8a.282.282 0 0 1 .045-.127c.23-.294 1.235-.183 1.395.15.144.294-.01.648-.38.722zm.05-1.786c-.294.132-.634.162-1.014.248 0-.45 0-.804-.004-1.238.34.03.66.012.95.097.15.04.347.255.35.4.01.166-.135.423-.283.49zm-.086-1.856c-.302.13-.632.203-.974.307-.06-.362-.112-.648-.154-.938-.01-.052-.006-.155.016-.158.296-.09.592-.217.893-.225.155-.003.37.186.46.344.153.273.05.547-.24.67zm-1.39 4.54c.02-.053.13-.11.192-.1.254.034.502.092.636.118.428.24.593.54.522.798-.074.265-.37.458-.737.396-.313-.05-.773-.114-.87-.313-.102-.212.145-.6.257-.9zm-.173 1.877c.174.086.344.2.487.33.222.207.198.458.057.705-.14.237-.366.313-.602.204a4.17 4.17 0 0 1-.896-.52c-.076-.062.005-.322.013-.49.407-.478.41-.485.94-.23zm-.787 1.98c.044.068.06.143.064.217a11.35 11.35 0 0 0-1.217-.643c.094-.093.185-.184.277-.27.036-.037.152-.05.182-.024.24.232.51.45.693.72zM53.77 73.6c-.232.205-.49.262-.778.115-.048-.023-.087-.056-.133-.082.3-.014.604-.026.91-.033zm4.6-15.45c-.265-.424-.216-.9-.066-1.318.044-.124.566-.208.784-.114.295.128.38 1.087.208 1.408-.238.446-.66.457-.927.025zm-.58-6.227a.85.85 0 0 0 .836 1.38c.02-.003.04-.017.06-.023l.142.243c-.168.26-.403.396-.68.48-.482.14-.908.01-1.25-.35-.515-.54-.545-1.422-.084-2.046.117-.157.266-.277.423-.385.188.23.376.458.554.7zm-1.684-1.946c.268.262.53.53.78.812-.442.36-.78.857-.902 1.417-.328 1.5.993 2.73 2.457 2.29.274-.08.49-.243.673-.437.125.232.253.456.37.698-.645.594-1.598.84-2.63.514-.76-.24-1.397-.668-1.838-1.34a.45.45 0 0 1-.012-.394c.274-.48.275-.945-.085-1.364-.137-.163-.16-.295-.095-.476a3.653 3.653 0 0 1 1.284-1.72zm-1.297-.82c.19.16.316.397.44.617.034.058-.03.195-.082.27-.1.145-.222.272-.298.358l-.952-.533c.036-.164.072-.357.123-.546.074-.265.517-.385.767-.167zm-1.8-1.533c.48.277.94.577 1.383.902-.125.025-.252.05-.376.07a.338.338 0 0 1-.197-.02c-.274-.128-.544-.27-.832-.413.026-.207.032-.38.024-.54zm-.527.14c-.042.408-.248.627-.876.908-.168-.226-.336-.432-.486-.653-.034-.053-.044-.186-.01-.21.237-.2.47-.435.743-.56.36-.17.676.114.63.514zM50.316 46.4a.132.132 0 0 0 .012-.02c.274.098.548.2.81.31a5.95 5.95 0 0 1-.5.61c-.02.027-.23-.06-.3-.14a.713.713 0 0 1-.186-.393c-.006-.11.098-.23.164-.368zm-.717-.268c-.115.244-.268.32-.5.094-.217-.055-.278-.176-.264-.32.26.07.513.147.762.226zm-1.58-.43c-.01 0-.023.01-.03.008a1.922 1.922 0 0 1-.103-.037l.13.03zm-1.34-.278c-.12.084-.287.094-.507.023-.048-.015-.115-.064-.12-.103v-.022c.21.034.422.066.625.102zm-1.29-.21c.002.035.007.068.005.1-.01.102-.107.232-.2.287-.138.077-.31.1-.52.16-.076-.233-.155-.44-.21-.645.31.033.628.06.925.1zm-2.094-.013c.193-.15.367.023.496.185.406.523.37.662-.39 1.145-.13-.29-.3-.54-.346-.813-.025-.16.103-.407.24-.516zm-1.014 6.42c-.123.013-.336-.127-.375-.242-.038-.106.062-.323.168-.406.188-.143.423-.236.65-.322.056-.025.183.022.22.078.116.174.205.365.36.66-.38.09-.698.203-1.023.233zm1.476.2c.37.22.426.375.24.69-.21.364-.587.51-.942.308-.19-.12-.153-.323-.03-.535.197-.337.56-.56.73-.462zm-2.264-2.362c.32-.12.675-.156 1.05-.23.05.285.09.51.145.804-.375.064-.708.155-1.04.156-.135.003-.36-.17-.386-.296-.027-.13.11-.387.23-.433zm-.115-1.285c.044-.136.217-.298.354-.317.204-.027.424.055.638.09.24.135.29.307.228.548-.07.273-.28.155-.427.147-.185-.013-.384-.042-.538-.126-.12-.066-.28-.262-.254-.34zm1.383-.537c-.256-.23-.514-.415-.696-.65-.083-.108-.087-.42-.01-.477a.607.607 0 0 1 .528-.058c.512.246.555.515.178 1.185zm-4.535-2.592c.04.15.09.3.114.457.185.135.356.28.513.434.056-.25.14-.494.254-.727.04-.08.087-.156.132-.233a26.7 26.7 0 0 1 3.464-.01c-.122.188-.205.453-.252.807-.805.08-1.33.6-.944 1.51-.842.563-.888.775-.347 1.72-.368.22-.52.554-.47.976.05.458.374.67.766.804-.295.684-.16 1.24.953 1.454-.096.428-.01.804.377 1.07.38.258.78.18 1.182.042.138.543.47.806.995.82.51.01.845-.277 1.097-.71.477.448.982.533 1.544.258.606-.297.925-.773.918-1.457-.005-.235-.02-.474.017-.702.04-.23.136-.455.22-.723.343.223.625.276.858.002a.508.508 0 0 0 .037-.65c-.248-.374-.582-.244-.92-.12 0-.143.004-.26 0-.375-.046-1.42-1.438-2.447-2.752-2.03-.646.203-1.043.882-.854 1.45.11.33.438.582.767.58.326 0 .556-.163.685-.46.135-.305.04-.617-.252-.876-.043-.036-.084-.074-.21-.187.262-.022.443-.07.614-.045a1.647 1.647 0 0 1 1.355 2.17c-.345.997-1.11 1.522-2.12 1.685-.97.154-1.727-.242-2.254-1.048a3.86 3.86 0 0 1-.482-1.05c-.53-1.88.51-3.5 2.435-3.81 1.2-.19 2.31.08 3.327.73 1.213.776 2.054 1.88 2.684 3.15 1.346 2.71 1.718 5.51.506 8.364-.458 1.082-1.096 2.044-1.9 2.82a10.436 10.436 0 0 0-1.793-.51 7.795 7.795 0 0 0 1.868-1.647c.39-.475.74-.97.876-1.588.146-.68-.1-1.264-.66-1.56-.573-.3-1.152-.218-1.59.38a9.18 9.18 0 0 0-1.06 1.85c-.434 1.03-1.053 1.84-1.9 2.39a19.484 19.484 0 0 0-4.43.52c-.548-.15-1.087-.36-1.62-.6-.03-.014-.042-.066-.118-.198.207.064.326.09.434.134 2.08.834 4.905.05 6.214-1.76a2.87 2.87 0 0 0 .484-1.034c.047-.202-.088-.508-.243-.676-.194-.217-.516-.19-.75-.023-.222.158-.44.36-.578.592-.24.402-.41.843-.615 1.266-.262.55-.65.993-1.23 1.195a4.522 4.522 0 0 1-2.74.093c-.122-.034-.238-.105-.356-.156l.02-.104.78.017c.873.013 1.714-.098 2.403-.708.35-.304.597-.67.61-1.147.004-.3-.103-.56-.41-.673a.716.716 0 0 0-.834.3c-.166.27-.176.555.024.82.07.09.158.163.26.264-.765.65-1.64.65-2.534.57l-.145-.868c1.235-.044 2.113-.576 2.29-1.853.19-1.38-.533-2.21-1.728-2.615.06-.41.187-.793.15-1.16-.08-.844-.627-1.383-1.382-1.677-1.154-.443-2.304-.337-3.42.174-.268.123-.534.254-.8.382.04-.122.115-.196.174-.28.42-.606.9-1.18 1.24-1.83.463-.878.135-1.637-.78-2.033-.223-.093-.46-.16-.733-.25.18-.66.155-1.246-.068-1.75a32.81 32.81 0 0 1 2.634-.34zm6.478 7.583c.035-.072.173-.146.26-.142.195.004.385.062.592.1.007.09.022.172.02.25-.01.313-.037.64-.405.725-.17.036-.436.014-.542-.096-.252-.268-.047-.57.076-.838zm1.63.016c.003-.068.08-.155.144-.193.49-.263.988-.51 1.515-.783-.02.264-.016.572-.078.862-.09.43-.383.685-.816.77a.644.644 0 0 1-.764-.66zM28.12 49.985c.193-1.02.486-2.01.997-2.917.683-.24 1.353-.45 2.018-.647.377.436.427.418 1 .07.504-.308.993-.303 1.483.033.483.33.647.786.563 1.345-.025.17-.09.34-.146.504-.07.193-.002.264.19.257.127-.006.26-.01.388 0 1 .09 1.6 1.067 1.106 1.943-.374.667-.9 1.25-1.373 1.862-.157.202-.37.363-.536.56-.337.4-.753.607-1.313.554.072-.444.063-.884.424-1.27.35-.37.59-.845.86-1.282.05-.08.03-.206.046-.31-.095.063-.217.11-.276.195-.322.473-.627.956-.952 1.457-.242-.22-.255-.396-.11-.623.283-.444.547-.904.808-1.36A.68.68 0 0 0 33.37 50c-.38.125-.426.51-.61.773-.2.29-.348.61-.54.95a61.844 61.844 0 0 0-.55-.372c.18-.323.365-.634.53-.95.205-.4.398-.8.582-1.206.033-.074-.006-.183-.013-.278-.078.057-.184.097-.224.17-.328.623-.637 1.257-.968 1.878-.204.382-.22.375-.725.318l.65-1.958c.024-.067.07-.13.073-.197.004-.103-.022-.204-.035-.306-.07.064-.16.12-.2.2-.07.13-.117.28-.165.424-.12.356-.255.708-.342 1.073-.162.666-.52 1.182-1.116 1.54l.988-3.456c.005-.02.02-.044.02-.064-.016-.134-.033-.265-.047-.4-.074.107-.176.202-.21.32-.282.945-.548 1.892-.824 2.837-.032.11-.076.215-.143.395-.277-.67-.757-.946-1.44-.95.02-.27.016-.514.062-.753zm.26 1.34c.39.08.667.387.65.878-.014.51-.12 1.017-.203 1.52-.01.068-.132.154-.208.162-.373.037-.746.047-1.177.07-.166-.69-.312-1.382.025-2.072.217-.438.55-.633.912-.558zm-6.87-.96a68.004 68.004 0 0 1 5.607-2.546c.106.45.193.905.282 1.36.074.38.07.776.167 1.147.125.47-.043.76-.5 1.013-.392-.715-.78-1.433-1.18-2.144-.06-.103-.164-.18-.247-.267a.95.95 0 0 1-.108.083c.04.106.073.217.127.312.36.658.71 1.323 1.102 1.963.174.278.21.5-.032.795-.157-.197-.327-.374-.447-.575-.485-.817-.955-1.644-1.44-2.463-.042-.07-.152-.103-.23-.15 0 .096-.034.208.01.283.295.52.607 1.033.912 1.545.128.22.255.444.4.702-.27.025-.496.065-.722.058-.073-.002-.17-.108-.216-.187-.322-.534-.63-1.074-.947-1.608a1.14 1.14 0 0 0-.213-.28c-.047-.043-.14-.047-.21-.067.004.083-.017.18.02.24.333.568.654 1.14 1.018 1.686.208.313.166.506-.244.712-.37-.514-.75-1.042-1.125-1.57-.04-.057-.053-.137-.104-.185-.072-.065-.17-.11-.256-.165.008.096-.02.214.027.28.395.565.78 1.14 1.215 1.676.18.225.206.39.026.657-.28-.25-.55-.49-.81-.732-.368-.348-.725-.706-1.1-1.043-.063-.06-.193-.046-.294-.068.038.086.055.196.118.256.65.613 1.327 1.195 1.95 1.83.186.192.23.528.34.797a2.63 2.63 0 0 0-.122.113c-.22-.125-.457-.223-.66-.375a70.393 70.393 0 0 1-2.068-1.636 6.963 6.963 0 0 1-.99-.98c.323-.157.646-.315.95-.47zm-7.737 5.502c.096.02.128.367.176.574.015.064-.017.14-.03.205-.15.73-.357.855-1.078.638-.068-.02-.157-.15-.147-.212.038-.275.11-.543.156-.745.12-.148.17-.27.253-.303.215-.084.463-.196.67-.154zm-.234-.71c-.35.185-.673.353-1.03.54-.1-.118-.225-.27-.357-.432.42-.256.837-.507 1.278-.777.04.236.076.477.11.67zm-5.11.15c-.28-.212-.55-.432-.835-.637.203 0 .406-.022.61-.032.087.065.176.125.26.195.23.187.07.317-.036.474zm1.76 1.007c0 .157-.023.28-.05.39-.35-.3-.696-.604-1.056-.895v-.017c.25-.063.47-.185.662-.15.16.033.296.242.416.397.048.06.03.18.028.273zm-.76-1.804a28.684 28.684 0 0 0 3.606-.744c-.963.946-2.39 1.24-3.607.743zm1.624 1.454a.55.55 0 0 1 .752-.23c.3.154.446.99.127 1.337-.144.16-.576.097-.864.05-.197-.03-.194-.832-.016-1.155zm.22 1.767c.89.06 1.783.14 2.674.23.066.008.156.02.19.065.23.3.444.61.685.947-.116-.017-.196-.02-.273-.04a22.113 22.113 0 0 0-2.49-.457c-.257-.25-.524-.494-.787-.742zm3.39 3.49c-.195-.22-.398-.434-.597-.65.247.05.496.09.743.146.03.007.055.04.08.06-.092.262-.14.392-.224.443zm.246-1.037a85.97 85.97 0 0 0-1.42-.24c-.26-.28-.53-.55-.796-.822a23.97 23.97 0 0 1 2.78.623c.147.044.293.1.465.157-.327.306-.63.355-1.03.282zm.957-2.536c-.23-.42-.12-.795.28-1.06.086-.06.172-.114.297-.195-.107-.126-.203-.223-.28-.332-.175-.26-.393-.508-.5-.795-.175-.45-.03-.885.36-1.152.334-.228.724-.38 1.102-.523.238-.087.33-.16.202-.417a1.835 1.835 0 0 1-.177-.64c-.003-.06.01-.107.014-.162a49.015 49.015 0 0 0 2.286-1.002c.21.05.422.114.63.198 1.18.48 2.15 1.275 3.102 2.1.032.027.05.075.09.14-.402.226-.65.546-.62 1.11-.65-.333-1.228-.628-1.81-.922-.032.043-.06.088-.092.127.086.085.157.19.257.243.474.257.963.49 1.432.756.174.1.32.263.474.4a2.44 2.44 0 0 1-.068.134c-.122-.02-.25-.02-.363-.062-.925-.335-1.847-.675-2.77-1.014-.067-.024-.138-.057-.205-.056-.07.004-.14.042-.207.066.04.06.074.152.13.17.3.106.606.176.907.28.636.223 1.267.457 1.91.686-.122.285-.263.296-.457.22a197.47 197.47 0 0 0-2.368-.878 4.283 4.283 0 0 0-.575-.165c-.066-.012-.146.055-.22.086.05.053.088.133.15.16.197.072.405.115.603.188.788.293 1.574.592 2.39.9l-.17.573c-.583-.15-1.153-.302-1.726-.446a3.555 3.555 0 0 0-.583-.106c-.087-.005-.182.073-.275.113.082.044.155.117.245.14.637.153 1.28.277 1.91.445.268.072.596.123.624.554-.83.024-1.595-.513-2.44-.306 1.107.48 2.412.303 3.487 1.144-.26.11-.48.272-.71.29-1.297.088-2.6.17-3.9.202-.74.02-1.443-.173-2-.712a2.004 2.004 0 0 1-.36-.474zm5.088 10.977c-.092-.107-.18-.217-.272-.324.19-.196.408-.366.616-.548l.09.04c0 .144.003.29 0 .433a5.12 5.12 0 0 0 .064.96c-.167-.188-.333-.37-.5-.562zm.363-2.35c-.176.146-.38.275-.596.355-.51.193-.854.026-1.068-.483-.07-.17-.13-.346-.208-.556l-.59.283c-.057.027-.112.042-.17.063-.114-.137-.23-.27-.344-.408a562.15 562.15 0 0 0-1.073-1.285c.143-.326.36-.63.58-.913.15-.197.145-.3-.05-.42a4.248 4.248 0 0 0-.18-.105c-.977-.548-1.088-1.864-.16-2.507a4.618 4.618 0 0 1 1.533-.666c.952-.232 1.926-.363 2.862-.532-.003.404-.008.763-.013 1.188-.35.172-.782.384-1.204.607-.083.042-.122.16-.18.242.103 0 .213.023.3-.01.218-.087.446-.172.63-.31.492-.362.95-.355 1.47.126l-2.424 1.215.068.13c.977-.403 1.965-.783 2.875-1.354-.902 1.07-2.167 1.667-3.286 2.447.036.058.07.11.108.167 1.01-.65 2.027-1.3 3.028-1.938.05.33.03.36-.233.57-.43.343-.854.693-1.28 1.044-.095.08-.176.178-.263.264l.086.115c.558-.415 1.114-.83 1.674-1.245.23.255.08.444-.06.583-.405.404-.84.78-1.252 1.18-.107.105-.164.26-.243.39.135-.06.293-.096.402-.19.503-.435.99-.887 1.534-1.38.156.038.23.14.075.365-.715 1.044-1.36 2.14-2.35 2.97zm1.68 1.277c.102-1.5.675-2.85 1.415-4.122.128-.218.53-.278.763-.39.13.357.262.68.362 1.01.03.094-.007.227-.056.32-.104.195-.244.372-.348.57-.025.045.02.137.037.203.06-.02.14-.03.175-.07.12-.16.237-.323.33-.5.126-.224.258-.242.44-.054-.195.51-.396 1.022-.58 1.537-.035.094 0 .21 0 .314.08-.077.194-.143.234-.24.2-.447.384-.904.564-1.365.09-.228.233-.336.527-.28-.142.643-.44 1.248-.414 1.924.398-.834.436-1.81 1.04-2.547a2.57 2.57 0 0 1 .126-.005c.033.236.133.492.08.705-.15.612-.364 1.21-.55 1.81a2.058 2.058 0 0 0-.096.608c.323-.152.316-.482.426-.737.116-.267.19-.552.268-.83.08-.294.145-.59.222-.913.34.086.514.257.505.6-.023.655-.032 1.313-.043 1.965 0 .108.01.212.083.322.24-.833.19-1.683.17-2.536.2-.017.39-.06.568-.037a.43.43 0 0 1 .292.203c.51.977.644 2.03.574 3.107-.022.31-.176.638-.35.903-.1.15-.37.265-.56.258-.256-.01-.51-.145-.758-.24-.136-.05-.267-.12-.448-.205-.074.34-.146.63-.205.924-.21 1.056-1.188 1.187-1.88.89-.244-.107-.416-.43-.558-.688-.257-.463-.24-.475-.724-.29-.583.222-.843.142-1.195-.378-.357-.526-.476-1.116-.432-1.742zm.516 3.85a2.56 2.56 0 0 0 .42-.173c.1-.055.2-.12.37-.225.183 1.183.896 1.81 2.014 1.994-.21.155-.42.313-.637.478a47.554 47.554 0 0 1-2.165-2.072zm3.382 3.117c-.28-.232-.56-.472-.84-.716a.49.49 0 0 1 .58-.154c.15.05.363.27.353.394-.02.158-.057.317-.095.476zm1.908 1.144a1.37 1.37 0 0 1-.102.253 32.93 32.93 0 0 1-1.072-.805.72.72 0 0 1 .51-.252c.504-.03.8.317.664.805zm10.65 4.958c-1.115-.21-2.2-.494-3.265-.842a1.02 1.02 0 0 0-.416-.52c-.32-.194-.71-.168-1.022.006a26.865 26.865 0 0 1-4.517-2.312c-.204-.45-.56-.66-1.042-.692l-.058-.04c.145-.575.323-1.12-.07-1.6-.43-.517-.986-.347-1.52-.173-.006-.907-.17-1.156-.97-1.44 1.512-.255 2.317-1.132 2.426-2.606.073-.01.11-.023.14-.02 1.32.29 1.986-.81 1.905-1.833-.027-.366-.036-.735-.055-1.173.127.083.198.138.273.18.64.34 1.247.758 1.92 1 .8.29 1.58.176 2.122-.61.028-.042.1-.067.167-.076a14.615 14.615 0 0 0 2.147 2.438 1.505 1.505 0 0 1-.228.56c-.17.26-.33.303-.604.21.005-.022.006-.05.02-.063.252-.27.362-.604.145-.893-.127-.173-.427-.277-.662-.295-.34-.023-.612.25-.702.628-.12.515-.04.995.395 1.335.427.334.914.364 1.394.124.46-.232.696-.627.81-1.096.39.313.79.603 1.208.865a2.7 2.7 0 0 1-.226 1.086c-.13.3-.304.586-.47.866-.206.355-.315.712-.136 1.105.17.373.514.5.825.248.245-.2.475-.463.614-.745a3.616 3.616 0 0 0 .38-2.022c.4.203.813.383 1.237.547.07.313.097.645.07.996-.093 1.395-.632 2.573-1.675 3.533-.366.334-.675.742-.965 1.146-.183.255-.105.55.118.77.218.217.496.31.773.16.25-.14.518-.3.697-.52 1.342-1.63 1.915-3.48 1.588-5.6-.015-.1-.05-.187-.07-.284.428.143.874.26 1.328.365.143.683.168 1.405.033 2.19a8.146 8.146 0 0 1-1.546 3.583c-.538.707-1.206 1.252-2.008 1.597-.17-.03-.343-.052-.513-.083zm1.367.22a6.544 6.544 0 0 0 1.104-.933c.347-.362.665-.75 1.022-1.154a6.66 6.66 0 0 1-1.366 2.174c-.254-.027-.51-.05-.76-.086zm1.34.147a8.25 8.25 0 0 0 1.94-3.87c.267-1.26.29-2.474.05-3.624.323.06.664.094 1 .136.51 2.428-.04 5.123-1.97 7.427a25.824 25.824 0 0 1-1.02-.068zm3.66.1c-.55.018-1.09.02-1.615.012-.145-.136-.147-.287.04-.52.404-.503.38-.52.96-.284.494.2.695.478.616.79zm-.88-1.656c.13-.313.24-.583.36-.848.025-.055.095-.14.134-.132.366.05.756.063 1.083.208.166.072.327.416.29.595-.036.182-.3.39-.505.445-.457.123-.893-.05-1.36-.267zm1.418 1.626a1.683 1.683 0 0 0-.13-.832c.236.014.513-.053.627.055.708.653 1.203.706 2.03.14.107.14.214.273.324.408-1 .114-1.94.185-2.85.228zm4.935-2.71c.015.464-.147.854-.533 1.128-.404.293-.82.274-1.183-.065a3.245 3.245 0 0 1-.385-.458c-.12-.155-.218-.328-.354-.54-.217.42-.52.62-.972.504a1.127 1.127 0 0 1-.834-.767c1.013-.815 1.088-1.353.28-2.106.4-.184.755-.41.816-.91.184.01.34.02.54.033-.032.29-.07.56-.08.824 0 .08.072.17.108.258.052-.074.136-.143.152-.223.04-.207.064-.42.066-.63.003-.25.1-.398.402-.44-.03.686-.068 1.34-.087 1.994-.007.097.06.2.095.3.055-.096.153-.19.16-.286.044-.635.066-1.27.107-1.9.01-.18.058-.353.086-.534.033-.007.07-.01.105-.02.074.16.194.314.22.48.105.73.182 1.464.277 2.195.014.102.076.196.115.29.05-.1.15-.206.143-.307-.035-.537-.095-1.072-.15-1.608-.013-.14-.04-.27-.063-.42.328.002.514.12.572.428.04.23.103.457.178.68.034.088.128.156.195.232.022-.09.078-.188.063-.27-.063-.31-.15-.613-.227-.924.216-.146.34-.092.416.145.113.35.232.693.37 1.03.042.108.148.19.226.285.007-.127.05-.263.014-.38a9.626 9.626 0 0 0-.35-.995c-.082-.2-.075-.338.093-.495.12-.11.187-.285.327-.506.146.37.29.674.382.993.11.392.194.798.258 1.2.138.86-.627 1.497-1.422 1.03-.046-.03-.102-.04-.196-.07.024.294.055.56.062.822zm21.493 1.872c-2.506-.46-5.014-.912-7.52-1.363l-1.47-.265a4.468 4.468 0 0 1-.6-1.018l.03.914-.057-.01a.872.872 0 0 0-.34 0l-.85.152.033-.96c-.182.437-.417.79-.642 1.07l-.633.114c-2.51.45-5.017.9-7.523 1.362-.477.087-.926.158-1.38.232.03-.07.076-.13.1-.207.085-.28.144-.564.223-.873.523.177.963.07 1.262-.4.13-.206.254-.43.313-.663.094-.367.132-.746.2-1.166.397.51.845.906 1.48 1.025.71.128 1.17-.188 1.445-.812 1.18.48 1.755.475 2.315-.07.815-.8.586-1.667.073-2.532 1.445-.083 1.918-1.335.697-2.6 1.437-.12 1.926-.764 1.406-1.877a3.06 3.06 0 0 0 .93-.523l.103-3.145a2.252 2.252 0 0 0-.994-.424c.27-.604.24-1.143-.26-1.59-.463-.416-1.04-.485-1.69-.515.412-.417.75-.81.723-1.376-.03-.598-.4-.94-.834-1.096.21-.476.485-.915.584-1.386.105-.516-.208-.96-.56-1.253.23-.3.42-.552.633-.832.28.205.584.28.896.17.19.596.372 1.214.543 1.863.202.764.382 1.594.552 2.495l-.02.104-.038-.186a.876.876 0 0 0-.154.662.865.865 0 0 0 .703.734l.007-.276c.08.053.163.095.255.12v.062c.04-.007.076-.025.114-.04.05.01.098.028.15.028.462 0 .856-.33.94-.783.066-.37.138-.71.208-1.056.033-.022.068-.04.1-.068.222-.21.267-.567.115-.908.07-.298.14-.602.212-.884a35.69 35.69 0 0 1 .63-2.117c.005-.004.012-.006.02-.01l.632.832c-.353.293-.666.736-.56 1.252.097.472.374.91.584 1.388-.438.156-.805.498-.835 1.094-.026.566.312.96.726 1.377-.65.027-1.23.1-1.69.515-.503.446-.533.985-.26 1.59a2.26 2.26 0 0 0-.994.424l.105 3.143c.255.216.564.394.93.527-.52 1.11-.03 1.753 1.406 1.874-1.222 1.264-.75 2.518.695 2.6-.51.865-.74 1.734.075 2.533.56.545 1.134.552 2.314.07.273.624.734.94 1.442.813.637-.12 1.085-.516 1.48-1.027.068.42.106.8.2 1.166.06.23.185.456.314.663.3.472.74.577 1.262.4.078.31.137.593.223.87.02.063.06.112.085.17-.192-.03-.377-.06-.572-.097zm1.663-.842c-.387-.275-.55-.665-.534-1.128.007-.26.038-.524.062-.822-.095.032-.15.042-.195.07-.797.47-1.56-.168-1.424-1.027.063-.404.147-.81.26-1.203.092-.318.235-.62.382-.994.14.22.206.395.328.506.168.155.175.292.093.493a9.692 9.692 0 0 0-.35.994c-.034.118.008.252.015.38.077-.095.184-.175.227-.284.138-.338.256-.68.37-1.028.075-.235.2-.292.417-.146-.08.312-.167.613-.23.923-.014.082.042.18.064.27.066-.076.162-.145.194-.232a4.91 4.91 0 0 0 .18-.68c.06-.307.245-.426.572-.427-.022.148-.05.282-.063.42-.056.536-.116 1.07-.15 1.607-.007.1.092.206.142.307.04-.093.103-.188.115-.29.096-.732.172-1.466.278-2.195.024-.168.146-.32.22-.48.035.007.07.012.105.02.03.18.076.353.087.533.04.634.062 1.265.106 1.9.007.097.106.188.16.286.037-.1.103-.203.1-.3-.022-.655-.06-1.31-.09-1.993.304.04.4.19.403.44.002.21.025.422.066.63.015.08.098.148.15.22.035-.085.108-.173.106-.255-.01-.266-.047-.532-.078-.823.197-.015.355-.025.54-.034.062.5.416.727.815.91-.81.754-.733 1.29.28 2.104a1.13 1.13 0 0 1-.835.767c-.45.117-.755-.082-.972-.502-.136.21-.233.383-.353.54a3.142 3.142 0 0 1-.386.456c-.36.34-.776.36-1.18.066zm4.403 1.634a44.833 44.833 0 0 1-2.85-.285c.11-.133.216-.267.32-.402.828.564 1.322.512 2.03-.143.115-.106.393-.04.63-.054-.14.337-.168.63-.13.883zm.054-1.41c-.205-.055-.47-.263-.506-.443-.036-.18.126-.524.29-.596.328-.143.72-.156 1.084-.207.04-.006.108.078.134.135.12.266.23.535.36.847-.468.216-.904.39-1.36.266zm1.975 1.49c-.483-.007-.978-.02-1.48-.046-.124-.336.08-.636.603-.85.58-.236.557-.218.962.286.228.288.176.45-.084.61zm1.255-.016c-1.96-2.268-2.564-4.928-2.12-7.346.044-.002.087-.004.13-.008.3-.025.582-.078.873-.117-.197 1.088-.162 2.23.088 3.416a8.245 8.245 0 0 0 2.078 4.006c-.345.02-.696.037-1.05.047zm1.642-.088a6.716 6.716 0 0 1-1.517-2.332c.358.404.677.79 1.023 1.154.41.432.86.795 1.353 1.09-.285.034-.57.065-.86.088zm11.64-3.825c.004-.035.005-.072.016-.11.067-.265.273-.406.545-.406.078 0 .15.01.228.02-.264.173-.525.336-.79.498zm1.415-.923a1.4 1.4 0 0 1-.43-.674c-.138-.487.16-.836.663-.804.422.02.593.353.854.687-.36.275-.723.538-1.087.79zm.826-1.888c-.534-.176-1.09-.346-1.52.173-.4.485-.21 1.04-.062 1.63-.522.017-.904.23-1.116.715-.097.226-.112.43-.073.62a25.888 25.888 0 0 1-4.116 1.95c-.316-.41-.894-.548-1.34-.28a1.04 1.04 0 0 0-.483.89c-.79.228-1.587.418-2.402.57-.3.057-.603.102-.903.147-.992-.318-1.785-.934-2.41-1.758a8.15 8.15 0 0 1-1.547-3.584 5.83 5.83 0 0 1-.016-1.908c.448-.078.878-.184 1.302-.296-.306 2.092.266 3.92 1.596 5.535.18.22.445.38.697.52.276.146.555.058.77-.16.225-.223.303-.516.12-.77-.292-.404-.602-.813-.966-1.147-1.043-.96-1.582-2.14-1.68-3.533a3.514 3.514 0 0 1 .014-.583c.44-.137.865-.305 1.28-.48.02.504.136 1.018.397 1.543.14.282.37.545.616.746.31.254.653.127.824-.25.18-.39.07-.75-.136-1.102-.166-.28-.34-.564-.47-.866a2.97 2.97 0 0 1-.177-.584c.47-.252.922-.534 1.356-.844.14.236.334.435.612.574.48.24.967.21 1.395-.123.436-.34.516-.82.395-1.336-.084-.35-.323-.6-.63-.617.45-.458.88-.954 1.284-1.494.5.41 1.117.44 1.75.21.672-.244 1.28-.66 1.92-1 .076-.04.146-.098.272-.18-.02.437-.028.806-.055 1.173-.08 1.024.585 2.125 1.905 1.833.03-.006.066.007.14.018.108 1.476.914 2.353 2.426 2.608-.8.283-.964.53-.97 1.44zm.82.67c-.11-.353-.22-.714-.26-1.08-.01-.122.202-.34.353-.392.345-.125.607.063.748.445.038.104.067.19.09.27-.31.263-.62.51-.93.756zm1.9-1.6c.006-.02.004-.04.01-.06.03-.1.188-.207.344-.26l-.353.32zm.88-.815a.972.972 0 0 0-.426-.074c-.616.036-.91.493-1.05 1.038l-.893-.668c1.118-.186 1.83-.813 2.015-1.995.17.104.27.17.37.225.443.24.928.38 1.348.025.313-.268.58-.618.778-.98.337-.63.437-1.332.42-2.046-.005-.146 0-.29 0-.435.03-.012.06-.027.09-.04.22.19.45.366.646.57.146.155.28.318.414.48a55.295 55.295 0 0 1-3.71 3.898zm4.07-4.32l-.083-.112a.61.61 0 0 1 .188-.01c-.036.04-.068.082-.103.122zm2.028-5.056c.248.316.5.653.64 1.024.128.34.073.663-.076.955l-.263.316c-.064.076-.13.15-.193.228-.338.24-.724.208-1.115.02-.186-.087-.373-.177-.588-.28-.078.21-.14.386-.21.555-.214.51-.556.677-1.067.48a2.13 2.13 0 0 1-.596-.354c-.99-.826-1.636-1.925-2.35-2.97-.156-.226-.08-.327.072-.363.544.49 1.032.944 1.536 1.38.11.094.268.13.402.19-.078-.132-.136-.286-.242-.392-.412-.4-.848-.774-1.252-1.18-.14-.137-.29-.326-.06-.58.56.414 1.114.83 1.673 1.243.026-.036.056-.074.084-.114-.087-.087-.168-.186-.264-.265a80.8 80.8 0 0 0-1.28-1.044c-.262-.21-.28-.24-.232-.57a784.42 784.42 0 0 1 3.027 1.938l.107-.165c-1.118-.78-2.383-1.375-3.284-2.447.91.57 1.9.95 2.876 1.355l.068-.13c-.806-.403-1.607-.806-2.426-1.215.52-.482.98-.488 1.47-.125.186.136.413.22.63.307.088.034.2.01.3.01-.058-.082-.097-.198-.18-.24-.42-.225-.853-.437-1.2-.608L103.35 59c.936.17 1.91.3 2.86.533.538.13 1.083.35 1.534.666.928.642.816 1.957-.16 2.505-.06.032-.122.07-.182.104-.19.12-.197.223-.045.417zm1.625-5.207c-.558.54-1.262.733-2.002.712a90.448 90.448 0 0 1-3.9-.203c-.227-.015-.45-.176-.71-.287 1.074-.84 2.38-.665 3.486-1.144-.844-.207-1.61.33-2.438.306.026-.432.354-.482.622-.554.63-.166 1.272-.29 1.91-.444.09-.022.163-.096.245-.14-.092-.04-.188-.12-.276-.113-.196.015-.394.06-.585.107-.572.144-1.143.295-1.725.446-.07-.23-.12-.402-.17-.573.816-.31 1.603-.607 2.39-.9.2-.073.406-.116.604-.19.063-.026.103-.106.15-.16-.074-.03-.154-.098-.22-.084a4.004 4.004 0 0 0-.575.165c-.794.29-1.583.58-2.37.877-.194.078-.336.067-.46-.22.645-.228 1.275-.46 1.91-.685.3-.104.607-.173.908-.278.055-.02.086-.113.127-.17-.067-.026-.136-.065-.206-.068-.067 0-.14.032-.204.056-.924.338-1.845.68-2.77 1.014-.116.04-.243.04-.364.062a2.843 2.843 0 0 1-.068-.135c.156-.137.3-.3.477-.4.47-.266.958-.5 1.43-.758.1-.053.173-.157.26-.242-.033-.04-.06-.084-.094-.127-.582.296-1.16.59-1.808.925.026-.565-.222-.885-.624-1.11.04-.065.06-.114.09-.14.95-.826 1.922-1.62 3.104-2.1.342-.137.69-.233 1.048-.274.59.28 1.21.56 1.853.834.03.126.045.262.03.408-.02.218-.08.443-.177.64-.128.258-.035.33.202.417.38.142.77.295 1.103.523.39.267.534.7.36 1.152-.107.288-.326.535-.502.795-.076.11-.172.206-.28.333.126.082.212.136.296.194.4.266.51.642.28 1.06a2.04 2.04 0 0 1-.362.475zm.668 5.13c-.01-.013-.015-.027-.026-.04.06-.032.102-.07.152-.105-.04.048-.082.098-.125.146zm.785-.907c.05-.11.094-.226.13-.35.02-.082.157-.167.253-.186.033-.007.068-.012.104-.02-.163.184-.324.37-.486.555zm1.09-1.237c-.177.03-.355.054-.532.09-.492.1-.492.1-.674-.42.023-.02.05-.053.077-.06a30.04 30.04 0 0 1 1.81-.348c-.227.245-.456.49-.68.738zm1.222-1.318a66.04 66.04 0 0 0-2.45.395c-.4.073-.703.024-1.028-.283.17-.058.317-.113.466-.157a23.976 23.976 0 0 1 3.81-.766c-.27.27-.538.538-.8.81zm1.397-1.41a22.618 22.618 0 0 0-3.486.554c-.077.02-.157.024-.273.042.24-.336.455-.647.686-.948.036-.044.126-.057.19-.064a66.498 66.498 0 0 1 3.615-.27c-.246.227-.492.453-.73.685zm1.352-1.264c-.318-.047-.478-.296-.48-.8 0-.094-.02-.215.03-.274.12-.154.255-.364.415-.396.193-.036.415.085.663.15.012.283.022.524.03.757-.218.188-.442.37-.657.563zm2.55-2.072c-.383-.113-.79.022-1.216.347-.087-.194-.357-.334-.088-.553.072-.06.15-.113.227-.17.105.012.21.033.316.045.296.033.59.04.883.044l.145.08c-.09.066-.18.14-.27.207z"/>
  <path d="M61.508 60.623c-.28.027-.527.226-.66.515-.156.343-.11.703.114.916.23.218.575.272.896.207a37.613 37.613 0 0 0-.35-1.636zm-10.685-6.307a.568.568 0 0 0 .74-.2.567.567 0 0 0-.192-.77.556.556 0 1 0-.546.97zm23.562-.096a.56.56 0 0 0 .215-.763.558.558 0 0 0-.764-.206.565.565 0 0 0-.19.77c.15.25.487.34.74.2zm18.267 21.436c-.28.04-.574.014-.86-.012-.085-.006-.23-.123-.224-.168.017-.1.1-.238.184-.267.307-.11.624-.207.947-.25.453-.067.844-.173.99-.687.115-.398-.057-.685-.315-.944-.247-.255-.57-.285-.834-.104-.257.176-.454.447-.66.69-.163.195-.286.423-.457.61-.06.068-.204.056-.308.078-.016-.108-.072-.246-.03-.325.108-.204.245-.4.403-.57.227-.24.366-.486.204-.816-.17-.35-.516-.57-.88-.522-.362.044-.677.19-.87.522-.24.404-.157.767.312 1.072.35.225.4.486.233.86-.45-.038-.695-.288-.835-.673-.133-.372-.313-.698-.77-.708a1.07 1.07 0 0 0-.972.642c-.17.432-.056.805.244 1.14.24.267.532.22.846.177.288-.04.584-.025.97-.035-.38.454-.785.51-1.21.54a.82.82 0 0 0-.778.69c-.06.398.148.79.51.954.576.26 1.322-.188 1.36-.814.042-.597.16-.76.66-.816 0 .43-.048.827-.307 1.192-.345.48-.323.932.03 1.234.285.246.734.293 1.052.104.327-.196.562-.696.476-1.03-.023-.086-.065-.196-.135-.237-.48-.278-.33-.71-.302-1.11.03-.015.063-.03.094-.05.102.18.264.347.287.535.077.596.49.87.974 1.043.51.187 1.083-.23 1.09-.78 0-.283-.05-.59-.167-.845-.148-.33-.488-.39-.954-.324zm-41.39-23.572c.026-.047.053-.095.08-.14-.07-.148-.108-.342-.224-.433-.18-.144-.417-.082-.48.14-.037.137.04.38.147.457.104.073.314-.006.48-.022zm23.162-.074c.108-.078.184-.32.146-.457-.063-.223-.3-.286-.48-.14-.115.092-.152.286-.223.433l.078.14c.164.017.373.096.48.023z"/>
</svg>