<?xml version="1.0" encoding="utf-8"?>
<!-- Generator: Adobe Illustrator 16.0.0, SVG Export Plug-In . SVG Version: 6.00 Build 0)  -->
<!DOCTYPE svg PUBLIC "-//W3C//DTD SVG 1.1//EN" "http://www.w3.org/Graphics/SVG/1.1/DTD/svg11.dtd">
<svg version="1.1" id="Layer_1" xmlns="http://www.w3.org/2000/svg" xmlns:xlink="http://www.w3.org/1999/xlink" x="0px" y="0px"
	 width="126px" height="126px" viewBox="0 0 126 126" enable-background="new 0 0 126 126" xml:space="preserve">
<path d="M87.345,33.856c-0.011-0.031-0.026-0.074-0.048-0.119c0.275-0.02,0.559-0.032,0.854-0.037
	c-0.002,0.003-0.007,0.005-0.009,0.009c-0.079,0.13-0.142,0.288-0.194,0.5c-0.021,0.082-0.024,0.165-0.028,0.247
	c-0.005,0.069-0.009,0.136-0.021,0.198c-0.026,0.132-0.131,0.189-0.219,0.108c-0.052-0.045-0.097-0.123-0.129-0.217
	c-0.038-0.114-0.071-0.231-0.104-0.349C87.414,34.083,87.382,33.97,87.345,33.856z M117.62,74.201
	c-0.161,0.242-0.324,0.487-0.488,0.734c-0.169,0.245-0.405,0.455-0.616,0.685c-0.411,0.479-0.966,0.825-1.52,1.196
	c-0.275,0.19-0.591,0.289-0.898,0.424c-0.324,0.111-0.603,0.275-0.978,0.33c-0.359,0.072-0.727,0.137-1.099,0.189
	c-0.167,0.021-0.412,0.063-0.518,0.059h-0.375c-0.251-0.001-0.504-0.002-0.757-0.004h-0.096h-0.024
	c0.047,0.004-0.479-0.041-0.271-0.024l-0.063-0.012l-0.254-0.048l-0.511-0.104c-0.693-0.111-1.332-0.42-1.986-0.699
	c-1.225-0.674-2.357-1.572-3.137-2.634c-0.826-1.038-1.48-2.151-1.977-3.3c-0.527-1.143-0.908-2.311-1.244-3.488
	c-0.321-1.179-0.547-2.374-0.706-3.57c-0.134-1.199-0.228-2.41-0.294-3.576c-0.141-2.4-0.208-4.75-0.465-7.033
	c-0.225-2.283-0.696-4.508-1.412-6.535c-0.707-2.029-1.584-3.842-2.48-5.277c-0.689-1.119-1.432-2.029-2.294-2.738
	c0.41,0.783,0.772,1.635,1.071,2.54c0.41,1.263,0.74,2.62,0.956,4.034c0.224,1.414,0.358,2.883,0.38,4.389
	c0.039,1.515-0.103,3.066-0.242,4.512c-0.311,2.913-0.674,5.723-0.658,8.285c0.002,1.281,0.115,2.482,0.362,3.564
	c0.24,1.084,0.651,2.021,1.198,2.785c0.555,0.756,1.243,1.341,1.949,1.762c0.704,0.424,1.409,0.692,2.002,0.896
	c0.6,0.171,1.086,0.321,1.424,0.38c0.339,0.08,0.52,0.123,0.52,0.123s-0.184,0.027-0.528,0.076
	c-0.347,0.054-0.858,0.105-1.524,0.104c-0.66-0.023-1.491-0.058-2.416-0.355c-0.926-0.269-1.981-0.767-2.9-1.636
	c-0.928-0.85-1.726-2.02-2.219-3.334c-0.506-1.311-0.813-2.741-0.949-4.191c-0.14-1.453-0.158-2.939-0.08-4.416
	c0.063-1.479,0.219-2.956,0.358-4.398c0.161-1.455,0.294-2.814,0.333-4.174c0.037-1.367,0.014-2.725-0.066-4.029
	c-0.111-1.81-0.346-3.508-0.705-5.02c-0.021,0.109-0.03,0.211-0.057,0.325c-0.041,0.173-0.09,0.345-0.131,0.519
	c0.48,1.5,0.71,3.178,0.729,4.903c0.02,2.464-0.327,5.06-1.058,7.652c-0.713,2.603-1.867,5.175-3.063,7.788
	c-1.19,2.615-2.393,5.309-3.198,8.16c-0.42,1.416-0.739,2.879-0.888,4.316l-0.031,0.537c-0.002,0.066-0.016,0.229-0.01,0.217
	l0.01,0.285l0.039,1.138c0.053,0.75,0.042,1.546,0.172,2.247c0.318,2.851,1.076,5.735,2.303,7.965
	c0.34,0.537,0.622,1.106,1.037,1.538c0.347,0.503,0.812,0.847,1.224,1.233c0.909,0.652,1.891,1.095,2.937,1.29
	c2.107,0.313,4.355-0.232,6.152-1.295c1.81-1.054,3.113-2.604,3.545-4.181c0.43-1.57,0.027-3.223-0.814-4.599
	c-0.163-0.366-0.445-0.661-0.673-0.976c-0.239-0.309-0.437-0.639-0.716-0.891c-0.532-0.521-0.979-1.068-1.488-1.461
	c-0.496-0.418-0.938-0.793-1.322-1.117c-0.414-0.301-0.766-0.558-1.051-0.766c-0.572-0.432-0.878-0.663-0.878-0.663l0.181-0.396
	c0,0,0.371,0.111,1.067,0.319c0.35,0.113,0.781,0.253,1.288,0.417c0.502,0.185,1.049,0.467,1.687,0.753
	c1.247,0.61,2.753,1.513,4.184,3.061c0.701,0.78,1.405,1.739,1.848,2.944c0.103,0.308,0.207,0.618,0.313,0.932
	c0.095,0.32,0.116,0.665,0.173,1.008c0.138,0.689,0.066,1.401,0.02,2.137c-0.243,1.428-0.764,2.887-1.636,4.128
	c-0.868,1.229-1.959,2.36-3.274,3.208c-2.576,1.73-6.026,2.656-9.537,1.86c-1.736-0.431-3.398-1.298-4.75-2.508
	c-0.625-0.646-1.271-1.282-1.728-2.036c-0.541-0.711-0.892-1.496-1.255-2.275c-0.204-0.385-0.302-0.793-0.438-1.191l-0.373-1.203
	c-0.16-0.812-0.281-1.625-0.416-2.432l-0.098-2.417c0.006-0.806,0.072-1.614,0.108-2.411c0.014-0.815,0.169-1.535,0.253-2.3
	l0.131-1.132l0.032-0.283c0.024-0.2,0.042-0.225,0.063-0.346l0.12-0.586c0.32-1.551,0.805-2.998,1.23-4.445
	c0.907-2.871,1.683-5.717,2.26-8.51c0.588-2.789,1.05-5.479,1.545-7.95c0.117-0.616,0.232-1.226,0.348-1.823
	c-0.846,1.645-1.747,3.27-2.723,4.856c-2.227,3.625-4.636,6.897-8.841,8.407c-2.553,0.916-5.156,1.427-7.857,1.264
	c-1.505-0.09-2.868-0.685-4.211-1.352c-1.334-0.661-2.698-1.32-3.897-2.216c-1.191-0.89-2.459-1.716-3.492-2.769
	c0,0-4.277-4.164-7.151-4.805c-2.872,0.641-7.15,4.805-7.15,4.805c-1.034,1.053-2.3,1.879-3.492,2.769
	c-1.249,0.931-2.601,1.724-3.897,2.366c-1.343,0.666-2.706,1.111-4.211,1.201c-2.701,0.163-5.305-0.348-7.857-1.264
	c-4.205-1.51-6.613-4.782-8.842-8.407c-0.787-1.281-1.518-2.591-2.219-3.911c0.427,0.12,0.71,0.396,0.826,0.847
	c0.074,0.294,0.237,0.498,0.486,0.65c0.132,0.081,0.265,0.159,0.394,0.243c0.291,0.19,0.458,0.455,0.466,0.807
	c0.005,0.277,0.001,0.555,0.001,0.805c0.006-0.013,0.026-0.051,0.042-0.091c0.193-0.507,0.219-1.03,0.175-1.565
	c-0.033-0.393-0.171-0.736-0.456-1c-0.598-0.553-1.278-0.794-2.008-0.841c-0.495-0.938-0.984-1.879-1.441-2.832
	c-0.406-0.847-0.762-1.719-1.095-2.6c0.014,0.024,0.02,0.053,0.037,0.075c0.231,0.303,0.557,0.269,0.704-0.084
	c0.064-0.154,0.091-0.325,0.146-0.485c0.087-0.257,0.241-0.369,0.514-0.366c0.384,0.005,0.722,0.143,1.001,0.402
	c0.165,0.152,0.306,0.332,0.444,0.485c-0.212-0.664-1.052-1.386-1.817-1.332c-0.361,0.025-0.67,0.161-0.917,0.426
	c-0.172,0.185-0.231,0.429-0.193,0.653c-0.139-0.373-0.281-0.744-0.408-1.121c0.013-0.006,0.028-0.004,0.039-0.011
	c0.424-0.276,0.89-0.402,1.396-0.403C9.65,44.8,9.256,44.748,8.857,44.853c-0.133,0.034-0.259,0.097-0.382,0.165
	c-0.16-0.495-0.31-0.994-0.452-1.494c0.098,0.024,0.196,0.043,0.292,0.074c0.067,0.023,0.139,0.095,0.169,0.161
	c0.102,0.219,0.273,0.276,0.484,0.159c0.059-0.031,0.151-0.048,0.211-0.024c0.68,0.269,1.33,0.596,1.917,1.037
	c0.939,0.708,1.608,1.599,1.812,2.781C12.99,48.189,13,48.68,13.07,49.159c0.107,0.724,0.359,1.377,1.048,1.751
	c0.544,0.295,0.813,0.765,0.942,1.344c0.127,0.574,0.111,1.148,0.016,1.727c0.04-0.081,0.074-0.162,0.097-0.246
	c0.358-1.31,0.278-2.609-0.106-3.896c-0.313-1.051-0.93-1.935-1.601-2.779c-1.145-1.442-2.506-2.611-4.25-3.283
	c-0.066-0.025-0.122-0.11-0.156-0.181c-0.087-0.177-0.276-0.276-0.411-0.163c-0.147,0.125-0.278,0.086-0.429,0.055
	c-0.073-0.016-0.146-0.029-0.221-0.042c-0.229-0.812-0.444-1.627-0.635-2.447c-0.005-0.02-0.005-0.036-0.01-0.056
	c0.567,0.571,1.134,1.143,1.702,1.713c0.374,0.375,0.818,0.607,1.349,0.696c0.286,0.048,0.573,0.138,0.84,0.255
	c0.567,0.251,1.036,0.65,1.438,1.114c0.409,0.474,0.781,0.978,1.16,1.458c0.003,0.007,0.006,0.013,0.009,0.02
	c0.001,0.006-0.004,0.014,0.002-0.006c-0.003-0.004-0.007-0.009-0.011-0.014c-0.516-1.441-1.4-2.629-2.549-3.623
	c-0.605-0.526-1.326-0.866-2.06-1.175c-0.668-0.28-1.334-0.563-1.964-0.916c-0.051-0.322-0.078-0.628-0.072-0.913
	c0.551,0.745,1.312,1.209,2.188,1.534c-0.168-0.231-0.342-0.434-0.475-0.66c-0.197-0.337-0.477-0.534-0.839-0.673
	c-0.274-0.105-0.554-0.262-0.763-0.465c-0.033-0.033-0.053-0.069-0.084-0.104c0.135-1.128,0.791-1.999,2.146-2.87
	c0.015,0.114,0.014,0.229,0.031,0.343c0.018,0.113,0.003,0.18-0.095,0.258c-0.235,0.187-0.21,0.568,0.063,0.651
	c0.246,0.075,0.277,0.241,0.328,0.429c0.034,0.12,0.063,0.243,0.111,0.358c0.049,0.12,0.039,0.207-0.05,0.314
	c-0.177,0.211-0.092,0.545,0.166,0.577c0.239,0.03,0.286,0.178,0.362,0.34c0.076,0.165,0.155,0.311,0.063,0.513
	c-0.072,0.155,0.029,0.347,0.188,0.369c0.266,0.039,0.324,0.243,0.437,0.414c0.158,0.239,0.314,0.48,0.475,0.719
	c0.062,0.092,0.131,0.178,0.197,0.266c0.02-0.079-0.001-0.13-0.027-0.178c-0.193-0.364-0.395-0.726-0.576-1.095
	c-0.04-0.083-0.037-0.205-0.014-0.299c0.049-0.197-0.019-0.381-0.2-0.461c-0.266-0.118-0.48-0.552-0.414-0.839
	c0.039-0.169-0.014-0.305-0.148-0.409c-0.335-0.26-0.309-0.673-0.435-1.022c-0.008-0.022,0.032-0.062,0.05-0.093
	c0.142-0.252,0.092-0.448-0.136-0.61c-0.063-0.045-0.129-0.128-0.135-0.199c-0.014-0.153-0.031-0.308-0.043-0.462
	c0.213-0.131,0.423-0.262,0.667-0.395c0.956-0.52,1.92-1.01,2.893-1.473c0,0.001,0,0.001,0,0.002c0-0.001,0.001-0.002,0.001-0.002
	c0.677-0.322,1.358-0.629,2.046-0.919c0.047,0.002,0.092-0.003,0.14,0.004c0.072,0.011,0.149,0.018,0.218,0.001
	c0.047-0.01,0.084-0.063,0.124-0.099c-0.029-0.022-0.058-0.052-0.087-0.071c4.376-1.8,8.955-2.893,13.861-2.729
	c3.973,0.133,7.818,1.094,11.665,2.009c2.126,0.505,4.249,1.019,6.362,1.573c0.645,0.17,1.277,0.244,1.905,0.268
	c0.628-0.023,1.262-0.098,1.906-0.268c2.112-0.555,4.237-1.068,6.362-1.573c3.846-0.915,7.691-1.876,11.664-2.009
	c2.579-0.086,5.064,0.187,7.48,0.715c0.06,0.037,0.119,0.074,0.179,0.112c0.524,0.331,1.082,0.474,1.701,0.438
	c0.104-0.006,0.215-0.001,0.324,0.003c0.707,0.203,1.409,0.425,2.104,0.67c0.121,0.075,0.242,0.153,0.365,0.242
	c0.396,0.29,0.78,0.607,1.153,0.913c0.159,0.131,0.317,0.261,0.476,0.388c0.005,0.014,0.013,0.025,0.022,0.033
	c0.019,0.014,0.042,0.019,0.065,0.015c0.022-0.005,0.042-0.021,0.052-0.041c0.007-0.013,0.009-0.029,0.008-0.045
	c0,0-0.001-0.001-0.001-0.002c0.002-0.019-0.012-0.042-0.026-0.06c-0.201-0.314-0.424-0.608-0.659-0.894
	c0.519,0.204,1.033,0.419,1.545,0.643c0.162,0.258,0.334,0.514,0.524,0.767c0.426,0.564,0.835,1.174,1.214,1.808
	c0.814,1.36,1.292,2.571,1.503,3.813c0.124,0.73,0.107,1.398-0.049,2.041c-0.244,0.992-0.529,2.038-1.086,2.962
	c-0.021,0.036-0.011,0.082,0.024,0.105c0.019,0.012,0.039,0.015,0.06,0.011c0.018-0.005,0.034-0.016,0.046-0.032
	c0.209-0.3,0.409-0.596,0.567-0.915c0.594-1.203,0.905-2.547,1.01-4.36c0.051-0.873-0.064-1.712-0.347-2.493
	c-0.26-0.723-0.707-1.348-1.37-1.906c-0.574-0.485-1.06-0.994-1.47-1.525c0.096,0.043,0.192,0.081,0.287,0.125
	c0.021-0.006,0.039-0.009,0.061-0.014c0.458-0.088,0.972-0.169,1.523-0.232c-0.029,0.08-0.043,0.168-0.023,0.268
	c0.033,0.164,0.088,0.336,0.167,0.511c0.201,0.448,0.408,0.896,0.614,1.339l0.212,0.459c0.002,0.008,0.003,0.015,0.007,0.02
	c0.017,0.033,0.053,0.049,0.087,0.041c0.031-0.007,0.065-0.034,0.074-0.076c0.151-0.782,0.45-1.406,0.912-1.907
	c0.125-0.136,0.134-0.373,0.132-0.606c-0.001-0.048-0.037-0.099-0.074-0.146c0.092,0.002,0.176-0.004,0.27,0
	c0.277,0.01,0.566,0.03,0.86,0.058c0.012,0.022,0.037,0.039,0.044,0.063c0.044,0.15-0.015,0.322-0.164,0.482
	c-0.085,0.092-0.186,0.169-0.292,0.25c-0.053,0.041-0.107,0.08-0.157,0.124c-0.569,0.471-0.911,1.117-1.074,2.031
	c-0.007,0.04,0.018,0.077,0.055,0.089c0.014,0.003,0.027,0.004,0.039,0.001c0.024-0.005,0.045-0.022,0.055-0.047
	c0.297-0.751,0.797-1.405,1.57-2.058c0.25-0.212,0.4-0.514,0.453-0.878c0.652,0.086,1.337,0.228,2.039,0.443
	c-0.689,0.052-1.326,0.289-1.877,0.729c-1.547,1.234-2.321,2.864-2.301,4.843c0.017,1.645-0.162,3.746-1.706,5.43
	c-0.028,0.03-0.027,0.077,0.003,0.106l0.047,0.048c0.019,0.02,0.046,0.027,0.072,0.021c0.011-0.003,0.022-0.008,0.033-0.017
	c0.106-0.093,0.215-0.185,0.324-0.276c0.234-0.197,0.476-0.402,0.706-0.613c1.189-1.098,1.706-2.466,1.535-4.067
	c-0.086-0.813-0.151-1.771,0.028-2.729c0.28-1.49,1.092-2.476,2.48-3.012c0.141-0.054,0.28-0.098,0.418-0.129
	c0.905-0.207,1.51,0.128,1.857,0.445c0.52,0.474,0.808,1.242,0.718,1.91c-0.071,0.538-0.37,0.866-0.836,0.951
	c-0.44,0.076-0.8-0.113-1.047-0.534c0.107,0.059,0.252,0.103,0.37,0.075c0.001,0,0.004-0.001,0.004-0.001
	c0.119-0.027,0.221-0.099,0.285-0.201c0.063-0.102,0.083-0.222,0.056-0.339c-0.056-0.237-0.305-0.392-0.548-0.336
	c-0.201,0.048-0.413,0.366-0.376,0.566c0.008,0.049,0.041,0.095,0.085,0.14c-0.003,0-0.006-0.001-0.009-0.001
	c-0.034,0.013-0.058,0.048-0.053,0.083c0.049,0.397,0.333,0.727,0.708,0.822c0.206,0.053,0.429,0.056,0.642,0.007
	c0.584-0.134,1.021-0.602,1.089-1.164c0.027-0.225,0.017-0.475-0.034-0.786c-0.06-0.37-0.184-0.689-0.354-0.964
	c0.281,0.171,0.561,0.353,0.848,0.532c0.425,0.343,0.88,0.678,1.266,1.094c0.821,0.787,1.489,1.76,1.988,2.798
	c1.033,2.089,1.283,4.41,1.395,6.665c0.111,2.268,0.127,4.539,0.445,6.814c0.273,2.276,0.77,4.561,1.499,6.743
	c0.705,2.241,1.52,4.349,2.306,6.362c0.821,1.975,1.81,3.832,3.008,5.073c0.581,0.662,1.223,1.055,1.82,1.407
	c0.318,0.118,0.61,0.299,0.943,0.34l0.24,0.068l0.119,0.037l0.018,0.006c0.222,0.014,0.441,0.027,0.66,0.04l0.375,0.024
	c0.144,0.018,0.141-0.019,0.219-0.021c0.117-0.02,0.234-0.027,0.356-0.027c0.118,0.026,0.269-0.072,0.403-0.093
	c0.131-0.052,0.301-0.036,0.418-0.112c0.24-0.133,0.527-0.205,0.734-0.408c0.109-0.093,0.246-0.15,0.344-0.264l0.301-0.331
	c0.844-0.893,1.268-2.243,1.485-3.448c0.198-1.23,0.139-2.369,0.024-3.313c-0.139-0.938-0.355-1.686-0.545-2.18
	c-0.199-0.506-0.305-0.775-0.305-0.775l0.338-0.275c0,0,0.229,0.208,0.658,0.598c0.416,0.408,0.98,1.079,1.509,2.07
	c0.501,0.99,1.027,2.297,1.173,3.92C118.896,70.217,118.784,72.193,117.62,74.201z M27.181,41.563c0,0.164,0.136,0.3,0.308,0.308
	c0.178,0.008,0.332-0.132,0.337-0.302c0.003-0.167-0.149-0.324-0.321-0.327C27.332,41.238,27.181,41.389,27.181,41.563z
	 M21.982,36.119c0.158,0.549,0.439,0.841,1.004,0.334c0.031,0.015,0.077,0.034,0.122,0.058c0.178,0.093,0.368,0.152,0.372,0.424
	c0.003,0.17,0.234,0.301,0.407,0.244c0.146-0.049,0.221,0.014,0.303,0.101c0.09,0.098,0.186,0.191,0.264,0.297
	c0.038,0.053,0.066,0.131,0.06,0.194c-0.028,0.273,0.017,0.35,0.295,0.446c0.161,0.056,0.292,0.479,0.189,0.609
	c-0.143,0.181-0.115,0.342,0.08,0.458c0.184,0.11,0.193,0.456,0.017,0.581c-0.167,0.117-0.21,0.294-0.071,0.43
	c0.102,0.1,0.086,0.186,0.053,0.295c-0.145,0.468-0.387,0.873-0.759,1.195c0.442-0.293,0.699-0.715,0.854-1.211
	c0.023-0.077,0.094-0.156,0.163-0.197c0.213-0.123,0.237-0.34,0.043-0.504c-0.13-0.109-0.151-0.49-0.035-0.605
	c0.209-0.206,0.176-0.393-0.092-0.508c-0.179-0.077-0.27-0.494-0.179-0.661c0.056-0.102,0.081-0.264,0.037-0.36
	c-0.041-0.088-0.211-0.191-0.294-0.169c-0.198,0.051-0.277-0.049-0.37-0.175c-0.062-0.083-0.148-0.148-0.199-0.235
	c-0.041-0.069-0.045-0.161-0.068-0.241c-0.038-0.127-0.043-0.301-0.129-0.364c-0.095-0.071-0.277-0.084-0.399-0.047
	c-0.21,0.063-0.608-0.12-0.652-0.341c-0.043-0.218-0.174-0.359-0.387-0.407c-0.209-0.046-0.371,0.041-0.494,0.213
	C22.073,36.031,22.018,36.081,21.982,36.119z M21.65,40.207c0.012,0.238,0.218,0.438,0.446,0.434
	c0.235-0.004,0.431-0.211,0.423-0.448c-0.008-0.23-0.199-0.417-0.429-0.418C21.858,39.773,21.639,39.989,21.65,40.207z
	 M22.109,42.073c0.703,0.324,1.386,0.206,2.033-0.158c-1.132,0.6-2.665,0.163-2.701-1.286
	C21.326,41.266,21.567,41.823,22.109,42.073z M20.051,41.647c0.165,0.09,0.312,0.188,0.472,0.249c0.089,0.035,0.2,0.01,0.301,0.012
	c-0.045-0.103-0.08-0.212-0.142-0.305c-0.031-0.048-0.107-0.084-0.168-0.092c-0.279-0.038-0.544,0.02-0.818,0.117
	c0.041,0.072,0.063,0.119,0.092,0.16c0.197,0.285,0.415,0.561,0.304,0.946c-0.01,0.034,0.038,0.084,0.059,0.126
	c0.054-0.03,0.149-0.059,0.151-0.093c0.013-0.177,0.032-0.364-0.009-0.533C20.244,42.035,20.136,41.849,20.051,41.647z
	 M16.293,42.672c0.316-0.132,0.473-0.437,0.602-0.756c0.088-0.217,0.208-0.465,0.389-0.591c0.689-0.48,1.765-0.069,1.997,0.733
	c0.144,0.494-0.001,1.041-0.347,1.313c-0.299,0.235-0.679,0.226-1.141-0.052c0.18,0.322,0.424,0.427,0.763,0.358
	c0.798-0.163,1.235-1.13,0.815-1.826c-0.355-0.59-0.889-0.882-1.577-0.814c-0.966,0.095-1.732,0.566-2.261,1.372
	c-0.468,0.714-0.544,1.521-0.416,2.351c0.015-0.021,0.019-0.042,0.018-0.064C15.086,43.773,15.375,43.055,16.293,42.672z
	 M19.991,40.573l0.003-0.003C19.993,40.571,19.992,40.572,19.991,40.573c-0.094-0.08-0.177-0.188-0.286-0.229
	c-0.063-0.023-0.202,0.039-0.244,0.104c-0.034,0.054-0.005,0.203,0.047,0.244c0.062,0.047,0.184,0.041,0.27,0.019
	C19.855,40.69,19.921,40.621,19.991,40.573C19.991,40.573,19.991,40.573,19.991,40.573c0,0.001,0,0.001,0,0.002
	c-0.158,0.235-0.317,0.471-0.442,0.658c0.306-0.063,0.464-0.268,0.442-0.658c0.001-0.001,0.001-0.002,0.002-0.003
	C19.994,40.57,19.991,40.573,19.991,40.573z M17.965,43.172c0.137-0.015,0.231-0.102,0.225-0.27
	c-0.006-0.158-0.11-0.242-0.259-0.242c-0.151,0.001-0.254,0.096-0.251,0.25C17.683,43.063,17.76,43.176,17.965,43.172z
	 M15.608,44.453c0.167-0.375,0.453-0.613,0.833-0.746c0.021-0.008,0.05-0.016,0.057-0.031c0.028-0.062,0.071-0.13,0.063-0.189
	c-0.005-0.031-0.105-0.07-0.161-0.066c-0.069,0.004-0.143,0.038-0.204,0.075C15.838,43.711,15.653,44.037,15.608,44.453z
	 M15.945,46.408c0.082-0.35,0.141-0.752,0.273-1.129c0.131-0.371,0.355-0.695,0.783-0.804c0.418-0.105,1.008,0.202,0.783,0.813
	c-0.02,0.055-0.045,0.119-0.033,0.171c0.02,0.087,0.047,0.202,0.11,0.239c0.064,0.038,0.217,0.03,0.259-0.019
	c0.104-0.122,0.213-0.271,0.237-0.424c0.087-0.543-0.308-1.039-0.856-1.116c-0.588-0.083-1.126,0.266-1.381,0.878
	C15.929,45.481,15.904,45.96,15.945,46.408z M16.854,46.966c-0.005,0.153,0.013,0.31,0.042,0.46
	c0.117,0.581,0.242,1.161,0.363,1.735c-0.008,0.004,0.01,0.001,0.015-0.009c0.267-0.604,0.636-1.119,1.192-1.5
	c0.119-0.082,0.17-0.294,0.205-0.457c0.016-0.07-0.069-0.201-0.143-0.24c-0.061-0.032-0.199,0.004-0.254,0.06
	c-0.105,0.106-0.186,0.242-0.254,0.377c-0.06,0.116-0.076,0.254-0.131,0.374c-0.074,0.162-0.237,0.193-0.329,0.062
	c-0.048-0.068-0.072-0.161-0.081-0.246c-0.021-0.212-0.021-0.427-0.042-0.639c-0.015-0.151-0.052-0.301-0.248-0.308
	C17,46.627,16.861,46.755,16.854,46.966z M17.727,49.6c0.459-0.667,1.082-1.127,1.793-1.493c0.336-0.173,0.523-0.493,0.608-0.858
	c0.116-0.501-0.136-0.928-0.614-1.068c-0.217-0.063-0.382-0.008-0.456,0.15c-0.087,0.188-0.014,0.441,0.163,0.545
	c0.069,0.04,0.148,0.063,0.221,0.101c0.408,0.22,0.438,0.612,0.057,0.873c-0.145,0.098-0.314,0.158-0.472,0.237
	C18.384,48.41,17.999,48.956,17.727,49.6z M20.811,42.61c-0.014,0.056,0.081,0.136,0.162,0.257c0.088-0.115,0.18-0.185,0.177-0.248
	c-0.003-0.067-0.099-0.13-0.153-0.194C20.93,42.485,20.828,42.538,20.811,42.61z M13.828,44.688c-0.055-0.083-0.104-0.17-0.163-0.25
	c-0.253-0.341-0.452-0.707-0.533-1.128c-0.114-0.593-0.145-1.179,0.153-1.739c0.152-0.285,0.131-0.599,0.014-0.88
	c-0.178-0.426-0.408-0.829-0.604-1.247c-0.127-0.271-0.289-0.544-0.336-0.831c-0.103-0.621-0.143-1.252-0.199-1.802
	c-0.029,0.279-0.106,0.658-0.104,1.037c0.008,0.868,0.039,1.736,0.091,2.604c0.089,1.512,0.527,2.902,1.495,4.096
	c0.047,0.059,0.094,0.115,0.142,0.173C13.799,44.709,13.813,44.698,13.828,44.688z M12.788,38.419c0.108-0.194,0.224-0.395,0.33-0.6
	c0.05-0.094,0.101-0.194,0.116-0.297c0.009-0.055-0.057-0.121-0.089-0.181c-0.054,0.031-0.124,0.05-0.16,0.096
	C12.743,37.742,12.706,38.086,12.788,38.419z M15.116,34.445c-0.33-0.312-1.003-0.339-1.399-0.086
	c-0.012,0.003-0.022,0.005-0.034,0.009c-0.008,0.005-0.016,0.011-0.023,0.017c-0.315,0.081-0.546,0.277-0.75,0.532
	c0.258-0.183,0.504-0.358,0.75-0.532c0.011-0.003,0.017-0.01,0.027-0.013c0.009-0.006,0.021-0.007,0.03-0.013
	C14.19,34.213,14.661,34.133,15.116,34.445z M14.297,41.361c0.098-0.934,0.345-1.801,1.007-2.515
	c0.239-0.258,0.334-0.604,0.314-0.965c-0.03-0.551-0.52-0.92-1.048-0.789c-0.074,0.019-0.168,0.083-0.191,0.148
	c-0.018,0.051,0.041,0.163,0.098,0.2c0.12,0.08,0.258,0.135,0.393,0.19c0.301,0.124,0.514,0.327,0.535,0.665
	c0.021,0.325-0.186,0.506-0.457,0.636c-0.337,0.162-0.627,0.386-0.834,0.702c-0.197,0.301-0.255,0.62-0.145,0.969
	c0.105,0.339,0.201,0.682,0.289,0.98c-0.012,0.034-0.002,0.015,0.002-0.006C14.272,41.506,14.289,41.434,14.297,41.361z
	 M11.721,50.964c0.027-0.165-0.103-0.224-0.287-0.225c-0.124-0.006-0.176,0.092-0.176,0.225c0,0.166,0.111,0.257,0.256,0.224
	C11.599,51.168,11.705,51.051,11.721,50.964z M12.031,48.325c-0.182-0.203-0.34-0.438-0.554-0.6c-0.15-0.112-0.375-0.134-0.57-0.173
	c-0.048-0.01-0.148,0.06-0.161,0.109c-0.014,0.051,0.036,0.139,0.084,0.182c0.05,0.045,0.132,0.084,0.197,0.08
	c0.406-0.027,0.703,0.161,0.945,0.469C11.992,48.37,12.012,48.348,12.031,48.325z M14.371,52.64
	c-0.137-0.787-0.563-1.366-1.283-1.698c-0.218-0.102-0.48-0.126-0.725-0.138c-0.085-0.005-0.177,0.135-0.266,0.208
	c0.079,0.07,0.151,0.154,0.241,0.207c0.058,0.034,0.143,0.024,0.216,0.032c0.344,0.033,0.648,0.167,0.926,0.366
	C13.858,51.887,14.148,52.233,14.371,52.64z M14.343,56.439c0.235-0.213,0.467-0.43,0.665-0.673
	c0.854-1.047,1.354-2.271,1.727-3.552c0.209-0.719,0.282-1.455,0.192-2.201c-0.085-0.705-0.37-1.322-0.796-1.89
	c-1.086-1.445-1.72-3.048-1.606-4.887c0.045-0.724,0.246-1.401,0.718-1.975c0.299-0.363,0.695-0.594,1.118-0.771
	c0.702-0.296,1.128-0.792,1.398-1.518c0.574-1.538,1.657-2.545,3.327-2.867c-0.063,0-0.112-0.005-0.161,0.001
	c-1.008,0.103-1.975,0.357-2.858,0.857c-1.952,1.105-3.146,2.771-3.587,4.972c-0.342,1.705-0.096,3.334,0.612,4.913
	c0.264,0.59,0.496,1.198,0.695,1.813c0.382,1.175,0.619,2.378,0.549,3.624c-0.035,0.623-0.172,1.222-0.454,1.785
	C15.457,54.919,15.01,55.749,14.343,56.439z M23.653,50.518c0.068-1.053-0.471-1.807-1.486-2.092
	c-0.726-0.203-1.437-0.145-2.111,0.181c-1.568,0.755-2.545,1.988-2.915,3.691c-0.382,1.749-1.033,3.338-2.582,4.406
	c0.011,0.017,0.021,0.033,0.031,0.051c0.356-0.188,0.718-0.365,1.067-0.565c1.228-0.703,1.933-1.752,2.102-3.166
	c0.097-0.813,0.24-1.619,0.57-2.377c0.537-1.233,1.451-1.964,2.798-2.158c1.949-0.281,2.639,1.515,2.227,2.614
	c-0.181,0.481-0.524,0.727-0.981,0.702c-0.45-0.024-0.756-0.294-0.887-0.779c-0.033,0.323,0.134,0.641,0.413,0.783
	c0.605,0.312,1.402,0.018,1.632-0.621C23.606,50.977,23.639,50.744,23.653,50.518z M21.882,51.137
	c0.187,0.001,0.337-0.147,0.336-0.332c-0.001-0.182-0.155-0.333-0.339-0.331c-0.147,0.002-0.363,0.206-0.37,0.352
	C21.503,50.951,21.723,51.135,21.882,51.137z M39.694,50.686c0,0-2.8-6.123-8.197-7.959c-2.191-0.745-4.468-0.664-6.407-0.312
	c-0.022-0.063-0.054-0.115-0.073-0.183c0.001,0.067,0.011,0.129,0.02,0.192c-0.257,0.048-0.507,0.099-0.751,0.155
	c0-0.025,0.001-0.046,0.001-0.071c-0.035,0.036-0.072,0.063-0.108,0.096c-2.363,0.558-4.031,1.433-4.031,1.433
	s1.048,2.279,3.087,4.473c-0.038,0.001-0.069,0.014-0.107,0.012c0.281,0.285,0.529,0.545,0.833,0.724
	c1.191,1.129,2.652,2.161,4.386,2.75C33.742,53.831,39.694,50.686,39.694,50.686z M68.844,32.037
	c0.027,0.154,0.111,0.285,0.235,0.371c0.121,0.084,0.269,0.114,0.418,0.086l0.024-0.004c0.3-0.069,0.48-0.351,0.42-0.655
	c-0.029-0.153-0.116-0.283-0.242-0.365c-0.123-0.081-0.273-0.109-0.43-0.076C68.978,31.46,68.791,31.743,68.844,32.037z
	 M67.492,34.947c0.426,0.359,0.898,0.609,1.405,0.74c0.58,0.151,1.119,0.072,1.599-0.238c-0.021,0.057-0.043,0.114-0.064,0.172
	c-0.104,0.27-0.213,0.548-0.271,0.835c-0.3,1.476,0.008,2.724,0.916,3.712c0.646,0.701,1.654,0.998,2.635,0.774
	c0.755-0.173,1.382-0.62,1.767-1.26c0.223-0.372,0.291-0.829,0.183-1.252c-0.103-0.409-0.353-0.748-0.704-0.957
	c-0.032-0.019-0.074-0.013-0.099,0.016c-0.025,0.028-0.024,0.07-0.002,0.101l0.107,0.131c0.396,0.471,0.516,0.977,0.352,1.5
	c-0.195,0.63-0.759,1.122-1.47,1.285c-0.298,0.068-0.601,0.073-0.901,0.018c-1.162-0.22-1.967-0.955-2.326-2.129
	c-0.456-1.486-0.067-2.852,1.186-4.171c0.002-0.003,0.014-0.013,0.049-0.021c0.035-0.009,0.08-0.011,0.122-0.008
	c0.269,0.026,0.456-0.111,0.442-0.325c-0.014-0.191,0.086-0.251,0.235-0.343c0.146-0.088,0.291-0.172,0.436-0.256l0.149-0.087
	c0.161,0.118,0.273,0.16,0.372,0.138c0.146-0.034,0.21-0.202,0.254-0.361c0.005-0.015,0.031-0.039,0.049-0.056
	c0.017-0.014,0.029-0.027,0.04-0.04c0.019-0.021,0.024-0.051,0.015-0.077c-0.009-0.025-0.033-0.045-0.061-0.05
	c-0.021-0.003-0.042-0.005-0.064-0.007c-0.041-0.003-0.083-0.006-0.112-0.021c-0.09-0.043-0.166-0.056-0.239-0.039
	c-0.09,0.021-0.155,0.082-0.231,0.153l-0.053,0.048c-0.209,0.188-0.471,0.33-0.725,0.469c-0.088,0.047-0.175,0.095-0.262,0.145
	c-0.018-0.009-0.038-0.021-0.063-0.025c-0.26-0.056-0.456,0.091-0.491,0.356c-0.01,0.085-0.053,0.18-0.109,0.248
	c-0.139,0.168-0.29,0.332-0.437,0.491l-0.178,0.194c-0.034,0.04-0.066,0.078-0.102,0.098c-0.629,0.36-1.226,0.507-1.832,0.455
	c-0.453-0.039-0.875-0.212-1.253-0.514c-0.798-0.633-0.675-1.597-0.295-2.286c0.098-0.177,0.228-0.343,0.353-0.505
	c0.059-0.075,0.117-0.151,0.173-0.228c0.022-0.031,0.02-0.073-0.007-0.1c-0.025-0.027-0.067-0.034-0.098-0.012
	c-0.363,0.236-0.654,0.621-0.888,1.177C66.604,33.757,66.997,34.531,67.492,34.947z M69.439,36.362
	c0.013-0.028,0.008-0.062-0.013-0.084c-0.021-0.023-0.055-0.027-0.084-0.022c-0.097,0.035-0.192,0.071-0.288,0.106
	c-0.207,0.077-0.424,0.157-0.637,0.219c-0.301,0.085-0.563,0.024-0.775-0.181c-0.093-0.09-0.219-0.166-0.348-0.207
	c-0.083-0.027-0.168-0.024-0.251-0.02c-0.033,0.001-0.066,0.002-0.097,0.002c-0.021-0.002-0.043,0.008-0.058,0.022
	c-0.015,0.016-0.022,0.036-0.021,0.059l0.004,0.094c0.003,0.082,0.007,0.162,0.016,0.242c0.006,0.048,0.031,0.087,0.052,0.117
	l0.016,0.023c0.256,0.423,0.712,0.581,1.242,0.408c0.225-0.072,0.436-0.18,0.621-0.274c0.025-0.014,0.051-0.026,0.076-0.038
	c-0.012,0.056-0.022,0.112-0.034,0.171c-0.06,0.299-0.122,0.608-0.156,0.928c-0.02,0.178,0.071,0.365,0.167,0.543
	c0.05,0.094,0.23,0.129,0.327,0.106c0.012-0.002,0.021-0.005,0.03-0.009c0.104-0.041,0.165-0.199,0.175-0.297
	c0.014-0.125-0.013-0.251-0.041-0.37C69.214,37.277,69.237,36.788,69.439,36.362z M67.746,38.391
	c-0.056-0.219-0.244-0.326-0.447-0.239c-0.09,0.04-0.149,0.124-0.207,0.206c-0.022,0.031-0.043,0.062-0.066,0.09
	c-0.018,0.019-0.023,0.047-0.017,0.071l0.028,0.112c0.006,0.026,0.024,0.047,0.049,0.055c0.036,0.014,0.073,0.03,0.11,0.047
	c0.095,0.042,0.192,0.086,0.295,0.076c0.014-0.001,0.028-0.003,0.04-0.006c0.078-0.018,0.142-0.063,0.183-0.13
	C67.761,38.595,67.773,38.495,67.746,38.391z M78.582,44.037c0,0-0.439-0.229-1.172-0.525c0.004-0.047,0.005-0.094-0.007-0.14
	c-0.058-0.222-0.285-0.359-0.516-0.307c-0.1,0.025-0.176,0.086-0.231,0.16c-2.191-0.783-5.92-1.691-9.424-0.499
	c-5.398,1.836-8.199,7.959-8.199,7.959s5.953,3.146,11.352,1.31C75.783,50.16,78.582,44.037,78.582,44.037z M78.725,33.574
	c-0.001-0.037-0.027-0.068-0.063-0.075c-0.496-0.096-0.959-0.037-1.367,0.175c-0.209,0.108-0.39,0.273-0.538,0.419
	c-0.077,0.076-0.075,0.264-0.02,0.358c0.051,0.086,0.198,0.095,0.313,0.087c0.013-0.001,0.024-0.003,0.037-0.006
	c0.063-0.015,0.132-0.056,0.185-0.109c0.375-0.391,0.831-0.642,1.392-0.772C78.7,33.643,78.726,33.611,78.725,33.574z
	 M77.887,34.713c-0.227,0.392-0.151,0.892,0.176,1.163c0.164,0.137,0.342,0.191,0.501,0.155c0.195-0.045,0.333-0.216,0.376-0.469
	c0.02-0.114,0.023-0.229,0.026-0.34c0.002-0.078,0.004-0.157,0.013-0.235c0.026-0.268,0.143-0.4,0.411-0.462
	c0.4-0.088,0.785-0.026,1.144,0.181c0.148,0.085,0.289,0.188,0.424,0.287c0.062,0.044,0.121,0.089,0.18,0.13
	c0.03,0.021,0.07,0.019,0.097-0.007c0.027-0.024,0.033-0.064,0.015-0.097c-0.407-0.688-1.552-1.305-2.417-1.038
	C78.412,34.108,78.095,34.354,77.887,34.713z M79.25,42.148c-0.009-0.03-0.035-0.05-0.066-0.053
	c-0.474-0.043-0.887-0.196-1.34-0.502c-0.133-0.09-0.309-0.119-0.435-0.13c-0.062-0.005-0.117-0.002-0.166,0.01
	c-0.107,0.024-0.16,0.085-0.186,0.131c-0.046,0.086-0.044,0.202,0.008,0.341c0.124,0.333,0.382,0.521,0.749,0.545
	c0.17,0.012,0.338,0.001,0.487-0.007c0.009-0.001,0.017-0.002,0.024-0.002c-0.019,0.028-0.035,0.058-0.053,0.087
	c-0.12,0.195-0.245,0.397-0.346,0.613c-0.042,0.087,0,0.188,0.04,0.287c0.016,0.035,0.03,0.072,0.04,0.104
	c0.006,0.024,0.023,0.042,0.045,0.052c0.016,0.006,0.031,0.007,0.046,0.004c0.009-0.002,0.017-0.006,0.023-0.01
	c0.035-0.021,0.078-0.042,0.122-0.062c0.123-0.057,0.239-0.11,0.252-0.21c0.061-0.45,0.325-0.761,0.731-1.117
	C79.251,42.21,79.26,42.178,79.25,42.148z M80.363,44.622c-0.005-0.02-0.018-0.036-0.033-0.046
	c-0.401-0.496-0.501-1.082-0.301-1.789c0.011-0.038-0.009-0.077-0.044-0.092c-0.035-0.016-0.077-0.004-0.097,0.03
	c-0.38,0.624-0.217,1.548,0.348,1.978c0.02,0.014,0.042,0.019,0.064,0.014c0-0.001,0.002-0.002,0.004-0.001
	C80.346,44.706,80.373,44.664,80.363,44.622z M80.701,41.557c-0.012-0.038-0.054-0.061-0.093-0.052
	c-0.918,0.21-1.556-0.069-1.949-0.854c-0.355-0.706-0.243-1.291,0.374-1.955c0.026-0.026,0.029-0.065,0.008-0.096
	c-0.02-0.029-0.057-0.04-0.092-0.029c-0.285,0.111-0.52,0.349-0.659,0.67c-0.191,0.442-0.187,1,0.013,1.494
	c0.328,0.815,1.138,1.227,2.015,1.026c0.115-0.026,0.231-0.063,0.344-0.11C80.697,41.636,80.714,41.595,80.701,41.557z
	 M81.589,36.904c0.019,0.016,0.042,0.021,0.064,0.017c0,0,0.001,0,0.002-0.001c0.022-0.005,0.04-0.019,0.052-0.038l0.047-0.089
	c0.019-0.035,0.009-0.077-0.023-0.1c-0.074-0.053-0.146-0.109-0.219-0.166c-0.173-0.134-0.353-0.271-0.553-0.361
	c-0.176-0.078-0.381-0.068-0.58-0.059c-0.042,0.002-0.083,0.004-0.123,0.005c-0.005,0-0.021,0.002-0.026,0.003
	c-0.09,0.021-0.195,0.146-0.198,0.233c-0.004,0.101,0.101,0.205,0.178,0.248c0.065,0.036,0.179,0.071,0.295,0.044h0.002
	C80.883,36.529,81.225,36.611,81.589,36.904z M81.607,39.481c-0.068,0.016-0.123,0.052-0.157,0.105
	c-0.044,0.069-0.053,0.164-0.026,0.274c0.044,0.194,0.195,0.302,0.367,0.262c0.026-0.006,0.054-0.016,0.079-0.027
	c0.115-0.056,0.222-0.239,0.214-0.371c-0.005-0.091-0.038-0.162-0.1-0.207C81.903,39.455,81.781,39.443,81.607,39.481z
	 M82.741,43.917c0.001-0.037-0.025-0.07-0.061-0.078c-0.035-0.009-0.073,0.011-0.089,0.044c-0.347,0.802-0.827,1.138-1.553,1.1
	c-0.039-0.001-0.072,0.027-0.08,0.065c-0.007,0.039,0.018,0.076,0.057,0.088c0.209,0.059,0.434,0.063,0.65,0.014
	C82.266,45.013,82.718,44.493,82.741,43.917z M82.01,43.358l0.52,0.175c0.014,0.006,0.031,0.008,0.044,0.003
	c0.047-0.013,0.069-0.053,0.061-0.095c-0.004-0.014-0.011-0.027-0.021-0.036c-0.136-0.266-0.379-0.391-0.687-0.356
	c-0.297,0.033-0.544,0.257-0.567,0.514c-0.015,0.135,0.067,0.351,0.189,0.417c0.079,0.041,0.194,0.037,0.277,0.018
	c0.045-0.011,0.129-0.036,0.181-0.093c0.095-0.102,0.073-0.296,0.058-0.438C82.06,43.424,82.037,43.389,82.01,43.358z
	 M85.437,42.445c-0.147-0.467-0.412-0.813-0.785-1.027c-1.07-0.613-2.229-0.651-3.611-0.108c-0.036,0.016-0.056,0.054-0.047,0.092
	c0.01,0.038,0.046,0.063,0.085,0.058c0.157-0.02,0.316-0.054,0.469-0.086c0.124-0.027,0.248-0.055,0.374-0.074
	c0.676-0.104,1.162,0.119,1.444,0.667c0.16,0.31,0.403,0.515,0.742,0.63l0.133,0.044c0.12,0.039,0.239,0.079,0.358,0.123
	c0.354,0.13,0.578,0.372,0.664,0.714c0.053,0.211,0.101,0.426,0.146,0.629l0.057,0.253c0.008,0.035,0.043,0.052,0.079,0.052
	c0.005-0.001,0.009-0.002,0.013-0.002c0.032-0.008,0.058-0.039,0.063-0.07c0.007-0.024,0.015-0.062,0.021-0.098
	C85.718,43.696,85.654,43.127,85.437,42.445z M82.395,39.755c0.03,0.016,0.06,0.033,0.09,0.052c0.075,0.046,0.153,0.093,0.241,0.12
	c0.071,0.023,0.147,0.008,0.216-0.006c0.021-0.004,0.042-0.007,0.063-0.01c0.348-0.046,0.697,0.009,1.068,0.164
	c0.456,0.19,0.85,0.478,1.206,0.878c0.019,0.021,0.048,0.031,0.075,0.025c0,0,0.001-0.001,0.002-0.001
	c0.039-0.003,0.068-0.052,0.059-0.094c-0.003-0.013-0.008-0.024-0.017-0.033c-0.364-0.853-0.997-1.381-1.881-1.565
	c-0.275-0.059-0.575-0.021-0.866,0.031c-0.096,0.021-0.154,0.121-0.213,0.219c-0.021,0.037-0.043,0.074-0.067,0.104
	c-0.014,0.019-0.019,0.042-0.013,0.063C82.361,39.725,82.375,39.743,82.395,39.755z M85.925,40.339
	c0.256,0.537,0.4,1.146,0.444,1.861c0.002,0.038,0.031,0.069,0.07,0.072c0.008,0.001,0.016,0,0.023-0.001
	c0.028-0.007,0.052-0.028,0.059-0.059c0.027-0.113,0.042-0.215,0.046-0.309c0.062-1.467-0.3-2.869-1.104-4.289
	c-0.628-1.109-1.56-1.939-2.474-2.67c-1.8-1.441-3.607-2.276-5.524-2.551c-0.042-0.007-0.104-0.057-0.167-0.132
	c-0.177-0.218-0.476-0.256-0.615-0.073c-0.087,0.117-0.208,0.135-0.363,0.137h-0.032c-0.092,0.001-0.184,0.007-0.276,0.013
	c-0.128,0.008-0.261,0.017-0.389,0.012c-0.077-0.004-0.173-0.042-0.238-0.097c-0.209-0.178-0.5-0.134-0.574,0.096
	c-0.036,0.11-0.093,0.135-0.205,0.16l-0.438,0.1c-0.041,0.009-0.067,0.051-0.058,0.093l0.007,0.03
	c0.01,0.041,0.052,0.066,0.093,0.058l0.076-0.018l0.238-0.054l0.107-0.026c0.133-0.03,0.216-0.027,0.306,0.075
	c0.067,0.077,0.247,0.041,0.281,0.033c0.088-0.021,0.141-0.053,0.162-0.098c0.045-0.093,0.103-0.116,0.153-0.128
	c0.045-0.011,0.099-0.012,0.155-0.013h0.04c0.206-0.004,0.449-0.006,0.686,0.018c0.056,0.004,0.133,0.051,0.173,0.104
	c0.161,0.209,0.331,0.223,0.444,0.197c0.081-0.02,0.162-0.063,0.24-0.134c0.041-0.037,0.121-0.067,0.16-0.062
	c0.907,0.138,1.673,0.352,2.345,0.651c1.309,0.585,2.174,1.421,2.646,2.556c0.113,0.27,0.205,0.556,0.296,0.832
	c0.074,0.235,0.153,0.479,0.245,0.713c0.233,0.601,0.659,1.431,1.641,1.705C85.195,39.307,85.615,39.688,85.925,40.339z"/>
</svg>
