<svg xmlns="http://www.w3.org/2000/svg" width="20.908" height="31.903" viewBox="0 0 20.908 31.903"><path d="M3.442 9.68c1.195-.92 5.024-3.75 7.547-4.253 1.396-.277 2.697-.23 3.697-.1-.905-1.938-1.936-5-3.232-5.267-1.725-.354-1.638.944-3.88 1.365-3.248.66-4.986 2.503-4.607 5.06l.474 3.196z"/><path d="M20.878 7.955c-.456-1.42-4.21-.203-5.327-1.218a2.363 2.363 0 0 1-.39-.512c-.974-.176-2.44-.314-4.013-.003-2.764.55-7.523 4.345-7.57 4.384l-.008-.01c-.075.04-2.046 1.087-3.19 2.33-1.167 1.27.507 3.45 2.893 1.776.088-.062.17-.112.26-.17-.6 1.504-2.1 5.038-3.39 5.937 1.135.38 3.282-3.722 3.282-3.722S1.44 21.8.45 22.432c.862.912 3.854-6.292 3.854-6.292s-2.3 6.73-3.315 7.982c.7.147 3.314-4.43 3.314-4.43S1.51 25.61.754 25.916c.338.81 1.47-1.523 1.47-1.523s-.257 3.125-1.3 3.84c.912.018 1.555-1.54 1.555-1.54S1.915 29.722.314 30.18c1.08 1.046 1.91-1.05 1.91-1.05s-.592 2.063.354 2.232c-.27-1.455.845-4.262.845-4.262s-.405 4.6.88 4.803c-.574-1.52.913-2.47.913-2.47s.238 2.2.88 2.1c-.372-1.085.574-5.448 1.015-6.26 0 0 .203-1.522.677-2.84.473-1.32.404-4.84.338-6.327-.054-1.184-1.09-2.814-1.514-3.432.287-.22.49-.445.565-.71 1.04-5.2 6.478-4.185 8.046-3.776-.166 1.445-.824 7.156-.942 7.716-.136.642-2.518 1.488-3.83 2.198-1.312.71-2.022 3.416-2.022 3.416s1.555-1.995 2.335-2.502c.777-.508 1.86-.542 1.86-.542s-3.585 2.47-3.722 3.044c.813-.406.98.136.98.136s-1.444 1.786-1.71 2.47c-.267.684-.657 1.148-.79 2.028-.138.88-1.05 4.06 0 4.635.033-2.808 1.183-3.99 1.183-3.99s1.15 1.284-.644 3.18c.98.405 3.01-3.384 3.01-3.384s.44 2.063-.912 3.754c1.387.137 3.18-4.6 3.18-4.6s.556 1.446-1.185 3.213c.98.102 1.658-1.15 2.03-2.367.37-1.218-.237-4.465.034-5.242.27-.778 1.082-1.252 1.59-2.3.432-.893.422-3.963.724-5.545l.02.133s4.92-4.262 4.464-5.683z"/></svg>