<svg xmlns="http://www.w3.org/2000/svg" width="25.13" height="28.967" viewBox="0 0 25.13 28.967"><path d="M3.248 12.764c-1.31 1.652-2.052 6.668-2.052 6.668S0 14.074 0 11.168s2.85-6.38 2.85-6.38-.912-1.142-2.28-.515C.683 2.165 4.843 1.595 6.838.683s7.58-.91 10.314 0c2.735.91 5.982 3.816 7.236 6.324 1.254 2.508.684 7.694 0 10.543-.684 2.85-2.85 8.26-4.217 8.262-.056-1.366-1.31-1.48-1.31-1.48s-.798 3.76-1.995 4.502c.115-1.084-.626-1.54-.626-1.54s-.742 2.68-1.426 1.255c1.14-1.825 2.052-7.18 2.052-7.18S3.42 14.36 3.248 12.763z"/></svg>