<svg xmlns="http://www.w3.org/2000/svg" width="27.468" height="31.386" viewBox="0 0 27.468 31.386"><path d="M20.99 23.118c-3.258 1.17-3.496-1.585-6.768-1.684-2.83-.087-5.012 2.33-7.236 1.933-1.013-.18-1.73-2.2-3.057-3.087-1.155.218.592 7.36 2.525 7.298 4.21-.063.874 3.71 7.858 3.806 6.988.093 2.527-3.743 7.237-4.21 2.214-.313 3.12-6.426 2.12-7.175-1.472.654-1.837 2.815-2.68 3.118zm-10.635 1.965s1.246-1.563 3.23-1.563c1.982 0 3.6 1.563 3.6 1.563h-6.83zM23.61 6.962s.96 3.234 1.064 6.426c.1 3.006-.66 5.975-.6 6.08 1-1.81 3.06-.965 3.37-6.486.315-5.52-2.93-4.4-3.834-6.02zM2.793 13.138c.104-3.19 1.064-6.426 1.064-6.426-.905 1.622-4.148.5-3.836 6.02.313 5.52 2.37 4.678 3.37 6.487.062-.107-.697-3.077-.597-6.082zM8.016 3.688c2.4-.375 3.618 1.84 6.3 1.902 2.683.063.75-1.747 5.084-1.497.687.093 1.778-3.898-5.63-4.086C6.362-.18 7.548 3.75 8.016 3.687z"/></svg>