<?xml version="1.0" encoding="UTF-8" standalone="yes"?>
<svg xmlns="http://www.w3.org/2000/svg" viewBox="0 0 103.301 80.159">
  <path d="M47.602 59.16c-1.892 0-2.84 2.446-1.502 3.784l4.1 4.18c.828.83 2.173.868 3.003.04l4.1-4.24c1.337-1.338.39-3.766-1.503-3.766h-8.198z"/>
  <path d="M103.27 56.096c-.144-2.78-.77-5.77-1.86-8.892-1.64-4.698-4.394-9.76-7.637-14.063 1.197-4.1 1.62-8.24 1.26-12.324-.317-3.592-1.24-7.138-2.74-10.542-2.553-5.794-5.916-9.19-6.058-9.33L85.29 0l-1.295.315c-5.015 1.218-9.263 3.953-12.626 8.13-2.038 2.53-3.43 5.19-4.34 7.395-4.048-.987-7.977-1.56-12.977-1.71v.03h-4.998v-.03c-4 .15-8.832.724-12.88 1.71-.91-2.206-2.248-4.866-4.284-7.395C28.53 4.268 24.3 1.533 19.287.315L18 0l-.94.942c-.14.142-3.502 3.538-6.056 9.33-1.5 3.405-2.42 6.95-2.738 10.543-.36 4.085.064 8.225 1.26 12.326C6.283 37.447 3.53 42.51 1.89 47.206.8 50.325.173 53.315.03 56.095c-.167 3.237.32 6.2 1.445 8.81l2.28 5.29 2.113-5.36c.8-2.025 2.253-3.084 3.55-3.637-.012.953-.03 2.038-.05 3.064l-.113 5.706 4.13-3.94c2.733-2.607 6.59-3.057 11.464-1.336 2.355.832 4.415 2.06 5.722 2.887 9.21 6.445 18.09 12.58 18.09 12.58h6.075s9.35-6.456 18.812-13.088c1.25-.738 2.923-1.64 4.8-2.314 4.92-1.763 8.81-1.34 11.563 1.285l4.13 3.93-.114-5.708c-.02-1.026-.04-2.113-.05-3.066 1.296.553 2.75 1.61 3.55 3.637l2.11 5.36 2.28-5.29c1.13-2.612 1.615-5.576 1.448-8.812zm-67.963-8.262c0-1.75 1.423-3.172 3.172-3.172s3.17 1.423 3.17 3.172c0 1.75-1.423 3.172-3.17 3.172s-3.174-1.423-3.174-3.172zm29.617 3.172a3.176 3.176 0 0 1-3.172-3.172 3.176 3.176 0 0 1 3.172-3.172 3.176 3.176 0 0 1 3.172 3.172 3.176 3.176 0 0 1-3.172 3.172zm33.582 7.463c-2.782-2.244-6.005-2.57-6.858-2.618l-1.037-.056-.744.72c-.753.727-.753 1.467-.753 2.693 0 .205 0 .44.003.707a13.528 13.528 0 0 0-4.225-.968 290.33 290.33 0 0 0 2.216-1.62c3.04-2.24 3.296-6.69.542-9.27-7.867-7.38-23.16-18.905-31.407-5.44l.01 11.815s1.744 2.673 5.773 4.067c3.96 1.37 6.125 1.47-9.508 12.52a1.41 1.41 0 0 1-1.626 0c-15.633-11.05-13.47-11.148-9.51-12.52 4.03-1.395 5.773-4.067 5.773-4.067l.01-11.815c-8.246-13.464-23.54-1.942-31.406 5.44-2.754 2.583-2.497 7.03.542 9.27.692.512 1.43 1.052 2.206 1.615a13.53 13.53 0 0 0-4.318.974l.003-.71c0-1.226 0-1.966-.752-2.693l-.748-.72-1.037.056c-.853.047-4.076.374-6.858 2.616-.224-3.474.64-7 1.582-9.7 1.6-4.584 4.388-9.57 7.648-13.676l.343-.432c3.958-4.248 12.56-8.415 12.56-8.415-2.376-10.615-9.506-12.99-9.506-12.99-2.97 3.24-4.127 7.8-4.48 11.97a27.44 27.44 0 0 1 .05-3.88c.256-3.052 1.026-6.077 2.29-8.99 1.442-3.327 3.214-5.764 4.256-7.04 3.392 1.102 6.31 3.152 8.69 6.108 2.295 2.85 3.607 5.933 4.303 8.016l.724 2.16 2.19-.63a53.14 53.14 0 0 1 7.715-1.586c2.354 1.665 5.144 4.32 5.144 7.564 0 5.61.148 9.84 3.396 9.84 3.248 0 3.395-4.23 3.395-9.84 0-3.236 2.777-5.888 5.13-7.553a53.03 53.03 0 0 1 7.63 1.577l2.19.63.722-2.16c.696-2.085 2.008-5.167 4.303-8.017 2.38-2.957 5.3-5.008 8.694-6.11 1.02 1.246 2.74 3.606 4.18 6.876 1.29 2.928 2.082 5.97 2.354 9.044.096 1.085.124 2.175.09 3.27-.422-3.968-1.61-8.195-4.41-11.248 0 0-7.128 2.377-9.505 12.99 0 0 7.88 3.82 12.026 7.87l.773.978c3.26 4.107 6.048 9.092 7.65 13.677.942 2.697 1.806 6.224 1.582 9.697z"/>
</svg>