<?xml version="1.0" encoding="UTF-8" standalone="yes"?>
<svg xmlns="http://www.w3.org/2000/svg" viewBox="0 0 80.358 95.093">
  <path d="M22.717 26.965l6.24-5.878s-9.92-5.094-6.24 5.878zm36.673 0l-6.24-5.878s9.92-5.094 6.24 5.878zM38.92 12.463a14.442 14.442 0 0 1 2.517 0c1.278.11 2.455.39 3.345.8l1.847-3.997c-1.45-.67-3.26-1.09-5.194-1.22a19.336 19.336 0 0 0-2.516 0c-1.933.13-3.742.55-5.19 1.22l1.846 3.997c.89-.41 2.067-.69 3.345-.8z"/>
  <path d="M77.483 22.338a36.44 36.44 0 0 0-7.837-11.625A36.452 36.452 0 0 0 58.02 2.876 36.33 36.33 0 0 0 43.784 0h-7.21A36.34 36.34 0 0 0 22.34 2.875a36.44 36.44 0 0 0-11.625 7.837 36.44 36.44 0 0 0-7.837 11.625A36.33 36.33 0 0 0 0 36.575v51.572h4.403V52.854l3.323 2.177c.51-.775 1.234-1.473 2.062-2.09.003 1.27.07 2.47.203 3.608-1.637 1.542-3.14 3.592-3.9 6.262l4.234 1.208c.225-.787.554-1.5.95-2.147.546 1.375 1.242 2.586 2.087 3.63-.945 2.097-1.642 4.61-1.783 7.563l4.398.21c.08-1.71.4-3.328.95-4.85 1.495.757 4.147.618 4.147.618 2.102 10.057 9.555 25.34 9.905 26.055l4.072-1.646C33.036 87.22 32.84 76.76 33 69.374H47.36c.164 7.386-.035 17.845-2.047 24.074l4.073 1.645c.35-.715 7.803-15.998 9.904-26.054 0 0 2.652.14 4.148-.617.55 1.522.868 3.14.95 4.85l4.397-.21c-.14-2.954-.838-5.466-1.783-7.564.844-1.044 1.54-2.255 2.086-3.628.396.647.726 1.36.95 2.148l4.234-1.21c-.762-2.67-2.264-4.72-3.903-6.26.13-1.137.2-2.34.202-3.61.828.618 1.553 1.315 2.062 2.093l3.323-2.176V88.15h4.403V36.576a36.34 36.34 0 0 0-2.875-14.237zm-48.847 56.27c-1.57-4.133-2.957-8.4-3.486-11.695a102.514 102.514 0 0 0 3.59-2.07c-.045.984-.088 2.102-.123 3.32-.086 3.033-.117 6.688.02 10.444zm12.8-13.637h-8.29c.06-1.34.124-2.42.17-3.132a214.27 214.27 0 0 0 2.603-1.87c1.235-.895 2.224-1.612 3-2.092a6.27 6.27 0 0 1 .127-.078c.827-.5 1.1-.523 1.127-.524h.01c.026 0 .3.025 1.126.524.043.025.085.05.128.078.776.48 1.765 1.197 3 2.093.775.56 1.63 1.18 2.605 1.87.045.712.108 1.79.168 3.132H41.44zM51.723 78.61c.135-3.756.104-7.41.02-10.442-.035-1.22-.08-2.338-.124-3.32a93.258 93.258 0 0 0 3.59 2.07c-.53 3.294-1.92 7.56-3.488 11.692zm24.232-26.503c-1.52-2.036-3.776-3.538-5.893-4.6-.707-3.448-2.29-7.08-5.576-9.754a14.622 14.622 0 0 0-2.044-1.392 171.427 171.427 0 0 0 .122-3.283c1.303-.82 3.2-2.39 4.113-4.935.93-2.603.576-5.477-1.054-8.543-1.866-3.508-4.156-5.58-6.807-6.157-3.054-.666-5.285.954-5.53 1.14l2.676 3.5-.034.024c.036-.025.896-.615 2.004-.35 1.293.31 2.608 1.662 3.804 3.91 1.017 1.913 1.288 3.582.806 4.962-.707 2.024-2.857 3.027-3 3.09l-1.346.538v1.444c-.04 1.75-.11 3.805-.18 4.843l-.36 2.65-.018-.002c.02.003 2.152.348 4.23 2.113 1.308 1.11 2.592 4.115 2.548 4.105l-.503 2.143-.506 2.143c.606.145 1.57.433 2.664.858.057.613.09 1.247.097 1.904.005.392.002.775-.007 1.15-1.36-.702-2.364-1.024-2.48-1.06l-.655 2.102-.665 2.098c.03.01 1.527.502 3.217 1.624-.273 1.117-.64 2.11-1.097 2.973-2.148-2.745-4.324-4.09-4.497-4.196l-2.276 3.77-.01-.007c.016.01 1.62 1.013 3.238 3.054.15.19.294.38.434.573 0 0-7.01-2.966-10.935-5.693-1.316-.915-2.43-1.724-3.414-2.437-2.464-1.788-4.06-2.945-5.585-3.36a4.724 4.724 0 0 0-1.255-.174h-.005a4.73 4.73 0 0 0-1.255.17c-1.524.417-3.12 1.574-5.586 3.36-.984.715-2.1 1.524-3.414 2.438-3.926 2.726-10.933 5.692-10.933 5.692.14-.193.284-.384.434-.573 1.62-2.042 3.224-3.045 3.24-3.055l-.01.006-2.276-3.768c-.173.105-2.35 1.45-4.497 4.195-.457-.862-.824-1.856-1.097-2.973 1.69-1.122 3.186-1.614 3.216-1.624l-.663-2.1-.656-2.1c-.116.035-1.12.357-2.48 1.06-.008-.376-.01-.758-.006-1.15.01-.657.04-1.29.097-1.904a21.6 21.6 0 0 1 2.664-.857l-.505-2.144-.503-2.143c-.043.01 1.24-2.994 2.548-4.104 2.08-1.766 4.21-2.11 4.23-2.114l-.018.003-.36-2.65c-.068-1.038-.14-3.092-.178-4.843v-1.444l-1.347-.537c-.142-.063-2.293-1.066-3-3.09-.482-1.38-.21-3.05.807-4.96 1.196-2.25 2.51-3.6 3.804-3.91 1.107-.268 1.968.322 2.004.35a.608.608 0 0 1-.034-.027l2.675-3.498c-.243-.187-2.474-1.807-5.528-1.14-2.65.577-4.94 2.648-6.807 6.156-1.63 3.067-1.986 5.94-1.054 8.543.912 2.547 2.81 4.115 4.114 4.935.014.48.03 1.05.052 1.622.024.66.046 1.205.07 1.66-.658.372-1.35.83-2.044 1.394-3.286 2.673-4.87 6.305-5.576 9.754-2.117 1.06-4.374 2.563-5.893 4.6v-15.53c0-8.592 3.346-16.67 9.423-22.748 6.077-6.077 14.155-9.423 22.75-9.423h7.208c8.593 0 16.672 3.346 22.75 9.423 6.075 6.076 9.422 14.155 9.422 22.75v15.528z"/>
  <path d="M45.89 30.142a13.317 13.317 0 0 0-5.71-1.24 13.335 13.335 0 0 0-5.71 1.24c-2.2 1.015-3.95 2.22-5.2 3.577-.485.524-1.96 2.124-1.2 3.857.403.916 1.294 1.475 2.397 1.507l8.455.65 1.258.098 1.258-.097 8.455-.65c1.103-.034 1.994-.592 2.396-1.508.76-1.733-.716-3.334-1.2-3.86-1.25-1.357-3-2.56-5.2-3.576zm-4.453 5.277l-1.258.095-1.26-.097-4.546-.35a16.844 16.844 0 0 1 1.897-1.02 9.114 9.114 0 0 1 2.65-.77 8.64 8.64 0 0 1 1.258-.074c.42-.006.84.018 1.257.073a9.123 9.123 0 0 1 2.65.77c.7.325 1.333.664 1.896 1.02l-4.545.35z"/>
</svg>