<svg xmlns="http://www.w3.org/2000/svg" viewBox="0 0 97.553 82.173"><path d="M86.01 17.593c-2.053-1.54-3.992-2.994-5.416-4.572-1.31-1.45-3.23-2.79-5.743-4.016-2.78-2.825-5.39-3.124-7.49-3.363-1.61-.182-2.88-.326-4.454-1.597C57.86-.033 49.554-.01 48.776 0 48-.01 39.695-.032 34.65 4.044c-1.573 1.27-2.844 1.415-4.453 1.598-2.102.24-4.71.537-7.492 3.363-2.515 1.226-4.435 2.566-5.744 4.017-1.425 1.578-3.364 3.032-5.417 4.572-3.3 2.476-7.043 5.282-9.33 9.286-2.678 4.684-2.922 10.133-.746 16.66 2.43 7.287 7.105 17.702 15.587 25.93 8.69 8.43 19.362 12.703 31.723 12.703S71.81 77.9 80.5 69.47c8.482-8.23 13.158-18.643 15.587-25.93 2.175-6.526 1.932-11.976-.745-16.66-2.288-4.005-6.03-6.81-9.332-9.287zm-5.364 6.593c.49.894.66 1.84.686 2.662-1.482-.792-2.225-2.34-2.745-4.805.917.6 1.605 1.316 2.06 2.143zm-5.213-6.022zm-53.313 0zm-5.212 6.022c.454-.828 1.142-1.543 2.058-2.143-.52 2.464-1.262 4.012-2.745 4.805.026-.822.197-1.767.688-2.662zm60.077 41.66c-.214.208-.43.41-.646.613-1.125-1.19-2.758-1.854-4.368-2.09-2.108-.31-4.403-.06-6.253 1.06-1.076.65-1.695 1.635-2.32 2.69-.25.428-.518.865-.937 1.146-.523.35-1.17.403-1.78.426-1.388.052-2.76-.022-4.004.707-.942.55-1.552 1.535-1.706 2.603-.18 1.247.056 2.45.373 3.64-2.125.32-4.315.48-6.57.48-3.79 0-7.4-.45-10.82-1.346.016-.76-.136-1.526-.29-2.267-.225-1.072-.5-2.154-.94-3.16-.432-.98-1.2-1.844-1.918-2.625-1.663-1.807-3.764-3.566-6.112-4.38-2.247-.78-4.267.15-6.078 1.447-.61.436-1.216.88-1.857 1.238-.064-.062-.13-.12-.193-.183-7.75-7.52-12.062-17.15-14.313-23.904-1.72-5.156-1.61-9.147.34-12.56 1.19-2.084 3.01-3.838 5.004-5.46-1.002 3.552.09 6.734.146 6.892l.65 1.836 1.94-.16c3.825-.32 6.593-2.117 8.227-5.344 1.28-2.53 1.655-5.462 2.016-8.298l.084-.664c0-.007.002-.013.003-.02.234-1.816.533-3.916 1.21-5.07a2.49 2.49 0 0 1 .34-.464c1.57-1.634 2.755-1.768 4.55-1.972 1.933-.22 4.34-.493 7.055-2.687 3.103-2.505 8.92-2.96 10.894-2.92h.123c1.978-.038 7.793.415 10.897 2.92 2.716 2.194 5.122 2.468 7.055 2.688 1.795.204 2.98.34 4.55 1.972.122.13.236.285.34.463.677 1.155.976 3.255 1.21 5.07 0 .008.002.015.003.022l.085.663c.36 2.836.735 5.77 2.016 8.298 1.635 3.227 4.403 5.025 8.227 5.343l1.94.16.65-1.835c.056-.16 1.148-3.34.145-6.892 1.993 1.622 3.813 3.376 5.005 5.46l.005.01a12.2 12.2 0 0 0-1.346 1.56c-.978 1.375-1.206 3-1.257 4.646-.047 1.526.153 3.085.78 4.487a6.642 6.642 0 0 0 1.942 2.488c-2.31 6.713-6.59 15.983-14.102 23.27z"/><path d="M45.37 18.164h.035a1.75 1.75 0 0 0 1.75-1.75v-6.25a1.75 1.75 0 0 0-1.75-1.75h-.035a1.75 1.75 0 0 0-1.75 1.75v6.25c0 .967.784 1.75 1.75 1.75zM52.334 18.164h.035a1.75 1.75 0 0 0 1.748-1.75v-6.25a1.75 1.75 0 0 0-1.75-1.75h-.034a1.75 1.75 0 0 0-1.75 1.75v6.25c0 .967.784 1.75 1.75 1.75zM48.87 40.247h-.003c-19.61.003-35.047 9.804-35.047 9.804l.976 2.44c12.68-6.56 55.47-6.56 68.15 0l.975-2.44s-15.437-9.8-35.046-9.802h-.004zM34.234 33.857c.765.74 1.998.906 3.013.808 2.14-.207 3.752-1.93 3.42-4.125-.13-.853-.53-1.59-1.134-2.198-.155-.157-.526-.418-.557-.66-.07-.53-.03-.977-.28-1.474-1.003-2.005-4.796-3.892-6.934-2.45-.77.52-1.087 1.36-1.19 2.246-.267 2.268 1.678 3.828 2.538 5.713.318.695.514 1.55 1.124 2.14z"/></svg>