<?xml version="1.0" encoding="UTF-8" standalone="yes"?>
<svg xmlns="http://www.w3.org/2000/svg" viewBox="0 0 96.086 94.405">
  <path d="M37.29 47.652l2.03 4.555c.085-.038 8.71-3.793 17.392.007l2-4.568c-10.678-4.673-20.99-.187-21.423.006zm-1.643-9.772l2.024 4.558c.028-.01 2.67-1.16 6.563-1.714 5.103-.727 9.854-.15 14.122 1.72l2-4.57c-12.316-5.39-24.207-.216-24.707.007zm6.623-11.645c-5.582.824-9.32 2.47-9.475 2.54l2.03 4.556c.13-.056 13.216-5.753 26.382.01l2-4.57C56.92 26.02 49.68 25.14 42.27 26.237z"/>
  <path d="M95.632 23.61a19.323 19.323 0 0 0-2.636-14.656A19.33 19.33 0 0 0 80.77.454 19.327 19.327 0 0 0 66.11 3.09a19.582 19.582 0 0 0-2.874 2.246c-8.37-2.222-16.415-2.043-21.89-1.45-3.623.393-6.57 1-8.5 1.473C28.33 1.076 21.84-.97 15.313.452 4.83 2.74-1.837 13.128.45 23.61c1.733 7.946 8.12 13.7 15.677 15.023.64 3 .62 6.83.467 9.43A12.982 12.982 0 0 0 7.7 56.65c-.79.284-1.748.72-2.71 1.38-2.1 1.442-4.608 4.214-4.608 9.228 0 3.328 1.31 6.32 3.717 8.546-.5 2.16-.897 5.906.962 9.54 1.97 3.85 5.848 6.496 11.53 7.863 3.602.866 6.584 1.2 9.167 1.2 4.366 0 7.594-.952 10.755-1.883 3.25-.957 6.61-1.946 11.492-1.946 4.882 0 8.242.99 11.49 1.946 3.162.93 6.39 1.882 10.757 1.882 2.583 0 5.566-.333 9.17-1.2 5.68-1.365 9.56-4.01 11.528-7.862 1.858-3.634 1.462-7.378.964-9.54 2.406-2.228 3.717-5.218 3.717-8.546 0-5.014-2.506-7.786-4.61-9.228a12.04 12.04 0 0 0-2.934-1.46 12.985 12.985 0 0 0-8.666-8.45c-.156-2.596-.18-6.455.462-9.475 7.585-1.3 14.007-7.065 15.745-15.035zm-9.12 59.463c-1.276 2.496-4.053 4.274-8.255 5.285-8.396 2.02-12.545.797-17.35-.618-3.42-1.007-7.298-2.15-12.9-2.15-5.6 0-9.478 1.142-12.9 2.15-4.803 1.415-8.952 2.637-17.348.618-4.183-1.005-6.954-2.77-8.238-5.247-.8-1.54-.924-3.177-.823-4.507.703.267 1.44.487 2.2.662 1.045 2.152 3.295 5.577 7.277 6.43 0 0-.807-3.45-.85-6.004a26.195 26.195 0 0 0 2.057-.242c1.215 2.066 3.336 4.593 6.678 5.31 0 0-.945-4.043-.844-6.616a17.79 17.79 0 0 1 2.165-.23c.98 2.122 3.25 5.826 7.415 6.718 0 0-.687-2.937-.827-5.398 1.5.763 2.287 1.594 2.41 1.73l.705.873H57.74l1.155.044.74-.918c.12-.133.892-.946 2.354-1.7-.146 2.454-.827 5.37-.827 5.37 4.165-.894 6.435-4.6 7.416-6.72.68.027 1.4.098 2.163.223.104 2.573-.844 6.624-.844 6.624 3.345-.718 5.467-3.25 6.68-5.317.694.11 1.378.193 2.053.247-.042 2.555-.85 6.01-.85 6.01 3.974-.853 6.223-4.265 7.272-6.418a17.083 17.083 0 0 0 2.262-.677c.1 1.315-.02 2.937-.805 4.47zm-11.73-44.24c-.276 1.71-.422 3.652-.435 5.817-.007 1.104.022 2.13.063 3.013-3.064.29-6.424 1.52-9.237 3.415-3.864 2.6-5.99 5.957-5.99 9.448h4.985c0-1.754 1.38-3.69 3.79-5.312 2.374-1.6 5.444-2.632 7.82-2.632 4.38 0 7.944 3.563 7.944 7.944l.005.155c0 .02.07 1.73-.642 3.36l4.568 2a12.96 12.96 0 0 0 .96-3.587c1.366 1.117 2.033 2.693 2.033 4.805 0 2.185-.938 4.047-2.712 5.385-3.053 2.303-8.074 2.764-13.432 1.233-9.76-2.788-15.645 1.108-17.77 2.97h-17.45c-2.124-1.862-8.01-5.76-17.77-2.97-5.357 1.53-10.38 1.07-13.43-1.233-1.776-1.34-2.714-3.2-2.714-5.385 0-2.017.607-3.544 1.85-4.65.134.988.403 2.2.942 3.432l4.568-2c-.693-1.584-.646-3.235-.64-3.365l.003-.148c0-4.38 3.564-7.944 7.945-7.944 2.376 0 5.446 1.033 7.82 2.632 2.41 1.62 3.79 3.557 3.79 5.312h4.987c0-3.492-2.128-6.847-5.99-9.448-2.753-1.854-6.03-3.07-9.04-3.396.043-.887.072-1.92.065-3.034-.015-2.162-.16-4.103-.435-5.81a19.77 19.77 0 0 0 2.372-.367l-1.06-4.873c-7.795 1.7-15.52-3.257-17.222-11.053-1.7-7.795 3.257-15.52 11.053-17.22 7.796-1.702 15.52 3.257 17.222 11.053l4.872-1.063a19.4 19.4 0 0 0-2.18-5.613c1.58-.317 3.52-.64 5.726-.875 4.537-.484 10.99-.657 17.8.81a19.512 19.512 0 0 0-2.204 5.676l4.872 1.063c1.7-7.797 9.426-12.755 17.222-11.055a14.378 14.378 0 0 1 9.094 6.322 14.373 14.373 0 0 1 1.96 10.9 14.378 14.378 0 0 1-6.32 9.094 14.373 14.373 0 0 1-10.9 1.96l-1.064 4.873c.77.167 1.54.285 2.306.358z"/>
  <path d="M19.142 10.856c-4.844 0-8.785 3.94-8.785 8.785 0 4.846 3.94 8.787 8.785 8.787 4.844 0 8.785-3.94 8.785-8.785 0-4.843-3.94-8.784-8.785-8.784zm0 12.585a3.803 3.803 0 0 1-3.8-3.797c0-2.095 1.705-3.8 3.8-3.8s3.8 1.705 3.8 3.8c0 2.094-1.706 3.8-3.8 3.8zm66.342-3.798c0-4.844-3.94-8.785-8.785-8.785s-8.787 3.94-8.787 8.785c0 4.844 3.94 8.785 8.785 8.785s8.784-3.94 8.784-8.785zm-12.584 0c0-2.095 1.704-3.8 3.8-3.8s3.798 1.705 3.798 3.8c0 2.095-1.704 3.8-3.8 3.8s-3.798-1.706-3.798-3.8zM18.6 56.055c-5.44.997-2.373 6.975-2.373 6.975l11.8-1.49C26.2 55.39 18.6 56.054 18.6 56.054zm58.4 0s-7.6-.665-9.43 5.485l11.802 1.49S82.44 57.053 77 56.056z"/>
</svg>