<?xml version="1.0" encoding="iso-8859-1"?>
<!-- Generator: Adobe Illustrator 18.0.0, SVG Export Plug-In . SVG Version: 6.00 Build 0)  -->
<!DOCTYPE svg PUBLIC "-//W3C//DTD SVG 1.1//EN" "http://www.w3.org/Graphics/SVG/1.1/DTD/svg11.dtd">
<svg version="1.1" id="Capa_1" xmlns="http://www.w3.org/2000/svg" xmlns:xlink="http://www.w3.org/1999/xlink" x="0px" y="0px"
	 viewBox="0 0 494.247 494.247" style="enable-background:new 0 0 494.247 494.247;" xml:space="preserve">
<path d="M210.655,322.844c25.283-15.403,103.704-68.195,148.158-124.795c-35.167-6.178-92.562,13.739-153.043,44.758
	C121.411,291.832-1.069,376.223,0.007,389.633c0.273,3.381,6.596,7.286,17.17,11.031c9.415,3.325,19.756,2.82,28.803-1.423
	l33.959-15.922l-21.476,21.699c-0.907,0.916-1.229,2.266-0.819,3.495c0.403,1.229,1.463,2.121,2.74,2.313
	c44.646,6.855,106.518,7.914,159.327-8.041c11.014-3.335,19.964-11.498,24.263-22.167l17.04-42.236l-1.349,42.974
	c-0.033,1.214,0.569,2.355,1.591,3.006c1.02,0.65,2.313,0.714,3.398,0.168c9.512-4.829,18.655-10.108,27.373-15.746
	c9.005-5.841,15.128-15.208,16.847-25.806l8.749-53.788l8.982,46.461c0.242,1.229,1.117,2.226,2.307,2.619
	c1.181,0.385,2.483,0.095,3.398-0.747c36.668-33.905,59.172-72.476,59.124-100.813c48.944-46.461,82.8-101.559,102.587-153.364
	c0.619-1.607-0.056-3.423-1.558-4.242c-1.51-0.827-3.398-0.402-4.418,0.98C451.398,129.928,408.841,213.105,210.655,322.844z"/>
<g>
</g>
<g>
</g>
<g>
</g>
<g>
</g>
<g>
</g>
<g>
</g>
<g>
</g>
<g>
</g>
<g>
</g>
<g>
</g>
<g>
</g>
<g>
</g>
<g>
</g>
<g>
</g>
<g>
</g>
</svg>
