<?xml version="1.0" encoding="iso-8859-1"?>
<!-- Generator: Adobe Illustrator 17.1.0, SVG Export Plug-In . SVG Version: 6.00 Build 0)  -->
<!DOCTYPE svg PUBLIC "-//W3C//DTD SVG 1.1//EN" "http://www.w3.org/Graphics/SVG/1.1/DTD/svg11.dtd">
<svg version="1.1" id="Capa_1" xmlns="http://www.w3.org/2000/svg" xmlns:xlink="http://www.w3.org/1999/xlink" x="0px" y="0px"
	 viewBox="0 0 377.67 377.67" style="enable-background:new 0 0 377.67 377.67;" xml:space="preserve">
<g>
	<path d="M188.835,97.113c-50.576,0-91.722,41.146-91.722,91.722s41.146,91.722,91.722,91.722s91.722-41.146,91.722-91.722
		S239.411,97.113,188.835,97.113z"/>
	<path d="M277.394,0H100.276C44.984,0,0,44.983,0,100.275v177.119C0,332.687,44.984,377.67,100.276,377.67h177.118
		c55.292,0,100.275-44.983,100.275-100.275V100.275C377.669,44.983,332.686,0,277.394,0z M188.835,330.557
		c-78.146,0-141.722-63.576-141.722-141.722S110.689,47.113,188.835,47.113s141.722,63.576,141.722,141.722
		S266.98,330.557,188.835,330.557z"/>
</g>
<g>
</g>
<g>
</g>
<g>
</g>
<g>
</g>
<g>
</g>
<g>
</g>
<g>
</g>
<g>
</g>
<g>
</g>
<g>
</g>
<g>
</g>
<g>
</g>
<g>
</g>
<g>
</g>
<g>
</g>
</svg>
