<?xml version="1.0" encoding="iso-8859-1"?>
<!-- Generator: Adobe Illustrator 17.1.0, SVG Export Plug-In . SVG Version: 6.00 Build 0)  -->
<!DOCTYPE svg PUBLIC "-//W3C//DTD SVG 1.1//EN" "http://www.w3.org/Graphics/SVG/1.1/DTD/svg11.dtd">
<svg version="1.1" id="Capa_1" xmlns="http://www.w3.org/2000/svg" xmlns:xlink="http://www.w3.org/1999/xlink" x="0px" y="0px"
	 viewBox="0 0 406.237 406.237" style="enable-background:new 0 0 406.237 406.237;" xml:space="preserve">
<g>
	<path d="M100.988,46.682c-0.073,0.228-0.149,0.465-0.227,0.71l-6.097,19.271c-0.253,0.8-0.188,1.521,0.184,2.028
		s1.039,0.787,1.878,0.787h8.481c0.84,0,1.508-0.28,1.881-0.789c0.373-0.508,0.44-1.229,0.188-2.031l-6.063-19.266
		C101.136,47.146,101.061,46.91,100.988,46.682z"/>
	<path d="M309.511,336.76h-8.481c-0.84,0-1.508,0.28-1.881,0.789c-0.373,0.508-0.44,1.229-0.188,2.031l6.063,19.266
		c0.078,0.246,0.152,0.482,0.225,0.71c0.073-0.228,0.149-0.465,0.227-0.71l6.097-19.271c0.253-0.8,0.188-1.521-0.184-2.028
		S310.351,336.76,309.511,336.76z"/>
	<path d="M342.978,0H63.259c-11.028,0-20,8.972-20,20v366.237c0,11.028,8.972,20,20,20h279.719c11.028,0,20-8.972,20-20V20
		C362.978,8.972,354.006,0,342.978,0z M93.1,84.008c-2.078,0-4.448,1.738-5.073,3.719l-1.979,6.275
		c-1.029,3.262-4.514,5.817-7.934,5.817h-4.855c-1.802,0-3.36-0.735-4.274-2.018c-0.915-1.282-1.104-2.995-0.517-4.699L90.444,29.24
		c1.107-3.218,4.641-5.74,8.045-5.74h5.056c3.404,0,6.936,2.523,8.04,5.744l21.886,63.86c0.584,1.704,0.394,3.417-0.522,4.699
		c-0.916,1.282-2.474,2.018-4.275,2.018h-4.855c-3.42,0-6.905-2.555-7.934-5.817l-1.978-6.275c-0.625-1.981-2.995-3.72-5.073-3.72
		H93.1z M232.322,302.876c1.812,3.445-59.286,3.548-57.68,0.104c13.571-28.931,21.16-62.006,21.16-62.006
		c-8.21,7.589-23.88,17.587-36.934,17.587c-27.429,0.104-46.751-18.104-46.751-46.828c-0.104-47.967,90.548-111.008,90.548-111.008
		h0.518c0,0,90.858,62.73,90.936,110.801c0,28.62-19.218,46.827-46.62,46.932c-14.272,0-28.646-9.609-36.727-17.483
		C210.773,240.975,218.361,276.173,232.322,302.876z M337.77,313.133l-21.976,63.864c-1.107,3.218-4.641,5.74-8.045,5.74h-5.056
		c-3.404,0-6.936-2.523-8.04-5.744l-21.886-63.86c-0.584-1.704-0.394-3.417,0.522-4.699c0.916-1.282,2.474-2.018,4.275-2.018h4.855
		c3.42,0,6.905,2.555,7.934,5.817l1.978,6.275c0.625,1.981,2.995,3.72,5.073,3.72h15.733c2.078,0,4.448-1.738,5.073-3.719
		l1.979-6.275c1.029-3.262,4.514-5.817,7.934-5.817h4.855c1.802,0,3.36,0.735,4.274,2.018
		C338.167,309.717,338.356,311.43,337.77,313.133z"/>
</g>
<g>
</g>
<g>
</g>
<g>
</g>
<g>
</g>
<g>
</g>
<g>
</g>
<g>
</g>
<g>
</g>
<g>
</g>
<g>
</g>
<g>
</g>
<g>
</g>
<g>
</g>
<g>
</g>
<g>
</g>
</svg>
