<?xml version="1.0" encoding="iso-8859-1"?>
<!-- Generator: Adobe Illustrator 17.1.0, SVG Export Plug-In . SVG Version: 6.00 Build 0)  -->
<!DOCTYPE svg PUBLIC "-//W3C//DTD SVG 1.1//EN" "http://www.w3.org/Graphics/SVG/1.1/DTD/svg11.dtd">
<svg version="1.1" id="Capa_1" xmlns="http://www.w3.org/2000/svg" xmlns:xlink="http://www.w3.org/1999/xlink" x="0px" y="0px"
	 viewBox="0 0 440.545 440.545" style="enable-background:new 0 0 440.545 440.545;" xml:space="preserve">
<path d="M330.615,376.531h-44.692V227.547c0-23.339-12.251-43.857-30.65-55.501v-26.07c24.992-12.798,42.149-38.804,42.149-68.759
	C297.422,34.639,262.783,0,220.206,0S142.99,34.639,142.99,77.216c0,30.408,17.673,56.757,43.282,69.34v24.849
	c-18.96,11.525-31.65,32.379-31.65,56.142v148.984H109.93c-17.649,0-32.007,14.358-32.007,32.007s14.358,32.007,32.007,32.007
	h220.685c17.649,0,32.007-14.358,32.007-32.007S348.264,376.531,330.615,376.531z M220.272,345.096
	c-13.569,0-24.609-11.04-24.609-24.609s11.04-24.608,24.609-24.608s24.609,11.039,24.609,24.608S233.842,345.096,220.272,345.096z
	 M244.188,250.419h-11.001v11.001c0,7.121-5.793,12.914-12.915,12.914s-12.915-5.793-12.915-12.914v-11.001h-11.001
	c-7.121,0-12.915-5.794-12.915-12.915s5.793-12.915,12.915-12.915h11.001v-11.001c0-7.121,5.793-12.915,12.915-12.915
	s12.915,5.794,12.915,12.915v11.001h11.001c7.121,0,12.915,5.794,12.915,12.915S251.31,250.419,244.188,250.419z"/>
<g>
</g>
<g>
</g>
<g>
</g>
<g>
</g>
<g>
</g>
<g>
</g>
<g>
</g>
<g>
</g>
<g>
</g>
<g>
</g>
<g>
</g>
<g>
</g>
<g>
</g>
<g>
</g>
<g>
</g>
</svg>
