<?xml version="1.0" encoding="iso-8859-1"?>
<!-- Generator: Adobe Illustrator 17.1.0, SVG Export Plug-In . SVG Version: 6.00 Build 0)  -->
<!DOCTYPE svg PUBLIC "-//W3C//DTD SVG 1.1//EN" "http://www.w3.org/Graphics/SVG/1.1/DTD/svg11.dtd">
<svg version="1.1" id="Capa_1" xmlns="http://www.w3.org/2000/svg" xmlns:xlink="http://www.w3.org/1999/xlink" x="0px" y="0px"
	 viewBox="0 0 451.282 451.282" style="enable-background:new 0 0 451.282 451.282;" xml:space="preserve">
<path d="M361.363,204.91c-2.305-14.672-15.032-25.931-30.341-25.931h-20.565c-15.234,0-27.907,11.149-30.302,25.715h-37.74v-77.908
	h26.663c8.787,0,16.966-3.466,23.031-9.759s9.227-14.595,8.902-23.378l-0.844-22.772c-0.358-9.658-8.51-17.206-18.136-16.84
	c-9.659,0.357-17.198,8.478-16.841,18.136l0.727,19.614h-26.003c-17.921,0-32.5,14.58-32.5,32.5v80.408h-36.285
	c-2.396-14.566-15.068-25.715-30.302-25.715H120.26c-15.309,0-28.035,11.259-30.34,25.931C39.785,208.197,0,250.025,0,300.976
	c0,53.09,43.192,96.282,96.282,96.282H355c53.09,0,96.281-43.192,96.281-96.282C451.282,250.025,411.497,208.197,361.363,204.91z
	 M128.601,318.212h-16.602v16.602c0,9.504-7.732,17.236-17.236,17.236c-9.503,0-17.235-7.732-17.235-17.236v-16.602H60.926
	c-9.504,0-17.236-7.732-17.236-17.236s7.732-17.236,17.236-17.236h16.602v-16.602c0-9.504,7.732-17.236,17.235-17.236
	c9.504,0,17.236,7.732,17.236,17.236v16.602h16.602c9.504,0,17.236,7.732,17.236,17.236S138.105,318.212,128.601,318.212z
	 M347.025,345.543c-24.574,0-44.567-19.993-44.567-44.567c0-24.574,19.993-44.567,44.567-44.567s44.567,19.993,44.567,44.567
	C391.592,325.551,371.599,345.543,347.025,345.543z"/>
<g>
</g>
<g>
</g>
<g>
</g>
<g>
</g>
<g>
</g>
<g>
</g>
<g>
</g>
<g>
</g>
<g>
</g>
<g>
</g>
<g>
</g>
<g>
</g>
<g>
</g>
<g>
</g>
<g>
</g>
</svg>
