<?xml version="1.0" encoding="iso-8859-1"?>
<!-- Generator: Adobe Illustrator 17.1.0, SVG Export Plug-In . SVG Version: 6.00 Build 0)  -->
<!DOCTYPE svg PUBLIC "-//W3C//DTD SVG 1.1//EN" "http://www.w3.org/Graphics/SVG/1.1/DTD/svg11.dtd">
<svg version="1.1" id="Capa_1" xmlns="http://www.w3.org/2000/svg" xmlns:xlink="http://www.w3.org/1999/xlink" x="0px" y="0px"
	 viewBox="0 0 449.834 449.834" style="enable-background:new 0 0 449.834 449.834;" xml:space="preserve">
<path d="M381.488,259.987c-5.805-1.267-11.883-2.453-18.188-3.56c-6.288-65.454-58.145-117.792-123.383-124.823v-7.279
	c7.555-4.921,12.564-13.438,12.564-23.108c0-15.199-12.365-27.565-27.564-27.565s-27.564,12.366-27.564,27.565
	c0,9.67,5.009,18.186,12.564,23.108v7.279c-65.238,7.031-117.096,59.369-123.383,124.823c-6.305,1.107-12.383,2.292-18.188,3.56
	C22.995,269.888,0,282.955,0,298.823c0,15.813,21.818,26.492,68.662,33.606c2.948,0.448,6.004,0.877,9.142,1.292
	c6.435,14.949,21.306,25.444,38.587,25.444c14.845,0,27.906-7.75,35.374-19.411c10.637,0.472,21.745,0.835,33.281,1.086
	c3.197,20.004,20.568,35.34,41.458,35.34c20.916,0,38.305-15.374,41.471-35.414c11.509-0.273,22.582-0.658,33.176-1.154
	c7.453,11.739,20.56,19.553,35.466,19.553c17.456,0,32.453-10.709,38.779-25.9c1.96-0.273,3.894-0.55,5.776-0.836
	c46.844-7.115,68.662-17.793,68.662-33.606C449.834,282.955,426.839,269.888,381.488,259.987z"/>
<g>
</g>
<g>
</g>
<g>
</g>
<g>
</g>
<g>
</g>
<g>
</g>
<g>
</g>
<g>
</g>
<g>
</g>
<g>
</g>
<g>
</g>
<g>
</g>
<g>
</g>
<g>
</g>
<g>
</g>
</svg>
