<?xml version="1.0" encoding="utf-8"?>
<!-- Generator: Adobe Illustrator 16.0.0, SVG Export Plug-In . SVG Version: 6.00 Build 0)  -->
<!DOCTYPE svg PUBLIC "-//W3C//DTD SVG 1.1//EN" "http://www.w3.org/Graphics/SVG/1.1/DTD/svg11.dtd">
<svg version="1.1" id="Layer_1" xmlns="http://www.w3.org/2000/svg" xmlns:xlink="http://www.w3.org/1999/xlink" x="0px" y="0px"
	 width="126px" height="126px" viewBox="0 0 126 126" enable-background="new 0 0 126 126" xml:space="preserve">
<path d="M53.479,48.352c0.145,0.017,0.708,0.168,1.211,0.371c-0.494,0.1-0.974,0.416-0.688,0.99c0.318,0.641,1.112,0.55,1.61,0.195
	c1.327-0.944-1.496-1.885-2.133-1.958C53.223,47.921,53.226,48.323,53.479,48.352z M55.242,48.999
	c0.228,0.146,0.367,0.297,0.279,0.438c-0.204,0.327-0.831,0.522-1.106,0.182c-0.357-0.438,0.398-0.542,0.67-0.53
	C55.165,49.092,55.211,49.051,55.242,48.999z M61.471,44.513c0.944,0.951-0.86,2.617-1.756,2.747
	c-0.174,0.024-0.249-0.241-0.073-0.266c0.719-0.104,1.329-0.752,1.644-1.37c0.205-0.402,0.177-0.836-0.226-1.087
	c-0.257-0.162-0.667-0.228-0.91-0.011c-0.327,0.295,0.236,0.572,0.443,0.624c0.173,0.042,0.1,0.309-0.073,0.266
	c-0.419-0.104-0.984-0.543-0.614-1.02C60.291,43.898,61.089,44.129,61.471,44.513z M30.66,57.615
	c1.457-1.597,0.583-4.063-0.798-5.318c-1.958-1.779-4.651-1.519-6.852-0.396c-1.816,0.926-3.388,2.547-4.357,4.404
	c1.668-1.012,3.518-0.269,4.724,1.502c0.278,0.407-0.335,0.873-0.615,0.462c-1.099-1.611-2.843-2.389-4.361-0.796
	c-0.091,0.096-0.203,0.439-0.31,0.434c-0.867,2.502-0.584,4.924,1.671,6.936c0.367,0.329-0.1,0.94-0.471,0.61
	c-6.037-5.387,0.348-15.615,7.607-15.222c3.835,0.207,7.064,4.905,4.125,8.125c-3.329,3.647-8.815-3.81-3.551-5.308
	c0.471-0.135,0.766,0.577,0.288,0.713C23.707,54.916,27.892,60.649,30.66,57.615z M59.418,45.66
	c-1.219-0.85-1.392-2.425-0.201-3.396c0.789-0.642,1.478,0.537,0.737,1.087c-0.143,0.106-0.281-0.134-0.14-0.238
	c0.526-0.39-0.014-0.969-0.539-0.542c-0.3,0.245-0.486,0.602-0.585,0.967c-0.205,0.749,0.282,1.475,0.868,1.884
	C59.702,45.523,59.564,45.763,59.418,45.66z M119.327,58.884c-0.11-1.091-0.684-2.066-1.559-2.688
	c-0.034-0.066-0.068-0.133-0.104-0.201c-0.059-1.186-0.67-2.267-1.578-2.859c-0.929-0.749-1.976-1.326-2.871-1.582
	c-0.889-0.254-5.578-3.057-10.786-6.6c-0.387-0.323-0.774-0.628-1.161-0.926c-0.196-0.152-0.407-0.283-0.63-0.392
	c-0.167-0.175-0.351-0.332-0.548-0.471c-5.194-3.65-10.949-5.502-17.104-5.502c-1.662,0-3.353,0.14-5.027,0.414
	c-0.308,0.052-0.613,0.146-0.912,0.284c-0.313-0.014-0.632,0.01-0.93,0.075c-0.975,0.22-1.924,0.483-2.879,0.798
	c-2.222-2.848-6.034-4.246-8.257-4.853c-0.812-0.198-1.401-0.287-1.912-0.287c-0.151,0-0.293,0.008-0.354,0.017
	c-0.459,0.023-1.035,0.12-1.793,0.308c-2.17,0.595-5.943,1.983-8.158,4.827c-0.953-0.314-1.901-0.577-2.878-0.799
	c-0.296-0.066-0.612-0.091-0.931-0.075c-0.298-0.137-0.603-0.231-0.912-0.283c-1.673-0.274-3.364-0.414-5.026-0.414
	c-6.154,0-11.909,1.851-17.103,5.501c-0.198,0.139-0.382,0.297-0.549,0.472c-0.223,0.108-0.434,0.24-0.631,0.392
	c-0.387,0.298-0.774,0.603-1.063,0.853c-5.305,3.616-9.994,6.419-10.884,6.673c-0.99,0.283-2.167,0.961-3.147,1.814
	c-0.752,0.654-1.202,1.571-1.265,2.562c-0.055,0.099-0.106,0.196-0.154,0.293c-0.869,0.618-1.437,1.585-1.547,2.662
	c-0.31,3.073,1.125,6.183,4.268,9.244c0.125,0.121,0.262,0.235,0.41,0.342c0.118,0.144,0.24,0.271,0.369,0.385
	c0.487,0.435,1.014,0.881,1.602,1.34c-0.431,0.667-0.636,1.438-0.593,2.23c0.012,0.223,0.096,1.424,0.576,3.147
	c0.074,0.266,0.183,0.523,0.331,0.784c0.034,0.286,0.097,0.549,0.188,0.797c1.051,2.838,2.694,5.364,4.886,7.512
	c0.188,0.183,0.399,0.346,0.639,0.491c0.175,0.238,0.367,0.444,0.583,0.625c1.639,1.369,3.526,2.527,5.611,3.441
	c0.371,0.162,0.758,0.263,1.155,0.299c0.325,0.248,0.685,0.439,1.074,0.571c3.362,1.134,7.234,1.74,11.527,1.801h0.035
	c0.095,0,0.189-0.004,0.279-0.012c0.603-0.044,14.604-1.193,22.306-10.331c0.118,0,0.226-0.006,0.339-0.015
	c0.207,0.005,0.417-0.003,0.625-0.03l0.128,0.003l0.021-0.001c0.257,0.035,0.521,0.041,0.788,0.017
	c0.085,0.005,0.169,0.003,0.253,0.001c7.7,9.151,21.714,10.3,22.307,10.345c0.09,0.007,0.179,0.01,0.342,0.012
	c4.275-0.061,8.147-0.667,11.509-1.801c0.375-0.127,0.724-0.31,1.069-0.57c0.397-0.036,0.794-0.139,1.16-0.3
	c2.084-0.914,3.972-2.071,5.611-3.441c0.215-0.181,0.408-0.387,0.583-0.625c0.241-0.146,0.452-0.309,0.639-0.492
	c2.191-2.146,3.834-4.673,4.885-7.511c0.092-0.248,0.155-0.511,0.188-0.796c0.148-0.261,0.258-0.52,0.332-0.785
	c0.479-1.723,0.563-2.925,0.576-3.146c0.043-0.795-0.161-1.564-0.593-2.23c0.587-0.459,1.114-0.905,1.602-1.34
	c0.128-0.115,0.25-0.242,0.369-0.385c0.148-0.107,0.286-0.222,0.412-0.345C118.202,65.066,119.637,61.957,119.327,58.884z
	 M72.331,43.541c0.977-0.418,2.565-1.014,4.605-1.474l-1.518,2.582c-0.854-0.607-2.462-1.436-2.407-0.12
	c0.026,0.612,0.443,1.293,1.143,1.152c0.629-0.127,0.583-0.701,0.358-1.152c0.257,0.149,0.508,0.319,0.703,0.463l-3.715,6.319
	c-0.062-0.041-0.125-0.083-0.206-0.107c-0.867-0.266-1.393,0.881-1.477,1.543c-0.608-0.498-1.133-1.304-1.286-1.918
	c-0.063-0.251-0.449-0.145-0.387,0.106c0.152,0.61,1.128,2.081,2.072,2.56L69.8,54.207c-0.955-0.279-2.484-0.086-2.278,1.151
	c0.097,0.576,0.707,0.795,1.216,0.656l-1.302,2.214c-0.144-0.147-0.292-0.293-0.412-0.454c0.076,0.019,0.161,0.012,0.219-0.068
	c0.279-0.384,0.26-1.037,0.077-1.452c-0.241-0.547-0.903-0.136-1.08,0.228c-0.328,0.677,0.296,1.52,0.969,2.134l-1.562,2.656
	l-0.883-5.008l0.431-0.725c0.07-0.01,0.146,0,0.215-0.015c1.106-0.226,2.277-1.325,1.599-2.503c-0.053-0.091-0.113-0.166-0.18-0.229
	l3.851-6.473c0.649,0.731,1.518,1.371,1.814,0.355c0.172-0.588-0.003-1.367-0.713-1.457c-0.3-0.039-0.482,0.072-0.592,0.245
	L72.331,43.541z M73.984,44.442c0.177,0.209,0.56,0.867-0.006,0.856c-0.438-0.009-0.668-0.624-0.536-0.986
	c0.057-0.155,0.262-0.139,0.516-0.048C73.936,44.32,73.933,44.382,73.984,44.442z M71.3,51.656l-0.855,1.453
	c-0.116-0.045-0.233-0.092-0.347-0.164c0.059-0.03,0.107-0.076,0.116-0.156C70.247,52.46,70.833,51.21,71.3,51.656z M69.589,54.564
	l-0.236,0.402c-0.039-0.152-0.104-0.303-0.204-0.44c-0.017-0.023-0.042-0.024-0.064-0.038C69.267,54.5,69.438,54.529,69.589,54.564z
	 M68.802,54.729c0.772,1.058-1.125,1.262-0.888,0.234c0.081-0.351,0.497-0.473,0.939-0.481
	C68.774,54.535,68.729,54.63,68.802,54.729z M66.896,57.503c-0.017,0.024-0.008,0.045-0.014,0.067
	c-0.044-0.064-0.093-0.127-0.132-0.191c-0.101-0.169-0.17-0.352-0.182-0.549c-0.007-0.122,0.251-0.619,0.405-0.374
	C67.132,56.711,67.066,57.271,66.896,57.503z M66.381,53.633c-0.021,0.002-0.035,0-0.055,0.002l0.3-0.504
	c0.244,0.367,0.032,1.148-0.214,1.454c-0.242,0.301-0.595,0.442-0.959,0.52l0.638-1.071c0.145,0.007,0.285,0.005,0.397-0.014
	C66.742,53.977,66.633,53.59,66.381,53.633z M71.545,46.445c-0.1-0.254-0.251-1.001,0.281-0.808
	c0.413,0.147,0.434,0.804,0.191,1.104c-0.104,0.13-0.292,0.048-0.504-0.12C71.552,46.576,71.574,46.52,71.545,46.445z
	 M71.071,46.193c-0.063-0.073-0.124-0.149-0.184-0.225l0.263-0.443C71.06,45.713,71.04,45.957,71.071,46.193z M54.849,45.537
	l0.264,0.443c-0.06,0.075-0.121,0.151-0.184,0.224C54.961,45.969,54.94,45.725,54.849,45.537z M53.67,43.553l1.143,1.921
	c-0.109-0.173-0.292-0.283-0.593-0.244c-0.708,0.09-0.884,0.869-0.713,1.457c0.297,1.016,1.166,0.376,1.814-0.356l3.851,6.474
	c-0.066,0.063-0.127,0.139-0.18,0.229c-0.679,1.178,0.492,2.277,1.598,2.504c0.069,0.014,0.146,0.004,0.216,0.014l0.43,0.725
	l-0.883,5.008l-1.562-2.656c0.673-0.615,1.297-1.456,0.969-2.134c-0.176-0.363-0.839-0.773-1.08-0.228
	c-0.184,0.415-0.203,1.068,0.077,1.452c0.058,0.08,0.143,0.087,0.22,0.068c-0.122,0.16-0.27,0.307-0.413,0.454l-1.302-2.215
	c0.509,0.139,1.12-0.079,1.215-0.656c0.206-1.236-1.323-1.43-2.278-1.15l-0.418-0.712c0.944-0.479,1.92-1.949,2.072-2.56
	c0.063-0.251-0.325-0.358-0.387-0.106c-0.153,0.613-0.677,1.42-1.286,1.918c-0.083-0.662-0.61-1.81-1.477-1.543
	c-0.082,0.024-0.144,0.066-0.206,0.107l-3.715-6.319c0.195-0.144,0.446-0.313,0.703-0.463c-0.224,0.451-0.27,1.024,0.359,1.151
	c0.7,0.142,1.117-0.54,1.143-1.151c0.056-1.315-1.552-0.488-2.407,0.119l-1.518-2.581C51.104,42.539,52.693,43.135,53.67,43.553z
	 M54.487,46.634c-0.212,0.168-0.4,0.249-0.504,0.12c-0.241-0.301-0.221-0.957,0.192-1.105c0.532-0.192,0.381,0.555,0.281,0.809
	C54.426,46.531,54.449,46.588,54.487,46.634z M59.514,54.03c0.113,0.019,0.252,0.021,0.397,0.015l0.638,1.071
	c-0.364-0.077-0.718-0.219-0.959-0.52c-0.246-0.306-0.458-1.088-0.214-1.454l0.299,0.504c-0.019-0.003-0.033,0-0.054-0.003
	C59.367,53.601,59.259,53.988,59.514,54.03z M59.028,56.468c0.153-0.245,0.412,0.252,0.405,0.374
	c-0.012,0.197-0.082,0.38-0.182,0.548c-0.039,0.065-0.088,0.129-0.132,0.192c-0.005-0.023,0.002-0.044-0.014-0.067
	C58.934,57.281,58.869,56.722,59.028,56.468z M57.147,54.494c0.442,0.009,0.858,0.131,0.939,0.481
	c0.236,1.026-1.661,0.823-0.889-0.235C57.271,54.642,57.227,54.547,57.147,54.494z M56.916,54.5
	c-0.021,0.013-0.047,0.015-0.064,0.038c-0.1,0.138-0.166,0.288-0.204,0.44l-0.237-0.402C56.562,54.541,56.733,54.512,56.916,54.5z
	 M55.556,53.121l-0.855-1.454c0.468-0.445,1.053,0.805,1.087,1.134c0.008,0.08,0.057,0.126,0.115,0.156
	C55.788,53.029,55.672,53.076,55.556,53.121z M52.043,44.276c0.254-0.091,0.459-0.107,0.516,0.049
	c0.133,0.361-0.097,0.976-0.536,0.984c-0.566,0.012-0.183-0.647-0.007-0.856C52.068,44.393,52.065,44.332,52.043,44.276z
	 M13.54,65.462c-2.592-2.524-3.319-4.593-3.157-6.196c0.04,0.336,0.137,0.656,0.301,0.934c0.939,1.592,2.512,0.282,3.32-0.709
	c0.359-0.439-0.266-1.071-0.628-0.628c-2.832,3.473-2.467-2.389-0.498-1.816C16.581,58.119,14.915,63.082,13.54,65.462z
	 M22.132,76.632c-0.084,1.743-0.341,3.61-0.815,5.375c-2.125-2.081-3.324-4.322-3.998-6.143c0.57-0.705,1.133-1.418,1.832-1.982
	C21.471,72.006,22.209,75.008,22.132,76.632z M63.009,80.277l0-0.003c0,0,0,0,0,0V80.277z M104.684,81.995
	c-0.474-1.765-0.73-3.631-0.815-5.375c-0.078-1.624,0.661-4.626,2.981-2.749c0.698,0.564,1.26,1.277,1.831,1.982
	C108.008,77.673,106.809,79.914,104.684,81.995z M109.55,72.216c0,0-0.052,0.937-0.445,2.351c-1.938-2.06-4.522-4.299-6.126-0.693
	c-0.729,1.64-0.32,3.787-0.068,5.482c0.176,1.185,0.426,2.39,0.769,3.561c-1.276,1.066-2.828,2.06-4.718,2.888
	c2.673-3.063,4.164-7.247,0.725-10.142c-0.17-0.144-0.358-0.278-0.558-0.402c-0.255-0.192-0.545-0.372-0.906-0.523
	c-0.23-0.098-0.452-0.129-0.669-0.133c-1.068-0.267-2.204-0.203-3.058,0.448c-1.547,1.18-0.469,3.856,0.675,4.879
	c2.053,1.832,4.678-0.02,5.036-2.104c0.373,0.841,0.489,1.815,0.406,2.779c-0.197,2.284-1.722,4.397-3.575,5.949
	c-2.79,0.941-6.199,1.546-10.37,1.604c0,0-13.77-1.034-20.345-9.784c0,0-0.695-0.706-2.351-0.597v0.027
	c-0.066-0.009-0.122-0.007-0.186-0.014c-0.064,0.007-0.12,0.005-0.187,0.014v-0.027c-0.217-0.015-0.415-0.013-0.599-0.004v0.012
	c-0.185-0.009-0.382-0.011-0.599,0.004v0.027c-0.066-0.009-0.122-0.008-0.187-0.014c-0.063,0.006-0.119,0.005-0.186,0.014v-0.027
	c-1.656-0.109-2.351,0.597-2.351,0.597c-6.574,8.749-20.345,9.784-20.345,9.784c-4.17-0.059-7.581-0.664-10.371-1.604
	c-1.852-1.552-3.378-3.665-3.574-5.949c-0.083-0.964,0.033-1.939,0.406-2.779c0.358,2.083,2.983,3.935,5.036,2.104
	c1.144-1.023,2.222-3.7,0.675-4.879c-0.854-0.651-1.989-0.715-3.057-0.448c-0.217,0.004-0.438,0.036-0.669,0.133
	c-0.36,0.15-0.65,0.331-0.906,0.523c-0.2,0.124-0.388,0.258-0.558,0.401c-3.439,2.896-1.948,7.078,0.725,10.143
	c-1.89-0.828-3.441-1.821-4.718-2.888c0.342-1.171,0.593-2.376,0.768-3.561c0.252-1.696,0.662-3.844-0.068-5.482
	c-1.604-3.605-4.188-1.366-6.126,0.693c-0.394-1.413-0.445-2.351-0.445-2.351c2.33-3.52-0.777-4.919-0.777-4.919
	c-0.542-0.421-1.024-0.829-1.47-1.228c0.005-0.009,0.013-0.012,0.018-0.02c1.333-2.225,2.416-5.304,1.365-7.835
	c-0.494-1.19-2.144-2.4-3.5-2.042c0.687-0.598,1.393-0.947,1.724-1.042c2.488-0.71,12.063-7.248,12.063-7.248
	c0.377-0.318,0.755-0.616,1.133-0.906c4.285,0.353,7.222,5.597,11.327,6.651c3.044,0.781,6.996-1.308,7.176-4.743
	c0.14-2.663-2.104-5.29-4.741-5.732c-3.148-0.529-4.445,1.885-4.318,4.729c0.03,0.663,1.063,0.667,1.033,0
	c-0.152-3.413,2.537-5.016,5.248-2.646c2.609,2.28,2.042,6.553-1.71,7.445c-5.066,1.206-8.297-5.119-12.966-6.471
	c7.155-5.029,14.289-5.297,19.382-4.459L60.992,64.82l1.548-8.784l-7.66-12.879c0.762-3.152,5.348-4.689,7.024-5.148
	c0,0,0.921-0.226,1.095-0.173v-0.012c0.174-0.053,1.095,0.173,1.095,0.173c1.677,0.459,6.262,1.996,7.024,5.148L63.46,56.024
	l1.548,8.784L78.563,41.75c5.093-0.838,12.227-0.57,19.382,4.459c-4.669,1.352-7.9,7.677-12.967,6.471
	c-3.752-0.893-4.318-5.165-1.709-7.445c2.711-2.369,5.4-0.767,5.248,2.646c-0.03,0.666,1.003,0.663,1.033,0
	c0.127-2.844-1.17-5.258-4.318-4.729c-2.636,0.442-4.88,3.069-4.741,5.732c0.18,3.437,4.132,5.525,7.176,4.743
	c4.105-1.055,7.042-6.299,11.328-6.651c0.378,0.29,0.755,0.588,1.132,0.907c0,0,9.575,6.537,12.063,7.247
	c0.331,0.095,1.037,0.444,1.724,1.043c-1.356-0.359-3.007,0.851-3.5,2.041c-1.051,2.532,0.031,5.61,1.365,7.835
	c0.005,0.008,0.013,0.012,0.018,0.02c-0.446,0.398-0.929,0.807-1.471,1.228 M97.517,79.535c-0.07,0.017-0.134,0.046-0.207,0.057
	c-1.805,0.299-3.671-2.707-2.055-3.939c0.212-0.162,0.463-0.249,0.732-0.283c-0.311,0.362-0.541,0.81-0.649,1.262
	C94.956,78.213,96.193,79.139,97.517,79.535z M97.793,75.686c0.233,0.09,0.452,0.186,0.634,0.275
	c0.004,0.002,0.007,0.004,0.01,0.005c0.059,0.042,0.117,0.07,0.176,0.121c1.099,0.934,0.917,2.027,0.183,2.751
	c-0.012-0.002-0.02-0.009-0.034-0.011C95.46,78.523,96.219,75.444,97.793,75.686z M30.663,76.642
	c-0.109-0.452-0.339-0.898-0.649-1.261c0.269,0.034,0.52,0.121,0.732,0.282c1.616,1.233-0.25,4.238-2.055,3.94
	c-0.072-0.012-0.137-0.04-0.207-0.058C29.807,79.149,31.044,78.224,30.663,76.642z M27.239,78.839
	c-0.014,0.001-0.022,0.009-0.034,0.01c-0.734-0.723-0.916-1.816,0.183-2.75c0.059-0.051,0.117-0.08,0.175-0.121
	c0.003-0.001,0.006-0.003,0.01-0.005c0.182-0.09,0.4-0.186,0.634-0.275C29.782,75.456,30.54,78.535,27.239,78.839z M112.46,65.45
	c-1.375-2.38-3.041-7.343,0.662-8.416c1.97-0.571,2.334,5.29-0.498,1.816c-0.362-0.443-0.987,0.189-0.628,0.628
	c0.808,0.991,2.38,2.301,3.32,0.709c0.164-0.277,0.261-0.598,0.301-0.934C115.78,60.857,115.053,62.926,112.46,65.45z M66.046,43.34
	c-0.741-0.55-0.052-1.729,0.736-1.087c1.191,0.971,1.018,2.546-0.201,3.396c-0.146,0.103-0.284-0.137-0.14-0.237
	c0.587-0.41,1.073-1.136,0.869-1.885c-0.1-0.365-0.286-0.722-0.586-0.966c-0.525-0.428-1.065,0.151-0.539,0.541
	C66.326,43.206,66.189,43.445,66.046,43.34z M64.53,44.502c0.382-0.385,1.18-0.615,1.565-0.117c0.37,0.477-0.195,0.916-0.614,1.02
	c-0.173,0.043-0.246-0.223-0.073-0.266c0.208-0.052,0.77-0.329,0.443-0.623c-0.243-0.218-0.653-0.151-0.91,0.01
	c-0.403,0.252-0.43,0.684-0.226,1.087c0.315,0.618,0.925,1.266,1.644,1.37c0.175,0.024,0.101,0.29-0.073,0.266
	C65.39,47.119,63.585,45.452,64.53,44.502z M70.388,49.896c0.499,0.355,1.292,0.445,1.61-0.195c0.286-0.574-0.194-0.891-0.688-0.99
	c0.503-0.203,1.066-0.354,1.211-0.37c0.254-0.029,0.257-0.432,0-0.402C71.884,48.012,69.06,48.952,70.388,49.896z M71.586,49.606
	c-0.275,0.342-0.902,0.146-1.106-0.182c-0.088-0.141,0.051-0.292,0.279-0.437c0.03,0.052,0.077,0.092,0.156,0.088
	C71.188,49.065,71.943,49.168,71.586,49.606z M56.585,64.771c0,0-4.201-8.528-12.725-8.528c-8.522,0-18.138,8.528-18.138,8.528
	s5.013,6.769,13.537,6.769C47.781,71.54,56.585,64.771,56.585,64.771z M43.86,59.976c3.401,0,5.948,2.059,7.493,3.797
	c-2.972,1.766-7.667,4.046-12.094,4.046c-3.28,0-5.942-1.326-7.841-2.731C34.606,62.853,39.55,59.976,43.86,59.976z M69.416,64.76
	c0,0,8.804,6.769,17.326,6.769c8.523,0,13.537-6.769,13.537-6.769s-9.616-8.528-18.138-8.528
	C73.617,56.231,69.416,64.76,69.416,64.76z M86.742,67.807c-4.415,0-9.123-2.288-12.104-4.059c1.532-1.732,4.07-3.783,7.503-3.783
	c4.317,0,9.267,2.883,12.458,5.121C92.713,66.485,90.055,67.807,86.742,67.807z M90.795,81.429
	c-2.284,3.443-7.605,3.906-10.925,1.87c-4.127-2.531-6.845-7.236-12.289-6.515c-0.792,0.105-0.782-1.139,0-1.242
	c4.885-0.648,7.595,2.615,11.078,5.393c2.589,2.063,6.238,3.405,9.32,1.376c1.996-1.314,3.987-4.278,0.905-5.951
	c-1.035-0.562-4.883-1.458-3.819,1.309c0.327,0.878,0.919,1.492,1.778,1.842c0.701,0.389,0.074,1.462-0.627,1.072
	c-1.353-0.749-2.829-2.164-2.43-3.907c0.275-1.203,1.208-2.325,2.558-2.317C90.254,74.38,93.092,77.966,90.795,81.429z
	 M106.709,65.441c-0.371,0.33-0.838-0.281-0.471-0.609c2.255-2.013,2.538-4.435,1.671-6.937c-0.107,0.007-0.218-0.338-0.31-0.434
	c-1.518-1.593-3.263-0.815-4.361,0.796c-0.28,0.412-0.893-0.055-0.615-0.462c1.206-1.77,3.055-2.514,4.724-1.502
	c-0.969-1.857-2.542-3.478-4.357-4.404c-2.201-1.123-4.894-1.384-6.852,0.396c-1.382,1.255-2.255,3.722-0.798,5.318
	c2.769,3.035,6.953-2.699,2.9-3.853c-0.479-0.137-0.184-0.848,0.288-0.714c5.264,1.498-0.222,8.955-3.551,5.308
	c-2.938-3.22,0.291-7.918,4.125-8.125C106.362,49.826,112.746,60.054,106.709,65.441z M58.42,76.796
	c-5.444-0.722-8.162,3.983-12.289,6.515c-3.32,2.036-8.642,1.573-10.925-1.87c-2.297-3.463,0.542-7.05,4.452-7.071
	c1.35-0.009,2.283,1.114,2.558,2.316c0.399,1.744-1.077,3.159-2.43,3.908c-0.701,0.389-1.328-0.685-0.627-1.072
	c0.859-0.351,1.452-0.964,1.779-1.842c1.063-2.767-2.785-1.87-3.82-1.309c-3.082,1.673-1.091,4.637,0.905,5.951
	c3.081,2.028,6.73,0.688,9.319-1.376c3.483-2.777,6.193-6.041,11.078-5.393C59.203,75.657,59.212,76.901,58.42,76.796z"/>
</svg>
