<?xml version="1.0" encoding="utf-8"?>
<!-- Generator: Adobe Illustrator 16.0.0, SVG Export Plug-In . SVG Version: 6.00 Build 0)  -->
<!DOCTYPE svg PUBLIC "-//W3C//DTD SVG 1.1//EN" "http://www.w3.org/Graphics/SVG/1.1/DTD/svg11.dtd">
<svg version="1.1" id="Layer_1" xmlns="http://www.w3.org/2000/svg" xmlns:xlink="http://www.w3.org/1999/xlink" x="0px" y="0px"
	 width="126px" height="126px" viewBox="0 0 126 126" enable-background="new 0 0 126 126" xml:space="preserve">
<path d="M111.929,48.305c-1.209-8.277-5.566-14.059-13.477-17.051c-3.127-1.182-6.346-1.99-9.635-2.529
	c-8.639-1.41-17.35-1.68-26.684-1.607c-4.885-0.066-10.363,0.084-15.838,0.521c-5.568,0.445-11.092,1.145-16.445,2.797
	c-7.52,2.32-13.074,6.705-15.115,14.68c-0.727,2.84-1.158,5.727-1.223,8.658c-0.162,7.332-0.014,14.658,0.83,21.949
	c0.555,4.797,1.531,9.5,3.814,13.83c2.061,3.908,5.072,6.811,9.33,8.096c5.836,1.764,11.73,1.658,17.51-0.305
	c3.891-1.322,6.59-4.275,9.203-7.279c1.236-1.424,2.375-2.936,3.922-4.07c3.291-2.418,6.865-2.365,10.031,0.23
	c2.207,1.809,3.816,4.18,5.777,6.221c2.479,2.58,5.291,4.627,8.813,5.479c4.699,1.135,9.439,1.254,14.168,0.186
	c4.537-1.023,7.963-3.609,10.359-7.594c1.619-2.691,2.6-5.623,3.311-8.656c1.125-4.789,1.49-9.67,1.693-14.572
	C112.536,60.951,112.849,54.617,111.929,48.305z M54.022,78.115c-4.672-0.197-9.313,0.564-14.01,0.17
	c-6.215-0.52-10.744-3.414-13.906-8.662c-0.871-1.443-0.689-2.291,0.758-3.039c4.057-2.1,8.291-3.59,13.445-3.57
	c2.844-0.133,5.893,0.748,8.57,2.775c3.617,2.738,5.389,6.621,6.529,10.852C55.694,77.697,54.96,78.156,54.022,78.115z
	 M99.946,69.623c-3.164,5.248-7.691,8.143-13.906,8.662c-4.697,0.395-9.34-0.367-14.01-0.17c-0.938,0.041-1.672-0.418-1.387-1.475
	c1.141-4.23,2.91-8.113,6.529-10.852c2.678-2.027,5.727-2.908,8.568-2.775c5.154-0.02,9.391,1.471,13.447,3.57
	C100.636,67.332,100.815,68.18,99.946,69.623z"/>
</svg>
