<?xml version="1.0" encoding="utf-8"?>
<!-- Generator: Adobe Illustrator 16.0.0, SVG Export Plug-In . SVG Version: 6.00 Build 0)  -->
<!DOCTYPE svg PUBLIC "-//W3C//DTD SVG 1.1//EN" "http://www.w3.org/Graphics/SVG/1.1/DTD/svg11.dtd">
<svg version="1.1" id="Layer_1" xmlns="http://www.w3.org/2000/svg" xmlns:xlink="http://www.w3.org/1999/xlink" x="0px" y="0px"
	 width="126px" height="126px" viewBox="0 0 126 126" enable-background="new 0 0 126 126" xml:space="preserve">
<path fill-rule="evenodd" clip-rule="evenodd" d="M118.229,41.707c-1.693,1.975-3.654,1.799-5.579,1.09
	c-2.677-0.986-5.309-2.102-7.928-3.236c-6.451-2.793-13.104-4.482-20.207-3.969c-5.435,0.395-10.74,1.441-15.849,3.305
	c-1.902,0.693-3.786,1.086-5.667,1.172c-1.881-0.086-3.765-0.479-5.667-1.172c-5.108-1.863-10.414-2.91-15.849-3.305
	c-7.103-0.514-13.756,1.176-20.207,3.969c-2.619,1.135-5.251,2.25-7.928,3.236c-1.925,0.709-3.886,0.885-5.579-1.09
	c-0.648,10.359,0.198,20.236,4.323,29.637c2.414,5.502,5.829,10.26,10.802,13.709c8.046,5.578,16.813,6.936,26.104,3.779
	c2.052-0.697,3.894-2.094,5.733-3.316c2.907-1.934,5.829-3.27,8.354-3.27s5.271,1.336,8.179,3.27
	c1.84,1.223,3.682,2.619,5.733,3.316c9.291,3.156,18.06,1.799,26.104-3.779c4.973-3.449,8.388-8.207,10.802-13.709
	C118.031,61.943,118.878,52.066,118.229,41.707z M28.73,72.479c-9.103-4.75-11.14-18.838-11.14-18.838s11.698-4.426,20.8,0.322
	c9.103,4.75,12.163,16.877,12.163,16.877S37.833,77.227,28.73,72.479z M97.27,72.479c-9.103,4.748-21.823-1.639-21.823-1.639
	s3.061-12.127,12.163-16.877c9.103-4.748,20.8-0.322,20.8-0.322S106.372,67.729,97.27,72.479z"/>
</svg>
