<?xml version="1.0" encoding="utf-8"?>
<!-- Generator: Adobe Illustrator 16.0.0, SVG Export Plug-In . SVG Version: 6.00 Build 0)  -->
<!DOCTYPE svg PUBLIC "-//W3C//DTD SVG 1.1//EN" "http://www.w3.org/Graphics/SVG/1.1/DTD/svg11.dtd">
<svg version="1.1" id="Layer_1" xmlns="http://www.w3.org/2000/svg" xmlns:xlink="http://www.w3.org/1999/xlink" x="0px" y="0px"
	 width="126px" height="126px" viewBox="0 0 126 126" enable-background="new 0 0 126 126" xml:space="preserve">
<path d="M112.919,48.159c-1.282-8.781-6.03-14.784-14.112-17.842c-3.053-1.153-6.267-1.997-9.826-2.58
	c-6.91-1.128-14.373-1.632-24.198-1.632c-0.88,0-1.765,0.004-2.634,0.011c-5.123-0.068-10.774,0.113-15.931,0.524
	c-4.982,0.398-10.858,1.048-16.661,2.839c-8.657,2.671-13.822,7.704-15.788,15.387c-0.769,3.006-1.191,5.995-1.255,8.884
	c-0.188,8.513,0.078,15.531,0.838,22.087c0.465,4.021,1.331,9.267,3.923,14.182c2.326,4.412,5.666,7.301,9.926,8.586
	c1.788,0.541,3.596,0.894,5.404,1.095l0.003,0.062L32.61,99.7c1.059,0.118,2.117,0.197,3.172,0.197c1.396,0,2.795-0.122,4.191-0.328
	l0.009,0.191l0.009-0.194c1.787-0.265,3.57-0.679,5.33-1.276c4.004-1.361,6.732-4.234,9.635-7.571
	c0.239-0.275,0.476-0.555,0.711-0.833c0.974-1.151,1.893-2.239,3.048-3.087c2.927-2.151,6.021-2.083,8.806,0.199
	c1.319,1.08,2.411,2.37,3.566,3.734c0.677,0.8,1.376,1.627,2.125,2.405c2.996,3.119,5.95,4.948,9.298,5.757
	c4.948,1.197,9.884,1.261,14.624,0.19c4.722-1.066,8.421-3.776,10.994-8.054c1.487-2.471,2.576-5.313,3.429-8.943
	c1.18-5.023,1.523-10.063,1.719-14.761l0.031-0.74C113.558,60.556,113.816,54.318,112.919,48.159z M30.146,31.39
	c0.808-0.249,1.616-0.47,2.426-0.676l-1.538,32.848c1.047-0.376,2.079-0.684,3.104-0.926l-1.496-31.938
	c2.465-0.625,4.922-1.063,7.295-1.386l-1.494,32.667c0.577-0.037,1.158-0.057,1.745-0.057h0.104c0.15-0.008,0.353-0.013,0.555-0.013
	c0.226,0,0.45,0.018,0.676,0.028l-1.493-32.639c2.215-0.299,4.357-0.505,6.35-0.664c0.308-0.024,0.627-0.042,0.938-0.065
	l-1.592,33.695l0.027,0.572c1.087,0.417,2.137,0.974,3.136,1.662l0.105-2.234l-1.593-33.701c2.293-0.168,4.65-0.29,7.021-0.366
	l-1.572,30.525l0.539,10.473c0.62,0.977,1.169,2.063,1.662,3.259c-1.352-3.242-3.137-5.625-5.565-7.463
	C46.899,63.034,43.921,62,40.87,62c-0.202,0-0.404,0.005-0.555,0.013h-0.104c-4.626,0-8.884,1.136-13.806,3.682
	c-0.963,0.498-1.532,1.096-1.739,1.829c-0.135,0.479-0.094,0.947,0.024,1.377c-0.139-0.454-0.193-0.956-0.049-1.468
	c0.207-0.733,0.776-1.331,1.739-1.829c0.017-0.009,0.033-0.016,0.049-0.024l0.062-1.155l-1.628-30.833
	C26.434,32.727,28.191,31.993,30.146,31.39z M47.626,77.242c-2.56,0.13-5.32,0.23-7.529,0.047
	c-5.812-0.487-10.107-3.164-13.133-8.184c-0.409-0.678-0.396-0.952-0.372-1.038c0.021-0.076,0.137-0.288,0.733-0.596
	c4.623-2.393,8.598-3.459,12.887-3.459l0.146-0.001C40.528,64.004,40.699,64,40.87,64c2.611,0,5.173,0.894,7.407,2.586
	c2.942,2.227,4.845,5.408,6.167,10.315c0.024,0.087,0.028,0.143,0.036,0.16c-0.05,0.021-0.192,0.062-0.415,0.055
	C51.91,77.023,49.727,77.135,47.626,77.242z M111.308,66.504l-0.03,0.74c-0.191,4.6-0.526,9.525-1.668,14.387
	c-0.804,3.422-1.818,6.082-3.194,8.369c-2.282,3.792-5.553,6.192-9.722,7.134c-4.441,1.003-9.061,0.941-13.715-0.183
	c-2.959-0.715-5.604-2.367-8.325-5.199c-0.704-0.732-1.384-1.535-2.04-2.312c-1.162-1.373-2.364-2.794-3.825-3.989
	c-3.483-2.855-7.596-2.954-11.257-0.265c-1.347,0.988-2.386,2.218-3.392,3.408c-0.229,0.271-0.46,0.544-0.693,0.813
	c-2.708,3.113-5.237,5.788-8.769,6.988c-5.56,1.891-11.292,1.99-16.899,0.295c-3.729-1.125-6.667-3.684-8.734-7.605
	c-1.902-3.605-3.045-7.763-3.706-13.479c-0.749-6.462-1.011-13.394-0.824-21.812c0.06-2.738,0.461-5.575,1.192-8.433
	c0.561-2.188,1.414-4.141,2.566-5.865L16.96,64.159l1.229,23.095c0.094,0.212,0.188,0.424,0.286,0.632l1.261-23.727l-1.32-24.86
	c1.59-2.309,3.725-4.204,6.434-5.699l-1.625,30.824l1.631,30.906c0.002,0.002,0.004,0.003,0.006,0.004l1.26-23.867
	c1.535,2.198,3.329,3.93,5.406,5.203l0.979,20.918c0.067,0.009,0.135,0.014,0.202,0.021l0.93-19.848
	c1.646,0.712,3.445,1.186,5.404,1.424l0.836,18.281c0.07-0.011,0.141-0.018,0.211-0.028l0.828-18.097
	c0.656,0.035,1.332,0.059,2.065,0.059c1.188,0,2.374-0.049,3.546-0.104l0.744,15.756c0.06-0.037,0.116-0.08,0.176-0.117
	l0.742-15.717c1.886-0.095,3.813-0.179,5.709-0.104l0.469,9.096c0.08-0.095,0.162-0.19,0.244-0.285l0.462-8.964
	c0.41-0.139,0.76-0.361,1.004-0.68c0.273-0.357,0.547-0.977,0.298-1.899c-0.33-1.223-0.699-2.337-1.105-3.377
	c0.031,0.083,0.066,0.16,0.098,0.244l0.749-14.524l-1.574-30.528c1.797-0.056,3.595-0.093,5.363-0.093
	c0.733,0,1.456,0.005,2.186,0.015l-1.609,28.012l1.556,27.086c0.053-0.007,0.105-0.013,0.157-0.018l1.556-27.068l-1.609-28.012
	c0,0,0,0,0.001,0c0.886-0.007,1.765-0.011,2.64-0.011c2.012,0,3.9,0.026,5.727,0.07l-1.536,29.797l0.905,17.566
	c0.487-1.668,1.04-3.165,1.689-4.486l0.674-13.08L70.707,28.18c2.452,0.061,4.767,0.159,6.952,0.304l-1.562,33.031l0.171,3.616
	c0.095-0.075,0.181-0.158,0.277-0.231c0.869-0.657,1.789-1.198,2.738-1.643l0.082-1.742l-1.561-33.023
	c2.547,0.172,4.928,0.408,7.227,0.702L83.53,62.018c0.742-0.091,1.488-0.128,2.235-0.095c0.002,0,0.005,0,0.008,0
	c0.306,0,0.604,0.019,0.907,0.028l-1.497-32.739c1.177,0.152,2.338,0.314,3.475,0.5c1.306,0.214,2.549,0.476,3.766,0.765
	L90.927,62.42c1.046,0.206,2.092,0.486,3.148,0.83l-1.533-32.746c1.934,0.464,3.782,1.014,5.558,1.685
	c0.739,0.279,1.437,0.591,2.111,0.919l-1.613,30.566l0.077,1.465c0.316,0.154,0.629,0.299,0.95,0.465
	c0.962,0.498,1.531,1.096,1.738,1.829c0.006,0.021,0.007,0.041,0.012,0.062c-0.214-0.72-0.777-1.309-1.726-1.8
	c-4.923-2.546-9.181-3.682-13.807-3.682l-0.053,0.001c-3.238-0.14-6.463,0.891-9.22,2.977c-3.171,2.399-5.244,5.731-6.685,10.697
	l-0.008-0.148c-0.073,0.252-0.153,0.489-0.224,0.75c-0.134,0.495-0.112,0.896-0.025,1.223c0.069,0.328,0.207,0.584,0.348,0.768
	c0.013,0.018,0.032,0.029,0.046,0.045l0.445,8.637c0.087,0.091,0.18,0.18,0.266,0.271l0.424-8.22
	c0.238,0.062,0.488,0.104,0.763,0.104l0.153-0.003c1.61-0.066,3.246-0.017,4.858,0.058l0.718,15.168
	c0.053,0.039,0.107,0.073,0.161,0.111l0.718-15.202c1.487,0.075,3.019,0.15,4.544,0.15c0.396,0,0.766-0.011,1.137-0.021
	l0.819,17.905c0.053,0.009,0.104,0.016,0.157,0.024l0.823-18.021c0.038-0.003,0.078-0.004,0.115-0.007
	c1.943-0.163,3.732-0.549,5.38-1.154l0.915,19.535c0.043-0.003,0.085-0.006,0.127-0.01l0.956-20.405
	c2.122-1.103,3.971-2.643,5.567-4.628l1.163,22.028l1.634-30.974l-1.611-30.545c2.623,1.285,4.768,2.944,6.443,5l-1.344,25.28
	l1.377,25.903c0.007-0.014,0.015-0.026,0.022-0.04l1.376-25.863l-1.339-25.172c2.174,2.713,3.549,6.103,4.149,10.211
	C111.811,54.422,111.555,60.564,111.308,66.504z M85.958,77.289c-2.207,0.184-4.969,0.083-7.529-0.047
	c-1.547-0.079-3.146-0.16-4.733-0.16c-0.569,0-1.138,0.01-1.775,0.035c-0.223,0-0.337-0.05-0.336-0.02
	c-0.002-0.015-0.007-0.075,0.026-0.196c1.322-4.907,3.225-8.089,6.167-10.316c2.381-1.802,5.157-2.697,7.919-2.573l0.146,0.001
	c4.289,0,8.264,1.066,12.888,3.459c0.596,0.308,0.711,0.52,0.732,0.596c0.024,0.086,0.037,0.36-0.372,1.038
	C96.065,74.125,91.77,76.802,85.958,77.289z"/>
</svg>
