<?xml version="1.0" encoding="utf-8"?>
<!-- Generator: Adobe Illustrator 16.0.0, SVG Export Plug-In . SVG Version: 6.00 Build 0)  -->
<!DOCTYPE svg PUBLIC "-//W3C//DTD SVG 1.1//EN" "http://www.w3.org/Graphics/SVG/1.1/DTD/svg11.dtd">
<svg version="1.1" id="Layer_1" xmlns="http://www.w3.org/2000/svg" xmlns:xlink="http://www.w3.org/1999/xlink" x="0px" y="0px"
	 width="126px" height="126px" viewBox="0 0 126 126" enable-background="new 0 0 126 126" xml:space="preserve">
<path fill-rule="evenodd" clip-rule="evenodd" d="M114.466,46.68c-7.864-4.269-16.127-7.256-25.249-6.951
	c-5.225,0.176-10.284,1.439-15.343,2.643c-2.794,0.664-5.588,1.34-8.367,2.069c-0.848,0.223-1.682,0.32-2.507,0.352
	c-0.825-0.031-1.659-0.129-2.506-0.352c-2.78-0.729-5.573-1.405-8.368-2.069c-5.059-1.203-10.118-2.467-15.343-2.643
	c-9.123-0.305-17.385,2.683-25.249,6.951c-3.579,1.943-4.511,3.667-3.777,6.832C8.63,57.276,9.793,61,11.461,64.471
	c1.481,3.084,3.104,6.117,4.913,9.062c2.93,4.768,6.097,9.071,11.628,11.058c3.357,1.205,6.782,1.877,10.335,1.663
	c1.979-0.12,3.772-0.967,5.539-1.843c1.755-0.871,3.548-1.674,5.126-2.851c1.567-1.169,3.233-2.257,4.593-3.642
	c0,0,5.627-5.477,9.405-6.319c3.78,0.843,9.405,6.319,9.405,6.319c1.36,1.385,3.026,2.473,4.594,3.642
	c1.577,1.177,3.372,1.979,5.126,2.851c1.766,0.876,3.559,1.723,5.539,1.843c3.553,0.214,6.978-0.458,10.335-1.663
	c5.531-1.986,8.699-6.29,11.627-11.058c1.81-2.944,3.432-5.978,4.913-9.062c1.667-3.471,2.83-7.194,3.704-10.959
	C118.977,50.347,118.044,48.623,114.466,46.68z M35.353,67.979C28.253,65.564,24.57,57.51,24.57,57.51s7.829-4.137,14.929-1.723
	c7.1,2.414,10.782,10.469,10.782,10.469S42.452,70.393,35.353,67.979z M90.648,67.979c-7.1,2.414-14.93-1.723-14.93-1.723
	s3.684-8.055,10.784-10.469c7.099-2.414,14.928,1.723,14.928,1.723S97.748,65.564,90.648,67.979z"/>
</svg>
