<?xml version="1.0" encoding="utf-8"?>
<!-- Generator: Adobe Illustrator 16.0.0, SVG Export Plug-In . SVG Version: 6.00 Build 0)  -->
<!DOCTYPE svg PUBLIC "-//W3C//DTD SVG 1.1//EN" "http://www.w3.org/Graphics/SVG/1.1/DTD/svg11.dtd">
<svg version="1.1" id="Layer_1" xmlns="http://www.w3.org/2000/svg" xmlns:xlink="http://www.w3.org/1999/xlink" x="0px" y="0px"
	 width="126px" height="126px" viewBox="0 0 126 126" enable-background="new 0 0 126 126" xml:space="preserve">
<path fill-rule="evenodd" clip-rule="evenodd" d="M89.249,35.885c-13.488,0-18.096,9.684-26.249,10.646
	c-8.152-0.963-12.761-10.646-26.249-10.646c-15.332,0-27.761,11.398-27.761,25.459s7.637,34.854,20.854,27.084
	C41.732,81.44,58.582,78.928,63,69.396c4.418,9.531,21.268,12.044,33.155,19.031c13.218,7.77,20.854-13.023,20.854-27.084
	S104.581,35.885,89.249,35.885z M37.337,67.119c-7.327,0-16.786-7.4-16.786-7.4s9.459-7.4,16.786-7.4
	c7.326,0,13.266,4.513,13.266,7.4C50.604,62.607,44.664,67.119,37.337,67.119z M89.61,67.119c-7.326,0-13.266-4.512-13.266-7.4
	c0-2.888,5.939-7.4,13.266-7.4c7.327,0,16.786,7.4,16.786,7.4S96.938,67.119,89.61,67.119z"/>
</svg>
