<?xml version="1.0" encoding="utf-8"?>
<!-- Generator: Adobe Illustrator 16.0.0, SVG Export Plug-In . SVG Version: 6.00 Build 0)  -->
<!DOCTYPE svg PUBLIC "-//W3C//DTD SVG 1.1//EN" "http://www.w3.org/Graphics/SVG/1.1/DTD/svg11.dtd">
<svg version="1.1" id="Layer_1" xmlns="http://www.w3.org/2000/svg" xmlns:xlink="http://www.w3.org/1999/xlink" x="0px" y="0px"
	 width="126px" height="126px" viewBox="0 0 126 126" enable-background="new 0 0 126 126" xml:space="preserve">
<path d="M97.465,55.511c0.775-0.465,1.523-1.087,2.135-1.867c0.336,0.083,0.674,0.161,1,0.267c0.992,0.307,1.994,0.685,2.979,1.068
	c1.971,0.763,3.926,1.56,5.922,2.077c1.977,0.529,4.074,0.724,5.941,0.247c1.92-0.497,3.395-1.601,4.582-2.744
	c1.176-1.163,2.004-2.5,2.348-3.814c0.367-1.317,0.111-2.571-0.383-3.388c-0.129-0.202-0.227-0.413-0.365-0.574
	c-0.148-0.152-0.289-0.294-0.42-0.427c-0.244-0.282-0.506-0.455-0.723-0.591c-0.137-0.093-0.246-0.166-0.34-0.229
	c0.037-0.981-0.201-1.87-0.586-2.52c-0.537-0.925-1.217-1.441-1.666-1.764c-0.463-0.313-0.723-0.458-0.723-0.458
	s0.252,0.163,0.691,0.502c0.428,0.345,1.049,0.907,1.525,1.813c0.316,0.599,0.496,1.375,0.455,2.224
	c-0.021,0.427-0.094,0.871-0.242,1.321c-0.424,1.345-1.357,2.702-2.619,3.9c-1.264,1.18-2.92,2.261-4.809,2.71
	c-1.938,0.412-4.057,0.159-6.168-0.41c-1.711-0.461-3.422-1.127-5.166-1.825c0.02-0.08,0.023-0.162,0.039-0.243
	c0.463-0.114,0.928-0.25,1.402-0.439l0.439-0.193c0.188-0.085,0.313-0.162,0.473-0.243c0.301-0.167,0.615-0.312,0.906-0.519
	c1.189-0.748,2.322-1.795,3.098-3.164c0.77-1.366,1.102-3.022,0.984-4.625c-0.111-1.609-0.57-3.184-1.256-4.649
	c-1.365-2.943-3.51-5.554-6.162-7.638c-0.66-0.528-1.373-0.999-2.109-1.441c-0.375-0.211-0.746-0.424-1.164-0.615
	c-0.438-0.22-0.736-0.326-1.197-0.513c-1.596-0.575-3.277-0.998-5.014-1.141c-1.732-0.148-3.518-0.007-5.209,0.481
	c-1.693,0.483-3.268,1.314-4.627,2.357c-2.729,2.113-4.594,4.927-6.025,7.711c-1.436,2.804-2.396,5.674-3.186,8.402
	c-0.789,2.729-1.314,5.368-1.818,7.755c-0.203,0.924-0.414,1.801-0.639,2.649c-0.434,0.392-0.859,0.778-1.273,1.149
	c-1.629,1.482-3.098,2.805-4.408,3.843c-0.002,0-0.006,0.001-0.01,0.001h-0.305c-1.73-1.08-3.816-2.942-6.27-5.175
	c-0.414-0.371-0.84-0.757-1.273-1.149c-0.225-0.848-0.436-1.725-0.637-2.649c-0.506-2.387-1.031-5.025-1.82-7.755
	c-0.787-2.729-1.748-5.598-3.184-8.402c-1.432-2.784-3.297-5.598-6.025-7.711c-1.361-1.042-2.936-1.874-4.627-2.357
	c-1.691-0.488-3.477-0.629-5.209-0.481c-1.736,0.143-3.42,0.566-5.016,1.141c-0.459,0.187-0.758,0.292-1.197,0.513
	c-0.418,0.191-0.787,0.404-1.164,0.615c-0.736,0.442-1.447,0.913-2.107,1.441c-2.652,2.084-4.799,4.695-6.162,7.638
	c-0.688,1.465-1.145,3.04-1.258,4.649c-0.115,1.603,0.217,3.259,0.986,4.625c0.773,1.369,1.906,2.417,3.098,3.164
	c0.289,0.207,0.605,0.352,0.906,0.519c0.16,0.082,0.285,0.158,0.471,0.243l0.441,0.193c0.473,0.189,0.939,0.325,1.4,0.439
	c0.016,0.081,0.021,0.163,0.039,0.243c-1.742,0.697-3.455,1.364-5.166,1.825c-2.111,0.569-4.229,0.822-6.168,0.41
	c-1.889-0.449-3.545-1.531-4.807-2.71c-1.264-1.198-2.195-2.555-2.621-3.9c-0.146-0.451-0.221-0.895-0.24-1.321
	c-0.043-0.848,0.139-1.625,0.453-2.224c0.477-0.906,1.1-1.468,1.527-1.813c0.439-0.339,0.689-0.502,0.689-0.502
	s-0.26,0.146-0.723,0.458c-0.449,0.323-1.129,0.839-1.664,1.764c-0.387,0.649-0.623,1.539-0.586,2.52
	c-0.096,0.063-0.203,0.136-0.342,0.229c-0.215,0.136-0.479,0.309-0.721,0.591c-0.131,0.133-0.271,0.275-0.42,0.427
	c-0.139,0.161-0.236,0.372-0.367,0.574c-0.492,0.816-0.75,2.07-0.381,3.388c0.342,1.315,1.17,2.652,2.346,3.814
	c1.188,1.143,2.664,2.247,4.584,2.744c1.867,0.477,3.963,0.282,5.939-0.247c1.996-0.518,3.951-1.314,5.924-2.077
	c0.982-0.383,1.984-0.761,2.977-1.068c0.328-0.106,0.666-0.184,1.002-0.267c0.611,0.78,1.359,1.402,2.133,1.867
	c0.244,0.167,0.508,0.282,0.762,0.415c0.135,0.066,0.234,0.125,0.396,0.195l0.365,0.151c0.555,0.21,1.094,0.348,1.625,0.44
	c0.379,0.061,0.75,0.093,1.119,0.112c-7.756,2.175-16.014,9.313-27.348,6.805c2.732,6.375,2.732,6.375,2.732,6.375
	s8.893,23.238,20.244,31.078c10.039,7.09,25.594-6.672,25.594-6.672s5.625-5.477,9.404-6.319h0.648
	c3.781,0.842,9.406,6.319,9.406,6.319s15.555,13.762,25.594,6.672c11.352-7.84,20.244-31.078,20.244-31.078s0,0,2.732-6.375
	c-10.492,2.321-18.346-3.621-25.607-6.244c0.088-0.043,0.168-0.085,0.258-0.129C96.957,55.793,97.221,55.678,97.465,55.511z
	 M105.779,53.692c2.182,0.587,4.479,0.789,6.545,0.284c2.092-0.566,3.744-1.746,5.043-3.019c1.293-1.283,2.207-2.754,2.588-4.201
	c0.111-0.405,0.168-0.803,0.184-1.189c0.088,0.067,0.188,0.145,0.311,0.241c0.203,0.149,0.449,0.337,0.668,0.63
	c0.117,0.137,0.244,0.284,0.379,0.441c0.125,0.163,0.207,0.371,0.322,0.569c0.428,0.806,0.602,1.978,0.195,3.193
	c-0.389,1.213-1.236,2.436-2.381,3.513c-1.148,1.048-2.639,2.057-4.338,2.434c-1.756,0.389-3.664,0.139-5.572-0.371
	c-1.914-0.517-3.83-1.318-5.805-2.107c-0.988-0.396-1.984-0.787-3.039-1.125c-0.234-0.079-0.477-0.132-0.713-0.198
	c0.154-0.279,0.291-0.57,0.402-0.873C102.299,52.586,104.025,53.238,105.779,53.692z M76.947,36.957
	c1.408-2.623,3.225-5.175,5.648-6.985c2.393-1.849,5.449-2.7,8.506-2.39c1.527,0.144,3.045,0.518,4.52,1.031
	c0.729,0.277,1.377,0.579,2.041,0.961c0.656,0.388,1.299,0.805,1.902,1.281c1.217,0.93,2.314,2.012,3.275,3.173
	c0.975,1.152,1.803,2.401,2.438,3.703c1.297,2.576,1.674,5.51,0.512,7.745c-0.578,1.107-1.473,2.016-2.492,2.707
	c-0.242,0.19-0.521,0.328-0.783,0.485c-0.127,0.071-0.279,0.166-0.383,0.218l-0.434,0.208c-0.229,0.098-0.465,0.188-0.701,0.273
	c-0.002-0.101,0.01-0.201,0.004-0.301c-0.068-1.345-0.428-2.66-0.973-3.885c-1.086-2.461-2.818-4.647-4.986-6.41
	c-0.537-0.446-1.121-0.846-1.727-1.223c-0.605-0.37-1.293-0.711-1.947-0.971c-1.318-0.483-2.699-0.86-4.139-1.012
	c-1.438-0.146-2.924-0.044-4.336,0.339c-1.414,0.38-2.734,1.051-3.877,1.898c-2.289,1.721-3.861,4.023-5.078,6.297
	c-0.014,0.025-0.023,0.05-0.037,0.075C74.705,41.779,75.686,39.333,76.947,36.957z M72.619,51.421
	c0.74-2.149,1.658-4.363,2.84-6.494c1.191-2.113,2.709-4.153,4.689-5.578c1.955-1.455,4.414-2.096,6.877-1.81
	c1.23,0.148,2.449,0.474,3.645,0.894c0.588,0.233,1.098,0.482,1.631,0.799c0.525,0.322,1.041,0.667,1.521,1.06
	c0.975,0.769,1.852,1.661,2.617,2.614c0.777,0.945,1.434,1.967,1.932,3.026c0.615,1.263,0.945,2.613,0.914,3.874
	c-0.418,0.067-0.832,0.105-1.242,0.124c-0.592-0.223-1.191-0.439-1.809-0.637c-1.143-0.383-2.318-0.613-3.506-0.877
	c-0.15-0.026-0.303-0.043-0.453-0.067c-0.893-0.692-1.498-1.562-1.727-2.43c-0.344-1.325,0.207-2.415,0.615-3.019
	c0.428-0.628,0.768-0.881,0.75-0.897c0.018,0.018-0.35,0.223-0.865,0.808c-0.496,0.551-1.24,1.653-0.986,3.208
	c0.113,0.71,0.455,1.458,0.979,2.147c-1.834-0.23-3.684-0.314-5.5-0.151c-1.193,0.032-2.354,0.273-3.506,0.456
	c-0.576,0.086-1.129,0.282-1.688,0.417c-0.553,0.163-1.115,0.263-1.645,0.492c-1.068,0.411-2.146,0.771-3.068,1.309
	c-0.938,0.473-1.943,0.996-2.744,1.648c-0.266,0.201-0.516,0.406-0.771,0.61C72.279,52.442,72.443,51.934,72.619,51.421z
	 M71.766,54.102c0.5-0.4,1.012-0.797,1.551-1.178c0.811-0.617,1.695-1.04,2.684-1.506c0.961-0.511,1.969-0.843,2.988-1.222
	c0.498-0.213,1.053-0.306,1.586-0.457c0.543-0.125,1.076-0.311,1.635-0.388c1.117-0.165,2.238-0.39,3.395-0.408
	c2.186-0.177,4.418,0.024,6.607,0.4c0.371,0.287,0.779,0.546,1.229,0.76c1.434,0.701,3.18,1.072,5.053,1.01
	c0.184,0.07,0.369,0.138,0.551,0.209c-0.088,0.284-0.191,0.561-0.332,0.822c-0.045,0.083-0.102,0.157-0.15,0.237
	c-0.287-0.063-0.572-0.128-0.861-0.192c-2.162-0.368-4.369-0.554-6.523-0.358c-1.082,0.029-2.137,0.25-3.182,0.416
	c-0.52,0.079-1.016,0.253-1.518,0.375c-0.031-0.086-0.064-0.172-0.088-0.258c-0.271-1.069,0.176-1.954,0.512-2.448
	c0.352-0.513,0.631-0.72,0.615-0.733c0.014,0.015-0.291,0.174-0.73,0.642c-0.42,0.439-1.063,1.334-0.885,2.632
	c0.014,0.099,0.041,0.201,0.064,0.302c-0.338,0.086-0.672,0.175-0.994,0.315c-0.969,0.373-1.949,0.702-2.783,1.19
	c-0.848,0.429-1.762,0.907-2.488,1.5c-0.402,0.303-0.785,0.612-1.156,0.922c-1.197,0.276-2.395,0.563-3.59,0.847
	c-1.506,0.358-3.012,0.721-4.514,1.092c0.105-0.338,0.211-0.675,0.311-1.024C71.07,56.475,71.402,55.303,71.766,54.102z
	 M87.447,55.099c-2.451,0.253-4.873,0.697-7.279,1.223c0.725-0.54,1.506-0.914,2.385-1.328c0.873-0.462,1.783-0.762,2.703-1.103
	c0.318-0.136,0.664-0.22,1.01-0.305C86.529,54.125,86.938,54.643,87.447,55.099z M56.648,57.267c0.059,0.116,0.109,0.243,0.17,0.355
	c0.205,0.393,0.43,0.756,0.658,1.106c-0.154-0.038-0.309-0.079-0.463-0.117C56.887,58.175,56.766,57.73,56.648,57.267z
	 M69.266,58.922c-0.025,0.007-0.053,0.014-0.078,0.021c0.057-0.11,0.107-0.233,0.164-0.346
	C69.324,58.708,69.295,58.813,69.266,58.922z M68.867,56.53c0.199-0.169,0.406-0.347,0.609-0.521
	c-0.279,0.938-0.584,1.823-0.945,2.624c-0.086,0.194-0.186,0.363-0.277,0.547c-0.557,0.142-1.113,0.277-1.668,0.423
	c-0.635,0.167-1.258,0.248-1.879,0.299C65.975,58.969,67.367,57.827,68.867,56.53z M57.135,55.199
	c2.352,2.035,4.453,3.707,6.189,4.746c-0.789-0.035-1.588-0.129-2.4-0.343c-0.85-0.223-1.703-0.434-2.555-0.648
	c-0.324-0.506-0.631-1.046-0.898-1.652c-0.363-0.8-0.668-1.686-0.947-2.624C56.727,54.853,56.934,55.03,57.135,55.199z
	 M25.123,51.654c-1.055,0.339-2.051,0.729-3.041,1.125c-1.973,0.789-3.889,1.59-5.803,2.107c-1.91,0.51-3.816,0.76-5.572,0.371
	c-1.701-0.376-3.191-1.386-4.338-2.434c-1.146-1.077-1.992-2.299-2.381-3.513c-0.408-1.215-0.232-2.387,0.195-3.193
	c0.115-0.199,0.197-0.407,0.322-0.569c0.135-0.157,0.262-0.304,0.379-0.441c0.219-0.293,0.465-0.481,0.668-0.63
	c0.123-0.096,0.221-0.173,0.309-0.241c0.018,0.386,0.072,0.784,0.186,1.189c0.379,1.447,1.293,2.918,2.586,4.201
	c1.299,1.273,2.953,2.453,5.043,3.019c2.068,0.504,4.363,0.303,6.545-0.284c1.754-0.455,3.48-1.106,5.211-1.779
	c0.113,0.303,0.248,0.594,0.402,0.873C25.598,51.522,25.357,51.576,25.123,51.654z M25.975,43.85
	c-0.547,1.225-0.904,2.54-0.975,3.885c-0.006,0.1,0.006,0.201,0.006,0.301c-0.238-0.085-0.475-0.175-0.701-0.273l-0.434-0.208
	c-0.105-0.052-0.256-0.146-0.383-0.218c-0.262-0.157-0.541-0.295-0.783-0.485c-1.021-0.691-1.914-1.6-2.492-2.707
	c-1.162-2.235-0.787-5.168,0.512-7.745c0.633-1.302,1.461-2.551,2.436-3.703c0.963-1.161,2.059-2.243,3.277-3.173
	c0.602-0.476,1.246-0.893,1.9-1.281c0.664-0.382,1.314-0.684,2.043-0.961c1.475-0.514,2.992-0.887,4.52-1.031
	c3.057-0.311,6.113,0.541,8.504,2.39c2.426,1.81,4.242,4.362,5.65,6.985c1.26,2.375,2.242,4.822,3.045,7.217
	c-0.012-0.025-0.023-0.05-0.035-0.075c-1.219-2.274-2.789-4.576-5.078-6.297c-1.143-0.847-2.463-1.518-3.877-1.898
	c-1.414-0.383-2.9-0.485-4.338-0.339c-1.438,0.152-2.82,0.529-4.139,1.012c-0.652,0.259-1.342,0.601-1.947,0.971
	c-0.604,0.377-1.188,0.777-1.727,1.223C28.793,39.203,27.059,41.389,25.975,43.85z M26.715,48.474
	c-0.031-1.261,0.301-2.611,0.914-3.874c0.498-1.059,1.154-2.081,1.932-3.026c0.766-0.953,1.643-1.845,2.617-2.614
	c0.482-0.393,0.998-0.738,1.521-1.06c0.533-0.317,1.043-0.565,1.631-0.799c1.195-0.419,2.416-0.745,3.646-0.894
	c2.463-0.286,4.92,0.355,6.877,1.81c1.98,1.424,3.498,3.465,4.688,5.578c1.182,2.131,2.102,4.345,2.84,6.494
	c0.176,0.513,0.34,1.021,0.5,1.524c-0.254-0.204-0.504-0.409-0.771-0.61c-0.801-0.653-1.805-1.175-2.744-1.648
	c-0.92-0.537-2-0.898-3.066-1.309c-0.529-0.229-1.092-0.33-1.646-0.492c-0.559-0.135-1.109-0.331-1.688-0.417
	c-1.152-0.183-2.313-0.424-3.506-0.456c-1.816-0.163-3.666-0.079-5.5,0.151c0.523-0.689,0.865-1.437,0.98-2.147
	c0.254-1.555-0.492-2.658-0.986-3.208c-0.516-0.584-0.883-0.79-0.865-0.808c-0.02,0.016,0.32,0.269,0.75,0.897
	c0.408,0.604,0.959,1.694,0.615,3.019c-0.229,0.869-0.836,1.738-1.729,2.43c-0.15,0.024-0.303,0.041-0.453,0.067
	c-1.188,0.264-2.363,0.494-3.506,0.877c-0.617,0.198-1.217,0.414-1.809,0.637C27.547,48.579,27.133,48.541,26.715,48.474z
	 M27.289,50.813c-0.139-0.261-0.244-0.538-0.332-0.822c0.182-0.071,0.367-0.139,0.551-0.209c1.873,0.062,3.621-0.309,5.053-1.01
	c0.449-0.214,0.859-0.473,1.229-0.76c2.189-0.376,4.422-0.577,6.609-0.4c1.154,0.019,2.277,0.244,3.393,0.408
	c0.561,0.077,1.092,0.264,1.635,0.388c0.533,0.151,1.088,0.244,1.588,0.457c1.018,0.379,2.025,0.71,2.986,1.222
	c0.988,0.466,1.873,0.889,2.686,1.506c0.539,0.381,1.049,0.778,1.551,1.178c0.361,1.202,0.695,2.374,1.014,3.5
	c0.205,0.719,0.428,1.405,0.662,2.071c-1.119-0.272-2.236-0.543-3.355-0.809c-1.189-0.283-2.379-0.568-3.57-0.843
	c-0.828-0.747-1.703-1.516-2.684-2.257c-0.727-0.593-1.643-1.071-2.49-1.5c-0.832-0.488-1.813-0.817-2.781-1.19
	c-0.322-0.14-0.658-0.229-0.996-0.315c0.023-0.101,0.051-0.203,0.064-0.302c0.18-1.298-0.465-2.193-0.885-2.632
	c-0.438-0.468-0.744-0.626-0.73-0.642c-0.016,0.013,0.266,0.22,0.617,0.733c0.334,0.495,0.781,1.379,0.51,2.448
	c-0.021,0.086-0.057,0.172-0.088,0.258c-0.502-0.122-0.998-0.297-1.518-0.375c-1.045-0.166-2.098-0.387-3.18-0.416
	c-2.156-0.195-4.363-0.009-6.523,0.358c-0.291,0.064-0.576,0.129-0.863,0.192C27.391,50.97,27.334,50.896,27.289,50.813z
	 M30.615,53.679l-0.357-0.167l-0.309-0.17c-0.213-0.125-0.441-0.233-0.637-0.384c-0.445-0.294-0.857-0.643-1.219-1.034
	c0.131-0.027,0.264-0.056,0.395-0.084c2.074-0.375,4.199-0.579,6.275-0.411c1.045,0.016,2.061,0.22,3.068,0.368
	c0.434,0.06,0.85,0.188,1.268,0.296c-0.467,0.663-1.193,1.256-2.127,1.635c-1.395,0.596-3.215,0.8-5.037,0.386
	C31.48,54.009,31.033,53.853,30.615,53.679z M37.379,54.588c1.104-0.555,1.912-1.428,2.357-2.333
	c0.346,0.085,0.689,0.169,1.01,0.305c0.92,0.341,1.83,0.641,2.701,1.103c0.898,0.422,1.693,0.8,2.43,1.358
	c0.627,0.442,1.217,0.906,1.787,1.373c-3.441-0.762-6.908-1.385-10.451-1.503c-0.17-0.006-0.34,0-0.508,0.002
	C36.938,54.799,37.164,54.699,37.379,54.588z M35.783,83.14C28.682,80.726,25,72.672,25,72.672s7.83-4.138,14.93-1.723
	c7.1,2.414,10.783,10.468,10.783,10.468S42.883,85.554,35.783,83.14z M91.727,83.14c-7.1,2.415-14.93-1.723-14.93-1.723
	s3.684-8.054,10.783-10.468c7.098-2.415,14.928,1.723,14.928,1.723S98.826,80.726,91.727,83.14z M96.051,54.672l-0.307,0.17
	l-0.357,0.167c-0.352,0.146-0.725,0.272-1.105,0.374c-1.338-0.344-2.662-0.537-3.984-0.492c-0.482,0.016-0.961,0.051-1.439,0.084
	c-0.85-0.38-1.52-0.932-1.957-1.552c0.418-0.107,0.834-0.236,1.268-0.296c1.01-0.148,2.025-0.352,3.068-0.368
	c2.078-0.168,4.201,0.036,6.277,0.411c0.129,0.028,0.262,0.057,0.393,0.084c-0.361,0.392-0.771,0.74-1.217,1.034
	C96.492,54.439,96.264,54.547,96.051,54.672z"/>
</svg>
