<?xml version="1.0" encoding="utf-8"?>
<!-- Generator: Adobe Illustrator 16.0.0, SVG Export Plug-In . SVG Version: 6.00 Build 0)  -->
<!DOCTYPE svg PUBLIC "-//W3C//DTD SVG 1.1//EN" "http://www.w3.org/Graphics/SVG/1.1/DTD/svg11.dtd">
<svg version="1.1" id="Layer_1" xmlns="http://www.w3.org/2000/svg" xmlns:xlink="http://www.w3.org/1999/xlink" x="0px" y="0px"
	 width="126px" height="126px" viewBox="0 0 126 126" enable-background="new 0 0 126 126" xml:space="preserve">
<path d="M86.48,57.384c0.061,0.135,0.043,0.362-0.032,0.491c-0.313,0.532-0.65,1.05-1.006,1.554
	c-0.087,0.123-0.274,0.175-0.493,0.305c-0.107-1.859-1.18-2.993-2.686-3.006c-1.563-0.015-2.645,1.098-2.771,2.994
	c-0.207-0.121-0.404-0.174-0.495-0.301c-0.349-0.49-0.681-0.995-0.978-1.518c-0.086-0.151-0.106-0.417-0.033-0.57
	c1.262-2.628,4.733-3.441,7.065-1.678C85.667,56.122,86.165,56.681,86.48,57.384z M63.627,67.398
	c-0.532-0.302-1.073-0.263-1.563,0.089c-0.413,0.297-0.674,0.693-0.607,1.242c0.981,0,1.931,0,2.946,0
	C64.41,68.109,64.128,67.682,63.627,67.398z M65.586,64.821c-2.336-1.625-5.7-0.755-6.911,1.805
	c-0.069,0.145-0.06,0.394,0.021,0.532c0.309,0.534,0.648,1.052,1.004,1.556c0.087,0.122,0.277,0.171,0.51,0.306
	c-0.071-2.041,1.504-3.018,2.671-3.017c1.563,0.003,2.65,1.114,2.766,3.004c0.208-0.125,0.406-0.179,0.498-0.309
	c0.348-0.49,0.681-0.994,0.978-1.517c0.086-0.151,0.101-0.413,0.029-0.57C66.81,65.865,66.259,65.29,65.586,64.821z M62.426,60.2
	c-2.801,0.146-4.997,1.479-6.535,3.727c0.626,0.619,1.202,1.189,1.778,1.76c1.2-1.889,2.922-3.021,5.276-3.014
	c2.346,0.008,4.053,1.164,5.252,3.048c0.598-0.592,1.167-1.156,1.781-1.765C68.134,61.362,65.613,60.033,62.426,60.2z
	 M65.662,50.453c0.205-0.132,0.396-0.194,0.489-0.327c0.339-0.479,0.629-0.992,0.972-1.468c0.162-0.226,0.195-0.423,0.029-0.624
	c-0.456-0.557-0.854-1.192-1.406-1.631c-2.296-1.82-5.759-0.996-7.069,1.627c-0.116,0.232-0.123,0.404,0.038,0.629
	c0.342,0.477,0.633,0.99,0.972,1.469c0.093,0.131,0.285,0.193,0.49,0.324c0.188-1.951,1.184-3.002,2.72-3.008
	C64.464,47.438,65.464,48.477,65.662,50.453z M61.452,50.167c0.997,0,1.961,0,2.924,0c0.053-0.823-0.583-1.497-1.404-1.514
	C62.083,48.636,61.423,49.276,61.452,50.167z M43.612,53.394c2.354-0.003,4.068,1.146,5.276,3.041
	c0.592-0.583,1.173-1.154,1.783-1.756c-1.688-2.416-4.025-3.755-7.009-3.77c-3.022-0.016-5.392,1.322-7.099,3.761
	c0.611,0.601,1.193,1.173,1.787,1.758C39.543,54.538,41.26,53.396,43.612,53.394z M82.228,53.394
	c2.354,0.001,4.065,1.152,5.268,3.04c0.592-0.587,1.171-1.162,1.779-1.766c-1.775-2.513-4.224-3.849-7.34-3.755
	c-2.887,0.086-5.145,1.424-6.761,3.755c0.612,0.608,1.189,1.183,1.777,1.769C78.158,54.532,79.875,53.392,82.228,53.394z
	 M83.027,58.173c-0.506-0.334-1.049-0.346-1.567-0.027c-0.472,0.289-0.737,0.711-0.722,1.304c1.024,0,1.974,0,2.963,0
	C83.726,58.88,83.472,58.466,83.027,58.173z M52.449,61.63c0.772,0.494,1.512,0.968,2.252,1.44c3.9-5.726,12.469-5.731,16.431,0.005
	c0.749-0.48,1.498-0.961,2.247-1.44C68.574,54.313,57.515,54.078,52.449,61.63z M46.442,55.684c-2.292-1.817-5.765-0.988-7.07,1.63
	c-0.116,0.232-0.12,0.404,0.041,0.627c0.341,0.477,0.632,0.989,0.97,1.467c0.093,0.131,0.283,0.193,0.488,0.324
	c0.196-1.989,1.256-3.045,2.864-3.004c1.149,0.029,2.655,1.012,2.691,2.969c0.144-0.097,0.331-0.162,0.425-0.295
	c0.338-0.479,0.628-0.991,0.971-1.467c0.164-0.227,0.189-0.425,0.025-0.623C47.391,56.756,46.994,56.121,46.442,55.684z
	 M43.551,57.928c-0.813,0.034-1.45,0.728-1.383,1.513c0.996,0,1.956,0,2.915,0C45.076,58.55,44.396,57.892,43.551,57.928z
	 M46.292,92.669c-2.331-1.631-5.692-0.771-6.914,1.789c-0.072,0.154-0.049,0.419,0.038,0.57c0.297,0.523,0.629,1.027,0.978,1.518
	c0.09,0.127,0.289,0.176,0.496,0.294c0.106-1.859,1.188-2.991,2.725-2.991c1.536-0.001,2.624,1.135,2.727,3.011
	c0.222-0.134,0.409-0.187,0.496-0.311c0.355-0.505,0.693-1.022,1.006-1.554c0.076-0.129,0.092-0.357,0.03-0.492
	C47.53,93.738,46.976,93.147,46.292,92.669z M44.369,95.263c-0.539-0.324-1.096-0.299-1.605,0.064
	c-0.415,0.296-0.673,0.693-0.612,1.244c0.981,0,1.931,0,2.95,0C45.109,95.974,44.845,95.548,44.369,95.263z M81.731,88.041
	c-2.801,0.146-4.998,1.479-6.532,3.72c0.622,0.625,1.194,1.199,1.769,1.775c1.204-1.896,2.926-3.029,5.279-3.021
	c2.347,0.007,4.055,1.161,5.254,3.047c0.597-0.59,1.167-1.154,1.782-1.764C87.438,89.204,84.918,87.875,81.731,88.041z
	 M43.125,88.041c-2.801,0.146-4.998,1.479-6.553,3.751c0.611,0.611,1.179,1.18,1.771,1.773c1.224-1.926,2.944-3.059,5.299-3.051
	c2.347,0.007,4.054,1.162,5.225,3.002c0.603-0.586,1.185-1.152,1.793-1.744C48.831,89.204,46.311,87.874,43.125,88.041z
	 M85.002,92.743c-2.328-1.715-5.714-0.906-7.018,1.676c-0.128,0.254-0.116,0.436,0.052,0.668c0.333,0.463,0.615,0.963,0.944,1.429
	c0.095,0.134,0.278,0.206,0.422,0.306c0.039-2.01,1.623-2.979,2.781-2.977c1.563,0.003,2.643,1.107,2.766,3.004
	c0.209-0.125,0.406-0.18,0.498-0.31c0.348-0.49,0.681-0.994,0.978-1.517c0.086-0.151,0.1-0.414,0.028-0.57
	C86.132,93.752,85.625,93.2,85.002,92.743z M82.872,95.207c-0.563-0.285-1.114-0.206-1.595,0.19c-0.363,0.3-0.586,0.684-0.527,1.174
	c1.008,0,1.958,0,2.959,0C83.705,95.914,83.404,95.478,82.872,95.207z M27.139,83.524c-2.296-1.82-5.759-0.996-7.069,1.627
	c-0.116,0.233-0.123,0.404,0.038,0.629c0.343,0.477,0.633,0.99,0.972,1.469c0.094,0.131,0.285,0.193,0.491,0.325
	c0.187-1.95,1.183-3.002,2.719-3.008c1.568-0.006,2.567,1.031,2.766,3.009c0.205-0.133,0.396-0.195,0.489-0.327
	c0.339-0.479,0.629-0.993,0.972-1.469c0.162-0.226,0.195-0.423,0.029-0.624C28.089,84.6,27.692,83.964,27.139,83.524z M24.97,85.924
	c-0.539-0.269-1.088-0.226-1.564,0.153c-0.379,0.303-0.654,0.682-0.549,1.214c0.984,0,1.938,0,2.949,0
	C25.802,86.633,25.503,86.19,24.97,85.924z M104.395,83.559c-2.29-1.859-5.783-1.053-7.108,1.586
	c-0.114,0.229-0.137,0.401,0.029,0.63c0.344,0.475,0.633,0.988,0.972,1.467c0.095,0.133,0.282,0.2,0.427,0.297
	c0.176-1.813,1.239-2.951,2.732-2.971c1.611-0.021,2.66,1.046,2.811,3.003c0.207-0.127,0.402-0.185,0.495-0.315
	c0.349-0.49,0.679-0.996,0.981-1.518c0.082-0.141,0.121-0.416,0.039-0.525C105.343,84.637,104.943,84.003,104.395,83.559z
	 M64.404,31.608c0.043-0.607-0.237-1.026-0.709-1.313c-0.531-0.324-1.099-0.315-1.611,0.036c-0.432,0.296-0.724,0.697-0.632,1.277
	C62.433,31.608,63.384,31.608,64.404,31.608z M101.578,85.774c-0.889-0.018-1.547,0.623-1.52,1.515c0.997,0,1.961,0,2.923,0
	C103.035,86.465,102.399,85.791,101.578,85.774z M62.919,81.233c2.355-0.002,4.064,1.152,5.275,3.046
	c0.589-0.588,1.166-1.165,1.774-1.772c-1.709-2.433-4.077-3.771-7.101-3.756c-2.983,0.016-5.32,1.353-7.004,3.764
	c0.616,0.602,1.198,1.171,1.792,1.751C58.851,82.378,60.566,81.233,62.919,81.233z M65.602,83.394
	c-2.333-1.64-5.665-0.789-6.931,1.766c-0.118,0.238-0.111,0.406,0.048,0.629c0.342,0.477,0.632,0.99,0.972,1.469
	c0.092,0.13,0.288,0.186,0.496,0.313c0.135-1.854,1.133-2.949,2.578-3.004c1.646-0.061,2.895,1.168,2.888,3.025
	c0.222-0.149,0.408-0.217,0.503-0.35c0.338-0.48,0.628-0.994,0.972-1.469c0.166-0.229,0.146-0.403,0.027-0.629
	C66.782,84.429,66.259,83.855,65.602,83.394z M63.619,85.948c-0.552-0.299-1.11-0.258-1.604,0.129
	c-0.382,0.299-0.658,0.678-0.553,1.213c0.983,0,1.936,0,2.947,0C64.414,86.654,64.128,86.224,63.619,85.948z M50.895,60.876
	c2.931-4.145,6.878-6.457,12.005-6.463c5.146-0.006,9.108,2.309,12.049,6.477c0.421-0.152,0.838-0.313,1.261-0.455
	c0.438-0.148,0.88-0.283,1.428-0.457c-3.575-5.447-8.497-8.413-15.002-8.317c-6.272,0.092-11.001,3.059-14.423,8.302
	C49.157,60.283,50.027,60.58,50.895,60.876z M33.163,89.481c0.738,0.474,1.478,0.947,2.254,1.445
	c2.031-2.815,4.776-4.307,8.217-4.303c3.438,0.006,6.176,1.51,8.183,4.303c0.774-0.498,1.521-0.979,2.268-1.46
	C48.894,81.79,37.793,82.29,33.163,89.481z M81.233,83.944c-4.036,0.278-7.161,2.227-9.503,5.513
	c0.794,0.508,1.533,0.981,2.273,1.454c3.908-5.736,12.478-5.721,16.431,0.005c0.749-0.479,1.498-0.96,2.288-1.467
	C89.863,85.54,86.063,83.61,81.233,83.944z M68.208,47.137c0.569-0.563,1.148-1.136,1.762-1.743c-1.635-2.35-3.904-3.688-6.813-3.76
	c-3.1-0.078-5.53,1.257-7.309,3.777c0.614,0.591,1.202,1.156,1.798,1.73C59.957,43.188,65.708,42.955,68.208,47.137z
	 M109.737,63.075c0.749-0.48,1.498-0.96,2.289-1.467c-2.86-3.91-6.659-5.839-11.489-5.506c-4.037,0.279-7.162,2.228-9.504,5.514
	c0.794,0.508,1.534,0.98,2.273,1.454C97.213,57.335,105.784,57.349,109.737,63.075z M13.852,61.635
	c0.749,0.48,1.498,0.96,2.246,1.44c3.951-5.724,12.518-5.744,16.433-0.004c0.75-0.48,1.5-0.962,2.25-1.443
	C29.708,54.071,18.646,54.321,13.852,61.635z M102.183,67.37c-0.543-0.281-1.084-0.219-1.561,0.151
	c-0.383,0.3-0.633,0.688-0.561,1.208c0.992,0,1.941,0,2.948,0C103.009,68.081,102.712,67.645,102.183,67.37z M101.288,60.192
	c-2.907,0.073-5.181,1.41-6.814,3.762c0.615,0.602,1.197,1.172,1.79,1.752c1.193-1.895,2.913-3.032,5.266-3.032
	c2.354-0.001,4.066,1.15,5.271,3.043c0.592-0.588,1.171-1.163,1.779-1.767C106.816,61.452,104.385,60.114,101.288,60.192z
	 M25.07,67.415c-0.519-0.313-1.072-0.301-1.573,0.035c-0.438,0.293-0.719,0.699-0.648,1.279c0.978,0,1.931,0,2.946,0
	C25.822,68.122,25.542,67.7,25.07,67.415z M24.216,60.191c-2.966,0.029-5.285,1.368-6.957,3.762c0.615,0.603,1.198,1.172,1.79,1.751
	c1.197-1.887,2.91-3.031,5.264-3.032c2.355-0.001,4.065,1.153,5.275,3.048c0.589-0.59,1.166-1.166,1.772-1.771
	C29.644,61.496,27.258,60.161,24.216,60.191z M109.006,91.15c-5.777,7.306-13.601,11.011-23.252,11.011c0,0,0,0-0.001,0
	c-0.762,0-1.545-0.023-2.328-0.07c-4.364-0.258-8.482-1.674-12.59-4.33c-5.306-3.435-10.596-3.435-15.554,0.018
	c-4.191,2.915-9.331,4.455-14.864,4.455c-10.652,0-20.541-5.523-25.806-14.414c-3.403-5.748-5.423-12.288-6.174-19.994
	c-0.481-4.915-0.495-9.221-0.043-13.164l0.011-0.165c0.022-0.397,0.08-1.451,1.202-1.763c0.146-0.041,0.299-0.063,0.448-0.063
	c0.841,0,1.289,0.622,1.53,0.956l0.083,0.113c1.532,1.999,3.455,2.503,6.028,1.62c2.087-0.716,4.111-1.746,6.069-2.742l0.648-0.329
	c5.097-2.582,9.591-4.025,14.144-4.543c2.206-0.252,4.518-0.238,7.06,0.049c-1.044-1.084-2.332-2.142-2.758-2.286
	c-1.36-0.218-2.293-1.159-2.445-2.506c-0.182-1.604,0.819-3.327,2.278-3.921c3.167-1.292,6.158-1.755,8.813-1.354
	c0.544,0.082,1.202,0.166,1.738,0.23c0.021-0.272,0.041-0.591,0.058-0.94c0.308-6.445,5.99-11.264,7.725-12.587
	c0.617-0.469,1.302-0.679,1.968-0.663c0.677-0.015,1.361,0.201,1.966,0.663c4.759,3.629,7.592,8.617,7.777,13.688
	c0.053-0.015,0.106-0.03,0.162-0.045l0.197-0.054c0.653-0.179,1.395-0.38,2.148-0.387l0.242-0.001c2.943,0,5.352,0.447,7.809,1.45
	c1.458,0.594,2.459,2.316,2.277,3.921c-0.152,1.347-1.085,2.288-2.494,2.518c-0.386,0.134-1.638,1.167-2.672,2.237
	c6.485-0.705,12.857,0.521,19.622,3.747c0.776,0.37,1.546,0.755,2.315,1.141c1.941,0.973,3.949,1.978,6.021,2.69
	c2.585,0.888,4.479,0.399,6.025-1.601l0.081-0.11c0.241-0.333,0.69-0.952,1.543-0.952c0.132,0,0.267,0.016,0.4,0.048
	c1.146,0.272,1.213,1.382,1.235,1.746C118.463,66.218,118.066,79.695,109.006,91.15z M113.814,56.894
	c0.74,0.78,1.435,1.647,2.087,2.591c-0.031-1.12-0.085-2.227-0.149-3.321c-0.062,0.089-0.129,0.171-0.188,0.264
	c-0.162-0.161-0.327-0.324-0.49-0.485C114.675,56.318,114.255,56.635,113.814,56.894z M57.535,30.992
	c0.27,0.363,0.533,0.736,0.789,1.125c-0.622,0.213-1.213,0.414-1.798,0.615c-0.305,0.613-0.568,1.241-0.769,1.883
	c1.854-0.852,3.896-1.374,6.164-1.491c3.041-0.157,5.752,0.358,8.162,1.476c-0.202-0.629-0.457-1.248-0.749-1.86
	c-0.587-0.199-1.178-0.399-1.806-0.613c0.259-0.405,0.531-0.79,0.811-1.165c-1.16-1.809-2.693-3.493-4.591-4.94
	c-0.222-0.169-0.436-0.255-0.636-0.255l-0.068,0.005l-0.117-0.003c-0.26-0.049-0.466,0.085-0.688,0.254
	c-0.588,0.448-1.186,0.957-1.771,1.513c1.612-0.967,3.739-0.939,5.321,0.344c0.547,0.444,0.946,1.077,1.376,1.651
	c0.082,0.109,0.043,0.384-0.039,0.526c-0.302,0.52-0.632,1.025-0.979,1.516c-0.093,0.131-0.287,0.189-0.492,0.317
	c-0.179-1.946-1.215-3.017-2.777-3.003c-1.51,0.014-2.556,1.122-2.678,2.842c-0.256,0.176-0.396,0.068-0.541-0.176
	c-0.291-0.49-0.598-0.976-0.934-1.436c-0.174-0.239-0.164-0.422-0.038-0.669c0.005-0.01,0.011-0.018,0.016-0.026
	C58.289,29.922,57.898,30.448,57.535,30.992z M15.14,57.755c-1.035,0.879-1.991,1.907-2.849,3.119
	c-0.709-0.241-1.44-0.488-2.205-0.748c-0.005,0.517-0.009,1.035,0,1.566c1.729,0.533,3.36,1.331,4.881,2.42
	c1.92,1.373,3.497,3.071,4.696,5.145c-0.884,0.303-1.754,0.6-2.644,0.903c-0.276-0.366-0.553-0.756-0.852-1.127
	c-1.634-2.025-3.625-3.479-5.97-4.375c0.036,0.604,0.091,1.23,0.143,1.854c1.982,0.917,3.774,2.37,5.137,4.396
	c-0.771,0.494-1.51,0.968-2.25,1.441c-0.711-1.044-1.578-1.889-2.539-2.551c0.1,0.741,0.217,1.468,0.342,2.187
	c0.366,0.375,0.711,0.789,1.033,1.245c-0.229,0.228-0.446,0.444-0.664,0.661c0.13,0.605,0.26,1.21,0.409,1.8
	c2.71-2.972,6.139-4.822,10.388-5.365c0.446-0.057,0.888-0.08,1.328-0.1c0.052-0.032,0.088-0.068,0.145-0.099
	c1.14-0.612,2.236-1.14,3.307-1.606c-0.298-1.629-1.242-2.513-2.643-2.517c-1.568-0.006-2.566,1.03-2.766,3.009
	c-0.205-0.133-0.396-0.196-0.489-0.328c-0.339-0.479-0.629-0.992-0.972-1.468c-0.162-0.226-0.152-0.397-0.036-0.63
	c1.312-2.622,4.775-3.445,7.069-1.623c0.553,0.438,0.95,1.074,1.406,1.63c0.166,0.202,0.13,0.399-0.031,0.624
	c-0.214,0.298-0.41,0.607-0.607,0.916c0.848-0.342,1.68-0.642,2.494-0.893c2.821-3.49,6.489-5.678,11.15-6.182
	c7.212-0.78,12.74,2.148,16.789,8.174c-0.961,0.326-1.819,0.619-2.703,0.92c-2.916-4.137-6.874-6.46-12.016-6.462
	c-3.17-0.002-5.885,0.891-8.196,2.547c0.586-0.049,1.169-0.079,1.749-0.079c0.593,0,1.187,0.036,1.778,0.089
	c5.227-2.062,11.646-0.561,15.128,4.661c-0.75,0.48-1.5,0.961-2.25,1.441c-1.483-2.167-3.633-3.489-5.939-4.013
	c2.281,1.363,4.149,3.423,5.645,6.194c2.505-2.312,5.557-3.771,9.221-4.185c5.479-0.62,10.002,0.904,13.646,4.314
	c0.256-0.48,0.526-0.94,0.81-1.378c-0.015-0.015-0.028-0.028-0.044-0.043c0.185-0.27,0.381-0.521,0.583-0.763
	c0.938-1.282,2.019-2.377,3.271-3.326c0.449-0.34,0.916-0.642,1.39-0.925c-2.591,0.44-4.728,1.836-6.388,4.134
	c-0.753-0.48-1.5-0.958-2.303-1.47c2.541-3.507,5.902-5.467,10.258-5.541c1.789-0.03,3.411,0.271,4.89,0.856
	c0.436-0.023,0.87-0.03,1.305-0.011c0.003,0,0.006,0,0.008,0c0.785,0,1.557,0.045,2.323,0.111
	c-6.365-4.513-15.646-3.191-20.292,3.851c-0.865-0.294-1.734-0.589-2.682-0.911c2.956-4.666,7.09-7.576,12.576-8.184
	c6.356-0.704,11.408,1.488,15.303,6.146c0.803,0.229,1.611,0.498,2.43,0.809c-0.167-0.262-0.325-0.53-0.508-0.781
	c-0.174-0.238-0.166-0.422-0.04-0.669c1.335-2.632,4.831-3.427,7.116-1.562c0.545,0.445,0.939,1.082,1.37,1.656
	c0.077,0.102,0.049,0.358-0.027,0.487c-0.313,0.532-0.65,1.05-1.006,1.554c-0.087,0.125-0.273,0.178-0.496,0.314
	c-0.101-1.875-1.189-3.014-2.726-3.014c-1.404,0-2.426,0.956-2.662,2.419c1,0.417,2.016,0.883,3.066,1.426
	c0.24,0.125,0.456,0.256,0.648,0.394c4.736,0.24,8.615,2.225,11.713,5.732c0.157-0.604,0.304-1.208,0.436-1.813
	c-0.314-0.308-0.623-0.609-0.95-0.93c0.429-0.618,0.911-1.152,1.431-1.622c0.107-0.667,0.202-1.335,0.283-2.002
	c-1.098,0.688-2.084,1.597-2.875,2.746c-0.769-0.492-1.507-0.967-2.245-1.439c1.374-2.107,3.284-3.618,5.423-4.532
	c0.039-0.609,0.065-1.216,0.088-1.821c-0.541,0.201-1.08,0.424-1.611,0.694c-2.141,1.088-3.916,2.636-5.258,4.649
	c-0.06,0.09-0.124,0.174-0.183,0.256c-0.891-0.303-1.761-0.599-2.692-0.916c2.433-3.82,5.671-6.398,9.798-7.586
	c-0.001-0.532-0.012-1.062-0.023-1.59c-0.829,0.282-1.601,0.544-2.365,0.805c-0.86-1.22-1.823-2.256-2.87-3.139
	c-0.927,0.006-1.909-0.15-2.959-0.511c-2.197-0.755-4.266-1.791-6.266-2.793c-0.011-0.005-0.021-0.01-0.031-0.016
	c-5.084,0.032-9.006,2.338-11.918,6.458c-0.869-0.296-1.738-0.593-2.682-0.914c2.563-3.929,5.866-6.568,9.997-7.688
	c-0.729-0.298-1.452-0.568-2.173-0.816c-0.134,0.045-0.269,0.091-0.402,0.137c-0.09-0.127-0.186-0.242-0.277-0.364
	c-0.97-0.314-1.934-0.588-2.892-0.812c0.581,0.57,1.133,1.202,1.649,1.909c-0.789,0.506-1.539,0.986-2.287,1.466
	c-1.713-2.48-4.288-3.882-6.975-4.217c-1.367,0.021-2.741,0.133-4.105,0.34c-2.085,0.61-3.999,1.89-5.351,3.873
	c-0.74-0.473-1.479-0.946-2.274-1.455c1.676-2.352,3.762-4,6.287-4.858c0.563-0.707,1.31-1.489,2.068-2.174
	c-4.104,0.559-7.374,2.738-9.886,6.292c-0.864-0.294-1.735-0.59-2.679-0.911c3.288-5.079,7.852-7.979,13.9-8.308
	c0.732-0.04,1.448-0.011,2.156,0.044c-0.081-0.622-0.511-1.272-1.035-1.486c-0.043-0.018-0.085-0.028-0.128-0.045
	c-0.553,0-1.102,0-1.656,0c-0.023-0.207,0.011-0.386,0.069-0.552c-0.368-0.107-0.745-0.187-1.121-0.269
	c-0.111,0.328-0.188,0.693-0.218,1.098c-0.208-0.126-0.403-0.182-0.495-0.312c-0.237-0.334-0.462-0.678-0.679-1.025
	c-0.626-0.084-1.278-0.138-1.955-0.162c0.439,0.547,0.867,1.116,1.271,1.729c-0.93,0.317-1.799,0.615-2.69,0.92
	c-0.572-0.814-1.193-1.546-1.851-2.211c-0.436,0.145-0.673,0.281-0.793,0.354c-0.136,0.083-0.341,0.208-0.641,0.208h-0.373
	c0.769,0.686,1.48,1.479,2.104,2.397c-0.745,0.479-1.49,0.958-2.27,1.459c-2.003-2.787-4.739-4.294-8.175-4.302
	c-3.441-0.008-6.188,1.481-8.224,4.303c-0.771-0.495-1.511-0.969-2.249-1.442c3.905-6.143,12.737-7.462,18.468-2.706l-0.063-0.072
	c-0.312-0.373-0.239-0.779-0.204-0.974c0.031-0.176,0.09-0.504,0.068-1.123c-0.001-0.021-0.005-0.041-0.007-0.063
	c-2.222-1.485-4.813-2.293-7.814-2.293c-2.938,0-5.48,0.779-7.677,2.214c-0.05,0.67-0.101,1.099-0.104,1.123l-0.119,0.98
	l-0.981-0.107c0,0-0.482-0.053-1.105-0.129c-0.725,0.708-1.408,1.494-2.035,2.382c-0.88-0.3-1.739-0.593-2.677-0.912
	c0.414-0.644,0.859-1.237,1.316-1.811c-0.642,0.003-1.304,0.056-1.985,0.163c-0.229,0.372-0.457,0.745-0.71,1.102
	c-0.092,0.128-0.288,0.183-0.496,0.306c-0.028-0.41-0.105-0.778-0.219-1.108c-0.373,0.094-0.75,0.201-1.132,0.323
	c0.051,0.161,0.083,0.331,0.073,0.512c-0.494,0-1.003,0-1.503,0c-0.039,0.016-0.077,0.028-0.116,0.044
	c-0.527,0.215-0.958,0.868-1.037,1.492c0.119-0.008,0.233-0.025,0.354-0.03c6.729-0.295,11.854,2.654,15.569,8.297
	c-0.506,0.162-0.943,0.295-1.376,0.442c-0.438,0.149-0.87,0.313-1.313,0.476c-2.472-3.511-5.685-5.689-9.714-6.287
	c0.792,0.716,1.571,1.54,2.137,2.27c2.317,0.864,4.44,2.424,6.017,4.755c-0.765,0.491-1.504,0.964-2.271,1.456
	c-1.376-1.915-3.104-3.208-5.161-3.843c-1.556-0.223-3.015-0.347-4.395-0.37c-2.803,0.348-5.09,1.784-6.842,4.213
	c-0.758-0.485-1.506-0.964-2.255-1.443c0.441-0.687,0.944-1.31,1.493-1.872c-0.94,0.232-1.89,0.508-2.853,0.832
	c-0.069,0.094-0.143,0.18-0.21,0.275c-0.098-0.033-0.196-0.067-0.294-0.101c-0.695,0.244-1.396,0.508-2.109,0.801
	c3.947,1.128,7.212,3.735,9.848,7.658c-0.958,0.327-1.817,0.619-2.702,0.922c-2.858-4.057-6.727-6.354-11.721-6.446
	c-2.001,1.019-4.069,2.068-6.269,2.823C17.208,57.643,16.14,57.8,15.14,57.755z M113.329,79.158
	c-2.484-3.395-5.709-5.468-9.728-6.001c-0.133,0.425-0.338,0.809-0.523,1.115c-0.089,0.147-0.184,0.287-0.274,0.431
	c3.488,0.344,6.896,2.105,9.192,5.485c-0.76,0.487-1.499,0.961-2.271,1.457c-2.002-2.787-4.738-4.294-8.174-4.301
	c-0.253-0.001-0.493,0.024-0.738,0.04c-0.542,0.617-1.112,1.185-1.71,1.706c0.826-0.235,1.708-0.36,2.661-0.336
	c2.908,0.072,5.179,1.41,6.81,3.755c-0.61,0.611-1.186,1.187-1.753,1.756c-2.502-4.194-8.264-3.952-10.535-0.054
	c-0.57-0.56-1.157-1.136-1.781-1.748c0.195-0.277,0.403-0.536,0.617-0.785c-0.918,0.423-1.887,0.765-2.904,1.034
	c1.771,1.319,3.348,3.008,4.713,5.087c-0.939,0.321-1.81,0.618-2.687,0.918c-1.744-2.473-3.867-4.269-6.376-5.332
	c-0.753,0.048-1.531,0.078-2.385,0.078c-1.581,0-3.172-0.081-4.71-0.159c-1.187-0.061-2.394-0.116-3.601-0.14
	c-2.77,1.017-5.09,2.889-6.973,5.553c-0.868-0.297-1.738-0.593-2.68-0.914c1.439-2.213,3.133-3.994,5.064-5.353
	c-0.031-0.035-0.072-0.063-0.102-0.102c-0.213-0.277-0.416-0.72-0.382-1.335c-0.321,0.205-0.647,0.415-0.965,0.617
	c-3.915-5.73-12.479-5.729-16.432,0.003c-0.274-0.176-0.548-0.352-0.822-0.527c0,0.418-0.094,0.838-0.368,1.212
	c-0.058,0.078-0.122,0.146-0.188,0.212c1.997,1.393,3.703,3.18,4.948,5.288c-0.892,0.303-1.75,0.596-2.636,0.897
	c-1.814-2.577-4.037-4.446-6.697-5.491c-0.064-0.001-0.137-0.001-0.198-0.002l-0.645-0.005c-0.352-0.008-0.678-0.011-0.999-0.011
	c-1.313,0-2.576,0.054-3.799,0.106c-1.196,0.051-2.326,0.099-3.474,0.099c-0.651,0-1.247-0.022-1.822-0.056
	c-2.521,1.057-4.647,2.869-6.41,5.358c-0.852-0.289-1.722-0.584-2.668-0.906c1.332-2.102,2.928-3.794,4.757-5.121
	c-1.104-0.299-2.147-0.696-3.138-1.188c0.286,0.326,0.556,0.666,0.789,1.037c-0.582,0.585-1.156,1.161-1.743,1.749
	c-1.219-1.907-2.931-3.057-5.286-3.054c-2.354,0.003-4.064,1.152-5.256,3.032c-0.597-0.58-1.182-1.149-1.796-1.746
	c1.741-2.475,4.14-3.807,7.202-3.768c0.937,0.012,1.815,0.18,2.636,0.456c-0.635-0.545-1.237-1.149-1.814-1.804
	c-3.438-0.333-7.018,1.066-9.181,4.229c-0.739-0.473-1.479-0.945-2.275-1.454c2.318-3.26,5.417-5.167,9.407-5.515
	c-0.136-0.213-0.273-0.423-0.405-0.644c-0.18-0.301-0.298-0.601-0.387-0.896c-3.711,0.486-7.246,2.393-9.692,5.73
	c0.356,1.072,0.747,2.119,1.178,3.137c0.354,0.216,0.704,0.438,1.046,0.683c1.92,1.373,3.497,3.072,4.696,5.145
	c-0.729,0.249-1.451,0.496-2.18,0.745c0.302,0.426,0.61,0.847,0.936,1.254c1.543-0.576,3.22-0.964,5.02-1.052
	c7.001-0.341,12.852,3.58,15.504,8.344c-0.872,0.297-1.742,0.594-2.612,0.89c-3.68-5.594-10.198-7.536-15.894-5.943
	c0.477,0.476,0.967,0.936,1.478,1.375c4.689-0.896,9.843,0.813,12.866,5.32c-0.351,0.226-0.707,0.454-1.061,0.68
	c0.731,0.176,1.472,0.321,2.22,0.439c3.563-1.802,7.351-2.274,11.341-1.438c0.52,0.109,1.027,0.244,1.523,0.4
	c0.711-0.25,1.408-0.523,2.083-0.838c-0.864-0.294-1.731-0.59-2.671-0.909c3.315-5.108,7.907-8.016,13.999-8.311
	c6.831-0.331,12.57,3.473,15.347,8.328c-0.786,0.268-1.57,0.536-2.358,0.806c0.687,0.325,1.376,0.614,2.067,0.867
	c2.753-0.851,5.627-0.971,8.615-0.344c1.443,0.303,2.795,0.795,4.067,1.449c0.771-0.101,1.531-0.222,2.272-0.38
	c-0.388-0.248-0.783-0.501-1.192-0.764c2.34-3.285,5.464-5.233,9.501-5.514c1.273-0.089,2.471-0.009,3.601,0.218
	c0.478-0.432,0.942-0.888,1.397-1.361c-1.25-0.353-2.583-0.547-4.016-0.546c-5.126,0.003-9.078,2.308-12.013,6.463
	c-0.864-0.294-1.733-0.59-2.681-0.912c3.276-5.062,7.82-8.023,13.852-8.288c2.501-0.109,4.766,0.259,6.833,1.019
	c0.319-0.407,0.61-0.82,0.907-1.231c-0.736-0.25-1.477-0.502-2.276-0.774c1.665-2.624,3.72-4.655,6.177-6.065
	C112.688,80.888,113.025,80.025,113.329,79.158z M94.308,98.967c2.355-0.7,4.549-1.713,6.576-3.029
	C98.459,96.084,96.089,97.087,94.308,98.967z M71.921,96.081c0.916,0.593,1.833,1.115,2.752,1.575
	c-2.901-3.928-6.774-6.126-11.771-6.122c-5.122,0.006-9.069,2.312-11.999,6.453c1.133-0.529,2.217-1.144,3.235-1.852
	c1.613-1.122,3.272-1.912,4.96-2.394c0.09-0.027,0.18-0.054,0.271-0.079c0.204-0.054,0.409-0.099,0.615-0.144
	c0.221-0.049,0.44-0.102,0.667-0.139c0.163-0.027,0.326-0.041,0.488-0.063c0.229-0.029,0.453-0.068,0.689-0.087
	c0.088-0.007,0.171-0.001,0.258-0.006c0.357-0.022,0.714-0.031,1.072-0.025c0.201,0.002,0.399,0.011,0.597,0.022
	c0.238,0.014,0.477,0.037,0.715,0.063c0.214,0.024,0.43,0.042,0.64,0.076C67.381,93.715,69.665,94.621,71.921,96.081z
	 M25.437,95.995c1.803,1.111,3.733,2.026,5.761,2.714C29.565,97.139,27.537,96.236,25.437,95.995z M24.616,71.891
	c-0.175,0.094-0.278,0.195-0.308,0.302c-0.049,0.177,0.038,0.477,0.231,0.802c3.029,5.072,7.191,7.79,12.728,8.31
	c1.691,0.161,3.771,0.105,5.947,0.013c1.553-0.067,3.17-0.139,4.906-0.098l0.642,0.005c0.672,0.006,1.551,0.017,2.434-0.012
	c0.4-0.012,0.598-0.06,0.685-0.089c0.002-0.09-0.013-0.285-0.116-0.654c-0.212-0.749-0.474-1.631-0.812-2.487
	c-2.062-5.222-5-8.16-9.25-9.247c-1.485-0.38-3.009-0.573-4.527-0.573C33.345,68.161,29.354,69.347,24.616,71.891z M74.116,80.979
	c-0.03,0.111-0.028,0.17-0.026,0.188c0.006-0.027,0.115,0.017,0.325,0.017c0.633-0.025,1.197-0.035,1.761-0.035
	c1.575,0,3.163,0.081,4.698,0.159c2.54,0.129,5.279,0.229,7.469,0.047c5.764-0.484,10.023-3.139,13.022-8.115
	c0.404-0.67,0.393-0.938,0.369-1.023c-0.021-0.075-0.134-0.282-0.725-0.588c-4.587-2.373-8.529-3.431-12.785-3.431l-0.141-0.001
	c-2.741-0.13-5.491,0.766-7.853,2.553C77.314,72.958,75.427,76.112,74.116,80.979z M73.203,77.321
	c-5.576-5.777-14.829-5.759-20.421-0.145c0.01,0.024,0.021,0.046,0.031,0.07c0.233,0.594,0.422,1.173,0.593,1.731
	c4.93-5.779,14.178-5.847,19.168,0.175C72.771,78.515,72.981,77.904,73.203,77.321z M10.882,55.843
	c-0.199,0.197-0.4,0.396-0.599,0.593c-0.009-0.015-0.02-0.026-0.028-0.041c-0.077,0.931-0.127,1.886-0.152,2.864
	c0.616-0.886,1.279-1.699,1.99-2.439C11.667,56.553,11.265,56.221,10.882,55.843z"/>
</svg>
