<?xml version="1.0" encoding="utf-8"?>
<!-- Generator: Adobe Illustrator 16.0.0, SVG Export Plug-In . SVG Version: 6.00 Build 0)  -->
<!DOCTYPE svg PUBLIC "-//W3C//DTD SVG 1.1//EN" "http://www.w3.org/Graphics/SVG/1.1/DTD/svg11.dtd">
<svg version="1.1" id="Layer_1" xmlns="http://www.w3.org/2000/svg" xmlns:xlink="http://www.w3.org/1999/xlink" x="0px" y="0px"
	 width="126px" height="126px" viewBox="0 0 126 126" enable-background="new 0 0 126 126" xml:space="preserve">
<path d="M116.664,54.614c-0.025-0.365-0.015-0.811-0.474-0.92c-0.517-0.123-0.749,0.326-1.001,0.653
	c-1.896,2.45-4.288,2.915-7.142,1.934c-2.947-1.014-5.647-2.542-8.441-3.874c-6.867-3.274-13.977-4.707-21.484-3.299
	c0.721-1.521,3.955-4.438,4.803-4.575c2.572-0.419,1.87-3.763,0-4.525c-2.532-1.032-4.942-1.397-7.664-1.374
	c-0.695,0.006-1.437,0.229-2.097,0.405c-2.205,0.591-1.339,1.376-1.419-0.866c-0.185-5.244-3.32-9.846-7.385-12.947
	c-0.468-0.356-0.932-0.484-1.36-0.455c-0.429-0.029-0.893,0.099-1.36,0.455c-3.561,2.717-7.108,7.137-7.333,11.84
	c-0.056,1.182-0.157,2.004-0.157,2.004s-1.642-0.18-2.788-0.352c-2.8-0.422-5.709,0.239-8.287,1.29c-1.87,0.763-2.572,4.106,0,4.525
	c0.852,0.138,4.105,3.073,4.811,4.591c-3.049-0.512-6.108-0.737-9.209-0.385c-4.905,0.559-9.437,2.229-13.805,4.441
	c-2.239,1.135-4.462,2.309-6.846,3.127c-2.825,0.969-5.258,0.506-7.146-1.96c-0.251-0.328-0.493-0.792-1.001-0.65
	c-0.522,0.146-0.44,0.667-0.487,1.079c-0.495,4.319-0.376,8.641,0.045,12.953c0.676,6.933,2.448,13.514,6.04,19.58
	c8.207,13.86,27.299,17.953,39.238,9.648c5.433-3.781,11.125-3.624,16.668-0.037c3.703,2.396,7.627,3.908,12.105,4.173
	c10.05,0.594,18.505-2.681,24.738-10.563C116.589,79.958,117.551,67.458,116.664,54.614z M51.23,82.211
	c-1.226,0.037-2.453,0.008-3.127,0.008c-4.008-0.09-7.439,0.41-10.925,0.081c-6.117-0.575-10.43-3.664-13.491-8.793
	c-0.57-0.954-0.583-1.937,0.461-2.497c5.579-2.996,11.42-4.88,17.808-3.245c5.167,1.322,8.063,5.114,9.931,9.849
	c0.332,0.842,0.599,1.712,0.844,2.584C53.141,81.651,52.763,82.165,51.23,82.211z M102.226,73.756
	c-3.138,5.205-7.63,8.077-13.796,8.594c-4.661,0.391-9.265-0.365-13.899-0.168c-0.93,0.039-1.658-0.416-1.375-1.464
	c1.131-4.197,2.888-8.05,6.477-10.767c2.656-2.011,5.682-2.885,8.502-2.754c5.114-0.02,9.315,1.461,13.34,3.543
	C102.911,71.483,103.09,72.323,102.226,73.756z"/>
</svg>
