<?xml version="1.0" encoding="utf-8"?>
<!-- Generator: Adobe Illustrator 16.0.0, SVG Export Plug-In . SVG Version: 6.00 Build 0)  -->
<!DOCTYPE svg PUBLIC "-//W3C//DTD SVG 1.1//EN" "http://www.w3.org/Graphics/SVG/1.1/DTD/svg11.dtd">
<svg version="1.1" id="Layer_1" xmlns="http://www.w3.org/2000/svg" xmlns:xlink="http://www.w3.org/1999/xlink" x="0px" y="0px"
	 width="126px" height="126px" viewBox="0 0 126 126" enable-background="new 0 0 126 126" xml:space="preserve">
<path fill-rule="evenodd" clip-rule="evenodd" d="M118.491,44.787c-1.71,1.992-3.688,1.816-5.63,1.1
	c-2.702-0.996-5.357-2.121-8.001-3.265c-6.51-2.818-13.223-4.525-20.392-4.005c-5.483,0.398-10.837,1.455-15.992,3.335
	c-1.839,0.67-3.66,1.053-5.477,1.16c-1.817-0.107-3.638-0.49-5.477-1.16c-5.155-1.88-10.509-2.937-15.992-3.335
	c-7.169-0.52-13.882,1.187-20.392,4.005c-2.644,1.144-5.299,2.27-8,3.265c-1.942,0.716-3.92,0.892-5.63-1.1
	c-0.653,10.455,0.201,20.421,4.363,29.907c2.437,5.554,5.882,10.354,10.9,13.834c8.12,5.631,16.968,6.999,26.343,3.814
	c2.07-0.702,3.929-2.111,5.786-3.347c2.875-1.913,5.593-3.238,8.1-3.29c2.506,0.052,5.225,1.376,8.099,3.29
	c1.856,1.235,3.716,2.645,5.786,3.347c9.376,3.184,18.224,1.816,26.343-3.814c5.018-3.479,8.463-8.28,10.9-13.834
	C118.29,65.208,119.144,55.242,118.491,44.787z M41.781,49.991c1.563-0.755,3.567,0.16,4.475,2.041
	c0.908,1.883-0.874,6.524,0.599,8.472c1.472,1.948-5.351-3.857-6.259-5.739S40.219,50.745,41.781,49.991z M31.47,48.645
	c0.819-1.05,2.509-1.101,3.774-0.114c1.264,0.988,1.612,4.788,3.288,5.628c1.674,0.841-4.993-0.837-6.257-1.825
	S30.649,49.694,31.47,48.645z M21.309,49.726c0.342-1.287,1.877-1.997,3.427-1.585c1.55,0.414,3.36,3.773,5.231,3.889
	c1.871,0.117-4.921,1.187-6.472,0.774C21.945,52.391,20.966,51.014,21.309,49.726z M14.621,51.438
	c0.218-0.821,1.196-1.273,2.184-1.01c0.988,0.263,2.142,2.405,3.334,2.479c1.193,0.075-3.136,0.756-4.125,0.494
	C15.026,53.137,14.402,52.259,14.621,51.438z M14.559,62.545c-0.023-1.022,1.709-2.729,1.447-3.895
	c-0.261-1.166,1.604,2.799,1.628,3.822c0.024,1.022-0.646,1.867-1.493,1.886C15.291,64.379,14.583,63.566,14.559,62.545z
	 M19.009,69.67c-0.683,0.357-1.586-0.021-2.015-0.843c-0.429-0.823,0.297-2.909-0.383-3.752c-0.681-0.845,2.429,1.637,2.858,2.46
	C19.898,68.358,19.693,69.314,19.009,69.67z M22.851,75.278c-0.655,0.407-1.584,0.099-2.073-0.689
	c-0.49-0.789,0.079-2.922-0.664-3.712c-0.742-0.792,2.545,1.45,3.035,2.239C23.639,73.902,23.506,74.872,22.851,75.278z
	 M28.542,79.343c-0.457,0.562-1.376,0.572-2.051,0.022c-0.676-0.55-0.825-2.619-1.726-3.093c-0.9-0.476,2.704,0.509,3.38,1.059
	C28.821,77.881,29,78.782,28.542,79.343z M33.614,81.403c-0.722-0.07-1.778-1.436-2.622-1.35c-0.843,0.086,2.11-0.893,2.832-0.824
	c0.723,0.07,1.261,0.613,1.203,1.212C34.969,81.043,34.335,81.474,33.614,81.403z M39.912,81.251
	c-0.723,0.069-2.02-1.069-2.833-0.823c-0.811,0.246,1.9-1.28,2.623-1.351s1.355,0.36,1.412,0.959
	C41.172,80.638,40.634,81.182,39.912,81.251z M45.224,79.917c-0.596,0.057-1.665-0.881-2.333-0.678
	c-0.668,0.203,1.565-1.054,2.159-1.112c0.595-0.058,1.117,0.296,1.164,0.79C46.262,79.412,45.818,79.859,45.224,79.917z
	 M50.004,78.151c-0.466,0.217-1.599-0.237-2.083,0.118c-0.483,0.354,0.967-1.301,1.431-1.518c0.466-0.216,0.989-0.078,1.168,0.308
	C50.701,77.446,50.469,77.936,50.004,78.151z M28.66,75.838C19.475,71.046,17.419,56.83,17.419,56.83s11.804-4.467,20.989,0.326
	c9.185,4.792,12.274,17.031,12.274,17.031S37.846,80.631,28.66,75.838z M48.563,63.736c-1.032-2.139-0.429-4.569,1.348-5.426
	c1.777-0.858,4.055,0.182,5.087,2.321c1.033,2.141-0.994,7.415,0.68,9.629C57.352,72.475,49.595,65.876,48.563,63.736z
	 M105.861,52.906c1.192-0.074,2.346-2.215,3.334-2.479c0.988-0.263,1.965,0.189,2.184,1.01c0.219,0.821-0.406,1.699-1.393,1.962
	C108.997,53.663,104.668,52.981,105.861,52.906z M96.032,52.03c1.871-0.116,3.682-3.476,5.232-3.889
	c1.55-0.411,3.085,0.298,3.427,1.585c0.343,1.288-0.636,2.665-2.187,3.078C100.953,53.217,94.161,52.147,96.032,52.03z
	 M87.468,54.159c1.676-0.841,2.024-4.641,3.288-5.628c1.265-0.987,2.955-0.936,3.774,0.114c0.82,1.05,0.459,2.701-0.805,3.689
	C92.461,53.321,85.793,55,87.468,54.159z M79.145,60.503c1.473-1.948-0.31-6.588,0.598-8.472c0.908-1.881,2.912-2.796,4.475-2.041
	c1.563,0.754,2.094,2.891,1.186,4.773S77.673,62.452,79.145,60.503z M70.322,70.26c1.674-2.214-0.353-7.489,0.68-9.629
	c1.032-2.139,3.31-3.179,5.087-2.321c1.776,0.857,2.38,3.287,1.348,5.426C76.404,65.876,68.648,72.475,70.322,70.26z M78.079,78.269
	c-0.483-0.355-1.617,0.099-2.083-0.118c-0.465-0.215-0.696-0.705-0.516-1.092c0.179-0.386,0.702-0.524,1.168-0.308
	C77.112,76.968,78.562,78.623,78.079,78.269z M83.109,79.239c-0.668-0.203-1.737,0.735-2.333,0.678c-0.594-0.058-1.039-0.505-0.99-1
	c0.047-0.494,0.569-0.848,1.164-0.79C81.544,78.185,83.777,79.441,83.109,79.239z M88.92,80.428
	c-0.813-0.246-2.11,0.892-2.833,0.823c-0.722-0.07-1.261-0.614-1.202-1.215c0.058-0.599,0.69-1.029,1.413-0.959
	C87.02,79.148,89.731,80.674,88.92,80.428z M75.318,74.187c0,0,3.088-12.239,12.273-17.031c9.185-4.793,20.989-0.326,20.989-0.326
	s-2.056,14.216-11.241,19.009C88.153,80.631,75.318,74.187,75.318,74.187z M95.008,80.053c-0.844-0.086-1.9,1.28-2.623,1.35
	c-0.722,0.07-1.355-0.36-1.413-0.961c-0.058-0.6,0.48-1.142,1.203-1.212C92.898,79.161,95.851,80.139,95.008,80.053z
	 M101.235,76.272c-0.901,0.474-1.05,2.543-1.726,3.093c-0.676,0.55-1.595,0.54-2.052-0.022c-0.458-0.562-0.279-1.462,0.397-2.013
	C98.531,76.781,102.136,75.796,101.235,76.272z M105.886,70.876c-0.742,0.79-0.174,2.924-0.664,3.712
	c-0.489,0.788-1.418,1.097-2.073,0.689c-0.655-0.406-0.788-1.375-0.298-2.163C103.341,72.326,106.628,70.084,105.886,70.876z
	 M109.39,65.075c-0.681,0.843,0.045,2.929-0.384,3.752c-0.429,0.822-1.332,1.2-2.015,0.843c-0.684-0.355-0.889-1.312-0.459-2.135
	C106.96,66.712,110.07,64.23,109.39,65.075z M109.86,64.358c-0.848-0.019-1.518-0.864-1.493-1.886
	c0.024-1.023,1.889-4.988,1.627-3.822c-0.262,1.165,1.47,2.872,1.447,3.895C111.417,63.566,110.708,64.379,109.86,64.358z"/>
</svg>
