<?xml version="1.0" encoding="utf-8"?>
<!-- Generator: Adobe Illustrator 16.0.0, SVG Export Plug-In . SVG Version: 6.00 Build 0)  -->
<!DOCTYPE svg PUBLIC "-//W3C//DTD SVG 1.1//EN" "http://www.w3.org/Graphics/SVG/1.1/DTD/svg11.dtd">
<svg version="1.1" id="Layer_1" xmlns="http://www.w3.org/2000/svg" xmlns:xlink="http://www.w3.org/1999/xlink" x="0px" y="0px"
	 width="126px" height="126px" viewBox="0 0 126 126" enable-background="new 0 0 126 126" xml:space="preserve">
<path fill-rule="evenodd" clip-rule="evenodd" d="M117.168,51.509c-3.856,1.136-5.212-1.312-6.263-4.124
	c-1.361-3.645-4.108-5.451-7.614-6.754c-8.565-3.18-16.908-2.035-25.095,1.116c-2.807,1.08-4.97,0.882-7.162-1.063
	c-2.901-2.577-4.86-5.73-6.251-9.321c-0.395-1.024-0.54-2.718-1.846-2.708c-1.108,0.008-1.246,1.636-1.626,2.604
	c-1.218,3.088-2.793,5.934-5.113,8.326c-3.096,3.195-4.745,3.287-8.958,1.912c-6.154-2.008-12.401-3.693-19.039-2.338
	c-6.346,1.296-12.048,3.24-14.192,10.33c-0.532,1.766-2.003,2.634-4.012,2.145c-0.883-0.216-1.935-0.539-2.536,0.436
	c-0.607,0.982,0.191,1.832,0.766,2.459c2.831,3.084,3.921,6.822,4.176,10.846c0.348,5.488,1.473,10.822,2.966,16.089
	c1.678,5.919,5.366,10.395,10.249,13.95c1.74,1.262,3.81,2.03,5.916,1.924c6.633-0.335,12.788-2.316,17.76-6.831
	c4.834-4.391,7.531-10.245,9.924-16.212c1.149-2.867,2.259-5.75,3.385-8.627c0.25,0.012,0.5,0.023,0.751,0.034
	c1.766,4.339,3.471,8.704,5.32,13.011c3.89,9.064,10.056,15.505,20.039,17.92c5.661,1.37,10.31,0.396,14.605-3.629
	c5.126-4.803,7.27-10.9,8.834-17.469c1.776-7.461,0.298-15.839,6.224-22.184C119.291,52.371,118.429,51.139,117.168,51.509z
	 M29.155,71.871c-8.688-1.857-8.214-9.883-8.214-9.883s8.475-5.204,17.16-3.348c8.684,1.857,13.948,11.666,13.948,11.666
	S37.84,73.729,29.155,71.871z M99.209,71.871c-8.684,1.857-22.894-1.564-22.894-1.564s5.265-9.809,13.948-11.666
	c8.687-1.856,17.159,3.348,17.159,3.348S107.896,70.014,99.209,71.871z"/>
</svg>
