<?xml version="1.0" encoding="utf-8"?>
<!-- Generator: Adobe Illustrator 16.0.0, SVG Export Plug-In . SVG Version: 6.00 Build 0)  -->
<!DOCTYPE svg PUBLIC "-//W3C//DTD SVG 1.1//EN" "http://www.w3.org/Graphics/SVG/1.1/DTD/svg11.dtd">
<svg version="1.1" id="Layer_1" xmlns="http://www.w3.org/2000/svg" xmlns:xlink="http://www.w3.org/1999/xlink" x="0px" y="0px"
	 width="126px" height="126px" viewBox="0 0 126 126" enable-background="new 0 0 126 126" xml:space="preserve">
<path fill-rule="evenodd" clip-rule="evenodd" d="M117.234,49.73c-0.234-3.342-0.881-6.586-2.099-9.703
	c-1.645-4.209-3.971-7.963-7.455-10.926c-2.479-2.105-5.295-3.561-8.442-4.355c-3.374-0.852-6.786-1.313-10.286-1.037
	c-3.738,0.295-7.226,1.369-10.381,3.354c-1.981,1.246-3.648,2.891-4.883,4.932c-1.415,2.338-2.134,4.842-1.705,7.566
	c0.558,3.537,2.717,6.408,5.705,8.191c2.504,1.496,5.127,1.602,7.94,0.844c1.681-0.453,6.796-2.732,9.176-8.404
	c0.348-1.387,0.197-2.75-1.049-3.695c-2.844-2.158-6.094-0.131-6.995,2.26c-0.35,0.926,0.032,1.742,0.924,2.193
	c0.506,0.256,1.041,0.385,1.604,0.393c0.402,0.006,0.476,0.189,0.28,0.506c-1.215,1.975-2.665,3.684-4.924,4.539
	c-3.789,1.436-8.014-0.965-8.981-4.438c-0.832-2.982-0.469-5.82,1.155-8.541c1.113-1.863,2.586-3.287,4.355-4.461
	c1.721-1.141,3.586-1.967,5.584-2.49c3.766-0.982,7.526-1.137,11.245,0.195c2.637,0.945,5.223,2.574,6.477,5.135
	c0.897,1.832,1.061,3.801,1.015,5.822c-0.088,3.805-1.954,7.094-4.397,9.941c-2.749,3.203-6.288,5.182-10.295,6.387
	c-2.058,0.619-4.179,0.945-6.278,1.369c-3.282,0.662-6.555,1.379-9.763,2.324c-2.061,0.605-4.104,1.336-6.032,2.332
	c-1.161,0.6-2.279,1.258-3.296,2.076c-1.405,1.131-2.22,2.436-2.445,3.848c-0.261-1.35-1.069-2.598-2.419-3.684
	c-1.018-0.818-2.136-1.477-3.297-2.076c-1.929-0.996-3.972-1.727-6.032-2.334c-3.207-0.943-6.48-1.662-9.763-2.324
	c-2.1-0.422-4.221-0.748-6.278-1.367c-4.007-1.207-7.546-3.186-10.294-6.389c-2.444-2.848-4.311-6.137-4.398-9.941
	c-0.046-2.02,0.117-3.988,1.015-5.822c1.253-2.561,3.84-4.189,6.477-5.135c3.719-1.332,7.479-1.178,11.245-0.193
	c1.998,0.521,3.863,1.348,5.584,2.488c1.77,1.174,3.242,2.598,4.355,4.463c1.624,2.719,1.987,5.559,1.156,8.539
	c-0.969,3.473-5.193,5.873-8.982,4.438c-2.259-0.854-3.708-2.564-4.924-4.539c-0.195-0.316-0.122-0.5,0.28-0.504
	c0.563-0.01,1.098-0.139,1.604-0.393c0.892-0.451,1.273-1.27,0.924-2.195c-0.901-2.389-4.151-4.416-6.995-2.258
	c-1.245,0.945-1.396,2.307-1.049,3.693c2.38,5.672,7.495,7.951,9.176,8.404c2.813,0.76,5.437,0.652,7.94-0.842
	c2.988-1.783,5.147-4.654,5.705-8.191c0.429-2.727-0.29-5.229-1.705-7.568c-1.234-2.041-2.9-3.686-4.883-4.93
	c-3.155-1.984-6.643-3.061-10.381-3.354c-3.5-0.275-6.912,0.186-10.286,1.037c-3.147,0.793-5.964,2.25-8.441,4.355
	c-3.485,2.961-5.812,6.715-7.456,10.926c-1.218,3.117-1.863,6.361-2.099,9.701c-0.322,4.605,0.183,9.096,1.757,13.443
	c0.951,2.627,2.351,5.002,4.012,7.254c2.433,3.297,1.482,6.07,1.821,9.693c0.414,4.43,0.461,8.766,1.787,12.99
	c0.813,2.588,1.881,5.063,3.682,7.148c0.568,0.658,1.241,1.188,2.021,1.582c1.476,0.744,2.804,0.25,4.066-0.523
	c1.98-1.215,3.575-2.879,5.106-4.592c2.796-3.125,5.271-6.506,7.739-9.889c1.689-2.316,3.375-4.639,5.04-6.975
	c0.551-0.771,1.18-1.301,2.163-1.52c3.306-0.742,6.448-1.93,9.35-3.707c1.909-1.172,3.61-2.564,4.756-4.537
	c0.51-0.879,0.821-1.744,0.947-2.582c0.141,0.787,0.443,1.596,0.921,2.418c1.146,1.973,2.847,3.367,4.755,4.537
	c2.901,1.779,6.044,2.967,9.35,3.707c0.983,0.221,1.612,0.75,2.163,1.521c1.666,2.336,3.351,4.656,5.041,6.975
	c2.468,3.383,4.942,6.764,7.738,9.889c1.531,1.711,3.126,3.377,5.106,4.59c1.263,0.773,2.591,1.268,4.066,0.523
	c0.78-0.393,1.453-0.924,2.021-1.58c1.801-2.086,2.869-4.561,3.682-7.148c1.326-4.225,1.374-8.563,1.788-12.99
	c0.338-3.623-0.612-6.396,1.82-9.695c1.661-2.252,3.061-4.627,4.013-7.252C117.053,58.826,117.557,54.336,117.234,49.73z
	 M44.611,72.939c-6.605-0.271-11.849-3.15-11.713-6.43c0.135-3.277,5.598-5.715,12.201-5.443c6.604,0.273,11.849,3.152,11.714,6.43
	C56.678,70.775,51.215,73.213,44.611,72.939z M81.39,72.777c-6.605,0.273-12.067-2.166-12.203-5.443
	c-0.135-3.279,5.109-6.156,11.714-6.43c6.604-0.273,12.066,2.164,12.201,5.443C93.237,69.627,87.994,72.504,81.39,72.777z"/>
</svg>
