<?xml version="1.0" encoding="utf-8"?>
<!-- Generator: Adobe Illustrator 16.0.0, SVG Export Plug-In . SVG Version: 6.00 Build 0)  -->
<!DOCTYPE svg PUBLIC "-//W3C//DTD SVG 1.1//EN" "http://www.w3.org/Graphics/SVG/1.1/DTD/svg11.dtd">
<svg version="1.1" id="Layer_1" xmlns="http://www.w3.org/2000/svg" xmlns:xlink="http://www.w3.org/1999/xlink" x="0px" y="0px"
	 width="126px" height="126px" viewBox="0 0 126 126" enable-background="new 0 0 126 126" xml:space="preserve">
<path fill-rule="evenodd" clip-rule="evenodd" d="M117.548,54.086c-0.176-2.531-0.873-5.091-1.733-7.493
	c-1.502-4.197-4.588-6.765-9.046-7.482c-5.747-0.927-11.369,0.24-17.019,1.072c-8.31,1.226-16.605,2.727-24.963,3.413
	C64.19,43.644,63.595,43.68,63,43.709c-0.595-0.029-1.19-0.065-1.787-0.113c-8.358-0.687-16.654-2.188-24.963-3.413
	c-5.649-0.832-11.272-1.999-17.019-1.072c-4.458,0.718-7.543,3.285-9.046,7.482c-0.86,2.402-1.558,4.962-1.733,7.493
	c-0.499,7.195-0.292,14.37,2.106,21.305c3.997,11.563,14.384,18.847,26.337,18.364c4.958-0.2,9.51-1.896,13.746-4.369
	c2.774-1.62,5.274-3.734,8.113-5.211c1.352-0.703,2.771-1.32,4.245-1.672c1.474,0.352,2.893,0.969,4.245,1.672
	c2.839,1.477,5.339,3.591,8.113,5.211c4.236,2.473,8.788,4.169,13.746,4.369c11.954,0.482,22.341-6.801,26.337-18.364
	C117.839,68.457,118.047,61.282,117.548,54.086z M49.525,49.067l0.862,1.438l-1.439,0.862l-0.862-1.438L49.525,49.067z
	 M46.245,45.71l1.512,0.726l-0.726,1.512l-1.512-0.726L46.245,45.71z M42.482,47.626l1.511,0.725l-0.726,1.513l-1.512-0.726
	L42.482,47.626z M39.87,44.197l1.432,0.875l-0.877,1.431l-1.43-0.875L39.87,44.197z M36.553,45.736l0.635,1.553l-1.553,0.634
	l-0.634-1.552L36.553,45.736z M33.271,42.646l0.636,1.553l-1.554,0.634l-0.634-1.553L33.271,42.646z M30.711,45.094l-0.904,1.413
	l-1.413-0.902l0.903-1.413L30.711,45.094z M27.285,41.488l1.414,0.902l-0.903,1.413l-1.414-0.901L27.285,41.488z M50.974,72.334
	c-1.951,0.847-5.874,2.267-10.228,2.267c-1.95,0-3.79-0.289-5.461-0.857c-6.291-2.139-15.139-11.021-16.691-15.797
	c0,0,11.803,0.541,16.124,0.541c1.95,0,3.79,0.289,5.462,0.857c6.277,2.136,10.188,8.182,11.578,10.683l0.881,1.586L50.974,72.334z
	 M52.352,49.759l0.27-1.655l1.654,0.27l-0.269,1.655L52.352,49.759z M55.982,53.645h-1.707v-1.707h1.707V53.645z M98.715,41.488
	l0.903,1.414l-1.414,0.901l-0.903-1.413L98.715,41.488z M96.703,44.192l0.903,1.413l-1.413,0.902l-0.904-1.413L96.703,44.192z
	 M92.729,42.646l1.552,0.634l-0.634,1.553l-1.554-0.634L92.729,42.646z M89.447,45.736l1.552,0.635l-0.634,1.552l-1.553-0.634
	L89.447,45.736z M86.13,44.197l0.875,1.431l-1.43,0.875l-0.876-1.431L86.13,44.197z M83.518,47.626l0.727,1.512l-1.512,0.726
	l-0.726-1.513L83.518,47.626z M79.755,45.71l0.726,1.512l-1.512,0.726l-0.726-1.512L79.755,45.71z M76.475,49.067l1.439,0.861
	l-0.862,1.438l-1.439-0.862L76.475,49.067z M71.725,53.645h-1.707v-1.707h1.707V53.645z M71.725,48.374l1.654-0.27l0.27,1.655
	l-1.655,0.27L71.725,48.374z M90.716,73.744c-1.671,0.568-3.511,0.857-5.461,0.857c-4.354,0-8.277-1.42-10.228-2.267l-1.664-0.721
	l0.881-1.586c1.389-2.501,5.301-8.547,11.578-10.683c1.672-0.568,3.512-0.857,5.462-0.857c4.321,0,16.124-0.541,16.124-0.541
	C105.854,62.722,97.007,71.605,90.716,73.744z"/>
</svg>
