<?xml version="1.0" encoding="utf-8"?>
<!-- Generator: Adobe Illustrator 16.0.0, SVG Export Plug-In . SVG Version: 6.00 Build 0)  -->
<!DOCTYPE svg PUBLIC "-//W3C//DTD SVG 1.1//EN" "http://www.w3.org/Graphics/SVG/1.1/DTD/svg11.dtd">
<svg version="1.1" id="Layer_1" xmlns="http://www.w3.org/2000/svg" xmlns:xlink="http://www.w3.org/1999/xlink" x="0px" y="0px"
	 width="126px" height="126px" viewBox="0 0 126 126" enable-background="new 0 0 126 126" xml:space="preserve">
<path fill-rule="evenodd" clip-rule="evenodd" d="M121.734,60.141c0.486-0.123,1.755-0.445,1.755-0.445s-0.75-0.711-1.272-1.203
	c-5.179-5.436-3.839-9.98-3.839-9.98c-1.769,0.422-3.522,0.92-5.304,1.277c-2.835,0.57-5.681,0.686-8.475-0.244
	c-0.775-0.258-1.459-0.697-0.303-1.385c4.341-2.588,4.82-11.25,4.82-11.25c-5.155,4.77-14.096,5.379-14.096,5.379
	c-4.598,0.264-9.216-0.184-13.804,0.697c-5.224,1.004-9.338,3.623-12.047,8.125c-1.317,2.189-4.921,7.6-6.167,8.982
	c-1.247-1.383-4.851-6.793-6.168-8.982c-2.709-4.502-6.823-7.121-12.046-8.125c-4.589-0.881-9.207-0.434-13.804-0.697
	c0,0-8.942-0.609-14.096-5.379c0,0,0.478,8.662,4.819,11.25c1.158,0.688,0.473,1.127-0.303,1.385
	c-2.793,0.93-5.64,0.814-8.475,0.244c-1.783-0.357-3.535-0.855-5.304-1.277c0,0,1.338,4.545-3.839,9.98
	c-0.523,0.492-1.272,1.203-1.272,1.203s1.27,0.322,1.756,0.445c4.049,1.027,5.147,2.563,5.141,6.781
	c-0.004,3.061-0.918,5.891-2.171,8.631c-0.316,0.688-0.625,1.326-0.625,1.326s1.09,0.135,1.583,0.084
	c8.544-0.881,11.997,1.096,15.597,8.846c0.982,2.113,1.509,3.281,1.509,3.281l4.091-0.738l20.68-4.434
	c5.494-1.783,9.784-5.115,12.615-10.279c0.116-0.213,0.2-0.473,0.314-0.705c0.114,0.232,0.198,0.492,0.314,0.705
	c2.83,5.164,7.121,8.496,12.614,10.279l20.681,4.434l4.091,0.738c0,0,0.527-1.168,1.509-3.281c3.6-7.75,7.053-9.727,15.597-8.846
	c0.495,0.051,1.584-0.084,1.584-0.084s-0.311-0.639-0.626-1.326c-1.253-2.74-2.167-5.57-2.171-8.631
	C116.587,62.703,117.684,61.168,121.734,60.141z M52.351,69.912c-1.73,0.955-3.528,1.629-5.025,1.68
	c-1.353,0.02-2.141-0.174-2.94-0.525c-3.481-1.529-6.021-4.213-8.575-6.889c-0.597-0.627-3.189-1.949-2.983-2.303
	c0.178-0.303,3.057,0.322,3.708,0.271c3.165-0.246,6.28-1.072,9.473-0.939c3.516,0.146,5.946,1.979,7.445,5.104
	C54.18,67.826,53.917,69.047,52.351,69.912z M90.189,64.178c-2.555,2.676-5.095,5.359-8.576,6.889
	c-0.8,0.352-1.587,0.545-2.94,0.525c-1.496-0.051-3.294-0.725-5.023-1.68c-1.567-0.865-1.831-2.086-1.103-3.602
	c1.497-3.125,3.93-4.957,7.444-5.104c3.192-0.133,6.308,0.693,9.472,0.939c0.651,0.051,3.53-0.574,3.708-0.271
	C93.379,62.229,90.785,63.551,90.189,64.178z"/>
</svg>
