<?xml version="1.0" encoding="utf-8"?>
<!-- Generator: Adobe Illustrator 16.0.0, SVG Export Plug-In . SVG Version: 6.00 Build 0)  -->
<!DOCTYPE svg PUBLIC "-//W3C//DTD SVG 1.1//EN" "http://www.w3.org/Graphics/SVG/1.1/DTD/svg11.dtd">
<svg version="1.1" id="Layer_1" xmlns="http://www.w3.org/2000/svg" xmlns:xlink="http://www.w3.org/1999/xlink" x="0px" y="0px"
	 width="126px" height="126px" viewBox="0 0 126 126" enable-background="new 0 0 126 126" xml:space="preserve">
<path d="M122.598,36.42c-0.921-1.381-2.371-2.238-3.785-2.238c-0.284,0-0.565,0.035-0.836,0.104
	c-1.118,0.284-2.145,0.643-3.053,1.066c-0.916,0.428-1.822,0.89-2.698,1.336c-0.979,0.5-1.993,1.017-2.997,1.473
	c-2.063,0.935-4.173,1.408-6.272,1.408c-0.114,0-0.23,0-0.347-0.004c-0.997-0.023-2.014-0.057-2.996-0.09
	c-1.168-0.037-2.375-0.077-3.566-0.103c-0.478-0.01-1.002-0.015-1.606-0.015c-0.44,0-0.871,0.002-1.28,0.005
	c-0.367,0.002-0.718,0.004-1.045,0.004h-0.07l-0.068,0.007c-0.464,0.049-0.906,0.083-1.333,0.117
	c-0.916,0.07-1.78,0.138-2.648,0.329c-4.284,0.945-8.06,2.39-11.542,4.415c-2.648,1.541-4.826,3.563-6.932,5.519
	c-0.233,0.216-0.466,0.433-0.699,0.647c-0.791,0.731-1.759,1.529-2.934,1.911c-0.703,0.229-1.478,0.331-2.511,0.331l0,0
	c-0.527,0-1.059-0.025-1.62-0.053c-0.148-0.007-0.297-0.014-0.445-0.021c-1.332-0.06-2.576-0.663-3.918-1.899
	c-0.318-0.293-0.635-0.588-0.952-0.883c-2.162-2.014-4.397-4.095-7.128-5.664c-2.643-1.52-5.463-2.584-8.116-3.51
	c-3.201-1.115-6.485-1.176-9.662-1.234l-0.119-0.002c-1.149-0.021-2.308,0.026-3.422,0.072c-0.61,0.025-1.241,0.051-1.856,0.064
	c-0.443,0.01-0.888,0.031-1.317,0.053c-0.582,0.028-1.132,0.055-1.678,0.055c-0.499,0-0.933-0.023-1.324-0.07
	c-2.675-0.328-5.428-1.291-8.417-2.943l-0.218-0.12c-1.498-0.829-3.047-1.687-4.849-2.099c-0.511-0.117-0.932-0.172-1.322-0.172
	c-0.42,0-0.804,0.067-1.141,0.199c-1.964,0.77-3.222,2.354-3.449,4.348c-0.168,1.463-0.09,2.98,0.228,4.389
	c0.51,2.268,1.188,4.512,1.846,6.682l0.171,0.564c0.803,2.655,1.713,4.764,2.865,6.633c1.287,2.089,2.745,4.455,3.465,7.024
	c0.548,1.952,0.984,3.571,1.376,5.093c0.058,0.223,0.116,0.445,0.174,0.668c0.296,1.129,0.574,2.197,0.751,3.281
	c0.197,1.217,0.295,2.442,0.396,3.739c0.018,0.214,0.034,0.428,0.052,0.642c0.114,1.413,0.208,2.889,0.287,4.511l0.015,0.316
	c0.07,1.506,0.143,3.063,0.74,4.612c0.752,1.947,1.951,3.25,3.668,3.982c1.413,0.602,2.771,0.894,4.152,0.894
	c0.561,0,1.133-0.05,1.701-0.148c2.626-0.454,5.693-1.117,8.541-2.585c0.979-0.504,1.948-1.046,2.885-1.569
	c0.683-0.382,1.389-0.776,2.084-1.147c2.795-1.496,5.473-2.423,8.188-2.836l0.239-0.036c1.445-0.22,2.94-0.446,4.402-0.847
	c1.466-0.402,2.506-0.955,3.182-1.689c1.052-1.146,2.21-2.576,2.816-4.491c0.879-2.771,1.931-5.7,3.658-8.333
	c0.655-1,1.296-1.605,2.076-1.965l0.136-0.063c0.117-0.056,0.299-0.14,0.414-0.181c0.95,0.279,1.663,0.756,2.178,1.453
	c1.834,2.486,2.943,5.422,3.84,7.979l0.006,0.016c0.467,1.33,0.948,2.705,1.848,4.012c1.398,2.03,3.27,3.205,5.724,3.589
	c0.569,0.089,1.151,0.188,1.714,0.284c0.638,0.107,1.298,0.22,1.952,0.32c2.942,0.451,5.826,1.521,8.815,3.267
	c3.094,1.808,6.438,3.634,10.314,4.377c0.259,0.05,0.517,0.103,0.775,0.155c1.117,0.229,2.273,0.465,3.49,0.465
	c0.859,0,1.646-0.117,2.406-0.357c1.57-0.498,3.332-1.258,4.479-3.117c0.749-1.217,1.181-2.623,1.321-4.301
	c0.098-1.185,0.16-2.383,0.221-3.541c0.067-1.293,0.137-2.631,0.258-3.928c0.149-1.616,0.408-3.367,0.815-5.512
	c0.099-0.523,0.263-1.055,0.437-1.619c0.21-0.68,0.427-1.383,0.549-2.137c0.325-2,1.054-3.887,1.792-5.627
	c0.363-0.857,0.84-1.68,1.345-2.552c0.313-0.54,0.636-1.099,0.935-1.674c0.179-0.345,0.362-0.687,0.546-1.03
	c0.659-1.234,1.341-2.512,1.847-3.876c0.826-2.231,1.595-4.694,2.349-7.53c0.391-1.467,0.555-2.966,0.713-4.416l0.031-0.286
	C123.777,38.979,123.43,37.668,122.598,36.42z M47.178,70.25c-4.67-0.198-9.312,0.563-14.01,0.17
	c-6.215-0.521-10.742-3.416-13.905-8.663c-0.87-1.444-0.69-2.292,0.758-3.04c4.056-2.098,8.291-3.59,13.445-3.57
	c2.843-0.132,5.893,0.749,8.57,2.775c3.617,2.738,5.388,6.622,6.528,10.854C48.85,69.832,48.115,70.289,47.178,70.25z
	 M105.947,61.757c-3.163,5.247-7.691,8.142-13.906,8.663c-4.697,0.393-9.339-0.368-14.01-0.17c-0.938,0.039-1.672-0.418-1.387-1.475
	c1.141-4.231,2.911-8.115,6.529-10.854c2.678-2.026,5.727-2.907,8.569-2.775c5.154-0.02,9.39,1.473,13.446,3.57
	C106.637,59.465,106.817,60.313,105.947,61.757z"/>
</svg>
