<?xml version="1.0" encoding="utf-8"?>
<!-- Generator: Adobe Illustrator 16.0.0, SVG Export Plug-In . SVG Version: 6.00 Build 0)  -->
<!DOCTYPE svg PUBLIC "-//W3C//DTD SVG 1.1//EN" "http://www.w3.org/Graphics/SVG/1.1/DTD/svg11.dtd">
<svg version="1.1" id="Layer_1" xmlns="http://www.w3.org/2000/svg" xmlns:xlink="http://www.w3.org/1999/xlink" x="0px" y="0px"
	 width="126px" height="126px" viewBox="0 0 126 126" enable-background="new 0 0 126 126" xml:space="preserve">
<path d="M120.109,53.199c-4.688-0.51-8.963-2.264-13.093-4.357c-7.476-3.791-15.176-6.453-23.74-5.717
	c-4.439,0.383-8.64,1.363-12.235,4.16c-4.096,3.188-6.074,7.629-7.355,12.484C63.41,60.811,63.189,61.857,63,62.91
	c-0.189-1.053-0.41-2.1-0.685-3.141c-1.281-4.855-3.259-9.297-7.355-12.484c-3.595-2.797-7.796-3.777-12.235-4.16
	c-8.564-0.736-16.265,1.926-23.74,5.717c-4.131,2.094-8.405,3.848-13.093,4.357c-1.543,0.168-3.053-0.123-4.602-0.008
	c7.127,3.947,11.697,10.459,16.807,16.367c5.437,6.283,11.556,11.334,19.995,12.922c4.979,0.938,9.896,0.48,14.813-0.42
	c3.363-0.617,6.73-1.221,10.096-1.826c3.366,0.605,6.732,1.209,10.096,1.826c4.916,0.9,9.833,1.357,14.813,0.42
	c8.439-1.588,14.558-6.639,19.995-12.922c5.11-5.908,9.68-12.42,16.807-16.367C123.162,53.076,121.652,53.367,120.109,53.199z
	 M56.037,73.127c-3.653-0.154-7.282,0.441-10.956,0.133c-4.86-0.406-8.401-2.67-10.875-6.773c-0.681-1.129-0.54-1.791,0.592-2.377
	c3.172-1.641,6.484-2.807,10.516-2.793c2.223-0.104,4.608,0.586,6.702,2.17c2.829,2.143,4.213,5.18,5.105,8.488
	C57.344,72.801,56.77,73.158,56.037,73.127z M91.793,66.486c-2.474,4.104-6.014,6.367-10.875,6.773
	c-3.674,0.309-7.303-0.287-10.956-0.133c-0.733,0.031-1.308-0.326-1.085-1.152c0.893-3.309,2.277-6.346,5.106-8.488
	c2.094-1.584,4.479-2.273,6.702-2.17c4.031-0.014,7.343,1.152,10.516,2.793C92.333,64.695,92.475,65.357,91.793,66.486z"/>
</svg>
