<?xml version="1.0" encoding="utf-8"?>
<!-- Generator: Adobe Illustrator 16.0.0, SVG Export Plug-In . SVG Version: 6.00 Build 0)  -->
<!DOCTYPE svg PUBLIC "-//W3C//DTD SVG 1.1//EN" "http://www.w3.org/Graphics/SVG/1.1/DTD/svg11.dtd">
<svg version="1.1" id="Layer_1" xmlns="http://www.w3.org/2000/svg" xmlns:xlink="http://www.w3.org/1999/xlink" x="0px" y="0px"
	 width="126px" height="126px" viewBox="0 0 126 126" enable-background="new 0 0 126 126" xml:space="preserve">
<path fill-rule="evenodd" clip-rule="evenodd" d="M117.334,54.42c-0.026-0.373-0.015-0.829-0.485-0.941
	c-0.529-0.126-0.768,0.334-1.025,0.67c-1.94,2.508-4.387,2.982-7.309,1.979c-3.017-1.037-5.78-2.602-8.639-3.965
	c-7.027-3.351-14.305-4.818-21.987-3.377c0.738-1.557,4.047-4.54,4.915-4.681c2.633-0.429,1.914-3.853,0-4.632
	c-2.59-1.058-5.057-1.43-7.843-1.407c-0.711,0.006-1.469,0.233-2.145,0.416c-2.257,0.604-1.371,1.407-1.453-0.888
	c-0.189-5.367-3.397-10.076-7.558-13.25c-0.272-0.206-0.542-0.332-0.806-0.402c-0.264,0.07-0.534,0.196-0.806,0.402
	c-4.161,3.174-7.369,7.883-7.558,13.25c-0.082,2.295,0.804,1.491-1.453,0.888c-0.676-0.183-1.434-0.41-2.145-0.416
	c-2.786-0.022-5.253,0.35-7.843,1.407c-1.914,0.779-2.633,4.203,0,4.632c0.868,0.141,4.177,3.124,4.915,4.681
	c-7.682-1.441-14.959,0.026-21.987,3.377c-2.859,1.363-5.623,2.928-8.639,3.965c-2.921,1.004-5.369,0.529-7.309-1.979
	c-0.258-0.336-0.496-0.796-1.025-0.67c-0.47,0.112-0.459,0.568-0.485,0.941C7.757,67.565,8.742,80.359,17.3,91.179
	c6.379,8.067,15.032,11.418,25.317,10.81c4.583-0.271,8.6-1.818,12.389-4.27c2.646-1.712,5.324-2.649,7.994-2.782
	c2.669,0.133,5.348,1.07,7.994,2.782c3.79,2.451,7.806,3.999,12.389,4.27c10.285,0.608,18.938-2.742,25.317-10.81
	C117.258,80.359,118.243,67.565,117.334,54.42z M98.723,59.606c2.917,1.071,5.261,2.883,6.948,5.506
	c0.544,0.848,0.92,1.767,0.927,2.801c0.006,0.67-0.142,1.298-0.55,1.846c-0.431,0.578-1.091,0.791-1.776,0.584
	c-0.643-0.196-1.054-0.767-1.141-1.457c-0.136-1.095-0.232-2.206-0.498-3.273c-0.584-2.343-1.849-4.237-4.012-5.428
	c-1.009-0.555-2.102-0.892-3.244-1.062c-0.119-0.019-0.238-0.041-0.355-0.062C96.297,58.971,97.533,59.167,98.723,59.606z
	 M88.505,59.365c2.99-0.046,5.652,0.884,7.975,2.749c0.818,0.655,1.462,1.469,1.672,2.539c0.114,0.574,0.081,1.141-0.24,1.642
	c-0.312,0.485-0.788,0.694-1.364,0.621c-0.621-0.081-1.032-0.433-1.237-1.023c-0.488-1.396-1.225-2.646-2.217-3.745
	c-1.788-1.979-4.046-2.624-6.634-2.309c-0.23,0.027-0.459,0.069-0.688,0.104C86.65,59.572,87.563,59.38,88.505,59.365z
	 M78.685,62.425c2.12-1.187,4.395-1.498,6.761-0.985c0.91,0.195,1.766,0.562,2.279,1.418c0.133,0.222,0.232,0.482,0.276,0.735
	c0.082,0.488-0.175,0.98-0.566,1.186c-0.457,0.241-0.934,0.157-1.373-0.18c-0.667-0.514-1.314-1.078-2.044-1.484
	c-2.35-1.31-4.615-1.044-6.767,0.512c-0.039,0.029-0.077,0.058-0.117,0.085c-0.024-0.033-0.048-0.065-0.073-0.099
	C77.6,63.213,78.104,62.75,78.685,62.425z M74.316,66.42c1.238-0.751,2.564-1.234,4.025-1.26c0.813-0.013,1.588,0.135,2.169,0.777
	c0.416,0.463,0.464,0.996,0.148,1.407c-0.31,0.404-0.846,0.449-1.408,0.214c-0.646-0.271-1.306-0.542-1.989-0.688
	c-1.961-0.416-3.63,0.141-4.961,1.657c-0.105,0.119-0.215,0.235-0.321,0.353C72.5,67.804,73.318,67.024,74.316,66.42z
	 M59.669,29.221c0.538-1.49,2.288-1.756,3.331-0.66c1.043-1.096,2.793-0.83,3.331,0.66c0.233,0.649,0.27,1.474,0.106,2.147
	c-0.47,1.924-1.783,3.102-3.437,3.897c-1.654-0.796-2.967-1.974-3.437-3.897C59.399,30.695,59.436,29.871,59.669,29.221z
	 M59.916,34.55c1.166,0.142,2.145,0.64,3.084,1.37c0.939-0.73,1.919-1.229,3.084-1.37c0.516-0.063,1.093,0.373,1.641,0.581
	c-0.268,0.519-0.404,1.255-0.83,1.517c-1.176,0.723-2.458,0.946-3.896,0.914c-1.438,0.032-2.72-0.191-3.896-0.914
	c-0.426-0.262-0.562-0.998-0.83-1.517C58.822,34.923,59.4,34.488,59.916,34.55z M63,40.893c-1.106-0.205-2.165-0.637-2.61-1.2
	c-0.212-0.269-0.406-0.781-0.285-1.023c0.147-0.299,0.703-0.669,0.957-0.594c0.657,0.198,1.304,0.437,1.939,0.7
	c0.635-0.264,1.282-0.502,1.939-0.7c0.254-0.075,0.81,0.295,0.957,0.594c0.121,0.242-0.073,0.755-0.285,1.023
	C65.165,40.256,64.106,40.688,63,40.893z M65.524,42.304c-0.25,0.426-0.396,1.026-0.767,1.245c-0.544,0.321-1.124,0.531-1.758,0.641
	c-0.634-0.109-1.213-0.319-1.758-0.641c-0.371-0.219-0.517-0.819-0.767-1.245c0.461-0.14,0.958-0.469,1.377-0.389
	c0.416,0.08,0.789,0.238,1.147,0.429c0.359-0.19,0.731-0.349,1.147-0.429C64.566,41.835,65.063,42.165,65.524,42.304z M51.684,66.42
	c0.998,0.604,1.817,1.384,2.337,2.461c-0.106-0.117-0.216-0.233-0.321-0.353c-1.331-1.517-3-2.073-4.961-1.657
	c-0.683,0.146-1.343,0.416-1.989,0.688c-0.563,0.235-1.098,0.19-1.408-0.214c-0.316-0.411-0.268-0.944,0.148-1.407
	c0.581-0.643,1.355-0.79,2.169-0.777C49.12,65.186,50.446,65.669,51.684,66.42z M47.315,62.425c0.582,0.325,1.085,0.788,1.624,1.188
	c-0.025,0.033-0.049,0.065-0.073,0.099c-0.04-0.027-0.078-0.056-0.117-0.085c-2.152-1.556-4.417-1.821-6.767-0.512
	c-0.73,0.406-1.376,0.971-2.044,1.484c-0.439,0.337-0.916,0.421-1.372,0.18c-0.392-0.205-0.649-0.697-0.567-1.186
	c0.044-0.253,0.143-0.514,0.276-0.735c0.513-0.856,1.369-1.223,2.279-1.418C42.92,60.927,45.195,61.239,47.315,62.425z
	 M40.229,59.942c-0.229-0.034-0.458-0.076-0.688-0.104c-2.588-0.315-4.846,0.329-6.634,2.309c-0.992,1.099-1.729,2.35-2.217,3.745
	c-0.206,0.591-0.617,0.942-1.237,1.023c-0.577,0.073-1.052-0.136-1.364-0.621c-0.321-0.501-0.354-1.067-0.24-1.642
	c0.21-1.07,0.854-1.884,1.672-2.539c2.322-1.865,4.984-2.795,7.974-2.749C38.438,59.38,39.35,59.572,40.229,59.942z M20.329,65.112
	c1.687-2.623,4.031-4.435,6.948-5.506c1.19-0.438,2.426-0.635,3.7-0.545c-0.117,0.021-0.236,0.043-0.355,0.062
	c-1.142,0.17-2.235,0.507-3.244,1.062c-2.163,1.19-3.427,3.085-4.012,5.428c-0.266,1.067-0.362,2.179-0.498,3.273
	c-0.087,0.69-0.498,1.261-1.141,1.457c-0.685,0.207-1.345-0.006-1.776-0.584c-0.408-0.548-0.556-1.176-0.55-1.846
	C19.409,66.878,19.785,65.959,20.329,65.112z M15.699,72.596c-0.452-2.119-0.142-4.164,0.76-6.116
	c0.387-0.837,0.931-1.58,1.665-2.153c-0.035,0.05-0.071,0.097-0.108,0.145c-1.168,1.579-1.702,3.304-1.172,5.261
	c0.352,1.304,1.038,2.426,1.925,3.432c0.638,0.725,0.349,1.814-0.556,1.94c-0.354,0.049-0.785-0.06-1.105-0.237
	C16.231,74.386,15.894,73.506,15.699,72.596z M24.288,86.735c-1.985,1.051-4.562,0.459-5.979-1.372
	c-1.606-2.073-1.548-4.932,0.186-7.745c0.354-0.572,0.79-1.092,1.169-1.61c-0.573,1.39-1.302,2.75-1.697,4.199
	c-0.64,2.343,0.21,4.363,2.093,5.461c1.406,0.818,2.868,0.88,4.226-0.061c1.279-0.887,1.744-2.206,1.482-3.729
	c-0.327-1.886-2.47-2.851-4.086-1.828c-0.393,0.248-0.865,0.704-0.902,1.104c-0.062,0.628,0.052,1.401,0.398,1.898
	c0.238,0.337,1.159,0.573,1.493,0.377c0.533-0.311,0.83-1.022,1.269-1.621c0.471,0.839,0.189,1.563-0.706,2.091
	c-0.984,0.583-2.19,0.268-2.809-0.706c-0.748-1.18-0.437-2.742,0.714-3.57c1.947-1.406,4.703-0.469,5.385,1.829
	C27.118,83.458,26.149,85.75,24.288,86.735z M34.047,91.322c-2.079,0.735-4.097-0.898-3.624-3.035
	c0.138-0.62,0.697-1.267,1.24-1.649c0.665-0.465,1.448-0.217,1.925,0.457c0.461,0.65,0.325,1.301-0.137,1.733
	c-0.14-0.524-0.162-1.121-0.458-1.513c-0.165-0.219-0.963-0.282-1.154-0.094c-0.394,0.392-0.761,0.989-0.795,1.525
	c-0.053,0.852,0.427,1.579,1.324,1.783c1.015,0.231,1.903-0.1,2.474-0.996c0.64-1.003,0.675-2.078,0.079-3.117
	c-0.61-1.065-1.621-1.435-2.788-1.396c-1.701,0.056-3.191,1.294-3.544,3.202c-0.253,1.372-0.176,2.806-0.232,3.91
	c-1.892-3.737,0.112-7.927,3.668-8.215c2.032-0.166,3.843,1.123,4.238,3.029C36.671,88.915,35.756,90.719,34.047,91.322z
	 M23.441,74.012c-0.885-1.467-0.701-2.326,0.77-3.087c4.119-2.131,8.418-3.645,13.652-3.626c2.885-0.134,5.982,0.762,8.701,2.818
	c3.673,2.781,5.471,6.724,6.629,11.02c0.289,1.073-0.457,1.539-1.408,1.498c-4.742-0.201-9.456,0.571-14.225,0.173
	C31.25,82.278,26.652,79.34,23.441,74.012z M44.642,92.671c-1.156,1.168-3.095,1.44-4.563,0.669
	c-1.482-0.778-2.345-2.508-2.063-4.132c0.458-2.638,2.671-4.434,5.556-4.435c-1.43,0.57-2.841,1.217-3.628,2.574
	c-0.488,0.843-0.839,1.867-0.895,2.83c-0.064,1.163,0.682,2.034,1.81,2.449c1.125,0.416,2.145,0.152,3.013-0.639
	c0.958-0.873,1.037-2.181,0.219-2.968c-0.889-0.855-2.115-0.749-3.001,0.266c-0.085,0.097-0.131,0.228-0.301,0.533
	c0.036-1.781,0.9-2.555,2.308-2.307c1.113,0.196,1.966,0.789,2.327,1.889C45.826,90.628,45.559,91.747,44.642,92.671z M52.53,90.806
	c-1.532,0.829-3.257,0.518-4.184-0.75c-1.127-1.544-0.273-3.625,1.618-3.763c0.55-0.041,1.225,0.262,1.677,0.618
	c0.552,0.436,0.542,1.148,0.101,1.712c-0.426,0.543-1,0.594-1.473,0.316c0.401-0.246,0.891-0.413,1.142-0.755
	c0.141-0.192-0.004-0.871-0.21-0.981c-0.423-0.23-1.01-0.387-1.463-0.282c-0.721,0.168-1.204,0.748-1.151,1.543
	c0.061,0.901,0.556,1.556,1.443,1.807c0.991,0.281,1.892,0.043,2.606-0.71c0.734-0.772,0.788-1.704,0.466-2.661
	c-0.469-1.399-1.867-2.328-3.539-2.147c-1.203,0.133-2.374,0.552-3.305,0.782c2.633-2.502,6.609-1.88,7.734,1
	C54.635,88.181,54.014,90.004,52.53,90.806z M57.525,75.462c-0.04-0.093-0.074-0.188-0.111-0.28
	c-0.342-0.853-0.854-1.564-1.67-2.025c-1.009-0.573-2.101-0.725-3.241-0.612c-0.476,0.047-0.841-0.151-0.964-0.532
	c-0.134-0.405,0.052-0.794,0.495-1.021c0.461-0.238,0.942-0.249,1.43-0.107c1.381,0.399,2.402,1.288,3.222,2.426
	c0.473,0.653,0.797,1.378,0.923,2.226C57.556,75.489,57.531,75.48,57.525,75.462z M63.456,57.264
	c-0.076,0.781-0.235,1.527-0.456,2.244c-0.221-0.717-0.38-1.463-0.456-2.244c-0.123-1.275,0.053-2.482,0.456-3.56
	C63.403,54.782,63.579,55.989,63.456,57.264z M67.64,54.333c-0.334-0.718-0.085-1.247,0.679-1.789
	c-0.07,0.304-0.108,0.423-0.126,0.549c-0.136,0.913,0.279,1.625,1.085,1.759c0.89,0.147,1.402-0.368,1.638-1.146
	c0.273-0.895,0.034-1.702-0.727-2.254c-0.753-0.547-1.691-0.646-2.349-0.009c-0.647,0.628-1.125,1.484-1.504,2.32
	c-0.232,0.514-0.141,1.173-0.22,2.037c-0.217-0.717-0.357-1.172-0.494-1.627c-0.002,0.012-0.004,0.022-0.007,0.036v0.009
	c0-0.001-0.001-0.002-0.001-0.003c-0.001-0.002-0.001-0.002-0.001-0.004c-0.239,1.929-0.464,3.864-2.013,5.614
	c0.19-0.527,0.279-0.813,0.394-1.089c1.38-3.337,1.035-6.425-0.996-9.334c-2.031,2.909-2.375,5.997-0.996,9.334
	c0.115,0.276,0.204,0.562,0.394,1.089c-1.549-1.75-1.774-3.686-2.013-5.614c0,0.002,0,0.002-0.001,0.004
	c0,0.001-0.001,0.002-0.001,0.003v-0.009c-0.003-0.014-0.005-0.024-0.007-0.036c-0.137,0.455-0.277,0.91-0.494,1.627
	c-0.079-0.864,0.013-1.523-0.22-2.037c-0.38-0.836-0.857-1.692-1.504-2.32c-0.658-0.638-1.595-0.538-2.349,0.009
	c-0.761,0.552-1,1.359-0.727,2.254c0.236,0.778,0.749,1.294,1.638,1.146c0.807-0.134,1.221-0.846,1.085-1.759
	c-0.018-0.126-0.056-0.245-0.126-0.549c0.764,0.542,1.013,1.071,0.679,1.789c-0.423,0.901-1.162,1.321-2.136,1.202
	c-1.732-0.215-2.532-2.286-1.522-3.872c0.612-0.961,1.703-1.45,2.815-1.262c1.262,0.214,2.375,1.345,2.652,2.698
	c0.073,0.357,0.137,0.714,0.206,1.073c0.001-0.005,0.001-0.009,0.003-0.011c0.002,0.017,0.004,0.032,0.006,0.049
	c0.235-2.348,1.273-4.297,2.615-6.135c1.341,1.838,2.38,3.787,2.615,6.135c0.002-0.017,0.004-0.032,0.006-0.049
	c0.002,0.002,0.002,0.006,0.003,0.011c0.069-0.359,0.133-0.716,0.206-1.073c0.277-1.354,1.39-2.484,2.652-2.698
	c1.112-0.188,2.204,0.301,2.815,1.262c1.01,1.586,0.21,3.657-1.522,3.872C68.802,55.655,68.063,55.235,67.64,54.333z M70.256,73.157
	c-0.816,0.461-1.328,1.173-1.67,2.025c-0.037,0.093-0.071,0.188-0.111,0.28c-0.006,0.018-0.031,0.026-0.084,0.073
	c0.126-0.848,0.451-1.572,0.923-2.226c0.82-1.138,1.841-2.026,3.222-2.426c0.488-0.142,0.969-0.131,1.43,0.107
	c0.443,0.227,0.629,0.615,0.495,1.021c-0.124,0.381-0.489,0.579-0.964,0.532C72.357,72.432,71.266,72.583,70.256,73.157z
	 M73.364,89.561c0.714,0.753,1.615,0.991,2.606,0.71c0.888-0.251,1.382-0.905,1.443-1.807c0.053-0.795-0.431-1.375-1.151-1.543
	c-0.453-0.104-1.041,0.052-1.463,0.282c-0.206,0.11-0.351,0.789-0.21,0.981c0.251,0.342,0.741,0.509,1.142,0.755
	c-0.474,0.277-1.047,0.227-1.473-0.316c-0.441-0.563-0.452-1.276,0.101-1.712c0.452-0.356,1.127-0.659,1.677-0.618
	c1.891,0.138,2.746,2.219,1.618,3.763c-0.926,1.268-2.651,1.579-4.184,0.75c-1.484-0.802-2.105-2.625-1.461-4.271
	c1.125-2.88,5.102-3.502,7.734-1c-0.932-0.23-2.102-0.649-3.305-0.782c-1.672-0.181-3.07,0.748-3.539,2.147
	C72.577,87.857,72.631,88.789,73.364,89.561z M85.921,93.34c-1.468,0.771-3.407,0.499-4.563-0.669
	c-0.917-0.925-1.184-2.043-0.782-3.27c0.361-1.1,1.213-1.692,2.327-1.889c1.407-0.248,2.272,0.525,2.308,2.307
	c-0.17-0.306-0.216-0.437-0.301-0.533c-0.886-1.015-2.113-1.121-3.001-0.266c-0.817,0.787-0.739,2.095,0.219,2.968
	c0.868,0.791,1.889,1.055,3.013,0.639c1.128-0.415,1.874-1.286,1.81-2.449c-0.055-0.963-0.407-1.987-0.895-2.83
	c-0.787-1.357-2.198-2.004-3.628-2.574c2.884,0.001,5.098,1.797,5.556,4.435C88.267,90.833,87.403,92.562,85.921,93.34z
	 M74.215,82.635c-0.952,0.041-1.697-0.425-1.408-1.498c1.158-4.296,2.956-8.238,6.629-11.02c2.719-2.057,5.816-2.952,8.701-2.818
	c5.234-0.019,9.534,1.495,13.652,3.626c1.47,0.761,1.654,1.62,0.77,3.087c-3.211,5.328-7.809,8.266-14.119,8.796
	C83.67,83.207,78.957,82.434,74.215,82.635z M97.643,92.132c-0.056-1.104,0.021-2.538-0.232-3.91
	c-0.353-1.908-1.843-3.146-3.544-3.202c-1.167-0.038-2.178,0.331-2.788,1.396c-0.596,1.039-0.561,2.114,0.079,3.117
	c0.571,0.896,1.459,1.228,2.474,0.996c0.897-0.204,1.377-0.932,1.324-1.783c-0.034-0.536-0.402-1.134-0.795-1.525
	c-0.191-0.188-0.99-0.125-1.154,0.094c-0.296,0.392-0.318,0.988-0.458,1.513c-0.461-0.433-0.598-1.083-0.137-1.733
	c0.477-0.674,1.26-0.922,1.925-0.457c0.543,0.383,1.103,1.029,1.24,1.649c0.473,2.137-1.545,3.771-3.624,3.035
	c-1.709-0.603-2.624-2.407-2.216-4.375c0.395-1.906,2.206-3.195,4.238-3.029C97.531,84.206,99.535,88.395,97.643,92.132z
	 M107.692,85.363c-1.418,1.831-3.995,2.423-5.979,1.372c-1.862-0.984-2.831-3.276-2.236-5.284c0.682-2.298,3.438-3.235,5.385-1.829
	c1.15,0.828,1.461,2.391,0.714,3.57c-0.619,0.974-1.824,1.289-2.809,0.706c-0.895-0.528-1.176-1.252-0.706-2.091
	c0.439,0.599,0.736,1.311,1.269,1.621c0.334,0.196,1.255-0.04,1.493-0.377c0.347-0.497,0.46-1.271,0.398-1.898
	c-0.038-0.399-0.51-0.855-0.902-1.104c-1.616-1.022-3.759-0.058-4.085,1.828c-0.262,1.523,0.203,2.843,1.482,3.729
	c1.357,0.94,2.819,0.879,4.226,0.061c1.883-1.098,2.732-3.118,2.093-5.461c-0.395-1.449-1.124-2.81-1.697-4.199
	c0.379,0.519,0.815,1.038,1.169,1.61C109.24,80.431,109.298,83.29,107.692,85.363z M110.302,72.596
	c-0.195,0.91-0.533,1.79-1.41,2.271c-0.32,0.178-0.751,0.286-1.105,0.237c-0.905-0.126-1.193-1.216-0.556-1.94
	c0.887-1.006,1.573-2.128,1.925-3.432c0.53-1.957-0.004-3.682-1.172-5.261c-0.037-0.048-0.073-0.095-0.108-0.145
	c0.734,0.573,1.278,1.316,1.665,2.153C110.443,68.432,110.753,70.477,110.302,72.596z"/>
</svg>
