<?xml version="1.0" encoding="utf-8"?>
<!-- Generator: Adobe Illustrator 16.0.0, SVG Export Plug-In . SVG Version: 6.00 Build 0)  -->
<!DOCTYPE svg PUBLIC "-//W3C//DTD SVG 1.1//EN" "http://www.w3.org/Graphics/SVG/1.1/DTD/svg11.dtd">
<svg version="1.1" id="Layer_1" xmlns="http://www.w3.org/2000/svg" xmlns:xlink="http://www.w3.org/1999/xlink" x="0px" y="0px"
	 width="126px" height="126px" viewBox="0 0 126 126" enable-background="new 0 0 126 126" xml:space="preserve">
<path fill-rule="evenodd" clip-rule="evenodd" d="M26.744,56.428c-1.784,0.896-3.479,0.937-5.513,0.119
	c0.173-0.301,0.276-0.639,0.301-0.988c0.154,0.098,0.306,0.182,0.45,0.251c0.635,0.312,1.328,0.468,2.057,0.468
	c2.163,0,4.313-1.401,5.474-3.569c0.261-0.489,0.461-0.96,0.654-1.415c0.138-0.322,0.272-0.646,0.431-0.956
	c1.596-3.098,4.031-4.7,7.446-4.901c3.228-0.205,5.731,1.082,7.605,3.918c-0.351,0.396-0.642,0.84-0.868,1.318
	c-0.229-0.089-0.472-0.142-0.724-0.153c-0.013,0-0.028,0-0.042,0c-0.016-0.076-0.029-0.152-0.045-0.228
	c-0.57-2.721-2.94-4.707-5.657-4.721c-2.731,0-5.308,2.223-5.743,4.955c-0.071,0.453-0.093,0.891-0.064,1.309
	c-0.486-0.239-1.051-0.296-1.591-0.152c-0.759,0.204-1.361,0.783-1.592,1.533C28.846,54.765,28.025,55.784,26.744,56.428z
	 M104.019,55.799c-0.636,0.314-1.336,0.475-2.08,0.475c-1.912,0.001-3.828-1.078-5.001-2.815c-0.516-0.763-0.879-1.572-1.198-2.286
	c-0.089-0.201-0.181-0.403-0.273-0.602c-1.465-3.133-3.843-4.803-7.269-5.11c-3.235-0.292-5.786,0.904-7.729,3.689
	c-0.046,0.064-0.092,0.133-0.139,0.197c0.406,0.422,0.729,0.894,0.968,1.403c0.214-0.076,0.439-0.121,0.67-0.132
	c0.003-0.011,0.004-0.022,0.006-0.033c0.37-2.337,1.798-4.013,4.023-4.716c2.372-0.755,4.793,0.025,6.055,1.949
	c0.699,1.066,1.087,2.467,1.158,4.164c0.366-0.234,0.791-0.355,1.222-0.355c0.183,0,0.366,0.021,0.546,0.065
	c0.755,0.186,1.363,0.741,1.617,1.476c1.161,3.367,3.286,3.614,3.982,3.695c1.179,0.137,2.636-0.008,4.166-0.412
	c-0.145-0.285-0.229-0.601-0.243-0.927C104.325,55.639,104.162,55.729,104.019,55.799z M65.012,43.929
	c-0.359-1.81,0.188-3.747,1.427-5.058c0.396-0.416,0.816-0.787,1.265-1.111c-0.3-0.082-0.579-0.223-0.824-0.419
	c-0.203,0.282-0.41,0.565-0.618,0.853c-0.438,0.603-0.886,1.218-1.335,1.859c-0.427,0.609-1.123,0.974-1.867,0.975
	c-0.002,0-0.004,0-0.005,0c-0.742,0-1.438-0.359-1.867-0.964c-0.462-0.653-0.965-1.288-1.496-1.96
	c-0.204-0.258-0.412-0.521-0.621-0.788c-0.291,0.224-0.628,0.376-0.986,0.441c0.187,0.107,0.364,0.215,0.529,0.318
	c2.415,1.512,3.208,4.759,1.768,7.235c-0.381,0.651-1.048,1.324-1.849,1.792c0.54,0.184,0.996,0.563,1.272,1.07
	c0.329,0.606,0.368,1.328,0.104,1.966c-0.297,0.72-0.416,1.365,0.934,2.572c0.883,0.791,1.625,1.687,2.23,2.698
	c0.596-0.936,1.316-1.761,2.168-2.485c1.404-1.198,1.326-1.773,0.834-2.717c-0.381-0.726-0.342-1.599,0.097-2.289
	c0.237-0.372,0.573-0.662,0.96-0.842C66.045,46.428,65.284,45.306,65.012,43.929z M121.811,55.078c0,1.253-1.008,2.271-2.255,2.286
	c-0.222,0.002-0.456-0.022-0.684-0.089c-2.429-0.701-4.805-0.349-7.938,1.199c-0.453,0.222-0.893,0.481-1.334,0.736
	c-0.978,0.57-2.088,1.215-3.36,1.572c-0.768,0.216-1.517,0.364-2.253,0.482c0.416,0.16,0.828,0.334,1.246,0.488
	c1.634,0.603,3.298,0.751,4.734-0.925c0.288,4.599,0.224,9.083-0.399,13.458c0.485-0.215,1.031-0.576,1.266-1.16
	c-0.025,1.797-0.222,2.096-0.953,2.885c-0.217,0.236-0.474,0.537-0.746,0.861c-0.16,0.816-0.35,1.629-0.555,2.438
	c0.462,0.023,0.926-0.063,1.428-0.401c-0.188,1.349-1.106,1.979-2.028,2.559c-0.239,0.772-0.509,1.538-0.793,2.303
	c0.347,0.162,0.793,0.251,1.663,0.251c-0.133,0.401-1.014,0.819-2.331,1.429c-0.073,0.176-0.143,0.353-0.22,0.528
	c-2.048,4.67-4.946,8.709-9.166,11.634c-6.827,4.734-14.268,5.885-22.152,3.208c-1.741-0.591-3.305-1.777-4.865-2.814
	c-2.467-1.642-4.797-2.775-6.94-2.775s-4.622,1.134-7.09,2.775c-1.561,1.037-3.124,2.224-4.865,2.814
	c-5.212,1.77-10.227,1.856-15.001,0.352c0.021,0.071,0.038,0.146,0.062,0.215c-0.064-0.083-0.124-0.17-0.188-0.254
	c-2.405-0.772-4.75-1.943-7.024-3.521c-4.017-2.786-6.827-6.588-8.857-10.976c-1.72-0.801-2.903-1.295-3.06-1.766
	c1.248,0,1.625-0.187,2.085-0.504c-0.215-0.554-0.417-1.109-0.606-1.665c-1.088-0.721-2.405-1.297-2.636-2.943
	c0.649,0.438,1.235,0.452,1.837,0.354c-0.163-0.592-0.314-1.186-0.452-1.78c-0.468-0.556-0.909-1.092-1.259-1.472
	c-0.73-0.789-0.927-1.087-0.952-2.886c0.292,0.73,1.068,1.111,1.609,1.294c-0.761-4.684-0.853-9.497-0.544-14.439
	c1.437,1.676,3.101,1.527,4.734,0.925c0.251-0.093,0.498-0.198,0.749-0.294c-1.431-0.303-2.899-0.889-4.417-1.768
	c-2.865-1.661-5.29-2.766-7.805-2.766c-0.806,0-1.591,0.112-2.395,0.339c-1.082,0.311-2.228-0.219-2.698-1.239
	c-0.473-1.021-0.132-2.234,0.802-2.859c1.832-1.228,3.795-1.824,6-1.824c2.072,0,4.034,0.528,5.932,1.084
	c0.389-1.933,1.462-3.908,4.122-5.199c0.827-0.401,1.813-0.27,2.506,0.335c0.69,0.606,0.953,1.567,0.663,2.44
	c-0.311,0.938-0.346,1.45-0.337,1.688c0.406-0.052,1.002-0.414,1.394-1.144c0.164-0.304,0.314-0.661,0.475-1.039
	c0.182-0.428,0.365-0.853,0.575-1.264c2.332-4.527,6.22-7.078,11.243-7.376c1.24-0.073,2.423,0.006,3.548,0.231
	c-1.729-1.386-2.74-3.483-2.585-5.621c0.133-1.851,1.17-4.252,5.341-5.191c0.331-0.074,0.671-0.121,1.013-0.163
	c0.192-0.024,0.384-0.045,0.572-0.088c0.385-0.087,0.773-0.166,1.162-0.245c0.986-0.203,1.917-0.395,2.741-0.697
	c0.169-0.063,0.267-0.138,0.286-0.181c0.024-0.059,0.038-0.253-0.098-0.568c-0.077-0.179-0.16-0.348-0.254-0.541L49.307,27.4
	c-0.293-0.619-0.293-1.338,0-1.958c0.295-0.62,0.851-1.074,1.516-1.24c0.477-0.118,0.947-0.178,1.402-0.178
	c1.575,0,2.717,0.692,3.523,1.462c0.414-0.518,0.955-0.979,1.645-1.394c0.844-0.509,1.917-0.419,2.665,0.221
	c0.747,0.64,1.004,1.686,0.633,2.599c-1.253,3.088-0.037,5.018,2.303,7.996c0.79-1.088,1.53-2.137,2.163-3.207
	c0.867-1.465,1.002-3.03,0.403-4.651c-0.378-1.02,0.015-2.163,0.938-2.735c0.923-0.573,2.121-0.417,2.867,0.371
	c0.299,0.317,0.559,0.638,0.786,0.961c0.921-0.836,1.944-1.642,3.395-1.642c0.775,0,1.455,0.239,2.018,0.473
	c0.663,0.274,1.159,0.846,1.337,1.541c0.18,0.696,0.021,1.435-0.427,1.996c-0.352,0.439-0.413,0.719-0.406,0.78
	c0.022,0.047,0.213,0.264,0.743,0.483c0.435,0.179,0.98,0.329,1.713,0.47c0.486,0.093,0.976,0.16,1.467,0.23
	c0.854,0.119,1.734,0.243,2.641,0.48c2.261,0.596,3.889,2.027,4.468,3.932c0.576,1.893,0.029,3.976-1.504,5.713
	c-0.354,0.401-0.742,0.739-1.136,1.037c1.305-0.288,2.683-0.367,4.147-0.236c5.044,0.454,8.846,3.126,11,7.726
	c0.104,0.222,0.206,0.446,0.307,0.674c0.267,0.595,0.52,1.16,0.814,1.595c0.374,0.556,0.88,0.777,1.163,0.801
	c-0.005-0.198-0.055-0.594-0.305-1.257c-0.161-0.434-0.329-1.286,0.317-2.216c0.605-0.989,1.891-1.416,2.941-0.927
	c2.618,1.212,3.632,3.288,4.015,5.125c1.889-0.563,3.838-1.083,5.889-1.083c2.136,0,4.049,0.561,5.842,1.713
	C121.315,53.438,121.811,54.2,121.811,55.078z M27.77,58.471c1.917-0.961,3.103-2.521,3.737-4.58
	c2.754,2.55,4.598,2.975,6.554,1.587c1.373-0.977,1.673-2.133,0.921-3.881c-0.184,0.229-0.374,0.389-0.464,0.593
	c-0.485,1.097-1.326,1.603-2.449,1.205c-1.127-0.4-1.416-1.402-1.24-2.51c0.264-1.652,1.893-3.036,3.499-3.028
	c1.607,0.009,3.058,1.245,3.406,2.904c0.417,1.987-0.172,3.582-1.823,4.941c0.672-0.061,1.35-0.096,2.03-0.113
	c0.634-0.582,1.271-1.479,2.017-2.785c0.395,0.856,0.707,1.618,1.088,2.346c0.099,0.187,0.203,0.364,0.313,0.537
	c0.706,0.057,1.408,0.13,2.106,0.213c-1.223-1.503-1.358-3.791,0.037-5.177c1.05-1.044,0.638-1.747,0.072-2.607
	c-2.284-3.469-5.516-5.209-9.663-4.964c-4.245,0.251-7.388,2.339-9.346,6.139c-0.39,0.762-0.663,1.584-1.067,2.338
	c-1.015,1.894-3.06,2.835-4.512,2.128c-1.26-0.616-1.532-2.052-0.729-4.473c-2.648,1.287-3.16,3.434-3.005,6.119
	c-4.29-1.078-8.497-3.201-12.774-0.337c4.479-1.27,8.269,0.505,11.969,2.648C21.438,59.446,24.498,60.113,27.77,58.471z
	 M38.754,100.6c-0.245-0.743-0.371-1.661-0.816-2.39c-1.832-2.991-3.613-6.033-5.689-8.855c-2.442-3.318-5.219-6.392-7.76-9.641
	c-1.807-2.313-3.268-4.838-3.721-7.811c-0.251-1.64-0.096-3.216,0.928-4.625c0.325,0.481,0.85,0.817,1.473,0.817
	c0.999,0,1.808-0.807,1.808-1.805s-0.809-1.807-1.808-1.807c-0.866,0-1.556,0.625-1.731,1.439c-1.664,1.917-2.092,4.302-1.812,6.839
	c0.048,0.435,0.129,1.212,0.169,1.646c0.01,0.094,0.019,0.22,0.019,0.22s-1.704-0.274-2.174-1.44
	c0.027,1.797,0.225,2.096,0.955,2.884c0.699,0.758,1.759,2.142,2.673,3.05c-0.971,0.206-1.81,0.516-2.8-0.151
	c0.34,2.422,3.025,2.528,3.877,4.178c-0.934,0.579-0.983,0.935-2.719,0.935c0.399,1.21,7.557,2.548,13.315,8.978
	C35.091,95.38,36.828,98.074,38.754,100.6z M52.538,85.552c0,0-2.597-10.291-10.321-14.321c-7.724-4.03-17.651-0.273-17.651-0.273
	s1.729,11.954,9.454,15.984C41.743,90.972,52.538,85.552,52.538,85.552z M72.098,72.617c-0.432-1.593-1.665-2.318-3.144-2.708
	c-1.535-0.404-2.915,0.129-4.357,0.931c0.34-2.31,0.05-4.344-1.391-6.174c-0.026,0.001-0.052,0.011-0.077,0.011
	c-0.049,0-0.096-0.011-0.143-0.015c-1.347,1.879-1.741,3.878-1.396,6.113c-0.658-0.285-1.168-0.552-1.705-0.728
	c-1.941-0.641-4.108-0.029-5.234,1.462c-0.515,0.683-0.813,1.427-0.374,2.265c0.436,0.831,1.531,1.139,2.263,0.563
	c0.573-0.451,1.197-0.992,0.29-1.787c-0.131-0.115-0.015-0.835,0.163-0.925c0.697-0.353,1.466-0.786,2.207-0.782
	c1.37,0.004,2.4,0.707,3.105,1.829c0.209,1.147,0.406,2.228,0.607,3.329c-1.058-0.621-1.911-1.185-2.825-1.625
	c-0.328-0.158-1.064-0.158-1.152,0.012c-0.217,0.414-0.297,1.006-0.172,1.453c0.073,0.26,0.637,0.489,1.004,0.537
	c1.459,0.191,2.123,0.586,2.572,1.727c-1.573-1.023-3.109-1.158-4.559,0.074c-1.005,0.854-1.332,1.979-0.938,3.246
	c0.296,0.951,0.94,1.516,2.061,1.572c-0.07-0.188-0.094-0.293-0.145-0.383c-0.742-1.293-0.545-2.457,0.512-2.986
	c1.049-0.523,2.32-0.006,2.738,1.34c0.336,1.082,0.486,2.267,0.463,3.4c-0.024,1.121-0.371,2.234-0.6,3.482c0.936,0,1.818,0,2.884,0
	c-0.176-0.582-0.267-0.883-0.356-1.184c-0.596-1.968-0.704-3.938,0.129-5.859c0.533-1.23,1.723-1.69,2.738-1.16
	c0.984,0.516,1.219,1.625,0.592,2.803c-0.082,0.152-0.175,0.301-0.294,0.504c1.644-0.187,2.594-1.42,2.144-2.953
	c-0.229-0.779-0.768-1.606-1.408-2.101c-1.298-1.003-2.754-0.673-4.154,0.046c0.633-1.129,1.613-1.533,2.793-1.557
	c1.039-0.021,0.982-0.762,0.902-1.442c-0.095-0.811-0.627-0.985-1.294-0.64c-0.966,0.503-1.899,1.067-2.991,1.688
	c0.229-1.212,0.452-2.402,0.684-3.634c0.209-0.286,0.433-0.556,0.697-0.774c1.239-1.026,3.133-1.056,4.141-0.154
	c0.431,0.386,0.776,0.786,0.14,1.34c-0.159,0.138-0.213,0.538-0.146,0.771c0.234,0.821,1.124,1.25,1.951,1.004
	C71.818,74.31,72.328,73.468,72.098,72.617z M58.291,58.445c0.471,0.172,0.938,0.314,1.405,0.442
	c-0.447-1.111-1.068-2.021-1.903-2.769c-0.262-0.232-0.5-0.468-0.717-0.702c-0.209,0.803-0.587,1.563-1.09,2.265
	C56.759,57.919,57.528,58.166,58.291,58.445z M67.91,58.445c0.69-0.252,1.386-0.48,2.086-0.698
	c-0.462-0.636-0.808-1.329-1.021-2.063c-0.232,0.24-0.489,0.48-0.771,0.721c-0.791,0.674-1.386,1.495-1.824,2.514
	C66.888,58.784,67.398,58.632,67.91,58.445z M72.425,57.064c0.486-0.125,0.976-0.237,1.467-0.346
	c-0.428-0.269-0.778-0.636-1.025-1.1c-0.377-0.402-0.612-0.938-0.612-1.533c0-0.701,0.328-1.32,0.83-1.733
	c0.001-0.001,0.002-0.001,0.004-0.002c0.387-0.317,0.876-0.516,1.415-0.516c0.938,0,1.74,0.574,2.079,1.39
	c0.381-0.444,0.699-0.839,0.632-1.149c-0.203-0.937-0.974-1.75-1.511-2.615c-0.178,0.031-0.355,0.061-0.535,0.091
	c0.646-0.672,1.278-1.357,1.938-2.014c1.879-1.879,2.244-4.186,0.921-5.904c-1.568-2.037-4.548-2.809-6.615-1.508
	c-0.394,0.25-0.711,0.621-1.001,1.018c0.755,0.363,1.28,1.129,1.28,2.022c0,1.241-1.008,2.249-2.251,2.249
	c-0.318,0-0.62-0.068-0.895-0.188c-0.014-0.006-0.033-0.006-0.047-0.013c-0.039-0.018-0.066-0.05-0.104-0.069
	c-0.133-0.07-0.257-0.153-0.372-0.248c-0.02-0.017-0.04-0.03-0.058-0.047c-0.471-0.413-0.773-1.011-0.773-1.685
	c0-0.042,0.01-0.081,0.013-0.122c-0.059-0.906,0.226-1.892,0.896-2.6c1.779-1.882,4.078-2.328,6.517-1.795
	c2.426,0.53,4.415,1.692,4.97,4.404c0.031,0.15,0.105,0.291,0.554,0.546c0.329-1.022,0.657-2.045,0.944-2.939
	c0.956-0.69,2.052-1.225,2.796-2.068c2.105-2.388,1.242-5.112-1.829-5.919c-1.291-0.34-2.645-0.425-3.959-0.68
	c-0.73-0.14-1.471-0.319-2.155-0.602c-2.335-0.967-2.809-2.85-1.251-4.802c-1.254-0.521-1.719-0.414-3.031,0.781
	c-1.224,1.115-1.779,2.573-1.147,4.078c1.392,3.311,4.384,2.802,6.656,2.591c0.437,1.266,0.629,2.375,1.208,3.217
	c0.165,0.239,0.88,0.099,1.468,0.01c-0.224-0.35-0.357-0.762-0.357-1.207c0-1.243,1.008-2.251,2.249-2.251
	c1.243,0,2.251,1.008,2.251,2.251c0,0.511-0.178,0.977-0.465,1.354c-0.571,0.877-1.745,1.47-2.974,1.275
	c-1.351-0.214-2.688-0.716-3.95-1.276c-2.614-1.162-5.198-2.344-8.285-1.856c0.524-3.23,2.116-6.417-0.604-9.299
	c0.854,2.308,0.627,4.568-0.58,6.607c-1.169,1.976-2.609,3.789-4.07,5.877c-2.762-3.896-6.759-7.077-4.481-12.689
	c-2.004,1.205-2.139,2.798-0.905,9.457c-3.569-0.521-6.525,1.167-9.597,2.498c-0.824,0.357-1.734,0.6-2.628,0.7
	c-1.107,0.126-2.036-0.224-2.697-1.007c-0.441-0.41-0.722-0.991-0.722-1.642c0-0.081,0.016-0.158,0.023-0.236
	c0.005-0.047,0.007-0.095,0.015-0.141c0.016-0.093,0.041-0.182,0.067-0.27c0.012-0.037,0.021-0.074,0.034-0.11
	c0.312-0.869,1.135-1.494,2.109-1.494c1.243,0,2.251,1.008,2.251,2.251c0,0.446-0.134,0.859-0.358,1.209
	c0.58,0.091,1.277,0.227,1.44-0.009c0.58-0.841,0.854-3.161,0.721-3.267c0.782,0.066,1.562,0.148,2.346,0.197
	c1.705,0.104,3.196-0.388,4.281-1.752c1.021-1.28,1.045-2.759,0.193-4.055c-0.801-1.216-1.79-2.454-3.772-1.962
	c0.192,0.406,0.349,0.71,0.483,1.024c0.694,1.622,0.165,3.18-1.499,3.794c-1.341,0.494-2.787,0.712-4.194,1.027
	c-0.52,0.117-1.063,0.134-1.582,0.251c-2.332,0.525-3.446,1.514-3.564,3.126c-0.132,1.829,1.162,3.7,3.082,4.452
	c0.295,0.115,0.599,0.214,0.735,0.263c0.342,1.173,0.647,2.21,0.95,3.249c1.303-3.85,4.052-5.243,7.634-5.061
	c1.357,0.069,2.796,0.723,3.978,1.465c1.076,0.674,1.563,1.93,1.372,3.105c0.001,0.017,0.005,0.031,0.005,0.048
	c0,1.175-0.906,2.13-2.057,2.229c-0.054,0.011-0.104,0.012-0.154,0.016c-0.014,0-0.026,0.004-0.04,0.004c-0.001,0-0.002,0-0.003,0
	c-0.023,0-0.048,0.007-0.07,0.006c-0.054-0.002-0.108-0.017-0.163-0.029c-1.129-0.12-2.013-1.065-2.013-2.226
	c0-0.941,0.578-1.745,1.398-2.081c-0.427-0.736-1.229-1.202-2.264-1.443c-2.108-0.493-4.578,0.399-5.613,2.25
	c-2.025,3.617,1.055,5.419,3.074,7.686c-1.264,0.602-2.581,1.178-2.098,2.769c0.124,0.405,0.504,0.724,0.814,0.971
	c0.315-0.862,1.135-1.48,2.104-1.48c1.243,0,2.251,1.008,2.251,2.251c0,0.825-0.45,1.54-1.114,1.931
	c-0.226,0.237-0.487,0.452-0.781,0.643c0.509,0.109,1.016,0.225,1.52,0.35c1.537-1.517,1.899-3.647,0.823-5.603
	c-0.878-1.596-1.898-3.112-2.758-4.717c-0.747-1.394-1.278-2.93-0.518-4.453c0.265-0.53,1.111-0.771,1.692-1.143
	c0.125,0.603,0.52,1.306,0.337,1.792c-1.373,3.622,0.073,5.987,3.926,6.248c0.208,0.015,0.412,0.074,0.728,0.132
	c-0.893,2.158-0.031,3.761,1.521,5.15c1.542,1.38,2.443,3.072,2.953,4.951c0.277,0.028,0.554,0.059,0.83,0.071
	c0.231-0.01,0.464-0.039,0.697-0.061c0.525-1.822,1.425-3.437,2.925-4.714c1.698-1.447,2.63-3.119,1.377-5.517
	c2.021,0.094,3.699-0.256,4.72-2.02c0.714-1.233,0.958-2.435,0.245-3.797c-0.287-0.549-0.25-1.29-0.249-1.942
	c0-0.095,0.802-0.373,0.94-0.248c0.521,0.481,1.299,1.095,1.294,1.653c-0.013,1.297-0.216,2.678-0.726,3.86
	c-0.671,1.563-1.74,2.947-2.58,4.442C70.518,53.276,70.822,55.536,72.425,57.064z M92.182,86.941
	c7.724-4.03,9.453-15.984,9.453-15.984s-9.927-3.757-17.65,0.273c-7.726,4.03-10.322,14.321-10.322,14.321
	S84.457,90.972,92.182,86.941z M102.477,64.484c-0.998,0-1.807,0.809-1.807,1.807s0.809,1.805,1.807,1.805
	c0.625,0,1.148-0.336,1.474-0.817c1.022,1.409,1.178,2.985,0.929,4.625c-0.453,2.973-1.916,5.497-3.721,7.811
	c-2.541,3.249-5.318,6.322-7.761,9.641c-2.076,2.822-3.858,5.864-5.689,8.855c-0.446,0.729-0.571,1.646-0.817,2.39
	c1.926-2.525,3.665-5.22,5.814-7.539c5.76-6.43,12.915-7.768,13.315-8.978c-1.736,0-1.785-0.355-2.718-0.935
	c0.85-1.649,3.535-1.756,3.875-4.178c-0.989,0.667-1.828,0.357-2.799,0.151c0.913-0.908,1.975-2.292,2.674-3.05
	c0.729-0.788,0.927-1.087,0.953-2.884c-0.47,1.166-2.173,1.44-2.173,1.44s0.008-0.126,0.018-0.22
	c0.042-0.435,0.121-1.212,0.17-1.646c0.279-2.537-0.148-4.922-1.813-6.839C104.032,65.109,103.343,64.484,102.477,64.484z
	 M119.506,55.078c-4.256-2.849-8.413-0.821-12.724,0.342c0.071-2.574-0.32-4.854-2.896-6.046c-0.108,0.175-0.171,0.233-0.159,0.265
	c0.784,2.09,0.542,3.485-0.723,4.111c-1.268,0.626-3.121-0.016-4.171-1.57c-0.535-0.792-0.888-1.709-1.296-2.58
	c-1.82-3.887-4.901-6.037-9.136-6.417c-4.14-0.372-7.427,1.249-9.809,4.656c-0.672,0.963-1.273,1.795-0.014,2.993
	c1.223,1.16,1.142,2.851,0.382,4.355c-0.137,0.27-0.294,0.515-0.464,0.741c0.677-0.085,1.356-0.155,2.038-0.216
	c0.527-0.866,0.976-1.819,1.533-2.81c0.542,1.032,1.144,1.994,2.007,2.678c0.644,0.012,1.284,0.037,1.919,0.089
	c-1.491-1.23-2.074-2.773-1.765-4.727c0.229-1.44,1.029-2.443,2.456-2.896c1.388-0.439,2.712-0.106,3.453,1.024
	c0.578,0.882,0.768,2.123,0.792,3.211c0.009,0.404-1.055,1.26-1.433,1.161c-0.911-0.24-1.707-0.92-2.571-1.437
	c-0.697,1.054-0.523,2.211,0.72,3.266c0.445,0.378,0.902,0.642,1.374,0.799c0.317,0.057,0.635,0.105,0.951,0.17
	c1.317,0.031,2.771-0.732,4.459-2.329c0.988,2.864,2.878,4.872,5.884,5.221c1.732,0.202,3.611-0.075,5.308-0.553
	c1.517-0.425,2.858-1.446,4.3-2.158C112.962,54.924,116.104,54.097,119.506,55.078z"/>
</svg>
