<?xml version="1.0" encoding="utf-8"?>
<!-- Generator: Adobe Illustrator 16.0.0, SVG Export Plug-In . SVG Version: 6.00 Build 0)  -->
<!DOCTYPE svg PUBLIC "-//W3C//DTD SVG 1.1//EN" "http://www.w3.org/Graphics/SVG/1.1/DTD/svg11.dtd">
<svg version="1.1" id="Layer_1" xmlns="http://www.w3.org/2000/svg" xmlns:xlink="http://www.w3.org/1999/xlink" x="0px" y="0px"
	 width="126px" height="126px" viewBox="0 0 126 126" enable-background="new 0 0 126 126" xml:space="preserve">
<path d="M113.039,70.393c1.449-3.404,4.074-9.748,5.05-13.245L119,53.883l-7.377,4.759c0.918-6.949,1.391-13.164-1.956-20.185
	l-1.6-3.355l-0.818,3.626c-2.064,9.152-8.257,11.959-14.64,13.629c-3.522,0.922-8.973,2.799-11.163,4.019
	c-9.34,5.205-15.47,14.665-18.316,20.138c-2.725-5.381-8.95-15.272-18.576-20.637c-2.19-1.221-7.641-3.098-11.162-4.02
	c-6.384-1.67-12.576-4.478-14.641-13.629l-0.818-3.625l-1.599,3.355c-3.348,7.021-2.875,13.236-1.957,20.184L7,53.384l0.911,3.264
	c0.976,3.498,3.601,9.841,5.05,13.246L2.906,67.758l1.908,2.689c0.593,0.835,14.784,20.451,37.079,20.451
	c2.72,0,5.48-0.302,8.206-0.899c4.604-1.133,8.276-3.388,10.706-4.879c0.633-0.389,1.193-0.733,1.666-0.996h0.221l0.073-0.074
	c0.055,0.078,0.101,0.139,0.13,0.17l0.412,0.402h0.221c0.472,0.262,1.033,0.607,1.666,0.996c2.431,1.491,6.102,3.747,10.707,4.879
	c2.725,0.597,5.485,0.899,8.205,0.899c22.295,0,36.485-19.616,37.077-20.451l1.91-2.689L113.039,70.393z M29.035,62.48
	c0.246-0.607,0.556-1.25,1.064-1.756c0.484-0.515,1.087-0.958,1.752-1.224l0.249-0.106c0.147-0.06,0.167-0.055,0.253-0.086
	l0.438-0.135c0.291-0.091,0.748-0.137,1.104-0.169c0.721-0.01,1.438,0.126,2.07,0.433c0.627,0.31,1.163,0.768,1.502,1.353
	c0.344,0.583,0.424,1.299,0.237,1.872c-0.114,0.279-0.226,0.536-0.415,0.711c-0.161,0.205-0.349,0.335-0.528,0.445
	c-0.174,0.126-0.341,0.215-0.513,0.261c-0.162,0.057-0.31,0.109-0.443,0.156c-0.56,0.095-0.862,0.123-0.862,0.123
	s0.274-0.172,0.724-0.434c0.098-0.082,0.21-0.173,0.33-0.271c0.058-0.046,0.118-0.094,0.184-0.146c0.047-0.06,0.1-0.123,0.153-0.188
	c0.112-0.122,0.219-0.255,0.272-0.416c0.094-0.143,0.108-0.309,0.14-0.464c0.006-0.324-0.112-0.64-0.345-0.938
	c-0.249-0.294-0.633-0.509-1.037-0.676c-0.421-0.164-0.901-0.17-1.375-0.158c-0.236,0.05-0.393,0.045-0.684,0.13l-0.433,0.142
	c-0.055,0.019-0.187,0.056-0.176,0.063l-0.171,0.078c-0.477,0.175-0.875,0.477-1.234,0.805c-0.367,0.329-0.64,0.745-0.862,1.173
	c-0.206,0.438-0.351,0.9-0.436,1.357c-0.063,0.459-0.097,0.91-0.063,1.329c0.032,0.418,0.101,0.809,0.191,1.15
	c0.095,0.344,0.197,0.634,0.301,0.873c0.092,0.246,0.215,0.434,0.273,0.565c0.066,0.13,0.101,0.199,0.101,0.199
	s-0.06-0.048-0.173-0.141c-0.105-0.102-0.297-0.205-0.475-0.422c-0.194-0.205-0.426-0.47-0.626-0.81
	c-0.208-0.337-0.415-0.746-0.555-1.227c-0.153-0.477-0.246-1.023-0.249-1.61C28.731,63.734,28.8,63.099,29.035,62.48z M20.259,62.76
	c-0.364-0.556-0.674-1.206-0.825-1.977c-0.083-0.384-0.115-0.805-0.071-1.261c0.034-0.45,0.223-0.98,0.628-1.407
	c0.407-0.431,0.985-0.637,1.496-0.697c0.511-0.041,0.976-0.005,1.439,0.122c0.81,0.199,1.761,0.562,2.469,1.224
	c0.387,0.304,0.639,0.706,0.923,1.082c0.221,0.395,0.455,0.798,0.6,1.201c0.333,0.808,0.477,1.609,0.639,2.354
	c0.158,0.747,0.265,1.454,0.412,2.096c0.085,0.311,0.143,0.636,0.249,0.908c0.089,0.286,0.18,0.564,0.314,0.792
	c0.061,0.121,0.121,0.239,0.18,0.355c0.078,0.1,0.152,0.197,0.228,0.292c0.076,0.094,0.136,0.204,0.221,0.284
	c0.091,0.074,0.178,0.145,0.262,0.214c0.087,0.072,0.172,0.142,0.251,0.209c0.087,0.06,0.181,0.091,0.265,0.139
	c0.179,0.091,0.343,0.174,0.49,0.25c0.681,0.188,1.071,0.297,1.071,0.297s-0.102,0.005-0.29,0.015
	c-0.19,0.003-0.47,0.039-0.825,0.026c-0.185-0.037-0.39-0.077-0.61-0.121c-0.241-0.028-0.464-0.133-0.7-0.263
	c-0.122-0.062-0.246-0.126-0.375-0.192c-0.123-0.074-0.227-0.182-0.347-0.278c-0.114-0.103-0.233-0.208-0.354-0.317
	c-0.096-0.125-0.195-0.255-0.295-0.387c-0.42-0.53-0.703-1.18-0.957-1.857c-0.245-0.68-0.46-1.391-0.652-2.106
	c-0.199-0.711-0.425-1.426-0.705-2.076c-0.284-0.647-0.633-1.244-1.134-1.638c-0.455-0.446-1.053-0.706-1.752-0.902
	c-0.297-0.09-0.624-0.121-0.885-0.131c-0.253,0.017-0.435,0.071-0.561,0.177c-0.271,0.195-0.407,0.828-0.354,1.413
	c0.047,0.594,0.207,1.18,0.417,1.678c0.219,0.477,0.514,0.932,0.792,1.057c0.236,0.157,0.556-0.085,0.733-0.369
	c0.18-0.273,0.306-0.528,0.372-0.702c0.074-0.176,0.113-0.269,0.113-0.269s-0.009,0.101-0.021,0.291
	c-0.016,0.191-0.035,0.476-0.158,0.833c-0.061,0.178-0.15,0.381-0.332,0.579c-0.159,0.217-0.548,0.344-0.881,0.27
	C21.056,63.808,20.643,63.296,20.259,62.76z M31.261,81.173l3.335,1.071l-0.375-3.377c0,0,2.629,6.647,17.414,5.52
	C51.635,84.387,38.207,90.751,31.261,81.173z M52.756,79.516c-4.579,3.253-9.708,3.119-13.776-0.725
	c-2.645-2.498-4.918-5.397-7.624-8.515c-0.124-0.002-0.266-0.007-0.425-0.015c-0.636-0.039-1.544-0.095-2.636-0.163
	c-0.533-0.015-1.109-0.028-1.689,0.013c-0.588,0.023-1.166,0.161-1.688,0.354c-0.537,0.189-0.93,0.555-1.243,1.002
	c-0.178,0.206-0.27,0.499-0.395,0.762c-0.085,0.279-0.178,0.626-0.223,0.875c-0.024,0.176-0.065,0.372-0.079,0.529l-0.025,0.431
	c0.004,0.299,0.021,0.592,0.098,0.842c0.143,0.506,0.388,0.88,0.812,1.079c0.412,0.205,0.962,0.25,1.452,0.141
	c0.496-0.104,0.936-0.343,1.241-0.643c0.283-0.312,0.439-0.683,0.439-1.062c-0.002-0.376-0.13-0.724-0.249-1.005
	c-0.145-0.269-0.263-0.495-0.368-0.63c-0.098-0.144-0.149-0.221-0.149-0.221c-0.012,0.017,0.329,0.173,0.799,0.659
	c0.213,0.257,0.489,0.593,0.617,1.103c0.142,0.501,0.067,1.178-0.303,1.747c-0.368,0.561-0.947,1.029-1.655,1.276
	c-0.695,0.256-1.553,0.36-2.406,0.028c-0.859-0.299-1.597-1.13-1.821-2.01c-0.137-0.436-0.176-0.871-0.193-1.296
	c-0.002-0.217,0.016-0.438,0.023-0.658c0.018-0.206,0.046-0.369,0.07-0.555c0.093-0.463,0.207-0.82,0.346-1.229
	c0.188-0.391,0.341-0.789,0.631-1.136c0.507-0.72,1.313-1.242,2.083-1.453c0.772-0.235,1.525-0.267,2.19-0.208
	c0.672,0.033,1.275,0.168,1.826,0.293c1.094,0.264,1.954,0.588,2.558,0.8c0.033,0.012,0.055,0.02,0.085,0.03
	c-0.143-0.162-0.277-0.321-0.422-0.483c3.877-0.613,7.046-1.304,10.254-1.583c7.168-0.627,11.392,2.733,12.531,9.812
	C53.532,78.271,53.205,79.197,52.756,79.516z M88.533,61.29c0.339-0.584,0.876-1.043,1.504-1.353
	c0.63-0.307,1.348-0.443,2.068-0.434c0.355,0.033,0.813,0.079,1.104,0.17l0.437,0.135c0.09,0.031,0.107,0.026,0.254,0.086L94.148,60
	c0.665,0.266,1.268,0.709,1.752,1.224c0.51,0.506,0.818,1.148,1.064,1.755c0.235,0.619,0.305,1.254,0.316,1.839
	c-0.002,0.588-0.096,1.134-0.25,1.611c-0.139,0.48-0.346,0.89-0.555,1.226c-0.199,0.34-0.431,0.605-0.625,0.811
	c-0.178,0.217-0.369,0.32-0.476,0.421c-0.112,0.093-0.172,0.142-0.172,0.142s0.034-0.069,0.101-0.199
	c0.06-0.131,0.182-0.319,0.273-0.564c0.104-0.239,0.206-0.529,0.301-0.874c0.091-0.342,0.158-0.731,0.193-1.15
	c0.031-0.419-0.002-0.87-0.065-1.329c-0.085-0.457-0.229-0.919-0.436-1.357c-0.223-0.427-0.495-0.844-0.862-1.173
	c-0.359-0.328-0.758-0.629-1.234-0.804L93.306,61.5c0.009-0.006-0.123-0.042-0.178-0.063l-0.433-0.142
	c-0.291-0.086-0.447-0.08-0.684-0.13c-0.473-0.012-0.954-0.005-1.375,0.159c-0.404,0.167-0.788,0.381-1.037,0.676
	c-0.232,0.299-0.351,0.615-0.345,0.938c0.03,0.156,0.046,0.323,0.139,0.464c0.055,0.161,0.161,0.294,0.273,0.416
	c0.054,0.065,0.105,0.128,0.155,0.188c0.063,0.051,0.123,0.1,0.183,0.146c0.122,0.099,0.231,0.189,0.329,0.271
	c0.447,0.262,0.724,0.435,0.724,0.435s-0.304-0.028-0.862-0.122c-0.134-0.048-0.281-0.099-0.443-0.156
	c-0.172-0.046-0.339-0.135-0.512-0.26c-0.18-0.11-0.368-0.241-0.527-0.446c-0.191-0.175-0.303-0.433-0.417-0.711
	C88.109,62.589,88.189,61.874,88.533,61.29z M73.58,84.958c14.782,1.128,17.41-5.52,17.41-5.52l-0.375,3.377l3.336-1.071
	C87.005,91.323,73.58,84.958,73.58,84.958z M104.541,75.869c-0.225,0.879-0.961,1.71-1.821,2.009
	c-0.854,0.333-1.712,0.228-2.406-0.027c-0.708-0.248-1.287-0.715-1.655-1.276c-0.368-0.57-0.442-1.246-0.304-1.748
	c0.128-0.51,0.405-0.846,0.618-1.103c0.47-0.486,0.811-0.643,0.799-0.659c0,0-0.052,0.077-0.149,0.22
	c-0.105,0.135-0.224,0.362-0.368,0.63c-0.119,0.282-0.247,0.629-0.249,1.005c0,0.378,0.155,0.75,0.439,1.062
	c0.306,0.3,0.745,0.539,1.241,0.644c0.49,0.108,1.04,0.063,1.451-0.141c0.425-0.2,0.672-0.573,0.813-1.079
	c0.075-0.251,0.093-0.544,0.099-0.843l-0.025-0.431c-0.016-0.157-0.057-0.353-0.081-0.529c-0.045-0.249-0.138-0.595-0.223-0.875
	c-0.126-0.263-0.217-0.556-0.395-0.761c-0.313-0.448-0.706-0.813-1.243-1.003c-0.521-0.193-1.101-0.33-1.688-0.354
	c-0.58-0.041-1.156-0.027-1.689-0.012c-1.091,0.067-2,0.123-2.637,0.162c-0.157,0.007-0.298,0.013-0.424,0.015
	c-2.705,3.117-4.979,6.017-7.624,8.516c-4.069,3.842-9.197,3.977-13.776,0.725c-0.449-0.318-0.776-1.245-0.686-1.813
	c1.14-7.078,5.363-10.439,12.531-9.812c3.209,0.279,6.377,0.969,10.254,1.583c-0.145,0.162-0.279,0.321-0.423,0.483
	c0.031-0.011,0.053-0.019,0.085-0.031c0.604-0.211,1.465-0.534,2.559-0.799c0.551-0.125,1.154-0.259,1.826-0.292
	c0.665-0.06,1.418-0.028,2.189,0.208c0.771,0.21,1.577,0.732,2.084,1.452c0.29,0.348,0.444,0.745,0.63,1.136
	c0.14,0.408,0.254,0.766,0.347,1.229c0.023,0.185,0.053,0.348,0.07,0.554c0.008,0.219,0.024,0.441,0.022,0.658
	C104.717,74.998,104.678,75.433,104.541,75.869z M106.568,61.282c-0.151,0.771-0.463,1.421-0.827,1.978
	c-0.383,0.536-0.797,1.048-1.478,1.207c-0.331,0.074-0.721-0.052-0.881-0.27c-0.182-0.197-0.271-0.401-0.332-0.579
	c-0.123-0.357-0.143-0.642-0.158-0.833c-0.013-0.19-0.021-0.291-0.021-0.291s0.039,0.093,0.113,0.269
	c0.066,0.174,0.192,0.428,0.372,0.702c0.178,0.284,0.495,0.527,0.731,0.37c0.28-0.125,0.576-0.581,0.793-1.057
	c0.211-0.499,0.371-1.085,0.418-1.679c0.052-0.584-0.084-1.217-0.354-1.412c-0.126-0.106-0.308-0.162-0.562-0.177
	c-0.26,0.01-0.586,0.041-0.884,0.131c-0.7,0.195-1.296,0.455-1.752,0.902c-0.501,0.393-0.85,0.99-1.136,1.638
	c-0.277,0.649-0.504,1.363-0.703,2.075c-0.193,0.715-0.407,1.427-0.651,2.107c-0.254,0.677-0.538,1.327-0.958,1.857
	c-0.1,0.131-0.197,0.261-0.295,0.387c-0.121,0.109-0.24,0.214-0.355,0.317c-0.119,0.096-0.223,0.204-0.346,0.278
	c-0.128,0.066-0.254,0.131-0.373,0.192c-0.238,0.13-0.461,0.235-0.701,0.263c-0.222,0.043-0.428,0.083-0.611,0.12
	c-0.355,0.013-0.632-0.022-0.825-0.025c-0.188-0.01-0.29-0.015-0.29-0.015s0.389-0.108,1.071-0.296
	c0.147-0.076,0.312-0.159,0.489-0.25c0.085-0.048,0.178-0.079,0.265-0.139c0.08-0.067,0.165-0.137,0.252-0.209
	c0.085-0.069,0.173-0.14,0.262-0.214c0.085-0.08,0.145-0.189,0.222-0.283c0.072-0.096,0.149-0.193,0.227-0.293
	c0.059-0.115,0.12-0.234,0.18-0.355c0.134-0.229,0.225-0.506,0.314-0.792c0.106-0.272,0.166-0.597,0.249-0.908
	c0.147-0.642,0.254-1.349,0.412-2.095c0.162-0.747,0.305-1.547,0.641-2.355c0.143-0.403,0.377-0.806,0.598-1.201
	c0.284-0.376,0.535-0.779,0.923-1.083c0.708-0.662,1.659-1.024,2.469-1.224c0.464-0.126,0.928-0.163,1.438-0.122
	c0.512,0.061,1.09,0.266,1.497,0.698c0.405,0.426,0.594,0.956,0.629,1.406C106.682,60.477,106.649,60.898,106.568,61.282z"/>
</svg>
