<?xml version="1.0" encoding="utf-8"?>
<!-- Generator: Adobe Illustrator 16.0.0, SVG Export Plug-In . SVG Version: 6.00 Build 0)  -->
<!DOCTYPE svg PUBLIC "-//W3C//DTD SVG 1.1//EN" "http://www.w3.org/Graphics/SVG/1.1/DTD/svg11.dtd">
<svg version="1.1" id="Layer_1" xmlns="http://www.w3.org/2000/svg" xmlns:xlink="http://www.w3.org/1999/xlink" x="0px" y="0px"
	 width="126px" height="126px" viewBox="0 0 126 126" enable-background="new 0 0 126 126" xml:space="preserve">
<path d="M78.332,8.54c0.926-0.399,1.936-2.181,2.709-2.514c0.771-0.333,1.666,0.024,2,0.796c0.332,0.772-0.023,1.667-0.797,2
	C81.473,9.155,79.781,9.116,78.332,8.54z M76.428,11.113c-0.748-0.756-1.969-0.762-2.725-0.012s-1.121,3.317-2.029,4.215
	c1.977,0.009,3.986-0.729,4.742-1.478C77.172,13.089,77.178,11.869,76.428,11.113z M72.432,20.354
	c0.676-1.214,0.236-2.746-0.977-3.419c-1.215-0.674-2.746-0.236-3.42,0.978c-0.676,1.215-0.197,4.565-1.006,6.022
	C69.508,23.226,71.758,21.568,72.432,20.354z M64.891,31.624c1.836-0.936,3.35-2.581,3.693-3.637
	c0.342-1.057-0.236-2.191-1.291-2.534c-1.057-0.344-2.191,0.234-2.535,1.291S65.301,30.357,64.891,31.624z M63.359,39.992
	c1.582-1.085,2.779-2.786,2.969-3.802c0.188-1.016-0.482-1.993-1.498-2.182c-1.016-0.189-1.992,0.481-2.182,1.497
	S63.586,38.772,63.359,39.992z M62.342,49.605c1.932-1.603,3.289-3.96,3.414-5.306c0.127-1.346-0.863-2.54-2.209-2.666
	c-1.346-0.125-2.539,0.864-2.666,2.21C60.756,45.191,62.492,47.99,62.342,49.605z M61.164,53.242
	c0.018,0.951,1.449,2.771,1.471,3.911c1.225-1.271,1.988-3.023,1.971-3.973s-0.801-1.707-1.752-1.689
	C61.904,51.508,61.146,52.292,61.164,53.242z M72.656,31.916c0,0,0.5-1.113,1.504-2.623c0.498-0.755,1.123-1.607,1.857-2.458
	c0.73-0.854,1.574-1.705,2.486-2.462c0.451-0.384,0.926-0.735,1.402-1.064c0.479-0.329,0.965-0.619,1.443-0.885
	c0.242-0.124,0.482-0.246,0.717-0.365c0.238-0.106,0.473-0.21,0.699-0.311c0.463-0.183,0.902-0.348,1.316-0.468
	c0.408-0.138,0.797-0.21,1.133-0.299c0.344-0.061,0.641-0.124,0.887-0.159c0.496-0.061,0.777-0.095,0.777-0.095l0.055-0.007
	c0.029-0.003,0.059-0.009,0.09-0.015c0.51-0.113,0.83-0.619,0.717-1.128s-0.619-0.832-1.129-0.718c0,0-0.314,0.07-0.865,0.192
	c-0.273,0.066-0.6,0.169-0.977,0.276c-0.367,0.134-0.791,0.259-1.229,0.456c-0.447,0.178-0.912,0.406-1.398,0.656
	c-0.236,0.134-0.48,0.272-0.729,0.414c-0.24,0.153-0.486,0.31-0.736,0.47c-0.486,0.335-0.977,0.698-1.447,1.094
	c-0.471,0.398-0.936,0.816-1.367,1.263c-1.756,1.767-3.104,3.847-3.957,5.463C73.045,30.76,72.656,31.916,72.656,31.916z
	 M84.736,27.72c-0.396,0.178-0.801,0.36-1.213,0.545c-0.4,0.207-0.813,0.404-1.217,0.626c-0.396,0.232-0.811,0.448-1.205,0.702
	c-0.395,0.251-0.799,0.494-1.182,0.769c-0.391,0.265-0.775,0.539-1.148,0.828c-0.758,0.563-1.473,1.175-2.162,1.785
	c-0.678,0.626-1.33,1.251-1.926,1.89c-1.205,1.265-2.225,2.528-3.043,3.645c-1.643,2.234-2.477,3.876-2.477,3.876
	s1.02-1.536,2.887-3.538c0.93-1.001,2.066-2.117,3.369-3.201c0.646-0.549,1.344-1.076,2.057-1.597
	c0.727-0.505,1.469-1.006,2.24-1.451c0.383-0.23,0.771-0.445,1.164-0.648c0.387-0.215,0.789-0.395,1.18-0.585
	c0.389-0.192,0.793-0.344,1.18-0.515c0.395-0.16,0.789-0.295,1.172-0.44c0.391-0.124,0.773-0.245,1.148-0.363
	c0.379-0.098,0.75-0.194,1.111-0.288c0.729-0.157,1.416-0.293,2.057-0.368c0.158-0.022,0.314-0.043,0.467-0.064
	c0.154-0.012,0.305-0.024,0.449-0.035c0.293-0.021,0.568-0.049,0.828-0.063c0.521-0.004,0.973-0.025,1.346-0.017
	c0.742,0.032,1.166,0.051,1.166,0.051l0.092,0.004c0.064,0.003,0.131,0.002,0.197-0.003c0.938-0.068,1.643-0.884,1.574-1.822
	c-0.068-0.939-0.885-1.644-1.822-1.576c0,0-0.492,0.036-1.352,0.099c-0.428,0.04-0.945,0.122-1.537,0.199
	c-0.293,0.051-0.605,0.117-0.934,0.181c-0.164,0.033-0.332,0.066-0.504,0.101c-0.17,0.043-0.342,0.088-0.52,0.134
	c-0.713,0.17-1.467,0.411-2.252,0.681C85.539,27.408,85.143,27.563,84.736,27.72z M91.146,36.567
	c-0.541,0.119-1.094,0.233-1.65,0.364c-0.551,0.153-1.115,0.292-1.674,0.464c-0.557,0.187-1.127,0.346-1.682,0.56
	c-0.557,0.21-1.121,0.407-1.668,0.65l-0.828,0.35l-0.813,0.381c-1.086,0.503-2.131,1.079-3.145,1.658
	c-1,0.602-1.973,1.208-2.875,1.847c-0.912,0.625-1.756,1.275-2.547,1.897c-0.783,0.636-1.512,1.245-2.16,1.835
	c-2.609,2.344-4.061,4.16-4.061,4.16s1.684-1.609,4.535-3.558c1.422-0.975,3.131-2.032,5.033-3.005
	c0.947-0.496,1.949-0.95,2.971-1.393c1.033-0.418,2.082-0.829,3.154-1.161l0.801-0.252l0.807-0.221
	c0.533-0.158,1.074-0.267,1.605-0.392c0.531-0.128,1.068-0.202,1.59-0.304c0.525-0.087,1.047-0.143,1.557-0.215
	c0.51-0.043,1.014-0.085,1.504-0.127c0.492-0.015,0.971-0.03,1.438-0.044c0.934,0.009,1.811,0.034,2.613,0.119
	c0.199,0.017,0.396,0.034,0.588,0.05c0.189,0.028,0.377,0.055,0.559,0.082c0.361,0.054,0.705,0.098,1.025,0.151
	c0.637,0.139,1.193,0.237,1.645,0.351c0.895,0.244,1.406,0.384,1.406,0.384l0.135,0.037c0.1,0.027,0.201,0.047,0.307,0.061
	c1.348,0.181,2.588-0.766,2.768-2.114c0.182-1.348-0.766-2.587-2.113-2.768c0,0-0.623-0.083-1.713-0.229
	c-0.545-0.062-1.213-0.095-1.971-0.152c-0.381-0.013-0.787-0.012-1.213-0.018c-0.213-0.002-0.43-0.004-0.654-0.006
	c-0.223,0.01-0.451,0.021-0.684,0.031c-0.932,0.027-1.936,0.131-2.984,0.263C92.23,36.388,91.695,36.477,91.146,36.567z
	 M44.385,19.048l0.051,0.013c0,0,0.277,0.067,0.762,0.184c0.242,0.063,0.529,0.16,0.863,0.26c0.324,0.126,0.703,0.243,1.092,0.427
	c0.398,0.167,0.814,0.381,1.252,0.616c0.215,0.126,0.436,0.257,0.662,0.389c0.219,0.146,0.441,0.294,0.668,0.445
	c0.445,0.318,0.896,0.664,1.332,1.044c0.436,0.381,0.869,0.784,1.271,1.218c0.82,0.857,1.559,1.799,2.188,2.732
	c0.633,0.929,1.154,1.848,1.564,2.654c0.822,1.616,1.191,2.778,1.191,2.778s-0.254-1.192-0.924-2.899
	c-0.662-1.704-1.762-3.924-3.303-5.881c-0.379-0.494-0.791-0.962-1.213-1.411s-0.867-0.865-1.313-1.254
	c-0.23-0.187-0.457-0.371-0.678-0.551c-0.23-0.168-0.457-0.333-0.678-0.494c-0.453-0.304-0.889-0.584-1.311-0.813
	c-0.414-0.245-0.82-0.418-1.17-0.594c-0.361-0.149-0.676-0.289-0.939-0.386c-0.533-0.185-0.838-0.291-0.838-0.291
	c-0.027-0.009-0.059-0.019-0.088-0.025c-0.508-0.123-1.018,0.189-1.141,0.697S43.877,18.926,44.385,19.048z M37.301,26.833
	l0.092,0.007c0,0,0.422,0.03,1.164,0.084c0.371,0.033,0.816,0.106,1.334,0.171c0.256,0.044,0.527,0.103,0.814,0.157
	c0.145,0.028,0.293,0.057,0.443,0.087c0.148,0.038,0.301,0.078,0.457,0.117c0.627,0.148,1.295,0.362,2,0.602
	c0.348,0.134,0.705,0.272,1.07,0.413c0.359,0.161,0.727,0.326,1.1,0.493c0.363,0.188,0.742,0.368,1.113,0.571
	c0.365,0.215,0.75,0.412,1.115,0.647c0.365,0.234,0.744,0.458,1.102,0.717c0.367,0.248,0.73,0.505,1.082,0.777
	c0.717,0.531,1.396,1.114,2.061,1.699c0.648,0.6,1.281,1.203,1.859,1.822c1.17,1.227,2.172,2.466,2.98,3.567
	c1.623,2.203,2.461,3.846,2.461,3.846s-0.639-1.727-2.016-4.135c-0.686-1.204-1.553-2.576-2.604-3.97
	c-0.518-0.703-1.096-1.399-1.697-2.098c-0.615-0.685-1.254-1.376-1.941-2.022c-0.338-0.33-0.689-0.646-1.047-0.954
	c-0.35-0.318-0.723-0.604-1.086-0.9c-0.361-0.297-0.748-0.558-1.117-0.835c-0.377-0.267-0.762-0.51-1.137-0.762
	c-0.387-0.23-0.768-0.458-1.141-0.68c-0.387-0.203-0.764-0.401-1.131-0.595c-0.75-0.358-1.473-0.684-2.16-0.935
	c-0.17-0.065-0.338-0.13-0.502-0.193c-0.166-0.054-0.33-0.106-0.488-0.157c-0.318-0.101-0.619-0.203-0.906-0.287
	c-0.578-0.145-1.084-0.286-1.504-0.375c-0.848-0.161-1.33-0.253-1.33-0.253c-0.064-0.012-0.131-0.021-0.197-0.025
	c-0.938-0.067-1.754,0.639-1.82,1.577C35.656,25.95,36.363,26.766,37.301,26.833z M28.061,37.808l0.123-0.019
	c0,0,0.523-0.08,1.441-0.219c0.461-0.062,1.025-0.096,1.674-0.16c0.324-0.017,0.67-0.02,1.037-0.032
	c0.184-0.005,0.371-0.011,0.564-0.017c0.191,0.006,0.389,0.012,0.59,0.018c0.807,0.007,1.68,0.084,2.607,0.182
	c0.463,0.068,0.938,0.138,1.424,0.209c0.482,0.098,0.977,0.197,1.48,0.299c0.496,0.13,1.008,0.246,1.52,0.392
	c0.508,0.162,1.033,0.297,1.545,0.485c0.514,0.185,1.039,0.356,1.551,0.573l0.775,0.312l0.768,0.343
	c1.025,0.454,2.021,0.981,2.998,1.516c0.965,0.557,1.908,1.123,2.791,1.725c1.779,1.184,3.355,2.431,4.656,3.563
	c2.609,2.262,4.098,4.055,4.098,4.055s-1.234-1.971-3.557-4.599c-0.576-0.661-1.23-1.35-1.936-2.071
	c-0.715-0.709-1.479-1.452-2.313-2.177c-0.824-0.737-1.719-1.452-2.645-2.164c-0.941-0.691-1.912-1.384-2.932-2.008l-0.766-0.471
	l-0.781-0.443c-0.516-0.305-1.055-0.564-1.582-0.837c-0.527-0.276-1.076-0.5-1.605-0.749c-0.537-0.235-1.08-0.438-1.611-0.653
	c-0.537-0.194-1.074-0.37-1.598-0.551c-0.533-0.152-1.055-0.302-1.563-0.447c-1.029-0.251-2.014-0.47-2.936-0.604
	c-0.23-0.037-0.455-0.074-0.676-0.109c-0.223-0.023-0.439-0.047-0.65-0.069c-0.424-0.042-0.828-0.091-1.207-0.121
	c-0.76-0.031-1.426-0.075-1.975-0.076c-1.1,0.02-1.729,0.031-1.729,0.031c-0.104,0.002-0.221,0.012-0.326,0.028
	c-1.344,0.205-2.268,1.46-2.063,2.805C25.459,37.087,26.715,38.012,28.061,37.808z M107.396,119.925v0.151
	c0,0-0.061,0.003-0.178,0.008c-0.119-0.002-0.295,0.031-0.527,0.002c-0.234-0.009-0.523-0.056-0.855-0.168
	c-0.334-0.112-0.699-0.325-1.035-0.656c-0.676-0.681-1.012-1.806-1.131-3.005c-0.131-1.214-0.063-2.559,0.008-3.993
	c0.041-0.716,0.086-1.455,0.1-2.207c0.008-0.748,0.021-1.521-0.102-2.243c-0.082-0.633-0.41-1.413-0.771-2.088
	c-0.379-0.683-0.859-1.309-1.449-1.86c-1.18-1.119-2.854-1.79-4.592-2.568c-0.869-0.396-1.76-0.846-2.574-1.452
	c-0.813-0.606-1.533-1.361-2.055-2.239l-0.199-0.332l-0.16-0.321l-0.029-0.056c-0.012,0.025-0.027,0.049-0.039,0.074
	c-0.303,0.679-0.387,1.386-0.279,2.127c0.012,0.097,0.02,0.202,0.033,0.293l0.055,0.239c0.045,0.158,0.088,0.332,0.16,0.483
	c0.127,0.315,0.295,0.607,0.514,0.872c0.424,0.539,1,0.993,1.629,1.425c0.627,0.436,1.313,0.84,1.988,1.318
	c0.672,0.477,1.359,1.012,1.926,1.709c0.572,0.686,1.016,1.531,1.219,2.416l0.039,0.166l0.02,0.083l0.004,0.021l0.012,0.062
	l0.006,0.037l0.041,0.295l0.039,0.295l0.018,0.149l0.002,0.186c-0.002,0.247-0.004,0.497-0.018,0.738
	c-0.035,0.226-0.078,0.45-0.119,0.673c-0.217,0.879-0.596,1.659-1.004,2.363c-0.404,0.708-0.83,1.36-1.16,2.033
	c-0.326,0.673-0.557,1.372-0.609,2.116c-0.078,0.749,0.121,1.503,0.324,2.269l-0.137,0.065l-0.289-0.535l-0.143-0.273
	c-0.045-0.093-0.07-0.192-0.107-0.29c-0.066-0.195-0.139-0.392-0.195-0.594l-0.105-0.625c-0.086-0.846,0.051-1.722,0.324-2.516
	c0.262-0.804,0.641-1.527,0.953-2.235s0.59-1.391,0.697-2.07c0.018-0.169,0.033-0.338,0.057-0.505
	c-0.004-0.154-0.012-0.302-0.01-0.452v-0.112l-0.025-0.146l-0.053-0.292l-0.051-0.294l-0.057-0.211
	c-0.178-0.659-0.494-1.253-0.926-1.795c-0.432-0.539-0.973-1.034-1.578-1.496c-0.604-0.465-1.258-0.913-1.912-1.417
	c-0.65-0.5-1.311-1.082-1.813-1.838c-0.25-0.377-0.443-0.802-0.563-1.242c-0.066-0.22-0.096-0.44-0.127-0.67l-0.025-0.351
	c-0.002-0.107,0.002-0.201,0.004-0.302c-0.016-0.843,0.217-1.752,0.656-2.48c0.107-0.178,0.225-0.346,0.35-0.508
	c-0.135-0.468-0.199-0.946-0.215-1.416c-0.031-0.248-0.004-0.492-0.006-0.737c-0.002-0.246,0.027-0.486,0.053-0.727
	c0.033-0.483,0.119-0.956,0.195-1.426c0.348-1.873,0.838-3.67,1.275-5.417c0.104-0.412,0.207-0.818,0.311-1.222
	c-0.277-0.153-0.557-0.309-0.832-0.474c-0.424-0.26-0.84-0.546-1.24-0.856c-0.01-0.007-0.018-0.016-0.027-0.023
	c-1.709,2.59-4.145,4.376-7.242,5.414c-3.264,1.095-6.617,1.416-10.029,1.021c-2.641-0.306-4.768-1.681-6.695-3.42
	c-0.789-0.712-1.551-1.458-2.441-2.047c-1.299-0.857-2.359-0.841-3.627,0.063c-1.211,0.863-2.23,1.956-3.389,2.883
	c-2.291,1.831-4.873,2.708-7.814,2.676c-2.883-0.031-5.701-0.341-8.41-1.371c-2.842-1.081-5.064-2.786-6.635-5.131
	c-0.373,0.285-0.758,0.551-1.152,0.792c-0.275,0.165-0.555,0.321-0.832,0.474c0.104,0.403,0.207,0.81,0.311,1.222
	c0.438,1.747,0.928,3.545,1.275,5.417c0.076,0.47,0.162,0.942,0.195,1.426c0.025,0.241,0.055,0.481,0.053,0.727
	c-0.002,0.245,0.025,0.49-0.006,0.737c-0.016,0.469-0.08,0.947-0.215,1.416c0.125,0.162,0.242,0.331,0.35,0.508
	c0.439,0.727,0.672,1.637,0.656,2.48c0.002,0.101,0.006,0.196,0.004,0.302l-0.025,0.351c-0.031,0.229-0.059,0.451-0.127,0.67
	c-0.119,0.44-0.313,0.865-0.561,1.242c-0.504,0.757-1.164,1.338-1.814,1.838c-0.654,0.504-1.309,0.952-1.912,1.417
	c-0.605,0.462-1.146,0.957-1.578,1.496c-0.432,0.542-0.748,1.136-0.926,1.795l-0.057,0.211l-0.051,0.293l-0.053,0.293l-0.025,0.146
	l0.002,0.112c0,0.15-0.008,0.298-0.012,0.452c0.023,0.167,0.039,0.335,0.057,0.505c0.107,0.679,0.385,1.362,0.697,2.07
	s0.691,1.431,0.953,2.235c0.273,0.794,0.412,1.67,0.324,2.516l-0.105,0.625c-0.057,0.202-0.129,0.398-0.195,0.594
	c-0.037,0.097-0.063,0.197-0.107,0.29l-0.143,0.273l-0.289,0.534l-0.137-0.065c0.203-0.766,0.402-1.52,0.324-2.269
	c-0.053-0.744-0.283-1.442-0.609-2.116c-0.33-0.672-0.756-1.325-1.16-2.033c-0.408-0.704-0.785-1.483-1.002-2.363
	c-0.043-0.223-0.086-0.448-0.121-0.673c-0.014-0.241-0.016-0.491-0.016-0.738v-0.186l0.02-0.148l0.037-0.296l0.041-0.295
	l0.006-0.037l0.012-0.062l0.004-0.021l0.02-0.083l0.039-0.166c0.203-0.884,0.646-1.729,1.219-2.416
	c0.566-0.697,1.256-1.232,1.928-1.709c0.674-0.479,1.361-0.883,1.986-1.318c0.629-0.433,1.205-0.886,1.629-1.425
	c0.219-0.265,0.389-0.557,0.514-0.872c0.072-0.152,0.115-0.326,0.16-0.484l0.055-0.239c0.014-0.091,0.021-0.196,0.033-0.293
	c0.107-0.742,0.023-1.448-0.277-2.127c-0.012-0.025-0.029-0.049-0.041-0.074l-0.029,0.056l-0.16,0.321l-0.199,0.332
	c-0.521,0.878-1.242,1.633-2.055,2.239c-0.814,0.606-1.705,1.056-2.572,1.452c-1.74,0.778-3.414,1.449-4.594,2.568
	c-0.59,0.551-1.07,1.177-1.449,1.86c-0.359,0.675-0.689,1.455-0.771,2.088c-0.123,0.721-0.107,1.495-0.102,2.243
	c0.014,0.751,0.059,1.491,0.102,2.207c0.068,1.434,0.137,2.778,0.006,3.992c-0.119,1.2-0.455,2.325-1.131,3.006
	c-0.336,0.331-0.701,0.543-1.035,0.656c-0.332,0.112-0.621,0.159-0.855,0.168c-0.232,0.028-0.408-0.004-0.527-0.002
	c-0.117-0.005-0.178-0.008-0.178-0.008v-0.151c0,0,0.059-0.009,0.172-0.026c0.111-0.025,0.283-0.026,0.49-0.095
	c0.414-0.094,1.039-0.326,1.475-0.931s0.605-1.555,0.6-2.667c-0.008-1.117-0.174-2.4-0.357-3.822
	c-0.154-1.429-0.42-2.984-0.217-4.791c0.119-1.006,0.465-1.808,0.92-2.646c0.457-0.823,1.064-1.617,1.822-2.25
	c0.752-0.642,1.609-1.143,2.482-1.548c0.873-0.407,1.762-0.737,2.623-1.077c0.861-0.343,1.701-0.693,2.465-1.161
	c0.766-0.455,1.461-1.042,1.998-1.758l0.197-0.266l0.189-0.304l0.096-0.152c0.01-0.018,0.041-0.09,0.061-0.133l0.068-0.149
	c-0.029-0.041-0.055-0.084-0.086-0.124c-0.248-0.291-0.508-0.577-0.799-0.835c-0.58-0.521-1.215-0.995-1.857-1.47
	c-0.645-0.477-1.291-0.97-1.865-1.59c-0.566-0.614-1.049-1.409-1.207-2.3c-0.166-0.87-0.08-1.763,0.154-2.572
	c0.078-0.362,0.26-0.669,0.457-0.915c0.201-0.254,0.428-0.428,0.648-0.602c0.447-0.323,0.9-0.56,1.346-0.784
	c0.344-0.169,0.686-0.325,1.025-0.478c-0.348-0.9-0.676-1.79-0.945-2.672c-0.49-1.589-0.83-3.148-0.982-4.63
	c-0.143-1.478-0.055-2.911,0.395-4.102c0.424-1.203,1.223-2.058,1.947-2.553c0.189-0.115,0.369-0.224,0.537-0.326
	c0.047-0.03,0.1-0.05,0.148-0.073c0.885-3.172,2.795-5.672,5.574-7.607c3.365-2.342,7.18-3.519,11.15-4.275
	c2.961-0.564,5.953-0.844,8.967-0.981c1.551-0.07,3.098-0.065,4.648-0.106c5.193-0.014,10.357,0.3,15.434,1.479
	c3.748,0.871,7.307,2.199,10.324,4.671c2.273,1.863,3.775,4.116,4.52,6.74c0.109,0.042,0.219,0.087,0.324,0.153
	c0.168,0.103,0.348,0.211,0.537,0.326c0.727,0.495,1.523,1.351,1.947,2.553c0.449,1.191,0.537,2.625,0.396,4.102
	c-0.154,1.482-0.492,3.041-0.984,4.63c-0.27,0.883-0.598,1.772-0.945,2.672c0.34,0.153,0.682,0.309,1.025,0.478
	c0.445,0.224,0.898,0.46,1.346,0.784c0.221,0.174,0.447,0.348,0.648,0.602c0.197,0.245,0.379,0.552,0.457,0.915
	c0.234,0.809,0.32,1.702,0.154,2.572c-0.158,0.892-0.641,1.686-1.207,2.3c-0.574,0.621-1.221,1.114-1.863,1.59
	c-0.643,0.476-1.277,0.949-1.859,1.47c-0.291,0.258-0.551,0.544-0.797,0.835c-0.033,0.04-0.059,0.083-0.088,0.124l0.068,0.15
	c0.02,0.042,0.051,0.115,0.061,0.132l0.096,0.152l0.189,0.304l0.197,0.266c0.537,0.716,1.232,1.304,1.998,1.758
	c0.764,0.467,1.604,0.817,2.465,1.161c0.861,0.34,1.75,0.67,2.623,1.077c0.873,0.406,1.73,0.907,2.482,1.548
	c0.758,0.633,1.365,1.427,1.824,2.25c0.453,0.839,0.799,1.641,0.918,2.646c0.203,1.807-0.063,3.362-0.217,4.791
	c-0.184,1.421-0.35,2.705-0.357,3.822c-0.006,1.112,0.164,2.062,0.6,2.667s1.061,0.836,1.475,0.931
	c0.209,0.069,0.379,0.07,0.49,0.095C107.338,119.917,107.396,119.925,107.396,119.925z M31.967,85.667
	c-0.297,0.157-0.592,0.313-0.879,0.466c-0.414,0.22-0.811,0.452-1.148,0.698c-0.158,0.124-0.313,0.252-0.418,0.376
	c-0.107,0.125-0.172,0.241-0.207,0.346l-0.016,0.058c-0.244,0.687-0.4,1.384-0.365,2.077c0.018,0.693,0.275,1.378,0.703,1.993
	c0.424,0.619,1.002,1.153,1.605,1.657c0.605,0.506,1.26,0.962,1.875,1.488c0.273,0.227,0.537,0.47,0.791,0.729
	c0.08-0.279,0.141-0.568,0.176-0.863c0.098-0.912,0.016-1.85-0.135-2.766c-0.326-1.834-0.938-3.585-1.588-5.253
	C32.23,86.337,32.098,86.002,31.967,85.667z M34.281,83.104c-0.402-0.708-0.756-1.466-1.051-2.279
	c-1.094-3.004-1.496-6.094-0.947-9.275c0.035-0.203,0.076-0.403,0.119-0.601c-0.029,0.025-0.055,0.046-0.086,0.072
	c-0.162,0.114-0.27,0.3-0.42,0.452c-0.066,0.083-0.15,0.155-0.209,0.25c-0.061,0.094-0.121,0.19-0.182,0.289
	c-0.059,0.099-0.129,0.193-0.184,0.3c-0.047,0.111-0.094,0.224-0.143,0.338c-0.043,0.116-0.113,0.222-0.143,0.349
	c-0.037,0.125-0.072,0.251-0.107,0.379c-0.27,1.032-0.289,2.287-0.08,3.651c0.182,1.368,0.566,2.842,0.98,4.411
	c0.223,0.831,0.449,1.695,0.68,2.582c0.197-0.092,0.395-0.186,0.59-0.283l0.625-0.318C33.914,83.319,34.1,83.215,34.281,83.104z
	 M56.598,75.389c0,0-3.531-4.167-7.889-4.167c-4.359,0-7.893,4.167-7.893,4.167s3.533,4.167,7.893,4.167
	C53.066,79.556,56.598,75.389,56.598,75.389z M86.389,75.389c0,0-3.533-4.167-7.891-4.167s-7.891,4.167-7.891,4.167
	s3.533,4.167,7.891,4.167S86.389,75.389,86.389,75.389z M93.49,84.021c0.23-0.887,0.457-1.75,0.68-2.582
	c0.414-1.569,0.799-3.043,0.98-4.411c0.209-1.364,0.189-2.619-0.08-3.651c-0.035-0.128-0.07-0.255-0.105-0.379
	c-0.031-0.127-0.1-0.232-0.145-0.349c-0.049-0.115-0.096-0.228-0.143-0.338c-0.053-0.107-0.125-0.201-0.184-0.3
	c-0.061-0.099-0.121-0.195-0.18-0.289c-0.061-0.095-0.143-0.167-0.211-0.25c-0.15-0.151-0.258-0.337-0.42-0.451
	c-0.096-0.082-0.184-0.155-0.273-0.231c0.203,0.91,0.322,1.861,0.352,2.854c0.084,2.808-0.377,5.521-1.521,8.095
	c-0.199,0.448-0.416,0.876-0.648,1.288c0.027,0.016,0.051,0.034,0.078,0.05c0.195,0.123,0.4,0.234,0.605,0.344l0.625,0.318
	C93.096,83.835,93.293,83.929,93.49,84.021z M91.916,94.694c0.035,0.295,0.096,0.583,0.178,0.862
	c0.252-0.26,0.516-0.503,0.789-0.729c0.615-0.526,1.27-0.982,1.875-1.488c0.604-0.504,1.182-1.038,1.607-1.657
	c0.426-0.614,0.684-1.299,0.703-1.993c0.033-0.692-0.123-1.39-0.367-2.077l-0.016-0.058c-0.035-0.105-0.1-0.221-0.207-0.346
	c-0.104-0.124-0.26-0.252-0.418-0.376c-0.338-0.247-0.734-0.478-1.148-0.698c-0.287-0.154-0.582-0.31-0.879-0.466
	c-0.131,0.334-0.264,0.669-0.395,1.008c-0.65,1.667-1.262,3.418-1.588,5.253C91.9,92.844,91.818,93.782,91.916,94.694z
	 M97.961,87.209c0.004,0.015,0.008,0.031,0.012,0.046c0.002,0.004,0.004,0.008,0.004,0.012L97.961,87.209z M28.023,87.268
	c0.002-0.004,0.002-0.008,0.004-0.012c0.004-0.015,0.008-0.031,0.012-0.046L28.023,87.268z"/>
</svg>
