<?xml version="1.0" encoding="utf-8"?>
<!-- Generator: Adobe Illustrator 16.0.0, SVG Export Plug-In . SVG Version: 6.00 Build 0)  -->
<!DOCTYPE svg PUBLIC "-//W3C//DTD SVG 1.1//EN" "http://www.w3.org/Graphics/SVG/1.1/DTD/svg11.dtd">
<svg version="1.1" id="Layer_1" xmlns="http://www.w3.org/2000/svg" xmlns:xlink="http://www.w3.org/1999/xlink" x="0px" y="0px"
	 width="126px" height="126px" viewBox="0 0 126 126" enable-background="new 0 0 126 126" xml:space="preserve">
<path d="M117.545,59.767c-1.451,1.692-3.132,1.542-4.781,0.934c-2.293-0.846-4.549-1.801-6.793-2.772
	c-5.527-2.393-11.228-3.842-17.313-3.4c-4.657,0.337-9.202,1.235-13.579,2.832c-1.631,0.594-3.245,0.93-4.856,1.003
	c-1.611-0.073-3.227-0.409-4.855-1.003c-0.562-0.205-1.127-0.397-1.693-0.58c4.165-3.998,1.244-11.788,6.502-15.046
	c-7.881-1.314-12.016-0.871-16.871,2.979c-3.478,2.76-5.335,6.576-5.107,9.788c-0.317,0.015-0.638,0.016-0.951,0.041
	c-0.214-3.759,1.855-8.088,5.742-11.172c1.716-1.36,3.361-2.327,5.088-2.976c-0.174-2.418,0.099-4.736,1.845-6.749
	c-9.154,1.26-13.568,3.171-17.604,9.092c-3.042,4.465-3.711,9.612-2.054,13.103c-0.334,0.096-0.668,0.198-1.001,0.302
	c-0.243-2.672-1.644-5.612-4.075-8.031c-4.391-4.372-12.182-0.102-16.168-5.116c-0.384,7.98,0.54,12.036,4.932,16.407
	c0.646,0.643,1.331,1.204,2.035,1.699c-1.078,0.087-2.132-0.222-3.086-1.333c-0.556,8.877,0.17,17.339,3.705,25.394
	c2.068,4.715,4.994,8.792,9.256,11.747c6.894,4.78,14.62,4.229,22.58,1.525c1.759-0.597,3.337-1.365,4.913-2.413
	c2.491-1.657,4.995-2.802,7.159-2.802s4.517,1.145,7.008,2.802c1.575,1.048,3.154,1.816,4.913,2.413
	c7.96,2.704,15.26,3.255,22.152-1.525c4.261-2.955,7.187-7.032,9.255-11.747C117.375,77.105,118.1,68.644,117.545,59.767z
	 M33.339,85.937c-0.143,0.534-0.968,0.307-0.826-0.228c0.679-2.556,0.949-4.678-1.484-6.223c-1.566-0.993-3.14-1.977-4.438-3.321
	c-2.837-2.938-2.864-5.862,0.836-7.991c0.479-0.276,0.91,0.464,0.432,0.74c-6.125,3.526,0.603,7.707,3.916,10.04
	C34.308,80.737,34.08,83.147,33.339,85.937z M46.545,95.166c0.076-0.545,0.902-0.313,0.827,0.228
	c-0.832,6.001,4.236,0.673,2.71-1.126c-1.252-1.475-4.641-0.314-6.184,0.042c-1.934,0.446-4.092,0.998-6.087,0.658
	c-3.479-0.593-5.117-4.772-2.588-7.425c2.518-2.64,6.285-0.814,6.368,2.564c0.014,0.553-0.843,0.552-0.856,0
	c-0.082-3.359-3.84-3.804-5.49-1.214c-0.852,1.336-0.331,3.286,0.692,4.362c0.89,0.933,2.41,0.964,3.597,0.925
	c2.842-0.093,8.489-2.961,11-0.658C53.564,96.301,45.41,103.351,46.545,95.166z M40.857,86.133
	c-7.799-4.069-9.544-16.14-9.544-16.14s10.022-3.793,17.822,0.275c7.8,4.07,10.421,14.461,10.421,14.461
	S48.657,90.202,40.857,86.133z M57.28,65.215c-1.388,1.604-2.906,2.564-3.396,2.142c-0.487-0.421,0.244-2.064,1.632-3.668
	c1.387-1.604,4.066-2.921,4.066-2.921S58.668,63.61,57.28,65.215z M63.169,68.947c-0.88,2.618-2.236,4.523-3.032,4.256
	c-0.795-0.267-0.726-2.605,0.154-5.223c0.88-2.617,3.458-5.525,3.458-5.525S64.049,66.329,63.169,68.947z M69.302,79.432
	c-1.336,0-2.418-3.566-2.418-7.966s2.418-10.099,2.418-10.099s2.418,5.7,2.418,10.099S70.639,79.432,69.302,79.432z M78.307,72.745
	c-0.797,0.267-2.152-1.639-3.031-4.256c-0.88-2.618-0.581-6.493-0.581-6.493s2.579,2.908,3.459,5.525
	C79.031,70.139,79.102,72.477,78.307,72.745z M82.928,63.23c1.388,1.604,2.118,3.247,1.631,3.668
	c-0.488,0.422-2.008-0.538-3.395-2.142c-1.388-1.604-2.304-4.447-2.304-4.447S81.54,61.626,82.928,63.23z M80.886,84.729
	c0,0,2.623-10.391,10.423-14.461c7.799-4.069,17.822-0.275,17.822-0.275s-1.746,12.07-9.546,16.14S80.886,84.729,80.886,84.729z
	 M102.515,94.966c-1.994,0.34-4.151-0.211-6.086-0.658c-1.543-0.356-4.932-1.517-6.185-0.042c-1.525,1.799,3.543,7.128,2.71,1.126
	c-0.073-0.541,0.751-0.773,0.828-0.228c1.134,8.185-7.021,1.136-3.989-1.645c2.51-2.303,8.158,0.565,10.999,0.658
	c1.187,0.039,2.708,0.007,3.598-0.925c1.024-1.076,1.544-3.025,0.692-4.362c-1.651-2.59-5.408-2.146-5.49,1.214
	c-0.014,0.552-0.87,0.553-0.856,0c0.082-3.378,3.851-5.204,6.368-2.564C107.633,90.194,105.994,94.373,102.515,94.966z
	 M113.245,76.664c-1.468,1.402-3.106,2.371-4.75,3.529c-2.187,1.539-1.794,3.674-1.171,6.016c0.142,0.534-0.686,0.761-0.827,0.228
	c-0.72-2.71-1.011-5.283,1.565-6.984c3.412-2.253,9.952-6.565,3.916-10.04c-0.479-0.275-0.048-1.016,0.432-0.74
	c1.372,0.79,3.222,2.074,3.068,3.917C115.342,74.211,114.402,75.559,113.245,76.664z M20.319,57.007
	c-2.384-0.457-4.898-1.776-7.021-3.888c-4.392-4.372-5.316-8.426-4.933-16.407c3.987,5.014,11.777,0.744,16.169,5.116
	c0.884,0.88,1.626,1.831,2.231,2.812c-2.737-0.104-5.095-0.319-6.672-2.302l-2.126-2.673l-0.163,3.412
	C17.522,48.956,17.891,53.144,20.319,57.007z M17.644,30.748l-1.341-1.84l2.222,0.5c7.214,1.625,11.344,3.415,14.65,8.856
	c-0.082,0.566-0.147,1.15-0.188,1.769c-0.129,2.035,0.141,3.962,0.71,5.649c-1.774-0.768-3.731-0.92-5.582-0.993
	c-0.276-0.6-0.594-1.196-0.962-1.781c-1.946-3.093-5.715-3.528-9.048-4.545C18.762,35.607,19.286,33.006,17.644,30.748z
	 M33.584,38.946c-0.135-0.237-0.271-0.457-0.409-0.682c0.74-5.098,3.274-8.279,8.903-12.752c-0.793,4.373,2.98,7.18,5.233,10.553
	c-2.438,1.377-4.497,3.317-6.454,6.189c-1.579,2.319-2.531,4.819-2.891,7.213c-0.534-0.743-1.132-1.458-1.803-2.125
	c-0.188-0.188-0.383-0.358-0.583-0.52C35.696,44.333,35.053,41.554,33.584,38.946z"/>
</svg>
