<?xml version="1.0" encoding="utf-8"?>
<!-- Generator: Adobe Illustrator 16.0.0, SVG Export Plug-In . SVG Version: 6.00 Build 0)  -->
<!DOCTYPE svg PUBLIC "-//W3C//DTD SVG 1.1//EN" "http://www.w3.org/Graphics/SVG/1.1/DTD/svg11.dtd">
<svg version="1.1" id="Layer_1" xmlns="http://www.w3.org/2000/svg" xmlns:xlink="http://www.w3.org/1999/xlink" x="0px" y="0px"
	 width="126px" height="126px" viewBox="0 0 126 126" enable-background="new 0 0 126 126" xml:space="preserve">
<path d="M118.29,49.776c-0.253-3.602-0.95-6.824-2.132-9.849c-1.837-4.702-4.322-8.341-7.597-11.124
	c-2.531-2.151-5.439-3.651-8.645-4.459c-3.828-0.967-7.213-1.308-10.447-1.051c-3.911,0.308-7.479,1.461-10.607,3.428
	c-2.101,1.32-3.798,3.034-5.045,5.095c-1.61,2.661-2.189,5.246-1.771,7.903c0.561,3.556,2.671,6.591,5.943,8.544
	c2.467,1.474,5.112,1.763,8.326,0.896c2.285-0.616,7.213-3.226,9.531-8.765c0.451-1.803,0.025-3.261-1.231-4.215
	c-0.89-0.675-1.86-1.017-2.885-1.017c-2.338,0-4.226,1.759-4.881,3.497c-0.429,1.137,0.028,2.242,1.166,2.817
	c0.469,0.237,0.968,0.38,1.532,0.432c-1.389,2.19-2.753,3.42-4.523,4.09c-0.685,0.259-1.404,0.391-2.14,0.391
	c-2.812,0-5.47-1.933-6.184-4.495c-0.807-2.89-0.445-5.556,1.104-8.149c1.007-1.687,2.381-3.094,4.202-4.302
	c1.655-1.098,3.483-1.913,5.434-2.422c4.085-1.067,7.64-1.005,10.95,0.181c2.105,0.754,4.89,2.214,6.196,4.884
	c0.919,1.876,1.003,3.879,0.964,5.59c-0.074,3.211-1.473,6.36-4.277,9.627c-2.496,2.909-5.787,4.949-10.059,6.235
	c-1.522,0.458-3.119,0.76-4.663,1.053c-0.523,0.099-1.048,0.199-1.57,0.304c-2.947,0.595-6.416,1.337-9.806,2.334
	c-2.435,0.716-4.379,1.469-6.12,2.369c-1.393,0.719-2.467,1.396-3.38,2.131c-1.493,1.201-2.377,2.599-2.629,4.179
	c-0.005,0.044-0.12,1.088,0.031,1.938c0.152,0.855,0.482,1.724,0.98,2.582c1.04,1.792,2.605,3.289,4.926,4.712
	c2.796,1.714,5.992,2.982,9.502,3.769c0.779,0.175,1.319,0.559,1.865,1.324c1.667,2.337,3.353,4.66,5.044,6.978
	c2.413,3.309,4.909,6.73,7.77,9.928c1.424,1.591,3.118,3.396,5.218,4.683c0.733,0.45,1.719,0.965,2.842,0.965
	c0.582,0,1.157-0.142,1.712-0.421c0.827-0.417,1.56-0.99,2.174-1.701c1.609-1.862,2.775-4.122,3.78-7.325
	c1.055-3.357,1.318-6.844,1.574-10.216c0.072-0.955,0.146-1.914,0.235-2.877c0.096-1.025,0.091-1.972,0.086-2.887
	c-0.013-2.31-0.023-4.304,1.639-6.557c1.858-2.52,3.193-4.934,4.08-7.38C118.05,59.159,118.634,54.694,118.29,49.776z
	 M69.515,60.489c1.684-0.87,3.572-1.6,5.944-2.298c3.352-0.986,6.794-1.723,9.72-2.313c0.519-0.104,1.039-0.203,1.56-0.302
	c1.569-0.297,3.191-0.605,4.765-1.078c1.774-0.535,3.381-1.201,4.847-1.995c0.046,0.026,0.093,0.052,0.155,0.064
	c1.387,0.265,2.478-0.085,3.658-0.821c1.495-0.932,3.02-2.945,4.926-2.579c-0.589,0.875-1.031,1.805-1.461,2.795
	c-0.997,2.29-2.572,3.231-5.028,3.432c-2.961,0.242-5.864-0.469-8.61,0.907c-2.576-2.256-10.85,4.057-12.984,4.552
	c-0.19,0.044-0.291,0.166-0.331,0.307c-0.231,0.059-0.454,0.125-0.679,0.189c-0.057-0.028-0.118-0.05-0.19-0.056
	c-1.534-0.139-3.042-0.449-4.582-0.533c-1.021-0.056-1.987,0.224-2.968,0.425C68.646,60.957,69.056,60.726,69.515,60.489z
	 M87.946,58.831c-1.213,0.367-2.301,0.94-3.311,1.698c-0.015,0.011-0.021,0.026-0.034,0.038c-1.011-0.091-2.067-0.126-3.165-0.081
	c-0.396,0.017-0.787,0.044-1.173,0.078c1.526-0.857,3.007-1.917,4.46-2.633c1.027-0.505,3.831-1.997,4.799-0.688
	C90.458,58.507,88.787,58.576,87.946,58.831z M71.047,75.021c-0.051,0.009-0.087,0.032-0.126,0.051
	c-0.477-0.254-0.959-0.503-1.413-0.782c-2.174-1.333-3.631-2.719-4.584-4.361c-0.439-0.757-0.729-1.516-0.861-2.256
	c-0.125-0.699-0.024-1.627-0.024-1.627s0,0,0,0c0.208-1.306,0.971-2.495,2.265-3.536c0.069-0.056,0.147-0.11,0.219-0.165
	c0.049,0.016,0.098,0.032,0.158,0.032c1.341,0,2.565-0.473,3.894-0.607c1.139-0.115,2.309,0.083,3.467,0.275
	c-2.657,1.139-4.43,2.794-4.744,4.65c-1.647,0.677-2.395,2.166-1.342,3.83c0.492,0.778,1.545,1.124,2.338,1.473
	C71.446,72.507,73.429,74.583,71.047,75.021z M70.243,67.395c-0.121-2.947,5.023-5.653,11.234-5.909
	c0.331-0.014,0.66-0.021,0.985-0.021c5.883,0,10.581,2.189,10.695,4.984c0.058,1.386-1.032,2.766-3.069,3.883
	c-2.146,1.178-5.045,1.897-8.163,2.026C75.596,72.62,70.364,70.344,70.243,67.395z M92.251,63.157
	c1.779-0.047,3.539,0.228,4.61,1.844c0.335,0.505,0.56,1.087,0.75,1.686c-0.13,0.387-0.272,0.769-0.452,1.139
	c-0.92,1.901-2.921,2.214-4.827,2.164c1.233-1.078,1.878-2.308,1.826-3.581C94.108,65.188,93.411,64.081,92.251,63.157z
	 M81.541,80.173c-0.124-0.173-0.251-0.345-0.375-0.519c-0.142-0.199-0.29-0.368-0.438-0.531c1.083-0.32,1.938-1.327,2.738-2.207
	c2.467-2.715,6.267-3.929,9.839-3.36c-0.696,2.902-3.499,4.87-6.244,5.693C85.049,79.853,83.23,78.933,81.541,80.173z
	 M99.622,80.874c-0.142,0.128-0.277,0.266-0.402,0.421c-0.035,0.044-0.053,0.092-0.072,0.138c-0.488,0.577-0.99,1.141-1.465,1.728
	c-1.016,1.258-1.937,2.546-2.656,3.997c-1.371,2.768-3.339,3.233-6.161,3.069c-0.903-1.205-1.792-2.411-2.661-3.603
	c-0.061-0.083-0.119-0.166-0.18-0.248c4.485-0.241,6.183-4.976,8.794-8.386c0.102-0.008,0.205-0.042,0.299-0.134
	c2.026-1.988,5.554-1.76,8.278-1.184C102.104,78.042,100.849,79.445,99.622,80.874z M104.449,66.067
	c0.599,0.087,1.083,0.271,1.463,0.525c-0.366,0.236-0.81,0.411-1.347,0.489c-0.637,0.092-0.365,1.056,0.266,0.964
	c0.73-0.106,1.314-0.367,1.791-0.715c0.775,1.242,0.35,3.105-0.853,4.454c-2.41,2.706-5.455-0.265-6.399-2.701
	c-0.282-0.729-0.475-1.515-0.697-2.289c0.25-0.791,0.441-1.605,0.677-2.338c0.827-2.57,3.538-5.565,6.265-3.354
	c1.574,1.277,1.994,3.457,1.018,4.815c-0.494-0.399-1.116-0.699-1.917-0.815C104.085,65.011,103.813,65.975,104.449,66.067z
	 M105.304,59.644c-0.4-0.169-0.829-0.293-1.302-0.322c-2.736-0.167-4.581,2.159-5.479,4.478c-0.171,0.442-0.309,0.894-0.441,1.347
	c-0.175-0.373-0.379-0.73-0.637-1.058c-1.527-1.937-3.945-2.057-6.237-1.879c-0.103,0.008-0.184,0.046-0.253,0.096
	c-1.31-0.71-2.955-1.246-4.832-1.551c1.326-0.757,2.762-1.178,4.273-1.562c0.218-0.055,0.363-0.262,0.367-0.482
	c0.012-0.647-0.07-1.162-0.223-1.575c3.391-1.651,7.39-0.038,10.918-1.318c0.604-0.219,1.087-0.554,1.498-0.959
	c1.664-1.32,4.09-0.302,6.275,0.043C107.505,56.08,106.333,57.673,105.304,59.644z M60.324,61.732
	c-0.913-0.735-1.987-1.412-3.38-2.131c-1.741-0.899-3.686-1.652-6.12-2.369c-3.39-0.998-6.858-1.74-9.806-2.334
	c-0.522-0.105-1.047-0.205-1.57-0.304c-1.544-0.293-3.141-0.595-4.663-1.053c-4.271-1.286-7.563-3.326-10.059-6.235
	c-2.805-3.267-4.203-6.417-4.277-9.627c-0.039-1.711,0.045-3.714,0.964-5.59c1.307-2.67,4.091-4.129,6.196-4.884
	c3.311-1.186,6.865-1.249,10.95-0.181c1.95,0.509,3.778,1.324,5.434,2.422c1.821,1.208,3.195,2.615,4.202,4.302
	c1.549,2.593,1.91,5.259,1.104,8.149c-0.714,2.563-3.372,4.495-6.184,4.495c-0.735,0-1.455-0.132-2.14-0.391
	c-1.771-0.67-3.135-1.9-4.523-4.09c0.564-0.052,1.063-0.195,1.532-0.432c1.138-0.575,1.595-1.681,1.166-2.817
	c-0.655-1.738-2.543-3.497-4.881-3.497c-1.024,0-1.995,0.342-2.885,1.017c-1.257,0.954-1.683,2.412-1.231,4.215
	c2.318,5.539,7.246,8.148,9.531,8.765c3.214,0.867,5.859,0.578,8.326-0.896c3.272-1.953,5.383-4.988,5.943-8.544
	c0.418-2.658-0.161-5.243-1.771-7.903c-1.247-2.061-2.944-3.775-5.045-5.095c-3.128-1.967-6.696-3.12-10.607-3.428
	c-3.234-0.257-6.619,0.084-10.447,1.051c-3.205,0.809-6.113,2.309-8.645,4.459c-3.274,2.783-5.76,6.422-7.597,11.124
	c-1.182,3.025-1.879,6.247-2.132,9.849c-0.344,4.918,0.24,9.383,1.785,13.649c0.887,2.446,2.222,4.86,4.08,7.38
	c1.662,2.253,1.651,4.247,1.639,6.557c-0.005,0.915-0.01,1.861,0.086,2.887c0.09,0.964,0.163,1.923,0.235,2.877
	c0.256,3.372,0.52,6.859,1.574,10.216c1.005,3.204,2.171,5.463,3.78,7.325c0.614,0.711,1.347,1.284,2.174,1.701
	c0.555,0.279,1.13,0.421,1.712,0.421c1.123,0,2.108-0.516,2.842-0.965c2.1-1.287,3.794-3.092,5.218-4.683
	c2.86-3.198,5.356-6.619,7.77-9.928c1.691-2.318,3.377-4.641,5.044-6.978c0.546-0.765,1.086-1.149,1.865-1.324
	c3.51-0.786,6.706-2.054,9.502-3.769c2.32-1.423,3.886-2.92,4.926-4.712c0.498-0.858,0.828-1.727,0.98-2.582
	c0.151-0.85,0.036-1.894,0.031-1.938C62.701,64.332,61.817,62.933,60.324,61.732z M25.837,51.748
	c1.181,0.735,2.271,1.086,3.658,0.821c0.063-0.012,0.109-0.038,0.155-0.064c1.466,0.794,3.072,1.46,4.847,1.995
	c1.573,0.473,3.195,0.78,4.765,1.078c0.521,0.099,1.041,0.197,1.56,0.302c2.926,0.59,6.368,1.327,9.72,2.313
	c2.372,0.698,4.261,1.429,5.944,2.298c0.459,0.236,0.869,0.467,1.26,0.697c-0.98-0.201-1.947-0.48-2.968-0.425
	c-1.54,0.084-3.048,0.394-4.582,0.533c-0.072,0.006-0.134,0.028-0.19,0.056c-0.225-0.065-0.447-0.131-0.679-0.189
	c-0.04-0.141-0.141-0.263-0.331-0.307c-2.135-0.495-10.408-6.808-12.984-4.552c-2.746-1.375-5.649-0.665-8.61-0.907
	c-2.456-0.201-4.031-1.142-5.028-3.432c-0.43-0.99-0.872-1.92-1.461-2.795C22.817,48.803,24.342,50.816,25.837,51.748z
	 M45.736,60.565c-0.386-0.034-0.776-0.062-1.173-0.078c-1.098-0.045-2.154-0.01-3.165,0.081c-0.013-0.012-0.02-0.027-0.034-0.038
	c-1.01-0.758-2.098-1.332-3.311-1.698c-0.841-0.255-2.512-0.324-1.576-1.588c0.968-1.308,3.771,0.183,4.799,0.688
	C42.729,58.648,44.21,59.708,45.736,60.565z M16.769,54.902c2.186-0.345,4.611-1.363,6.275-0.043
	c0.411,0.405,0.895,0.741,1.498,0.959c3.528,1.281,7.527-0.333,10.918,1.318c-0.152,0.413-0.234,0.927-0.223,1.575
	c0.004,0.22,0.149,0.427,0.367,0.482c1.512,0.384,2.947,0.805,4.273,1.562c-1.877,0.305-3.522,0.841-4.832,1.551
	c-0.069-0.049-0.15-0.088-0.253-0.096c-2.292-0.178-4.71-0.058-6.237,1.879c-0.258,0.328-0.462,0.685-0.637,1.058
	c-0.133-0.454-0.271-0.905-0.441-1.347c-0.898-2.319-2.743-4.645-5.479-4.478c-0.473,0.029-0.901,0.152-1.302,0.322
	C19.667,57.674,18.495,56.081,16.769,54.902z M33.749,63.158c-1.16,0.924-1.857,2.032-1.907,3.251
	c-0.052,1.273,0.593,2.503,1.826,3.581c-1.906,0.05-3.907-0.263-4.827-2.164c-0.18-0.371-0.322-0.752-0.452-1.139
	c0.19-0.599,0.415-1.181,0.75-1.686C30.21,63.385,31.97,63.11,33.749,63.158z M20.23,71.785c-1.202-1.349-1.628-3.212-0.853-4.454
	c0.477,0.349,1.061,0.609,1.791,0.715c0.631,0.092,0.902-0.872,0.266-0.964c-0.537-0.078-0.98-0.253-1.347-0.489
	c0.38-0.254,0.864-0.438,1.463-0.525c0.636-0.092,0.364-1.056-0.266-0.964c-0.801,0.117-1.423,0.416-1.917,0.815
	c-0.977-1.358-0.557-3.538,1.018-4.815c2.727-2.211,5.438,0.783,6.265,3.354c0.235,0.732,0.427,1.547,0.677,2.338
	c-0.223,0.774-0.415,1.56-0.697,2.289C25.686,71.521,22.641,74.491,20.23,71.785z M39.796,86.625
	c-0.869,1.192-1.758,2.398-2.661,3.603c-2.822,0.165-4.79-0.301-6.161-3.069c-0.72-1.451-1.641-2.739-2.656-3.997
	c-0.475-0.587-0.977-1.151-1.465-1.728c-0.02-0.046-0.037-0.094-0.072-0.138c-0.125-0.155-0.261-0.293-0.402-0.421
	c-1.227-1.428-2.482-2.832-3.773-4.201c2.725-0.577,6.252-0.805,8.278,1.184c0.094,0.092,0.197,0.126,0.299,0.134
	c2.611,3.41,4.309,8.145,8.794,8.386C39.915,86.459,39.856,86.542,39.796,86.625z M44.834,79.655
	c-0.124,0.174-0.251,0.346-0.375,0.519c-1.689-1.24-3.508-0.32-5.52-0.923c-2.745-0.824-5.548-2.791-6.244-5.693
	c3.572-0.568,7.372,0.646,9.839,3.36c0.8,0.88,1.655,1.887,2.738,2.207C45.124,79.287,44.976,79.456,44.834,79.655z M44.074,72.359
	c-3.118-0.128-6.018-0.848-8.163-2.026c-2.037-1.118-3.127-2.497-3.069-3.883c0.114-2.795,4.813-4.984,10.695-4.984
	c0.325,0,0.654,0.007,0.985,0.021c6.211,0.256,11.355,2.962,11.234,5.909C55.636,70.345,50.404,72.621,44.074,72.359z
	 M61.938,67.674c-0.132,0.74-0.422,1.499-0.861,2.256c-0.953,1.642-2.41,3.028-4.584,4.361c-0.454,0.279-0.937,0.528-1.413,0.782
	c-0.039-0.02-0.075-0.042-0.126-0.051c-2.382-0.438-0.399-2.514,0.755-3.022c0.793-0.349,1.846-0.694,2.338-1.473
	c1.053-1.664,0.306-3.153-1.342-3.83c-0.314-1.856-2.087-3.512-4.744-4.65c1.158-0.192,2.328-0.391,3.467-0.275
	c1.328,0.135,2.553,0.608,3.894,0.607c0.061,0,0.109-0.017,0.158-0.032c0.071,0.055,0.149,0.109,0.219,0.165
	c1.294,1.041,2.057,2.23,2.265,3.536c0,0,0,0,0,0S62.063,66.975,61.938,67.674z"/>
</svg>
