<?xml version="1.0" encoding="utf-8"?>
<!-- Generator: Adobe Illustrator 16.0.0, SVG Export Plug-In . SVG Version: 6.00 Build 0)  -->
<!DOCTYPE svg PUBLIC "-//W3C//DTD SVG 1.1//EN" "http://www.w3.org/Graphics/SVG/1.1/DTD/svg11.dtd">
<svg version="1.1" id="Layer_1" xmlns="http://www.w3.org/2000/svg" xmlns:xlink="http://www.w3.org/1999/xlink" x="0px" y="0px"
	 width="126px" height="126px" viewBox="0 0 126 126" enable-background="new 0 0 126 126" xml:space="preserve">
<path d="M118.758,68.613c-0.146-1.622-0.672-2.929-1.173-3.92c-0.528-0.991-1.093-1.662-1.509-2.07
	c-0.43-0.389-0.658-0.597-0.658-0.597L115.08,62.3c0,0,0.105,0.27,0.305,0.775c0.189,0.495,0.406,1.242,0.545,2.18
	c0.114,0.943,0.174,2.082-0.024,3.313c-0.218,1.206-0.642,2.556-1.485,3.448l-0.301,0.331c-0.098,0.113-0.234,0.171-0.344,0.263
	c-0.207,0.204-0.494,0.275-0.734,0.408c-0.117,0.076-0.287,0.061-0.418,0.113c-0.135,0.021-0.285,0.119-0.403,0.093
	c-0.122-0.001-0.239,0.008-0.356,0.027c-0.078,0.002-0.075,0.039-0.219,0.021l-0.375-0.025c-0.219-0.013-0.438-0.027-0.66-0.04
	l-0.018-0.006l-0.119-0.037l-0.24-0.068c-0.333-0.041-0.625-0.221-0.943-0.339c-0.598-0.353-1.239-0.745-1.82-1.407
	c-1.198-1.242-2.187-3.099-3.008-5.073c-0.786-2.014-1.601-4.121-2.306-6.362c-0.729-2.183-1.226-4.467-1.499-6.743
	c-0.318-2.276-0.334-4.548-0.445-6.815c-0.111-2.254-0.361-4.576-1.395-6.665c-0.499-1.038-1.167-2.01-1.988-2.798
	c-0.386-0.415-0.841-0.75-1.266-1.093c-0.463-0.289-0.898-0.609-1.37-0.823c-1.862-0.938-3.688-1.224-5.226-1.278
	c-1.549-0.058-2.848,0.131-3.9,0.333c-0.021,0.005-0.039,0.008-0.061,0.014c-4.932-2.271-10.104-3.716-15.703-3.529
	c-3.973,0.133-7.818,1.094-11.664,2.008c-2.125,0.505-4.25,1.019-6.362,1.573c-0.645,0.169-1.279,0.244-1.906,0.268
	c-0.627-0.024-1.261-0.098-1.905-0.268c-2.114-0.554-4.237-1.068-6.362-1.573c-3.846-0.915-7.692-1.875-11.665-2.008
	c-6.936-0.232-13.218,2.039-19.196,5.285c-2.721,1.477-3.43,2.788-2.872,5.194c0.664,2.862,1.548,5.693,2.816,8.332
	c1.125,2.344,2.359,4.651,3.734,6.889c2.228,3.625,4.636,6.897,8.841,8.407c2.552,0.917,5.156,1.427,7.857,1.264
	c1.505-0.091,2.868-0.536,4.211-1.202c1.296-0.643,2.649-1.435,3.897-2.366c1.192-0.889,2.458-1.716,3.492-2.769
	c0,0,4.278-4.164,7.15-4.804c2.874,0.64,7.151,4.804,7.151,4.804c1.033,1.053,2.301,1.88,3.492,2.769
	c1.199,0.895,2.563,1.555,3.897,2.216c1.343,0.667,2.706,1.261,4.211,1.352c2.701,0.163,5.305-0.348,7.857-1.264
	c4.205-1.51,6.614-4.782,8.841-8.407c0.976-1.587,1.877-3.211,2.723-4.857c-0.115,0.599-0.23,1.207-0.348,1.824
	c-0.495,2.472-0.957,5.162-1.545,7.951c-0.577,2.792-1.353,5.639-2.26,8.51c-0.426,1.447-0.91,2.895-1.23,4.444l-0.12,0.586
	c-0.021,0.121-0.038,0.146-0.063,0.346l-0.032,0.283l-0.131,1.132c-0.084,0.765-0.239,1.484-0.253,2.3
	c-0.036,0.796-0.103,1.605-0.108,2.411l0.098,2.417c0.135,0.807,0.256,1.62,0.416,2.432l0.373,1.202
	c0.136,0.399,0.233,0.807,0.438,1.191c0.363,0.78,0.714,1.565,1.255,2.276c0.456,0.753,1.103,1.39,1.728,2.036
	c1.352,1.209,3.014,2.078,4.75,2.508c3.511,0.795,6.961-0.13,9.537-1.86c1.315-0.847,2.406-1.979,3.274-3.208
	c0.872-1.241,1.393-2.7,1.636-4.128c0.047-0.735,0.118-1.447-0.02-2.137c-0.057-0.342-0.078-0.688-0.173-1.007
	c-0.105-0.314-0.21-0.625-0.313-0.932c-0.442-1.206-1.146-2.165-1.848-2.945c-1.431-1.548-2.937-2.451-4.184-3.061
	c-0.638-0.286-1.185-0.568-1.687-0.753c-0.507-0.164-0.938-0.304-1.288-0.417c-0.696-0.208-1.067-0.32-1.067-0.32l-0.181,0.396
	c0,0,0.306,0.231,0.878,0.664c0.285,0.208,0.637,0.464,1.051,0.765c0.385,0.325,0.826,0.699,1.322,1.118
	c0.51,0.392,0.956,0.939,1.488,1.46c0.279,0.252,0.477,0.583,0.716,0.892c0.228,0.314,0.51,0.609,0.673,0.975
	c0.842,1.376,1.244,3.029,0.814,4.599c-0.432,1.577-1.735,3.127-3.545,4.181c-1.797,1.063-4.045,1.609-6.152,1.295
	c-1.046-0.195-2.027-0.638-2.937-1.291c-0.412-0.387-0.877-0.729-1.224-1.233c-0.415-0.432-0.697-1.001-1.037-1.538
	c-1.227-2.229-1.984-5.114-2.303-7.965c-0.13-0.701-0.119-1.497-0.172-2.247l-0.039-1.138l-0.01-0.285
	c-0.006,0.013,0.008-0.15,0.01-0.217l0.031-0.537c0.148-1.438,0.468-2.901,0.888-4.316c0.806-2.853,2.008-5.546,3.198-8.161
	c1.195-2.612,2.35-5.185,3.063-7.788c0.73-2.593,1.077-5.189,1.058-7.652c-0.02-1.726-0.249-3.403-0.729-4.904
	c0.041-0.173,0.09-0.345,0.131-0.518c0.026-0.115,0.035-0.216,0.057-0.326c0.359,1.513,0.594,3.21,0.705,5.02
	c0.08,1.305,0.104,2.663,0.066,4.029c-0.039,1.359-0.172,2.719-0.333,4.175c-0.14,1.442-0.296,2.919-0.358,4.397
	c-0.078,1.477-0.06,2.963,0.08,4.416c0.136,1.451,0.443,2.881,0.949,4.192c0.493,1.314,1.291,2.484,2.219,3.334
	c0.919,0.869,1.975,1.367,2.9,1.636c0.925,0.297,1.756,0.332,2.416,0.355c0.666,0.001,1.178-0.051,1.524-0.104
	c0.345-0.05,0.528-0.076,0.528-0.076s-0.181-0.043-0.52-0.124c-0.338-0.058-0.824-0.208-1.424-0.38
	c-0.593-0.203-1.298-0.471-2.002-0.896c-0.706-0.42-1.395-1.006-1.949-1.761c-0.547-0.765-0.958-1.701-1.198-2.786
	c-0.247-1.081-0.36-2.283-0.362-3.563c-0.016-2.563,0.348-5.373,0.658-8.286c0.14-1.446,0.281-2.997,0.242-4.511
	c-0.021-1.507-0.156-2.976-0.38-4.39c-0.216-1.414-0.546-2.771-0.956-4.034c-0.299-0.905-0.661-1.756-1.071-2.54
	c0.862,0.708,1.604,1.618,2.294,2.738c0.896,1.436,1.773,3.249,2.48,5.277c0.716,2.027,1.188,4.253,1.412,6.535
	c0.257,2.283,0.324,4.633,0.465,7.034c0.066,1.167,0.16,2.376,0.294,3.576c0.159,1.197,0.385,2.392,0.706,3.57
	c0.336,1.179,0.717,2.346,1.244,3.489c0.496,1.147,1.15,2.262,1.977,3.299c0.779,1.062,1.912,1.96,3.137,2.633
	c0.654,0.28,1.293,0.588,1.986,0.7l0.511,0.103l0.254,0.048l0.063,0.012c-0.207-0.016,0.318,0.029,0.271,0.024h0.024l0.096,0
	c0.253,0.001,0.506,0.003,0.757,0.004h0.375c0.105,0.005,0.351-0.038,0.518-0.059c0.372-0.053,0.739-0.117,1.099-0.189
	c0.375-0.054,0.653-0.218,0.978-0.329c0.308-0.135,0.623-0.234,0.898-0.425c0.554-0.371,1.108-0.717,1.52-1.196
	c0.211-0.229,0.447-0.439,0.616-0.685c0.164-0.247,0.327-0.492,0.488-0.734C118.79,72.193,118.901,70.216,118.758,68.613z
	 M28.351,51.995c-5.398-1.835-8.198-7.958-8.198-7.958s5.952-3.146,11.35-1.31c5.398,1.835,8.197,7.959,8.197,7.959
	S33.748,53.831,28.351,51.995z M70.391,51.995c-5.398,1.836-11.352-1.31-11.352-1.31s2.801-6.124,8.199-7.959
	c5.396-1.836,11.35,1.31,11.35,1.31S75.789,50.16,70.391,51.995z"/>
</svg>
