<?xml version="1.0" encoding="utf-8"?>
<!-- Generator: Adobe Illustrator 16.0.0, SVG Export Plug-In . SVG Version: 6.00 Build 0)  -->
<!DOCTYPE svg PUBLIC "-//W3C//DTD SVG 1.1//EN" "http://www.w3.org/Graphics/SVG/1.1/DTD/svg11.dtd">
<svg version="1.1" id="Layer_1" xmlns="http://www.w3.org/2000/svg" xmlns:xlink="http://www.w3.org/1999/xlink" x="0px" y="0px"
	 width="126px" height="126px" viewBox="0 0 126 126" enable-background="new 0 0 126 126" xml:space="preserve">
<path fill-rule="evenodd" clip-rule="evenodd" d="M63.119,62.428c0.289,0.152,0.564,0.479,0.334,0.939
	c-0.143,0.279-0.266,0.566-0.33,0.875c-0.025,0.121-0.043,0.242-0.063,0.363c-0.012,0-0.021,0-0.031,0.002
	c-0.01-0.023-0.023-0.047-0.027-0.07c-0.041-0.402-0.172-0.775-0.357-1.131c-0.084-0.164-0.133-0.334-0.08-0.521
	c0.063-0.225,0.221-0.369,0.422-0.467C63.021,62.4,63.082,62.408,63.119,62.428z M118.635,51.092
	c-0.52,1.248-2.121,2.158-3.49,1.982c-1.006-0.131-1.592-0.773-1.74-1.727c0.889,0.035,1.857,0.268,2.719,0.059
	c1.045-0.25,1.396-1.471,0.898-2.361c-0.469-0.842-1.365-1.051-2.307-0.387c-0.695,0.49-1.299,1.113-1.918,1.705
	c0.467,8.932-0.361,17.459-3.93,25.59c-2.164,4.934-5.227,9.199-9.686,12.293c-7.213,5.002-15.074,6.219-23.406,3.389
	c-1.33-0.453-2.561-1.232-3.766-2.045c0.469,0.691,0.693,1.537,0.57,2.414c-0.049,0.34-0.18,0.721-0.398,0.967
	c-0.176,0.197-0.561,0.322-0.822,0.283c-0.203-0.031-0.5-0.367-0.502-0.57c-0.002-0.266,0.205-0.566,0.396-0.785
	c0.121-0.139,0.383-0.156,0.629-0.244c-0.201-1.885-1.271-2.938-2.896-2.957c-1.77-0.02-3.295,1.357-3.498,3.162
	c-0.217,1.883,0.824,3.551,2.688,4.318c0.379,0.156,0.76,0.305,1.369,0.549c-3.262,2.516-5.494,5.498-6.488,9.648
	c-1.002-4.133-3.232-7.127-6.49-9.645c0.729-0.303,1.223-0.471,1.686-0.703c1.545-0.773,2.42-2.014,2.381-3.77
	c-0.035-1.531-0.773-2.668-2.193-3.293c-1.639-0.721-3.564,0.07-4.074,1.666c-0.162,0.5-0.365,1.043,0.455,1.271
	c0.213,0.057,0.469,0.49,0.449,0.729c-0.023,0.24-0.336,0.59-0.574,0.643c-0.242,0.053-0.744-0.145-0.797-0.328
	c-0.193-0.664-0.441-1.406-0.318-2.051c0.066-0.346,0.18-0.662,0.326-0.951c-1.037,0.68-2.1,1.305-3.236,1.691
	c-8.33,2.83-16.191,1.613-23.406-3.389c-4.459-3.094-7.521-7.359-9.686-12.293c-3.516-8.014-4.373-16.412-3.949-25.201
	c-0.09-0.08-0.182-0.156-0.27-0.238c-0.676-0.635-1.32-1.324-2.074-1.855c-0.941-0.664-1.838-0.455-2.307,0.387
	c-0.498,0.891-0.146,2.111,0.898,2.361c0.861,0.209,1.83-0.023,2.719-0.059c-0.148,0.953-0.734,1.596-1.74,1.727
	c-1.369,0.176-2.971-0.734-3.49-1.982c-0.609-1.465-0.113-2.684,1.607-4.006c-0.926-1.594-1.848-3.184-2.793-4.807
	c2.373-0.348,4.291,0.453,5.621,2.674c0.711-0.854,1.473-1.449,2.527-0.859c0.715,0.4,0.854,1.064,0.713,1.615
	c-0.676,0-1.416-0.217-1.727,0.055c-0.404,0.357-0.527,1.088-0.652,1.684c-0.057,0.273,0.113,0.639,0.275,0.904
	c0.76,1.26,1.857,2.09,3.318,2.334c1.801,0.303,3.363-0.939,3.521-2.766c0.129-1.498-0.557-2.627-1.723-3.488
	c-0.391-0.291-0.832-0.514-1.314-0.803c2.611-0.18,4.799,1.484,5.008,3.73c0.061,0.666-0.01,1.295-0.184,1.877
	c1.424-0.578,2.84-1.17,4.248-1.781c2.627-1.137,5.291-2.055,8.014-2.691c-1.385-0.023-2.732-0.299-3.979-1.076
	c-0.602-0.375-1.127-0.918-1.582-1.473c-0.453-0.551-0.426-1.297-0.092-1.75c0.336-0.455,1.084-0.633,1.768-0.408
	c0.16,0.053,0.311,0.131,0.371,0.158c-0.373,0.416-1.066,0.889-0.998,1.178c0.139,0.576,0.602,1.182,1.098,1.547
	c1.25,0.92,2.76,1.148,4.248,0.936c1.629-0.23,3.227-0.691,4.834-1.059c0.09-0.02,0.168-0.094,0.346-0.197
	c-0.539-0.107-0.98-0.158-1.4-0.285c-0.725-0.221-1.352-0.594-1.545-1.402c-0.191-0.793,0.166-1.438,0.781-1.844
	c1.432-0.947,2.93-1.793,4.377-2.717c1.355-0.865,2.713-1.734,4.006-2.688c0.732-0.541,1.223-1.322,1.422-2.248
	c0.16-0.736-0.055-1.215-0.621-1.326c-0.682-0.137-1.258,0.307-1.348,1.037c-0.014,0.105-0.02,0.213-0.035,0.387
	c-0.561-0.301-0.674-0.801-0.691-1.301c-0.02-0.586,0.201-1.094,0.727-1.424c1.199-0.754,2.813,0.102,2.975,1.563
	c0.109,0.975-0.211,1.82-0.73,2.611c-1,1.521-2.398,2.631-3.836,3.699c-1.086,0.807-2.195,1.588-3.289,2.387
	c-0.242,0.178-0.512,0.348-0.686,0.582c-0.238,0.324-0.4,0.707-0.596,1.064c0.4,0.207,0.785,0.543,1.203,0.586
	c0.582,0.064,1.242,0.043,1.775-0.172c1.887-0.764,3.736-1.625,5.5-2.406c-0.273-0.457-0.604-0.826-0.709-1.252
	c-0.07-0.277,0.184-0.635,0.293-0.957c0.061,0.014,0.123,0.025,0.184,0.039c0.027,0.068,0.07,0.135,0.082,0.207
	c0.16,1.043,0.709,1.434,1.713,1.16c0.932-0.256,1.848-0.572,2.775-0.836c1.459-0.414,3.055-0.785,5.414-0.133
	c-0.471-0.613-0.855-1.135-1.264-1.637c-1.494-1.84-2.969-3.693-3.91-5.893c-0.232-0.545-0.395-1.146-0.441-1.732
	c-0.082-1.027,0.869-1.693,1.813-1.266c0.494,0.227,0.916,0.625,1.332,0.988c0.256,0.223,0.453,0.518,0.656,0.795
	c0.279,0.379,0.539,0.771,0.809,1.16c-0.037,0.039-0.074,0.076-0.113,0.115c-0.336-0.32-0.666-0.648-1.012-0.957
	c-0.305-0.271-0.609-0.543-0.947-0.77c-0.105-0.07-0.361-0.047-0.461,0.037c-0.094,0.08-0.143,0.318-0.098,0.447
	c0.557,1.541,1.361,2.922,2.656,3.969c0.148,0.119,0.33,0.201,0.504,0.285c0.625,0.297,1.207,0.209,1.75-0.215
	c0.514-0.4,0.568-0.939,0.457-1.516c-0.459-2.355-3.262-5.113-5.625-5.521c-1.064-0.184-1.998,0.133-2.803,0.844
	c-0.158,0.141-0.309,0.289-0.496,0.463c0.41-2.105,2.539-3.174,4.662-2.369c1.896,0.721,3.313,2.043,4.479,3.662
	c0.119,0.168,0.238,0.336,0.398,0.561c0.008-2.889-3.502-6.053-6.09-5.574c0.469-0.82,2.186-0.945,3.188-0.32
	c0.969,0.602,1.842,1.355,2.715,2.01c0.15-0.744,0.271-1.635,0.523-2.484c0.303-1.033,0.855-1.941,1.922-2.354
	c0.264-0.102,0.67-0.057,0.92,0.082c1.301,0.723,1.771,1.982,2.021,3.352c0.092,0.506,0.127,1.021,0.199,1.625
	c1.672-1.697,3.301-3.48,5.957-2.006c-1.652-0.24-2.934,0.502-4.037,1.615c-1.086,1.098-1.861,2.381-2.117,3.879
	c0.883-0.912,1.693-1.928,2.686-2.715c0.805-0.637,1.779-1.164,2.764-1.443c1.971-0.561,3.506,0.406,4.189,2.492
	c-0.164-0.137-0.275-0.219-0.375-0.313c-1.063-1.021-2.309-1.35-3.684-0.814c-2.402,0.936-4.021,2.668-4.852,5.105
	c-0.287,0.842-0.105,1.371,0.457,1.789c0.613,0.453,1.268,0.488,1.979,0.002c1.467-1.004,2.273-2.492,2.871-4.109
	c0.143-0.387-0.152-0.652-0.529-0.482c-0.266,0.119-0.496,0.33-0.717,0.531c-0.422,0.385-0.826,0.789-1.299,1.131
	c0.615-1.104,1.289-2.156,2.381-2.852c0.535-0.34,1.096-0.33,1.643,0.01c0.527,0.326,0.652,0.871,0.48,1.357
	c-0.404,1.145-0.779,2.342-1.424,3.352c-1.074,1.68-2.35,3.23-3.541,4.834c-0.186,0.252-0.365,0.504-0.648,0.895
	c2.518-0.854,4.736-0.166,6.953,0.564c0.285,0.094,0.572,0.189,0.861,0.268c1.434,0.395,1.857,0.145,2.184-1.279
	c0.818,0.635,0.717,1.328-0.369,2.059c0.477,0.225,0.908,0.436,1.346,0.635c1.369,0.619,2.713,1.313,4.123,1.818
	c0.695,0.25,1.518,0.213,2.277,0.184c0.297-0.012,0.717-0.299,0.826-0.566c0.082-0.205-0.154-0.67-0.381-0.854
	c-1.121-0.902-2.281-1.758-3.439-2.613c-1.541-1.139-3.09-2.27-4.26-3.816c-0.65-0.859-1.125-1.785-1.027-2.91
	c0.119-1.393,1.402-2.285,2.65-1.842c0.604,0.217,0.961,0.652,1.031,1.285c0.068,0.613-0.039,1.182-0.441,1.482
	c-0.33-0.43-0.57-0.904-0.955-1.182c-0.219-0.156-0.77-0.109-0.994,0.068c-0.223,0.18-0.383,0.688-0.293,0.959
	c0.215,0.658,0.5,1.34,0.926,1.877c1.094,1.375,2.639,2.18,4.135,3.033c1.307,0.748,2.615,1.49,3.912,2.252
	c0.313,0.184,0.594,0.428,0.865,0.67c0.555,0.492,0.969,1.059,0.764,1.857c-0.205,0.805-0.828,1.178-1.555,1.396
	c-0.406,0.121-0.836,0.164-1.305,0.373c0.543,0.182,1.078,0.395,1.631,0.541c2.006,0.535,4.023,0.953,6.105,0.42
	c1.027-0.264,1.943-0.732,2.51-1.654c0.471-0.762,0.371-0.959-0.418-1.418c-0.143-0.082-0.279-0.176-0.42-0.264
	c0.707-0.518,1.504-0.523,2.043-0.018c0.451,0.424,0.51,1.227,0.041,1.9c-0.314,0.449-0.701,0.889-1.148,1.199
	c-1.041,0.725-2.184,1.113-3.396,1.262c2.836,0.639,5.611,1.59,8.344,2.771c1.246,0.539,2.496,1.072,3.752,1.586
	c-0.133-0.525-0.188-1.09-0.131-1.682c0.207-2.246,2.395-3.91,5.006-3.73c-0.48,0.289-0.922,0.512-1.313,0.803
	c-1.168,0.861-1.854,1.99-1.725,3.488c0.096,1.109,0.715,1.996,1.586,2.461c0.428,0.154,0.857,0.275,1.283,0.348
	c0.213,0.008,0.432-0.006,0.652-0.043c1.461-0.244,2.559-1.074,3.32-2.334c0.16-0.266,0.332-0.631,0.273-0.904
	c-0.125-0.596-0.246-1.326-0.652-1.684c-0.311-0.271-1.051-0.055-1.727-0.055c-0.141-0.551-0.002-1.215,0.713-1.615
	c1.055-0.59,1.816,0.006,2.527,0.859c1.33-2.221,3.248-3.021,5.621-2.674c-0.943,1.623-1.867,3.213-2.793,4.807
	C118.748,48.408,119.244,49.627,118.635,51.092z M39.557,43.893c1.439-0.094,2.895-0.102,4.375,0.004
	c2.139,0.156,4.254,0.432,6.342,0.824c-0.377,0.383-0.656,0.855-0.828,1.414c-0.201,0.656-0.271,1.334-0.363,2.01
	c-0.061,0.449-0.119,0.898-0.225,1.338c-0.211,0.898-0.729,1.568-1.582,1.951c-0.412,0.186-0.848,0.277-1.299,0.279
	c-0.049,0-0.1,0.008-0.146,0.012c0.293,0.176,0.582,0.34,0.906,0.422c0.115,0.029,0.234,0.055,0.355,0.068
	c0.594,0.063,1.166-0.057,1.719-0.262c0.385-0.143,0.689-0.395,0.928-0.727c0.184-0.252,0.313-0.531,0.404-0.828
	c0.018-0.061,0.041-0.121,0.07-0.203c0.037,0.049,0.063,0.074,0.078,0.104c0.23,0.453,0.596,0.748,1.066,0.93
	c0.406,0.156,0.611,0.471,0.668,0.893c0.01,0.082,0.012,0.164,0.021,0.285c0.217-0.262,0.387-0.508,0.445-0.813
	c0.055-0.289-0.041-0.521-0.275-0.699c-0.047-0.035-0.09-0.072-0.123-0.096c0.061-0.15,0.119-0.275,0.16-0.408
	s0.01-0.264-0.072-0.377c-0.139-0.191-0.451-0.295-0.664-0.225c-0.219,0.074-0.379,0.316-0.373,0.568
	c0,0.051,0.004,0.104,0.006,0.16c-0.355-0.066-0.83-0.697-0.775-1.031c0.254,0.1,0.51,0.195,0.787,0.182s0.514-0.125,0.703-0.328
	c0.188-0.203,0.305-0.439,0.393-0.732c-0.074,0.027-0.111,0.041-0.146,0.057c-0.301,0.125-0.584,0.107-0.83-0.115
	c-0.246-0.225-0.34-0.506-0.246-0.836c0.025-0.082,0.045-0.164,0.064-0.246c0.08-0.354,0.166-0.705,0.16-1.072
	c-0.01-0.48-0.414-0.727-0.846-0.516c-0.043,0.021-0.082,0.051-0.125,0.072c-0.029,0.014-0.063,0.02-0.123,0.041
	c0.09-0.201,0.191-0.355,0.307-0.502c0.199-0.256,0.426-0.457,0.684-0.604c0.373,0.076,0.744,0.166,1.115,0.25
	c-0.031,0.211-0.047,0.418-0.045,0.627c0.004,0.553,0.117,1.09,0.246,1.625c0.156,0.65,0.334,1.299,0.463,1.955
	c0.215,1.092,0.119,2.162-0.297,3.199c-0.02,0.049-0.035,0.1-0.051,0.148c0.77-0.539,1.342-1.225,1.658-2.148
	c0.525,0.703,1.24,1.047,2.053,1.271c0.096-0.17,0.186-0.332,0.285-0.51c-0.068-0.041-0.111-0.064-0.152-0.088
	c-0.594-0.346-1.055-0.82-1.383-1.424c-0.143-0.264-0.244-0.539-0.252-0.842c-0.008-0.352-0.01-0.701-0.023-1.051
	c-0.006-0.236-0.016-0.471-0.041-0.705c-0.023-0.229-0.088-0.449-0.229-0.641c-0.381-0.521-1.049-0.52-1.418,0
	c-0.018,0.029-0.043,0.055-0.088,0.107c-0.053-0.141-0.107-0.252-0.141-0.371c-0.098-0.34-0.096-0.688-0.061-1.035
	c0.791,0.189,1.576,0.402,2.357,0.631c0.031,0.049,0.07,0.09,0.1,0.141c0.053,0.094,0.092,0.195,0.137,0.289
	c-0.143,0.156-0.264,0.305-0.309,0.5c-0.1,0.42,0.221,0.865,0.65,0.896c0.344,0.023,0.607-0.191,0.67-0.551
	c0.021-0.123,0.029-0.248,0.045-0.393c0.119,0.09,0.219,0.174,0.328,0.242c0.111,0.07,0.229,0.125,0.357,0.193
	c0.053-0.195,0.092-0.365,0.146-0.527c0.016-0.041,0.018-0.074,0.016-0.107c0.029,0.01,0.061,0.02,0.09,0.029
	c-0.201,0.586-0.279,1.197-0.285,1.824c0,0.041,0.012,0.082,0.018,0.123c0.176,0,0.342,0,0.518,0
	c0.014-0.055,0.029-0.105,0.043-0.158c0.146-0.521,0.348-1.02,0.639-1.473c0.264,0.094,0.525,0.178,0.789,0.258
	c-0.273-0.029-0.541-0.061-0.82-0.09c-0.059,0.113-0.123,0.238-0.191,0.375c0.422,0.076,0.816,0.092,1.223,0.076
	c0.006-0.111,0.012-0.201,0.016-0.287c0.039,0.012,0.078,0.025,0.117,0.035c-0.041,0.156-0.031,0.309,0.074,0.447
	c0.162,0.211,0.379,0.334,0.645,0.357c0.23,0.021,0.381-0.068,0.479-0.277c0.021-0.047,0.041-0.096,0.072-0.162
	c0.035,0.049,0.064,0.076,0.084,0.111c0.145,0.27,0.234,0.557,0.238,0.863c0.01,0.838-0.33,1.531-0.904,2.121
	c-0.053,0.055-0.123,0.096-0.188,0.141c-0.127,0.086-0.256,0.17-0.391,0.26c0.055,0.068,0.104,0.121,0.148,0.178
	c0.029,0.037,0.057,0.078,0.094,0.129c0.287-0.18,0.52-0.363,0.713-0.588c0.662-0.77,1.045-1.631,0.855-2.674
	c-0.033-0.178-0.08-0.348-0.141-0.51c0.285,0.049,0.568,0.1,0.852,0.133c-0.244,0.613-0.328,1.266-0.178,1.963
	c0.271,1.271,1.096,2.123,2.27,2.609c0.932,0.387,1.758,0.09,2.479-0.568c0.006-0.006,0.008-0.02,0.016-0.045
	c-0.135-0.07-0.271-0.141-0.416-0.217c-0.064,0.055-0.115,0.096-0.168,0.137c-0.422,0.318-0.893,0.443-1.416,0.35
	c-0.889-0.158-1.859-0.924-2.205-1.793c-0.336-0.842-0.318-1.645,0.012-2.402c0.25,0.023,0.5,0.055,0.75,0.064
	c0.135-0.006,0.27-0.025,0.404-0.035c0.002,0.004,0.004,0.006,0.006,0.01c0.443,1.119,0.326,2.164-0.475,3.098
	c-0.02,0.021-0.035,0.045-0.064,0.08c0.098,0.09,0.189,0.172,0.273,0.248c0.025-0.014,0.031-0.014,0.035-0.02
	c0.816-0.926,1.107-1.975,0.736-3.174c-0.029-0.096-0.07-0.184-0.107-0.277c0.246-0.023,0.49-0.051,0.736-0.084
	c-0.145,0.381-0.199,0.781-0.148,1.189c0.129,1.057,0.662,1.896,1.563,2.473c0.834,0.535,1.752,0.723,2.736,0.561
	c0.104-0.018,0.207-0.039,0.324-0.061c-0.084-0.154-0.158-0.291-0.238-0.434c-0.051,0.014-0.098,0.023-0.145,0.035
	c-0.391,0.1-0.785,0.117-1.184,0.055c-0.561-0.092-1.057-0.328-1.523-0.637c-0.166-0.111-0.322-0.234-0.451-0.391
	c-0.285-0.35-0.5-0.738-0.621-1.174c-0.15-0.537-0.137-1.063,0.123-1.568c0.021-0.039,0.051-0.084,0.082-0.137
	c0.012-0.002,0.023-0.004,0.033-0.006c0.027,0.066,0.051,0.119,0.072,0.166c0.088,0.182,0.23,0.275,0.434,0.264
	c0.273-0.016,0.5-0.133,0.67-0.348c0.09-0.117,0.125-0.24,0.115-0.365c0.031-0.008,0.061-0.014,0.092-0.021
	c0.004,0.057,0.008,0.113,0.012,0.172c0.029,0.004,0.053,0.01,0.076,0.01c0.479,0.012,0.953-0.023,1.422-0.127
	c0.488-0.107,0.951-0.27,1.328-0.617c0.01-0.01,0.033-0.002,0.064-0.002c0,0.088-0.006,0.172,0.002,0.256
	c0.012,0.088,0.031,0.178,0.063,0.262c0.113,0.307,0.412,0.461,0.729,0.385c0.475-0.117,0.709-0.641,0.471-1.072
	c-0.059-0.111-0.145-0.207-0.221-0.316c0.033-0.094,0.082-0.178,0.129-0.264c0.816-0.25,1.637-0.48,2.465-0.686
	c0.033,0.375,0.012,0.746-0.127,1.104c-0.023,0.063-0.035,0.139-0.115,0.174c-0.043-0.061-0.08-0.115-0.121-0.166
	c-0.217-0.277-0.521-0.369-0.855-0.262c-0.318,0.105-0.551,0.311-0.643,0.635c-0.061,0.227-0.102,0.461-0.113,0.693
	c-0.025,0.447-0.025,0.895-0.029,1.34c-0.004,0.33-0.1,0.631-0.256,0.914c-0.324,0.6-0.781,1.07-1.367,1.416
	c-0.051,0.031-0.102,0.061-0.168,0.104c0.1,0.174,0.191,0.338,0.285,0.502c0.33-0.082,0.621-0.191,0.904-0.328
	c0.443-0.217,0.83-0.508,1.145-0.947c0.322,0.938,0.895,1.619,1.646,2.162c0.008-0.029,0.004-0.053-0.004-0.074
	c-0.477-1.141-0.553-2.316-0.287-3.514c0.129-0.59,0.285-1.174,0.43-1.758c0.15-0.619,0.268-1.24,0.234-1.881
	c-0.006-0.08-0.018-0.162-0.027-0.244c0.398-0.094,0.799-0.182,1.199-0.268c0.365,0.232,0.646,0.561,0.861,0.967
	c0.006,0.014,0,0.033,0,0.068c-0.102-0.051-0.188-0.102-0.279-0.141c-0.307-0.129-0.549-0.047-0.703,0.244
	c-0.043,0.082-0.07,0.18-0.076,0.273c-0.006,0.143,0,0.291,0.025,0.432c0.061,0.32,0.133,0.639,0.205,0.955
	c0.074,0.322-0.031,0.586-0.268,0.797c-0.229,0.205-0.496,0.229-0.779,0.125c-0.055-0.018-0.107-0.043-0.168-0.068
	c0.049,0.281,0.217,0.586,0.434,0.785c0.23,0.215,0.508,0.307,0.814,0.262c0.178-0.027,0.352-0.092,0.523-0.139
	c0.037-0.01,0.076-0.016,0.119-0.025c-0.078,0.479-0.477,0.98-0.807,1.018c0.004-0.053,0.012-0.105,0.012-0.156
	c0.01-0.309-0.232-0.584-0.52-0.592c-0.447-0.016-0.717,0.373-0.543,0.787c0.035,0.082,0.078,0.158,0.121,0.242
	c-0.059,0.045-0.111,0.084-0.162,0.125c-0.168,0.137-0.271,0.314-0.262,0.533c0.018,0.365,0.209,0.652,0.449,0.938
	c0.012-0.041,0.02-0.059,0.02-0.074c0.012-0.543,0.242-0.932,0.77-1.127c0.424-0.158,0.738-0.447,0.955-0.848
	c0.023-0.043,0.055-0.084,0.102-0.152c0.049,0.145,0.084,0.258,0.125,0.371c0.291,0.791,0.822,1.322,1.658,1.518
	c0.064,0.016,0.129,0.035,0.193,0.049c0.451,0.1,0.904,0.152,1.363,0.057c0.342-0.07,0.646-0.23,0.953-0.385
	c0.035-0.016,0.064-0.039,0.098-0.061c-0.086-0.025-0.162-0.023-0.238-0.025c-1.088-0.035-2.408-0.598-2.811-2.258
	c-0.145-0.6-0.195-1.215-0.275-1.824c-0.07-0.533-0.154-1.063-0.324-1.576c-0.158-0.48-0.395-0.908-0.725-1.268
	c2.199-0.43,4.428-0.725,6.684-0.889c0.932-0.066,1.852-0.08,2.768-0.066c-1.029-0.307-2.041-0.672-3.041-1.08
	c-3.143-1.285-6.223-2.721-9.357-4.023c-1.104-0.457-2.275-0.795-3.447-1.035c-1.373-0.279-2.645-0.129-3.385,1.688
	c-0.33,0.813-0.793,1.578-0.715,2.51c0.061,0.727,0.453,1,1.135,0.727c0.701-0.281,0.998-0.908,1.273-1.545
	c0.07-0.164,0.113-0.34,0.213-0.637c0.441,1.135,0.346,2.061-0.348,2.891c-0.617,0.74-1.883,1.096-2.766,0.797
	c-0.68-0.229-1.109-0.682-1.307-1.389c-0.467-1.656-0.119-3.211,0.611-4.688c0.492-0.996,1.123-1.922,1.709-2.91
	c-0.32-0.371-0.809-0.734-1.021-1.221c-0.615-1.4-1.232-2.82-1.617-4.293c-0.184-0.703,0.064-1.57,0.277-2.318
	c0.477-1.658,0.223-3.234-0.371-4.785c-0.084-0.219-0.398-0.492-0.598-0.484c-0.203,0.006-0.492,0.291-0.576,0.516
	c-0.582,1.58-0.883,3.191-0.295,4.842c0.414,1.162,0.457,2.344-0.021,3.467c-0.646,1.521-0.967,3.242-2.387,4.189
	c0.691,1.264,1.416,2.408,1.961,3.635c0.557,1.248,0.793,2.592,0.395,3.963c-0.252,0.857-0.779,1.447-1.701,1.545
	c-1.078,0.111-2.004-0.211-2.631-1.15c-0.51-0.768-0.516-1.58-0.158-2.57c0.186,0.449,0.26,0.793,0.451,1.053
	c0.301,0.404,0.625,0.838,1.039,1.102c0.59,0.377,1.146,0.041,1.145-0.664c-0.006-1.41-0.566-2.658-1.432-3.719
	c-0.551-0.676-1.467-0.775-2.277-0.6c-1.295,0.283-2.607,0.592-3.828,1.092c-2.885,1.178-5.707,2.506-8.578,3.719
	C42.301,43.016,40.943,43.502,39.557,43.893z M73.248,59.547c-0.004,0.322-0.043,0.645-0.068,0.984
	c0.158,0.01,0.316,0.02,0.494,0.031c0.033-0.164,0.068-0.309,0.09-0.457c0.088-0.574,0.033-1.146-0.092-1.707
	c-0.135-0.596-0.291-1.184-0.436-1.775c-0.146-0.6-0.258-1.203-0.25-1.824c0.006-0.619,0.115-1.211,0.436-1.752
	c0.004-0.006-0.002-0.02-0.008-0.051c-0.84,0.281-1.396,0.824-1.627,1.705c-0.043-0.039-0.066-0.057-0.084-0.078
	c-0.297-0.396-0.691-0.67-1.133-0.877c-0.463-0.219-0.951-0.35-1.451-0.436c-0.59-0.102-1.176-0.137-1.76,0.027
	c-0.17,0.051-0.34,0.104-0.531,0.162c0.1,0.119,0.178,0.215,0.258,0.313c0.027,0.004,0.033,0.006,0.039,0.006
	c0.074-0.021,0.15-0.043,0.227-0.064c0.467-0.127,0.941-0.152,1.414-0.033c1.064,0.266,1.805,0.932,2.289,1.9
	c0.115,0.229,0.176,0.473,0.18,0.732c0.004,0.324,0.008,0.652,0.02,0.977c0.01,0.26,0.02,0.52,0.049,0.775
	c0.021,0.213,0.09,0.414,0.215,0.59c0.379,0.531,1.057,0.531,1.428,0.002c0.02-0.027,0.045-0.049,0.078-0.084
	C73.199,58.912,73.254,59.227,73.248,59.547z M66.754,60.666c0.053-0.021,0.09-0.041,0.127-0.055
	c0.734-0.256,1.26-0.746,1.604-1.436c0.377-0.76,0.502-1.57,0.49-2.408c0-0.021-0.014-0.041-0.02-0.057c-0.176,0-0.344,0-0.51,0
	c-0.029,0.102-0.053,0.195-0.08,0.289c-0.193,0.641-0.461,1.244-0.902,1.758c-0.313,0.363-0.695,0.613-1.162,0.73
	c-0.449,0.111-0.902,0.172-1.363,0.102c-0.557-0.084-1.018-0.357-1.428-0.734c-0.051-0.047-0.104-0.096-0.16-0.146
	c-0.088,0.096-0.164,0.18-0.252,0.277c0.043,0.049,0.074,0.086,0.107,0.121c0.389,0.436,0.793,0.861,1.164,1.314
	c0.316,0.387,0.627,0.785,0.887,1.211c0.486,0.801,0.596,1.66,0.271,2.557c-0.186,0.514-0.5,0.947-0.869,1.344
	c-0.234,0.252-0.471,0.504-0.688,0.77c-0.33,0.404-0.594,0.852-0.766,1.348c-0.086,0.246-0.156,0.494-0.113,0.762
	c0.014,0.07-0.006,0.143-0.008,0.217c-0.002,0.066-0.006,0.133,0.004,0.197c0.059,0.361,0.16,0.707,0.361,1.016
	c0.084,0.129,0.129,0.275,0.123,0.43c-0.02,0.439-0.236,0.783-0.533,1.117c-0.227-0.246-0.393-0.506-0.484-0.813
	c-0.082-0.275-0.055-0.531,0.1-0.781c0.086-0.137,0.148-0.289,0.207-0.441c0.113-0.297,0.129-0.605,0.137-0.922
	c0.008-0.352-0.072-0.67-0.201-0.984c-0.043-0.105-0.092-0.209-0.145-0.311c-0.289-0.559-0.676-1.043-1.115-1.488
	c-0.316-0.318-0.598-0.662-0.809-1.063c-0.322-0.615-0.434-1.264-0.299-1.947c0.096-0.488,0.307-0.926,0.594-1.328
	c0.59-0.838,1.27-1.598,1.98-2.332c0.338-0.352,0.629-0.732,0.855-1.164c0.262-0.498,0.426-1.025,0.438-1.592
	c0.016-0.734-0.227-1.387-0.66-1.971c-0.078-0.107-0.164-0.207-0.256-0.32c-0.104,0.098-0.195,0.182-0.285,0.268
	c0.033,0.041,0.051,0.064,0.07,0.088c0.711,0.824,0.887,1.764,0.57,2.793c-0.281,0.918-0.867,1.619-1.658,2.152
	c-0.143,0.096-0.307,0.168-0.469,0.232c-0.5,0.197-1.016,0.193-1.533,0.084c-0.25-0.053-0.504-0.125-0.738-0.229
	c-0.387-0.168-0.67-0.469-0.912-0.807c-0.359-0.502-0.588-1.066-0.752-1.656c-0.014-0.053-0.031-0.102-0.045-0.145
	c-0.18,0-0.346,0-0.518,0C57.107,56.76,57.1,56.795,57.1,56.83c0.006,0.719,0.1,1.42,0.377,2.088c0.344,0.822,0.9,1.422,1.764,1.707
	c0.025,0.008,0.047,0.029,0.078,0.051c-0.033,0.059-0.063,0.111-0.092,0.164c-0.275,0.482-0.457,0.998-0.498,1.555
	c-0.061,0.813,0.197,1.521,0.707,2.148c0.225,0.277,0.486,0.52,0.768,0.74c0.596,0.467,1.162,0.963,1.658,1.537
	c0.279,0.32,0.525,0.662,0.721,1.039c0.191,0.365,0.199,0.742,0.088,1.125c-0.031,0.111-0.09,0.225-0.164,0.318
	c-0.199,0.258-0.621,0.344-0.879,0.189c0.031-0.029,0.063-0.057,0.094-0.084c0.123-0.109,0.17-0.244,0.156-0.406
	c-0.025-0.299-0.229-0.52-0.527-0.553c-0.113-0.014-0.23-0.014-0.344,0.006c-0.381,0.064-0.598,0.338-0.59,0.725
	c0.008,0.348,0.166,0.609,0.455,0.797c0.199,0.133,0.42,0.207,0.654,0.25c0.1,0.018,0.199,0.033,0.299,0.051
	c-0.021,0.146-0.047,0.283-0.055,0.42c-0.02,0.365,0.086,0.703,0.236,1.031c0.244,0.531,0.59,0.994,0.984,1.424
	c0.016,0.016,0.039,0.025,0.064,0.043c0.1-0.115,0.197-0.221,0.289-0.332c0.342-0.42,0.639-0.863,0.83-1.375
	c0.105-0.287,0.16-0.58,0.131-0.887c-0.01-0.107-0.033-0.211-0.049-0.309c0.014-0.014,0.02-0.021,0.023-0.021
	c0.035-0.006,0.07-0.01,0.107-0.016c0.313-0.047,0.613-0.125,0.877-0.314c0.275-0.199,0.406-0.473,0.404-0.807
	c0-0.287-0.135-0.496-0.398-0.615c-0.193-0.09-0.396-0.105-0.602-0.064c-0.244,0.051-0.383,0.213-0.445,0.449
	c-0.061,0.225,0,0.402,0.184,0.543c0.021,0.014,0.029,0.045,0.043,0.072c-0.525,0.152-0.932-0.078-1.059-0.596
	c-0.09-0.369-0.07-0.727,0.111-1.072c0.205-0.389,0.461-0.738,0.748-1.066c0.486-0.557,1.039-1.043,1.619-1.498
	c0.346-0.27,0.658-0.568,0.914-0.926c0.398-0.559,0.602-1.176,0.572-1.867c-0.025-0.592-0.211-1.135-0.498-1.648
	C66.826,60.791,66.793,60.734,66.754,60.666z M53.016,55.381c-0.047,0.514-0.164,1.014-0.291,1.51
	c-0.18,0.707-0.393,1.408-0.471,2.137c-0.053,0.508-0.045,1.012,0.104,1.516c0.262,0.021,0.381,0.01,0.508-0.053
	c-0.104-0.631-0.182-1.264,0.143-1.893c0.057,0.078,0.094,0.129,0.133,0.18c0.225,0.293,0.539,0.385,0.885,0.266
	c0.322-0.111,0.543-0.324,0.629-0.648c0.063-0.232,0.1-0.473,0.111-0.713c0.021-0.367,0.018-0.736,0.012-1.105
	c-0.008-0.535,0.158-1.012,0.471-1.436c0.158-0.213,0.328-0.42,0.52-0.602c0.674-0.633,1.469-0.967,2.406-0.875
	c0.266,0.027,0.529,0.104,0.811,0.16c0.072-0.088,0.154-0.188,0.238-0.291c-0.021-0.016-0.035-0.031-0.051-0.037
	c-0.455-0.166-0.924-0.285-1.412-0.271c-0.676,0.021-1.332,0.145-1.965,0.379c-0.588,0.219-1.109,0.533-1.492,1.045
	c-0.014,0.016-0.039,0.021-0.072,0.039c-0.066-0.277-0.17-0.527-0.322-0.754c-0.158-0.232-0.352-0.43-0.58-0.59
	c-0.281-0.195-0.576-0.322-0.713-0.313c0.078,0.186,0.172,0.369,0.238,0.561C53.059,54.174,53.07,54.777,53.016,55.381z
	 M54.086,52.16c-0.002,0.041-0.006,0.08-0.01,0.117c-0.387,0.039-0.746,0.109-1.008,0.434c0.291,0.297,0.627,0.354,1.014,0.262
	c0,0.143-0.008,0.262,0.002,0.381c0.018,0.244,0.158,0.387,0.4,0.412c0.072,0.008,0.145,0.008,0.217-0.002
	c0.445-0.061,0.645-0.506,0.396-0.883c-0.02-0.033-0.035-0.068-0.068-0.135c0.15,0.008,0.273-0.002,0.387,0.023
	c0.375,0.084,0.652,0.328,0.902,0.594c0.111-0.027,0.207-0.051,0.316-0.078c-0.166-0.27-0.387-0.457-0.619-0.66
	c0.035-0.023,0.057-0.035,0.076-0.049c0.363-0.277,0.623-0.639,0.82-1.045c0.244-0.496,0.387-1.025,0.469-1.57
	c0.025-0.164,0.064-0.328,0.037-0.512c-0.133,0.008-0.256,0.014-0.379,0.02c-0.008,0.055-0.014,0.084-0.016,0.113
	c-0.051,0.34-0.086,0.682-0.154,1.018c-0.082,0.404-0.215,0.795-0.447,1.139c-0.24,0.355-0.553,0.621-0.973,0.742
	c-0.133,0.037-0.268,0.049-0.416-0.004c0.029-0.043,0.047-0.072,0.066-0.102c0.143-0.217,0.139-0.49-0.01-0.678
	c-0.148-0.186-0.479-0.266-0.732-0.176c-0.201,0.072-0.285,0.23-0.279,0.529C54.08,52.088,54.086,52.125,54.086,52.16z
	 M59.563,49.689c0.033-0.025,0.068-0.049,0.105-0.07c0.238-0.145,0.484-0.172,0.734-0.025c0.025,0.016,0.051,0.025,0.113,0.055
	c-0.131-0.301-0.254-0.561-0.492-0.74c-0.313-0.242-0.709-0.25-1.021-0.01c-0.137,0.105-0.244,0.248-0.363,0.375
	c-0.035,0.039-0.063,0.084-0.105,0.145c-0.051-0.063-0.092-0.111-0.133-0.162c-0.141-0.182-0.297-0.352-0.494-0.475
	c-0.355-0.221-0.715-0.23-1.068,0.006c-0.271,0.18-0.471,0.432-0.643,0.703c-0.066,0.104-0.123,0.213-0.191,0.328
	c0.227-0.105,0.428-0.215,0.639-0.293c0.313-0.115,0.629-0.193,0.971-0.104c0.369,0.096,0.648,0.275,0.783,0.648
	c0.086,0.244,0.188,0.484,0.295,0.721c0.301,0.656,0.768,1.164,1.402,1.512c0.357,0.193,0.742,0.291,1.15,0.262
	c0.682-0.051,1.229-0.389,1.73-0.836c-0.1-0.102-0.189-0.195-0.285-0.295c-0.059,0.041-0.107,0.074-0.156,0.109
	c-0.23,0.168-0.477,0.309-0.746,0.402c-0.602,0.209-1.176,0.174-1.709-0.197c-0.32-0.223-0.578-0.512-0.77-0.852
	C59.039,50.416,59.125,50.021,59.563,49.689z M60.836,57.436c-0.029,0.055-0.064,0.107-0.113,0.188
	c-0.033-0.076-0.051-0.119-0.07-0.16c-0.104-0.229-0.252-0.318-0.504-0.291c-0.26,0.029-0.469,0.15-0.625,0.357
	c-0.092,0.121-0.129,0.258-0.102,0.41c0.051,0.289,0.326,0.547,0.619,0.582c0.365,0.043,0.645-0.113,0.867-0.387
	c0.426-0.521,0.563-1.145,0.498-1.785c-0.104-1.07-0.654-1.898-1.541-2.502c-0.014-0.008-0.033-0.008-0.064-0.014
	c-0.08,0.09-0.16,0.182-0.246,0.279c0.145,0.096,0.275,0.17,0.393,0.264c0.133,0.104,0.266,0.211,0.375,0.336
	c0.275,0.318,0.475,0.684,0.6,1.086C61.098,56.354,61.1,56.902,60.836,57.436z M60.896,58.273c0.326,0.34,0.641,0.668,0.965,1.006
	c0.086-0.051,0.178-0.105,0.287-0.172c-0.316-0.422-0.658-0.779-1.055-1.096C61.016,58.113,60.953,58.199,60.896,58.273z
	 M62.521,53.705c0.053,0.039,0.105,0.078,0.156,0.115c0.104-0.1,0.197-0.193,0.289-0.283c-0.225-0.236-0.6-0.494-0.941-0.645
	c-0.676-0.301-1.34-0.271-1.982,0.092c-0.605,0.342-1.055,0.838-1.346,1.473c-0.115,0.25-0.221,0.508-0.32,0.766
	c-0.145,0.385-0.439,0.561-0.824,0.615c-0.5,0.072-0.953-0.07-1.381-0.322c-0.047-0.027-0.096-0.055-0.146-0.082
	c0.045,0.125,0.104,0.232,0.17,0.332c0.15,0.242,0.33,0.459,0.551,0.643c0.375,0.311,0.885,0.307,1.232,0.014
	c0.156-0.131,0.291-0.287,0.434-0.434c0.041-0.041,0.076-0.088,0.123-0.146c0.041,0.059,0.068,0.104,0.105,0.143
	c0.117,0.127,0.225,0.27,0.361,0.375c0.293,0.227,0.615,0.23,0.934,0.051c0.299-0.172,0.43-0.469,0.582-0.801
	c-0.088,0.041-0.133,0.066-0.18,0.088c-0.16,0.076-0.324,0.082-0.494,0.027c-0.611-0.203-0.846-0.785-0.545-1.348
	c0.014-0.027,0.029-0.055,0.045-0.08c0.184-0.287,0.404-0.543,0.678-0.746c0.418-0.314,0.885-0.422,1.4-0.334
	C61.83,53.287,62.188,53.469,62.521,53.705z M59.314,57.721c-0.406-0.012-0.805,0-1.223,0.082c0.074,0.141,0.141,0.264,0.197,0.371
	c0.363-0.041,0.703-0.076,1.047-0.115C59.328,57.959,59.322,57.852,59.314,57.721z M57.033,55.768
	c0.135,0.008,0.256,0.016,0.398,0.025c-0.049-0.684-0.197-1.309-0.465-1.924c-0.1,0.043-0.188,0.08-0.297,0.125
	C56.889,54.574,56.984,55.16,57.033,55.768z M58.963,51.412c-0.641,0.232-1.279,0.266-1.939,0.066
	c-0.084,0.156-0.156,0.291-0.234,0.438c0.842,0.193,1.646,0.154,2.443-0.186C59.133,51.615,59.049,51.514,58.963,51.412z
	 M52.445,53.508c-0.078-0.193-0.203-0.367-0.311-0.549c-0.02-0.029-0.055-0.049-0.086-0.076c-0.01,0.021-0.014,0.027-0.014,0.031
	c0,0.018,0,0.037,0,0.055c-0.01,0.523-0.236,0.9-0.738,1.092c-0.438,0.164-0.766,0.451-0.984,0.863
	c-0.023,0.043-0.055,0.08-0.094,0.137c-0.084-0.221-0.148-0.416-0.23-0.6c-0.271-0.596-0.711-1.012-1.34-1.217
	c-0.131-0.043-0.266-0.078-0.4-0.109c-0.463-0.104-0.928-0.158-1.4-0.053c-0.367,0.08-0.693,0.256-1.018,0.447
	c0.09,0.02,0.178,0.016,0.266,0.02c1.059,0.043,2.371,0.594,2.775,2.254c0.125,0.523,0.182,1.057,0.246,1.59
	c0.068,0.545,0.141,1.09,0.293,1.619c0.164,0.564,0.406,1.088,0.826,1.51c0.672,0.678,1.512,0.988,2.443,1.033
	c1.201,0.055,2.301-0.283,3.295-0.965c0.043-0.029,0.088-0.055,0.135-0.084c0.305,0.232,0.621,0.416,1.012,0.408
	c0.365-0.006,0.764-0.254,0.885-0.557c-0.102-0.041-0.201-0.078-0.303-0.121c-0.201-0.084-0.391-0.186-0.551-0.338
	c-0.17-0.162-0.24-0.354-0.178-0.592c0.049-0.191,0.143-0.355,0.264-0.508c0.031-0.039,0.07-0.098,0.063-0.137
	c-0.047-0.197-0.107-0.391-0.166-0.596c-0.266,0.09-0.473,0.252-0.695,0.436c-0.006-0.088-0.004-0.143-0.012-0.195
	c-0.02-0.123-0.029-0.254-0.072-0.371c-0.109-0.295-0.408-0.445-0.719-0.373c-0.475,0.111-0.715,0.639-0.48,1.068
	c0.059,0.109,0.145,0.205,0.229,0.324c-0.037,0.08-0.074,0.176-0.123,0.264c-0.275,0.492-0.686,0.836-1.193,1.07
	c-0.621,0.289-1.289,0.369-1.961,0.348c-0.887-0.029-1.488-0.527-1.902-1.281c-0.01-0.02-0.014-0.041-0.029-0.092
	c0.061,0.025,0.096,0.039,0.131,0.055c0.1,0.043,0.195,0.1,0.297,0.127c0.17,0.045,0.328,0.01,0.451-0.117
	c0.125-0.129,0.213-0.279,0.205-0.467c-0.006-0.121-0.004-0.244-0.025-0.361c-0.064-0.332-0.135-0.662-0.209-0.99
	c-0.072-0.32,0.021-0.588,0.258-0.801c0.232-0.211,0.506-0.24,0.795-0.127c0.049,0.018,0.096,0.035,0.15,0.057
	c-0.029-0.281-0.252-0.654-0.498-0.844c-0.174-0.133-0.371-0.199-0.588-0.203c-0.215-0.004-0.42,0.045-0.617,0.125
	c-0.053,0.02-0.107,0.037-0.168,0.057c0.033-0.436,0.447-0.969,0.787-1.031c0,0.061-0.002,0.119,0,0.178
	c0.01,0.242,0.117,0.43,0.34,0.533c0.195,0.09,0.479,0.02,0.65-0.154c0.166-0.17,0.162-0.367,0.078-0.57
	c-0.035-0.09-0.082-0.172-0.127-0.264c0.031-0.025,0.059-0.049,0.088-0.07C52.494,54.156,52.594,53.877,52.445,53.508z
	 M64.992,56.684c-0.031-0.855,0.313-1.559,0.891-2.162c0.045-0.047,0.104-0.084,0.156-0.121c0.15-0.1,0.301-0.197,0.467-0.309
	c-0.092-0.102-0.174-0.193-0.262-0.293c-0.262,0.152-0.488,0.332-0.682,0.547c-0.705,0.789-1.109,1.678-0.896,2.764
	c0.072,0.359,0.188,0.701,0.418,0.99c0.146,0.186,0.324,0.324,0.551,0.395c0.377,0.117,0.756-0.053,0.922-0.408
	c0.094-0.199,0.074-0.391-0.057-0.563c-0.166-0.217-0.391-0.338-0.664-0.355c-0.213-0.016-0.359,0.08-0.449,0.27
	c-0.025,0.053-0.049,0.105-0.078,0.172c-0.033-0.043-0.059-0.068-0.076-0.1C65.09,57.252,65.002,56.979,64.992,56.684z
	 M63.93,59.109c0.115,0.066,0.207,0.121,0.291,0.17c0.316-0.332,0.623-0.652,0.938-0.982c-0.063-0.074-0.135-0.16-0.213-0.254
	C64.561,58.361,64.227,58.709,63.93,59.109z M63.262,61.141c0.127-0.449,0.346-0.852,0.564-1.254c-0.08-0.09-0.15-0.168-0.242-0.27
	c-0.078,0.148-0.15,0.271-0.211,0.4c-0.063,0.131-0.113,0.268-0.174,0.398c-0.059,0.125-0.066,0.273-0.176,0.412
	c-0.143-0.43-0.291-0.826-0.535-1.203c-0.088,0.102-0.16,0.186-0.234,0.27c0.232,0.408,0.439,0.807,0.566,1.252
	c-0.434,0.145-0.715,0.445-0.936,0.82c-0.051,0.086-0.129,0.166-0.213,0.221c-0.16,0.105-0.332,0.195-0.502,0.283
	c-0.094,0.049-0.195,0.082-0.301,0.127c0.131,0.207,0.297,0.359,0.508,0.463c0.213,0.105,0.436,0.115,0.688,0.066
	c-0.066,0.502-0.02,0.967,0.158,1.412c0.178,0.443,0.445,0.82,0.816,1.125c0.281-0.23,0.492-0.492,0.66-0.791
	c0.301-0.537,0.396-1.115,0.322-1.744c0.535,0.104,0.902-0.117,1.189-0.523c-0.203-0.094-0.396-0.176-0.584-0.271
	c-0.215-0.109-0.385-0.264-0.504-0.479c-0.139-0.246-0.34-0.441-0.584-0.586C63.455,61.219,63.359,61.184,63.262,61.141z
	 M63.885,64.707c-0.047,0.09-0.086,0.168-0.131,0.254c0.307,0.162,0.6,0.316,0.896,0.475c0.061-0.068,0.115-0.131,0.184-0.209
	C64.504,65.047,64.197,64.879,63.885,64.707z M62.197,64.707c-0.322,0.176-0.627,0.344-0.951,0.521
	c0.068,0.076,0.125,0.141,0.184,0.207c0.305-0.162,0.598-0.316,0.896-0.475C62.281,64.871,62.244,64.797,62.197,64.707z
	 M67.781,58.182c0.068-0.117,0.154-0.229,0.182-0.379c-0.42-0.074-0.83-0.1-1.25-0.078c-0.008,0.121-0.014,0.227-0.021,0.332
	C67.064,58.1,67.42,58.141,67.781,58.182z M69.361,56.383c0.279-0.23,0.48-0.523,0.656-0.836c0.018-0.031,0.027-0.068,0.053-0.133
	c-0.051,0.031-0.07,0.043-0.09,0.057c-0.344,0.229-0.725,0.352-1.135,0.387c-0.557,0.047-0.961-0.195-1.172-0.705
	c-0.098-0.234-0.188-0.473-0.295-0.703c-0.277-0.602-0.697-1.082-1.273-1.416c-0.676-0.389-1.371-0.424-2.084-0.109
	c-0.527,0.234-0.963,0.596-1.344,1.023c-0.523,0.588-0.82,1.273-0.846,2.066c-0.029,0.891,0.232,1.688,0.779,2.393
	c0.043,0.055,0.094,0.104,0.146,0.162c0.09-0.102,0.164-0.188,0.252-0.285c-0.033-0.041-0.057-0.068-0.078-0.098
	c-0.66-0.846-0.855-1.795-0.596-2.83c0.277-1.117,1.438-1.941,2.184-2.111c0.535-0.123,1.033-0.051,1.484,0.268
	c0.311,0.217,0.561,0.496,0.752,0.822c0.328,0.559,0.16,1.002-0.379,1.326c-0.004,0.002-0.01,0.006-0.016,0.008
	c-0.223,0.121-0.449,0.127-0.674,0.002c-0.027-0.016-0.057-0.027-0.1-0.049c0.076,0.254,0.24,0.525,0.4,0.676
	c0.289,0.27,0.703,0.313,1.037,0.104c0.166-0.105,0.297-0.246,0.41-0.404c0.033-0.049,0.066-0.096,0.109-0.158
	c0.051,0.063,0.084,0.113,0.125,0.154c0.152,0.154,0.297,0.32,0.465,0.455c0.205,0.166,0.447,0.232,0.715,0.189
	C69.045,56.604,69.211,56.508,69.361,56.383z M68.998,55.775c0.041-0.623,0.146-1.209,0.357-1.783
	c-0.107-0.043-0.197-0.078-0.297-0.119c-0.268,0.617-0.41,1.238-0.467,1.902C68.732,55.775,68.854,55.775,68.998,55.775z
	 M69.992,52.637c-0.111,0.104-0.221,0.195-0.32,0.299c-0.098,0.104-0.184,0.219-0.291,0.348c0.131,0.029,0.229,0.055,0.32,0.076
	c0.625-0.551,0.939-0.693,1.281-0.568c-0.025,0.041-0.049,0.08-0.074,0.119c-0.125,0.209-0.107,0.484,0.041,0.662
	c0.152,0.182,0.49,0.256,0.734,0.16c0.189-0.072,0.275-0.24,0.268-0.523c0-0.037-0.006-0.072-0.006-0.107
	c-0.002-0.041,0-0.078,0-0.127c0.389,0.088,0.729,0.037,1.012-0.266c-0.27-0.332-0.643-0.395-1.021-0.438
	c0.006-0.086,0.014-0.158,0.016-0.229c0.008-0.406-0.191-0.592-0.596-0.551c-0.029,0.002-0.059,0.008-0.088,0.014
	c-0.396,0.092-0.566,0.5-0.355,0.85c0.023,0.037,0.047,0.076,0.078,0.131c-0.061,0.01-0.1,0.021-0.141,0.021
	c-0.238,0.016-0.449-0.068-0.648-0.191c-0.385-0.236-0.643-0.576-0.814-0.988c-0.176-0.422-0.275-0.861-0.334-1.311
	c-0.023-0.18-0.041-0.357-0.064-0.549c-0.137,0-0.26,0-0.385,0c-0.006,0.023-0.014,0.039-0.012,0.055
	c0.063,0.666,0.201,1.311,0.482,1.922c0.203,0.445,0.475,0.84,0.871,1.137C69.965,52.596,69.975,52.617,69.992,52.637z
	 M66.895,50.592c-0.039,0.131-0.107,0.254-0.166,0.379c-0.025,0.053-0.063,0.1-0.105,0.172c0.156,0.07,0.301,0.133,0.445,0.197
	c0.188-0.252,0.311-0.514,0.424-0.781c0.084-0.201,0.158-0.406,0.25-0.6c0.053-0.107,0.117-0.223,0.209-0.293
	c0.303-0.232,0.65-0.338,1.035-0.262c0.361,0.07,0.713,0.182,1.018,0.402c0.014,0.008,0.033,0.008,0.076,0.02
	c-0.227-0.416-0.465-0.789-0.846-1.045c-0.354-0.238-0.732-0.24-1.08,0.02c-0.186,0.139-0.338,0.324-0.504,0.488
	c-0.035,0.037-0.068,0.078-0.1,0.115c-0.123-0.146-0.229-0.287-0.352-0.408c-0.158-0.156-0.348-0.262-0.578-0.268
	c-0.473-0.014-0.951,0.408-1.018,0.906c0.035-0.02,0.066-0.039,0.098-0.055c0.201-0.105,0.404-0.111,0.609-0.014
	c0.186,0.086,0.336,0.213,0.459,0.373C66.92,50.135,66.959,50.357,66.895,50.592z M68.459,48.545c0.174,0,0.34,0,0.502,0
	c0.043-0.365-0.016-1.041-0.104-1.238c-0.248,0.072-0.496,0.143-0.744,0.213C68.229,47.865,68.346,48.209,68.459,48.545z
	 M25.533,71.416c-0.52-1.744-1.47-3.232-2.693-4.537c-1.606-1.708-3.273-3.358-4.922-5.027c-1.306-1.321-2.297-2.816-2.345-4.735
	c-0.017-0.674,0.117-1.396,0.37-2.019c0.324-0.8,1.331-1.253,2.052-0.943c0.353,0.15,0.558,0.638,0.831,0.973
	c-0.32,0.111-0.642,0.223-1.2,0.418c-0.264,0.439-0.163,1.025,0.527,1.44c0.588,0.354,1.407,0.02,1.752-0.663
	c0.534-1.052-0.114-2.54-1.339-3.048c-0.26-0.107-0.537-0.172-0.807-0.258c-0.559,0.127-1.115,0.253-1.672,0.379
	c-1.776,1.737-2.047,3.992-0.787,6.615c0.154,0.317,0.507,0.63-0.016,0.933c0.191,0.315,0.316,0.712,0.588,0.925
	c0.406,0.318,0.914,0.506,1.314,0.934c-0.237-0.022-0.494-0.113-0.706-0.05c-0.307,0.092-0.795,0.269-0.821,0.459
	c-0.061,0.477,0.122,0.861,0.79,0.917c1.009,0.087,2.003,0.333,3.005,0.511c-0.017,0.107-0.033,0.216-0.049,0.322
	c-0.689-0.019-1.379-0.079-2.065-0.042c-1.11,0.061-1.325,0.393-1,1.445c0.094,0.293,0.256,0.564,0.404,0.886
	c1.683-0.712,3.326-1.242,4.812-0.153c-1.146,0.233-2.422,0.354-3.598,0.767c-1.327,0.464-1.447,1.454-0.489,2.57
	c1.517-2.01,3.557-2.51,5.338-1.306c1.827,1.234,2.521,4.122,1.413,5.925c-0.676,1.096-1.682,1.628-2.956,1.551
	c-1.097-0.068-1.918-0.615-2.364-1.647c-0.475-1.101-0.011-2.348,1.033-2.82c0.957-0.43,1.813,0.085,1.929,1.16
	c-0.027,0.008-0.061,0.031-0.083,0.023c-0.479-0.154-1.032-0.428-1.297,0.217c-0.107,0.261,0.064,0.907,0.24,0.964
	c0.453,0.146,1.084,0.239,1.456,0.027c1.096-0.622,0.924-2.327-0.241-3.109c-1.593-1.067-3.842,0.058-4.162,2.079
	c-0.224,1.414,0.422,2.837,1.691,3.555c1.488,0.843,2.985,0.774,4.395-0.195C25.525,75.713,26.158,73.52,25.533,71.416z
	 M52.063,75.502c0,0-2.744-10.873-10.906-15.133c-8.16-4.258-18.648-0.289-18.648-0.289s1.826,12.633,9.988,16.891
	S52.063,75.502,52.063,75.502z M58.699,66.629c0.047,0.002,0.096,0.01,0.178,0.018c-0.063,0.055-0.094,0.082-0.127,0.109
	c-0.256,0.211-0.416,0.48-0.482,0.807c-0.105,0.512,0.121,0.979,0.57,1.168c0.203,0.086,0.418,0.121,0.639,0.094
	c0.725-0.094,1.242-0.539,1.736-1.023c-0.068,0.006-0.129,0.025-0.189,0.045c-0.307,0.1-0.617,0.121-0.926,0.014
	c-0.303-0.104-0.48-0.35-0.459-0.643c0.021-0.281,0.102-0.553,0.316-0.75c0.199-0.184,0.422-0.344,0.633-0.512
	c0.051-0.041,0.105-0.074,0.174-0.123c-0.084-0.072-0.158-0.133-0.229-0.195c-0.055-0.053-0.107-0.057-0.18-0.027
	c-0.135,0.053-0.271,0.1-0.41,0.143c-0.324,0.1-0.648,0.186-0.99,0.199c-0.037,0.002-0.074-0.01-0.115-0.018
	c0.133-0.252,0.137-0.389,0.008-0.588c-0.055-0.084-0.127-0.16-0.203-0.227c-0.115-0.098-0.25-0.111-0.393-0.064
	c-0.301,0.1-0.42,0.314-0.342,0.619c0.018,0.064,0.047,0.125,0.066,0.188c0.012,0.037,0.018,0.074,0.027,0.113
	c-0.594,0.035-1.664-0.387-1.902-0.746c0.063-0.025,0.123-0.049,0.184-0.076c0.232-0.109,0.334-0.283,0.316-0.537
	c-0.008-0.076-0.016-0.16-0.045-0.23c-0.08-0.188-0.176-0.369-0.262-0.555c-0.059-0.123-0.129-0.248-0.166-0.379
	c-0.066-0.234-0.068-0.477-0.035-0.719c0.031-0.246,0.094-0.486,0.23-0.699c0.182-0.279,0.434-0.412,0.77-0.361
	c0.203,0.033,0.398,0.096,0.574,0.209c0.119,0.076,0.221,0.172,0.281,0.301c0.092,0.195,0.082,0.391-0.016,0.602
	c-0.045-0.041-0.072-0.064-0.096-0.09c-0.223-0.23-0.445-0.24-0.682-0.029c-0.051,0.045-0.096,0.094-0.135,0.146
	c-0.139,0.195-0.137,0.479,0.004,0.684c0.123,0.186,0.324,0.27,0.57,0.205c0.125-0.031,0.256-0.086,0.357-0.166
	c0.512-0.398,0.744-1.359,0.031-1.943c-0.256-0.213-0.557-0.336-0.881-0.398c-0.441-0.09-0.83,0.021-1.143,0.346
	c-0.137,0.143-0.254,0.307-0.354,0.479c-0.234,0.406-0.355,0.855-0.434,1.316c-0.012,0.063-0.023,0.125-0.037,0.203
	c-0.033-0.029-0.055-0.037-0.059-0.051c-0.07-0.23-0.227-0.398-0.412-0.537c-0.211-0.16-0.428-0.314-0.654-0.453
	c-0.344-0.209-0.623-0.477-0.807-0.836c-0.004-0.01-0.018-0.014-0.025-0.02c-0.17,0-0.338,0-0.521,0
	c0.016,0.063,0.023,0.115,0.043,0.164c0.123,0.334,0.232,0.676,0.375,0.998c0.484,1.094,1.189,2.016,2.178,2.703
	C56.287,66.223,57.443,66.58,58.699,66.629z M68.24,80.73c-0.109-0.512-0.547-1.049-0.988-1.354
	c-0.195-0.137-1.072,0.223-1.105,0.439c-0.074,0.473,0.197,0.998,0.324,1.504c0.018,0.064,0.021,0.131,0.037,0.246
	c-0.877,0.447-1.66,0.281-2.314-0.416c-0.766-0.813-0.695-1.727-0.256-2.691c0.822-1.807,0.537-2.949-0.994-4.189
	c-1.539,1.635-1.674,2.348-0.846,4.309c0.123,0.295,0.24,0.607,0.273,0.922c0.166,1.645-1.361,2.697-2.883,2.002
	c0.012-0.064,0.023-0.131,0.039-0.195c0.123-0.506,0.383-1.035,0.307-1.51c-0.033-0.209-0.918-0.553-1.115-0.412
	c-0.436,0.309-0.869,0.852-0.969,1.365c-0.199,1.039,0.604,2.053,1.723,2.41c1.467,0.469,2.563-0.197,3.498-1.223
	c0.383,0.326,0.703,0.678,1.092,0.92c1,0.621,2.045,0.627,3.051,0.014C67.9,82.389,68.439,81.66,68.24,80.73z M73.42,61.641
	c-0.182,0-0.355,0-0.525,0c-0.35,0.537-0.385,0.564-0.943,0.93c-0.213,0.139-0.416,0.289-0.615,0.445
	c-0.146,0.117-0.264,0.264-0.326,0.447c-0.008,0.023-0.033,0.041-0.061,0.072c-0.018-0.08-0.027-0.139-0.043-0.197
	c-0.072-0.291-0.137-0.588-0.229-0.873c-0.105-0.324-0.268-0.621-0.5-0.875c-0.297-0.324-0.666-0.475-1.105-0.416
	c-0.303,0.039-0.584,0.146-0.84,0.314c-0.816,0.531-0.678,1.504-0.178,1.984c0.145,0.139,0.314,0.223,0.514,0.244
	c0.244,0.027,0.453-0.1,0.547-0.328c0.139-0.344-0.045-0.73-0.398-0.85c-0.154-0.053-0.287-0.018-0.402,0.086
	c-0.047,0.045-0.082,0.102-0.141,0.172c-0.16-0.291-0.127-0.563,0.068-0.771c0.168-0.18,0.381-0.27,0.615-0.326
	c0.441-0.107,0.754,0.033,0.959,0.438c0.191,0.381,0.217,0.787,0.162,1.201c-0.027,0.188-0.1,0.357-0.203,0.518
	c-0.148,0.229-0.275,0.471-0.293,0.75c-0.016,0.289,0.09,0.453,0.357,0.566c0.047,0.02,0.096,0.041,0.176,0.076
	c-0.584,0.463-1.217,0.705-1.959,0.738c0.033-0.078,0.057-0.127,0.068-0.178c0.025-0.104,0.063-0.211,0.063-0.316
	c0.004-0.291-0.33-0.529-0.611-0.447c-0.342,0.098-0.521,0.533-0.35,0.844c0.006,0.014,0.004,0.033,0.006,0.078
	c-0.186-0.023-0.369-0.031-0.541-0.074c-0.32-0.08-0.637-0.184-0.955-0.279c-0.057-0.018-0.109-0.047-0.166,0.004
	c-0.08,0.07-0.162,0.137-0.254,0.215c0.068,0.049,0.117,0.08,0.164,0.117c0.197,0.148,0.396,0.295,0.586,0.455
	c0.227,0.193,0.332,0.457,0.369,0.744c0.051,0.381-0.188,0.67-0.598,0.754c-0.273,0.055-0.541,0.025-0.803-0.063
	c-0.047-0.016-0.092-0.027-0.139-0.039c0.418,0.449,0.877,0.822,1.475,0.982c0.201,0.057,0.404,0.063,0.611,0.025
	c0.523-0.09,0.852-0.479,0.848-1.01c0-0.412-0.168-0.746-0.471-1.02c-0.041-0.037-0.084-0.074-0.152-0.135
	c0.074-0.008,0.107-0.014,0.141-0.016c0.33-0.035,0.664-0.047,0.99-0.105c1.309-0.234,2.441-0.814,3.371-1.771
	c0.824-0.852,1.348-1.875,1.691-3C73.41,61.719,73.412,61.684,73.42,61.641z M74.066,61.455c1.336-0.322,2.193-1.135,2.557-2.465
	c0.148-0.541,0.221-1.098,0.295-1.654c0.064-0.479,0.119-0.959,0.219-1.43c0.279-1.313,1.15-2.123,2.475-2.326
	c0.193-0.029,0.391-0.033,0.586-0.049c-0.182-0.117-0.373-0.213-0.568-0.303c-0.223-0.1-0.453-0.164-0.695-0.186
	c-0.604-0.059-1.18,0.059-1.736,0.27c-0.377,0.143-0.676,0.396-0.91,0.721c-0.186,0.258-0.313,0.545-0.408,0.846
	c-0.018,0.053-0.035,0.107-0.063,0.188c-0.037-0.049-0.061-0.066-0.072-0.092c-0.234-0.467-0.607-0.766-1.092-0.951
	c-0.361-0.139-0.561-0.424-0.637-0.799c-0.021-0.107-0.027-0.219-0.041-0.336c-0.201,0.191-0.375,0.494-0.43,0.732
	c-0.074,0.311,0.021,0.557,0.273,0.748c0.041,0.031,0.082,0.064,0.119,0.092c-0.055,0.129-0.113,0.242-0.152,0.359
	c-0.047,0.145-0.035,0.287,0.055,0.416c0.139,0.197,0.461,0.307,0.678,0.23c0.229-0.08,0.389-0.348,0.365-0.609
	c-0.002-0.039-0.006-0.078-0.008-0.121c0.365,0.084,0.826,0.695,0.781,1.037c-0.383-0.152-0.77-0.281-1.172-0.088
	c-0.398,0.191-0.582,0.545-0.719,0.975c0.066-0.029,0.1-0.043,0.133-0.059c0.301-0.131,0.594-0.121,0.844,0.105
	c0.248,0.223,0.344,0.504,0.252,0.836c-0.018,0.063-0.035,0.127-0.051,0.191c-0.092,0.375-0.186,0.752-0.172,1.143
	c0.014,0.465,0.4,0.705,0.822,0.51c0.049-0.021,0.094-0.051,0.143-0.076c0.027-0.014,0.059-0.023,0.088-0.035
	c0.01,0.01,0.02,0.018,0.027,0.025c-0.055,0.096-0.107,0.195-0.17,0.289c-0.346,0.525-0.811,0.885-1.438,1.014
	c-0.27,0.055-0.541,0.035-0.813,0.02c-0.369-0.021-0.732-0.072-1.084-0.186c-0.648-0.205-1.186-0.564-1.545-1.156
	c-0.064-0.105-0.111-0.225-0.162-0.324c0.088-0.121,0.172-0.219,0.23-0.328c0.207-0.383,0.047-0.842-0.346-1.021
	c-0.363-0.168-0.754,0-0.871,0.381c-0.035,0.113-0.037,0.236-0.055,0.355c-0.006,0.043-0.012,0.086-0.02,0.152
	c-0.207-0.172-0.396-0.328-0.643-0.41c-0.053,0.191-0.096,0.373-0.154,0.549c-0.031,0.088-0.012,0.143,0.039,0.213
	c0.072,0.098,0.139,0.201,0.184,0.311c0.143,0.342,0.074,0.586-0.217,0.814c-0.188,0.146-0.4,0.244-0.623,0.328
	c-0.053,0.02-0.105,0.041-0.162,0.064c0.342,0.52,0.871,0.678,1.398,0.449c0.182-0.08,0.348-0.189,0.541-0.299
	c0.039,0.027,0.084,0.057,0.129,0.086c0.502,0.346,1.045,0.607,1.633,0.762C72.484,61.57,73.27,61.646,74.066,61.455z
	 M103.939,60.08c0,0-10.488-3.969-18.65,0.289c-8.162,4.26-10.906,15.133-10.906,15.133s11.406,5.727,19.568,1.469
	C102.111,72.713,103.939,60.08,103.939,60.08z M111.211,60.011c1.26-2.623,0.989-4.878-0.787-6.615
	c-0.557-0.126-1.113-0.252-1.672-0.379c-0.27,0.086-0.547,0.15-0.807,0.258c-1.225,0.508-1.873,1.996-1.339,3.048
	c0.345,0.683,1.164,1.017,1.752,0.663c0.69-0.415,0.791-1.001,0.527-1.44c-0.559-0.195-0.88-0.307-1.2-0.418
	c0.273-0.335,0.479-0.822,0.831-0.973c0.721-0.31,1.728,0.144,2.052,0.943c0.253,0.623,0.387,1.345,0.37,2.019
	c-0.048,1.919-1.039,3.414-2.345,4.735c-1.648,1.669-3.315,3.319-4.922,5.027c-1.224,1.305-2.174,2.793-2.693,4.537
	c-0.625,2.104,0.008,4.297,1.672,5.44c1.409,0.97,2.906,1.038,4.395,0.195c1.27-0.718,1.915-2.141,1.691-3.555
	c-0.32-2.021-2.569-3.146-4.162-2.079c-1.165,0.782-1.337,2.487-0.241,3.109c0.372,0.212,1.003,0.118,1.456-0.027
	c0.176-0.057,0.348-0.703,0.24-0.964c-0.265-0.645-0.818-0.371-1.297-0.217c-0.022,0.008-0.056-0.016-0.083-0.023
	c0.116-1.075,0.972-1.59,1.929-1.16c1.044,0.473,1.508,1.72,1.033,2.82c-0.446,1.032-1.268,1.579-2.364,1.647
	c-1.274,0.077-2.28-0.455-2.956-1.551c-1.107-1.803-0.414-4.69,1.413-5.925c1.781-1.204,3.821-0.704,5.338,1.306
	c0.958-1.116,0.838-2.106-0.489-2.57c-1.176-0.412-2.452-0.533-3.598-0.767c1.485-1.089,3.129-0.559,4.812,0.153
	c0.148-0.321,0.311-0.593,0.404-0.886c0.325-1.053,0.11-1.385-1-1.445c-0.687-0.037-1.376,0.023-2.065,0.042
	c-0.016-0.106-0.032-0.215-0.049-0.322c1.002-0.178,1.996-0.424,3.005-0.511c0.668-0.056,0.851-0.44,0.79-0.917
	c-0.026-0.19-0.515-0.367-0.821-0.459c-0.212-0.063-0.469,0.027-0.706,0.05c0.4-0.428,0.908-0.615,1.314-0.934
	c0.271-0.213,0.396-0.609,0.588-0.925C110.704,60.641,111.057,60.328,111.211,60.011z"/>
</svg>
