<?xml version="1.0" encoding="utf-8"?>
<!-- Generator: Adobe Illustrator 16.0.0, SVG Export Plug-In . SVG Version: 6.00 Build 0)  -->
<!DOCTYPE svg PUBLIC "-//W3C//DTD SVG 1.1//EN" "http://www.w3.org/Graphics/SVG/1.1/DTD/svg11.dtd">
<svg version="1.1" id="Layer_1" xmlns="http://www.w3.org/2000/svg" xmlns:xlink="http://www.w3.org/1999/xlink" x="0px" y="0px"
	 width="100px" height="100px" viewBox="0 0 100 100" enable-background="new 0 0 100 100" xml:space="preserve">
<g>
	<polygon points="3.084,50.098 4.703,50.098 6.119,49.086 5.311,48.075 	"/>
	<polygon points="18.674,41.722 19.785,42.43 20.293,42.43 21,40.306 18.168,39.8 18.674,40.306 	"/>
	<polygon points="20.932,47.903 20.201,48.937 20.201,50.727 22.15,49.644 23.533,49.042 23.412,47.358 21.525,46.901 20.98,48.137 
			"/>
	<polygon points="18.488,45.868 17.748,45.771 17.23,46.274 17.859,46.55 	"/>
	<polygon points="18.828,43.667 18.193,43.32 17.963,44.604 18.957,44.403 	"/>
	<polygon points="3.148,47.09 2.484,46.822 2.74,48.075 3.357,47.8 	"/>
	<polygon points="3.883,44.944 2.83,43.46 2.295,43.84 2.285,44.964 2.811,45.706 	"/>
	<polygon points="0.344,45.867 0.219,46.411 0.973,46.583 1.033,46.312 0.719,45.953 	"/>
	<polygon points="23.006,42.424 22.313,42.158 21.619,42.424 21.619,43.489 22.617,43.888 	"/>
	<polygon points="14.668,39.384 13.09,39.384 12.395,39.651 12.395,40.715 13.404,40.249 	"/>
	<polygon points="14.668,42.896 16.492,42.959 16.553,40.769 15.359,41.564 14.668,41.831 	"/>
	<path d="M19.406,49.086h-0.744l-2.359-0.706l0.771-0.932l-2.984,0.626l1.27-3.491l-1.27,1.122l-2.34-3.98
		c-0.07,0.021-0.139,0.032-0.209,0.055c-2.252,0.761-3.764,2.707-4.084,4.907L9.109,47.3L7.4,47.88
		c0.027,0.546,0.125,1.097,0.307,1.64c1.078,3.195,4.545,4.912,7.738,3.833C17.477,52.667,18.908,51.018,19.406,49.086z"/>
	<path d="M47.039,73.601l-6.434-1.617l-0.92,0.936l-1.594-1.567l-7.398-1.858c0.064-0.496-0.736-3.103-0.869-3.634l-0.016,0.03
		l-3.107,0.884l2.301-1.958l-1.936-2.064l1.547-0.536l-1.768-5.444c5.326-2.245,13.293-5.339,13.383-5.375
		c1.219-0.474,1.824-1.846,1.352-3.068c-0.475-1.22-1.84-1.83-3.068-1.351c-0.266,0.103-4.33,1.683-8.584,3.4l-0.18,1.547
		l-2.277-0.547c-1.064,0.437-2.096,0.865-3.033,1.265c-1.117-0.714-2.525-0.98-3.752-0.875c0,0-0.67,0.023-1.314,0.256
		c-0.615,0.224-1.26,0.601-1.26,0.601l-0.014,0.008c-1.785,1.134-3.322,3.419-2.52,5.798l0.418,1.239l0.908-0.885l-0.309,2.663
		l1.758,5.205l1.893-1.847l-0.361,3.122l-1.146-0.133l1.148,3.408c0.363,1.073,1.088,1.846,1.984,2.344l3.395,9.976l0.619-0.32
		l1.174,2.269l-1.215-0.253l2.35,6.905c0.574,1.689,2.408,2.592,4.1,2.019c0,0,0,0,0,0c1.691-0.576,2.596-2.411,2.02-4.102
		l-4.826-14.181l15.979,4.015c0.625,0.157,1.256,0.121,1.824-0.073c1.006-0.341,1.822-1.17,2.1-2.275
		C49.822,75.792,48.771,74.036,47.039,73.601z"/>
	<path d="M62.52,49.108c1.107-0.218,1.994-1.133,2.123-2.315c0.389-3.61,1.049-8.034,1.447-9.178
		c0.518-0.554,2.299-1.863,4.154-3.064c1.189,5.361,1.949,6.268,2.238,6.611c1.076,1.278,5.934,5.356,7.396,6.575
		c0.496,0.413,1.098,0.614,1.697,0.614c0.758,0,1.514-0.325,2.037-0.954c0.936-1.125,0.785-2.795-0.34-3.732
		c-2.688-2.24-5.875-5-6.637-5.809c-0.506-1.095-1.514-5.601-2.168-9.279c-0.035-0.193-0.301-1.089-0.451-1.44l-3.607-8.515
		c-1.533,0.995-3.592,2.147-5.732,2.799c-0.109,0.034-0.219,0.059-0.33,0.077c-1.205,0.194-2.385-0.542-2.742-1.714
		c-0.395-1.298,0.34-2.675,1.639-3.071c3.352-1.02,7.148-3.995,8.064-5.065c0.041-0.121,0.633,0.424,0.633,0.424
		c-0.873,1.074-4.926,4.284-8.479,5.366c-0.896,0.274-1.406,1.228-1.133,2.126c0.27,0.885,1.223,1.409,2.125,1.133
		c2.115-0.644,4.156-1.801,5.654-2.784l-0.006-0.014c0.814-0.542,1.504-1.058,2.008-1.455c4.191-3.296,3.916-4.543,3.752-5.288
		c-0.178-0.805-0.705-1.449-1.445-1.767c-1.656-0.711-3.479,0.388-6.785,2.383c-1.113,0.673-2.256,1.357-3.344,1.934
		c0.799-1.403,0.963-3.147,0.285-4.749c-1.156-2.728-4.303-4.001-7.031-2.846c-2.727,1.156-4.002,4.304-2.846,7.031
		c1.027,2.427,3.633,3.699,6.117,3.136c-0.025,0.039-0.051,0.078-0.076,0.117l-0.023-0.046L44.58,24.769l-0.188-0.348l-1.588,0.853
		l0.176,0.328l-0.488,0.255l0.875,1.678l7.475-3.898c0.764,0.12,1.84,0.106,3.178-0.359c0.061,0.052,0.115,0.107,0.182,0.152
		c0.301,0.204,2.998,2.014,4.906,2.672c0.637,0.22,1.266,0.304,1.855,0.304c0.727,0,1.391-0.127,1.934-0.282l2.057,4.855
		c0.084,0.197,0.184,0.377,0.293,0.548c-1.551,1.102-3.063,2.325-3.668,3.276c-0.777,1.225-1.52,5.067-2.207,11.422
		c-0.146,1.381,0.793,2.627,2.135,2.884H57v5.175h5.008v39.898h36.385V54.283h1.389v-5.175H62.52z M60.467,22.166
		c-0.539-0.187-1.266-0.563-1.959-0.961c0.902-0.432,1.566-0.75,1.916-0.918l0.82,1.936C60.982,22.252,60.707,22.249,60.467,22.166z
		 M76.129,70.374H65.982V60.53h10.146V70.374z M94.111,70.374H83.965V60.53h10.146V70.374z"/>
	<polygon points="37.504,29.546 32.314,36.913 38.959,30.938 38.91,32.929 40.557,30.765 41.078,39.8 42.498,31.486 46.998,35.699 
		43.205,29.294 43.313,31.107 41.939,29.822 41.488,32.455 41.26,28.471 39.807,30.377 39.842,29.028 37.238,31.366 38.986,28.885 
		37.152,28.666 39.557,28.41 39.111,27.786 40.098,27.618 39.779,24.699 41.051,25.42 37.787,18.663 39.346,26.879 34.113,22.218 
		38.051,27.733 29.744,28.619 	"/>
</g>
</svg>
