<?xml version="1.0" encoding="UTF-8" standalone="yes"?>
<svg xmlns="http://www.w3.org/2000/svg" viewBox="0 0 100 100">
  <path d="M20.575 57.417h2.803l2.452-1.752-1.4-1.752zm28.923-13.28h.875l1.227-3.68-4.906-.874.877.876v2.45zm9.012 5.735V47.89l-2.154-.284-1.51 1.464zm-37.823 2.336l-1.152-.464.445 2.17 1.07-.476zM68.05 38.76h3.153v-1.14l-1.576-1.138H68.05zm-46.09 9.733l-1.826-2.57-.93.658-.014 1.947.913 1.286zm-6.132 1.597l-.215.943 1.305.297.106-.47-.545-.62zm48.577-4.06v2.803l2.628 1.05 1.017-3.853-1.82-.7zm-36.87-31.986l-1.864 2.054 1.17 2.313-.636-.09c2.144 3.09 5.89 4.915 9.88 4.397 5.693-.74 9.71-5.952 8.97-11.645-.738-5.692-5.952-9.708-11.645-8.97-1.45.19-2.79.67-3.97 1.372l1.798.075-3.984 2.97-.526-.706a10.358 10.358 0 0 0-2.37 6.81l.675 1.167 2.502.255z"/>
  <path d="M81.53 65.645l-.503 2.1-1.883-4.61C69.037 52.6 66.58 51.59 65.717 51.235c-1.273-.52-3.736-.88-7.34-1.08l-2.842 2.12-1.696-2.274c-2.21-.036-4.69-.035-7.456.007l-.157-1.207-1.894 2.484-2.3-.79-4.904.176 2.627-3.766 5.103-.613-9-4.43 8.772-2.277.073-2.52c1.956.744 4.053 1.41 5.896 1.733l.356-2.107 1.787 1.587 2.456-.544-.53 1.195c4.763-.386 10.903-2.133 12.295-2.544.472-.14.9-.356 1.272-.634a4.025 4.025 0 0 0 1.28-1.637l-1.027-2.197.934-1.207a4.03 4.03 0 0 0-4.74-2.07c-3.607 1.063-9.762 2.473-12.155 2.28-1.433-.113-3.968-.984-6.427-1.996 5.05-1.72 9.87-4.813 15.056-8.68a41.35 41.35 0 0 0 1.614-1.264 4.034 4.034 0 0 0 .556-5.678c-.053-.064-.118-.113-.175-.173l-.685 1.192-1.084-2.318a4.04 4.04 0 0 0-3.735.743 36.704 36.704 0 0 1-2.995 2.212l-.877.6 1.663 2.38-2.74-.43-3.882 4.59 1.526-4.622c-6.268 3.223-11.622 7.957-18.986 6.22-3.584.395-6.993 4.84-6.442 9.08l.813 6.254.177.138 2.41-.724-.054 2.777 3.127 4.593-5.08-2.298 1.56 12.012c.393 3.038 2.552 5.12 5.21 6.14l2.15 6.085 1.672-2.6.55 4.94-1.343.148 2.45 6.943.123.095 2.41-.723-.935 2.61 1.965 1.688-2.082.53 4.566 12.926a5.504 5.504 0 0 0 8.48 2.58 5.504 5.504 0 0 0 1.896-6.244l-2.898-8.208-2.76.307 1.853-2.878-6.653-18.822c3.672-.08 7.82-.072 11.17.02l-1.04-2.45 4.26 2.583c1.114.066 2.01.147 2.57.244 2.046 1.486 8.344 7.78 13.292 13.09a5.504 5.504 0 0 0 7.776.28 5.502 5.502 0 0 0 .277-7.777c-.448-.48-.88-.943-1.305-1.395zM54.58 5.24h28.117v1.05H54.58zm19.13 6.567h12.22v1.05H73.71zm-6.108 7.22h12.22v1.05H67.6z"/>
</svg>