<?xml version="1.0" encoding="UTF-8" standalone="yes"?>
<svg xmlns="http://www.w3.org/2000/svg" viewBox="0 0 100 100">
  <path d="M80.578 49.34c-1.396 2.462-4.555 3.63-5.93 4.025l1.325 2.554a3.56 3.56 0 0 0 4.8 1.515 3.56 3.56 0 0 0 1.52-4.8l-1.715-3.297zM65.783 23.846c2.047-.975 4.752-1.78 6.683-1.98.462-.048.89-.085 1.327-.126a7.767 7.767 0 0 0-3.43-5.03l-1.853 1.166.134-1.993a7.72 7.72 0 0 0-2.463-.407 7.758 7.758 0 0 0-6.86 11.377c1.54-.8 3.615-1.782 6.464-3.007z"/>
  <path d="M83.788 23.11c-.415-.228-1.096-.816-4.9-.795l-1.14 1.29-.823-1.233a89.135 89.135 0 0 0-5.02.398c-1.843.192-4.42.99-6.277 1.874-3.584 1.542-6.27 2.84-8.043 3.884l-.18 2.16s-.558-.643-1.11-1.32c-.41.296-.743.572-.946.81-1.483 1.744-2.43 6.023-2.863 8.418a3.012 3.012 0 0 0 2.968 3.548 3.01 3.01 0 0 0 2.51-1.366 3.543 3.543 0 0 0 .262 1.992l5.43 12.116 2.45-.38s-.907 1.315-1.46 2.176a3.547 3.547 0 0 0 4.107.876 3.56 3.56 0 0 0 1.794-4.704l-.618-1.376c3.907 2.53 10.896-.51 11.28-6.257.55-8.865-.943-13.575-2.98-16.835 1.203-.02 2.19.002 2.723.085.802.737 2.702 3.226 4.276 5.617.1.153.226.278.35.406l.923-2.072.91 2.984c.112.013.223.04.336.04a3.013 3.013 0 0 0 2.513-4.667c-1.93-2.93-4.618-6.643-6.476-7.666zM64.226 35.684a288.73 288.73 0 0 0 1.712 3.862l-1.768-.872-.13 2.12-1.303-2.798a3.548 3.548 0 0 0-3.733.755 3.588 3.588 0 0 0-.546.69c.422-2.243 1.087-4.642 1.442-5.293.476-.35 1.62-.957 3.076-1.666.106.42.385 1.158.82 2.198h2.31l-1.88 1.007zm-10.85-4.69c-.83-.563-1.616-1.177-1.91-2.243-.482-1.752.04-3.52 1.3-4.78.58-.575 1.427-.924 2.183-1.195 1.162-.417 1.33-2.248 1.324-3.86l-19.753-.052c-.405-.102-2.274.135-2.7.386-2.65.94-4.44 3.554-5.06 6.05 0 0-.296.98-.275 2.02.02.998.25 2.11.25 2.11l.002.026a9.86 9.86 0 0 0 .775 2.07c-3.998 5.107-11.195 7.264-11.625 7.39a3.613 3.613 0 1 0 1.98 6.948c4.43-1.262 11.05-4.552 15.325-10 .224.026.438.075.673.075l15.85.04c.414-1.77.964-3.58 1.66-4.984zM94.16 22.62l-9.463.006c1.625 1.226 3.687 3.753 6.198 7.573.46.7.676 1.49.665 2.27l2.885-.002a4.928 4.928 0 0 0 4.782-5.07c-.078-2.716-2.346-4.87-5.067-4.78z"/>
  <path d="M10.955 32.044a9.278 9.278 0 0 0 7.032 3.25 9.307 9.307 0 0 0 9.33-9.28 9.273 9.273 0 0 0-3.01-6.866c-.334.285-.698.534-1.066.775-.185 1.13-.992 2.124-2.4 2.234-.44.46-1.07.765-1.9.765-.79 0-1.392-.277-1.834-.696a2.593 2.593 0 0 1-1.59.507c-1.532 0-2.406-1.017-2.63-2.18-.56-.28-1.105-.6-1.61-.973a9.27 9.27 0 0 0-2.57 6.384 9.252 9.252 0 0 0 1.545 5.156c.29.275.53.583.706.924zm10.772 29.613c-1.826-.938-4.75-1.502-5.36-3.38-1.34-3.382 5.483-5.354 4.386-8.36-.73-1.784-4.385-1.69-5.603-3.1-1.157-1.338-.154-2.185-.367-3.757-.244-2.63-1.46-6.065-2.436-6.387s-8.184 2.865-6.578 7.89c1.216 3.85 4.87 3.475-.246 7.14-2.324 1.675-6.436 4.71-4.02 8.076C2.594 61.405 4.306 61 4.67 62.5c.487 1.88-2.19 4.885-2.922 6.67-6.7 18.033 41.418 21.978 31.063 2.066-2.07-4.23-6.333-7.233-11.085-9.583zm40.32-4.622c-.08-1.33-.16-2.705-.9-3.756-1.288-1.93-2.2-1.9-3.34-1.21-.497.302-.824.5-1.565.15-.038-.015-.06-.04-.095-.056-.128-1.63-.216-3.26.545-3.893.543-.45 1.603-.47 3.147-.053.023.007.046 0 .07.005l-.694-1.55c-1.514-.265-2.652-.107-3.416.528-.767.64-1.04 1.607-1.106 2.698-.167-.314-1.052-1.987-4.178-3.042 0 0-1.916-.633-2.59-.787-2.31-.525-3.69-.965-3.45-2.65.21-1.485 2.343-2.367 5.54-.668 2.256 1.045 4.814 2.228 6.4 1.452.103-.05.212-.12.323-.206a5.24 5.24 0 0 1-1.238-.97c-1.136.196-3.37-.78-4.9-1.49-1.764-.86-6.957-2.696-7.608 1.684-.44 3.078 2.652 3.736 4.623 4.204 2.126.505 5.283 1.205 6.147 3.787.226.55.506 1.187 1.045 1.697.106 1.39.17 2.756-.344 3.333-.195.218-.5.332-.934.346-.96.013-1.382-.573-2-1.563-.494-.796-1.055-1.698-2.158-1.96-1.024-.19-1.85.235-2.107.63-.795 1.216-.01 3.307 1.877 6.077l.234.344c1.655 2.207 1.458 2.787 1.403 2.88-.18.435-2.453.345-2.425.347a.672.672 0 0 0 .017 1.344c.026 0 .692.062 1.69-.053.8-.053 1.534-.288 1.915-.924.716-1.203-.35-2.916-1.465-4.4l-.22-.325c-3.418-4.15-1.902-4.69-1.21-4.56.514.12.863.683 1.268 1.332.598.963 1.398 2.3 3.227 2.22.822-.028 1.47-.3 1.925-.81.74-.826.822-2.075.753-3.47 1.06.286 1.78-.14 2.275-.442.524-.316.663-.4 1.467.807.524.742.59 1.863.66 3.05.09 1.536.193 3.276 1.32 4.684a.694.694 0 0 0 .978.11.7.7 0 0 0 .11-.98c-.855-1.06-.94-2.503-1.022-3.896z"/>
</svg>