<?xml version="1.0" encoding="UTF-8" standalone="yes"?>
<svg xmlns="http://www.w3.org/2000/svg" viewBox="0 0 100 100">
  <path d="M56.227 29.043a9.293 9.293 0 0 0 2.777 6.636c2.296-.19 4.305-.504 5.6-.79a4.92 4.92 0 0 1 1.06-.115c1.79 0 3.407 1 4.267 2.5a9.322 9.322 0 0 0 4.95-8.233 9.29 9.29 0 0 0-3.03-6.868l-1.96.85.647-1.856a9.273 9.273 0 0 0-4.983-1.453 9.327 9.327 0 0 0-9.327 9.328z"/>
  <path d="M91.182 47.387c-1.92-3.895-3.35-6.305-4.413-7.83h-1.625s.577-1.35.426-1.537c0 0 0-.003-.002-.004-.178-.182-4.47-.74-4.47-.74l1.937-.96c-1.923-.803-5.39-1.994-8.464-3.012a10.455 10.455 0 0 1-4.302 4.73c.07.194.143.39.188.595a4.928 4.928 0 0 1-3.73 5.867c-.55.122-5.538 1.192-11.737 1.192-1.047 0-2.06-.038-3.052-.1-.74-.534-2.37-3.906-2.37-3.906a3.62 3.62 0 1 0-6.396 3.396s3.916 8.512 8.19 8.878c.09.005.177.008.265.008 1.96 0 3.473-1.284 5.328-3.783v2.125c1.657.25 4.55.816 4.55.816l-4.55 3.22v3.782c0 .985.194 2.403.532 3.247-.023.18-.054 14.067-.054 14.067 1.376 1.25 2.62 2.53 2.51 2.696-.117.176-1.337.174-2.51.128v1.56l-8.895 8.113a4.28 4.28 0 0 0 5.768 6.325l10.29-9.385a4.28 4.28 0 0 0 1.397-3.163v-5.207l-3.16-1.606 3.16-1.774-.002-6.79c.17.008.34.02.51.02.422 0 .84-.032 1.254-.08l3.94 14.672c.14.52.376 1.007.696 1.44l3.897 5.253 2.615-.254-.578 1.27 2.774.81-2.77.928 2.415 3.255a4.272 4.272 0 0 0 3.44 1.73 4.28 4.28 0 0 0 3.434-6.83L79.75 79.94l-1.847-6.874-3.023-.462 2.204-2.588-1.787-6.652a7.32 7.32 0 0 0 .75-3.24V53.43l-3.388-2.08 3.387-.528v-1.09l-2.347-1.04 2.348-.606v-6.633c1.993.69 3.617 1.277 4.315 1.583.81.982 2.744 4.353 4.324 7.555a3.622 3.622 0 0 0 6.495-3.203z"/>
  <path d="M37.224 63.407a6.722 6.722 0 0 0 1.7-3.25l3.23-15.072a4.644 4.644 0 0 1-.023-2.8 4.66 4.66 0 0 1 2.288-2.77 4.687 4.687 0 0 1 6.346 1.944l.706 1.34c.295.56.603 1.142.892 1.668 1.026.064 2.036.093 3.016.093 6.133 0 11.108-1.078 11.504-1.166a3.847 3.847 0 0 0-1.67-7.51c-.09.02-.203.04-.3.06l-.63 2.994-2.172-2.524c-5.395.72-14.247.996-19.34-2.412-.986-1.814-2.666-3.263-4.394-4.1 0 0-.955-.525-2.046-.734-1.043-.198-2.252-.206-2.252-.206l-.03-.002c-3.43.1-7.47 2.012-8.324 5.997l-4.682 21.44c-.375 1.75-.354 3.29.612 4.268-.038.166-.09.324-.11.497l-1.926 16.052L9.45 90.39a4.826 4.826 0 0 0 3.817 7.777 4.82 4.82 0 0 0 3.826-1.878l10.98-14.23c.532-.69.868-1.51.97-2.375l1.038-8.647 3.165 6.996-3.192 15.4a4.826 4.826 0 0 0 4.73 5.81 4.83 4.83 0 0 0 4.723-3.85l3.512-16.938c.207-1 .092-2.04-.33-2.97l-5.464-12.08zM33.33 5.275l2.03 3.472 3.817-1.4-2.006 4.542 3.788.827-2.856 2.528 4.064 2.607-4.28 1.228.2.698 5.822-1.67-4.605-2.956 3.207-2.84-4.316-.942 2.338-5.292-4.852 1.778-2.452-4.19-2.306 5.388.668.286z"/>
  <circle cx="25.246" cy="21.165" r="9.91"/>
</svg>