<?xml version="1.0" encoding="utf-8"?>
<!-- Generator: Adobe Illustrator 16.0.0, SVG Export Plug-In . SVG Version: 6.00 Build 0)  -->
<!DOCTYPE svg PUBLIC "-//W3C//DTD SVG 1.1//EN" "http://www.w3.org/Graphics/SVG/1.1/DTD/svg11.dtd">
<svg version="1.1" id="Layer_1" xmlns="http://www.w3.org/2000/svg" xmlns:xlink="http://www.w3.org/1999/xlink" x="0px" y="0px"
	 width="100px" height="100px" viewBox="0 0 100 100" enable-background="new 0 0 100 100" xml:space="preserve">
<g>
	<polygon points="12.303,20.992 15.105,20.992 17.559,19.24 16.158,17.488 	"/>
	<polygon points="39.299,6.487 41.227,7.713 42.102,7.713 43.328,4.034 38.422,3.159 39.299,4.034 	"/>
	<polygon points="43.209,17.19 41.945,18.982 41.945,22.081 45.32,20.206 47.717,19.165 47.508,16.248 44.238,15.456 43.297,17.598 
			"/>
	<polygon points="38.98,13.667 37.699,13.499 36.799,14.371 37.891,14.848 	"/>
	<polygon points="39.568,9.855 38.469,9.255 38.07,11.477 39.789,11.129 	"/>
	<polygon points="12.414,15.783 11.264,15.319 11.709,17.488 12.777,17.013 	"/>
	<polygon points="13.688,12.068 11.861,9.497 10.934,10.156 10.918,12.101 11.83,13.387 	"/>
	<polygon points="7.557,13.666 7.342,14.608 8.646,14.905 8.752,14.436 8.207,13.814 	"/>
	<polygon points="46.799,7.703 45.6,7.242 44.4,7.703 44.4,9.547 46.129,10.238 	"/>
	<polygon points="32.361,2.439 29.629,2.439 28.428,2.9 28.428,4.744 30.172,3.938 	"/>
	<polygon points="32.361,8.52 35.523,8.63 35.629,4.836 33.561,6.214 32.361,6.676 	"/>
	<path d="M40.566,19.24h-1.287l-4.084-1.222l1.334-1.615l-5.166,1.084l2.197-6.046l-2.197,1.945l-4.055-6.893
		c-0.121,0.036-0.24,0.056-0.361,0.096c-3.898,1.316-6.516,4.686-7.072,8.497l2.861,1.061l-2.959,1.004
		c0.049,0.945,0.217,1.898,0.533,2.839c1.867,5.533,7.867,8.506,13.4,6.637C37.227,25.441,39.703,22.584,40.566,19.24z"/>
	<path d="M88.422,61.694l-11.143-2.8l-1.59,1.62L72.926,57.8l-12.809-3.218c0.111-0.859-1.277-5.373-1.508-6.293l-0.027,0.052
		l-5.381,1.531l3.986-3.39l-3.355-3.576l2.682-0.927l-3.063-9.429c9.227-3.888,23.02-9.246,23.176-9.308
		c2.113-0.82,3.16-3.198,2.34-5.313c-0.818-2.113-3.186-3.17-5.313-2.341c-0.459,0.179-7.5,2.914-14.865,5.888l-0.311,2.679
		l-3.943-0.947c-1.844,0.756-3.629,1.499-5.256,2.191c-1.934-1.236-4.369-1.698-6.494-1.516c0,0-1.162,0.04-2.277,0.444
		c-1.066,0.387-2.18,1.04-2.18,1.04l-0.025,0.014c-3.092,1.963-5.754,5.921-4.365,10.042l0.725,2.146l1.574-1.535l-0.535,4.612
		l3.043,9.014l3.279-3.198l-0.627,5.406l-1.986-0.23l1.992,5.9c0.629,1.859,1.881,3.197,3.436,4.059l5.877,17.276l1.074-0.556
		l2.031,3.928l-2.105-0.438l4.068,11.957c0.994,2.926,4.174,4.49,7.1,3.497c0,0,0.002,0,0.004-0.001
		c2.926-0.996,4.492-4.175,3.496-7.103L58.025,65.6l27.67,6.952c1.084,0.272,2.174,0.209,3.158-0.125
		c1.74-0.591,3.154-2.025,3.635-3.939C93.242,65.488,91.422,62.447,88.422,61.694z"/>
	<rect x="52.699" y="3.815" width="28.117" height="1.051"/>
	<rect x="65.514" y="9.255" width="12.219" height="1.051"/>
	<rect x="54.539" y="14.931" width="12.219" height="1.051"/>
</g>
</svg>
