<svg xmlns="http://www.w3.org/2000/svg" width="100" height="100" viewBox="0 0 100 100"><path d="M28.332 36.692l1.272.823-.87 1.975c.498 2.154 1.476 4.188 3.34 5.625.45.347.98.514 1.507.514.742 0 1.474-.332 1.96-.963.522-.677.61-1.53.357-2.284a6.646 6.646 0 0 0 4.716 1.984 6.685 6.685 0 0 0 6.702-6.667 6.66 6.66 0 0 0-2.163-4.93 7.54 7.54 0 0 1-2.192 1.322 7.542 7.542 0 0 1-2.68.494c-1.65 0-3.21-.56-4.49-1.506a6.66 6.66 0 0 0-1.844 4.585 6.624 6.624 0 0 0 .876 3.29c-2.06-1.998-1.667-6.75-1.36-9.485a6.088 6.088 0 0 0 .643-1.887 6.68 6.68 0 1 0 10.936-7.275h-3.024l1.043-1.405a6.658 6.658 0 0 0-2.797-.627c-3.327-.01-6.082 2.42-6.603 5.6-.232-.472-.48-.872-.48-.872l-.01-.016a6.696 6.696 0 0 0-2.148-1.968l-1.417.387v-.965a4.306 4.306 0 0 0-2.573.148l-7.785 2.958.26 1.413h-1.783v2.388L15.45 26.99l-1.55.59c-2.855 1.083-3.544 4.59-2.545 7.214.16.42.365.825.606 1.207.09.22.196.432.34.632 1.498 2.065 2.946 4.445 3.764 6.104a35.922 35.922 0 0 1-1.645-.177l.78 1.807s-1.057-1.02-2.127-1.994a103.12 103.12 0 0 1-8.166-1.592 2.97 2.97 0 1 0-1.375 5.78c.576.137 1.107.256 1.646.378a162.082 162.082 0 0 0 2.002-2.572l.747 3.163c4.238.853 7.116 1.16 9.088 1.16.393 0 .745-.014 1.07-.037l-.807-2.54 2.965 2.128a3.35 3.35 0 0 0 1.352-.905c.538-.558 1.462-1.525.954-4.007l-1.395-1.025h1.12c-.435-1.39-1.248-3.16-2.66-5.446l1.556-.45c-.03-.937-.024-1.778.117-1.565.126.19.577.7 1.052 1.226l1.323-.383v-.876l.65.687 3.973-1.15a25.79 25.79 0 0 0 .046 2.345z"/><path d="M95.323 35.263L72.5 35.28c-.85-1.5-2.287-2.673-4.258-2.678l-14.317-.038c-.292-.073-1.634.097-1.94.277-1.902.677-3.188 2.554-3.633 4.347 0 0-.212.704-.198 1.453.014.716.18 1.515.18 1.515v.02c.122.497.315 1 .558 1.484-2.872 3.668-8.04 5.217-8.35 5.307a2.596 2.596 0 1 0 1.423 4.99c3.18-.906 7.935-3.268 11.006-7.18.162.017.316.052.485.053l14.755.04c1.847.005 3.287-1.05 4.18-2.506l23.138-.026a3.54 3.54 0 0 0 3.435-3.64c-.057-1.952-1.686-3.5-3.64-3.435z"/><path d="M43.3 63.3c-1.313-.673-3.413-1.078-3.85-2.427-.962-2.43 3.938-3.845 3.15-6.004-.525-1.283-3.15-1.215-4.024-2.227-1.05-1.214-.088-1.417-.263-2.7-.175-1.888-1.14-3.76-1.75-4.086s-5.734 2.065-4.725 5.167c.875 2.766 3.5 2.496-.175 5.127-2.712 1.957-5.163 2.632-2.887 5.802.7.81 2.012.877 2.274 1.957.35 1.348-1.575 3.507-2.1 4.79-4.812 12.952 29.75 15.785 22.312 1.484-1.488-3.037-4.55-5.195-7.963-6.883zM38.312 46.188s-.03.635.323.902c.353.268.662.208.837-.023.175-.23.148-.545-.205-.813s-.955-.066-.955-.066zM37.234 44.962s-.016.36.183.51c.2.152.376.118.475-.013.1-.13.084-.31-.115-.46-.2-.153-.543-.038-.543-.038zM23.452 37.507v-.012l-.01.003zM10.936 40.76c-.116-.077-.208-.126-.256-.126l.256.125z"/></svg>