<svg xmlns="http://www.w3.org/2000/svg" width="100" height="100" viewBox="0 0 100 100"><path d="M5.75 54.735l2.023-.395L9.3 52.728l-1.26-1.07zM24.783 41.058l.632-.123.37-2.833-3.67.06.756.508.347 1.773zM32.105 43.932l-.278-1.433-1.596.098-.885 1.27zM5.094 50.954l-.897-.173.63 1.506.705-.494zM5.49 48.09l-1.68-1.602-.58.608.263 1.407.842.8zM1.286 50.108l-.023.712.984.03.01-.353-.482-.372zM35.827 40.323l.395 2.026 2.047.388.19-2.93-1.416-.248zM4.294 22.474L3.236 24.22l1.17 1.508-.47.022a7.647 7.647 0 0 0 7.76 1.786 7.657 7.657 0 0 0 4.845-9.682 7.658 7.658 0 0 0-12.36-3.292l1.312-.2-2.46 2.71-.48-.435a7.63 7.63 0 0 0-.755 5.257l.654.748 1.844-.168z"/><path d="M52.11 52.91l-1.14-.823-.068 1.588-2.01-3.066c-8.792-6.19-10.71-6.574-11.384-6.707-.994-.2-2.825-.11-5.458.254l-1.756 1.933-1.547-1.405c-1.603.284-3.396.635-5.388 1.055l-.283-.85-1.02 2.062-1.773-.245-3.52.818 1.368-3.093 3.602-1.163-7.132-1.935 6.02-2.883-.304-1.83c1.52.26 3.13.446 4.507.42l-.04-1.574 1.515.896 1.7-.74-.215.94c3.388-.95 7.58-3.08 8.528-3.573.32-.166.6-.383.832-.637.352-.387.582-.86.693-1.363l-1.052-1.443.504-1.005a2.97 2.97 0 0 0-3.718-.826c-2.457 1.277-6.707 3.164-8.465 3.363-1.05.118-3.005-.154-4.926-.54 3.408-1.953 7.25-4.65 10.454-8.175.338-.372.668-.753.988-1.142a2.97 2.97 0 0 0-.4-4.184c-.047-.04-.1-.065-.15-.1l-.326.958-1.11-1.522a2.98 2.98 0 0 0-2.596 1.063 27.387 27.387 0 0 1-1.854 2.02l-.166.596 1.155 1.45-2.04.075-2.16 3.867.45-3.557c-1.6 1.26-5.687 6.046-10.582 6.096 0 0-.84.026-1.647.315a11.08 11.08 0 0 0-1.58.748l-.02.01c-2.242 1.413-4.183 4.272-3.188 7.258l1.47 4.407.147.075 1.64-.864.354 2.015 2.908 2.877-3.996-.944 2.82 8.462c.712 2.14 2.567 3.34 4.633 3.703l2.412 4.096.84-2.115 1.096 3.493-.95.296 2.752 4.672.104.05 1.638-.862-.306 2.02 1.658.943-1.43.676 5.123 8.7a4.054 4.054 0 0 0 6.494.667 4.054 4.054 0 0 0 .488-4.78l-3.252-5.524-1.95.61.934-2.34-7.462-12.668a178.822 178.822 0 0 1 8.076-1.56L30.556 50.8l3.44 1.266c.815-.11 1.476-.177 1.893-.186 1.69.786 7.132 4.446 11.455 7.588a4.056 4.056 0 0 0 5.66-.896 4.054 4.054 0 0 0-.894-5.662z"/><path d="M97.96 34.34c-1.655-2.124-4.828-2-10.596-1.777-1.172.046-2.362.092-3.525.115a7.998 7.998 0 0 0 3.794-6.006 8.01 8.01 0 0 0-7.144-8.796 8.016 8.016 0 0 0-8.8 7.146c-.355 3.465 1.556 6.635 4.53 8.054a8.31 8.31 0 0 0-1.07.484l-25.914.043v-.41h-3.534v.416h-1.427l.004 2.83 13.197-.022c.888.56 2.12 1.088 3.76 1.37.04.112.088.223.142.333.248.485 2.47 4.798 4.49 7.038 1.504 1.667 3.455 2.42 4.942 2.763l-.81 8.388c-.065.624-.028.664.095 1.217-3.866 3.143-7.958 7.354-7.914 11.08.04 3.315 2.27 13.806 2.715 15.876a3.68 3.68 0 0 0 4.37 2.82 3.677 3.677 0 0 0 2.818-4.37c-1.007-4.673-2.42-11.976-2.543-14.19.5-1.178 3.305-4.054 6.085-6.22.345.082.696.147 1.047.184.27.027.543.038.816.038.695 4.54 1.82 9.022 3.648 10.928 2.098 2.188 10.028 10.896 10.11 10.984a3.67 3.67 0 0 0 2.72 1.2c.884 0 1.77-.315 2.475-.957a3.68 3.68 0 0 0 .243-5.195c-.326-.357-7.9-8.672-10.165-11.042-.688-1.105-1.743-5.237-2.275-9.797.38-.237.49-.91.535-1.34l1.273-13.994c-2.722.195-6.248.218-9.52-.474a3.69 3.69 0 0 1-2.837-4.36 3.67 3.67 0 0 1 1.576-2.308l.55-.296a3.643 3.643 0 0 1 2.23-.232c5.122 1.083 12.236-.07 14.208-.808.14-.13.522 1.01.522 1.01-1.918.776-9.536 2.052-14.965.905a2.553 2.553 0 0 0-3.02 1.964c-.282 1.354.586 2.727 1.967 3.018 3.23.684 6.737.642 9.406.438l.002-.023a47.75 47.75 0 0 0 3.677-.455c7.86-1.288 8.4-3.118 8.722-4.21.353-1.183.13-2.406-.613-3.357zm-26.494 7.284c-.37-.15-.723-.354-.975-.635-.574-.636-1.25-1.652-1.87-2.673 1.492.087 2.59.15 3.17.182l-.324 3.124zM43.037 35.28l-.07.004-.232.66-.247-.713-.652.853.663-1.46-.874.407.265-.473-1.362.345 1.085-.555-.61-.422.902.36-.042-.306.37.114.445-1.087.317.494.105-3.01-.984 3.21-.988-2.635.37 2.697-3.12-1.24 2.585 1.782-3.223 1.648 3.48-.88-.39.698.99-.462-1.504 3.31 2.06-2.69.812 2.34z"/></svg>