<?xml version="1.0" encoding="iso-8859-1"?>
<!-- Generator: Adobe Illustrator 17.0.0, SVG Export Plug-In . SVG Version: 6.00 Build 0)  -->
<!DOCTYPE svg PUBLIC "-//W3C//DTD SVG 1.1//EN" "http://www.w3.org/Graphics/SVG/1.1/DTD/svg11.dtd">
<svg version="1.1" id="Capa_1" xmlns="http://www.w3.org/2000/svg" xmlns:xlink="http://www.w3.org/1999/xlink" x="0px" y="0px"
	 width="64px" height="64px" viewBox="0 0 64 64" style="enable-background:new 0 0 64 64;" xml:space="preserve">
<g>
	<path d="M24.738,46.921c-0.001,0.182-0.003,0.358-0.006,0.523c-0.003,0.159-0.004,0.32-0.003,0.477
		c3.241-0.196,6.47-0.711,9.709-0.921c2.909-0.189,6.342-0.287,9.193,0.792c0.383-0.012,0.775-0.032,1.146-0.032
		c0.367,0,0.721,0.007,1.064,0.02c-2.557-1.584-5.814-1.855-8.81-1.868C32.909,45.893,28.84,46.668,24.738,46.921z"/>
	<path d="M17.468,32.374c0.373,0.668,0.778,1.329,1.213,1.98c-0.679-6.723-1.847-13.709-5.91-19.176
		c0.02,0.473,0.061,1.139,0.142,1.964C15.742,21.636,16.84,27.047,17.468,32.374z"/>
	<path d="M7.438,58.688h2c0,0-0.938-21.938-0.625-25c0.046-0.454,0.303-0.659,0.712-0.659c2.351,0,9.744,6.782,11.288,12.159
		c1.659,5.777,2.848,15.062,14.295,15.062c1.061,0,2.209-0.08,3.455-0.249c14.688-2,22.375-3.062,22.188-4.625s-4.875-3-9.938-5.562
		c-0.971-0.491-2.178-0.763-3.518-0.911c-0.559-0.061-1.141-0.101-1.748-0.118c-0.258-0.007-0.505-0.024-0.77-0.024
		c-5.255,0-11.885,1.307-16.99,1.307c-0.16,0-0.317-0.001-0.474-0.004c-3.246-0.055-3.575-0.645-3.586-2.093
		c-0.002-0.297,0.009-0.632,0.011-1.005c0.012-1.97-0.229-5.028-4.05-9.59c-0.283-0.337-0.553-0.68-0.816-1.026
		c-0.408-0.537-0.792-1.083-1.155-1.635c-4.905-7.477-5.779-16.147-5.933-19.2c-0.037-0.724-0.034-1.139-0.034-1.139
		s-0.014-0.135,0.099-0.348c0.423-0.797,2.65-2.69,14.267-2.69c2.943,0,6.487,0.122,10.759,0.413c0,0,0.374,0.214,0.857,0.214
		c0.915,0,2.225-0.765,2.143-5.195c0,0,2.773-2.128-8.633-2.128c-3.521,0-8.394,0.203-15.117,0.734c0,0-5,8.438-9.812,13.25
		s-2.875,7.25-2.375,11.062S7.438,58.688,7.438,58.688z M8.431,18.934c0.779,0.415,1.783,11.236,1.783,11.236l-5.156-4.072
		C4.366,22.271,8.431,18.934,8.431,18.934z"/>
</g>
</svg>
