<?xml version="1.0" encoding="iso-8859-1"?>
<!-- Generator: Adobe Illustrator 17.0.0, SVG Export Plug-In . SVG Version: 6.00 Build 0)  -->
<!DOCTYPE svg PUBLIC "-//W3C//DTD SVG 1.1//EN" "http://www.w3.org/Graphics/SVG/1.1/DTD/svg11.dtd">
<svg version="1.1" id="Capa_1" xmlns="http://www.w3.org/2000/svg" xmlns:xlink="http://www.w3.org/1999/xlink" x="0px" y="0px"
	 width="64px" height="64px" viewBox="0 0 64 64" style="enable-background:new 0 0 64 64;" xml:space="preserve">
<g>
	<path d="M40.182,46.937c-4.681,0-9.118-0.851-13.187-2.529c-4.929-2.033-9.306-3.064-13.009-3.065c-2.348,0-3.984,0.39-5.299,0.704
		c-0.837,0.2-1.499,0.358-2.123,0.358c-0.631,0-1.155-0.178-1.601-0.52v5.416c0,0,5.587,1.179,11.993,0.718
		c0,0-0.461-2.823,4.151-1.873c4.613,0.95,23.342,8.044,39.721-1.459c0,0,0.569-1.753-0.386-2.856l0.02,0.095l-0.66,0.354
		C59.448,42.47,51.006,46.937,40.182,46.937z"/>
	<path d="M3.543,16.999c0.025,0.013,0.05,0.027,0.075,0.04c0.125,0.066,0.255,0.135,0.385,0.206c0.154,0.084,0.308,0.174,0.46,0.269
		c-0.21,0.14-0.339,0.38-0.302,0.666c0.187,1.471,0.575,4.708,0.723,7.374c0.186,3.347-1.878,11.629,0.078,14.837
		c0.132,0.216,0.281,0.41,0.451,0.577c0.323,0.317,0.693,0.435,1.15,0.435c1.366,0,3.502-1.062,7.423-1.062
		c3.143,0,7.433,0.682,13.391,3.14c4.367,1.801,8.747,2.454,12.805,2.454c10.697,0,19.148-4.538,19.148-4.538
		c-0.021-0.102-0.059-0.195-0.091-0.291c-1.718-5.24-18.105-2.047-20.054-5.068c-1.985-3.076-6.252-4.862-6.748-6.649
		c-0.496-1.786-4.168-6.152-4.168-6.152v-6.649c0,0-1.588-1.588-3.881-1.588c-1.147,0-2.47,0.397-3.859,1.588
		c-1.631,1.398-3.55,1.823-5.283,1.823c-2.695,0-4.938-1.029-4.938-1.029h-2.91c-0.017-0.163-0.038-0.33-0.063-0.5
		c-0.024-0.166-0.053-0.333-0.086-0.5c-0.171-0.855-0.469-1.704-0.988-2.248c-0.706-0.738-1.72-0.852-2.813-0.269
		c-0.684,0.365-1.383,0.836-1.381,1.569C2.068,16.196,2.744,16.576,3.543,16.999z M4.154,15.191c0.245-0.131,0.465-0.2,0.634-0.2
		c0.106,0,0.235,0.021,0.388,0.181c0.241,0.253,0.414,0.697,0.539,1.213c0.016,0.065,0.034,0.127,0.048,0.194
		c-0.099-0.073-0.199-0.128-0.299-0.194c-0.398-0.262-0.798-0.488-1.144-0.671c-0.172-0.091-0.381-0.201-0.546-0.299
		C3.865,15.354,3.988,15.279,4.154,15.191z"/>
</g>
</svg>
