<?xml version="1.0" encoding="iso-8859-1"?>
<!-- Generator: Adobe Illustrator 17.0.0, SVG Export Plug-In . SVG Version: 6.00 Build 0)  -->
<!DOCTYPE svg PUBLIC "-//W3C//DTD SVG 1.1//EN" "http://www.w3.org/Graphics/SVG/1.1/DTD/svg11.dtd">
<svg version="1.1" id="Capa_1" xmlns="http://www.w3.org/2000/svg" xmlns:xlink="http://www.w3.org/1999/xlink" x="0px" y="0px"
	 width="64px" height="64px" viewBox="0 0 64 64" style="enable-background:new 0 0 64 64;" xml:space="preserve">
<g>
	<path d="M55.529,53.813c-8.104-3.351-10.955-2.964-12.63-8.635c-1.675-5.671-0.902-30.028-0.902-30.028
		C37.854,7.671,18.304,2.966,14.16,2.043c-0.189-0.161-0.448-0.24-0.725-0.157c-0.03-0.006-0.049-0.01-0.049-0.01
		s0.002,0.009,0.004,0.027c-0.031,0.011-0.062,0.02-0.094,0.036c-3.551,1.758-0.668,7.583-0.259,10.803
		c-0.214,0.531-0.481,1-0.811,1.378c-2.706,3.093-6.186,6.702-8.248,10.439c-2.062,3.737,1.933,6.315,3.866,13.532
		c1.933,7.217,0.644,21.651,0.644,21.651h2.32c0,0-0.129-1.804,0-18.043C10.937,25.46,21.634,46.596,24.211,54.2
		c2.578,7.604,6.444,8.248,11.986,7.862c5.542-0.387,11.728-1.547,18.301-2.191C61.07,59.226,63.632,57.164,55.529,53.813z
		 M13.801,8.5c-0.326-1.284-1.235-3.746-0.187-4.877C13.75,4.893,13.879,6.695,13.801,8.5z"/>
</g>
</svg>
