<?xml version="1.0" encoding="iso-8859-1"?>
<!-- Generator: Adobe Illustrator 17.0.0, SVG Export Plug-In . SVG Version: 6.00 Build 0)  -->
<!DOCTYPE svg PUBLIC "-//W3C//DTD SVG 1.1//EN" "http://www.w3.org/Graphics/SVG/1.1/DTD/svg11.dtd">
<svg version="1.1" id="Capa_1" xmlns="http://www.w3.org/2000/svg" xmlns:xlink="http://www.w3.org/1999/xlink" x="0px" y="0px"
	 width="64px" height="64px" viewBox="0 0 64 64" style="enable-background:new 0 0 64 64;" xml:space="preserve">
<g>
	<path d="M62.271,51.51c-2.104-0.551-4.249-0.662-6.409-0.72c-1.774-2.829-1.279-3.457-1.279-3.457c-0.458-1.64,1.321-2.917,0-3.172
		c-1.321-0.255-2.242-1.932-3.883,2.17c-0.452,1.128-1.842,2.318-3.618,3.45c-0.157,1.015-0.297,2.524-0.346,4.705
		c-0.004,0.166-0.009,0.32-0.012,0.494c-0.002,0.16-0.002,0.34-0.003,0.507c-0.007,0.799-0.002,1.676,0.018,2.643
		c0,0.003,0,0.006,0,0.009c0.003,0.163,0.008,0.333,0.012,0.501c0.004,0.166,0.007,0.324,0.012,0.495
		c6.604-0.345,13.395-1.515,14.187-2.38c0.683-0.744,2.516-3.937,2.102-4.879C62.921,51.576,62.614,51.437,62.271,51.51z
		 M56.54,51.809c1.291,0.043,2.575,0.118,3.846,0.321c-0.879,0.281-1.882,0.579-2.989,0.866
		C57.078,52.57,56.794,52.176,56.54,51.809z"/>
	<path d="M7.503,57.057l0.047,0.412l3.216,0.238l-0.016-0.554c-0.004-0.147-0.42-14.808-0.668-19.264
		c-0.042-0.752-0.147-1.519-0.251-2.26c-0.236-1.708-0.46-3.322,0.209-4.09c0.804-0.923,3.09-0.742,6.872,0.535
		c5.134,1.735,7.468,8.026,9.726,14.109c0.3,0.81,0.599,1.612,0.902,2.398c0.146-0.034,0.308-0.072,0.491-0.116
		c0.151-0.036,0.316-0.076,0.491-0.118c0.687-0.167,1.546-0.383,2.521-0.643c0.162-0.043,0.326-0.087,0.494-0.132
		c0.165-0.045,0.335-0.091,0.506-0.138c-0.27-0.468-0.525-0.952-0.75-1.466c-5.353-12.247-11.374-16.221-13.726-17.366
		c-2.466-5.606-5.002-13.476-5.002-13.476l2.25-3.219c0.343,0.153,0.707,0.3,1.08,0.445c-2.344,5.761,0.627,11.091,4.333,15.774
		c2.372,2.997,5.062,5.731,7.265,8.862c2.312,3.285,3.741,6.935,6.411,9.916c0.124,0.138,0.261,0.27,0.39,0.406
		c0.13,0.136,0.256,0.275,0.392,0.408c-0.72,0.216-1.42,0.418-2.086,0.603c-0.171,0.048-0.339,0.094-0.505,0.139
		c-0.176,0.048-0.35,0.095-0.52,0.141c-1.03,0.277-1.945,0.508-2.68,0.688c-0.175,0.043-0.338,0.082-0.491,0.119
		c-0.18,0.043-0.345,0.082-0.493,0.117c-0.562,0.131-0.887,0.202-0.887,0.202c2.901,6.309,3.561,6.532,5.796,8.412
		c1.34,1.127,5.728,1.353,9.028,1.353c2.205,0,3.925-0.101,3.925-0.101c-0.002-0.071-0.003-0.137-0.005-0.207
		c-0.005-0.169-0.009-0.333-0.013-0.497c-0.004-0.169-0.008-0.337-0.012-0.501c-0.001-0.062-0.002-0.121-0.003-0.182
		c-0.017-0.92-0.022-1.766-0.016-2.539c0.001-0.17,0.003-0.335,0.006-0.498c0.003-0.171,0.006-0.337,0.01-0.501
		c0.038-1.692,0.131-3.005,0.25-4.017c0.354-3.011,0.933-3.394,0.933-3.394c0.976-2.395,4.524-2.192,3.105-3.701
		c-0.797-0.846-0.448-1.728-1.038-1.728c-0.462,0-1.499,0.54-4.107,2.058c-2.454,1.428-5.925,2.707-9.156,3.716
		c-0.025-0.058-0.063-0.115-0.119-0.168c-0.085-0.08-0.159-0.166-0.242-0.247c-0.135-0.131-0.263-0.266-0.392-0.401
		c-2.575-2.686-4.083-5.958-5.99-9.143c-1.511-2.523-3.566-4.737-5.477-6.955c-4.269-4.954-9.445-11.047-6.66-17.783
		c8.333,2.904,22.115,3.903,22.345,2.925c0.25-1.062,0-1.625,0-1.625c-14.375-0.562-26.062-5.812-26.062-5.812
		c-0.625,2.75-5,6.125-4.688,7.125S8.812,15,9.25,21.625c0.026,0.395,0.09,0.784,0.183,1.168l-0.597-0.449
		c-0.074-0.36-0.124-0.692-0.15-1.01c-0.192-2.34-0.512-3.866-0.723-4.876c-0.346-1.654-0.399-1.908,0.446-2.722
		c1.63-1.569,4.129-4.744,5.011-7.042c2.573,1.191,14.304,6.314,25.766,6.37l0.502,0.002V9.703l-0.416-0.071
		c-9.335-1.593-23.724-4.73-25.103-6.843c-0.312-0.479-0.764-0.732-1.304-0.732c-3.291,0-9.6,10.358-10.605,15.28
		c-0.628,3.072-0.652,4.629-0.081,5.672c0.102,0.454,0.245,0.958,0.417,1.562c0.383,1.339,0.906,3.173,1.412,6.077
		C5.405,38.687,7.482,56.874,7.503,57.057z"/>
</g>
</svg>
