<?xml version="1.0" encoding="iso-8859-1"?>
<!-- Generator: Adobe Illustrator 17.0.0, SVG Export Plug-In . SVG Version: 6.00 Build 0)  -->
<!DOCTYPE svg PUBLIC "-//W3C//DTD SVG 1.1//EN" "http://www.w3.org/Graphics/SVG/1.1/DTD/svg11.dtd">
<svg version="1.1" id="Capa_1" xmlns="http://www.w3.org/2000/svg" xmlns:xlink="http://www.w3.org/1999/xlink" x="0px" y="0px"
	 width="64px" height="64px" viewBox="0 0 64 64" style="enable-background:new 0 0 64 64;" xml:space="preserve">
<g>
	<path d="M16.891,44.295c0,0,1.814-2.12,3.575-2.234c1.761-0.114,10.619,3.491,19.531,2.516c8.912-0.976,16.703-4.017,21.398-7.646
		c0,0,0.587-0.961,0.107-2.775L61.1,34.193c-1.182,0.926-11.05,8.343-23.832,8.343c-0.91,0-1.826-0.039-2.722-0.115
		c-6.167-0.527-9.476-1.332-11.452-1.813c-1.066-0.259-1.77-0.431-2.342-0.431c-0.74,0-1.42,0.296-2.912,1.266l-0.28,0.182
		l-0.333-0.023L2.599,40.597c-0.264,0.938-0.483,2.294,0.098,3.164C3.657,45.202,16.891,44.295,16.891,44.295z"/>
	<path d="M2.933,39.618l14.362,0.987c1.609-1.046,2.463-1.428,3.457-1.428c1.928,0,4.382,1.436,13.879,2.248
		c0.891,0.076,1.769,0.112,2.636,0.112c10.208,0,18.622-4.951,21.871-7.162c0.934-0.636,1.444-1.047,1.444-1.047
		s-2.312-2.665-8.195-2.665c-2.675,0-4.936,0.106-6.677,0.106c-2.089,0-3.428-0.153-3.829-0.823
		c-0.736-1.23-5.569-2.665-5.569-2.665c-1.506-3.325-8.035-3.733-11.151-3.733c-1.015,0-1.667,0.043-1.667,0.043v3.382
		c-2.417,1.913-5.23,2.551-7.907,2.551c-5.354,0-10.164-2.551-10.164-2.551c-4.833,4.612-3.047,12.607-3.047,12.607L2.933,39.618z
		 M26.939,30.254l2.095-3.564c0.148-0.251,0.385-0.43,0.667-0.503c0.28-0.074,0.575-0.032,0.826,0.116l1.46,0.858
		c0.156-0.167,0.406-0.218,0.612-0.097c0.206,0.121,0.283,0.364,0.213,0.582l1.46,0.858c0.519,0.306,0.692,0.976,0.387,1.493
		l-2.095,3.563c-0.147,0.251-0.384,0.43-0.666,0.503c-0.091,0.023-0.184,0.035-0.276,0.035c-0.192,0-0.381-0.051-0.55-0.15
		l0.253-0.431l0.253-0.431c0.038,0.022,0.103,0.005,0.124-0.032l2.095-3.563c0.025-0.043,0.011-0.099-0.032-0.125l-1.441-0.847
		l-0.894,1.52c-0.093,0.159-0.26,0.247-0.432,0.247c-0.086,0-0.173-0.022-0.253-0.069c-0.238-0.14-0.317-0.447-0.178-0.685
		l0.894-1.52l-1.442-0.848l-0.124,0.032l-2.095,3.563c-0.025,0.043-0.011,0.099,0.032,0.124l-0.253,0.431l-0.253,0.431
		C26.809,31.441,26.635,30.772,26.939,30.254z"/>
</g>
</svg>
