<?xml version="1.0" encoding="iso-8859-1"?>
<!-- Generator: Adobe Illustrator 17.0.0, SVG Export Plug-In . SVG Version: 6.00 Build 0)  -->
<!DOCTYPE svg PUBLIC "-//W3C//DTD SVG 1.1//EN" "http://www.w3.org/Graphics/SVG/1.1/DTD/svg11.dtd">
<svg version="1.1" id="Capa_1" xmlns="http://www.w3.org/2000/svg" xmlns:xlink="http://www.w3.org/1999/xlink" x="0px" y="0px"
	 width="64px" height="64px" viewBox="0 0 64 64" style="enable-background:new 0 0 64 64;" xml:space="preserve">
<g>
	<path d="M9.948,61.18h2.508c0,0-0.738-20.16,2.213-25.619c2.951-5.46,10.181,13.723,17.559,22.95
		c7.378,9.227,26.117-1.01,26.117-1.01v-7.11c-1.771-4.058-10.476-3.172-10.624-7.747c-0.148-4.574-3.984-7.788-3.984-7.788
		c0.885-5.279-2.213-8.886-2.213-8.886c1.033-3.984-1.18-9.413-1.18-9.413c0.443-3.068-0.443-5.933-1.623-11.393
		s-4.869-3.099-10.034-2.804c-4.043,0.231-9.081-0.442-11.078-0.745c-0.483-0.073-0.897,0.256-0.943,0.743
		c-0.15,1.585-0.601,5.068-1.821,8.49h3.07c0.847,0,1.536,0.688,1.536,1.535v6.515c0,0.847-0.689,1.535-1.536,1.535h-6.197
		c-0.847,0-1.535-0.688-1.535-1.535v-0.425c-2.735,3.455-4.182,6.244-2.153,17.803C10.539,50.568,9.948,61.18,9.948,61.18z
		 M44.089,40.225l0.717,1.705c0.263-0.011,0.517,0.136,0.626,0.393c0.108,0.257,0.034,0.541-0.157,0.722l0.475,1.129
		c0.263,0.627-0.034,1.351-0.66,1.614l-3.755,1.578c-0.155,0.065-0.316,0.096-0.476,0.096c-0.48,0-0.938-0.283-1.137-0.754
		l0.599-0.252l0.599-0.252c-0.015-0.034-0.053-0.052-0.089-0.036l3.756-1.579l-0.447-1.017l-1.554,0.653
		c-0.082,0.035-0.168,0.051-0.252,0.051c-0.254,0-0.495-0.15-0.6-0.398c-0.139-0.331,0.017-0.712,0.348-0.851l1.535-0.645
		l-0.725-1.651l-3.667,1.615l-0.549,0.196l-0.613,0.219c-0.128-0.303-0.13-0.639-0.006-0.943s0.359-0.543,0.663-0.67l3.756-1.579
		C43.101,39.307,43.825,39.6,44.089,40.225z M40.673,32.984c0.282-0.037,0.565,0.107,0.681,0.382
		c0.115,0.275,0.019,0.577-0.204,0.753l0.561,1.335c0.279,0.664-0.034,1.431-0.698,1.71l-4.236,1.78
		c-0.165,0.069-0.336,0.103-0.505,0.103c-0.51,0-0.995-0.301-1.205-0.8l0.599-0.253l0.599-0.252
		c0.002,0.003,0.004,0.004,0.007,0.004c0,0,0.001,0,0.002,0l4.236-1.78l-0.549-1.31l-1.773,0.745
		c-0.082,0.035-0.168,0.051-0.252,0.051c-0.254,0-0.495-0.15-0.6-0.398c-0.139-0.331,0.017-0.712,0.348-0.851l1.774-0.746
		l-0.818-1.953l-4.846,2.037l-0.598,0.252c-0.28-0.664,0.033-1.431,0.697-1.711l4.235-1.78c0.322-0.136,0.678-0.137,1.002-0.005
		c0.323,0.132,0.575,0.383,0.709,0.705L40.673,32.984z M38.732,21.219l0.408,1.932c0.279,0.022,0.524,0.215,0.585,0.504
		c0.061,0.288-0.085,0.563-0.331,0.697l0.407,1.931c0.075,0.354,0.007,0.715-0.19,1.018s-0.501,0.511-0.854,0.585l-4.814,1.017
		c-0.094,0.02-0.188,0.029-0.28,0.029c-0.626,0-1.189-0.438-1.323-1.074l0.636-0.134l0.636-0.134
		c0.006,0.025,0.035,0.045,0.063,0.041l4.814-1.017l-0.391-1.951l-1.969,0.416c-0.046,0.01-0.091,0.014-0.136,0.014
		c-0.301,0-0.57-0.209-0.635-0.516c-0.074-0.351,0.15-0.696,0.501-0.77l1.983-0.419l-0.38-1.899l-4.88,0.976l-0.676,0.172
		l-0.635,0.161c-0.075-0.354-0.009-0.715,0.188-1.019s0.501-0.512,0.855-0.586l4.815-1.016
		C37.863,20.022,38.577,20.49,38.732,21.219z M29.565,11.544c0.197-0.303,0.501-0.511,0.854-0.585l4.815-1.016
		c0.724-0.158,1.449,0.313,1.603,1.044l0.407,1.931c0.28,0.022,0.525,0.214,0.586,0.504c0.061,0.289-0.086,0.564-0.332,0.697
		l0.407,1.931c0.075,0.352,0.009,0.713-0.188,1.017s-0.5,0.512-0.854,0.587l-4.816,1.017c-0.093,0.02-0.187,0.029-0.278,0.029
		c-0.626,0-1.189-0.437-1.325-1.072l0.636-0.136l0.635-0.136c0.007,0.03,0.033,0.051,0.064,0.042l4.815-1.016l-0.392-1.952
		l-1.969,0.416c-0.046,0.01-0.091,0.014-0.136,0.014c-0.301,0-0.57-0.209-0.635-0.516c-0.074-0.351,0.15-0.696,0.501-0.77
		l1.983-0.419l-0.381-1.899l-4.879,0.976l-0.677,0.171l-0.635,0.161C29.3,12.208,29.368,11.847,29.565,11.544z"/>
	<path d="M11.719,19.134h6.197c0.13,0,0.235-0.105,0.235-0.235v-6.515c0-0.13-0.105-0.235-0.235-0.235h-3.57h-2.627
		c-0.13,0-0.234,0.105-0.234,0.235v2.607h1.378h1.365c0.359,0,0.65,0.291,0.65,0.65s-0.291,0.65-0.65,0.65h-2.301h-0.442v0.562
		v2.045C11.484,19.028,11.589,19.134,11.719,19.134z"/>
</g>
</svg>
