<?xml version="1.0" encoding="iso-8859-1"?>
<!-- Generator: Adobe Illustrator 17.0.0, SVG Export Plug-In . SVG Version: 6.00 Build 0)  -->
<!DOCTYPE svg PUBLIC "-//W3C//DTD SVG 1.1//EN" "http://www.w3.org/Graphics/SVG/1.1/DTD/svg11.dtd">
<svg version="1.1" id="Capa_1" xmlns="http://www.w3.org/2000/svg" xmlns:xlink="http://www.w3.org/1999/xlink" x="0px" y="0px"
	 width="64px" height="64px" viewBox="0 0 64 64" style="enable-background:new 0 0 64 64;" xml:space="preserve">
<g>
	<path d="M11.643,49.86h-0.071C11.597,50.078,11.643,49.86,11.643,49.86z"/>
	<path d="M9.4,49.86h2.172c-0.043-0.378-0.021-2.062,0.416-8.453c0.69-10.092,12.076,1.553,18.546,7.073
		c6.469,5.521,22.341,0.69,28.811-1.639c6.469-2.329-3.709-6.815-6.728-7.332c-1.638-0.281-2.262-0.761-2.984-0.717
		c-2.537-1.194-5.122-0.956-7.869-0.661c-1.858,0.199-3.65,0.292-5.484-0.156c-2.13-0.521-4.114-2.163-5.778-3.501
		c-5.302-4.262-10.705-8.672-16.765-11.849c-1.603-1.585-2.611-2.611-2.611-2.611s-3.105-4.658-5.434-0.863
		C3.362,22.947,0.688,27.95,4.225,34.17C7.761,40.39,9.4,49.86,9.4,49.86z M30.401,35.714c2.055,1.652,4.571,3.399,7.295,3.581
		c3.503,0.234,7.23-1.057,10.607,0.068c-0.372,0.257-0.816,0.611-1.379,1.095c-3.105,2.674-6.47,1.811-11.818,0.172
		c-3.466-1.062-12.508-9.403-18.445-15.145C21.513,28.49,25.987,32.166,30.401,35.714z"/>
</g>
</svg>
