<?xml version="1.0" encoding="iso-8859-1"?>
<!-- Generator: Adobe Illustrator 17.0.0, SVG Export Plug-In . SVG Version: 6.00 Build 0)  -->
<!DOCTYPE svg PUBLIC "-//W3C//DTD SVG 1.1//EN" "http://www.w3.org/Graphics/SVG/1.1/DTD/svg11.dtd">
<svg version="1.1" id="Capa_1" xmlns="http://www.w3.org/2000/svg" xmlns:xlink="http://www.w3.org/1999/xlink" x="0px" y="0px"
	 width="64px" height="64px" viewBox="0 0 64 64" style="enable-background:new 0 0 64 64;" xml:space="preserve">
<g>
	<path d="M57.077,53.621c1.704-0.277,3.314-0.845,3.756-1.996c0.543-1.412-1.699-2.184-3.97-2.601
		c0.247,0.546,0.446,1.089,0.572,1.613C57.742,51.907,57.609,52.938,57.077,53.621z"/>
	<path d="M19.408,11.217c2.639,1.092,5.132,2.123,8.604,3.068c2.243,0.61,7.64,2.326,11.236,5.476
		c-0.463-0.915-0.862-1.935-0.915-3.261C38.167,12.333,36,11.917,36,11.917s-8.333-0.333-12.917-2.5
		C18.5,7.25,11.917,5.5,11.917,5.5s-0.287,0.91-1.132,2.74c0.897,0.117,1.946,0.389,3.138,0.819
		C16.031,9.82,17.748,10.53,19.408,11.217z"/>
	<path d="M11.167,55.167c2.583,1.25,6.5,0.333,6.5,0.333S16.75,52.333,14.5,41c-1.885-9.496,3.426-10.503,8.793-2.494
		c0.026-0.209,0.063-0.414,0.12-0.614c0.042-0.147,3.962-14.834-4.631-19.383c-2.74-1.45-4.934-2.423-6.697-3.204
		c-1.643-0.728-2.987-1.327-3.908-2.013c-0.189,0.337-0.386,0.683-0.593,1.042c-3.417,5.917-2.333,11.5-2.333,11.5
		C2.417,36.167,11.167,55.167,11.167,55.167z"/>
	<path d="M29.092,49.494c1.898,3.162,3.589,4.875,4.939,5.794c0.035-0.038,0.056-0.075,0.102-0.113
		c1.204-1.003,1.712-4.217,1.9-6.871c-3.346,0.879-5.097,1.254-6.243,1.254C29.529,49.558,29.303,49.532,29.092,49.494z"/>
	<path d="M38.152,47.738c-0.379,0.102-0.745,0.2-1.093,0.293c-0.15,2.567-0.617,6.149-2.032,7.67
		c0.35,0.071,1.036,0.149,2.344,0.151c0.018,0,0.033,0,0.051,0c0.001,0,0.001,0,0.002,0c4.802,0,13.279-0.981,17.004-1.996
		c0.782-0.213,1.369-0.428,1.652-0.635c0.703-0.515,0.542-1.693,0.384-2.35c-0.151-0.626-0.437-1.326-0.823-2.042
		c-0.83-1.539-2.146-3.146-3.727-4.266l-0.375,0.018c-0.089,0.004-2.279,0.136-11.611,2.674
		C39.297,47.428,38.711,47.587,38.152,47.738z"/>
	<path d="M8.661,12.417c1.473,1.183,4.931,2.213,10.589,5.208c8.5,4.5,5.875,17.917,5.125,20.542c-0.181,0.632-0.151,1.349,0.01,2.1
		c0.508,2.366,2.354,5.086,3.303,6.686c0.011,0.019,0.02,0.035,0.031,0.053c0.577,0.981,0.797,1.552,2.07,1.552
		c1.071,0,2.895-0.405,6.302-1.304c0.165-0.043,0.331-0.087,0.503-0.133c0.166-0.044,0.34-0.091,0.513-0.137
		c0.366-0.098,0.748-0.201,1.147-0.309c0.451-0.122,0.916-0.248,1.412-0.383c6.294-1.712,9.384-2.34,10.791-2.571
		c0.418-0.069,0.688-0.104,0.846-0.12c0.133-0.014,0.197-0.017,0.197-0.017s-0.418-0.576-2.052-1.269
		c-0.18-0.076-0.362-0.153-0.573-0.231c-2.125-0.792-4.875-3.292-5.167-5.792c-0.292-2.5-2.458-2.917-2-9.292
		c0.105-1.455-0.288-2.771-0.997-3.964c-2.396-4.034-8.589-6.596-12.962-7.786C22.083,13.708,19.125,12,13.583,10
		c-1.414-0.51-2.459-0.734-3.256-0.799c-0.164-0.013-0.333-0.029-0.475-0.029c-1.875,0-1.936,1.078-1.936,1.078
		C7.673,11.19,7.921,11.823,8.661,12.417z"/>
</g>
</svg>
