<?xml version="1.0" encoding="iso-8859-1"?>
<!-- Generator: Adobe Illustrator 17.0.0, SVG Export Plug-In . SVG Version: 6.00 Build 0)  -->
<!DOCTYPE svg PUBLIC "-//W3C//DTD SVG 1.1//EN" "http://www.w3.org/Graphics/SVG/1.1/DTD/svg11.dtd">
<svg version="1.1" id="Capa_1" xmlns="http://www.w3.org/2000/svg" xmlns:xlink="http://www.w3.org/1999/xlink" x="0px" y="0px"
	 width="64px" height="64px" viewBox="0 0 64 64" style="enable-background:new 0 0 64 64;" xml:space="preserve">
<g>
	<path d="M42.328,20.576c0.062-1.785-0.182-3.737-0.591-5.428c-0.644-2.661-0.619-0.589-4.236-0.255
		c-1.684,0.155-2.671,0.65-3.251,1.134C40.497,16.093,41.742,17.44,42.328,20.576z"/>
	<path d="M7.266,27.418c4.267,11.265,3.396,27.739,3.175,30.96l1.949-0.046c0.023-2.626,0.123-15.478-0.003-27.51
		c-0.024-2.343,0.258-3.731,0.89-4.37c0.258-0.261,0.58-0.398,0.93-0.398c3.492,0,10.303,15.801,11.321,20.361
		c0.26,1.164,0.428,2.317,0.591,3.432c0.787,5.397,1.408,9.66,11.265,10.965c1.582,0.209,3.169,0.315,4.718,0.315
		c9.961,0,15.77-4.155,16.296-5.735c0.785-2.356,1.287-4.817,2.046-8.542c0.323-1.588-2.893-2.849-6.004-4.068
		c-3.272-1.282-6.655-2.608-7.412-4.764c-0.205-0.585-0.453-1.213-0.722-1.867c-1.202,0.309-2.37,0.715-3.471,1.327
		c-0.564,0.314-1.068-0.55-0.505-0.863c1.138-0.633,2.344-1.064,3.587-1.392c-0.209-0.491-0.423-0.99-0.645-1.503
		c-0.152-0.352-0.307-0.71-0.462-1.071c-1.144,0.304-2.258,0.698-3.308,1.282c-0.564,0.314-1.068-0.55-0.505-0.863
		c1.087-0.604,2.237-1.022,3.42-1.345c-0.417-0.989-0.827-2.001-1.203-3.024c-1.081,0.298-2.133,0.679-3.129,1.232
		c-0.564,0.314-1.068-0.55-0.505-0.863c1.05-0.584,2.161-0.992,3.302-1.312c-0.343-1.002-0.641-2.006-0.871-3.001
		c-1.009,0.291-1.993,0.658-2.926,1.176c-0.564,0.314-1.068-0.55-0.505-0.863c1.028-0.572,2.115-0.975,3.231-1.292
		c-0.011-0.058-0.021-0.117-0.031-0.175c-0.035-0.201-0.079-0.405-0.107-0.605l-0.098-0.724c-0.523-3.929-0.699-5.253-7.801-5.253
		c-0.092,0-0.19,0.001-0.284,0.002c-0.894,0.005-1.885,0.03-3.027,0.08C18.859,17.608,13.259,4.06,13.205,3.925
		c-0.08-0.159-0.223-0.388-0.37-0.388c-0.673,0-2.308,1.993-4.378,4.516C7.9,8.733,7.288,9.48,6.614,10.289
		c-4.067,4.88-4.067,4.88-0.668,13.686C6.341,25,6.782,26.141,7.266,27.418z"/>
</g>
</svg>
