<?xml version="1.0" encoding="iso-8859-1"?>
<!-- Generator: Adobe Illustrator 17.0.0, SVG Export Plug-In . SVG Version: 6.00 Build 0)  -->
<!DOCTYPE svg PUBLIC "-//W3C//DTD SVG 1.1//EN" "http://www.w3.org/Graphics/SVG/1.1/DTD/svg11.dtd">
<svg version="1.1" id="Capa_1" xmlns="http://www.w3.org/2000/svg" xmlns:xlink="http://www.w3.org/1999/xlink" x="0px" y="0px"
	 width="64px" height="64px" viewBox="0 0 64 64" style="enable-background:new 0 0 64 64;" xml:space="preserve">
<g>
	<path d="M17.143,12.046c0.175,0.062,0.351,0.126,0.523,0.2c3.5,1.495,11.833,2.255,17.667,3.588
		c5.833,1.333,3.917-0.583,4.583-2.417c0.667-1.833-1.083-1.833-4.083-2.5c-3-0.667-3.25,0-13.667-2.167
		c-2.05-0.426-3.754-0.565-5.185-0.524c-1.224-3.591-5.398-3.976-5.398-3.976c-0.5,3-2.083,5.583-3,8.5
		c-0.917,2.917-3.5,6.5-4.917,10.083c-0.897,2.268-1.287,4.235-0.062,5.902c0.327-0.16,0.763-0.248,1.348-0.248
		c1.622,0,4.352,0.601,8.115,1.786c0.058,0.003,0.677,0.078,1.674,0.445c-0.105-0.424-0.206-0.856-0.289-1.302
		c-0.174-0.923-0.173-2.131-0.032-3.599c0.42,0.114,0.838,0.253,1.247,0.428c3.5,1.495,11.833,2.255,17.667,3.588
		c5.833,1.333,3.917-0.583,4.583-2.417c0.667-1.833-1.083-1.833-4.083-2.5c-3-0.667-3.25,0-13.667-2.167
		c-2.072-0.431-3.789-0.567-5.23-0.521c0.474-2.643,1.191-5.792,2.063-9.395C17.067,12.555,17.098,12.306,17.143,12.046z"/>
	<path d="M15.045,37.084c0.623,0,1.313,0.21,2.11,0.643c2.75,1.494,4.627,5.274,6.614,9.275c2.018,4.063,4.22,8.469,7.612,11.156
		l1.163,0.088c0.195-0.054,1.369-0.484,3.474-3.334c-3.674-1.375-6.399-4.431-10.377-11.842c-3.84-7.153-8.073-10-10.575-11.118
		c-1.337-0.597-2.18-0.702-2.204-0.705c-3.763-1.175-6.392-1.76-7.912-1.76c-0.265,0-0.459,0.019-0.605,0.045
		c-0.16,0.028-0.261,0.064-0.319,0.092c6.171,5.415,6.532,26.114,6.546,29.838l1.288-0.095c0.173-2.905,0.102-6.012,0.032-9.021
		c-0.134-5.791-0.25-10.792,1.478-12.559C13.827,37.32,14.39,37.084,15.045,37.084z"/>
	<path d="M61.155,58.58c-0.272-0.974-6.395-1.641-11.574-2.051c-0.202,0.247-0.4,0.499-0.578,0.77
		c-0.315,0.48-0.569,0.912-0.792,1.294c-0.561,0.958-1.029,1.645-1.678,2.125c7.759-0.341,13.485-1.591,14.262-1.768
		C61.129,58.711,61.155,58.581,61.155,58.58z"/>
	<path d="M37.285,60.6c1.311,0.063,2.833,0.066,4.548,0.066c4.833,0,4.417-1,6.333-3.917c0.07-0.107,0.146-0.209,0.221-0.312
		c0.118-0.165,0.239-0.325,0.365-0.481c0.128-0.159,0.259-0.314,0.392-0.463c1.878-2.107,4.156-3.29,3.523-3.994
		c-0.75-0.833-3.083-1.583-3.5-2.75c-0.417-1.167-2.667-3.603-2.667-3.603s-5.629,4.793-8.867,9.239
		c-0.103,0.141-0.211,0.283-0.309,0.424c0,0,0,0,0,0c-0.106,0.151-0.205,0.286-0.307,0.427c-2.182,3.022-3.562,3.772-4.141,3.952
		c-0.168,0.052-0.273,0.06-0.305,0.06c-0.008,0-0.012,0-0.012,0C33.241,60.164,34.902,60.485,37.285,60.6z"/>
</g>
</svg>
