<?xml version="1.0" encoding="iso-8859-1"?>
<!-- Generator: Adobe Illustrator 17.0.0, SVG Export Plug-In . SVG Version: 6.00 Build 0)  -->
<!DOCTYPE svg PUBLIC "-//W3C//DTD SVG 1.1//EN" "http://www.w3.org/Graphics/SVG/1.1/DTD/svg11.dtd">
<svg version="1.1" id="Capa_1" xmlns="http://www.w3.org/2000/svg" xmlns:xlink="http://www.w3.org/1999/xlink" x="0px" y="0px"
	 width="64px" height="64px" viewBox="0 0 64 64" style="enable-background:new 0 0 64 64;" xml:space="preserve">
<g>
	<path d="M24.131,27.658c7.581-0.494,8.854-1.913,9.066-2.349c-1.582,0.478-3.764,0.418-8.466-0.618
		c-3.809-0.839-9.908-0.946-14.16-0.899c2.765,1.877,6.465,3.916,12.036,3.916C23.106,27.708,23.619,27.692,24.131,27.658z"/>
	<path d="M61.266,40.253c0.059-0.42-0.081-1.576-0.255-2.73c-1.703,1.069-6.68,3.422-17.587,3.422c-1.966,0-4.06-0.077-6.223-0.23
		c-8.334-0.588-15.352-0.649-20.991-0.698c-7.025-0.061-10.464-0.126-12.092-0.89c-3.104,5.227,11.539,4.503,14.35,3.676
		c2.916-0.857,8.856-0.75,21.816,0.321C53.243,44.196,61.134,41.195,61.266,40.253z"/>
	<path d="M5.267,38.466c3.856,0.963,15.628,0.096,32.005,1.252c2.241,0.158,4.286,0.228,6.153,0.228
		c11.806,0,16.412-2.779,17.415-3.505c0.151-0.109,0.225-0.174,0.225-0.174s0.536-4.073,0-5.303
		c-0.116-0.265-0.819-0.344-1.883-0.344c-0.15,0-0.312,0.003-0.476,0.006c0.191,0.369,0.274,0.756,0.12,1.136
		c-0.406,1.003-2.128,1.272-5.445,1.272c-1.321,0-2.896-0.042-4.741-0.098c-3.093-0.095-6.598-0.2-10.064-0.07
		c-0.213,0.008-0.411,0.003-0.621,0.008c-0.005,0.047-0.018,0.082-0.022,0.131c-0.069,0.725-0.658,1.251-1.401,1.251
		c-0.38,0-0.735-0.15-0.973-0.412c-0.233-0.256-0.342-0.6-0.307-0.971c0.001-0.009,0.003-0.017,0.003-0.025
		c-5.657-0.242-9.732-1.615-12.172-2.757c-1.463-0.685-2.34-1.279-2.634-1.492c-5.443-0.529-9.037-2.965-11.588-4.775
		c-1.602-1.137-2.801-2.027-3.782-2.027c-0.806,0-1.471,0.599-2.104,2.147c-2.894,7.073,1.179,14.04,1.179,14.04
		C4.38,38.18,4.757,38.338,5.267,38.466z"/>
	<path d="M35.413,31.849c0.747-3.511,3.412-4.399,6.064-4.711c0.189-0.222,0.402-0.427,0.625-0.623
		c-3.651-2.455-9.011-3.432-9.011-3.432s1.021,0.802,1.144,1.805c0.173,1.404-1.415,3.205-10.04,3.768
		c-0.545,0.036-1.073,0.052-1.588,0.052c-0.004,0-0.008,0-0.012,0c1.011,0.529,2.486,1.186,4.411,1.77
		C29.22,31.15,32.032,31.709,35.413,31.849z"/>
	<path d="M48.67,31.935c4.17,0.125,8.897,0.271,9.229-0.55c0.004-0.01,0.068-0.207-0.374-0.727
		c-1.347,0.049-2.945,0.128-4.575,0.128c-2.988,0-6.047-0.278-7.779-1.484c-0.811,0.23-1.64,0.343-2.431,0.408
		c-2.559,0.211-3.999,0.547-4.559,2.159c0.122-0.004,0.236,0,0.359-0.004C42.04,31.732,45.562,31.839,48.67,31.935z"/>
	<path d="M36.532,33.553c0.322,0,0.665-0.206,0.704-0.617c0.002-0.02,0.006-0.037,0.008-0.056c0.038-0.37,0.101-0.702,0.185-1.002
		c0.669-2.37,2.737-2.659,5.253-2.866c0.638-0.052,1.258-0.138,1.855-0.272c0.186-0.042,0.369-0.089,0.549-0.142
		c0.186-0.055,0.37-0.113,0.549-0.183c0.876-0.341,1.666-0.865,2.316-1.694c0.725-0.925,0.144-1.711-0.807-1.711
		c-0.123,0-0.253,0.013-0.386,0.041c-1.045,0.218-2.221,0.654-3.228,1.278c-0.15,0.093-0.291,0.193-0.432,0.294
		c-0.142,0.102-0.277,0.208-0.409,0.318c-0.281,0.235-0.543,0.482-0.762,0.753c-0.027,0.034-0.035,0.07-0.055,0.105
		c-2.981,0.304-5.092,1.181-5.749,4.078c-0.07,0.309-0.127,0.638-0.163,0.995c-0.002,0.022-0.006,0.042-0.008,0.064
		C35.91,33.348,36.211,33.553,36.532,33.553z M44.111,27.515c0.143-0.091,0.3-0.162,0.45-0.244c0.611-0.335,1.256-0.618,1.889-0.811
		c-0.408,0.386-0.879,0.653-1.412,0.85c-0.115,0.042-0.234,0.073-0.352,0.106c-0.181,0.05-0.365,0.093-0.55,0.127
		c-0.041,0.008-0.081,0.018-0.122,0.025C44.044,27.548,44.08,27.535,44.111,27.515z"/>
</g>
</svg>
