<?xml version="1.0" encoding="iso-8859-1"?>
<!-- Generator: Adobe Illustrator 17.0.0, SVG Export Plug-In . SVG Version: 6.00 Build 0)  -->
<!DOCTYPE svg PUBLIC "-//W3C//DTD SVG 1.1//EN" "http://www.w3.org/Graphics/SVG/1.1/DTD/svg11.dtd">
<svg version="1.1" id="Capa_1" xmlns="http://www.w3.org/2000/svg" xmlns:xlink="http://www.w3.org/1999/xlink" x="0px" y="0px"
	 width="64px" height="64px" viewBox="0 0 64 64" style="enable-background:new 0 0 64 64;" xml:space="preserve">
<g>
	<path d="M41.414,30.266c-0.047-0.168-0.073-0.325-0.091-0.477c-9.774-1.767-22.521-3.21-30.602-4.035
		c7.898,3.198,20.694,7.601,31.292,7.601c1.091,0,2.134-0.052,3.134-0.146C43.658,32.784,41.902,32.031,41.414,30.266z"/>
	<path d="M60.059,31.522c-0.287-0.129-0.702-0.185-1.204-0.185c-1.397,0-3.474,0.433-5.385,0.925
		c-0.043,0.027-0.08,0.052-0.123,0.08c0.032,0.179,0.028,0.364,0.003,0.549c-0.008,0.063-0.01,0.126-0.025,0.189
		c-0.177,0.718-0.791,1.2-1.528,1.2c-0.055,0-0.113-0.003-0.172-0.008c-1.213-0.116-2.456-0.241-3.719-0.45
		c-1.859,0.361-3.834,0.535-5.893,0.535c-12.338,0-27.399-5.779-34.722-8.943c-2.759-1.192-4.427-2.015-4.427-2.015
		C-0.557,33.66,4.574,38.685,4.574,38.685c0.463,0.463,0.428,0.641,0.428,0.641h11.439v-1.924c14.112,0,19.778,1.39,19.778,1.39
		c1.869,1.426,5.546,1.811,8.974,1.811c4.024,0,7.703-0.531,7.703-0.531C63.587,35.686,62.197,32.484,60.059,31.522z"/>
	<path d="M55.672,26.991c-0.21-0.147-0.458-0.206-0.72-0.206c-0.68,0-1.458,0.393-1.945,0.655c-1.411,0.759-2.532,2.012-3.437,3.336
		c-1.241-1.116-2.81-2.018-4.316-2.602c-0.31-0.12-0.668-0.183-1.024-0.183c-1.118,0-2.225,0.616-1.855,1.992
		c0.002,0.006,0.001,0.01,0.003,0.016c0.462,1.669,2.67,2.18,4.122,2.528c0.458,0.11,0.921,0.2,1.386,0.28
		c0.419,0.072,0.839,0.135,1.261,0.19c0.405,0.053,0.81,0.1,1.216,0.142c0.453,0.048,0.905,0.092,1.357,0.135
		c0.026,0.003,0.052,0.004,0.076,0.004c0.427,0,0.613-0.367,0.568-0.721c-0.004-0.03-0.012-0.059-0.019-0.089
		c-0.034-0.139-0.103-0.268-0.21-0.369c-0.044-0.042-0.089-0.082-0.146-0.112c0.322-0.186,0.693-0.409,1.078-0.655
		C55.029,30.079,57.369,28.178,55.672,26.991z M44.711,30.523c-0.086-0.039-0.19-0.087-0.297-0.143
		c-0.321-0.167-0.677-0.412-0.709-0.74c-0.024-0.249,0.13-0.338,0.359-0.338c0.519,0,1.431,0.452,1.583,0.526
		c0.717,0.348,1.439,0.798,2.121,1.293c0.188,0.136,0.388,0.258,0.566,0.404C47.081,31.329,45.847,31.038,44.711,30.523z
		 M51.177,30.881c0.918-1.2,2.087-2.296,3.519-2.663c-0.135,0.193-0.328,0.369-0.466,0.51
		C53.369,29.608,52.269,30.275,51.177,30.881z"/>
</g>
</svg>
