<?xml version="1.0" encoding="iso-8859-1"?>
<!-- Generator: Adobe Illustrator 17.0.0, SVG Export Plug-In . SVG Version: 6.00 Build 0)  -->
<!DOCTYPE svg PUBLIC "-//W3C//DTD SVG 1.1//EN" "http://www.w3.org/Graphics/SVG/1.1/DTD/svg11.dtd">
<svg version="1.1" id="Capa_1" xmlns="http://www.w3.org/2000/svg" xmlns:xlink="http://www.w3.org/1999/xlink" x="0px" y="0px"
	 width="64px" height="64px" viewBox="0 0 64 64" style="enable-background:new 0 0 64 64;" xml:space="preserve">
<g>
	<path d="M7.833,54c0,0,0.741,0.37,1.951,0.37c0.605,0,1.327-0.093,2.133-0.37c0,0-2.021-17.557,2.692-17.557
		c1.186,0,2.797,1.11,4.974,3.891c8.155,10.414,7.858,14.074,15.247,14.074c2.426,0,5.681-0.395,10.337-1.074
		c0,0,11.417-2.167,14.5-2.667c3.083-0.5,2.75-2.5-2.083-4.5c-4.833-2-9.833-3.5-11.833-3.5c-0.025,0-0.043,0.008-0.067,0.01
		c-0.28-0.082-0.554-0.139-0.825-0.167c-0.211-0.022-0.427-0.024-0.644-0.018c-0.352,0.01-0.714,0.041-1.118,0.11
		c-2.919,0.5-4.958,0.432-7.577-1.109c-1.03-0.606-1.984-1.348-2.893-2.16l6.97-3.319c0.499-0.237,0.734-0.845,0.526-1.356
		l-0.162-0.398c-0.208-0.511-0.814-0.829-1.353-0.708l-9.505,2.122c-1.045-1.2-2.057-2.414-3.078-3.535
		c-2.508-2.753-4.613-5.699-6.909-8.621c-1.381-1.757-2.921-3.421-4.746-4.663c-0.352-0.239-0.713-0.464-1.087-0.669
		c-0.306-0.168-0.622-0.318-0.944-0.46c-1.111-1.548-2.295-3.156-2.962-3.933c-0.111-0.129-0.262-0.191-0.445-0.191
		c-2.292-0.001-9.579,9.7-5.18,17.649C8.5,39.833,11.083,44,7.833,54z M31.754,39.748c1.018,0.947,2.09,1.834,3.261,2.608
		c1.315,0.87,2.794,1.387,4.338,1.651c1.42,0.243,2.87-0.318,4.294-0.48c0.195-0.022,0.39-0.046,0.585-0.049
		c0.181-0.003,0.36,0.019,0.539,0.037c-0.526,1.057-1.149,2.728-5.026,2.728c-1.309,0-2.989-0.19-5.16-0.659
		c-3.48-0.751-5.647-1.987-7.278-3.717l0.481-0.229l0.47-0.224L31.754,39.748z M28.583,38.917c0,0.74-0.509,1.356-1.195,1.53
		C27.264,40.478,27.135,40.5,27,40.5c-0.069,0-0.134-0.012-0.201-0.02c-0.396-0.051-0.743-0.245-0.992-0.532
		c-0.111-0.128-0.205-0.27-0.271-0.429c-0.077-0.186-0.12-0.389-0.12-0.602c0-0.159,0.031-0.31,0.074-0.455
		c0.059-0.196,0.153-0.374,0.278-0.53c0.29-0.362,0.731-0.598,1.231-0.598C27.874,37.333,28.583,38.042,28.583,38.917z
		 M14.941,20.54c0.893,0.746,1.711,1.591,2.474,2.489c0.777,0.915,1.507,1.874,2.203,2.83c2.137,2.937,4.433,5.568,6.859,8.269
		c0.53,0.59,1.057,1.185,1.588,1.778l-3.005,0.671l-0.503,0.112L24.055,36.8c-1.929-3.881-4.021-8.96-9.055-15.3
		c0,0-0.56-0.809-1.341-1.915C14.105,19.877,14.531,20.197,14.941,20.54z"/>
</g>
</svg>
