<?xml version="1.0" encoding="iso-8859-1"?>
<!-- Generator: Adobe Illustrator 17.0.0, SVG Export Plug-In . SVG Version: 6.00 Build 0)  -->
<!DOCTYPE svg PUBLIC "-//W3C//DTD SVG 1.1//EN" "http://www.w3.org/Graphics/SVG/1.1/DTD/svg11.dtd">
<svg version="1.1" id="Capa_1" xmlns="http://www.w3.org/2000/svg" xmlns:xlink="http://www.w3.org/1999/xlink" x="0px" y="0px"
	 width="64px" height="64px" viewBox="0 0 64 64" style="enable-background:new 0 0 64 64;" xml:space="preserve">
<g>
	<path d="M58.843,41.826c-0.447,0-0.93,0.022-1.491,0.05c-0.282,0.013-0.732,0.059-1.317,0.118
		c-0.949,0.097-2.302,0.234-3.881,0.323c0.457-3.72-0.618-5.514-1.842-6.372c-0.176-0.124-0.355-0.229-0.534-0.317
		c-0.209-0.103-0.415-0.183-0.614-0.246c0.259-0.144,0.42-0.215,0.42-0.215c-1.224-0.84-2.427-1.182-3.598-1.182
		c-2.894,0-5.589,2.093-7.902,3.932c-0.833,0.662-1.486,1.117-2.02,1.451c-0.169,0.106-0.326,0.2-0.469,0.28
		c-0.195,0.109-0.367,0.197-0.517,0.266c-0.473,0.216-0.752,0.267-0.884,0.267c-0.078,0-0.11-0.014-0.11-0.014
		c0.75,1.417,6,2.917,7.333,2.917c0.305,0,0.593-0.107,0.877-0.286c0.174-0.11,0.347-0.243,0.521-0.411
		c0.13-0.126,0.263-0.275,0.397-0.432c0.673-0.786,1.406-1.928,2.371-3.288c0.288-0.405,0.583-0.756,0.877-1.082
		c0.001,0.265-0.004,0.528-0.014,0.79c-0.012,0.299-0.032,0.597-0.062,0.892c-0.102,1.018-0.317,2.014-0.721,2.987
		c-0.442-0.038-0.876-0.082-1.299-0.135c-0.121,0.157-0.243,0.312-0.363,0.454c-0.136,0.16-0.271,0.309-0.408,0.447
		c-0.661,0.667-1.342,1.065-2.177,1.065c-1.336,0-7.168-1.467-8.217-3.449l-1.353-2.555l2.145,0.953l0.286,0.127
		c0.084-0.024,0.23-0.078,0.435-0.175c0.132-0.062,0.287-0.142,0.477-0.252c-1.15-0.919-2.073-2.005-2.749-3.266
		c-1.272-2.374-3.177-4.686-5.692-6.931c0.102,0.336,0.195,0.651,0.28,0.945c0.098,0.34,0.183,0.648,0.257,0.925
		c0.225,0.84,0.346,1.379,0.37,1.489l0.644,2.934l-1.56-2.567c-1.345-2.215-7.375-6.304-7.437-6.345l-0.188-0.128l-0.027-0.227
		c-0.063-0.521-0.156-1.033-0.265-1.539c-0.051-0.234-0.106-0.465-0.166-0.696c-0.059-0.228-0.121-0.455-0.188-0.679
		c-0.309-0.181-0.627-0.361-0.945-0.54c-0.004-0.009-0.003-0.017-0.007-0.025c-1.878-3.745-5.115-6.807-6.47-10.704
		c-0.111-0.318-0.208-0.642-0.291-0.972c-0.07-0.276-0.128-0.556-0.177-0.841c3.012,2.634,7.631,7.529,9.135,13.833
		c0.051,0.212,0.078,0.435,0.122,0.65c0.045,0.222,0.088,0.444,0.124,0.669c0.027,0.167,0.07,0.329,0.092,0.498
		c0.82,0.563,4.026,2.805,6.081,4.809c-0.084-0.294-0.18-0.617-0.285-0.961c-0.085-0.278-0.177-0.571-0.275-0.877
		c-0.093-0.29-0.196-0.596-0.301-0.908c-1.724-5.095-5.118-12.949-10.655-17.128C10.631,7.142,9.03,6.693,8.431,6.693
		c-0.182,0-0.302,0.039-0.359,0.117c-0.109,0.148-0.098,0.472-0.05,0.719c0.251,0.176,0.766,0.55,1.438,1.091
		C9.477,8.862,9.5,9.102,9.532,9.337c0.037,0.261,0.074,0.522,0.127,0.775c0.891,4.228,4.018,7.386,6.229,11.098
		c-2.313-1.236-4.825-2.446-7.562-3.625l-0.254-0.109c-1.28-0.553-2.278-0.822-3.051-0.822c-2.011,0-2.331,1.753-2.396,3.072
		C2.499,22.25,7.662,53.024,7.882,54.333l0.07,0.417h8.176l-0.124-23.305c2.34,0.873,10.501,4.709,12.881,16.404
		c1.016,4.991,4.991,7.521,11.814,7.521c8.67,0,19.136-4.24,19.24-4.283l0.227-0.093l0.065-0.236c0,0,0.625-2.25,1.5-5.374
		c0.338-1.205,0.282-2.081-0.17-2.677C60.972,41.931,59.856,41.826,58.843,41.826z M47.458,37.978
		c0.004-0.232,0.003-0.466-0.001-0.701c-0.004-0.218-0.012-0.437-0.021-0.657c0.387-0.338,0.742-0.609,1.055-0.821
		c0.102,0.13,0.189,0.274,0.263,0.429c0.071,0.149,0.127,0.311,0.175,0.479c0.514,1.806-0.24,4.564-0.594,5.68
		c-0.559-0.011-1.104-0.031-1.637-0.062C47.227,40.92,47.434,39.474,47.458,37.978z"/>
</g>
</svg>
