<?xml version="1.0" encoding="iso-8859-1"?>
<!-- Generator: Adobe Illustrator 17.0.0, SVG Export Plug-In . SVG Version: 6.00 Build 0)  -->
<!DOCTYPE svg PUBLIC "-//W3C//DTD SVG 1.1//EN" "http://www.w3.org/Graphics/SVG/1.1/DTD/svg11.dtd">
<svg version="1.1" id="Capa_1" xmlns="http://www.w3.org/2000/svg" xmlns:xlink="http://www.w3.org/1999/xlink" x="0px" y="0px"
	 width="64px" height="64px" viewBox="0 0 64 64" style="enable-background:new 0 0 64 64;" xml:space="preserve">
<g>
	<path d="M18.108,47.961c-0.712,4.274-2.035,8.752-0.509,8.99c1.527,0.237,3.664,0.678,6.106,0c2.443-0.678,3.053-1.866,6.004,2.51
		c2.951,4.376,20.151,0,20.151,0s0-2.239,0-4.478s-4.58-2.646-7.836-3.969c-3.257-1.323-7.531-3.867-7.531-9.465
		c0-5.597,0-38.673,0-38.673L14.139,4.708c0,0,1.527,20.354,2.239,28.394S18.821,43.686,18.108,47.961z"/>
</g>
</svg>
