<?xml version="1.0" encoding="iso-8859-1"?>
<!-- Generator: Adobe Illustrator 17.0.0, SVG Export Plug-In . SVG Version: 6.00 Build 0)  -->
<!DOCTYPE svg PUBLIC "-//W3C//DTD SVG 1.1//EN" "http://www.w3.org/Graphics/SVG/1.1/DTD/svg11.dtd">
<svg version="1.1" id="Capa_1" xmlns="http://www.w3.org/2000/svg" xmlns:xlink="http://www.w3.org/1999/xlink" x="0px" y="0px"
	 width="64px" height="64px" viewBox="0 0 64 64" style="enable-background:new 0 0 64 64;" xml:space="preserve">
<g>
	<path d="M24.716,31.052c9.467,3.023,15.258,3.907,18.812,2.821c0.3-1.517,0.964-2.536,1.833-3.228l-2.409,0.007
		c-6.543,0-13.269-0.316-23.563-4.137c-8.339-3.095-12.424-3.427-14.26-3.285C9.446,25.188,17.813,28.846,24.716,31.052z"/>
	<path d="M6.019,39.041c2.554-0.054,2.946-0.288,3.184-0.43c0.293-0.176,0.544-0.291,1.324-0.291c1.577,0,5.886,0.494,17.733,2.031
		c4.108,0.533,7.975,0.803,11.489,0.803c15.389,0,20.099-5.112,20.766-5.95c-0.113-2.08-2.453-3.502-6.711-4.152
		c-1.04,0.438-2.153,0.612-3.197,0.698c-0.919,0.076-1.672,0.174-2.303,0.339c-0.454,0.462-1.093,0.982-1.975,1.534
		c-0.147,0.35-0.257,0.751-0.305,1.258c-0.067,0.71-0.644,1.225-1.372,1.225c-0.373,0-0.72-0.147-0.954-0.404
		c-0.19-0.209-0.273-0.485-0.284-0.779c-0.961,0.245-2.04,0.384-3.29,0.384c-3.697,0-8.753-1.082-15.713-3.305
		c-7.404-2.365-16.467-6.385-20.498-8.229C2.139,33.399,5.313,38.135,6.019,39.041z"/>
	<path d="M44.105,34.732c-0.003,0.029-0.008,0.055-0.011,0.084c-0.037,0.395,0.251,0.591,0.559,0.591
		c0.309,0,0.638-0.198,0.675-0.591c0.023-0.239,0.059-0.457,0.102-0.665c0.136-0.663,0.369-1.179,0.687-1.578
		c0.309-0.388,0.699-0.666,1.148-0.874c0.513-0.238,1.104-0.383,1.753-0.48c0.484-0.073,0.997-0.121,1.533-0.166
		c0.528-0.044,1.045-0.109,1.545-0.208c0.437-0.087,0.862-0.2,1.266-0.355c0.277-0.107,0.542-0.241,0.799-0.39
		c0.53-0.307,1.019-0.704,1.443-1.243c0.696-0.887,0.138-1.641-0.774-1.641c-0.118,0-0.242,0.013-0.371,0.039
		c-1.584,0.33-3.477,1.184-4.551,2.446c-0.026,0.03-0.057,0.058-0.082,0.089c-0.026,0.032-0.034,0.067-0.053,0.1
		c-0.417,0.042-0.815,0.097-1.194,0.167c-0.042,0.008-0.082,0.017-0.124,0.025c-0.115,0.022-0.23,0.044-0.341,0.07
		c-0.528,0.122-1.014,0.281-1.451,0.491c-1.149,0.551-1.968,1.452-2.358,2.944C44.213,33.935,44.148,34.318,44.105,34.732z
		 M54.164,28.606c-0.392,0.371-0.843,0.626-1.354,0.815c-0.317,0.117-0.648,0.189-0.983,0.247
		C52.544,29.194,53.376,28.846,54.164,28.606z"/>
</g>
</svg>
