<?xml version="1.0" encoding="iso-8859-1"?>
<!-- Generator: Adobe Illustrator 17.0.0, SVG Export Plug-In . SVG Version: 6.00 Build 0)  -->
<!DOCTYPE svg PUBLIC "-//W3C//DTD SVG 1.1//EN" "http://www.w3.org/Graphics/SVG/1.1/DTD/svg11.dtd">
<svg version="1.1" id="Capa_1" xmlns="http://www.w3.org/2000/svg" xmlns:xlink="http://www.w3.org/1999/xlink" x="0px" y="0px"
	 width="64px" height="64px" viewBox="0 0 64 64" style="enable-background:new 0 0 64 64;" xml:space="preserve">
<g>
	<path d="M43.92,37.992c-6.88,0.062-13.76-0.307-20.636-0.088c-14.558,0.462-15.309,1.43-20.465-1.492
		c-0.002,0.046-0.013,0.09-0.013,0.136c0,1.734,1.32,3.139,2.949,3.139h39.262c0,0,13.93-0.287,15.44-4.671
		c0.179-0.52,0.288-0.992,0.321-1.421C58.031,38.173,48.119,37.954,43.92,37.992z"/>
	<path d="M10.218,33.409H5.755c-1.301,0-2.393,0.903-2.784,2.148c5.008,2.663,8.884,2.268,19.503,1.528
		c6.653-0.464,13.337,0.149,20.007,0.095c3.516-0.029,7.082-0.037,10.55-0.688c2.721-0.51,6.576-1.469,7.46-4.34
		c-0.873-1.485-3.764-2.051-9.764-1.885c0.033,0.482,0.037,0.993-0.004,1.548c-0.069,0.946-0.848,1.441-1.582,1.441
		c-0.429,0-0.83-0.167-1.101-0.459c-0.263-0.283-0.391-0.668-0.361-1.085c0.038-0.513,0.048-0.945,0.019-1.316
		c-1.11,0.062-2.297,0.14-3.576,0.236c-0.779,0.059-1.521,0.119-2.24,0.181c1.112,0.756,2.154,1.631,3.051,2.956
		c0.313,0.462,0.35,0.995,0.103,1.462c-0.269,0.507-0.826,0.834-1.42,0.834c-0.511,0-0.971-0.248-1.264-0.68
		c-1.1-1.625-2.439-2.482-4.362-3.379c-1.98,0.911-3.161,1.398-4.407,1.912c-1.137,0.469-2.312,0.953-4.199,1.803
		c-0.21,0.095-0.43,0.143-0.651,0.143c-0.734,0-1.406-0.552-1.564-1.285c-0.142-0.66,0.176-1.271,0.809-1.557
		c0.695-0.313,1.332-0.596,1.948-0.867c-0.568,0.072-1.132,0.142-1.696,0.211c-1.583,0.524-3.176,0.915-4.857,1.159
		c-0.081,0.012-0.16,0.017-0.237,0.017c-0.493,0-0.893-0.221-1.172-0.538C18.762,33.253,15.072,33.409,10.218,33.409z"/>
	<path d="M49.141,32.556c0.413,0,0.845-0.265,0.884-0.792c0.039-0.529,0.04-1.018,0.01-1.476c-0.175-2.64-1.562-4.092-4.887-4.392
		c-0.04-0.024-0.072-0.056-0.12-0.074c-1.303-0.501-2.582-0.713-3.843-0.713c-6.266,0-12.096,5.228-18.351,6.135
		c-1,0.145-0.638,1.598,0.301,1.598c0.044,0,0.09-0.003,0.137-0.01c2.861-0.415,5.457-1.223,8.068-2.447
		c3.371-1.579,6.357-3.618,9.851-3.618c0.611,0,1.237,0.062,1.884,0.2c-4.419,2.212-7.106,3.326-10.683,4.874
		c-1.234,0.534-2.573,1.119-4.127,1.819c-0.842,0.379-0.316,1.503,0.468,1.503c0.117,0,0.239-0.025,0.364-0.081
		c4.076-1.836,4.875-1.986,8.93-3.864c0.042,0.029,0.069,0.066,0.121,0.09c2.04,0.942,3.545,1.856,4.783,3.685
		c0.178,0.263,0.433,0.373,0.684,0.373c0.584,0,1.155-0.588,0.738-1.204c-0.999-1.476-2.165-2.352-3.592-3.249
		c-0.288-0.181-0.582-0.363-0.893-0.55c1.89-0.893,3.771-1.804,5.63-2.761c0.001,0,0.001-0.001,0.002-0.001
		c2.055,0.414,2.761,1.225,2.884,2.76c0.033,0.415,0.032,0.873-0.007,1.403C48.339,32.293,48.73,32.556,49.141,32.556z"/>
</g>
</svg>
