<?xml version="1.0" encoding="iso-8859-1"?>
<!-- Generator: Adobe Illustrator 17.0.0, SVG Export Plug-In . SVG Version: 6.00 Build 0)  -->
<!DOCTYPE svg PUBLIC "-//W3C//DTD SVG 1.1//EN" "http://www.w3.org/Graphics/SVG/1.1/DTD/svg11.dtd">
<svg version="1.1" id="Capa_1" xmlns="http://www.w3.org/2000/svg" xmlns:xlink="http://www.w3.org/1999/xlink" x="0px" y="0px"
	 width="64px" height="64px" viewBox="0 0 64 64" style="enable-background:new 0 0 64 64;" xml:space="preserve">
<g>
	<path d="M10.25,53.667h2.25c0,0-0.5-10.833,0.5-19.083s9.583,3.417,12.083,8s3.083,10.833,11.71,11.5
		c8.627,0.667,21.54-1.75,24.206-2.724c2.667-0.974-0.083-3.692-2.75-4.692s-5.833-1.917-9.583-3.417S42.75,46.167,40,47.667
		c-0.59,0.322-1.346,0.851-2.172,1.409c-0.731-0.505-1.543-0.836-2.46-1.152c-2.58-0.888-3.362-2.457-3.959-4.966
		c-0.98-4.114-2.079-7.793-3.918-11.639c-2.088-4.366-4.636-8.509-7.245-12.578c-2.011-3.137-3.932-6.351-6.917-8.604
		c-1.001-1.608-1.828-2.72-1.828-2.72C-0.833,19.5,6,25.333,8.5,28.667C11,32,10.25,53.667,10.25,53.667z M20.821,21.511
		c2.583,4.107,4.962,8.341,6.945,12.773c0.914,2.044,1.702,4.11,2.151,6.304c0.352,1.719,0.63,3.435,1.264,5.08
		c1.019,2.646,3.657,2.802,5.719,4.022c-2.853,1.833-6.105,3.28-6.4-2.023c-0.417-7.5-6-15.083-7.583-20.417
		c-1.583-5.333-5.25-6.583-6.5-10.75c-0.356-1.187-0.91-2.432-1.518-3.61C17.263,15.426,19.009,18.631,20.821,21.511z"/>
</g>
</svg>
