<?xml version="1.0" encoding="iso-8859-1"?>
<!-- Generator: Adobe Illustrator 17.0.0, SVG Export Plug-In . SVG Version: 6.00 Build 0)  -->
<!DOCTYPE svg PUBLIC "-//W3C//DTD SVG 1.1//EN" "http://www.w3.org/Graphics/SVG/1.1/DTD/svg11.dtd">
<svg version="1.1" id="Capa_1" xmlns="http://www.w3.org/2000/svg" xmlns:xlink="http://www.w3.org/1999/xlink" x="0px" y="0px"
	 width="64px" height="64px" viewBox="0 0 64 64" style="enable-background:new 0 0 64 64;" xml:space="preserve">
<g>
	<path d="M37.879,33.285c-0.156-0.448-0.354-0.971-0.559-1.514c-0.269-0.714-0.506-1.36-0.718-1.966
		c-1.539-0.315-3.665-0.939-6.58-2.137c-5.194-2.135-13.617-3.818-18.967-4.748c2.307,0.886,5.522,2.048,8.865,3.256
		C31.191,30.249,36.186,32.152,37.879,33.285z"/>
	<path d="M17.206,37.691c-0.404-0.022-0.81-0.044-1.206-0.065c-5.234-0.275-9.829-0.521-12.505-2.872l0.513,5.276l12.931-0.201
		L17.206,37.691z"/>
	<path d="M17.331,36.696c4.391,0.242,9.238,0.622,13.834,2.283c4.382,1.583,8.816,2.144,12.899,2.144
		c9.885,0,17.705-3.285,17.705-3.285s-0.877-2.63-6.77-3.695s-6.284-0.567-7.889-2.63c-1.605-2.063-9.535-6.123-9.535-6.123
		c-0.068-0.012-0.13-0.017-0.188-0.017c-1.171,0-0.497,2.317,0.34,4.626c0.51,1.406,1.08,2.809,1.332,3.685
		c0.369,1.28,0.23,1.835-0.135,1.835c-0.315,0-0.799-0.415-1.268-1.134c-1.011-1.551-24.477-9.306-29.561-11.585
		c-0.776-0.348-1.426-0.549-1.991-0.661c-0.349-0.069-0.673-0.113-0.953-0.113c-2.233,0-2.356,1.974-2.356,1.974
		c-1.083,4.473-0.77,7.297,0.541,9.109C5.634,36.286,11.007,36.348,17.331,36.696z"/>
</g>
</svg>
