<?xml version="1.0" encoding="iso-8859-1"?>
<!-- Generator: Adobe Illustrator 17.0.0, SVG Export Plug-In . SVG Version: 6.00 Build 0)  -->
<!DOCTYPE svg PUBLIC "-//W3C//DTD SVG 1.1//EN" "http://www.w3.org/Graphics/SVG/1.1/DTD/svg11.dtd">
<svg version="1.1" id="Capa_1" xmlns="http://www.w3.org/2000/svg" xmlns:xlink="http://www.w3.org/1999/xlink" x="0px" y="0px"
	 width="64px" height="64px" viewBox="0 0 64 64" style="enable-background:new 0 0 64 64;" xml:space="preserve">
<g>
	<path d="M3.988,28.851c0.229,0.072,0.45,0.157,0.676,0.232l5.782,23.988c0,0,2.19,0.621,2.19,0c0-0.497,1.49-13.746,2.085-19.014
		c0.388,0.261,0.776,0.525,1.157,0.799c0.123-0.241,0.289-0.474,0.508-0.693l1.655-1.655c-3.947-2.905-8.25-5.279-13.18-6.826
		C2.834,25.047,1.974,28.219,3.988,28.851z"/>
	<path d="M4.257,22.185l15.919,9.604l-1.331,1.331l-1.751,1.751c-0.205,0.205-0.317,0.405-0.383,0.602
		c-0.266,0.79,0.452,1.541,1.328,2.417c0.57,0.57,1.311,0.859,2.034,0.859c0.167,0,0.333-0.016,0.495-0.046
		c0.486-0.092,0.943-0.32,1.311-0.689l1.289-1.289l12.913-12.913c1.026-1.026,0.971-2.746-0.124-3.841
		c-0.57-0.57-1.311-0.859-2.034-0.859c-0.665,0-1.315,0.243-1.807,0.735l-3.842,3.842L10,12.665
		c-0.242-0.146-0.511-0.216-0.783-0.216c-0.599,0-1.209,0.337-1.568,0.932l-3.855,6.39C3.273,20.636,3.48,21.716,4.257,22.185z"/>
	<path d="M50.776,43.09l-5.793-2.357c-0.63-0.256-1.429,0.006-1.783,0.587l-4.589,7.509c-3.573-1.097-6.542-3.164-9.457-6.227
		c-1.717-1.804-3.455-3.549-5.245-5.205l-1.323,1.323c-0.348,0.348-0.761,0.608-1.212,0.782c3.086,3.086,5.863,6.586,9.31,9.17
		c8.414,6.307,19.275,4.006,29.034,3.914c2.117-0.02,2.119-3.305,0-3.285c-3.132,0.03-6.257,0.244-9.385,0.373l1.275-4.929
		C51.779,44.088,51.406,43.346,50.776,43.09z"/>
</g>
</svg>
