<?xml version="1.0" encoding="iso-8859-1"?>
<!-- Generator: Adobe Illustrator 17.0.0, SVG Export Plug-In . SVG Version: 6.00 Build 0)  -->
<!DOCTYPE svg PUBLIC "-//W3C//DTD SVG 1.1//EN" "http://www.w3.org/Graphics/SVG/1.1/DTD/svg11.dtd">
<svg version="1.1" id="Capa_1" xmlns="http://www.w3.org/2000/svg" xmlns:xlink="http://www.w3.org/1999/xlink" x="0px" y="0px"
	 width="64px" height="64px" viewBox="0 0 64 64" style="enable-background:new 0 0 64 64;" xml:space="preserve">
<g>
	<path d="M5.925,40.614C6.023,40.92,6.28,41.25,6.92,41.436c0.825,0.24,1.139,0.172,1.284,0c0.209,0.051,0.426,0.099,0.649,0.142
		c0.156,0.272,0.462,0.533,1.091,0.609c1.02,0.123,1.252-0.067,1.319-0.328c0.189,0.009,0.385,0.013,0.582,0.018
		c0.111,0.232,0.365,0.492,0.969,0.448c0.813-0.059,0.9-0.255,0.889-0.474c0.252-0.01,0.491-0.021,0.735-0.032
		c0.119,0.213,0.395,0.425,1.031,0.442c1.263,0.035,1.191-0.265,1.225-0.549c0.186-0.01,0.377-0.019,0.558-0.029
		c0.047,0.249,0.259,0.669,1.191,0.584c1.303-0.119,1.142-0.425,1.152-0.721c0.591-0.037,1.154-0.072,1.68-0.107l0.66-0.633
		c0.118-0.114,2.93-2.78,5.675-2.78c0.166,0,0.331,0.01,0.494,0.03c1.451,0.179,3.971,1.198,5.829,2.02
		c3.067,1.358,3.81,1.805,3.981,2.088c1.784,0.003,3.749-0.05,5.755-0.168c0.194,0.196,0.503,0.351,1.007,0.348
		c0.994-0.006,1.181-0.23,1.208-0.504c0.159-0.013,0.319-0.026,0.478-0.039c0.195,0.276,0.565,0.531,1.278,0.404
		c0.918-0.163,1.107-0.396,1.115-0.651c0.052-0.006,0.104-0.013,0.156-0.019c0.098,0.27,0.393,0.75,1.243,0.549
		c1.053-0.248,0.959-0.54,0.884-0.841c0.146-0.023,0.294-0.045,0.439-0.068c0.072,0.234,0.326,0.658,1.224,0.406
		c1.087-0.305,1.029-0.558,0.979-0.821c0.077-0.017,0.155-0.033,0.231-0.05c0.073,0.207,0.347,0.685,1.277,0.296
		c0.951-0.398,0.963-0.636,0.899-0.867c0.086-0.027,0.174-0.053,0.258-0.081c0.121,0.197,0.409,0.43,1.088,0.146
		c1.009-0.422,0.843-0.644,0.774-0.893c0.079-0.039,0.158-0.077,0.234-0.115c0.096,0.147,0.371,0.414,0.967,0.009
		c0.775-0.527,0.567-0.673,0.473-0.872l-0.073,0.039c1.573-1.153,1.622-2.198,1.257-2.965c-1.395,0.873-6.809,3.855-15.717,3.855
		c-4.58,0-9.385-0.804-14.283-2.389c-11.217-3.631-19.556-3.759-24.539-3.836c-2.398-0.037-4.079-0.071-5.006-0.517
		c-0.164,0.419-0.268,0.986-0.11,1.649c0.774,0.676,2.52,1.383,6.517,1.099c7.495-0.536,13.312,1.31,13.37,1.329
		c0.131,0.042,0.203,0.183,0.161,0.314c-0.034,0.106-0.132,0.173-0.238,0.173c-0.025,0-0.051-0.004-0.077-0.012
		c-0.058-0.019-5.783-1.837-13.181-1.306c-3.306,0.235-5.175-0.208-6.232-0.777c0.071,0.129,0.152,0.26,0.246,0.393
		C1.975,35.384,2.136,38.72,5.925,40.614z"/>
	<path d="M1.736,32.08c2.426,1.218,12.787-1.085,29.483,4.318c5.379,1.741,10.11,2.365,14.129,2.365
		c8.769,0,14.139-2.965,15.455-3.784c0.21-0.131,0.327-0.212,0.327-0.212c0.009-0.184,0.002-0.347,0.001-0.517
		c-0.126,0.003-0.252,0.005-0.375-0.004c0,0-0.22-0.009-0.274-0.649c0,0-0.044-0.282-0.075-1.076
		c-0.019-0.5,0.023-0.771,0.238-0.932c-0.163-0.386-0.303-0.585-0.303-0.585c-1.386-2.804-3.854-1.834-10.073-2.374
		c0.512,0.161,0.879,0.421,0.828,0.611c-0.055,0.205-0.568,0.245-1.145,0.09s-1.001-0.447-0.945-0.652
		c0.022-0.083,0.133-0.131,0.278-0.158c-2.542-0.325-4.62-1.03-6.371-1.878c0.083,0.133,0.127,0.254,0.079,0.333
		c-0.124,0.206-0.694,0.088-1.273-0.262s-0.948-0.8-0.824-1.006c0.027-0.044,0.082-0.066,0.146-0.082
		c-1.354-0.818-2.492-1.675-3.511-2.401c-1.79-1.275-2.198-3.035-3.412-3.035c-0.638,0-1.498,0.485-2.897,1.781
		c-1.891,1.75-6.064,3.762-9.989,5.415c1.146,0.339,2.003,1.405,2.003,2.665c0,1.099-0.645,2.043-1.572,2.496
		c-0.368,0.18-0.776,0.29-1.212,0.29c-0.514,0-0.998-0.147-1.418-0.397c-0.628-0.374-1.106-0.984-1.288-1.724l-1.907-1.194
		c-1.969,0.735-3.304,1.19-3.304,1.19c-0.957,0.379-2.008,0.515-3.073,0.515c-2.7,0-5.487-0.874-7.039-0.874
		c-0.823,0-1.3,0.246-1.233,0.998C1.216,31.68,1.403,31.913,1.736,32.08z M56.45,33.811c0.68-0.231,0.978-0.44,1.435,0.218
		c0.01,0.015,0.02,0.025,0.031,0.041c0.475,0.715,0.872,1.396,0.872,1.396s-1.313,0.755-2.485,0.909c0,0-0.215,0.034-0.337-0.511
		c0,0-0.074-0.237-0.19-0.92c-0.092-0.545-0.036-0.79,0.338-0.987C56.209,33.907,56.309,33.859,56.45,33.811z M55.143,29.63
		c0.542,0.091,0.952,0.334,0.917,0.543c-0.035,0.209-0.503,0.305-1.044,0.214c-0.542-0.091-0.952-0.334-0.917-0.543
		S54.601,29.539,55.143,29.63z M51.878,30.484c0.55,0.092,0.957,0.402,0.909,0.691c-0.049,0.289-0.534,0.448-1.085,0.356
		c-0.55-0.093-0.957-0.402-0.909-0.691C50.841,30.55,51.327,30.391,51.878,30.484z M49.56,35.358
		c1.155-0.132,1.701-0.311,2.073,0.497c0.372,0.809,0.643,1.57,0.643,1.57s-2.326,0.567-4.155,0.539c0,0-0.339,0.001-0.262-0.578
		c0,0,0.002-0.254,0.154-0.974C48.163,35.694,48.405,35.49,49.56,35.358z M47.949,31.434c-0.058,0.347-0.574,0.549-1.153,0.452
		c-0.578-0.097-1-0.457-0.941-0.804c0.058-0.347,0.574-0.549,1.153-0.452C47.586,30.727,48.008,31.087,47.949,31.434z M45.99,28.416
		c0.573,0.2,0.974,0.541,0.897,0.762s-0.604,0.238-1.177,0.038s-0.974-0.541-0.897-0.762S45.417,28.216,45.99,28.416z M41.29,29.681
		c0.586,0,1.062,0.394,1.062,0.88c0,0.486-0.475,0.88-1.062,0.88s-1.062-0.394-1.062-0.88C40.229,30.075,40.704,29.681,41.29,29.681
		z M39.009,36.864c0,0,0.074-0.243,0.424-0.89c0.35-0.647,0.639-0.774,1.784-0.573c0.04,0.007,0.074,0.012,0.112,0.019
		c1.067,0.181,1.612,0.196,1.734,1.046c0.086,0.596,0.134,1.151,0.156,1.453c0.011,0.144,0.016,0.235,0.016,0.235
		s-1-0.05-2.176-0.232c-0.646-0.099-1.343-0.237-1.961-0.43c0,0-0.049-0.025-0.096-0.075C38.928,37.34,38.864,37.188,39.009,36.864z
		"/>
	<path d="M6.542,23.112l9.348,5.854l0.266,0.167l0.269,0.168l1.763,1.104l0.021,0.105c0.215,1.06,1.157,1.828,2.239,1.828
		c1.26,0,2.285-1.025,2.285-2.285c0-1.321-1.134-2.38-2.473-2.262c-0.13,0.011-0.26,0.02-0.393,0.055l-0.104,0.028l-0.148-0.093
		l-0.26-0.163L7.945,20.472C7.8,20.395,7.622,20.35,7.443,20.35c-0.403,0-0.772,0.22-0.963,0.575l-0.381,0.709
		C5.96,21.89,5.93,22.185,6.014,22.464C6.098,22.744,6.285,22.974,6.542,23.112z"/>
	<path d="M27.61,38.528c-2.575,0-5.329,2.641-5.329,2.641s0.741,0.03,1.909,0.088c1.702,0.085,4.318,0.231,6.916,0.434
		c1.593,0.125,3.175,0.271,4.535,0.438c0.659,0.081,1.268,0.166,1.797,0.257c0.006,0.001,0.011,0.002,0.015,0.002
		c0.048,0-0.09-0.088-0.343-0.227c-1.405-0.773-6.814-3.328-9.067-3.606C27.899,38.536,27.755,38.528,27.61,38.528z"/>
</g>
</svg>
