<?xml version="1.0" encoding="iso-8859-1"?>
<!-- Generator: Adobe Illustrator 17.0.0, SVG Export Plug-In . SVG Version: 6.00 Build 0)  -->
<!DOCTYPE svg PUBLIC "-//W3C//DTD SVG 1.1//EN" "http://www.w3.org/Graphics/SVG/1.1/DTD/svg11.dtd">
<svg version="1.1" id="Capa_1" xmlns="http://www.w3.org/2000/svg" xmlns:xlink="http://www.w3.org/1999/xlink" x="0px" y="0px"
	 width="64px" height="64px" viewBox="0 0 64 64" style="enable-background:new 0 0 64 64;" xml:space="preserve">
<g>
	<path d="M59.868,49.202c-0.687,0.172-1.718,0.488-3.024,0.889c-4.765,1.463-12.739,3.91-19.117,3.91
		c-3.725,0-6.485-0.854-8.203-2.539c-1.863-1.827-2.945-4.116-4.198-6.765c-2.845-6.017-6.74-14.258-23.68-22.449l-0.152-0.074
		l-0.089-0.089c-0.329,0.646-0.498,1.717,0.562,3.175c1.83,2.517,9.266,12.127,6.635,35.35c0,0,1.03,1.144,3.432,0.572
		c0,0,0.915-20.592,1.945-24.711c1.03-4.118,2.974-2.86,6.178,2.631c3.203,5.491,5.949,11.669,8.466,16.474
		c2.517,4.805,5.377,11.211,21.507,4.576c0,0,9.953-4.303,10.868-5.297c0.915-0.995,1.255-6.1,1.255-6.1l-1.359,0.149
		C60.546,49.021,60.195,49.121,59.868,49.202z"/>
	<path d="M59.625,45.029c-0.409-0.097-0.841-0.135-1.281-0.135c-1.502,0-3.084,0.441-4.091,0.441c-0.427,0-0.751-0.079-0.921-0.306
		c-0.686-0.915,2.288-4.805-1.487-5.606c-3.775-0.801-6.292-9.152-9.038-17.274s0.458-9.838-8.237-10.067S5.857,1.786,5.857,1.786
		C4.599,5.332,5.742,6.247,18.67,11.052c12.927,4.805,11.44,7.779,9.839,8.466c-1.602,0.686-15.101,2.86-15.101,2.86
		s-8.233-4.905-11.058-4.905c-0.404,0-0.697,0.1-0.84,0.329c-1.144,1.83,0.572,3.546,0.572,3.546
		c5.013,2.424,8.889,4.847,11.957,7.22c11.846,9.159,11.46,17.547,16.185,22.181c1.677,1.645,4.38,2.253,7.502,2.253
		c5.708,0,12.8-2.031,17.57-3.483c1.875-0.571,3.402-1.055,4.329-1.286C64.201,47.088,62.028,45.601,59.625,45.029z M26.573,36.041
		c-0.169,0.101-0.341,0.196-0.505,0.302l-0.94-1.164l-3.217-3.984c0,0,14.262-3.47,15.558-1.068
		C38.725,32.454,31.727,32.964,26.573,36.041z M41.471,44.923l-2.056,2.746c-4.118,1.182-8.428-2.326-8.428-2.326
		c1.794-1.606,3.38-2.854,4.781-3.82c7.684-5.297,9.786-2.053,9.786-2.053L41.471,44.923z"/>
</g>
</svg>
