<?xml version="1.0" encoding="iso-8859-1"?>
<!-- Generator: Adobe Illustrator 17.0.0, SVG Export Plug-In . SVG Version: 6.00 Build 0)  -->
<!DOCTYPE svg PUBLIC "-//W3C//DTD SVG 1.1//EN" "http://www.w3.org/Graphics/SVG/1.1/DTD/svg11.dtd">
<svg version="1.1" id="Capa_1" xmlns="http://www.w3.org/2000/svg" xmlns:xlink="http://www.w3.org/1999/xlink" x="0px" y="0px"
	 width="64px" height="64px" viewBox="0 0 64 64" style="enable-background:new 0 0 64 64;" xml:space="preserve">
<g>
	<path d="M54.375,6c-0.072-0.013-0.155,0.058-0.245,0.177c-0.112,0.053-0.202,0.153-0.237,0.315
		c-0.015,0.067-0.037,0.135-0.053,0.203c-0.496,1.065-1.211,3.269-2.28,5.991c-3.024,5.822-8.116,11.341-12.988,14.589
		c-5.387,3.591-13.217,2.533-17.557,7.641c-4.258,1.014-3.056,2.139-3.14,6.585C17.75,48.125,3,42,2.375,53
		c0,0,14.25,6.659,27.5,3.83c13.25-2.83,8.5-15.08,16.375-21.08s6.625,2.625,6.5,20.5h2.875c0,0-3.25-22.125,4.25-29.125
		S55.75,6.25,54.375,6z M11.052,54.561c-2.541-0.911,3.09-4.24,3.09-4.24l2.153,4.683C16.294,55.004,13.593,55.472,11.052,54.561z
		 M18.688,43.625c0.75-0.875,0.375-3.562,0.375-3.562L23.5,42.5C21.75,42.5,17.938,44.5,18.688,43.625z M30.062,52
		c0.188-4.83-3.25-7.75-3.25-7.75l8.125,1.938C33.688,50.125,30.062,52,30.062,52z M32,33.125c-4.195,0.626-7.167,1.048-9.267,1.434
		c2.533-2.205,6.057-2.819,9.326-3.588c3.215-0.757,6.099-1.989,8.713-4.036c2.792-2.186,5.689-5.105,8.157-8.357
		C45.599,25.063,40.355,31.878,32,33.125z"/>
</g>
</svg>
