<?xml version="1.0" encoding="iso-8859-1"?>
<!-- Generator: Adobe Illustrator 17.0.0, SVG Export Plug-In . SVG Version: 6.00 Build 0)  -->
<!DOCTYPE svg PUBLIC "-//W3C//DTD SVG 1.1//EN" "http://www.w3.org/Graphics/SVG/1.1/DTD/svg11.dtd">
<svg version="1.1" id="Capa_1" xmlns="http://www.w3.org/2000/svg" xmlns:xlink="http://www.w3.org/1999/xlink" x="0px" y="0px"
	 width="64px" height="64px" viewBox="0 0 64 64" style="enable-background:new 0 0 64 64;" xml:space="preserve">
<g>
	<path d="M5.75,54.333c1,0.5,2.594,0.083,2.594,0.083S7.417,54.333,7.5,35.75c0.083-18.583,16.833,16,23.333,18.583
		S61.5,50.167,61.5,50.167c2.856-2.716-11.805-6.362-16.698-7.487c-4.272-2.418-10.314-0.734-14.925-0.372
		c-0.649-1.232-1.296-2.759-1.813-4.606c-1.756-6.269-10.466-17.611-10.836-18.09L16.65,18.86l-0.891,2.747
		c-0.373-0.546-0.593-0.857-0.593-0.857c-0.472,2.085-0.616,4.033-0.573,5.804c-2.062-2.129-0.985-6.808-0.93-9.413
		c0.591-1.494,1.051-2.545,0.836-3.058c-0.667-1.583-4.083-4.917-4.083-4.917c-7.485,6.617-8.931,11.361-8.042,14.305
		C2.392,25.26,3,27.417,3,27.417C7.167,40.5,4.75,53.833,5.75,54.333z M44.001,43.363c0.529,2.13-7.341,2.163-12.125,1.99
		c-0.414-0.501-0.924-1.193-1.462-2.092C34.591,42.837,40.141,41.401,44.001,43.363z M17.013,20.984
		c2.006,2.685,8.64,11.813,10.089,16.987c0.579,2.066,1.307,3.741,2.03,5.073c0.006,0.016,0.018,0.029,0.025,0.045
		c0.486,0.89,0.966,1.624,1.398,2.208c-1.339-0.064-2.221-0.131-2.221-0.131c-2.023-7.376-8.954-18.175-11.863-22.51L17.013,20.984z
		 M12.429,20.881c-0.143,2.731,0.038,5.571,2.234,6.984c0.403,4.989,2.254,8.218,2.254,8.218l-3.736-4.416l0,0
		C11.467,27.451,11.712,23.786,12.429,20.881z"/>
</g>
</svg>
