<?xml version="1.0" encoding="iso-8859-1"?>
<!-- Generator: Adobe Illustrator 17.0.0, SVG Export Plug-In . SVG Version: 6.00 Build 0)  -->
<!DOCTYPE svg PUBLIC "-//W3C//DTD SVG 1.1//EN" "http://www.w3.org/Graphics/SVG/1.1/DTD/svg11.dtd">
<svg version="1.1" id="Capa_1" xmlns="http://www.w3.org/2000/svg" xmlns:xlink="http://www.w3.org/1999/xlink" x="0px" y="0px"
	 width="64px" height="64px" viewBox="0 0 64 64" style="enable-background:new 0 0 64 64;" xml:space="preserve">
<g>
	<path d="M50.378,43.962c-0.242,0.111-0.472,0.22-0.677,0.325c-0.24,0.122-0.45,0.238-0.623,0.343c-0.001,0-0.001,0.001-0.002,0.001
		c0.006,0.001,0.013,0.003,0.019,0.004c1.43,0.277,4.029,0.854,4.954,1.548l0.082,0.061l0.051,0.089
		c0.015,0.026,0.038,0.067,0.055,0.097c0.394,0.689,1.428,2.566,1.428,3.277c0,0.273-0.213,0.562-0.607,0.562
		c-0.666,0-3.382-1.3-5.801-2.528c0.011,0.072,0.015,0.138,0.029,0.211c0.268,1.419,1.336,2.121,1.347,2.127l0.636,0.409
		l-0.754,0.051c-0.258,0.018-1.154,0.074-1.912,0.074c-0.478,0-0.899-0.022-1.072-0.092c-0.545-0.217-1.779-1.769-1.614-3.3
		c0.06-0.557,0.036-0.88-0.001-1.064l-0.485,0.424c-0.087,0.704-0.384,2.897-0.776,3.682c-0.37,0.739-0.351,2.016-0.131,2.31
		c0.202,0.27,0.12,0.507,0.075,0.597l-0.177,0.291h-0.309c-0.119,0-0.482,0-3.066-1.443l-0.303-0.169l0.052-0.343
		c0.033-0.22,0.196-1.269,0.41-2.414l-12.755,3.597l-0.483,0.136l-0.485,0.137c2.284,5.673,4.24,7.014,8.851,7.014
		c0.991,0,2.097-0.055,3.377-0.118l0.403-0.02c7.878-0.385,19.097-3.692,19.209-3.725l0.133-0.04l0.094-0.103
		c1.585-1.735,2.108-3.453,1.559-5.105C59.993,47.516,54.558,45.245,50.378,43.962z"/>
	<path d="M11.142,60.383l-0.083,0.571h2.877l0.094-0.379c0.211-0.844,0.283-3.362,0.381-6.847
		c0.176-6.188,0.502-17.708,2.213-18.757c0.219-0.134,0.441-0.199,0.68-0.199c2.322,0,5.868,5.929,9.037,15.106l0.477-0.15
		l0.477-0.15l11.038-3.468l-0.238-0.467l-0.074-0.146l-0.095-0.186l0.27-0.257c0.005-0.005,0.015-0.014,0.026-0.023
		c0.056-0.048,0.193-0.152,0.456-0.295c-2.029-1.244-4.66-4.258-7.816-10.745c2.995,4.514,6.667,8.13,12.211,9.312
		c0.199,0.042,0.395,0.088,0.599,0.124c0.212,0.037,0.429,0.068,0.646,0.099c-0.186,0.05-0.373,0.099-0.568,0.14
		c-2.51,0.531-3.855,1.033-4.547,1.362c-0.253,0.121-0.419,0.217-0.52,0.284c-0.1,0.066-0.142,0.104-0.142,0.104l0.267,0.525
		l0.008,0.017l0.115,0.226l0.115,0.226l0.703,1.381c0.079,0.011,0.157,0.016,0.235,0.016c0.744,0,1.41-0.481,1.885-0.955
		c0.062-0.062,0.123-0.123,0.178-0.184c0.061-0.067,0.113-0.129,0.165-0.191c0.048-0.058,0.092-0.111,0.131-0.163
		c0.036-0.047,0.074-0.096,0.102-0.135c0.018-0.037,0.036-0.07,0.054-0.098c0.061-0.095,0.092-0.136,0.096-0.136
		c0.006,0-0.047,0.092-0.149,0.234c-0.016,0.033-0.033,0.079-0.049,0.119c-0.029,0.071-0.058,0.15-0.088,0.241
		c-0.025,0.077-0.051,0.158-0.077,0.247c-0.023,0.081-0.047,0.162-0.07,0.252c-0.104,0.395-0.208,0.865-0.308,1.353
		c-0.019,0.091-0.037,0.183-0.055,0.275c-0.018,0.092-0.036,0.183-0.053,0.275c-0.258,1.345-0.455,2.641-0.455,2.641
		s2.471,1.38,2.822,1.38c0.049,0,0.057-0.027,0.011-0.088c-0.375-0.5-0.333-2,0.083-2.833c0.189-0.378,0.36-1.174,0.491-1.932
		c0.003-0.015,0.005-0.029,0.008-0.044c0.154-0.899,0.251-1.732,0.251-1.732l0.99-0.867l0.001-0.012
		c0.061,0.007,0.145,0.04,0.227,0.12c0.016,0.008,0.029,0.016,0.047,0.025l-0.016,0.006c0.065,0.076,0.126,0.191,0.171,0.36
		c0.024,0.088,0.043,0.191,0.055,0.312c0.026,0.251,0.028,0.573-0.018,1c-0.144,1.329,0.994,2.66,1.302,2.782
		c0.189,0.076,1.151,0.068,2.147,0.02c-0.387-0.394-0.887-1.066-1.069-2.032c-0.039-0.205-0.06-0.395-0.08-0.581
		c-0.011-0.103-0.021-0.201-0.028-0.298c-0.007-0.1-0.014-0.199-0.02-0.293c-0.003-0.045-0.007-0.096-0.009-0.14
		c-0.047-0.893-0.093-1.298-0.675-1.544l0.098-0.23l0.01-0.024c0.011-0.049,0.03-0.1,0.064-0.152l0.023-0.055
		c0.006,0.002,0.01,0.006,0.015,0.008c0.068-0.09,0.161-0.182,0.281-0.277c0.152-0.121,0.339-0.244,0.55-0.368
		c0.198-0.116,0.414-0.231,0.641-0.343c1.179-0.585,2.583-1.083,2.583-1.083s-0.583-0.875-1.333-2.083
		c-0.112-0.18-0.253-0.258-0.427-0.258c-0.754,0-2.122,1.473-4.349,2.525c-0.074,0.035-0.151,0.068-0.226,0.102
		c-0.035-0.072-0.085-0.133-0.152-0.182c-0.007-0.005-0.012-0.011-0.019-0.016c-0.068-0.045-0.146-0.08-0.244-0.087
		c-0.05-0.004-0.097-0.014-0.147-0.019c-8.522-0.736-13.101-7.904-16.834-14.794c-2.536-4.682-4.891-9.759-8.373-13.844
		c-3.189-4.96-4.939-6.61-5.047-6.708c-0.339-0.378-0.812-0.578-1.368-0.578c-2.233,0-5.686,3.228-8.189,5.936
		c-4.25,4.597-3.535,11.163,2.469,22.662C13.237,45.33,11.163,60.234,11.142,60.383z"/>
	<path d="M28.266,52.224l13.048-3.679c0.048-0.242,0.097-0.483,0.148-0.716c-0.428,0.276-0.93,0.479-1.477,0.479
		c-0.101,0-0.202-0.007-0.304-0.021l-0.258-0.036l-0.118-0.232l-0.741-1.456l-11.102,3.488l-0.477,0.15l-0.476,0.149l-0.385,0.121
		l0.794,2.133l0.38-0.107l0.483-0.136L28.266,52.224z"/>
	<path d="M49.188,47.14c2.374,1.211,5.283,2.63,5.872,2.63c0.07,0,0.107-0.02,0.107-0.062c0-0.667-1.417-3.125-1.417-3.125
		c-0.902-0.676-3.788-1.276-5.055-1.513c0.397,0.409,0.43,0.99,0.465,1.638C49.166,46.843,49.177,46.992,49.188,47.14z"/>
</g>
</svg>
