<?xml version="1.0" encoding="iso-8859-1"?>
<!-- Generator: Adobe Illustrator 17.0.0, SVG Export Plug-In . SVG Version: 6.00 Build 0)  -->
<!DOCTYPE svg PUBLIC "-//W3C//DTD SVG 1.1//EN" "http://www.w3.org/Graphics/SVG/1.1/DTD/svg11.dtd">
<svg version="1.1" id="Capa_1" xmlns="http://www.w3.org/2000/svg" xmlns:xlink="http://www.w3.org/1999/xlink" x="0px" y="0px"
	 width="64px" height="64px" viewBox="0 0 64 64" style="enable-background:new 0 0 64 64;" xml:space="preserve">
<g>
	<path d="M61.435,38.635c-0.928-0.309-7.732,0.309-9.897-0.928c-2.165-1.237-0.619-2.938-8.815-1.856
		c-8.196,1.083-21.341-20.413-26.445-26.599c-5.103-6.186-7.114-4.33-7.114-4.33s-10.825,8.042-5.877,18.867
		c4.949,10.825,3.711,34.177,3.711,34.177h3.402c0-19.176-1.083-31.703,6.959-27.372c8.042,4.33,13.145,22.115,16.238,25.362
		c3.093,3.248,12.99,2.01,12.99,2.01s6.959-2.784,11.289-4.949C62.208,50.852,62.363,38.944,61.435,38.635z M48.357,43.719
		c-0.188,0.244-0.459,0.4-0.764,0.44l-0.065-0.496l-0.065-0.496c0.071-0.009,0.142-0.099,0.132-0.17l-0.593-4.529
		c-0.01-0.072-0.104-0.15-0.172-0.131l-1.883,0.247l0.26,1.984c0.035,0.273-0.157,0.524-0.432,0.561
		c-0.021,0.003-0.044,0.004-0.065,0.004c-0.247,0-0.462-0.184-0.495-0.436l-0.26-1.983l-1.884,0.247
		c-0.083,0.011-0.142,0.088-0.131,0.172l0.593,4.527c0.011,0.082,0.082,0.146,0.172,0.131l0.063,0.496l0.064,0.497
		c-0.05,0.006-0.099,0.01-0.147,0.01c-0.57,0-1.067-0.424-1.144-1.003l-0.593-4.529c-0.081-0.63,0.365-1.209,0.993-1.292
		l1.897-0.248c0.002-0.246,0.176-0.461,0.427-0.494c0.247-0.034,0.473,0.13,0.538,0.368l1.898-0.248
		c0.305-0.034,0.607,0.043,0.852,0.229c0.244,0.188,0.401,0.46,0.44,0.766l0.593,4.527C48.627,43.172,48.545,43.475,48.357,43.719z"
		/>
</g>
</svg>
