<?xml version="1.0" encoding="iso-8859-1"?>
<!-- Generator: Adobe Illustrator 17.0.0, SVG Export Plug-In . SVG Version: 6.00 Build 0)  -->
<!DOCTYPE svg PUBLIC "-//W3C//DTD SVG 1.1//EN" "http://www.w3.org/Graphics/SVG/1.1/DTD/svg11.dtd">
<svg version="1.1" id="Capa_1" xmlns="http://www.w3.org/2000/svg" xmlns:xlink="http://www.w3.org/1999/xlink" x="0px" y="0px"
	 width="64px" height="64px" viewBox="0 0 64 64" style="enable-background:new 0 0 64 64;" xml:space="preserve">
<g>
	<path d="M54.349,50.322c-0.159,0.008-0.329,0.022-0.51,0.041c-0.162,0.017-0.333,0.038-0.512,0.063
		c0.009-0.072,0.018-0.138,0.027-0.212c0.46-3.641,0.362-3.676-0.58-4.015c-0.526-0.188-1.247-0.447-2.174-1.107
		c-1.154-0.82-3.288-1.895-5.437-2.89c0.279,0.459,0.38,0.918,0.306,1.379c-0.334,2.071-4.181,3.028-6.168,3.245
		c-1.607,0.175-3.627,0.451-5.367,0.703c-0.032,0.001-0.065,0.004-0.097,0.006c-0.177,0.01-0.354,0.016-0.531,0.033
		c-0.173,0.018-0.346,0.041-0.518,0.064c-0.057-0.135-0.114-0.274-0.17-0.416c-0.062-0.156-0.122-0.315-0.183-0.478
		c-0.767-2.068-1.406-4.562-1.406-4.562c3.085-0.266,8.038-0.82,10.836-1.365c0.267-0.052,0.514-0.104,0.738-0.156
		c0.076-0.018,0.15-0.035,0.221-0.053c0.304-0.075,0.548-0.149,0.737-0.222c0.292-0.112,0.451-0.221,0.4-0.322
		c-0.439-0.877-2.28-7.455-2.105-12.016c0.023-0.599-0.291-1.024-0.833-1.325c-0.359-0.199-0.822-0.341-1.371-0.434
		c-0.606-0.103-1.301-0.155-2.079-0.155c-5.132,0-13.312,1.954-15.489,1.954c-0.172,0-0.307-0.012-0.4-0.039
		c-1.842-0.526-4.999-7.981-5.35-10.174c-0.351-2.193-1.842-2.719-0.439-3.337c0.895-0.394,2.358-2.279,3.303-3.595
		c0.125,0.111,0.25,0.222,0.385,0.326c0.132,0.102,0.271,0.198,0.411,0.292c0.334,0.224,0.688,0.426,1.058,0.607
		c2.231,1.374,5.373,2.686,9.402,4.041c6.776,2.279,8.59,6.563,9.061,9.045c0.532,0.072,0.999,0.177,1.398,0.32
		c-0.278-2.981-0.813-9.245-0.548-10.768c0.351-2.017,0.965-1.316-1.491-2.631C36.42,10.853,18.879,1.995,18.879,1.995
		s-0.003-0.51-0.589,0.939C17.748,2.221,16.9,2.07,16.005,3.238c-1.692,2.208-0.65,4.67-0.418,7.104
		c0.032,0.336,0.043,0.672,0.035,1.006c-0.011,0.445-0.068,0.888-0.189,1.327c-0.108,0.181-0.206,0.351-0.326,0.547
		c-3.596,5.876-5.35,8.244-2.368,17.892c2.982,9.648,1.754,29.995,1.754,29.995h2.105c0,0,0.526-19.032,0.516-22.716
		c-0.008-2.74,0.341-7.031,2.721-7.031c0.82,0,1.882,0.51,3.253,1.769c4.535,4.163,4.126,7.732,4.78,8.923
		c0.651,1.187,1.435,3.42,1.977,5.081c0.055,0.167,0.107,0.328,0.156,0.482c0.302,0.942,0.498,1.608,0.498,1.608l0.02-0.005
		c0.041,0.124,0.097,0.282,0.167,0.473c0.053,0.146,0.111,0.302,0.175,0.47c0.235,0.621,0.516,1.336,0.714,1.794
		c0.107,0.393,0.215,0.761,0.324,1.112c0.039,0.572,0.096,1.235,0.182,1.95c0.057,0.477,0.128,0.97,0.211,1.465
		c0.359,2.13,0.987,4.255,2.089,4.91c2.434,1.447,10.327,0.855,20.326-3.618c0,0,0.921-3.092,1.447-5.46
		C56.506,50.728,55.967,50.237,54.349,50.322z M16.49,9.569c-0.06-0.359-0.133-0.723-0.211-1.093
		c-0.022-0.102-0.043-0.203-0.065-0.306c-0.259-1.196-0.366-2.447,0.126-3.596c0.153-0.358,0.39-0.665,0.653-0.947
		c0.55-0.591,0.748,0.031,0.829,0.546c-0.107,0.297-0.225,0.635-0.355,1.013c0.041,0,0.091,0.001,0.147,0.006
		c-0.036,0.067-0.079,0.124-0.101,0.206c-0.026,0.099-0.034,0.191-0.056,0.288c-0.041,0.185-0.083,0.37-0.106,0.549
		c-0.081,0.042-0.149,0.124-0.195,0.274c-0.005,0.015-0.013,0.019-0.017,0.036c-0.125,0.48-0.051,0.751,0.034,1.03
		c0.049,0.158,0.099,0.322,0.121,0.525c0.049,0.452-0.052,1.114-0.681,2.422C16.586,10.206,16.544,9.889,16.49,9.569z"/>
</g>
</svg>
