<?xml version="1.0" encoding="iso-8859-1"?>
<!-- Generator: Adobe Illustrator 17.0.0, SVG Export Plug-In . SVG Version: 6.00 Build 0)  -->
<!DOCTYPE svg PUBLIC "-//W3C//DTD SVG 1.1//EN" "http://www.w3.org/Graphics/SVG/1.1/DTD/svg11.dtd">
<svg version="1.1" id="Capa_1" xmlns="http://www.w3.org/2000/svg" xmlns:xlink="http://www.w3.org/1999/xlink" x="0px" y="0px"
	 width="64px" height="64px" viewBox="0 0 64 64" style="enable-background:new 0 0 64 64;" xml:space="preserve">
<g>
	<path d="M14.691,27.099c0.896,0,2.952,0.732,6.659,5.64c3.626,4.798,4.627,10.06,5.511,14.702c0.651,3.419,1.267,6.649,2.838,9.197
		c1.981,3.21,4.274,5.348,9.025,5.348c3.665,0,8.737-1.238,16.445-4.016l0.141-0.05l0.09-0.12c0.156-0.209,3.846-5.173,3.975-9.284
		c0.025-0.819-0.206-1.486-0.687-1.982c-0.664-0.685-1.784-1.018-3.424-1.018c-1.26,0-2.661,0.191-3.896,0.359
		c-0.543,0.074-1.066,0.146-1.532,0.194l0.896-2.706l-0.374-0.198c-0.036-0.02-3.708-1.972-5.88-4.144l-0.334-0.334l-0.131,0.117
		c-0.951-2.451-1.092-5.076-1.284-7.703c0.038-0.034,0.093-0.07,0.126-0.103c2.09-2.115-0.838-7.076-1.179-7.634l-0.13-0.201
		l-0.23-0.035c0,0-0.025-0.002-0.036-0.003c-0.888-3.038-1.868-6.008-1.891-9.27l0.402-0.098l-0.835-8.078l-0.394-0.05
		c-0.187-0.023-18.664-2.392-25.178-4.235l-0.548-0.155l-0.083,0.564c-0.005,0.034-0.526,3.411-3.509,6.87
		c-0.234,0.272-0.47,0.539-0.704,0.804c-2.94,3.328-5.717,6.472-2.128,14.967c3.67,8.685,4.206,34.791,4.211,35.054l0.01,0.491
		h3.255l-0.015-0.514c-0.008-0.265-0.75-26.521-0.75-29.85C13.125,28.404,13.536,27.099,14.691,27.099z M43.245,39.542
		c-1.009,1.058-3.118,3.591-3.798,6.9c-0.445,0.071-1.306,0.181-2.315,0.181c-2.287,0-5.213-0.552-6.161-3.186
		c-1.293-3.588-2.255-5.983-2.666-6.982c2.38-0.669,10.45-3.003,13.566-4.763C42.069,34.364,42.195,37.011,43.245,39.542z
		 M40.189,23.166c-1.889,0.198-6.496,1.148-15.899,5.337c-0.872-1.167-3.925-5.036-7.265-6.738
		c-0.389-1.078-2.314-6.751-1.195-10.438c2.434,0.493,14.132,2.795,20.589,2.795c0.001,0,0.001,0,0.001,0
		c0.767,0,1.412-0.036,1.973-0.101C38.438,17.195,39.308,20.169,40.189,23.166z"/>
</g>
</svg>
