<?xml version="1.0" encoding="iso-8859-1"?>
<!-- Generator: Adobe Illustrator 17.0.0, SVG Export Plug-In . SVG Version: 6.00 Build 0)  -->
<!DOCTYPE svg PUBLIC "-//W3C//DTD SVG 1.1//EN" "http://www.w3.org/Graphics/SVG/1.1/DTD/svg11.dtd">
<svg version="1.1" id="Capa_1" xmlns="http://www.w3.org/2000/svg" xmlns:xlink="http://www.w3.org/1999/xlink" x="0px" y="0px"
	 width="64px" height="64px" viewBox="0 0 64 64" style="enable-background:new 0 0 64 64;" xml:space="preserve">
<g>
	<path d="M61.056,39.381c-0.737-0.59-2.697-0.977-4.324-1.204c-0.159,0.783-0.081,1.673,0.533,2.547
		C58.052,40.562,59.697,40.153,61.056,39.381z"/>
	<path d="M11.479,50.172c0.413,3.581,3.306,4.689,10.468,4.617c7.162-0.072,10.055,4.06,17.768,3.234s13.085-1.653,15.84-6.474
		c2.549-4.46,4.858-9.177,5.626-11.1c-1.472,0.754-3.083,1.134-3.822,1.279c-0.662,0.682-5.572,5.418-14.249,5.418
		c0,0-0.001,0-0.002,0c-0.531,0-1.078-0.018-1.637-0.056c-8.179-0.56-10.11-3.794-12.346-7.539
		c-0.583-0.978-1.187-1.988-1.933-2.992c-3.499-4.71-6.231-7.057-6.259-7.08l-0.187-0.159l-0.008,0.013
		c-0.593-0.364-12.416-7.665-17.894-14.5c-0.85,2.66,3.278,16.073,5.483,22.117C10.79,43.698,11.065,46.591,11.479,50.172z"/>
	<path d="M21.079,28.367c0.183-0.372,0.432-0.945,0.647-1.636C17.38,23.491,6.743,15.668,3.873,14.509
		C9.017,20.706,19.593,27.436,21.079,28.367z"/>
	<path d="M17.14,9.162l1.597-1.503c0.178-0.168,0.406-0.248,0.641-0.286C16.748,4.447,14.105,2.086,12.3,1.55
		C11.098,2.635,9.19,4.84,9.942,5.785c1.031,1.297,2.798,3.441,4.733,5.763c0.048-0.069,0.084-0.145,0.147-0.204l1.597-1.503
		c-0.171-0.202-0.16-0.503,0.034-0.686C16.648,8.972,16.948,8.978,17.14,9.162z"/>
	<path d="M57.034,35.345c-1.003-1.746-6.306-3.413-9.834-4.155c-0.002,0.004-0.005,0.009-0.006,0.013
		c-0.141-0.029-0.306-0.057-0.505-0.082c-0.155-0.019-0.333-0.035-0.527-0.049c-1.073-0.076-2.779-0.058-5.5,0.223
		c-1.43,0.151-2.739-0.084-3.913-0.52c-0.419-0.156-0.822-0.334-1.205-0.535c-0.477-0.251-0.923-0.531-1.339-0.827
		c-2.04-2.604-3.877-5.867-5.591-8.921c-0.647-1.152-1.267-2.257-1.863-3.258c-0.769-1.292-1.755-2.761-2.855-4.268
		c-0.027,0.031-0.04,0.07-0.071,0.099l-3.915,3.686c-0.174,0.165-0.394,0.252-0.625,0.295c0.863,1.022,1.669,1.973,2.353,2.776
		c2.136,2.507,1.632,5.58,0.946,7.55c-0.246,0.706-0.515,1.275-0.695,1.619c0.819,0.749,3.178,3.03,6.106,6.972
		c0.776,1.045,1.393,2.078,1.989,3.076c2.178,3.648,3.899,6.529,11.556,7.053c8.405,0.585,13.607-3.668,14.865-4.834
		c-0.735-1.07-0.85-2.191-0.662-3.205C55.947,36.955,56.507,35.984,57.034,35.345z M42.391,34.511c-0.706,0-1.47-0.123-2.27-0.366
		c-1.396-0.423-2.702-1.316-3.935-2.506c0.381,0.149,0.774,0.28,1.183,0.386c0.375,0.097,0.761,0.176,1.16,0.228
		c0.402,0.053,0.813,0.087,1.238,0.087c0.326,0,0.659-0.017,0.997-0.051c2.273-0.236,3.785-0.276,4.782-0.245
		c0.227,0.007,0.431,0.017,0.607,0.031c0.222,0.017,0.404,0.037,0.554,0.059C46.02,33.208,44.71,34.511,42.391,34.511z"/>
	<path d="M18.912,16.024c0.143,0.153,0.243,0.065,0.313-0.002l3.915-3.686c0.093-0.087,0.103-0.228,0.021-0.314l-3.425-3.638
		c-0.052-0.055-0.117-0.063-0.151-0.063c-0.06,0-0.118,0.023-0.164,0.066l-1.593,1.5l1.533,1.629
		c0.189,0.201,0.18,0.518-0.021,0.707c-0.097,0.091-0.22,0.136-0.343,0.136c-0.133,0-0.266-0.053-0.364-0.157L17.1,10.572
		l-1.593,1.5c-0.046,0.043-0.074,0.102-0.076,0.163c-0.001,0.04,0.006,0.099,0.055,0.15L18.912,16.024z"/>
</g>
</svg>
