<svg xmlns="http://www.w3.org/2000/svg" viewBox="0 0 481.312 481.312"><path d="M407.01 302.24s27.682-1.2 47.718 22.118c-9.036-18.994-26.246-44.85-58.53-67.18 0 0 34.146-1.42 54.045 30.934l-.305-1.676c-8.51-46.398-41.558-84.724-86.23-99.88-.052-.006-.085-.023-.135-.04 0 0 31.98-10.645 59.85 14.263 0-.008-.016-.017-.016-.025-10-22.134-26.754-40.29-47.973-52.085-9.12-5.068-19.46-9.764-31.118-13.706 0 0 20.103-6.633 42.288 2.96 0-.016-.017-.04-.035-.058-15.28-20.323-36.89-34.69-61.493-40.967-22.962-5.856-49.106-8.698-74.674-3.233 0 0 18.393-32.05 53.168-31.82-36.397-20.78-84.775-32.548-118.06-7.387C135.946 20.485 85.69 1.135 26.584 0c37.16 19.748 151.666 58.524 293.3 238.49-47.787-48.86-105.184-99.642-165.56-139.516-5.094 14.704-7.496 31.862-5.517 50.974 7.496-15.347 18.935-23.13 18.935-23.13l-.203.608c-12.05 35.975-6.313 75.53 15.414 106.632.373.523.745 1.057 1.118 1.59 6.43-21.837 22.657-32.972 22.657-32.972-2.725 8.062-4.79 15.822-6.28 23.25-3.315 16.397 1.61 33.378 13.2 45.434.32.338.677.626.997.963 2.183-34.13 26.99-65.434 26.99-65.434-4.113 27.09-3.537 50.737-.964 70.23a50.047 50.047 0 0 0 20.932 34.495c.1.068.203.144.305.21.81-24.467 15.737-39.89 15.737-39.89a183.348 183.348 0 0 0-1.303 16.168 56.86 56.86 0 0 0 26.837 50.468c2.05-22.37 15.45-36.338 15.45-36.338-3.096 25.23 7.834 50.14 28.48 64.96 15.7 11.27 30.237 23.532 42.758 38.125-2.487-39.427-17.733-62.94-17.733-62.94 32.454 34.13 36.55 62.17 32.2 82.104 10.12 15.9 18.056 34.445 23.048 56.832 11.54-18.674 20.102-43.826 24.806-72.838 6.685-41.12-10.915-82.534-45.18-106.233z"/></svg>