<svg xmlns="http://www.w3.org/2000/svg" viewBox="0 0 490.875 490.875"><path d="M196.802 34.737c-77.61 44.376-108.43 118.698-119.175 183.07-20.596-9.68-45.042-5.877-45.042-5.877 16.79 4.93 37.573 19.19 37.573 19.19-42.39 10.533-65.552 0-65.552 0 19.996 16.923 61.56 18.253 61.56 18.253-51.18 3.99-61.56 36.786-61.56 36.786 18.825-26.312 52.818-22.545 64.147-20.446-.038.084-.084.17-.113.253-24.183 57.953-26.012 148.307 30.51 224.906-8.78-20.715-116.974-239.007 151.736-379.903-105.88 75.39-130.785 121.108-146.434 169.895 0 0 25.674 11.685 28.878 39.673 0 0 1.92-28.015-22.966-49.125l.01-.01c.292.196 24.69 17.136 48.536 14.757 0 0-33.563-4.797-36.767-20.792 0 0 9.595.796 20.782 0 0 0-15.94-.468-20.37-11.02 24.165-30.33 60.173-58.01 112.083-62.488 149.6-12.892 218.714 30.8 248.847-68.54 25.69-84.75-130.936-174.272-286.683-88.583z"/></svg>