<?xml version="1.0" encoding="iso-8859-1"?>
<!-- Generator: Adobe Illustrator 17.1.0, SVG Export Plug-In . SVG Version: 6.00 Build 0)  -->
<!DOCTYPE svg PUBLIC "-//W3C//DTD SVG 1.1//EN" "http://www.w3.org/Graphics/SVG/1.1/DTD/svg11.dtd">
<svg version="1.1" id="Capa_1" xmlns="http://www.w3.org/2000/svg" xmlns:xlink="http://www.w3.org/1999/xlink" x="0px" y="0px"
	 viewBox="0 0 444.77 444.77" style="enable-background:new 0 0 444.77 444.77;" xml:space="preserve">
<path d="M381.407,328.48H361.04c-0.326-22.292-18.55-40.328-40.917-40.328h-10.331c-22.367,0-40.591,18.036-40.917,40.328h-18.427
	V226.467h0.729c6.192,0,11.595-5.025,12.041-11.184c0,0,3.093-40.729,6.149-81.558c4.89-65.3,5.906-79.082,5.863-82.699l0.084-0.003
	C274.272,22.412,251.023,0,222.385,0s-51.888,22.412-52.93,51.023l0.084,0.003c-0.043,3.617,0.974,17.399,5.863,82.699
	c3.056,40.818,6.147,81.538,6.147,81.541c0.448,6.176,5.851,11.201,12.043,11.201h0.729V328.48H63.362c-7.72,0-14,6.28-14,14v88.289
	c0,7.72,6.28,14,14,14h318.045c7.72,0,14-6.28,14-14V342.48C395.407,334.761,389.127,328.48,381.407,328.48z M334.512,411.429
	h-39.109c-10.977,0-19.876-8.899-19.876-19.876s8.899-19.876,19.876-19.876h39.109c10.977,0,19.876,8.899,19.876,19.876
	S345.49,411.429,334.512,411.429z"/>
<g>
</g>
<g>
</g>
<g>
</g>
<g>
</g>
<g>
</g>
<g>
</g>
<g>
</g>
<g>
</g>
<g>
</g>
<g>
</g>
<g>
</g>
<g>
</g>
<g>
</g>
<g>
</g>
<g>
</g>
</svg>
