<?xml version="1.0" encoding="iso-8859-1"?>
<!-- Generator: Adobe Illustrator 17.1.0, SVG Export Plug-In . SVG Version: 6.00 Build 0)  -->
<!DOCTYPE svg PUBLIC "-//W3C//DTD SVG 1.1//EN" "http://www.w3.org/Graphics/SVG/1.1/DTD/svg11.dtd">
<svg version="1.1" id="Capa_1" xmlns="http://www.w3.org/2000/svg" xmlns:xlink="http://www.w3.org/1999/xlink" x="0px" y="0px"
	 viewBox="0 0 363.653 363.653" style="enable-background:new 0 0 363.653 363.653;" xml:space="preserve">
<path d="M343.654,0H20C8.972,0,0,8.972,0,19.999v323.654c0,11.027,8.972,19.999,20,19.999h323.654
	c11.027,0,19.999-8.972,19.999-19.999V19.999C363.653,8.972,354.681,0,343.654,0z M45.458,221.827
	c11.41,0,20.659,9.25,20.659,20.659c0,11.41-9.25,20.66-20.659,20.66s-20.659-9.25-20.659-20.66
	C24.799,231.077,34.049,221.827,45.458,221.827z M56.756,347.349c-17.649,0-31.957-14.307-31.957-31.956
	c0-17.649,14.307-31.957,31.957-31.957c17.649,0,31.957,14.307,31.957,31.957C88.712,333.042,74.405,347.349,56.756,347.349z
	 M255.827,234.111H108.493c-6.667,0-10.704-4.136-12.621-6.316c-17.714-20.147-28.461-46.569-28.461-75.505
	c0-63.189,51.225-114.415,114.415-114.415s114.415,51.225,114.415,114.415c0,29.61-11.253,56.589-29.711,76.905
	C264.999,230.879,261.493,234.111,255.827,234.111z M306.898,347.349c-17.649,0-31.957-14.307-31.957-31.956
	c0-17.649,14.307-31.957,31.957-31.957c17.649,0,31.957,14.307,31.957,31.957C338.854,333.042,324.547,347.349,306.898,347.349z"/>
<g>
</g>
<g>
</g>
<g>
</g>
<g>
</g>
<g>
</g>
<g>
</g>
<g>
</g>
<g>
</g>
<g>
</g>
<g>
</g>
<g>
</g>
<g>
</g>
<g>
</g>
<g>
</g>
<g>
</g>
</svg>
