<?xml version="1.0" encoding="iso-8859-1"?>
<!-- Generator: Adobe Illustrator 17.1.0, SVG Export Plug-In . SVG Version: 6.00 Build 0)  -->
<!DOCTYPE svg PUBLIC "-//W3C//DTD SVG 1.1//EN" "http://www.w3.org/Graphics/SVG/1.1/DTD/svg11.dtd">
<svg version="1.1" id="Capa_1" xmlns="http://www.w3.org/2000/svg" xmlns:xlink="http://www.w3.org/1999/xlink" x="0px" y="0px"
	 viewBox="0 0 397.609 397.609" style="enable-background:new 0 0 397.609 397.609;" xml:space="preserve">
<path d="M333.318,0H64.291c-8.271,0-15,6.729-15,15v367.609c0,8.271,6.729,15,15,15H248.56c6.892,0,15.742-3.695,20.587-8.596
	l70.697-71.51c4.831-4.886,8.475-13.754,8.475-20.627V15C348.318,6.729,341.589,0,333.318,0z M166.728,325.095
	c0,2.098-1.717,3.816-3.816,3.816H105.59c-2.099,0-3.816-1.717-3.816-3.816v-56.91c0-2.099,1.717-3.816,3.816-3.816h57.322
	c2.099,0,3.816,1.717,3.816,3.816V325.095z M232.636,345.613c-11.97,0-21.674-9.704-21.674-21.674
	c0-11.97,9.704-21.674,21.674-21.674s21.674,9.704,21.674,21.674C254.31,335.909,244.606,345.613,232.636,345.613z M272.509,302.265
	c-11.97,0-21.674-9.704-21.674-21.674c0-11.97,9.704-21.674,21.674-21.674c11.97,0,21.674,9.704,21.674,21.674
	C294.182,292.562,284.479,302.265,272.509,302.265z M304.835,220.079c0,2.271-1.858,4.13-4.13,4.13h-203.8
	c-2.271,0-4.13-1.858-4.13-4.13V205.18c0-2.271,1.858-4.13,4.13-4.13h203.8c2.271,0,4.13,1.858,4.13,4.13V220.079z M304.835,157.205
	c0,5.28-4.32,9.599-9.6,9.599H102.374c-5.28,0-9.6-4.32-9.6-9.599V51.28c0-5.28,4.32-9.599,9.6-9.599h192.861
	c5.28,0,9.6,4.32,9.6,9.599V157.205z"/>
<g>
</g>
<g>
</g>
<g>
</g>
<g>
</g>
<g>
</g>
<g>
</g>
<g>
</g>
<g>
</g>
<g>
</g>
<g>
</g>
<g>
</g>
<g>
</g>
<g>
</g>
<g>
</g>
<g>
</g>
</svg>
