<?xml version="1.0" encoding="iso-8859-1"?>
<!-- Generator: Adobe Illustrator 17.1.0, SVG Export Plug-In . SVG Version: 6.00 Build 0)  -->
<!DOCTYPE svg PUBLIC "-//W3C//DTD SVG 1.1//EN" "http://www.w3.org/Graphics/SVG/1.1/DTD/svg11.dtd">
<svg version="1.1" id="Capa_1" xmlns="http://www.w3.org/2000/svg" xmlns:xlink="http://www.w3.org/1999/xlink" x="0px" y="0px"
	 viewBox="0 0 431.107 431.107" style="enable-background:new 0 0 431.107 431.107;" xml:space="preserve">
<g>
	<path d="M206.419,186.435c2.418,2.548,5.663,3.951,9.134,3.951s6.716-1.403,9.134-3.951l52.122-54.912
		c3.923-4.133,6.881-11.547,6.881-17.245V13c0-7.168-5.832-13-13-13H160.417c-7.168,0-13,5.832-13,13v101.277
		c0,5.698,2.958,13.112,6.881,17.245L206.419,186.435z M215.554,21.159c20.086,0,36.369,16.283,36.369,36.369
		s-16.283,36.369-36.369,36.369c-20.086,0-36.369-16.283-36.369-36.369S195.467,21.159,215.554,21.159z"/>
	<path d="M224.687,244.672c-2.418-2.548-5.662-3.95-9.133-3.95s-6.715,1.402-9.134,3.95l-52.122,54.913
		c-3.923,4.133-6.881,11.547-6.881,17.245v101.277c0,7.168,5.832,13,13,13H270.69c7.168,0,13-5.832,13-13V316.83
		c0-5.698-2.958-13.112-6.881-17.245L224.687,244.672z M215.554,409.948c-20.086,0-36.369-16.283-36.369-36.369
		c0-20.086,16.283-36.369,36.369-36.369c20.086,0,36.369,16.283,36.369,36.369C251.923,393.665,235.64,409.948,215.554,409.948z"/>
	<path d="M418.107,147.417H316.83c-5.699,0-13.112,2.958-17.244,6.881l-54.914,52.122c-2.548,2.418-3.951,5.662-3.951,9.134
		s1.403,6.716,3.951,9.135l54.913,52.12c4.132,3.924,11.546,6.882,17.245,6.882h101.277c7.168,0,13-5.832,13-13V160.417
		C431.107,153.249,425.275,147.417,418.107,147.417z M373.579,251.923c-20.086,0-36.369-16.283-36.369-36.369
		c0-20.086,16.283-36.369,36.369-36.369s36.369,16.283,36.369,36.369C409.948,235.64,393.665,251.923,373.579,251.923z"/>
	<path d="M190.386,215.554c0-3.472-1.403-6.716-3.951-9.135l-54.913-52.12c-4.132-3.924-11.546-6.882-17.245-6.882H13
		c-7.168,0-13,5.832-13,13V270.69c0,7.168,5.832,13,13,13h101.277c5.699,0,13.112-2.958,17.244-6.881l54.914-52.122
		C188.983,222.27,190.386,219.025,190.386,215.554z M57.528,251.923c-20.086,0-36.369-16.283-36.369-36.369
		c0-20.086,16.283-36.369,36.369-36.369s36.369,16.283,36.369,36.369C93.898,235.64,77.615,251.923,57.528,251.923z"/>
</g>
<g>
</g>
<g>
</g>
<g>
</g>
<g>
</g>
<g>
</g>
<g>
</g>
<g>
</g>
<g>
</g>
<g>
</g>
<g>
</g>
<g>
</g>
<g>
</g>
<g>
</g>
<g>
</g>
<g>
</g>
</svg>
