<svg xmlns="http://www.w3.org/2000/svg" viewBox="0 0 448.283 448.283"><path d="M378.116 331.618v-.23h-53.23v-28.156c0-9.65-7.85-17.5-17.5-17.5h-99.97v-15.268h121.857c15.94 0 21.312-8.47 31.064-23.846 2.6-4.097 5.545-8.74 9.185-14.06 1.686-2.465 2.503-6.624.532-10.36-1.56-2.957-5.25-6.48-13.968-6.48H340.84V15c0-8.27-6.73-15-15-15H62.085c-8.27 0-15 6.73-15 15v200.718H31.84c-8.72 0-12.41 3.524-13.968 6.48-1.972 3.737-1.154 7.896.532 10.36 2.33 3.404 4.432 6.54 6.36 9.42 12.715 18.967 19.096 28.486 33.888 28.486h123.764v22.768c0 9.65 7.85 17.5 17.5 17.5h99.97v20.657h-56.523v.228c-29.894 2.547-53.447 27.676-53.447 58.218 0 32.228 26.22 58.447 58.447 58.447 24.284 0 45.15-14.89 53.965-36.02h16.824c8.814 21.13 29.68 36.02 53.965 36.02 32.228 0 58.447-26.22 58.447-58.447 0-30.542-23.554-55.67-53.448-58.218zM104.664 201.493c-5.5 0-10-4.5-10-10V57.46c0-5.5 4.5-10 10-10H283.26c5.5 0 10 4.5 10 10v134.033c0 5.5-4.5 10-10 10H104.664zm157.76 198.193H255.4v7.027c0 5.432-4.418 9.85-9.85 9.85s-9.85-4.418-9.85-9.85v-7.027h-7.027c-5.43 0-9.85-4.42-9.85-9.85s4.42-9.85 9.85-9.85h7.028v-7.027c0-5.432 4.42-9.85 9.85-9.85s9.85 4.418 9.85 9.85v7.026h7.027c5.43 0 9.85 4.42 9.85 9.85s-4.42 9.85-9.85 9.85zm114.94 15.98c-14.242 0-25.83-11.587-25.83-25.83 0-14.242 11.588-25.83 25.83-25.83s25.83 11.588 25.83 25.83c0 14.243-11.586 25.83-25.83 25.83z"/></svg>