<?xml version="1.0" encoding="UTF-8" standalone="yes"?>
<svg xmlns="http://www.w3.org/2000/svg" viewBox="0 0 439.324 439.324">
  <path d="M413.287 424.048c-5.908-27.29-26.99-52.39-59.608-71.184.003-.272.02-.542.02-.814v-10.24c0-22.4-18.224-40.623-40.62-40.623-16.575 0-30.853 9.98-37.163 24.245-13.134-2.407-26.714-3.97-40.523-4.653v-48.02h13.186c14.254 0 25.85-11.598 25.85-25.85 0-9.95-5.652-18.6-13.912-22.92V59.416C260.518 26.653 233.862 0 201.098 0h-27.143c-23.745 0-43.063 19.318-43.063 43.063 0 23.696 19.278 43.014 43.013 43.063a.49.49 0 0 1 .486.482v11.266h-.432c-8.755 0-15.878 7.123-15.878 15.88V135.5c0 8.756 7.122 15.88 15.877 15.88h.434v.865h-.432c-8.755 0-15.878 7.123-15.878 15.88v21.744c0 8.753 7.122 15.876 15.877 15.876h.434v18.306c-8.193 4.34-13.792 12.955-13.792 22.856 0 14.253 11.596 25.85 25.85 25.85h9.805v48.47a308.355 308.355 0 0 0-32.87 4.154c-6.32-14.238-20.584-24.198-37.14-24.198-22.397 0-40.62 18.223-40.62 40.622v10.24c0 .22.013.438.017.658-32.88 18.87-54.086 44.123-59.938 71.585-.306 1.433-1.042 6.43 2.3 10.56 1.652 2.04 4.854 4.473 10.732 4.473H402.4c4.166 0 7.31-1.28 9.346-3.803 3.173-3.93 2.072-9.02 1.54-11.472zM240.67 415.71h-46.54c-13.063 0-23.653-10.59-23.653-23.653s10.59-23.653 23.653-23.653h46.54c13.064 0 23.654 10.59 23.654 23.653s-10.59 23.653-23.653 23.653z"/>
</svg>