<svg xmlns="http://www.w3.org/2000/svg" viewBox="0 0 412.595 412.595"><path d="M338.31 301.403h-13.496c-5.757-13.236-16.81-25.28-32.48-35.083-15.775-9.872-35.056-16.706-56.036-20.043v-116.39c22.726-11.137 38.416-34.503 38.416-61.47C274.714 30.69 244.02 0 206.297 0S137.88 30.69 137.88 68.416c0 26.17 14.776 48.942 36.417 60.445v117.764c-20.2 3.447-38.765 10.14-54.037 19.696-15.67 9.804-26.722 21.848-32.48 35.083H74.287c-11.028 0-20 8.972-20 20v71.19c0 11.03 8.972 20 20 20h264.022c11.028 0 20-8.97 20-20v-71.19c0-11.028-8.972-20-20-20zM304.403 382.8h-34.22c-9.604 0-17.39-7.787-17.39-17.392s7.786-17.39 17.39-17.39h34.22c9.605 0 17.39 7.785 17.39 17.39s-7.786 17.39-17.39 17.39z"/></svg>