<?xml version="1.0" encoding="iso-8859-1"?>
<!-- Generator: Adobe Illustrator 17.1.0, SVG Export Plug-In . SVG Version: 6.00 Build 0)  -->
<!DOCTYPE svg PUBLIC "-//W3C//DTD SVG 1.1//EN" "http://www.w3.org/Graphics/SVG/1.1/DTD/svg11.dtd">
<svg version="1.1" id="Capa_1" xmlns="http://www.w3.org/2000/svg" xmlns:xlink="http://www.w3.org/1999/xlink" x="0px" y="0px"
	 viewBox="0 0 440.89 440.89" style="enable-background:new 0 0 440.89 440.89;" xml:space="preserve">
<path d="M417.992,262.48c14.248-16.258,22.898-37.54,22.898-60.805c0-40.579-26.302-75.13-62.754-87.5
	c-0.072-32.72-26.71-59.318-59.446-59.318c-31.095,0-56.674,24.002-59.223,54.449h-78.044c-2.55-30.447-28.128-54.449-59.223-54.449
	c-32.736,0-59.374,26.598-59.446,59.318C26.302,126.545,0,161.095,0,201.674c0,23.266,8.65,44.547,22.898,60.805L2.521,323
	c-8.084,24.01,7.276,50.93,34.241,60.009c5.96,2.006,12.102,3.024,18.255,3.024c21.038,0,39.246-12.097,45.309-30.102l7.025-20.863
	c1.595,0.167,3.212,0.255,4.85,0.255c23.83,0,43.505-18.105,46.007-41.281h124.477c2.502,23.176,22.177,41.281,46.007,41.281
	c1.638,0,3.255-0.088,4.85-0.255l7.025,20.863c6.063,18.003,24.271,30.101,45.309,30.102c0.001,0,0.001,0,0.003,0
	c6.151,0,12.292-1.018,18.252-3.024c26.964-9.079,42.325-35.999,34.241-60.009L417.992,262.48z M149.637,215.055h-16.864v16.864
	c0,9.615-7.823,17.438-17.438,17.438s-17.438-7.823-17.438-17.438v-16.864H81.032c-9.615,0-17.438-7.823-17.438-17.438
	s7.823-17.438,17.438-17.438h16.864v-16.864c0-9.615,7.823-17.438,17.438-17.438s17.438,7.823,17.438,17.438v16.864h16.864
	c9.615,0,17.438,7.823,17.438,17.438S159.252,215.055,149.637,215.055z M304.782,243.244c-10.161,0-18.428-8.267-18.428-18.428
	s8.267-18.428,18.428-18.428s18.428,8.267,18.428,18.428S314.943,243.244,304.782,243.244z M304.782,188.847
	c-10.161,0-18.428-8.267-18.428-18.428s8.267-18.428,18.428-18.428s18.428,8.267,18.428,18.428S314.943,188.847,304.782,188.847z
	 M358.868,243.244c-10.161,0-18.428-8.267-18.428-18.428s8.267-18.428,18.428-18.428s18.428,8.267,18.428,18.428
	S369.029,243.244,358.868,243.244z M358.868,188.847c-10.161,0-18.428-8.267-18.428-18.428s8.267-18.428,18.428-18.428
	s18.428,8.267,18.428,18.428S369.029,188.847,358.868,188.847z"/>
<g>
</g>
<g>
</g>
<g>
</g>
<g>
</g>
<g>
</g>
<g>
</g>
<g>
</g>
<g>
</g>
<g>
</g>
<g>
</g>
<g>
</g>
<g>
</g>
<g>
</g>
<g>
</g>
<g>
</g>
</svg>
