<?xml version="1.0" encoding="UTF-8" standalone="yes"?>
<svg xmlns="http://www.w3.org/2000/svg" viewBox="0 0 482 482">
  <path d="M395.987 224.795c-3.586-12.984-15.496-22.55-29.606-22.55h-20.563c-14.318 0-26.378 9.848-29.765 23.126H257.5v-73.4h26.663c8.788 0 16.968-3.466 23.033-9.76 6.064-6.295 9.226-14.597 8.9-23.377l-.843-22.772c-.357-9.66-8.493-17.187-18.136-16.84-9.658.358-17.198 8.477-16.84 18.135l.726 19.615H255c-17.92 0-32.5 14.58-32.5 32.5v75.903h-56.55c-3.387-13.278-15.447-23.127-29.765-23.127H115.62c-14.13 0-26.054 9.593-29.62 22.605-47.692 1.59-86 40.877-86 88.946 0 49.075 39.925 89 89 89 34.668 0 64.766-19.926 79.452-48.925h145.123c14.696 28.97 44.78 48.873 79.425 48.873 49.075 0 89-39.925 89-89 0-48.075-38.316-87.364-86.013-88.945zM64.063 326.77c-3.438 3.44-8.008 5.332-12.87 5.332s-9.43-1.893-12.868-5.33c-7.096-7.097-7.096-18.643 0-25.74 3.438-3.437 8.008-5.33 12.87-5.33s9.43 1.893 12.868 5.33 5.33 8.01 5.33 12.87a18.07 18.07 0 0 1-5.33 12.87zm37.698 37.698c-3.436 3.438-8.006 5.33-12.867 5.33s-9.432-1.892-12.87-5.33c-7.095-7.096-7.095-18.642 0-25.738 3.44-3.438 8.01-5.33 12.87-5.33s9.432 1.892 12.87 5.33c7.094 7.096 7.094 18.642 0 25.738zm.22-75.61c-3.44 3.437-8.01 5.33-12.87 5.33s-9.43-1.893-12.87-5.33c-7.095-7.097-7.095-18.644 0-25.74 3.44-3.437 8.01-5.33 12.87-5.33s9.43 1.893 12.87 5.33c7.094 7.097 7.094 18.643 0 25.74zm37.696 37.697c-3.438 3.438-8.008 5.33-12.87 5.33s-9.43-1.892-12.868-5.33-5.33-8.008-5.33-12.87c0-4.86 1.893-9.432 5.33-12.87 3.438-3.437 8.008-5.33 12.87-5.33s9.43 1.893 12.868 5.33c7.096 7.097 7.096 18.643 0 25.74zM393 354.24c-22.332 0-40.5-18.168-40.5-40.5s18.168-40.5 40.5-40.5 40.5 18.168 40.5 40.5-18.168 40.5-40.5 40.5z"/>
</svg>