<?xml version="1.0" encoding="iso-8859-1"?>
<!-- Generator: Adobe Illustrator 17.1.0, SVG Export Plug-In . SVG Version: 6.00 Build 0)  -->
<!DOCTYPE svg PUBLIC "-//W3C//DTD SVG 1.1//EN" "http://www.w3.org/Graphics/SVG/1.1/DTD/svg11.dtd">
<svg version="1.1" id="Capa_1" xmlns="http://www.w3.org/2000/svg" xmlns:xlink="http://www.w3.org/1999/xlink" x="0px" y="0px"
	 viewBox="0 0 462.489 462.489" style="enable-background:new 0 0 462.489 462.489;" xml:space="preserve">
<path style="fill:#000001;" d="M358.088,194.193v-0.119H248.745v-71.698h26.664c8.787,0,16.967-3.466,23.032-9.76
	c6.065-6.294,9.226-14.596,8.901-23.377l-0.843-22.773c-0.357-9.658-8.486-17.199-18.135-16.84
	c-9.659,0.357-17.198,8.477-16.84,18.135l0.726,19.615h-26.003c-17.92,0-32.5,14.58-32.5,32.5v74.198H104.401v0.119
	C46.389,196.816,0,244.828,0,303.475c0,60.324,49.077,109.401,109.401,109.401c46.574,0,86.437-29.258,102.193-70.356h39.302
	c15.756,41.098,55.619,70.356,102.193,70.356c60.324,0,109.401-49.077,109.401-109.401
	C462.489,244.828,416.1,196.816,358.088,194.193z M136.869,320.332h-16.11v16.111c0,9.295-7.562,16.856-16.857,16.856
	c-9.294,0-16.856-7.562-16.856-16.856v-16.111h-16.11c-9.295,0-16.857-7.562-16.857-16.856s7.562-16.856,16.857-16.856h16.11
	v-16.111c0-9.295,7.562-16.856,16.856-16.856c9.295,0,16.857,7.562,16.857,16.856v16.111h16.11c9.295,0,16.856,7.562,16.856,16.856
	S146.164,320.332,136.869,320.332z M322.089,355.411c-11.446,0-20.758-9.312-20.758-20.758c0-11.446,9.312-20.758,20.758-20.758
	c11.446,0,20.758,9.312,20.758,20.758C342.848,346.099,333.536,355.411,322.089,355.411z M322.089,293.056
	c-11.446,0-20.758-9.312-20.758-20.758c0-11.446,9.312-20.758,20.758-20.758c11.446,0,20.758,9.312,20.758,20.758
	C342.848,283.744,333.536,293.056,322.089,293.056z M384.087,355.411c-11.446,0-20.758-9.312-20.758-20.758
	c0-11.446,9.312-20.758,20.758-20.758c11.446,0,20.758,9.312,20.758,20.758C404.846,346.099,395.534,355.411,384.087,355.411z
	 M384.087,293.056c-11.446,0-20.758-9.312-20.758-20.758c0-11.446,9.312-20.758,20.758-20.758c11.446,0,20.758,9.312,20.758,20.758
	C404.846,283.744,395.534,293.056,384.087,293.056z"/>
<g>
</g>
<g>
</g>
<g>
</g>
<g>
</g>
<g>
</g>
<g>
</g>
<g>
</g>
<g>
</g>
<g>
</g>
<g>
</g>
<g>
</g>
<g>
</g>
<g>
</g>
<g>
</g>
<g>
</g>
</svg>
