<?xml version="1.0" encoding="iso-8859-1"?>
<!-- Generator: Adobe Illustrator 17.1.0, SVG Export Plug-In . SVG Version: 6.00 Build 0)  -->
<!DOCTYPE svg PUBLIC "-//W3C//DTD SVG 1.1//EN" "http://www.w3.org/Graphics/SVG/1.1/DTD/svg11.dtd">
<svg version="1.1" id="Capa_1" xmlns="http://www.w3.org/2000/svg" xmlns:xlink="http://www.w3.org/1999/xlink" x="0px" y="0px"
	 viewBox="0 0 462.059 462.059" style="enable-background:new 0 0 462.059 462.059;" xml:space="preserve">
<path d="M416.161,205.626c-19.062,0-35.442,11.683-42.369,28.262h-13.012v-63.14c0-16.542-13.458-30-30-30h-82.114v-19.353
	c16.579-6.927,28.262-23.308,28.262-42.369c0-25.308-20.59-45.898-45.898-45.898s-45.898,20.59-45.898,45.898
	c0,19.062,11.683,35.442,28.262,42.369v19.353h-82.114c-16.542,0-30,13.458-30,30v63.14H88.267
	c-6.927-16.579-23.307-28.262-42.369-28.262C20.59,205.626,0,226.216,0,251.524s20.59,45.898,45.898,45.898
	c19.062,0,35.442-11.683,42.369-28.262h13.012v92.175c0,16.542,13.458,30,30,30h15.013v7.595c0,16.542,13.458,30,30,30h109.475
	c16.542,0,30-13.458,30-30v-7.595h15.013c16.542,0,30-13.458,30-30V269.16h13.012c6.927,16.579,23.307,28.262,42.369,28.262
	c25.308,0,45.898-20.59,45.898-45.898S441.469,205.626,416.161,205.626z M149.276,237.645c0-18.075,14.653-32.728,32.727-32.728
	s32.727,14.653,32.727,32.728s-14.653,32.728-32.727,32.728S149.276,255.72,149.276,237.645z M271.661,342.638h-81.263
	c-8.56,0-15.5-6.94-15.5-15.5s6.94-15.5,15.5-15.5h81.263c8.56,0,15.5,6.94,15.5,15.5S280.221,342.638,271.661,342.638z
	 M280.055,270.373c-18.075,0-32.727-14.653-32.727-32.728s14.653-32.728,32.727-32.728s32.727,14.653,32.727,32.728
	S298.13,270.373,280.055,270.373z"/>
<g>
</g>
<g>
</g>
<g>
</g>
<g>
</g>
<g>
</g>
<g>
</g>
<g>
</g>
<g>
</g>
<g>
</g>
<g>
</g>
<g>
</g>
<g>
</g>
<g>
</g>
<g>
</g>
<g>
</g>
</svg>
