<?xml version="1.0" encoding="iso-8859-1"?>
<!-- Generator: Adobe Illustrator 17.1.0, SVG Export Plug-In . SVG Version: 6.00 Build 0)  -->
<!DOCTYPE svg PUBLIC "-//W3C//DTD SVG 1.1//EN" "http://www.w3.org/Graphics/SVG/1.1/DTD/svg11.dtd">
<svg version="1.1" id="Capa_1" xmlns="http://www.w3.org/2000/svg" xmlns:xlink="http://www.w3.org/1999/xlink" x="0px" y="0px"
	 viewBox="0 0 366.771 366.771" style="enable-background:new 0 0 366.771 366.771;" xml:space="preserve">
<g>
	<path d="M253.368,243.806c0.038,0.049,0.082,0.09,0.116,0.139c0.033-0.049,0.077-0.089,0.113-0.139
		c-0.036,0-0.072,0.013-0.111,0.013C253.445,243.819,253.409,243.806,253.368,243.806z"/>
	<path d="M113.87,123.928c-0.233-0.176-0.43-0.282-0.581-0.282c-0.173,0-0.393,0.105-0.648,0.282H113.87z"/>
	<path d="M352.771,0H14C6.28,0,0,6.28,0,14v338.771c0,7.72,6.28,14,14,14h338.771c7.72,0,14-6.28,14-14V14
		C366.771,6.28,360.491,0,352.771,0z M164.946,253.967l-49.185,55.497c-0.628,0.706-1.527,1.111-2.468,1.111
		c-0.944,0-1.843-0.405-2.469-1.111l-49.191-55.497c-1.114-1.254-1.109-3.144,0.011-4.392l49.194-54.853
		c0.62-0.698,1.516-1.097,2.454-1.097c0.935,0,1.831,0.399,2.454,1.097l49.188,54.859
		C166.054,250.823,166.057,252.713,164.946,253.967z M170.576,112.169c-0.844,15.778-13.745,28.808-29.544,28.808
		c-7.475,0-13.509-3.671-18.048-7.633c0.008,1.898,0.073,3.419,0.201,3.75l7.302,19.076c0.694,1.815,0.449,3.854-0.651,5.456
		c-1.103,1.602-2.921,2.558-4.867,2.558h-23.359c-1.947,0-3.765-0.959-4.865-2.558c-1.103-1.602-1.345-3.641-0.653-5.459
		l7.302-19.071c0.135-0.351,0.2-2.033,0.201-4.084c-4.615,4.087-10.694,7.964-18.047,7.964c-15.8,0-28.7-13.03-29.544-28.808
		c-0.477-8.913,2.388-15.668,6.446-21.839c8.142-12.381,43.19-41.823,50.788-41.823c7.437,0,42.805,29.549,50.893,41.823
		C168.179,96.474,171.052,103.257,170.576,112.169z M277.437,289.122c-3.579,0-6.989-0.668-10.138-1.872
		c-1.121-0.429-2.389-0.159-3.234,0.689c-0.849,0.847-1.119,2.116-0.689,3.234l7.302,19.076c0.694,1.815,0.449,3.854-0.651,5.456
		c-1.103,1.602-2.921,2.559-4.867,2.559H241.8c-1.947,0-3.765-0.959-4.865-2.559c-1.103-1.602-1.345-3.641-0.653-5.459l7.302-19.071
		c0.43-1.118,0.16-2.386-0.687-3.235c-0.848-0.848-2.115-1.118-3.237-0.692c-3.145,1.204-6.552,1.872-10.123,1.872
		c-15.99,0-28.945-12.953-28.945-28.939c0-15.983,12.954-28.944,28.945-28.944c0.038,0,0.069,0.013,0.108,0.013
		c-3.206-4.659-5.104-10.29-5.104-16.376c0-15.985,12.956-28.939,28.944-28.939c15.981,0,28.934,12.953,28.934,28.939
		c0,6.086-1.894,11.717-5.101,16.376c0.042,0,0.078-0.013,0.119-0.013c15.98,0,28.937,12.961,28.934,28.944
		C306.371,276.168,293.415,289.122,277.437,289.122z M304.323,110.758c-8.142,12.381-43.19,41.823-50.788,41.823
		c-7.437,0-42.805-29.549-50.893-41.823c-4.049-6.145-6.922-12.927-6.446-21.839c0.844-15.778,13.745-28.808,29.544-28.808
		c16.243,0,25.702,17.331,27.743,17.331c2.334,0,12.196-17.331,27.742-17.331c15.8,0,28.7,13.03,29.544,28.808
		C311.246,97.831,308.381,104.586,304.323,110.758z"/>
</g>
<g>
</g>
<g>
</g>
<g>
</g>
<g>
</g>
<g>
</g>
<g>
</g>
<g>
</g>
<g>
</g>
<g>
</g>
<g>
</g>
<g>
</g>
<g>
</g>
<g>
</g>
<g>
</g>
<g>
</g>
</svg>
