<?xml version="1.0" encoding="iso-8859-1"?>
<!-- Generator: Adobe Illustrator 17.1.0, SVG Export Plug-In . SVG Version: 6.00 Build 0)  -->
<!DOCTYPE svg PUBLIC "-//W3C//DTD SVG 1.1//EN" "http://www.w3.org/Graphics/SVG/1.1/DTD/svg11.dtd">
<svg version="1.1" id="Capa_1" xmlns="http://www.w3.org/2000/svg" xmlns:xlink="http://www.w3.org/1999/xlink" x="0px" y="0px"
	 viewBox="0 0 438.953 438.953" style="enable-background:new 0 0 438.953 438.953;" xml:space="preserve">
<path d="M302.717,281.188h-32.65c-0.003-25.823-0.003-61.81-0.003-95.959v-0.105c0.002-25.538,0.006-68.28-16.29-106.411
	C233.767,31.9,194.938,5.505,138.375,0.262C136.535,0.088,134.776,0,133.148,0c-2.709,0-10.952,0-13.127,5.841
	c-2.144,5.757,3.752,10.854,5.973,12.774c16.247,14.031,43.503,46.491,43.498,106.228c0,71.961,0.004,127.874,0.007,156.345h-33.263
	c-12.276,0-22.264,9.988-22.264,22.265s9.987,22.264,22.264,22.264h47.854v76.888c0,4.063,2.041,9.138,4.853,12.069l18.353,19.133
	c2.86,2.982,7.937,5.147,12.069,5.147h25.497c5.514,0,10-4.486,10-10V325.716h47.854c12.276,0,22.264-9.987,22.264-22.264
	S314.993,281.188,302.717,281.188z"/>
<g>
</g>
<g>
</g>
<g>
</g>
<g>
</g>
<g>
</g>
<g>
</g>
<g>
</g>
<g>
</g>
<g>
</g>
<g>
</g>
<g>
</g>
<g>
</g>
<g>
</g>
<g>
</g>
<g>
</g>
</svg>
