<?xml version="1.0" encoding="iso-8859-1"?>
<!-- Generator: Adobe Illustrator 17.1.0, SVG Export Plug-In . SVG Version: 6.00 Build 0)  -->
<!DOCTYPE svg PUBLIC "-//W3C//DTD SVG 1.1//EN" "http://www.w3.org/Graphics/SVG/1.1/DTD/svg11.dtd">
<svg version="1.1" id="Capa_1" xmlns="http://www.w3.org/2000/svg" xmlns:xlink="http://www.w3.org/1999/xlink" x="0px" y="0px"
	 viewBox="0 0 470.233 470.233" style="enable-background:new 0 0 470.233 470.233;" xml:space="preserve">
<path d="M460.104,103.095c-0.867-0.867-3.508-3.506-13.777-3.506c-3.794,0-9.303,0.447-14.767,1.7l-5.165-5.165l12.613-12.613
	c5.069-5.068,5.069-13.316,0-18.385L426.47,52.589c-2.449-2.449-5.714-3.799-9.192-3.799s-6.743,1.35-9.192,3.799l-12.613,12.613
	l-5.134-5.134c2.704-11.332,2.219-24.518-1.838-28.574c-6.542-6.543-15.241-10.146-24.494-10.146
	c-9.252,0-17.95,3.603-24.492,10.146c-6.543,6.542-10.146,15.241-10.146,24.493c0,9.253,3.604,17.952,10.146,24.494
	c0.867,0.868,3.506,3.507,13.776,3.507h0.001c3.794,0,9.303-0.447,14.766-1.7l5.165,5.165l-47.56,47.56
	c-1.984,0.141-4.006,0.22-6.071,0.22c-9.688,0-19.746-1.557-29.895-4.627c-22.837-6.907-42.113-33.47-48.446-42.197
	c-1.177-1.622-3.222-2.591-5.47-2.591c-2.119,0-3.974,0.889-5.091,2.438c-6.308,8.75-25.502,35.377-48.558,42.351
	c-10.147,3.069-20.369,4.626-30.382,4.627c-2.462,0-4.884-0.101-7.254-0.296L97.011,87.451l5.164-5.165
	c5.464,1.253,10.974,1.7,14.769,1.7c10.269,0,12.909-2.639,13.776-3.507c13.506-13.506,13.506-35.481,0-48.986
	c-6.542-6.543-15.241-10.146-24.494-10.146c-9.252,0-17.951,3.603-24.493,10.146c-4.057,4.057-4.542,17.243-1.838,28.575
	l-5.133,5.134L62.148,52.589c-2.449-2.449-5.714-3.799-9.193-3.799c-3.479,0-6.743,1.35-9.192,3.798L31.224,65.127
	c-5.068,5.069-5.068,13.316,0,18.385l12.614,12.614l-5.164,5.164c-5.464-1.252-10.974-1.699-14.768-1.699
	c-10.271,0-12.91,2.639-13.778,3.507c-13.506,13.506-13.506,35.481,0,48.986c6.542,6.543,15.241,10.146,24.494,10.146
	s17.951-3.604,24.493-10.146c4.057-4.057,4.542-17.243,1.838-28.575l5.133-5.134l40.029,40.029v121.986
	c0,19.931,7.983,38.48,19.36,54.808L70.604,390.07c-3.497,3.497-7.958,9.706-10.157,14.135l-16.386,33.02
	c-2.101,4.234-1.353,7.039-0.356,8.646c1.188,1.916,3.247,3.015,5.648,3.015c1.547,0,3.188-0.441,5.02-1.351l33.019-16.386
	c4.431-2.198,10.64-6.659,14.136-10.156l53.261-53.261c3.846,3.463,7.69,6.715,11.437,9.722c28.215,22.646,60.94,39.69,68.392,39.69
	c5.653,0,38.624-17.149,67.083-39.669c4.175-3.303,8.469-6.894,12.754-10.735l54.253,54.253c3.495,3.496,9.704,7.957,14.135,10.156
	l33.02,16.386c1.831,0.909,3.474,1.351,5.02,1.351c2.401,0,4.46-1.099,5.648-3.015c0.997-1.607,1.744-4.413-0.357-8.646
	l-16.386-33.02c-2.198-4.43-6.659-10.639-10.156-14.135l-55.772-55.772c11.344-16.162,19.259-34.413,19.259-53.909V159.403
	l41.028-41.028l5.134,5.134c-2.704,11.332-2.219,24.518,1.838,28.574c6.542,6.543,15.241,10.146,24.494,10.146
	c9.252,0,17.951-3.604,24.492-10.146C473.609,138.578,473.61,116.602,460.104,103.095z"/>
<g>
</g>
<g>
</g>
<g>
</g>
<g>
</g>
<g>
</g>
<g>
</g>
<g>
</g>
<g>
</g>
<g>
</g>
<g>
</g>
<g>
</g>
<g>
</g>
<g>
</g>
<g>
</g>
<g>
</g>
</svg>
