<?xml version="1.0" encoding="utf-8"?>
<!-- Generator: Adobe Illustrator 16.0.0, SVG Export Plug-In . SVG Version: 6.00 Build 0)  -->
<!DOCTYPE svg PUBLIC "-//W3C//DTD SVG 1.1//EN" "http://www.w3.org/Graphics/SVG/1.1/DTD/svg11.dtd">
<svg version="1.1" id="Layer_1" xmlns="http://www.w3.org/2000/svg" xmlns:xlink="http://www.w3.org/1999/xlink" x="0px" y="0px"
	 width="48px" height="48px" viewBox="0 0 48 48" enable-background="new 0 0 48 48" xml:space="preserve">
<path d="M45.74,15.729l-0.019-0.001c-0.522-0.043-0.981,0.346-1.024,0.869l-0.1,1.206l-3.494-0.354
	c-0.086-0.242-0.099-0.276-0.185-0.518l3.159-3.16c0.726-0.726,1.253-1.654,1.38-2.673c0.175-1.391-0.289-2.73-1.259-3.699
	l-3.805-3.805c-0.726-0.726-1.653-1.253-2.672-1.382C36.331,2.037,34.989,2.5,34.021,3.47l-3.46,3.46
	c-1.621,0.115-3.217,0.793-4.431,2.006l-6.379,6.38c-0.749,0.749-1.133,1.795-1.007,2.847c0.039,0.33,0.096,0.693,0.177,1.084
	L5.257,32.912c-2.275,2.276-2.278,5.964-0.006,8.244l1.25,1.253c2.277,2.285,5.976,2.288,8.257,0.007l13.446-13.447
	c0.564,0.143,1.087,0.233,1.547,0.292c1.03,0.13,2.06-0.248,2.793-0.981l6.466-6.464c0.729-0.729,1.278-1.58,1.637-2.485
	l3.794,0.384l-0.103,1.242c-0.043,0.522,0.346,0.981,0.869,1.024l0.019,0.001c0.523,0.043,0.981-0.346,1.024-0.869l0.359-4.359
	C46.652,16.23,46.264,15.771,45.74,15.729z M8.438,40.414l-1.181-1.181c-1.175-1.174-1.175-3.079,0-4.254l12.704-12.705
	c0.549,1.109,1.327,2.267,2.433,3.373c0.947,0.947,1.93,1.652,2.888,2.176l-12.59,12.59C11.518,41.588,9.613,41.588,8.438,40.414z
	 M39.655,12.771l-0.004,0.003C39.639,12.759,39.642,12.759,39.655,12.771z M39.668,12.757l-4.754-4.753l1.818-1.822
	c0.217-0.217,0.61-0.217,0.827,0l3.929,3.928c0.227,0.229,0.227,0.599,0,0.828L39.668,12.757z"/>
</svg>
