<?xml version="1.0" encoding="utf-8"?>
<!-- Generator: Adobe Illustrator 16.0.0, SVG Export Plug-In . SVG Version: 6.00 Build 0)  -->
<!DOCTYPE svg PUBLIC "-//W3C//DTD SVG 1.1//EN" "http://www.w3.org/Graphics/SVG/1.1/DTD/svg11.dtd">
<svg version="1.1" id="Layer_1" xmlns="http://www.w3.org/2000/svg" xmlns:xlink="http://www.w3.org/1999/xlink" x="0px" y="0px"
	 width="48px" height="48px" viewBox="0 0 48 48" enable-background="new 0 0 48 48" xml:space="preserve">
<g>
	<path d="M41.11,1.717H5.75c-1.372,0-2.483,1.112-2.483,2.484v3.307c0,1.372,1.111,2.483,2.483,2.483h35.36
		c1.372,0,2.484-1.112,2.484-2.483V4.201C43.595,2.829,42.482,1.717,41.11,1.717z"/>
	<path d="M8.472,40.573c0,3.082,2.514,5.581,5.596,5.581h18.808c3.082,0,5.568-2.499,5.568-5.581V13.059H8.472V40.573z
		 M14.115,22.538c0-1.226,1.024-2.246,2.25-2.246H30.53c1.226,0,2.215,1.02,2.215,2.246v13.13c0,1.226-0.989,2.212-2.215,2.212
		H16.365c-1.226,0-2.25-0.986-2.25-2.212V22.538z"/>
	<path d="M29.237,30.095c-0.151-0.345-1.959,0.105-3.477,0.7c0.062-0.099,0.125-0.203,0.189-0.312
		c1.209-2.042,2.421-5.009,1.923-5.304c-0.426-0.252-1.967,1.535-3.16,3.335c-0.046-2.859-0.603-6.425-1.282-6.425
		c-0.681,0-1.236,3.566-1.283,6.425c-1.193-1.801-2.733-3.587-3.159-3.335c-0.498,0.295,0.714,3.262,1.923,5.304
		c0.064,0.108,0.127,0.212,0.189,0.312c-1.519-0.595-3.325-1.045-3.477-0.7c-0.171,0.388,1.818,1.635,3.41,2.333
		c0.148,0.065,0.288,0.123,0.419,0.174c-0.821,0.291-1.621,0.691-1.567,0.882c0.067,0.237,1.419,0.063,2.39-0.21
		c0.314-0.089,0.548-0.177,0.724-0.264v1.592c0,0.239,0.194,0.432,0.433,0.432c0.239,0,0.434-0.193,0.434-0.432v-1.592
		c0.176,0.087,0.407,0.175,0.722,0.264c0.972,0.273,2.321,0.447,2.389,0.21c0.054-0.191-0.747-0.591-1.567-0.882
		c0.131-0.051,0.271-0.109,0.418-0.174C27.419,31.73,29.407,30.483,29.237,30.095z"/>
</g>
</svg>
