<?xml version="1.0" encoding="utf-8"?>
<!-- Generator: Adobe Illustrator 16.0.0, SVG Export Plug-In . SVG Version: 6.00 Build 0)  -->
<!DOCTYPE svg PUBLIC "-//W3C//DTD SVG 1.1//EN" "http://www.w3.org/Graphics/SVG/1.1/DTD/svg11.dtd">
<svg version="1.1" id="Layer_1" xmlns="http://www.w3.org/2000/svg" xmlns:xlink="http://www.w3.org/1999/xlink" x="0px" y="0px"
	 width="48px" height="48px" viewBox="0 0 48 48" enable-background="new 0 0 48 48" xml:space="preserve">
<path d="M46.351,17.843l-0.639-0.873c-0.23-0.315-0.674-0.384-0.99-0.153L31.647,26.38l10.464-12.312
	c0.254-0.298,0.218-0.745-0.081-0.998l-0.823-0.7c-0.298-0.254-0.744-0.217-0.998,0.081L29.718,24.793l7.313-14.408
	c0.177-0.349,0.038-0.775-0.311-0.952l-0.964-0.49c-0.35-0.177-0.775-0.038-0.953,0.311l-7.33,14.444l3.759-15.714
	c0.091-0.38-0.144-0.762-0.524-0.853L29.656,6.88c-0.381-0.091-0.742,0.144-0.833,0.524l-3.748,15.755V7.001
	c0-0.391-0.359-0.698-0.75-0.698h-1.168c-0.391,0-0.741,0.307-0.741,0.698v16.158L18.663,7.404c-0.09-0.381-0.453-0.615-0.834-0.524
	l-1.053,0.252c-0.38,0.091-0.615,0.473-0.524,0.853l3.759,15.714l-7.33-14.444c-0.178-0.349-0.604-0.488-0.953-0.311l-0.965,0.49
	c-0.348,0.177-0.487,0.603-0.311,0.952l7.313,14.408L7.274,12.451c-0.254-0.298-0.7-0.334-0.999-0.081l-0.823,0.7
	c-0.299,0.253-0.335,0.7-0.081,0.998L15.835,26.38L2.761,16.817c-0.315-0.231-0.759-0.162-0.99,0.153l-0.638,0.873
	c-0.231,0.316-0.151,0.773,0.165,1.004l19.138,14.021v9.305c0,1.327,1.081,2.433,2.408,2.433h1.795c1.328,0,2.417-1.106,2.417-2.433
	v-9.305l19.134-14.021C46.505,18.616,46.581,18.159,46.351,17.843z"/>
</svg>
