<?xml version="1.0" encoding="utf-8"?>
<!-- Generator: Adobe Illustrator 16.0.0, SVG Export Plug-In . SVG Version: 6.00 Build 0)  -->
<!DOCTYPE svg PUBLIC "-//W3C//DTD SVG 1.1//EN" "http://www.w3.org/Graphics/SVG/1.1/DTD/svg11.dtd">
<svg version="1.1" id="Layer_1" xmlns="http://www.w3.org/2000/svg" xmlns:xlink="http://www.w3.org/1999/xlink" x="0px" y="0px"
	 width="48px" height="48px" viewBox="0 0 48 48" enable-background="new 0 0 48 48" xml:space="preserve">
<g>
	<path d="M44.738,27.19c-3.738-0.569-6.568-3.34-8.092-5.203c0.136-0.361,0.215-0.752,0.215-1.161V20.31h1.539
		c0.724,0,1.311-0.587,1.311-1.311v-1.224c0-0.724-0.587-1.311-1.311-1.311h-1.539v-0.525c0-1.826-1.494-3.321-3.321-3.321h-4.883
		c-0.942,0-1.792,0.399-2.395,1.036c-0.523,0.553-1.367,0.552-1.855-0.032c-1.479-1.771-3.706-2.893-6.197-2.893h-0.104
		c-1.229,0-2.226,0.997-2.226,2.226v11.818c0,1.233,1,2.232,2.233,2.232h0.097c2.724,0,5.131-1.35,6.591-3.417
		c0.414-0.586,1.215-0.649,1.772-0.196c0.412,0.335,0.907,0.573,1.448,0.678l2.729,13.649c0.204,1.018,1.098,1.751,2.136,1.751
		h2.268c1.374,0,2.403-1.256,2.134-2.603l-2.498-12.491c1.905,2.196,5.151,5.063,9.504,5.726c0.075,0.012,0.149,0.016,0.223,0.016
		c0.715,0,1.343-0.522,1.454-1.251C46.095,28.064,45.543,27.313,44.738,27.19z"/>
	<path d="M11.24,19.972h0.982c0.813,0,1.473-0.663,1.473-1.477s-0.659-1.477-1.473-1.477H11.24c-0.814,0-1.473,0.663-1.473,1.477
		S10.426,19.972,11.24,19.972z"/>
	<path d="M5.349,17.019H4.366c-0.813,0-1.473,0.663-1.473,1.477s0.659,1.477,1.473,1.477h0.982c0.813,0,1.473-0.663,1.473-1.477
		S6.162,17.019,5.349,17.019z"/>
	<path d="M10.613,15.112l0.817,0.545c0.251,0.168,0.536,0.249,0.817,0.249c0.476,0,0.942-0.229,1.226-0.654
		c0.452-0.677,0.27-1.591-0.406-2.043l-0.816-0.546c-0.677-0.453-1.591-0.271-2.043,0.406C9.755,13.745,9.937,14.66,10.613,15.112z"
		/>
	<path d="M3.274,10.211l0.816,0.546c0.251,0.168,0.536,0.248,0.817,0.248c0.476,0,0.942-0.229,1.226-0.654
		c0.452-0.676,0.27-1.591-0.406-2.043L4.911,7.762C4.233,7.31,3.319,7.493,2.868,8.168C2.416,8.845,2.598,9.759,3.274,10.211z"/>
	<path d="M10.613,21.879l0.817-0.546c0.251-0.168,0.536-0.248,0.817-0.248c0.476,0,0.942,0.229,1.226,0.654
		c0.452,0.677,0.27,1.591-0.406,2.043l-0.816,0.546c-0.677,0.453-1.591,0.27-2.043-0.406C9.755,23.246,9.937,22.331,10.613,21.879z"
		/>
	<path d="M3.274,26.78l0.816-0.545c0.251-0.168,0.536-0.249,0.817-0.249c0.476,0,0.942,0.23,1.226,0.655
		c0.452,0.676,0.27,1.591-0.406,2.043l-0.816,0.545c-0.678,0.452-1.591,0.27-2.043-0.406C2.416,28.146,2.598,27.231,3.274,26.78z"/>
</g>
</svg>
