<?xml version="1.0" encoding="UTF-8" standalone="yes"?>
<svg xmlns="http://www.w3.org/2000/svg" viewBox="0 0 48 48">
  <path d="M9.664 12.74v1.548a.422.422 0 0 0 .845 0v-1.55c.176.085.407.17.712.258.945.266 2.266.435 2.33.204.053-.186-.723-.575-1.52-.858a10.2 10.2 0 0 0 .408-.17c1.55-.68 3.486-1.893 3.32-2.27-.147-.337-1.905.1-3.383.68l.185-.303c1.177-1.99 2.356-4.877 1.872-5.164-.415-.246-1.914 1.494-3.075 3.246-.047-2.782-.588-6.253-1.25-6.253-.66 0-1.204 3.47-1.25 6.252C7.7 6.61 6.203 4.87 5.787 5.117c-.484.287.695 3.174 1.872 5.162.063.103.124.205.184.3C6.365 10 4.606 9.564 4.458 9.9c-.166.377 1.77 1.59 3.32 2.27.143.063.28.12.407.17-.8.284-1.577.673-1.525.86.065.23 1.368.06 2.313-.205.305-.087.513-.172.69-.257zm32.82-2.84c-.146-.336-1.905.102-3.382.68.06-.096.122-.197.184-.302 1.177-1.987 2.356-4.875 1.872-5.162-.415-.246-1.914 1.494-3.075 3.246-.045-2.782-.586-6.253-1.25-6.253-.66 0-1.202 3.47-1.247 6.25-1.16-1.75-2.66-3.49-3.075-3.245-.483.287.697 3.174 1.874 5.162.063.105.124.207.184.303-1.477-.578-3.236-1.016-3.383-.68-.166.378 1.77 1.592 3.32 2.27.143.064.28.12.407.17-.798.284-1.577.673-1.524.86.065.23 1.367.06 2.312-.205.306-.086.513-.172.69-.256v1.547a.422.422 0 0 0 .846 0v-1.55c.178.085.41.17.715.258.945.266 2.265.435 2.33.204.053-.187-.723-.576-1.522-.86.128-.05.265-.105.41-.17 1.547-.68 3.483-1.893 3.318-2.27zM21.14 12.17c.145.064.28.12.408.17-.8.284-1.578.673-1.525.86.065.23 1.378.06 2.323-.205.306-.086.524-.172.702-.256v1.547a.422.422 0 0 0 .844 0v-1.55a4.5 4.5 0 0 0 .704.258c.945.266 2.26.435 2.325.204.055-.187-.724-.576-1.523-.86.127-.05.263-.105.408-.17 1.55-.68 3.485-1.892 3.32-2.27-.148-.336-1.907.1-3.384.68l.186-.302c1.177-1.988 2.356-4.876 1.872-5.163-.417-.246-1.916 1.493-3.077 3.245-.044-2.782-.585-6.253-1.247-6.253S22.27 5.58 22.223 8.36c-1.16-1.752-2.66-3.49-3.075-3.246-.484.287.695 3.174 1.872 5.162.063.105.124.207.184.303-1.478-.58-3.236-1.017-3.383-.68-.164.377 1.77 1.59 3.32 2.27zm17.55 3.68H8.253c-.62 0-1.123.506-1.123 1.126v.727c0 .62.502 1.127 1.122 1.127H20.47v1.957h5.957V18.83H38.69c.62 0 1.12-.507 1.12-1.127v-.727c0-.62-.5-1.125-1.12-1.125zM27.56 29.89l-3.07 2.243a1.993 1.993 0 1 0 1.036 1.33l2.736-2.76a.54.54 0 0 0-.702-.814z"/>
  <path d="M32.87 22.03H14.073a4.448 4.448 0 0 0-4.453 4.46v14.836a4.44 4.44 0 0 0 4.452 4.45H32.87a4.438 4.438 0 0 0 4.45-4.45V26.49a4.446 4.446 0 0 0-4.45-4.46zm-9.398 19.813a7.935 7.935 0 1 1 0-15.87 7.935 7.935 0 0 1 0 15.87z"/>
</svg>