<?xml version="1.0" encoding="UTF-8" standalone="yes"?>
<svg xmlns="http://www.w3.org/2000/svg" viewBox="0 0 48 48">
  <circle cx="32.786" cy="9.125" r="4.423"/>
  <path d="M43.844 32.762H41.6a3.024 3.024 0 0 0 .974-3.232l-4.147-13.383a3.01 3.01 0 0 0-3.764-1.985c-.496.154-.887.462-1.262.77-.082.07-9.72 8.31-9.824 8.452l-1.157-1.647c.172-.024.387-.075.663-.167.852-.283 1.935-.83 1.866-1.038-.057-.168-.847-.063-1.598.132a8.61 8.61 0 0 0 .223-.337c.825-1.31 1.668-3.223 1.35-3.424-.285-.18-1.392 1.055-2.214 2.252-.004-.104-.01-.212-.016-.324-.128-2.107-.717-4.9-1.23-4.87-.44.028-.685 2.115-.665 4.038-1.463-2.085-3.655-4.436-4.156-4.096-.5.34.87 3.248 2.264 5.378-1.78-.73-3.808-1.28-3.996-.88-.22.466 2.156 2.048 4.068 2.95.102.048.2.093.295.135-1.416.32-2.973.89-2.913 1.22.068.372 2.158.298 3.68.018a8.11 8.11 0 0 0 .396-.08c-.46.625-.85 1.32-.715 1.433.168.142 1.08-.662 1.658-1.348a3.79 3.79 0 0 0 .403-.556l1.398 1.99a2.504 2.504 0 0 0 2.398 3.243c.577 0 1.156-.198 1.628-.602l6.505-5.563 2.367 7.63s-5.646 2.848-5.728 2.9a3.765 3.765 0 0 0-1.624 4.252 3.76 3.76 0 0 0 3.64 2.747h11.48a3.003 3.003 0 0 0 0-6.006z"/>
  <path d="M19.925 34.434a9.68 9.68 0 0 0-.905.042v-.556c.12.057.27.115.477.173.64.18 1.532.295 1.576.14.036-.127-.492-.39-1.034-.583.084-.034.177-.072.274-.115 1.05-.46 2.363-1.284 2.25-1.54-.1-.228-1.292.07-2.293.462.04-.065.084-.134.126-.206.798-1.345 1.597-3.303 1.27-3.497-.282-.167-1.298 1.012-2.086 2.2-.03-1.886-.396-4.24-.845-4.24-.448 0-.815 2.354-.846 4.24-.79-1.188-1.806-2.367-2.087-2.2-.33.194.47 2.152 1.27 3.5.04.07.083.14.124.205-1-.393-2.194-.69-2.294-.462-.112.256 1.2 1.08 2.25 1.54.098.043.19.08.276.115-.543.193-1.07.457-1.035.583.044.156.94.042 1.582-.14.207-.057.362-.115.482-.172v.628c-1.48.226-2.726.774-3.56 1.465-1.21-1.223-3.5-2.143-6.13-2.143a12 12 0 0 0-.786.025h-.01V32.15c.2.095.455.19.8.288 1.062.3 2.544.49 2.617.23.06-.21-.814-.647-1.713-.966.144-.056.297-.12.46-.19 1.742-.764 3.918-2.13 3.732-2.554-.167-.378-2.144.115-3.805.766.068-.108.137-.222.208-.34 1.323-2.235 2.65-5.482 2.104-5.805-.466-.276-2.152 1.68-3.458 3.65-.05-3.13-.66-7.03-1.404-7.03-.744 0-1.353 3.9-1.403 7.03-1.306-1.97-2.992-3.927-3.458-3.65-.544.323.78 3.57 2.104 5.804.07.12.14.232.206.34-1.66-.65-3.638-1.143-3.804-.765-.185.424 1.99 1.79 3.733 2.553.162.07.315.135.458.19-.897.32-1.773.757-1.714.966.072.26 1.556.07 2.62-.23.342-.098.594-.194.794-.29 0 0 0 1.81.008 1.845-3.066.46-5.342 2.112-5.342 3.81 0 2.002 24.327 2.002 24.327 0 0-2-2.74-3.372-6.118-3.372z"/>
</svg>