<?xml version="1.0" encoding="utf-8"?>
<!-- Generator: Adobe Illustrator 16.0.0, SVG Export Plug-In . SVG Version: 6.00 Build 0)  -->
<!DOCTYPE svg PUBLIC "-//W3C//DTD SVG 1.1//EN" "http://www.w3.org/Graphics/SVG/1.1/DTD/svg11.dtd">
<svg version="1.1" id="Layer_1" xmlns="http://www.w3.org/2000/svg" xmlns:xlink="http://www.w3.org/1999/xlink" x="0px" y="0px"
	 width="48px" height="48px" viewBox="0 0 48 48" enable-background="new 0 0 48 48" xml:space="preserve">
<g>
	<path d="M29.188,12.969H18.894c-3.71,0-6.796,2.866-6.796,6.563v23.271c0,1.412,1.226,2.697,2.642,2.697h18.602
		c1.416,0,2.515-1.285,2.515-2.697V19.533C35.856,15.835,32.898,12.969,29.188,12.969z M14.533,22.015
		c-0.546,0-0.988-0.443-0.988-0.989c0-5.082,3.583-6.54,5.477-6.6c0.57-0.033,1.002,0.411,1.02,0.956
		c0.018,0.544-0.407,1-0.951,1.021c-0.371,0.017-3.569,0.295-3.569,4.624C15.521,21.572,15.079,22.015,14.533,22.015z
		 M32.946,38.578c0,1.172-0.95,2.123-2.123,2.123H17.131c-1.172,0-2.123-0.951-2.123-2.123V26.027c0-1.172,0.951-2.123,2.123-2.123
		h13.692c1.172,0,2.123,0.951,2.123,2.123V38.578z"/>
	<path d="M17.313,10.019h13.328c1.783,0,3.229-1.446,3.229-3.229V4.397c0-1.784-1.446-3.229-3.229-3.229H17.313
		c-1.784,0-3.229,1.446-3.229,3.229V6.79C14.084,8.573,15.53,10.019,17.313,10.019z"/>
	<path d="M29.784,33.849c-0.151-0.345-1.958,0.105-3.476,0.7c0.062-0.099,0.125-0.203,0.189-0.312
		c1.209-2.042,2.421-5.009,1.923-5.304c-0.426-0.252-1.967,1.535-3.16,3.335c-0.046-2.859-0.603-6.425-1.283-6.425
		c-0.68,0-1.236,3.566-1.282,6.425c-1.193-1.801-2.734-3.587-3.16-3.335c-0.498,0.295,0.714,3.262,1.923,5.304
		c0.064,0.108,0.127,0.212,0.189,0.312c-1.518-0.595-3.325-1.045-3.477-0.7c-0.17,0.388,1.818,1.635,3.411,2.333
		c0.148,0.065,0.288,0.123,0.419,0.174c-0.821,0.291-1.621,0.691-1.567,0.882c0.067,0.237,1.418,0.063,2.39-0.209
		c0.314-0.089,0.547-0.177,0.723-0.264v1.592c0,0.239,0.194,0.432,0.433,0.432s0.434-0.193,0.434-0.432v-1.592
		c0.176,0.087,0.408,0.175,0.722,0.264c0.971,0.273,2.322,0.447,2.388,0.209c0.054-0.191-0.746-0.591-1.567-0.882
		c0.131-0.051,0.271-0.109,0.419-0.174C27.965,35.484,29.954,34.237,29.784,33.849z"/>
</g>
</svg>
