<?xml version="1.0" encoding="utf-8"?>
<!-- Generator: Adobe Illustrator 16.0.0, SVG Export Plug-In . SVG Version: 6.00 Build 0)  -->
<!DOCTYPE svg PUBLIC "-//W3C//DTD SVG 1.1//EN" "http://www.w3.org/Graphics/SVG/1.1/DTD/svg11.dtd">
<svg version="1.1" id="Layer_1" xmlns="http://www.w3.org/2000/svg" xmlns:xlink="http://www.w3.org/1999/xlink" x="0px" y="0px"
	 width="48px" height="48px" viewBox="0 0 48 48" enable-background="new 0 0 48 48" xml:space="preserve">
<g>
	<path d="M46.659,37.832c-0.014-0.192-0.047-0.394-0.101-0.593c-0.251-0.926-0.996-1.689-1.918-1.954
		c-1.054-0.303-2.05-0.022-2.747,0.592c-0.555,0.489-1.344,0.457-1.905-0.025c-0.501-0.43-1.152-0.691-1.865-0.691
		s-1.361,0.261-1.861,0.691c-0.487,0.42-1.25,0.42-1.738,0c-0.5-0.431-1.148-0.691-1.861-0.691c-0.713,0-1.365,0.26-1.866,0.691
		c-0.57,0.49-1.362,0.49-1.932,0c-0.501-0.431-1.152-0.691-1.866-0.691c-0.712,0-1.362,0.259-1.863,0.688
		c-0.543,0.466-1.315,0.466-1.859,0c-0.501-0.429-1.151-0.688-1.863-0.688c-0.713,0-1.364,0.26-1.866,0.691
		c-0.571,0.49-1.361,0.49-1.933,0c-0.501-0.431-1.152-0.691-1.866-0.691c-0.709,0-1.356,0.258-1.855,0.684
		c-0.536,0.458-1.301,0.458-1.837,0c-0.499-0.426-1.146-0.684-1.855-0.684c-0.714,0-1.365,0.26-1.866,0.691
		c-0.56,0.481-1.351,0.513-1.904,0.024c-0.697-0.614-1.694-0.895-2.748-0.592c-0.922,0.265-1.667,1.029-1.917,1.956
		c-0.054,0.199-0.087,0.401-0.101,0.593L1.633,40.77c0,0.9,0.751,1.61,1.651,1.61h41.753c0.9,0,1.623-0.71,1.623-1.61L46.659,37.832
		z"/>
	<path d="M30.174,25.603c-0.342,0.625-0.114,1.409,0.512,1.75c0.625,0.343,1.409,0.113,1.75-0.512
		c0.342-0.625,0.667-2.42,0.042-2.762C31.854,23.737,30.516,24.978,30.174,25.603z"/>
	<path d="M31.373,18.301c0.6,0.384,1.397,0.208,1.781-0.391c0.384-0.6,0.208-1.397-0.392-1.782c-0.6-0.384-2.369-0.831-2.752-0.23
		C29.626,16.499,30.772,17.917,31.373,18.301z"/>
	<path d="M30.952,12.334c0.671,0.24,1.409-0.108,1.649-0.779c0.241-0.671,0.281-2.494-0.39-2.735
		c-0.67-0.24-1.798,1.194-2.038,1.864C29.933,11.355,30.282,12.094,30.952,12.334z"/>
	<path d="M37.606,21.523c0.499-0.508,1.299-2.148,0.791-2.647c-0.508-0.499-2.133,0.332-2.632,0.84
		c-0.499,0.508-0.491,1.325,0.017,1.824C36.291,22.04,37.108,22.032,37.606,21.523z"/>
	<path d="M35.988,30.887c0.712,0,1.29-0.578,1.29-1.29c0-0.713-0.578-2.443-1.29-2.443c-0.712,0-1.29,1.73-1.29,2.443
		C34.699,30.31,35.276,30.887,35.988,30.887z"/>
	<path d="M41.762,28.206c0.693,0.163,1.388-0.267,1.551-0.96c0.163-0.693-0.267-1.388-0.96-1.551s-2.51,0.002-2.674,0.696
		C39.516,27.083,41.068,28.042,41.762,28.206z"/>
	<path d="M12.417,30.54l16.559-8.55L21.639,2.389L3.536,6.813C1.712,7.496,0.787,9.527,1.47,11.351l6.41,17.124
		C8.562,30.298,10.594,31.223,12.417,30.54z M9.495,17.671l1.411-0.528c-0.134-0.125-0.291-0.304-0.474-0.554
		c-0.564-0.77-1.166-1.91-0.978-2.047c0.151-0.111,0.771,0.465,1.301,1.096c0.002-0.133,0.007-0.276,0.016-0.429
		c0.09-1.643,0.537-3.818,0.937-3.796c0.356,0.02,0.557,1.771,0.533,3.313c0.068-0.088,0.138-0.178,0.213-0.271
		c1.408-1.749,3.635-3.807,4.062-3.463c0.365,0.294-0.708,2.252-1.907,3.907c2.549-0.908,5.893-1.598,6.119-0.995
		c0.225,0.603-2.751,2.279-5.269,3.268c1.991,0.46,4.086,1.232,4.003,1.694c-0.096,0.539-3.127,0.45-5.337,0.055
		c-0.118-0.021-0.23-0.042-0.339-0.064c1.03,1.147,2.029,2.6,1.773,2.849c-0.288,0.279-2.052-1.069-3.199-2.248
		c-0.107-0.11-0.205-0.214-0.293-0.314c0.015,0.824-0.075,1.666-0.262,1.682c-0.232,0.019-0.526-1.235-0.606-2.187
		c-0.026-0.308-0.026-0.546-0.006-0.728l-1.411,0.528c-0.211,0.079-0.447-0.028-0.526-0.239C9.176,17.986,9.283,17.75,9.495,17.671z
		"/>
</g>
</svg>
