<svg xmlns="http://www.w3.org/2000/svg" width="48" height="48" viewBox="0 0 48 48"><path d="M29.188 12.97H18.894c-3.71 0-6.796 2.865-6.796 6.562v23.27c0 1.413 1.226 2.698 2.642 2.698h18.602c1.416 0 2.515-1.285 2.515-2.697v-23.27c0-3.698-2.96-6.564-6.67-6.564zm-14.655 9.045a.988.988 0 0 1-.988-.99c0-5.08 3.583-6.54 5.477-6.6.57-.032 1.002.412 1.02.957a.99.99 0 0 1-.95 1.02c-.372.018-3.57.296-3.57 4.625a.99.99 0 0 1-.99.988zm18.413 16.563c0 1.172-.95 2.123-2.123 2.123H17.13a2.124 2.124 0 0 1-2.122-2.122v-12.55c0-1.173.95-2.124 2.123-2.124h13.693c1.172 0 2.123.95 2.123 2.123v12.55zM17.313 10.02H30.64a3.23 3.23 0 0 0 3.23-3.23V4.397a3.23 3.23 0 0 0-3.23-3.23H17.314a3.23 3.23 0 0 0-3.23 3.23V6.79a3.23 3.23 0 0 0 3.23 3.23z"/><path d="M29.784 33.85c-.15-.346-1.958.104-3.476.7.062-.1.125-.204.19-.313 1.208-2.042 2.42-5.01 1.922-5.304-.426-.252-1.967 1.535-3.16 3.335-.046-2.86-.603-6.425-1.283-6.425-.68 0-1.236 3.566-1.282 6.425-1.193-1.8-2.734-3.587-3.16-3.335-.498.295.714 3.262 1.923 5.304.064.108.127.212.19.312-1.52-.596-3.326-1.046-3.478-.7-.17.387 1.818 1.634 3.41 2.332.15.065.29.123.42.174-.82.29-1.62.69-1.567.882.067.237 1.418.063 2.39-.21.314-.088.547-.176.723-.263v1.592a.433.433 0 0 0 .867 0v-1.593c.175.087.407.175.72.264.972.272 2.323.446 2.39.208.053-.19-.747-.59-1.568-.882.13-.05.27-.11.42-.174 1.59-.698 3.578-1.945 3.408-2.333z"/></svg>