<?xml version="1.0" encoding="utf-8"?>
<!-- Generator: Adobe Illustrator 16.0.0, SVG Export Plug-In . SVG Version: 6.00 Build 0)  -->
<!DOCTYPE svg PUBLIC "-//W3C//DTD SVG 1.1//EN" "http://www.w3.org/Graphics/SVG/1.1/DTD/svg11.dtd">
<svg version="1.1" id="Layer_1" xmlns="http://www.w3.org/2000/svg" xmlns:xlink="http://www.w3.org/1999/xlink" x="0px" y="0px"
	 width="48px" height="48px" viewBox="0 0 48 48" enable-background="new 0 0 48 48" xml:space="preserve">
<path d="M43.187,14.592H32.809V5.233c0-1.898-1.538-3.436-3.436-3.436H18.536c-1.898,0-3.437,1.538-3.437,3.436v9.359H4.77
	c-1.898,0-3.437,1.539-3.437,3.437v10.836c0,1.898,1.539,3.437,3.437,3.437H15.1v10.377c0,1.898,1.539,3.437,3.437,3.437h10.837
	c1.898,0,3.436-1.539,3.436-3.437V32.301h10.377c1.897,0,3.436-1.539,3.436-3.437V18.028C46.623,16.13,45.084,14.592,43.187,14.592z
	 M27.084,28.482c-0.19,0.083-0.37,0.158-0.539,0.224c1.056,0.374,2.084,0.888,2.015,1.134c-0.086,0.305-1.816,0.081-3.064-0.27
	c-0.404-0.114-0.701-0.227-0.923-0.338v2.045c0,0.307-0.247,0.556-0.554,0.556s-0.553-0.249-0.553-0.556V29.23
	c-0.222,0.112-0.534,0.225-0.938,0.339c-1.248,0.351-2.988,0.575-3.074,0.27c-0.069-0.246,0.958-0.76,2.013-1.133
	c-0.169-0.066-0.349-0.141-0.54-0.224c-2.045-0.897-4.602-2.5-4.384-2.999c0.195-0.444,2.517,0.135,4.467,0.899
	c-0.079-0.127-0.16-0.261-0.243-0.4c-1.554-2.624-3.111-6.436-2.471-6.815c0.548-0.324,2.527,1.971,4.061,4.285
	c0.059-3.674,0.774-8.256,1.648-8.256s1.589,4.583,1.648,8.256c1.533-2.314,3.513-4.609,4.06-4.285
	c0.64,0.379-0.917,4.191-2.471,6.815c-0.083,0.14-0.164,0.273-0.243,0.4c1.951-0.764,4.273-1.343,4.468-0.899
	C31.686,25.982,29.131,27.585,27.084,28.482z"/>
</svg>
