<?xml version="1.0" encoding="UTF-8" standalone="yes"?>
<svg xmlns="http://www.w3.org/2000/svg" viewBox="0 0 48 48">
  <path d="M46.66 37.832a2.83 2.83 0 0 0-2.02-2.547c-1.054-.304-2.05-.023-2.747.59-.555.49-1.344.458-1.905-.024a2.854 2.854 0 0 0-3.726 0c-.487.42-1.25.42-1.738 0a2.84 2.84 0 0 0-1.86-.69 2.85 2.85 0 0 0-1.867.69c-.57.49-1.362.49-1.932 0A2.85 2.85 0 0 0 27 35.16c-.714 0-1.364.26-1.865.688a1.41 1.41 0 0 1-1.86 0c-.5-.43-1.15-.69-1.862-.69a2.85 2.85 0 0 0-1.866.692c-.57.49-1.36.49-1.933 0a2.85 2.85 0 0 0-1.866-.69c-.71 0-1.357.257-1.856.683a1.4 1.4 0 0 1-1.837 0 2.846 2.846 0 0 0-1.855-.684 2.85 2.85 0 0 0-1.866.69c-.56.48-1.35.514-1.904.025-.697-.614-1.694-.895-2.748-.592a2.827 2.827 0 0 0-1.917 1.956c-.054.2-.087.4-.1.592L1.63 40.77c0 .9.75 1.61 1.65 1.61h41.755c.9 0 1.623-.71 1.623-1.61v-2.94zm-16.486-12.23a1.288 1.288 0 0 0 .512 1.75c.625.344 1.41.114 1.75-.51.342-.625.667-2.42.042-2.76-.624-.344-1.962.897-2.304 1.522zm1.2-7.302a1.29 1.29 0 0 0 1.39-2.172c-.6-.384-2.37-.83-2.754-.23-.384.6.762 2.02 1.363 2.403zm-.422-5.966a1.29 1.29 0 0 0 1.65-.78c.24-.67.28-2.493-.39-2.734-.67-.24-1.8 1.194-2.04 1.864-.24.67.11 1.41.78 1.65zm6.654 9.19c.5-.51 1.3-2.15.79-2.648-.507-.5-2.132.332-2.63.84a1.29 1.29 0 1 0 1.84 1.807zm-1.618 9.363a1.29 1.29 0 0 0 1.29-1.29c0-.713-.578-2.443-1.29-2.443-.712 0-1.29 1.73-1.29 2.443 0 .713.578 1.29 1.29 1.29zm5.774-2.68a1.29 1.29 0 0 0 .59-2.51c-.692-.165-2.51 0-2.673.694-.165.694 1.387 1.653 2.08 1.817zM12.417 30.54l16.56-8.55-7.338-19.6L3.534 6.812A3.525 3.525 0 0 0 1.47 11.35l6.41 17.125a3.524 3.524 0 0 0 4.537 2.065zM9.495 17.67l1.41-.527a3.964 3.964 0 0 1-.473-.554c-.564-.77-1.166-1.91-.978-2.05.15-.11.77.466 1.3 1.097.003-.133.008-.276.017-.43.09-1.642.54-3.817.94-3.795.355.02.556 1.77.532 3.313l.214-.27c1.408-1.75 3.635-3.808 4.062-3.464.365.295-.708 2.253-1.907 3.908 2.55-.91 5.893-1.6 6.12-.996.224.603-2.75 2.28-5.27 3.268 1.99.46 4.086 1.232 4.003 1.694-.096.54-3.127.45-5.337.055-.118-.02-.23-.04-.34-.064 1.03 1.147 2.03 2.6 1.774 2.85-.29.278-2.053-1.07-3.2-2.25a8.688 8.688 0 0 1-.293-.313c.015.824-.075 1.666-.262 1.682-.232.02-.526-1.235-.606-2.187a3.872 3.872 0 0 1-.008-.73l-1.41.53a.41.41 0 1 1-.288-.77z"/>
</svg>