<?xml version="1.0" encoding="utf-8"?>
<!-- Generator: Adobe Illustrator 16.0.0, SVG Export Plug-In . SVG Version: 6.00 Build 0)  -->
<!DOCTYPE svg PUBLIC "-//W3C//DTD SVG 1.1//EN" "http://www.w3.org/Graphics/SVG/1.1/DTD/svg11.dtd">
<svg version="1.1" id="Layer_1" xmlns="http://www.w3.org/2000/svg" xmlns:xlink="http://www.w3.org/1999/xlink" x="0px" y="0px"
	 width="48px" height="48px" viewBox="0 0 48 48" enable-background="new 0 0 48 48" xml:space="preserve">
<g>
	<circle cx="34.184" cy="5.375" r="4.49"/>
	<path d="M44.109,26.162l-4.056-13.065c-0.372-1.199-1.29-2.187-2.494-2.54c-1.294-0.38-2.016,0.181-2.693,0.721
		c-0.096,0.077-8.708,7.411-8.708,7.411L13.185,3.292c-0.357-0.423-0.99-0.478-1.413-0.12c-0.423,0.357-0.477,0.989-0.12,1.413
		l0.701,0.833l-4.668,4.669c-0.239,0.238-0.315,0.595-0.194,0.91l0.512,1.343c0.198,0.519,0.848,0.689,1.275,0.334l5.402-4.495
		l10.037,11.911c-0.544,0.9-0.481,2.083,0.24,2.926c0.496,0.58,1.199,0.877,1.906,0.877c0.309,0,0.619-0.058,0.913-0.173
		l1.151,1.366c0.198,0.235,0.482,0.356,0.767,0.356c0.228,0,0.458-0.077,0.646-0.236c0.423-0.357,0.477-0.99,0.12-1.413
		l-1.071-1.271l5.755-4.923l3.05,9.84v15.567c0,1.457,0.978,2.796,2.407,3.079c1.926,0.381,3.633-1.085,3.633-2.947V26.983
		C44.233,26.705,44.191,26.428,44.109,26.162z"/>
	<path d="M21.125,40.404c-0.312,0-0.597,0.013-0.922,0.038v-0.734c0.13,0.058,0.276,0.117,0.487,0.176
		c0.65,0.183,1.557,0.299,1.602,0.141c0.036-0.128-0.499-0.396-1.049-0.591c0.088-0.034,0.182-0.073,0.281-0.117
		c1.066-0.467,2.398-1.303,2.284-1.563c-0.101-0.231-1.312,0.07-2.328,0.469c0.042-0.066,0.083-0.136,0.127-0.209
		c0.81-1.368,1.622-3.354,1.288-3.552c-0.286-0.169-1.317,1.027-2.117,2.233c-0.031-1.915-0.404-4.304-0.859-4.304
		c-0.455,0-0.828,2.389-0.859,4.304c-0.799-1.206-1.831-2.403-2.117-2.233c-0.333,0.197,0.479,2.184,1.289,3.552
		c0.043,0.073,0.085,0.143,0.126,0.209c-1.017-0.398-2.227-0.7-2.329-0.469c-0.114,0.26,1.218,1.096,2.285,1.563
		c0.099,0.043,0.192,0.083,0.281,0.117c-0.55,0.195-1.086,0.463-1.05,0.591c0.044,0.159,0.944,0.042,1.595-0.141
		c0.21-0.059,0.349-0.118,0.479-0.176v0.798c-1.494,0.205-2.756,0.711-3.603,1.413c-1.23-1.24-3.536-2.044-6.206-2.044
		c-0.181,0-0.389,0.004-0.519,0.013v-1.239c0.13,0.074,0.332,0.149,0.6,0.225c0.829,0.233,1.974,0.381,2.03,0.179
		c0.046-0.163-0.641-0.505-1.342-0.753c0.112-0.044,0.229-0.093,0.355-0.149c1.359-0.596,3.055-1.66,2.91-1.992
		c-0.129-0.294-1.672,0.089-2.968,0.597c0.053-0.084,0.106-0.173,0.161-0.266c1.032-1.743,2.066-4.275,1.642-4.527
		c-0.364-0.215-1.679,1.31-2.697,2.846c-0.04-2.44-0.515-5.484-1.095-5.484c-0.581,0-1.055,3.043-1.095,5.484
		c-1.019-1.537-2.333-3.062-2.697-2.846c-0.425,0.251,0.609,2.784,1.642,4.527c0.055,0.093,0.108,0.181,0.161,0.266
		c-1.295-0.508-2.838-0.892-2.967-0.597c-0.146,0.332,1.552,1.396,2.911,1.992c0.127,0.056,0.246,0.105,0.358,0.149
		c-0.701,0.248-1.384,0.59-1.338,0.753c0.057,0.202,1.207,0.054,2.036-0.179c0.268-0.076,0.483-0.151,0.613-0.225v1.3
		C5.2,40.34,2.641,42.211,2.641,44.002c0,2.014,24.696,2.014,24.696,0C27.337,41.989,24.554,40.404,21.125,40.404z"/>
</g>
</svg>
