<?xml version="1.0" encoding="utf-8"?>
<!-- Generator: Adobe Illustrator 16.0.0, SVG Export Plug-In . SVG Version: 6.00 Build 0)  -->
<!DOCTYPE svg PUBLIC "-//W3C//DTD SVG 1.1//EN" "http://www.w3.org/Graphics/SVG/1.1/DTD/svg11.dtd">
<svg version="1.1" id="Layer_1" xmlns="http://www.w3.org/2000/svg" xmlns:xlink="http://www.w3.org/1999/xlink" x="0px" y="0px"
	 width="48px" height="48px" viewBox="0 0 48 48" enable-background="new 0 0 48 48" xml:space="preserve">
<g>
	<path d="M9.664,12.739v1.549c0,0.232,0.19,0.42,0.422,0.42s0.423-0.188,0.423-0.42v-1.549c0.178,0.084,0.409,0.17,0.714,0.257
		c0.945,0.266,2.266,0.435,2.331,0.204c0.052-0.186-0.724-0.575-1.522-0.858c0.127-0.05,0.265-0.106,0.409-0.17
		c1.549-0.679,3.485-1.893,3.319-2.271c-0.147-0.336-1.905,0.102-3.383,0.681c0.061-0.097,0.122-0.198,0.185-0.303
		c1.177-1.987,2.356-4.875,1.872-5.162c-0.415-0.246-1.914,1.494-3.075,3.246c-0.045-2.782-0.586-6.253-1.249-6.253
		c-0.661,0-1.203,3.47-1.248,6.253C7.7,6.61,6.201,4.871,5.786,5.117c-0.484,0.287,0.695,3.174,1.872,5.162
		c0.063,0.105,0.124,0.207,0.184,0.303C6.365,10.002,4.606,9.564,4.458,9.9c-0.166,0.378,1.77,1.592,3.319,2.271
		c0.144,0.063,0.28,0.12,0.408,0.17C7.386,12.625,6.608,13.014,6.66,13.2c0.065,0.23,1.368,0.062,2.313-0.204
		C9.278,12.909,9.486,12.824,9.664,12.739z"/>
	<path d="M42.485,9.9c-0.147-0.336-1.906,0.102-3.383,0.681c0.06-0.097,0.122-0.198,0.184-0.303
		c1.177-1.987,2.356-4.875,1.872-5.162c-0.415-0.246-1.914,1.494-3.075,3.246c-0.045-2.782-0.586-6.253-1.249-6.253
		c-0.662,0-1.203,3.47-1.248,6.253c-1.161-1.752-2.661-3.491-3.075-3.246c-0.485,0.287,0.695,3.174,1.872,5.162
		c0.063,0.105,0.124,0.207,0.184,0.303c-1.477-0.579-3.236-1.017-3.383-0.681c-0.166,0.378,1.77,1.592,3.319,2.271
		c0.144,0.063,0.28,0.12,0.408,0.17c-0.799,0.283-1.578,0.672-1.525,0.858c0.065,0.23,1.367,0.062,2.312-0.204
		c0.306-0.086,0.513-0.172,0.691-0.256v1.549c0,0.232,0.19,0.42,0.422,0.42s0.423-0.188,0.423-0.42v-1.549
		c0.178,0.084,0.409,0.17,0.715,0.257c0.945,0.266,2.265,0.435,2.33,0.204c0.053-0.186-0.723-0.575-1.522-0.858
		c0.128-0.05,0.265-0.106,0.409-0.17C40.714,11.492,42.65,10.278,42.485,9.9z"/>
	<path d="M21.14,12.171c0.145,0.063,0.28,0.12,0.408,0.17c-0.799,0.283-1.578,0.672-1.525,0.858c0.065,0.23,1.378,0.062,2.323-0.204
		c0.306-0.086,0.524-0.172,0.702-0.256v1.549c0,0.232,0.19,0.42,0.422,0.42s0.422-0.188,0.422-0.42v-1.549
		c0.178,0.084,0.398,0.17,0.704,0.257c0.945,0.266,2.26,0.435,2.325,0.204c0.053-0.186-0.726-0.575-1.525-0.858
		c0.127-0.05,0.263-0.106,0.408-0.17c1.549-0.679,3.485-1.893,3.319-2.271c-0.147-0.336-1.906,0.102-3.383,0.681
		c0.061-0.097,0.122-0.198,0.185-0.303c1.177-1.987,2.356-4.875,1.872-5.162C27.38,4.871,25.881,6.61,24.72,8.362
		c-0.045-2.782-0.586-6.253-1.248-6.253s-1.203,3.47-1.248,6.253c-1.162-1.752-2.661-3.491-3.076-3.246
		c-0.484,0.287,0.695,3.174,1.872,5.162c0.063,0.105,0.124,0.207,0.184,0.303c-1.478-0.579-3.236-1.017-3.383-0.681
		C17.655,10.278,19.59,11.492,21.14,12.171z"/>
	<path d="M38.691,15.851H8.252c-0.619,0-1.123,0.505-1.123,1.125v0.727c0,0.62,0.503,1.127,1.123,1.127h12.217v1.957h5.958V18.83
		h12.264c0.62,0,1.12-0.507,1.12-1.127v-0.727C39.811,16.356,39.311,15.851,38.691,15.851z"/>
	<path d="M27.56,29.889l-3.069,2.244c-0.272-0.139-0.581-0.218-0.907-0.218c-1.101,0-1.993,0.893-1.993,1.993
		c0,1.101,0.892,1.993,1.993,1.993c1.101,0,1.994-0.892,1.994-1.993c0-0.153-0.018-0.302-0.051-0.446l2.735-2.758
		c0.184-0.185,0.211-0.481,0.052-0.698C28.138,29.765,27.801,29.713,27.56,29.889z"/>
	<path d="M32.871,22.031H14.072c-2.467,0-4.453,1.992-4.453,4.458v14.837c0,2.466,1.986,4.449,4.453,4.449h18.798
		c2.467,0,4.451-1.982,4.451-4.449V26.49C37.321,24.023,35.338,22.031,32.871,22.031z M23.472,41.843
		c-4.382,0-7.935-3.552-7.935-7.935c0-4.382,3.553-7.934,7.935-7.934c4.382,0,7.935,3.552,7.935,7.934
		C31.406,38.291,27.854,41.843,23.472,41.843z"/>
</g>
</svg>
