<?xml version="1.0" encoding="UTF-8" standalone="yes"?>
<svg xmlns="http://www.w3.org/2000/svg" viewBox="0 0 48 48">
  <path d="M41.11 1.717H5.75A2.483 2.483 0 0 0 3.267 4.2V7.51A2.482 2.482 0 0 0 5.75 9.99h35.36a2.484 2.484 0 0 0 2.484-2.482V4.2a2.483 2.483 0 0 0-2.484-2.483zM8.472 40.573c0 3.082 2.514 5.58 5.596 5.58h18.808a5.57 5.57 0 0 0 5.568-5.58V13.06H8.472v27.513zm5.643-18.035c0-1.226 1.024-2.246 2.25-2.246H30.53c1.226 0 2.215 1.02 2.215 2.246v13.13a2.21 2.21 0 0 1-2.215 2.212H16.365c-1.226 0-2.25-.986-2.25-2.212v-13.13z"/>
  <path d="M29.237 30.095c-.15-.345-1.96.105-3.477.7.062-.1.125-.203.19-.312 1.208-2.042 2.42-5.01 1.922-5.304-.426-.253-1.967 1.534-3.16 3.334-.046-2.86-.603-6.425-1.282-6.425-.68 0-1.236 3.565-1.283 6.424-1.193-1.8-2.733-3.587-3.16-3.335-.497.294.715 3.26 1.924 5.303l.19.312c-1.52-.595-3.325-1.045-3.477-.7-.17.388 1.818 1.635 3.41 2.333.148.065.288.123.42.174-.822.29-1.622.69-1.568.882.067.237 1.42.063 2.39-.21A4.3 4.3 0 0 0 23 33.01v1.592a.433.433 0 0 0 .867 0V33.01c.175.087.406.175.72.264.973.273 2.322.447 2.39.21.054-.19-.747-.59-1.567-.882.13-.05.27-.11.418-.174 1.59-.698 3.58-1.945 3.41-2.333z"/>
</svg>