<?xml version="1.0" encoding="utf-8"?>
<!-- Generator: Adobe Illustrator 16.0.0, SVG Export Plug-In . SVG Version: 6.00 Build 0)  -->
<!DOCTYPE svg PUBLIC "-//W3C//DTD SVG 1.1//EN" "http://www.w3.org/Graphics/SVG/1.1/DTD/svg11.dtd">
<svg version="1.1" id="Layer_1" xmlns="http://www.w3.org/2000/svg" xmlns:xlink="http://www.w3.org/1999/xlink" x="0px" y="0px"
	 width="48px" height="48px" viewBox="0 0 48 48" enable-background="new 0 0 48 48" xml:space="preserve">
<g>
	<path d="M41.304,21.863h-7.774c-2.802,0-5.115,2.166-5.115,4.958v17.573c0,1.065,0.909,2.019,1.979,2.019H44.44
		c1.069,0,1.859-0.954,1.859-2.019V26.822C46.299,24.029,44.105,21.863,41.304,21.863z M30.236,28.696
		c-0.412,0-0.747-0.334-0.747-0.747c0-3.837,2.706-4.938,4.136-4.984c0.43-0.025,0.757,0.31,0.77,0.722
		c0.013,0.411-0.308,0.754-0.718,0.77c-0.28,0.013-2.695,0.224-2.695,3.492C30.983,28.362,30.649,28.696,30.236,28.696z
		 M44.187,41.196c0,0.886-0.718,1.604-1.604,1.604h-10.36c-0.886,0-1.603-0.718-1.603-1.604v-9.468c0-0.885,0.717-1.603,1.603-1.603
		h10.36c0.886,0,1.604,0.718,1.604,1.603V41.196z"/>
	<path d="M44.844,15.43c0-1.347-1.092-2.438-2.439-2.438H32.308c-1.347,0-2.439,1.092-2.439,2.438v1.789
		c0,1.347,1.092,2.438,2.439,2.438h10.097c1.347,0,2.439-1.092,2.439-2.438V15.43z"/>
	<path d="M39.128,38.161c0.047-0.075,0.094-0.153,0.143-0.235c0.913-1.542,1.828-3.783,1.452-4.005
		c-0.322-0.191-1.485,1.159-2.386,2.518c-0.035-2.159-0.455-4.852-0.969-4.852c-0.513,0-0.934,2.693-0.968,4.852
		c-0.901-1.359-2.065-2.709-2.387-2.518c-0.376,0.222,0.54,2.463,1.453,4.005c0.048,0.082,0.096,0.16,0.143,0.235
		c-1.146-0.449-2.511-0.79-2.625-0.529c-0.128,0.293,1.373,1.235,2.576,1.763c0.112,0.049,0.217,0.093,0.316,0.131
		c-0.621,0.22-1.225,0.521-1.184,0.666c0.05,0.179,1.052,0.048,1.785-0.158c0.237-0.067,0.434-0.134,0.527-0.199v1.202
		c0,0.18,0.172,0.326,0.352,0.326c0.181,0,0.352-0.146,0.352-0.326v-1.202c0.094,0.065,0.302,0.132,0.539,0.199
		c0.733,0.207,1.75,0.337,1.801,0.158c0.041-0.145-0.565-0.446-1.186-0.666c0.1-0.039,0.204-0.083,0.316-0.131
		c1.202-0.527,2.704-1.469,2.575-1.763C41.639,37.372,40.274,37.712,39.128,38.161z"/>
	<circle cx="14.769" cy="6.095" r="4.509"/>
	<path d="M27.463,20.417c0,0-6.896-5.837-9.208-7.851c-0.594-0.517-1.347-0.843-2.197-0.843h-1.006h-0.528h-1.005
		c-0.85,0-1.603,0.326-2.197,0.843c-2.313,2.013-9.208,7.856-9.208,7.856c-0.845,0.723-0.942,1.992-0.22,2.837
		c0.399,0.466,0.965,0.703,1.533,0.703c0.463,0,0.92-0.159,1.3-0.484l5.568-4.768v25.583c0,1.126,0.929,2.036,2.061,2.013
		c1.097-0.022,1.976-0.947,1.976-2.044c0,0-0.003-10.653,0-14.136c0-0.146,0.073-0.501,0.457-0.501c0.384,0,0.483,0.351,0.482,0.501
		c-0.004,3.608,0,14.136,0,14.136c0,1.097,0.856,2.022,1.953,2.044c1.131,0.023,2.037-0.887,2.037-2.013V18.711l5.578,4.767
		c0.38,0.325,0.848,0.483,1.312,0.483c0.568,0,1.134-0.239,1.533-0.705C28.405,22.412,28.308,21.14,27.463,20.417z"/>
</g>
</svg>
