<?xml version="1.0" encoding="UTF-8" standalone="yes"?>
<svg xmlns="http://www.w3.org/2000/svg" viewBox="0 0 48 48">
  <circle cx="34.184" cy="5.375" r="4.49"/>
  <path d="M44.11 26.162l-4.057-13.065c-.372-1.2-1.29-2.187-2.494-2.54-1.296-.38-2.018.18-2.695.72-.096.078-8.708 7.412-8.708 7.412L13.185 3.29a1.002 1.002 0 1 0-1.533 1.293l.7.833-4.667 4.67a.853.853 0 0 0-.194.91l.514 1.342a.81.81 0 0 0 1.275.334l5.4-4.492 10.037 11.91a2.507 2.507 0 0 0 3.06 3.63l1.15 1.366a1 1 0 0 0 1.413.12c.423-.357.477-.99.12-1.413l-1.07-1.27 5.754-4.924 3.05 9.84v15.565c0 1.457.978 2.796 2.407 3.08 1.928.38 3.635-1.086 3.635-2.948V26.983c0-.278-.043-.555-.125-.82zM21.125 40.404c-.312 0-.597.013-.922.038v-.734c.13.058.276.117.487.176.65.183 1.557.3 1.602.14.036-.127-.5-.395-1.05-.59.09-.034.183-.073.282-.117 1.066-.467 2.398-1.303 2.284-1.563-.1-.23-1.312.07-2.328.47.042-.067.083-.137.127-.21.81-1.368 1.622-3.354 1.288-3.552-.286-.17-1.317 1.027-2.117 2.233-.03-1.915-.404-4.304-.86-4.304-.454 0-.827 2.39-.858 4.306-.8-1.206-1.83-2.403-2.117-2.233-.333.197.48 2.184 1.29 3.552.042.073.084.143.125.21-1.017-.4-2.227-.7-2.33-.47-.113.26 1.22 1.096 2.286 1.563.1.043.192.083.28.117-.55.195-1.085.463-1.05.59.045.16.945.043 1.596-.14.21-.06.35-.118.48-.176v.797c-1.495.205-2.757.71-3.604 1.413-1.23-1.24-3.536-2.045-6.206-2.045a8.7 8.7 0 0 0-.52.013v-1.24c.13.075.333.15.6.226.83.233 1.975.38 2.03.18.047-.164-.64-.506-1.34-.754a8.74 8.74 0 0 0 .354-.15c1.36-.595 3.055-1.66 2.91-1.99-.13-.295-1.672.088-2.968.596a8.49 8.49 0 0 0 .16-.266c1.033-1.743 2.067-4.275 1.643-4.527-.366-.215-1.68 1.31-2.7 2.846-.04-2.44-.514-5.486-1.094-5.486S7.83 32.367 7.79 34.808C6.77 33.27 5.46 31.745 5.095 31.96c-.425.25.61 2.785 1.642 4.528l.16.266c-1.294-.508-2.837-.892-2.966-.597-.145.33 1.553 1.395 2.912 1.99a8.1 8.1 0 0 0 .358.15c-.7.248-1.384.59-1.338.753.057.202 1.207.054 2.036-.18a3 3 0 0 0 .613-.224v1.3C5.2 40.34 2.64 42.21 2.64 44c0 2.014 24.697 2.014 24.697 0 0-2.013-2.783-3.598-6.212-3.598z"/>
</svg>