<?xml version="1.0" encoding="utf-8"?>
<!-- Generator: Adobe Illustrator 16.0.0, SVG Export Plug-In . SVG Version: 6.00 Build 0)  -->
<!DOCTYPE svg PUBLIC "-//W3C//DTD SVG 1.1//EN" "http://www.w3.org/Graphics/SVG/1.1/DTD/svg11.dtd">
<svg version="1.1" id="Layer_1" xmlns="http://www.w3.org/2000/svg" xmlns:xlink="http://www.w3.org/1999/xlink" x="0px" y="0px"
	 width="48px" height="48px" viewBox="0 0 48 48" enable-background="new 0 0 48 48" xml:space="preserve">
<path d="M44.429,29.288c-0.533-1.214-6.89,0.37-12.23,2.462c0.218-0.349,0.439-0.714,0.666-1.096
	c4.254-7.184,8.518-17.622,6.766-18.659c-1.499-0.888-6.919,5.398-11.118,11.733C28.35,13.668,26.392,1.122,24,1.122
	s-4.35,12.546-4.512,22.605C15.289,17.393,9.87,11.107,8.37,11.995c-1.751,1.037,2.512,11.475,6.766,18.659
	c0.227,0.382,0.448,0.747,0.666,1.096c-5.34-2.093-11.698-3.677-12.23-2.462c-0.599,1.366,6.397,5.754,11.999,8.211
	c0.521,0.229,1.012,0.432,1.474,0.613c-2.889,1.023-5.704,2.431-5.514,3.104c0.235,0.833,4.99,0.224,8.406-0.739
	c1.105-0.311,1.926-0.621,2.545-0.926v5.599c0,0.84,0.684,1.521,1.524,1.521s1.524-0.681,1.524-1.521v-5.6
	c0.618,0.306,1.434,0.616,2.54,0.927c3.416,0.962,8.168,1.572,8.402,0.739c0.19-0.672-2.625-2.08-5.515-3.104
	c0.462-0.181,0.952-0.384,1.473-0.613C38.032,35.042,45.028,30.654,44.429,29.288z"/>
</svg>
