<?xml version="1.0" encoding="utf-8"?>
<!-- Generator: Adobe Illustrator 16.0.0, SVG Export Plug-In . SVG Version: 6.00 Build 0)  -->
<!DOCTYPE svg PUBLIC "-//W3C//DTD SVG 1.1//EN" "http://www.w3.org/Graphics/SVG/1.1/DTD/svg11.dtd">
<svg version="1.1" id="Layer_1" xmlns="http://www.w3.org/2000/svg" xmlns:xlink="http://www.w3.org/1999/xlink" x="0px" y="0px"
	 width="48px" height="48px" viewBox="0 0 48 48" enable-background="new 0 0 48 48" xml:space="preserve">
<g>
	<path d="M33.839,13.282h1.021c0.846,0,1.531-0.683,1.531-1.529s-0.686-1.529-1.531-1.529h-1.021c-0.846,0-1.531,0.683-1.531,1.529
		S32.993,13.282,33.839,13.282z"/>
	<path d="M40.984,13.282c0.845,0,1.53-0.683,1.53-1.529s-0.686-1.529-1.53-1.529h-1.021c-0.845,0-1.531,0.683-1.531,1.529
		s0.687,1.529,1.531,1.529H40.984z"/>
	<path d="M35.78,15.418l-0.849-0.567c-0.704-0.47-1.655-0.279-2.125,0.424c-0.469,0.703-0.278,1.654,0.424,2.123l0.85,0.567
		c0.261,0.174,0.557,0.257,0.85,0.257c0.494,0,0.979-0.239,1.274-0.681C36.674,16.838,36.483,15.887,35.78,15.418z"/>
	<path d="M42.271,19.753l-0.849-0.567c-0.703-0.47-1.655-0.279-2.125,0.424c-0.469,0.703-0.278,1.654,0.424,2.123l0.85,0.567
		c0.261,0.174,0.557,0.258,0.85,0.258c0.494,0,0.979-0.239,1.274-0.682C43.165,21.173,42.975,20.222,42.271,19.753z"/>
	<path d="M35.78,8.089l-0.849,0.566c-0.704,0.47-1.655,0.279-2.125-0.423c-0.469-0.703-0.278-1.654,0.424-2.123l0.85-0.567
		c0.261-0.174,0.557-0.258,0.85-0.258c0.494,0,0.979,0.239,1.274,0.682C36.674,6.669,36.483,7.62,35.78,8.089z"/>
	<path d="M42.271,3.754L41.423,4.32c-0.703,0.47-1.655,0.279-2.125-0.424c-0.469-0.703-0.278-1.654,0.424-2.123l0.85-0.566
		c0.261-0.175,0.557-0.258,0.85-0.258c0.494,0,0.979,0.239,1.274,0.681C43.165,2.334,42.975,3.285,42.271,3.754z"/>
	<path d="M17.348,15.618h-4.749c-0.478,0-0.926,0.449-1.205,0.837c-4.009,5.597-6.873,19.042-6.873,23.563
		C4.521,45.8,9.2,47,14.975,47c5.771,0,10.452-1.119,10.452-6.899c0-4.522-2.864-18.063-6.873-23.659
		C18.274,16.054,17.826,15.618,17.348,15.618z"/>
	<path d="M30.14,10.722h-0.755c-0.122-0.637-0.646-1.12-1.304-1.179l-16.913-1.51c-0.408-0.036-0.807,0.1-1.108,0.376
		C9.758,8.687,9.592,9.076,9.592,9.486v3.175c0,0.807,0.641,1.458,1.447,1.458h9.954c0.892,5.499,7.263,8.838,7.263,8.838
		c0.192,0.062,0.411,0.006,0.549-0.159c0.182-0.217,0.153-0.54-0.063-0.722c0,0-3.593-4.153-3.402-7.958h2.611
		c0.677,0,1.246-0.467,1.412-1.104h0.777c0.269,0,0.472-0.198,0.472-0.466v-1.347C30.611,10.934,30.408,10.722,30.14,10.722z"/>
</g>
</svg>
