<?xml version="1.0" encoding="UTF-8" standalone="yes"?>
<svg xmlns="http://www.w3.org/2000/svg" viewBox="0 0 64 64">
  <path d="M36.81 6.882l-5.853-3.12v30.634l1.756.936v-17.82l4.097-3.032z"/>
  <path d="M39.25 14.933l-4.878 3.61v28l4.878-3.61zM32.416 60.41a.5.5 0 0 0 .5-.5V38.675l-3.333-3.893V4.695l-3.49-3.297a.5.5 0 0 0-.686.726l3.177 3.002v30.026l3.333 3.893V59.91a.5.5 0 0 0 .5.5zM24.18 55.44a.5.5 0 1 0-.69.724l3.83 3.666a.5.5 0 0 0 .692-.722L24.18 55.44zM28.012 56.557L24.18 52.89a.5.5 0 0 0-.69.724l3.83 3.666a.5.5 0 0 0 .692-.723zM28.012 54.006L24.18 50.34a.5.5 0 0 0-.69.723l3.83 3.666a.5.5 0 0 0 .692-.724zM28.012 51.455L24.18 47.79a.5.5 0 0 0-.69.723l3.83 3.665a.5.5 0 0 0 .692-.723zM28.012 48.904l-3.832-3.666a.5.5 0 0 0-.69.723l3.83 3.667a.5.5 0 0 0 .692-.723zM28.012 46.353l-3.832-3.666a.5.5 0 0 0-.69.723l3.83 3.666a.5.5 0 0 0 .692-.723zM28.012 43.803l-3.832-3.666a.5.5 0 0 0-.69.723l3.83 3.666a.5.5 0 0 0 .692-.723zM28.012 41.252l-3.832-3.666a.5.5 0 0 0-.69.723l3.83 3.665a.5.5 0 0 0 .692-.723zM28.012 38.7l-3.832-3.665a.5.5 0 1 0-.69.723l3.83 3.666a.5.5 0 0 0 .692-.723zM28.012 36.15l-3.832-3.666a.5.5 0 0 0-.69.723l3.83 3.666a.5.5 0 0 0 .692-.723zM28.012 33.6l-3.832-3.667a.5.5 0 0 0-.69.723l3.83 3.667a.5.5 0 0 0 .692-.723zM28.012 31.048l-3.832-3.666a.5.5 0 0 0-.69.723l3.83 3.666a.5.5 0 0 0 .692-.722z"/>
  <path d="M28.012 28.498l-3.832-3.666a.5.5 0 0 0-.69.723l3.83 3.666a.5.5 0 0 0 .692-.722zM28.012 25.947L24.18 22.28a.5.5 0 0 0-.69.723l3.83 3.667a.5.5 0 0 0 .692-.723zM28.012 23.396L24.18 19.73a.5.5 0 0 0-.69.723l3.83 3.666a.5.5 0 0 0 .692-.724zM28.012 20.845L24.18 17.18a.5.5 0 0 0-.69.722l3.83 3.666a.5.5 0 0 0 .692-.723zM28.012 18.294l-3.832-3.666a.5.5 0 0 0-.69.723l3.83 3.667a.5.5 0 0 0 .692-.723zM28.012 15.744l-3.832-3.666a.5.5 0 0 0-.69.723l3.83 3.666a.5.5 0 0 0 .692-.723zM28.012 13.193L24.18 9.527a.5.5 0 0 0-.69.723l3.83 3.666a.5.5 0 0 0 .692-.723zM28.012 10.642L24.18 6.976a.5.5 0 0 0-.69.723l3.83 3.665a.5.5 0 0 0 .692-.723zM28.012 8.09L24.18 4.426a.5.5 0 0 0-.69.723l3.83 3.666a.5.5 0 0 0 .692-.723z"/>
</svg>