<?xml version="1.0" encoding="UTF-8" standalone="yes"?>
<svg xmlns="http://www.w3.org/2000/svg" viewBox="0 0 64 64">
  <path d="M27.022 14.79l-3.62-3.622v5.17l1.21 1.21v-1.906l.837.835v7.218l-3.648 3.65v7.582l2.127 2.127 1.816-1.818v6.505l1.858-1.858 1.936-1.935V54.21l-3.6 3.603v1.046l4.22-4.223v-17.62l-3.138-3.136z"/>
  <path d="M28.958 44.995v-4.648l-3.08 3.08.95.95 1.047-1.047v9.178l-3.62 3.62v5.21l1.257-1.26v-2.922l3.446-3.447z"/>
  <path d="M27.527 45.062l-1.86 2.187v1.858l1.86-2.187zM25.667 51.433l1.86-2.187v-1.86l-1.86 2.187zM25.667 53.833l1.86-2.187v-1.858l-1.86 2.185zM30.625 15.013l-7.03-5.765 6.14 6.14-.004 16.32 2.123 2.122v23.142l.892-23.515-2.12-2.12zM38.62 28.763v-6.505l-1.858 1.86-1.938 1.934V9.788l3.602-3.603V5.14l-4.22 4.222v17.62l3.137 3.136V49.21l3.62 3.622v-5.17l-1.21-1.212v1.907l-.837-.836v-7.216l3.647-3.65v-7.582l-2.127-2.127z"/>
  <path d="M40.11 2.66l-1.257 1.26v2.923l-3.446 3.447v13.362l3.078-3.08-.95-.95-1.044 1.047v-9.18l3.62-3.62z"/>
  <path d="M36.84 18.936l1.858-2.186v-1.86l-1.86 2.188zM38.698 12.566l-1.86 2.186v1.86l1.86-2.186zM38.698 10.166l-1.86 2.187v1.858l1.86-2.184zM34.634 32.29l-2.123-2.12.002-23.143-.892 23.515 2.12 2.12v16.324l7.03 5.765-6.138-6.14z"/>
</svg>