<?xml version="1.0" encoding="UTF-8" standalone="yes"?>
<svg xmlns="http://www.w3.org/2000/svg" viewBox="0 0 50 50">
  <path d="M30.196 10.5l3.464 6 3.464-6zm-17.32 0l3.464 6 3.464-6zM8.546 17h6.928l-3.464-6zm15.588 0l-3.464-6-3.464 6zm1.732 0h6.928l-3.464-6zm15.588 0l-3.464-6-3.464 6zm-6.928 1l3.464 6 3.464-6zm-5.196 6l3.464-6h-6.928zm-5.196-6h-6.928l3.464 6zM12.01 24l3.464-6H8.546zm-7.794.5h6.928l-3.464-6zM25 18.5l-3.464 6h6.928zm17.32 0l-3.464 6h6.928zM24.134 32l-3.464-6-3.464 6zm1.732 0h6.928l-3.464-6zm3.464 7l3.464-6h-6.928zm-12.124-6l3.464 6 3.464-6zm4.33 6.5h6.928L25 33.5z"/>
</svg>