<?xml version="1.0" encoding="UTF-8" standalone="yes"?>
<svg xmlns="http://www.w3.org/2000/svg" viewBox="0 0 50 50">
  <path d="M40.07 14.487h-5.024l2.512 4.35zm-6.28 0h-5.022l2.51 4.35zm-12.558 0H16.21l2.513 4.35zm-6.278 0H9.93l2.512 4.35zm-5.65.363L6.792 19.2h5.022zm12.556 0l-2.51 4.35h5.022zm6.28 0l-2.512 4.35h5.023zm12.558 0l-2.512 4.35h5.022zm-3.768 5.076h-5.023l2.512 4.35zm6.278 0h-5.022l2.512 4.35zm-12.558 0h-5.02l2.512 4.35zm-6.278 0H19.35l2.51 4.35zm-6.28 0H13.07l2.512 4.35zm-6.278 0H6.792l2.512 4.35zm.628.362l-2.51 4.35h5.022zm12.558 0l-2.512 4.35h5.024zm12.558 0l-2.512 4.35h5.023zM36.93 9.05h-5.023l2.512 4.35zm-18.837 0H13.07l2.512 4.35zm-5.65.362l-2.51 4.35h5.02zm6.28 0l-2.513 4.35h5.022zm12.557 0l-2.512 4.35h5.022zm6.278 0l-2.512 4.35h5.023zm2.512 15.95h-5.024l2.512 4.35zm-12.558 0h-5.024L25 29.713zm-12.558 0H9.93l2.512 4.35zm-5.65.364l-2.512 4.35h5.022zm6.278 0l-2.512 4.35h5.023zm6.278 0l-2.51 4.35h5.022zm6.28 0l-2.512 4.35h5.023zm6.28 0l-2.513 4.35h5.023zm6.278 0l-2.512 4.35h5.022zm2.51 5.074h-5.022l2.512 4.35zm-12.558 0h-5.02l2.512 4.35zm-6.278 0H19.35l2.51 4.35zm-12.558 0H6.792l2.512 4.35zm.628.363l-2.51 4.35h5.022zm6.28 0l-2.512 4.35h5.022zm12.558 0l-2.512 4.35h5.022zm6.278 0l-2.512 4.35h5.023zm2.512 5.077h-5.024l2.512 4.35zm-6.28 0h-5.022l2.51 4.35zm-12.558 0H16.21l2.513 4.35zm-6.278 0H9.93l2.512 4.35zm.628.36l-2.512 4.35h5.023zm18.838 0l-2.513 4.35h5.023z"/>
</svg>