<?xml version="1.0" encoding="UTF-8" standalone="yes"?>
<svg xmlns="http://www.w3.org/2000/svg" viewBox="0 0 50 50">
  <path d="M30.196 10.5l3.464 6 3.464-6zM12.876 10.5l3.464 6 3.464-6zM8.546 17h6.928l-3.464-6zM24.134 17l-3.464-6-3.464 6zM25.866 17h6.928l-3.464-6zM41.454 17l-3.464-6-3.464 6zM34.526 18l3.464 6 3.464-6zM29.33 24l3.464-6h-6.928zM24.134 18h-6.928l3.464 6zM12.01 24l3.464-6H8.546zM4.216 24.5h6.928l-3.464-6zM25 18.5l-3.464 6h6.928zM42.32 18.5l-3.464 6h6.928zM24.134 32l-3.464-6-3.464 6zM25.866 32h6.928l-3.464-6zM29.33 39l3.464-6h-6.928zM17.206 33l3.464 6 3.464-6zM21.536 39.5h6.928L25 33.5z"/>
</svg>