<?xml version="1.0" encoding="UTF-8" standalone="yes"?>
<svg xmlns="http://www.w3.org/2000/svg" viewBox="0 0 50 50">
  <path d="M40.63 15.347h-5.292l2.645 4.583zm-13.23 0h-5.294l2.647 4.583zm-13.232 0H8.876l2.646 4.583zm-2.646 6.11l-2.646 4.585h5.292zm13.23 0l-2.646 4.585H27.4zm13.23 0l-2.644 4.585h5.292zM11.523 10l-2.646 4.583h5.292zm13.23 0l-2.646 4.583H27.4zm13.23 0l-2.644 4.583h5.292zm2.648 16.806h-5.292l2.645 4.583zm-13.23 0h-5.294l2.647 4.583zm-13.232 0H8.876l2.646 4.583zm-5.953.382L5.568 31.77h5.292zm6.615 0l-2.646 4.583h5.292zm6.615 0L18.8 31.77h5.292zm6.615 0l-2.646 4.583h5.293zm6.616 0L32.03 31.77h5.292zm6.614 0l-2.644 4.583h5.292zm-3.968 5.347H32.03l2.646 4.583zm6.616 0h-5.292l2.645 4.583zm-13.23 0h-5.294l2.647 4.583zm-6.616 0H18.8l2.645 4.583zm-6.616 0h-5.292l2.646 4.583zm-6.616 0H5.568l2.647 4.583zm.662.382L8.876 37.5h5.292zm13.23 0L22.107 37.5H27.4zm13.23 0L35.34 37.5h5.292z"/>
</svg>