<?xml version="1.0" encoding="UTF-8" standalone="yes"?>
<svg xmlns="http://www.w3.org/2000/svg" viewBox="0 0 50 50">
  <path d="M30.892 14.038h-5.237l2.618 4.536zm-6.547 0h-5.238l2.62 4.536zm-5.892.378l-2.62 4.536h5.238zm15.713 4.536l-2.62-4.536-2.618 4.536zm-2.62 5.292l2.62-4.536h-5.24zm-3.926-4.536h-5.24L25 24.244zm-11.786 0l2.62 4.536 2.617-4.536zm3.273 4.914h5.238l-2.62-4.536zm6.548 0h5.237l-2.62-4.536zM27.62 8.368h-5.24L25 12.904zm-5.894.378l-2.62 4.536h5.24zm9.166 4.536l-2.62-4.536-2.617 4.536zm-2.62 16.632l2.62-4.536h-5.237zm-9.165-4.536l2.62 4.536 2.618-4.536zm3.273 4.914h5.24L25 25.756zM25 35.584l2.62-4.536h-5.24zm-2.62 6.048h5.24L25 37.096z"/>
</svg>