<?xml version="1.0" encoding="UTF-8" standalone="yes"?>
<svg xmlns="http://www.w3.org/2000/svg" viewBox="0 0 50 50">
  <path d="M42.482 17.517H37.66l2.41 4.176zm-12.056 0h-4.822l2.41 4.176zm-11.454.348l-2.41 4.177h4.82zm6.028 0l-2.41 4.177h4.82zm14.468 4.873h-4.822l2.412 4.176zm-6.028 0h-4.823l2.412 4.176zm-6.03 0h-4.82L25 26.914zm-6.027 0H16.56l2.412 4.176zm-6.03 0h-4.82l2.41 4.176zm.605.348l-2.412 4.176h4.822zm6.028 0l-2.412 4.176h4.822zm6.03 0l-2.41 4.176h4.82zm6.027 0l-2.41 4.176h4.82zm2.41-16.01h-4.82l2.41 4.176zm.605.347L34.646 11.6h4.822zm2.41 4.873h-4.822l2.412 4.177zm-12.058 0h-4.82L25 16.473zm-12.056 0h-4.822l2.41 4.177zm-5.424.35L7.518 16.82h4.822zm6.028 0l-2.412 4.174h4.822zm12.057 0l-2.41 4.174h4.82zm12.055 0l-2.41 4.174h4.822zm-3.616 15.312h-4.822l2.41 4.177zm-6.028 0h-4.822l2.41 4.177zm-6.03 0h-4.822l2.412 4.177zm-6.028 0h-4.822l2.412 4.177zm-5.425.35l-2.41 4.175h4.82zm6.03 0l-2.41 4.175h4.82zm6.027 0l-2.41 4.175h4.82zm6.03 0l-2.413 4.175h4.822zm-3.62 4.872h-4.82L25 37.355zm-6.027 0H16.56l2.412 4.175zm6.632.347l-2.41 4.177h4.82zm2.41 4.873h-4.82l2.41 4.177zm-12.057 0h-4.822l2.412 4.177zm-6.028 0H7.518l2.412 4.177zm.603.348l-2.41 4.177h4.82zm12.057 0l-2.41 4.177h4.82z"/>
</svg>