<?xml version="1.0" encoding="UTF-8" standalone="yes"?>
<svg xmlns="http://www.w3.org/2000/svg" viewBox="0 0 50 50">
  <path d="M25.78 15.3l3.127 5.414 3.126-5.414zm-7.813 0l3.126 5.414L24.22 15.3zm17.973 5.865l-3.126-5.414-3.125 5.416zm-3.126 6.317l3.126-5.415h-6.25zm-4.688-18.95h-6.252L25 13.946zm-7.033.45l-3.126 5.415h6.252zm10.94 5.415l-3.126-5.414-3.126 5.414zM17.186 27.482l3.125-5.415h-6.25zm-3.908-4.962l-3.126 5.414h6.25zm3.125 6.316h-6.25l3.125 5.414zm-7.033.45L6.246 34.7h6.25zm7.816 11.732l3.125-5.414h-6.25zm-10.94-5.414l3.125 5.414 3.127-5.414zm3.906 5.866h6.25l-3.124-5.415zm26.57-7.22l3.126-5.414h-6.25zm7.033.45l-3.126-5.413-3.127 5.414zm-3.125 6.318l3.125-5.414h-6.25zm-10.94-5.414l3.124 5.414 3.126-5.414zm-7.816 0L25 41.018l3.126-5.414zm3.906 5.866h6.253l-3.126-5.415zm7.817 0h6.25l-3.125-5.415z"/>
</svg>