<?xml version="1.0" encoding="UTF-8" standalone="yes"?>
<svg xmlns="http://www.w3.org/2000/svg" viewBox="0 0 64 64">
  <path d="M19.45 37.222a1.002 1.002 0 0 0 1.72-.694V22.004l3.476 3.294v.715c-.023-.002-.04-.013-.063-.013a1 1 0 0 0-1 1v6.75a1 1 0 0 0 .268.68l14.42 15.5a.996.996 0 0 0 1.412.052c.013-.012.017-.027.03-.04l1.465 1.557c.19.2.452.313.727.313h10.772l4.803 4.493a1.005 1.005 0 0 0 1.413-.046 1 1 0 0 0-.047-1.414l-5.09-4.763a1 1 0 0 0-.684-.27h-.097L43.84 40.03h2.904l3.64 4.363a.998.998 0 0 0 1.41.127 1 1 0 0 0 .126-1.408l-3.94-4.723a1.002 1.002 0 0 0-.77-.36H31.226l-4.58-4.858v-8.306c0-.274-.112-.537-.31-.726L10.566 9.2a1 1 0 1 0-1.375 1.45l9.98 9.46v2.114l-10.403-9.65a.5.5 0 1 0-.68.734l11.083 10.28v1.26l-10.4-9.65a.5.5 0 1 0-.68.734L19.172 26.21v1.18L8.77 17.744a.5.5 0 1 0-.68.734l11.084 10.28v1.097L8.77 20.205a.5.5 0 1 0-.68.733l11.084 10.28v2.834L5.894 20.286a1 1 0 0 0-1.44 1.39l15 15.547zm23.022 2.808l9.133 9.783h-2.548l-9.133-9.783h2.548zm-3.916 0l9.133 9.783h-2.55l-9.13-9.783h2.548zm-3.916 0l9.133 9.783h-1.438L33.11 40.03h1.53z"/>
  <path d="M36.417 51.313a.5.5 0 0 0 .366-.84L22.366 34.97a.5.5 0 1 0-.732.682l14.417 15.5a.5.5 0 0 0 .368.16z"/>
</svg>