<?xml version="1.0" encoding="UTF-8" standalone="yes"?>
<svg xmlns="http://www.w3.org/2000/svg" viewBox="0 0 64 64">
  <path d="M7.623 61.58a.997.997 0 0 0 1.414-.04l18.79-19.908a1 1 0 0 0 .273-.686v-13.03a1 1 0 0 0-2 0v12.63L7.583 60.166a1 1 0 0 0 .04 1.416z"/>
  <path d="M12.215 61.215a.497.497 0 0 0 .707-.016l29.19-30.59a.5.5 0 0 0 .14-.344v-22.1l6.722-6.395a.5.5 0 1 0-.69-.723L41.408 7.59a.5.5 0 0 0-.155.363v22.113L12.2 60.51a.5.5 0 0 0 .015.705z"/>
  <path d="M30.77 23.946v14.316l3.168-3.13V20.814zm4.772 9.396l3.17-3.13v-14.32l-3.17 3.133zm2.12-20.555L25.247 24.25a.5.5 0 1 0 .678.735L38.34 13.52a.5.5 0 1 0-.678-.733zm-1.025-2.993L24.222 21.26a.5.5 0 1 0 .678.733L37.315 10.53a.5.5 0 0 0-.678-.736zm18.476 21.15H43.537a1 1 0 0 0-.73.317L20.83 54.75a1 1 0 1 0 1.46 1.367l21.68-23.17h11.144a1 1 0 0 0 0-2z"/>
  <path d="M55.113 34.46H44.04l-2.684 2.684H52.43zm-17.986 7.214H48.2l2.684-2.684H39.81zm20.347-6.986a.5.5 0 0 0-.706.012l-7.214 7.467a.5.5 0 1 0 .718.696l7.214-7.467a.502.502 0 0 0-.012-.708z"/>
</svg>