<?xml version="1.0" encoding="iso-8859-1"?>
<!-- Generator: Adobe Illustrator 17.0.2, SVG Export Plug-In . SVG Version: 6.00 Build 0)  -->
<!DOCTYPE svg PUBLIC "-//W3C//DTD SVG 1.1//EN" "http://www.w3.org/Graphics/SVG/1.1/DTD/svg11.dtd">
<svg version="1.1" id="Capa_1" xmlns="http://www.w3.org/2000/svg" xmlns:xlink="http://www.w3.org/1999/xlink" x="0px" y="0px"
	 width="64px" height="64px" viewBox="0 0 64 64" style="enable-background:new 0 0 64 64;" xml:space="preserve">
<g>
	<polygon points="27.022,14.789 23.402,11.168 23.402,16.337 24.612,17.549 24.612,15.642 25.449,16.477 25.449,23.695 
		21.802,27.344 21.802,34.927 23.929,37.054 25.746,35.236 25.746,41.741 27.604,39.882 29.54,37.947 29.54,54.211 25.94,57.813 
		25.94,58.859 30.16,54.637 30.16,37.018 27.022,33.881 	"/>
	<polygon points="28.958,44.995 28.958,41.587 28.958,40.348 25.879,43.426 26.828,44.376 27.875,43.33 27.875,52.508 
		24.255,56.129 24.255,61.338 25.512,60.078 25.512,57.156 28.958,53.709 	"/>
	<polygon points="27.527,45.062 25.667,47.249 25.667,49.108 27.527,46.921 	"/>
	<polygon points="25.667,51.433 27.527,49.246 27.527,47.387 25.667,49.573 	"/>
	<polygon points="25.667,53.833 27.527,51.646 27.527,49.788 25.667,51.973 	"/>
	<polygon points="30.625,15.013 23.594,9.248 29.734,15.388 29.731,31.709 31.853,33.83 31.853,56.972 32.745,33.457 30.625,31.337 
			"/>
	<polygon points="38.619,28.763 38.619,22.258 36.762,24.117 34.824,26.052 34.825,9.788 38.426,6.185 38.426,5.14 34.205,9.362 
		34.205,26.981 37.343,30.118 37.343,49.21 40.963,52.832 40.963,47.662 39.753,46.45 39.753,48.357 38.916,47.521 38.916,40.304 
		42.563,36.655 42.563,29.072 40.436,26.945 	"/>
	<polygon points="40.11,2.661 38.853,3.921 38.853,6.843 35.407,10.29 35.407,19.004 35.407,22.412 35.407,23.651 38.485,20.573 
		37.536,19.623 36.491,20.669 36.491,11.491 40.11,7.87 	"/>
	<polygon points="36.839,18.936 38.698,16.75 38.698,14.891 36.839,17.078 	"/>
	<polygon points="38.698,12.566 36.839,14.752 36.839,16.612 38.698,14.426 	"/>
	<polygon points="38.698,10.166 36.839,12.353 36.839,14.211 38.698,12.026 	"/>
	<polygon points="34.634,32.29 32.511,30.169 32.512,7.027 31.62,30.542 33.74,32.662 33.74,48.986 40.771,54.751 34.632,48.611 	
		"/>
</g>
</svg>
