<?xml version="1.0" encoding="iso-8859-1"?>
<!-- Generator: Adobe Illustrator 17.0.2, SVG Export Plug-In . SVG Version: 6.00 Build 0)  -->
<!DOCTYPE svg PUBLIC "-//W3C//DTD SVG 1.1//EN" "http://www.w3.org/Graphics/SVG/1.1/DTD/svg11.dtd">
<svg version="1.1" id="Capa_1" xmlns="http://www.w3.org/2000/svg" xmlns:xlink="http://www.w3.org/1999/xlink" x="0px" y="0px"
	 width="64px" height="64px" viewBox="0 0 64 64" style="enable-background:new 0 0 64 64;" xml:space="preserve">
<g>
	<path d="M43.947,27.938l6.096,0.003l4.121-4.121c0.436,0.211,0.904,0.331,1.377,0.331c0.809,0,1.625-0.312,2.242-0.93
		c0.617-0.621,0.928-1.431,0.928-2.241c0-0.811-0.31-1.622-0.928-2.243c-0.617-0.615-1.432-0.928-2.242-0.928
		c-0.809,0-1.623,0.312-2.24,0.928c-0.621,0.621-0.932,1.435-0.928,2.243c-0.004,0.512,0.137,1.017,0.383,1.48l-3.66,3.66h-5.812
		h-6.879l-2.486,2.488l0.457-1.71l4.711-2.721l4.356-2.514l1.244-4.644c0.398-0.029,0.783-0.137,1.121-0.332
		c0.578-0.333,1.033-0.893,1.219-1.59c0.185-0.697,0.072-1.404-0.262-1.983s-0.891-1.032-1.588-1.22
		c-0.695-0.186-1.406-0.072-1.984,0.262c-0.578,0.334-1.033,0.893-1.219,1.588c-0.188,0.699-0.074,1.409,0.262,1.985
		c0.209,0.366,0.518,0.67,0.885,0.899l-1.105,4.125l-4.154,2.398l-4.914,2.838l-0.566,2.119l-0.803-2.993l3.438-5.956l3.182-5.507
		l-1.574-5.872c0.418-0.284,0.771-0.644,1.018-1.072c0.422-0.729,0.566-1.63,0.328-2.511c-0.236-0.882-0.807-1.583-1.541-2.007
		c-0.73-0.424-1.627-0.566-2.508-0.332c-0.879,0.237-1.586,0.809-2.008,1.541c-0.422,0.732-0.566,1.631-0.332,2.51
		c0.238,0.883,0.811,1.59,1.543,2.008c0.461,0.27,0.99,0.406,1.537,0.426l1.398,5.216l-3.033,5.252l-3.586,6.213l0.969,3.616
		l-1.193-1.193v-5.439v-5.029l-3.4-3.4c0.174-0.359,0.273-0.746,0.273-1.137c0-0.668-0.256-1.34-0.768-1.85
		c-0.51-0.51-1.18-0.766-1.848-0.766c-0.668,0-1.34,0.256-1.852,0.766c-0.508,0.51-0.766,1.182-0.766,1.85
		c0,0.668,0.258,1.34,0.766,1.85c0.512,0.51,1.184,0.768,1.852,0.766c0.422,0.002,0.838-0.113,1.221-0.316l3.019,3.019v4.797v5.674
		l1.594,1.594l-2.859-0.766l-3.338-5.782l-3.086-5.346l-5.701-1.528c-0.035-0.487-0.168-0.96-0.408-1.375
		c-0.408-0.709-1.094-1.268-1.949-1.495c-0.854-0.228-1.723-0.09-2.434,0.321c-0.711,0.409-1.266,1.093-1.498,1.948
		c-0.229,0.854-0.088,1.727,0.322,2.436c0.41,0.71,1.094,1.268,1.947,1.496c0.857,0.228,1.729,0.091,2.438-0.321
		c0.449-0.257,0.822-0.635,1.104-1.086l5.062,1.357l2.945,5.099l3.48,6.03l3.463,0.928l-1.688,0.452l-4.709-2.721l-4.355-2.514
		l-4.647,1.244c-0.223-0.33-0.508-0.609-0.848-0.805c-0.578-0.334-1.287-0.449-1.984-0.261c-0.695,0.188-1.254,0.639-1.588,1.218
		c-0.332,0.578-0.447,1.287-0.262,1.986c0.185,0.694,0.641,1.253,1.219,1.587c0.578,0.333,1.289,0.448,1.984,0.262
		c0.697-0.189,1.256-0.64,1.59-1.22c0.211-0.364,0.32-0.783,0.334-1.215l4.127-1.105l4.154,2.398l4.914,2.836l2.201-0.59
		l-2.055,2.055l-6.592-0.003l-6.094,0.003l-4.123,4.119c-0.435-0.21-0.904-0.331-1.377-0.33c-0.809,0-1.625,0.308-2.242,0.928
		c-0.617,0.619-0.928,1.431-0.928,2.241c0,0.809,0.31,1.622,0.928,2.244c0.615,0.616,1.434,0.927,2.242,0.927
		s1.625-0.31,2.242-0.928c0.617-0.621,0.93-1.433,0.928-2.243c0.002-0.511-0.137-1.017-0.385-1.479l3.662-3.662h5.814h6.875
		l2.488-2.488l-0.459,1.711l-4.711,2.718l-4.355,2.516l-1.244,4.646c-0.398,0.028-0.783,0.136-1.121,0.331
		c-0.578,0.334-1.033,0.891-1.219,1.588c-0.185,0.697-0.074,1.406,0.262,1.984c0.334,0.578,0.891,1.031,1.588,1.221
		c0.695,0.186,1.406,0.071,1.984-0.263c0.578-0.333,1.033-0.892,1.219-1.588c0.185-0.698,0.074-1.407-0.262-1.985
		c-0.209-0.365-0.518-0.67-0.885-0.897l1.105-4.128l4.154-2.398l4.914-2.836l0.568-2.119l0.801,2.994l-3.439,5.953l-3.178,5.508
		l1.572,5.874c-0.416,0.282-0.77,0.643-1.018,1.071c-0.422,0.732-0.568,1.628-0.33,2.509c0.236,0.881,0.807,1.586,1.541,2.007
		c0.73,0.424,1.627,0.566,2.512,0.332c0.877-0.234,1.584-0.81,2.006-1.541c0.422-0.731,0.566-1.63,0.33-2.509
		c-0.238-0.882-0.809-1.588-1.541-2.009c-0.459-0.268-0.99-0.406-1.537-0.424l-1.398-5.218l3.033-5.252l3.586-6.212l-0.967-3.61
		l1.191,1.19v5.44v5.029l3.398,3.4c-0.174,0.359-0.271,0.746-0.271,1.137c0,0.668,0.256,1.34,0.766,1.85
		c0.512,0.51,1.18,0.766,1.85,0.766c0.668,0,1.338-0.256,1.85-0.766c0.51-0.51,0.766-1.182,0.766-1.85
		c0-0.668-0.256-1.34-0.766-1.85c-0.512-0.51-1.182-0.768-1.85-0.766c-0.422-0.002-0.84,0.113-1.221,0.317l-3.022-3.02v-4.797
		v-5.674l-1.594-1.595l2.859,0.767l3.34,5.782l3.086,5.346l5.699,1.527c0.037,0.488,0.168,0.961,0.408,1.376
		c0.41,0.709,1.096,1.267,1.951,1.495c0.856,0.228,1.723,0.089,2.434-0.321c0.711-0.409,1.266-1.093,1.498-1.948
		c0.227-0.854,0.088-1.727-0.322-2.435c-0.41-0.711-1.096-1.268-1.947-1.497c-0.857-0.228-1.728-0.09-2.438,0.322
		c-0.449,0.257-0.822,0.635-1.103,1.086l-5.062-1.356l-2.945-5.099l-3.481-6.031l-3.463-0.927l1.686-0.452l4.713,2.719l4.354,2.516
		l4.644-1.244c0.225,0.33,0.51,0.609,0.848,0.805c0.578,0.333,1.289,0.447,1.986,0.26c0.697-0.188,1.252-0.639,1.588-1.218
		c0.334-0.579,0.447-1.287,0.262-1.985c-0.188-0.695-0.641-1.254-1.219-1.588c-0.578-0.334-1.289-0.447-1.984-0.262
		c-0.699,0.188-1.258,0.641-1.588,1.22c-0.213,0.364-0.322,0.783-0.338,1.216L46.57,34.64l-4.154-2.398l-4.914-2.838l-2.199,0.59
		l2.053-2.052L43.947,27.938z M13.565,17.287c-0.18,0.671-0.613,1.205-1.172,1.528c-0.559,0.322-1.238,0.43-1.91,0.25
		c-0.674-0.18-1.207-0.615-1.529-1.173c-0.324-0.558-0.432-1.237-0.252-1.912c0.182-0.671,0.615-1.205,1.174-1.527
		c0.56-0.323,1.236-0.432,1.908-0.251c0.674,0.181,1.207,0.615,1.531,1.172C13.635,15.934,13.746,16.612,13.565,17.287z
		 M13.018,30.688c-0.262,0.455-0.697,0.809-1.246,0.955c-0.549,0.148-1.103,0.059-1.557-0.205c-0.455-0.262-0.808-0.696-0.957-1.246
		c-0.145-0.547-0.057-1.101,0.207-1.556c0.262-0.456,0.695-0.809,1.242-0.955c0.551-0.146,1.104-0.058,1.559,0.204
		c0.455,0.264,0.809,0.697,0.955,1.247C13.367,29.68,13.281,30.233,13.018,30.688z M50.973,46.002
		c0.18-0.671,0.613-1.205,1.172-1.529c0.559-0.321,1.238-0.429,1.91-0.249c0.674,0.18,1.207,0.613,1.531,1.172
		c0.32,0.559,0.43,1.237,0.25,1.913c-0.182,0.671-0.615,1.203-1.174,1.527c-0.561,0.322-1.236,0.432-1.908,0.251
		c-0.674-0.182-1.207-0.615-1.529-1.173C50.902,47.354,50.791,46.677,50.973,46.002z M51.519,32.599
		c0.264-0.453,0.699-0.807,1.246-0.953c0.549-0.148,1.102-0.06,1.557,0.203c0.455,0.264,0.809,0.697,0.957,1.248
		c0.146,0.547,0.057,1.1-0.207,1.555c-0.262,0.455-0.695,0.809-1.242,0.955c-0.551,0.146-1.104,0.057-1.559-0.205
		c-0.455-0.264-0.809-0.696-0.955-1.246C51.17,33.608,51.256,33.055,51.519,32.599z M53.783,19.223
		c0.488-0.487,1.121-0.729,1.758-0.729c0.637,0,1.271,0.241,1.76,0.729c0.484,0.487,0.727,1.121,0.727,1.759
		c0,0.637-0.242,1.271-0.727,1.756c-0.488,0.486-1.123,0.727-1.76,0.727c-0.637,0-1.27-0.24-1.758-0.727
		c-0.486-0.485-0.729-1.119-0.731-1.758C53.055,20.345,53.297,19.71,53.783,19.223z M42.721,15.448
		c-0.262-0.453-0.35-1.008-0.203-1.557c0.146-0.549,0.5-0.982,0.955-1.245c0.455-0.263,1.008-0.353,1.559-0.206
		c0.547,0.148,0.98,0.502,1.244,0.958c0.264,0.454,0.352,1.007,0.205,1.554c-0.148,0.549-0.502,0.983-0.957,1.246
		c-0.455,0.263-1.006,0.353-1.557,0.205C43.42,16.257,42.984,15.905,42.721,15.448z M33.43,26.365l4.713-2.722l4.355-2.516
		l1.139-4.25c0.062,0.023,0.121,0.054,0.186,0.072c0.096,0.023,0.189,0.031,0.285,0.045l-1.152,4.3l-4.15,2.396l-4.916,2.836
		l-0.771,2.882l-0.309,0.31L32.67,29.2L33.43,26.365z M33.475,7.303c-0.572-0.331-1.02-0.883-1.207-1.575
		c-0.186-0.694-0.072-1.393,0.26-1.968c0.332-0.576,0.881-1.022,1.576-1.21c0.693-0.185,1.393-0.072,1.967,0.262
		c0.576,0.33,1.023,0.88,1.207,1.571c0.186,0.695,0.072,1.394-0.258,1.97c-0.334,0.575-0.881,1.023-1.576,1.208
		C34.752,7.746,34.053,7.637,33.475,7.303z M30.203,25.13l3.44-5.959l3.18-5.508l-1.441-5.375c0.084-0.012,0.168-0.018,0.25-0.037
		c0.119-0.034,0.227-0.086,0.342-0.131l1.455,5.436l-3.031,5.247l-3.588,6.213l1.199,4.475l-0.158,0.595l-0.436-0.436L30.203,25.13z
		 M23.471,14.495c-0.525,0-1.049-0.201-1.451-0.602c-0.402-0.402-0.601-0.926-0.601-1.451s0.199-1.049,0.601-1.451
		c0.402-0.4,0.926-0.6,1.451-0.6s1.049,0.199,1.449,0.6c0.4,0.402,0.6,0.926,0.602,1.451c-0.002,0.525-0.199,1.049-0.602,1.451
		C24.519,14.294,23.996,14.495,23.471,14.495z M28.277,27.999v-5.441v-5.029l-3.111-3.111c0.051-0.043,0.105-0.078,0.154-0.125
		c0.068-0.07,0.121-0.148,0.182-0.225l3.146,3.146v4.795v5.674l2.049,2.048l0.135,0.504l-0.438-0.117L28.277,27.999z M25.789,30.22
		l-3.34-5.784l-3.086-5.346l-5.215-1.397c0.025-0.077,0.065-0.149,0.086-0.229c0.031-0.117,0.039-0.232,0.057-0.35l5.275,1.412
		l2.939,5.099l3.484,6.03l4.293,1.148l0.424,0.424l-0.578,0.154L25.789,30.22z M27.115,33.278l-4.713-2.721l-4.354-2.516
		l-4.25,1.139c-0.014-0.064-0.016-0.131-0.033-0.195c-0.025-0.096-0.066-0.18-0.102-0.27l4.297-1.153l4.152,2.399l4.914,2.836
		l2.854-0.766l0.486,0.13l-0.334,0.335L27.115,33.278z M10.756,44.065c-0.486,0.487-1.123,0.729-1.76,0.727
		c-0.637,0.001-1.271-0.24-1.758-0.727c-0.486-0.485-0.729-1.121-0.729-1.758c0-0.638,0.242-1.271,0.729-1.756
		c0.486-0.487,1.121-0.729,1.758-0.732c0.637,0.003,1.271,0.243,1.76,0.732c0.484,0.485,0.729,1.119,0.729,1.756
		C11.484,42.943,11.24,43.579,10.756,44.065z M27.852,36.482h-6.596l-6.096-0.003l-3.771,3.771c-0.051-0.06-0.094-0.128-0.152-0.186
		c-0.084-0.085-0.178-0.148-0.269-0.222l3.81-3.814l5.812,0.002l6.877-0.002l3.088-3.09l0.572-0.153l-0.152,0.57L27.852,36.482z
		 M21.816,47.837c0.262,0.455,0.35,1.01,0.203,1.557c-0.146,0.549-0.502,0.985-0.957,1.246c-0.453,0.264-1.006,0.353-1.557,0.205
		c-0.547-0.146-0.98-0.501-1.244-0.956c-0.264-0.456-0.352-1.007-0.205-1.554c0.148-0.55,0.502-0.984,0.955-1.248
		c0.457-0.262,1.008-0.352,1.559-0.203C21.117,47.03,21.553,47.382,21.816,47.837z M31.107,36.923l-4.713,2.721l-4.355,2.514
		l-1.139,4.25c-0.062-0.021-0.121-0.053-0.186-0.069c-0.096-0.026-0.189-0.032-0.285-0.048l1.15-4.297l4.154-2.396l4.912-2.838
		l0.772-2.877l0.31-0.311l0.139,0.517L31.107,36.923z M32.469,31.843l-0.164,0.044l0.002,0.001l-0.111,0.029l-0.119-0.119v0.001
		l-0.08-0.079l0.045-0.166h-0.002l0.029-0.108l0.164-0.044H32.23l0.109-0.029l0.119,0.119l0.002-0.001l0.078,0.079l-0.043,0.162
		l0.002,0.002L32.469,31.843z M31.06,55.982c0.574,0.332,1.021,0.884,1.207,1.575c0.188,0.694,0.072,1.396-0.26,1.97
		c-0.33,0.575-0.881,1.023-1.574,1.208c-0.691,0.185-1.393,0.072-1.967-0.26c-0.578-0.332-1.021-0.881-1.207-1.572
		c-0.186-0.695-0.074-1.395,0.258-1.971c0.332-0.575,0.879-1.022,1.576-1.207C29.785,55.54,30.484,55.65,31.06,55.982z
		 M34.334,38.158l-3.44,5.959l-3.18,5.504l1.44,5.375c-0.082,0.016-0.166,0.018-0.248,0.04c-0.121,0.032-0.227,0.084-0.342,0.129
		l-1.457-5.433l3.035-5.25l3.584-6.213l-1.199-4.469l0.16-0.596l0.438,0.438L34.334,38.158z M41.066,48.794
		c0.525,0,1.049,0.201,1.449,0.602c0.402,0.402,0.602,0.926,0.602,1.451s-0.199,1.049-0.602,1.451c-0.4,0.4-0.924,0.6-1.449,0.6
		c-0.527,0-1.049-0.199-1.449-0.6c-0.402-0.402-0.602-0.926-0.602-1.451s0.199-1.049,0.602-1.451
		C40.018,48.995,40.541,48.794,41.066,48.794z M36.26,35.29v5.441v5.029l3.111,3.111c-0.051,0.043-0.107,0.078-0.154,0.125
		c-0.07,0.07-0.123,0.148-0.184,0.225l-3.147-3.146l0.002-4.795v-5.674l-2.047-2.045l-0.137-0.507l0.435,0.116L36.26,35.29z
		 M38.748,33.069l3.338,5.784l3.088,5.346l5.217,1.398c-0.029,0.077-0.066,0.149-0.09,0.229c-0.029,0.117-0.037,0.232-0.055,0.35
		l-5.275-1.413l-2.941-5.098l-3.482-6.03l-4.295-1.149l-0.424-0.423l0.58-0.154L38.748,33.069z M37.42,30.011l4.713,2.721
		l4.357,2.514l4.25-1.139c0.01,0.067,0.014,0.132,0.029,0.197c0.027,0.095,0.068,0.18,0.104,0.269l-4.299,1.152l-4.15-2.398
		L37.51,30.49l-2.855,0.767l-0.484-0.13l0.334-0.335L37.42,30.011z M33.982,30.348l-0.572,0.153l0.152-0.57l3.123-3.123h6.598
		l6.094-0.003l3.771-3.771c0.053,0.063,0.096,0.13,0.152,0.189c0.084,0.083,0.18,0.146,0.271,0.22l-3.814,3.815l-5.811-0.002
		l-6.877-0.001L33.982,30.348z"/>
</g>
</svg>
