<?xml version="1.0" encoding="UTF-8" standalone="yes"?>
<svg xmlns="http://www.w3.org/2000/svg" viewBox="0 0 64 64">
  <path d="M56.04 5.43L7.32 40.92a.5.5 0 0 0-.19.53l2.443 9.325a.5.5 0 0 0 .484.373h30.606a.5.5 0 0 0 0-1h-30.22l-2.257-8.62L56.63 6.238a.5.5 0 0 0 .11-.7.5.5 0 0 0-.7-.11z"/>
  <path d="M49.693 14.06a1 1 0 0 0-1.397-.22L10.978 41.025a.998.998 0 0 0-.383 1.042l1.558 6.462a1 1 0 0 0 .972.764H38.88a1 1 0 0 0 0-2H13.914l-1.217-5.047 36.778-26.793a.998.998 0 0 0 .22-1.396z"/>
  <path d="M7.557 55.022h10.05a2.124 2.124 0 0 0 1.873 1.134c.815 0 1.515-.462 1.874-1.134h13.918c.36.672 1.06 1.134 1.874 1.134s1.515-.462 1.874-1.134h3.472a1 1 0 0 0 0-2H39.02c-.36-.672-1.06-1.134-1.874-1.134s-1.515.462-1.874 1.134H21.354a2.124 2.124 0 0 0-1.874-1.134c-.815 0-1.515.462-1.874 1.134H8.292L4.368 40.48l2.64-1.943c.194.057.395.098.607.098a2.13 2.13 0 0 0 2.13-2.11l6.032-4.436c.163.04.33.064.504.064 1.133 0 2.05-.883 2.12-1.996l3.026-2.225a1 1 0 1 0-1.185-1.61l-2.7 1.983a2.117 2.117 0 0 0-1.26-.42c-1.18 0-2.133.955-2.133 2.134 0 .244.05.474.125.69L8.81 34.73a2.133 2.133 0 0 0-3.33 1.77c0 .21.04.41.098.604l-2.97 2.184a1 1 0 0 0-.362 1.104L6.602 54.32a1 1 0 0 0 .955.702z"/>
  <path d="M31.232 30.943l-3.262 2.315a1 1 0 1 0 1.157 1.63l3.262-2.315a1 1 0 1 0-1.16-1.63zm-6.524 4.63l-3.262 2.315a1 1 0 1 0 1.157 1.63l3.262-2.315a1 1 0 1 0-1.157-1.63zm-6.524 4.63l-3.262 2.315a1 1 0 1 0 1.157 1.63l3.26-2.315a1 1 0 1 0-1.157-1.63zm19.57-13.888l-3.26 2.314a1 1 0 1 0 1.157 1.63l3.263-2.316a1 1 0 1 0-1.157-1.63zm17.053 28.207a.5.5 0 0 0 0-1h-.63a.5.5 0 0 0 0 1h.63zm-4.63-1h-4a.5.5 0 0 0 0 1h4a.5.5 0 0 0 0-1z"/>
</svg>