<?xml version="1.0" encoding="UTF-8" standalone="yes"?>
<svg xmlns="http://www.w3.org/2000/svg" viewBox="0 0 64 64">
  <path d="M11.105 53.877a.997.997 0 0 0 1.414 0l17.457-17.46a1 1 0 0 0 0-1.413c-.06-.062-.136-.096-.207-.138v-6.984L47.62 9.245a.5.5 0 1 0-.723-.69L28.91 27.335a.5.5 0 0 0-.14.345v7.186c-.07.042-.145.076-.206.138l-17.46 17.46a1 1 0 0 0 0 1.413zm17.02-27.375a.5.5 0 0 0 .36-.154l17.99-18.783a.5.5 0 1 0-.723-.69l-17.988 18.78a.5.5 0 0 0 .36.847zM44.89 5.238a.5.5 0 0 0-.708.016L26.194 24.037a.5.5 0 1 0 .723.692L44.905 5.943a.5.5 0 0 0-.016-.707zM42.867 3.45l-17.99 18.783a.5.5 0 1 0 .724.692L43.59 4.143a.5.5 0 1 0-.723-.692zM18.71 60.09l2.14-2.103a.5.5 0 1 0-.7-.713l-2.14 2.102a.5.5 0 1 0 .7.713zm8.564-8.406l2.14-2.102a.5.5 0 1 0-.7-.713l-2.14 2.1a.5.5 0 0 0 .7.713zm8.564-8.407l1.88-1.846a.5.5 0 1 0-.7-.71l-1.88 1.845a.5.5 0 1 0 .7.713zm-12.846 12.61l2.14-2.103a.5.5 0 0 0-.7-.713l-2.14 2.104a.5.5 0 0 0 .7.713zm8.564-8.407l2.14-2.102a.5.5 0 1 0-.7-.713l-2.14 2.102a.5.5 0 1 0 .7.713zm28.04-28.922a.502.502 0 0 0-.708.003l-18.48 18.66a.5.5 0 0 0 .712.704L59.6 19.266a.502.502 0 0 0-.004-.708zM13.59 55.52a.5.5 0 0 0 .355-.148L31.34 37.906a.5.5 0 0 0-.71-.705L13.238 54.67a.5.5 0 0 0 .354.852zm39.672-40.587l-7.225 7.255a.502.502 0 0 0 .354.853c.13 0 .26-.047.356-.145l7.225-7.255a.5.5 0 0 0-.707-.707zm3.28.835L15.455 57.044a1 1 0 0 0 1.417 1.41L57.958 17.18a1 1 0 1 0-1.416-1.412zm-21.237 19.26l.583-2.163-.185-.19-2.184.49-1.685 1.615 1.824.038-.038 1.824zm4.64-4.626l.582-2.162-.185-.193-2.184.493-1.682 1.614 1.823.038-.04 1.824zm4.24-4.45l.584-2.162-.187-.192-2.184.492-1.684 1.614 1.824.038-.037 1.824z"/>
</svg>