<svg xmlns="http://www.w3.org/2000/svg" width="64" height="64" viewBox="0 0 64 64"><path d="M58.095 7.843a.285.285 0 0 0 .29-.28l.067-3.02a.285.285 0 0 0-.57-.013l-.064 3.02a.28.28 0 0 0 .074.2.28.28 0 0 0 .203.093zM57.315 8.546l.065-3.023a.285.285 0 1 0-.57-.012l-.064 3.022a.278.278 0 0 0 .074.2.286.286 0 0 0 .495-.186zM56.242 9.528l.065-3.022a.285.285 0 0 0-.57-.014l-.064 3.022a.282.282 0 0 0 .278.29.283.283 0 0 0 .292-.276zM55.17 10.51l.066-3.023a.284.284 0 0 0-.57-.012l-.064 3.022a.283.283 0 0 0 .28.29.286.286 0 0 0 .29-.278zM54.1 11.49l.064-3.02a.284.284 0 1 0-.568-.013l-.065 3.02c0 .078.027.147.075.2a.28.28 0 0 0 .204.092.286.286 0 0 0 .29-.28zM53.026 12.472l.066-3.022a.285.285 0 0 0-.57-.012l-.064 3.02a.274.274 0 0 0 .074.2.284.284 0 0 0 .494-.186zM51.955 13.454l.065-3.022a.285.285 0 0 0-.57-.013l-.065 3.02a.274.274 0 0 0 .074.2c.05.055.122.09.202.09.16.006.288-.12.293-.276zM19.613 55.228l-.065 3.022a.284.284 0 0 0 .28.292.285.285 0 0 0 .29-.278l.065-3.022a.285.285 0 1 0-.57-.014zM20.684 54.247l-.065 3.022a.28.28 0 0 0 .074.197.286.286 0 0 0 .495-.185l.065-3.022a.285.285 0 0 0-.57-.013zM22.262 56.3l.064-3.022a.285.285 0 1 0-.57-.013l-.064 3.023c0 .075.027.146.075.197a.285.285 0 0 0 .495-.185zM23.333 55.318l.064-3.02a.285.285 0 0 0-.278-.292.283.283 0 0 0-.29.278l-.067 3.022c0 .076.028.146.076.197a.284.284 0 0 0 .494-.185zM24.405 54.337l.065-3.022a.285.285 0 1 0-.57-.013l-.066 3.023a.29.29 0 0 0 .28.29.286.286 0 0 0 .29-.278zM25.477 53.355l.066-3.022a.286.286 0 0 0-.57-.012l-.065 3.022a.28.28 0 0 0 .277.292c.158.004.29-.12.292-.28zM26.548 52.374l.066-3.022a.286.286 0 0 0-.57-.012l-.066 3.02a.28.28 0 0 0 .075.2.285.285 0 0 0 .495-.186zM50.884 14.435l.064-3.022a.286.286 0 1 0-.57-.012l-.064 3.022a.284.284 0 0 0 .57.012zM49.81 15.417l.066-3.02a.283.283 0 0 0-.28-.292.284.284 0 0 0-.29.278l-.064 3.02a.29.29 0 0 0 .074.2.286.286 0 0 0 .495-.186zM48.74 16.4l.063-3.023a.283.283 0 0 0-.278-.29.282.282 0 0 0-.29.277l-.067 3.022c0 .076.027.146.074.198.05.056.124.09.205.092a.284.284 0 0 0 .292-.277zM47.667 17.38l.065-3.022a.285.285 0 0 0-.57-.014l-.065 3.023a.285.285 0 0 0 .57.013zM46.596 18.362l.065-3.022a.285.285 0 0 0-.57-.012l-.064 3.022a.283.283 0 0 0 .28.29.285.285 0 0 0 .29-.278zM45.523 19.343l.066-3.022a.286.286 0 0 0-.572-.01l-.065 3.02a.285.285 0 1 0 .57.013zM44.45 20.325l.067-3.023a.286.286 0 0 0-.57-.01l-.066 3.02a.287.287 0 0 0 .28.29.285.285 0 0 0 .29-.277zM43.38 21.307l.065-3.022a.284.284 0 0 0-.278-.29.286.286 0 0 0-.292.278l-.065 3.022a.285.285 0 0 0 .57.012zM42.308 22.288l.065-3.02a.285.285 0 0 0-.57-.014l-.066 3.022a.283.283 0 0 0 .28.29.286.286 0 0 0 .29-.278zM41.235 23.27l.065-3.02a.285.285 0 0 0-.57-.015l-.066 3.022c0 .076.027.147.075.2a.28.28 0 0 0 .203.09c.16.005.29-.12.292-.277zM40.164 24.252l.066-3.023a.286.286 0 0 0-.57-.013l-.066 3.02a.285.285 0 0 0 .28.292.283.283 0 0 0 .29-.278zM39.092 25.233l.065-3.023a.286.286 0 0 0-.57-.012l-.065 3.022a.282.282 0 0 0 .278.29.285.285 0 0 0 .292-.277zM38.02 26.215l.065-3.022a.286.286 0 0 0-.57-.012l-.065 3.022a.28.28 0 0 0 .074.2.287.287 0 0 0 .496-.187zM36.948 27.196l.065-3.02a.285.285 0 0 0-.57-.014l-.064 3.02a.287.287 0 0 0 .28.292.285.285 0 0 0 .288-.278z"/><path d="M35.056 23.61l-1.588 12.645c-.01.085.02.168.073.227.046.05.106.082.176.09.156.02.3-.09.318-.247l1.575-12.542L57.5 3.736a.285.285 0 1 0-.385-.42l-21.97 20.118a.276.276 0 0 0-.09.175zM8.87 59.46l21.97-20.117a.85.85 0 0 0 .27-.524l1.588-12.647A.854.854 0 1 0 31 25.96l-1.547 12.334L7.716 58.2a.854.854 0 0 0 1.155 1.26zM52.42 35.036a.286.286 0 0 0-.296-.274l-12.736.47a.294.294 0 0 0-.182.075l-21.97 20.118a.285.285 0 1 0 .385.42l21.89-20.047 12.632-.466c.16-.007.28-.14.275-.296z"/><path d="M59.47 8.112L36.767 28.904l-.993 6.51 22.704-20.79zM39.73 37.233L28.374 47.635l-.15 5.74L39.58 42.974z"/></svg>