<?xml version="1.0" encoding="UTF-8" standalone="yes"?>
<svg xmlns="http://www.w3.org/2000/svg" viewBox="0 0 64 64">
  <path d="M36.81 6.882l-5.853-3.12v30.634l1.756.936v-17.82l4.097-3.032z"/>
  <path d="M39.25 14.933l-4.878 3.61v28l4.878-3.61zM32.416 60.41a.5.5 0 0 0 .5-.5V38.675l-3.333-3.893V4.695l-3.49-3.297a.5.5 0 0 0-.686.726l3.177 3.002v30.026l3.333 3.893V59.91a.5.5 0 0 0 .5.5zm-8.236-4.97a.5.5 0 1 0-.69.724l3.83 3.666a.5.5 0 0 0 .692-.722L24.18 55.44zm3.832 1.117L24.18 52.89a.5.5 0 0 0-.69.724l3.83 3.666a.5.5 0 0 0 .692-.723zm0-2.55L24.18 50.34a.5.5 0 0 0-.69.723l3.83 3.666a.5.5 0 0 0 .692-.725zm0-2.552L24.18 47.79a.5.5 0 0 0-.69.723l3.83 3.665a.5.5 0 0 0 .692-.723zm0-2.55l-3.832-3.667a.5.5 0 0 0-.69.723l3.83 3.668a.5.5 0 0 0 .692-.723zm0-2.552l-3.832-3.666a.5.5 0 0 0-.69.723l3.83 3.666a.5.5 0 0 0 .692-.723zm0-2.55l-3.832-3.666a.5.5 0 0 0-.69.723l3.83 3.666a.5.5 0 0 0 .692-.723zm0-2.55l-3.832-3.667a.5.5 0 0 0-.69.723l3.83 3.664a.5.5 0 0 0 .692-.723zm0-2.553l-3.832-3.665a.5.5 0 1 0-.69.723l3.83 3.666a.5.5 0 0 0 .692-.723zm0-2.55l-3.832-3.666a.5.5 0 0 0-.69.723l3.83 3.666a.5.5 0 0 0 .692-.723zm0-2.55l-3.832-3.667a.5.5 0 0 0-.69.723l3.83 3.667a.5.5 0 0 0 .692-.723zm0-2.552l-3.832-3.666a.5.5 0 0 0-.69.723l3.83 3.666a.5.5 0 0 0 .692-.72z"/>
  <path d="M28.012 28.498l-3.832-3.666a.5.5 0 0 0-.69.723l3.83 3.666a.5.5 0 0 0 .692-.72zm0-2.55L24.18 22.28a.5.5 0 0 0-.69.723l3.83 3.667a.5.5 0 0 0 .692-.723zm0-2.552L24.18 19.73a.5.5 0 0 0-.69.723l3.83 3.666a.5.5 0 0 0 .692-.725zm0-2.55L24.18 17.18a.5.5 0 0 0-.69.722l3.83 3.666a.5.5 0 0 0 .692-.723zm0-2.552l-3.832-3.666a.5.5 0 0 0-.69.723l3.83 3.668a.5.5 0 0 0 .692-.723zm0-2.55l-3.832-3.666a.5.5 0 0 0-.69.723l3.83 3.667a.5.5 0 0 0 .692-.723zm0-2.55L24.18 9.526a.5.5 0 0 0-.69.723l3.83 3.666a.5.5 0 0 0 .692-.723zm0-2.552L24.18 6.976a.5.5 0 0 0-.69.723l3.83 3.664a.5.5 0 0 0 .692-.723zm0-2.552L24.18 4.426a.5.5 0 0 0-.69.723l3.83 3.665a.5.5 0 0 0 .692-.723z"/>
</svg>