<svg xmlns="http://www.w3.org/2000/svg" width="64" height="64" viewBox="0 0 64 64"><path d="M34.835 45.956c0 .133.053.26.146.354l7.9 7.897a.498.498 0 0 0 .706 0 .5.5 0 0 0 0-.707l-7.75-7.75-.002-26.874a.504.504 0 0 0-.146-.354L21.27 4.105a.5.5 0 0 0-.707.707l14.27 14.27.002 26.874z"/><path d="M23.174 58.617c.128 0 .256-.05.353-.146l9.905-9.903a.5.5 0 0 0 .146-.354l-.002-27.08a.5.5 0 0 0-1 0l.002 26.873-9.758 9.758a.5.5 0 0 0 .354.853z"/><path d="M15.526 62.252a.5.5 0 0 0 .354-.147l14.92-14.92a.5.5 0 0 0 .146-.354V23.94a2.16 2.16 0 0 0 .492-1.366 2.17 2.17 0 0 0-.64-1.545c-.825-.825-2.263-.824-3.09 0a2.188 2.188 0 0 0 1.545 3.73c.24 0 .47-.05.69-.122l.002 21.987-14.772 14.773a.5.5 0 0 0 .353.854zm12.89-38.84a1.187 1.187 0 0 1 0-1.676c.224-.224.52-.347.838-.347.316 0 .614.122.837.346.225.224.348.522.348.838 0 .316-.123.613-.347.837-.446.45-1.226.45-1.674 0zM45.518 52.2c.413.413.96.64 1.544.64a2.17 2.17 0 0 0 1.544-.64 2.188 2.188 0 0 0 0-3.09c-.704-.702-1.85-.8-2.686-.304l-7.57-7.57-.003-26.874a.498.498 0 0 0-.154-.36L27.873 4.1a.5.5 0 1 0-.69.72l10.165 9.756.002 26.867c0 .133.053.26.146.354l7.714 7.714c-.52.842-.42 1.963.308 2.69zm.707-2.382c.223-.223.52-.346.837-.346s.614.123.837.346a1.187 1.187 0 0 1 0 1.676c-.448.448-1.228.447-1.676 0a1.19 1.19 0 0 1 0-1.676z"/><path d="M15.975 58.56c.583 0 1.132-.228 1.544-.64.728-.73.828-1.85.308-2.692l9.614-9.613a.5.5 0 0 0 .146-.353l.04-13.97c.387-.407.604-.936.604-1.5 0-.583-.227-1.132-.64-1.545-.824-.824-2.264-.824-3.09 0a2.188 2.188 0 0 0 1.546 3.73c.2 0 .392-.036.58-.087l-.04 13.163-9.472 9.472c-.835-.496-1.982-.398-2.687.305a2.19 2.19 0 0 0 0 3.09c.413.412.96.64 1.545.64zm9.235-27.93a1.187 1.187 0 0 1 0-1.676c.224-.224.52-.347.838-.347.316 0 .614.123.837.347.224.224.347.52.347.838s-.123.613-.347.837c-.447.45-1.226.448-1.675 0zM15.137 55.535c.223-.223.52-.346.837-.346s.614.123.837.346a1.187 1.187 0 0 1 0 1.676 1.213 1.213 0 0 1-1.674 0 1.188 1.188 0 0 1 0-1.676z"/><path d="M15.975 52.34l7.534-7.855V33.923l-7.535 8.082zM47.062 22.606l-7.2-8.3v25.32l7.2 7.122z"/></svg>