<?xml version="1.0" encoding="iso-8859-1"?>
<!-- Generator: Adobe Illustrator 17.0.2, SVG Export Plug-In . SVG Version: 6.00 Build 0)  -->
<!DOCTYPE svg PUBLIC "-//W3C//DTD SVG 1.1//EN" "http://www.w3.org/Graphics/SVG/1.1/DTD/svg11.dtd">
<svg version="1.1" id="Capa_1" xmlns="http://www.w3.org/2000/svg" xmlns:xlink="http://www.w3.org/1999/xlink" x="0px" y="0px"
	 width="64px" height="64px" viewBox="0 0 64 64" style="enable-background:new 0 0 64 64;" xml:space="preserve">
<g>
	<path d="M34.835,45.956c0,0.133,0.053,0.26,0.146,0.354l7.898,7.897c0.098,0.098,0.226,0.146,0.354,0.146
		c0.128,0,0.256-0.049,0.353-0.146c0.195-0.195,0.195-0.512,0-0.707l-7.751-7.751l-0.001-26.873c0-0.133-0.053-0.26-0.146-0.354
		L21.27,4.105c-0.195-0.195-0.512-0.195-0.707,0s-0.195,0.512,0,0.707l14.271,14.271L34.835,45.956z"/>
	<path d="M23.174,58.617c0.128,0,0.256-0.049,0.353-0.146l9.905-9.904c0.094-0.094,0.146-0.221,0.146-0.354l-0.002-27.081
		c0-0.276-0.224-0.5-0.5-0.5c-0.276,0-0.5,0.224-0.5,0.5l0.002,26.874l-9.758,9.758c-0.195,0.195-0.195,0.512,0,0.707
		C22.919,58.568,23.046,58.617,23.174,58.617z"/>
	<path d="M15.526,62.252c0.128,0,0.256-0.049,0.354-0.147l14.919-14.92c0.094-0.094,0.147-0.221,0.147-0.354L30.945,23.94
		c0.314-0.388,0.493-0.86,0.493-1.366c0-0.583-0.227-1.132-0.64-1.545c-0.825-0.824-2.263-0.823-3.09,0
		c-0.851,0.852-0.851,2.238,0,3.089c0.413,0.413,0.962,0.641,1.545,0.641c0.24,0,0.47-0.048,0.691-0.121l0.001,21.987L15.173,61.398
		c-0.195,0.195-0.195,0.512,0,0.707C15.271,62.203,15.398,62.252,15.526,62.252z M28.416,23.411c-0.461-0.461-0.461-1.213,0-1.675
		c0.224-0.224,0.521-0.347,0.838-0.347c0.316,0,0.614,0.123,0.837,0.347c0.224,0.224,0.347,0.522,0.347,0.838
		c0,0.316-0.123,0.613-0.347,0.837C29.644,23.861,28.864,23.86,28.416,23.411z"/>
	<path d="M45.518,52.201c0.413,0.412,0.961,0.64,1.544,0.64c0.583,0,1.131-0.227,1.544-0.64c0.851-0.852,0.852-2.237,0-3.09
		c-0.704-0.703-1.851-0.801-2.686-0.305l-7.571-7.571l-0.002-26.873c0-0.136-0.056-0.267-0.154-0.36L27.874,4.099
		c-0.2-0.192-0.516-0.185-0.707,0.014c-0.191,0.2-0.185,0.517,0.015,0.707l10.166,9.756l0.002,26.867
		c0,0.133,0.053,0.26,0.146,0.354l7.714,7.714C44.69,50.352,44.789,51.473,45.518,52.201z M46.225,49.818
		c0.223-0.223,0.521-0.346,0.837-0.346s0.614,0.123,0.837,0.346c0.462,0.462,0.462,1.214,0,1.676c-0.447,0.448-1.227,0.447-1.675,0
		C45.764,51.032,45.764,50.28,46.225,49.818z"/>
	<path d="M15.975,58.559c0.583,0,1.132-0.227,1.544-0.64c0.729-0.729,0.829-1.849,0.309-2.691l9.614-9.613
		c0.093-0.094,0.146-0.22,0.146-0.353l0.041-13.97c0.386-0.407,0.603-0.936,0.603-1.499c0.001-0.584-0.227-1.133-0.64-1.546
		c-0.824-0.824-2.264-0.824-3.089,0c-0.851,0.854-0.851,2.239,0,3.089c0.413,0.413,0.962,0.641,1.545,0.641
		c0.2,0,0.392-0.036,0.579-0.087l-0.039,13.163l-9.472,9.472c-0.835-0.496-1.982-0.398-2.687,0.305c-0.851,0.852-0.851,2.239,0,3.09
		C14.843,58.332,15.391,58.559,15.975,58.559z M25.21,30.629c-0.461-0.461-0.461-1.212,0-1.675c0.224-0.224,0.521-0.347,0.838-0.347
		c0.316,0,0.614,0.123,0.837,0.347c0.224,0.224,0.347,0.521,0.347,0.838s-0.123,0.613-0.347,0.837
		C26.438,31.079,25.659,31.078,25.21,30.629z M15.137,55.536c0.223-0.223,0.521-0.346,0.837-0.346s0.614,0.123,0.837,0.346
		c0.462,0.462,0.462,1.214,0,1.676c-0.448,0.448-1.228,0.447-1.675,0C14.675,56.75,14.676,55.999,15.137,55.536z"/>
	<polygon points="15.975,52.341 23.509,44.485 23.509,33.923 15.975,42.005 	"/>
	<polygon points="47.062,22.606 39.863,14.307 39.863,39.625 47.062,46.748 	"/>
</g>
</svg>
