<?xml version="1.0" encoding="UTF-8" standalone="yes"?>
<svg xmlns="http://www.w3.org/2000/svg" viewBox="0 0 64 64">
  <path d="M13.065 56.53a1.988 1.988 0 1 0 1.218-.12L9.5 50.88V33.255L26.274 16.48a.5.5 0 0 0 .146-.353V6.53a1.986 1.986 0 0 0 1.488-1.917c0-1.097-.892-1.988-1.988-1.988s-1.988.892-1.988 1.988c0 .923.635 1.693 1.488 1.917v9.39L8.647 32.695a.5.5 0 0 0-.147.354v18.016c0 .12.043.236.122.327l4.443 5.136zm.794.83a.99.99 0 1 1-.003 1.98.99.99 0 0 1 .002-1.98zM24.93 4.614a.99.99 0 1 1 .988.988.988.988 0 0 1-.988-.987z"/>
  <path d="M17.212 56.534l-4.89-5.655V33.255L29.094 16.48a.5.5 0 0 0 .146-.353v-9.87a.5.5 0 0 0-1 0v9.663L11.468 32.695a.5.5 0 0 0-.146.353v18.017c0 .12.045.236.123.327l5.013 5.796a.5.5 0 0 0 .756-.654z"/>
  <path d="M34.027 15.773l-16.92 16.922a.5.5 0 0 0 .707.707l16.773-16.775h11.74a1.988 1.988 0 0 0 1.918 1.488 1.99 1.99 0 0 0 1.988-1.988 1.99 1.99 0 0 0-1.988-1.988c-.922 0-1.693.634-1.917 1.487H34.38a.504.504 0 0 0-.353.146zm14.22-.634a.99.99 0 1 1-.003 1.977.99.99 0 0 1 .002-1.978z"/>
  <path d="M54.308 18.635a.5.5 0 0 0-.5-.5H35.164a.5.5 0 0 0-.354.147l-14.29 14.29a1.983 1.983 0 0 0-1.758 1.966c0 1.097.892 1.988 1.988 1.988s1.988-.892 1.988-1.988a1.98 1.98 0 0 0-1.035-1.734L35.37 19.136h18.437c.277 0 .5-.225.5-.5zm-32.57 15.902a.99.99 0 1 1-1.977-.002.99.99 0 0 1 1.98.002z"/>
  <path d="M48.25 22.215a1.987 1.987 0 0 0 1.918 1.488 1.99 1.99 0 0 0 1.988-1.988 1.99 1.99 0 0 0-1.988-1.988c-.922 0-1.693.635-1.917 1.488H36.28a.503.503 0 0 0-.353.146l-8.74 8.69c-1.06.042-1.91.91-1.91 1.98 0 1.097.89 1.988 1.987 1.988s1.988-.892 1.988-1.988c0-.713-.38-1.334-.945-1.685l8.178-8.13H48.25zm1.918-1.488a.99.99 0 1 1-.002 1.978.99.99 0 0 1 .002-1.978zM27.264 33.02a.99.99 0 1 1 .002-1.98.99.99 0 0 1-.002 1.98z"/>
  <path d="M20.75 60.338a1.99 1.99 0 0 0 1.99-1.988 1.99 1.99 0 0 0-1.99-1.988c-.26 0-.51.054-.74.147l-4.87-5.63V33.256L31.916 16.48a.5.5 0 0 0 .146-.353v-9.87a.5.5 0 0 0-1 0v9.663L14.29 32.695a.5.5 0 0 0-.146.353v18.017c0 .12.043.236.122.327l4.946 5.718c-.275.34-.446.768-.446 1.24 0 1.096.89 1.988 1.987 1.988zm0-2.977a.99.99 0 1 1 0 1.98.99.99 0 0 1 0-1.98z"/>
</svg>