<?xml version="1.0" encoding="iso-8859-1"?>
<!-- Generator: Adobe Illustrator 17.0.2, SVG Export Plug-In . SVG Version: 6.00 Build 0)  -->
<!DOCTYPE svg PUBLIC "-//W3C//DTD SVG 1.1//EN" "http://www.w3.org/Graphics/SVG/1.1/DTD/svg11.dtd">
<svg version="1.1" id="Capa_1" xmlns="http://www.w3.org/2000/svg" xmlns:xlink="http://www.w3.org/1999/xlink" x="0px" y="0px"
	 width="64px" height="64px" viewBox="0 0 64 64" style="enable-background:new 0 0 64 64;" xml:space="preserve">
<g>
	<path d="M13.065,56.529c-0.702,0.307-1.194,1.006-1.194,1.82c0,1.097,0.892,1.988,1.988,1.988c1.096,0,1.988-0.892,1.988-1.988
		c0-0.95-0.671-1.744-1.564-1.94L9.5,50.879V33.256L26.274,16.48c0.094-0.094,0.146-0.221,0.146-0.353V6.53
		c0.854-0.224,1.488-0.994,1.488-1.917c0-1.097-0.892-1.988-1.988-1.988s-1.988,0.892-1.988,1.988c0,0.923,0.635,1.693,1.488,1.917
		v9.39L8.647,32.695C8.553,32.789,8.5,32.916,8.5,33.049v18.017c0,0.12,0.043,0.236,0.122,0.327L13.065,56.529z M13.859,57.361
		c0.545,0,0.988,0.443,0.988,0.988c0,0.545-0.443,0.988-0.988,0.988c-0.545,0-0.988-0.443-0.988-0.988
		C12.871,57.805,13.315,57.361,13.859,57.361z M24.932,4.613c0-0.545,0.443-0.988,0.988-0.988c0.545,0,0.988,0.443,0.988,0.988
		s-0.443,0.988-0.988,0.988C25.375,5.602,24.932,5.158,24.932,4.613z"/>
	<path d="M17.212,56.534l-4.891-5.655V33.256L29.095,16.48c0.094-0.094,0.146-0.221,0.146-0.353V6.258c0-0.276-0.224-0.5-0.5-0.5
		c-0.276,0-0.5,0.224-0.5,0.5v9.662L11.467,32.695c-0.094,0.094-0.146,0.221-0.146,0.353v18.017c0,0.12,0.044,0.236,0.122,0.327
		l5.013,5.796c0.099,0.114,0.238,0.173,0.378,0.173c0.116,0,0.232-0.04,0.327-0.122C17.37,57.059,17.392,56.743,17.212,56.534z"/>
	<path d="M34.027,15.773l-16.92,16.922c-0.195,0.195-0.195,0.512,0,0.707c0.098,0.098,0.226,0.146,0.353,0.146
		c0.128,0,0.256-0.049,0.354-0.146l16.773-16.775h11.741c0.224,0.853,0.995,1.488,1.917,1.488c1.096,0,1.988-0.892,1.988-1.988
		c0-1.097-0.892-1.988-1.988-1.988c-0.922,0-1.693,0.635-1.917,1.488H34.381C34.248,15.627,34.121,15.68,34.027,15.773z
		 M48.246,15.139c0.545,0,0.988,0.443,0.988,0.988c0,0.545-0.443,0.988-0.988,0.988s-0.988-0.443-0.988-0.988
		C47.258,15.582,47.701,15.139,48.246,15.139z"/>
	<path d="M54.308,18.635c0-0.276-0.224-0.5-0.5-0.5H35.164c-0.133,0-0.26,0.053-0.354,0.147l-14.29,14.291
		c-0.987,0.115-1.758,0.947-1.758,1.965c0,1.097,0.892,1.988,1.988,1.988s1.988-0.892,1.988-1.988c0-0.75-0.422-1.396-1.035-1.734
		l13.667-13.668h18.437C54.084,19.135,54.308,18.911,54.308,18.635z M21.739,34.537c0,0.545-0.443,0.988-0.988,0.988
		c-0.545,0-0.988-0.443-0.988-0.988c0-0.545,0.443-0.988,0.988-0.988C21.296,33.549,21.739,33.992,21.739,34.537z"/>
	<path d="M48.251,22.215c0.224,0.854,0.995,1.488,1.917,1.488c1.096,0,1.988-0.892,1.988-1.988c0-1.097-0.892-1.988-1.988-1.988
		c-0.922,0-1.693,0.635-1.917,1.488H36.28c-0.132,0-0.259,0.053-0.353,0.146l-8.74,8.689c-1.06,0.042-1.911,0.91-1.911,1.98
		c0,1.097,0.892,1.988,1.988,1.988s1.988-0.892,1.988-1.988c0-0.713-0.38-1.334-0.945-1.685l8.178-8.131H48.251z M50.168,20.727
		c0.545,0,0.988,0.443,0.988,0.988c0,0.545-0.443,0.988-0.988,0.988c-0.545,0-0.988-0.443-0.988-0.988
		C49.18,21.17,49.623,20.727,50.168,20.727z M27.264,33.019c-0.545,0-0.988-0.443-0.988-0.988c0-0.545,0.443-0.988,0.988-0.988
		c0.545,0,0.988,0.443,0.988,0.988C28.252,32.575,27.809,33.019,27.264,33.019z"/>
	<path d="M20.751,60.338c1.096,0,1.988-0.892,1.988-1.988c0-1.097-0.892-1.988-1.988-1.988c-0.262,0-0.512,0.054-0.741,0.147
		l-4.869-5.629V33.256L31.915,16.48c0.094-0.094,0.146-0.221,0.146-0.353V6.258c0-0.276-0.224-0.5-0.5-0.5
		c-0.276,0-0.5,0.224-0.5,0.5v9.662L14.288,32.695c-0.094,0.094-0.146,0.221-0.146,0.353v18.017c0,0.12,0.043,0.236,0.122,0.327
		l4.946,5.718c-0.275,0.341-0.446,0.768-0.446,1.239C18.763,59.446,19.655,60.338,20.751,60.338z M20.751,57.361
		c0.545,0,0.988,0.443,0.988,0.988c0,0.545-0.443,0.988-0.988,0.988c-0.545,0-0.988-0.443-0.988-0.988
		C19.763,57.805,20.206,57.361,20.751,57.361z"/>
</g>
</svg>
