<?xml version="1.0" encoding="iso-8859-1"?>
<!-- Generator: Adobe Illustrator 18.1.1, SVG Export Plug-In . SVG Version: 6.00 Build 0)  -->
<svg version="1.1" id="Capa_1" xmlns="http://www.w3.org/2000/svg" xmlns:xlink="http://www.w3.org/1999/xlink" x="0px" y="0px"
	 viewBox="0 0 612.002 612.002" style="enable-background:new 0 0 612.002 612.002;" xml:space="preserve">
<g>
	<g>
		<circle cx="325.131" cy="175.038" r="13.32"/>
		<circle cx="399.505" cy="175.038" r="13.32"/>
		<path d="M546.218,373.221L440.623,267.419c9.221-14.376,14.804-31.448,14.804-49.762v-28.19
			c11.278-2.977,20.441-13.646,20.441-26.267c0-10.37-6.344-19.575-14.802-24.15v-58.25l-5.522-0.56
			c-0.017-0.003-0.14-0.007-0.158-0.01c-0.23-1.562-0.547-3.124-0.856-4.675c-2.06-10.338-1.758-21.698,0.945-33.759
			c0.72-3.187,0.963-6.488,0.749-9.816c-1.119-17.049-14.826-30.764-31.871-31.902c-3.189-0.213-6.363,0.008-9.411,0.658
			c-12.107,2.55-24.329,2.78-36.32,0.684c-10.23-1.797-20.798-1.881-30.977-0.285c-13.712,2.157-26.472,2.023-37.916-0.396
			c-3.207-0.682-6.554-0.895-9.96-0.626c-14.967,1.21-27.594,12.394-30.709,27.211c-1.09,5.233-0.946,10.48,0.429,15.603
			c2.753,10.189,3.07,21.573,0.919,32.914c-0.275,1.442-0.307,2.922-0.519,4.425l-4.776,0.856v57.561
			c-9.868,4.418-15.507,13.907-15.507,24.408c0,12.996,8.458,23.682,21.146,26.338v28.228c0,17.767,4.78,34.743,14.049,49.367
			c-0.699,0.881-96.026,96.573-96.026,96.573l-18.185-18.133l8.172-8.198l-46.367-46.353l-8.212,8.205l-12.96-12.957l-22.102,22.1
			l12.955,12.957l-2.054,2.053l-44.673,24.645l2.428,4.845c12.569,25.092,33.246,46.032,58.219,58.963l6.444,3.335l23.974-45.472
			l2.016-2.014l21.453,21.453c-3.35,12.234,0.045,25.45,9.16,34.551c6.808,6.808,15.916,10.435,25.193,10.433
			c3.127,0,6.481-0.43,9.565-1.272l78.093,77.886v101.378h140.973V465.391h28.195v-77.032l35.009,35.218
			c6.942,6.94,15.954,10.411,25.072,10.411c9.117,0,18.183-3.469,25.124-10.411C560.152,409.691,560.1,387.104,546.218,373.221z
			 M455.426,148.848c5.639,2.57,9.163,8.095,9.163,14.351c0,6.338-3.524,11.832-9.163,14.351V148.848z M270.752,177.65
			c-5.639-2.305-9.868-7.906-9.868-14.561c0-6.531,2.819-12.201,9.868-14.591V177.65z M444.148,188.521
			c-12.688,4.381-23.086,12.52-30.468,23.21c-11.499-16.566-30.748-26.84-51.259-26.84c-20.502,0-39.488,10.273-50.994,26.838
			c-7.236-10.481-18.119-18.514-29.397-22.955v-40.41l0.343-0.089c53.292-9.752,107.438-9.752,160.728,0l1.049,0.176v40.069H444.148
			z M280.099,29.632c2.093-9.953,10.556-17.469,20.565-18.279c2.312-0.18,4.572-0.041,6.726,0.417
			c12.8,2.705,26.934,2.876,42.006,0.505c8.953-1.404,18.259-1.332,27.281,0.252c13.415,2.347,27.072,2.092,40.606-0.758
			c2.04-0.436,4.164-0.582,6.314-0.438c11.43,0.761,20.614,9.957,21.364,21.381c0.145,2.244-0.025,4.465-0.51,6.607
			c-2.986,13.316-3.382,25.98-1.181,37.652c0.049,0.262,0.176,0.936,0.192,1.011c-53.819-9.528-108.199-9.504-161.989,0.07
			c0.007-0.035,0.12-0.65,0.168-0.921c2.301-12.743,1.866-25.57-1.259-37.139C279.468,36.6,279.375,33.11,280.099,29.632z
			 M276.391,137.852v-47.31c57.799-11.221,115.598-11.22,173.396,0.008v47.477l-5.46-1.107h-0.014
			c-54.421-9.868-109.388-9.792-163.805,0.145C280.51,137.067,277.801,137.62,276.391,137.852z M282.03,217.657v-16.678
			c9.868,4.99,19.134,13.581,24.232,24.401l4.99,10.813l5.054-10.806c8.386-17.748,26.441-29.217,46.037-29.217
			c19.606,0,37.675,11.467,46.05,29.214l5.093,10.807l5.303-10.807c5.22-11.062,14.08-19.78,25.358-24.717v16.99
			c0,44.735-36.577,81.13-81.281,81.13c-21.639,0-41.893-8.44-57.218-23.767C290.351,259.722,282.03,239.35,282.03,217.657z
			 M406.086,385.034v69.077h-85.993v-69.077h5.639V352.61h-5.639v-53.135c12.688,6.915,27.76,10.59,42.983,10.59
			c15.524,0,30.323-3.87,43.011-10.67v53.216h-5.639v32.424H406.086z M274.981,328.616c0-18.658,5.614-36.666,16.305-51.478
			c0,0,0.273-0.499,0.33-0.577c1.841,2.219,3.943,4.37,6.007,6.434c3.461,3.462,6.963,6.6,11.192,9.432v60.183h-5.639v32.424h5.639
			v69.077h-33.833L274.981,328.616L274.981,328.616z M267.372,301.053c-2.539,8.874-3.667,18.143-3.667,27.562v45.115
			l-20.582,20.375l-35.077-33.726L267.372,301.053z M263.703,389.681v48.531l-24.266-24.266L263.703,389.681z M111.222,302.109
			l4.982,4.982l-6.151,6.151l-4.982-4.982L111.222,302.109z M137.237,362.816l-19.519,37.021
			c-19.74-11.056-36.302-27.636-47.319-47.344l36.472-20.12l25.512-25.512l30.404,30.404L137.237,362.816z M174.95,378.139
			l-18.544-18.544l6.158-6.158l18.133,18.133l-1.651,1.651C177.521,374.747,176.161,376.393,174.95,378.139z M213.093,421.059
			c-9.001,3.52-19.236,1.377-26.076-5.464c-6.847-6.836-8.99-17.066-5.46-26.063c1.232-3.138,3.07-5.942,5.463-8.336l12.841-12.841
			l35.077,33.725l-13.516,13.516C219.028,417.992,216.224,419.83,213.093,421.059z M291.898,494.672l-67.21-67.003
			c1.745-1.211,3.287-2.571,4.811-4.095l1.807-1.652l32.397,32.239v11.227h10.98l17.214,16.969V494.672z M303.721,600.722
			c2.514-12.688,13.306-21.118,26.203-21.118s23.689,8.43,26.203,21.118H303.721z M356.745,579.133
			c-7.049-6.595-16.157-10.636-26.407-10.636c-10.632,0-20.114,4.346-27.163,11.381v-35.543h53.57V579.133z M356.745,533.055h-53.57
			v-67.667h53.57V533.055z M368.511,600.722c2.514-12.688,13.306-21.118,26.203-21.118s23.689,8.43,26.203,21.118H368.511z
			 M421.593,579.188c-7.049-6.627-16.185-10.691-26.465-10.691c-10.603,0-20.056,4.321-27.105,11.32v-35.484h53.57V579.188z
			 M421.593,533.055h-53.57v-67.667h53.57V533.055z M449.787,454.11h-32.424v-69.077h5.639V352.61h-5.639v-60.264
			c5.639-4.36,11.408-9.418,16.179-15.056c10.514,14.692,16.244,32.653,16.244,51.327V454.11z M461.065,372.407v-43.79
			c0-10.071-1.706-19.96-4.555-29.36l62.387,62.492l-34.922,33.726L461.065,372.407z M538.245,415.598
			c-9.485,9.485-24.917,9.485-34.402,0l-12.149-12.149l35.078-33.726l11.474,11.474
			C547.728,390.681,547.728,406.113,538.245,415.598z"/>
	</g>
</g>
<g>
</g>
<g>
</g>
<g>
</g>
<g>
</g>
<g>
</g>
<g>
</g>
<g>
</g>
<g>
</g>
<g>
</g>
<g>
</g>
<g>
</g>
<g>
</g>
<g>
</g>
<g>
</g>
<g>
</g>
</svg>
