<?xml version="1.0" encoding="iso-8859-1"?>
<!-- Generator: Adobe Illustrator 18.1.1, SVG Export Plug-In . SVG Version: 6.00 Build 0)  -->
<svg version="1.1" id="Capa_1" xmlns="http://www.w3.org/2000/svg" xmlns:xlink="http://www.w3.org/1999/xlink" x="0px" y="0px"
	 viewBox="0 0 611.998 611.998" style="enable-background:new 0 0 611.998 611.998;" xml:space="preserve">
<g>
	<g>
		<circle cx="260.359" cy="409.007" r="11.641"/>
		<circle cx="245.8" cy="138.697" r="14.44"/>
		<circle cx="326.425" cy="138.697" r="14.44"/>
		<path d="M510.246,417.38v-25.263h-15.171c4.015-13.213,0.818-28.165-9.603-38.585c0,0-126.549-127.273-128.175-128.713
			c17.644-17.836,28.638-42.245,28.963-69.18c12.998-3.084,22.497-14.677,22.497-28.58c0-13.899-9.506-25.489-22.508-28.567
			C385.34,44.032,340.786,0,286.112,0c-54.673,0-99.227,44.03-100.136,98.489c-13.001,3.069-22.502,14.659-22.502,28.57
			c0,13.915,9.496,25.508,22.491,28.583c0.327,26.937,11.323,51.346,28.968,69.182c-5.529,4.884-127.501,128.707-127.501,128.707
			c-15.044,15.044-15.046,39.536,0,54.599c7.525,7.527,17.407,11.288,27.291,11.288c9.883,0,19.769-3.764,27.291-11.288
			l36.727-36.727v82.363h31.023v158.232h152.702V453.768h31.008v-83.049l37.413,37.413c4.333,4.334,9.451,7.412,14.899,9.25h-39.202
			v121.732H535.85V417.382h-25.604V417.38z M386.291,111.358c6.061,2.647,10.239,8.665,10.239,15.703
			c0,7.044-4.178,13.066-10.239,15.715V111.358z M185.934,142.782c-6.058-2.644-10.233-8.67-10.233-15.721
			c0-7.047,4.175-13.066,10.233-15.707V142.782z M440.259,526.888H418.81v-97.28h21.449V526.888z M485.474,408.13
			c1.201-1.203,2.297-2.473,3.307-3.785h9.24v13.036h-27.446C476.021,415.542,481.14,412.462,485.474,408.13z M286.112,12.226
			c44.099,0,80.712,32.626,86.992,75.006c-16.277-4.698-30.656-15.067-40.24-29.273l-3.304-4.896l-5.007,3.134
			c-11.505,7.201-24.805,11.006-38.466,11.006c-14.644,0-28.751-4.333-40.798-12.529l-5.204-3.538l-3.387,5.303
			c-8.787,13.759-22.121,24.203-37.381,29.556C206.124,44.22,242.444,12.226,286.112,12.226z M198.16,154.415v-54.236
			c0-0.339,0.021-0.674,0.026-1.013c18.03-5.04,34.136-16.097,45.366-31.15c12.888,7.485,27.472,11.413,42.539,11.413
			c14.034,0,27.748-3.442,40.002-9.999c11.981,15.395,29.033,26.29,47.973,30.676c0,0.024,0.002,0.049,0.002,0.075v54.236
			c0,48.497-39.455,87.953-87.953,87.953C237.615,242.368,198.16,202.912,198.16,154.415z M325.145,343.204l-32.871,26.816v-30.358
			l39.349-96.048c4.635-2.375,9.062-5.094,13.247-8.135l-2.807,73.039l-29.368-2.668L325.145,343.204z M305.652,274.756
			l-12.379-20.245l0.13-0.212c7.718-0.558,15.204-1.967,22.343-4.181L305.652,274.756z M278.941,254.513l-12.122,19.824
			l-9.874-24.087c6.996,2.133,14.318,3.501,21.866,4.048L278.941,254.513z M133.37,399.486
			c-10.284,10.28-27.013,10.282-37.292,0.002c-10.28-10.293-10.284-27.03-0.002-37.312l0.677-0.677l38.035,36.571L133.37,399.486z
			 M178.741,305.191v48.923l-35.305,35.305l-38.035-36.569l77.524-77.525C180.177,284.893,178.741,294.924,178.741,305.191z
			 M222.698,599.774c2.887-12.657,14.468-22.922,28.297-22.922s25.41,10.265,28.297,22.922H222.698z M280.002,576.519
			c-7.455-7.366-17.706-11.893-29.007-11.893c-11.3,0-21.55,4.525-29.004,11.89V453.768h58.012V576.519z M280.048,441.542h-89.081
			V305.191c0-24.184,8.968-46.891,25.013-64.302l3.115,80.972l23.579-2.143l-9.209,27.626l46.584,38.003V441.542L280.048,441.542z
			 M280.048,369.569l-32.316-26.364l12.452-37.353l-29.368,2.668l-2.791-72.564c4.143,2.96,8.518,5.613,13.095,7.924l38.927,94.96
			V369.569z M272.57,288.368l13.537-22.138l13.795,22.56l-13.575,33.137L272.57,288.368z M292.934,599.774
			c2.887-12.657,14.468-22.922,28.297-22.922c13.829,0,25.41,10.265,28.297,22.922H292.934z M350.24,576.52
			c-7.456-7.366-17.708-11.894-29.011-11.894c-11.298,0-21.548,4.525-29.001,11.887V453.768h58.012V576.52L350.24,576.52z
			 M381.248,441.542h-88.974v-55.743l47.139-38.455l-9.209-27.626l23.581,2.143l3.087-80.268
			c15.755,17.5,24.378,39.889,24.378,63.598v136.351H381.248z M430.492,390.447l-37.018-37.019v-48.237
			c0-10.603-1.536-20.969-4.487-30.854l78.075,78.073L430.492,390.447z M439.532,399.486l-0.394-0.394l36.569-38.035l1.119,1.119
			c10.28,10.282,10.279,27.019-0.002,37.31C466.545,409.767,449.814,409.767,439.532,399.486z M523.626,526.888h-71.121v-97.28
			h71.121V526.888z"/>
		<path d="M239.297,193.651h12.226c0-5.919,4.815-10.733,10.734-10.733h18.05v-12.226h-18.05
			C249.598,170.691,239.297,180.991,239.297,193.651z"/>
		<path d="M320.525,193.651h12.226c0-12.66-10.3-22.959-22.96-22.959h-18.05v12.226h18.052
			C315.709,182.916,320.525,187.732,320.525,193.651z"/>
	</g>
</g>
<g>
</g>
<g>
</g>
<g>
</g>
<g>
</g>
<g>
</g>
<g>
</g>
<g>
</g>
<g>
</g>
<g>
</g>
<g>
</g>
<g>
</g>
<g>
</g>
<g>
</g>
<g>
</g>
<g>
</g>
</svg>
