<?xml version="1.0" encoding="iso-8859-1"?>
<!-- Generator: Adobe Illustrator 18.1.1, SVG Export Plug-In . SVG Version: 6.00 Build 0)  -->
<svg version="1.1" id="Capa_1" xmlns="http://www.w3.org/2000/svg" xmlns:xlink="http://www.w3.org/1999/xlink" x="0px" y="0px"
	 viewBox="0 0 612 612" style="enable-background:new 0 0 612 612;" xml:space="preserve">
<g>
	<g>
		<path d="M401.288,490.861v-95.447l33.558,33.416c13.471,13.456,35.39,13.456,48.863-0.003
			c6.542-6.542,10.145-15.228,10.145-24.461c0-9.194-3.575-17.826-10.047-24.28c-0.534-0.539-112.763-113.23-114.935-115.301
			c0.485-0.496,0.961-0.999,1.435-1.506l18.434,1.567c25.579,2.18,49.712-11.889,60.052-35.004
			c9.261-20.7,13.83-42.781,13.581-65.63c-0.93-84.83-70.7-154.327-155.526-154.919c-29.017-0.19-56.87,7.433-81.156,21.907
			c0.863-7.388-1.513-15.084-7.168-20.74c-4.753-4.753-11.074-7.372-17.796-7.372c-4.854,0-9.489,1.384-13.486,3.933
			C181.23,2.469,173.94,0,166.271,0c-9.305,0-18.055,3.626-24.637,10.21c-12.416,12.416-13.471,31.956-3.181,45.605
			c-6.18,9.729-5.045,22.801,3.436,31.283c4.753,4.753,11.072,7.372,17.796,7.372c2.431,0,4.807-0.354,7.077-1.016
			c-11.565,22.104-17.704,46.819-17.704,72.499c0,22.179,4.536,43.6,13.482,63.664c9.657,21.682,31.309,35.453,54.952,35.453
			c1.723,0,3.461-0.074,5.201-0.223l17.188-1.469c0.64,0.684,1.276,1.372,1.938,2.034c-1.839,1.746-113.079,114.153-113.575,114.659
			c-6.512,6.512-10.098,15.169-10.098,24.378s3.586,17.868,10.098,24.378c6.516,6.516,15.175,10.103,24.378,10.103
			c9.213,0,17.876-3.587,24.392-10.102l33.161-33.152v96.112c0,23.747,9.919,46.102,27.302,61.741v13.42h-23.859
			c-7.956-5.253-19.387-11.632-32.743-11.632c-27.141,0-49.875,23.457-49.875,51.22V612h349.467v-5.46
			c0-27.763-23.242-51.22-50.383-51.22c-13.356,0-25.295,6.379-33.25,11.632h-24.21v-12.994
			C390.854,538.066,401.288,515.139,401.288,490.861z M390.367,369.119v121.741c0,21.117-8.585,40.303-24.224,54.249h-54.952V355.14
			c34.371-1.96,65.001-20.7,82.396-50.336c20.774,20.834,46.93,47.164,64.153,64.516l-32.857,34.174L390.367,369.119z
			 M482.935,404.367c0,6.315-2.467,12.26-6.944,16.736c-9.214,9.205-24.209,9.206-33.434-0.008l-9.935-9.894l32.813-34.128
			c6.46,6.51,10.489,10.573,10.64,10.724C480.499,392.211,482.935,398.096,482.935,404.367z M305.048,280.767
			c-43.282,0-78.494-35.243-78.494-78.565v-48.448c0-9.127,1.697-18.205,5.055-27.078c9.477,8.831,22.18,13.917,35.411,13.917
			c15.033,0,29.019-6.469,38.697-17.614c9.677,11.145,23.664,17.614,38.697,17.614c13.06,0,25.302-4.944,34.689-13.803
			c2.949,8.323,4.441,17.359,4.441,26.964v48.448C383.541,245.524,348.33,280.767,305.048,280.767z M305.048,291.688
			c13.105,0,25.548-2.86,36.773-7.95c-9.841,8.971-22.771,14.149-36.682,14.149c-13.861,0-26.721-5.119-36.534-13.999
			C279.746,288.884,292.072,291.688,305.048,291.688z M149.356,17.932c4.521-4.521,10.528-7.011,16.915-7.011
			c4.524,0,8.845,1.272,12.594,3.607l-32.909,32.909C140.247,38.208,141.365,25.923,149.356,17.932z M149.611,79.374
			c-2.691-2.691-4.173-6.267-4.173-10.073c0-3.806,1.483-7.382,4.173-10.073l41.045-41.045c2.691-2.691,6.269-4.173,10.073-4.173
			s7.382,1.483,10.073,4.173s4.173,6.269,4.173,10.073c0,3.806-1.483,7.382-4.173,10.073l-41.045,41.045
			c-2.691,2.691-6.269,4.173-10.073,4.173C155.879,83.547,152.302,82.066,149.611,79.374z M221.763,253.967
			c-20.984,1.792-40.778-9.778-49.248-28.796c-8.318-18.658-12.536-38.583-12.536-59.22c0-39.131,15.292-75.863,43.06-103.433
			c27.759-27.561,64.591-42.593,103.733-42.306c78.913,0.552,143.819,65.203,144.685,144.118c0.232,21.26-4.017,41.801-12.63,61.052
			c-8.447,18.881-28.198,30.369-49.157,28.583l-11.085-0.942c9.81-14.173,15.632-31.296,15.85-49.753
			c11.882-2.475,20.832-12.906,20.832-25.368c0-12.468-8.947-22.902-20.836-25.38c-0.167-13.844-3.092-26.696-8.75-38.204
			l-3.932-7.995l-5.339,7.133c-7.716,10.305-19.378,16.216-31.995,16.216c-13.874,0-26.618-7.003-34.092-18.735l-4.606-7.228
			l-4.606,7.228c-7.474,11.73-20.219,18.735-34.092,18.735c-12.851,0-25.062-6.061-32.664-16.216l-5.34-7.133l-3.932,7.995
			c-6.06,12.323-9.204,25.129-9.411,38.082c-11.269,2.995-19.506,13.299-19.506,25.372c0,12.061,8.229,22.354,19.49,25.353
			c0.19,18.557,6.049,35.771,15.928,50L221.763,253.967z M404.346,177.903c0,6.527-4.057,11.941-9.883,14.05V163.84
			C400.289,165.953,404.346,171.371,404.346,177.903z M215.633,191.502c-5.074-2.513-8.546-7.746-8.546-13.729
			c0-5.987,3.471-11.225,8.546-13.741V191.502z M247.757,274.864c11.425,20.722,33.582,33.943,57.384,33.943
			c24.393,0,46.323-13.207,57.752-34.616c2.939,2.874,9.391,9.276,22.687,22.588c-4.263,7.795-9.528,14.794-15.594,20.878
			l-11.875-12.197l-7.825,7.619l11.535,11.846c-7.453,5.866-15.786,10.53-24.723,13.823l-5.694-16.238l-10.305,3.612l5.531,15.775
			c-6.912,1.639-14.089,2.506-21.431,2.506c-5.815,0-11.557-0.576-17.165-1.66l5.828-16.62l-10.305-3.612l-6.14,17.513
			c-9.356-3.007-18.174-7.486-26.093-13.233l13.351-13.711l-7.825-7.619l-13.991,14.369c-6.947-6.423-12.938-13.939-17.66-22.356
			C236.859,285.721,244.4,278.163,247.757,274.864z M169.291,421.106c-4.453,4.453-10.373,6.905-16.669,6.905
			c-6.288,0-12.204-2.452-16.657-6.905c-4.449-4.449-6.898-10.364-6.898-16.657c0-6.292,2.45-12.208,6.927-16.684
			c0.132-0.134,3.549-3.601,9.115-9.246l34.043,32.731L169.291,421.106z M221.094,491.79V369.32l-34.219,34.208l-34.099-32.784
			c16.925-17.159,43.462-44.046,64.462-65.241c17.546,29.131,48.929,48.019,83.033,49.688v189.92h-55.789
			C229.597,531.556,221.094,512.284,221.094,491.79z M300.27,601.079H141.907c2.681-19.372,19.348-34.839,38.773-34.839
			c11.16,0,21.447,6.102,28.213,10.69l1.388,0.942h58.593v-10.921h-20.477v-10.921h51.874v45.049H300.27z M400.167,577.872
			l1.388-0.942c6.767-4.588,17.053-10.69,28.213-10.69c19.425,0,36.092,15.465,38.773,34.839h-157.35v-45.049H361.7v10.921h-19.111
			v10.921H400.167z"/>
		<path d="M270.972,425.004c12.197,0,22.122-9.924,22.122-22.122c0-12.199-9.924-22.122-22.122-22.122
			c-12.199,0-22.122,9.924-22.122,22.122C248.851,415.081,258.773,425.004,270.972,425.004z M270.972,391.682
			c6.176,0,11.201,5.025,11.201,11.201s-5.025,11.201-11.201,11.201s-11.201-5.025-11.201-11.201
			C259.771,396.705,264.795,391.682,270.972,391.682z"/>
		<path d="M270.972,498.644c12.197,0,22.122-9.924,22.122-22.12c0-12.197-9.924-22.121-22.122-22.121
			c-12.199,0-22.122,9.924-22.122,22.121C248.851,488.721,258.773,498.644,270.972,498.644z M270.972,465.324
			c6.176,0,11.201,5.025,11.201,11.201c0,6.174-5.025,11.199-11.201,11.199s-11.201-5.025-11.201-11.199
			C259.771,470.348,264.795,465.324,270.972,465.324z"/>
		<g>
			<path d="M306.189,175.179c-12.534,0-22.732,10.197-22.732,22.732c0,12.534,10.197,22.732,22.732,22.732
				c12.534,0,22.732-10.197,22.732-22.732C328.921,185.376,318.723,175.179,306.189,175.179z M306.189,209.72
				c-6.513,0-11.811-5.298-11.811-11.811c0-6.512,5.298-11.811,11.811-11.811c6.512,0,11.811,5.298,11.811,11.811
				C318,204.422,312.702,209.72,306.189,209.72z"/>
			<path d="M350.275,176.716v-13.607h-10.921v13.607c-4.39,2.057-7.438,6.505-7.438,11.673c0,5.17,3.048,9.616,7.438,11.673v14.919
				h10.921v-14.919c4.39-2.057,7.438-6.505,7.438-11.673C357.714,183.22,354.665,178.774,350.275,176.716z"/>
			<path d="M272.646,176.489v-13.607h-10.921v13.607c-4.39,2.057-7.438,6.505-7.438,11.673c0,5.17,3.048,9.616,7.438,11.673v14.919
				h10.921v-14.919c4.39-2.057,7.438-6.505,7.438-11.673C280.084,182.992,277.036,178.546,272.646,176.489z"/>
		</g>
	</g>
</g>
<g>
</g>
<g>
</g>
<g>
</g>
<g>
</g>
<g>
</g>
<g>
</g>
<g>
</g>
<g>
</g>
<g>
</g>
<g>
</g>
<g>
</g>
<g>
</g>
<g>
</g>
<g>
</g>
<g>
</g>
</svg>
