<?xml version="1.0" encoding="iso-8859-1"?>
<!-- Generator: Adobe Illustrator 18.1.1, SVG Export Plug-In . SVG Version: 6.00 Build 0)  -->
<svg version="1.1" id="Capa_1" xmlns="http://www.w3.org/2000/svg" xmlns:xlink="http://www.w3.org/1999/xlink" x="0px" y="0px"
	 viewBox="0 0 612 612" style="enable-background:new 0 0 612 612;" xml:space="preserve">
<g>
	<g>
		<path d="M149.986,311.252v-12.237c-15.297,0-26.647,11.644-26.647,25.411h12.237C135.577,316.777,142.338,311.252,149.986,311.252
			z"/>
		<path d="M148.456,270.586c-30.593,0-53.532,23.246-53.532,52.31h12.237c0-21.415,18.35-40.072,41.294-40.072V270.586z"/>
		<path d="M148.456,252.977V240.74c-45.89,0-83.366,37.796-83.366,82.156h12.237C77.327,284.654,108.685,252.977,148.456,252.977z"
			/>
		<path d="M535.63,353.773c0,0-124.908-125.514-128.059-128.387c17.663-18.051,28.589-42.723,28.629-69.911
			c12.809-3.232,22.169-14.798,22.169-28.508c0-13.726-9.38-25.303-22.211-28.522C435.199,44.002,390.658,0,336.011,0
			c-54.589,0-99.089,43.909-100.142,98.272c-13.124,2.932-23.009,14.735-23.009,28.695c0,13.944,9.863,25.736,22.968,28.684
			c0.087,27.147,11.024,51.777,28.682,69.795c-3.373,3.036-109.156,109.392-109.156,109.392l-8.535-8.54L81.956,391.19
			l44.423,44.442l20.032-20.041c5.472,2.763,11.407,4.141,17.329,4.141c9.967,0,19.788-3.85,27.266-11.327L228,371.302v83.144
			h32.123V612h151.436V454.446h30.593v-84.704l38.728,38.667c7.535,7.535,17.476,11.303,27.375,11.303
			c9.898,0,19.82-3.768,27.358-11.306C550.663,393.333,550.683,368.825,535.63,353.773z M436.031,111.388
			c6.119,2.735,9.927,8.696,9.927,15.581c0,6.883-3.809,12.844-9.927,15.58V111.388z M235.646,142.863
			c-6.119-2.559-10.723-8.736-10.723-15.896c0-7.159,4.604-13.336,10.723-15.896V142.863z M410.879,247.054
			c5.843,7.604,10.467,16.185,13.799,25.363h-28.459c0.653-18.356,1.435-36.706,2.06-38.867
			C402.793,237.556,407.075,242.09,410.879,247.054z M308.28,16.745c8.725-2.909,18.042-4.508,27.731-4.508
			c0.578,0,1.149,0.032,1.724,0.044c-1.328,5.089-2.008,10.333-2.008,15.677c0,20.045,9.395,38.258,24.871,49.779
			c-1.225,0.09-2.458,0.136-3.696,0.136c-27.509,0-49.89-22.391-49.89-49.914C307.012,24.161,307.442,20.404,308.28,16.745z
			 M247.884,100.234c0-33.729,19.162-63.071,47.078-77.835c-0.164,1.845-0.229,3.697-0.229,5.559
			c0,34.27,27.892,62.151,62.148,62.151c7.806,0,15.457-1.449,22.725-4.304l14.487-5.692l-14.478-5.696
			c-19.228-7.564-31.652-25.801-31.652-46.459c0-4.991,0.641-9.874,2.079-14.571c41.808,6.779,73.751,43.135,73.751,86.848v26.865
			h-12.237v-9.178h-68.834v16.826h-15.297v-16.826H258.59v9.178h-10.708v-26.865H247.884z M388.56,130.16h10.76v19.885h-13.04
			c3.208-3.059,5.253-6.652,5.253-11.139C391.53,135.61,390.415,131.689,388.56,130.16z M367.876,150.045h-12.916V130.16h10.634
			c-1.857,1.53-2.971,5.452-2.971,8.747C362.623,143.393,364.668,146.986,367.876,150.045z M305.626,130.16h9.562v19.885h-11.843
			c3.208-3.059,5.253-6.652,5.253-11.139C308.599,135.61,307.483,131.689,305.626,130.16z M284.943,150.045h-14.114V130.16h11.833
			c-1.857,1.53-2.971,5.452-2.971,8.747C279.691,143.393,281.735,146.986,284.943,150.045z M262.034,245.763
			c3.478-4.364,7.379-8.457,11.615-12.168c0.922,4.438,1.943,38.823,1.943,38.823h-28.929
			C250.181,263.239,255.394,254.035,262.034,245.763z M240.235,305.34c0-6.4,1.031-13.039,2.761-20.687h32.421v30.593h-35.182
			V305.34z M240.235,327.485h35.182v30.593h-35.182V327.485z M240.235,370.315h35.182v30.593h-35.182V370.315z M126.379,418.325
			L99.26,391.193l47.56-47.581l27.119,27.131L126.379,418.325z M227.998,353.989l-45.646,45.764
			c-7.13,7.13-17.437,9.413-26.631,6.483l35.5-35.494l-27.225-27.248l37.097-37.197l26.905,25.964V353.989z M232.28,276.895
			c-2.822,10.311-4.281,19.615-4.281,28.445v9.941l-18.247-17.64l23.309-23.32C232.8,275.181,232.514,276.036,232.28,276.895z
			 M240.235,442.209v-29.063h35.182v29.063h-15.124H240.235z M273.262,599.763c2.899-12.237,14.31-22.477,27.934-22.477
			c13.623,0,25.036,10.24,27.935,22.477H273.262z M330.485,576.838c-7.648-7.287-18.107-11.732-29.323-11.732
			c-10.96,0-21.155,4.248-28.803,11.24V454.444h58.127V576.838z M293.071,280.974l-5.244-37.496
			c9.689,5.996,35.886,11.725,35.886,11.725L293.071,280.974z M328.955,266.38v6.038h-6.545L328.955,266.38z M307.86,284.654h21.095
			v30.593h-41.301v-14.131L307.86,284.654z M328.955,327.485v30.593h-41.301v-30.593H328.955z M328.955,370.315v30.593h-41.301
			v-30.593H328.955z M328.955,413.145v29.063h-41.301v-29.063H328.955z M247.884,155.327v-15.989h10.708v22.945h68.834v-15.297
			h15.297v15.297h68.834v-22.945h12.237v15.989c0,48.522-39.456,87.996-87.955,87.996S247.884,203.848,247.884,155.327z
			 M341.192,358.078v-30.593h41.301v30.593H341.192z M382.493,370.315v30.593h-41.301v-30.593H382.493z M341.192,315.248v-30.593
			h23.079l18.221,16.133v14.46H341.192z M341.192,272.417v-6.408l8.546,6.408H341.192z M378.343,280.879l-30.275-25.646
			c0,0,25.421-6.106,34.599-11.598L378.343,280.879z M341.192,413.145h41.301v29.063h-41.301V413.145z M342.722,599.763v-0.421
			c3.059-12.309,14.109-22.027,27.56-22.027c13.623,0,24.786,10.21,27.684,22.448H342.722z M399.319,577.113
			c-7.648-7.451-17.568-12.008-28.926-12.008c-10.732,0-21.553,4.072-27.671,10.805V454.444h56.597V577.113z M429.912,442.209
			h-18.183H394.73v-29.063h35.182V442.209z M429.912,400.908H394.73v-30.593h35.182V400.908z M429.912,358.078H394.73v-30.593
			h35.182V358.078z M429.912,315.248h-35.009c0,0,0.373-13.767,0.904-30.593h32.369c1.262,6.119,1.736,13.039,1.736,20.687
			L429.912,315.248L429.912,315.248z M438.841,276.91c-0.333-1.231-0.667-2.44-1.037-3.65l19.54,19.613l-15.194,14.553v-2.085
			C442.149,294.611,441.126,285.309,438.841,276.91z M526.976,399.753c-10.301,10.299-27.145,10.299-37.444,0.002l-47.381-47.326
			v-28.023l23.869-22.876l60.915,60.897C537.219,372.71,537.26,389.457,526.976,399.753z"/>
	</g>
</g>
<g>
</g>
<g>
</g>
<g>
</g>
<g>
</g>
<g>
</g>
<g>
</g>
<g>
</g>
<g>
</g>
<g>
</g>
<g>
</g>
<g>
</g>
<g>
</g>
<g>
</g>
<g>
</g>
<g>
</g>
</svg>
