<?xml version="1.0" encoding="iso-8859-1"?>
<!-- Generator: Adobe Illustrator 18.1.1, SVG Export Plug-In . SVG Version: 6.00 Build 0)  -->
<svg version="1.1" id="Capa_1" xmlns="http://www.w3.org/2000/svg" xmlns:xlink="http://www.w3.org/1999/xlink" x="0px" y="0px"
	 viewBox="0 0 612 612" style="enable-background:new 0 0 612 612;" xml:space="preserve">
<g>
	<g>
		<circle cx="260.635" cy="159.642" r="13.742"/>
		<circle cx="337.36" cy="159.642" r="13.742"/>
		<path d="M512.717,500.423h-43.998v-74.117c7.549-1.23,14.504-4.772,19.994-10.275c6.937-6.937,10.758-16.159,10.758-25.971
			c0-9.811-3.82-19.034-10.758-25.969l-19.995-19.995v-31.654c14.534-2.509,26.177-15.483,26.177-30.565v-5.817h-62.535v5.817
			c0,14.576,10.874,27.184,24.723,30.279v20.306c0,0-86.345-86.8-90.397-90.6c17.511-17.585,27.546-41.305,27.831-66.165
			c12.242-3.016,21.189-14.022,21.189-27.123c0-13.1-8.948-24.105-21.191-27.123c-0.048-2.45-0.207-4.99-0.499-7.738
			c6.952-3.412,13.743-7.202,20.337-11.373l6.175-3.906l-43.628-43.232C371.238,23.736,343.494,0,310.857,0h-23.894
			c-32.94,0-60.505,23.491-66.072,55.4l-43.43,43.034l6.175,3.906c6.709,4.242,13.621,8.086,20.698,11.543
			c-0.198,2.609-0.269,5.121-0.286,7.455c-12.411,2.845-21.755,14.043-21.755,27.235c0,13.198,9.353,24.403,21.774,27.239
			c0.31,24.774,10.138,48.306,27.274,65.714c-1.815,1.604-121.408,122.56-121.408,122.56c-6.946,6.937-10.771,16.16-10.771,25.974
			c0,9.812,3.825,19.037,10.765,25.967c6.936,6.946,16.16,10.771,25.972,10.772l0,0c9.812,0,19.037-3.826,25.972-10.769
			l34.948-34.95v41.03c0,17.558,12.245,32.601,29.028,36.409V612h146.885V458.402c16.403-3.998,28.432-18.779,28.432-36.291v-41.685
			l35.604,35.603c5.595,5.595,12.658,9.155,20.314,10.331v74.06h-41.6l-0.127,42.675c-0.055,18.868,9.481,36.074,25.507,46.024
			l23.235,14.433l23.235-14.431c16.026-9.953,25.562-27.159,25.507-46.026L512.717,500.423z M153.643,407.806
			c-4.74,4.747-11.041,7.36-17.742,7.36c-6.703-0.001-13.003-2.615-17.747-7.365c-4.745-4.74-7.357-11.04-7.357-17.741
			c0-6.703,2.612-13.003,7.36-17.745l14.006-14.009l34.793,36.187L153.643,407.806z M196.822,318.071v46.557l-21.637,21.637
			l-34.794-36.187l60.423-60.432C198.176,298.784,196.822,308.323,196.822,318.071z M225.85,446.436
			c-10.198-3.477-17.393-13.156-17.393-24.325V318.071c0-19.344,6.018-37.757,17.393-53.326V446.436z M404.075,148.572
			c0,6.592-3.88,12.273-9.526,14.844v-29.687C400.194,136.3,404.075,141.982,404.075,148.572z M286.962,11.634h23.894
			c27.303,0,50.463,20.088,54.757,46.558c-21.188,8.774-43.562,13.231-66.617,13.231c-23.112,0-45.539-4.479-66.773-13.295
			C236.536,31.397,259.489,11.634,286.962,11.634z M224.993,67.715C248.461,77.9,273.336,83.06,298.997,83.06
			S349.532,77.9,373,67.715l28.866,28.603c-31.217,18.214-66.623,27.806-102.87,27.806s-71.654-9.593-102.87-27.806L224.993,67.715z
			 M193.928,148.572c0-6.749,4.194-12.597,10.107-15.058v30.116C198.122,161.169,193.928,155.321,193.928,148.572z M215.725,119.029
			c26.26,10.993,54.512,16.73,83.272,16.73c28.944,0,57.371-5.814,83.775-16.946c0.087,1.437,0.144,55.791,0.144,55.791
			c0,23.326-9.796,45.603-26.95,61.466c-0.366,0.339-1.752,1.571-1.752,1.571c-15.232,13.32-34.806,20.657-55.124,20.657
			c-20.232,0-39.755-7.346-54.989-20.686c0,0-1.342-1.194-1.677-1.502c-17.028-15.73-26.755-38.027-26.755-61.507
			C215.67,174.605,215.69,120.399,215.725,119.029z M265.116,263.641c10.76,4.119,22.26,6.293,33.973,6.293
			c10.817,0,21.442-1.848,31.471-5.345v34.736h-65.444V263.641z M292.816,600.366h-54.488c2.027-13.694,13.457-23.238,27.249-23.238
			c12.383,0,22.869,7.69,26.345,19.174C292.521,598.276,292.816,600.366,292.816,600.366z M305.166,600.366
			c2.027-13.694,13.457-23.238,27.249-23.238s25.222,9.546,27.249,23.238H305.166z M361.1,577.927
			c-7.167-7.664-17.372-12.434-28.685-12.434c-10.974,0-20.906,4.488-28.033,11.754V466.57h21.815v-11.634h-53.809v11.634h20.36
			v109.826c-7.056-6.763-16.631-10.904-27.171-10.904c-11.006,0-20.961,4.514-28.093,11.816V251.669
			c0.843-0.781,1.706-1.537,2.573-2.285c4.235,3.354,8.732,6.31,13.425,8.877v52.7h88.713v-51.315
			c5.602-2.833,10.945-6.207,15.923-10.129c1.017,0.883,2.013,1.78,2.983,2.701V577.927z M389.532,422.112
			c0,11.05-6.952,20.51-16.797,24.137V265.531c11.003,15.363,16.797,33.416,16.797,52.54V422.112z M445.692,287.69h36.816
			c-2.599,7.682-10.091,13.558-18.407,13.558C455.784,301.25,448.291,295.373,445.692,287.69z M401.166,363.976v-45.905
			c0-10.014-1.495-19.933-4.351-29.428l64.069,64.068l-34.793,36.187L401.166,363.976z M444.997,407.804l-10.678-10.678
			l34.793-36.187l11.374,11.374c4.74,4.74,7.349,11.041,7.349,17.744c0,6.704-2.609,13.006-7.354,17.75
			c-4.693,4.703-10.948,7.315-17.612,7.353c-0.047,0-0.092,0-0.138,0C456.04,415.161,449.746,412.552,444.997,407.804z
			 M481.196,579.24l-17.097,10.618l-17.097-10.619c-12.574-7.808-20.055-21.306-20.011-36.107l0.092-31.074h29.999v34.5h11.634
			v-34.5h32.398l0.092,31.074C501.251,557.933,493.77,571.431,481.196,579.24z"/>
		<path d="M257.882,363.188h8.016v41.225H332.5v-41.225h8.016v-37.972h-82.634L257.882,363.188L257.882,363.188z M320.865,392.778
			h-43.332v-29.591h43.332V392.778z M269.517,336.85h59.365v14.703h-59.365L269.517,336.85L269.517,336.85z"/>
	</g>
</g>
<g>
</g>
<g>
</g>
<g>
</g>
<g>
</g>
<g>
</g>
<g>
</g>
<g>
</g>
<g>
</g>
<g>
</g>
<g>
</g>
<g>
</g>
<g>
</g>
<g>
</g>
<g>
</g>
<g>
</g>
</svg>
