<?xml version="1.0" encoding="iso-8859-1"?>
<!-- Generator: Adobe Illustrator 18.1.1, SVG Export Plug-In . SVG Version: 6.00 Build 0)  -->
<svg version="1.1" id="Capa_1" xmlns="http://www.w3.org/2000/svg" xmlns:xlink="http://www.w3.org/1999/xlink" x="0px" y="0px"
	 viewBox="0 0 611.999 611.999" style="enable-background:new 0 0 611.999 611.999;" xml:space="preserve">
<g>
	<g>
		<path d="M508.897,389.025c0,0-110.425-110.9-110.579-111.037c11.027-11.148,19.034-25.276,22.726-41.049
			c2.937,2.183,6.56,3.494,10.493,3.494c9.727,0,17.641-7.914,17.641-17.641c0-4.815-1.943-9.181-5.081-12.368
			c3.138-3.187,5.081-7.553,5.081-12.368c0-4.954-2.061-9.43-5.361-12.638c3.013-3.19,4.837-7.474,4.837-12.095
			c0-7.366-4.587-13.811-11.189-16.411c-2.962-24.902-15.068-47.743-33.83-64.242l68.387-29.458L336.915,0L201.794,63.211
			l67.487,29.077c-19.032,16.711-31.23,39.885-34.071,65.114c-5.997,2.882-10.047,9.059-10.047,15.919
			c0,4.862,2.049,9.371,5.374,12.614c-3.001,3.164-4.856,7.425-4.856,12.119c0,4.815,1.943,9.181,5.081,12.368
			c-3.138,3.187-5.081,7.553-5.081,12.368c0,9.727,7.914,17.641,17.641,17.641c3.54,0,6.833-1.057,9.598-2.86
			c3.757,15.519,11.701,29.416,22.581,40.415c-4.609,4.075-106.963,108.012-106.963,108.012l-17.854-17.863l19.981-19.981
			l-29.886-29.889l-47.426,47.426l29.888,29.889l19.985-19.987l18.27,18.279c-3.732,5.471-5.744,11.927-5.744,18.695
			c0,8.896,3.467,17.259,9.761,23.544c6.492,6.492,15.018,9.738,23.544,9.738s17.053-3.246,23.544-9.738l31.683-31.683v144.685
			h26.763v62.886h60.593h10.547h60.593v-62.886h26.75V403.837l32.277,32.277c6.492,6.492,15.018,9.738,23.544,9.738
			s17.053-3.246,23.544-9.738c6.289-6.289,9.752-14.649,9.752-23.544S515.185,395.313,508.897,389.025z M123.24,380.663
			l-14.972-14.972l32.51-32.509l14.972,14.972L123.24,380.663z M431.536,229.885c-3.912,0-7.094-3.183-7.094-7.094
			s3.183-7.094,7.094-7.094s7.094,3.183,7.094,7.094S435.448,229.885,431.536,229.885z M431.536,205.15
			c-3.912,0-7.094-3.183-7.094-7.094s3.183-7.094,7.094-7.094s7.094,3.183,7.094,7.094S435.448,205.15,431.536,205.15z
			 M427.328,161.491l0.348,4.26l4,0.51c2.895,0.369,5.424,2.361,6.181,5.18c1.097,4.084-1.535,8.026-5.383,8.808
			c-0.003,0.001-0.005,0.001-0.009,0.001c-1.115,0.191-2.26,0.163-3.37-0.058c-0.795-0.158-1.717-0.401-2.761-0.728
			c-1.864-0.583-11.032-4.382-11.699-4.658c-34.344-14.062-59.766-43.277-69.009-78.876h45.31
			C411.941,111.62,425.199,135.453,427.328,161.491z M287.358,85.386V61.028c32.354-8.423,66.755-8.423,99.103,0v24.358H287.358z
			 M227.53,62.816l109.385-51.17l109.372,51.17L397.008,84.04V53.003l-3.842-1.084c-36.536-10.306-75.725-10.332-112.292-0.063
			l-4.063,1.147v31.045L227.53,62.816z M243.323,229.885c-3.912,0-7.094-3.183-7.094-7.094s3.183-7.094,7.094-7.094
			s7.094,3.183,7.094,7.094S247.234,229.885,243.323,229.885z M243.323,205.15c-3.912,0-7.094-3.183-7.094-7.094
			s3.183-7.094,7.094-7.094s7.094,3.183,7.094,7.094S247.234,205.15,243.323,205.15z M244.877,179.988
			c-1.173,0.344-2.41,0.434-3.618,0.243c-0.004-0.001-0.007-0.001-0.011-0.001c-3.212-0.709-5.54-3.611-5.54-6.907
			c0-3.309,2.336-6.221,5.556-6.924l3.826-0.837l0.306-3.904c2.043-26.049,15.181-49.943,36.068-65.725h46.07
			c-9.172,35.753-34.691,65.002-69.247,78.932C257.655,175.12,249.151,178.735,244.877,179.988z M261.029,217.237V185.15
			c0.457-0.196,0.864-0.368,1.201-0.504c36.311-14.638,63.472-44.787,74.355-81.849c10.935,36.891,37.98,67.004,74.046,81.77
			c0.603,0.248,1.334,0.564,2.157,0.922v31.749c0,40.118-31.293,73.045-70.744,75.694v-16.485h-10.547v16.463
			C292.175,290.118,261.029,257.257,261.029,217.237z M367.191,341.215l-15.681-15.571l26.238-32.253
			c4.465-2.405,8.684-5.202,12.637-8.326c0.095,0.083,0.191,0.166,0.286,0.249C397.003,306.825,375.876,332.02,367.191,341.215z
			 M296.177,293.442l26.351,32.369l-15.519,15.409c-3.449-3.644-8.86-9.815-13.749-17.334c-6.721-10.337-13.665-25.269-9.665-38.697
			C287.532,288.284,291.734,291.057,296.177,293.442z M205.145,428.656c-8.87,8.869-23.302,8.869-32.175-0.003
			c-4.301-4.297-6.67-10.008-6.67-16.084c0-6.076,2.369-11.788,6.672-16.087l12.007-12.008l32.805,31.542L205.145,428.656z
			 M244.285,347.308v42.205l-19.041,19.041l-32.807-31.542l55.468-55.475C245.513,329.824,244.285,338.472,244.285,347.308z
			 M254.832,538.567V347.31c0-17.828,5.628-34.792,16.275-49.053c0.277-0.37,0.576-0.725,0.86-1.09
			c2.268,28.058,30.026,54.073,31.441,55.381l3.71,3.43l22.1-21.946l2.278,2.798v201.739h-76.664V538.567z M282.269,601.453
			c2.585-11.359,12.508-19.115,24.345-19.115c11.838,0,21.76,7.756,24.345,19.115H282.269z M331.641,582.053
			c-6.432-6.356-15.276-10.262-25.027-10.262c-9.747,0-18.588,3.904-25.019,10.254v-32.931h50.046V582.053z M316.01,301.1
			c6.697,1.67,13.697,2.571,20.904,2.571c7.234,0,14.26-0.906,20.979-2.589l-20.941,25.743L316.01,301.1z M342.861,601.453
			c2.585-11.359,12.508-19.115,24.345-19.115s21.76,7.756,24.345,19.115H342.861z M392.234,582.054
			c-6.432-6.357-15.277-10.264-25.028-10.264c-9.745,0-18.587,3.902-25.018,10.253v-32.929h50.046L392.234,582.054L392.234,582.054z
			 M418.984,538.567h-76.941V337.281l2.779-3.416l22.265,22.111l3.71-3.43c1.408-1.301,28.88-27.048,31.405-54.933
			c10.977,14.373,16.782,31.501,16.782,49.696L418.984,538.567L418.984,538.567z M429.531,388.922V347.31
			c0-9.076-1.351-18.07-3.943-26.676l57.661,57.661l-32.805,31.541L429.531,388.922z M501.438,428.656
			c-8.87,8.87-23.302,8.87-32.172,0l-11.362-11.362l32.805-31.541l10.729,10.729c4.297,4.297,6.662,10.01,6.662,16.087
			C508.1,418.646,505.735,424.36,501.438,428.656z"/>
		<circle cx="302.133" cy="203.682" r="12.457"/>
		<circle cx="371.687" cy="203.682" r="12.457"/>
		<path d="M295.719,246.433h10.547c0-5.106,4.154-9.262,9.26-9.262h15.571v-10.547h-15.571
			C304.605,226.625,295.719,235.512,295.719,246.433z"/>
		<path d="M365.793,246.433h10.547c0-10.921-8.886-19.809-19.807-19.809h-15.571v10.547h15.571
			C361.638,237.172,365.793,241.327,365.793,246.433z"/>
	</g>
</g>
<g>
</g>
<g>
</g>
<g>
</g>
<g>
</g>
<g>
</g>
<g>
</g>
<g>
</g>
<g>
</g>
<g>
</g>
<g>
</g>
<g>
</g>
<g>
</g>
<g>
</g>
<g>
</g>
<g>
</g>
</svg>
