<?xml version="1.0" encoding="iso-8859-1"?>
<!-- Generator: Adobe Illustrator 18.1.1, SVG Export Plug-In . SVG Version: 6.00 Build 0)  -->
<svg version="1.1" id="Capa_1" xmlns="http://www.w3.org/2000/svg" xmlns:xlink="http://www.w3.org/1999/xlink" x="0px" y="0px"
	 viewBox="0 0 611.997 611.997" style="enable-background:new 0 0 611.997 611.997;" xml:space="preserve">
<g>
	<g>
		<path d="M505.065,353.576c0,0-123.302-123.973-128.254-128.67c17.682-17.845,28.702-42.284,29.027-69.256
			c12.993-3.081,22.489-14.671,22.489-28.567c0-13.908-9.502-25.507-22.501-28.587C404.916,44.033,360.358,0,305.681,0
			s-99.235,44.033-100.146,98.497c-12.997,3.08-22.499,14.679-22.499,28.585c0,13.896,9.496,25.486,22.487,28.567
			c0.324,26.936,11.318,51.346,28.961,69.185c-5.458,4.825-127.513,128.74-127.513,128.74c-7.29,7.29-11.305,16.983-11.305,27.294
			s3.716,20.005,11.007,27.297c2.614,2.61,5.244,4.758,8.301,6.462v61.343h113.1v136.026h152.838V453.045h32.096v-81.733
			l37.153,36.854c7.53,7.521,17.567,11.283,27.454,11.283c9.887,0,19.849-3.761,27.372-11.284
			c7.29-7.29,11.342-16.983,11.342-27.295C516.332,370.56,512.355,360.865,505.065,353.576z M405.369,111.364
			c6.114,2.65,10.231,8.674,10.231,15.718c0,7.038-4.117,13.057-10.231,15.704V111.364z M311.992,12.478
			c37.123,2.647,67.934,28.416,78.082,62.962c-5.667,1.721-11.565,2.6-17.604,2.6c-33.459,0-60.68-27.221-60.68-60.68
			C311.792,15.729,311.862,14.099,311.992,12.478z M299.363,12.479c0.13,1.62,0.2,3.251,0.2,4.882c0,33.459-27.22,60.68-60.68,60.68
			c-6.029,0-11.924-0.879-17.596-2.598C231.436,40.898,262.243,15.129,299.363,12.479z M205.15,142.786
			c-6.114-2.647-10.229-8.666-10.229-15.703c0-7.044,4.116-13.068,10.229-15.718V142.786z M217.377,154.429v-54.241
			c0-4.339,0.5-8.602,1.111-12.776c6.537,1.889,13.396,2.853,20.311,2.853c29.829,0,55.56-18.014,66.836-43.727
			c11.278,25.714,36.987,43.727,66.815,43.727c6.924,0,13.46-0.964,19.994-2.853c0.61,4.172,0.698,8.437,0.698,12.776v54.241
			c0,48.485-39.48,88.307-87.958,88.334C256.704,242.736,217.377,202.914,217.377,154.429z M305.631,257.461l20.736,17.511
			l-20.61,20.305l-20.6-20.6L305.631,257.461z M263.078,277.263l-4.672-34.529c10.054,5.404,21.13,9.134,32.857,10.832
			L263.078,277.263z M319.987,253.58c11.663-1.675,22.681-5.362,32.694-10.705l-4.574,34.448L319.987,253.58z M202.014,275.526
			c-2.779,9.572-4.506,19.536-4.506,29.689v49.127l-21.578,21.877l-38.038-36.571L202.014,275.526z M107.895,380.87
			c0-7.044,2.743-13.668,7.724-18.648l13.927-13.928l38.038,36.571l-14.653,14.653c-10.28,10.281-27.02,10.281-37.312,0
			C110.637,394.538,107.895,387.916,107.895,380.87z M127.203,463.747v-44.85c3.057,0.362,4.31,0.553,6.479,0.553
			c4.007,0,8.805-0.63,11.862-1.865v29.348h12.227v-35.906c1.528-0.886,2.181-1.836,3.207-2.861l19.719-19.719v58.487h12.227
			v-64.192h-6.558l15.284-15.284h47.825v96.288H127.203V463.747z M242.153,599.773c2.725-12.227,14.426-22.894,28.408-22.894
			s25.683,10.667,28.408,22.894H242.153z M298.382,576.619c-6.114-7.031-17.411-11.333-28.42-11.333
			c-11.636,0-22.016,4.804-29.658,12.559V475.974h21.397v-22.926h36.681V576.619z M298.382,440.821h-36.681v-85.589h-51.965v-50.015
			c0-20.332,6.754-39.822,18.97-56.391l0.611-0.625c4.142-5.53,8.993-10.605,14.297-15.152c0.397,0.315,0.831,0.631,1.233,0.94
			l9.076,66.933l21.83-18.347l13.169,13.162l-25.5,90.24l34.96,35.257L298.382,440.821L298.382,440.821z M277.422,382.385
			l21.428-76.572l13.684-0.064l21.402,76.636l-28.257,28.255L277.422,382.385z M312.396,599.773
			c2.725-12.227,14.426-22.894,28.408-22.894s25.683,10.667,28.408,22.894H312.396z M368.687,576.679
			c-6.114-7.067-17.442-11.393-28.483-11.393c-11.603,0-21.954,4.776-29.596,12.493V453.048h58.079V576.679z M400.783,440.821
			h-90.175v-18.42l36.724-36.424l-24.983-89.994l13.321-13.091l21.576,18.189l8.897-66.844c0.501-0.381,1.001-0.778,1.495-1.168
			c4.668,4.399,11.474,11.594,13.227,13.841c13.222,16.954,19.916,37.118,19.916,58.308v135.603H400.783z M413.011,354.021v-48.806
			c0-10.336-1.177-20.451-4.049-30.15l66.219,66.069l-38.262,36.571L413.011,354.021z M496.419,399.52
			c-10.28,10.28-27.02,10.281-37.312,0l-13.167-13.167l38.037-36.571l12.441,12.441c4.981,4.979,7.723,11.603,7.723,18.648
			C504.143,387.916,501.4,394.538,496.419,399.52z"/>
		<circle cx="265.366" cy="138.71" r="14.442"/>
		<circle cx="345.999" cy="138.71" r="14.442"/>
		<rect x="342.705" y="313.965" width="38.21" height="12.227"/>
		<rect x="217.377" y="382.742" width="12.227" height="64.192"/>
	</g>
</g>
<g>
</g>
<g>
</g>
<g>
</g>
<g>
</g>
<g>
</g>
<g>
</g>
<g>
</g>
<g>
</g>
<g>
</g>
<g>
</g>
<g>
</g>
<g>
</g>
<g>
</g>
<g>
</g>
<g>
</g>
</svg>
