<?xml version="1.0" encoding="iso-8859-1"?>
<!-- Generator: Adobe Illustrator 18.1.1, SVG Export Plug-In . SVG Version: 6.00 Build 0)  -->
<svg version="1.1" id="Capa_1" xmlns="http://www.w3.org/2000/svg" xmlns:xlink="http://www.w3.org/1999/xlink" x="0px" y="0px"
	 viewBox="0 0 612 612" style="enable-background:new 0 0 612 612;" xml:space="preserve">
<g>
	<g>
		<path d="M522.495,370.002l-50.563-50.664V137.567C471.932,61.713,409.99,0,334.136,0S196.339,61.713,196.339,137.567v182.415
			l-37.994,38.128l-10.471-10.646c3.688-12.094,0.805-25.789-8.742-35.336c-6.672-6.672-15.527-10.347-24.962-10.347
			c-9.437,0-18.3,3.675-24.972,10.347c-13.774,13.774-13.77,36.186,0.004,49.96c6.672,6.672,15.546,10.346,24.982,10.346
			c2.594,0,5.145-0.287,7.62-0.83l15.211,15.223c-0.724,2.889-1.099,5.887-1.099,8.942c0,9.735,3.79,18.885,10.673,25.767
			c6.883,6.883,16.033,10.673,25.767,10.673c3.056,0,6.053-0.374,8.94-1.099l5.432,5.434c3.466,3.466,8.02,5.199,12.572,5.199
			c4.552,0,9.106-1.733,12.572-5.199c6.933-6.933,6.933-18.212,0-25.145l-1.789-1.805l22.327-22.311v33.999l-12.576,107.032h44.32
			V612h141.403v-83.688h42.955l-12.654-108.243v-33.566l35.019,35.035c6.883,6.883,16.026,10.673,25.76,10.673
			c9.735,0,18.882-3.79,25.761-10.67c6.891-6.883,10.732-16.033,10.732-25.77C533.132,386.034,529.384,376.882,522.495,370.002z
			 M207.883,137.567c0-69.49,56.763-126.024,126.253-126.024s126.253,56.534,126.253,126.024v170.227
			c0,0-55.551-55.411-59.063-59.561c16.893-17.077,27.32-40.466,27.32-66.242v-50.734l-6.839,1.265
			c-8.771,1.626-13.81,2.352-20.427,2.352c-42.41,0-78.99-31.435-85.085-73.119l-11.48,0.593
			c-1.397,33.224-27.812,60.884-61.464,64.339l-5.167,0.532v54.774c0,26.164,10.755,49.876,28.099,67.017
			c-5.914,6.443-58.4,59.431-58.4,59.431V137.567z M365.464,347.975l-24.835,20.508v-8.242l38.739-95.284
			c0.668-0.365,1.169-0.752,1.827-1.131l-2.231,56.039l-21.411,0.071L365.464,347.975z M353.191,297.449H315.55l-10.38-25.215
			c8.919,2.753,18.394,4.29,28.213,4.29c10.664,0,20.913-1.853,30.496-5.079L353.191,297.449z M333.414,265.032
			c-46.145,0-83.688-37.253-83.688-83.043v-44.523c28.858-4.819,51.899-24.646,61.72-50.625
			c14.928,35.189,50.182,59.577,89.95,59.577c5.471,0,9.936-0.439,15.707-1.351v36.924
			C417.102,227.779,379.561,265.032,333.414,265.032z M275.054,256.665c0.066,0.051,0.123,0.104,0.19,0.154l2.863,74.554
			l17.859,0.056l-5.932,20.665l39.053,31.611v23.404h-85.131v-82.763C243.955,298.268,255.234,273.849,275.054,256.665z
			 M303.314,348.033l8.327-28.097l-22.425-0.071l-2.127-55.26c1.024,0.569,2.368,1.111,3.414,1.643l38.583,93.361v9.2
			L303.314,348.033z M320.284,308.993h28.178l-14.084,34.373L320.284,308.993z M340.629,383.381l37.977-31.23l-5.914-20.721
			l17.381-0.058l2.85-75.113c1.776,1.505,3.44,3.019,4.949,4.528c17.055,17.069,26.445,39.642,26.445,63.559v82.763h-83.688V383.381
			z M114.185,360.892c-6.353,0-12.325-2.473-16.818-6.966c-9.273-9.273-9.273-24.362,0-33.635
			c4.492-4.493,10.465-6.966,16.818-6.966c6.353,0,12.325,2.473,16.818,6.966c9.273,9.272,9.273,24.362,0,33.635
			C126.512,358.417,120.539,360.892,114.185,360.892z M142.042,375.527l-8.717-8.724c2.084-1.349,4.043-2.919,5.841-4.715
			c1.108-1.108,2.095-2.29,3.026-3.502l7.978,7.835l-3.581,3.581C144.879,371.712,143.359,373.563,142.042,375.527z
			 M172.356,420.667c-6.65,0-12.904-2.589-17.605-7.292c-4.702-4.701-7.292-10.954-7.292-17.605c0-6.65,2.59-12.904,7.292-17.605
			l13.702-13.702l35.902,34.518l-14.393,14.393C185.259,418.078,179.007,420.667,172.356,420.667z M203.713,428.382
			c-2.433,2.433-6.389,2.431-8.82,0.001l-2.296-2.297c1.965-1.319,3.818-2.837,5.528-4.548l3.783-3.782l1.806,1.807
			c1.177,1.177,1.827,2.744,1.827,4.411C205.539,425.637,204.89,427.204,203.713,428.382z M232.412,370.956l-19.879,19.863
			l-35.911-34.52l59.645-59.633c-2.539,8.891-3.855,18.188-3.855,27.68V370.956z M329.086,600.457h-53.309
			c2.508-11.543,13.667-21.489,26.73-21.489c12.848,0,23.694,9.17,26.58,21.2V600.457z M329.086,578.014
			c-7.214-6.464-16.168-10.435-26.347-10.435c-10.523,0-19.825,4.239-27.04,11.094v-50.363h53.387V578.014z M394.016,600.457
			h-53.309c2.508-11.543,13.667-21.489,26.73-21.489c12.848,0,23.694,9.17,26.58,21.2V600.457z M394.016,578.014
			c-7.214-6.464-16.168-10.435-26.347-10.435c-10.523,0-19.825,4.239-27.04,11.094v-50.363h53.387V578.014z M232.813,516.769
			l11.445-98.117H424.09l11.445,98.117H232.813z M435.86,370.177v-45.831c0-9.872-1.447-19.537-4.184-28.77l63.222,63.239
			l-35.892,34.52L435.86,370.177z M514.236,413.376c-4.701,4.702-10.954,7.291-17.605,7.291c-6.65,0-12.904-2.589-17.606-7.292
			l-11.876-11.876l35.904-34.52l11.187,11.188c4.708,4.702,7.3,10.953,7.3,17.603S518.947,408.67,514.236,413.376z"/>
		<circle cx="296.114" cy="167.155" r="13.634"/>
		<circle cx="372.237" cy="167.155" r="13.634"/>
	</g>
</g>
<g>
</g>
<g>
</g>
<g>
</g>
<g>
</g>
<g>
</g>
<g>
</g>
<g>
</g>
<g>
</g>
<g>
</g>
<g>
</g>
<g>
</g>
<g>
</g>
<g>
</g>
<g>
</g>
<g>
</g>
</svg>
