<?xml version="1.0" encoding="iso-8859-1"?>
<!-- Generator: Adobe Illustrator 18.1.1, SVG Export Plug-In . SVG Version: 6.00 Build 0)  -->
<svg version="1.1" id="Capa_1" xmlns="http://www.w3.org/2000/svg" xmlns:xlink="http://www.w3.org/1999/xlink" x="0px" y="0px"
	 viewBox="0 0 611.999 611.999" style="enable-background:new 0 0 611.999 611.999;" xml:space="preserve">
<g>
	<g>
		<circle cx="220.373" cy="166.016" r="13.607"/>
		<circle cx="296.343" cy="166.016" r="13.607"/>
		<path d="M480.15,260.477l-8.146,8.145l7.453,7.453c-10.467,14.265-10.547,34.978-0.223,49.331l-38.027,38.04
			c0,0-113.384-113.355-115.753-116.264c17.137-17.345,26.962-40.697,27.263-65.202c12.247-2.894,21.198-13.814,21.198-26.921
			c0-13.115-8.954-24.042-21.204-26.935c-0.048-2.894,0.04-33.73,0.04-33.73C352.752,42.345,310.407,0,258.357,0
			s-94.395,42.345-94.395,94.395v13.376H103.9v11.52h60.062v0.192c0,0,0.084,5.751,0.036,8.647
			c-12.25,2.904-21.204,13.83-21.204,26.931c0,13.091,8.951,24.01,21.2,26.915c0.3,24.51,10.127,47.865,27.269,65.213
			c-4.562,5.543-120.119,121.268-120.119,121.268c-6.869,6.869-10.652,16-10.652,25.714c0,9.716,3.783,18.848,10.65,25.715
			c7.089,7.089,16.4,10.633,25.717,10.633c9.314-0.001,18.634-3.545,25.73-10.633l34.605-34.606v77.622h28.843v149.097h66.182h11.52
			h66.182V462.901h29.608v-78.254l30.23,30.23l-13.366,13.366l8.146,8.145l13.563-13.563c6.551,5.124,14.462,7.694,22.382,7.694
			c9.314,0,18.634-3.545,25.73-10.633c13.117-13.117,14.09-33.84,2.938-48.096l38.144-38.156c7.001,5.292,15.683,8.163,24.968,8.163
			c9.164,0,17.981-2.851,24.959-7.953l6.136,6.136l8.146-8.145L480.15,260.477z M352.747,140.244
			c5.711,2.49,9.648,8.169,9.648,14.816c0,6.641-3.937,12.315-9.648,14.803V140.244z M163.964,169.855
			c-5.711-2.494-9.648-8.163-9.648-14.795c0-6.637,3.937-12.312,9.648-14.807V169.855z M341.232,94.395v13.568h-20.854
			c-2.539-20.017-18.107-36.024-37.918-39.211v-7.42c0-18.065-5.659-35.219-16.125-49.419
			C308.303,15.939,341.232,51.389,341.232,94.395z M308.748,107.962H241.65c2.745-16.036,16.743-28.277,33.549-28.277
			C292.005,79.685,306.004,91.927,308.748,107.962z M175.484,94.395c0-43.301,33.386-78.929,75.765-82.549
			c12.701,13.355,19.692,30.849,19.692,49.485v7.04c-21.223,1.977-38.255,18.572-40.922,39.591l-54.536-0.192L175.484,94.395
			L175.484,94.395z M114.447,411.74c-9.698,9.69-25.469,9.688-35.158,0.003c-4.693-4.693-7.276-10.932-7.276-17.571
			c0-6.637,2.583-12.876,7.278-17.569l13.12-13.12l35.839,34.456L114.447,411.74z M157.196,322.89v46.099l-20.799,20.801
			l-35.839-34.456l60.582-60.582C158.532,303.795,157.196,313.238,157.196,322.89z M178.781,451.383h-10.066V426.01h10.066V451.383z
			 M198.177,600.48c2.641-12.02,13.611-21.802,26.716-21.802s24.075,9.782,26.716,21.802H198.177z M252.22,578.36
			c-7.024-6.938-16.681-11.2-27.327-11.2c-10.65,0-20.31,4.265-27.335,11.208V462.904h4.264v17.827h11.52v-17.827h38.878
			L252.22,578.36L252.22,578.36z M190.301,451.383V426.01h11.52v25.373H190.301z M191.793,387.031l6.731-12.669h33.11v12.669
			H191.793z M213.341,426.01h12.96v25.373h-12.96V426.01z M252.221,451.383h-14.4V426.01h14.4V451.383z M252.221,414.49h-38.88
			v-15.938h29.812v-35.709H191.6l-18.972,35.709h29.193v15.938h-33.106v-91.598c0-19.477,6.133-37.99,17.735-53.535
			c3.948-5.291,8.49-10.103,13.491-14.409c14.998,11.827,33.218,18.805,52.279,20.043L252.221,414.49L252.221,414.49z
			 M258.356,263.694c-20.12,0-39.518-7.296-54.622-20.546l-0.696-0.606c-17.523-15.726-27.553-38.167-27.553-61.72v-16.891h10.498
			v-44.448h43.662h91.113h10.665v44.448h9.806v16.891c0,23.44-9.935,45.78-27.304,61.495l-0.949,0.832
			C297.886,256.399,278.488,263.694,258.356,263.694z M263.741,426.01h7.2v25.373h-7.2V426.01z M264.357,600.48
			c2.641-12.02,13.611-21.802,26.716-21.802s24.075,9.782,26.716,21.802H264.357z M318.402,578.362
			c-7.024-6.938-16.682-11.202-27.33-11.202c-10.649,0-20.308,4.265-27.334,11.206V462.903H318.4v115.459H318.402z M282.461,451.383
			V426.01h13.425v25.373H282.461z M326.5,451.383h-19.094V426.01H326.5V451.383z M307.408,414.49
			c0.019-5.249,4.293-9.513,9.546-9.513c5.252,0,9.527,4.264,9.546,9.513H307.408z M348.01,451.383h-9.988V426.01h9.988V451.383z
			 M348.01,414.49h-9.991c-0.012-6.673-3.148-12.616-8.014-16.471c4.873-3.862,8.015-9.818,8.015-16.505v-14.423H326.5v14.423
			c0,5.263-4.284,9.547-9.547,9.547c-5.265,0-9.547-4.284-9.547-9.547v-13.29h-11.52v13.29c0,6.687,3.142,12.643,8.015,16.505
			c-4.864,3.855-8.002,9.798-8.014,16.471h-32.146V275.042c19.354-1.102,37.868-8.12,53.057-20.114
			c3.884,3.142,9.41,9.284,11.406,11.776c12.771,15.839,19.806,35.791,19.806,56.187L348.01,414.49L348.01,414.49z M382.359,391.187
			l-22.83-22.83V322.89c0-9.917-1.482-19.742-4.313-29.143l62.981,62.981L382.359,391.187z M438.071,411.74
			c-9.698,9.687-25.471,9.687-35.158,0.003l-12.407-12.407l35.839-34.458l11.723,11.723
			C447.757,386.291,447.757,402.053,438.071,411.74z M512.266,330.278c-8.109,0-15.535-2.959-20.909-8.332
			c-9.641-9.641-10.847-26.212-3.619-37.59l41.207,41.207C524.179,328.6,518.347,330.278,512.266,330.278z"/>
		<rect x="288.221" y="312.25" width="44.64" height="11.52"/>
	</g>
</g>
<g>
</g>
<g>
</g>
<g>
</g>
<g>
</g>
<g>
</g>
<g>
</g>
<g>
</g>
<g>
</g>
<g>
</g>
<g>
</g>
<g>
</g>
<g>
</g>
<g>
</g>
<g>
</g>
<g>
</g>
</svg>
