<?xml version="1.0" encoding="iso-8859-1"?>
<!-- Generator: Adobe Illustrator 18.1.1, SVG Export Plug-In . SVG Version: 6.00 Build 0)  -->
<svg version="1.1" id="Capa_1" xmlns="http://www.w3.org/2000/svg" xmlns:xlink="http://www.w3.org/1999/xlink" x="0px" y="0px"
	 viewBox="0 0 612.001 612.001" style="enable-background:new 0 0 612.001 612.001;" xml:space="preserve">
<g>
	<rect x="348.791" y="578.888" style="fill:none;stroke:#FF0000;stroke-miterlimit:10;" width="18.131" height="7.831"/>
	<g>
		<circle cx="321.409" cy="198.624" r="12.612"/>
		<circle cx="391.823" cy="198.624" r="12.612"/>
		<path d="M530.802,386.301c0,0-110.53-111.169-111.912-112.396c15.408-15.588,24.994-36.932,25.217-60.478
			c11.343-2.703,19.632-12.825,19.632-24.961c0-9.586-5.174-17.917-12.937-22.326l21.138-51.12l-33.675-81.136L356.31,0
			l-81.136,33.673l-33.882,81.956l20.996,50.586c-7.686,4.427-12.797,12.714-12.797,22.25c0,12.147,8.289,22.268,19.634,24.964
			c0.224,23.546,9.809,44.889,25.218,60.477c-4.656,4.132-96.681,97.752-96.681,97.752l-89.66-89.658
			c-4.061-4.063-9.457-6.301-15.192-6.301c-5.726,0-11.116,2.238-15.179,6.301c-4.059,4.057-6.294,9.452-6.294,15.186
			s2.235,11.128,6.291,15.184l95.628,95.628c-0.575,9.301,2.673,18.797,9.76,25.893l0.243,0.228
			c6.345,6.284,14.749,9.743,23.681,9.743c8.99,0,17.44-3.503,23.791-9.861l32.093-32.093v71.904h27.094V606.75
			c0,0.017,0,5.251,0,5.251h61.344h10.72h61.331v-138.19h27.094v-72.496l32.684,32.684c6.358,6.359,14.812,9.861,23.8,9.861
			c8.938,0,17.339-3.461,23.678-9.748l0.233-0.22c6.359-6.359,9.861-14.812,9.861-23.8
			C540.662,401.099,537.159,392.649,530.802,386.301z M453.019,188.464c0,6.125-3.626,11.367-8.891,13.682v-27.363
			C449.393,177.099,453.019,182.339,453.019,188.464z M269.103,202.152c-5.266-2.311-8.893-7.555-8.893-13.686
			c0-6.132,3.627-11.374,8.893-13.686V202.152z M252.894,115.621l30.49-73.749l72.934-30.27l73.748,30.49l30.27,72.934
			l-16.708,40.412c-1.652-15.509-7.391-29.807-16.105-41.818c-4.738-35.068-34.964-61.348-70.9-61.348
			c-35.949,0-66.173,26.278-70.91,61.348c-8.778,12.1-14.545,26.519-16.149,42.161L252.894,115.621z M356.856,77.473h-0.48
			c-20.548,0-39.446,7.155-54.373,19.082c9.967-20.036,30.814-33.563,54.618-33.563c23.795,0,44.641,13.527,54.606,33.562
			C396.301,84.627,377.403,77.473,356.856,77.473z M379.076,91.491c-0.318,11.812-10.259,21.914-22.46,21.914
			c-12.202,0-22.143-10.102-22.46-21.914c7.036-2.139,14.494-3.3,22.221-3.3h0.48C364.582,88.192,372.039,89.353,379.076,91.491z
			 M279.823,212.592v-47.847c0-30.548,17.993-56.965,43.932-69.236c2.329,15.506,16.175,28.618,32.86,28.618
			c16.685,0,30.531-13.112,32.86-28.618c25.94,12.27,43.933,38.687,43.933,69.236v47.847c0,42.21-34.341,76.552-76.552,76.552h-0.48
			C314.165,289.144,279.823,254.802,279.823,212.592z M397.489,289.792l-3.682,27.216l-21.957-18.462
			C380.956,296.964,389.579,293.973,397.489,289.792z M341.39,298.549l-21.958,18.462l-3.689-27.217
			C323.656,293.974,332.283,296.965,341.39,298.549z M273.543,344.022c0-18.027,5.684-35.178,16.435-49.601
			c3.663-4.904,7.855-9.348,12.452-13.304c0.492,0.389,0.977,0.784,1.478,1.162l7.52,55.47l39.834-33.494V431.48H332.34v6.085
			h-58.796v-93.543H273.543z M151.562,340.716l-15.213,15.213l-20.737-20.736l15.213-15.213L151.562,340.716z M82.057,297.184
			c0-2.872,1.119-5.573,3.154-7.606c2.038-2.038,4.737-3.161,7.599-3.161c2.872,0,5.576,1.122,7.614,3.161l12.281,12.281
			l-15.213,15.213l-12.281-12.281C83.176,302.755,82.057,300.055,82.057,297.184z M183.018,386.299
			c-2.861,2.861-5.097,6.114-6.709,9.589l-21.836-21.836l15.213-15.213l20.397,20.397L183.018,386.299z M223.147,426.42
			c-4.327,4.332-10.083,6.719-16.208,6.719c-6.126,0-11.887-2.387-16.22-6.721l-0.228-0.214c-8.828-8.956-8.793-23.424,0.107-32.324
			l9.051-9.051l33.184,31.906L223.147,426.42z M262.823,344.022v42.722l-22.408,22.408l-33.184-31.906l59.232-59.232
			C264.056,326.379,262.823,335.106,262.823,344.022z M273.543,463.091v-14.807h58.796v14.807H273.543z M301.201,601.28
			c2.44-11.785,12.604-19.79,24.744-19.79s22.304,8.005,24.744,19.79H301.201z M351.261,581.107
			c-6.512-6.409-15.456-10.335-25.316-10.335c-9.855,0-18.797,3.923-25.309,10.33V473.811h31.702v6.224h18.922v101.072H351.261z
			 M343.059,469.315v-27.114h27.114v27.114H343.059z M362.542,601.28c2.44-11.785,12.604-19.79,24.744-19.79
			c12.141,0,22.305,8.005,24.745,19.79H362.542z M412.592,581.098c-6.511-6.404-15.451-10.326-25.307-10.326
			c-9.854,0-18.793,3.922-25.305,10.326V480.035h18.912v-6.224h31.698v107.287H412.592z M439.686,463.091h-58.792v-14.807h58.792
			V463.091z M439.686,437.565h-58.792v-6.085h-18.912V304.255l39.836,33.495l7.505-55.47c0.509-0.385,1.002-0.787,1.503-1.182
			c1.553,1.339,3.071,2.735,4.526,4.19c2.127,2.127,4.136,4.368,5.984,6.676c11.832,14.674,18.348,33.161,18.348,52.058v93.544
			H439.686z M450.406,386.155v-42.133c0-9.171-1.368-18.253-3.98-26.948l58.731,58.739l-31.907,33.186L450.406,386.155z
			 M523.324,426.207l-0.225,0.213c-4.327,4.332-10.083,6.719-16.21,6.719c-6.126,0-11.885-2.387-16.22-6.721l-9.837-9.837
			l31.907-33.186l10.484,10.485c4.333,4.327,6.72,10.083,6.72,16.208C529.942,416.167,527.593,421.885,523.324,426.207z"/>
		<rect x="287.773" y="353.549" width="46.899" height="10.72"/>
		<polygon points="412.041,344.676 402.518,348.101 392.994,344.676 391.2,354.636 383.469,361.171 391.2,367.706 392.994,377.667 
			402.518,374.241 412.041,377.667 413.837,367.706 421.566,361.171 413.837,354.636 		"/>
	</g>
</g>
<g>
</g>
<g>
</g>
<g>
</g>
<g>
</g>
<g>
</g>
<g>
</g>
<g>
</g>
<g>
</g>
<g>
</g>
<g>
</g>
<g>
</g>
<g>
</g>
<g>
</g>
<g>
</g>
<g>
</g>
</svg>
