<?xml version="1.0" encoding="iso-8859-1"?>
<!-- Generator: Adobe Illustrator 18.1.1, SVG Export Plug-In . SVG Version: 6.00 Build 0)  -->
<svg version="1.1" id="Capa_1" xmlns="http://www.w3.org/2000/svg" xmlns:xlink="http://www.w3.org/1999/xlink" x="0px" y="0px"
	 viewBox="0 0 612.005 612.005" style="enable-background:new 0 0 612.005 612.005;" xml:space="preserve">
<g>
	<g>
		<path d="M531.681,352.028c0,0-124.323-124.189-126.646-126.176c18.758-17.915,30.557-43.037,30.894-70.882
			c12.939-3.062,22.393-14.598,22.393-28.445c0-13.858-9.46-25.405-22.405-28.463C435.009,43.839,390.646,0,336.21,0
			c-54.437,0-98.801,43.84-99.708,98.066c-12.948,3.066-22.412,14.614-22.412,28.46c0,13.835,9.459,25.373,22.399,28.442
			c0.329,27.29,11.659,51.974,29.769,69.812c-5.796,4.439-115.593,114.652-115.593,114.652l-8.771-8.771
			c3.891-12.756,0.816-27.2-9.253-37.269c-7.036-7.036-16.392-10.912-26.344-10.912s-19.307,3.876-26.345,10.912
			c-14.526,14.526-14.526,38.163,0,52.69c7.036,7.036,16.392,10.911,26.345,10.911c2.948,0,5.84-0.348,8.639-1.009l13.201,13.199
			c-0.866,3.229-1.324,6.59-1.324,10.023c0,10.267,3.997,19.918,11.254,27.176c7.494,7.494,17.34,11.241,27.182,11.241
			c3.165,0,6.329-0.393,9.415-1.167l8.141,8.141c3.655,3.655,8.458,5.483,13.26,5.483c4.801,0,9.603-1.828,13.259-5.483
			c7.31-7.312,7.31-19.207,0-26.519l-4.209-4.293l21.757-21.674v81.635h30.434v158.257h152.17V453.748h30.434v-84.937l37.489,37.572
			c7.491,7.49,17.288,11.235,27.133,11.235c9.842,0,19.669-3.745,27.168-11.235c7.258-7.258,11.245-16.909,11.245-27.176
			C542.946,368.941,538.94,359.287,531.681,352.028z M436.869,110.873c4.565,2.634,10.189,8.633,10.189,15.654
			c0,7.015-5.624,13.009-10.189,15.64V110.873z M236.004,142.162c-6.087-2.636-10.195-8.628-10.195-15.635
			c0-7.014,4.109-13.011,10.195-15.649V142.162z M336.665,12.174c48.29,0,88.03,39.286,88.03,87.577v4.825
			c-50.216-1.94-90.562-42.183-92.687-92.258C333.625,12.228,335.024,12.174,336.665,12.174z M319.203,13.844
			c1.685,31.654,17.335,60.01,40.798,78.921c-16.293,1.983-32.875-1.073-47.943-9.028c-17.977-9.494-31.849-24.938-39.643-43.895
			C284.7,26.77,300.934,17.455,319.203,13.844z M263.841,50.493c8.322,17.026,21.171,31.183,37.276,40.996
			c-17.36,2.978-35.03,0.543-51.1-7.146C252.223,71.975,257.015,60.492,263.841,50.493z M248.178,153.754V99.75
			c0-0.886,0.268-1.761,0.294-2.639c12.154,5.183,25.134,7.802,38.106,7.802c10.186,0,20.493-1.619,30.515-4.876l1.01-0.306
			c10.437,3.851,21.317,5.814,32.222,5.814c7.951,0,16.375-1.051,24.2-3.132c14.811,8.549,31.909,13.695,50.169,14.333v37.008
			c0,48.29-39.826,86.951-88.116,86.951h-0.498C287.792,240.705,248.178,202.044,248.178,153.754z M402.107,283.715l-16.976,5.787
			v-48.769c0-0.505,1.755-1.009,2.636-1.541L402.107,283.715z M401.511,326.742l-16.38,47.022v-70.695L401.511,326.742z
			 M298.394,403.527V291.069l25.919-14.96c3.116,3.202,7.558,5.264,12.123,5.544v121.876h-38.042V403.527z M313.611,415.701v10.652
			h-15.217v-10.652H313.611z M319.313,266.647l-20.919,12.122v-31.997l21.103,12.228c-0.323,1.366-0.511,2.782-0.511,4.246
			C318.984,264.41,319.106,265.544,319.313,266.647z M329.817,263.246c0-4.159,3.384-7.543,7.543-7.543
			c4.159,0,7.543,3.384,7.543,7.543c0,4.159-3.384,7.543-7.543,7.543C333.201,270.789,329.817,267.405,329.817,263.246z
			 M325.785,415.701h47.173v10.652h-47.173V415.701z M350.132,403.527V277.9l22.826,13.169v112.458H350.132z M355.125,268.533
			c0.502-1.677,0.738-3.448,0.738-5.286c0-2.126-0.316-4.162-0.982-6.064l18.075-10.405v31.995L355.125,268.533z M286.221,239.922
			v49.61l-17.238-5.817l14.678-45.307C284.492,238.925,284.699,239.427,286.221,239.922z M106.298,344.819
			c-6.7,0-13-2.608-17.735-7.347c-9.78-9.78-9.78-25.692,0-35.472c4.737-4.737,11.037-7.347,17.735-7.347
			c6.7,0,12.998,2.61,17.735,7.347c9.78,9.78,9.78,25.694,0.002,35.472C119.296,342.209,112.998,344.819,106.298,344.819z
			 M132.914,358.419l-6.974-7.023c2.401-1.496,4.652-3.267,6.702-5.317c1.268-1.268,2.386-2.628,3.431-4.022l5.983,5.983
			l-3.988,3.988C136.103,353.994,134.387,356.138,132.914,358.419z M146.676,397.772c-4.959-4.959-7.691-11.553-7.691-18.568
			c0-7.015,2.731-13.607,7.691-18.566l13.864-13.864l37.871,36.411l-14.585,14.587C173.584,408.013,156.919,408.015,146.676,397.772
			z M200.716,415.985c-1.242,1.242-2.894,1.926-4.652,1.926c-1.756,0-3.409-0.685-4.65-1.926l-4.818-4.818
			c2.06-1.377,4.019-2.97,5.837-4.787l3.99-3.99l4.293,4.293c1.242,1.242,1.926,2.894,1.926,4.65
			C202.643,413.091,201.958,414.744,200.716,415.985z M226.874,303.88v51.012l-19.768,19.683l-37.913-36.411l61.317-61.253
			C228.078,285.536,226.874,294.578,226.874,303.88z M239.048,441.57V303.879c0-26.54,11.687-50.709,32.484-67.655l-17.863,55.165
			l20.721,7.035l-18.247,26.479l30.076,86.13v30.537H239.048z M286.221,302.937v71.089l-16.471-47.284L286.221,302.937z
			 M269.5,599.826c1.583-13.695,13.844-25.837,28.699-25.837c14.853,0,27.115,12.142,28.698,25.837H269.5z M339.436,599.826
			c1.584-13.695,13.844-25.837,28.698-25.837c14.853,0,27.115,12.142,28.698,25.837H339.436z M397.305,574.035
			c-7.608-7.402-17.69-11.953-29.001-11.953c-11.224,0-21.216,4.484-28.824,11.784V467.439h16.739v-12.174h-47.173v12.174h18.26
			v106.537c-7.609-7.365-17.658-11.894-28.938-11.894c-11.254,0-21.278,4.507-28.886,11.843V453.743h28.912v-15.217h74.563v15.217
			h24.347V574.035z M427.739,441.57h-42.608v-30.799l29.827-85.868l-18.362-26.479l20.721-7.035L400.013,237.6
			c17.685,16.555,27.725,40.176,27.725,66.279L427.739,441.57L427.739,441.57z M439.912,351.59v-47.71
			c0-10.783-1.605-21.196-4.506-30.994l66.711,66.754l-37.808,36.411L439.912,351.59z M523.076,397.769
			c-10.249,10.238-26.916,10.238-37.151,0.002l-13.111-13.111l37.871-36.411l12.388,12.388c4.959,4.958,7.689,11.553,7.689,18.566
			C530.762,386.216,528.032,392.813,523.076,397.769z"/>
		<circle cx="323.304" cy="300.87" r="9.187"/>
		<circle cx="323.304" cy="342.305" r="9.187"/>
		<circle cx="323.304" cy="383.737" r="9.186"/>
		<circle cx="296.069" cy="138.103" r="14.379"/>
		<circle cx="376.351" cy="138.103" r="14.379"/>
	</g>
</g>
<g>
</g>
<g>
</g>
<g>
</g>
<g>
</g>
<g>
</g>
<g>
</g>
<g>
</g>
<g>
</g>
<g>
</g>
<g>
</g>
<g>
</g>
<g>
</g>
<g>
</g>
<g>
</g>
<g>
</g>
</svg>
