<?xml version="1.0" encoding="iso-8859-1"?>
<!-- Generator: Adobe Illustrator 18.1.1, SVG Export Plug-In . SVG Version: 6.00 Build 0)  -->
<svg version="1.1" id="Capa_1" xmlns="http://www.w3.org/2000/svg" xmlns:xlink="http://www.w3.org/1999/xlink" x="0px" y="0px"
	 viewBox="0 0 612 612" style="enable-background:new 0 0 612 612;" xml:space="preserve">
<g>
	<g>
		<path d="M475.597,392.329c0,0-107.945-108.664-109.336-109.906c3.081-3.14,5.915-6.522,8.485-10.104
			c6.833,4.542,14.782,6.944,23.076,6.944c1.219,0,2.447-0.052,3.678-0.156c19.119-1.619,34.659-15.96,37.788-34.871
			c2.125-12.745-1.818-25.624-10.75-35.341c-9.289-10.075-14.444-22.659-14.444-35.433v-1.458c0-26.294-9.475-51.677-26.753-71.471
			c-16.716-19.148-39.545-31.821-64.476-35.861L268.49,10.186l-12.003,14.64L214.125,0l-4.132,49.408l-18.884,0.702l13.92,80.003
			c-5.55,13.25-8.41,27.318-8.41,41.889v0.925c0,13.099-5.053,25.799-14.297,35.756c-6.666,7.171-10.512,16.808-10.865,27.141
			c-0.625,19.091,11.37,35.59,28.609,41.3c-1.233,0.988-2.42,2.042-3.553,3.175l-6.944,6.945l6.946,6.946
			c7.01,7.01,16.029,11.276,25.758,12.271l-85.867,85.868c-12.819,12.819-12.819,33.689,0.003,46.526
			c6.416,6.41,14.84,9.613,23.264,9.613c8.424,0,16.808-3.205,23.219-9.614l30.655-30.695v11.331l-19.26,68.797h46.607V612h59.984
			h10.418h59.822V488.287h46.024l-19.979-70.766v-10.493l31.871,31.831c6.416,6.41,14.86,9.613,23.284,9.613
			s16.86-3.206,23.271-9.617C488.407,426.02,488.416,405.15,475.597,392.329z M386.745,351.138v61.618h-75.53v-75.849
			c24.743-2.444,44.757-22.07,47.672-47.066c1.375,1.212,8.079,8.092,10.017,10.504
			C380.422,314.648,386.745,332.687,386.745,351.138z M380.234,222.657c0,41.325-33.59,74.946-74.879,74.946
			s-74.879-33.62-74.879-74.946v-46.215c0-1.543,0.366-3.183,0.832-4.896c9.763,9.096,23.671,14.642,37.732,14.642
			c14.883,0,28.813-6.406,38.463-17.425c9.648,11.021,23.573,17.425,38.458,17.425c13.469,0,25.437-5.344,34.46-15.046
			c-0.081,1.724-0.188,3.493-0.188,5.3V222.657z M306.087,326.81h-0.326c-11.264,0-22.042-4.598-30.343-12.888
			c-0.122-0.122-0.284-0.328-0.454-0.538c-0.268-4.081-1.119-8.135-2.551-12.016c10.163,4.287,21.322,6.658,33.025,6.658
			c14.931,0,28.972-3.842,41.192-10.617C340.886,314.53,324.777,326.81,306.087,326.81z M255.641,295.491
			c10.495,11.762,10.495,29.645,0,41.406c-5.098-5.705-7.885-12.99-7.885-20.703C247.756,308.482,250.543,301.197,255.641,295.491z
			 M237.091,307.292c-0.612,2.895-0.914,5.873-0.914,8.902c0,11.398,4.448,22.116,12.509,30.176l6.95,6.946l6.947-6.946
			c5.732-5.732,9.45-12.702,11.232-20.058c7.966,6.04,17.865,9.699,26.981,10.617v75.828h-76.832v-61.618
			C223.966,335.509,228.517,320.447,237.091,307.292z M223.13,17.351l26.674,15.631l-12.645,15.417l-16.676,0.62L223.13,17.351z
			 M242.236,58.636l27.021-32.944l44.785,44.869l-10.396,9.031c-20.777,18.049-45.835,31.269-72.464,38.23l-16.911,4.421
			l-10.848-62.165L242.236,58.636z M181.889,236.171c0.271-7.932,3.033-14.985,8.065-20.4
			c11.043-11.892,17.083-27.109,17.083-42.846v-0.925c0-13.693,2.817-26.882,8.228-39.262l18.532-4.839
			c28.171-7.364,54.69-21.35,76.671-40.445l13.792-11.977c21.349,4.159,40.794,15.368,55.228,31.904
			c15.622,17.897,24.186,40.845,24.186,64.62v1.458c0,15.398,6.135,30.489,17.197,42.488c6.739,7.332,9.712,17.016,8.118,26.579
			c-2.314,13.983-14.244,25-28.381,26.197c-7.303,0.617-14.409-1.228-20.338-5.227c6.636-12.139,10.381-26.057,10.381-40.842
			v-46.215c0-16.706-4.313-28.621-4.313-28.621s-5.003,8.134-6.696,10.504c-8.95,12.533-24.315,17.445-33.686,17.445
			c-13.78,0-26.521-6.899-34.09-18.455l-4.355-6.653l-4.356,6.653c-7.57,11.557-20.315,18.455-34.095,18.455
			c-14.131,0-28.507-7.164-35.778-17.825l-7.052-10.28c0,0-6.173,15.652-6.173,28.777v46.215c0,14.857,3.86,28.835,10.557,41.015
			c-2.448,1.615-8.543,5.994-19.578,5.088C194.135,267.37,181.33,253.231,181.889,236.171z M226.694,279.36
			c7.712,0,14.998,2.788,20.703,7.885c-5.706,5.098-12.991,7.886-20.703,7.886c-7.713,0-14.998-2.788-20.703-7.886
			C211.696,282.148,218.981,279.36,226.694,279.36z M143.775,431.49c-8.761-8.771-8.761-23.034-0.003-31.794l5.71-5.71
			l32.415,31.166l-6.335,6.335C166.805,440.249,152.542,440.246,143.775,431.49z M189.228,417.785l-32.396-31.166l5.885-5.876
			l11.827,11.822l7.369-7.367l-11.82-11.822l5.964-5.963l11.822,11.822l7.367-7.367l-11.82-11.822l33.596-33.637
			c-2.269,7.983-3.474,16.282-3.474,24.73v42.288L189.228,417.785z M300.798,488.287v10.418h-49.485v-10.418H300.798z
			 M360.701,582.657c-6.511-6.69-15.293-11.061-25.141-11.061c-9.444,0-17.833,4.024-24.344,10.254v-72.726h49.485V582.657z
			 M359.745,601.582h-48.21c2.469-10.418,12.331-19.508,24.106-19.508C347.414,582.073,357.276,591.164,359.745,601.582z
			 M300.798,582.067c-6.511-6.355-15.012-10.471-24.567-10.471c-9.732,0-18.407,4.267-24.918,10.823v-73.295h49.485V582.067z
			 M300.416,601.582h-48.21c2.469-10.418,12.331-19.508,24.104-19.508C288.085,582.073,297.947,591.164,300.416,601.582z
			 M360.701,498.705h-49.485v-10.418h49.485V498.705z M208.069,477.869l15.305-54.694h164.682l15.304,54.694H208.069z
			 M393.327,324.834l35.322,35.302l-11.721,11.731l7.371,7.367l11.734-11.732l5.964,5.963l-11.731,11.732l7.367,7.367l11.732-11.732
			l6.046,6.046l-32.456,31.166l-25.793-25.753v-41.155C397.163,342.184,395.872,333.318,393.327,324.834z M468.23,431.489
			c-8.759,8.759-23.022,8.759-31.792,0l-6.075-6.074l32.415-31.167l5.45,5.45C476.991,408.456,476.989,422.72,468.23,431.489z"/>
		<circle cx="271.363" cy="209.263" r="12.305"/>
		<circle cx="340.067" cy="209.263" r="12.305"/>
		<path d="M259.485,98.678c2.013,0,3.915-0.457,5.649-1.357c3.823-1.983,6.358-5.946,6.95-10.871
			c0.513-4.264-0.432-8.979-2.663-13.279c-3.706-7.143-10.207-11.758-16.562-11.758c-2.013,0-3.915,0.457-5.649,1.357
			c-3.823,1.983-6.358,5.946-6.95,10.871c-0.513,4.264,0.434,8.979,2.663,13.279C246.63,94.063,253.131,98.678,259.485,98.678z
			 M250.604,74.888c0.172-1.43,0.697-2.502,1.405-2.869c0.242-0.126,0.521-0.188,0.852-0.188c2.003,0,5.247,2.151,7.315,6.137
			c1.258,2.425,1.83,5.062,1.568,7.237c-0.172,1.43-0.697,2.502-1.405,2.869c-1.705,0.884-5.756-1.305-8.166-5.95
			C250.914,79.7,250.342,77.061,250.604,74.888z"/>
		<path d="M338.814,355.459h-9.367v10.418h8.956c1.994,6.511,8.187,11.568,15.507,11.568s13.512-5.057,15.507-11.568h9.517v-10.418
			h-9.928c-2.339-6.511-8.215-10.389-15.096-10.389C347.028,345.07,341.153,348.948,338.814,355.459z M359.678,361.194
			c0,3.181-2.588,5.77-5.769,5.77c-3.181,0-5.769-2.589-5.769-5.77s2.588-5.769,5.769-5.769
			C357.091,355.425,359.678,358.013,359.678,361.194z"/>
	</g>
</g>
<g>
</g>
<g>
</g>
<g>
</g>
<g>
</g>
<g>
</g>
<g>
</g>
<g>
</g>
<g>
</g>
<g>
</g>
<g>
</g>
<g>
</g>
<g>
</g>
<g>
</g>
<g>
</g>
<g>
</g>
</svg>
