<?xml version="1.0" encoding="iso-8859-1"?>
<!-- Generator: Adobe Illustrator 18.1.1, SVG Export Plug-In . SVG Version: 6.00 Build 0)  -->
<svg version="1.1" id="Capa_1" xmlns="http://www.w3.org/2000/svg" xmlns:xlink="http://www.w3.org/1999/xlink" x="0px" y="0px"
	 viewBox="0 0 612 612" style="enable-background:new 0 0 612 612;" xml:space="preserve">
<g>
	<g>
		<circle cx="270.946" cy="197.046" r="12.69"/>
		<circle cx="341.798" cy="197.046" r="12.69"/>
		<path d="M481.55,385.6L368.381,272.671c15.458-15.673,25.079-37.096,25.33-60.731c11.658-2.49,20.438-12.859,20.438-25.224
			c0-12.372-8.78-22.749-20.44-25.239c-0.095-7.022-1.031-13.954-2.752-20.663l11.978-8.129l13.668-61.441l-39.081-51.498L305.768,0
			L234.03,20.182l-39.055,52.141l13.682,60.343l11.94,8.109c-1.754,6.816-2.697,13.858-2.772,20.984
			c-11.108,2.92-19.225,13.05-19.225,24.958c0,11.9,8.116,22.024,19.221,24.943c0.169,23.039,9.151,44.685,25.356,61.094
			C239.256,276.18,130.449,385.6,130.449,385.6c-6.413,6.406-9.945,14.923-9.945,23.984c0,9.062,3.532,17.581,9.945,23.987
			c6.609,6.599,15.287,9.899,23.968,9.899c8.68,0,17.361-3.3,23.97-9.9l32.704-32.684v72.787h28.203V612h131.612V473.673h28.203
			v-74.585l34.504,34.482c6.605,6.605,15.283,9.907,23.966,9.907c8.68,0,17.362-3.301,23.972-9.904
			c6.414-6.406,9.946-14.925,9.946-23.987C491.495,400.523,487.963,392.005,481.55,385.6z M393.736,172.673
			c5.646,2.184,9.669,7.652,9.669,14.045c0,6.387-4.024,11.85-9.669,14.031V172.673z M217.806,200.245
			c-5.023-2.452-8.461-7.612-8.461-13.529c0-5.921,3.438-11.086,8.461-13.541V200.245z M211.091,385.697l-40.299,40.273
			c-9.029,9.018-23.721,9.018-32.751,0c-4.381-4.377-6.794-10.196-6.794-16.384c0-6.19,2.412-12.008,6.795-16.386l48.827-48.804
			l24.221,23.266v18.035H211.091z M211.091,343.148v9.616l-16.621-15.965l20.621-20.611
			C212.448,324.876,211.091,333.923,211.091,343.148z M218.198,126.158L206.55,74.791l33.896-45.252l65.354-18.387l65.364,17.989
			l33.87,44.633l-11.661,52.418l-5.881,3.991c-3.371-8.478-8.063-16.427-13.96-23.544l-0.066-29.877l-3.905-1.101
			c-20.882-5.886-42.526-8.87-64.33-8.87c-21.712,0-43.268,2.96-64.068,8.798l-3.943,1.107l0.171,30.71
			c-5.594,6.904-10.068,14.579-13.32,22.742L218.198,126.158z M329.767,93.16c0.007-0.231-0.132-0.458-0.132-0.692
			c0-5.243-1.442-10.088-4.287-14.058c4.375,0.38,7.953,0.892,13.325,1.524c0,4.899,0,9.8,0,14.699
			c4.029,0.949,9.401,1.977,14.773,2.926c0-4.942,0-9.883,0-14.825c2.686,0.677,6.213,1.395,9.291,2.204l0.031,14.21
			c-3.106-0.481-6.636-1.017-9.322-1.589c0,4.504,0,9.007,0,13.51c-5.372-0.83-10.744-1.524-14.773-2.088c0-4.784,0-9.566,0-14.35
			C334.645,94.107,332.625,93.61,329.767,93.16z M318.725,92.468c0,7.431-6.05,13.475-13.486,13.475s-13.488-6.046-13.488-13.475
			c0-7.429,6.05-13.475,13.488-13.475C312.675,78.993,318.725,85.038,318.725,92.468z M281.131,93.199
			c-2.772,0.44-5.577,0.924-8.263,1.436c0,4.781,0,9.561,0,14.342c-5.372,0.563-10.744,1.254-16.116,2.083c0-4.499,0-8.999,0-13.498
			c-2.686,0.565-5.865,1.093-8.929,1.57l-0.211-14.268c3.074-0.803,6.454-1.515,9.14-2.186c0,4.962,0,9.923,0,14.884
			c5.372-0.949,10.744-1.977,16.116-2.926c0-4.913,0-9.825,0-14.738c4.029-0.615,8.459-1.115,12.749-1.487
			c-2.846,3.97-4.574,8.815-4.574,14.06C281.041,92.716,281.123,92.955,281.131,93.199z M228.549,210.999v-48.321
			c0-12.966,3.288-25.646,9.405-36.886l6.01-1.303c40.273-8.732,82.827-8.707,123.087,0.074l6.539,1.425v-0.005
			c0,0,0.54,0.751,0.71,1.053c6.214,10.945,8.69,23.089,8.69,35.643v48.321c0,42.551-34.641,77.168-77.222,77.168
			c-20.628,0-40.022-8.027-54.608-22.601C236.581,250.983,228.549,231.604,228.549,210.999z M346.489,288.888
			c-6.607,16.37-22.653,27.656-41.282,27.656c-18.626,0-34.74-11.528-41.424-28.262c12.74,6.934,27.077,10.628,41.988,10.628
			C320.458,298.91,334.304,295.275,346.489,288.888z M251.32,601.256c2.499-12.087,12.551-19.446,24.555-19.446
			c12.004,0,22.056,7.36,24.555,19.446H251.32z M250.037,580.468V473.673h49.69V580.24c-6.715-6.199-15.049-9.97-24.724-9.97
			C265.208,570.268,256.752,574.131,250.037,580.468z M311.754,601.256c2.499-12.087,12.552-19.446,24.555-19.446
			c12.004,0,22.056,7.36,24.555,19.446H311.754z M310.471,580.085V473.671h49.69v106.795c-5.372-6.338-15.252-10.199-25.047-10.199
			C325.52,570.268,317.186,573.977,310.471,580.085z M388.364,462.929h-166.53V343.148c0-18.479,6.159-36.191,17.812-51.224
			c2.976-3.845,6.638-7.646,10.902-11.34c4.484,26.856,27.404,46.702,54.779,46.702c27.535,0,50.621-20.083,54.536-47.039
			c0.094-0.074,0.188-0.148,0.282-0.222c3.595,3.16,6.974,6.736,10.248,10.842c11.756,14.667,17.97,32.745,17.97,52.28V462.929z
			 M394.685,313.971l21.626,21.615l-17.204,16.532v-8.97C399.108,333.007,397.596,323.214,394.685,313.971z M473.957,425.97
			c-9.036,9.023-23.726,9.023-32.75,0.001l-42.1-42.073v-16.88l24.805-23.837l50.045,50.018c4.382,4.375,6.794,10.195,6.794,16.384
			C480.751,415.774,478.339,421.593,473.957,425.97z"/>
		<rect x="267.496" y="391.751" width="14.773" height="16.116"/>
		<rect x="282.269" y="407.867" width="16.116" height="14.773"/>
		<rect x="298.385" y="391.751" width="14.773" height="16.116"/>
		<rect x="329.273" y="391.751" width="14.773" height="16.116"/>
		<rect x="313.157" y="407.867" width="16.116" height="14.773"/>
		<path d="M322.558,367.577h52.376V332.66h-52.376V367.577z M333.302,343.403h30.889v13.43h-30.889V343.403z"/>
	</g>
</g>
<g>
</g>
<g>
</g>
<g>
</g>
<g>
</g>
<g>
</g>
<g>
</g>
<g>
</g>
<g>
</g>
<g>
</g>
<g>
</g>
<g>
</g>
<g>
</g>
<g>
</g>
<g>
</g>
<g>
</g>
</svg>
