<?xml version="1.0" encoding="utf-8"?>
<!-- Generator: Adobe Illustrator 16.0.0, SVG Export Plug-In . SVG Version: 6.00 Build 0)  -->
<!DOCTYPE svg PUBLIC "-//W3C//DTD SVG 1.1//EN" "http://www.w3.org/Graphics/SVG/1.1/DTD/svg11.dtd">
<svg version="1.1" xmlns="http://www.w3.org/2000/svg" xmlns:xlink="http://www.w3.org/1999/xlink" x="0px" y="0px" width="50px"
	 height="50px" viewBox="0 0 50 50" enable-background="new 0 0 50 50" xml:space="preserve">
<g id="Layer_2" display="none">
	<rect x="2.5" y="2.5" display="inline" fill="none" stroke="#999999" stroke-miterlimit="10" width="45" height="45"/>
</g>
<g id="Layer_1">
	<path d="M25,2.5C12.594,2.5,2.5,12.593,2.5,25S12.594,47.5,25,47.5S47.5,37.407,47.5,25S37.406,2.5,25,2.5z M41.626,12.913h-0.962
		c-0.415,0-0.782,0.268-0.91,0.662l-2.062,6.346l-5.393,2.37l-6.342-4.607v-6.36l5.351-3.886c0.336-0.244,0.476-0.676,0.348-1.07
		l-0.305-0.939C35.519,6.785,39.096,9.441,41.626,12.913z M18.649,5.428l-0.305,0.939c-0.128,0.395,0.012,0.826,0.348,1.07
		l5.351,3.886v6.36l-6.342,4.607l-5.394-2.371l-2.063-6.346c-0.128-0.395-0.496-0.662-0.91-0.662h-0.96
		C10.904,9.441,14.481,6.785,18.649,5.428z M4.416,24.984l0.806,0.586c0.168,0.122,0.365,0.184,0.563,0.184
		c0.197,0,0.395-0.062,0.563-0.184l5.3-3.85l5.393,2.371l2.447,7.527l-3.261,3.882H9.573c-0.415,0-0.782,0.268-0.91,0.662
		l-0.297,0.913C5.893,33.68,4.415,29.514,4.415,25C4.415,24.994,4.416,24.989,4.416,24.984z M18.633,44.566l0.797-0.581
		c0.336-0.243,0.477-0.677,0.349-1.07l-2.031-6.247l3.261-3.881h7.982l3.258,3.881l-2.03,6.248c-0.128,0.395,0.013,0.826,0.349,1.07
		l0.797,0.58c-2.006,0.654-4.143,1.02-6.365,1.02C22.777,45.586,20.64,45.221,18.633,44.566z M41.633,37.078l-0.297-0.916
		c-0.129-0.394-0.497-0.661-0.911-0.661l-6.654,0.001l-3.258-3.882l2.446-7.528l5.394-2.37l5.3,3.849
		c0.167,0.122,0.365,0.184,0.563,0.184c0.198,0,0.396-0.062,0.563-0.184l0.806-0.586c0,0.005,0.001,0.01,0.001,0.016
		C45.585,29.514,44.106,33.68,41.633,37.078z"/>
</g>
</svg>
