<?xml version="1.0" encoding="utf-8"?>
<!-- Generator: Adobe Illustrator 16.0.0, SVG Export Plug-In . SVG Version: 6.00 Build 0)  -->
<!DOCTYPE svg PUBLIC "-//W3C//DTD SVG 1.1//EN" "http://www.w3.org/Graphics/SVG/1.1/DTD/svg11.dtd">
<svg version="1.1" xmlns="http://www.w3.org/2000/svg" xmlns:xlink="http://www.w3.org/1999/xlink" x="0px" y="0px" width="50px"
	 height="50px" viewBox="0 0 50 50" enable-background="new 0 0 50 50" xml:space="preserve">
<g id="Layer_2" display="none">
	<rect x="2.5" y="2.5" display="inline" fill="none" stroke="#999999" stroke-miterlimit="10" width="45" height="45"/>
</g>
<g id="Layer_1">
	<g>
		<path d="M42.703,10.48c-0.063-0.475-0.469-0.831-0.947-0.831h-4.787c-0.48,0-0.887,0.356-0.951,0.831l-2.879,21.625V21.868
			c0-0.374-0.219-0.713-0.557-0.87c-0.342-0.156-0.742-0.1-1.025,0.143l-7.994,6.859v-6.133c0-0.374-0.218-0.713-0.557-0.87
			c-0.34-0.156-0.74-0.1-1.024,0.143l-7.993,6.859v-6.133c0-0.374-0.218-0.713-0.558-0.87c-0.338-0.156-0.739-0.1-1.023,0.143
			l-9.575,8.217C2.622,29.54,2.5,29.805,2.5,30.085v16.458c0,0.529,0.429,0.958,0.958,0.958h43.085c0.274,0,0.538-0.119,0.721-0.327
			c0.182-0.207,0.266-0.483,0.227-0.756L42.703,10.48z M12.074,36.878c0,0.265-0.214,0.479-0.479,0.479H4.894
			c-0.265,0-0.479-0.214-0.479-0.479v-2.873c0-0.265,0.215-0.479,0.479-0.479h6.702c0.265,0,0.479,0.214,0.479,0.479V36.878z
			 M21.648,36.878c0,0.265-0.214,0.479-0.479,0.479h-6.702c-0.265,0-0.479-0.214-0.479-0.479v-2.873
			c0-0.265,0.214-0.479,0.479-0.479h6.702c0.265,0,0.479,0.214,0.479,0.479V36.878z M31.223,36.878c0,0.265-0.215,0.479-0.479,0.479
			h-6.702c-0.265,0-0.479-0.214-0.479-0.479v-2.873c0-0.265,0.215-0.479,0.479-0.479h6.702c0.264,0,0.479,0.214,0.479,0.479V36.878z
			"/>
		<path d="M17.819,4.414c0.465,0,0.772,0.458,1.318,1.427c0.57,1.014,1.35,2.403,2.987,2.403c1.636,0,2.417-1.389,2.987-2.403
			c0.545-0.969,0.853-1.427,1.318-1.427s0.774,0.458,1.319,1.427c0.571,1.014,1.354,2.403,2.989,2.403
			c1.638,0,2.419-1.389,2.99-2.403c0.546-0.969,0.854-1.427,1.321-1.427c0.469,0,0.777,0.458,1.322,1.427
			c0.57,1.014,1.354,2.403,2.99,2.403c0.529,0,0.959-0.428,0.959-0.957s-0.43-0.958-0.959-0.958c-0.467,0-0.775-0.457-1.322-1.427
			c-0.57-1.014-1.352-2.402-2.99-2.402c-1.637,0-2.42,1.389-2.99,2.403c-0.545,0.971-0.854,1.427-1.321,1.427
			c-0.466,0-0.774-0.457-1.319-1.427C28.847,3.888,28.064,2.5,26.429,2.5c-1.637,0-2.417,1.389-2.987,2.403
			c-0.545,0.97-0.853,1.426-1.318,1.426s-0.773-0.456-1.318-1.426C20.236,3.888,19.455,2.5,17.819,2.5
			c-0.529,0-0.958,0.429-0.958,0.958C16.861,3.986,17.29,4.414,17.819,4.414z"/>
	</g>
</g>
</svg>
