<?xml version="1.0" encoding="utf-8"?>
<!-- Generator: Adobe Illustrator 16.0.0, SVG Export Plug-In . SVG Version: 6.00 Build 0)  -->
<!DOCTYPE svg PUBLIC "-//W3C//DTD SVG 1.1//EN" "http://www.w3.org/Graphics/SVG/1.1/DTD/svg11.dtd">
<svg version="1.1" xmlns="http://www.w3.org/2000/svg" xmlns:xlink="http://www.w3.org/1999/xlink" x="0px" y="0px" width="50px"
	 height="50px" viewBox="0 0 50 50" enable-background="new 0 0 50 50" xml:space="preserve">
<g id="Layer_2" display="none">
	<rect x="2.5" y="2.5" display="inline" fill="none" stroke="#999999" stroke-miterlimit="10" width="45" height="45"/>
</g>
<g id="Layer_1">
	<path d="M46.543,20.527h-1.437v-1.915c0-0.529-0.429-0.958-0.957-0.958H30.745v-1.271c0-0.529-0.429-0.957-0.958-0.957h-3.83
		v-2.377c1.296-0.409,2.244-1.609,2.244-3.039c0-0.198-0.024-0.389-0.058-0.577c0.999-0.878,1.644-2.15,1.644-3.582
		c0-0.528-0.428-0.958-0.957-0.958s-0.958,0.429-0.958,0.958c0,0.702-0.263,1.337-0.682,1.836C26.616,7.146,25.849,6.809,25,6.809
		s-1.616,0.338-2.19,0.879c-0.419-0.499-0.682-1.134-0.682-1.836c0-0.528-0.429-0.958-0.958-0.958s-0.957,0.429-0.957,0.958
		c0,1.431,0.645,2.703,1.644,3.582c-0.034,0.188-0.058,0.379-0.058,0.577c0,1.43,0.948,2.63,2.244,3.039v2.377h-3.83
		c-0.529,0-0.958,0.428-0.958,0.957v1.271H5.851c-0.528,0-0.957,0.429-0.957,0.958v1.915H3.457c-0.529,0-0.957,0.428-0.957,0.957
		v2.872c0,0.529,0.428,0.958,0.957,0.958h1.437v18.835c0,0.528,0.429,0.957,0.957,0.957h2.074c0.529,0,0.958-0.429,0.958-0.957
		V27.394h2.872v16.756c0,0.528,0.428,0.957,0.957,0.957h2.555c0.529,0,0.957-0.429,0.957-0.957V27.394h2.873v16.756
		c0,0.528,0.428,0.957,0.957,0.957h2.553c0.529,0,0.957-0.429,0.957-0.957V27.394h2.873v16.756c0,0.528,0.428,0.957,0.957,0.957
		h2.553c0.529,0,0.957-0.429,0.957-0.957V27.394h2.873v16.756c0,0.528,0.428,0.957,0.957,0.957h2.555
		c0.529,0,0.957-0.429,0.957-0.957V27.394h2.872v16.756c0,0.528,0.429,0.957,0.958,0.957h2.074c0.528,0,0.957-0.429,0.957-0.957
		V25.314h1.437c0.528,0,0.957-0.429,0.957-0.958v-2.872C47.5,20.955,47.071,20.527,46.543,20.527z M6.809,19.569h13.404h9.574
		h13.404v0.958H6.809V19.569z M45.585,23.399H4.415v-0.958h41.17V23.399z"/>
</g>
</svg>
