<?xml version="1.0" encoding="utf-8"?>
<!-- Generator: Adobe Illustrator 16.0.0, SVG Export Plug-In . SVG Version: 6.00 Build 0)  -->
<!DOCTYPE svg PUBLIC "-//W3C//DTD SVG 1.1//EN" "http://www.w3.org/Graphics/SVG/1.1/DTD/svg11.dtd">
<svg version="1.1" xmlns="http://www.w3.org/2000/svg" xmlns:xlink="http://www.w3.org/1999/xlink" x="0px" y="0px" width="50px"
	 height="50px" viewBox="0 0 50 50" enable-background="new 0 0 50 50" xml:space="preserve">
<g id="Layer_2" display="none">
	<rect x="2.5" y="2.5" display="inline" fill="none" stroke="#999999" stroke-miterlimit="10" width="45" height="45"/>
</g>
<g id="Layer_1">
	<path d="M38.946,40.548c-2.495-1.137-6.67-3.039-6.825-4.417c-0.118-1.049-0.172-2.606-0.229-4.257
		c-0.088-2.534-0.179-5.154-0.523-6.338c-0.417-1.435-1.373-2.856-1.869-3.533c0.299-0.271,0.659-0.719,0.819-1.378
		c0.211-0.871-0.072-1.905-0.226-2.363c0.585-0.968,2.323-3.876,2.499-4.604c0.4-1.652-1.887-6.145-1.91-6.189
		c-0.101-0.193-0.316-0.587-0.588-0.969c0.139-0.34,0.219-0.709,0.219-1.098c0-1.6-1.301-2.901-2.901-2.901
		c-1.6,0-2.901,1.302-2.901,2.901s1.301,2.901,2.901,2.901c0.373,0,0.727-0.077,1.055-0.206c0.187,0.127,0.416,0.284,0.461,0.343
		c0.469,1.027,0.9,4.143,0.926,4.639c-0.351,0.588-2.241,2.801-3.137,3.021c-0.022-0.098-0.029-0.26-0.019-0.423
		c0.64-0.515,1.458-1.57,0.874-2.667c-0.125-0.234-0.406-0.432-0.666-0.573c0-0.328-0.1-0.719-0.442-0.987
		c-0.334-0.262-0.876-0.273-1.204-0.176c-0.427-0.225-1.42-0.436-2.148,0.001c-1.306,0.779-1.248,1.986-1.198,2.337
		c0.047,0.334,0.134,0.623,0.197,0.802c-0.188,0.595-0.264,1.549,0.414,2.116c0.412,0.346,1.003,0.39,1.418,0.245
		c0.017,0.041,0.028,0.067,0.035,0.073c-0.079,0.078-0.428,0.257-0.684,0.388c-0.586,0.302-1.252,0.642-1.601,1.074
		c-0.452,0.56-2.299,4.922-1.376,6.159c0.15,0.2,0.4,0.303,0.744,0.303c0.362,0,0.858-0.112,1.292-0.235
		c-0.073,0.207-0.154,0.429-0.237,0.641c-0.506,1.284-0.58,2.189-0.231,3.538c-5.263,0.186-5.312,3.919-5.333,5.534
		c-0.079,6.123-4.829,7.125-7.381,7.662c-1.11,0.233-1.78,0.374-1.78,1.004v4.096c0,0.271,0.219,0.489,0.489,0.489H42.12
		c0.27,0,0.489-0.219,0.489-0.489v-4.096C42.608,42.25,41.728,41.816,38.946,40.548z M25.489,5.401c0-1.061,0.863-1.924,1.923-1.924
		s1.922,0.863,1.922,1.924c0,0.098-0.014,0.191-0.028,0.286c-0.115-0.072-0.232-0.128-0.348-0.145c-0.417,0-0.809,0.396-1.063,0.729
		C27.488,6.8,27.5,7.081,27.544,7.246c0.006,0.021,0.021,0.041,0.029,0.062c-0.054,0.006-0.106,0.017-0.161,0.017
		C26.352,7.324,25.489,6.462,25.489,5.401z"/>
</g>
</svg>
