<svg xmlns="http://www.w3.org/2000/svg" width="50" height="50" viewBox="0 0 50 50"><path d="M46.428 2.5A1.43 1.43 0 0 0 45 3.93c0 8.846-2.723 13.332-8.096 13.332H30.49c-.35-4.83-1.254-10.952-3.585-10.952-.245 0-.65-.16-1.077-.326-.715-.28-1.602-.626-2.614-.627-.856 0-1.355.395-1.837.778-.256.202-.52.413-.865.59-.87.444-1.334.458-2.103.48-.313.008-.658.02-1.075.06-.645.06-.99.38-1.166.638-.5.728-.232 1.753-.2 1.868a.48.48 0 0 0 .823.18c.013-.015.39-.412 1.267-.31.546.062 1.5.43 2.31.784-.693.172-1.587.395-2.498.633a.474.474 0 0 0-.356.474c.007.223.167.41.385.454 1.467.29 2.457.335 3.18.37.722.03 1.074.056 1.37.23-1.348 1.903-2.026 3.57-2.362 4.677h-6.99C7.723 17.263 5 12.776 5 3.93a1.43 1.43 0 0 0-2.858 0v33.186a.952.952 0 0 0 1.905 0V14.444c.424.88.904 1.634 1.428 2.275v18.014a.952.952 0 0 0 1.905 0V18.486c.462.317.94.58 1.427.795v13.55a.953.953 0 0 0 1.905 0V19.885c.478.1.956.163 1.43.2v10.84a.953.953 0 0 0 1.904 0V20.12h1.43v8.9a.953.953 0 0 0 1.903 0v-8.9h2.085c-.116.9-.18 1.855-.18 2.86 0 2.467.344 4.732.937 6.612-.034.03-.07.05-.1.082l-5.62 5.62a1.904 1.904 0 0 0-.406 2.088l-3.673 3.674-1.637-3.21a.714.714 0 0 0-1.273.648l1.636 3.21-3.56.562a.715.715 0 0 0 .223 1.41l3.56-.562-.567 3.56a.715.715 0 0 0 .71.826c.346 0 .65-.25.704-.603l.564-3.56 3.21 1.637a.715.715 0 0 0 .65-1.272l-3.21-1.637 3.672-3.673a1.903 1.903 0 0 0 2.09-.406l4.816-4.817a5.8 5.8 0 0 0 .87.894l-2.61 4.13a.95.95 0 0 0 .965 1.45c.012-.002.837-.14 1.85-.244l.984 4.28a.954.954 0 0 0 1.86 0l.983-4.28c1.01.104 1.83.242 1.843.244a.953.953 0 0 0 .966-1.445l-2.605-4.135a5.71 5.71 0 0 0 .87-.895l4.816 4.815a1.9 1.9 0 0 0 2.09.407l3.673 3.673-3.21 1.637a.714.714 0 1 0 .65 1.272l3.21-1.637.564 3.56a.713.713 0 0 0 .816.594.716.716 0 0 0 .596-.815l-.566-3.56 3.56.563a.715.715 0 0 0 .223-1.41l-3.56-.564 1.635-3.21a.713.713 0 0 0-1.273-.648l-1.637 3.21-3.674-3.673a1.906 1.906 0 0 0-.405-2.09l-5.618-5.618c-.03-.03-.066-.053-.1-.082.592-1.88.936-4.146.936-6.61 0-.17-.002-1.285-.064-2.863h1.97v8.9a.952.952 0 0 0 1.903 0v-8.9h1.43v10.806a.952.952 0 0 0 1.903 0V20.084c.475-.037.953-.1 1.43-.2V32.83a.953.953 0 0 0 1.905 0V19.28a8.81 8.81 0 0 0 1.43-.794v16.25a.952.952 0 0 0 1.904 0V16.72a11.45 11.45 0 0 0 1.428-2.275v22.67a.953.953 0 0 0 1.905 0V3.93c0-.79-.64-1.43-1.43-1.43z"/></svg>