<svg xmlns="http://www.w3.org/2000/svg" width="50" height="50" viewBox="0 0 50 50"><path d="M36.97 16.067h-1.972v-1.93a5.51 5.51 0 0 0-5.502-5.504 5.44 5.44 0 0 0-1.715.28C26.755 5.18 23.35 2.5 19.396 2.5c-3.954 0-7.358 2.68-8.385 6.413a5.428 5.428 0 0 0-1.715-.28 5.51 5.51 0 0 0-5.503 5.505v25.08c0 4.568 3.715 8.282 8.28 8.282H26.72c4.563 0 8.278-3.714 8.278-8.28v-.28h1.972c5.094 0 9.237-3.708 9.237-8.264V24.33c0-4.556-4.144-8.263-9.237-8.263zM9.294 10.55c.666 0 1.324.192 1.904.558a.956.956 0 0 0 1.46-.693c.418-3.42 3.314-6 6.736-6 3.423 0 6.32 2.58 6.736 6a.955.955 0 0 0 1.46.694 3.59 3.59 0 0 1 1.905-.56c1.98 0 3.588 1.61 3.588 3.588s-1.61 3.59-3.588 3.59a3.532 3.532 0 0 1-1.81-.51.956.956 0 0 0-1.413.584 3.585 3.585 0 0 1-3.458 2.687 3.59 3.59 0 0 1-2.912-1.51c-.18-.25-.47-.4-.78-.4s-.598.148-.777.4a3.597 3.597 0 0 1-2.914 1.51A3.57 3.57 0 0 1 12.037 18a.952.952 0 0 0-.52-.58.952.952 0 0 0-.776 0c-.466.203-.953.308-1.447.308-1.98 0-3.588-1.61-3.588-3.59s1.61-3.59 3.59-3.59zm1.314 29.373a1.437 1.437 0 0 1-1.437-1.436V20.912c0-.612.386-1.13.925-1.338.167-.025.334-.05.5-.09.36.683.86 1.27 1.45 1.737v17.267c0 .793-.644 1.436-1.437 1.436zm8.787 0a1.436 1.436 0 0 1-1.436-1.436v-16.73c.415-.218.814-.47 1.165-.788.502.454 1.08.812 1.707 1.058v16.46c0 .792-.644 1.435-1.437 1.435zm10.224-1.436a1.437 1.437 0 0 1-2.875 0V20.724c.32-.33.596-.703.826-1.108.187-.087.393-.14.61-.14.794 0 1.438.644 1.438 1.437v17.574zm12.758-7.81c0 2.442-2.426 4.432-5.408 4.432h-1.972V19.896h1.972c2.982 0 5.408 1.99 5.408 4.433v6.346z"/></svg>