<svg xmlns="http://www.w3.org/2000/svg" width="50" height="50" viewBox="0 0 50 50"><path d="M47.398 17.37l-7.18-14.36c-.326-.65-1.39-.65-1.713 0l-7.18 14.36a.98.98 0 0 0-.103.43v8.5l5.68 7.866c.354.488.545 1.078.545 1.682v10.674c0 .34-.07.656-.176.957h9.272c.53 0 .957-.43.957-.958V17.8a.927.927 0 0 0-.102-.43zm-4.685 9.046c0 .265-.214.48-.48.48H36.49a.48.48 0 0 1-.48-.48V21.63c0-.053.04-5.268 3.352-5.268 3.313 0 3.352 5.213 3.352 5.266v4.788zM13.098 34.166l5.68-7.866v-8.5a.97.97 0 0 0-.102-.43L11.494 3.01c-.324-.65-1.387-.65-1.713 0L2.603 17.37a.94.94 0 0 0-.102.43V46.52c0 .53.428.957.957.957h9.27a2.886 2.886 0 0 1-.175-.958V35.848c0-.604.192-1.194.546-1.682zm-5.332-7.27a.478.478 0 0 1-.48-.48V21.63c0-.053.04-5.268 3.353-5.268 3.31 0 3.35 5.213 3.35 5.266v4.788a.48.48 0 0 1-.48.48H7.767z"/><path d="M25.775 22.025c-.357-.498-1.193-.498-1.55 0L14.65 35.288a.946.946 0 0 0-.182.56v10.674c0 .53.428.957.957.957h4.03V40.6c0-2.71 1.16-7.836 5.544-7.836S30.54 37.89 30.54 40.6v6.88h4.03c.53 0 .958-.43.958-.958V35.848a.95.95 0 0 0-.182-.56l-9.573-13.263z"/></svg>