<?xml version="1.0" encoding="utf-8"?>
<!-- Generator: Adobe Illustrator 16.0.0, SVG Export Plug-In . SVG Version: 6.00 Build 0)  -->
<!DOCTYPE svg PUBLIC "-//W3C//DTD SVG 1.1//EN" "http://www.w3.org/Graphics/SVG/1.1/DTD/svg11.dtd">
<svg version="1.1" xmlns="http://www.w3.org/2000/svg" xmlns:xlink="http://www.w3.org/1999/xlink" x="0px" y="0px" width="50px"
	 height="50px" viewBox="0 0 50 50" enable-background="new 0 0 50 50" xml:space="preserve">
<g id="Layer_2" display="none">
	<rect x="2.5" y="2.5" display="inline" fill="none" stroke="#999999" stroke-miterlimit="10" width="45" height="45"/>
</g>
<g id="Layer_1">
	<g>
		<ellipse cx="42.959" cy="27.872" rx="1.437" ry="4.405"/>
		<path d="M12.308,8.447c-1.104,0.434-2.206,0.975-3.311,1.669H8c-3.61,0-5.5,7.486-5.5,14.884S4.389,39.884,8,39.884h0.998
			c1.105,0.694,2.207,1.235,3.311,1.669C10.462,37.73,9.511,31.343,9.511,25S10.462,12.27,12.308,8.447z"/>
		<path d="M17.788,7.098c-0.901,0.112-1.792,0.265-2.679,0.476C13.3,9.653,11.426,15.908,11.426,25s1.874,15.347,3.683,17.427
			c0.887,0.211,1.778,0.363,2.679,0.476C16.008,38.689,15.093,31.82,15.093,25S16.008,11.311,17.788,7.098z"/>
		<path d="M42.002,10.116c-0.028,0-0.056,0.009-0.083,0.01c-1.496-0.938-2.985-1.611-4.484-2.097
			c-1.953,1.3-4.212,7.513-4.212,16.971s2.259,15.671,4.212,16.971c1.499-0.485,2.988-1.159,4.484-2.097
			c0.027,0.001,0.055,0.01,0.083,0.01c3.609,0,5.498-7.486,5.498-14.884S45.611,10.116,42.002,10.116z M42.002,37.97
			c-1.462,0-3.584-5.053-3.584-12.97s2.122-12.97,3.584-12.97c1.461,0,3.584,5.053,3.584,12.97S43.463,37.97,42.002,37.97z"/>
		<path d="M35.284,7.459c-2.699-0.571-5.453-0.652-8.361-0.652h-2.938c-1.354,0-2.674,0.018-3.971,0.093
			c-1.56,3.063-3.005,9.479-3.005,18.101c0,8.714,1.41,15.062,2.964,18.098c1.311,0.077,2.645,0.096,4.013,0.096h2.938
			c0.001,0,0,0,0.001,0c2.907,0,5.661-0.081,8.36-0.652c-2.6-3.167-3.978-10.52-3.978-17.541S32.685,10.626,35.284,7.459z"/>
	</g>
</g>
</svg>
