<?xml version="1.0" encoding="utf-8"?>
<!-- Generator: Adobe Illustrator 16.0.0, SVG Export Plug-In . SVG Version: 6.00 Build 0)  -->
<!DOCTYPE svg PUBLIC "-//W3C//DTD SVG 1.1//EN" "http://www.w3.org/Graphics/SVG/1.1/DTD/svg11.dtd">
<svg version="1.1" xmlns="http://www.w3.org/2000/svg" xmlns:xlink="http://www.w3.org/1999/xlink" x="0px" y="0px" width="50px"
	 height="50px" viewBox="0 0 50 50" enable-background="new 0 0 50 50" xml:space="preserve">
<g id="Layer_2" display="none">
	<rect x="2.5" y="2.5" display="inline" fill="none" stroke="#999999" stroke-miterlimit="10" width="45" height="45"/>
</g>
<g id="Layer_1">
	<g>
		<path d="M47.432,31.773l-1.915-4.787c-0.146-0.364-0.498-0.602-0.889-0.602h-5.745v20.107c0,0.338-0.069,0.657-0.176,0.957h7.836
			c0.528,0,0.957-0.428,0.957-0.957V32.129C47.5,32.006,47.477,31.886,47.432,31.773z"/>
		<path d="M17.201,23.594c0.326-0.61,0.856-1.066,1.479-1.313c-0.006-0.014-0.009-0.029-0.017-0.042L11.596,9.015V6.841h0.957
			c0.529,0,0.958-0.428,0.958-0.957s-0.429-0.957-0.958-0.957h-0.957V3.509c0-0.529-0.428-0.957-0.957-0.957S9.681,2.98,9.681,3.509
			v1.418H8.724c-0.529,0-0.958,0.428-0.958,0.957s0.429,0.957,0.958,0.957h0.957v2.174L2.613,22.239
			C2.539,22.377,2.5,22.532,2.5,22.69v23.801c0,0.529,0.428,0.957,0.957,0.957h9.426c-0.106-0.3-0.176-0.619-0.176-0.957V32.722
			c0-0.027,0.009-0.053,0.01-0.08H8.245c-0.265,0-0.479-0.214-0.479-0.479V24.23c0-0.078,0.02-0.156,0.057-0.226l2.394-4.479
			c0.166-0.312,0.678-0.312,0.844,0l2.394,4.479c0.038,0.07,0.057,0.148,0.057,0.226v6.269L17.201,23.594z"/>
		<path d="M29.787,9.015V6.841h0.958c0.528,0,0.957-0.428,0.957-0.957s-0.429-0.957-0.957-0.957h-0.958V3.509
			c0-0.529-0.428-0.957-0.957-0.957s-0.958,0.428-0.958,0.957v1.418h-0.957c-0.529,0-0.958,0.428-0.958,0.957
			s0.429,0.957,0.958,0.957h0.957v2.174l-7.067,13.225c-0.007,0.013-0.01,0.027-0.016,0.042c0.622,0.247,1.152,0.703,1.478,1.313
			l3.69,6.905V24.23c0-0.078,0.021-0.156,0.057-0.226l2.394-4.479c0.166-0.312,0.678-0.312,0.844,0l2.394,4.479
			c0.037,0.07,0.056,0.148,0.056,0.226v7.934c0,0.265-0.214,0.479-0.479,0.479H26.75c0.001,0.027,0.01,0.053,0.01,0.08v13.769
			c0,0.338-0.069,0.657-0.176,0.957h9.426c0.529,0,0.957-0.428,0.957-0.957V22.69c0-0.158-0.039-0.313-0.113-0.451L29.787,9.015z"/>
		<path d="M20.578,24.497c-0.333-0.624-1.355-0.624-1.688,0l-4.154,7.773c-0.074,0.139-0.113,0.294-0.113,0.452v13.769
			c0,0.529,0.429,0.957,0.958,0.957h8.309c0.529,0,0.957-0.428,0.957-0.957V32.722c0-0.158-0.039-0.313-0.113-0.452L20.578,24.497z"
			/>
	</g>
</g>
</svg>
