<?xml version="1.0" encoding="utf-8"?>
<!-- Generator: Adobe Illustrator 16.0.0, SVG Export Plug-In . SVG Version: 6.00 Build 0)  -->
<!DOCTYPE svg PUBLIC "-//W3C//DTD SVG 1.1//EN" "http://www.w3.org/Graphics/SVG/1.1/DTD/svg11.dtd">
<svg version="1.1" xmlns="http://www.w3.org/2000/svg" xmlns:xlink="http://www.w3.org/1999/xlink" x="0px" y="0px" width="50px"
	 height="50px" viewBox="0 0 50 50" enable-background="new 0 0 50 50" xml:space="preserve">
<g id="Layer_2" display="none">
	<rect x="2.5" y="2.5" display="inline" fill="none" stroke="#999999" stroke-miterlimit="10" width="45" height="45"/>
</g>
<g id="Layer_1">
	<path d="M46.428,2.5C45.64,2.5,45,3.14,45,3.929c0,8.847-2.723,13.333-8.096,13.333h-6.413C30.14,12.432,29.236,6.31,26.905,6.31
		c-0.245,0-0.649-0.159-1.077-0.326c-0.715-0.279-1.602-0.626-2.614-0.627c-0.856,0-1.355,0.395-1.837,0.778
		c-0.256,0.202-0.521,0.413-0.865,0.589c-0.869,0.445-1.334,0.459-2.103,0.48c-0.312,0.009-0.657,0.02-1.074,0.06
		c-0.645,0.062-0.99,0.382-1.166,0.639c-0.499,0.728-0.231,1.753-0.2,1.868c0.048,0.167,0.187,0.292,0.355,0.331
		c0.172,0.039,0.352-0.022,0.469-0.152c0.013-0.015,0.39-0.412,1.267-0.311c0.546,0.063,1.499,0.432,2.309,0.785
		c-0.692,0.172-1.586,0.395-2.497,0.633c-0.215,0.055-0.363,0.252-0.356,0.474c0.007,0.222,0.167,0.41,0.385,0.453
		c1.466,0.291,2.456,0.335,3.178,0.369c0.723,0.032,1.075,0.057,1.37,0.23c-1.347,1.904-2.025,3.57-2.361,4.678h-6.99
		C7.723,17.262,5,12.775,5,3.929C5,3.14,4.36,2.5,3.572,2.5c-0.789,0-1.43,0.64-1.43,1.429v33.187c0,0.526,0.426,0.952,0.952,0.952
		s0.953-0.426,0.953-0.952V14.444c0.424,0.88,0.904,1.634,1.428,2.275v18.015c0,0.526,0.428,0.953,0.954,0.953
		s0.951-0.427,0.951-0.953V18.486c0.462,0.317,0.941,0.581,1.427,0.795V32.83c0,0.526,0.428,0.952,0.954,0.952
		s0.951-0.426,0.951-0.952V19.885c0.478,0.099,0.956,0.163,1.431,0.199v10.841c0,0.526,0.426,0.953,0.952,0.953
		s0.951-0.427,0.951-0.953V20.119h1.43v8.901c0,0.526,0.426,0.953,0.952,0.953s0.951-0.427,0.951-0.953v-8.901h2.086
		c-0.116,0.902-0.18,1.856-0.18,2.862c0,2.466,0.344,4.731,0.937,6.611c-0.034,0.029-0.069,0.051-0.101,0.082l-5.619,5.62
		c-0.565,0.564-0.698,1.396-0.406,2.088l-3.673,3.674l-1.637-3.211c-0.178-0.352-0.606-0.49-0.96-0.312
		c-0.352,0.179-0.492,0.609-0.313,0.96l1.636,3.21l-3.559,0.563c-0.389,0.062-0.655,0.428-0.595,0.817
		c0.056,0.352,0.36,0.603,0.705,0.603c0.037,0,0.073-0.003,0.113-0.009l3.559-0.563l-0.566,3.56
		c-0.061,0.389,0.206,0.755,0.596,0.816C9.441,47.497,9.478,47.5,9.515,47.5c0.347,0,0.65-0.251,0.705-0.603l0.564-3.56l3.21,1.637
		c0.104,0.053,0.216,0.078,0.324,0.078c0.26,0,0.511-0.142,0.638-0.39c0.179-0.352,0.04-0.781-0.312-0.96l-3.21-1.637l3.672-3.673
		c0.238,0.1,0.489,0.153,0.742,0.153c0.487,0,0.976-0.187,1.348-0.559l4.816-4.817c0.276,0.346,0.566,0.648,0.871,0.895l-2.61,4.131
		c-0.202,0.318-0.196,0.724,0.012,1.037c0.179,0.268,0.477,0.425,0.792,0.425c0.054,0,0.107-0.004,0.16-0.013
		c0.012-0.002,0.837-0.14,1.85-0.244l0.984,4.28c0.101,0.433,0.485,0.739,0.929,0.739s0.828-0.306,0.929-0.739l0.984-4.279
		c1.01,0.103,1.831,0.241,1.843,0.243c0.053,0.009,0.106,0.013,0.16,0.013c0.315,0,0.613-0.157,0.792-0.425
		c0.207-0.312,0.213-0.716,0.014-1.033l-2.605-4.135c0.305-0.246,0.595-0.548,0.871-0.895l4.815,4.816
		c0.372,0.372,0.86,0.559,1.348,0.559c0.253,0,0.504-0.053,0.741-0.152l3.674,3.673l-3.21,1.637c-0.352,0.179-0.49,0.609-0.312,0.96
		c0.127,0.248,0.378,0.39,0.638,0.39c0.108,0,0.22-0.024,0.324-0.078l3.21-1.637l0.564,3.56c0.055,0.352,0.358,0.603,0.705,0.603
		c0.037,0,0.073-0.003,0.111-0.009c0.39-0.062,0.656-0.427,0.596-0.816l-0.566-3.56l3.559,0.563c0.04,0.006,0.076,0.009,0.113,0.009
		c0.345,0,0.649-0.251,0.705-0.603c0.061-0.389-0.206-0.755-0.595-0.817l-3.559-0.563l1.636-3.21c0.18-0.352,0.039-0.782-0.313-0.96
		c-0.354-0.178-0.781-0.04-0.96,0.312l-1.637,3.211l-3.674-3.674c0.292-0.694,0.159-1.524-0.406-2.089l-5.618-5.619
		c-0.031-0.031-0.066-0.053-0.101-0.082c0.593-1.88,0.937-4.146,0.937-6.611c0-0.169-0.002-1.284-0.064-2.862h1.971v8.901
		c0,0.526,0.425,0.953,0.951,0.953s0.952-0.427,0.952-0.953v-8.901h1.43v10.806c0,0.526,0.425,0.953,0.951,0.953
		s0.952-0.427,0.952-0.953V20.084c0.475-0.037,0.953-0.101,1.431-0.199V32.83c0,0.526,0.425,0.952,0.951,0.952
		s0.954-0.426,0.954-0.952V19.281c0.485-0.214,0.965-0.478,1.427-0.795v16.249c0,0.526,0.425,0.953,0.951,0.953
		s0.954-0.427,0.954-0.953V16.72c0.523-0.642,1.004-1.395,1.428-2.275v22.671c0,0.526,0.427,0.952,0.953,0.952
		s0.952-0.426,0.952-0.952V3.929C47.857,3.14,47.217,2.5,46.428,2.5z"/>
</g>
</svg>
