<?xml version="1.0" encoding="utf-8"?>
<!-- Generator: Adobe Illustrator 16.0.0, SVG Export Plug-In . SVG Version: 6.00 Build 0)  -->
<!DOCTYPE svg PUBLIC "-//W3C//DTD SVG 1.1//EN" "http://www.w3.org/Graphics/SVG/1.1/DTD/svg11.dtd">
<svg version="1.1" xmlns="http://www.w3.org/2000/svg" xmlns:xlink="http://www.w3.org/1999/xlink" x="0px" y="0px" width="50px"
	 height="50px" viewBox="0 0 50 50" enable-background="new 0 0 50 50" xml:space="preserve">
<g id="Layer_2" display="none">
	<rect x="2.5" y="2.5" display="inline" fill="none" stroke="#999999" stroke-miterlimit="10" width="45" height="45"/>
</g>
<g id="Layer_1">
	<g>
		<path d="M35.912,42.693c-0.73,0.279-1.491,0.505-2.285,0.667l5.181,3.943c0.173,0.132,0.376,0.196,0.579,0.196
			c0.288,0,0.574-0.13,0.762-0.377c0.32-0.422,0.239-1.021-0.183-1.343L35.912,42.693z"/>
		<path d="M10.034,45.78c-0.422,0.321-0.503,0.921-0.183,1.343c0.188,0.247,0.474,0.377,0.762,0.377
			c0.203,0,0.406-0.064,0.579-0.196l5.181-3.943c-0.794-0.162-1.555-0.388-2.285-0.667L10.034,45.78z"/>
		<path d="M42.138,32.074c-0.653-5.199-0.923-13.712-0.6-18.976c0.151-2.426-0.739-4.8-2.511-6.687
			C36.692,3.927,33.109,2.5,29.197,2.5h-8.395c-3.912,0-7.495,1.427-9.83,3.912c-1.771,1.887-2.662,4.261-2.511,6.686
			c0.323,5.265,0.054,13.777-0.6,18.979c-0.304,2.443,0.457,4.84,2.14,6.744c2.196,2.486,5.698,3.912,9.605,3.912h10.785
			c3.907,0,7.409-1.426,9.605-3.912C41.681,36.916,42.441,34.52,42.138,32.074z M12.368,7.723c1.976-2.103,5.05-3.309,8.435-3.309
			h8.395c3.385,0,6.459,1.206,8.435,3.309c1.416,1.51,2.105,3.315,1.994,5.222c-1.112,7.199-4.284,9.483-4.311,9.5
			c-0.436,0.292-0.556,0.878-0.271,1.316c0.183,0.283,2.451,2.508,4.702,2.985c0.046,0.763,0.099,1.509,0.156,2.228
			c-0.562,0.963-3.846,5.585-14.902,5.585c-11.051,0-14.337-4.617-14.902-5.584c0.057-0.708,0.108-1.445,0.154-2.195
			c2.252-0.466,4.529-2.74,4.71-3.027c0.275-0.434,0.152-1.012-0.269-1.304c-0.033-0.021-3.207-2.305-4.319-9.504
			C10.262,11.039,10.952,9.233,12.368,7.723z M30.393,40.817H19.607c-3.36,0-6.337-1.189-8.17-3.265
			c-1.334-1.509-1.914-3.321-1.675-5.238c0.054-0.438,0.104-0.903,0.154-1.381c1.363,2.022,5.134,5.541,15.083,5.541
			s13.72-3.519,15.083-5.542c0.05,0.478,0.101,0.944,0.154,1.38c0.239,1.919-0.341,3.731-1.675,5.24
			C36.729,39.628,33.753,40.817,30.393,40.817z"/>
		<path d="M13.531,16.333c0.602,3.014,3.592,5.465,6.664,5.465h9.609c3.072,0,6.063-2.451,6.664-5.465l0.521-2.601
			c0.307-1.536-0.026-2.994-0.94-4.11c-0.916-1.115-2.281-1.729-3.847-1.729H17.798c-1.565,0-2.931,0.614-3.847,1.729
			c-0.914,1.116-1.247,2.574-0.94,4.11L13.531,16.333z"/>
		<path d="M19.886,24.917c-0.151-0.349-0.495-0.573-0.877-0.573h-2.666c-0.324,0-0.625,0.162-0.802,0.434
			c-0.177,0.271-0.205,0.612-0.075,0.907l2.397,5.47c0.153,0.349,0.497,0.573,0.877,0.573h2.668c0.008,0,0.014,0,0.018,0
			c0.529,0,0.959-0.428,0.959-0.957c0-0.204-0.063-0.39-0.171-0.546L19.886,24.917z"/>
		<path d="M33.657,24.344h-2.666c-0.382,0-0.726,0.225-0.877,0.573l-2.399,5.468c-0.13,0.297-0.1,0.639,0.076,0.909
			c0.176,0.271,0.479,0.434,0.801,0.434h2.668c0.38,0,0.724-0.225,0.877-0.573l2.397-5.47c0.13-0.295,0.102-0.637-0.075-0.907
			C34.282,24.506,33.981,24.344,33.657,24.344z"/>
		<path d="M25,37.067c-0.923,0-1.674,0.755-1.674,1.682c0,0.923,0.751,1.674,1.674,1.674s1.674-0.751,1.674-1.674
			C26.674,37.822,25.923,37.067,25,37.067z"/>
	</g>
</g>
</svg>
