<?xml version="1.0" encoding="utf-8"?>
<!-- Generator: Adobe Illustrator 16.0.0, SVG Export Plug-In . SVG Version: 6.00 Build 0)  -->
<!DOCTYPE svg PUBLIC "-//W3C//DTD SVG 1.1//EN" "http://www.w3.org/Graphics/SVG/1.1/DTD/svg11.dtd">
<svg version="1.1" xmlns="http://www.w3.org/2000/svg" xmlns:xlink="http://www.w3.org/1999/xlink" x="0px" y="0px" width="50px"
	 height="50px" viewBox="0 0 50 50" enable-background="new 0 0 50 50" xml:space="preserve">
<g id="Layer_2" display="none">
	<rect x="2.5" y="2.5" display="inline" fill="none" stroke="#999999" stroke-miterlimit="10" width="45" height="45"/>
</g>
<g id="Layer_1">
	<g>
		<path d="M10.79,18.68c-0.002-0.001-0.007-0.008-0.009-0.008c-0.544-0.063-3.017-0.452-4.111-2.406
			c-0.43-0.769-0.413-2.137,0.034-2.711c0.084-0.109,0.225-0.29,0.874-0.116c1.032,0.282,2.092-0.332,2.369-1.361
			c0.278-1.031-0.331-2.093-1.362-2.369c-1.987-0.539-3.782,0-4.93,1.472c-1.391,1.786-1.547,4.849-0.357,6.975
			c1.528,2.73,4.238,3.764,5.915,4.154l0.494,1.971L6.132,31.91c-0.119,0.257-0.182,0.537-0.182,0.819v8.253
			c0,1.067,0.866,1.934,1.933,1.934c1.067,0,1.933-0.866,1.933-1.934v-5.465l4.439-4.034c2.399,0.563,5.951,1.246,9.089,1.246
			c3.523,0,8.006-0.863,10.628-1.447v9.7c0,1.067,0.865,1.934,1.933,1.934s1.933-0.866,1.933-1.934V25.606L26.731,18.68H10.79z"/>
		<path d="M47.069,17.876l-8.267-5.512V8.05c0-0.425-0.278-0.8-0.686-0.924c-0.406-0.124-0.849,0.035-1.085,0.389l-7.21,10.815
			l8.062,5.027l0.526-1.313l4.956,1.43c0.405,0.114,0.839-0.043,1.072-0.393l1.88-2.819l0.898-0.899
			c0.204-0.204,0.307-0.49,0.277-0.778C47.467,18.296,47.311,18.036,47.069,17.876z"/>
		<circle cx="29.443" cy="19.273" r="0.483"/>
		<circle cx="31.92" cy="20.822" r="0.483"/>
		<circle cx="34.395" cy="22.372" r="0.483"/>
		<circle cx="36.872" cy="23.922" r="0.483"/>
	</g>
</g>
</svg>
