<?xml version="1.0" encoding="utf-8"?>
<!-- Generator: Adobe Illustrator 16.0.0, SVG Export Plug-In . SVG Version: 6.00 Build 0)  -->
<!DOCTYPE svg PUBLIC "-//W3C//DTD SVG 1.1//EN" "http://www.w3.org/Graphics/SVG/1.1/DTD/svg11.dtd">
<svg version="1.1" xmlns="http://www.w3.org/2000/svg" xmlns:xlink="http://www.w3.org/1999/xlink" x="0px" y="0px" width="50px"
	 height="50px" viewBox="0 0 50 50" enable-background="new 0 0 50 50" xml:space="preserve">
<g id="Layer_2" display="none">
	<rect x="2.5" y="2.5" display="inline" fill="none" stroke="#999999" stroke-miterlimit="10" width="45" height="45"/>
</g>
<g id="Layer_1">
	<path d="M38.049,29.563c-0.04-0.462-0.409-0.829-0.87-0.87c0,0-0.311-0.028-0.824-0.028c-1.886,0-5.396,0.347-7.723,2.674
		c-0.866,0.867-1.45,1.905-1.851,2.953l-0.298-5.959c0.076,0.002,0.151,0.003,0.24,0.003c1.886,0,5.395-0.347,7.721-2.674
		c3.085-3.084,2.666-8.324,2.647-8.546c-0.04-0.462-0.409-0.829-0.87-0.871c0,0-0.311-0.028-0.826-0.028
		c-1.885,0-5.394,0.347-7.721,2.674c-0.673,0.671-1.17,1.448-1.551,2.251l-0.145-2.92c1.015-0.961,3.808-3.935,3.808-7.584
		c0-4.362-4.001-7.771-4.172-7.914c-0.355-0.299-0.875-0.299-1.23,0c-0.171,0.143-4.172,3.552-4.172,7.914
		c0,3.649,2.793,6.623,3.808,7.584l-0.145,2.92c-0.381-0.803-0.878-1.58-1.551-2.251c-2.327-2.327-5.836-2.674-7.721-2.674
		c-0.516,0-0.826,0.028-0.826,0.028c-0.461,0.042-0.83,0.409-0.87,0.871c-0.019,0.222-0.438,5.461,2.647,8.546
		c2.326,2.327,5.836,2.674,7.721,2.674c0.089,0,0.164-0.001,0.24-0.003l-0.298,5.959c-0.4-1.048-0.984-2.086-1.851-2.953
		c-2.327-2.327-5.837-2.674-7.723-2.674c-0.514,0-0.824,0.028-0.824,0.028c-0.461,0.042-0.83,0.408-0.87,0.87
		c-0.021,0.222-0.438,5.462,2.647,8.546c2.326,2.327,5.836,2.674,7.721,2.674c0.242,0,0.435-0.006,0.575-0.013l-0.289,5.772
		c0,0.529,0.43,0.958,0.959,0.958h2.871c0.529,0,0.959-0.429,0.959-0.958l-0.289-5.772c0.141,0.007,0.333,0.013,0.575,0.013
		c1.886,0,5.395-0.348,7.721-2.674C38.486,35.025,38.069,29.785,38.049,29.563z"/>
</g>
</svg>
