<?xml version="1.0" encoding="utf-8"?>
<!-- Generator: Adobe Illustrator 16.0.0, SVG Export Plug-In . SVG Version: 6.00 Build 0)  -->
<!DOCTYPE svg PUBLIC "-//W3C//DTD SVG 1.1//EN" "http://www.w3.org/Graphics/SVG/1.1/DTD/svg11.dtd">
<svg version="1.1" xmlns="http://www.w3.org/2000/svg" xmlns:xlink="http://www.w3.org/1999/xlink" x="0px" y="0px" width="50px"
	 height="50px" viewBox="0 0 50 50" enable-background="new 0 0 50 50" xml:space="preserve">
<g id="Layer_2" display="none">
	<rect x="2.5" y="2.5" display="inline" fill="none" stroke="#999999" stroke-miterlimit="10" width="45" height="45"/>
</g>
<g id="Layer_1">
	<g>
		<path d="M44.623,12.988c0.032-0.316-0.096-0.626-0.339-0.83c-0.243-0.202-0.57-0.271-0.877-0.185l-3.351,0.957
			c-0.215,0.062-0.402,0.196-0.528,0.382l-3.033,4.454c3.013,1.049,5.484,2.211,7.337,3.203L44.623,12.988z"/>
		<path d="M37.478,31.603l2.179,2.087c0.178,0.171,0.416,0.266,0.663,0.266h3.351c0.282,0,0.548-0.123,0.73-0.337
			c0.182-0.215,0.26-0.499,0.215-0.775l-0.681-4.146C42.275,29.593,40.104,30.632,37.478,31.603z"/>
		<path d="M21.91,36.149h-5.751l-0.483-1.349c-0.738-0.051-1.439-0.119-2.106-0.202l1.015,2.831
			c0.137,0.381,0.497,0.634,0.901,0.634h7.181c0.444,0,0.828-0.304,0.932-0.735l0.636-2.673c-0.659,0.065-1.326,0.122-2.007,0.163
			L21.91,36.149z"/>
		<path d="M47.113,24.092c-0.46-0.339-11.417-8.327-28.058-8.327C5.372,15.765,2.5,20.711,2.5,24.861s2.872,9.096,16.556,9.096
			c16.641,0,27.598-7.986,28.058-8.327c0.243-0.179,0.387-0.465,0.387-0.769C47.5,24.558,47.356,24.272,47.113,24.092z
			 M35.297,21.442c-0.187,0.494-0.738,0.743-1.233,0.559c-4.423-1.667-9.029-2.511-13.688-2.511c-7.917,0-11.315,1.51-12.77,2.776
			c-0.182,0.158-0.406,0.236-0.629,0.236c-0.268,0-0.533-0.111-0.723-0.329c-0.347-0.399-0.305-1.004,0.094-1.352
			c2.476-2.155,7.195-3.247,14.027-3.247c4.892,0,9.724,0.886,14.363,2.633C35.233,20.395,35.484,20.946,35.297,21.442z"/>
	</g>
</g>
</svg>
