<?xml version="1.0" encoding="utf-8"?>
<!-- Generator: Adobe Illustrator 16.0.0, SVG Export Plug-In . SVG Version: 6.00 Build 0)  -->
<!DOCTYPE svg PUBLIC "-//W3C//DTD SVG 1.1//EN" "http://www.w3.org/Graphics/SVG/1.1/DTD/svg11.dtd">
<svg version="1.1" id="Layer_1" xmlns="http://www.w3.org/2000/svg" xmlns:xlink="http://www.w3.org/1999/xlink" x="0px" y="0px"
	 width="500px" height="500px" viewBox="0 0 500 500" enable-background="new 0 0 500 500" xml:space="preserve">
<g>
	<path d="M398.696,160.81v-9.835c0-82.128-66.576-148.707-148.705-148.707c-82.128,0-148.706,66.578-148.706,148.707v4.623
		c0,1.746,0.043,3.482,0.105,5.212h-0.006c0,42.249,29.348,83.629,61.366,116.212c0.567-1.91,1.392-3.754,2.495-5.482
		c2.491-3.904,6.1-6.814,10.34-8.455C146.444,233.431,121,197,120.26,160.81l-0.133-7.237c0-14.497,11.751-26.249,26.249-26.249
		c14.497,0,26.249,11.752,26.249,26.249v7.094c-0.039,1.716-0.552,30.548,7.581,66.193c2.944,12.902,6.667,25.023,11.116,36.304
		c6.445,2.602,11.49,8.244,13.05,15.305c1.888,8.549,8.031,16.568,14.937,19.502c1.341,0.57,2.559,0.871,3.519,0.871
		c0.305,0,0.578-0.033,0.84-0.096c-8.462-7.369-13.827-18.207-13.827-30.283c0-1.268,0.066-2.518,0.181-3.756
		c-21.634-49.205-20.778-102.927-20.761-103.701l-0.059-7.434c0-14.497,11.752-26.249,26.249-26.249
		c13.858,0,25.179,10.744,26.154,24.351v77.519c2.709-0.579,5.515-0.889,8.393-0.889c2.871,0,5.67,0.309,8.372,0.883v-77.416
		c0.929-13.652,12.271-24.448,26.159-24.448c14.499,0,26.248,11.752,26.248,26.249l-0.079,7.434
		c0.018,0.773,0.872,54.44-20.727,103.625c0.12,1.262,0.188,2.539,0.188,3.832c0,12.076-5.365,22.914-13.828,30.283
		c0.26,0.063,0.534,0.096,0.84,0.096c0.96,0,2.178-0.301,3.521-0.871c6.905-2.934,13.047-10.953,14.936-19.502
		c1.555-7.041,6.58-12.674,13.003-15.283c4.451-11.285,8.179-23.417,11.125-36.326c7.558-33.128,7.647-60.368,7.592-65.429h0.008
		v-7.858c0-14.497,11.754-26.249,26.249-26.249c14.498,0,26.249,11.752,26.249,26.249v7.237h-0.016
		c0,35.951-26.217,72.62-55.379,102.294c4.222,1.643,7.813,4.547,10.295,8.436c1.116,1.75,1.952,3.621,2.52,5.559
		c32.047-32.595,61.44-74.007,61.44-116.288H398.696z"/>
	<circle cx="250" cy="268.186" r="30.493"/>
	<path d="M319.18,271.271c-6.388-1.408-12.703,2.621-14.113,9.006c-2.561,11.592-10.838,22.166-20.597,26.313
		c-5.375,2.283-10.147,2.182-14.187-0.295c-0.279-0.172-0.566-0.32-0.854-0.467c-3.572-2.521-7.662-4.355-11.834-5.379L250,308.096
		l-7.365-7.732c-0.026,0.01-0.05,0.01-0.076,0.016c-4.292,1.025-8.5,2.924-12.156,5.543c-0.229,0.121-0.46,0.236-0.686,0.373
		c-4.04,2.477-8.813,2.578-14.187,0.295c-9.758-4.146-18.036-14.721-20.596-26.313c-1.41-6.385-7.729-10.418-14.113-9.006
		c-6.386,1.408-10.417,7.729-9.008,14.111c4.201,19.016,17.727,35.893,34.461,43c4.172,1.773,8.374,2.875,12.516,3.313v46.623
		c0,4.334,1.113,8.285,3.044,11.75l-10.84,92.035c-0.904,7.674,4.583,14.629,12.258,15.533c0.556,0.064,1.108,0.096,1.654,0.096
		c6.997,0,13.04-5.236,13.877-12.355l9.447-80.201c0.589,0.029,1.179,0.049,1.771,0.049s1.182-0.02,1.771-0.049l9.447,80.201
		c0.838,7.119,6.881,12.355,13.877,12.355c0.545,0,1.099-0.031,1.654-0.096c7.674-0.904,13.163-7.859,12.258-15.533l-10.84-92.033
		c1.932-3.467,3.045-7.418,3.045-11.752v-46.623c4.142-0.439,8.343-1.541,12.515-3.313c16.734-7.107,30.26-23.984,34.461-43
		C329.597,279,325.565,272.68,319.18,271.271z"/>
</g>
</svg>
