<?xml version="1.0" encoding="UTF-8" standalone="yes"?>
<svg xmlns="http://www.w3.org/2000/svg" viewBox="0 0 500 500">
  <path d="M326.562 316H327v-60h-2.19l11.857-46.813V14.63H163.333v194.558L175.19 256H173v60h.438c-15.826 17.97-25.433 41.548-25.433 67.376 0 56.33 45.665 101.995 101.995 101.995s101.995-45.664 101.995-101.994c0-25.828-9.607-49.406-25.433-67.376zM290.946 34.63h25.72v172.064L304.18 256h-13.232V34.63zm-56.896 0h31.896V256H234.05V34.63zm-50.717 0h25.717V256h-13.228l-12.49-49.306V34.63zM183 266h134v40H183v-40zm67 195.74c-44.04 0-79.74-35.7-79.74-79.74 0-27.458 13.89-51.66 35.015-66h89.447c21.13 14.337 35.02 38.54 35.02 66 0 44.04-35.702 79.74-79.742 79.74z"/>
  <path d="M250 317c-37.003 0-67 29.996-67 67s29.997 67 67 67 67-29.998 67-67-29.997-67-67-67zm17.333 12.783l-4.522 36.592a21.685 21.685 0 0 0-12.81-4.167c-5.07 0-9.73 1.736-13.433 4.64l-3.9-37.065h34.666zm-71.55 71.55v-34.666l36.592 4.522a21.692 21.692 0 0 0-4.167 12.81c0 5.07 1.736 9.73 4.64 13.433l-37.065 3.9zm36.884 36.884l4.522-36.592a21.685 21.685 0 0 0 12.81 4.167c5.07 0 9.73-1.736 13.433-4.64l3.9 37.065h-34.666zm34.958-41.406a21.69 21.69 0 0 0 4.167-12.81c0-5.07-1.736-9.73-4.64-13.433l37.065-3.9v34.665l-36.592-4.52z"/>
</svg>