<?xml version="1.0" encoding="UTF-8" standalone="yes"?>
<svg xmlns="http://www.w3.org/2000/svg" viewBox="0 0 500 500">
  <path d="M191.09 168.355c9.723-4.985 17.672-10.384 24-15.47a133.966 133.966 0 0 0 3.92-3.276l-60.694-47.93-9.888 40.977 42.66 25.698zM209.892 64.6l-7.362 22.06-38.42 9.695 30.64 23.46 36.734-5.35L250.34 76.33l18.848 38.146 36.74 5.34 30.62-23.46-38.425-9.697s-26.14-81.84-39.628-81.84h-36.773c-14.797 0-10.722 17.613-32.782 17.613-22.054 0-26.044 26.51-26.044 26.51h29.41c21.156 0 17.586 15.657 17.586 15.657zm10.747-46.602a4.744 4.744 0 0 1 4.757 4.744 4.755 4.755 0 0 1-4.758 4.753 4.757 4.757 0 0 1-4.747-4.753 4.753 4.753 0 0 1 4.746-4.744zM285.21 152.886c6.205 4.986 13.962 10.274 23.428 15.178l43.612-26.912-9.86-39.484-60.917 48.1c1.2 1.037 2.442 2.078 3.736 3.118zM349.01 97.412l9.38 40.015h73.155c30.01 0 45.33-40.015 45.33-40.015H349.01zM318.135 172.57c17.7 7.693 40.35 13.687 68.734 14.758 28.577-2.39 49.675-39.896 49.675-39.896h-79.72l-38.69 25.14zM141.61 137.427l9.38-40.015H23.125s15.318 40.015 45.332 40.015h73.152zM181.986 172.65l-38.812-25.22h-79.72s21.137 37.578 49.755 39.904c28.393-1.043 51.06-7.01 68.776-14.684z"/>
  <path d="M249.998 123.824s-33.42 72.767-145.842 72.767c0 262.206 81.52 212.525 145.842 298.59 64.326-86.064 145.846-36.384 145.846-298.59-112.422 0-145.846-72.766-145.846-72.766zm98.538 244.9C334.918 397.58 317 409.79 294.314 425.247c-13.95 9.507-29.22 19.912-44.316 35.066-15.095-15.154-30.365-25.562-44.314-35.066-22.685-15.46-40.602-27.67-54.22-56.52-14.938-31.65-22.91-80.934-24.26-150.264 63.936-5.51 102.07-33.427 122.795-55.83 20.724 22.403 58.853 50.32 122.796 55.83-1.35 69.33-9.322 118.614-24.26 150.263z"/>
  <path d="M197.137 285.972c3.43 0 6.64.48 9.626 1.438 2.987.96 5.976 2.14 8.964 3.54l6.694-17.205c-7.967-3.798-16.32-5.698-25.062-5.698-8.004 0-14.966 1.706-20.885 5.117-5.92 3.412-10.457 8.29-13.61 14.633-3.154 6.345-4.73 13.703-4.73 22.076 0 13.388 3.255 23.623 9.766 30.705 6.508 7.08 15.867 10.62 28.076 10.62 8.52 0 16.154-1.492 22.904-4.48V328.24a104.45 104.45 0 0 1-10.124 3.597 36.407 36.407 0 0 1-10.4 1.493c-11.84 0-17.762-7.782-17.762-23.347 0-7.487 1.457-13.36 4.37-17.62 2.914-4.26 6.972-6.39 12.173-6.39zM234.647 269.21h21.964v80.884h-21.963zM293.458 334.935h26.278l3.984 15.16h23.9l-26.723-81.218H291.74l-26.39 81.217h24.014l4.094-15.16zm11.038-43.43c.977-4.315 1.63-7.414 1.964-9.295.367 2.03 1.133 5.385 2.295 10.07s2.15 8.5 2.96 11.45l3.486 13.28h-17.206c3.357-12.69 5.524-21.19 6.502-25.506z"/>
</svg>