<?xml version="1.0" encoding="UTF-8" standalone="yes"?>
<svg xmlns="http://www.w3.org/2000/svg" viewBox="0 0 100 100">
  <path d="M3.084 50.098h1.62l1.415-1.012-.81-1.01zM18.674 41.722l1.11.708h.51L21 40.306l-2.832-.506.506.506zM20.932 47.903l-.73 1.034v1.79l1.948-1.083 1.383-.602-.12-1.684-1.888-.457-.545 1.237zM18.488 45.868l-.74-.097-.518.504.63.276zM18.828 43.667l-.635-.347-.23 1.284.994-.2zM3.148 47.09l-.664-.268.256 1.253.617-.275zM3.883 44.944L2.83 43.46l-.535.38-.01 1.124.526.742zM.344 45.867l-.125.544.753.173.06-.27-.314-.36zM23.006 42.424l-.693-.266-.694.266v1.065l.997.398zM14.668 39.384H13.09l-.695.267v1.065l1.01-.466zM14.668 42.896l1.824.063.06-2.19-1.193.794-.692.267zM19.406 49.086h-.744l-2.36-.706.772-.932-2.984.626 1.27-3.49-1.27 1.12-2.34-3.98c-.07.022-.14.033-.21.056a6.098 6.098 0 0 0-4.083 4.907l1.652.613-1.71.58c.027.546.125 1.097.307 1.64a6.107 6.107 0 0 0 11.7-.434zM47.04 73.6l-6.435-1.616-.92.936-1.594-1.567-7.397-1.858c.064-.496-.736-3.103-.87-3.634l-.015.03-3.107.885 2.302-1.958-1.936-2.064 1.547-.536-1.768-5.444c5.326-2.245 13.293-5.34 13.383-5.375a2.373 2.373 0 0 0 1.352-3.068 2.364 2.364 0 0 0-3.068-1.35c-.266.102-4.33 1.682-8.584 3.4l-.18 1.546-2.277-.547c-1.063.436-2.095.864-3.032 1.264-1.117-.714-2.525-.98-3.752-.875 0 0-.67.022-1.314.255-.615.224-1.26.6-1.26.6l-.014.01c-1.785 1.133-3.322 3.418-2.52 5.797l.418 1.24.908-.886-.31 2.663 1.76 5.204 1.892-1.847-.36 3.122-1.147-.134 1.147 3.408c.363 1.073 1.088 1.846 1.984 2.344l3.396 9.976.62-.32 1.173 2.27-1.216-.254 2.35 6.905a3.232 3.232 0 0 0 6.12-2.083l-4.826-14.18 15.98 4.014a3.23 3.23 0 0 0 3.924-2.348A3.24 3.24 0 0 0 47.04 73.6zM62.52 49.108a2.654 2.654 0 0 0 2.123-2.315c.39-3.61 1.05-8.034 1.447-9.178.518-.554 2.3-1.863 4.154-3.064 1.19 5.362 1.95 6.27 2.238 6.612 1.076 1.278 5.934 5.356 7.396 6.575a2.643 2.643 0 0 0 1.697.614 2.65 2.65 0 0 0 1.697-4.686c-2.688-2.24-5.875-5-6.637-5.808-.506-1.095-1.514-5.6-2.168-9.28a12.05 12.05 0 0 0-.45-1.44l-3.608-8.514c-1.534.995-3.593 2.147-5.733 2.8a2.47 2.47 0 0 1-3.072-1.637 2.464 2.464 0 0 1 1.64-3.072c3.35-1.02 7.147-3.995 8.063-5.065.04-.12.633.424.633.424-.872 1.074-4.925 4.284-8.478 5.366a1.708 1.708 0 0 0-1.133 2.126 1.71 1.71 0 0 0 2.124 1.133c2.115-.644 4.156-1.8 5.654-2.784l-.006-.014a31.473 31.473 0 0 0 2.008-1.456c4.19-3.296 3.916-4.543 3.752-5.288a2.476 2.476 0 0 0-1.445-1.767c-1.656-.712-3.48.387-6.785 2.382-1.113.673-2.256 1.357-3.344 1.934.8-1.403.963-3.147.285-4.75a5.364 5.364 0 0 0-9.877 4.186 5.36 5.36 0 0 0 6.117 3.136l-.076.117-.023-.046-16.134 8.42-.188-.35-1.588.854.176.328-.488.255.875 1.678 7.475-3.898c.764.12 1.84.106 3.178-.36.06.053.115.108.182.153.3.204 2.998 2.014 4.906 2.672a5.66 5.66 0 0 0 1.855.304c.727 0 1.39-.127 1.934-.282l2.057 4.855c.084.196.184.376.293.547-1.55 1.102-3.063 2.325-3.668 3.276-.778 1.225-1.52 5.067-2.208 11.422a2.65 2.65 0 0 0 2.135 2.884H57v5.174h5.008v39.898h36.385v-39.9h1.39V49.11H62.52zm-2.053-26.942c-.54-.187-1.266-.563-1.96-.96.903-.433 1.567-.75 1.917-.92l.82 1.937c-.262.03-.537.026-.777-.057zM76.13 70.374H65.98V60.53h10.146v9.844zm17.98 0H83.966V60.53H94.11v9.844z"/>
  <path d="M37.504 29.546l-5.19 7.367 6.645-5.975-.05 1.99 1.647-2.163.52 9.035 1.42-8.314 4.5 4.213-3.792-6.406.108 1.813-1.374-1.285-.452 2.633-.228-3.984-1.453 1.907.035-1.35-2.604 2.34 1.748-2.482-1.834-.22 2.405-.255-.446-.624.988-.168-.32-2.92 1.273.722-3.263-6.757 1.56 8.216-5.234-4.662 3.938 5.515-8.306.886z"/>
</svg>