<?xml version="1.0" encoding="iso-8859-1"?>
<!-- Generator: Adobe Illustrator 18.1.1, SVG Export Plug-In . SVG Version: 6.00 Build 0)  -->
<svg version="1.1" id="Capa_1" xmlns="http://www.w3.org/2000/svg" xmlns:xlink="http://www.w3.org/1999/xlink" x="0px" y="0px"
	 viewBox="0 0 611.999 611.999" style="enable-background:new 0 0 611.999 611.999;" xml:space="preserve">
<g>
	<g>
		<rect x="354.327" y="362.417" width="29.521" height="10.735"/>
		<g>
			<path d="M482.092,385.902l-113.26-113.207c15.732-16.152,24.722-37.801,24.922-60.476c11.347-2.741,19.638-12.895,19.638-25.032
				c0-12.145-8.293-22.304-19.641-25.047c-0.192-16.353-4.937-32.231-13.585-45.902c23.76-8.887,35.802-23.596,35.802-43.807
				c0-19.807-11.789-38.253-33.197-51.943C362.109,7.277,334.746,0,305.723,0c-29.028,0-56.395,7.277-77.059,20.49
				c-21.409,13.688-33.2,32.136-33.2,51.943c0,20.283,12.134,35.025,36.075,43.904c-8.597,13.632-13.319,29.449-13.522,45.742
				c-11.396,2.665-19.977,12.993-19.977,25.109c0,12.109,8.578,22.43,19.973,25.094c0.215,22.763,9.198,44.151,25.118,60.473
				L129.931,385.902c-6.401,6.401-9.926,14.911-9.926,23.963c0,9.053,3.525,17.563,9.927,23.965
				c6.605,6.596,15.278,9.895,23.953,9.895c8.675,0,17.083-3.298,23.689-9.895l33.176-33.42v73.379h28.179v138.21h132.842v-138.21
				h28.179v-73.634l33.965,33.676c6.605,6.596,15.412,9.895,24.087,9.895s17.417-3.298,24.022-9.895
				c6.409-6.401,9.971-14.912,9.97-23.967C491.994,400.811,488.499,392.3,482.092,385.902z M393.241,173.449
				c5.367,2.346,8.883,7.607,8.883,13.738c0,6.124-3.516,11.382-8.883,13.726V173.449z M217.459,201.026
				c-5.367-2.297-9.218-7.667-9.218-13.838c0-6.176,3.851-11.551,9.218-13.851V201.026z M206.198,72.433
				c0-34.021,44.646-61.698,99.525-61.698c54.871,0,99.244,27.677,99.244,61.698c0,16.161-10.385,27.541-31.854,34.728V78.886
				l-0.056-3.96c0,0-3.592-1.3-4.515-1.546c-41.176-10.957-85.088-11.316-126.17,0.09l-4.784,1.273v32.51
				c0,0.004,0.26,0.008,0.258,0.011C216.396,100.083,206.198,88.67,206.198,72.433z M248.322,112.834v-4.026h114.057v4.026H248.322z
				 M354.371,123.569c-14.499,8.051-31.301,13.928-48.655,13.928c-17.353,0-34.157-5.877-48.655-13.928H354.371z M248.322,98.074
				V82.931c37.572-9.748,76.485-9.744,114.057,0.016v15.127L248.322,98.074L248.322,98.074z M228.194,211.448v-48.28
				c0-13.981,4.063-27.599,11.124-39.449c18.499,15.59,41.967,24.151,66.266,24.151c24.395,0,47.617-8.632,66.149-24.34
				c7.133,11.894,10.774,25.582,10.774,39.637v48.28c0,22.095-9.244,43.16-25.831,57.797c-14.087,12.45-32.086,19.305-50.924,19.305
				c-18.85,0-36.936-6.874-51.044-19.357c0,0-2.815-2.363-3.686-3.224C236.452,251.4,228.194,232.036,228.194,211.448z
				 M284.436,345.156l15.387,38.51l-22.195-18.096L284.436,345.156z M264.688,338.811l-1.834-47.673l18.445,46.163L264.688,338.811z
				 M278.489,301.34l19.804,19.803l-8.497,8.497L278.489,301.34z M290.202,297.872c5.134,0.934,10.378,1.413,15.682,1.413
				c5.294,0,10.537-0.48,15.677-1.409l-15.678,15.678L290.202,297.872z M333.333,301.285l-11.333,28.384l-8.526-8.526
				L333.333,301.285z M327.481,344.891l6.897,20.678l-22.468,18.318L327.481,344.891z M330.519,337.284l18.656-46.722l-1.856,48.249
				L330.519,337.284z M170.256,426.237c-9.025,9.014-23.71,9.016-32.734,0.001c-4.373-4.373-6.78-10.187-6.78-16.373
				c0-6.185,2.409-12,6.78-16.372l12.215-12.208l33.393,32.087L170.256,426.237z M210.75,343.485v41.749l-20.295,20.549
				l-33.26-32.087l5.59-5.52l10.63,10.59l7.606-7.592l-10.584-10.586l6.147-6.14l10.599,10.591l7.589-7.592l-10.593-10.587
				l31.065-31.317C212.461,324.497,210.75,333.882,210.75,343.485z M221.485,463.055v-119.57c0-17.914,5.801-35.045,16.478-49.391
				c6.181-8.305,13.453-13.749,13.604-13.63l2.763,70.06l17.496-1.586l-7.345,20.267l34.832,28.875v64.973h-59.5h-18.327V463.055z
				 M250.722,601.265c2.367-12.077,12.507-19.779,24.621-19.779c12.116,0,22.254,7.702,24.621,19.779H250.722z M300.653,581.152
				c-6.709-6.394-15.883-10.292-25.723-10.292c-9.614,0-18.558,3.726-25.267,9.86V473.789h50.99V581.152z M294.131,340.487
				l11.753-11.753l11.784,11.785l-11.759,29.449L294.131,340.487z M311.388,601.265v-0.801
				c2.684-11.335,12.569-18.924,24.367-18.924c12.116,0,22.226,7.647,24.593,19.724h-48.96V601.265z M361.036,581.394
				c-6.709-6.536-15.411-10.534-25.374-10.534c-9.414,0-18.907,3.572-24.274,9.479V473.79h49.648V581.394z M389.215,463.055h-17.259
				h-61.91v-64.78l36.258-29.07l-6.458-20.267l17.613,1.586l2.774-70.127c0.068-0.054,0.177-0.105,0.244-0.16
				c5.271,4.294,12.172,13.142,12.172,13.142c11.006,14.542,16.566,31.853,16.566,50.106V463.055z M399.95,384.98v-41.495
				c0-9.817-1.234-19.328-4.137-28.377l33.048,32.899l-9.377,9.437l7.622,7.592l9.464-9.441l6.151,6.139l-9.439,9.437l7.591,7.592
				l9.448-9.44l4.495,4.492l-33.661,32.087L399.95,384.98z M474.505,426.237c-9.027,9.014-23.712,9.014-32.736,0.001l-12.752-12.743
				l33.393-32.087l12.094,12.089c4.377,4.372,6.788,10.186,6.788,16.37C481.294,416.049,478.882,421.863,474.505,426.237z"/>
			<circle cx="330.652" cy="407.377" r="10.221"/>
			<circle cx="330.652" cy="439.074" r="10.221"/>
			<circle cx="270.321" cy="197.507" r="12.679"/>
			<circle cx="341.113" cy="197.507" r="12.679"/>
			<path d="M306.688,56.477c6.995,0,12.945-4.026,15.163-10.735h11.007V35.007h-11.007c-2.218-6.709-8.168-10.735-15.163-10.735
				s-12.945,4.026-15.163,10.735h-13.683v10.735h13.683C293.742,52.451,299.693,56.477,306.688,56.477z M306.688,35.116
				c2.96,0,5.367,2.407,5.367,5.367c0,2.959-2.407,5.367-5.367,5.367s-5.367-2.407-5.367-5.367S303.728,35.116,306.688,35.116z"/>
		</g>
	</g>
</g>
<g>
</g>
<g>
</g>
<g>
</g>
<g>
</g>
<g>
</g>
<g>
</g>
<g>
</g>
<g>
</g>
<g>
</g>
<g>
</g>
<g>
</g>
<g>
</g>
<g>
</g>
<g>
</g>
<g>
</g>
</svg>
