<?xml version="1.0" encoding="iso-8859-1"?>
<!-- Generator: Adobe Illustrator 18.1.1, SVG Export Plug-In . SVG Version: 6.00 Build 0)  -->
<svg version="1.1" id="Capa_1" xmlns="http://www.w3.org/2000/svg" xmlns:xlink="http://www.w3.org/1999/xlink" x="0px" y="0px"
	 viewBox="0 0 612 612" style="enable-background:new 0 0 612 612;" xml:space="preserve">
<g>
	<g>
		<circle cx="268.382" cy="174.127" r="13.359"/>
		<circle cx="342.97" cy="174.127" r="13.359"/>
		<path d="M490.106,372.884l-55.736-55.749l9.68-9.68l-57.591-57.591l-9.316,9.317c-0.413-0.43-4.109-4.051-5.609-5.38
			c16.318-16.503,26.488-39.085,26.789-64.004c12.023-2.852,20.811-13.573,20.811-26.425c0-5.044-1.415-9.864-3.919-14.016h18.655
			l-4.615-10.96c-5.873-13.947-10.367-29.503-13.356-46.237C406.362,38.757,360.006,0,305.676,0
			c-54.328,0-100.684,38.757-110.223,92.158c-2.989,16.732-7.482,32.289-13.356,46.239l-4.613,10.958h18.652
			c-2.502,4.154-3.918,8.972-3.918,14.016c0,12.868,8.787,23.589,20.811,26.43c0.303,24.927,10.478,47.514,26.806,64.017
			c-1.945,1.723-3.824,3.512-5.617,5.37l-9.325-9.325l-57.59,57.591l10.004,10.006l-55.438,55.425
			c-13.922,13.923-13.922,36.575,0,50.497c6.962,6.962,16.105,10.442,25.248,10.442c9.143,0,18.288-3.481,25.248-10.442
			l33.977-33.977v76.21h28.7V612h141.268V465.614h28.686v-76.846l34.613,34.613c6.962,6.963,16.105,10.442,25.249,10.442
			c9.142,0,18.286-3.481,25.245-10.44c6.752-6.744,10.471-15.71,10.471-25.249C500.574,388.595,496.856,379.627,490.106,372.884z
			 M386.46,265.859l41.596,41.596l-11.682,11.682l-41.596-41.596L386.46,265.859z M398.353,177.896v-28.542h1.033
			c5.159,2.734,8.439,8.121,8.439,14.016C407.825,169.882,403.96,175.448,398.353,177.896z M213.003,177.905
			c-5.607-2.443-9.472-8.013-9.472-14.534c0-5.894,3.274-11.279,8.428-14.016h1.045V177.905z M194.445,138.044
			c5.261-13.464,9.341-28.205,12.143-43.899c8.573-47.997,50.247-82.835,99.089-82.835s90.515,34.838,99.088,82.835
			c2.804,15.695,6.882,30.435,12.143,43.899H194.445z M224.313,188.663v-39.308h162.729v39.309c0,44.873-36.5,81.38-81.365,81.38
			C260.812,270.043,224.313,233.537,224.313,188.663z M367.498,265.509c-6.617,7.157-19.863,21.537-30.681,33.625
			c-2.288-8.227-7.333-14.746-12.908-19.591c14.557-2.917,27.879-9.266,39.116-18.148
			C364.561,262.714,366.057,264.086,367.498,265.509z M287.451,279.543c-5.575,4.841-10.621,11.356-12.908,19.577
			c-3.715-4.154-26.13-28.689-30.675-33.601c1.441-1.421,2.927-2.802,4.465-4.123C259.571,270.279,272.893,276.627,287.451,279.543z
			 M245.802,284.311c3.116,3.395,23.189,25.482,29.09,32.3l12.208,14.1l-2.321-18.505c-1.835-14.626,8.101-23.486,15.157-27.855
			v105.804H273.86v8.39h-56.207V328.15c0-5.876,0.614-11.736,1.772-17.461L245.802,284.311z M326.184,401.463v28.856h-41.013
			v-28.856H326.184z M273.86,409.853v12.074h-56.207v-12.074H273.86z M224.894,265.859l11.682,11.682l-41.596,41.596l-11.682-11.682
			L224.894,265.859z M164.369,415.385c-9.512,9.514-24.989,9.512-34.501,0s-9.512-24.99,0-34.501l12.881-12.877l35.178,33.822
			L164.369,415.385z M206.344,328.15v45.26l-20.418,20.418l-35.177-33.821l34.558-34.549l9.675,9.675l11.484-11.484
			C206.398,325.147,206.344,326.649,206.344,328.15z M217.654,454.304v-21.066h56.207v8.392h26.076v12.675h-82.284V454.304z
			 M246.958,600.69c2.596-12.447,13.365-20.981,26.229-20.981s23.632,8.532,26.228,20.981H246.958z M300.023,579.399
			c-6.897-6.813-16.38-11.001-26.835-11.001c-10.454,0-19.936,4.186-26.833,10.999V465.614h53.668L300.023,579.399L300.023,579.399z
			 M311.935,600.69c2.596-12.447,13.365-20.981,26.228-20.981c12.864,0,23.633,8.532,26.229,20.981H311.935z M365.001,579.4
			c-6.897-6.815-16.38-11.002-26.837-11.002c-10.452,0-19.935,4.186-26.831,10.998V465.614h53.668V579.4z M393.687,454.304h-82.439
			v-12.675h26.246v-8.392h56.193V454.304z M393.687,421.928h-56.193v-12.074h56.193V421.928z M393.687,398.542h-56.193v-8.39
			h-26.246V284.239c7.069,4.335,17.176,13.223,15.333,27.974l-2.309,18.476l12.194-14.07c7.684-8.867,19.649-22.019,29.089-32.306
			l26.362,26.362c1.156,5.724,1.771,11.59,1.771,17.475v70.393H393.687z M404.998,372.774V328.15c0-1.507-0.055-3.011-0.123-4.516
			l11.499,11.498l10-10l36.234,36.243l-35.181,33.827L404.998,372.774z M482.108,415.385c-9.512,9.514-24.989,9.512-34.501,0
			l-12.183-12.183l35.181-33.825l11.506,11.508c4.613,4.608,7.154,10.734,7.154,17.25
			C489.263,404.65,486.723,410.774,482.108,415.385z"/>
		<rect x="338.109" y="330.85" width="38.173" height="11.31"/>
		<rect x="234.901" y="330.85" width="39.587" height="11.31"/>
		<path d="M305.675,83.494c-11.098,0-20.127,9.03-20.127,20.127c0,11.1,9.029,20.128,20.127,20.128s20.128-9.03,20.128-20.128
			S316.773,83.494,305.675,83.494z M305.675,112.439c-4.862,0-8.816-3.956-8.816-8.818c0-4.861,3.956-8.816,8.816-8.816
			c4.862,0,8.818,3.956,8.818,8.816C314.493,108.483,310.537,112.439,305.675,112.439z"/>
	</g>
</g>
<g>
</g>
<g>
</g>
<g>
</g>
<g>
</g>
<g>
</g>
<g>
</g>
<g>
</g>
<g>
</g>
<g>
</g>
<g>
</g>
<g>
</g>
<g>
</g>
<g>
</g>
<g>
</g>
<g>
</g>
</svg>
