<?xml version="1.0" encoding="iso-8859-1"?>
<!-- Generator: Adobe Illustrator 18.1.1, SVG Export Plug-In . SVG Version: 6.00 Build 0)  -->
<svg version="1.1" id="Capa_1" xmlns="http://www.w3.org/2000/svg" xmlns:xlink="http://www.w3.org/1999/xlink" x="0px" y="0px"
	 viewBox="0 0 612 612" style="enable-background:new 0 0 612 612;" xml:space="preserve">
<g>
	<g>
		<path d="M503.48,350.793l-99.4-99.414c5.178-7.075,8.246-15.788,8.246-25.208c0-13.36-6.159-25.305-15.784-33.156
			c5.198-11.928,7.893-24.856,8.055-38.516c12.978-2.934,22.75-14.622,22.75-28.415c0-13.803-9.776-25.497-22.757-28.431
			c-0.438-26.031-10.625-50.314-28.847-68.535C356.967,10.34,331.998,0,305.433,0c-54.297,0-98.542,43.73-99.4,97.801
			c-12.734,3.168-22.043,14.648-22.043,28.283c0,13.626,9.304,25.095,22.035,28.266c0.153,13.445,3.004,26.495,8.502,38.882
			c-9.471,7.853-15.515,19.703-15.515,32.939c0,9.595,3.175,18.461,8.531,25.605l-99,99.014c-7.242,7.233-11.23,16.851-11.23,27.082
			c0,10.232,3.988,19.849,11.227,27.079c7.236,7.237,16.854,11.224,27.079,11.224c10.226,0,19.843-3.985,27.079-11.222l37.783-37.77
			c2.55,69.465,10.234,138.702,22.863,205.371L230.365,612H380.17l6.349-34.601c13.48-68.438,21.74-139.009,24.583-209.682
			l38.207,37.769c14.881,14.863,39.182,14.721,54.171-0.268c7.227-7.228,11.207-16.901,11.207-27.205
			C514.688,367.7,510.707,358.019,503.48,350.793z M400.195,226.171c0,16.9-13.749,30.648-30.648,30.648
			c-16.9,0-30.648-13.749-30.648-30.648s13.749-30.648,30.648-30.648C386.446,195.523,400.195,209.271,400.195,226.171z
			 M242.318,144.458c3.033,10.561,12.573,18.331,24.079,18.331c13.879,0,25.109-11.291,25.109-25.17
			c0-13.879-11.2-25.17-25.079-25.17c-11.506,0-21.077,7.77-24.11,18.333V124.2c0-35.065,28.621-63.592,63.686-63.592
			s63.686,28.527,63.686,63.592v6.508c-3.033-10.525-12.918-18.258-24.396-18.258c-13.879,0-25.276,11.291-25.276,25.17
			c0,13.878,11.451,25.17,25.33,25.17c11.479,0,21.309-7.733,24.342-18.257V183.4c-9.098,0.058-16.865,2.678-23.567,7.139
			c-0.481-1.011-2.234-3.78-2.234-3.78c-8.065-13.257-22.656-21.462-38.253-21.462c-15.7,0-30.419,8.393-38.462,21.919
			c-0.1,0.152-1.199,2.328-1.673,3.293c-6.693-4.443-15.602-7.052-23.183-7.109v-38.941H242.318z M253.238,137.621
			c0-7.19,5.849-13.039,13.039-13.039c7.189,0,13.039,5.849,13.039,13.039c0,7.189-5.849,13.039-13.039,13.039
			C259.088,150.659,253.238,144.81,253.238,137.621z M358.118,137.621c0,7.189-5.849,13.039-13.039,13.039
			c-7.189,0-13.039-5.849-13.039-13.039c0-7.19,5.848-13.039,13.039-13.039C352.27,124.582,358.118,130.431,358.118,137.621z
			 M274.891,199.106c0.285-1.394,2.625-5.551,2.625-5.551c5.847-9.949,16.621-16.131,28.116-16.131
			c10.634,0,20.424,5.36,26.674,13.791c2.008,2.708,3.41,6.159,4.023,8.044c-5.971,7.356-9.559,16.722-9.559,26.913
			c0,3.921,0.541,7.717,1.535,11.327c-7.339,1.968-14.921,2.98-22.627,2.98c-7.714,0-15.3-1.011-22.64-2.98
			c0.993-3.61,1.533-7.406,1.533-11.327C284.57,215.91,280.935,206.484,274.891,199.106z M415.151,126.083
			c0,7.063-4.519,13.171-10.584,15.721v-31.456C410.632,112.902,415.151,119.014,415.151,126.083z M392.436,99.396v53.815
			c0,11.893-1.942,23.123-6.223,33.488c-1.504-0.631-2.875-1.169-4.391-1.627v-60.87c0-39.573-30.327-72.134-69.752-75.427V12.408
			c21.229,1.568,40.136,10.391,55.031,25.285C383.438,54.032,392.436,75.944,392.436,99.396z M196.055,126.083
			c0-6.849,3.806-12.768,9.871-15.465v30.917C199.861,138.839,196.055,132.927,196.055,126.083z M218.057,153.211V99.396
			c0-46.295,36.392-84.267,81.882-87.08v36.397c-39.425,2.908-69.752,35.642-69.752,75.489v60.872
			c-1.516,0.491-3.513,1.077-5.119,1.765C220.529,176.095,218.057,164.814,218.057,153.211z M241.791,195.523
			c16.9,0,30.648,13.749,30.648,30.648s-13.749,30.648-30.648,30.648s-30.648-13.749-30.648-30.648
			C211.141,209.271,224.891,195.523,241.791,195.523z M154.121,396.374c-4.946,4.946-11.517,7.67-18.502,7.67
			c-6.984,0-13.555-2.723-18.504-7.673c-4.948-4.942-7.673-11.511-7.673-18.499c0-6.989,2.725-13.558,7.676-18.502l13.808-13.811
			l37.734,36.28L154.121,396.374z M340.513,572.606c15.336,0,27.872,12.099,28.7,27.262h-57.399
			C312.642,584.706,325.177,572.606,340.513,572.606z M242.124,599.869c0.828-15.163,13.363-27.262,28.7-27.262
			s27.873,12.099,28.7,27.262H242.124z M399.886,339.379l-0.422,13.943c-2.253,74.663-10.613,149.162-24.86,221.495l-0.481,2.591
			c-7.394-10.631-19.732-17.544-33.643-17.544c-11.013,0-20.828,4.338-28.41,11.416V458.85h21.229v-12.131H278.71v12.131h21.229
			v113.219c-7.582-7.545-17.731-12.205-29.149-12.205c-14.223,0-26.751,7.225-34.086,18.263l-1.442-8.081
			c-13.37-70.576-21.141-143.659-23.107-217.218l-0.375-14.099l-34.544,34.533l-37.736-36.281l76.607-76.619
			c7.157,5.389,16.05,8.589,25.679,8.589c15.317,0,28.771-8.096,36.33-20.228c8.913,2.57,18.157,3.886,27.556,3.886
			c9.391,0,18.63-1.316,27.541-3.886c7.557,12.132,21.013,20.228,36.33,20.228c9.803,0,18.839-3.322,26.061-8.889l78.373,78.386
			l-38.078,36.61L399.886,339.379z M494.902,396.601c-10.263,10.263-26.87,10.364-37.04,0.208l-13.338-13.212l38.036-36.57
			l12.341,12.345c4.936,4.936,7.654,11.55,7.654,18.622C502.557,385.056,499.838,391.664,494.902,396.601z"/>
		<path d="M336.616,292.435l-5.25-3.143l-17.77,30.28c-2.44-0.787-5.037-1.221-7.736-1.221c-2.594,0-5.096,0.396-7.454,1.124
			l-17.77-30.301l-5.239,3.093c-18.195,10.745-29.497,30.536-29.497,51.651c0,0.387,0.27,7.013,0.27,7.013l35.422-0.244
			c1.304,4.485,3.821,8.446,7.171,11.529l-17.802,30.841l5.306,3.017c8.977,5.106,19.21,7.803,29.593,7.803
			c10.505,0,20.834-2.754,29.872-7.964l5.259-3.031l-17.818-30.859c3.24-3.054,5.677-6.94,6.955-11.327l35.428,0.25
			c0,0,0.265-6.635,0.265-7.028C365.821,322.947,354.63,303.221,336.616,292.435z M319.018,343.639
			c0,7.254-5.903,13.157-13.157,13.157c-7.254,0-13.157-5.903-13.157-13.157c0-7.256,5.903-13.157,13.157-13.157
			S319.018,336.383,319.018,343.639z M258.319,338.715c1.421-12.828,8.035-24.642,18.208-32.571l10.378,17.696
			c-4.156,3.945-7.015,9.116-8.137,14.736L258.319,338.715z M287.769,388.204l10.269-17.793c5.159,1.518,10.792,1.486,15.92-0.085
			l10.26,17.768C312.755,392.856,299.286,392.901,287.769,388.204z M332.973,338.583c-1.081-5.563-3.842-10.628-7.927-14.554
			l10.388-17.702c10.035,7.935,16.561,19.681,17.97,32.398L332.973,338.583z"/>
	</g>
</g>
<g>
</g>
<g>
</g>
<g>
</g>
<g>
</g>
<g>
</g>
<g>
</g>
<g>
</g>
<g>
</g>
<g>
</g>
<g>
</g>
<g>
</g>
<g>
</g>
<g>
</g>
<g>
</g>
<g>
</g>
</svg>
