<?xml version="1.0" encoding="iso-8859-1"?>
<!-- Generator: Adobe Illustrator 18.1.1, SVG Export Plug-In . SVG Version: 6.00 Build 0)  -->
<svg version="1.1" id="Capa_1" xmlns="http://www.w3.org/2000/svg" xmlns:xlink="http://www.w3.org/1999/xlink" x="0px" y="0px"
	 viewBox="0 0 612.002 612.002" style="enable-background:new 0 0 612.002 612.002;" xml:space="preserve">
<g>
	<g>
		<circle cx="263.322" cy="139.586" r="14.551"/>
		<circle cx="344.566" cy="139.586" r="14.551"/>
		<circle cx="257.823" cy="317.888" r="9.297"/>
		<circle cx="348.538" cy="317.888" r="9.297"/>
		<rect x="241.289" y="376.384" width="124.738" height="12.32"/>
		<path d="M490.179,326.652l-86.876-86.892c-7.46-7.458-16.944-11.896-27.06-13.564c1.304-1.338,2.561-2.271,3.79-3.811h1.734
			c18.775,0,35.082-15.925,35.082-34.7v-15.072c13.86-2.869,24.64-15.497,24.64-30.604v-18.591c0-15.106-10.78-27.735-24.64-30.604
			V59.803c0-19.136-16.599-34.534-35.734-34.534h-10.313C352.34,9.87,328.774,0,304.131,0c-24.587,0-48.12,9.87-66.578,25.269
			h-11.002c-19.444,0-34.542,15.649-34.542,35.093v32.452c-13.86,2.869-24.64,15.497-24.64,30.604v18.594
			c0,15.106,10.78,27.735,24.64,30.604v15.072c0,18.775,14.553,34.7,33.328,34.7h2.75c1.549,1.54,3.146,3.222,4.783,4.889
			c-8.293,2.265-15.971,6.528-22.126,12.683l-86.386,86.41c-24.903,2.67-44.364,23.771-44.364,49.373
			c0,27.402,22.294,49.68,49.697,49.68c26.349,0,48.266-20.623,49.891-46.569l35.526-36.283v74.934v106.719h12.32v87.779h153.998
			v-87.779h10.78v-106.72v-75.576l41.043,40.053c3.095,24.45,23.859,43.424,49.136,43.424c27.402,0,49.621-22.294,49.621-49.697
			C532.008,351.008,513.817,330.468,490.179,326.652z M416.847,105.57c7.7,2.563,12.32,9.586,12.32,17.848v18.594
			c0,8.262-4.62,15.286-12.32,17.848V105.57z M192.01,159.862c-7.7-2.563-12.32-9.586-12.32-17.848v-18.595
			c0-8.262,4.62-15.286,12.32-17.848V159.862z M304.131,12.32c16.396,0,32.252,5.25,46.027,12.95h-91.969
			C271.952,17.57,287.777,12.32,304.131,12.32z M219.73,109.977v98.551c-9.24-2.663-15.4-10.999-15.4-20.842V60.362
			c0-12.651,9.571-22.773,22.222-22.773h154.561c12.343,0,23.414,9.871,23.414,22.214v127.884c0,9.844-7.7,18.179-15.4,20.842
			v-98.552c0-12.702-11.534-23.109-24.236-23.109H242.212C229.512,86.868,219.73,97.276,219.73,109.977z M232.05,109.977
			c0-5.907,4.255-10.789,10.162-10.789h122.679c5.907,0,11.916,4.882,11.916,10.789v97.559c-6.16,7.586-12.726,14.211-20.32,19.693
			c-15.15,11.008-33.413,16.826-52.242,16.826c-19.293,0-37.498-6.088-52.892-17.61c-7.318-5.467-13.145-12.198-19.305-20.485
			v-95.984H232.05z M129.694,413.084c-20.609,0-37.377-16.767-37.377-37.377c0-20.609,16.767-37.377,37.377-37.377
			s37.377,16.767,37.377,37.377C167.07,396.317,150.303,413.084,129.694,413.084z M177.682,362.806
			c-4.757-17.677-19.04-31.479-36.986-35.553l0.011-0.008l16.087-16.088l36.739,35.324L177.682,362.806z M240.05,599.68
			c2.92-13.86,14.582-23.069,28.506-23.069c13.924,0,25.585,9.209,28.507,23.069H240.05z M298.269,575.698
			c-7.7-7.352-17.779-11.866-29.106-11.866c-11.48,0-23.254,4.634-29.414,12.161v-16.353h58.519V575.698z M298.269,547.321h-58.519
			v-23.1h58.519V547.321z M310.826,599.68c2.92-13.86,14.582-23.069,28.506-23.069s25.585,9.209,28.507,23.069H310.826z
			 M369.107,575.758c-7.7-7.387-17.811-11.926-29.169-11.926c-11.447,0-23.19,4.606-29.35,12.097v-16.288h58.519V575.758z
			 M369.107,547.321h-58.519v-23.1h58.519V547.321z M379.887,511.902h-69.299v-38.499h18.48v-12.32h-19.086h-12.32h-19.413v12.32
			h20.02v38.499H227.43v-98.558h152.458V511.902z M379.887,401.023H227.43v-38.499h152.458V401.023z M379.887,312.84v37.364H227.43
			v-38.007l-25.011,25.459l-36.767-35.192h-0.075l53.922-53.861c6.93-6.93,16.01-10.818,25.741-10.818c0.014,0,0.029,0,0.043,0
			c17.174,12.32,37.401,18.705,58.661,18.705c20.95,0,40.953-6.4,57.951-18.377c11.973-1.997,24.116,1.811,32.694,10.389
			l51.466,51.46l-39.861,38.609L379.887,312.84z M414.757,347.13l40.012-38.47l18.223,18.226c-19.636,3.711-35.225,19-39.365,38.484
			L414.757,347.13z M482.234,413.084c-20.609,0-37.378-16.767-37.378-37.377c0-20.609,16.767-37.377,37.378-37.377
			c20.609,0,37.377,16.767,37.377,37.377C519.611,396.317,502.845,413.084,482.234,413.084z"/>
	</g>
</g>
<g>
</g>
<g>
</g>
<g>
</g>
<g>
</g>
<g>
</g>
<g>
</g>
<g>
</g>
<g>
</g>
<g>
</g>
<g>
</g>
<g>
</g>
<g>
</g>
<g>
</g>
<g>
</g>
<g>
</g>
</svg>
