<?xml version="1.0" encoding="iso-8859-1"?>
<!-- Generator: Adobe Illustrator 18.1.1, SVG Export Plug-In . SVG Version: 6.00 Build 0)  -->
<svg version="1.1" id="Capa_1" xmlns="http://www.w3.org/2000/svg" xmlns:xlink="http://www.w3.org/1999/xlink" x="0px" y="0px"
	 viewBox="0 0 611.997 611.997" style="enable-background:new 0 0 611.997 611.997;" xml:space="preserve">
<g>
	<g>
		<rect x="337.339" y="274.943" width="37.285" height="11.931"/>
		<rect x="240.399" y="274.943" width="37.285" height="11.931"/>
		<rect x="337.339" y="298.806" width="37.285" height="11.931"/>
		<path d="M500.246,360.308c0,0-101.548-101.965-125.414-125.322c6.51-6.494,12.113-13.94,16.616-22.138
			c0.444,0.23,0.901,0.443,1.384,0.616c4.356,1.551,9.063,0.243,11.991-3.336c18.941-23.146,29.372-52.173,29.372-81.733
			C434.194,57.598,376.542,0,305.68,0c-27.944,0-54.5,8.825-76.799,25.521c-21.551,16.135-37.798,39.124-45.75,64.737
			c-3.818,12.353-5.754,25.184-5.754,38.136c0,29.506,10.508,58.54,29.588,81.755c2.112,2.571,5.139,3.967,8.291,3.967
			c1.226,0,2.47-0.212,3.687-0.647c0.359-0.128,0.692-0.298,1.029-0.459c4.47,8.192,9.98,15.6,16.373,22.044
			c-24.783,23.843-124.557,125.253-124.557,125.253c-7.114,7.114-11.03,16.572-11.03,26.633c0,10.062,3.918,19.519,11.033,26.636
			c7.35,7.341,16.996,11.009,26.644,11.009c9.648,0,18.996-3.67,26.337-11.011l35.362-35.661v15.364v41.242h31.319v177.476h67.712
			h5.966h75.078l-0.491-177.476h30.702v-41.242V377.63l36.244,35.944c7.114,7.114,16.724,11.032,26.791,11.032
			s19.603-3.918,26.717-11.032c7.114-7.114,11.069-16.572,11.069-26.633C511.239,376.88,507.36,367.422,500.246,360.308z
			 M156.633,405.138c-10.033,10.034-26.366,10.033-36.409,0c-4.86-4.859-7.538-11.323-7.538-18.197s2.677-13.338,7.538-18.197
			l3.019-3.02l37.116,35.686L156.633,405.138z M200.131,361.04l-31.634,31.934l-22.706-21.686l54.34-54.49V361.04z M201.702,298.953
			l-64.063,64.063l-5.958-5.728l73.116-73.116C203.403,289.001,202.382,293.941,201.702,298.953z M421.963,128.135
			c0,25.752-8.562,51.326-24.967,71.914v-70.627c0-12.149-4.407-23.008-12.745-31.956h33.955
			C420.835,107.907,421.963,117.614,421.963,128.135z M342.989,34.332c14.298,5.039,24.307,18.641,24.274,34.612
			c-0.043,20.134-15.874,36.515-36.729,36.544c-8.675-0.025-16.729-3.086-23.2-8.491c21.754-4.765,38.083-24.178,38.132-47.332
			C345.478,44.408,344.608,39.242,342.989,34.332z M310.356,112.381h-60.484c-8.996,0-17.156,4.11-23.093,9.989
			c2.637-12.61,12.805-22.526,26.064-24.708c1.757-0.289,9.4-0.195,9.4-0.195h29.719
			C296.841,104.924,303.175,109.398,310.356,112.381z M249.872,124.312h27.929l-41.978,42.236c-4.309-5.888-6.86-13.264-6.86-21.079
			C228.963,133.939,238.342,124.312,249.872,124.312z M294.675,124.312h8.48l-53.376,53.634c-1.897-0.868-3.706-2.025-5.408-3.202
			L294.675,124.312z M320.029,124.312h38.308l-40.52,40.52c-3.788-5.642-6.001-12.183-6.001-19.64h-11.931
			c-0.002,19.388-15.903,35.953-35.45,35.953c-0.321,0-0.637-0.145-0.954-0.154L320.029,124.312z M372.263,127.775
			c1.433,0.858,2.761,1.875,3.949,3.039l-45.948,45.948c-1.481-0.817-2.898-1.734-4.242-2.747L372.263,127.775z M382.186,141.715
			c0.28,1.371,0.43,2.787,0.43,4.236c0,19.442-15.871,35.181-35.376,35.189c-1.427,0-2.832-0.097-4.215-0.264L382.186,141.715z
			 M361.706,112.381H351.12c6.276-2.983,11.827-6.85,16.314-12.009c9.105,4.289,15.57,12.311,17.563,22.064
			C379.043,116.441,370.802,112.381,361.706,112.381z M305.68,11.412c49.334,0,91.576,30.872,108.572,74.122h-38.065
			c2.028-4.474,3.154-10.828,3.166-16.85c0.055-26.14-20.349-47.338-46.451-48.457l-11.59-0.433l6.337,9.748
			c3.891,5.966,5.94,12.659,5.924,19.818c-0.04,19.163-14.902,34.682-33.755,36.174H197.242
			C214.562,40.794,257.152,11.412,305.68,11.412z M213.554,129.332v70.704c-14.914-20.644-24.547-46.215-24.547-71.902
			c0-10.297,1.648-20.228,4.309-30.668h34.21C219.215,106.416,213.554,117.073,213.554,129.332z M225.485,198.109v-24.155
			c8.948,11.846,22.897,19.569,38.648,19.569c17.801,0,33.491-10.104,41.586-24.675c8.101,14.468,23.75,24.067,41.5,24.067h0.033
			c15.809,0,30.354-7.351,37.811-19.275v23.501c-11.931,32.742-44.772,54.678-79.984,54.678
			C269.793,251.821,238.907,230.768,225.485,198.109z M212.062,313.117c0-20.076,6.683-39.249,18.756-55.446
			c4.003-5.363,8.528-10.335,13.77-14.85c15.584,12.317,34.587,19.751,55.466,20.789v129.152h-87.992L212.062,313.117
			L212.062,313.117z M212.062,422.591v-17.897h60.014l-10.732,17.897H212.062z M243.382,434.522h8.948v137.416
			c-2.983,1.882-5.966,4.23-8.948,6.957V434.522z M245.489,600.067c2.549-11.931,13.578-21.819,26.756-21.819
			c13.179,0,24.207,9.888,26.757,21.819H245.489z M298.563,577.561c-5.966-6.641-16.504-10.728-26.918-10.728
			c-2.525,0-4.401,0.249-7.384,0.707V434.522h34.302V577.561z M311.174,600.067c2.549-11.931,13.578-21.819,26.757-21.819
			c13.179,0,24.207,9.888,26.757,21.819H311.174z M310.494,577.483V434.521h34.302v133.032c-1.491-0.468-4.913-0.72-7.464-0.72
			C326.959,566.833,317.951,570.887,310.494,577.483z M356.728,571.983V434.521h11.057l0.104,145.997
			C364.862,576.855,361.202,574.354,356.728,571.983z M398.487,422.591H275.118l10.732-17.897h112.636V422.591z M398.487,392.763
			h-86.501V263.495c20.88-1.42,38.733-8.901,53.911-20.856c1.884,1.596,3.809,3.209,5.426,4.825
			c2.957,2.957,4.834,5.254,6.602,7.461c13.406,16.625,20.563,37.291,20.563,58.193v79.645H398.487z M409.863,298.02
			c-0.734-4.884-1.809-9.715-3.23-14.452l77.515,77.515l-5.721,5.5L409.863,298.02z M410.418,360.757v-44.709l59.107,58.807
			l-22.944,21.915L410.418,360.757z M491.809,405.138c-4.86,4.86-11.326,7.538-18.205,7.538c-6.845,0-13.279-2.655-18.132-7.47
			l37.075-35.646c4.376,4.759,6.799,10.878,6.799,17.384C499.345,393.816,496.67,400.279,491.809,405.138z"/>
	</g>
</g>
<g>
</g>
<g>
</g>
<g>
</g>
<g>
</g>
<g>
</g>
<g>
</g>
<g>
</g>
<g>
</g>
<g>
</g>
<g>
</g>
<g>
</g>
<g>
</g>
<g>
</g>
<g>
</g>
<g>
</g>
</svg>
