<?xml version="1.0" encoding="iso-8859-1"?>
<!-- Generator: Adobe Illustrator 18.1.1, SVG Export Plug-In . SVG Version: 6.00 Build 0)  -->
<svg version="1.1" id="Capa_1" xmlns="http://www.w3.org/2000/svg" xmlns:xlink="http://www.w3.org/1999/xlink" x="0px" y="0px"
	 viewBox="0 0 612 612" style="enable-background:new 0 0 612 612;" xml:space="preserve">
<g>
	<g>
		<path d="M509.446,333.119c0-7.009-2.736-13.605-7.705-18.573c-10.241-10.227-26.906-10.225-37.152,0.005l-7.828,7.841l7.241,7.229
			l7.821-7.835c6.255-6.244,16.433-6.244,22.685-0.001c3.034,3.033,4.704,7.059,4.704,11.334c0,4.284-1.67,8.312-4.706,11.346
			l-50.293,50.294c0,0-105.004-105.611-106.368-106.818c14.759-14.929,23.979-35.348,24.252-57.888
			c10.878-2.581,18.828-12.284,18.828-23.919c0-11.628-7.948-21.324-18.824-23.905c-0.193-11.445-2.741-22.795-7.431-33.16
			c7.837-6.253,13.943-14.845,17.158-25.149l2.966-9.503l-9.453,3.12c-7.688,2.54-15.927,2.768-23.808,0.66
			c-3.962-1.068-7.678-2.674-11.092-4.776v-24.21c23.075-1.716,41.331-21.029,41.331-44.536C371.775,20.04,351.734,0,327.101,0
			c-8.79,0-17.152,2.498-24.408,7.261C295.435,2.498,287.073,0,278.283,0c-8.79,0-17.152,2.498-24.409,7.261
			C246.618,2.498,238.256,0,229.466,0c-24.633,0-44.673,20.04-44.673,44.673c0,23.508,18.256,42.82,41.332,44.536v28.821
			c-19.413,15.482-31.23,39.09-31.659,64.195c-10.877,2.572-18.825,12.27-18.825,23.91c0,11.648,7.951,21.351,18.827,23.923
			c0.274,22.541,9.496,42.959,24.254,57.887c-4.511,3.996-106.726,107.732-106.726,107.732c-12.591,12.591-12.592,33.089,0,45.696
			c6.298,6.298,14.57,9.447,22.841,9.447c8.272,0,16.544-3.149,22.841-9.447l30.751-30.751v68.945h25.952V612h127.802V479.569
			h25.952v-69.507l30.389,30.387l-10.13,10.125c-17.791,17.793-17.791,47.855,0,65.646c8.632,8.634,20.264,13.388,32.751,13.388
			c12.398,0,24.387-4.878,32.896-13.388l3.617-3.617l-58.409-58.41l7.403-7.403c4.849,2.681,10.241,4.03,15.639,4.03
			c8.272,0,16.544-3.15,22.841-9.447c6.107-6.106,9.47-14.222,9.47-22.853c0-5.565-1.406-10.91-4.035-15.644l51.176-51.176
			C506.71,346.736,509.446,340.136,509.446,333.119z M362.125,192.993c5.073,2.214,8.57,7.252,8.57,13.142
			c0,5.895-3.497,10.936-8.57,13.152V192.993z M194.443,219.296c-5.073-2.213-8.57-7.256-8.57-13.16
			c0-5.899,3.497-10.938,8.57-13.149V219.296z M338.883,128.081c6.376,1.704,12.935,2.181,19.377,1.441
			c-9.269,15.919-28.237,24.165-46.807,19.183c-1.557-0.421-4.872-1.637-4.872-1.637c-3.326-1.196-8.706-4.803-8.706-4.803
			c-7.367-5.303-12.813-12.961-15.483-21.568h40.486C327.721,124.031,333.089,126.518,338.883,128.081z M271.785,120.696
			c2.712,11.078,9.076,21.107,17.991,28.26l2.416,1.78c-14.403,2.559-29.464-2.618-39.231-14.25
			c-3.902-4.643-6.716-10.021-8.296-15.791H271.785z M236.358,110.463V88.812c6.256-0.962,12.187-3.226,17.518-6.725
			c7.256,4.763,15.618,7.261,24.409,7.261c8.79,0,17.152-2.498,24.409-7.261c5.331,3.499,11.263,5.763,17.519,6.725v21.652H236.358z
			 M195.025,44.673c0-18.991,15.45-34.441,34.441-34.441c7.782,0,15.129,2.54,21.247,7.348l3.16,2.483l3.161-2.483
			c6.12-4.808,13.467-7.348,21.249-7.348c7.782,0,15.129,2.54,21.249,7.348l3.16,2.483l3.161-2.483
			c6.119-4.808,13.466-7.348,21.247-7.348c18.991,0,34.441,15.45,34.441,34.441s-15.451,34.442-34.441,34.442
			c-7.782,0-15.129-2.54-21.249-7.348l-3.16-2.483l-3.161,2.483c-6.12,4.808-13.467,7.348-21.249,7.348
			c-7.782,0-15.129-2.54-21.249-7.348l-3.161-2.483l-3.161,2.483c-6.119,4.808-13.467,7.348-21.247,7.348
			C210.475,79.114,195.025,63.663,195.025,44.673z M204.676,229.03v-45.392c0-23.571,11.467-45.772,30.338-59.525
			c2,6.917,5.417,13.37,10.115,18.957c10.122,12.056,24.813,18.547,39.801,18.547c6.833,0,13.725-1.366,20.275-4.153
			c1.179,0.409,2.373,0.793,3.589,1.122c4.544,1.219,9.105,1.802,13.594,1.802c8.32,0,16.378-2.007,23.565-5.684
			c3.883,9.088,5.94,18.98,5.94,28.934v45.392c0,40.588-33.021,73.61-73.609,73.61C237.697,302.639,204.676,269.618,204.676,229.03z
			 M317.813,302.948l-3.777,27.872l-22.588-18.99C300.843,310.339,309.725,307.292,317.813,302.948z M265.288,311.859
			l-22.551,18.961l-3.76-27.758C247.056,307.369,255.915,310.393,265.288,311.859z M150.446,434.14
			c-8.605,8.604-22.607,8.605-31.211,0.001c-8.605-8.614-8.607-22.624-0.003-31.228l8.626-8.626l31.833,30.606L150.446,434.14z
			 M188.432,355.221v40.934l-21.503,21.503l-31.833-30.606l56.848-56.848C189.623,338.244,188.432,346.64,188.432,355.221z
			 M198.664,469.337V355.219c0-17.304,5.456-33.76,15.778-47.589c3.503-4.694,7.541-8.966,11.994-12.793
			c0.408,0.322,0.817,0.645,1.233,0.959l7.425,54.816l43.293-36.399l14.524,12.211v142.913H198.664z M225.21,601.768
			c2.416-10.593,12.109-19.184,23.683-19.184c11.574,0,21.267,8.591,23.683,19.184H225.21z M273.168,582.303
			c-6.239-6.164-14.819-9.952-24.276-9.952c-9.457,0-18.037,3.787-24.276,9.952V479.569h48.552V582.303z M283.993,601.768
			c2.416-10.593,12.109-19.184,23.683-19.184s21.267,8.591,23.683,19.184H283.993z M331.953,582.304
			c-6.239-6.165-14.819-9.954-24.278-9.954c-9.457,0-18.036,3.787-24.275,9.951V479.569h48.552V582.304z M357.905,469.337h-54.762
			v-134.31l18.537,15.586l7.453-54.996c0.339-0.26,0.675-0.522,1.01-0.787c3.063,2.394,8.458,8.33,10.181,10.48
			c11.501,14.279,17.58,31.537,17.58,49.91V469.337z M368.137,395.592v-40.372c0-8.819-1.319-17.555-3.838-25.916l56.364,56.371
			l-30.607,31.834L368.137,395.592z M442.913,512.328c-6.151,4.523-13.841,7.049-21.767,7.049c-9.754,0-18.815-3.69-25.516-10.39
			c-12.646-12.646-13.761-33.241-3.351-47.291L442.913,512.328z M437.899,434.14c-8.605,8.604-22.607,8.604-31.212,0l-9.393-9.393
			l30.607-31.834l10.002,10.003c4.174,4.168,6.471,9.711,6.471,15.606C444.371,424.418,442.072,429.965,437.899,434.14z"/>
		<circle cx="275.865" cy="354.223" r="9.742"/>
		<circle cx="275.865" cy="398.67" r="9.742"/>
		<circle cx="275.865" cy="443.115" r="9.742"/>
		<circle cx="244.545" cy="215.875" r="12.086"/>
		<circle cx="312.023" cy="215.875" r="12.086"/>
		<rect x="212.017" y="363.841" width="35.813" height="10.232"/>
	</g>
</g>
<g>
</g>
<g>
</g>
<g>
</g>
<g>
</g>
<g>
</g>
<g>
</g>
<g>
</g>
<g>
</g>
<g>
</g>
<g>
</g>
<g>
</g>
<g>
</g>
<g>
</g>
<g>
</g>
<g>
</g>
</svg>
