<?xml version="1.0" encoding="iso-8859-1"?>
<!-- Generator: Adobe Illustrator 18.1.1, SVG Export Plug-In . SVG Version: 6.00 Build 0)  -->
<svg version="1.1" id="Capa_1" xmlns="http://www.w3.org/2000/svg" xmlns:xlink="http://www.w3.org/1999/xlink" x="0px" y="0px"
	 viewBox="0 0 612 612" style="enable-background:new 0 0 612 612;" xml:space="preserve">
<g>
	<g>
		<path d="M529.118,312.365l16.881-27.532l-17.232-17.232l-27.557,16.906l6.992,12.893l-58.775,58.775
			c-7.996-4.819-18.56-3.806-25.472,3.089l-2.538,2.543c0,0-98.95-99.608-100.42-100.911c16.502-16.689,25.963-39.162,26.251-62.745
			c11.779-2.797,20.389-13.311,20.389-25.916c0-12.603-8.612-23.111-20.393-25.905c-0.129-7.833-1.235-15.531-3.326-22.989h22.084
			v-11.087h-18.726V99.601c0-48.201-37.737-87.734-85.214-90.654V0h-11.087v8.933c-47.562,2.833-85.39,42.408-85.39,90.668v12.654
			h-18.55v11.087h21.902c-2.09,7.457-3.196,15.154-3.325,22.989c-11.781,2.794-20.393,13.302-20.393,25.905
			c0,12.606,8.609,23.119,20.389,25.916c0.29,23.578,9.75,46.055,26.251,62.756c-4.838,4.285-115.595,116.699-115.595,116.699
			c-6.618,6.611-10.264,15.403-10.264,24.759c0,9.356,3.645,18.149,10.261,24.756c6.823,6.824,15.786,10.236,24.749,10.236
			s17.926-3.412,24.749-10.236l33.305-33.305v37.59v37.1h28.133V612h138.476V468.507h28.119v-37.1v-38.214l33.927,33.929
			c6.824,6.825,15.785,10.236,24.749,10.236c8.962,0,17.928-3.413,24.75-10.236c8.61-8.61,11.783-20.626,9.532-31.75l6.647-6.656
			c3.939-3.922,6.109-9.151,6.109-14.725c0-3.469-0.843-6.807-2.429-9.784l58.927-58.926L529.118,312.365z M347.28,157.999
			c5.488,2.4,9.271,7.856,9.271,14.237c0,6.386-3.783,11.846-9.271,14.25V157.999z M165.578,186.485
			c-5.489-2.403-9.271-7.863-9.271-14.25c0-6.381,3.782-11.837,9.271-14.237V186.485z M262.062,20.063
			c35.818,2.513,65.186,28.761,72.413,63.089h-72.413L262.062,20.063L262.062,20.063z M250.975,20.049v63.103h-72.589
			C185.625,48.767,215.077,22.489,250.975,20.049z M176.872,94.239h159.117c0.118,1.774,0.201,18.016,0.201,18.016H176.671
			C176.671,112.255,176.754,96.013,176.872,94.239z M279.613,123.342c-1.414,11.271-11.262,20.604-23.183,20.604
			s-21.769-9.332-23.183-20.604H279.613z M176.665,197.043v-49.185c0-8.401,1.307-16.625,3.86-24.516h41.562
			c1.393,18.044,16.259,31.691,34.345,31.691s32.952-13.647,34.345-31.691h41.555c2.553,7.893,3.861,16.116,3.861,24.516v49.183
			c0,22.956-9.909,44.815-27.191,59.972c-14.529,12.758-33.199,19.785-52.567,19.785c-19.363,0-38.032-7.022-52.569-19.774
			l-0.68-0.593C186.32,241.291,176.665,219.696,176.665,197.043z M235.85,403.288v-14.527h41.162v39.837H235.85v-14.223h24.826
			v-11.087H235.85z M289.015,281.837l-32.585,36.511l-32.6-36.529c10.319,3.968,21.356,6.067,32.605,6.067
			C267.675,287.887,278.705,285.798,289.015,281.837z M170.152,333.773c0-18.779,5.929-36.626,17.149-51.617
			c3.308-4.426,7.037-8.493,11.097-12.183l52.578,58.915v48.788h-26.212v8.276h-54.612L170.152,333.773L170.152,333.773z
			 M170.152,397.038h54.612v23.283h-54.612L170.152,397.038L170.152,397.038z M137.704,331.838c1.335,2.125,2.066,4.593,2.066,7.184
			c0,7.474-6.08,13.552-13.554,13.552c-2.59,0-5.058-0.732-7.183-2.065L137.704,331.838z M117.919,419.284
			c-9.324,9.323-24.494,9.323-33.822-0.003c-4.521-4.517-7.011-10.523-7.011-16.914c0-6.392,2.49-12.398,7.014-16.917l12.616-12.617
			l34.493,33.164L117.919,419.284z M159.065,333.773v44.366l-20.015,20.015l-34.493-33.164l6.526-6.527
			c4.277,3.347,9.549,5.2,15.134,5.2c13.587,0,24.641-11.054,24.641-24.639c0-5.586-1.854-10.86-5.203-15.136l17.214-17.217
			C160.355,315.38,159.065,324.475,159.065,333.773z M198.965,600.913c2.678-12.002,13.137-20.205,25.619-20.205
			c12.483,0,22.942,8.203,25.619,20.205H198.965z M250.892,580.408c-6.76-6.681-16.058-10.786-26.308-10.786
			c-10.246,0-19.539,4.102-26.3,10.779V468.507h52.608L250.892,580.408L250.892,580.408z M250.975,457.42h-80.824v-26.013h54.612
			v8.279h26.212V457.42z M262.658,600.913c2.677-12.002,13.137-20.205,25.619-20.205s22.942,8.203,25.619,20.205H262.658z
			 M314.587,580.409c-6.762-6.681-16.059-10.788-26.309-10.788c-10.246,0-19.538,4.102-26.298,10.778V468.507h52.608V580.409z
			 M342.706,457.42h-80.644v-17.734h26.036v-8.279h54.607V457.42z M288.097,420.32v-23.283h8.379l11.747,11.641l-11.745,11.64h-8.38
			V420.32z M342.706,420.32h-30.478l11.745-11.64l-11.747-11.641h30.479V420.32z M342.706,385.951h-54.607v-8.276h-26.036v-48.985
			l52.404-58.719c1.009,0.917,7.255,7.308,9.191,9.709c12.284,15.251,19.049,34.462,19.049,54.092V385.951z M353.793,377.515
			v-43.742c0-9.55-1.426-19.009-4.152-28.062l60.625,60.625l-34.492,33.162L353.793,377.515z M429.381,419.284
			c-9.324,9.324-24.495,9.324-33.819,0l-11.945-11.946l34.492-33.162l11.274,11.274
			C438.708,394.777,438.708,409.954,429.381,419.284z M445.564,380.87l-3.233,3.239c-1.414-2.313-3.111-4.5-5.111-6.498
			l-7.962-7.962l2.538-2.543c3.804-3.793,9.981-3.794,13.77-0.006c1.84,1.84,2.854,4.288,2.854,6.892
			C448.42,376.593,447.41,379.033,445.564,380.87z"/>
		<circle cx="219.874" cy="182.789" r="13.095"/>
		<circle cx="292.988" cy="182.789" r="13.095"/>
		<circle cx="210.396" cy="407.922" r="5.119"/>
		<polygon points="300.867,307.663 289.78,307.663 289.78,352.32 309.182,341.408 309.182,368.641 320.269,368.641 320.269,322.452 
			300.867,333.364 		"/>
	</g>
</g>
<g>
</g>
<g>
</g>
<g>
</g>
<g>
</g>
<g>
</g>
<g>
</g>
<g>
</g>
<g>
</g>
<g>
</g>
<g>
</g>
<g>
</g>
<g>
</g>
<g>
</g>
<g>
</g>
<g>
</g>
</svg>
