<?xml version="1.0" encoding="iso-8859-1"?>
<!-- Generator: Adobe Illustrator 18.1.1, SVG Export Plug-In . SVG Version: 6.00 Build 0)  -->
<svg version="1.1" id="Capa_1" xmlns="http://www.w3.org/2000/svg" xmlns:xlink="http://www.w3.org/1999/xlink" x="0px" y="0px"
	 viewBox="0 0 611.997 611.997" style="enable-background:new 0 0 611.997 611.997;" xml:space="preserve">
<g>
	<g>
		<path d="M511.291,392.087c0,0-107.971-108.254-109.313-109.447c14.484-15.235,23.509-35.919,23.829-58.724
			c11.493-2.243,20.198-12.379,20.198-24.518c0-4.089-0.974-7.99-2.806-11.502c14.14-13.34,21.596-28.988,21.596-45.502
			c0-21.8-13.05-42.125-36.743-57.232c-2.976-1.897-6.083-3.678-9.296-5.352c-4.764-27.137-24.591-50.826-50.521-60.442
			C366.41,8.393,356.849,0,345.365,0h-7.048c-11.463,0-21.009,8.371-22.85,19.326c-26.836,9.593-46.417,33.118-50.894,61.23
			c-2.718,1.458-5.365,2.984-7.907,4.604c-23.691,15.105-36.738,35.431-36.738,57.232c0,16.149,7.148,31.493,20.7,44.629
			c-2.14,3.747-3.303,7.999-3.303,12.376c0,11.827,8.378,21.847,19.505,24.365c0.285,22.807,9.376,43.497,23.99,58.755
			c-5.006,4.426-104.246,105.606-104.246,105.606l-12.783-14.844l-3.732,2.156c-1.576,0.91-37.69,22.313-47.356,71.992h-9.313
			l-12.289,82.072h50.984l-12.289-82.072h-6.469c7.509-34.886,29.735-54.21,38.413-60.588l7.689,8.929
			c-4.178,5.621-6.436,12.405-6.436,19.538c0,8.773,3.416,17.019,9.619,23.223c2.701,2.698,5.762,4.82,9.024,6.38
			c-10.809,6.699-18.028,18.665-18.028,32.291v87.109h75.929v-87.109c0-16.11-10.093-29.901-24.283-35.405
			c1.331-0.977,2.606-2.066,3.809-3.27l30.909-30.909v69.751h26.721v134.63h129.923V477.37h26.044v-71.012l32.173,32.173
			c6.406,6.4,14.818,9.599,23.229,9.599s16.823-3.201,23.223-9.601C524.095,425.724,524.095,404.891,511.291,392.087z
			 M130.012,519.098h-26.832l9.173-61.268h8.484L130.012,519.098z M422.263,350.944v90.291h-57.811v-5.459h-17.929V314.121
			l38.24,32.136l7.418-54.765c0.727-0.559,1.434-1.143,2.142-1.725c1.447,1.253,2.867,2.564,4.239,3.936
			c2.131,2.131,4.139,4.375,5.979,6.689C416.135,314.856,422.263,332.337,422.263,350.944z M327.592,472.635v-26.457h26.457v26.457
			H327.592z M355.002,307.66c9.129-1.486,17.767-4.492,25.674-8.739l-3.688,27.217L355.002,307.66z M425.839,213.136v-27.527
			c2.542,0.888,4.811,2.478,6.552,4.652c2.101,2.599,3.213,5.759,3.213,9.134C435.604,205.736,431.534,211.128,425.839,213.136z
			 M321.876,28.155l3.673-1.129v-3.842c0-7.047,5.728-12.782,12.769-12.782h7.048c7.047,0,12.782,5.734,12.782,12.782v3.803
			l3.624,1.153c21.525,6.85,38.671,24.785,45.026,46.194c-12.458-5.023-26.172-8.549-40.609-10.387
			c0.079-0.805,0.126-1.615,0.126-2.432c0-13.594-11.06-24.653-24.653-24.653c-13.594,0-24.653,11.059-24.653,24.653
			c0,0.883,0.06,1.759,0.152,2.628c-14.514,1.961-28.285,5.611-40.741,10.799C282.485,52.868,299.522,35.027,321.876,28.155z
			 M327.499,63.052c-0.055-0.507-0.091-1.019-0.091-1.536c0-7.858,6.392-14.251,14.251-14.251c7.858,0,14.251,6.393,14.251,14.251
			c0,0.48-0.029,0.954-0.075,1.426c-4.447-0.315-8.939-0.49-13.473-0.49C337.352,62.452,332.397,62.669,327.499,63.052z
			 M230.329,142.393c0-38.344,50.257-69.539,112.032-69.539s112.032,31.195,112.032,69.539c0,13.36-6.153,26.217-17.816,37.432
			c-3.135-2.507-6.824-4.202-10.777-4.967c-0.398-21.817-8.581-41.349-23.188-56.565l-0.852-0.887l-1.157-0.412
			c-18.157-6.458-37.755-10.514-58.247-10.514c-21.617,0-42.07,3.545-60.789,10.535l-1.144,0.428l-0.835,0.893
			c-14.354,15.354-22.386,35.429-22.75,56.674c-3.352,0.753-6.517,2.196-9.287,4.227
			C236.277,168.175,230.329,155.518,230.329,142.393z M247.727,199.397c0-3.561,1.3-6.992,3.669-9.669
			c1.494-1.697,3.357-2.985,5.407-3.824v26.975C251.495,210.691,247.727,205.454,247.727,199.397z M267.205,176.519
			c0-18.743,6.795-36.514,19.158-50.183c2.673-0.971,5.408-1.861,8.187-2.686l25.344,25.344l7.356-7.356l-20.983-20.984
			c5.357-1.148,10.847-2.034,16.417-2.66l30.989,31.002l7.357-7.353l-24.639-24.648c1.984-0.066,3.971-0.109,5.963-0.109
			c4.189,0,8.33,0.169,12.429,0.456l31.655,31.655l7.356-7.356l-22.279-22.279c8.398,1.451,16.563,4.039,24.427,6.763
			c12.579,13.559,19.49,31.069,19.49,50.393v46.147c0,41.704-33.035,75.65-73.635,75.669c-41.133-0.021-74.597-33.966-74.597-75.669
			v-46.147H267.205z M326.84,307.368l-22.332,18.772l-3.824-28.193C308.699,302.457,317.509,305.678,326.84,307.368z
			 M288.502,289.626c0.205,0.168,0.415,0.329,0.622,0.495l7.614,56.137l39.381-33.102v122.621H317.19v5.459h-56.812v-90.291
			c0-17.044,5.234-33.347,15.134-47.143C279.277,298.56,283.641,293.813,288.502,289.626z M229.138,477.202v76.707h-55.125v-76.707
			c0-15.199,12.364-27.563,27.562-27.563C216.774,449.639,229.138,462.004,229.138,477.202z M211.712,431.173
			c-8.747,8.746-22.988,8.744-31.744,0c-4.238-4.238-6.572-9.873-6.572-15.866c0-5.993,2.333-11.627,6.572-15.865l8.776-8.776
			l32.36,31.113L211.712,431.173z M228.461,414.423l-32.36-31.113l57.323-57.323c-2.274,8.038-3.446,16.415-3.446,24.956v41.964
			L228.461,414.423z M260.379,451.637h56.812v15.33h-56.812V451.637z M317.19,477.37v5.667h19.267v51.947h-49.358v-57.615h30.091
			V477.37z M371.543,571.418c-9.617,0-18.34,3.853-24.683,10.121v-36.153h49.358v36.145
			C389.877,575.268,381.157,571.418,371.543,571.418z M395.692,601.598h-48.296c2.348-10.896,12.281-19.777,24.147-19.777
			C383.411,581.821,393.343,590.703,395.692,601.598z M336.458,581.531c-6.343-6.263-15.062-10.112-24.674-10.112
			c-9.617,0-18.342,3.853-24.684,10.123v-36.154h49.358V581.531z M335.932,601.598h-48.295
			c2.348-10.896,12.281-19.777,24.147-19.777C323.651,581.821,333.584,590.703,335.932,601.598z M396.22,534.985h-49.358v-51.947
			h17.591v-5.667h31.767V534.985z M364.451,466.967v-15.33h57.811v15.33H364.451z M428.742,324.249l57.663,57.663l-31.114,32.36
			l-22.626-22.627v-40.701C432.665,341.742,431.336,332.783,428.742,324.249z M503.936,431.173c-8.748,8.747-22.989,8.744-31.745,0
			l-9.543-9.544l31.114-32.36l10.173,10.173C512.684,408.19,512.684,422.425,503.936,431.173z"/>
		<rect x="275.007" y="359.448" width="45.51" height="10.402"/>
		<path d="M362.241,372.768c0,12.466,10.141,22.607,22.607,22.607c12.466,0,22.607-10.141,22.607-22.607
			c0-12.464-10.141-22.607-22.607-22.607S362.241,360.303,362.241,372.768z M397.052,372.768c0,6.73-5.474,12.204-12.204,12.204
			c-6.73,0-12.204-5.474-12.204-12.204c0-6.729,5.475-12.204,12.204-12.204C391.578,360.563,397.052,366.039,397.052,372.768z"/>
		<circle cx="307.365" cy="209.292" r="12.286"/>
		<circle cx="375.964" cy="209.292" r="12.286"/>
	</g>
</g>
<g>
</g>
<g>
</g>
<g>
</g>
<g>
</g>
<g>
</g>
<g>
</g>
<g>
</g>
<g>
</g>
<g>
</g>
<g>
</g>
<g>
</g>
<g>
</g>
<g>
</g>
<g>
</g>
<g>
</g>
</svg>
