<?xml version="1.0" encoding="iso-8859-1"?>
<!-- Generator: Adobe Illustrator 18.1.1, SVG Export Plug-In . SVG Version: 6.00 Build 0)  -->
<svg version="1.1" id="Capa_1" xmlns="http://www.w3.org/2000/svg" xmlns:xlink="http://www.w3.org/1999/xlink" x="0px" y="0px"
	 viewBox="0 0 612 612" style="enable-background:new 0 0 612 612;" xml:space="preserve">
<g>
	<g>
		<path d="M259.336,379.102c-3.707,0-7.391,0.574-10.949,1.708c-4.666,1.482-8.908,3.849-12.614,7.036
			c-10.975,9.467-15.23,24.503-10.837,38.306c3.983,12.514,14.46,21.883,27.334,24.447c2.319,0.465,4.695,0.702,7.059,0.702
			c3.703,0,7.387-0.574,10.946-1.708c18.962-6.036,29.479-26.373,23.444-45.333C288.932,389.212,275.114,379.102,259.336,379.102z
			 M266.772,438.58c-3.97,1.264-8.168,1.498-12.232,0.685c-8.759-1.745-15.883-8.112-18.59-16.618
			c-2.986-9.385-0.092-19.61,7.368-26.045c2.512-2.16,5.396-3.768,8.574-4.779c2.424-0.771,4.929-1.163,7.445-1.163
			c10.723,0,20.116,6.874,23.372,17.105C286.81,420.655,279.662,434.477,266.772,438.58z"/>
		<circle cx="476.6" cy="332.914" r="6.835"/>
		<circle cx="509.166" cy="322.55" r="6.835"/>
		<circle cx="516.569" cy="345.811" r="6.835"/>
		<circle cx="484.002" cy="356.175" r="6.835"/>
		<path d="M551.76,320.755l-24.684-32.695l-20.262,6.449l-5.891-18.52l-11.014,3.505l5.891,18.521l-24.339,7.746l-5.89-18.517
			l-11.014,3.505l5.89,18.518l-19.074,6.071l3.847,12.089l-29.005,9.233l-32.777-32.779V124.692
			c0-33.319-12.972-64.63-36.523-88.165C323.375,12.972,292.069,0,258.76,0c-68.754,0-124.692,55.937-124.692,124.692v179.846
			l-63.126,63.135c-6.896,6.878-10.697,16.03-10.702,25.772c-0.006,9.755,3.792,18.93,10.697,25.833
			c7.04,7.04,16.431,10.643,25.856,10.643c3.716,0,7.434-0.572,11.02-1.703c-0.795,9.64-0.01,19.541,2.548,29.349
			c9.425,36.055,39.676,61.938,76.222,65.9V612h144.339V466.24c22.293-10.968,37.309-32.985,39.414-57.756l10.991-3.499
			l14.291,14.291c7.112,7.114,16.455,10.671,25.798,10.669c9.344,0,18.69-3.557,25.804-10.672
			c10.1-10.114,13.209-24.934,8.574-37.988l5.962-1.897l3.849,12.094l19.076-6.071l5.399,16.982l11.014-3.502l-5.4-16.985
			l24.352-7.751l5.399,16.982l11.014-3.502l-5.4-16.987l20.34-6.474L551.76,320.755z M389.457,326.247l14.359,14.359l-43.566,13.868
			v-0.143L389.457,326.247z M360.25,338.295v-16.331c0-9.954-1.487-19.815-4.328-29.254l25.36,25.362L360.25,338.295z
			 M338.743,44.696c21.37,21.355,33.138,49.765,33.138,79.994v167.632c0,0-44.104-44.797-45.544-46.081
			c17.492-17.627,27.128-41.052,27.128-66.098c-0.046-9.731-0.848-68.038-0.848-68.038s-10.1-0.233-17.098-1.867
			c-35.24-8.226-63.107-36.078-69.536-71.293c-0.951-5.204-1.453-10.633-1.453-16.412l-0.027-10.835
			C292.564,13.095,318.742,24.684,338.743,44.696z M258.748,301.931c28.391,0,52.757-20.165,58.395-47.564
			c3.451,2.45,9.678,8.706,11.692,11.208c12.806,15.899,19.859,35.924,19.859,56.388v29.176c-17.852-17-43.854-23.949-67.938-17.37
			c-8.202,2.245-15.85,5.871-22.75,10.79c-10.39,7.458-23.663,9.711-35.508,6.024c-17.58-5.477-36.116-5.329-53.685,0.379v-28.998
			c0-19.167,5.925-37.41,17.143-52.832c0,0,4.463-6.63,14.295-15.325C205.663,281.49,230.162,301.931,258.748,301.931z
			 M215.649,263.585c12.983,6.737,27.703,10.568,43.306,10.568c15.07,0,29.567-3.466,42.595-9.971
			c-8.033,15.643-24.363,26.192-42.802,26.192C240.074,290.373,223.563,279.557,215.649,263.585z M341.34,123.074
			c0.267,11.045,0.481,38.894,0.568,57.097c0,22.17-8.607,42.916-24.239,58.418c-4.474,4.437-9.392,8.281-14.636,11.539v-41.148
			c0-11.968-9.737-21.705-21.705-21.705h-17.063v11.558h17.063c5.595,0,10.148,4.552,10.148,10.148v47.123
			c-10.133,4.249-21.14,6.492-32.519,6.492c-12.141,0-23.67-2.65-34.073-7.365v-46.249c0-5.595,4.552-10.148,10.148-10.148h17.063
			v-11.558h-17.063c-11.968,0-21.705,9.737-21.705,21.705v39.862c-22.465-14.886-37.321-40.407-37.321-69.337l0.344-56.514
			c20.221-2.225,39.522-12.029,54.855-25.83c12.403-11.166,21.848-25.344,27.449-40.95
			C271.122,91.316,303.028,117.532,341.34,123.074z M145.626,124.692c0-60.446,47.652-109.973,107.364-112.987l-0.017,10.832
			c0,5.779-0.462,10.364-1.453,15.788c-3.677,20.143-14.229,37.899-28.908,50.8c-6.425,5.646-26.73,23.053-57.902,23.053
			c-0.13,2.116-0.264,67.294-0.264,67.294c0,25.834,10.392,49.274,27.195,66.374c-4.32,4.471-46.014,47.133-46.014,47.133
			L145.626,124.692L145.626,124.692z M161.219,293.729c-2.618,9.076-3.963,18.551-3.963,28.235v21.327l-23.245-22.349
			L161.219,293.729z M110.053,414.543c-9.713,6.144-22.686,4.815-30.942-3.438c-4.718-4.72-7.316-10.99-7.312-17.654
			c0.004-6.651,2.599-12.901,7.312-17.602l46.726-46.733l28.916,27.802C132.002,368.968,115.972,390.276,110.053,414.543z
			 M198.807,600.442c2.729-11.965,13.677-21.669,26.75-21.669c13.073,0,24.021,9.704,26.75,21.669H198.807z M252.981,578.463
			c-7.049-6.965-16.741-11.247-27.426-11.247c-10.681,0-20.367,4.276-27.415,11.235v-54.487c8.45-0.191,16.825-1.575,24.97-4.164
			c10.99-3.502,21.12-9.084,29.87-16.377V578.463z M265.203,600.442c2.729-11.965,13.677-21.669,26.75-21.669
			c13.073,0,24.021,9.704,26.75,21.669H265.203z M319.365,578.45c-7.047-6.958-16.734-11.234-27.413-11.234
			c-10.679,0-20.366,4.276-27.413,11.234v-86.633c0.771-0.932,1.533-1.874,2.262-2.834c7.333-9.661,19.012-15.387,31.318-15.387
			c0.16,0,0.322,0,0.483,0.003c6.992,0.068,13.956-0.883,20.762-2.862V578.45H319.365z M322.76,457.283
			c-0.488,0.22-3.947,1.533-5.243,1.952c-6.13,1.943-19.186,2.803-19.392,2.803c-15.906,0-31.019,7.43-40.527,19.953
			c-1.016,1.336-2.089,2.654-3.203,3.93c-9.242,10.655-21.273,18.563-34.79,22.867c-8.771,2.787-17.845,3.992-26.968,3.578
			l-0.097-0.004c-33.872-1.63-62.398-24.816-70.997-57.716c-10.142-38.872,11.754-79.45,49.849-92.377
			c15.574-5.289,32.056-5.51,47.669-0.649c15.289,4.757,32.364,1.89,45.667-7.66c5.773-4.116,12.19-7.158,19.073-9.042
			c20.587-5.626,42.86,0.571,57.838,15.48l-30.402,9.677l16.536,51.956l30.435-9.687
			C354.871,432.141,341.635,449.249,322.76,457.283z M439.045,411.105c-9.72,9.718-25.536,9.718-35.255,0l-10.064-10.065
			l51.063-16.251C448.139,393.793,446.039,404.1,439.045,411.105z M335.284,407.512l-9.526-29.93l122.968-39.143l9.526,29.936
			L335.284,407.512z M539.913,355.704l-66.798,21.26l-17.222-54.118l66.891-21.288l17.388,23.03L539.913,355.704z"/>
		<circle cx="220.645" cy="164.572" r="13.651"/>
		<circle cx="296.862" cy="164.572" r="13.651"/>
	</g>
</g>
<g>
</g>
<g>
</g>
<g>
</g>
<g>
</g>
<g>
</g>
<g>
</g>
<g>
</g>
<g>
</g>
<g>
</g>
<g>
</g>
<g>
</g>
<g>
</g>
<g>
</g>
<g>
</g>
<g>
</g>
</svg>
