<?xml version="1.0" encoding="iso-8859-1"?>
<!-- Generator: Adobe Illustrator 18.1.1, SVG Export Plug-In . SVG Version: 6.00 Build 0)  -->
<svg version="1.1" id="Capa_1" xmlns="http://www.w3.org/2000/svg" xmlns:xlink="http://www.w3.org/1999/xlink" x="0px" y="0px"
	 viewBox="0 0 612 612" style="enable-background:new 0 0 612 612;" xml:space="preserve">
<g>
	<g>
		<circle cx="259.36" cy="162.529" r="13.736"/>
		<circle cx="336.052" cy="162.529" r="13.736"/>
		<circle cx="240.474" cy="293.211" r="8.585"/>
		<circle cx="240.474" cy="336.708" r="8.585"/>
		<circle cx="240.474" cy="380.205" r="8.585"/>
		<circle cx="240.474" cy="423.702" r="8.585"/>
		<circle cx="354.94" cy="293.211" r="8.585"/>
		<circle cx="354.94" cy="336.708" r="8.585"/>
		<circle cx="354.94" cy="380.205" r="8.585"/>
		<circle cx="354.94" cy="423.702" r="8.585"/>
		<path d="M521.145,479.013c0-11.785-7.268-22.151-17.444-26.752v-33.096c0-6.092-2.768-11.776-7.241-15.464
			c3.987-12.849,0.634-27.07-9.104-36.807c0,0-120.24-120.994-121.807-122.371c17.386-17.559,27.348-41.184,27.637-65.942
			c12.237-3.015,21.18-14.016,21.18-27.11c0-13.102-8.763-24.108-21-27.124c-0.307-19.485-5.96-38.036-17.59-53.853V0H220.233v71.03
			c-11.629,15.506-16.979,33.814-17.299,53.196c-12.416,2.839-21.824,14.044-21.824,27.243c0,13.192,9.32,24.391,21.735,27.229
			c0.314,24.755,10.119,48.268,27.243,65.68c-5.225,4.613-121.366,122.515-121.366,122.515c-6.934,6.934-10.754,16.153-10.754,25.96
			c0,9.808,3.82,19.026,10.753,25.96c4.41,4.41,9.754,7.553,15.569,9.263v12.39H90.855v133.739H167.9V440.466h-31.981v-10.93
			c8.722-0.307,18.084-4.081,24.726-10.722l34.875-34.875v76.879h29.074V612h145.368V460.817h30.527V383.88l32.267,32.266
			c-0.18,1.048-0.286,2.077-0.286,3.018v33.176c-10.176,4.658-17.444,14.973-17.444,26.672v45.035v41.488
			c0,12.987,8.722,24.019,20.352,27.956v15.602h11.629v-14.537h43.61v14.537h11.629v-15.988c11.629-4.23,18.898-14.977,18.898-27.57
			V479.013z M156.271,562.575h-53.786v-110.48h53.786V562.575z M444.1,425.263c5.815,2.811,11.153,4.303,17.281,4.303
			c9.808,0,19.029-3.819,25.963-10.753c1.268-1.269,2.419-2.633,3.48-4.057c0.782,1.3,1.247,2.826,1.247,4.409v30.741l-47.303,0.004
			l-0.669-0.004V425.263z M483.913,403.862c-1.208,2.489-2.822,4.754-4.797,6.729c-4.738,4.738-11.036,7.345-17.736,7.345
			s-13-2.608-17.748-7.357l-12.516-12.516l36.2-34.804l11.852,11.858C486.742,382.69,488.623,394.237,483.913,403.862z
			 M402.742,151.469c0,6.588-3.707,12.266-9.522,14.836v-29.687C399.036,139.19,402.742,144.874,402.742,151.469z M231.862,56.694
			h132.285v11.629H231.862V56.694z M364.147,11.629v33.435H231.862V11.629H364.147z M192.686,151.469
			c0-6.752,4.288-12.602,10.103-15.064v30.116C196.974,164.06,192.686,158.214,192.686,151.469z M214.418,125.884
			c0-16.52,4.608-32.849,13.355-45.932h140.256c8.876,13.083,13.563,29.561,13.563,45.932v51.591
			c0,24.047-10.416,46.982-28.569,62.92c-15.258,13.384-34.869,20.754-55.221,20.754c-20.266,0-39.819-7.37-55.061-20.753
			c-18.001-15.803-28.322-38.736-28.322-62.923V125.884z M152.416,410.589c-4.738,4.738-11.036,7.347-17.738,7.347
			c-6.7,0-12.999-2.608-17.738-7.347c-4.738-4.738-7.345-11.036-7.345-17.736c0-6.7,2.609-12.999,7.347-17.738l13.242-13.242
			l36.171,34.776L152.416,410.589z M174.581,388.427l-36.172-34.776l61.084-61.081c-2.628,9.112-3.973,18.617-3.973,28.328v46.595
			L174.581,388.427z M207.15,320.896c0-19.626,6.203-38.313,17.947-54.046c3.987-5.351,8.588-10.248,13.692-14.624
			c6.379,5.052,13.426,9.227,20.695,12.468v184.494h-52.333V320.896H207.15z M291.463,460.817v117.769
			c-7.268-6.758-16.623-10.898-27.158-10.898c-11.001,0-20.814,4.514-28.082,11.813V460.817H291.463z M291.21,600.371h-53.817
			c2.756-11.629,13.765-21.775,26.909-21.775C277.445,578.596,288.454,588.741,291.21,600.371z M304.202,600.371
			c2.756-11.629,13.765-21.775,26.909-21.775s24.153,10.145,26.909,21.775H304.202z M358.333,578.642
			c-7.268-6.793-16.653-10.955-27.217-10.955c-10.971,0-20.754,4.487-28.023,11.75v-118.62h55.24V578.642z M388.86,449.188H271.112
			V268.933c8.722,2.519,17.581,3.845,26.691,3.845c21.474,0,42.218-7.22,58.977-20.41c7.848,7.351,12.696,13.287,14.817,16.216
			c11.241,15.522,17.263,33.616,17.263,52.311V449.188z M396.2,292.107l62.894,62.924l-36.2,34.807l-22.404-22.406v-46.537
			C400.489,311.149,399.009,301.449,396.2,292.107z M441.422,461.635c0.592-0.115,52.942-0.115,53.589,0.012
			c8.404,1.554,14.505,8.856,14.505,17.364v17.658c-4.361-3.726-11.068-6.78-17.717-6.78h-47.031c-6.831,0-13.75,3.17-18.111,7.081
			v-17.959C426.656,470.525,432.838,463.224,441.422,461.635z M492.124,582.926h-47.358c-9.961,0-18.111-8.149-18.111-18.111V520.22
			c0-10.286,8.415-18.702,18.702-18.702h46.441c5.44,0,10.206,2.737,13.464,6.818c2.878,3.607,4.253,8.187,4.253,12.801v44.397
			C509.515,575.14,501.73,582.926,492.124,582.926z"/>
		<circle cx="468.132" cy="525.576" r="8.585"/>
	</g>
</g>
<g>
</g>
<g>
</g>
<g>
</g>
<g>
</g>
<g>
</g>
<g>
</g>
<g>
</g>
<g>
</g>
<g>
</g>
<g>
</g>
<g>
</g>
<g>
</g>
<g>
</g>
<g>
</g>
<g>
</g>
</svg>
