<?xml version="1.0" encoding="iso-8859-1"?>
<!-- Generator: Adobe Illustrator 18.1.1, SVG Export Plug-In . SVG Version: 6.00 Build 0)  -->
<svg version="1.1" id="Capa_1" xmlns="http://www.w3.org/2000/svg" xmlns:xlink="http://www.w3.org/1999/xlink" x="0px" y="0px"
	 viewBox="0 0 612 612" style="enable-background:new 0 0 612 612;" xml:space="preserve">
<g>
	<g>
		<path d="M146.126,425.522c-12.04,0-21.835,9.795-21.835,21.835c0,12.04,9.795,21.821,21.835,21.821
			c12.04,0,21.835-9.781,21.835-21.821C167.961,435.317,158.166,425.522,146.126,425.522z M146.126,457.738
			c-5.734,0-10.396-4.662-10.396-10.381c0-5.734,4.662-10.396,10.396-10.396s10.396,4.662,10.396,10.396
			C156.521,453.077,151.86,457.738,146.126,457.738z"/>
		<path d="M293.152,321.722h-5.72v91.516h5.72c24.767,0,45.687-20.992,45.687-45.758S317.919,321.722,293.152,321.722z
			 M298.872,401.255v-67.507c15.958,2.817,28.527,17.131,28.527,33.747C327.399,384.125,314.83,398.439,298.872,401.255z"/>
		<path d="M356.052,333.175h28.599v41.644c0,15.472-12.869,28.06-28.599,28.06v11.44c21.449,0,40.038-17.72,40.038-39.499v-53.084
			h-40.038L356.052,333.175L356.052,333.175z"/>
		<path d="M530.293,370.154c0,0-116.254-116.712-120.344-120.372c11.325-11.397,19.647-25.524,23.909-40.653
			c25.825-2.502,46.201-24.509,46.201-50.877c0-2.274-0.186-16.101-0.2-16.945c-0.643-33.89-14.257-65.977-37.693-90.644
			c-2.989-21.592-17.889-40.424-40.024-47.345L391.618,0l3.518,10.567c0.929,2.803,1.559,5.663,1.945,8.537
			c-16.716-7.107-35.248-10.839-53.537-10.839c-74.9,0-136.187,60.787-136.187,135.515c0,0,0.057,12.626,0.057,14.471
			c0,26.154,20.234,48.032,45.772,50.82c4.276,15.458,12.369,29.314,23.494,40.596c-4.805,5.019-120.944,122.288-121.745,123.261
			c-2.888-0.343-5.834-0.543-8.808-0.543c-41.34,0-74.972,33.632-74.972,74.972s33.632,74.957,74.972,74.957
			s74.957-33.618,74.957-74.957c0-11.311-2.531-22.035-7.035-31.673l29.056-29.042v76.645h28.599V612h142.994V463.286h28.599V385.34
			l35.906,35.906c7.035,7.035,16.287,10.553,25.539,10.553s18.503-3.518,25.553-10.553
			C544.364,407.161,544.364,384.253,530.293,370.154z M426.136,152.818c-3.403-13.084-15.272-22.707-29.442-22.707H348.92v21.449
			h-8.58V130.11h-48.961c-14.142,0-26.196,9.581-29.686,22.636v-19.647c0-2.602,0.072-5.005,0.214-7.278h18.375v-11.44h-16.773
			c0.786-3.446,1.802-6.778,2.989-10.01h18.074v-11.44h-12.827c0.114-0.214,1.101-1.93,1.516-2.56
			c3.375-5.348,7.836-9.967,13.041-13.584c0.029-0.029,0.057-0.043,0.086-0.057c9.624-6.678,18.675-8.966,26.883-6.821
			c11.339,2.974,18.789,13.627,21.578,18.289c0.801,1.33,1.387,2.131,1.387,2.131c7.722,11.926,19.619,20.734,33.704,24.509
			c4.933,1.33,10.01,2.002,15.072,2.002c13.256,0,25.71-4.533,35.663-12.297c1.244,3.26,2.259,6.492,3.003,9.638
			c1.659,7.021,2.46,13.213,2.46,18.918V152.818z M371.084,161.569l26.454-26.454l-11.854,26.454h13.999l-25.381,25.381
			l11.382-25.381H371.084L371.084,161.569z M287.103,161.569l26.454-26.454l-11.854,26.454h13.999l-25.381,25.381l11.382-25.381
			H287.103L287.103,161.569z M310.082,57.812c10.195-4.519,21.463-7.007,33.232-7.007c13.413,0,26.483,3.246,38.237,9.423
			c-8.294,7.236-19.09,11.54-30.658,11.54c-4.061,0-8.136-0.543-12.112-1.602c-0.029-0.014-0.086-0.029-0.157-0.043
			c-2.931-0.858-5.72-2.216-8.151-4.075c-3.975-3.074-8.723-5.72-14.199-7.178C314.229,58.327,312.156,57.984,310.082,57.812z
			 M436.461,197.203c0.744-4.676,1.115-9.094,1.115-13.356v-50.749c0-4.361-0.4-8.937-1.215-13.799
			c18.318,3.503,32.259,19.719,32.259,38.952C468.62,177.441,454.707,193.657,436.461,197.203z M442.323,67.965
			c12.755,16.401,21.092,35.577,24.38,55.968c-8.365-9.18-19.991-15.343-33.003-16.559c-1.101-3.746-2.502-7.564-4.175-11.382
			c5.291-6.335,9.309-13.856,11.554-22.207C441.594,71.854,442.009,69.895,442.323,67.965z M406.961,40.01
			c1.916-7.121,2.445-14.314,1.616-21.521c17.803,10.367,27.012,31.559,21.449,52.322c-5.462,20.348-23.966,34.547-45.015,34.547
			c-4.061,0-8.136-0.572-12.112-1.63c-11.783-3.16-21.664-10.767-27.812-20.963c1.93,0.2,3.875,0.157,5.806,0.157
			c13.098,0,25.424-4.39,35.32-11.954C396.108,63.418,403.572,52.693,406.961,40.01z M219.396,162.012
			c-0.129-1.244-0.686-9.909,1.058-15.172c4.604-13.828,15.887-24.552,30.215-27.469c-0.515,4.161-0.415,8.651-0.415,13.727v50.749
			c0,4.933,0.229,9.28,0.715,13.284C234.11,193.657,221.054,179.386,219.396,162.012z M253.485,107.431
			c-12.769,1.358-24.152,7.479-32.374,16.516c9.538-59.014,60.973-104.243,122.803-104.243c18.646,0,36.492,4.004,53.108,11.897
			c-0.257,1.873-0.615,3.746-1.115,5.591c-1.387,5.205-3.632,9.995-6.563,14.257c-13.999-7.908-29.8-12.083-46.03-12.083
			c-29.814,0-56.754,13.942-73.971,36.378c-0.1,0.114-2.731,3.503-5.391,7.893c-2.545,4.218-5.119,9.423-5.119,9.423
			C256.689,97.636,254.887,102.441,253.485,107.431z M263.452,202.365c-1.201-5.191-1.759-11.082-1.759-18.518v-14.514
			c4.032,17.488,20.019,30.501,38.608,30.501v-0.014c21.449,0,37.965-16.273,39.309-36.821h8.851
			c1.344,20.548,18.418,36.792,39.295,36.792c18.704,0,34.361-12.984,38.38-30.443v14.5c0,5.648-0.772,11.711-2.345,18.518
			c-3.789,16.487-13.084,31.888-26.197,43.37c-14.971,13.155-34.218,20.405-54.195,20.405c-19.933,0-39.166-7.25-54.166-20.42
			C276.279,234.367,267.356,219.381,263.452,202.365z M382.752,268.886c-4.075,18.032-20.205,31.53-39.438,31.53
			c-19.261,0-35.42-13.556-39.452-31.63c12.297,5.734,25.768,8.794,39.538,8.794C357.113,277.58,370.526,274.563,382.752,268.886z
			 M146.126,510.875c-35.034,0-63.532-28.499-63.532-63.518c0-35.034,28.499-63.532,63.532-63.532s63.518,28.499,63.518,63.532
			C209.644,482.376,181.159,510.875,146.126,510.875z M243.104,370.455l-34.905,34.905c-9.495-13.985-23.58-24.609-40.081-29.671
			l52.107-52.078l22.879,21.992V370.455z M243.104,324.925v4.805l-14.786-14.214l18.718-18.704
			C244.448,305.821,243.104,315.259,243.104,324.925z M283.986,600.56c2.717-11.826,13.542-21.421,26.468-21.421
			c12.927,0,23.766,9.595,26.468,21.421H283.986z M337.48,578.711c-6.964-6.821-16.501-11.011-27.026-11.011
			c-10.653,0-20.319,4.304-27.312,11.297V463.286h54.338V578.711z M349.706,600.56c2.717-11.826,13.542-21.421,26.468-21.421
			s23.766,9.595,26.468,21.421H349.706z M403.257,578.768c-6.978-6.849-16.53-11.068-27.083-11.068
			c-10.624,0-20.277,4.276-27.255,11.239V463.286h54.338V578.768z M431.856,451.847H254.544V324.925
			c0-19.433,6.034-37.808,17.46-53.151c0,0,6.134-8.136,13.341-14.428c1.988,1.587,4.047,3.089,6.149,4.49
			c0.987,27.741,23.851,50.019,51.821,50.019c27.927,0,50.763-22.193,51.821-49.876c2.145-1.416,4.218-2.931,6.235-4.533
			c5.634,4.39,12.97,13.284,13.584,14.128c11.068,15.057,16.902,33.446,16.902,53.351V451.847z M439.135,295.182l18.303,18.303
			l-14.142,13.599v-2.159C443.296,314.587,441.88,304.62,439.135,295.182z M522.2,413.153c-9.623,9.624-25.281,9.624-34.905,0
			l-43.999-43.999v-26.211l22.236-21.363l56.669,56.669C531.823,387.871,531.823,403.529,522.2,413.153z"/>
	</g>
</g>
<g>
</g>
<g>
</g>
<g>
</g>
<g>
</g>
<g>
</g>
<g>
</g>
<g>
</g>
<g>
</g>
<g>
</g>
<g>
</g>
<g>
</g>
<g>
</g>
<g>
</g>
<g>
</g>
<g>
</g>
</svg>
