<?xml version="1.0" encoding="iso-8859-1"?>
<!-- Generator: Adobe Illustrator 18.1.1, SVG Export Plug-In . SVG Version: 6.00 Build 0)  -->
<svg version="1.1" id="Capa_1" xmlns="http://www.w3.org/2000/svg" xmlns:xlink="http://www.w3.org/1999/xlink" x="0px" y="0px"
	 viewBox="0 0 612 612" style="enable-background:new 0 0 612 612;" xml:space="preserve">
<g>
	<g>
		<circle cx="265.366" cy="374.069" r="6.919"/>
		<circle cx="305.701" cy="392.113" r="11.519"/>
		<circle cx="270.142" cy="194.508" r="12.737"/>
		<circle cx="341.261" cy="194.508" r="12.737"/>
		<path d="M481.556,384.013c0,0-111.623-112.263-113.046-113.526c16.041-16.235,25.239-38.096,25.52-61.036
			c11.466-2.708,19.845-12.931,19.845-25.201c0-12.28-8.385-22.51-19.855-25.216c-0.198-12.07-2.763-23.733-7.684-34.668
			c-4.395-9.816-10.501-18.671-18.148-26.317c-13.264-13.263-30.493-21.967-48.908-24.822c-1.821-0.282-3.555-1.07-4.803-2.426
			c-0.007-0.007-0.013-0.015-0.02-0.022c-5.257-5.73-7.969-13.166-7.635-20.935c0.334-7.77,3.675-14.944,9.404-20.201
			c3.644-3.343,8.106-5.716,12.899-6.86l9.954-2.375l-7.587-6.868C321.847,4.808,309.344,0,296.287,0
			c-13.165,0-25.762,4.905-35.469,13.813c-10.332,9.479-16.354,22.417-16.957,36.427c-0.584,13.558,3.991,26.546,12.879,36.735
			c-13.91,9.253-24.822,22.106-31.68,37.383c-4.924,10.947-7.492,22.61-7.689,34.682c-11.469,2.716-19.855,12.945-19.855,25.212
			c0,12.255,8.379,22.477,19.844,25.196c0.282,22.942,9.481,44.806,25.527,61.046c-4.765,4.225-112.445,113.521-112.445,113.521
			c-13.274,13.275-13.274,34.873,0.003,48.149c6.642,6.635,15.362,9.951,24.082,9.951c8.72-0.001,17.44-3.319,24.075-9.954
			l32.395-32.395v72.663h27.351V612h134.693V472.427h27.365v-73.256l32.988,32.988c6.639,6.639,15.359,9.959,24.079,9.959
			s17.44-3.32,24.079-9.959C494.831,418.886,494.831,397.288,481.556,384.013z M394.059,170.381
			c5.346,2.331,9.032,7.647,9.032,13.87c0,6.217-3.685,11.528-9.032,13.857V170.381z M217.336,198.1
			c-5.346-2.335-9.032-7.642-9.032-13.849c0-6.213,3.685-11.527,9.032-13.863V198.1z M254.636,50.7
			c0.479-11.132,5.264-21.41,13.473-28.943c7.712-7.076,17.72-10.974,28.177-10.974c7.235,0,14.254,1.856,20.437,5.33
			c-2.801,1.537-5.42,3.41-7.789,5.582c-7.852,7.205-12.429,17.037-12.887,27.685c-0.458,10.647,3.258,20.837,10.463,28.69
			c3.644,3.97,7.941,7.101,12.709,9.288c-6.762,4.452-14.691,6.857-22.896,6.857c0,0-0.001,0-0.003,0
			c-11.663,0-22.87-4.934-30.748-13.519C258.043,72.489,254.158,61.83,254.636,50.7z M228.12,208.367v-47.839
			c0-3.73,0.282-7.41,0.797-11.04h12.171v-10.784h-9.834c0.667-2.275,1.432-4.524,2.312-6.74h19.654v-10.784h-14.393
			c6.372-10.841,15.268-19.94,26.089-26.633c9.005,6.712,20.029,10.456,31.406,10.456c0.001,0,0.001,0,0.003,0
			c13.166,0,25.766-4.913,35.477-13.824c0.736-0.675,2.692-2.672,2.692-2.672c9.689,3.881,18.598,9.695,26.07,17.167
			c4.675,4.675,8.677,9.874,11.989,15.505h-14.189v10.784h19.465c0.882,2.216,1.645,4.465,2.312,6.74h-9.645v10.784h11.982
			c0.515,3.63,0.797,7.312,0.797,11.04v47.839c0,22.335-9.634,43.603-26.433,58.347c-14.131,12.41-32.296,19.244-51.145,19.244
			c-18.833,0-36.997-6.834-51.145-19.244C237.754,251.965,228.12,230.699,228.12,208.367z M327.551,342.84h10.593v8.323h-52.572
			v-8.912h-20.22v8.912h-10.784v-70.734c14.879,10.563,32.719,16.314,51.13,16.314c18.5,0,36.415-5.795,51.319-16.44v23.097h-29.465
			c-7.309,0-13.255,5.945-13.255,13.254v12.935C314.296,336.895,320.242,342.84,327.551,342.84z M295.264,361.946
			c-12.493,4.335-21.49,16.217-21.49,30.167c0,13.949,8.995,25.829,21.486,30.166h-40.954v-60.333H295.264z M284.558,392.113
			c0-11.659,9.486-21.145,21.145-21.145s21.143,9.485,21.143,21.145c0,11.659-9.485,21.143-21.143,21.143
			C294.043,413.258,284.558,403.774,284.558,392.113z M337.629,392.113c0-13.951-8.997-25.832-21.49-30.167h40.956v60.333h-40.954
			C328.635,417.942,337.629,406.062,337.629,392.113z M348.928,351.162v-8.323h8.088v8.323H348.928z M327.551,332.056
			c-1.361,0-2.471-1.108-2.471-2.47v-12.935c0-1.361,1.108-2.47,2.471-2.47h33.102c1.361,0,2.47,1.108,2.47,2.47v12.935
			c0,1.361-1.108,2.47-2.47,2.47H327.551z M211,384.515l-40.02,40.021c-9.067,9.068-23.831,9.065-32.909,0
			c-9.069-9.071-9.069-23.827,0-32.897l39.882-39.881l33.048,31.786v0.971H211z M211,341.361v27.22l-25.421-24.45l29.117-29.116
			C212.254,323.482,211,332.324,211,341.361z M249.734,601.216c2.498-11.221,12.748-20.341,24.992-20.341
			s22.493,9.121,24.992,20.341H249.734z M300.305,580.575c-6.576-6.493-15.615-10.483-25.58-10.483
			c-9.97,0-19.014,3.994-25.591,10.493V472.429h51.17V580.575L300.305,580.575z M311.687,601.216
			c2.498-11.221,12.748-20.341,24.992-20.341c12.243,0,22.493,9.121,24.992,20.341H311.687z M362.26,580.575
			c-6.576-6.495-15.615-10.485-25.581-10.485c-9.97,0-19.012,3.994-25.589,10.492V472.427h51.17V580.575z M389.624,461.643h-167.84
			V341.361c0-18.22,5.737-35.544,16.591-50.105c1.689-2.269,3.495-4.45,5.408-6.538l-0.262,148.347h124.359l-0.081-92.333
			c3.667-2.36,6.106-6.468,6.106-11.144v-12.935c0-4.676-2.44-8.784-6.106-11.144v-20.576c1.134,1.247,2.242,2.519,3.296,3.827
			c12.121,15.05,18.528,33.239,18.528,52.601V461.643z M396.371,314.079l27.114,27.114l-23.077,22.198v-22.029
			C400.408,332.077,399.021,322.881,396.371,314.079z M473.931,424.536c-9.072,9.071-23.835,9.071-32.909,0l-40.613-40.613v-5.569
			l30.704-29.535l42.819,42.819C483.001,400.708,483.001,415.465,473.931,424.536z"/>
	</g>
</g>
<g>
</g>
<g>
</g>
<g>
</g>
<g>
</g>
<g>
</g>
<g>
</g>
<g>
</g>
<g>
</g>
<g>
</g>
<g>
</g>
<g>
</g>
<g>
</g>
<g>
</g>
<g>
</g>
<g>
</g>
</svg>
