<?xml version="1.0" encoding="iso-8859-1"?>
<!-- Generator: Adobe Illustrator 18.1.1, SVG Export Plug-In . SVG Version: 6.00 Build 0)  -->
<svg version="1.1" id="Capa_1" xmlns="http://www.w3.org/2000/svg" xmlns:xlink="http://www.w3.org/1999/xlink" x="0px" y="0px"
	 viewBox="0 0 612.002 612.002" style="enable-background:new 0 0 612.002 612.002;" xml:space="preserve">
<g>
	<g>
		<path d="M503.802,355.127c0,0-125.213-125.602-127.398-127.921c17.533-17.726,28.46-41.982,28.785-68.749
			c12.918-3.054,22.357-14.576,22.357-28.408c0-13.7-9.278-25.123-22.02-28.297c0,0-0.406-49.33-0.307-76.346
			C405.219,11.396,393.814,0,379.794,0H231.75c-14.019,0-25.425,11.397-25.425,25.408c0.012,27.058-0.553,76.354-0.553,76.354
			c-12.729,3.193-21.999,14.608-21.999,28.286c0,0.137,0.018,0.269,0.02,0.406h-0.014v43.986c0,18.662,15.184,33.845,33.847,33.845
			h2.6c4.133,6.891,9.072,13.241,14.692,18.921c-5.267,5.829-126.72,127.921-126.72,127.921
			c-14.951,14.966-14.95,39.309,0.002,54.26c7.482,7.482,17.305,11.221,27.131,11.221c9.824,0,19.652-3.741,27.131-11.221
			l36.5-36.499v81.854h30.817v157.258h151.76V454.743h30.832v-82.522l37.167,37.167c7.477,7.477,17.299,11.215,27.125,11.215
			c9.824,0,19.654-3.739,27.137-11.215C518.753,394.437,518.755,370.096,503.802,355.127z M344.455,344.866l-32.978,26.903v-29.684
			l39.418-96.205c4.607-2.36,9.007-5.064,13.164-8.085l-2.792,72.598l-29.187-2.653L344.455,344.866z M250.706,310.393l-2.773-72.12
			c4.116,2.94,8.46,5.574,13.007,7.871l38.387,93.635v31.033l-31.807-25.947l12.375-37.124L250.706,310.393z M305.873,323.716
			l-13.587-33.144l13.434-21.959l13.609,22.263L305.873,323.716z M325.042,276.929l-12.471-20.401
			c7.79-0.538,15.345-1.949,22.544-4.183L325.042,276.929z M286.57,276.63l-9.901-24.152c7.096,2.164,14.527,3.54,22.193,4.06
			L286.57,276.63z M335.613,124.399h11.391l-24.956,24.954c-0.923-2.895-1.432-5.972-1.432-9.169v-0.79L335.613,124.399z
			 M369.856,125.088c2.887,0.882,5.418,2.576,7.343,4.809l-38.122,38.122c-2.746-1.163-5.281-2.726-7.542-4.608L369.856,125.088z
			 M365.252,112.248H246.075c-12.878,0-23.718,8.77-26.938,20.642h-0.885v-29.556c0-0.131,0.006-0.267,0.006-0.399
			c16.412-1.657,29.978-12.927,34.509-28.593h104.399c4.657,16.083,18.856,27.541,35.897,28.712c0,0.093,0.005,0.188,0.005,0.281
			v29.556h-0.878C388.97,121.018,378.129,112.248,365.252,112.248z M258.761,124.399h12.91l-34.696,34.696
			c-1.974-2.453-3.557-5.223-4.695-8.215L258.761,124.399z M285.34,124.399h5.371v5.261l-39.325,39.325
			c-2.573-0.816-4.988-1.982-7.213-3.419L285.34,124.399z M415.395,130.05c0,7.011-4.152,13-10.176,15.627v-31.239
			C411.242,117.063,415.395,123.047,415.395,130.05z M218.477,25.407c0-7.309,5.954-13.255,13.274-13.255h148.044
			c7.319,0,13.274,5.946,13.274,13.233c-0.021,5.764-0.175,48.705-0.076,65.485c-12.728-1.282-22.996-10.781-24.95-23.525l0,0
			c-0.454-2.965-3.004-5.155-6.004-5.155H247.899c-3,0-5.55,2.19-6.004,5.155l0,0c-1.885,12.295-11.478,21.567-23.54,23.359
			C218.494,73.743,218.48,31.146,218.477,25.407z M206.102,114.444v31.224c-6.024-2.632-10.176-8.619-10.176-15.62
			C195.926,123.056,200.078,117.075,206.102,114.444z M195.932,174.441v-20.635c3.013,2.158,6.46,3.759,10.202,4.648
			c0.159,13.217,2.889,25.826,7.74,37.336C203.696,194.003,195.932,185.121,195.932,174.441z M227.417,196.137
			c-5.854-11.724-9.165-24.928-9.165-38.898v-12.196h0.173c2.418,21.08,20.358,37.506,42.074,37.506
			c23.358,0,42.361-19.003,42.361-42.363v-15.799h5.604v15.799c0,23.359,19.003,42.363,42.361,42.363
			c21.716,0,39.656-16.426,42.074-37.506h0.166v12.196c0,48.197-39.211,87.408-87.408,87.408c-29.151,0-54.996-14.357-70.885-36.357
			h16.074v-12.151h-23.431V196.137z M116.792,400.798c-10.217-10.217-10.216-26.851,0.002-37.079l0.676-0.676l37.806,36.35
			l-1.405,1.405C143.649,411.018,127.017,411.018,116.792,400.798z M163.871,390.798l-37.806-36.35l77.062-77.063
			c-2.734,9.512-4.163,19.488-4.163,29.699v48.622L163.871,390.798z M211.114,307.085c0-24.04,8.909-46.608,24.849-63.912
			l3.095,80.481l23.434-2.131l-9.152,27.457l45.987,37.515v56.099h-88.213V307.085z M299.585,454.743v121.902
			c-7.409-7.508-17.594-12.378-28.823-12.378c-11.233,0-21.423,4.875-28.832,12.388V454.743L299.585,454.743L299.585,454.743z
			 M299.033,599.851h-56.544c2.611-12.878,14.291-23.435,28.273-23.435C284.744,576.417,296.424,586.973,299.033,599.851z
			 M312.293,599.851c2.611-12.878,14.291-23.435,28.273-23.435s25.662,10.556,28.273,23.435H312.293z M369.39,576.646
			c-7.409-7.509-17.595-12.38-28.824-12.38c-11.232,0-21.421,4.874-28.83,12.386V454.743h57.654L369.39,576.646L369.39,576.646z
			 M400.222,442.593h-88.745v-55.145l47.158-38.469l-9.152-27.457l23.434,2.131l3.068-79.771
			c15.664,17.386,24.237,39.637,24.237,63.203V442.593z M407.911,276.42l77.589,77.589l-36.35,37.806l-36.78-36.778v-47.954
			C412.372,296.546,410.844,286.244,407.911,276.42z M495.213,400.795c-10.229,10.219-26.865,10.219-37.082,0.003l-0.387-0.387
			l36.35-37.806l1.113,1.113C505.426,373.947,505.427,390.581,495.213,400.795z"/>
		<circle cx="280.07" cy="405.477" r="11.569"/>
	</g>
</g>
<g>
</g>
<g>
</g>
<g>
</g>
<g>
</g>
<g>
</g>
<g>
</g>
<g>
</g>
<g>
</g>
<g>
</g>
<g>
</g>
<g>
</g>
<g>
</g>
<g>
</g>
<g>
</g>
<g>
</g>
</svg>
