<?xml version="1.0" encoding="UTF-8" standalone="yes"?>
<svg xmlns="http://www.w3.org/2000/svg" viewBox="0 0 212 212">
  <path d="M131.895 208.756a2 2 0 0 1-1.133-3.648c13.57-9.336 24.006-19.067 30.183-28.145 9.208-13.533 17.87-33.763 11.98-46.234-2.968-6.28-9.463-9.92-19.307-10.814-20.508-1.874-34.464 13.038-41.375 44.182l-.25 1.118c-1.858 8.13-3.986 25.542-4.007 25.717a2 2 0 0 1-3.97 0c-.02-.175-2.15-17.59-4.007-25.717l-.25-1.114c-6.913-31.146-20.86-46.057-41.377-44.186-9.843.895-16.338 4.532-19.305 10.812-5.892 12.472 2.77 32.7 11.98 46.235 6.176 9.077 16.613 18.81 30.182 28.145a2 2 0 0 1-1.63 3.585C32.736 196.68 0 154.455 0 106.007 0 57.532 32.758 15.3 79.663 3.307a2 2 0 0 1 1.46 3.69C63.823 16.52 41.89 32.81 35.64 56.29c-3.994 15.01-3.24 26.304 2.244 33.573 4.937 6.544 13.785 9.978 26.3 10.204.585.01 1.166.016 1.74.016 18.59 0 26.73-6.184 28.097-21.342l1.745-19.342a2 2 0 0 1 1.98-1.82h.01a2 2 0 0 1 1.99 1.798l2.672 26.263h7.166l2.67-26.263a2 2 0 0 1 1.99-1.798h.013a2 2 0 0 1 1.98 1.82l1.743 19.342c1.366 15.158 9.506 21.342 28.095 21.342.576 0 1.155-.006 1.742-.017 12.515-.228 21.363-3.66 26.3-10.205 5.483-7.27 6.238-18.564 2.244-33.573-6.248-23.48-28.183-39.77-45.482-49.297a2 2 0 0 1-.895-2.488 2 2 0 0 1 2.355-1.2C179.242 15.3 212 57.53 212 106.006c0 48.448-32.736 90.675-79.608 102.687-.165.04-.332.062-.497.062zM64.238 12.9C28.062 29.087 4 65.255 4 106.008c0 42.55 26.238 80.11 65.108 95.134-9.277-7.346-16.438-14.692-21.36-21.926-10.27-15.097-18.894-36.21-12.288-50.193 3.615-7.65 11.206-12.055 22.56-13.087a41.717 41.717 0 0 1 3.723-.172c20.825 0 34.93 15.974 41.92 47.476l.244 1.09c.71 3.106 1.445 7.428 2.093 11.665.648-4.236 1.383-8.558 2.093-11.663l.245-1.094c6.99-31.5 21.093-47.472 41.92-47.472 1.214 0 2.467.06 3.722.173 11.354 1.032 18.945 5.436 22.56 13.088 6.605 13.983-2.017 35.098-12.29 50.194-4.92 7.233-12.08 14.58-21.357 21.927C181.763 186.118 208 148.556 208 106.008c0-40.753-24.062-76.92-60.238-93.105 14.005 10.088 27.607 24.115 32.463 42.362 4.327 16.258 3.346 28.71-2.916 37.01-5.716 7.577-15.615 11.546-29.42 11.797-.612.012-1.215.018-1.815.018-13.605 0-29.427-2.727-31.94-23.66l-.755 7.42a2 2 0 0 1-1.99 1.797h-10.78a2 2 0 0 1-1.99-1.798l-.754-7.42c-2.513 20.935-18.335 23.66-31.94 23.66-.6 0-1.205-.005-1.816-.016-13.806-.25-23.704-4.22-29.42-11.795-6.26-8.3-7.24-20.753-2.915-37.01C36.63 37.014 50.232 22.988 64.238 12.9z"/>
</svg>