<?xml version="1.0" encoding="UTF-8" standalone="yes"?>
<svg xmlns="http://www.w3.org/2000/svg" viewBox="0 0 216.882 216.882">
  <path d="M108.44 216.882c-.04 0-.08 0-.12-.004-.498-.03-12.353-.775-23.715-4.4-12.71-4.058-28.856-10.306-33.595-17.038-.638-.907-1.696-2.798-3.592-8.73h-26.54c-7.925 0-14.373-6.446-14.373-14.37V95.79a6.638 6.638 0 0 1 6.63-6.63h.713V74.606a6.08 6.08 0 0 1-4.07-5.73c0-3.35 2.722-6.072 6.07-6.072s6.07 2.724 6.07 6.07a6.083 6.083 0 0 1-4.07 5.733V89.16h.714a6.638 6.638 0 0 1 6.63 6.63v71.918a4.95 4.95 0 0 0 4.944 4.944h13.3c-3.07-11.826-5.97-24.8-6.978-29.386a491.7 491.7 0 0 1-.357-1.633l-5.637-18.358c-.183-.642-4.163-14.96-2.958-34.474 1.028-16.662 5.815-22.517 7.774-24.237.702-3.19 3.603-16.057 6.378-23.955 2.402-6.836 10.528-24.072 22.1-32.067.068-.055.14-.104.216-.15 1.665-1.128 3.4-2.065 5.2-2.752C82.517.546 107.353.02 108.403 0c1.126.02 25.96.545 39.304 5.64 1.798.687 3.53 1.622 5.195 2.75.078.047.152.1.224.154 11.57 7.997 19.693 25.23 22.095 32.065 2.776 7.897 5.677 20.765 6.38 23.954 1.958 1.72 6.745 7.574 7.773 24.237 1.204 19.514-2.775 33.833-2.946 34.433l-5.65 18.4a383.464 383.464 0 0 1-.356 1.632c-1.01 4.59-3.91 17.576-6.98 29.386h13.3a4.95 4.95 0 0 0 4.946-4.943V95.79a6.638 6.638 0 0 1 6.63-6.63h.714V74.607a6.083 6.083 0 0 1-4.07-5.732c0-3.348 2.723-6.07 6.07-6.07s6.07 2.723 6.07 6.07a6.08 6.08 0 0 1-4.07 5.73V89.16h.714a6.638 6.638 0 0 1 6.63 6.63v76.548c0 7.925-6.448 14.372-14.373 14.372h-26.542c-1.9 5.94-2.954 7.824-3.59 8.73-4.74 6.73-20.885 12.98-33.595 17.036-11.363 3.626-23.217 4.372-23.716 4.4-.04.005-.08.006-.12.006zM51.626 186.71c1.43 4.31 2.266 5.87 2.657 6.427 3.198 4.544 14.398 10.06 31.54 15.53 10.28 3.28 21.347 4.122 22.62 4.21 1.27-.088 12.338-.93 22.618-4.21 17.14-5.47 28.34-10.986 31.54-15.53.39-.555 1.222-2.11 2.655-6.427h-3.463c-2.03 5.346-6.2 8.733-10.878 8.733-6.692 0-12.138-7.07-12.138-15.762s5.445-15.762 12.138-15.762c4.67 0 8.848 3.392 10.878 8.733h7.517c2.51-9.57 4.947-20.148 6.353-26.41-6.098 2.645-18.206 7.526-24.203 7.26-5.533-.23-10.376-7.48-15.502-15.155-3.158-4.728-6.424-9.617-9.47-12.114-7.086-5.81-17.188-6.372-18.047-6.41-.838.038-10.985.618-18.05 6.41-3.045 2.498-6.31 7.388-9.47 12.116-5.125 7.675-9.967 14.925-15.5 15.155-6.03.28-18.105-4.613-24.203-7.26 1.405 6.258 3.84 16.826 6.354 26.41h7.518c2.03-5.342 6.207-8.732 10.878-8.732 6.692 0 12.137 7.07 12.137 15.763s-5.445 15.763-12.137 15.763c-4.68 0-8.848-3.388-10.878-8.733h-3.463zm99.29-18.79c-4.487 0-8.138 5.275-8.138 11.762 0 6.485 3.65 11.762 8.138 11.762 2.585 0 4.982-1.796 6.506-4.733H154a6.987 6.987 0 0 1-6.98-6.978v-.1c0-3.85 3.13-6.98 6.98-6.98h3.42c-1.524-2.936-3.926-4.733-6.505-4.733zM59.46 186.71c1.524 2.938 3.922 4.733 6.507 4.733 4.487 0 8.137-5.276 8.137-11.762 0-6.485-3.65-11.762-8.137-11.762-2.58 0-4.98 1.797-6.505 4.733h3.42c3.85 0 6.98 3.132 6.98 6.98v.1c0 3.85-3.13 6.98-6.98 6.98h-3.42zm91.56-6.98a2.982 2.982 0 0 0 2.98 2.98h42.005c5.72 0 10.372-4.653 10.372-10.372V95.79c0-1.45-1.18-2.63-2.63-2.63h-5.428c-1.45 0-2.63 1.18-2.63 2.63v71.918c0 4.932-4.013 8.944-8.945 8.944H154a2.982 2.982 0 0 0-2.98 2.98v.1zM13.136 93.16c-1.45 0-2.63 1.18-2.63 2.63v76.548c0 5.72 4.654 10.372 10.374 10.372h42.004a2.982 2.982 0 0 0 2.98-2.98v-.1a2.982 2.982 0 0 0-2.98-2.98H30.138c-4.932 0-8.945-4.012-8.945-8.943V95.79c0-1.45-1.18-2.63-2.63-2.63h-5.428zm97.306 22.807c3.744.4 12.114 1.864 18.586 7.17 3.505 2.876 6.938 8.017 10.26 12.987 4.143 6.204 8.84 13.235 12.34 13.382 5.61.23 19.244-5.436 25.113-8.118.092-.426.144-.662.147-.682.012-.056.026-.11.043-.166l5.662-18.438c.027-.1 3.95-14.26 2.79-33.054-1.093-17.702-6.602-21.627-6.657-21.664-.474-.285-.764-.725-.88-1.266-.033-.154-3.362-15.546-6.397-24.183-2.567-7.307-8.396-18.504-15.717-25.928l12.218 40.977c.075.254.1.52.07.784l-.92 8.596c7.41 4.542 10.98 12.277 10.63 23.104-.44 13.636-4.165 20.1-12.08 20.96-6.454.686-25.414-7.426-36.84-15.82-1.817-1.334-3.373-2.47-4.712-3.447-7.374-5.38-8.508-6.207-10.202-9.135-.7-1.208-1.053-2.716-1.05-4.48.005-3.528 2.322-6.655 5.766-7.78 9.568-3.12 25.974-7.864 35.97-7.404l.913-6.813-13.386-47.51C128.81 4.428 108.63 4.005 108.403 4c-.157.004-20.336.43-33.628 4.04L61.39 55.544l.914 6.814c9.972-.464 26.4 4.283 35.968 7.404 3.444 1.124 5.76 4.25 5.767 7.78.002 1.764-.35 3.27-1.05 4.48-1.695 2.927-2.83 3.754-10.202 9.135-1.34.977-2.896 2.112-4.712 3.446-11.426 8.395-30.364 16.51-36.84 15.82-7.915-.86-11.64-7.324-12.08-20.96-.35-10.827 3.218-18.562 10.63-23.104l-.923-8.596a2.016 2.016 0 0 1 .072-.784l12.217-40.978c-7.32 7.424-13.15 18.622-15.718 25.93C42.4 50.57 39.07 65.96 39.037 66.115a2 2 0 0 1-.926 1.294c-.01.01-5.518 3.934-6.61 21.636-1.16 18.793 2.762 32.955 2.802 33.097l5.65 18.396c.017.054.03.11.043.165l.148.682c5.87 2.683 19.562 8.36 25.112 8.118 3.502-.146 8.2-7.178 12.342-13.38 3.32-4.973 6.754-10.113 10.26-12.988 6.47-5.307 14.84-6.77 18.585-7.17v-31.83a2 2 0 0 1 4 0v31.83zm6.915-35.946c1.243 2.148 1.824 2.602 9.1 7.91 1.342.98 2.9 2.117 4.722 3.455 12.07 8.867 29.496 15.59 34.04 15.067 4.15-.45 8.054-2.837 8.514-17.113.317-9.796-2.728-16.314-9.49-20.033a1.997 1.997 0 0 1-.414-.223c-1.948-1.017-4.193-1.812-6.74-2.396-5.94-1.357-19.856 1.21-37.233 6.88-1.796.585-3.004 2.186-3.007 3.98-.003 1.038.174 1.89.51 2.473zM52.642 69.308c-6.76 3.72-9.806 10.236-9.49 20.032.46 14.276 4.364 16.66 8.514 17.112 4.54.502 21.97-6.2 34.04-15.068a1687.8 1687.8 0 0 1 4.723-3.455c7.273-5.31 7.854-5.763 9.097-7.91.336-.58.513-1.434.51-2.47 0-1.796-1.21-3.396-3.006-3.982-17.377-5.67-31.296-8.235-37.23-6.88-2.55.585-4.794 1.38-6.743 2.397-.128.09-.267.164-.415.222zm148.39-2.503c-1.142 0-2.07.93-2.07 2.07 0 1.143.93 2.07 2.07 2.07a2.07 2.07 0 1 0 0-4.14zm-185.183 0c-1.143 0-2.072.93-2.072 2.07 0 1.143.93 2.07 2.07 2.07 1.143 0 2.072-.928 2.072-2.07s-.93-2.07-2.07-2.07zm37.032-9.062l.72 6.702a33.78 33.78 0 0 1 4.74-1.52l-.973-7.258a1.986 1.986 0 0 1 .057-.808l12.77-45.322a21.157 21.157 0 0 0-3.495 1.854l-13.82 46.352zm105.657 5.18c1.69.415 3.27.922 4.74 1.522l.72-6.702-13.82-46.352a21.468 21.468 0 0 0-3.494-1.854l12.77 45.322c.074.263.094.537.058.808l-.975 7.257zm-50.1 123.868c-12.304 0-22.314-10.01-22.314-22.315s10.01-22.314 22.315-22.314 22.315 10.01 22.315 22.315-10.01 22.315-22.314 22.315zm0-40.63c-10.098 0-18.314 8.216-18.314 18.314 0 10.1 8.216 18.315 18.315 18.315 10.1 0 18.315-8.217 18.315-18.316 0-10.098-8.215-18.314-18.314-18.314zm0 32.51c-7.826 0-14.194-6.368-14.194-14.195s6.368-14.194 14.195-14.194 14.195 6.368 14.195 14.195-6.366 14.195-14.194 14.195zm0-24.39c-5.62 0-10.194 4.573-10.194 10.194 0 5.622 4.574 10.195 10.195 10.195 5.622 0 10.195-4.574 10.195-10.196 0-5.62-4.572-10.194-10.194-10.194z"/>
</svg>