<?xml version="1.0" encoding="UTF-8" standalone="yes"?>
<svg xmlns="http://www.w3.org/2000/svg" viewBox="0 0 26.856 32">
  <g fill="#231f20">
    <circle cx="13.476" cy="7.846" r=".963"/>
    <circle cx="17.781" cy="7.846" r=".963"/>
    <path d="M12.037 25.558h2.2v.846h-2.2zm0 1.288h2.2v.846h-2.2zm0 1.148h2.2v.846h-2.2zm2.2 1.95v-.662h-2.2v.662A2.332 2.332 0 0 0 10.806 32h4.664c0-.89-.5-1.664-1.233-2.056zm2.85-4.386h2.2v.846h-2.2zm0 1.288h2.2v.846h-2.2zm0 1.148h2.2v.846h-2.2zm2.2 1.95v-.662h-2.2v.662A2.33 2.33 0 0 0 15.853 32h4.664a2.33 2.33 0 0 0-1.23-2.056zM25.4 21.963h.002l-4.128-8.168h-3.212v-2.03H20.3V5.19h-2.71V3.836h-1.792V1h.367V0H15.09v1h.367v2.836h-1.792V5.19H10.96v6.573h2.236v2.03H9.958L7.496 16.83 3.13 12.874V11.27h-.88v2.25H0v.88h1.792l5.927 5.37 2.24-2.747v6.617h2.03v1.523h2.2V23.64h2.85v1.523h2.2V23.64h2.03v-5.35l2.18 4.31-.696 1.648.81.342.876-2.075 2.075.875.343-.812-1.46-.615zM19.42 7.846a1.637 1.637 0 1 1-3.276 0 1.637 1.637 0 0 1 3.275 0zm-7.58 0a1.637 1.637 0 1 1 3.273 0 1.637 1.637 0 0 1-3.274 0zm4.727 13.58h-4.895v-1.302h4.895v1.3zm0-2.06h-4.895v-1.3h4.895v1.3zm0-2.1h-4.895v-1.3h4.895v1.3zm-.938-6.476h-1.836v-.65h3.666v.65h-1.83zm4.025 10.635H17.3v-1.3h2.356v1.3zm0-2.06H17.3v-1.3h2.356v1.3zm0-2.098H17.3v-1.3h2.356v1.3z"/>
  </g>
</svg>