<?xml version="1.0" encoding="UTF-8" standalone="yes"?>
<svg xmlns="http://www.w3.org/2000/svg" viewBox="0 0 22.335 32">
  <g fill="#231f20">
    <path d="M8.43 5.405h.897v.84H8.43z"/>
    <path d="M20.628 19.34c.023-1.147-.064-4.706-1.877-6.73-.787-.878-1.786-1.366-2.97-1.453a1.073 1.073 0 0 0-.14-.01h-2.655V9.802h1.235c.618 0 1.12-.5 1.12-1.12v-.424c.782-.154 1.375-.858 1.375-1.705s-.593-1.55-1.375-1.705V4.2a1.12 1.12 0 0 0-1.12-1.12h-2.774V1.574a.827.827 0 1 0-.71 0V3.08h-2.77A1.12 1.12 0 0 0 6.844 4.2v.65C6.062 5 5.47 5.706 5.47 6.552s.592 1.55 1.374 1.705v.424c0 .62.5 1.12 1.12 1.12H9.2v1.346H6.73l-.035.002v-.003c-1.246.057-2.294.55-3.113 1.464-1.813 2.023-1.9 5.582-1.876 6.73C.716 19.65 0 20.497 0 21.493c0 .02.003.037.004.056H1.35c0-.02-.004-.038-.004-.057 0-.515.53-.934 1.186-.934.653 0 1.186.416 1.186.932 0 .02-.004.037-.005.056H5.06l.002-.057c0-.906-.593-1.69-1.446-2.054-.047-1.195.113-4.136 1.39-5.558.185-.205.387-.37.607-.5v7.542c0 .618.5 1.12 1.12 1.12h.353v1.177H9.5V22.04h3.4v1.177h2.415V22.04h.328c.62 0 1.12-.5 1.12-1.12v-7.58c.192.128.364.305.573.538 1.277 1.422 1.438 4.363 1.39 5.558-.854.366-1.446 1.148-1.446 2.055 0 .02.003.038.004.057h1.347c0-.02-.004-.038-.004-.057 0-.515.532-.934 1.185-.934.655 0 1.188.417 1.188.933 0 .02-.004.036-.005.055h1.345c0-.02.004-.038.004-.057-.005-.997-.72-1.843-1.712-2.152zM12.4 7.927v.7H9.784v-.7H12.4zm-.123-3.08h2.09v1.94h-2.09v-1.94zm-4.462 1.94v-1.94h2.09v1.94h-2.09zm6.414 5.927l1.08 1.08a.78.78 0 0 1-1.206-.658c0-.156.046-.3.124-.422zm0 2.27l1.08 1.08a.78.78 0 0 1-1.206-.66.78.78 0 0 1 .124-.42zm0 2.378l1.08 1.083a.784.784 0 0 1-1.083-1.082zm-5.14-.35l-.007.235c0 .047-.04.083-.088.082l-.402-.015a.085.085 0 0 1-.082-.087L8.52 17a1.624 1.624 0 0 1-.65-.29l-.157.148a.084.084 0 0 1-.12-.004l-.275-.294a.088.088 0 0 1 .003-.12l.156-.144a1.626 1.626 0 0 1-.254-.67l-.203-.006a.085.085 0 0 1-.08-.087l.01-.4c0-.047.043-.084.09-.083l.203.007a1.64 1.64 0 0 1 .302-.656l-.14-.15a.085.085 0 0 1-.022-.06.08.08 0 0 1 .027-.06l.295-.274a.085.085 0 0 1 .12.004l.145.156a.743.743 0 0 1 .073-.04c.183-.105.382-.174.59-.202l.006-.205c0-.048.04-.084.085-.083l.402.014c.047 0 .084.04.082.088L9.2 13.8c.23.05.446.154.634.297L10 13.94a.086.086 0 0 1 .12.005l.274.293a.085.085 0 0 1-.004.12l-.168.158c.126.196.208.418.24.648l.24.008a.08.08 0 0 1 .08.087l-.012.4a.086.086 0 0 1-.088.082l-.238-.007a1.63 1.63 0 0 1-.28.625l.16.174a.083.083 0 0 1-.003.12l-.292.274a.083.083 0 0 1-.06.022.09.09 0 0 1-.06-.027l-.157-.168c-.2.132-.423.22-.657.256zm4.607 1.825a.086.086 0 0 1-.088.082l-.24-.01a1.62 1.62 0 0 1-.28.626l.16.173a.085.085 0 0 1-.003.12l-.294.274a.09.09 0 0 1-.06.023.093.093 0 0 1-.06-.027l-.158-.17a1.63 1.63 0 0 1-.657.256l-.01.234a.085.085 0 0 1-.087.082l-.4-.013a.087.087 0 0 1-.083-.09l.007-.228a1.616 1.616 0 0 1-.48-.18 1.398 1.398 0 0 1-.17-.11l-.157.15a.083.083 0 0 1-.12-.006l-.274-.294a.087.087 0 0 1 .004-.12l.155-.144a1.627 1.627 0 0 1-.255-.67l-.2-.008a.086.086 0 0 1-.082-.088l.014-.402c0-.047.04-.083.087-.082l.203.007c.05-.238.154-.462.303-.656l-.14-.15a.083.083 0 0 1-.022-.06c0-.022.01-.044.027-.06l.294-.274a.086.086 0 0 1 .12.004l.147.156c.023-.015.048-.027.072-.04a1.63 1.63 0 0 1 .59-.202l.005-.206a.086.086 0 0 1 .088-.082l.402.014a.08.08 0 0 1 .08.087l-.006.213c.23.05.445.153.633.295l.166-.155a.085.085 0 0 1 .12.005l.273.294a.085.085 0 0 1-.004.12l-.17.156c.127.197.21.418.24.648l.24.008c.047 0 .083.04.08.088l-.015.405zm1.19 2.002a.784.784 0 0 1-.66-1.206l1.083 1.08a.785.785 0 0 1-.422.125zm.66-.36l-1.082-1.084a.78.78 0 0 1 1.206.66c0 .155-.046.3-.124.422zm0-2.273l-1.082-1.08a.78.78 0 0 1 1.206.658.78.78 0 0 1-.124.422zm0-2.378l-1.082-1.083a.78.78 0 0 1 1.206.66.78.78 0 0 1-.124.422zm0-2.27l-1.082-1.08a.78.78 0 0 1 1.206.657.78.78 0 0 1-.124.422zm-6.657.953zm-.04 1.23z"/>
    <path d="M11.82 17.688a.89.89 0 0 0-.85 1.246.894.894 0 1 0 .85-1.246zm-.043 1.23a.338.338 0 1 1 .024-.677.338.338 0 0 1 .33.35.34.34 0 0 1-.35.33zm-3.503 4.588c-.238 0-.458.07-.643.19l1.65 1.648a1.195 1.195 0 0 0-1.004-1.838zM7.08 24.7c0 .662.534 1.197 1.194 1.197.237 0 .457-.07.642-.19L7.27 24.06c-.12.184-.19.404-.19.64zm.004 1.628H9.5v1.512H7.083zM9.5 29.48v-1.11H7.083v1.11A2.792 2.792 0 0 0 5.493 32h5.595c0-1.112-.652-2.07-1.59-2.52zm4.586-5.974c-.238 0-.457.07-.643.19l1.648 1.648a1.193 1.193 0 0 0-1.004-1.838zM12.89 24.7a1.195 1.195 0 0 0 1.84 1.007l-1.65-1.647a1.17 1.17 0 0 0-.192.64zm.006 1.628h2.415v1.512h-2.413zm2.414 3.152v-1.11h-2.414v1.11a2.792 2.792 0 0 0-1.59 2.52h5.596a2.8 2.8 0 0 0-1.59-2.52zM12.856 5.405h.896v.84h-.896z"/>
  </g>
</svg>