<svg xmlns="http://www.w3.org/2000/svg" width="22.938" height="32" viewBox="0 0 22.938 32"><g fill="#231f20"><path d="M19.077 28.365a1.283 1.283 0 0 0-.336-2.25c.5-.177.863-.65.863-1.21 0-.566-.366-1.04-.872-1.215a1.285 1.285 0 0 0 .862-1.372 11.156 11.156 0 0 0 3.345-7.978H0a11.15 11.15 0 0 0 3.343 7.976c-.005.05-.01.1-.01.15 0 .564.367 1.04.873 1.213-.506.174-.872.648-.872 1.213 0 .562.36 1.035.86 1.212a1.285 1.285 0 0 0-.335 2.25 3.748 3.748 0 0 0-2.838 3.632h7.5A3.75 3.75 0 0 0 6.04 28.46a1.283 1.283 0 0 0-.164-2.357c.5-.176.862-.65.862-1.21 0-.106-.017-.207-.04-.305 1.374.604 2.893.94 4.492.94.092 0 .182-.003.273-.006.094.002.188.007.282.007 1.6 0 3.12-.34 4.496-.943-.025.1-.042.207-.042.315 0 .562.36 1.035.862 1.21a1.286 1.286 0 0 0-.163 2.36 3.75 3.75 0 0 0-2.483 3.526h7.5a3.747 3.747 0 0 0-2.837-3.633zM5.573 5.454c.052.34.302 1.758.974 3.02a6.817 6.817 0 0 0-1.91 4.74H18.3c0-1.838-.726-3.506-1.907-4.736.67-1.26.92-2.675.972-3.015a2.76 2.76 0 1 0-1.242-.012c-.076.415-.277 1.337-.686 2.2a6.805 6.805 0 0 0-3.952-1.276H11.46h-.006a6.818 6.818 0 0 0-3.95 1.274c-.41-.865-.612-1.79-.69-2.207A2.757 2.757 0 0 0 6.17 0a2.76 2.76 0 0 0-.597 5.454zm9.29-2.683a1.905 1.905 0 1 1 3.81.002 1.905 1.905 0 0 1-3.81 0zM8.31 11.123h6.32v.94H8.31v-.94zM6.17.856a1.904 1.904 0 1 1 0 3.808 1.904 1.904 0 0 1 0-3.808z"/><circle cx="6.169" cy="2.76" r=".862"/><circle cx="16.768" cy="2.771" r=".862"/></g></svg>