<?xml version="1.0" encoding="UTF-8" standalone="yes"?>
<svg xmlns="http://www.w3.org/2000/svg" viewBox="0 0 23.492 32">
  <g fill="#231f20">
    <circle cx="9.686" cy="7.853" r=".887"/>
    <circle cx="15.919" cy="7.853" r=".887"/>
    <path d="M12.952 17.53a1.527 1.527 0 1 0-.104 3.052 1.527 1.527 0 0 0 .104-3.052zm-.072 2.105z"/>
    <path d="M22.316 20.823l.052-.12c.36-.81.7-1.574.777-2.622.047-.64-.328-1.345-.892-1.678a.254.254 0 0 1-.028-.016c0-.068.002-.138 0-.21-.005-.696-.27-1.148-.857-1.465a2.148 2.148 0 0 0-.314-.14 2.85 2.85 0 0 0-.69-.86c-.244-.21-.734-.554-1.25-.51-.397.033-.795.25-1.146.44-.068.037-.134.073-.196.105a2.446 2.446 0 0 0-.21.125 6.74 6.74 0 0 0-.484-.486c1.072-.694 1.906-1.648 2.376-2.756.933-.08 1.672-1.158 1.672-2.48 0-1.375-.798-2.49-1.783-2.49a1.31 1.31 0 0 0-.286.036c-1.15-1.862-3.396-3.138-5.99-3.188v-1.27h.615V0H12.056v1.235h.615v1.27c-2.593.05-4.837 1.327-5.988 3.188a1.356 1.356 0 0 0-.286-.034c-.985 0-1.782 1.113-1.782 2.488 0 1.323.74 2.402 1.67 2.48.47 1.108 1.306 2.062 2.377 2.756a7.148 7.148 0 0 0-.307.296c-.653-.18-1.332-.308-2.068-.18-.522.093-2.11.374-2.62 1.533A2.02 2.02 0 0 0 3.6 16.5c-.335.24-.608.538-.776.855-.22.417-.26.848-.123 1.248-.712.542-.93 1.548-.99 2.274A2.2 2.2 0 0 0 0 22.994h.965a1.232 1.232 0 0 1 1.23-1.206c.67 0 1.215.54 1.228 1.206h.965A2.197 2.197 0 0 0 2.32 20.83c.058-.57.225-1.286.687-1.69.11.136.243.265.398.384.176.135.712.545 1.314.24.416-.21.63-.535.576-.87a.706.706 0 0 0-.3-.47c-.495-.343-1.413-.18-1.516-.16a2.07 2.07 0 0 0-.232.06.98.98 0 0 1 .11-.686c.117-.22.306-.427.538-.6.332.41.834.63 1.392.616.442-.014.957-.24 1.176-.573a8.56 8.56 0 0 0-.283 2.19c0 2.955 1.485 5.51 3.642 6.728v4.12A1.987 1.987 0 0 0 8.472 32h3.977c0-.93-.642-1.71-1.508-1.927v-3.587a5.69 5.69 0 0 0 1.733.272c.066 0 .13-.003.196-.006.065.002.13.006.196.006.6 0 1.18-.096 1.733-.272v3.587A1.988 1.988 0 0 0 13.29 32h3.978c0-.875-.565-1.615-1.35-1.882v-4.12c2.156-1.22 3.64-3.774 3.64-6.73 0-1.07-.196-2.088-.548-3.01a.9.9 0 0 0 .212.162c.348.194.875.217 1.2.054.423-.21.742-.692.79-1.154.293.196.407.444.41.863v.03a1.215 1.215 0 0 0-.7.204c-.344.226-.885.77-.724 1.376.086.326.317.54.633.585.378.055.81-.154 1.01-.483.14-.23.244-.505.307-.82.258.25.418.624.394.96-.07.943-.374 1.628-.726 2.422-.024.052-.047.106-.07.16a2.195 2.195 0 0 0-2.58 1.618l.94.222a1.23 1.23 0 0 1 2.392.566l.94.223a2.196 2.196 0 0 0-1.124-2.423zM3.594 18.856c.364-.07.872-.064 1.056.064.042.03.05.053.053.073.005.033-.08.146-.255.233-.13.067-.313.096-.676-.18a1.804 1.804 0 0 1-.208-.185c.01 0 .02-.002.03-.004zm1.674-1.805c-.335.012-.626-.1-.838-.318.417-.172.882-.23 1.297-.092.142.047.206.09.233.114-.07.105-.388.288-.692.297zm1.304-.344c-.012-.196-.136-.466-.655-.638-.59-.196-1.227-.114-1.78.13a1.424 1.424 0 0 1 .084-.922c.256-.582.966-.968 2.172-1.18.52-.092 1.017-.03 1.516.09a7.77 7.77 0 0 0-1.336 2.52zm4.913-6.07h2.74v1.327h-2.74v-1.326zM8.178 7.854a1.507 1.507 0 1 1 3.015 0 1.507 1.507 0 0 1-3.015 0zm7.986 11.64a.144.144 0 0 1-.15.14l-.407-.014a2.812 2.812 0 0 1-.48 1.07l.276.297c.054.06.05.15-.007.205l-.503.47a.147.147 0 0 1-.205-.006l-.27-.288a2.805 2.805 0 0 1-1.123.436l-.013.4a.145.145 0 0 1-.15.14l-.688-.023a.145.145 0 0 1-.14-.15l.013-.388c-.4-.082-.778-.25-1.108-.495l-.27.253a.146.146 0 0 1-.206-.007l-.47-.503a.15.15 0 0 1 .007-.205l.266-.246a2.792 2.792 0 0 1-.435-1.148l-.346-.012a.147.147 0 0 1-.14-.15l.023-.688a.144.144 0 0 1 .15-.14l.347.013c.086-.408.264-.792.518-1.122l-.24-.257a.143.143 0 0 1 .007-.204l.503-.47c.06-.055.15-.05.205.006l.248.266c.344-.22.73-.36 1.132-.412l.012-.353a.144.144 0 0 1 .148-.14l.688.023c.08.002.143.07.14.15l-.013.364c.393.088.764.26 1.084.506l.283-.264a.146.146 0 0 1 .205.006l.47.502c.055.058.05.15-.007.205l-.288.27c.215.336.356.715.412 1.11l.407.013c.08.002.142.07.14.15l-.026.688zM15.92 9.362a1.508 1.508 0 1 1 0-3.015 1.508 1.508 0 0 1 0 3.016zm2.888 6.412a7.583 7.583 0 0 0-.858-1.434c.036-.022.07-.042.1-.057.064-.034.134-.07.206-.11.298-.163.638-.347.91-.37.21-.017.52.123.81.368.114.098.22.207.31.32a1.64 1.64 0 0 0-.427.127c-.183.082-1.063.51-1.052 1.157zm1.347.164c-.134.068-.45.064-.638-.04-.103-.06-.107-.11-.11-.127-.012-.146.327-.44.697-.604a.972.972 0 0 1 .5-.085c.006.032.01.063.013.09.02.275-.197.634-.462.766zm1.173 1.647a.47.47 0 0 1-.41.2c-.053-.007-.106-.03-.136-.143-.057-.215.2-.54.473-.718a.61.61 0 0 1 .33-.107 2.072 2.072 0 0 1-.257.768z"/>
  </g>
</svg>