<svg xmlns="http://www.w3.org/2000/svg" width="22.357" height="32" viewBox="0 0 22.357 32"><g fill="#231f20"><path d="M21.58 19.833v-8.171H.78V19.833c-.47.263-.777.66-.777 1.107 0 .396.235.755.615 1.015.257-.462.776-.778 1.376-.778.638 0 1.185.356 1.422.865.462-.262.755-.66.755-1.103 0-.402-.242-.764-.63-1.023v-5.492H6.327v6.745H6.32v6.885c-1.624.228-2.872 1.537-2.872 3.123 0 .283.04.558.116.82h6.439c.075-.262.116-.537.116-.82 0-1.114-.616-2.09-1.545-2.653v-7.243h5.209v7.245c-.93.563-1.545 1.54-1.545 2.652 0 .283.04.558.116.82h3.225v-.002h3.214c.075-.262.116-.537.116-.82 0-1.586-1.248-2.895-2.873-3.123V21.17h-.007v-6.745h2.788v5.49c-.39.26-.63.62-.63 1.022 0 .444.294.84.756 1.103.237-.51.784-.865 1.42-.865.6 0 1.12.316 1.377.778.38-.26.615-.62.615-1.016 0-.446-.308-.842-.777-1.104zm-10.343-.283l-.06-.003c-.02 0-.038.003-.058.003-1.697 0-3.078-1.38-3.078-3.077s1.38-3.077 3.077-3.077c.02 0 .038.002.058.003.02-.002.04-.004.06-.004 1.695 0 3.075 1.38 3.075 3.077s-1.38 3.077-3.076 3.077z"/><path d="M11.237 14.195c-.017 0-.034 0-.05.003h-.01-.007c-.017 0-.034-.003-.05-.003-1.257 0-2.28 1.022-2.28 2.278a2.28 2.28 0 0 0 2.33 2.276v-.002h.016a2.28 2.28 0 0 0 2.33-2.276 2.28 2.28 0 0 0-2.28-2.276zm0 3.83c-.02 0-.04-.003-.06-.004-.02.002-.038.004-.058.004a1.552 1.552 0 0 1 0-3.102c.02 0 .038 0 .058.002l.06-.002a1.55 1.55 0 0 1 0 3.102zM14.942 11.096c.04-.22.062-.44.062-.665 0-2.026-1.672-3.697-3.744-3.76H11.187v.002h-.09c-2.072.062-3.744 1.733-3.744 3.76 0 .223.02.445.062.665H8.61a2.572 2.572 0 0 1-.036-.415c0-1.397 1.153-2.53 2.58-2.545.01 0 .017.002.024.003.008 0 .016 0 .024-.002v-.002c1.428.015 2.58 1.148 2.58 2.545 0 .143-.013.28-.035.416h1.195z"/><path d="M6.606 11.096a4.352 4.352 0 0 1-.052-.665c0-2.488 2.07-4.534 4.615-4.56h.016c2.545.026 4.615 2.072 4.615 4.56 0 .224-.018.446-.05.666h1.202c.124-.45.19-.92.19-1.407 0-3.015-2.522-5.47-5.698-5.63V1.954A.985.985 0 0 0 11.258 0h-.16a.986.986 0 0 0-.188 1.953V4.06c-3.174.16-5.698 2.615-5.698 5.63 0 .485.068.956.192 1.406h1.202z"/></g></svg>