<?xml version="1.0" encoding="iso-8859-1"?>
<!-- Generator: Adobe Illustrator 18.0.0, SVG Export Plug-In . SVG Version: 6.00 Build 0)  -->
<!DOCTYPE svg PUBLIC "-//W3C//DTD SVG 1.1//EN" "http://www.w3.org/Graphics/SVG/1.1/DTD/svg11.dtd">
<svg version="1.1" id="Capa_1" xmlns="http://www.w3.org/2000/svg" xmlns:xlink="http://www.w3.org/1999/xlink" x="0px" y="0px"
	 viewBox="0 0 488.65 488.65" style="enable-background:new 0 0 488.65 488.65;" xml:space="preserve">
<path d="M437.632,447.747c-14.565-9.045-26.359-15.712-44.689-30.012c-0.289-0.223-0.64-0.52-0.929-0.751
	c3.477-8.725,5.639-20.15,4.791-35.187c-0.258-4.719-3.51-8.732-8.059-9.99c-1.731-0.473-3.493-0.512-5.144-0.176
	c3.252-17.538,3.91-35.435,1.314-42.645c-1.748-4.816-6.619-7.764-11.569-7.211c-1.17-16.135-4.968-28.688-8.14-36.684
	c-1.281-3.245-4.038-5.688-7.387-6.586c-3.365-0.92-7.003-0.161-9.71,2.02l-3.99,3.188c1.506-10.263,1.875-20.517,1.106-30.708
	c-0.145-1.818-0.737-3.588-1.731-5.127c-13.81-21.39-29.289-42.228-46.066-61.945c-24.306-28.608-45.393-48.789-77.743-74.459
	c-3.268-2.61-7.77-3.099-11.567-1.329c-2.804,1.337-4.888,3.78-5.785,6.673c-0.159-5.158-0.625-10.655-1.49-16.43
	c-0.433-2.837-1.923-5.385-4.197-7.131C126.628,39.676,57.521,1.725,56.816,1.34c-3.541-1.946-7.884-1.754-11.313,0.458
	c-3.413,2.243-5.286,6.168-4.919,10.222c0.594,6.305,14.95,155.606,74.106,260.164c1.298,2.29,3.382,4.044,5.849,4.942
	c14.854,5.36,29.994,8.148,44.976,8.284c-6.442,6.57-13.973,11.528-17.689,13.572c-2.932,1.577-4.983,4.389-5.577,7.651
	c-0.625,3.277,0.256,6.634,2.404,9.165c16.727,19.659,34.721,38.254,53.5,55.239c1.363,1.217,2.998,2.09,4.76,2.523
	c9.918,2.451,20.204,3.788,30.572,3.989l-3.765,3.373c-2.579,2.34-3.91,5.769-3.574,9.237c0.32,3.477,2.292,6.592,5.272,8.387
	c7.003,4.19,18.892,10.159,35.091,14.037c-1.362,4.871,0.768,10.102,5.222,12.594c9.342,5.2,31.581,5.6,38.134,5.6
	c1.283,0,2.709-0.016,4.199-0.049c-0.609,1.603-0.865,3.342-0.673,5.127c0.497,4.688,3.957,8.54,8.556,9.574
	c7.515,1.659,14.629,2.509,21.182,2.509c8.668,0,16.343-1.619,23.136-4.471c9.631,9.421,37.911,35.458,48.118,41.877
	c10.397,6.425,24.002,3.196,30.428-7.186C451.22,467.782,448.015,454.155,437.632,447.747z M210.828,352.802
	c-14.276-13.067-28.071-27.079-41.163-41.819c9.71-7.259,22.721-19.467,27.384-35.53c1.121-3.807,0.064-7.908-2.692-10.752
	c-2.788-2.837-6.906-3.998-10.703-2.973c-0.08,0.016-6.489,1.667-16.952,1.667c-11.552,0-23.249-1.907-34.851-5.672
	C89.358,180.396,71.269,75.998,65.131,31.503C89.47,45.868,134.079,73.459,179.63,107.98c3.157,28.137-4.886,46.835-4.967,46.988
	c-1.907,4.263-0.945,9.285,2.451,12.506c3.413,3.237,8.445,3.966,12.627,1.826c10.125-5.191,21.855-17.736,28.583-30.595
	c24.452,20.229,42.269,37.87,62.33,61.495c15.526,18.252,29.898,37.486,42.797,57.226c0.865,17.049-2.084,34.41-8.798,51.634
	c-1.826,4.638-0.287,9.91,3.718,12.859c4.021,2.965,9.485,2.868,13.379-0.24l17.289-13.74c-4.438,13.587-13.987,38.51-20.124,54.35
	c-8.22-7.789-16.471-15.815-24.58-24.035c-30.828-31.044-60.23-63.754-81.701-88.807c-21.471-25.067-35.138-42.356-35.138-42.356
	s45.81,75.371,100.256,145.655c7.017,9.19,14.245,18.234,21.471,27.054c-26.695,5.657-42.717,7.003-51.354,7.091
	c-0.4-0.153-0.914-0.297-1.331-0.458l16.537-14.868c3.7-3.326,4.694-8.748,2.419-13.187c-2.243-4.446-7.274-6.825-12.081-5.761
	C245.39,356.456,227.635,356.528,210.828,352.802z"/>
<g>
</g>
<g>
</g>
<g>
</g>
<g>
</g>
<g>
</g>
<g>
</g>
<g>
</g>
<g>
</g>
<g>
</g>
<g>
</g>
<g>
</g>
<g>
</g>
<g>
</g>
<g>
</g>
<g>
</g>
</svg>
