<svg xmlns="http://www.w3.org/2000/svg" width="50" height="50" viewBox="0 0 50 50"><path d="M47.372 14.186a.96.96 0 0 0-.582-.446l-11.934-3.196a.957.957 0 0 0-1.173.677l-.25.937c-1.737-.562-5.474-1.645-8.436-1.645-2.947.004-6.693 1.088-8.43 1.646l-.253-.938a.956.956 0 0 0-1.173-.677L3.21 13.74c-.245.065-.455.226-.582.445s-.16.48-.096.727L8.928 38.78a.953.953 0 0 0 1.172.677l11.935-3.196a.962.962 0 0 0 .58-.445.948.948 0 0 0 .113-.327c.714-.09 1.487-.15 2.272-.15.784 0 1.558.06 2.272.15.02.114.052.226.11.327.128.22.337.38.583.446L39.9 39.458a.955.955 0 0 0 1.173-.677l6.395-23.87a.96.96 0 0 0-.096-.724zM10.528 37.36L4.63 15.342l5.043-1.352.205.77-3.607.966a.72.72 0 0 0 .372 1.388l3.608-.967.268 1-3.608.965a.718.718 0 0 0 .372 1.387l3.607-.967.267.998-3.607.968a.718.718 0 0 0 .372 1.39l3.606-.968.908 3.387-3.607.966a.72.72 0 1 0 .37 1.387l3.606-.966 1.547 5.773-3.606.966a.72.72 0 0 0 .373 1.387l3.606-.966.268 1-3.606.967a.717.717 0 1 0 .37 1.388l3.607-.967.206.77-5.042 1.35zm11.787-3.75l-5.252-19.6a44.5 44.5 0 0 1 2.898-.823l2.677 20.38c-.11.014-.213.03-.322.043zm1.966-.173l-.212.01-2.7-20.578c.974-.2 1.975-.352 2.913-.41v20.977zM36.3 17.89a1.237 1.237 0 0 1 2.388.64 1.235 1.235 0 0 1-2.388-.64zm-1.705 6.364zm-8.66 9.193c-.072-.004-.143-.008-.214-.01v-20.98c.936.055 1.937.205 2.912.404l-2.698 20.587zm1.75.163c-.106-.014-.208-.03-.318-.042L30.04 13.18a44.21 44.21 0 0 1 2.896.83l-5.252 19.6zm6.08-1.478a1.236 1.236 0 1 1 1.51-.873 1.233 1.233 0 0 1-1.51.872zm3.84 3.162a1.236 1.236 0 1 1-.874-1.514c.662.176 1.052.855.876 1.514zm1.707-6.364a1.235 1.235 0 0 1-2.387-.64 1.235 1.235 0 0 1 2.387.64zm1.706-6.367zm1.705-6.365a1.235 1.235 0 1 1-2.385-.64 1.235 1.235 0 0 1 2.386.64z"/></svg>