<?xml version="1.0" encoding="UTF-8" standalone="yes"?>
<svg xmlns="http://www.w3.org/2000/svg" viewBox="0 0 50 50">
  <path d="M34.28 5.455c-3.477 0-6.648.67-9.28 1.865-2.63-1.194-5.803-1.865-9.28-1.865-7.783 0-13.22 6.48-13.22 15.755 0 5.62 2.005 11.28 5.5 15.526 2.932 3.563 8.262 7.81 17 7.81s14.068-4.246 17-7.81c3.495-4.245 5.5-9.907 5.5-15.526 0-9.277-5.437-15.755-13.22-15.755zM6.7 14.265a.94.94 0 0 1 1.247-.46c.47.218.674.77.46 1.24a.94.94 0 0 1-.854.552.92.92 0 0 1-.384-.084.937.937 0 0 1-.47-1.247zm-.44 8.56a.94.94 0 0 1-.938-.9.95.95 0 0 1 .91-.977.947.947 0 0 1 .964.91.93.93 0 0 1-.9.965H6.26zm1.893 7.153a.947.947 0 0 1-1.22-.524.94.94 0 0 1 .516-1.222.93.93 0 0 1 1.216.525v-.007a.94.94 0 0 1-.514 1.228zM36.24 9.353a.94.94 0 0 1 1.183-.61c.487.16.76.694.6 1.182a.932.932 0 0 1-1.182.6.934.934 0 0 1-.6-1.172zm-6.636-.6a.948.948 0 0 1 1.115.722.94.94 0 0 1-.715 1.115c-.065.008-.13.02-.206.02a.933.933 0 0 1-.91-.733.945.945 0 0 1 .713-1.125zm-.816 9.955a.95.95 0 0 1 .572 1.2.937.937 0 0 1-1.2.563.927.927 0 0 1-.563-1.2.94.94 0 0 1 1.19-.56zm-2.812-6.496a.933.933 0 0 1 1.32-.03.948.948 0 0 1 .03 1.334.952.952 0 0 1-.676.28.908.908 0 0 1-.647-.26.934.934 0 0 1-.027-1.324zM25.74 24.54a.93.93 0 0 1 1.293-.3c.44.272.572.854.3 1.285a.938.938 0 0 1-1.292.31.943.943 0 0 1-.3-1.295zm-.807-7.272c.014-.09.036-.186.067-.28.03.094.053.188.067.28.042.27.02.563-.067.874a2.046 2.046 0 0 1-.067-.874zm-.862 8.49a.904.904 0 0 1-.504.15c-.31 0-.61-.16-.787-.44a.932.932 0 0 1 .29-1.293.93.93 0 0 1 1.293.29.944.944 0 0 1-.29 1.293zm-1.47-13.48a.946.946 0 0 1 1.333.01.955.955 0 0 1-.01 1.33.944.944 0 0 1-.656.262.904.904 0 0 1-.666-.272.944.944 0 0 1 0-1.33zm-.16 7.097a.927.927 0 0 1-.543 1.21.854.854 0 0 1-.328.064.95.95 0 0 1-.88-.61.946.946 0 0 1 .542-1.21.935.935 0 0 1 1.21.544zm-3.28-9.93a.942.942 0 0 1 1.116-.72.946.946 0 0 1 .722 1.114.94.94 0 0 1-.918.74c-.067 0-.132 0-.198-.02a.94.94 0 0 1-.722-1.115zm-6.713-.654a.938.938 0 0 1 1.19.58.937.937 0 0 1-.59 1.193.824.824 0 0 1-.3.057.944.944 0 0 1-.88-.638.937.937 0 0 1 .58-1.19zM12.4 36.01a.94.94 0 0 1-.647.252.9.9 0 0 1-.674-.293.922.922 0 0 1 .025-1.32.948.948 0 0 1 1.332.026.95.95 0 0 1-.04 1.334zm6.29 3.813a.927.927 0 0 1-.872.583.935.935 0 0 1-.863-1.285.934.934 0 0 1 1.22-.516.93.93 0 0 1 .516 1.22zm6.375 1.913a.94.94 0 0 1-.937-.936.924.924 0 0 1 .927-.938.94.94 0 0 1 .947.937c0 .514-.42.935-.937.935zm7.585-1.444a.976.976 0 0 1-.356.066.936.936 0 0 1-.872-.58.935.935 0 0 1 .515-1.22.938.938 0 1 1 .713 1.733zm6.365-4.414a.95.95 0 0 1-.685.3.907.907 0 0 1-.637-.255.938.938 0 0 1-.047-1.33.933.933 0 0 1 1.322-.036.923.923 0 0 1 .047 1.322zM36.21 31.97c-1.907 2.318-5.4 5.077-11.21 5.077s-9.304-2.76-11.21-5.077C11.418 29.085 10 25.063 10 21.21c0-1.38.275-8.257 5.72-8.257 1 0 1.92.074 2.76.205a9.86 9.86 0 0 0-.955 2.938c-.193 1.225-.307 3.96 1.62 6.996a32.328 32.328 0 0 1-3.594 1.39 3.75 3.75 0 0 0-2.41 4.72 3.747 3.747 0 0 0 4.726 2.412c2.906-.94 5.25-2.01 7.135-3.133 1.887 1.125 4.23 2.193 7.136 3.135a3.75 3.75 0 0 0 2.314-7.133 32.405 32.405 0 0 1-3.594-1.388c1.926-3.035 1.812-5.77 1.62-6.996a9.86 9.86 0 0 0-.957-2.938c.84-.13 1.76-.205 2.76-.205 5.443 0 5.72 6.876 5.72 8.256 0 3.854-1.418 7.876-3.79 10.76zm-18.57-3.922a.946.946 0 0 1-.27.665.908.908 0 0 1-.657.27.92.92 0 0 1-.666-.27.942.942 0 0 1-.28-.665.96.96 0 0 1 .28-.667c.348-.344.976-.344 1.322 0a.95.95 0 0 1 .27.67zm14.72 0c0-.245.093-.49.27-.667.348-.344.975-.344 1.323 0a.96.96 0 0 1 .28.67.942.942 0 0 1-.28.664.916.916 0 0 1-.658.27.917.917 0 0 1-.665-.27.932.932 0 0 1-.27-.665zm9.636-14.354a.95.95 0 0 1 1.248.45.95.95 0 0 1-.45 1.255 1.03 1.03 0 0 1-.403.082.927.927 0 0 1-.842-.543.932.932 0 0 1 .45-1.247zm1.117 15.635a.92.92 0 0 1-.873.59.936.936 0 0 1-.87-1.275.926.926 0 0 1 1.218-.523.93.93 0 0 1 .525 1.206zm.627-6.628h-.028a.93.93 0 0 1-.91-.966c.02-.516.45-.92.967-.91a.94.94 0 0 1 .906.965.934.934 0 0 1-.937.91z"/>
</svg>