<?xml version="1.0" encoding="UTF-8" standalone="yes"?>
<svg xmlns="http://www.w3.org/2000/svg" viewBox="0 0 50 50">
  <path d="M38.946 40.548c-2.495-1.137-6.67-3.04-6.825-4.417-.116-1.047-.17-2.604-.227-4.255-.088-2.534-.18-5.154-.523-6.338-.418-1.435-1.374-2.856-1.87-3.533.3-.27.66-.72.82-1.378.21-.87-.073-1.905-.227-2.363.585-.968 2.323-3.876 2.5-4.604.4-1.653-1.888-6.146-1.91-6.19a8.66 8.66 0 0 0-.59-.97c.14-.34.22-.71.22-1.097a2.902 2.902 0 0 0-5.802 0c0 1.6 1.303 2.9 2.903 2.9.373 0 .727-.076 1.055-.205.187.127.416.284.46.343.47 1.028.9 4.144.927 4.64-.35.588-2.24 2.8-3.137 3.02a1.698 1.698 0 0 1-.02-.422c.64-.515 1.46-1.57.875-2.667-.125-.233-.406-.43-.666-.572 0-.328-.1-.72-.442-.987-.334-.26-.876-.272-1.204-.175-.426-.225-1.42-.436-2.147 0-1.306.78-1.248 1.987-1.198 2.338.047.334.134.623.197.802-.187.595-.263 1.55.415 2.116.412.347 1.003.39 1.418.246a.32.32 0 0 0 .035.073c-.08.077-.428.256-.684.387-.586.302-1.252.642-1.6 1.074-.453.56-2.3 4.923-1.377 6.16.15.2.4.303.743.303.363 0 .86-.112 1.293-.235-.073.207-.154.43-.237.64-.507 1.285-.58 2.19-.23 3.54-5.265.185-5.314 3.918-5.335 5.533-.08 6.124-4.83 7.126-7.38 7.663-1.11.233-1.78.374-1.78 1.004v4.096c0 .27.218.49.488.49h34.24c.27 0 .49-.22.49-.49v-4.096c-.002-.666-.882-1.1-3.664-2.368zM25.49 5.4c0-1.06.862-1.923 1.922-1.923s1.922.863 1.922 1.924c0 .1-.014.193-.028.288a.934.934 0 0 0-.348-.145c-.417 0-.81.396-1.063.73-.407.528-.395.81-.35.974.005.02.02.04.028.062-.054.005-.106.016-.16.016A1.926 1.926 0 0 1 25.488 5.4z"/>
</svg>