<?xml version="1.0" encoding="UTF-8" standalone="yes"?>
<svg xmlns="http://www.w3.org/2000/svg" viewBox="0 0 50 50">
  <path d="M47.432 31.773l-1.915-4.787a.958.958 0 0 0-.89-.602h-5.744V46.49c0 .34-.07.658-.176.958h7.836a.957.957 0 0 0 .957-.957V32.13a.96.96 0 0 0-.068-.357zM17.2 23.594a2.87 2.87 0 0 1 1.48-1.313c-.006-.013-.01-.028-.017-.04L11.596 9.014V6.84h.957a.957.957 0 0 0 0-1.913h-.957V3.51a.956.956 0 0 0-1.915 0v1.417h-.956a.957.957 0 0 0 0 1.914h.957v2.175L2.614 22.24a.955.955 0 0 0-.113.45v23.8c0 .53.428.958.957.958h9.426a2.86 2.86 0 0 1-.176-.957V32.723c0-.027.01-.053.01-.08H8.245a.478.478 0 0 1-.48-.48V24.23c0-.078.02-.156.058-.226l2.394-4.48c.166-.31.678-.31.844 0l2.395 4.48c.038.07.057.148.057.226v6.27l3.69-6.906zM29.787 9.015V6.84h.958a.957.957 0 0 0 0-1.913h-.958V3.51a.956.956 0 0 0-1.915 0v1.417h-.957a.957.957 0 0 0 0 1.914h.957v2.175L20.805 22.24c-.007.013-.01.027-.016.042a2.872 2.872 0 0 1 1.477 1.313l3.69 6.905v-6.27c0-.078.02-.156.057-.226l2.394-4.48c.166-.31.678-.31.844 0l2.394 4.48c.037.07.056.148.056.226v7.934c0 .265-.214.48-.48.48H26.75c0 .026.01.052.01.08V46.49c0 .338-.07.657-.176.957h9.426c.53 0 .957-.43.957-.958V22.69a.955.955 0 0 0-.113-.45L29.787 9.014z"/>
  <path d="M20.578 24.497c-.333-.624-1.355-.624-1.688 0l-4.154 7.773a.96.96 0 0 0-.113.452v13.77c0 .528.43.956.958.956h8.31c.53 0 .957-.428.957-.957V32.723a.96.96 0 0 0-.113-.452l-4.156-7.773z"/>
</svg>