<?xml version="1.0" encoding="UTF-8" standalone="yes"?>
<svg xmlns="http://www.w3.org/2000/svg" viewBox="0 0 50 50">
  <path d="M46.543 20.527h-1.437v-1.915c0-.53-.43-.958-.957-.958H30.743v-1.27c0-.53-.43-.958-.958-.958h-3.83V13.05a3.194 3.194 0 0 0 2.244-3.04c0-.198-.023-.39-.057-.577 1-.878 1.644-2.15 1.644-3.582a.958.958 0 0 0-1.915 0c0 .704-.263 1.34-.682 1.838-.574-.54-1.34-.878-2.19-.878s-1.616.337-2.19.878a2.845 2.845 0 0 1-.682-1.836.958.958 0 0 0-1.915 0c0 1.43.645 2.703 1.644 3.582-.034.188-.058.38-.058.577 0 1.43.946 2.63 2.242 3.04v2.378h-3.83a.957.957 0 0 0-.958.957v1.27H5.85a.958.958 0 0 0-.956.96v1.914H3.457a.956.956 0 0 0-.957.956v2.872c0 .53.428.958.957.958h1.437V44.15c0 .528.43.957.957.957h2.076c.53 0 .958-.43.958-.957V27.394h2.872V44.15c0 .528.428.957.957.957h2.555c.53 0 .957-.43.957-.957V27.394h2.873V44.15c0 .528.428.957.957.957h2.553c.53 0 .957-.43.957-.957V27.394h2.873V44.15c0 .528.428.957.957.957h2.553c.53 0 .957-.43.957-.957V27.394h2.873V44.15c0 .528.428.957.957.957h2.555c.528 0 .956-.43.956-.957V27.394h2.872V44.15c0 .528.43.957.958.957h2.074c.528 0 .957-.43.957-.957V25.314h1.437a.96.96 0 0 0 .957-.958v-2.872a.96.96 0 0 0-.956-.957zM6.81 19.57h36.38v.957H6.81v-.958zm38.775 3.83H4.415v-.96h41.17v.96z"/>
</svg>