<?xml version="1.0" encoding="UTF-8" standalone="yes"?>
<svg xmlns="http://www.w3.org/2000/svg" viewBox="0 0 50 50">
  <ellipse cx="42.959" cy="27.872" rx="1.437" ry="4.405"/>
  <path d="M12.308 8.447a19.81 19.81 0 0 0-3.31 1.67H8C4.39 10.117 2.5 17.6 2.5 25S4.39 39.884 8 39.884h.998a19.81 19.81 0 0 0 3.31 1.67C10.463 37.73 9.512 31.344 9.512 25s.952-12.73 2.798-16.553z"/>
  <path d="M17.788 7.098c-.9.112-1.792.265-2.68.476-1.808 2.08-3.68 8.334-3.68 17.426S13.3 40.347 15.11 42.427c.886.21 1.777.363 2.678.476C16.008 38.69 15.093 31.82 15.093 25s.915-13.69 2.695-17.902zm24.214 3.018c-.028 0-.056.01-.083.01a19.948 19.948 0 0 0-4.486-2.097c-1.953 1.3-4.212 7.51-4.212 16.97s2.26 15.67 4.212 16.97a19.836 19.836 0 0 0 4.484-2.097c.026 0 .054.01.082.01 3.61 0 5.498-7.486 5.498-14.884S45.608 10.114 42 10.114zm0 27.854c-1.462 0-3.584-5.053-3.584-12.97s2.122-12.97 3.584-12.97c1.46 0 3.584 5.053 3.584 12.97s-2.123 12.97-3.584 12.97z"/>
  <path d="M35.284 7.46c-2.7-.572-5.453-.653-8.36-.653h-2.94c-1.353 0-2.673.018-3.97.093-1.56 3.063-3.005 9.48-3.005 18.1 0 8.715 1.41 15.063 2.962 18.1 1.31.076 2.645.095 4.013.095h2.938c2.908 0 5.662-.08 8.36-.652-2.6-3.167-3.977-10.52-3.977-17.54s1.378-14.377 3.977-17.544z"/>
</svg>