<?xml version="1.0" encoding="utf-8"?>
<!-- Generator: Adobe Illustrator 16.0.0, SVG Export Plug-In . SVG Version: 6.00 Build 0)  -->
<!DOCTYPE svg PUBLIC "-//W3C//DTD SVG 1.1//EN" "http://www.w3.org/Graphics/SVG/1.1/DTD/svg11.dtd">
<svg version="1.1" id="Layer_1" xmlns="http://www.w3.org/2000/svg" xmlns:xlink="http://www.w3.org/1999/xlink" x="0px" y="0px"
	 width="126px" height="126px" viewBox="0 0 126 126" enable-background="new 0 0 126 126" xml:space="preserve">
<path d="M120.383,46.603c-0.207,0.011-0.402,0.056-0.594,0.115c-3.631-9.339-12.199-15.96-22.65-14.874
	c-8.871,0.922-14.82,7.255-17.371,15.099l0.008,0.021l-0.859,4.977l-2.066,1.186l0.004,0.01c-0.078,0.043-8.008,4.425-11.111,15.996
	l-0.844-0.227c2.742-10.219,8.971-14.908,10.938-16.169l-0.016-0.025l2.309-1.323l0.713-4.144
	c-0.404-3.738-1.039-7.453-1.896-11.107c-1.432-6.083-3.566-12.372-7.508-17.316c-3.555-4.459-8.805-6.629-14.398-4.932
	c-3.373,1.022-6.135,3.563-8.389,6.166c-1.191,1.375-2.232,2.875-3.236,4.391c-0.451,0.683-0.855,1.462-1.273,2.234
	c-0.393-0.23-0.842-0.38-1.33-0.396c-1.561-0.049-2.863,1.173-2.912,2.734c-0.049,1.559,1.174,2.861,2.734,2.91
	c1.559,0.049,2.861-1.174,2.91-2.733c0.016-0.498-0.109-0.962-0.322-1.376c2.08-1.735,4.697-3.035,7.162-1.669
	c1.551,0.857,2.578,2.456,3.303,4.218c1.883-2.102,4.695-4.484,7.785-4.484c0.242,0,0.436,0.195,0.436,0.436
	s-0.193,0.436-0.436,0.436c-2.916,0-5.666,2.5-7.438,4.556c0.463,1.342,0.785,2.719,1.037,3.899c0.16,0.756,0.287,1.519,0.4,2.285
	c1.877-2.027,4.576-4.204,7.529-4.204c0.24,0,0.436,0.195,0.436,0.436c0,0.241-0.195,0.436-0.436,0.436
	c-2.883,0-5.6,2.44-7.373,4.481c0.361,3.078,0.383,6.212,0.182,9.283c-0.219,3.333-0.691,7.065-2.324,10.058
	c-1.629-2.278-3.576-4.308-5.781-5.917c0.049,0.014,0.102,0.024,0.15,0.037c-1.959-10.435-9.736-19.448-21.016-19.381
	C16.332,32.786,8.537,40.304,5.951,49.983c-0.195-0.038-0.396-0.06-0.604-0.049c-1.357,0.075-2.396,1.235-2.322,2.591
	c0.074,1.357,1.236,2.396,2.592,2.322c1.357-0.075,2.396-1.235,2.322-2.592c-0.033-0.582-0.271-1.098-0.635-1.5
	c2.779-3.978,6.939-6.683,11.545-8.313c0,0.001,0.002,0.001,0.002,0.001c4.266-1.665,9.359-1.785,13.543-0.063
	c0.52,0.212,0.148,1.001-0.371,0.788c-3.91-1.609-8.648-1.478-12.664,0.022c1.984,2.916,3.836,5.951,4.566,9.395
	c-4.059,3.155-6.979,7.787-8.359,13.05c-0.041,0.001-0.08-0.007-0.123-0.005c-1.355,0.075-2.395,1.235-2.32,2.591
	c0.074,1.357,1.234,2.396,2.59,2.322c1.357-0.075,2.396-1.235,2.322-2.591c-0.041-0.752-0.422-1.399-0.98-1.819
	c2.584-3.626,6.336-6.161,10.506-7.795c0.217-0.089,0.434-0.173,0.654-0.254c0.096-0.035,0.189-0.077,0.285-0.111
	c0.002,0.002,0.004,0.003,0.004,0.005c4.117-1.437,8.902-1.478,12.875,0.145c0.52,0.213,0.15,1.002-0.371,0.791
	c-3.699-1.511-8.137-1.47-11.998-0.186c2.039,3.037,4.463,7.174,5.43,10.924c-6.229,1.355-12.395,4.83-16.084,8.519
	c-2.508,2.508-3.93,3.195-3.291,5.953c0.762,3.281,1.775,6.524,3.229,9.55c1.289,2.687,2.703,5.33,4.279,7.896
	c2.553,4.154,5.313,7.905,10.135,9.635c2.924,1.051,5.908,1.635,9.004,1.45c1.725-0.104,3.287-0.842,4.826-1.606
	c1.529-0.758,3.094-1.458,4.469-2.483c1.365-1.02,2.816-1.968,4-3.174c0,0,4.904-4.772,8.197-5.506
	c3.293,0.733,8.195,5.506,8.195,5.506c1.186,1.207,2.637,2.155,4.002,3.174c1.375,1.025,2.939,1.725,4.469,2.483
	c1.537,0.764,3.1,1.502,4.826,1.606c3.096,0.186,6.078-0.399,9.004-1.45c4.82-1.73,7.582-5.48,10.133-9.635
	c1.578-2.566,2.992-5.209,4.281-7.896c1.453-3.025,2.467-6.269,3.227-9.55c0.641-2.758-0.426-4.188-3.289-6.825
	c-6.588-5.105-7.629-7.189-13.82-7.909c-0.039-4.152,1.689-7.885,3.602-11.481c-4.031-0.81-8.506-0.093-12.053,1.826
	c-0.494,0.268-0.801-0.55-0.314-0.813c4.291-2.321,9.861-2.896,14.52-1.333c4.02,1.202,7.717,3.258,10.506,6.368
	c-0.25,0.409-0.383,0.896-0.355,1.411c0.074,1.356,1.234,2.396,2.592,2.321c1.355-0.074,2.396-1.234,2.32-2.591
	c-0.074-1.357-1.232-2.396-2.59-2.321c-0.24,0.013-0.465,0.071-0.68,0.146c-1.973-4.902-5.311-9.032-9.57-11.653
	c0.348-3.498,1.854-6.712,3.502-9.822c-4.049-0.764-8.523,0.01-12.051,1.981c-0.492,0.273-0.807-0.541-0.324-0.81
	c3.752-2.094,8.518-2.844,12.797-1.967c0.004-0.006,0.008-0.012,0.012-0.018c0.135,0.031,0.266,0.073,0.398,0.106
	c0.408,0.094,0.813,0.198,1.209,0.323c4.139,1.219,7.943,3.336,10.775,6.571c-0.314,0.439-0.496,0.979-0.465,1.561
	c0.074,1.357,1.234,2.396,2.592,2.321c1.357-0.074,2.396-1.234,2.322-2.59C122.898,47.568,121.74,46.529,120.383,46.603z
	 M52.385,69.063h-4.889c1.834-2.965,0.711-6.394-1.141-9.148C49.848,61.531,51.77,65.298,52.385,69.063z M28.256,79.077
	c0.078-0.477,0.248-0.868,0.428-1.217c0.176-0.35,0.432-0.674,0.66-0.92c0.234-0.252,0.469-0.475,0.719-0.65
	c0.49-0.359,0.982-0.589,1.424-0.68c0.439-0.095,0.801-0.061,1.021,0.019c0.221,0.074,0.318,0.141,0.318,0.141l-0.033,0.13
	c0,0-0.115,0.009-0.301,0.056c-0.186,0.043-0.434,0.164-0.693,0.37c-0.262,0.207-0.541,0.512-0.805,0.901
	c-0.268,0.386-0.514,0.854-0.643,1.333c-0.141,0.52-0.158,1.005,0.012,1.337c0.168,0.333,0.533,0.726,1.125,1.096
	c0.135,0.098,0.295,0.194,0.445,0.284c0.076,0.043,0.154,0.085,0.23,0.134l0.275,0.149c0.326,0.163,0.701,0.345,1.066,0.509
	c0.756,0.312,1.566,0.558,2.408,0.701c0.838,0.142,1.695,0.238,2.545,0.298c0.857,0.059,1.697,0.118,2.512,0.174
	c0.82,0.065,1.613,0.129,2.363,0.249c0.342,0.053,0.67,0.114,0.992,0.179c-0.621-0.254-1.258-0.491-1.893-0.749
	c-0.781-0.282-1.572-0.561-2.377-0.826c-0.801-0.275-1.59-0.61-2.318-1.049c-0.721-0.456-1.359-1.056-1.85-1.744
	c-0.5-0.692-0.795-1.489-0.936-2.227c-0.098-0.75-0.057-1.429,0.098-1.982c0.088-0.274,0.143-0.533,0.244-0.751
	c0.105-0.213,0.203-0.41,0.291-0.587c0.184-0.344,0.389-0.579,0.51-0.744c0.127-0.162,0.201-0.244,0.201-0.244l0.125,0.051
	c0,0,0.002,0.109,0.008,0.315c0.01,0.203-0.018,0.488-0.002,0.844c0.021,0.356,0.023,0.771,0.104,1.215
	c0.061,0.447,0.207,0.904,0.381,1.356c0.227,0.438,0.48,0.875,0.857,1.302c0.395,0.415,0.842,0.847,1.361,1.309
	c0.523,0.46,1.09,0.967,1.721,1.449c0.627,0.492,1.314,0.934,2.031,1.329c0.727,0.375,1.455,0.762,2.189,1.104
	c0.732,0.354,1.457,0.701,2.146,1.058c0.686,0.373,1.35,0.735,1.943,1.143c0.051,0.033,0.096,0.07,0.145,0.103
	c-0.291-0.312-0.59-0.625-0.879-0.972c-0.344-0.386-0.668-0.813-0.994-1.237c-0.305-0.45-0.625-0.89-0.863-1.395
	c-0.133-0.242-0.26-0.487-0.34-0.757c-0.086-0.266-0.201-0.519-0.24-0.795c-0.033-0.274-0.072-0.547-0.096-0.813
	c0-0.266,0.037-0.53,0.068-0.784c0.018-0.126,0.035-0.25,0.051-0.373c0.041-0.116,0.08-0.23,0.117-0.342
	c0.08-0.223,0.164-0.435,0.246-0.635c0.205-0.378,0.443-0.689,0.645-0.96c0.092-0.143,0.209-0.25,0.322-0.345
	c0.109-0.098,0.209-0.188,0.305-0.262c0.369-0.31,0.604-0.448,0.604-0.448l0.104,0.088c0,0-0.072,0.278-0.238,0.699
	c-0.072,0.216-0.215,0.446-0.291,0.74c-0.074,0.293-0.213,0.595-0.297,0.934c-0.029,0.171-0.063,0.346-0.104,0.524
	c-0.023,0.089-0.045,0.178-0.068,0.269c-0.002,0.093-0.006,0.187-0.008,0.282c0.002,0.189-0.039,0.381-0.031,0.579
	c0.027,0.198,0.041,0.4,0.057,0.607c0.002,0.209,0.094,0.416,0.129,0.633c0.033,0.219,0.113,0.434,0.203,0.652
	c0.145,0.444,0.398,0.869,0.627,1.304c0.271,0.42,0.537,0.845,0.84,1.248c0.299,0.406,0.596,0.806,0.881,1.194
	c0.584,0.776,1.133,1.504,1.563,2.166c0.223,0.322,0.416,0.63,0.57,0.915c0.002,0.002,0.004,0.003,0.004,0.005
	c0.191,0.276,0.361,0.539,0.473,0.779c0.184,0.324,0.264,0.593,0.332,0.774c0.068,0.181,0.104,0.277,0.104,0.277l-0.127,0.052
	c0,0-0.041-0.093-0.123-0.268c-0.023-0.048-0.057-0.12-0.086-0.183l-0.012,0.006c0,0-0.141-0.218-0.387-0.6
	c-0.115-0.198-0.285-0.412-0.473-0.657c-0.115-0.16-0.252-0.33-0.398-0.505c-0.295-0.298-0.625-0.603-1.021-0.898
	c-0.484-0.361-1.031-0.724-1.643-1.056c-0.607-0.339-1.262-0.675-1.953-0.997c-0.029-0.014-0.061-0.028-0.09-0.042
	c-0.184-0.055-0.365-0.109-0.563-0.168c-0.287-0.063-0.588-0.128-0.902-0.197c-0.633-0.11-1.326-0.204-2.063-0.259
	c-0.736-0.052-1.516-0.1-2.328-0.121c-0.814-0.018-1.658-0.035-2.516-0.053c-0.859-0.033-1.742-0.026-2.631-0.105
	c-0.889-0.037-1.789-0.134-2.695-0.243c-0.455-0.08-0.891-0.159-1.355-0.277l-0.305-0.084l-0.34-0.12
	c-0.223-0.088-0.436-0.168-0.652-0.278c-0.828-0.407-1.719-1.131-2.072-2.217C28.176,80.098,28.18,79.542,28.256,79.077z
	 M52.119,95.228c0,0-6.822,3.604-13.008,1.501c-6.188-2.104-9.396-9.122-9.396-9.122s6.822-3.605,13.01-1.502
	C48.91,88.209,52.119,95.228,52.119,95.228z M57.035,94.202c-0.045,0.492-0.244,1.039-0.563,1.592
	c-0.361,0.532-0.898,0.996-1.514,1.349c-0.615,0.363-1.297,0.607-1.969,0.88c-0.676,0.269-1.359,0.535-1.994,0.881
	c-0.324,0.157-0.635,0.368-0.918,0.548c-0.314,0.222-0.65,0.448-0.895,0.671c-0.527,0.451-1.027,0.979-1.291,1.527
	c-0.266,0.552-0.332,1.06-0.195,1.496c0.223,0.902,1.258,1.671,2.127,1.837c0.436,0.085,0.834,0.064,1.125-0.101
	c0.293-0.155,0.527-0.423,0.648-0.702c0.131-0.272,0.207-0.524,0.244-0.699c0.043-0.177,0.066-0.271,0.066-0.271l0.174-0.01
	c0,0,0.023,0.1,0.064,0.285c0.049,0.188,0.086,0.474,0.055,0.858c-0.02,0.379-0.182,0.891-0.617,1.337
	c-0.438,0.451-1.15,0.7-1.867,0.693c-0.727,0.009-1.475-0.216-2.17-0.651c-0.686-0.428-1.352-1.137-1.604-2.111
	c-0.264-0.926,0.002-1.932,0.467-2.669c-0.047-0.017-0.084-0.035-0.137-0.051c-0.328-0.125-0.75-0.23-1.234-0.316
	c-0.482-0.09-1.039-0.141-1.646-0.159c-1.217-0.049-2.637,0.084-4.182,0.12c-0.42,0.011-0.852,0.01-1.289-0.003
	c-0.314,0.079-0.686,0.191-1.102,0.339c-1.242,0.435-2.84,1.18-4.598,1.644c-0.875,0.219-1.832,0.378-2.756,0.15
	c-0.463-0.095-0.879-0.346-1.215-0.622c-0.352-0.271-0.566-0.628-0.752-0.939c-0.162-0.328-0.27-0.636-0.332-0.915
	c-0.064-0.277-0.092-0.522-0.109-0.721c-0.014-0.403-0.002-0.629-0.002-0.629l0.086-0.016c0,0,0.107,0.205,0.258,0.556
	c0.086,0.168,0.191,0.371,0.311,0.605c0.123,0.228,0.271,0.468,0.447,0.711c0.359,0.478,0.854,0.91,1.543,1.101
	c0.684,0.202,1.535,0.184,2.375,0.038c1.689-0.307,3.355-0.957,4.654-1.254c0.15-0.038,0.293-0.071,0.432-0.101
	c-0.117-0.01-0.234-0.01-0.352-0.024c-0.412-0.043-0.822-0.115-1.238-0.217c-0.393-0.087-0.795-0.22-1.203-0.364
	c-0.791-0.298-1.555-0.643-2.27-1.062c-0.723-0.401-1.393-0.874-2.008-1.374c-0.303-0.255-0.586-0.529-0.865-0.792
	c-0.258-0.289-0.518-0.564-0.73-0.866c-0.43-0.602-0.811-1.211-0.998-1.851c-0.105-0.314-0.199-0.616-0.211-0.925
	c-0.035-0.302-0.074-0.585-0.02-0.857c0.02-0.544,0.201-0.978,0.334-1.328c0.148-0.344,0.352-0.57,0.447-0.74
	c0.111-0.158,0.172-0.243,0.172-0.243l0.076,0.044c0,0-0.029,0.101-0.082,0.287c-0.047,0.186-0.174,0.436-0.221,0.779
	c-0.043,0.344-0.125,0.744-0.068,1.208c-0.008,0.229,0.049,0.47,0.109,0.719c0.041,0.252,0.139,0.506,0.25,0.768
	c0.205,0.524,0.527,1.063,0.93,1.59c0.195,0.269,0.453,0.504,0.672,0.778c0.254,0.247,0.508,0.506,0.785,0.75
	c0.568,0.474,1.168,0.961,1.842,1.366c0.656,0.426,1.375,0.789,2.102,1.099c0.359,0.144,0.727,0.284,1.129,0.391
	c0.369,0.108,0.76,0.192,1.145,0.248c0.775,0.125,1.559,0.16,2.32,0.17c1.521,0.019,2.965-0.035,4.201,0.081
	c0.617,0.052,1.182,0.134,1.672,0.253c0.492,0.114,0.912,0.243,1.246,0.391c0.061,0.023,0.102,0.045,0.156,0.068
	c0-0.001,0.002-0.004,0.004-0.006c0.518-0.769,1.164-1.326,1.863-1.814c0.359-0.264,0.688-0.442,1.021-0.64
	c0.385-0.204,0.732-0.395,1.109-0.543c0.736-0.322,1.479-0.541,2.176-0.752c0.697-0.209,1.357-0.403,1.926-0.657
	c0.57-0.252,1.039-0.581,1.385-0.981c0.303-0.425,0.539-0.874,0.627-1.32c0.137-0.435,0.139-0.836,0.193-1.164
	c0.021-0.676,0.021-1.065,0.021-1.065l0.172-0.008c0,0,0.051,0.385,0.115,1.063C57.088,93.283,57.133,93.715,57.035,94.202z
	 M81.9,59.915c-1.852,2.754-2.973,6.184-1.139,9.148h-4.889C76.488,65.298,78.408,61.531,81.9,59.915z M97.521,95.202
	c0.402-0.526,0.727-1.066,0.932-1.59c0.109-0.261,0.209-0.515,0.248-0.768c0.063-0.25,0.117-0.489,0.111-0.719
	c0.057-0.463-0.025-0.863-0.07-1.208c-0.047-0.343-0.174-0.593-0.221-0.778c-0.053-0.187-0.08-0.287-0.08-0.287l0.074-0.044
	c0,0,0.061,0.084,0.174,0.243c0.096,0.169,0.297,0.396,0.445,0.739c0.133,0.351,0.316,0.785,0.336,1.328
	c0.053,0.271,0.014,0.555-0.021,0.857c-0.01,0.309-0.104,0.611-0.211,0.925c-0.186,0.64-0.568,1.249-0.996,1.851
	c-0.215,0.302-0.475,0.577-0.732,0.867c-0.279,0.263-0.563,0.537-0.865,0.792c-0.615,0.5-1.285,0.974-2.008,1.375
	c-0.713,0.418-1.477,0.764-2.268,1.062c-0.408,0.145-0.813,0.276-1.205,0.364c-0.414,0.102-0.826,0.174-1.236,0.217
	c-0.119,0.015-0.234,0.015-0.354,0.025c0.139,0.03,0.281,0.063,0.432,0.1c1.299,0.298,2.965,0.948,4.654,1.254
	c0.842,0.146,1.691,0.164,2.377-0.038c0.688-0.191,1.182-0.623,1.543-1.101c0.176-0.242,0.324-0.483,0.445-0.71
	c0.119-0.234,0.225-0.438,0.311-0.605c0.152-0.351,0.258-0.556,0.258-0.556l0.086,0.015c0,0,0.014,0.226,0,0.629
	c-0.018,0.199-0.045,0.443-0.111,0.721c-0.061,0.278-0.17,0.586-0.332,0.915c-0.184,0.312-0.398,0.668-0.752,0.939
	c-0.334,0.275-0.752,0.527-1.215,0.621c-0.924,0.228-1.879,0.069-2.756-0.15c-1.758-0.464-3.355-1.208-4.596-1.643
	c-0.418-0.149-0.789-0.26-1.104-0.339c-0.438,0.014-0.867,0.014-1.289,0.003c-1.543-0.036-2.965-0.169-4.182-0.12
	c-0.607,0.018-1.162,0.069-1.646,0.159c-0.484,0.086-0.906,0.19-1.234,0.315c-0.314,0.099-0.551,0.214-0.723,0.298
	c0.381,0.711,0.576,1.614,0.338,2.451c-0.252,0.974-0.918,1.683-1.604,2.111c-0.695,0.435-1.443,0.66-2.172,0.651
	c-0.715,0.007-1.428-0.243-1.865-0.693c-0.436-0.446-0.598-0.958-0.617-1.337c-0.031-0.384,0.006-0.67,0.055-0.858
	c0.041-0.186,0.064-0.285,0.064-0.285l0.174,0.01c0,0,0.023,0.094,0.066,0.271c0.037,0.174,0.113,0.426,0.244,0.699
	c0.121,0.279,0.355,0.547,0.648,0.702c0.291,0.165,0.689,0.186,1.125,0.101c0.869-0.166,1.904-0.935,2.127-1.837
	c0.137-0.436,0.07-0.944-0.195-1.496c-0.264-0.548-0.764-1.076-1.291-1.527c-0.244-0.224-0.58-0.449-0.895-0.671
	c-0.283-0.18-0.594-0.391-0.918-0.548c-0.635-0.346-1.318-0.612-1.994-0.881c-0.672-0.272-1.354-0.517-1.969-0.88
	c-0.615-0.353-1.152-0.817-1.514-1.349c-0.318-0.553-0.518-1.101-0.563-1.592c-0.098-0.487-0.055-0.919-0.063-1.266
	c0.064-0.679,0.115-1.063,0.115-1.063l0.172,0.008c0,0,0,0.39,0.021,1.065c0.055,0.328,0.057,0.729,0.193,1.164
	c0.088,0.446,0.324,0.895,0.627,1.32c0.346,0.4,0.814,0.729,1.385,0.981c0.568,0.253,1.229,0.448,1.926,0.657
	c0.697,0.212,1.438,0.43,2.176,0.752c0.377,0.148,0.725,0.339,1.109,0.543c0.334,0.198,0.662,0.376,1.021,0.64
	c0.697,0.488,1.346,1.045,1.863,1.814c0.055,0.08,0.105,0.165,0.156,0.252c0.168-0.092,0.396-0.221,0.719-0.342
	c0.334-0.148,0.754-0.276,1.246-0.39c0.49-0.119,1.055-0.201,1.672-0.253c1.236-0.116,2.68-0.062,4.203-0.081
	c0.762-0.01,1.545-0.046,2.318-0.17c0.387-0.055,0.775-0.14,1.146-0.248c0.4-0.106,0.77-0.247,1.127-0.391
	c0.727-0.31,1.445-0.672,2.104-1.099c0.672-0.405,1.273-0.892,1.84-1.366c0.277-0.244,0.531-0.503,0.785-0.75
	C97.068,95.706,97.328,95.471,97.521,95.202z M87.295,96.729c-6.188,2.104-13.01-1.501-13.01-1.501s3.209-7.019,9.396-9.123
	c6.186-2.104,13.008,1.502,13.008,1.502S93.482,94.625,87.295,96.729z M85.691,79.158c0.52-0.461,0.969-0.894,1.361-1.309
	c0.379-0.427,0.633-0.864,0.859-1.302c0.172-0.453,0.318-0.91,0.379-1.356c0.082-0.444,0.082-0.859,0.104-1.215
	c0.018-0.355-0.012-0.641,0-0.844c0.004-0.206,0.008-0.315,0.008-0.315l0.125-0.051c0,0,0.074,0.082,0.201,0.244
	c0.121,0.165,0.324,0.4,0.51,0.744c0.088,0.177,0.186,0.374,0.291,0.587c0.1,0.219,0.154,0.478,0.242,0.751
	c0.154,0.553,0.195,1.231,0.1,1.982c-0.141,0.738-0.438,1.535-0.936,2.227c-0.49,0.688-1.129,1.288-1.85,1.744
	c-0.729,0.439-1.52,0.774-2.318,1.049c-0.805,0.265-1.596,0.544-2.377,0.826c-0.635,0.258-1.271,0.494-1.893,0.749
	c0.32-0.065,0.648-0.126,0.992-0.179c0.748-0.119,1.543-0.183,2.361-0.249c0.816-0.056,1.656-0.115,2.512-0.174
	c0.85-0.06,1.709-0.156,2.547-0.298c0.842-0.144,1.652-0.39,2.406-0.701c0.365-0.164,0.74-0.346,1.066-0.509l0.277-0.149
	c0.076-0.049,0.154-0.091,0.229-0.134c0.15-0.09,0.313-0.187,0.447-0.284c0.592-0.37,0.955-0.764,1.123-1.096
	c0.172-0.332,0.152-0.817,0.014-1.337c-0.131-0.478-0.377-0.946-0.645-1.333c-0.262-0.389-0.543-0.694-0.803-0.901
	c-0.262-0.206-0.51-0.327-0.695-0.37c-0.184-0.047-0.299-0.056-0.299-0.056l-0.033-0.13c0,0,0.096-0.067,0.318-0.141
	c0.221-0.079,0.582-0.113,1.02-0.019c0.441,0.09,0.936,0.321,1.424,0.68c0.252,0.175,0.484,0.398,0.719,0.65
	c0.23,0.247,0.484,0.571,0.662,0.92c0.18,0.349,0.348,0.741,0.426,1.217c0.076,0.465,0.082,1.021-0.107,1.548
	c-0.355,1.086-1.246,1.81-2.074,2.217c-0.217,0.11-0.428,0.19-0.652,0.278l-0.338,0.12l-0.307,0.084
	c-0.463,0.118-0.9,0.197-1.354,0.277c-0.908,0.109-1.807,0.206-2.697,0.243c-0.889,0.079-1.77,0.072-2.631,0.105
	c-0.855,0.018-1.699,0.035-2.516,0.053c-0.811,0.021-1.592,0.069-2.328,0.121c-0.736,0.055-1.428,0.148-2.061,0.259
	c-0.314,0.068-0.617,0.134-0.902,0.197c-0.199,0.06-0.379,0.113-0.563,0.168c-0.029,0.014-0.063,0.027-0.092,0.042
	c-0.689,0.322-1.344,0.658-1.951,0.997c-0.611,0.332-1.158,0.695-1.643,1.056c-0.396,0.296-0.727,0.601-1.021,0.898
	c-0.146,0.175-0.283,0.346-0.4,0.505c-0.188,0.245-0.357,0.459-0.473,0.657c-0.244,0.381-0.387,0.6-0.387,0.6l-0.012-0.006
	c-0.029,0.063-0.063,0.134-0.086,0.183c-0.08,0.175-0.123,0.268-0.123,0.268l-0.125-0.052c0,0,0.035-0.096,0.102-0.277
	c0.07-0.181,0.148-0.45,0.334-0.774c0.111-0.24,0.279-0.503,0.473-0.779c0-0.002,0-0.003,0.002-0.005
	c0.156-0.285,0.348-0.593,0.57-0.915c0.43-0.661,0.98-1.39,1.564-2.166c0.285-0.388,0.58-0.788,0.881-1.194
	c0.303-0.402,0.566-0.827,0.838-1.248c0.23-0.436,0.484-0.86,0.629-1.304c0.088-0.218,0.17-0.433,0.203-0.652
	c0.033-0.218,0.125-0.424,0.127-0.633c0.018-0.208,0.031-0.409,0.059-0.607c0.008-0.197-0.033-0.39-0.031-0.579
	c-0.004-0.095-0.006-0.189-0.01-0.282c-0.023-0.091-0.045-0.18-0.066-0.269c-0.041-0.178-0.074-0.353-0.104-0.524
	c-0.086-0.339-0.225-0.64-0.297-0.934c-0.078-0.294-0.219-0.524-0.291-0.74c-0.166-0.42-0.238-0.699-0.238-0.699l0.102-0.088
	c0,0,0.236,0.138,0.605,0.448c0.096,0.074,0.195,0.164,0.303,0.262c0.113,0.094,0.23,0.202,0.324,0.345
	c0.201,0.271,0.439,0.582,0.645,0.96c0.08,0.2,0.164,0.412,0.244,0.635c0.039,0.112,0.078,0.227,0.117,0.342
	c0.018,0.123,0.035,0.247,0.053,0.373c0.029,0.254,0.068,0.518,0.068,0.784c-0.023,0.267-0.063,0.539-0.098,0.813
	c-0.039,0.276-0.154,0.529-0.238,0.795c-0.082,0.271-0.207,0.515-0.342,0.757c-0.236,0.505-0.559,0.945-0.863,1.395
	c-0.326,0.424-0.648,0.852-0.994,1.237c-0.287,0.346-0.588,0.66-0.879,0.972c0.051-0.033,0.094-0.07,0.146-0.103
	c0.594-0.408,1.256-0.77,1.941-1.143c0.691-0.357,1.416-0.704,2.146-1.058c0.734-0.343,1.463-0.729,2.189-1.104
	c0.717-0.396,1.406-0.837,2.031-1.329C84.602,80.125,85.168,79.619,85.691,79.158z"/>
</svg>
