<?xml version="1.0" encoding="utf-8"?>
<!-- Generator: Adobe Illustrator 16.0.0, SVG Export Plug-In . SVG Version: 6.00 Build 0)  -->
<!DOCTYPE svg PUBLIC "-//W3C//DTD SVG 1.1//EN" "http://www.w3.org/Graphics/SVG/1.1/DTD/svg11.dtd">
<svg version="1.1" id="Layer_1" xmlns="http://www.w3.org/2000/svg" xmlns:xlink="http://www.w3.org/1999/xlink" x="0px" y="0px"
	 width="126px" height="126px" viewBox="0 0 126 126" enable-background="new 0 0 126 126" xml:space="preserve">
<path fill-rule="evenodd" clip-rule="evenodd" d="M89.542,39.558c-5.226,0.176-10.284,1.439-15.344,2.643
	c-2.794,0.664-5.588,1.34-8.367,2.069c-0.848,0.223-1.682,0.32-2.507,0.352h-0.648c-0.825-0.031-1.659-0.129-2.507-0.352
	c-2.779-0.729-5.573-1.405-8.367-2.069c-5.06-1.203-10.118-2.467-15.344-2.643C27.337,39.253,18.2,49.954,4.7,46.967
	c2.732,6.374,2.732,6.374,2.732,6.374s8.893,23.238,20.244,31.078c10.039,7.09,25.594-6.672,25.594-6.672s5.625-5.477,9.405-6.319
	h0.648c3.78,0.843,9.405,6.319,9.405,6.319s15.555,13.762,25.594,6.672c11.352-7.84,20.244-31.078,20.244-31.078s0,0,2.732-6.374
	C107.8,49.954,98.663,39.253,89.542,39.558z M35.028,67.808c-7.101-2.414-10.782-10.469-10.782-10.469s7.83-4.137,14.929-1.723
	c7.1,2.414,10.783,10.469,10.783,10.469S42.128,70.222,35.028,67.808z M90.972,67.808c-7.1,2.414-14.93-1.723-14.93-1.723
	s3.684-8.055,10.783-10.469c7.099-2.414,14.929,1.723,14.929,1.723S98.072,65.394,90.972,67.808z"/>
</svg>
