<?xml version="1.0" encoding="utf-8"?>
<!-- Generator: Adobe Illustrator 16.0.0, SVG Export Plug-In . SVG Version: 6.00 Build 0)  -->
<!DOCTYPE svg PUBLIC "-//W3C//DTD SVG 1.1//EN" "http://www.w3.org/Graphics/SVG/1.1/DTD/svg11.dtd">
<svg version="1.1" id="Layer_1" xmlns="http://www.w3.org/2000/svg" xmlns:xlink="http://www.w3.org/1999/xlink" x="0px" y="0px"
	 width="126px" height="126px" viewBox="0 0 126 126" enable-background="new 0 0 126 126" xml:space="preserve">
<path d="M94.982,75.064l1.252,0.54l-0.662,1.193c-1.039,1.877-3.971,6.417-8.693,8.022c-1.256,0.427-2.637,0.644-4.102,0.644
	c-3.27,0-6.215-1.066-7.68-1.702l-1.25-0.542l0.662-1.19c1.043-1.878,3.98-6.418,8.693-8.021c1.256-0.427,2.637-0.645,4.102-0.645
	C90.549,73.363,93.508,74.429,94.982,75.064z M44.258,74.007c-1.256-0.427-2.637-0.644-4.1-0.644c-3.242,0-6.201,1.066-7.678,1.701
	l-1.254,0.54l0.664,1.193c1.043,1.878,3.979,6.418,8.691,8.021l0,0c1.258,0.427,2.637,0.644,4.102,0.644
	c3.27,0,6.217-1.066,7.682-1.702l1.248-0.542l-0.66-1.19C51.908,80.151,48.973,75.611,44.258,74.007z M58.402,44.37
	c-0.057-0.7-0.25-1.119-0.365-1.264c-0.166,0.07-0.672,0.367-1.471,1.565c-1.051,1.577-1.445,2.855-1.113,3.598
	c0.252,0.563,0.945,0.822,1.293,0.919c0.322-0.096,0.623-0.208,0.906-0.335c-0.447-0.483-0.439-1.237,0.029-1.709
	C58.195,46.625,58.492,45.484,58.402,44.37z M106.318,50.356c-0.014-1.549-0.564-2.732-1.682-3.617
	c-1.625-1.229-3.094-1.014-4.035-0.613c-1.605,0.681-2.834,2.382-3.059,4.233c-0.209,1.671,0.295,3.104,1.35,3.84
	c0.658,0.46,1.434,0.557,2.025,0.251c0.775-0.399,1.227-1.469,1.24-2.934c0.006-0.678,0.557-1.224,1.234-1.224
	c0.002,0,0.006,0,0.01,0c0.682,0.006,1.229,0.563,1.225,1.245c-0.029,3.302-1.627,4.616-2.576,5.106
	c-1.406,0.727-3.158,0.566-4.572-0.421c-0.799-0.558-1.408-1.326-1.824-2.222c-0.563,1.981-1.295,3.731-2.055,4.932
	c-0.416,0.666-0.947,1.353-1.563,2.041c0.959,0.405,1.928,0.848,2.912,1.305c0.969,0.448,1.943,0.899,2.936,1.324
	c0.705-0.403,1.338-0.826,1.859-1.259C102.459,60.109,106.357,54.559,106.318,50.356z M69.338,49.188
	c0.35-0.097,1.047-0.358,1.297-0.928c0.326-0.744-0.07-2.019-1.117-3.589c-0.799-1.198-1.305-1.495-1.471-1.565
	c-0.115,0.146-0.309,0.564-0.365,1.264c-0.09,1.115,0.207,2.256,0.721,2.774c0.469,0.472,0.477,1.226,0.029,1.709
	C68.715,48.979,69.016,49.092,69.338,49.188z M78.336,52.904c2.117-7.416,0.961-16.949-4.596-19.419
	c-2.354-1.132-4.49-1.009-6.217,0.341c-2.014,1.574-3.25,4.636-3.246,7.678c0,0.011,0,0.022-0.002,0.033
	c0.004,0.703,0.074,1.403,0.215,2.085c0.131,0.626,0.367,1.429,0.795,2.239c-0.166-1.116-0.076-2.266,0.229-3.153
	c0.559-1.628,1.609-1.998,2.188-2.073c1.303-0.164,2.563,0.705,3.869,2.665c1.584,2.376,2.025,4.387,1.313,5.978
	c-0.895,1.996-3.152,2.368-3.406,2.403c-0.162,0.023-0.326,0.013-0.482-0.027c-2.66-0.69-4.729-2.376-5.953-4.766
	c-1.223,2.389-3.289,4.075-5.951,4.766c-0.156,0.04-0.32,0.049-0.482,0.027c-0.254-0.036-2.512-0.407-3.406-2.403
	c-0.713-1.591-0.271-3.602,1.313-5.978c1.307-1.96,2.57-2.829,3.869-2.665c0.578,0.075,1.629,0.444,2.188,2.073
	c0.305,0.887,0.395,2.037,0.229,3.153c0.428-0.81,0.664-1.613,0.795-2.239c0.141-0.682,0.211-1.382,0.213-2.085
	c0-0.011,0-0.021,0-0.033c0.004-3.042-1.232-6.104-3.246-7.678c-1.727-1.35-3.865-1.473-6.182-0.357
	c-5.592,2.486-6.748,12.02-4.629,19.435c0.479,1.677,1.865,5.682,4.734,8.209c0.371,0.087,0.74,0.175,1.107,0.262l0.633,0.151
	c2.189,0.521,4.543,1.088,6.902,1.708c0.572,0.15,1.189,0.236,1.887,0.263l0.502-0.001c0.67-0.026,1.281-0.112,1.854-0.262
	c2.371-0.623,4.719-1.189,6.904-1.708l0.635-0.152c0.176-0.042,0.354-0.083,0.529-0.125C76.416,58.734,77.848,54.613,78.336,52.904z
	 M117.619,68.133c-1.514,1.918-3.617,3.445-5.943,4.433l-0.33,0.769c-0.289,0.758-7.625,19.718-17.379,26.456
	c-1.91,1.347-4.156,2.034-6.668,2.034c-8.16,0-16.57-7.363-16.924-7.677c-1.627-1.568-4.775-4.141-6.635-4.683h-0.018
	c-2.07,0.598-5.426,3.521-6.566,4.62c-0.391,0.349-8.809,7.74-16.992,7.74c-2.514,0-4.762-0.689-6.686-2.047
	c-9.744-6.729-17.084-25.713-17.393-26.518l-0.299-0.699c-3.156-0.975-6.025-2.934-7.791-5.476
	c-1.875-2.701-2.238-6.139-0.973-9.196c0.875-2.112,2.438-3.793,4.383-4.849c-0.205-1.078-0.324-2.166-0.313-3.254
	c0.037-4.146,1.797-7.808,4.955-10.309c0.035-0.027,0.07-0.055,0.105-0.082c2.336-1.77,5.041-2.705,7.826-2.705
	c0.563,0,1.125,0.038,1.68,0.115c1.553-2.47,3.789-4.31,6.514-5.31c0.043-0.016,0.086-0.032,0.129-0.046
	c1.34-0.459,2.709-0.692,4.068-0.692c1.852,0,3.625,0.43,5.246,1.249c1.693-2.71,4.016-4.919,7.053-6.29
	c4.859-2.309,10.154-2.002,14.293,0.781c4.148-2.787,9.441-3.088,14.328-0.765c3.193,1.443,5.604,3.814,7.309,6.727
	c1.557-0.741,3.244-1.128,5.004-1.128c1.352,0,2.711,0.231,4.041,0.687c0.041,0.015,0.084,0.029,0.125,0.045
	c2.738,1.005,4.982,2.848,6.539,5.32c0.557-0.077,1.119-0.116,1.688-0.116c2.779,0,5.475,0.93,7.797,2.688
	c0.037,0.027,0.072,0.054,0.105,0.082c3.174,2.512,4.941,6.179,4.98,10.328c0.01,1.104-0.115,2.207-0.326,3.3
	c2.213,1.23,3.895,3.206,4.686,5.599C120.248,62.317,119.658,65.551,117.619,68.133z M109.059,72.408l2.492-5.814l-0.293-1.322
	l0.736-0.162c0.314-0.28,0.611-0.571,0.861-0.887c1.742-2.208,0.316-4.977-2.256-5.672c-1.75-0.472-3.705,0.832-4.186,2.518
	c-0.781,2.755,2.959,2.237,4.373,1.734c0.992-0.353,0.564-1.944-0.438-1.587c-0.398,0.142-2.826,1.089-2.203-0.061
	c0.518-0.957,1.695-1.291,2.623-0.767c3.664,2.072-1.475,4.898-4.201,5.438c-2.061-0.085-3.996-0.508-5.842-1.128
	c0.205-0.15,0.406-0.3,0.592-0.453c3.16-2.602,7.516-8.883,7.467-13.911c-0.02-2.278-0.924-4.19-2.637-5.546
	c-1.988-1.506-4.361-1.846-6.512-0.935c-1.172,0.498-2.188,1.328-2.969,2.356c-0.055-1.35-0.25-2.644-0.639-3.791
	c-0.777-2.292-2.258-3.897-4.307-4.649c-2.1-0.72-4.148-0.332-5.773,1.089c-2.172,1.901-3.305,5.497-2.695,8.544
	c0.502,2.563,2.068,4.474,4.191,5.112c1.652,0.497,3.365,0.1,4.475-1.029c0.75-0.762,1.855-2.51,0.852-5.655
	c-0.207-0.648-0.9-1.009-1.551-0.8c-0.648,0.207-1.008,0.902-0.801,1.551c0.445,1.396,0.352,2.552-0.26,3.174
	c-0.467,0.475-1.234,0.627-2.004,0.395c-1.23-0.37-2.158-1.574-2.48-3.227c-0.441-2.205,0.375-4.873,1.9-6.208
	c0.955-0.838,2.082-1.045,3.32-0.62c1.336,0.491,2.25,1.51,2.795,3.116c1.455,4.291-0.346,11.51-2.182,14.408
	c-0.486,0.779-1.17,1.601-1.982,2.42c-1.371-0.432-2.732-0.714-4.105-0.714c-0.121,0-0.242,0.002-0.361,0.006
	c-2.543,0.086-5.047,0.481-7.506,0.989c1.318-1.838,2.398-4.092,3.154-6.738c2.453-8.594,0.893-19.304-5.934-22.337
	c-3.176-1.53-6.291-1.303-8.771,0.636c-1.24,0.97-2.246,2.329-2.963,3.892c-0.717-1.563-1.721-2.922-2.961-3.892
	c-2.48-1.939-5.596-2.164-8.738-0.651c-6.859,3.048-8.42,13.759-5.967,22.353c0.742,2.6,1.799,4.821,3.088,6.642
	c-2.305-0.459-4.648-0.813-7.027-0.894c-1.432-0.051-2.855,0.217-4.291,0.655c-1.055-0.993-1.936-2.002-2.527-2.95
	c-1.832-2.892-3.635-10.111-2.18-14.402c0.547-1.606,1.459-2.625,2.77-3.107c1.262-0.433,2.389-0.228,3.348,0.612
	c1.523,1.334,2.342,4.002,1.9,6.212c-0.324,1.647-1.25,2.852-2.48,3.221c-0.77,0.232-1.539,0.081-2.006-0.395
	c-0.609-0.622-0.705-1.778-0.26-3.174c0.207-0.649-0.15-1.344-0.801-1.551c-0.65-0.209-1.344,0.152-1.551,0.801
	c-1.004,3.145,0.104,4.893,0.852,5.655c1.111,1.129,2.824,1.526,4.475,1.029c2.125-0.638,3.691-2.549,4.191-5.107
	c0.611-3.052-0.523-6.647-2.695-8.548c-1.623-1.422-3.674-1.808-5.799-1.081c-2.021,0.743-3.502,2.348-4.281,4.64
	c-0.389,1.147-0.582,2.441-0.637,3.792c-0.781-1.029-1.799-1.859-2.971-2.356c-2.15-0.912-4.521-0.571-6.531,0.952
	c-1.691,1.339-2.596,3.251-2.617,5.529c-0.047,5.028,4.307,11.31,7.463,13.907c0.379,0.315,0.814,0.621,1.273,0.922
	c-1.582,0.55-3.221,0.975-4.955,1.162c-0.119-0.238-0.342-0.418-0.693-0.406c-2.408,0.076-8.922-2.963-5.07-5.529
	c0.932-0.622,2.076-0.105,2.623,0.766c0.707,1.127-1.873,0.179-2.203,0.061c-1.002-0.357-1.43,1.234-0.438,1.587
	c1.447,0.515,4.904,1.064,4.396-1.602c-0.359-1.881-2.434-2.971-4.209-2.65c-2.584,0.466-3.838,3.412-2.385,5.505
	c0.361,0.521,0.836,0.995,1.373,1.42l1.684,0.372l-0.291,1.322l2.461,5.74c0.316,0.821,7.387,19.115,16.52,25.421
	c1.508,1.066,3.277,1.603,5.271,1.603c7.256,0,15.236-7.012,15.316-7.083c0.441-0.427,4.723-4.488,7.785-5.241l0.295-0.036
	l0.637,0.036c3.135,0.771,7.66,5.12,7.852,5.304c0.287,0.251,8.016,7.02,15.25,7.02c1.992,0,3.76-0.535,5.254-1.59
	C101.695,91.452,108.764,73.182,109.059,72.408z M34.588,60.922c-0.832-0.864-1.537-1.734-2.061-2.572
	c-0.758-1.197-1.488-2.946-2.051-4.925c-0.418,0.895-1.025,1.663-1.824,2.221c-1.414,0.985-3.166,1.147-4.572,0.42
	c-0.949-0.49-2.547-1.804-2.576-5.106c-0.006-0.682,0.541-1.239,1.225-1.245c0.693-0.015,1.238,0.542,1.244,1.223
	c0.012,1.465,0.465,2.534,1.238,2.934c0.592,0.306,1.369,0.209,2.027-0.251c1.053-0.735,1.559-2.169,1.35-3.835
	c-0.225-1.856-1.455-3.558-3.061-4.238c-0.941-0.401-2.41-0.615-4.055,0.63c-1.096,0.869-1.646,2.052-1.662,3.601
	c-0.037,4.202,3.861,9.752,6.57,11.982c0.701,0.584,1.6,1.147,2.619,1.669c0.854-0.373,1.697-0.76,2.533-1.147
	C32.57,61.804,33.584,61.341,34.588,60.922z"/>
</svg>
