<?xml version="1.0" encoding="utf-8"?>
<!-- Generator: Adobe Illustrator 16.0.0, SVG Export Plug-In . SVG Version: 6.00 Build 0)  -->
<!DOCTYPE svg PUBLIC "-//W3C//DTD SVG 1.1//EN" "http://www.w3.org/Graphics/SVG/1.1/DTD/svg11.dtd">
<svg version="1.1" id="Layer_1" xmlns="http://www.w3.org/2000/svg" xmlns:xlink="http://www.w3.org/1999/xlink" x="0px" y="0px"
	 width="126px" height="126px" viewBox="0 0 126 126" enable-background="new 0 0 126 126" xml:space="preserve">
<path d="M121.808,19.655c0.05-0.142-0.007-0.248-0.103-0.308c-0.066-0.067-0.163-0.103-0.283-0.056
	c-8.312,3.29-14.008,9.526-18.733,16.662c-0.751-0.098-1.504-0.186-2.258-0.184c2.695-3.036,4.08-6.914,6.019-10.439
	c0.104-0.19-0.053-0.381-0.231-0.429c-0.884-0.24-1.553,0.388-2.311,0.5c2.322-4.034,3.117-8.669,3.112-13.287
	c0-0.15-0.089-0.233-0.198-0.256c-0.086-0.043-0.188-0.044-0.286,0.041c-11.58,10.037-13.049,25.701-15.612,40.006
	c-0.226-0.048-0.454-0.109-0.689-0.191c-1.805-0.62-3.459-1.557-5.171-2.372c-4.207-2.006-8.561-2.884-13.16-2.021
	c0.441-0.932,2.423-2.718,2.942-2.802c1.576-0.257,1.146-2.306,0-2.772c-1.551-0.633-3.027-0.855-4.693-0.842
	c-0.426,0.004-0.881,0.14-1.285,0.248c-1.351,0.362-0.82,0.843-0.869-0.53c-0.113-3.213-2.033-6.031-4.522-7.931
	c-0.288-0.219-0.571-0.298-0.835-0.279c-0.262-0.019-0.546,0.061-0.833,0.279c-2.182,1.664-4.354,4.371-4.491,7.252
	c-0.034,0.724-0.097,1.228-0.097,1.228s-1.005-0.109-1.707-0.216c-1.716-0.258-3.497,0.147-5.076,0.791
	c-1.146,0.467-1.576,2.516,0,2.772c0.521,0.084,2.515,1.882,2.947,2.812c-1.868-0.313-3.742-0.451-5.642-0.235
	c-3.005,0.342-5.781,1.365-8.456,2.721c-1.371,0.695-2.733,1.413-4.193,1.915c-0.505,0.173-0.986,0.261-1.448,0.276
	C31.633,37.22,31.259,20.816,19.822,9.879c-0.094-0.09-0.196-0.094-0.283-0.055c-0.111,0.018-0.205,0.096-0.212,0.245
	c-0.229,4.613,0.336,9.281,2.459,13.424c-0.751-0.149-1.389-0.809-2.283-0.612c-0.181,0.039-0.347,0.223-0.253,0.417
	c1.764,3.616,2.957,7.558,5.501,10.722c-0.754-0.039-1.51,0.012-2.265,0.073c-4.37-7.358-9.754-13.867-17.896-17.559
	c-0.117-0.054-0.215-0.023-0.284,0.042c-0.1,0.053-0.162,0.157-0.119,0.301c1.309,4.431,3.389,8.648,6.764,11.854
	c-0.758,0.107-1.578-0.304-2.358,0.177c-0.155,0.097-0.253,0.325-0.1,0.478c2.861,2.829,5.293,6.152,8.739,8.297
	c-1.913,0.562-3.635,1.728-5.592,2.059c-0.27,0.046-0.335,0.403-0.118,0.556c2.994,2.097,5.843,4.781,9.431,5.754
	c-1.6,0.925-3.284,2.183-3.538,4.088c-0.219,1.646,1.221,2.97,2.454,3.782c2.555,1.682,6.391,2.663,9.783,2.351
	c0.012,0.259,0.025,0.517,0.042,0.774c-0.059,0.082-0.119,0.164-0.185,0.248c-0.522,0.829-0.943,2.004-1.037,3.352
	c-0.122,1.349,0.052,2.841,0.344,4.394c0.309,1.549,0.763,3.179,1.216,4.814c0.052,0.194,0.105,0.391,0.16,0.587
	c0.051,0.217,0.103,0.436,0.155,0.655c0.113,0.438,0.228,0.883,0.345,1.331c0.127,0.453,0.148,0.858,0.233,1.304
	c0.054,0.442,0.179,0.877,0.185,1.35c0.022,0.47,0.044,0.943,0.066,1.42c0.029,0.479-0.029,0.966-0.046,1.454
	c-0.027,0.979-0.182,1.975-0.305,2.976c-0.282,2.009-0.47,4.084-0.494,6.208c0.037,0.563,0.004,1.004,0.124,1.609
	c0.073,0.588,0.234,1.117,0.397,1.659c0.373,1.069,0.952,2.034,1.564,2.895c0.611,0.864,1.253,1.638,1.805,2.402
	c0.551,0.762,1.01,1.511,1.348,2.281c0.078,0.195,0.173,0.382,0.235,0.579c0.06,0.198,0.122,0.394,0.188,0.586
	c0.075,0.19,0.094,0.398,0.145,0.594l0.065,0.297l0.017,0.073l0.006,0.027l0.008,0.092c0.061,0.642-0.102,1.434-0.294,2.226
	c-0.406,1.588-0.961,3.166-1.422,4.646c-0.447,1.491-0.836,2.906-0.969,4.245c-0.071,0.668-0.075,1.316,0.016,1.925
	c0.09,0.608,0.302,1.181,0.612,1.617c0.641,0.898,1.478,1.133,1.957,1.22c0.249,0.059,0.444,0.052,0.571,0.07
	c0.128,0.012,0.193,0.018,0.193,0.018l0.045-0.241c0,0-0.06-0.023-0.174-0.07c-0.109-0.053-0.286-0.1-0.484-0.217
	c-0.409-0.192-0.985-0.584-1.252-1.267c-0.129-0.342-0.202-0.745-0.179-1.216c0.029-0.472,0.129-0.993,0.275-1.553
	c0.315-1.121,0.83-2.387,1.439-3.778c0.583-1.407,1.302-2.914,1.853-4.716c0.252-0.902,0.53-1.903,0.438-3.114l-0.014-0.173
	c0.004,0.021-0.033-0.26-0.02-0.152l-0.006-0.023l-0.01-0.048l-0.023-0.097l-0.092-0.384c-0.07-0.255-0.108-0.518-0.208-0.768
	c-0.167-0.51-0.366-1.012-0.618-1.491c-0.487-0.963-1.104-1.857-1.772-2.648c-0.647-0.745-1.301-1.5-1.961-2.261
	c-0.611-0.739-1.175-1.476-1.594-2.293c-0.196-0.411-0.408-0.838-0.53-1.258c-0.166-0.381-0.24-0.971-0.347-1.422
	c-0.309-1.964-0.378-3.998-0.1-5.988c0.218-1.999,0.661-3.949,0.847-5.931c0.084-0.487,0.051-1.002,0.077-1.502
	c0.006-0.253,0.011-0.505,0.017-0.755c0.008-0.253,0.014-0.507-0.021-0.729c-0.05-0.461-0.098-0.917-0.146-1.367
	c-0.027-0.225-0.055-0.447-0.083-0.669c-0.043-0.295-0.089-0.472-0.134-0.711c-0.371-1.786-0.906-3.34-1.278-4.788
	c-0.347-1.239-0.578-2.379-0.689-3.407c0.557,3.355,1.598,6.562,3.373,9.56c5.026,8.49,16.722,10.997,24.035,5.91
	c3.327-2.315,6.814-2.22,10.21-0.022c2.268,1.468,4.672,2.395,7.415,2.557c6.156,0.363,11.336-1.643,15.154-6.471
	c0.277-0.352,0.537-0.708,0.789-1.066c0.007,0.203,0.02,0.405,0.054,0.604c0.186,1.981,0.629,3.932,0.846,5.931
	c0.279,1.99,0.209,4.024-0.099,5.988c-0.106,0.451-0.181,1.041-0.347,1.422c-0.121,0.42-0.334,0.847-0.53,1.258
	c-0.419,0.817-0.983,1.554-1.594,2.293c-0.66,0.761-1.314,1.515-1.961,2.26c-0.669,0.792-1.286,1.688-1.772,2.649
	c-0.252,0.479-0.451,0.981-0.618,1.491c-0.1,0.25-0.138,0.513-0.208,0.768l-0.092,0.384l-0.023,0.097l-0.011,0.048l-0.005,0.023
	c0.014-0.107-0.024,0.173-0.021,0.152l-0.012,0.173c-0.093,1.211,0.186,2.212,0.438,3.114c0.551,1.802,1.269,3.308,1.853,4.716
	c0.609,1.392,1.123,2.657,1.438,3.778c0.146,0.56,0.247,1.081,0.275,1.553c0.024,0.471-0.049,0.874-0.178,1.216
	c-0.267,0.683-0.843,1.074-1.252,1.267c-0.198,0.117-0.375,0.164-0.485,0.217c-0.113,0.046-0.173,0.07-0.173,0.07l0.044,0.241
	c0,0,0.066-0.006,0.194-0.018c0.127-0.019,0.322-0.012,0.571-0.07c0.479-0.087,1.317-0.321,1.957-1.22
	c0.31-0.437,0.522-1.009,0.612-1.617s0.086-1.257,0.016-1.925c-0.134-1.339-0.521-2.754-0.969-4.245
	c-0.461-1.48-1.016-3.059-1.423-4.647c-0.191-0.791-0.354-1.583-0.294-2.225l0.008-0.093l0.006-0.026l0.018-0.073l0.065-0.297
	c0.051-0.196,0.07-0.403,0.146-0.594c0.065-0.192,0.128-0.388,0.187-0.586c0.063-0.197,0.159-0.384,0.236-0.579
	c0.338-0.771,0.797-1.52,1.349-2.281c0.551-0.765,1.192-1.538,1.804-2.402c0.611-0.86,1.191-1.825,1.564-2.895
	c0.162-0.542,0.323-1.071,0.396-1.659c0.12-0.605,0.088-1.048,0.125-1.609c-0.025-2.125-0.213-4.199-0.494-6.208
	c-0.123-1.002-0.277-1.997-0.306-2.976c-0.017-0.488-0.074-0.975-0.046-1.454c0.022-0.477,0.045-0.95,0.067-1.42
	c0.006-0.473,0.131-0.907,0.185-1.35c0.085-0.445,0.107-0.851,0.233-1.304c0.116-0.448,0.231-0.893,0.344-1.331
	c0.054-0.22,0.105-0.438,0.157-0.656l0,0c1.343-3.086,1.973-6.353,2.181-9.717c3.08,0.179,6.401-0.595,8.741-1.978
	c1.271-0.751,2.774-2.002,2.637-3.657c-0.16-1.916-1.781-3.254-3.333-4.256c3.631-0.796,6.607-3.339,9.699-5.286
	c0.226-0.141,0.178-0.502-0.09-0.561c-1.938-0.426-3.601-1.676-5.483-2.33c3.547-1.973,6.138-5.174,9.134-7.858
	c0.161-0.146,0.075-0.378-0.076-0.482c-0.755-0.519-1.596-0.147-2.347-0.292C118,28.127,120.283,24.017,121.808,19.655z
	 M25.413,34.694c0.247,0.037,0.481-0.274,0.294-0.484c-2.737-3.1-3.959-7.071-5.699-10.745c0.827,0.066,1.444,0.791,2.323,0.66
	c0.178-0.027,0.351-0.234,0.251-0.418c-1.996-3.666-2.715-7.779-2.694-11.907l12.47,40.004c-0.375-0.141-0.73-0.356-1.063-0.654
	c-2.751-5.425-5.36-11.16-8.47-16.488C23.688,34.6,24.553,34.568,25.413,34.694z M21.563,54.142c-1.419-0.627-3.109-1.672-3.5-3.287
	c-0.527-2.182,2.337-3.819,3.859-4.643c0.282-0.153,0.188-0.525-0.108-0.582c-3.609-0.688-6.479-3.321-9.388-5.44
	c1.932-0.513,3.665-1.701,5.655-2.089c0.245-0.048,0.362-0.418,0.117-0.555c-3.61-2.019-6.075-5.362-8.936-8.254
	c0.804-0.211,1.626,0.27,2.412-0.146c0.158-0.084,0.254-0.337,0.099-0.478C8.676,25.87,6.637,22.228,5.29,18.325l24.471,32.903
	c-0.146,1.473-0.182,2.946-0.135,4.419C26.876,55.881,23.889,55.167,21.563,54.142z M55.431,67.6
	c-0.75,0.022-1.502,0.004-1.916,0.004c-2.454-0.055-4.557,0.252-6.692,0.051c-3.746-0.353-6.389-2.245-8.264-5.387
	c-0.35-0.584-0.357-1.187,0.283-1.529c3.417-1.836,6.994-2.989,10.908-1.988c3.165,0.811,4.938,3.134,6.082,6.033
	c0.203,0.516,0.367,1.049,0.518,1.582C56.601,67.256,56.369,67.571,55.431,67.6z M86.669,62.42
	c-1.923,3.188-4.675,4.948-8.451,5.265c-2.855,0.239-5.676-0.224-8.515-0.104c-0.568,0.024-1.016-0.254-0.842-0.896
	c0.693-2.57,1.769-4.931,3.968-6.595c1.627-1.231,3.48-1.768,5.208-1.688c3.132-0.012,5.705,0.896,8.171,2.171
	C87.088,61.027,87.197,61.542,86.669,62.42z M106.375,13.815c-0.181,4.124-1.101,8.196-3.274,11.761
	c-0.107,0.179,0.056,0.395,0.23,0.43c0.872,0.175,1.523-0.519,2.353-0.545c-1.918,3.585-3.331,7.49-6.217,10.453
	c-0.197,0.2,0.021,0.522,0.27,0.498c0.865-0.084,1.728-0.01,2.588,0.094c-3.121,4.792-5.828,9.96-8.607,14.898
	c-0.407,0.291-0.845,0.464-1.31,0.545L106.375,13.815z M113.654,31.062c-0.162,0.132-0.078,0.391,0.075,0.481
	c0.765,0.453,1.609,0.014,2.401,0.264c-2.996,2.748-5.624,5.967-9.327,7.807c-0.251,0.124-0.153,0.5,0.09,0.56
	c1.968,0.484,3.642,1.757,5.545,2.364c-3.009,1.974-6.003,4.463-9.643,4.975c-0.298,0.041-0.41,0.409-0.136,0.575
	c1.481,0.896,4.26,2.672,3.628,4.826c-0.47,1.594-2.209,2.555-3.658,3.11c-2.054,0.789-4.59,1.321-7.009,1.212
	c0.089-1.879,0.054-3.786-0.06-5.709l25.075-30.479C119.1,24.879,116.886,28.418,113.654,31.062z"/>
</svg>
