<?xml version="1.0" encoding="utf-8"?>
<!-- Generator: Adobe Illustrator 16.0.0, SVG Export Plug-In . SVG Version: 6.00 Build 0)  -->
<!DOCTYPE svg PUBLIC "-//W3C//DTD SVG 1.1//EN" "http://www.w3.org/Graphics/SVG/1.1/DTD/svg11.dtd">
<svg version="1.1" id="Layer_1" xmlns="http://www.w3.org/2000/svg" xmlns:xlink="http://www.w3.org/1999/xlink" x="0px" y="0px"
	 width="126px" height="126px" viewBox="0 0 126 126" enable-background="new 0 0 126 126" xml:space="preserve">
<path fill-rule="evenodd" clip-rule="evenodd" d="M63,54.541c-5.356,0-37.911-17.067-60.267-5.052
	c3.516,6.995,6.259,13.725,9.929,19.463c5.608,8.769,13.186,12.834,22.048,11.64C45.204,79.178,55.803,69.693,63,69.693
	c7.196,0,17.796,9.484,28.289,10.898c8.862,1.195,16.439-2.871,22.049-11.64c3.669-5.737,6.413-12.468,9.929-19.463
	C100.911,37.475,68.356,54.541,63,54.541z M32.295,71.277c-4.343,0.586-8.057-1.406-10.806-5.703
	c-1.798-2.813-3.143-6.111-4.865-9.539c11.934-6.414,21.784-0.436,32.052,5.622C43.479,66.46,38.431,70.45,32.295,71.277z
	 M104.51,65.574c-2.748,4.297-6.462,6.289-10.805,5.704c-6.137-0.827-11.185-4.818-16.381-9.621
	c10.268-6.058,20.118-12.035,32.052-5.622C107.653,59.464,106.309,62.762,104.51,65.574z"/>
</svg>
