<?xml version="1.0" encoding="utf-8"?>
<!-- Generator: Adobe Illustrator 16.0.0, SVG Export Plug-In . SVG Version: 6.00 Build 0)  -->
<!DOCTYPE svg PUBLIC "-//W3C//DTD SVG 1.1//EN" "http://www.w3.org/Graphics/SVG/1.1/DTD/svg11.dtd">
<svg version="1.1" id="Layer_1" xmlns="http://www.w3.org/2000/svg" xmlns:xlink="http://www.w3.org/1999/xlink" x="0px" y="0px"
	 width="126px" height="126px" viewBox="0 0 126 126" enable-background="new 0 0 126 126" xml:space="preserve">
<path d="M111.846,44.33c-4.283,2.083-9.211,1.774-13.66,0.26c-3.996-1.359-7.67-3.748-11.758-4.806
	c-5.135-1.331-11.105,0.831-16.094,2.035c-3.02,0.728-6.293,2.124-9.404,1.313c-2.967-0.772-5.947-1.492-8.932-2.187
	c-4.916-1.145-9.791-2.353-14.629-0.414c-4.049,1.622-7.885,3.937-12.215,4.783c-4.518,0.884-9.113,0.679-12.93-2.15
	c-0.152-0.112-0.285-0.237-0.43-0.352c1.969,2.733,4.814,4.901,7.846,5.911c2.041,0.68,2.355,3.247,0.578,4.433
	c-1.926,1.285-2.699,3.76-2.975,6.104c1.213-1.575,2.791-2.909,4.779-3.871c1.145-0.553,2.668-0.365,3.318,0.871
	c0.15,0.288,0.301,0.575,0.453,0.861c0.387,0.725,0.502,1.733,0,2.448c-3.189,4.557-3.488,10.632-2.984,16.083
	c0.615-3.771,1.721-7.488,3.34-11.104c0.816-1.824,3.248-1.311,4.189,0c0.527,0.737,1.457,1.611,1.352,2.611
	c-0.09,0.834-0.166,1.669-0.213,2.506c0.9-0.801,2.314-0.846,3.324,0.065c2.801,2.524,5.621,3.306,9.268,2.211
	c2.787-0.836,5.359-2.251,7.74-3.91c1.123-0.782,1.719-1.193,2.701-2.107c1.16-1.079,2.385-2.106,3.67-3.032
	c1.289-0.927,3.154-2.395,4.82-2.395c1.822,0,3.867,1.68,5.248,2.714c1.172,0.88,2.309,1.819,3.367,2.831
	c0.982,0.938,1.662,1.378,2.871,2.189c2.418,1.622,5.031,3.126,7.883,3.83c3.547,0.876,6.125,0.106,8.828-2.332
	c1.014-0.912,2.428-0.867,3.328-0.064c-0.006-0.08-0.006-0.161-0.012-0.24c-0.063-0.909-0.361-2.021-0.115-2.912
	c0.203-0.738,0.828-1.357,1.266-1.967c0.941-1.311,3.373-1.824,4.189,0c1.611,3.601,2.715,7.302,3.328,11.057
	c0.467-5.455,0.23-11.458-2.977-16.035c-0.5-0.715-0.385-1.723,0-2.448c0.156-0.286,0.307-0.573,0.457-0.861
	c0.65-1.236,2.172-1.424,3.318-0.871c1.979,0.957,3.547,2.282,4.756,3.845c-0.277-2.334-1.01-4.779-2.953-6.078
	c-1.777-1.186-1.463-3.753,0.578-4.433c2.98-0.993,5.781-3.106,7.748-5.775C113.408,43.467,112.658,43.935,111.846,44.33z
	 M54.545,60.521c-4.203,2.179-9.373,3.032-13.941,1.636c-4.436-1.636-8.166-5.282-10.164-9.576
	c-0.533-1.148-0.381-2.668,0.871-3.318c4.637-2.404,10.707-3.327,15.529-0.991c3.688,1.788,6.846,5.213,8.576,8.93
	C55.947,58.351,55.797,59.872,54.545,60.521z M95.566,52.582c-1.998,4.294-5.73,7.939-10.168,9.576
	c-4.566,1.396-9.736,0.542-13.938-1.636c-1.252-0.65-1.404-2.17-0.871-3.318c1.676-3.6,4.883-7.354,8.574-8.93
	c5.008-2.136,10.738-1.494,15.531,0.991C95.947,49.914,96.098,51.434,95.566,52.582z M121.168,30.863
	c-0.064-0.458-0.271-0.848-0.563-1.161c-0.014-0.017-0.027-0.036-0.041-0.052c-0.02-0.019-0.041-0.035-0.063-0.054
	c-0.359-0.371-0.816-0.583-1.299-0.658c-0.822-0.169-1.717,0.024-2.295,0.699c-0.34,0.335-0.563,0.775-0.605,1.296
	c-1.219,4.123-3.342,7.477-7.311,9.406c-3.916,1.904-9.271-0.144-12.938-1.77c-3.77-1.669-7.41-3.675-11.592-4
	c-2.662-0.208-5.523,0.404-8.123,0.902c-3.209,0.614-6.383,1.439-9.553,2.218c-1.461,0.36-3.07,1.074-4.568,0.765
	c-1.512-0.313-3.006-0.767-4.506-1.132c-3.152-0.768-6.307-1.549-9.504-2.119c-4.926-0.879-9.014-0.712-13.605,1.26
	c-4.008,1.721-7.92,3.95-12.332,4.426c-4.305,0.465-7.943-1.289-10.361-4.876c-1.113-1.654-1.785-3.521-2.318-5.427
	c-0.664-2.367-3.963-2.259-4.676,0C2.273,38.95,7.555,47.695,14.854,51.83c-4.105,5.822-3.086,15.409-0.188,21.313
	c0.727,1.483,2.154,1.51,3.197,0.807c0.057,1.08,0.141,2.146,0.254,3.186c0.699,6.45,2.361,13.52,6.145,18.913
	c1.523,2.173,5.211,0.909,4.432-1.869c-1.451-5.174-1.969-10.475-1.428-15.682c0.004,0.021,0.008,0.043,0.012,0.065
	c0.918,4.154,3.285,7.633,6.684,10.139c2.117,1.559,4.316-1.355,3.318-3.319c-1.514-2.98-2.549-6.342-2.445-9.682
	c2.023,1.131,4.227,1.731,6.799,1.58c3.549-0.209,6.945-1.671,10.002-3.402c4.105-2.325,7.266-6.077,11.377-8.301
	c0.033,0.014,0.063,0.027,0.105,0.042c0.473,0.244,0.922,0.543,1.369,0.834c0.826,0.538,1.59,1.162,2.342,1.798
	c0.553,0.466,1.063,0.978,1.611,1.447c1.732,1.48,3.617,2.801,5.57,3.97c3.064,1.832,6.375,3.12,9.92,3.569
	c2.688,0.341,5.074-0.309,7.24-1.535c0.104,3.34-0.93,6.699-2.445,9.679c-0.998,1.964,1.201,4.878,3.32,3.319
	c3.467-2.556,5.637-5.967,6.684-10.139c0.004-0.021,0.006-0.042,0.012-0.063c0.539,5.206,0.021,10.506-1.43,15.68
	c-0.779,2.778,2.91,4.042,4.434,1.869c3.809-5.43,5.371-12.44,6.145-18.913c0.121-1.033,0.213-2.095,0.271-3.173
	c1.045,0.689,2.455,0.654,3.18-0.819c2.898-5.903,3.918-15.49-0.188-21.313C118.371,47.74,123.609,39.143,121.168,30.863z
	 M107.008,51.06c5.801,3.616,4.898,15.649,2.238,20.858c1.166-6.412-1.363-12.109-6.488-14.438
	c-0.148,0.285-0.299,0.572-0.455,0.861c6.541,9.015,2.77,28.938-2.652,36.481c2.91-10.079,2.271-19.968-1.891-29.055
	c-0.334,0.472-0.676,0.933-1.021,1.388c0.795,7.1,0.246,15.11-5.92,19.449c2.285-4.36,3.756-10.315,2.098-15.163
	c-0.725,0.673-1.465,1.285-2.219,1.806c-8.117,5.731-20.689-5.393-20.689-5.393s-3.99-3.884-7.006-4.936
	c-3.016,1.051-7.004,4.936-7.004,4.936s-12.574,11.125-20.689,5.393c-0.754-0.521-1.494-1.133-2.219-1.806
	c-1.658,4.848-0.189,10.803,2.096,15.163c-6.164-4.339-6.715-12.349-5.922-19.449c-0.346-0.455-0.686-0.916-1.02-1.388
	c-4.162,9.087-4.799,18.977-1.889,29.055c-5.422-7.544-9.195-27.466-2.654-36.481c-0.154-0.29-0.305-0.577-0.453-0.861
	c-5.125,2.329-7.654,8.025-6.488,14.438c-2.66-5.209-3.564-17.243,2.238-20.858C10.877,48.518,4.637,38.884,7.252,31.231
	c1.887,7.049,5.637,10.283,10.211,11.882c10.514,1.883,17.736-6.37,24.943-6.129c4.223,0.142,8.313,1.163,12.402,2.136
	c2.26,0.536,4.52,1.083,6.764,1.672c0.484,0.126,0.957,0.191,1.43,0.235c0.473-0.044,0.947-0.108,1.43-0.235
	c2.246-0.589,4.506-1.136,6.762-1.672c4.092-0.973,8.18-1.994,12.406-2.136c7.207-0.241,14.426,8.012,24.941,6.129
	c4.576-1.599,8.324-4.833,10.209-11.882C121.369,38.884,115.127,48.518,107.008,51.06z M44.604,49.965
	c-5.74-1.952-12.07,1.393-12.07,1.393s2.977,6.51,8.717,8.462c5.74,1.952,12.068-1.393,12.068-1.393S50.342,51.917,44.604,49.965z
	 M41.895,57.481c-2.402-0.887-4.43-2.782-5.906-4.958c3.025-0.991,6.537-1.101,9.355,0.426c1.787,0.969,3.324,2.551,4.514,4.306
	C47.313,58.074,44.439,58.259,41.895,57.481z M81.402,49.965c-5.74,1.952-8.719,8.462-8.719,8.462s6.332,3.345,12.07,1.393
	c5.74-1.952,8.717-8.462,8.717-8.462S87.141,48.013,81.402,49.965z M84.109,57.481c-2.541,0.776-5.408,0.594-7.951-0.222
	c1.195-1.729,2.725-3.242,4.502-4.31c2.705-1.622,6.332-1.425,9.355-0.426C88.541,54.699,86.514,56.594,84.109,57.481z"/>
</svg>
