<?xml version="1.0" encoding="utf-8"?>
<!-- Generator: Adobe Illustrator 16.0.0, SVG Export Plug-In . SVG Version: 6.00 Build 0)  -->
<!DOCTYPE svg PUBLIC "-//W3C//DTD SVG 1.1//EN" "http://www.w3.org/Graphics/SVG/1.1/DTD/svg11.dtd">
<svg version="1.1" id="Layer_1" xmlns="http://www.w3.org/2000/svg" xmlns:xlink="http://www.w3.org/1999/xlink" x="0px" y="0px"
	 width="126px" height="126px" viewBox="0 0 126 126" enable-background="new 0 0 126 126" xml:space="preserve">
<path d="M118.492,44.787c-1.71,1.992-3.688,1.816-5.63,1.1c-2.701-0.996-5.357-2.121-8.001-3.266
	c-6.51-2.817-13.223-4.524-20.392-4.004c-5.483,0.397-10.838,1.454-15.992,3.334c-1.839,0.67-3.66,1.054-5.477,1.16
	c-1.816-0.106-3.639-0.49-5.477-1.16c-5.154-1.88-10.509-2.937-15.992-3.334c-7.169-0.521-13.882,1.187-20.393,4.004
	c-2.643,1.145-5.299,2.27-8,3.266c-1.942,0.717-3.92,0.893-5.631-1.1c-0.652,10.455,0.201,20.421,4.363,29.906
	c2.438,5.555,5.883,10.355,10.9,13.834c8.119,5.631,16.968,6.999,26.344,3.814c2.07-0.701,3.929-2.111,5.785-3.346
	c2.875-1.914,5.593-3.238,8.1-3.29c2.506,0.052,5.225,1.376,8.1,3.29c1.855,1.234,3.715,2.645,5.785,3.346
	c9.376,3.185,18.225,1.816,26.344-3.814c5.018-3.479,8.463-8.279,10.899-13.834C118.291,65.208,119.145,55.242,118.492,44.787z
	 M110.183,48.345c1.603,0,2.902,1.301,2.902,2.903c0,1.604-1.3,2.902-2.902,2.902c-1.604,0-2.902-1.298-2.902-2.902
	C107.281,49.646,108.58,48.345,110.183,48.345z M101.435,45.522c1.604,0,2.903,1.301,2.903,2.903c0,1.604-1.3,2.902-2.903,2.902
	c-1.603,0-2.902-1.299-2.902-2.902C98.533,46.823,99.833,45.522,101.435,45.522z M92.464,44.189c1.603,0,2.903,1.3,2.903,2.902
	c0,1.604-1.301,2.903-2.903,2.903c-1.604,0-2.902-1.3-2.902-2.903C89.562,45.489,90.86,44.189,92.464,44.189z M87.592,57.156
	c9.185-4.793,20.988-0.326,20.988-0.326s-2.055,14.217-11.24,19.009c-9.187,4.793-22.021-1.651-22.021-1.651
	S78.407,61.948,87.592,57.156z M83.352,44.834c1.604,0,2.903,1.3,2.903,2.902c0,1.604-1.3,2.903-2.903,2.903
	c-1.603,0-2.902-1.3-2.902-2.903C80.45,46.134,81.75,44.834,83.352,44.834z M74.765,48.004c1.603,0,2.902,1.299,2.902,2.902
	s-1.3,2.903-2.902,2.903c-1.604,0-2.902-1.3-2.902-2.903S73.162,48.004,74.765,48.004z M62.75,48.929
	c2.354,0,4.263,1.908,4.263,4.263s-1.908,4.263-4.263,4.263s-4.263-1.908-4.263-4.263S60.396,48.929,62.75,48.929z M51.485,48.033
	c1.604,0,2.902,1.299,2.902,2.902s-1.299,2.903-2.902,2.903c-1.603,0-2.902-1.3-2.902-2.903S49.882,48.033,51.485,48.033z
	 M42.898,44.863c1.603,0,2.902,1.3,2.902,2.902c0,1.604-1.3,2.903-2.902,2.903c-1.604,0-2.903-1.3-2.903-2.903
	C39.995,46.163,41.294,44.863,42.898,44.863z M33.786,44.217c1.604,0,2.902,1.3,2.902,2.902c0,1.604-1.298,2.903-2.902,2.903
	c-1.603,0-2.903-1.3-2.903-2.903C30.882,45.517,32.183,44.217,33.786,44.217z M24.815,45.55c1.603,0,2.902,1.301,2.902,2.903
	c0,1.604-1.3,2.902-2.902,2.902c-1.604,0-2.903-1.299-2.903-2.902C21.912,46.851,23.211,45.55,24.815,45.55z M38.409,57.156
	c9.186,4.792,12.273,17.031,12.273,17.031s-12.836,6.444-22.021,1.651C19.475,71.046,17.419,56.83,17.419,56.83
	S29.223,52.363,38.409,57.156z M16.067,48.374c1.604,0,2.902,1.301,2.902,2.903c0,1.604-1.299,2.902-2.902,2.902
	c-1.603,0-2.902-1.298-2.902-2.902C13.165,49.674,14.464,48.374,16.067,48.374z M111.469,74.401
	c-0.136,0.867-0.387,1.702-0.568,2.266c-1.202,3.729-4.471,6.252-7.146,8.279c-0.334,1.171-0.957,2.191-1.809,2.962
	c-2.241,2.025-5.736,2.393-8.133,2.613c-1.102,1.164-2.661,1.754-4.641,1.754c-2.552,0-5.091-0.979-6.504-1.634
	c-0.078,0.037-0.158,0.073-0.241,0.107c-0.514,0.206-1.052,0.312-1.598,0.312c-2.659,0-5.13-2.485-6.735-4.571
	c-1.265-1.642-2.301-3.447-3.302-5.194c-0.357-0.623-0.72-1.256-1.095-1.884l0.64,4.022c0.057,0.367-0.092,0.732-0.387,0.955
	c-0.285,0.215-0.693,0.26-1.023,0.108c-1.944-0.91-3.874-1.371-5.739-1.371c-3.587,0-5.749,1.718-5.771,1.735
	c-0.304,0.254-0.768,0.299-1.119,0.104c-0.362-0.2-0.562-0.595-0.509-1.006l0.554-4.147c-0.261,0.445-0.517,0.892-0.77,1.332
	c-1.001,1.747-2.035,3.554-3.301,5.196c-1.605,2.084-4.076,4.57-6.735,4.57c-0.546,0-1.083-0.105-1.597-0.312
	c-0.021-0.008-0.04-0.017-0.06-0.025c-1.398,0.643-3.913,1.604-6.437,1.604c-1.979,0-3.539-0.591-4.641-1.755
	c-2.396-0.221-5.892-0.588-8.133-2.613c-0.803-0.726-1.406-1.666-1.753-2.729c-2.945-2.229-6.242-4.762-7.451-8.513
	c-0.18-0.557-0.43-1.385-0.567-2.266c-1.324-1.631-6.514-8.59-2.134-12.441c0.565-0.498,1.317-0.771,2.116-0.771
	c1.048,0,2.011,0.473,2.577,1.265c0.823,1.153,1.35,3.111-0.821,5.895c-0.43,0.547-1.298,0.407-1.607-0.225
	c-0.18-0.367-0.138-0.778,0.111-1.098c0.529-0.678,1.238-2.605,0.82-3.464c-0.097-0.197-0.354-0.466-1.079-0.386
	c-0.523,0.059-0.947,0.307-1.262,0.735c-0.466,0.637-0.65,1.639-0.47,2.554c0.324,1.637,1.02,3.318,2.025,4.912
	c0.313-0.638,0.815-1.104,1.506-1.392c0.484-0.203,0.998-0.306,1.527-0.306c2.03,0,4.099,1.565,4.709,3.565
	c0.488,1.598-0.067,3.077-1.523,4.059c-0.544,0.364-1.272,0.072-1.464-0.554c-0.134-0.438,0.023-0.885,0.401-1.14
	c0.719-0.483,0.983-1.054,0.788-1.693c-0.331-1.084-1.923-2.188-3.154-2.188c-0.407,0-0.713,0.123-0.908,0.364
	c-0.325,0.401-0.385,1.145-0.172,2.148c0.724,3.414,2.81,5.799,5.75,8.186c0.098-1.043,0.435-2.02,0.995-2.866
	c0.753-1.14,1.898-1.768,3.226-1.768c1.571,0,3.033,0.905,3.557,2.201c0.291,0.722,0.526,2.175-1.162,3.802
	c-0.506,0.485-1.38,0.26-1.635-0.374c-0.148-0.367-0.059-0.771,0.234-1.054c0.614-0.592,0.894-1.386,0.679-1.931
	c-0.205-0.522-0.821-0.641-1.302-0.648c-0.001,0-0.001,0-0.002,0c-0.715,0-1.275,0.23-1.714,0.685
	c-0.607,0.629-0.946,1.67-0.907,2.785c0.124,3.562,3.602,4.648,6.926,5.104c-0.115-0.312-0.209-0.628-0.281-0.954
	c-0.387-1.743,0.25-4.348,1.42-5.807c1.307-1.631,3.1-1.649,4.664,0.036c0.275,0.296,0.347,0.707,0.188,1.073
	c-0.275,0.629-1.156,0.823-1.627,0.313c-0.244-0.262-0.614-0.575-0.995-0.575c-0.722,0-1.351,1.093-1.575,2.121
	c-0.275,1.26-0.352,3.032,0.846,4.322l0.14,0.151c0.022,0.026,0.045,0.053,0.071,0.077c0.964,0.875,2.078,1.301,3.408,1.301
	c1.489,0,3.047-0.555,4.25-1.082c-1.708-1.961-1.7-5.026-0.897-7.221c0.891-2.435,2.707-3.947,4.742-3.947
	c0.672,0,1.365,0.158,2.062,0.471c0.419,0.188,0.629,0.591,0.535,1.028c-0.134,0.623-0.855,1.011-1.448,0.747
	c-1.149-0.515-2.16-0.301-2.988,0.633c-1.154,1.303-1.592,3.523-1.418,4.952c0.143,1.163,0.645,2.016,1.455,2.475
	c0.278-0.018,0.515,0.094,0.706,0.276c1.143,0.274,2.514-0.138,3.598-1.081c2.39-2.078,3.884-4.689,5.466-7.454
	c0.933-1.63,1.897-3.315,3.057-4.865c0.017-0.022,0.033-0.043,0.051-0.062l1.817-13.638c0.067-0.495,0.494-0.867,0.993-0.867
	l0.129,0.008c0.549,0.074,0.934,0.578,0.862,1.124l-2.717,20.368c1.231-0.563,2.952-1.082,5.106-1.082
	c1.611,0,3.267,0.297,4.932,0.884l-3.205-20.143c-0.085-0.544,0.287-1.057,0.831-1.145l0.157-0.012c0.496,0,0.911,0.354,0.988,0.845
	l2.152,13.524c0.178,0.066,0.334,0.184,0.454,0.346c1.159,1.549,2.124,3.234,3.057,4.864c1.582,2.765,3.076,5.376,5.466,7.454
	c1.166,1.014,2.717,1.41,3.879,1.003c0.147-0.131,0.324-0.217,0.511-0.246c0.76-0.471,1.232-1.307,1.369-2.427
	c0.174-1.429-0.265-3.649-1.418-4.952c-0.828-0.935-1.836-1.147-2.989-0.633c-0.588,0.265-1.313-0.123-1.447-0.747
	c-0.094-0.438,0.116-0.841,0.534-1.028c2.783-1.25,5.52,0.157,6.751,3.328c0.839,2.166,0.913,5.236-0.739,7.253
	c1.243,0.556,2.862,1.147,4.396,1.147c1.33,0,2.444-0.426,3.407-1.3c0.028-0.025,0.05-0.053,0.073-0.079l0.088-0.097
	c1.248-1.343,1.172-3.115,0.896-4.376c-0.225-1.028-0.854-2.121-1.575-2.121c-0.381,0-0.751,0.313-0.995,0.575
	c-0.472,0.51-1.352,0.314-1.627-0.313c-0.159-0.366-0.088-0.777,0.188-1.073c1.565-1.686,3.356-1.667,4.664-0.036
	c1.17,1.458,1.807,4.063,1.42,5.807c-0.073,0.327-0.166,0.644-0.281,0.954c2.849-0.39,5.9-1.252,6.707-3.848
	c-0.012-0.21,0.043-0.418,0.155-0.599c0.034-0.209,0.057-0.428,0.063-0.657c0.039-1.116-0.3-2.157-0.907-2.786
	c-0.438-0.454-1-0.685-1.668-0.685c-0.528,0.008-1.145,0.126-1.35,0.648c-0.215,0.545,0.064,1.339,0.679,1.931
	c0.293,0.282,0.383,0.687,0.234,1.054c-0.256,0.634-1.128,0.859-1.635,0.374c-1.688-1.627-1.452-3.08-1.161-3.802
	c0.522-1.296,1.984-2.201,3.556-2.201c1.327,0,2.473,0.628,3.226,1.768c0.523,0.792,0.854,1.705,0.974,2.683
	c2.81-2.311,4.808-4.635,5.521-8.002c0.213-1.004,0.153-1.747-0.172-2.147c-0.196-0.242-0.502-0.365-0.908-0.365
	c-1.231,0-2.823,1.104-3.154,2.188c-0.195,0.64,0.069,1.21,0.788,1.693c0.377,0.255,0.535,0.701,0.401,1.139
	c-0.191,0.628-0.922,0.92-1.464,0.555c-1.456-0.981-2.012-2.461-1.523-4.059c0.61-2,2.679-3.565,4.709-3.565
	c0.529,0,1.043,0.103,1.528,0.306c0.689,0.288,1.192,0.754,1.505,1.392c1.007-1.596,1.702-3.276,2.025-4.912
	c0.181-0.915-0.004-1.917-0.47-2.554c-0.314-0.429-0.738-0.677-1.262-0.735c-0.725-0.079-0.982,0.188-1.079,0.387
	c-0.419,0.857,0.291,2.785,0.82,3.463c0.249,0.319,0.291,0.73,0.111,1.098c-0.308,0.632-1.177,0.774-1.607,0.225
	c-2.171-2.783-1.645-4.741-0.821-5.895c0.566-0.792,1.529-1.265,2.577-1.265c0.799,0,1.551,0.273,2.116,0.771
	C117.982,65.811,112.792,72.769,111.469,74.401z"/>
</svg>
