<?xml version="1.0" encoding="utf-8"?>
<!-- Generator: Adobe Illustrator 16.0.0, SVG Export Plug-In . SVG Version: 6.00 Build 0)  -->
<!DOCTYPE svg PUBLIC "-//W3C//DTD SVG 1.1//EN" "http://www.w3.org/Graphics/SVG/1.1/DTD/svg11.dtd">
<svg version="1.1" id="Layer_1" xmlns="http://www.w3.org/2000/svg" xmlns:xlink="http://www.w3.org/1999/xlink" x="0px" y="0px"
	 width="126px" height="126px" viewBox="0 0 126 126" enable-background="new 0 0 126 126" xml:space="preserve">
<path d="M122.098,58.958c-0.01-0.252-0.014-0.387-0.014-0.387s-0.018,0.133-0.051,0.383c-0.023,0.25-0.104,0.611-0.205,1.061
	c-0.129,0.445-0.303,0.979-0.621,1.518c-0.324,0.533-0.787,1.068-1.426,1.465c-0.635,0.395-1.416,0.668-2.279,0.801
	c-0.865,0.127-1.803,0.131-2.771,0.045c-1.934-0.188-3.992-0.693-5.961-1.416c-0.99-0.344-1.928-0.779-2.879-1.242
	c-0.943-0.463-1.895-0.902-2.828-1.311c-0.949-0.398-1.871-0.742-2.822-0.959c-0.236-0.055-0.469-0.109-0.699-0.162
	c-0.227-0.039-0.443-0.059-0.658-0.084c-0.223-0.023-0.441-0.047-0.656-0.07c-0.213-0.01-0.42-0.02-0.623-0.027
	c-1.018-0.039-1.941,0.012-2.711,0.145c-0.264-0.227-0.58-0.449-0.957-0.674c0.061-0.031,0.117-0.063,0.184-0.092
	c0.15-0.057,0.307-0.115,0.465-0.176c0.32-0.123,0.656-0.252,1.008-0.387c0.355-0.119,0.742-0.211,1.135-0.326
	c0.391-0.115,0.799-0.227,1.232-0.299c0.43-0.08,0.869-0.18,1.324-0.252c0.457-0.059,0.926-0.119,1.402-0.18
	c0.955-0.09,1.949-0.174,2.963-0.174c1.01-0.039,2.059,0.02,3.082,0.074c1.043,0.072,2.086,0.145,3.111,0.217
	c1.031,0.076,2.059,0.092,3.053,0.066c0.994-0.076,1.965-0.16,2.842-0.455c0.449-0.102,0.85-0.314,1.248-0.477
	c0.393-0.182,0.732-0.43,1.078-0.627c0.307-0.254,0.602-0.498,0.879-0.73c0.25-0.262,0.475-0.521,0.691-0.76
	c0.23-0.225,0.365-0.5,0.531-0.721c0.156-0.23,0.307-0.434,0.426-0.631c0.426-0.811,0.67-1.273,0.67-1.273s-0.268,0.447-0.736,1.232
	c-0.125,0.189-0.287,0.383-0.451,0.604c-0.176,0.209-0.324,0.473-0.563,0.682c-0.225,0.223-0.459,0.465-0.713,0.707
	c-0.283,0.209-0.578,0.43-0.889,0.66c-0.344,0.172-0.682,0.393-1.064,0.547c-0.391,0.135-0.777,0.318-1.215,0.391
	c-0.846,0.236-1.785,0.268-2.744,0.291c-0.967-0.027-1.963-0.094-2.98-0.225c-1.021-0.125-2.061-0.252-3.098-0.381
	c-1.059-0.113-2.096-0.227-3.146-0.244c-1.043-0.053-2.074-0.021-3.072,0.02c-0.498,0.037-0.988,0.074-1.469,0.109
	c-0.48,0.053-0.949,0.129-1.406,0.191c-0.459,0.053-0.898,0.146-1.324,0.248c-0.424,0.1-0.84,0.176-1.23,0.285
	c-0.391,0.125-0.764,0.246-1.117,0.359c-0.178,0.059-0.35,0.115-0.518,0.168c-0.17,0.063-0.332,0.145-0.488,0.213
	c-0.314,0.141-0.609,0.275-0.881,0.398c-0.266-0.133-0.531-0.264-0.797-0.391c0.033-0.023,0.063-0.045,0.094-0.068
	c0.223-0.174,0.502-0.313,0.766-0.48c0.281-0.148,0.576-0.301,0.887-0.447c0.631-0.281,1.311-0.559,2.043-0.805
	c1.453-0.51,3.057-0.955,4.666-1.43c0.803-0.234,1.607-0.488,2.395-0.754c0.783-0.283,1.555-0.563,2.27-0.928
	c0.713-0.361,1.398-0.754,1.928-1.295c0.539-0.525,0.895-1.189,0.992-1.844c0-0.328,0.043-0.645-0.037-0.932
	c-0.027-0.143-0.053-0.283-0.078-0.42c-0.043-0.131-0.094-0.256-0.141-0.377c-0.152-0.496-0.418-0.865-0.58-1.193
	c-0.408-0.609-0.652-0.945-0.652-0.945s0.221,0.355,0.586,0.984c0.139,0.334,0.375,0.715,0.492,1.205
	c0.035,0.121,0.078,0.244,0.109,0.371c0.016,0.131,0.031,0.266,0.049,0.402c0.061,0.275-0.006,0.563-0.021,0.859
	c-0.129,0.584-0.479,1.143-0.998,1.588c-0.508,0.459-1.18,0.789-1.881,1.086c-0.701,0.303-1.473,0.523-2.252,0.748
	c-0.787,0.209-1.59,0.406-2.404,0.586c-1.623,0.365-3.266,0.705-4.803,1.131c-0.768,0.205-1.508,0.449-2.207,0.707
	c-0.35,0.137-0.686,0.283-1.012,0.428c-0.318,0.172-0.637,0.307-0.924,0.498c-0.291,0.186-0.574,0.35-0.82,0.566
	c-0.018,0.016-0.033,0.027-0.049,0.043c-3.512-1.49-7.188-2.406-11.137-2.273c-3.086,0.102-6.072,0.85-9.061,1.559
	c-1.65,0.393-3.301,0.791-4.939,1.223c-0.502,0.131-0.994,0.189-1.48,0.207c-0.488-0.018-0.979-0.076-1.48-0.207
	c-1.643-0.432-3.291-0.83-4.941-1.223c-2.988-0.709-5.975-1.457-9.061-1.559c-4.156-0.141-8.01,0.881-11.688,2.512
	c-0.197-0.146-0.406-0.281-0.627-0.422c-0.287-0.191-0.605-0.326-0.924-0.498c-0.326-0.145-0.664-0.293-1.012-0.428
	c-0.699-0.26-1.439-0.504-2.209-0.707c-1.535-0.426-3.178-0.766-4.803-1.131c-0.814-0.18-1.617-0.377-2.404-0.586
	c-0.779-0.225-1.551-0.445-2.252-0.748c-0.699-0.299-1.371-0.627-1.881-1.086c-0.518-0.445-0.867-1.004-0.996-1.588
	c-0.016-0.297-0.084-0.584-0.021-0.859c0.016-0.137,0.031-0.271,0.047-0.402c0.033-0.129,0.074-0.25,0.109-0.371
	c0.117-0.49,0.354-0.871,0.492-1.207c0.367-0.627,0.588-0.984,0.588-0.984s-0.244,0.34-0.654,0.947
	c-0.162,0.328-0.426,0.697-0.58,1.193c-0.045,0.121-0.096,0.246-0.139,0.377c-0.025,0.137-0.053,0.277-0.08,0.42
	c-0.08,0.287-0.035,0.604-0.035,0.932c0.096,0.654,0.453,1.318,0.99,1.844c0.529,0.541,1.215,0.934,1.928,1.295
	c0.717,0.365,1.488,0.645,2.271,0.928c0.787,0.266,1.59,0.52,2.395,0.754c1.607,0.475,3.213,0.922,4.666,1.428
	c0.73,0.248,1.412,0.525,2.041,0.807c0.313,0.146,0.605,0.299,0.887,0.447c0.213,0.137,0.43,0.256,0.625,0.387
	c-0.281,0.139-0.561,0.281-0.84,0.426c-0.193-0.088-0.391-0.178-0.602-0.273c-0.158-0.068-0.32-0.148-0.488-0.211
	c-0.168-0.055-0.342-0.111-0.518-0.168c-0.355-0.113-0.729-0.234-1.117-0.359c-0.391-0.109-0.809-0.186-1.232-0.285
	c-0.426-0.102-0.865-0.195-1.324-0.248c-0.457-0.063-0.924-0.141-1.404-0.191c-0.48-0.037-0.971-0.072-1.469-0.109
	c-0.998-0.041-2.029-0.072-3.074-0.02c-1.051,0.018-2.086,0.131-3.145,0.244c-1.039,0.129-2.078,0.256-3.1,0.381
	c-1.018,0.131-2.014,0.197-2.98,0.223c-0.959-0.021-1.896-0.053-2.742-0.289c-0.438-0.074-0.824-0.256-1.215-0.391
	c-0.385-0.154-0.721-0.375-1.064-0.547c-0.311-0.23-0.607-0.451-0.889-0.66c-0.256-0.242-0.488-0.484-0.713-0.707
	c-0.238-0.211-0.387-0.473-0.563-0.682c-0.164-0.221-0.326-0.414-0.453-0.604C5.01,51.714,4.74,51.265,4.74,51.265
	s0.244,0.463,0.672,1.273c0.117,0.197,0.27,0.402,0.422,0.633c0.168,0.221,0.305,0.494,0.533,0.723
	c0.217,0.236,0.441,0.496,0.691,0.758c0.279,0.232,0.572,0.475,0.879,0.729c0.346,0.199,0.688,0.447,1.078,0.629
	c0.4,0.162,0.801,0.375,1.25,0.477c0.877,0.293,1.848,0.379,2.84,0.453c0.992,0.027,2.023,0.012,3.053-0.064
	c1.027-0.072,2.068-0.145,3.111-0.217c1.025-0.055,2.074-0.113,3.082-0.076c1.014,0.002,2.01,0.086,2.965,0.176
	c0.475,0.061,0.943,0.121,1.402,0.18c0.455,0.072,0.893,0.172,1.322,0.252c0.434,0.072,0.842,0.184,1.234,0.299
	s0.777,0.207,1.133,0.326c0.352,0.135,0.688,0.264,1.008,0.387c0.154,0.059,0.305,0.115,0.451,0.17
	c-0.354,0.248-0.641,0.496-0.863,0.756c-0.748-0.119-1.635-0.166-2.607-0.129c-0.203,0.01-0.41,0.018-0.623,0.027
	c-0.213,0.023-0.434,0.047-0.654,0.07c-0.217,0.025-0.434,0.045-0.658,0.082c-0.23,0.055-0.463,0.109-0.699,0.164
	c-0.953,0.217-1.875,0.561-2.822,0.959c-0.934,0.408-1.887,0.848-2.828,1.311c-0.951,0.463-1.891,0.898-2.879,1.24
	c-1.971,0.725-4.027,1.23-5.963,1.418c-0.969,0.086-1.906,0.082-2.771-0.047c-0.861-0.131-1.643-0.404-2.279-0.801
	c-0.639-0.395-1.1-0.932-1.424-1.463c-0.32-0.539-0.492-1.074-0.621-1.518c-0.105-0.449-0.182-0.811-0.207-1.061
	c-0.031-0.25-0.049-0.383-0.049-0.383s-0.006,0.135-0.014,0.387c-0.016,0.252-0.01,0.625,0.039,1.102
	c0.068,0.471,0.164,1.055,0.449,1.682c0.283,0.617,0.74,1.293,1.436,1.809c0.686,0.523,1.557,0.914,2.508,1.113
	c0.947,0.203,1.969,0.277,3.004,0.219c1.037-0.061,2.102-0.191,3.152-0.438c1.055-0.236,2.109-0.541,3.141-0.908
	c1.035-0.375,2.039-0.855,2.979-1.33c0.953-0.471,1.857-0.963,2.754-1.387c0.895-0.406,1.773-0.809,2.607-1.053
	c0.209-0.064,0.416-0.127,0.617-0.191c0.213-0.051,0.436-0.082,0.646-0.129c0.207-0.041,0.41-0.082,0.609-0.121
	c0.205-0.027,0.406-0.055,0.604-0.082c0.838-0.104,1.604-0.152,2.273-0.145c-0.371,0.643-0.408,1.375-0.188,2.332
	c0.516,2.223,1.203,4.42,2.188,6.471c0.875,1.82,1.832,3.611,2.9,5.35c1.73,2.814,3.6,5.357,6.867,6.529
	c1.98,0.713,4.004,1.107,6.102,0.982c1.168-0.07,2.227-0.57,3.271-1.088c1.035-0.516,2.094-0.988,3.027-1.684
	c0.926-0.689,1.908-1.334,2.711-2.15c0,0,3.322-3.234,5.555-3.73c2.232,0.496,5.553,3.73,5.553,3.73
	c0.803,0.816,1.787,1.461,2.713,2.15c0.932,0.695,1.99,1.168,3.027,1.684c1.041,0.518,2.1,1.018,3.27,1.088
	c2.1,0.125,4.119-0.27,6.104-0.982c3.266-1.172,5.137-3.715,6.865-6.529c1.068-1.738,2.027-3.529,2.9-5.35
	c0.986-2.051,1.67-4.248,2.188-6.471c0.273-1.174,0.154-2.012-0.492-2.758c0.67-0.008,1.434,0.041,2.268,0.145
	c0.197,0.027,0.398,0.055,0.604,0.082c0.199,0.041,0.402,0.08,0.609,0.121c0.211,0.047,0.434,0.08,0.646,0.131
	c0.203,0.063,0.408,0.125,0.617,0.189c0.834,0.244,1.715,0.648,2.609,1.053c0.895,0.424,1.799,0.916,2.752,1.387
	c0.939,0.475,1.945,0.957,2.979,1.33c1.033,0.367,2.086,0.672,3.141,0.908c1.051,0.246,2.117,0.377,3.152,0.438
	c1.037,0.061,2.057-0.016,3.006-0.219c0.949-0.199,1.822-0.59,2.506-1.113c0.697-0.514,1.154-1.189,1.436-1.809
	c0.285-0.627,0.383-1.211,0.451-1.682C122.105,59.583,122.111,59.21,122.098,58.958z M46.83,70.397
	c-4.191-1.426-6.367-6.182-6.367-6.182s4.623-2.443,8.816-1.018c4.191,1.426,6.367,6.182,6.367,6.182S51.021,71.823,46.83,70.397z
	 M79.48,70.397c-4.191,1.426-8.814-1.018-8.814-1.018s2.174-4.756,6.367-6.182c4.191-1.426,8.814,1.018,8.814,1.018
	S83.674,68.972,79.48,70.397z"/>
</svg>
