<?xml version="1.0" encoding="utf-8"?>
<!-- Generator: Adobe Illustrator 16.0.0, SVG Export Plug-In . SVG Version: 6.00 Build 0)  -->
<!DOCTYPE svg PUBLIC "-//W3C//DTD SVG 1.1//EN" "http://www.w3.org/Graphics/SVG/1.1/DTD/svg11.dtd">
<svg version="1.1" id="Layer_1" xmlns="http://www.w3.org/2000/svg" xmlns:xlink="http://www.w3.org/1999/xlink" x="0px" y="0px"
	 width="126px" height="126px" viewBox="0 0 126 126" enable-background="new 0 0 126 126" xml:space="preserve">
<path d="M118.31,39.769c0.191-0.641-0.094-1.215-0.564-1.537c-0.25-0.682-0.49-1.361-0.758-2.045
	c-0.822,1.992-2.494,2.105-4.293,1.74c-2.501-0.514-5.002-1.143-7.498-1.795c-6.148-1.602-12.141-2.193-17.859-0.756
	c-4.379,1.1-8.457,2.762-12.135,5.129c-1.37,0.879-2.813,1.488-4.344,1.824c-1.578,0.182-3.251,0.092-5.023-0.266
	c-0.613-0.123-1.225-0.232-1.833-0.33c2.657-4.83-2.815-12.465,1.146-16.701c-8.049-0.102-11.887,1.025-15.258,5.811
	c-2.415,3.43-2.906,7.699-1.592,11.006c-0.302,0.066-0.611,0.119-0.904,0.195c-1.488-3.877-0.967-8.713,1.73-12.547
	c1.193-1.691,2.451-2.961,3.896-3.914c-0.991-2.488-1.519-4.943-0.521-7.32c-8.4,2.783-12.008,5.48-13.883,12.289
	c-1.414,5.135-0.306,10.598,2.482,13.963c-0.289,0.154-0.576,0.314-0.861,0.477c-1.146-2.742-3.499-5.574-6.668-7.703
	c-5.725-3.842-11.787,1.852-17.34-2.725c2.349,8.365,4.622,12.438,10.346,16.279c0.804,0.537,1.611,0.986,2.418,1.375
	c-0.035,0.037-0.069,0.076-0.105,0.113c-0.951,0.184-1.998-0.01-3.199-0.939c0.301,1.129,0.619,2.246,0.955,3.355
	C19.958,62.121,13.856,70.25,9.62,79.23c-4.406,9.338-6.186,20.949,2.809,28.162c9.21,7.383,22.053,7.068,32.666,3.475
	c12.484-4.229,23.453-12.529,33.186-21.211c3.621-3.23,7.1-6.623,10.453-10.139c0.648,0.244,1.313,0.518,1.997,0.822
	c1.878,0.838,3.661,1.383,5.562,1.723c8.6,1.533,15.83,0.934,20.85-5.148c3.104-3.758,4.537-8.471,4.926-13.709
	C122.646,55.427,121.068,47.671,118.31,39.769z M95.259,51.33c4.589-4.104,11.872-3.832,15.257-3.434
	c-4.216,6.582-9.044,12.813-14.001,18.773c-0.659,0.795-1.337,1.574-2.008,2.359c-2.569-0.406-4.376-0.979-4.376-0.979
	S89.12,56.818,95.259,51.33z M84.774,45.353c1.887,1.445,3.15,3.037,2.823,3.555c-0.329,0.516-2.12-0.238-4.003-1.684
	c-1.887-1.447-3.738-4.258-3.738-4.258S82.89,43.906,84.774,45.353z M81.632,50.583c1.739,2.584,2.603,5.004,1.928,5.41
	c-0.678,0.406-2.635-1.357-4.373-3.941c-1.742-2.582-2.775-6.662-2.775-6.662S79.892,48.001,81.632,50.583z M70.995,45.601
	c0,0,4.275,5.543,5.773,10.121c1.5,4.578,1.672,8.461,0.383,8.676c-1.29,0.215-3.548-3.322-5.047-7.898
	C70.605,51.921,70.995,45.601,70.995,45.601z M66.009,47.626c0,0,1.611,3.982,1.654,6.848c0.042,2.865-0.617,5.066-1.476,4.916
	c-0.856-0.15-1.587-2.594-1.63-5.459C64.513,51.066,66.009,47.626,66.009,47.626z M58.489,50.234
	c0.791-1.893,2.927-3.693,2.927-3.693s0.087,3.105-0.705,4.998c-0.794,1.891-1.931,3.135-2.547,2.773
	C57.552,53.951,57.696,52.125,58.489,50.234z M54.575,58.105c8.911,2.982,14.979,13.373,14.979,13.373s-8.648,7.445-17.56,4.465
	C43.086,72.96,37.29,60.681,37.29,60.681S45.665,55.123,54.575,58.105z M63.666,82.925c-1.71-1.334-4.584,0.418-5.95,1.035
	c-1.713,0.775-3.608,1.695-5.648,1.664c-3.559-0.061-6.562-4.145-5.027-7.313c1.53-3.15,5.787-1.855,7.018,1.646
	c0.203,0.572-0.625,0.709-0.826,0.137c-1.225-3.482-4.999-3.34-5.71-0.381c-0.366,1.527,0.8,3.473,2.154,4.428
	c1.177,0.828,2.654,0.615,3.784,0.385c2.711-0.553,7.182-4.445,10.39-2.451c3.869,2.406-1.595,11.051-3.29,2.352
	c-0.111-0.58,0.766-0.471,0.877,0.105C62.679,90.912,65.753,84.552,63.666,82.925z M33.587,60.113
	c-4.707,4.652,3.209,7.922,7.199,9.818c3.054,1.449,3.656,3.994,3.891,7.016c0.043,0.578-0.829,0.475-0.875-0.104
	c-0.217-2.77-0.68-5.023-3.552-6.238c-1.85-0.781-3.703-1.553-5.413-2.744c-3.738-2.6-4.762-5.639-1.919-8.449
	C33.288,59.048,33.956,59.75,33.587,60.113z M65.341,96.685c-10.013,7.354-22.012,14.051-34.775,13.982
	c-6.277-0.035-13.115-2.227-17.744-6.551c-4.252-3.975-4.799-9.832-3.689-15.244c2.375-11.58,10.387-22.225,18.476-31.148
	c2.362,6.943,5.569,13.48,10.308,19.496c3.602,4.574,7.813,8.348,12.931,10.736c8.278,3.865,15.544,2.051,22.302-2.041
	c1.493-0.904,2.754-1.957,3.917-3.301c1.839-2.125,3.864-3.717,5.952-4.066c0.836-0.139,1.77-0.084,2.772,0.107
	C79.458,85.203,72.659,91.308,65.341,96.685z M97.806,69.375c1.771-2.111,3.51-4.248,5.207-6.414c3.34-4.262,6.596-8.66,9.565-13.23
	c0.423,3.568,0.91,12.447-3.931,16.777C105.765,69.083,101.513,69.572,97.806,69.375z M114.483,75.228
	c-1.809,0.674-4.076,0.447-6.094,0.293c-1.611-0.121-5.275-0.785-5.98,0.951c-0.859,2.117,5.846,6.848,2.998,0.736
	c-0.256-0.551,0.46-0.926,0.721-0.369c3.883,8.334-6.385,2.309-4.408-1.072c1.636-2.801,8.063-0.723,10.833-1.082
	c1.157-0.15,2.616-0.428,3.155-1.541c0.621-1.283,0.459-3.396-0.817-4.65c-2.476-2.43-5.948-1.363-4.882,2.146
	c0.174,0.576-0.652,0.715-0.828,0.137c-1.071-3.529,1.942-6.033,5.27-3.691C117.794,69.439,117.638,74.052,114.483,75.228z
	 M118.599,54.458c-0.939,1.695-2.189,2.967-3.38,4.436c-1.585,1.951-0.479,4.111,0.921,6.449c0.318,0.533-0.403,0.9-0.722,0.369
	c-1.618-2.705-2.774-5.334-0.868-7.518c2.522-2.893,7.361-8.432,0.355-11.076c-0.267-0.102-0.363-0.346-0.336-0.551
	c0.057-0.094,0.117-0.186,0.174-0.279c0.083-0.047,0.193-0.061,0.326-0.01c1.594,0.602,3.814,1.639,4.295,3.584
	C119.785,51.57,119.338,53.123,118.599,54.458z M3.813,29.738c5.555,4.574,11.613-1.117,17.34,2.725
	c1.152,0.773,2.193,1.645,3.111,2.568c-2.676,0.332-5.023,0.486-7.223-1.324l-2.96-2.439l1.005,3.576
	c1.73,6.164,3.514,10.463,7.173,14.092c-2.456-0.092-5.331-1.063-8.097-2.918C8.437,42.175,6.162,38.103,3.813,29.738z
	 M10.731,22.041l-1.921-1.699l2.313,0.164c7.513,0.531,12.106,1.73,17.149,6.861c0.115,0.604,0.251,1.221,0.424,1.871
	c0.568,2.139,1.485,4.102,2.609,5.764c-1.974-0.514-3.912-0.357-5.723-0.135c-0.473-0.582-0.981-1.15-1.535-1.699
	c-2.933-2.906-6.717-2.754-10.277-3.275C13.464,26.919,13.084,24.126,10.731,22.041z M28.901,28.011
	c-0.211-0.225-0.418-0.432-0.629-0.645c-1.022-5.424,0.34-9.141,4.244-14.699c0.727,4.678,5.322,6.992,8.645,10.141
	c-1.881,1.824-3.208,4.174-4.117,7.477c-0.732,2.666-0.799,5.422-0.33,7.971c-0.768-0.688-1.588-1.336-2.464-1.922
	c-0.246-0.166-0.491-0.313-0.74-0.447C32.774,33.277,31.206,30.49,28.901,28.011z"/>
</svg>
