<?xml version="1.0" encoding="utf-8"?>
<!-- Generator: Adobe Illustrator 16.0.0, SVG Export Plug-In . SVG Version: 6.00 Build 0)  -->
<!DOCTYPE svg PUBLIC "-//W3C//DTD SVG 1.1//EN" "http://www.w3.org/Graphics/SVG/1.1/DTD/svg11.dtd">
<svg version="1.1" id="Layer_1" xmlns="http://www.w3.org/2000/svg" xmlns:xlink="http://www.w3.org/1999/xlink" x="0px" y="0px"
	 width="126px" height="126px" viewBox="0 0 126 126" enable-background="new 0 0 126 126" xml:space="preserve">
<path d="M118.846,21.21c-0.24-1.561-1.658-2.672-3.221-2.539c-3.951,0.328-7.586,1.082-11.115,2.309
	c-5.557,1.928-10.573,4.742-14.919,8.367l-0.065-0.018c-3.017-0.809-6.137-1.646-9.27-2.336c-4.725-1.037-9.582-1.641-14.437-1.793
	c-4.437-0.139-9.04,0.072-14.099,0.648c-5.155,0.584-10.323,1.686-15.361,3.27c-0.044,0.014-0.083,0.025-0.119,0.035
	c-0.412-0.389-0.827-0.668-1.172-0.9c-0.13-0.09-0.265-0.176-0.387-0.273c-4.434-3.551-9.652-6.236-15.512-7.98
	c-2.813-0.838-5.589-1.33-8.484-1.508c-1.502-0.096-2.837,0.936-3.132,2.408c-0.038,0.191-0.08,0.377-0.12,0.561
	c-0.104,0.477-0.212,0.969-0.285,1.514c-0.642,4.803-0.571,9.713,0.207,14.594c0.96,6.014,2.768,11.557,5.376,16.49
	c-1.297,2.973-2.113,6.299-2.488,10.143c-0.758,7.758,0.671,15.244,4.248,22.25c2.838,5.555,6.923,10.275,12.146,14.029
	c4.793,3.445,9.304,5.027,14.714,6.66c5.411,1.635,11.047-3.848,21.648-3.777c9.998,0.064,12.534,4.152,19.509,4.152
	c0,0,0.254-0.057,0.252-0.057c3.836-1.051,7.268-2.385,10.492-4.078c5.832-3.061,10.682-7.305,14.416-12.617
	c4.121-5.861,6.549-12.533,7.219-19.83c0.529-5.766-0.233-11.352-2.278-16.643l0.409-0.906c1.171-2.596,2.382-5.277,3.387-8.045
	c1.624-4.479,2.539-9.281,2.797-14.678C119.322,28.126,119.391,24.759,118.846,21.21z M54.482,77.776c0,0-11.571,1.176-17.981-5.234
	c-6.41-6.412-5.234-17.982-5.234-17.982s11.57-1.174,17.98,5.236C55.658,66.206,54.482,77.776,54.482,77.776z M90.674,72.542
	c-6.411,6.41-17.981,5.234-17.981,5.234s-1.175-11.57,5.235-17.98s17.98-5.236,17.98-5.236S97.085,66.132,90.674,72.542z"/>
</svg>
