<?xml version="1.0" encoding="utf-8"?>
<!-- Generator: Adobe Illustrator 16.0.0, SVG Export Plug-In . SVG Version: 6.00 Build 0)  -->
<!DOCTYPE svg PUBLIC "-//W3C//DTD SVG 1.1//EN" "http://www.w3.org/Graphics/SVG/1.1/DTD/svg11.dtd">
<svg version="1.1" id="Layer_1" xmlns="http://www.w3.org/2000/svg" xmlns:xlink="http://www.w3.org/1999/xlink" x="0px" y="0px"
	 width="126px" height="126px" viewBox="0 0 126 126" enable-background="new 0 0 126 126" xml:space="preserve">
<path d="M21.874,43.626c-0.527,0.832-1.125,1.578-1.826,2.194c2.052-6.432,6.849-10.06,13.225-12.027
	c4.801-1.481,9.755-2.108,14.75-2.508c4.91-0.393,9.823-0.528,14.205-0.468c8.372-0.065,16.185,0.177,23.932,1.44
	c2.95,0.482,5.837,1.208,8.642,2.27c5.567,2.105,9.164,5.76,10.982,10.818c-0.827-0.875-1.631-1.775-2.358-2.73
	c-3.898-5.128-9.096-7.337-15.376-6.4c-6.55,0.974-10.795,4.883-12.75,11.26c-0.296,0.966-0.176,1.426,0.726,1.996
	c2.832,1.799,3.642,5.346,2.019,8.207c-1.15,2.027-3.458,2.952-5.737,2.297c-2.151-0.616-3.722-2.529-3.651-4.446
	c0.051-1.41,1.396-2.785,2.802-2.834c1.742-0.062,1.419,1.321,1.564,2.411c1.443-0.235,2.312-0.995,2.31-2.422
	c-0.001-0.62-0.203-1.483-0.635-1.808c-0.909-0.68-2.031-1.077-3.281-1.697c0.808-1.211,1.729-2.518,2.576-3.873
	c2.502-4.003,0.731-8.477-3.833-9.719c-2.643-0.718-5.055-0.161-7.191,1.472c-0.42-0.289-0.73-0.527-1.062-0.727
	c-3.629-2.188-8.6-0.915-10.423,2.684c-1.188,2.343-0.713,4.521,0.709,6.605c0.849,1.242,1.636,2.528,2.54,3.931
	c-2.888,0.314-4.124,1.271-4.109,3.012c0.012,1.494,0.823,2.31,2.311,2.519c0.134-2.009,0.559-2.549,1.798-2.366
	c1.53,0.227,2.689,1.628,2.565,3.193c-0.162,2.021-1.446,3.221-3.204,3.893c-1.906,0.729-3.738,0.503-5.259-0.985
	c-2.703-2.645-2.128-7.152,1.122-9.428c0.42-0.295,0.888-1.04,0.8-1.466c-1.596-7.757-9.84-13.161-17.698-11.744
	C28.229,37.05,24.496,39.488,21.874,43.626z M107.373,55.37c0.153,3.82-0.017,7.647-0.176,11.475
	c-0.183,4.396-0.51,8.773-1.519,13.069c-0.638,2.72-1.517,5.35-2.969,7.765c-2.149,3.572-5.222,5.892-9.291,6.81
	c-4.241,0.957-8.492,0.853-12.707-0.165c-3.158-0.765-5.681-2.602-7.904-4.914c-1.759-1.831-3.203-3.959-5.182-5.579
	c-2.839-2.328-6.045-2.376-8.997-0.208c-1.387,1.018-2.409,2.375-3.518,3.649c-2.344,2.696-4.765,5.343-8.254,6.531
	c-5.183,1.761-10.47,1.855-15.705,0.272c-3.818-1.153-6.52-3.757-8.368-7.261c-2.047-3.884-2.923-8.102-3.421-12.404
	c-0.734-6.343-0.878-12.715-0.754-19.093c2.306-0.466,4.497-1.758,6.008-3.903c0.427-0.605,0.826-1.229,1.288-1.92
	c2.306,4.488,5.201,5.867,8.715,4.288c2.354-1.058,3.194-2.946,2.22-5.521c-0.264,0.424-0.401,0.655-0.548,0.878
	c-0.942,1.42-2.351,1.917-3.705,1.305c-1.28-0.576-1.829-1.915-1.45-3.535c0.633-2.699,3.53-4.381,6.384-3.705
	c3.707,0.88,5.795,3.781,6.403,8.432c0.27,2.07,0.747,4.183,1.554,6.098c1.39,3.304,5.177,4.884,8.663,3.941
	c3.342-0.905,5.523-3.841,5.136-7.228c-0.161-1.412-0.779-2.771-1.191-4.153c-0.648-2.181-1.614-4.328-1.843-6.552
	c-0.169-1.653,0.476-3.456,1.063-5.083c0.637-1.3,1.701-1.527,2.461-1.155c0.832,0.407,1.082,1.604,0.558,2.68
	c-0.403,0.819-1.142,1.323-1.841,1.333c-0.297,0.061-0.607,0.041-1.151,0.173c0.766,0.644,1.213,1.238,1.798,1.45
	c0.589,0.213,1.316,0.048,2.424,0.048c-1.022,0.627-1.683,1.031-2.369,1.452c3.365,1.517,7.464,0.185,7.466,0.144
	c-0.652-0.418-1.279-1.041-1.905-1.442c1.572,0.069,2.98,0.163,3.504-1.802c-0.034-0.008-0.058-0.013-0.09-0.018
	c-0.814,0.299-1.83-0.228-2.33-1.245c-0.524-1.074-0.274-2.272,0.558-2.679c0.57-0.281,1.26-0.109,1.81,0.366
	c0.341,0.31,0.692,0.867,0.817,1.188c0.579,1.467,1.008,3.216,0.713,4.674c-0.615,3.031-1.751,5.957-2.689,8.922
	c-0.823,2.603-0.471,4.951,1.479,6.949c2.012,2.064,4.471,2.639,7.209,1.965c3.624-0.894,5.148-3.649,5.89-6.979
	c0.435-1.951,0.586-3.973,1.096-5.902c0.913-3.457,3.895-5.75,7.161-5.721c2.558,0.023,4.987,2.029,5.01,4.437
	c0.007,0.921-0.5,2.163-1.2,2.683c-0.633,0.47-1.937,0.401-2.783,0.107c-0.717-0.251-1.204-1.163-1.789-1.78
	c-0.813,1.652-0.511,3.188,0.879,4.412c2.789,2.454,7.24,1.716,9.09-1.511c0.342-0.597,0.645-1.214,1.031-1.946
	c0.468,0.741,0.803,1.313,1.178,1.857C102.817,53.525,105.004,54.907,107.373,55.37z M56.195,75.233
	c-1.022-3.794-2.612-7.275-5.856-9.734c-2.402-1.816-5.136-2.605-7.687-2.489c-4.622-0.017-8.42,1.321-12.059,3.205
	c-1.298,0.67-1.461,1.431-0.68,2.725c2.836,4.708,6.898,7.304,12.472,7.77c4.213,0.353,8.375-0.33,12.565-0.152
	C55.792,76.593,56.451,76.182,56.195,75.233z M95.46,66.215c-3.638-1.884-7.438-3.222-12.061-3.205
	c-2.549-0.116-5.283,0.673-7.685,2.489c-3.246,2.459-4.833,5.94-5.856,9.734c-0.255,0.948,0.403,1.359,1.244,1.323
	c4.188-0.178,8.352,0.505,12.565,0.152c5.574-0.466,9.634-3.062,12.472-7.77C96.92,67.646,96.758,66.885,95.46,66.215z
	 M11.817,41.975c-0.185,0.141-0.379,0.27-0.56,0.416l-0.502,0.483c-0.3,0.356-0.598,0.716-0.835,1.123
	c-0.14,0.191-0.226,0.413-0.332,0.624c-0.114,0.207-0.195,0.429-0.268,0.656c-0.171,0.441-0.267,0.915-0.337,1.384
	c-0.069,0.474-0.086,0.949-0.08,1.428l0.062,0.714l0.145,0.699c0.13,0.456,0.292,0.903,0.511,1.323l0.073,0.163l0.002,0.005
	c-0.011-0.018,0.016,0.023-0.004-0.005l0.02,0.031l0.056,0.083l0.222,0.335l0.444,0.665c0.332,0.345,0.624,0.697,0.989,1.022
	l0.584,0.461l0.294,0.235l0.328,0.183l0.661,0.371c0.219,0.129,0.469,0.185,0.702,0.29c0.239,0.088,0.473,0.201,0.72,0.27
	l0.753,0.174c0.502,0.152,1.025,0.148,1.55,0.217c0.525,0.041,1.054-0.008,1.596-0.008c-0.519,0.107-1.042,0.289-1.583,0.342
	c-0.54,0.022-1.093,0.134-1.641,0.055l-0.829-0.068c-0.276-0.032-0.543-0.114-0.817-0.171c-0.559-0.095-1.072-0.324-1.594-0.546
	l-0.394-0.167l-0.363-0.222l-0.729-0.453c-0.461-0.341-0.901-0.779-1.326-1.183l-0.499-0.627l-0.249-0.313l-0.063-0.078l-0.03-0.039
	l-0.016-0.021l-0.008-0.01l-0.042-0.064l-0.111-0.193c-0.315-0.505-0.538-1.057-0.729-1.617l-0.222-0.86l-0.123-0.876
	c-0.04-0.587-0.055-1.182,0.028-1.766c0.076-0.584,0.188-1.169,0.389-1.726c0.087-0.284,0.188-0.563,0.322-0.828
	c0.128-0.271,0.238-0.547,0.406-0.796c0.292-0.523,0.668-0.995,1.072-1.438l0.661-0.616c0.236-0.187,0.488-0.353,0.732-0.527
	c0.24-0.184,0.525-0.293,0.787-0.439c0.261-0.15,0.543-0.252,0.827-0.347c0.555-0.233,1.146-0.309,1.726-0.42h0.005
	c0.445-0.085,0.874,0.208,0.958,0.652c0.051,0.26-0.032,0.519-0.197,0.702l-0.614,0.68l-0.307,0.34
	c-0.088,0.079-0.146,0.202-0.223,0.302c-0.159,0.198-0.263,0.435-0.378,0.664c-0.101,0.234-0.186,0.483-0.255,0.731
	c-0.054,0.253-0.115,0.508-0.115,0.765c-0.038,0.261,0.017,0.506,0.029,0.76c0.065,0.198,0.056,0.39,0.237,0.688l0.097,0.194
	l0.024,0.033l0.055,0.07c0.08,0.09,0.131,0.207,0.231,0.282l0.28,0.254l0.331,0.205c0.226,0.13,0.478,0.232,0.739,0.306l0.398,0.104
	l0.414,0.051c0.285,0.051,0.542,0.008,0.828,0.015l0.453-0.071l0.208-0.031l0.211-0.058c0.286-0.072,0.574-0.147,0.846-0.269
	c0.285-0.1,0.544-0.238,0.815-0.373c0.274-0.13,0.521-0.32,0.784-0.479c-0.224,0.21-0.422,0.445-0.668,0.637
	c-0.24,0.197-0.49,0.396-0.763,0.548c-0.264,0.178-0.549,0.31-0.839,0.441l-0.217,0.102l-0.237,0.074l-0.438,0.136
	c-0.321,0.049-0.67,0.146-0.996,0.137l-0.5,0.011l-0.501-0.062c-0.332-0.054-0.667-0.146-0.987-0.282l-0.476-0.228l-0.441-0.311
	c-0.153-0.098-0.265-0.25-0.398-0.377l-0.096-0.103l-0.047-0.051l-0.025-0.026l-0.051-0.078l-0.12-0.196
	c-0.163-0.214-0.312-0.624-0.437-1.003c-0.062-0.352-0.152-0.707-0.137-1.059c-0.025-0.356,0.021-0.703,0.068-1.054
	c0.061-0.343,0.151-0.687,0.276-1.014 M9.67,50.957l0.002,0.005c-0.003-0.006-0.004-0.006-0.009-0.016L9.67,50.957z M118.744,48.196
	c-0.015,0.294-0.102,0.582-0.151,0.871c-0.061,0.288-0.104,0.579-0.221,0.853l-0.304,0.828c-0.115,0.269-0.275,0.519-0.417,0.774
	c-0.257,0.529-0.681,0.949-1.026,1.412l-0.66,0.616l-0.333,0.3l-0.335,0.223l-0.674,0.436c-0.321,0.175-0.526,0.262-0.793,0.396
	c-0.517,0.219-1.036,0.434-1.583,0.553c-0.269,0.077-0.54,0.135-0.817,0.17c-0.275,0.044-0.545,0.095-0.824,0.102
	c-0.551,0.049-1.101,0.021-1.645-0.027c-0.551-0.059-1.068-0.189-1.587-0.331l0.805,0.032c0.268,0,0.531-0.026,0.792-0.031
	c0.523-0.042,1.042-0.115,1.546-0.24c0.255-0.042,0.5-0.127,0.747-0.202c0.248-0.07,0.49-0.158,0.724-0.265
	c0.476-0.188,0.931-0.425,1.37-0.677l0.605-0.386l0.621-0.509l0.311-0.251l0.235-0.264l0.47-0.52
	c0.251-0.42,0.583-0.783,0.753-1.243c0.094-0.223,0.215-0.432,0.3-0.655l0.213-0.689c0.088-0.224,0.107-0.465,0.144-0.702
	c0.026-0.238,0.093-0.471,0.089-0.711c-0.01-0.479,0.026-0.957-0.073-1.428c-0.034-0.212-0.06-0.525-0.098-0.655l-0.223-0.769
	c-0.063-0.286-0.186-0.422-0.272-0.638c-0.095-0.196-0.168-0.398-0.317-0.588l-0.389-0.577c-0.162-0.166-0.317-0.338-0.47-0.511
	c-0.14-0.188-0.341-0.316-0.518-0.467c-0.184-0.143-0.35-0.313-0.564-0.413l-0.319-0.188c0.051,0.111,0.107,0.224,0.14,0.332
	c0.124,0.34,0.228,0.686,0.271,1.045c0.079,0.352,0.054,0.726,0.064,1.085c-0.047,0.369-0.069,0.733-0.206,1.095
	c-0.056,0.181-0.105,0.36-0.21,0.529c-0.11,0.186-0.146,0.305-0.323,0.539l-0.313,0.354c-0.106,0.115-0.302,0.254-0.454,0.37
	c-0.161,0.136-0.325,0.223-0.489,0.296c-0.167,0.071-0.323,0.175-0.499,0.213c-0.342,0.107-0.685,0.196-1.034,0.216
	c-0.345,0.062-0.69,0.004-1.029-0.006c-0.332-0.069-0.67-0.103-0.983-0.22c-0.315-0.108-0.636-0.213-0.914-0.347
	c-0.293-0.134-0.594-0.29-0.864-0.496c-0.278-0.234-0.458-0.484-0.648-0.734l-0.578-0.75l0.722,0.611
	c0.241,0.201,0.481,0.425,0.716,0.556c0.256,0.132,0.538,0.222,0.833,0.297c0.311,0.09,0.598,0.139,0.889,0.193
	c0.288,0.063,0.586,0.044,0.872,0.065c0.286-0.041,0.576-0.024,0.846-0.109c0.278-0.045,0.533-0.149,0.78-0.255
	c0.131-0.043,0.229-0.139,0.344-0.201c0.118-0.067,0.223-0.139,0.292-0.222c0.082-0.091,0.159-0.121,0.252-0.245l0.281-0.378
	c0.003-0.019,0.08-0.198,0.121-0.286c0.061-0.103,0.079-0.231,0.104-0.354c0.075-0.234,0.06-0.505,0.079-0.759
	c-0.039-0.263-0.029-0.525-0.116-0.782c-0.056-0.262-0.139-0.515-0.246-0.76c-0.092-0.26-0.225-0.427-0.339-0.658l-0.284-0.374
	l-0.071-0.095l-0.031-0.043l-0.004-0.005l-0.158-0.165l-0.631-0.665l-0.028-0.028c-0.313-0.331-0.299-0.854,0.032-1.167
	c0.209-0.197,0.501-0.265,0.763-0.203c0.567,0.141,1.157,0.196,1.701,0.441c0.275,0.109,0.556,0.205,0.826,0.326l0.781,0.439
	c0.27,0.132,0.495,0.336,0.734,0.519c0.232,0.189,0.486,0.357,0.68,0.593c0.208,0.219,0.412,0.443,0.61,0.669l0.497,0.756
	c0.176,0.24,0.297,0.54,0.425,0.828c0.114,0.279,0.286,0.603,0.331,0.845l0.211,0.771l0.026,0.097l0.021,0.088l0.003,0.028
	l0.007,0.056l0.027,0.219l0.053,0.44C118.84,47.014,118.765,47.609,118.744,48.196z M111.798,41.512
	c0,0.002,0.001,0.004,0.001,0.004l0,0l-0.003-0.004C111.799,41.514,111.798,41.512,111.798,41.512z"/>
</svg>
