<?xml version="1.0" encoding="utf-8"?>
<!-- Generator: Adobe Illustrator 16.0.0, SVG Export Plug-In . SVG Version: 6.00 Build 0)  -->
<!DOCTYPE svg PUBLIC "-//W3C//DTD SVG 1.1//EN" "http://www.w3.org/Graphics/SVG/1.1/DTD/svg11.dtd">
<svg version="1.1" id="Layer_1" xmlns="http://www.w3.org/2000/svg" xmlns:xlink="http://www.w3.org/1999/xlink" x="0px" y="0px"
	 width="126px" height="126px" viewBox="0 0 126 126" enable-background="new 0 0 126 126" xml:space="preserve">
<path fill-rule="evenodd" clip-rule="evenodd" d="M114.451,47.426c-10.051-7.789-8.85-9.451-25.25-9.451H36.768
	c-9.123-0.305-19.662,4.864-25.25,10.451c-2.879,2.879-4.51,3.666-3.775,6.832c0.873,3.764,2.035,7.488,3.703,10.959
	c1.48,3.084,3.104,6.117,4.912,9.061c2.93,4.768,6.098,9.072,11.629,11.059c3.357,1.205,6.781,1.876,10.334,1.662
	c1.98-0.119,3.773-0.967,5.539-1.843c1.756-0.87,3.549-1.673,5.127-2.851c1.566-1.169,3.232-2.257,4.592-3.641
	c0,0,5.627-5.478,9.406-6.32c3.779,0.843,9.404,6.32,9.404,6.32c1.361,1.384,3.027,2.472,4.594,3.641
	c1.578,1.178,3.373,1.98,5.127,2.851c1.766,0.876,3.559,1.724,5.539,1.843c3.553,0.214,6.977-0.457,10.334-1.662
	c5.531-1.986,8.699-6.291,11.629-11.059c1.809-2.943,3.432-5.977,4.912-9.061c1.668-3.471,2.83-7.195,3.703-10.959
	C118.961,52.092,117.738,50.454,114.451,47.426z M35.336,69.724c-7.1-2.414-10.781-10.468-10.781-10.468s7.828-4.138,14.928-1.723
	c7.102,2.414,10.783,10.468,10.783,10.468S42.436,72.139,35.336,69.724z M90.633,69.724c-7.102,2.415-14.932-1.723-14.932-1.723
	s3.684-8.054,10.785-10.468c7.098-2.415,14.928,1.723,14.928,1.723S97.732,67.31,90.633,69.724z"/>
</svg>
