<?xml version="1.0" encoding="utf-8"?>
<!-- Generator: Adobe Illustrator 16.0.0, SVG Export Plug-In . SVG Version: 6.00 Build 0)  -->
<!DOCTYPE svg PUBLIC "-//W3C//DTD SVG 1.1//EN" "http://www.w3.org/Graphics/SVG/1.1/DTD/svg11.dtd">
<svg version="1.1" id="Layer_1" xmlns="http://www.w3.org/2000/svg" xmlns:xlink="http://www.w3.org/1999/xlink" x="0px" y="0px"
	 width="126px" height="126px" viewBox="0 0 126 126" enable-background="new 0 0 126 126" xml:space="preserve">
<path fill-rule="evenodd" clip-rule="evenodd" d="M119.228,41.644c-0.025-0.406-0.294-0.757-0.681-0.886
	c-0.384-0.131-0.812-0.013-1.077,0.297c-1.154,1.348-2.379,1.575-4.474,0.803c-2.778-1.023-5.522-2.195-7.876-3.214
	c-7.423-3.214-14.13-4.528-20.677-4.048c-5.713,0.413-11.136,1.545-16.119,3.362c-1.807,0.658-3.613,1.032-5.28,1.11
	c-1.756-0.078-3.563-0.452-5.369-1.11c-4.983-1.817-10.406-2.949-16.119-3.362c-6.546-0.48-13.254,0.834-20.676,4.048
	c-2.354,1.019-5.098,2.19-7.877,3.214c-2.091,0.771-3.319,0.544-4.474-0.803c-0.266-0.31-0.692-0.428-1.077-0.297
	c-0.386,0.129-0.655,0.479-0.681,0.886c-0.75,11.979,0.65,21.543,4.406,30.101c2.715,6.189,6.361,10.812,11.147,14.129
	c8.349,5.791,17.532,7.121,26.996,3.906c1.834-0.623,3.464-1.732,5.041-2.806c0.309-0.211,0.617-0.421,0.926-0.626
	c3.094-2.059,5.719-3.103,7.8-3.103c2.021,0,4.443,0.986,7.625,3.104c0.308,0.204,0.616,0.414,0.925,0.625
	c1.577,1.073,3.207,2.183,5.04,2.806c3.362,1.142,6.719,1.721,9.976,1.721h0c5.911,0,11.637-1.894,17.02-5.626
	c4.786-3.318,8.433-7.94,11.147-14.13C118.577,63.187,119.977,53.622,119.228,41.644z M117.245,52.598
	c-0.032,0.48-0.065,0.958-0.106,1.43c-0.742,0.215-1.525,0.35-2.371,0.367c-1.252,0.027-2.515-0.448-3.772-0.71
	c-0.023,0.003-0.046,0.009-0.07,0.012c0.008-0.007,0.016-0.016,0.023-0.022c-0.009-0.002-0.019-0.005-0.029-0.007
	c0.012,0.001,0.023,0.001,0.035,0.001c0.166-0.148,0.316-0.361,0.508-0.406c2.041-0.487,3.326-1.874,4.433-3.546
	c0.488-0.739,0.975-1.22,1.514-1.485c-0.007,0.96-0.026,1.907-0.067,2.834c-0.071,0.027-0.143,0.052-0.209,0.088
	c-1.942,1.055-3.821,2.226-6.069,2.521C113.282,53.813,115.401,53.647,117.245,52.598z M112.918,71.095
	c-0.402-0.476-0.817-0.944-1.269-1.396c-1.955-1.954-4.019-3.403-6.175-4.402c0.461-0.833,0.874-1.672,1.239-2.499
	c0.126,0.027,0.253,0.049,0.379,0.079c3.044,0.722,5.568,2.026,7.504,3.811c-0.48,1.447-1,2.871-1.607,4.254
	C112.967,70.994,112.941,71.042,112.918,71.095z M70.772,84.014c-0.342-0.213-0.673-0.407-1-0.594
	c2.443-2.979,5.333-5.629,8.783-7.859c0.87-0.563,1.748-1.066,2.63-1.536c0.916,0.254,1.894,0.492,2.929,0.688
	c-3.086,1.208-6.066,2.874-8.924,5.071C73.542,81.052,72.084,82.475,70.772,84.014z M50.809,79.746
	c-2.838-2.182-5.796-3.84-8.858-5.047c1.029-0.196,2.001-0.435,2.911-0.688c0.867,0.464,1.729,0.96,2.583,1.513
	c3.464,2.24,6.364,4.901,8.813,7.894c-0.332,0.186-0.666,0.377-1.006,0.586C53.933,82.453,52.468,81.021,50.809,79.746z
	 M13.009,70.941c-0.611-1.393-1.134-2.826-1.616-4.282c1.937-1.789,4.464-3.097,7.514-3.819c0.121-0.029,0.243-0.049,0.364-0.076
	c0.365,0.828,0.777,1.669,1.238,2.503c-2.15,0.999-4.208,2.446-6.158,4.396c-0.455,0.455-0.875,0.929-1.279,1.409
	C13.051,71.027,13.029,70.986,13.009,70.941z M8.867,51.115c-0.066-0.036-0.139-0.061-0.209-0.088
	C8.617,50.1,8.597,49.153,8.59,48.193c0.54,0.266,1.026,0.746,1.515,1.485c1.106,1.672,2.392,3.059,4.433,3.546
	c0.192,0.045,0.342,0.258,0.508,0.406c0.012,0,0.023,0,0.035-0.001c-0.01,0.002-0.02,0.005-0.029,0.007
	c0.008,0.007,0.016,0.016,0.023,0.022c-0.024-0.003-0.046-0.009-0.07-0.012c-1.258,0.262-2.521,0.737-3.772,0.71
	c-0.847-0.018-1.631-0.152-2.374-0.368c-0.041-0.472-0.075-0.95-0.106-1.431c1.845,1.052,3.965,1.218,6.185,1.078
	C12.688,53.341,10.809,52.17,8.867,51.115z M12.997,47.665c1.949,1.488,4.197,2.315,6.527,2.993c0.021-0.113,0.046-0.16,0.033-0.189
	c-0.085-0.176-0.173-0.352-0.272-0.521c-1.407-2.404-2.318-4.846-2.749-7.314c0.711-0.286,1.407-0.57,2.09-0.856
	c0.643,3.45,2.305,6.731,4.965,9.372c-3.098,0.467-5.403,1.22-6.118,1.472c-0.537-0.135-1.071-0.275-1.597-0.443
	c-4.197-1.338-6.249-4.237-5.834-7.982c0.234,0.045,0.475,0.073,0.723,0.083C11.057,45.601,11.776,46.733,12.997,47.665z
	 M69.483,57.371c-0.052-0.354,0.427-0.787,0.673-1.187c0.422,0.263,1.045,0.443,1.203,0.817c0.121,0.289-0.344,0.823-0.675,1.514
	C70.117,58.008,69.536,57.729,69.483,57.371z M68.741,61.222c-0.764,0.126-1.324-0.263-1.481-1.039
	c-0.171-0.849,0.223-1.488,1.074-1.493c0.539-0.002,1.08,0.415,1.456,0.575C69.907,60.489,69.579,61.087,68.741,61.222z
	 M71.206,54.902c0.053-0.334,0.382-0.807,0.676-0.872c0.272-0.062,0.646,0.333,1.254,0.69c-0.557,0.409-0.854,0.792-1.167,0.808
	C71.708,55.539,71.177,55.084,71.206,54.902z M64.187,66.785c-0.265-0.925-0.544-1.909-0.83-2.891
	c-0.265-0.908,0.238-1.599,1.628-2.146C65.866,64.004,65.594,65.483,64.187,66.785z M62.643,63.857
	c-0.286,0.981-0.564,1.966-0.83,2.891c-1.407-1.302-1.679-2.781-0.798-5.037C62.404,62.259,62.908,62.949,62.643,63.857z
	 M55.844,56.147c0.246,0.399,0.725,0.833,0.673,1.187c-0.053,0.358-0.634,0.637-1.2,1.145c-0.332-0.69-0.796-1.225-0.675-1.514
	C54.799,56.591,55.422,56.41,55.844,56.147z M54.031,55.491c-0.313-0.016-0.609-0.398-1.167-0.808
	c0.608-0.357,0.982-0.752,1.254-0.69c0.293,0.065,0.623,0.538,0.676,0.872C54.823,55.047,54.292,55.502,54.031,55.491z
	 M56.21,59.228c0.376-0.16,0.917-0.577,1.456-0.575c0.851,0.005,1.245,0.645,1.074,1.493c-0.157,0.776-0.717,1.165-1.481,1.039
	C56.421,61.05,56.093,60.452,56.21,59.228z M47.933,47.897c2.149,3.936,4.525,7.763,7.011,11.498
	c2.745,4.121,5.527,8.216,8.056,12.463v0.037c2.529-4.247,5.311-8.342,8.056-12.463c2.486-3.735,4.862-7.563,7.011-11.498
	c1.819-3.333,2.284-6.966,0.672-10.579c-0.009-0.021-0.021-0.037-0.03-0.058c0.504-0.085,1.01-0.163,1.52-0.236
	c1.452,3.051,1.777,6.712,0.594,10.378c-1.375,4.26-3.81,7.945-6.34,11.57C70.623,64.542,66.507,69.902,63,75.672v-0.037
	c-3.507-5.77-7.623-11.13-11.483-16.662c-2.531-3.625-4.966-7.311-6.34-11.57c-1.178-3.652-0.858-7.3,0.58-10.344
	c0.508,0.073,1.014,0.151,1.517,0.236c-0.004,0.008-0.009,0.016-0.012,0.023C45.649,40.932,46.114,44.564,47.933,47.897z
	 M106.477,50.695c2.33-0.678,4.578-1.505,6.527-2.993c1.232-0.94,1.955-2.086,2.244-3.425c0.243-0.01,0.478-0.037,0.708-0.081
	c0.431,3.763-1.619,6.677-5.83,8.019c-0.506,0.161-1.02,0.299-1.536,0.428c-0.629-0.225-2.967-1.006-6.148-1.488
	c2.65-2.645,4.304-5.926,4.939-9.374c0.683,0.286,1.378,0.57,2.09,0.856c-0.428,2.48-1.341,4.934-2.755,7.349
	c-0.099,0.169-0.187,0.345-0.272,0.521C106.43,50.535,106.456,50.582,106.477,50.695z M100.949,71.125
	c1.381,0.289,2.774,0.673,4.178,1.164c0.387,0.135,0.762,0.305,1.124,0.55c-2.247-0.359-4.461-0.574-6.642-0.642
	C100.075,71.86,100.524,71.504,100.949,71.125z M96.807,71.591c-2.09,1.091-4.583,1.644-7.411,1.644
	c-5.503,0-10.826-2.097-12.748-2.941c0.85-2.709,4.132-11.638,11.424-15.442c2.651-1.384,5.817-2.085,9.412-2.085
	c4.355,0,8.196,1.046,9.79,1.548C106.681,57.316,104.131,67.77,96.807,71.591z M63,80.554v-0.037
	c-3.164-6.265-7.443-11.695-12.748-16.372c-0.743-0.655-1.505-1.282-2.28-1.888c-0.333-0.565-0.692-1.138-1.08-1.708
	C53.548,65.557,59.046,71.664,63,79.223v0.037c3.943-7.539,9.423-13.636,16.056-18.637c-0.384,0.568-0.737,1.137-1.066,1.699
	c-0.762,0.597-1.511,1.215-2.242,1.859C70.443,68.858,66.164,74.289,63,80.554z M36.604,73.234c-2.828,0-5.321-0.553-7.411-1.644
	c-7.312-3.814-9.87-14.273-10.465-17.277c1.594-0.502,5.436-1.548,9.789-1.548c3.595,0,6.761,0.701,9.412,2.085
	c7.278,3.797,10.57,12.734,11.423,15.443C47.432,71.14,42.118,73.234,36.604,73.234z M25.019,71.096
	c0.42,0.377,0.864,0.731,1.326,1.066c-2.166,0.069-4.364,0.283-6.596,0.64c0.361-0.245,0.737-0.415,1.124-0.55
	C22.266,71.765,23.648,71.384,25.019,71.096z M37.018,44.614c1.284-2.942-0.316-5.27-3.554-5.172
	c-3.772,0.114-6.259,4.3-4.722,7.962c0.618,1.471,1.605,2.597,2.791,3.528c-0.354-0.039-0.715-0.067-1.077-0.093
	c-0.445-0.415-0.875-0.843-1.263-1.293c-2.175-2.519-2.098-5.916-0.117-8.464c1.607-2.068,4.6-2.716,6.891-1.491
	C37.961,40.656,38.485,43.161,37.018,44.614z M49.565,60.456c-1.39-0.336-2.688-0.802-3.831-1.491
	c-0.914-1.164-1.953-2.289-3.13-3.311c-0.502-0.93-0.98-1.875-1.404-2.841c-1.401-3.185-3.777-5.242-7.104-6.231
	c5.106-0.266,9.708,2.206,11.704,6.503c1.188,2.556,2.194,5.174,4.545,6.971c-2.419-0.977-4.114-2.784-5.683-4.752
	C45.741,57.555,47.378,59.262,49.565,60.456z M96.807,49.584c-0.376,0.436-0.79,0.85-1.219,1.253
	c-0.355,0.024-0.711,0.05-1.059,0.087c1.158-0.922,2.121-2.037,2.728-3.482c1.537-3.662-0.949-7.848-4.722-7.962
	c-3.237-0.098-4.837,2.229-3.554,5.172c-1.467-1.453-0.943-3.958,1.051-5.022c2.291-1.225,5.283-0.577,6.891,1.491
	C98.905,43.668,98.982,47.065,96.807,49.584z M91.904,46.619c-3.327,0.989-5.703,3.047-7.104,6.231
	c-0.414,0.942-0.881,1.866-1.37,2.774c-1.213,1.049-2.282,2.208-3.217,3.406c-1.13,0.673-2.41,1.131-3.779,1.462
	c2.187-1.194,3.825-2.901,4.904-5.152c-1.569,1.968-3.264,3.775-5.683,4.752c2.352-1.797,3.358-4.415,4.545-6.971
	C82.196,48.825,86.798,46.354,91.904,46.619z M103.546,40.163c0.99,1.972,0.995,4.552-0.082,6.852
	c-0.697,1.486-1.813,2.831-3.076,3.891c-0.513-0.047-1.039-0.085-1.578-0.108c0.719-0.767,1.315-1.674,1.802-2.707
	c1.205-2.562,1.589-5.304,1.718-8.096c0.005-0.105,0.009-0.213,0.013-0.319C102.742,39.831,103.144,39.995,103.546,40.163z
	 M89,36.564c0.319,0.018,0.64,0.048,0.96,0.074C89.639,36.646,89.318,36.627,89,36.564z M36.278,36.615
	c0.053-0.004,0.106-0.012,0.159-0.016C36.383,36.604,36.331,36.614,36.278,36.615z M23.669,39.957
	c0.129,2.792,0.514,5.534,1.718,8.096c0.494,1.049,1.102,1.969,1.837,2.742c-0.538,0.023-1.061,0.061-1.573,0.106
	c-1.28-1.064-2.412-2.422-3.116-3.924c-1.068-2.28-1.075-4.837-0.11-6.803c0.413-0.173,0.824-0.341,1.232-0.501
	C23.662,39.768,23.665,39.864,23.669,39.957z M16.851,55.153c0.058,0.279,0.127,0.595,0.208,0.942
	c-1.257,0.12-2.515,0.233-3.774,0.314c-1.372,0.089-2.754,0.19-4.134,0.259c-0.053-0.408-0.114-0.81-0.159-1.224
	C11.611,55.397,14.23,55.289,16.851,55.153z M17.064,56.439c0.025-0.004,0.05-0.007,0.074-0.012
	c0.021,0.089,0.046,0.184,0.069,0.274c-2.743,0.854-5.196,2.22-7.386,4.047c-0.104-0.511-0.204-1.024-0.294-1.544
	C11.774,57.88,14.265,56.926,17.064,56.439z M17.553,57.983c0.119,0.414,0.251,0.849,0.397,1.299
	c-2.711,1.169-5.167,2.751-7.348,4.77c-0.139-0.514-0.273-1.03-0.398-1.554C12.354,60.62,14.821,59.132,17.553,57.983z
	 M51.501,75.589c-0.977-0.953-1.975-1.878-2.987-2.785c0.807-0.312,1.442-0.585,1.871-0.779c2.27,2.2,4.416,4.532,6.374,7.066
	c0.771,0.999,1.489,2.016,2.172,3.042c-0.434,0.17-0.881,0.369-1.335,0.587C55.813,80.198,53.786,77.818,51.501,75.589z
	 M50.322,67.052c-0.42-1.046-0.958-2.25-1.636-3.523c0.903,0.805,1.792,1.632,2.665,2.483c4.648,4.535,8.579,9.538,11.586,15.242
	c-0.526,0.01-1.075,0.07-1.646,0.182C58.431,76.117,54.753,71.233,50.322,67.052z M74.649,66.049
	c0.862-0.841,1.739-1.659,2.63-2.454c-0.673,1.272-1.209,2.475-1.625,3.515c-4.403,4.16-8.06,9.016-10.909,14.3
	c-0.566-0.104-1.119-0.164-1.657-0.164C66.092,75.561,70.014,70.571,74.649,66.049z M69.242,79.128
	c1.965-2.544,4.121-4.884,6.399-7.092c0.434,0.196,1.069,0.47,1.874,0.779c-1.022,0.914-2.03,1.849-3.016,2.811
	c-2.27,2.215-4.284,4.577-6.057,7.08c-0.455-0.225-0.9-0.43-1.328-0.601C67.785,81.101,68.487,80.105,69.242,79.128z M108.04,59.315
	c0.146-0.45,0.279-0.885,0.398-1.299c2.732,1.147,5.199,2.636,7.349,4.513c-0.125,0.521-0.258,1.039-0.397,1.552
	C113.208,62.063,110.752,60.482,108.04,59.315z M108.784,56.736c0.023-0.091,0.047-0.184,0.068-0.272
	c0.028,0.005,0.056,0.008,0.083,0.013c2.796,0.486,5.285,1.439,7.53,2.762c-0.091,0.52-0.19,1.033-0.294,1.543
	C113.982,58.955,111.528,57.591,108.784,56.736z M112.715,56.447c-1.263-0.082-2.523-0.195-3.783-0.315
	c0.082-0.347,0.151-0.662,0.209-0.942c2.621,0.137,5.242,0.245,7.862,0.292c-0.045,0.414-0.106,0.816-0.159,1.224
	C115.466,56.638,114.085,56.536,112.715,56.447z M48.678,87.885c-0.081,0.027-0.161,0.049-0.242,0.075
	c-0.438-0.226-0.875-0.453-1.323-0.663c-4.308-2.021-8.81-3.631-13.213-5.45c-0.84-0.349-1.627-0.827-2.438-1.245
	c0.06-0.117,0.119-0.234,0.179-0.351c7.922-0.284,15.053,1.328,21.198,5.337C51.497,86.498,50.114,87.398,48.678,87.885z
	 M73.189,85.606c6.139-3.995,13.26-5.603,21.17-5.318c0.06,0.116,0.119,0.233,0.179,0.351c-0.811,0.418-1.598,0.896-2.438,1.245
	c-4.403,1.819-8.905,3.429-13.213,5.45c-0.434,0.203-0.854,0.424-1.277,0.641c-0.097-0.032-0.192-0.057-0.289-0.09
	C75.896,87.402,74.523,86.511,73.189,85.606z M15.005,53.647c-0.023-0.003-0.045-0.009-0.068-0.011
	c0.037-0.003,0.072-0.003,0.109-0.006c0.002,0.002,0.004,0.004,0.006,0.006C15.036,53.64,15.02,53.645,15.005,53.647z
	 M110.955,53.668c0.037,0.003,0.072,0.003,0.109,0.006c-0.023,0.002-0.045,0.008-0.068,0.011c-0.015-0.003-0.031-0.008-0.046-0.011
	C110.951,53.672,110.953,53.67,110.955,53.668z"/>
</svg>
