<?xml version="1.0" encoding="utf-8"?>
<!-- Generator: Adobe Illustrator 16.0.0, SVG Export Plug-In . SVG Version: 6.00 Build 0)  -->
<!DOCTYPE svg PUBLIC "-//W3C//DTD SVG 1.1//EN" "http://www.w3.org/Graphics/SVG/1.1/DTD/svg11.dtd">
<svg version="1.1" id="Layer_1" xmlns="http://www.w3.org/2000/svg" xmlns:xlink="http://www.w3.org/1999/xlink" x="0px" y="0px"
	 width="126px" height="126px" viewBox="0 0 126 126" enable-background="new 0 0 126 126" xml:space="preserve">
<path fill-rule="evenodd" clip-rule="evenodd" d="M120.807,62.703c-0.234-7.888-3.381-14.38-9.478-19.376
	c-5.656-4.632-12.323-7.121-19.344-8.751c-9.511-2.209-19.186-2.797-28.915-2.771c-2.902,0.078-5.803,0.068-8.708,0.2
	c-5.646,0.256-11.25,0.78-16.798,1.838c-7.438,1.417-14.583,3.622-20.888,8.009c-5.967,4.153-9.798,9.697-11.044,16.931
	C4.605,64.74,5.36,70.528,7.406,76.157c2.729,7.508,7.92,12.622,15.373,15.455c5.076,1.93,10.356,2.511,15.756,2.569
	c5.509,0.061,10.348-1.585,14.638-5.015c2.172-1.737,4.08-3.782,6.35-5.399c2.375-1.693,4.363-1.725,6.795-0.118
	c1.67,1.104,3.096,2.502,4.573,3.835c3.611,3.258,7.598,5.834,12.545,6.407c6.39,0.74,12.675,0.139,18.789-1.912
	c7.271-2.437,12.601-7.065,15.733-14.11C120.102,73.046,120.963,67.965,120.807,62.703z M36.403,73.78
	c-8.166,0-14.783-7.807-14.783-7.807s6.617-7.807,14.783-7.807c8.164,0,14.781,7.807,14.781,7.807S44.567,73.78,36.403,73.78z
	 M92.212,73.78c-8.164,0-14.783-7.807-14.783-7.807s6.619-7.807,14.783-7.807s14.783,7.807,14.783,7.807S100.376,73.78,92.212,73.78
	z"/>
</svg>
