<?xml version="1.0" encoding="utf-8"?>
<!-- Generator: Adobe Illustrator 16.0.0, SVG Export Plug-In . SVG Version: 6.00 Build 0)  -->
<!DOCTYPE svg PUBLIC "-//W3C//DTD SVG 1.1//EN" "http://www.w3.org/Graphics/SVG/1.1/DTD/svg11.dtd">
<svg version="1.1" id="Layer_1" xmlns="http://www.w3.org/2000/svg" xmlns:xlink="http://www.w3.org/1999/xlink" x="0px" y="0px"
	 width="126px" height="126px" viewBox="0 0 126 126" enable-background="new 0 0 126 126" xml:space="preserve">
<path d="M93.079,27.892c0,0.63-0.045,1.147,0.007,1.654c0.579,5.715-1.864,10.28-7.101,12.463c-2.313,0.964-4.875,1.602-7.37,1.798
	c-4.215,0.332-3.41,0.54-4.07-3.168c-0.083-0.466-0.161-0.936-0.206-1.407c-0.252-2.626-0.493-5.254-0.737-7.882
	c-0.157-0.08-0.313-0.16-0.469-0.239c-1.35,1.749-2.64,3.551-4.084,5.219c-0.499,0.576-1.367,1.119-2.095,1.159
	c-2.543,0.139-5.1,0.006-7.649,0.073c-1.191,0.03-1.9-0.35-2.582-1.397c-1.163-1.786-2.606-3.388-3.932-5.067
	c-0.155,0.091-0.31,0.183-0.465,0.274c-0.073,0.756-0.143,1.513-0.22,2.27c-0.272,2.652-0.636,5.299-0.792,7.958
	c-0.112,1.901-0.92,2.667-2.784,2.313c-2.549-0.483-5.198-0.676-7.628-1.509c-5.772-1.98-8.625-6.83-7.989-12.934
	c0.05-0.485,0.006-0.979,0.006-1.578c-10.413,2.072-18.48,7.353-24.593,15.689C6.89,45.54,6.318,47.729,6.664,50.13
	c1.35,9.375,1.475,18.786,0.928,28.226c-0.16,2.75,0.147,5.489,1.661,7.887c3.725,5.9,8.825,9.973,15.689,11.719
	c1.121,0.285,1.511,0.031,1.996-0.964c0,0,20.041-4.694,30.079-11.414c3.354-2.246,5.59,13.364,5.59,9.649
	c0,3.806,2.484-11.731,6.158-9.432c10.415,6.519,30.383,11.46,30.383,11.46c0.405,0.795,0.755,0.975,1.633,0.764
	c3.76-0.903,7.157-2.535,10.085-5.034c4.467-3.813,7.969-8.167,7.553-14.548c-0.625-9.556-0.431-19.084,0.925-28.58
	c0.294-2.058-0.138-4.035-1.348-5.757C111.893,35.419,103.654,30.002,93.079,27.892z M30.995,78.051
	c-8.143,0-12.332-5.459-12.332-12.194s4.189-12.194,12.332-12.194s23.011,9.938,23.011,16.672S39.138,78.051,30.995,78.051z
	 M95.257,78.051c-8.143,0-23.011-0.982-23.011-7.716s14.868-16.672,23.011-16.672s12.332,5.459,12.332,12.194
	S103.4,78.051,95.257,78.051z"/>
</svg>
