<?xml version="1.0" encoding="utf-8"?>
<!-- Generator: Adobe Illustrator 16.0.0, SVG Export Plug-In . SVG Version: 6.00 Build 0)  -->
<!DOCTYPE svg PUBLIC "-//W3C//DTD SVG 1.1//EN" "http://www.w3.org/Graphics/SVG/1.1/DTD/svg11.dtd">
<svg version="1.1" id="Layer_1" xmlns="http://www.w3.org/2000/svg" xmlns:xlink="http://www.w3.org/1999/xlink" x="0px" y="0px"
	 width="126px" height="126px" viewBox="0 0 126 126" enable-background="new 0 0 126 126" xml:space="preserve">
<path d="M113.688,63.988c0,0-2.861-3.557-4.707-5.861l13.826,3.832l-14.722-12.256c-0.616-0.361-0.648-0.537-0.65-0.545
	c0,0-0.018-0.152,0.344-0.545c0.355-0.387,1.532-2.125,1.765-2.471l0.497-0.736l-0.834-0.307c-0.334-0.121-8.203-2.998-9.578-3.412
	c-0.032-0.037-0.085-0.244,0.063-0.645c1.152-2.631,4.498-6.082,4.533-6.119l1.428-1.465l-2.026,0.291c0,0-1.609,0.232-2.078,0.307
	l-0.915,0.148c-0.73,0.119-1.46,0.238-2.194,0.334c-2.673,0.35-5.427,0.385-8.089,0.418c-1.81,0.023-3.682,0.047-5.529,0.17
	c-9.481,0.621-16.048,4.643-20.075,12.297c-0.696,1.322-1.25,2.721-1.785,4.182c-0.512-1.391-1.046-2.725-1.711-3.986
	c-4.027-7.654-10.594-11.678-20.073-12.299c-1.849-0.121-3.72-0.146-5.53-0.168c-2.663-0.035-5.416-0.07-8.089-0.42
	c-0.734-0.094-1.463-0.213-2.194-0.334l-0.915-0.148c-0.469-0.072-2.078-0.305-2.078-0.305l-2.026-0.293l1.428,1.467
	c0.035,0.035,3.38,3.486,4.518,6.084c0.163,0.434,0.11,0.641,0.138,0.648c-1.436,0.443-9.304,3.32-9.639,3.443L15.958,45.6
	l0.497,0.738c0.232,0.344,1.41,2.082,1.765,2.469c0.361,0.395,0.344,0.545,0.344,0.547c-0.001,0.006-0.034,0.184-0.745,0.609
	L3.192,62.152l13.826-3.83c-1.846,2.303-4.707,5.861-4.707,5.861l-1.357,1.689l7.846-2.189c-1.973,6.527,6.623,16.605,7.017,17.063
	l1.067,1.238l0.153-1.629c0.049-0.521,0.166-1.561,0.326-2.564c3.259,7.453,9.888,10.678,17.525,13.773l2.409,0.977l-1.599-2.049
	c-1.743-2.234-4.232-6.574-5.609-9.053c0.287,0.131,0.551,0.252,0.745,0.34c1.279,0.574,3.085,0.867,5.37,0.867
	c3.711,0,7.406-0.754,7.563-0.787l1.309-0.27l-8.485-7.998c6.354-2.115,9.499-4.131,12.919-7.016
	c1.378-1.162,2.513-2.645,3.542-4.559c1.001,1.82,2.106,3.24,3.438,4.365c3.421,2.883,6.566,4.898,12.919,7.014l-8.484,8l1.31,0.27
	c0.154,0.031,3.85,0.785,7.561,0.785c2.284,0,4.091-0.291,5.371-0.865c0.194-0.09,0.458-0.211,0.744-0.342
	c-1.376,2.479-3.865,6.818-5.609,9.055l-1.599,2.049l2.409-0.977c7.637-3.096,14.265-6.322,17.525-13.775
	c0.161,1.004,0.277,2.043,0.326,2.566l0.153,1.627l1.067-1.238c0.394-0.457,8.99-10.535,7.017-17.063l7.846,2.189L113.688,63.988z
	 M55.193,58.332c-0.659,2.184-2.531,2.795-4.274,3.105c-0.294,0.053-0.599,0.064-0.903,0.07l-0.52,0.018
	c-3.315,0-10.276-6.479-11.059-7.217l-1.123-1.057l1.535-0.143c0.088-0.008,2.192-0.197,4.885-0.197c6,0,9.716,0.908,11.049,2.701
	C55.355,56.383,55.498,57.32,55.193,58.332z M87.563,54.113c-0.783,0.74-7.744,7.219-11.059,7.219l-0.52-0.018
	c-0.304-0.006-0.609-0.018-0.903-0.07c-1.744-0.313-3.615-0.924-4.274-3.107c-0.304-1.008-0.162-1.949,0.409-2.719
	c1.333-1.793,5.05-2.699,11.049-2.699c2.692,0,4.796,0.188,4.885,0.197l1.535,0.141L87.563,54.113z"/>
</svg>
