<?xml version="1.0" encoding="utf-8"?>
<!-- Generator: Adobe Illustrator 16.0.0, SVG Export Plug-In . SVG Version: 6.00 Build 0)  -->
<!DOCTYPE svg PUBLIC "-//W3C//DTD SVG 1.1//EN" "http://www.w3.org/Graphics/SVG/1.1/DTD/svg11.dtd">
<svg version="1.1" id="Layer_1" xmlns="http://www.w3.org/2000/svg" xmlns:xlink="http://www.w3.org/1999/xlink" x="0px" y="0px"
	 width="126px" height="126px" viewBox="0 0 126 126" enable-background="new 0 0 126 126" xml:space="preserve">
<path d="M117.119,56.142c-3.863-1.931-7.29-0.598-10.603,0.692c-1.579,0.614-3.094,1.203-4.6,1.42
	c0.764-1.035,1.513-2.397,2.297-3.845c1.95-3.603,4.16-7.677,7.024-7.219c0.122,0.021,0.238,0.044,0.35,0.066
	c-0.057,0.05-0.107,0.112-0.146,0.183c-1.042,1.88-1.215,3.148-0.53,3.875c0.521,0.555,1.429,0.601,2.426,0.125
	c1.127-0.539,2.26-1.709,2.081-3.006c-0.176-1.289-1.504-2.159-3.954-2.587c-3.827-0.628-6.284,3.913-8.452,7.915
	c-0.594,1.099-1.165,2.137-1.724,3.003c-0.129-0.667-0.47-1.033-0.813-1.234c0.945-3.135,1.821-8.016,0.365-10.549
	c-0.615-1.07-1.604-1.678-2.863-1.758c-1.907-0.106-3.048,0.343-3.393,1.346c-0.489,1.418,1.042,3.132,2.121,3.88
	c1.012,0.701,1.885,0.827,2.458,0.354c0.937-0.774,0.3-2.546-0.26-3.81c-0.032-0.072-0.076-0.137-0.127-0.192
	c0.362,0.177,0.651,0.46,0.882,0.86c1.229,2.14,0.355,6.791-0.55,9.689c-0.64,0.168-1.014,0.643-1.167,0.852l-0.045,0.061
	c-0.891,1.153-1.864,1.375-3.349,0.864c-1.371-0.471-2.66-1.118-4.026-1.801c-0.528-0.264-1.057-0.529-1.59-0.783
	c-4.029-1.922-7.85-2.819-11.727-2.749c0.042-0.029,0.08-0.052,0.113-0.07c1.189-0.245,2.002-1.111,2.135-2.289
	c0.16-1.406-0.689-2.861-1.975-3.385c-1.739-0.709-3.514-1.04-5.584-1.04l-0.17,0.001c-0.381,0.004-0.751,0.067-1.088,0.146
	c-0.39-3.367-2.363-6.612-5.509-9.013c-0.533-0.406-1.152-0.608-1.756-0.592c-0.608-0.015-1.224,0.186-1.755,0.592
	c-1.235,0.941-5.26,4.359-5.534,9.004c-0.155-0.022-0.307-0.043-0.448-0.063c-1.929-0.292-4.095,0.038-6.373,0.966
	c-1.284,0.524-2.133,1.979-1.974,3.385c0.134,1.177,0.947,2.043,2.135,2.289c0.038,0.021,0.079,0.046,0.124,0.077
	c-1.006-0.031-1.984,0.008-2.925,0.115c-3.191,0.363-6.331,1.371-9.881,3.169L36.3,55.306c-1.376,0.701-2.678,1.363-4.057,1.836
	c-1.464,0.502-2.476,0.267-3.351-0.876l-0.046-0.063c-0.166-0.23-0.6-0.781-1.358-0.89c-0.995-2.303-2.656-8.719-1.146-11.345
	c0.23-0.401,0.52-0.685,0.882-0.861c-0.052,0.054-0.096,0.119-0.128,0.192c-0.56,1.265-1.196,3.036-0.26,3.811
	c0.574,0.474,1.447,0.348,2.458-0.354c1.079-0.748,2.609-2.463,2.121-3.881c-0.345-1.003-1.484-1.457-3.397-1.345
	c-1.255,0.081-2.244,0.688-2.859,1.758c-1.786,3.106-0.067,9.734,0.989,12.349c-0.208,0.157-0.395,0.38-0.525,0.69
	c-0.004-0.005-0.005-0.011-0.009-0.016c-0.841-0.942-1.709-2.545-2.627-4.244c-2.167-4.002-4.622-8.543-8.461-7.913
	c-2.44,0.427-3.769,1.297-3.945,2.587c-0.178,1.296,0.954,2.467,2.082,3.005c0.996,0.476,1.904,0.43,2.426-0.125
	c0.685-0.726,0.512-1.994-0.53-3.875c-0.04-0.072-0.089-0.132-0.146-0.183c0.108-0.022,0.222-0.043,0.341-0.064
	c2.873-0.467,5.083,3.615,7.033,7.218c0.783,1.447,1.532,2.809,2.296,3.844c-1.509-0.219-3.019-0.805-4.599-1.419
	c-3.314-1.29-6.74-2.624-10.603-0.692c-2.642,1.32-3.906,2.666-3.756,3.999c0.093,0.836,0.76,1.506,1.741,1.747
	c0.233,0.058,0.462,0.085,0.683,0.085c0.693,0,1.295-0.273,1.628-0.769c0.356-0.526,0.545-1.479-0.574-3.031
	c-0.061-0.085-0.138-0.151-0.224-0.198c0.322-0.197,0.691-0.402,1.113-0.612c3.321-1.661,6.321-0.493,9.498,0.743
	c2.057,0.801,4.175,1.613,6.384,1.6c-0.229,2.525-0.209,5.256,0.093,8.344c0.522,5.358,1.93,9.913,4.304,13.922
	c3.714,6.273,10.686,10.17,18.193,10.17c3.916,0,7.558-1.093,10.531-3.162c3.159-2.197,6.467-2.19,9.853,0
	c2.903,1.878,5.821,2.88,8.919,3.063c0.548,0.033,1.096,0.049,1.628,0.049h0c6.805,0,12.323-2.615,16.4-7.771
	c5.679-7.18,6.483-15.45,6.181-22.958c1.908-0.162,3.741-0.87,5.533-1.567c3.176-1.236,6.177-2.403,9.499-0.744
	c0.421,0.211,0.79,0.416,1.112,0.613c-0.086,0.047-0.163,0.114-0.224,0.198c-1.119,1.552-0.93,2.505-0.574,3.032
	c0.334,0.494,0.936,0.769,1.629,0.769c0.22,0,0.45-0.028,0.683-0.085c0.98-0.241,1.647-0.911,1.741-1.747
	C121.024,58.808,119.761,57.462,117.119,56.142z M57.45,76.584c-0.553,0.756-1.446,0.868-2.068,0.887
	c-0.632,0.02-1.267,0.014-1.746,0.009l-0.431-0.003c-0.25-0.005-0.469-0.008-0.684-0.008c-0.88,0-1.735,0.037-2.563,0.073
	c-0.823,0.034-1.602,0.067-2.399,0.067c-0.708,0-1.34-0.027-1.935-0.083c-4.41-0.415-7.859-2.655-10.249-6.659
	c-0.432-0.724-0.562-1.464-0.374-2.143c0.12-0.435,0.428-1.041,1.215-1.463c3.542-1.902,6.573-2.788,9.538-2.788
	c1.207,0,2.417,0.153,3.596,0.454c3.541,0.907,6.062,3.373,7.707,7.542c0.268,0.679,0.473,1.369,0.62,1.893
	C57.843,74.956,58.002,75.832,57.45,76.584z M91.301,71.042c-2.377,3.943-5.899,6.136-10.468,6.52
	c-0.662,0.055-1.356,0.082-2.124,0.082c-1.096,0-2.189-0.055-3.248-0.109c-1.377-0.07-2.786-0.142-4.167-0.084l-0.133,0.003
	c-0.786,0-1.448-0.297-1.861-0.837c-0.395-0.516-0.508-1.184-0.32-1.883c0.634-2.351,1.833-5.747,4.913-8.079
	c1.985-1.502,4.323-2.254,6.653-2.156c0.019,0,0.037,0,0.038,0c3.248,0,6.227,0.792,9.662,2.57c0.305,0.157,1.233,0.638,1.522,1.662
	C92.065,69.776,91.489,70.73,91.301,71.042z"/>
</svg>
