<?xml version="1.0" encoding="utf-8"?>
<!-- Generator: Adobe Illustrator 16.0.0, SVG Export Plug-In . SVG Version: 6.00 Build 0)  -->
<!DOCTYPE svg PUBLIC "-//W3C//DTD SVG 1.1//EN" "http://www.w3.org/Graphics/SVG/1.1/DTD/svg11.dtd">
<svg version="1.1" id="Layer_1" xmlns="http://www.w3.org/2000/svg" xmlns:xlink="http://www.w3.org/1999/xlink" x="0px" y="0px"
	 width="126px" height="126px" viewBox="0 0 126 126" enable-background="new 0 0 126 126" xml:space="preserve">
<path d="M120.657,72.237c-1.57,0.954-3.238,0.549-4.939,0.37c3.242-5.97,6.176-12.457,6.567-19.313
	c0.027-0.477-0.731-0.712-0.932-0.252c-1.464,3.352-3.887,6.705-7.661,7.296c3.493-8.353,2.526-18.301,1.468-27.043
	c-0.062-0.508-0.885-0.739-0.982-0.133c-0.627,3.897-1.217,7.158-3.921,10.212c-3.783,4.274-8.733,6.208-14.033,7.912
	c-7.594,2.442-17.227,2.798-23.388,8.426c-0.033,0.018-0.067,0.026-0.099,0.052c-4.209,3.424-7.031,8.629-8.66,13.719
	C63.524,75.21,63.172,76.991,63,78.79c-0.172-1.799-0.524-3.58-1.077-5.308c-1.629-5.09-4.451-10.294-8.66-13.719
	c-0.031-0.026-0.065-0.035-0.099-0.052c-6.161-5.628-15.794-5.984-23.388-8.426c-5.3-1.704-10.25-3.637-14.033-7.912
	c-2.704-3.055-3.294-6.315-3.921-10.212c-0.098-0.606-0.921-0.375-0.982,0.133c-1.059,8.743-2.025,18.69,1.468,27.043
	c-3.774-0.591-6.197-3.944-7.661-7.296c-0.2-0.46-0.959-0.224-0.932,0.252c0.392,6.856,3.325,13.343,6.567,19.313
	c-1.701,0.18-3.369,0.584-4.939-0.37c-0.518-0.314-0.946,0.367-0.606,0.785c2.735,3.369,5.449,6.958,9.089,9.415
	c3.735,2.521,7.905,3.617,12.31,3.82c-1.624,0.952-3.212,1.969-4.798,2.98c-0.494,0.316-0.164,1.015,0.386,0.914
	c4.384-0.805,9.727-1.744,14.172-0.607c-1.132,1.118-2.454,1.901-3.933,2.569c-0.455,0.206-0.227,0.959,0.253,0.932
	c5.215-0.298,10.456,0.284,15.678,0.133c3.991-0.115,9.655-0.086,12.847-2.945c1.681-1.506,2.014-3.718,2.234-5.889
	c0.012-0.111,0.017-0.223,0.026-0.334c0.01,0.111,0.015,0.223,0.026,0.334c0.221,2.17,0.554,4.382,2.234,5.889
	c3.191,2.858,8.855,2.83,12.847,2.945c5.222,0.15,10.463-0.432,15.678-0.133c0.479,0.027,0.708-0.726,0.253-0.932
	c-1.479-0.667-2.801-1.451-3.933-2.569c4.445-1.137,9.788-0.197,14.172,0.607c0.55,0.102,0.88-0.598,0.386-0.914
	c-1.586-1.011-3.174-2.028-4.798-2.98c4.404-0.203,8.574-1.299,12.31-3.82c3.64-2.456,6.354-6.045,9.089-9.415
	C121.604,72.604,121.175,71.922,120.657,72.237z M40.866,63.775c0,0.506-0.411,0.917-0.917,0.917s-0.917-0.41-0.917-0.917
	s0.411-0.917,0.917-0.917S40.866,63.269,40.866,63.775z M39.616,56.692c0.46,0,0.833,0.373,0.833,0.833s-0.373,0.833-0.833,0.833
	s-0.833-0.373-0.833-0.833S39.156,56.692,39.616,56.692z M27.783,55.026c0.599,0,1.083,0.485,1.083,1.083s-0.484,1.083-1.083,1.083
	S26.7,56.707,26.7,56.109S27.185,55.026,27.783,55.026z M16.283,52.025c0.414,0,0.75,0.336,0.75,0.75s-0.336,0.75-0.75,0.75
	s-0.75-0.336-0.75-0.75S15.869,52.025,16.283,52.025z M14.866,69.359c-0.414,0-0.75-0.336-0.75-0.75s0.336-0.75,0.75-0.75
	s0.75,0.336,0.75,0.75S15.28,69.359,14.866,69.359z M23.866,78.025c-0.506,0-0.916-0.41-0.916-0.917s0.41-0.917,0.916-0.917
	s0.916,0.41,0.916,0.917S24.372,78.025,23.866,78.025z M27.366,73.275c-0.645,0-1.166-0.522-1.166-1.167s0.521-1.167,1.166-1.167
	s1.166,0.522,1.166,1.167S28.011,73.275,27.366,73.275z M28.946,69.839c-0.314-0.089-0.644-0.197-0.991-0.343
	c-0.915-0.386-1.893-0.976-2.922-1.471c-0.518-0.225-1.051-0.452-1.583-0.519c-0.531-0.073-1.054-0.072-1.545,0.11l-0.172,0.052
	l-0.03,0.015l-0.106,0.054l-0.427,0.216l-0.212,0.108c-0.062,0.037-0.078,0.076-0.119,0.112c-0.068,0.073-0.138,0.139-0.209,0.199
	c-0.235,0.326-0.405,0.613-0.388,0.935c-0.002,0.32,0.061,0.687,0.233,1.032c0.182,0.319,0.408,0.647,0.67,0.818
	c0.127,0.124,0.255,0.146,0.385,0.232c0.129,0.044,0.255,0.055,0.391,0.085c0.123-0.024,0.261-0.019,0.389-0.05
	c0.128-0.057,0.246-0.109,0.352-0.157c0.227-0.104,0.365-0.274,0.495-0.353c0.123-0.093,0.188-0.143,0.188-0.143l0.178,0.094
	c0,0-0.024,0.082-0.069,0.235c-0.061,0.149-0.098,0.405-0.284,0.673c-0.099,0.131-0.213,0.282-0.351,0.443
	c-0.159,0.135-0.374,0.254-0.604,0.388c-0.485,0.184-1.157,0.246-1.753-0.001c-0.629-0.197-1.157-0.64-1.604-1.203
	c-0.447-0.563-0.725-1.352-0.696-2.22c0.028-0.905,0.599-1.722,1.26-2.24c0.351-0.218,0.8-0.522,1.062-0.575l0.452-0.156
	l0.113-0.039l0.057-0.02c-0.016,0.006,0.159-0.059,0.09-0.032l0.009-0.001l0.018-0.003l0.035-0.006l0.282-0.048
	c0.741-0.167,1.532-0.083,2.218,0.106c0.703,0.184,1.285,0.524,1.828,0.84c0.62,0.385,1.16,0.783,1.664,1.148
	c-0.112-0.144-0.224-0.292-0.318-0.454c-0.416-0.689-0.791-1.478-1.097-2.322c-0.329-0.844-0.593-1.741-0.897-2.652
	c-0.313-0.896-0.615-1.836-1.055-2.679c-0.426-0.844-0.942-1.65-1.647-2.132c-0.696-0.53-1.549-0.825-2.304-0.763
	c-0.381,0.014-0.735,0.121-1.051,0.285c-0.32,0.153-0.603,0.374-0.839,0.637c-0.494,0.512-0.808,1.194-0.965,1.908l-0.055,0.268
	l-0.014,0.067l-0.002,0.008c0.001-0.026-0.005,0.07,0.001-0.056l-0.001,0.021l-0.003,0.041l-0.01,0.162
	c-0.024,0.249,0.005,0.338,0.002,0.485c0.027,0.326,0.086,0.678,0.186,0.995c0.19,0.64,0.468,1.216,0.784,1.579
	c0.325,0.379,0.577,0.431,0.898,0.305c0.315-0.138,0.557-0.423,0.698-0.597c0.151-0.186,0.232-0.284,0.232-0.284l0.184,0.08
	c0,0-0.038,0.129-0.108,0.372c-0.037,0.124-0.073,0.279-0.178,0.446c-0.09,0.173-0.192,0.379-0.415,0.569
	c-0.09,0.11-0.229,0.189-0.392,0.262c-0.153,0.094-0.342,0.112-0.546,0.125c-0.206,0.021-0.385-0.056-0.594-0.1
	c-0.167-0.08-0.365-0.163-0.523-0.275c-0.641-0.452-1.141-1.104-1.527-1.889c-0.195-0.396-0.35-0.823-0.471-1.314
	c-0.045-0.267-0.095-0.596-0.093-0.778l-0.008-0.162l-0.002-0.041l-0.001-0.021l0.004-0.088l0.008-0.095l0.033-0.385
	c0.095-1.031,0.52-2.152,1.365-3.042c0.825-0.888,2.141-1.454,3.409-1.36c1.274,0.06,2.438,0.612,3.305,1.396
	c0.941,0.78,1.48,1.825,1.892,2.804c0.423,0.993,0.66,1.981,0.914,2.925c0.234,0.94,0.449,1.847,0.682,2.68
	c0.219,0.844,0.499,1.6,0.819,2.266c0.155,0.335,0.371,0.607,0.54,0.898c0.17,0.188,0.334,0.36,0.498,0.529
	c-0.178-0.288-0.346-0.605-0.469-0.979c-0.174-0.497-0.273-1.061-0.314-1.664c-0.021-0.302,0.006-0.611,0.014-0.93
	c0.051-0.313,0.08-0.64,0.159-0.963c0.165-0.644,0.376-1.317,0.771-1.935c0.16-0.327,0.434-0.599,0.658-0.902
	c0.292-0.249,0.545-0.555,0.904-0.742c0.171-0.103,0.338-0.219,0.52-0.305l0.571-0.21l0.145-0.051l0.073-0.024l0.17-0.024
	l0.241-0.034c0.176-0.018,0.289-0.062,0.513-0.059c0.949-0.024,1.718,0.251,2.401,0.711c0.67,0.466,1.121,1.154,1.354,1.855
	c0.13,0.348,0.166,0.721,0.196,1.071c-0.03,0.364-0.05,0.708-0.185,1.028c-0.2,0.654-0.687,1.105-1.105,1.368
	c-0.229,0.105-0.436,0.21-0.63,0.27c-0.198,0.032-0.38,0.061-0.543,0.087c-0.319,0.041-0.568-0.021-0.731-0.031
	c-0.161-0.022-0.247-0.035-0.247-0.035l-0.018-0.199c0,0,0.075-0.04,0.216-0.113c0.133-0.084,0.348-0.147,0.564-0.306
	c0.104-0.075,0.218-0.158,0.342-0.248c0.111-0.097,0.203-0.223,0.309-0.331c0.081-0.13,0.155-0.262,0.217-0.396
	c0.025-0.157,0.087-0.287,0.074-0.453c0.017-0.306-0.063-0.66-0.256-0.994c-0.199-0.32-0.436-0.664-0.786-0.891
	c-0.316-0.24-0.769-0.439-1.111-0.521c-0.097-0.035-0.306-0.013-0.453-0.022h-0.244h-0.003l-0.08,0.019l-0.364,0.075
	c-0.119,0.037-0.229,0.102-0.348,0.148c-0.247,0.078-0.435,0.283-0.664,0.419c-0.179,0.207-0.409,0.365-0.558,0.608
	c-0.36,0.431-0.597,0.964-0.798,1.483c-0.099,0.262-0.151,0.535-0.229,0.798c-0.033,0.269-0.092,0.533-0.114,0.792
	c-0.04,0.52-0.028,1.02,0.059,1.468c0.077,0.452,0.227,0.846,0.396,1.176c0.051,0.083,0.095,0.154,0.142,0.231
	c2.764-0.396,12.13-1.498,17.13,0.946c5.909,2.888,9.298,8.096,7.569,11.632c-1.728,3.536-7.919,4.062-13.828,1.173
	C35.217,80.33,30.331,72.264,28.946,69.839z M21.257,63c0-0.382,0.311-0.691,0.692-0.691s0.692,0.31,0.692,0.691
	c0,0.382-0.311,0.692-0.692,0.692S21.257,63.382,21.257,63z M33.679,87.494c1.788,0.25,3.812,0.198,3.812,0.198
	s-4.062-1.948-4.812-3.562c1.219,0.489,2.083,0.5,2.083,0.5l-0.45-2.862c0.072,0.095,0.145,0.189,0.218,0.281
	c7.792,9.804,25.907,5.51,25.907,5.51C48.929,92.807,37.71,89.682,33.679,87.494z M45.768,64.481
	c2.976,1.097,4.575,1.42,5.317,1.299c2.078-0.338-2.567-4.149-2.567-4.149c10.974,4.394,12.5,21.5,12.5,21.5
	C56.906,70.984,45.768,64.481,45.768,64.481z M109.717,52.025c0.414,0,0.75,0.336,0.75,0.75s-0.336,0.75-0.75,0.75
	s-0.75-0.336-0.75-0.75S109.303,52.025,109.717,52.025z M98.217,55.026c0.599,0,1.083,0.485,1.083,1.083s-0.484,1.083-1.083,1.083
	s-1.083-0.485-1.083-1.083S97.618,55.026,98.217,55.026z M86.384,56.692c0.46,0,0.833,0.373,0.833,0.833s-0.373,0.833-0.833,0.833
	s-0.833-0.373-0.833-0.833S85.924,56.692,86.384,56.692z M86.051,62.859c0.506,0,0.917,0.41,0.917,0.917s-0.411,0.917-0.917,0.917
	s-0.917-0.41-0.917-0.917S85.545,62.859,86.051,62.859z M64.982,83.131c0,0,1.526-17.106,12.5-21.5c0,0-4.646,3.811-2.567,4.149
	c0.742,0.121,2.342-0.202,5.317-1.299C80.232,64.481,69.094,70.984,64.982,83.131z M88.51,87.692c0,0,2.023,0.053,3.812-0.198
	c-4.031,2.188-15.25,5.313-26.758,0.065c0,0,18.115,4.293,25.907-5.51c0.073-0.092,0.146-0.186,0.218-0.281l-0.45,2.862
	c0,0,0.864-0.011,2.083-0.5C92.571,85.744,88.51,87.692,88.51,87.692z M98.634,73.275c-0.645,0-1.166-0.522-1.166-1.167
	s0.521-1.167,1.166-1.167s1.166,0.522,1.166,1.167S99.278,73.275,98.634,73.275z M102.134,78.025c-0.506,0-0.916-0.41-0.916-0.917
	s0.41-0.917,0.916-0.917s0.916,0.41,0.916,0.917S102.64,78.025,102.134,78.025z M108.778,64.452
	c-0.158,0.112-0.356,0.195-0.523,0.275c-0.209,0.044-0.388,0.121-0.594,0.1c-0.204-0.013-0.393-0.032-0.546-0.125
	c-0.163-0.073-0.302-0.152-0.392-0.262c-0.223-0.189-0.325-0.396-0.415-0.569c-0.104-0.167-0.141-0.323-0.178-0.446
	c-0.07-0.242-0.108-0.372-0.108-0.372l0.184-0.08c0,0,0.081,0.099,0.232,0.284c0.142,0.174,0.383,0.459,0.698,0.597
	c0.321,0.126,0.573,0.074,0.898-0.305c0.316-0.362,0.594-0.939,0.784-1.579c0.1-0.317,0.158-0.669,0.186-0.995
	c-0.003-0.146,0.026-0.236,0.002-0.485l-0.01-0.162l-0.003-0.041l-0.001-0.021c0.006,0.126,0,0.03,0.001,0.056l-0.002-0.008
	l-0.014-0.067l-0.055-0.268c-0.157-0.713-0.471-1.396-0.965-1.908c-0.236-0.263-0.519-0.483-0.839-0.637
	c-0.315-0.164-0.67-0.271-1.051-0.285c-0.755-0.062-1.607,0.233-2.304,0.763c-0.705,0.482-1.222,1.288-1.647,2.132
	c-0.439,0.842-0.742,1.782-1.055,2.679c-0.305,0.911-0.568,1.808-0.897,2.652c-0.306,0.845-0.681,1.633-1.097,2.322
	c-0.095,0.162-0.206,0.31-0.318,0.454c0.504-0.365,1.044-0.763,1.664-1.148c0.543-0.316,1.125-0.656,1.828-0.84
	c0.686-0.189,1.477-0.273,2.218-0.106l0.282,0.048l0.035,0.006l0.018,0.003l0.009,0.001c-0.069-0.026,0.105,0.038,0.09,0.032
	l0.057,0.02l0.113,0.039l0.452,0.156c0.262,0.052,0.711,0.357,1.062,0.575c0.661,0.519,1.231,1.335,1.26,2.24
	c0.028,0.869-0.249,1.658-0.696,2.22c-0.446,0.563-0.975,1.006-1.604,1.203c-0.596,0.248-1.268,0.185-1.753,0.001
	c-0.229-0.134-0.444-0.253-0.604-0.388c-0.138-0.162-0.252-0.313-0.351-0.443c-0.187-0.268-0.224-0.524-0.284-0.673
	c-0.045-0.153-0.069-0.235-0.069-0.235l0.178-0.094c0,0,0.065,0.05,0.188,0.143c0.13,0.079,0.269,0.249,0.495,0.353
	c0.105,0.047,0.224,0.1,0.352,0.157c0.128,0.031,0.266,0.026,0.389,0.05c0.136-0.03,0.262-0.041,0.391-0.085
	c0.13-0.085,0.258-0.108,0.385-0.232c0.262-0.171,0.488-0.499,0.67-0.818c0.173-0.345,0.235-0.711,0.233-1.032
	c0.018-0.321-0.152-0.609-0.388-0.935c-0.071-0.06-0.141-0.126-0.209-0.199c-0.041-0.037-0.058-0.075-0.119-0.112l-0.212-0.108
	l-0.427-0.216l-0.106-0.054l-0.03-0.015l-0.172-0.052c-0.491-0.182-1.014-0.183-1.545-0.11c-0.532,0.066-1.065,0.294-1.583,0.519
	c-1.029,0.495-2.007,1.084-2.922,1.471c-0.348,0.146-0.677,0.254-0.991,0.343c-1.385,2.424-6.271,10.49-11.271,12.934
	c-5.909,2.888-12.101,2.363-13.828-1.173c-1.729-3.536,1.66-8.744,7.569-11.632c5-2.444,14.366-1.343,17.13-0.946
	c0.047-0.077,0.091-0.148,0.142-0.231c0.169-0.33,0.318-0.724,0.396-1.176c0.087-0.448,0.099-0.948,0.059-1.468
	c-0.022-0.259-0.081-0.523-0.114-0.792c-0.078-0.263-0.131-0.536-0.229-0.798c-0.201-0.52-0.438-1.052-0.798-1.483
	c-0.148-0.243-0.379-0.401-0.558-0.608c-0.229-0.136-0.417-0.342-0.664-0.419c-0.118-0.047-0.229-0.111-0.348-0.148l-0.364-0.075
	l-0.08-0.019h-0.003h-0.244c-0.147,0.009-0.356-0.013-0.453,0.022c-0.343,0.082-0.795,0.281-1.111,0.521
	c-0.351,0.228-0.587,0.571-0.786,0.891c-0.193,0.334-0.272,0.688-0.256,0.994c-0.013,0.166,0.049,0.296,0.074,0.453
	c0.062,0.135,0.136,0.266,0.217,0.396c0.105,0.108,0.197,0.233,0.309,0.331c0.124,0.09,0.238,0.173,0.342,0.248
	c0.217,0.158,0.432,0.221,0.564,0.306c0.141,0.074,0.216,0.113,0.216,0.113l-0.018,0.199c0,0-0.086,0.012-0.247,0.035
	c-0.163,0.01-0.412,0.072-0.731,0.031c-0.163-0.026-0.345-0.055-0.543-0.087c-0.194-0.06-0.4-0.165-0.63-0.27
	c-0.419-0.263-0.905-0.714-1.105-1.368c-0.135-0.32-0.154-0.664-0.185-1.028c0.03-0.35,0.066-0.723,0.196-1.071
	c0.232-0.701,0.684-1.39,1.354-1.855c0.684-0.46,1.452-0.736,2.401-0.711c0.224-0.003,0.337,0.041,0.513,0.059l0.241,0.034
	l0.17,0.024l0.073,0.024l0.145,0.051l0.571,0.21c0.182,0.086,0.349,0.202,0.52,0.305c0.359,0.187,0.612,0.493,0.904,0.742
	c0.225,0.303,0.498,0.575,0.658,0.902c0.396,0.618,0.606,1.291,0.771,1.935c0.079,0.323,0.108,0.65,0.159,0.963
	c0.008,0.319,0.035,0.628,0.014,0.93c-0.041,0.603-0.141,1.167-0.314,1.664c-0.123,0.373-0.291,0.69-0.469,0.979
	c0.164-0.169,0.328-0.341,0.498-0.529c0.169-0.291,0.385-0.563,0.54-0.898c0.32-0.666,0.601-1.422,0.819-2.266
	c0.232-0.833,0.447-1.739,0.682-2.68c0.254-0.943,0.491-1.932,0.914-2.925c0.411-0.979,0.95-2.024,1.892-2.804
	c0.866-0.784,2.03-1.335,3.305-1.396c1.269-0.094,2.584,0.472,3.409,1.36c0.846,0.89,1.271,2.011,1.365,3.042l0.033,0.385
	l0.008,0.095l0.004,0.088l-0.001,0.021l-0.002,0.041l-0.008,0.162c0.002,0.182-0.048,0.511-0.093,0.778
	c-0.121,0.492-0.275,0.918-0.471,1.314C109.919,63.348,109.419,64,108.778,64.452z M104.743,63c0,0.382-0.311,0.692-0.692,0.692
	s-0.692-0.31-0.692-0.692c0-0.382,0.311-0.691,0.692-0.691S104.743,62.618,104.743,63z M111.134,69.359
	c-0.414,0-0.75-0.336-0.75-0.75s0.336-0.75,0.75-0.75s0.75,0.336,0.75,0.75S111.548,69.359,111.134,69.359z"/>
</svg>
