<?xml version="1.0" encoding="utf-8"?>
<!-- Generator: Adobe Illustrator 16.0.0, SVG Export Plug-In . SVG Version: 6.00 Build 0)  -->
<!DOCTYPE svg PUBLIC "-//W3C//DTD SVG 1.1//EN" "http://www.w3.org/Graphics/SVG/1.1/DTD/svg11.dtd">
<svg version="1.1" id="Layer_1" xmlns="http://www.w3.org/2000/svg" xmlns:xlink="http://www.w3.org/1999/xlink" x="0px" y="0px"
	 width="126px" height="126px" viewBox="0 0 126 126" enable-background="new 0 0 126 126" xml:space="preserve">
<path d="M114.807,59.808c-0.936,1.362-2.145,1.674-3.439,1.52c-0.152-0.524-0.271-1.09-0.35-1.73
	c-0.268-2.174-0.799-4.138-2.182-5.887c-3.443-4.354-8.906-6.229-12.762-10.119c-1.143-1.152-2.236-2.667-2.271-4.332
	c-0.027-1.379,0.416-2.795,0.488-4.18c0.127-2.473-1.734-5.455-2.932-7.522c-1.916-3.308-4.742-5.973-8.449-7.069
	c-3.506-1.037-7.355-0.369-10.844,0.385c-4.549,0.982-8.996,2.362-13.58,3.193c-4.666,0.846-9.488,1.032-14.162,0.173
	c-3.963-0.729-7.82-1.985-11.691-3.08c-7-1.979-17.807-4.847-21.434,3.894c-2.496,6.011-1.568,13.275,0.213,19.325
	c2.135,7.243,5.875,13.987,7.539,21.357c-0.742-0.126-1.494-0.482-2.252-1.22c0.688,9.313,2.641,18.127,7.453,26.375
	c2.813,4.828,6.428,8.947,11.262,11.826c7.828,4.657,15.781,5.499,23.646,2.273c1.738-0.711,3.205-2.041,4.689-3.215
	c2.344-1.857,4.777-3.18,7.02-3.287c2.244-0.107,4.846,0.973,7.664,2.583c1.785,1.017,3.59,2.188,5.496,2.727
	c8.637,2.433,16.26,0.843,22.727-4.501c3.994-3.302,6.447-7.712,7.922-12.746C117.096,77.951,116.643,69.064,114.807,59.808z
	 M39.066,91.199c-8.664-3.869-12.189-16.406-12.189-16.406s9.852-4.465,18.51-0.599c8.666,3.868,12.861,14.607,12.861,14.607
	S47.73,95.067,39.066,91.199z M99.939,88.277c-7.504,4.645-19.582-0.537-19.582-0.537s1.24-10.998,8.746-15.644
	c7.506-4.644,18.434-1.175,18.434-1.175S107.445,83.632,99.939,88.277z M102.549,58.46c-6.072-2.228-12.188-3.459-18.432-2.695
	c-4.779,0.584-9.363,1.75-13.674,3.637c-1.605,0.703-3.23,1.135-4.891,1.291c-1.68,0.004-3.402-0.267-5.176-0.808
	c-4.764-1.452-9.604-2.165-14.479-2.286c-6.371-0.158-12.074,1.64-17.463,4.418c-2.189,1.127-4.391,2.239-6.646,3.237
	c-0.271,0.12-0.547,0.219-0.822,0.306c-2.613-12.298-10.891-23.136-8.887-36.27c0.543-3.559,2.191-6.817,5.828-7.885
	c3.354-0.984,7.182-0.091,10.477,0.696c7.906,1.89,15.367,4.892,23.625,4.669c4.873-0.131,9.672-1.231,14.373-2.429
	c4.09-1.04,8.227-2.309,12.479-2.364c4.574-0.059,8.02,2.332,10.457,6.078c1.949,2.995,3.238,5.99,2.666,9.572
	c-0.453,2.822,0.453,4.734,2.24,6.898c3.738,4.521,9.938,6.125,13.43,10.933c1.129,1.554,1.262,3.452,1.523,5.297
	C106.955,60.047,104.748,59.267,102.549,58.46z"/>
</svg>
