<?xml version="1.0" encoding="utf-8"?>
<!-- Generator: Adobe Illustrator 16.0.0, SVG Export Plug-In . SVG Version: 6.00 Build 0)  -->
<!DOCTYPE svg PUBLIC "-//W3C//DTD SVG 1.1//EN" "http://www.w3.org/Graphics/SVG/1.1/DTD/svg11.dtd">
<svg version="1.1" id="Layer_1" xmlns="http://www.w3.org/2000/svg" xmlns:xlink="http://www.w3.org/1999/xlink" x="0px" y="0px"
	 width="126px" height="126px" viewBox="0 0 126 126" enable-background="new 0 0 126 126" xml:space="preserve">
<path d="M119.238,60.416c-0.791-2.393-2.474-4.368-4.685-5.598c0.211-1.093,0.335-2.197,0.324-3.3
	c-0.039-4.148-1.806-7.816-4.979-10.328c-0.035-0.027-0.07-0.054-0.105-0.081c-2.322-1.758-5.019-2.688-7.798-2.688
	c-0.567,0-1.13,0.039-1.687,0.116c-1.557-2.472-3.802-4.315-6.54-5.32c-0.042-0.015-0.083-0.03-0.126-0.044
	c-1.33-0.456-2.689-0.687-4.041-0.687c-1.759,0-3.448,0.387-5.003,1.127c-1.707-2.912-4.116-5.284-7.31-6.727
	c-4.886-2.323-10.18-2.021-14.328,0.765c-4.139-2.783-9.433-3.09-14.293-0.781c-3.036,1.371-5.359,3.58-7.052,6.29
	c-1.621-0.819-3.394-1.248-5.246-1.248c-1.359,0-2.728,0.233-4.068,0.692c-0.043,0.015-0.087,0.03-0.129,0.046
	c-2.724,1.001-4.96,2.84-6.513,5.311c-0.555-0.077-1.117-0.115-1.681-0.115c-2.783,0-5.489,0.935-7.825,2.705
	c-0.036,0.027-0.071,0.054-0.105,0.082c-3.158,2.501-4.917,6.163-4.957,10.309c-0.01,1.088,0.109,2.176,0.314,3.254
	c-1.947,1.056-3.509,2.737-4.383,4.849c-1.267,3.057-0.902,6.495,0.973,9.196c1.989,2.866,5.384,4.991,9.008,5.799
	c1.749,4.267,8.278,19.137,16.498,24.813c1.71,1.208,3.719,1.821,5.972,1.821c7.705,0,15.781-7.079,16.136-7.395
	c0.044-0.042,4.433-4.271,7.261-4.965h0.342c2.251,0.554,5.738,3.494,7.29,4.993c0.34,0.301,8.413,7.367,16.106,7.367
	c2.252,0,4.261-0.612,5.966-1.815c7.924-5.473,14.274-19.472,16.286-24.29c3.317-0.784,6.703-2.675,8.758-5.279
	C119.658,66.705,120.249,63.471,119.238,60.416z M18.998,66.972c-1.248,0-2.51-0.14-3.75-0.415l-1.359-0.3l-0.002-0.003l1.305,0.288
	c-0.819-0.537-1.54-1.178-2.047-1.909c-1.453-2.092-0.199-5.038,2.385-5.505c1.775-0.32,3.851,0.77,4.209,2.651
	c0.509,2.666-2.95,2.116-4.396,1.601c-0.992-0.353-0.565-1.943,0.438-1.587c0.331,0.118,2.91,1.067,2.203-0.061
	c-0.546-0.871-1.691-1.387-2.624-0.766c-3.85,2.566,2.664,5.605,5.07,5.529c0.317-0.01,0.525,0.138,0.651,0.341
	C20.4,66.916,19.71,66.972,18.998,66.972z M30.476,54.58c-0.417,0.895-1.025,1.663-1.825,2.221
	c-1.414,0.986-3.165,1.147-4.572,0.421c-0.949-0.49-2.547-1.805-2.576-5.106c-0.005-0.682,0.542-1.239,1.224-1.245
	c0.694-0.015,1.239,0.542,1.245,1.224c0.013,1.465,0.464,2.534,1.239,2.934c0.592,0.306,1.369,0.209,2.027-0.251
	c1.053-0.736,1.558-2.169,1.35-3.835c-0.225-1.856-1.455-3.558-3.06-4.238c-0.942-0.401-2.412-0.615-4.057,0.63
	c-1.095,0.868-1.646,2.051-1.66,3.601c-0.039,4.202,3.86,9.752,6.569,11.982c0.669,0.557,1.521,1.095,2.483,1.597
	c-0.947,0.415-1.911,0.804-2.896,1.15c-0.416-0.276-0.814-0.557-1.161-0.845c-3.156-2.597-7.51-8.879-7.463-13.907
	c0.021-2.278,0.926-4.19,2.617-5.529c2.01-1.522,4.382-1.863,6.532-0.951c1.172,0.498,2.189,1.328,2.97,2.356
	c0.055-1.351,0.249-2.644,0.638-3.792c0.778-2.292,2.259-3.897,4.281-4.641c2.125-0.728,4.175-0.341,5.799,1.081
	c2.172,1.901,3.306,5.497,2.695,8.549c-0.5,2.558-2.067,4.469-4.191,5.106c-1.65,0.497-3.364,0.101-4.474-1.028
	c-0.749-0.762-1.856-2.51-0.852-5.655c0.206-0.649,0.899-1.01,1.551-0.801c0.649,0.208,1.007,0.902,0.8,1.551
	c-0.445,1.396-0.351,2.553,0.26,3.174c0.467,0.475,1.236,0.626,2.004,0.395c1.231-0.37,2.158-1.574,2.481-3.222
	c0.442-2.21-0.375-4.878-1.9-6.212c-0.958-0.839-2.085-1.044-3.347-0.611c-1.311,0.481-2.224,1.501-2.77,3.107
	c-1.455,4.291,0.347,11.51,2.179,14.402c0.576,0.922,1.43,1.903,2.448,2.87c-0.847,0.253-1.701,0.567-2.562,0.924
	c-0.792-0.833-1.47-1.671-1.975-2.479C31.768,58.307,31.039,56.558,30.476,54.58z M43.995,84.309c-1.329,0-2.575-0.194-3.704-0.578
	c-4.302-1.463-7.028-5.683-8.011-7.452c1.241-0.534,4.104-1.6,7.188-1.6c1.328,0,2.575,0.194,3.704,0.578
	c4.302,1.463,7.03,5.684,8.012,7.453C49.821,83.301,47.048,84.309,43.995,84.309z M73.739,34.639
	c-2.352-1.132-4.49-1.009-6.216,0.341c-2.014,1.574-3.251,4.636-3.246,7.679c-0.001,0.011-0.001,0.021-0.002,0.033
	c0.003,0.703,0.073,1.403,0.215,2.084c0.13,0.627,0.366,1.429,0.794,2.24c-0.166-1.117-0.075-2.266,0.229-3.153
	c0.559-1.629,1.61-1.998,2.188-2.073c1.303-0.165,2.563,0.705,3.869,2.665c1.584,2.376,2.026,4.387,1.312,5.978
	c-0.894,1.996-3.152,2.368-3.407,2.403c-0.161,0.023-0.326,0.013-0.481-0.027c-2.662-0.69-4.73-2.376-5.953-4.765
	c-1.223,2.389-3.291,4.075-5.952,4.765c-0.157,0.041-0.321,0.05-0.481,0.027c-0.255-0.036-2.513-0.407-3.407-2.403
	c-0.713-1.591-0.271-3.602,1.313-5.978c1.307-1.96,2.57-2.829,3.869-2.665c0.578,0.075,1.629,0.444,2.188,2.073
	c0.304,0.887,0.395,2.036,0.229,3.153c0.428-0.811,0.664-1.613,0.794-2.24c0.142-0.681,0.21-1.382,0.214-2.084
	c0-0.011,0-0.022,0-0.033c0.004-3.042-1.233-6.105-3.247-7.679c-1.726-1.35-3.865-1.472-6.182-0.356
	c-5.592,2.486-6.747,12.019-4.629,19.435c0.479,1.677,1.867,5.682,4.736,8.209c0.37,0.087-2.362-0.554-4.023-0.891
	c-1.287-1.821-2.345-4.042-3.086-6.641c-2.453-8.594-0.893-19.305,5.966-22.353c3.144-1.513,6.258-1.287,8.739,0.652
	c1.24,0.97,2.245,2.329,2.961,3.892c0.717-1.563,1.722-2.922,2.962-3.892c2.48-1.938,5.596-2.166,8.772-0.636
	c6.825,3.033,8.386,13.744,5.933,22.337c-0.743,2.602-1.804,4.821-3.094,6.643c-1.361,0.276-2.709,0.585-4.043,0.902
	c2.884-2.525,4.282-6.541,4.763-8.222C80.452,46.642,79.297,37.109,73.739,34.639z M85.793,83.731
	c-1.129,0.384-2.375,0.578-3.705,0.578c-3.053,0-5.826-1.008-7.189-1.599c0.983-1.769,3.711-5.99,8.012-7.453
	c1.129-0.384,2.375-0.579,3.705-0.579c3.085,0,5.948,1.066,7.189,1.6C92.825,78.047,90.103,82.266,85.793,83.731z M101.317,65.398
	c-0.183,0.152-0.384,0.302-0.587,0.451c-0.895-0.29-1.77-0.619-2.632-0.975c0.616-0.364,1.181-0.74,1.646-1.127
	c2.715-2.234,6.613-7.785,6.575-11.987c-0.014-1.549-0.565-2.732-1.682-3.617c-1.624-1.229-3.093-1.014-4.035-0.614
	c-1.605,0.681-2.835,2.382-3.059,4.234c-0.209,1.671,0.295,3.104,1.349,3.84c0.658,0.46,1.435,0.556,2.026,0.251
	c0.775-0.4,1.227-1.469,1.239-2.934c0.005-0.678,0.558-1.223,1.234-1.223c0.003,0,0.007,0,0.01,0
	c0.682,0.006,1.229,0.563,1.224,1.245c-0.029,3.301-1.626,4.616-2.576,5.106c-1.407,0.726-3.158,0.566-4.572-0.421
	c-0.799-0.559-1.409-1.326-1.825-2.222c-0.563,1.98-1.294,3.731-2.054,4.931c-0.386,0.618-0.878,1.253-1.438,1.89
	c-1.146-0.493-2.278-0.937-3.404-1.254c0.256,0.069,0.512,0.139,0.769,0.22c0.813-0.82,1.496-1.641,1.983-2.42
	c1.835-2.898,3.637-10.117,2.182-14.408c-0.546-1.606-1.459-2.625-2.796-3.116c-1.237-0.425-2.365-0.218-3.321,0.62
	c-1.524,1.334-2.341,4.002-1.9,6.208c0.324,1.652,1.25,2.856,2.481,3.226c0.77,0.232,1.538,0.08,2.004-0.395
	c0.61-0.622,0.706-1.778,0.26-3.174c-0.208-0.649,0.151-1.344,0.8-1.551c0.649-0.208,1.344,0.152,1.551,0.801
	c1.004,3.145-0.103,4.894-0.852,5.655c-1.11,1.129-2.822,1.525-4.474,1.028c-2.124-0.638-3.691-2.549-4.192-5.111
	c-0.61-3.048,0.524-6.643,2.696-8.544c1.624-1.421,3.673-1.809,5.773-1.089c2.048,0.752,3.529,2.357,4.307,4.649
	c0.389,1.147,0.583,2.441,0.638,3.792c0.781-1.029,1.797-1.859,2.97-2.356c2.149-0.911,4.521-0.571,6.511,0.935
	c1.712,1.356,2.617,3.268,2.638,5.546C108.833,56.515,104.479,62.796,101.317,65.398z M112.855,65.375
	c-0.38,0.482-0.687,0.735-0.917,0.938l-1.102,0.243c-1.241,0.275-2.505,0.415-3.755,0.415c-0.132,0-0.259-0.016-0.391-0.019
	c2.753-0.596,7.691-3.369,4.08-5.411c-0.927-0.524-2.104-0.19-2.624,0.766c-0.623,1.149,1.806,0.203,2.203,0.061
	c1.002-0.357,1.43,1.234,0.437,1.587c-1.413,0.503-5.153,1.021-4.371-1.734c0.479-1.687,2.434-2.991,4.185-2.518
	C113.172,60.399,114.598,63.168,112.855,65.375z"/>
</svg>
