<?xml version="1.0" encoding="utf-8"?>
<!-- Generator: Adobe Illustrator 16.0.0, SVG Export Plug-In . SVG Version: 6.00 Build 0)  -->
<!DOCTYPE svg PUBLIC "-//W3C//DTD SVG 1.1//EN" "http://www.w3.org/Graphics/SVG/1.1/DTD/svg11.dtd">
<svg version="1.1" id="Layer_1" xmlns="http://www.w3.org/2000/svg" xmlns:xlink="http://www.w3.org/1999/xlink" x="0px" y="0px"
	 width="126px" height="126px" viewBox="0 0 126 126" enable-background="new 0 0 126 126" xml:space="preserve">
<path fill-rule="evenodd" clip-rule="evenodd" d="M114.744,65.968c-1.152,0.691-5.52,3.914-9.852,4.873
	c0.49-1.215,0.908-2.461,1.283-3.721c9.768-3.646,14.021-15.424,12.682-14.082c-1.469,0.881-8.152,5.863-13.334,5.045
	c1.877-11.258-1.924-25.197-2.393-22.572c-0.881,1.963-3.559,9.832-8.139,15.379c-0.516-0.207-1.07-0.383-1.68-0.531
	c-0.043-6.73-3.717-14.48-3.717-12.906c-0.383,1.529-1.436,8.666-4.926,12.188c-0.479-0.006-0.971-0.008-1.492-0.008
	c0,0-9.42,3.518-20.314,3.518s-20.041-3.518-20.041-3.518c-0.521,0-1.014,0.002-1.492,0.008c-3.49-3.521-4.543-10.658-4.926-12.188
	c0-1.574-3.674,6.176-3.717,12.906c-0.609,0.148-1.164,0.324-1.68,0.531c-4.58-5.547-7.258-13.416-8.139-15.379
	c-0.469-2.625-4.27,11.314-2.393,22.572c-5.182,0.818-11.867-4.164-13.334-5.045c-1.34-1.342,2.914,10.436,12.682,14.082
	c0.375,1.26,0.793,2.506,1.283,3.721c-4.332-0.959-8.699-4.182-9.852-4.873c-1.445-1.443,3.604,12.342,15.049,14.775
	c0.131,0.211,0.264,0.42,0.398,0.629c-1.857,1.174-4.277,3.596-5.879,8.576c2.99-2.666,5.977-3.98,9.023-4.416
	c1.559,1.662,3.389,3.031,5.752,3.879c2.762,0.992,5.578,1.543,8.5,1.367c1.629-0.098,3.104-0.795,4.557-1.516
	c1.441-0.717,11.072-8.594,14.344-8.594c3.273,0,12.902,7.877,14.344,8.594c1.453,0.721,2.928,1.418,4.557,1.516
	c2.922,0.176,5.738-0.375,8.5-1.367c2.363-0.848,4.193-2.217,5.752-3.879c3.047,0.436,6.033,1.75,9.023,4.416
	c-1.602-4.98-4.021-7.402-5.879-8.576c0.135-0.209,0.268-0.418,0.398-0.629C111.141,78.31,116.189,64.524,114.744,65.968z
	 M41.645,75.747c-5.84-1.986-8.867-8.611-8.867-8.611s6.439-3.402,12.279-1.416c5.84,1.984,8.869,8.609,8.869,8.609
	S47.486,77.733,41.645,75.747z M84.354,75.747c-5.84,1.986-12.279-1.418-12.279-1.418s3.029-6.625,8.869-8.609
	c5.84-1.986,12.279,1.416,12.279,1.416S90.195,73.761,84.354,75.747z"/>
</svg>
