<?xml version="1.0" encoding="utf-8"?>
<!-- Generator: Adobe Illustrator 16.0.0, SVG Export Plug-In . SVG Version: 6.00 Build 0)  -->
<!DOCTYPE svg PUBLIC "-//W3C//DTD SVG 1.1//EN" "http://www.w3.org/Graphics/SVG/1.1/DTD/svg11.dtd">
<svg version="1.1" id="Layer_1" xmlns="http://www.w3.org/2000/svg" xmlns:xlink="http://www.w3.org/1999/xlink" x="0px" y="0px"
	 width="126px" height="126px" viewBox="0 0 126 126" enable-background="new 0 0 126 126" xml:space="preserve">
<path fill-rule="evenodd" clip-rule="evenodd" d="M124.994,57.189c-0.027-0.05-0.053-0.1-0.079-0.15
	c-0.357-0.031-0.715-0.063-1.116-0.098c0.088-0.126,0.158-0.227,0.286-0.408c-1.858-0.155-2.628-1.426-3.216-2.932
	c-0.247-0.638-0.582-1.25-0.954-1.827c0.005,0,0.007-0.001,0.013-0.001c-0.069-0.129-0.112-0.253-0.19-0.347
	c-1.728-2.063-3.761-3.657-6.484-4.16c-3.513-0.649-6.747,0.867-8.497,3.998c-0.793,1.418-1.446,2.921-2.313,4.291
	c-1.661,2.632-4.184,3.793-7.222,3.919c2.938-0.833,4.53-2.745,4.575-5.656c-0.188,0.288-0.326,0.503-0.467,0.716
	c-1.774,2.704-4.688,3.844-7.384,3.861c-0.571-0.259-1.137-0.53-1.698-0.814c-4.662-2.364-9.463-4.024-14.805-3.565
	c-2.768,0.239-5.388,0.851-7.63,2.596c-2.555,1.988-3.788,4.758-4.586,7.784c-0.087,0.326-0.157,0.653-0.228,0.981
	c-0.07-0.328-0.142-0.655-0.228-0.981c-0.799-3.026-2.032-5.796-4.587-7.784c-2.241-1.745-4.861-2.356-7.63-2.596
	c-5.341-0.459-10.142,1.201-14.805,3.565c-0.561,0.284-1.126,0.556-1.698,0.814c-2.695-0.018-5.609-1.157-7.383-3.861
	c-0.141-0.213-0.279-0.428-0.467-0.716c0.045,2.911,1.637,4.823,4.575,5.656c-3.038-0.126-5.562-1.287-7.223-3.919
	c-0.865-1.37-1.519-2.873-2.312-4.291c-1.75-3.131-4.984-4.647-8.497-3.998c-2.724,0.503-4.757,2.097-6.484,4.16
	c-0.078,0.094-0.121,0.218-0.191,0.347c0.007,0,0.008,0.001,0.014,0.001c-0.372,0.577-0.707,1.189-0.955,1.827
	c-0.588,1.506-1.356,2.776-3.216,2.932c0.128,0.182,0.198,0.282,0.287,0.408c-0.402,0.035-0.76,0.066-1.117,0.098
	c-0.025,0.051-0.051,0.101-0.078,0.15c0.295,0.238,0.59,0.477,0.888,0.716c-0.13,0.06-0.319,0.146-0.562,0.259
	c1.336,0.49,2.495-0.032,2.961-1.269c0.367-0.979,0.732-1.958,1.195-2.915c-0.006,0.145-0.007,0.292-0.021,0.437
	c-0.322,3.463,1.622,6.568,4.893,7.679c2.976,1.008,7.415-1.281,6.92-5.537c-0.139-1.189-0.644-2.189-1.838-2.702
	c-0.181-0.077-0.315-0.278-0.456-0.435c-1.117-1.242-2.879-1.573-4.162-0.762c-0.37,0.234-0.726,0.502-0.775,1.055
	c1.617-1.591,3.903-0.885,4.555,1.344c0.351,1.2,0.237,2.332-0.533,3.358c0.13-0.583,0.386-1.167,0.352-1.732
	c-0.035-0.57-0.297-1.156-0.575-1.674c-0.306-0.569-0.895-0.807-1.646-0.978c0.169,0.211,0.255,0.318,0.34,0.426
	c-0.434,0.018-0.862,0.035-1.291,0.053c-0.013,0.066-0.023,0.134-0.035,0.201c0.267,0.209,0.533,0.418,0.802,0.629
	c-0.141,0.072-0.296,0.153-0.545,0.282c0.65,0.312,1.214,0.575,1.771,0.851c0.674,0.332,0.834,1.12,0.346,1.782
	c-0.721,0.977-1.758,1.249-3.051,1.315c0.498-0.216,0.857-0.369,1.218-0.524c-1.689,0.434-3.164-0.044-4.259-1.412
	c-1.757-2.192-1.102-5.095,0.604-6.849c1.103-0.506,2.251-0.88,3.483-0.985c3.735-0.32,6.885,0.712,8.982,4.044
	c0.563,0.895,1.104,1.804,1.642,2.713c0.576,0.975,1.225,1.808,1.945,2.5c-1.602-0.679-3.42,0.277-3.746,2.174
	c0.959-0.086,2.008-0.953,2.83,0.283c-2.674-0.617-4.078,1.01-5.29,2.995c0.207-0.109,0.405-0.24,0.622-0.323
	c0.387-0.146,0.775-0.315,1.178-0.386c0.546-0.095,0.83,0.137,1.013,0.699c-1.967,0.202-3.083,1.03-3.44,2.681
	c0.97-0.118,1.887-0.23,2.713-0.33c-1.037,1.513-1.792,3.266-0.883,5.431c0.176-0.458,0.275-0.837,0.457-1.171
	c0.31-0.566,0.617-1.149,1.021-1.647c0.724-0.894,1.442-1.777,1.766-3.021c0.521,1.225,0.199,2.247-0.387,3.343
	c1.079-0.627,1.916-1.338,2.451-2.348c0.316-0.597,0.279-1.217-0.12-1.911c0.921,0.472,1.059,0.768,0.878,1.73
	c0.682-0.347,1.097-0.882,1.273-1.593c0.084-0.338,0.142-0.689,0.154-1.036c0.035-0.921,0.424-1.527,1.663-1.765
	c2.577,2.275,4.652,5.049,6.892,7.637c3.391,3.919,7.207,7.068,12.47,8.06c3.104,0.585,6.171,0.3,9.237-0.263
	c2.03-0.373,4.063-0.736,6.096-1.103c2.031,0.366,4.065,0.729,6.096,1.103c3.065,0.563,6.133,0.848,9.237,0.263
	c5.263-0.991,9.079-4.141,12.47-8.06c2.239-2.588,4.314-5.361,6.892-7.637c1.239,0.237,1.628,0.844,1.663,1.765
	c0.012,0.347,0.07,0.698,0.154,1.036c0.177,0.711,0.592,1.246,1.272,1.593c-0.181-0.963-0.042-1.259,0.878-1.73
	c-0.399,0.694-0.436,1.314-0.119,1.911c0.535,1.01,1.371,1.721,2.451,2.348c-0.586-1.096-0.908-2.118-0.387-3.343
	c0.323,1.244,1.041,2.128,1.766,3.021c0.404,0.498,0.711,1.081,1.021,1.647c0.183,0.334,0.282,0.713,0.458,1.171
	c0.909-2.165,0.154-3.918-0.884-5.431c0.827,0.1,1.744,0.212,2.714,0.33c-0.357-1.65-1.474-2.479-3.44-2.681
	c0.182-0.563,0.466-0.794,1.013-0.699c0.402,0.07,0.791,0.239,1.178,0.386c0.216,0.083,0.414,0.214,0.621,0.323
	c-1.211-1.985-2.615-3.612-5.289-2.995c0.822-1.236,1.871-0.369,2.829-0.283c-0.325-1.896-2.144-2.853-3.745-2.174
	c0.721-0.692,1.369-1.525,1.945-2.5c0.537-0.909,1.078-1.818,1.642-2.713c2.098-3.332,5.247-4.364,8.982-4.044
	c1.231,0.105,2.38,0.479,3.482,0.985c1.705,1.754,2.36,4.656,0.604,6.849c-1.096,1.368-2.569,1.846-4.259,1.412
	c0.36,0.155,0.72,0.309,1.218,0.524c-1.293-0.066-2.33-0.339-3.051-1.315c-0.488-0.662-0.328-1.45,0.346-1.782
	c0.558-0.275,1.121-0.539,1.771-0.851c-0.25-0.129-0.404-0.21-0.545-0.282c0.268-0.211,0.535-0.42,0.802-0.629
	c-0.012-0.067-0.022-0.135-0.035-0.201c-0.429-0.018-0.858-0.035-1.291-0.053c0.085-0.107,0.171-0.215,0.339-0.426
	c-0.751,0.171-1.34,0.408-1.646,0.978c-0.279,0.518-0.54,1.104-0.575,1.674c-0.035,0.565,0.221,1.149,0.352,1.732
	c-0.771-1.026-0.884-2.158-0.533-3.358c0.651-2.229,2.937-2.935,4.555-1.344c-0.051-0.553-0.405-0.82-0.776-1.055
	c-1.283-0.812-3.044-0.48-4.161,0.762c-0.142,0.156-0.275,0.357-0.456,0.435c-1.194,0.513-1.699,1.513-1.838,2.702
	c-0.496,4.256,3.944,6.545,6.919,5.537c3.271-1.11,5.215-4.216,4.893-7.679c-0.013-0.145-0.014-0.292-0.021-0.437
	c0.463,0.957,0.829,1.936,1.196,2.915c0.465,1.236,1.625,1.759,2.961,1.269c-0.243-0.112-0.433-0.199-0.562-0.259
	C124.404,57.666,124.698,57.427,124.994,57.189z M6.195,54.053c-0.096-0.73,0.268-1.862,0.864-2.747
	c0.249-0.135,0.5-0.266,0.754-0.389C7.146,51.75,6.566,52.835,6.195,54.053z M24.501,62.728c-1.478,0.331-2.761,0.927-3.105,2.69
	c-0.228-0.876,0.062-1.621,0.798-2.158c0.791-0.577,1.71-0.826,2.662-0.915c0.888-0.083,1.783-0.102,2.676-0.135
	c0.097,0.078,0.195,0.155,0.292,0.234C26.713,62.415,25.604,62.481,24.501,62.728z M46.543,56.162
	c0.556-0.867,1.365-1.303,2.411-1.215c1.501,0.125,2.458,1.683,1.843,2.986c-0.551,1.164-2.061,1.364-2.777,0.366
	c-0.444-0.618-0.247-1.492,0.413-1.829c0.463-0.236,1.04-0.078,1.29,0.365c0.151,0.271,0.166,0.551-0.016,0.816
	c-0.179,0.263-0.418,0.385-0.771,0.288c0.189-0.069,0.362-0.098,0.492-0.188c0.265-0.185,0.309-0.526,0.138-0.805
	c-0.185-0.299-0.589-0.432-0.919-0.3c-0.611,0.243-0.764,1.08-0.275,1.561c0.344,0.337,0.759,0.475,1.225,0.314
	c0.564-0.197,0.877-0.633,0.957-1.208c0.148-1.093-0.956-2.053-2.11-1.856c-1.623,0.275-2.414,2.304-1.457,3.729
	c0.86,1.283,2.568,1.731,4.077,1.015c0.504-0.238,0.941-0.618,1.418-0.92c0.495-0.314,0.978-0.663,1.507-0.907
	c0.621-0.286,1.354-0.196,1.827,0.112c-1.101-0.239-1.657-0.129-2.57,0.54c-0.349,0.255-0.664,0.557-1.017,0.808
	c-0.381,0.27-0.763,0.557-1.185,0.747c-1.751,0.793-3.776,0.157-4.63-1.442C45.873,58.131,45.932,57.118,46.543,56.162z
	 M49.279,64.183c0.378,0.163,0.883,0.045,1.117-0.259c0.206-0.268,0.213-0.676,0.016-0.945c-0.192-0.259-0.616-0.322-0.873-0.13
	c-0.212,0.157-0.263,0.468-0.11,0.673c0.167,0.227,0.405,0.218,0.726-0.028c0.015,0.029,0.027,0.059,0.042,0.087
	c-0.165,0.074-0.344,0.227-0.493,0.201c-0.168-0.028-0.37-0.185-0.449-0.34c-0.186-0.364,0.071-0.774,0.494-0.869
	c0.385-0.086,0.749,0.095,0.923,0.46c0.199,0.416,0.087,0.922-0.269,1.208c-0.61,0.492-1.559,0.273-1.897-0.445
	c-0.265-0.558-0.226-1.104,0.154-1.596c0.403-0.52,0.958-0.721,1.598-0.626c0.829,0.122,1.331,0.647,1.658,1.391
	c0.21,0.475,0.466,0.93,0.665,1.322c-0.26-0.13-0.43-0.47-0.604-0.808c-0.169-0.331-0.306-0.688-0.524-0.982
	c-0.562-0.759-1.557-0.944-2.271-0.456c-0.412,0.283-0.597,0.688-0.554,1.18C48.665,63.654,48.856,64.001,49.279,64.183z
	 M41.824,56.947c1.247-0.629,2.793-0.161,3.566,1.115c0.242,0.397,0.404,0.844,0.584,1.276c0.296,0.715,0.701,1.316,1.487,1.555
	c-0.536-0.059-0.957-0.313-1.23-0.747c-0.268-0.426-0.486-0.883-0.702-1.338c-0.284-0.599-0.644-1.125-1.229-1.468
	c-1.173-0.685-2.618-0.322-3.134,0.787c-0.492,1.056,0.119,2.302,1.191,2.408c0.528,0.052,0.984-0.112,1.263-0.591
	c0.237-0.409,0.214-0.833-0.057-1.226c-0.253-0.368-0.809-0.468-1.192-0.228c-0.322,0.199-0.467,0.646-0.236,0.938
	c0.126,0.158,0.391,0.279,0.593,0.28c0.139,0.001,0.347-0.213,0.401-0.373c0.082-0.24-0.068-0.435-0.332-0.512
	c0.335,0.05,0.493,0.241,0.462,0.546c-0.031,0.313-0.356,0.557-0.708,0.532c-0.344-0.024-0.619-0.27-0.702-0.626
	c-0.094-0.409,0.102-0.835,0.476-1.037c0.738-0.399,1.65,0.095,1.738,0.957c0.064,0.625-0.141,1.145-0.706,1.467
	c-0.658,0.373-1.326,0.348-1.938-0.088C40.163,59.681,40.396,57.669,41.824,56.947z M45.659,73.618
	c-0.061,0.185-0.151,0.358-0.229,0.538c-0.317,0.234-0.634,0.47-0.951,0.704c-1.709,0.145-3.01-0.731-3.813-2.574
	c-0.098-0.224-0.101-0.548-0.495-0.413c-0.078-0.241-0.229-0.486-0.218-0.724c0.017-0.355,0.146-0.706,0.104-1.108
	c-0.096,0.135-0.164,0.311-0.292,0.393c-0.187,0.118-0.5,0.294-0.611,0.222c-0.276-0.183-0.396-0.452-0.123-0.827
	c0.41-0.566,0.729-1.197,1.089-1.801c-0.064-0.04-0.128-0.08-0.191-0.119c-0.301,0.367-0.58,0.757-0.909,1.098
	c-0.532,0.554-0.804,0.516-1.205-0.129c-0.113-0.181-0.181-0.389-0.283-0.611c1.133-0.559,2.15-1.179,2.251-2.446
	c-0.638,0.494-1.277,1.106-2.023,1.535c-0.842,0.484-1.414,0.101-1.564-0.904c1.734,0.114,2.916-0.727,3.091-2.2
	c0.179-1.514-1.018-3.178-2.461-3.412c-0.877-0.143-1.61,0.143-2.144,0.846c-0.46,0.604-0.543,1.28-0.205,1.979
	c0.36,0.744,1.223,1.065,1.94,0.731c0.656-0.306,0.773-0.985,0.264-1.531c-0.017,0.011-0.044,0.018-0.05,0.032
	c-0.136,0.319-0.242,0.733-0.698,0.581c-0.186-0.063-0.445-0.442-0.396-0.561c0.128-0.303,0.363-0.676,0.643-0.775
	c0.818-0.292,1.633,0.568,1.517,1.53c-0.161,1.314-1.763,1.983-2.965,1.238c-0.84-0.521-1.293-1.5-1.096-2.488
	c0.231-1.158,0.942-1.909,2.085-2.21c1.349-0.354,2.781,0.305,3.599,1.58c0.678,1.059,1.028,2.227,1.156,3.455
	c0.17,1.611,0.28,3.228,0.409,4.842c0.102,1.279,0.436,2.472,1.418,3.362c0.345,0.313,0.783,0.568,1.223,0.718
	c0.564,0.191,1.256-0.131,1.419-0.647c0.079-0.253-0.082-0.579-0.134-0.873c-0.203,0.117-0.406,0.234-0.761,0.438
	c-0.349-0.061-0.608-0.377-0.515-0.926c0.08-0.467,0.625-0.743,1.137-0.617C45.461,71.738,45.948,72.749,45.659,73.618z
	 M58.857,72.726c-2.277-0.096-4.54,0.275-6.832,0.083c-3.031-0.254-5.239-1.665-6.781-4.226c-0.425-0.703-0.338-1.116,0.369-1.481
	c1.979-1.023,4.044-1.751,6.558-1.741c1.386-0.064,2.873,0.365,4.179,1.354c1.766,1.336,2.628,3.229,3.185,5.293
	C59.673,72.523,59.315,72.746,58.857,72.726z M59.223,63.195c-0.312-0.568-0.554-1.175-0.85-1.752
	c-0.618-1.207-1.567-1.966-2.956-2.064c-1.817-0.126-3.173,1.428-2.744,3.125c0.345,1.362,1.842,1.978,2.938,1.206
	c0.699-0.493,0.828-1.538,0.268-2.164c-0.346-0.386-0.953-0.49-1.423-0.247c-0.389,0.2-0.586,0.637-0.481,1.065
	c0.092,0.374,0.38,0.617,0.741,0.623c0.324,0.006,0.611-0.198,0.672-0.492c0.08-0.386-0.117-0.612-0.542-0.762
	c0.567,0.07,0.818,0.45,0.669,0.897c-0.11,0.331-0.355,0.514-0.69,0.554c-0.37,0.046-0.688-0.069-0.92-0.377
	c-0.555-0.739-0.093-1.793,0.859-1.949c0.605-0.099,1.127,0.071,1.501,0.571c0.432,0.578,0.496,1.225,0.21,1.877
	c-0.611,1.396-2.64,1.639-3.706,0.456c-1.324-1.468-0.713-3.83,1.185-4.575c1.776-0.698,3.811,0.196,4.664,2.057
	c0.181,0.393,0.339,0.797,0.497,1.199c0.386,0.982,0.953,1.781,2.054,2.064C60.273,64.431,59.639,63.952,59.223,63.195z
	 M80.609,58.062c0.773-1.276,2.319-1.744,3.565-1.115c1.429,0.723,1.662,2.734,0.405,3.629c-0.611,0.436-1.279,0.461-1.937,0.088
	c-0.565-0.322-0.771-0.842-0.706-1.467c0.088-0.862,1-1.356,1.737-0.957c0.375,0.202,0.569,0.628,0.476,1.037
	c-0.082,0.356-0.357,0.602-0.702,0.626c-0.351,0.024-0.676-0.22-0.707-0.532c-0.031-0.305,0.126-0.496,0.461-0.546
	c-0.263,0.077-0.414,0.271-0.331,0.512c0.055,0.16,0.263,0.374,0.401,0.373c0.202-0.001,0.467-0.122,0.592-0.28
	c0.231-0.291,0.086-0.738-0.235-0.938c-0.385-0.24-0.939-0.141-1.192,0.228c-0.271,0.393-0.294,0.816-0.057,1.226
	c0.277,0.479,0.734,0.643,1.263,0.591c1.071-0.106,1.683-1.353,1.191-2.408c-0.516-1.109-1.961-1.472-3.134-0.787
	c-0.586,0.343-0.946,0.869-1.229,1.468c-0.216,0.455-0.436,0.912-0.702,1.338c-0.273,0.434-0.694,0.688-1.231,0.747
	c0.787-0.238,1.192-0.84,1.488-1.555C80.204,58.906,80.367,58.459,80.609,58.062z M72.012,58.375
	c0.529,0.244,1.013,0.593,1.508,0.907c0.477,0.302,0.913,0.682,1.418,0.92c1.509,0.717,3.217,0.269,4.077-1.015
	c0.957-1.426,0.165-3.454-1.457-3.729c-1.154-0.196-2.259,0.764-2.11,1.856c0.079,0.575,0.392,1.011,0.957,1.208
	c0.466,0.16,0.881,0.022,1.225-0.314c0.488-0.48,0.336-1.317-0.275-1.561c-0.33-0.132-0.734,0.001-0.919,0.3
	c-0.172,0.278-0.127,0.62,0.138,0.805c0.13,0.09,0.303,0.118,0.492,0.188c-0.354,0.097-0.594-0.025-0.771-0.288
	c-0.183-0.266-0.167-0.546-0.016-0.816c0.249-0.443,0.827-0.602,1.29-0.365c0.66,0.337,0.857,1.211,0.413,1.829
	c-0.718,0.998-2.227,0.798-2.777-0.366c-0.615-1.304,0.342-2.861,1.842-2.986c1.047-0.088,1.856,0.348,2.412,1.215
	c0.611,0.956,0.67,1.97,0.13,2.979c-0.854,1.6-2.879,2.235-4.63,1.442c-0.422-0.19-0.805-0.478-1.185-0.747
	c-0.353-0.251-0.669-0.553-1.017-0.808c-0.914-0.669-1.47-0.779-2.57-0.54C70.658,58.179,71.392,58.089,72.012,58.375z
	 M76.461,62.849c-0.257-0.192-0.681-0.129-0.873,0.13c-0.197,0.27-0.191,0.678,0.015,0.945c0.234,0.304,0.74,0.422,1.118,0.259
	c0.422-0.182,0.614-0.529,0.651-0.963c0.042-0.492-0.142-0.896-0.554-1.18c-0.715-0.488-1.709-0.303-2.271,0.456
	c-0.218,0.294-0.354,0.651-0.523,0.982c-0.174,0.338-0.344,0.678-0.604,0.808c0.199-0.393,0.455-0.848,0.664-1.322
	c0.328-0.743,0.83-1.269,1.659-1.391c0.64-0.095,1.194,0.106,1.597,0.626c0.381,0.492,0.42,1.038,0.155,1.596
	c-0.339,0.719-1.288,0.938-1.897,0.445c-0.355-0.286-0.468-0.792-0.269-1.208c0.173-0.365,0.537-0.546,0.923-0.46
	c0.423,0.095,0.68,0.505,0.494,0.869c-0.079,0.155-0.281,0.312-0.449,0.34c-0.149,0.025-0.328-0.127-0.494-0.201
	c0.016-0.028,0.028-0.058,0.043-0.087c0.32,0.246,0.558,0.255,0.726,0.028C76.724,63.317,76.673,63.006,76.461,62.849z
	 M64.833,64.507c1.101-0.283,1.668-1.082,2.054-2.064c0.158-0.402,0.316-0.807,0.496-1.199c0.854-1.86,2.889-2.755,4.664-2.057
	c1.898,0.745,2.51,3.107,1.186,4.575c-1.066,1.183-3.095,0.94-3.706-0.456c-0.286-0.652-0.223-1.299,0.21-1.877
	c0.374-0.5,0.896-0.67,1.5-0.571c0.953,0.156,1.414,1.21,0.859,1.949c-0.23,0.308-0.55,0.423-0.919,0.377
	c-0.335-0.04-0.581-0.223-0.69-0.554c-0.149-0.447,0.101-0.827,0.668-0.897c-0.424,0.149-0.621,0.376-0.542,0.762
	c0.062,0.294,0.349,0.498,0.672,0.492c0.362-0.006,0.649-0.249,0.742-0.623c0.104-0.429-0.093-0.865-0.481-1.065
	c-0.47-0.243-1.077-0.139-1.423,0.247c-0.562,0.626-0.433,1.671,0.268,2.164c1.096,0.771,2.593,0.156,2.938-1.206
	c0.429-1.697-0.927-3.251-2.744-3.125c-1.39,0.099-2.338,0.857-2.956,2.064c-0.296,0.577-0.539,1.184-0.85,1.752
	C66.361,63.952,65.727,64.431,64.833,64.507z M73.975,72.809c-2.292,0.192-4.555-0.179-6.833-0.083
	c-0.457,0.02-0.815-0.203-0.677-0.719c0.557-2.063,1.42-3.957,3.186-5.293c1.305-0.988,2.792-1.418,4.179-1.354
	c2.514-0.01,4.579,0.718,6.558,1.741c0.706,0.365,0.794,0.778,0.369,1.481C79.214,71.144,77.006,72.555,73.975,72.809z
	 M91.271,64.909c-1.202,0.745-2.805,0.076-2.965-1.238c-0.116-0.962,0.697-1.822,1.517-1.53c0.279,0.1,0.515,0.473,0.643,0.775
	c0.05,0.118-0.21,0.498-0.396,0.561c-0.456,0.152-0.563-0.262-0.698-0.581c-0.006-0.015-0.033-0.021-0.05-0.032
	c-0.51,0.546-0.394,1.226,0.264,1.531c0.718,0.334,1.579,0.013,1.94-0.731c0.338-0.699,0.254-1.376-0.205-1.979
	c-0.534-0.703-1.267-0.988-2.145-0.846c-1.443,0.234-2.639,1.898-2.461,3.412c0.175,1.474,1.356,2.314,3.092,2.2
	c-0.151,1.005-0.723,1.389-1.564,0.904c-0.747-0.429-1.386-1.041-2.023-1.535c0.101,1.268,1.118,1.888,2.25,2.446
	c-0.102,0.223-0.17,0.431-0.282,0.611c-0.401,0.645-0.673,0.683-1.205,0.129c-0.329-0.341-0.608-0.73-0.909-1.098
	c-0.064,0.039-0.127,0.079-0.191,0.119c0.358,0.604,0.679,1.234,1.089,1.801c0.271,0.375,0.153,0.645-0.124,0.827
	c-0.111,0.072-0.424-0.104-0.61-0.222c-0.128-0.082-0.196-0.258-0.292-0.393c-0.043,0.402,0.088,0.753,0.104,1.108
	c0.012,0.237-0.14,0.482-0.218,0.724c-0.395-0.135-0.398,0.189-0.495,0.413c-0.804,1.843-2.104,2.719-3.813,2.574
	c-0.317-0.234-0.635-0.47-0.951-0.704c-0.078-0.18-0.169-0.354-0.23-0.538c-0.288-0.869,0.199-1.88,0.99-2.075
	c0.512-0.126,1.057,0.15,1.137,0.617c0.094,0.549-0.167,0.865-0.516,0.926c-0.354-0.204-0.557-0.321-0.76-0.438
	c-0.053,0.294-0.214,0.62-0.134,0.873c0.163,0.517,0.854,0.839,1.419,0.647c0.439-0.149,0.878-0.404,1.223-0.718
	c0.982-0.891,1.316-2.083,1.418-3.362c0.129-1.614,0.239-3.23,0.408-4.842c0.129-1.229,0.479-2.396,1.157-3.455
	c0.817-1.275,2.25-1.935,3.599-1.58c1.143,0.301,1.854,1.052,2.085,2.21C92.563,63.409,92.109,64.388,91.271,64.909z M103.807,63.26
	c0.736,0.537,1.025,1.282,0.797,2.158c-0.344-1.764-1.627-2.359-3.104-2.69c-1.104-0.247-2.212-0.313-3.322-0.283
	c0.096-0.079,0.194-0.156,0.292-0.234c0.893,0.033,1.787,0.052,2.676,0.135C102.096,62.434,103.016,62.683,103.807,63.26z
	 M119.805,54.053c-0.371-1.218-0.95-2.304-1.619-3.136c0.254,0.123,0.505,0.254,0.755,0.389
	C119.537,52.191,119.899,53.323,119.805,54.053z"/>
</svg>
