<?xml version="1.0" encoding="utf-8"?>
<!-- Generator: Adobe Illustrator 16.0.0, SVG Export Plug-In . SVG Version: 6.00 Build 0)  -->
<!DOCTYPE svg PUBLIC "-//W3C//DTD SVG 1.1//EN" "http://www.w3.org/Graphics/SVG/1.1/DTD/svg11.dtd">
<svg version="1.1" id="Layer_1" xmlns="http://www.w3.org/2000/svg" xmlns:xlink="http://www.w3.org/1999/xlink" x="0px" y="0px"
	 width="126px" height="126px" viewBox="0 0 126 126" enable-background="new 0 0 126 126" xml:space="preserve">
<path fill-rule="evenodd" clip-rule="evenodd" d="M115.387,49.347c0.065,0.073,0.132,0.141,0.303,0.326
	c-0.577-1.311-2.146-1.824-3.406-1.245c-2.479,1.134-2.672,4.466-0.357,6.15c1.402,1.02,3.275,1.006,4.79,0.164
	c-0.011,0.159-0.024,0.318-0.037,0.478c-0.936,0.268-1.156,1.065-0.519,2.057c0.1-0.045,0.199-0.088,0.299-0.132
	c-0.163,1.146-0.391,2.282-0.684,3.409c-1.176-0.131-2.313-0.2-3.391-0.488c-4.167-1.109-6.931-5.705-6.003-9.823
	c0.816-3.618,4.665-6.064,8.154-5.182c0.603,0.153,1.155,0.407,1.647,0.734c0.242,1.322,0.426,2.659,0.521,4.016
	c0.102,1.456,0.11,2.899,0.04,4.332c-1.766,1.217-4.263,1.002-5.509-0.856c-1.028-1.532-0.708-3.447,0.729-4.389
	C113.148,48.125,114.441,48.294,115.387,49.347z M115.402,61.881c-0.142,0.459-0.288,0.917-0.453,1.373
	c-0.952,2.626-2.352,5.001-4.013,7.253c-2.433,3.298-1.482,6.071-1.82,9.694c-0.414,4.429-0.462,8.766-1.788,12.99
	c-0.813,2.589-1.881,5.063-3.682,7.148c-0.568,0.657-1.241,1.188-2.021,1.581c-1.476,0.744-2.804,0.25-4.066-0.523
	c-1.98-1.214-3.575-2.879-5.106-4.591c-2.796-3.125-5.271-6.505-7.738-9.889c-1.69-2.317-3.375-4.639-5.041-6.974
	c-0.551-0.772-1.18-1.301-2.163-1.521c-3.306-0.74-6.448-1.928-9.35-3.707c-1.908-1.17-3.609-2.564-4.755-4.537
	c-0.155-0.269-0.286-0.534-0.405-0.8c-0.119,0.266-0.25,0.531-0.405,0.8c-1.146,1.973-2.847,3.367-4.755,4.537
	c-2.901,1.779-6.044,2.967-9.35,3.707c-0.983,0.221-1.612,0.749-2.163,1.521c-1.666,2.335-3.351,4.656-5.041,6.974
	c-2.468,3.384-4.942,6.764-7.738,9.889c-1.531,1.712-3.126,3.377-5.106,4.591c-1.263,0.773-2.591,1.268-4.066,0.523
	c-0.78-0.393-1.453-0.924-2.021-1.581c-1.801-2.085-2.869-4.56-3.682-7.148c-1.326-4.225-1.374-8.562-1.788-12.99
	c-0.338-3.623,0.612-6.396-1.82-9.694c-1.661-2.252-3.061-4.627-4.013-7.253c-0.165-0.456-0.312-0.914-0.453-1.373
	c3.47,0.017,6.326-1.315,8.389-4.146c3.274-4.492,2.321-10.188-2.417-12.854c-1.448-0.814-1.897-2.822-1.012-4.233
	c0.855-1.366,2.89-1.573,3.882-0.379c0.525,0.635,0.637,1.363,0.288,2.113c-0.283,0.612-0.78,0.959-1.48,0.953
	c-0.836-0.007-1.291-0.48-1.619-1.198c0.128,0.289,0.195,0.628,0.395,0.858c0.805,0.944,2.393,0.666,2.963-0.496
	c0.668-1.358-0.177-3.016-1.706-3.34c-2.184-0.467-4.027,1.401-3.657,3.732c0.072,0.45,0.244,0.887,0.388,1.387
	c-1.917-0.467-3.577-0.258-5.023,0.552c0.343-1.603,0.804-3.179,1.407-4.723c1.645-4.209,3.971-7.964,7.455-10.926
	c2.479-2.105,5.295-3.561,8.442-4.355c3.374-0.852,6.786-1.313,10.286-1.037c3.738,0.295,7.226,1.369,10.381,3.354
	c1.981,1.245,3.648,2.891,4.883,4.931c1.415,2.339,2.134,4.842,1.705,7.567c-0.558,3.537-2.717,6.408-5.705,8.191
	c-2.504,1.495-5.127,1.602-7.94,0.843c-1.681-0.453-6.796-2.731-9.176-8.403c-0.348-1.387-0.197-2.75,1.049-3.695
	c2.844-2.158,6.094-0.131,6.995,2.259c0.35,0.926-0.032,1.743-0.924,2.194c-0.506,0.256-1.041,0.385-1.604,0.393
	c-0.402,0.006-0.476,0.189-0.28,0.506c1.215,1.974,2.665,3.684,4.924,4.538c3.789,1.436,8.014-0.965,8.981-4.438
	c0.832-2.981,0.469-5.819-1.155-8.54c-1.113-1.864-2.586-3.287-4.355-4.461c-1.721-1.142-3.586-1.968-5.584-2.49
	c-3.766-0.983-7.526-1.138-11.245,0.195c-2.637,0.944-5.223,2.573-6.477,5.135c-0.897,1.832-1.061,3.801-1.015,5.821
	c0.088,3.805,1.954,7.095,4.397,9.941c2.749,3.203,6.288,5.182,10.295,6.388c2.058,0.619,4.179,0.945,6.278,1.369
	c3.282,0.662,6.555,1.379,9.763,2.323c2.061,0.606,4.104,1.337,6.032,2.333c1.161,0.6,2.279,1.258,3.296,2.076
	c0.87,0.7,1.485,1.473,1.903,2.29c0.418-0.817,1.033-1.59,1.903-2.29c1.017-0.818,2.135-1.477,3.296-2.076
	c1.929-0.996,3.972-1.727,6.032-2.333c3.208-0.944,6.48-1.661,9.763-2.323c2.1-0.424,4.221-0.75,6.278-1.369
	c4.007-1.206,7.546-3.185,10.295-6.388c2.443-2.847,4.31-6.137,4.397-9.941c0.046-2.021-0.117-3.989-1.015-5.821
	c-1.254-2.562-3.84-4.19-6.477-5.135c-3.719-1.333-7.479-1.179-11.245-0.195c-1.998,0.522-3.863,1.349-5.584,2.49
	c-1.77,1.174-3.242,2.597-4.355,4.461c-1.624,2.721-1.987,5.559-1.155,8.54c0.968,3.473,5.192,5.873,8.981,4.438
	c2.259-0.854,3.709-2.564,4.924-4.538c0.195-0.316,0.122-0.5-0.28-0.506c-0.563-0.008-1.098-0.137-1.604-0.393
	c-0.892-0.451-1.273-1.269-0.924-2.194c0.901-2.39,4.151-4.417,6.995-2.259c1.246,0.945,1.396,2.309,1.049,3.695
	c-2.38,5.672-7.495,7.95-9.176,8.403c-2.813,0.759-5.437,0.652-7.94-0.843c-2.988-1.783-5.147-4.654-5.705-8.191
	c-0.429-2.726,0.29-5.229,1.705-7.567c1.234-2.04,2.901-3.686,4.883-4.931c3.155-1.984,6.643-3.059,10.381-3.354
	c3.5-0.275,6.912,0.186,10.286,1.037c3.147,0.795,5.964,2.25,8.442,4.355c3.484,2.962,5.811,6.717,7.455,10.926
	c0.604,1.544,1.064,3.12,1.407,4.723c-1.446-0.81-3.106-1.019-5.023-0.552c0.144-0.5,0.315-0.937,0.388-1.387
	c0.37-2.331-1.474-4.199-3.657-3.732c-1.529,0.324-2.374,1.981-1.706,3.34c0.57,1.162,2.158,1.44,2.963,0.496
	c0.199-0.23,0.267-0.569,0.395-0.858c-0.328,0.718-0.783,1.191-1.619,1.198c-0.7,0.006-1.197-0.341-1.48-0.953
	c-0.349-0.75-0.237-1.479,0.288-2.113c0.992-1.194,3.026-0.987,3.882,0.379c0.886,1.411,0.437,3.419-1.012,4.233
	c-4.738,2.665-5.691,8.361-2.417,12.854C109.076,60.566,111.933,61.898,115.402,61.881z M107.211,35.609
	c-0.084,0.946,0.397,1.801,1.295,2.229c-0.136-0.254-0.238-0.447-0.386-0.723c0.301,0.218,0.521,0.378,0.742,0.539l0.007,0.005
	c-0.001-0.002-0.001-0.003-0.002-0.005c0-0.003,0.001-0.007,0-0.012c0.151-0.271,0.305-0.543,0.517-0.925
	c-0.054,0.343-0.089,0.563-0.132,0.838c0.155-0.057,0.273-0.098,0.393-0.142c0,0.001,0,0.001-0.001,0.002
	c-0.003,0.001,0.017-0.008,0.017-0.008c-0.062,0.082-0.125,0.166-0.256,0.342c0.307-0.062,0.515-0.101,0.867-0.172
	c-0.325,0.229-0.535,0.373-0.818,0.574c0.29,0.188,0.494,0.317,0.805,0.518c-0.299-0.045-0.479-0.07-0.68-0.1
	c0.525,0.863,1.471,1.232,2.413,0.818c-0.591-0.459-1.109-0.862-1.646-1.278c0.531-0.258,1.314-0.316,1.552-1.184
	c-0.848-0.176-1.561,0.061-2.24,0.482c-0.005,0.002-0.009,0.004-0.012,0.005c0.127-0.31,0.294-0.612,0.358-0.934
	c0.079-0.409,0.071-0.836-0.002-1.271c-0.927,0.593-1.219,1.433-1.134,2.434c0,0.003-0.002,0.003-0.002,0.006
	c-0.162-0.39-0.294-0.794-0.489-1.163C108.131,36.025,107.792,35.652,107.211,35.609z M105.815,38.287
	c0.886,0.444,1.694,0.607,2.721,0.152c-0.38-0.068-0.605-0.109-1.023-0.184c0.417-0.068,0.64-0.103,0.91-0.146
	C107.4,37.548,106.539,37.589,105.815,38.287z M17.138,37.655c0.222-0.161,0.441-0.321,0.742-0.539
	c-0.147,0.275-0.25,0.469-0.386,0.723c0.897-0.429,1.379-1.283,1.295-2.229c-0.581,0.043-0.92,0.416-1.165,0.877
	c-0.195,0.369-0.327,0.773-0.489,1.163c0-0.003-0.002-0.003-0.002-0.006c0.085-1.001-0.207-1.841-1.134-2.434
	c-0.073,0.436-0.081,0.862-0.002,1.271c0.064,0.321,0.231,0.624,0.358,0.934c-0.003-0.001-0.007-0.003-0.012-0.005
	c-0.68-0.422-1.393-0.658-2.24-0.482c0.237,0.867,1.021,0.926,1.552,1.184c-0.537,0.416-1.056,0.819-1.646,1.278
	c0.942,0.414,1.888,0.045,2.413-0.818c-0.201,0.029-0.381,0.055-0.68,0.1c0.311-0.2,0.515-0.33,0.805-0.518
	c-0.283-0.201-0.493-0.346-0.818-0.574c0.353,0.071,0.561,0.11,0.867,0.172c-0.131-0.176-0.194-0.26-0.256-0.342
	c0,0,0.02,0.009,0.017,0.008c-0.001-0.001-0.001-0.001-0.001-0.002c0.119,0.044,0.237,0.085,0.393,0.142
	c-0.043-0.275-0.078-0.495-0.132-0.838c0.212,0.382,0.365,0.654,0.517,0.925c-0.001,0.005,0,0.009,0,0.012
	c-0.001,0.002-0.001,0.003-0.002,0.005L17.138,37.655z M20.185,38.287c-0.724-0.697-1.585-0.738-2.607-0.177
	c0.271,0.043,0.493,0.077,0.91,0.146c-0.418,0.074-0.644,0.115-1.023,0.184C18.49,38.894,19.299,38.731,20.185,38.287z
	 M25.913,74.101c-2.185,1.99-2.379,5.445-0.424,7.896c0.47,0.59,1.076,1.08,1.656,1.572c0.537,0.457,1.14,0.836,1.684,1.285
	c1.423,1.176,1.82,2.01,1.884,3.846c0.297-0.871,0.146-2.066-0.556-2.932c-0.599-0.74-1.342-1.363-2.038-2.021
	c-0.668-0.631-1.442-1.17-2.022-1.871c-1.735-2.1-1.713-4.979-0.03-6.852c1.873-2.086,5.396-1.646,6.481,0.807
	c0.772,1.748-0.302,3.879-2.09,4.08c-0.94,0.105-1.756-0.213-2.292-1.029c-0.441-0.67-0.39-1.383,0.006-2.061
	c0.563-0.965,1.947-1.059,2.578-0.189c0.34,0.469,0.292,1.16-0.107,1.572c-0.37,0.383-0.929,0.449-1.326,0.105
	c-0.194-0.17-0.309-0.432-0.494-0.703c-0.011,0.598,0.276,0.928,0.764,1.105c0.494,0.18,0.932,0.043,1.298-0.305
	c0.601-0.57,0.62-1.549,0.061-2.186c-0.797-0.908-2.258-0.869-3.058,0.082c-1.29,1.531-0.37,3.838,1.692,4.242
	c2.307,0.451,4.387-1.686,3.983-4.109c-0.282-1.689-1.293-2.793-2.888-3.324C28.918,72.529,27.293,72.841,25.913,74.101z
	 M21.644,66.781c-0.444,1.141-0.217,2.207,0.639,3.098c0.735,0.766,1.64,0.881,2.601,0.529c1.328-0.486,1.743-2.125,0.817-3.131
	c-0.471-0.512-1.222-0.648-1.831-0.336c-0.53,0.271-0.809,0.807-0.708,1.359c0.103,0.566,0.617,0.98,1.124,0.906
	c0.495-0.072,0.734-0.398,0.68-0.949c-0.016,0.447-0.265,0.764-0.678,0.73c-0.274-0.023-0.694-0.268-0.75-0.486
	c-0.08-0.32,0.007-0.787,0.207-1.049c0.367-0.48,1.131-0.432,1.576-0.004c0.534,0.512,0.599,1.43,0.117,1.979
	c-0.513,0.584-1.172,0.791-1.914,0.58c-0.868-0.248-1.312-0.902-1.439-1.76c-0.262-1.736,1.464-3.203,3.328-2.85
	c1.962,0.373,3.113,2.512,2.5,4.641c-0.307,1.064-0.994,1.842-1.828,2.531c-0.633,0.523-1.268,1.053-1.832,1.646
	c-0.575,0.605-0.811,1.373-0.689,2.244c0.063-1.338,0.852-2.221,1.863-2.975c0.611-0.455,1.253-0.893,1.784-1.434
	c1.706-1.734,1.827-4.365,0.333-6.084C25.828,64,22.556,64.435,21.644,66.781z M21.676,48.503c0.766,0.441,1.146,0.174,1.615-1.227
	c-0.86-0.403-1.467-0.248-1.67,0.441C21.556,47.945,21.652,48.218,21.676,48.503z M20.877,48.548c0.149-0.011,0.36-0.479,0.377-0.75
	c0.028-0.438-0.081-0.887-0.137-1.373c-0.736,0.316-0.969,0.705-0.979,1.408C20.132,48.379,20.478,48.576,20.877,48.548z
	 M23.036,49.139c-1.9-0.566-1.9-0.566-2.217-0.201c0.116,0.051,0.232,0.104,0.374,0.167c-0.197,0.087-0.336,0.148-0.486,0.215
	C21.404,50.118,22.226,50.051,23.036,49.139z M21.936,60.386c0.663,0.333,1.491,0.162,1.976-0.411
	c0.425-0.505,0.449-1.168,0.064-1.682c-0.426-0.566-1.208-0.671-1.623-0.15c-0.179,0.222-0.275,0.626-0.205,0.896
	c0.063,0.239,0.409,0.401,0.632,0.598c0.033-0.042,0.066-0.081,0.1-0.121c-0.58-0.311-0.754-0.657-0.53-1.06
	c0.204-0.364,0.698-0.498,1.077-0.289c0.457,0.254,0.646,0.926,0.39,1.386c-0.266,0.475-0.877,0.738-1.414,0.611
	c-0.607-0.144-1.122-0.815-1.135-1.486c-0.013-0.749,0.375-1.27,0.995-1.615c0.702-0.393,1.428-0.393,2.123,0.031
	c1.205,0.733,1.598,2.336,0.849,3.682c-0.293,0.521-0.731,0.966-1.107,1.439c-0.386,0.484-0.779,0.965-0.797,1.437
	c0.45-0.558,0.954-1.243,1.52-1.873c0.883-0.986,1.327-2.085,0.953-3.399c-0.29-1.016-0.96-1.704-2.004-1.952
	c-0.986-0.237-1.822,0.071-2.476,0.839C20.482,58.251,20.795,59.809,21.936,60.386z M17.588,67.174
	c0.565,0.63,1.069,1.315,1.52,1.873c-0.018-0.472-0.411-0.952-0.797-1.437c-0.376-0.474-0.814-0.918-1.107-1.439
	c-0.749-1.346-0.356-2.948,0.849-3.682c0.695-0.424,1.421-0.424,2.123-0.031c0.62,0.346,1.008,0.866,0.995,1.615
	c-0.013,0.671-0.527,1.343-1.135,1.486c-0.537,0.127-1.148-0.137-1.414-0.611c-0.257-0.46-0.067-1.132,0.39-1.386
	c0.379-0.209,0.873-0.075,1.077,0.289c0.224,0.402,0.05,0.749-0.53,1.06c0.033,0.04,0.066,0.079,0.1,0.121
	c0.223-0.196,0.568-0.358,0.632-0.598c0.07-0.27-0.026-0.674-0.205-0.896c-0.415-0.521-1.197-0.416-1.623,0.15
	c-0.385,0.514-0.36,1.177,0.064,1.682c0.484,0.573,1.313,0.744,1.976,0.411c1.141-0.577,1.453-2.135,0.613-3.121
	c-0.653-0.768-1.489-1.076-2.476-0.839c-1.044,0.248-1.714,0.937-2.004,1.952C16.261,65.089,16.705,66.188,17.588,67.174z
	 M19.27,75.029c0.742,0.026,1.424-0.475,1.624-1.198c0.176-0.636-0.079-1.249-0.644-1.555c-0.623-0.337-1.377-0.105-1.537,0.541
	c-0.07,0.276,0.011,0.684,0.188,0.899c0.157,0.19,0.539,0.193,0.823,0.279c0.013-0.052,0.026-0.102,0.04-0.151
	c-0.656-0.041-0.959-0.283-0.924-0.742c0.033-0.416,0.427-0.744,0.857-0.712c0.521,0.04,0.975,0.571,0.934,1.097
	c-0.044,0.542-0.489,1.036-1.03,1.146c-0.612,0.123-1.36-0.272-1.651-0.877c-0.324-0.676-0.189-1.31,0.229-1.883
	c0.475-0.65,1.134-0.953,1.942-0.858c1.401,0.164,2.427,1.456,2.308,2.991c-0.048,0.597-0.261,1.183-0.405,1.771
	c-0.148,0.602-0.305,1.202-0.124,1.638c0.177-0.694,0.348-1.527,0.599-2.336c0.391-1.265,0.336-2.449-0.553-3.487
	c-0.688-0.802-1.584-1.147-2.636-0.938c-0.995,0.196-1.626,0.826-1.899,1.796C17.059,73.696,17.992,74.981,19.27,75.029z
	 M22.628,83.412c-0.379,0.463-0.888,0.822-1.343,1.223c-0.465,0.41-0.935,0.814-1.035,1.275c0.541-0.471,1.156-1.057,1.823-1.578
	c1.043-0.816,1.673-1.82,1.534-3.18c-0.107-1.051-0.646-1.846-1.63-2.273c-0.93-0.406-1.808-0.248-2.585,0.393
	c-1,0.824-0.966,2.412,0.057,3.18c0.595,0.445,1.44,0.422,2.018-0.059c0.507-0.422,0.647-1.07,0.357-1.645
	c-0.319-0.631-1.071-0.871-1.571-0.432c-0.215,0.188-0.381,0.568-0.358,0.846c0.021,0.246,0.333,0.467,0.517,0.699
	c0.04-0.035,0.08-0.068,0.12-0.102c-0.517-0.408-0.627-0.779-0.336-1.137c0.264-0.322,0.774-0.367,1.109-0.096
	c0.406,0.33,0.476,1.025,0.142,1.434c-0.345,0.42-0.992,0.572-1.499,0.354c-0.573-0.248-0.962-1-0.856-1.662
	c0.119-0.74,0.591-1.184,1.262-1.416c0.761-0.264,1.475-0.137,2.086,0.402C23.496,80.572,23.602,82.218,22.628,83.412z
	 M23.176,97.189c0.434-0.149,0.62-0.687,0.371-1.078c-0.195-0.304-0.477-0.454-0.838-0.418c-0.383,0.038-0.655,0.249-0.808,0.595
	c-0.196,0.448-0.093,0.86,0.173,1.253c0.17,0.252,0.314,0.52,0.447,0.739c0.017-0.168-0.099-0.358-0.213-0.55
	c-0.109-0.186-0.243-0.365-0.322-0.563c-0.2-0.515,0.018-1.064,0.482-1.265c0.267-0.117,0.524-0.082,0.754,0.092
	c0.203,0.153,0.316,0.357,0.273,0.622c-0.036,0.237-0.252,0.451-0.475,0.473c-0.196,0.019-0.4-0.104-0.472-0.286
	c-0.068-0.177,0.03-0.405,0.206-0.474c0.145-0.056,0.313,0.017,0.368,0.156c0.06,0.153-0.02,0.267-0.24,0.349
	c0.01,0.018,0.02,0.032,0.029,0.049c0.09-0.059,0.22-0.1,0.254-0.182c0.038-0.092,0.023-0.24-0.03-0.328
	c-0.121-0.205-0.403-0.205-0.582-0.025c-0.161,0.164-0.186,0.399-0.06,0.6C22.64,97.173,22.924,97.275,23.176,97.189z
	 M23.722,94.176c-0.079,0.198-0.213,0.378-0.322,0.563c-0.114,0.191-0.229,0.382-0.213,0.55c0.133-0.22,0.277-0.487,0.447-0.739
	c0.266-0.393,0.369-0.805,0.173-1.253c-0.152-0.346-0.425-0.557-0.808-0.595c-0.361-0.036-0.643,0.114-0.838,0.418
	c-0.249,0.392-0.063,0.929,0.371,1.078c0.252,0.086,0.536-0.016,0.681-0.242c0.126-0.2,0.102-0.436-0.06-0.6
	c-0.179-0.18-0.461-0.18-0.582,0.025c-0.054,0.088-0.068,0.236-0.03,0.328c0.034,0.082,0.164,0.123,0.254,0.182
	c0.01-0.017,0.02-0.031,0.029-0.049c-0.221-0.082-0.3-0.195-0.24-0.349c0.056-0.14,0.224-0.212,0.368-0.156
	c0.176,0.068,0.274,0.297,0.206,0.474c-0.071,0.182-0.275,0.305-0.472,0.286c-0.223-0.021-0.438-0.235-0.475-0.473
	c-0.043-0.265,0.07-0.469,0.273-0.622c0.229-0.174,0.487-0.209,0.754-0.092C23.704,93.112,23.922,93.662,23.722,94.176z
	 M25.781,95.501c0.573-0.412,1.148-0.824,1.697-1.266c2.6-2.096,3.197-5.672,1.383-8.199c-1.938-2.701-5.918-2.721-7.709-0.039
	c-1.441,2.16-0.244,5.268,2.207,5.676c1.146,0.189,2.141-0.168,2.883-1.084c0.642-0.793,0.701-1.684,0.302-2.602
	c-0.629-1.443-2.478-1.75-3.425-0.578c-0.395,0.488-0.448,1.039-0.229,1.605c0.199,0.514,0.586,0.828,1.152,0.871
	c0.77,0.057,1.269-0.492,1.151-1.418c-0.065,0.73-0.345,1.135-0.986,1.162c-0.49,0.021-0.927-0.35-1.047-0.863
	c-0.136-0.574,0.133-1.127,0.688-1.422c0.637-0.338,1.404-0.203,1.878,0.332c0.572,0.646,0.648,1.648,0.178,2.35
	c-0.764,1.137-2.468,1.352-3.527,0.443c-1.659-1.422-1.287-4.035,0.729-5.127c2.511-1.357,5.511,0.162,6.038,3.086
	c0.403,2.236-0.416,4.039-2.078,5.502c-0.794,0.697-1.654,1.324-2.428,2.043c-1.032,0.961-1.534,2.156-1.298,3.602
	C23.347,97.722,24.383,96.505,25.781,95.501z M25.881,92.866c0.06,0.153-0.02,0.267-0.24,0.349c0.01,0.018,0.02,0.032,0.029,0.049
	c0.09-0.059,0.22-0.1,0.254-0.182c0.038-0.092,0.023-0.24-0.03-0.328c-0.121-0.205-0.403-0.205-0.582-0.025
	c-0.161,0.164-0.186,0.399-0.06,0.6c0.145,0.227,0.429,0.328,0.681,0.242c0.434-0.149,0.62-0.687,0.371-1.078
	c-0.195-0.304-0.477-0.454-0.838-0.418c-0.383,0.038-0.655,0.249-0.808,0.595c-0.196,0.448-0.093,0.86,0.173,1.253
	c0.17,0.252,0.314,0.52,0.447,0.739c0.017-0.168-0.099-0.358-0.213-0.55c-0.109-0.186-0.243-0.365-0.322-0.563
	c-0.2-0.515,0.018-1.064,0.482-1.265c0.267-0.117,0.524-0.082,0.754,0.092c0.203,0.153,0.316,0.357,0.273,0.622
	c-0.036,0.237-0.252,0.451-0.475,0.473c-0.196,0.019-0.4-0.104-0.472-0.286c-0.068-0.177,0.03-0.405,0.206-0.474
	C25.657,92.654,25.825,92.726,25.881,92.866z M26.512,97.583c-0.152-0.346-0.425-0.557-0.808-0.595
	c-0.361-0.036-0.643,0.114-0.838,0.418c-0.249,0.392-0.063,0.929,0.371,1.078c0.252,0.086,0.536-0.016,0.681-0.242
	c0.126-0.2,0.102-0.436-0.06-0.6c-0.179-0.18-0.461-0.18-0.582,0.025c-0.054,0.088-0.068,0.236-0.03,0.328
	c0.034,0.082,0.164,0.123,0.254,0.182c0.01-0.017,0.02-0.031,0.029-0.049c-0.221-0.082-0.3-0.195-0.24-0.349
	c0.056-0.14,0.224-0.212,0.368-0.156c0.176,0.068,0.274,0.297,0.206,0.474c-0.071,0.182-0.275,0.305-0.472,0.286
	c-0.223-0.021-0.438-0.235-0.475-0.473c-0.043-0.265,0.07-0.469,0.273-0.622c0.229-0.174,0.487-0.209,0.754-0.092
	c0.465,0.2,0.683,0.75,0.482,1.265c-0.079,0.198-0.213,0.378-0.322,0.563c-0.114,0.191-0.229,0.382-0.213,0.55
	c0.133-0.22,0.277-0.487,0.447-0.739C26.604,98.444,26.708,98.032,26.512,97.583z M28.6,95.451
	c-0.195-0.304-0.477-0.454-0.838-0.418c-0.383,0.038-0.655,0.249-0.808,0.595c-0.196,0.448-0.093,0.86,0.173,1.253
	c0.17,0.252,0.314,0.52,0.447,0.739c0.017-0.168-0.099-0.358-0.213-0.55c-0.109-0.186-0.243-0.365-0.322-0.563
	c-0.2-0.515,0.018-1.064,0.482-1.265c0.267-0.117,0.524-0.082,0.754,0.092c0.203,0.153,0.316,0.357,0.273,0.622
	c-0.036,0.237-0.252,0.451-0.475,0.473c-0.196,0.019-0.4-0.104-0.472-0.286c-0.068-0.177,0.03-0.405,0.206-0.474
	c0.145-0.056,0.313,0.017,0.368,0.156c0.06,0.153-0.02,0.267-0.24,0.349c0.01,0.018,0.02,0.032,0.029,0.049
	c0.09-0.059,0.22-0.1,0.254-0.182c0.038-0.092,0.023-0.24-0.03-0.328c-0.121-0.205-0.403-0.205-0.582-0.025
	c-0.161,0.164-0.186,0.399-0.06,0.6c0.145,0.227,0.429,0.328,0.681,0.242C28.662,96.379,28.849,95.842,28.6,95.451z M32.144,92.417
	c-0.283-0.507-0.737-0.737-1.313-0.714c-0.739,0.032-1.271,0.769-1.07,1.471c0.117,0.409,0.511,0.688,0.939,0.67
	c0.377-0.018,0.663-0.266,0.73-0.626c0.071-0.399-0.188-0.769-0.567-0.739c-0.163,0.01-0.37,0.127-0.455,0.261
	c-0.077,0.12-0.011,0.327-0.006,0.498c0.03-0.002,0.06-0.003,0.09-0.006c-0.095-0.364-0.018-0.571,0.237-0.634
	c0.233-0.056,0.481,0.1,0.541,0.339c0.071,0.292-0.138,0.631-0.431,0.702c-0.303,0.073-0.65-0.081-0.807-0.354
	c-0.175-0.311-0.093-0.788,0.184-1.054c0.309-0.297,0.679-0.336,1.065-0.21c0.437,0.141,0.719,0.445,0.811,0.901
	c0.161,0.791-0.358,1.579-1.214,1.788c-0.333,0.078-0.689,0.067-1.034,0.094c-0.354,0.026-0.709,0.049-0.913,0.225
	c0.409-0.028,0.892-0.083,1.377-0.091c0.757-0.013,1.39-0.253,1.797-0.921C32.418,93.5,32.445,92.952,32.144,92.417z M35.518,88.637
	c-0.125-0.7-0.523-1.186-1.209-1.392c-0.724-0.221-1.377-0.041-1.914,0.474c-0.695,0.667-0.816,1.494-0.63,2.408
	c0.119,0.585,0.183,1.182,0.258,1.681c0.157-0.293,0.089-0.726,0.026-1.157c-0.061-0.423-0.168-0.85-0.162-1.271
	c0.023-1.086,0.833-1.921,1.828-1.938c0.574-0.011,1.016,0.248,1.302,0.736c0.255,0.432,0.306,0.887,0.031,1.338
	c-0.246,0.403-0.799,0.629-1.22,0.501c-0.371-0.114-0.649-0.492-0.643-0.876c0.008-0.371,0.361-0.713,0.73-0.705
	c0.305,0.008,0.557,0.266,0.553,0.561c-0.008,0.323-0.236,0.473-0.7,0.455c0.006,0.037,0.012,0.072,0.018,0.109
	c0.206-0.04,0.474-0.016,0.598-0.14c0.138-0.138,0.224-0.419,0.193-0.617c-0.067-0.465-0.58-0.679-1.042-0.486
	c-0.416,0.177-0.638,0.588-0.559,1.046c0.092,0.521,0.533,0.921,1.057,0.953C34.932,90.373,35.677,89.536,35.518,88.637z
	 M36.235,82.188c-0.273-0.97-0.904-1.6-1.899-1.796c-1.052-0.21-1.948,0.136-2.636,0.938c-0.889,1.038-0.943,2.223-0.553,3.487
	c0.251,0.809,0.422,1.642,0.599,2.336c0.181-0.436,0.024-1.036-0.124-1.638c-0.145-0.588-0.357-1.174-0.405-1.771
	c-0.119-1.535,0.906-2.827,2.308-2.991c0.809-0.095,1.468,0.208,1.942,0.858c0.419,0.573,0.554,1.207,0.229,1.883
	c-0.291,0.604-1.039,1-1.651,0.877c-0.541-0.109-0.986-0.604-1.03-1.146c-0.041-0.525,0.412-1.057,0.934-1.097
	c0.431-0.032,0.824,0.296,0.857,0.712c0.035,0.459-0.268,0.701-0.924,0.742c0.014,0.05,0.027,0.1,0.04,0.151
	c0.284-0.086,0.666-0.089,0.823-0.279c0.177-0.216,0.258-0.623,0.188-0.899c-0.16-0.646-0.914-0.878-1.537-0.541
	c-0.564,0.306-0.819,0.919-0.644,1.555c0.2,0.724,0.882,1.225,1.624,1.198C35.653,84.72,36.587,83.435,36.235,82.188z
	 M57.343,67.416c0.135-3.279-5.109-6.157-11.714-6.43c-6.604-0.273-12.066,2.164-12.201,5.443
	c-0.136,3.279,5.107,6.156,11.712,6.429C51.745,73.131,57.207,70.693,57.343,67.416z M104.746,47.798
	c0.017,0.271,0.228,0.739,0.377,0.75c0.399,0.027,0.745-0.169,0.738-0.715c-0.01-0.703-0.242-1.092-0.979-1.408
	C104.827,46.912,104.718,47.361,104.746,47.798z M102.964,49.139c0.811,0.912,1.632,0.979,2.329,0.181
	c-0.15-0.066-0.289-0.128-0.486-0.215c0.142-0.063,0.258-0.116,0.374-0.167C104.864,48.573,104.864,48.573,102.964,49.139z
	 M102.709,47.277c0.469,1.4,0.85,1.668,1.615,1.227c0.023-0.285,0.12-0.559,0.055-0.785
	C104.176,47.029,103.569,46.874,102.709,47.277z M101.151,61.778c0.565,0.63,1.069,1.315,1.52,1.873
	c-0.018-0.472-0.411-0.952-0.797-1.437c-0.376-0.474-0.814-0.918-1.107-1.439c-0.749-1.346-0.356-2.948,0.849-3.682
	c0.695-0.424,1.421-0.424,2.123-0.031c0.62,0.346,1.008,0.866,0.995,1.615c-0.013,0.671-0.527,1.343-1.135,1.486
	c-0.537,0.127-1.148-0.137-1.414-0.611c-0.257-0.46-0.067-1.132,0.39-1.386c0.379-0.209,0.873-0.075,1.077,0.289
	c0.224,0.402,0.05,0.749-0.53,1.06c0.033,0.04,0.066,0.079,0.1,0.121c0.223-0.196,0.568-0.358,0.632-0.598
	c0.07-0.27-0.026-0.674-0.205-0.896c-0.415-0.521-1.197-0.416-1.623,0.15c-0.385,0.514-0.36,1.177,0.064,1.682
	c0.484,0.573,1.313,0.744,1.976,0.411c1.141-0.577,1.453-2.135,0.613-3.121c-0.653-0.768-1.489-1.076-2.476-0.839
	c-1.044,0.248-1.714,0.937-2.004,1.952C99.824,59.693,100.269,60.792,101.151,61.778z M98.79,72.052
	c0.531,0.541,1.173,0.979,1.784,1.434c1.012,0.754,1.801,1.637,1.863,2.975c0.121-0.871-0.114-1.639-0.689-2.244
	c-0.564-0.594-1.199-1.123-1.832-1.646c-0.834-0.689-1.521-1.467-1.828-2.531c-0.613-2.129,0.538-4.268,2.5-4.641
	c1.864-0.354,3.59,1.113,3.328,2.85c-0.128,0.857-0.571,1.512-1.439,1.76c-0.742,0.211-1.401,0.004-1.914-0.58
	c-0.481-0.549-0.417-1.467,0.117-1.979c0.445-0.428,1.209-0.477,1.576,0.004c0.2,0.262,0.287,0.729,0.207,1.049
	c-0.056,0.219-0.476,0.463-0.75,0.486c-0.413,0.033-0.662-0.283-0.678-0.73c-0.055,0.551,0.185,0.877,0.68,0.949
	c0.507,0.074,1.021-0.34,1.124-0.906c0.101-0.553-0.178-1.088-0.708-1.359c-0.609-0.313-1.36-0.176-1.831,0.336
	c-0.926,1.006-0.511,2.645,0.817,3.131c0.961,0.352,1.865,0.236,2.601-0.529c0.855-0.891,1.083-1.957,0.639-3.098
	c-0.912-2.346-4.185-2.781-5.899-0.813C96.963,67.687,97.084,70.318,98.79,72.052z M92.438,76.437
	c-0.403,2.424,1.677,4.561,3.983,4.109c2.063-0.404,2.982-2.711,1.692-4.242c-0.8-0.951-2.261-0.99-3.058-0.082
	c-0.56,0.637-0.54,1.615,0.061,2.186c0.366,0.348,0.804,0.484,1.298,0.305c0.487-0.178,0.774-0.508,0.764-1.105
	c-0.186,0.271-0.3,0.533-0.494,0.703c-0.397,0.344-0.956,0.277-1.326-0.105c-0.399-0.412-0.447-1.104-0.107-1.572
	c0.631-0.869,2.016-0.775,2.578,0.189c0.396,0.678,0.447,1.391,0.006,2.061c-0.536,0.816-1.352,1.135-2.292,1.029
	c-1.788-0.201-2.862-2.332-2.09-4.08c1.085-2.453,4.608-2.893,6.481-0.807c1.683,1.873,1.705,4.752-0.03,6.852
	c-0.58,0.701-1.354,1.24-2.022,1.871c-0.696,0.658-1.439,1.281-2.038,2.021c-0.701,0.865-0.853,2.061-0.556,2.932
	c0.063-1.836,0.461-2.67,1.884-3.846c0.544-0.449,1.146-0.828,1.684-1.285c0.58-0.492,1.187-0.982,1.656-1.572
	c1.955-2.451,1.761-5.906-0.424-7.896c-1.38-1.26-3.005-1.572-4.762-0.988C93.73,73.644,92.72,74.748,92.438,76.437z M92.572,66.429
	c-0.135-3.279-5.598-5.717-12.201-5.443c-6.604,0.272-11.849,3.15-11.714,6.43c0.136,3.277,5.598,5.716,12.203,5.442
	C87.465,72.585,92.708,69.708,92.572,66.429z M91.624,84.768c0.742,0.026,1.424-0.475,1.624-1.198
	c0.176-0.636-0.079-1.249-0.644-1.555c-0.623-0.337-1.377-0.105-1.537,0.541c-0.07,0.276,0.011,0.684,0.188,0.899
	c0.157,0.19,0.539,0.193,0.823,0.279c0.013-0.052,0.026-0.102,0.04-0.151c-0.656-0.041-0.959-0.283-0.924-0.742
	c0.033-0.416,0.427-0.744,0.857-0.712c0.521,0.04,0.975,0.571,0.934,1.097c-0.044,0.542-0.489,1.036-1.03,1.146
	c-0.612,0.123-1.36-0.272-1.651-0.877c-0.324-0.676-0.189-1.31,0.229-1.883c0.475-0.65,1.134-0.953,1.942-0.858
	c1.401,0.164,2.427,1.456,2.308,2.991c-0.048,0.597-0.261,1.183-0.405,1.771c-0.148,0.602-0.305,1.202-0.124,1.638
	c0.177-0.694,0.348-1.527,0.599-2.336c0.391-1.265,0.336-2.449-0.553-3.487c-0.688-0.802-1.584-1.147-2.636-0.938
	c-0.995,0.196-1.626,0.826-1.899,1.796C89.413,83.435,90.347,84.72,91.624,84.768z M94.113,89.38
	c0.006,0.421-0.102,0.848-0.162,1.271c-0.063,0.432-0.131,0.864,0.026,1.157c0.075-0.499,0.139-1.096,0.258-1.681
	c0.187-0.914,0.065-1.741-0.63-2.408c-0.537-0.515-1.19-0.694-1.914-0.474c-0.686,0.206-1.084,0.691-1.209,1.392
	c-0.159,0.898,0.586,1.735,1.484,1.68c0.523-0.032,0.965-0.432,1.057-0.953c0.079-0.458-0.143-0.869-0.559-1.046
	c-0.462-0.192-0.975,0.021-1.042,0.486c-0.03,0.198,0.056,0.479,0.193,0.617c0.124,0.124,0.392,0.1,0.598,0.14
	c0.006-0.037,0.012-0.072,0.018-0.109c-0.464,0.018-0.692-0.132-0.7-0.455c-0.004-0.295,0.248-0.553,0.553-0.561
	c0.369-0.008,0.723,0.334,0.73,0.705c0.007,0.384-0.271,0.762-0.643,0.876c-0.421,0.128-0.974-0.098-1.22-0.501
	c-0.274-0.451-0.224-0.906,0.031-1.338c0.286-0.488,0.728-0.747,1.302-0.736C93.28,87.459,94.09,88.294,94.113,89.38z
	 M97.069,95.028c-0.204-0.176-0.56-0.198-0.913-0.225c-0.345-0.026-0.701-0.016-1.034-0.094c-0.855-0.209-1.375-0.997-1.214-1.788
	c0.092-0.456,0.374-0.761,0.811-0.901c0.387-0.126,0.757-0.087,1.065,0.21c0.276,0.266,0.358,0.743,0.184,1.054
	c-0.156,0.273-0.504,0.428-0.807,0.354c-0.293-0.071-0.502-0.41-0.431-0.702c0.06-0.239,0.308-0.395,0.541-0.339
	c0.255,0.063,0.332,0.27,0.237,0.634c0.03,0.003,0.06,0.004,0.09,0.006c0.005-0.171,0.071-0.378-0.006-0.498
	c-0.085-0.134-0.292-0.251-0.455-0.261c-0.38-0.029-0.639,0.34-0.567,0.739c0.067,0.36,0.354,0.608,0.73,0.626
	c0.429,0.019,0.822-0.261,0.939-0.67c0.201-0.702-0.331-1.438-1.07-1.471c-0.576-0.023-1.03,0.207-1.313,0.714
	c-0.302,0.535-0.274,1.084,0.039,1.6c0.407,0.668,1.04,0.908,1.797,0.921C96.178,94.945,96.66,95,97.069,95.028z M99.046,95.627
	c-0.152-0.346-0.425-0.557-0.808-0.595c-0.361-0.036-0.643,0.114-0.838,0.418c-0.249,0.392-0.063,0.929,0.371,1.078
	c0.252,0.086,0.536-0.016,0.681-0.242c0.126-0.2,0.102-0.436-0.06-0.6c-0.179-0.18-0.461-0.18-0.582,0.025
	c-0.054,0.088-0.068,0.236-0.03,0.328c0.034,0.082,0.164,0.123,0.254,0.182c0.01-0.017,0.02-0.031,0.029-0.049
	c-0.221-0.082-0.3-0.195-0.24-0.349c0.056-0.14,0.224-0.212,0.368-0.156c0.176,0.068,0.274,0.297,0.206,0.474
	c-0.071,0.182-0.275,0.305-0.472,0.286c-0.223-0.021-0.438-0.235-0.475-0.473c-0.043-0.265,0.07-0.469,0.273-0.622
	c0.229-0.174,0.487-0.209,0.754-0.092c0.465,0.2,0.683,0.75,0.482,1.265c-0.079,0.198-0.213,0.378-0.322,0.563
	c-0.114,0.191-0.229,0.382-0.213,0.55c0.133-0.22,0.277-0.487,0.447-0.739C99.139,96.488,99.242,96.076,99.046,95.627z
	 M101.134,97.407c-0.195-0.304-0.477-0.454-0.838-0.418c-0.383,0.038-0.655,0.249-0.808,0.595c-0.196,0.448-0.093,0.86,0.173,1.253
	c0.17,0.252,0.314,0.52,0.447,0.739c0.017-0.168-0.099-0.358-0.213-0.55c-0.109-0.186-0.243-0.365-0.322-0.563
	c-0.2-0.515,0.018-1.064,0.482-1.265c0.267-0.117,0.524-0.082,0.754,0.092c0.203,0.153,0.316,0.357,0.273,0.622
	c-0.036,0.237-0.252,0.451-0.475,0.473c-0.196,0.019-0.4-0.104-0.472-0.286c-0.068-0.177,0.03-0.405,0.206-0.474
	c0.145-0.056,0.313,0.017,0.368,0.156c0.06,0.153-0.02,0.267-0.24,0.349c0.01,0.018,0.02,0.032,0.029,0.049
	c0.09-0.059,0.22-0.1,0.254-0.182c0.038-0.092,0.023-0.24-0.03-0.328c-0.121-0.205-0.403-0.205-0.582-0.025
	c-0.161,0.164-0.186,0.399-0.06,0.6c0.145,0.227,0.429,0.328,0.681,0.242C101.196,98.335,101.383,97.798,101.134,97.407z
	 M104.099,96.288c-0.152-0.346-0.425-0.557-0.808-0.595c-0.361-0.036-0.643,0.114-0.838,0.418c-0.249,0.392-0.063,0.929,0.371,1.078
	c0.252,0.086,0.536-0.016,0.681-0.242c0.126-0.2,0.102-0.436-0.06-0.6c-0.179-0.18-0.461-0.18-0.582,0.025
	c-0.054,0.088-0.068,0.236-0.03,0.328c0.034,0.082,0.164,0.123,0.254,0.182c0.01-0.017,0.02-0.031,0.029-0.049
	c-0.221-0.082-0.3-0.195-0.24-0.349c0.056-0.14,0.224-0.212,0.368-0.156c0.176,0.068,0.274,0.297,0.206,0.474
	c-0.071,0.182-0.275,0.305-0.472,0.286c-0.223-0.021-0.438-0.235-0.475-0.473c-0.043-0.265,0.07-0.469,0.273-0.622
	c0.229-0.174,0.487-0.209,0.754-0.092c0.465,0.2,0.683,0.75,0.482,1.265c-0.079,0.198-0.213,0.378-0.322,0.563
	c-0.114,0.191-0.229,0.382-0.213,0.55c0.133-0.22,0.277-0.487,0.447-0.739C104.191,97.148,104.295,96.736,104.099,96.288z
	 M103.416,93.495c0.06,0.153-0.02,0.267-0.24,0.349c0.01,0.018,0.02,0.032,0.029,0.049c0.09-0.059,0.22-0.1,0.254-0.182
	c0.038-0.092,0.023-0.24-0.03-0.328c-0.121-0.205-0.403-0.205-0.582-0.025c-0.161,0.164-0.186,0.399-0.06,0.6
	c0.145,0.227,0.429,0.328,0.681,0.242c0.434-0.149,0.62-0.687,0.371-1.078c-0.195-0.304-0.477-0.454-0.838-0.418
	c-0.383,0.038-0.655,0.249-0.808,0.595c-0.196,0.448-0.093,0.86,0.173,1.253c0.17,0.252,0.314,0.52,0.447,0.739
	c0.017-0.168-0.099-0.358-0.213-0.55c-0.109-0.186-0.243-0.365-0.322-0.563c-0.2-0.515,0.018-1.064,0.482-1.265
	c0.267-0.117,0.524-0.082,0.754,0.092c0.203,0.153,0.316,0.357,0.273,0.622c-0.036,0.237-0.252,0.451-0.475,0.473
	c-0.196,0.019-0.4-0.104-0.472-0.286c-0.068-0.177,0.03-0.405,0.206-0.474C103.192,93.283,103.36,93.355,103.416,93.495z
	 M104.848,85.998c-1.791-2.682-5.771-2.662-7.709,0.039c-1.814,2.527-1.217,6.104,1.383,8.199c0.549,0.441,1.124,0.854,1.697,1.266
	c1.398,1.004,2.435,2.221,2.441,4.074c0.236-1.445-0.266-2.641-1.298-3.602c-0.773-0.719-1.634-1.346-2.428-2.043
	c-1.662-1.463-2.481-3.266-2.078-5.502c0.527-2.924,3.527-4.443,6.038-3.086c2.017,1.092,2.389,3.705,0.729,5.127
	c-1.06,0.908-2.764,0.693-3.527-0.443c-0.471-0.701-0.395-1.703,0.178-2.35c0.474-0.535,1.241-0.67,1.878-0.332
	c0.555,0.295,0.823,0.848,0.688,1.422c-0.12,0.514-0.557,0.885-1.047,0.863c-0.642-0.027-0.921-0.432-0.986-1.162
	c-0.117,0.926,0.382,1.475,1.151,1.418c0.566-0.043,0.953-0.357,1.152-0.871c0.219-0.566,0.165-1.117-0.229-1.605
	c-0.947-1.172-2.796-0.865-3.425,0.578c-0.399,0.918-0.34,1.809,0.302,2.602c0.742,0.916,1.736,1.273,2.883,1.084
	C105.092,91.265,106.289,88.158,104.848,85.998z M101.257,93.547c-0.079,0.198-0.213,0.378-0.322,0.563
	c-0.114,0.191-0.229,0.382-0.213,0.55c0.133-0.22,0.277-0.487,0.447-0.739c0.266-0.393,0.369-0.805,0.173-1.253
	c-0.152-0.346-0.425-0.557-0.808-0.595c-0.361-0.036-0.643,0.114-0.838,0.418c-0.249,0.392-0.063,0.929,0.371,1.078
	c0.252,0.086,0.536-0.016,0.681-0.242c0.126-0.2,0.102-0.436-0.06-0.6c-0.179-0.18-0.461-0.18-0.582,0.025
	c-0.054,0.088-0.068,0.236-0.03,0.328c0.034,0.082,0.164,0.123,0.254,0.182c0.01-0.017,0.02-0.031,0.029-0.049
	c-0.221-0.082-0.3-0.195-0.24-0.349c0.056-0.14,0.224-0.212,0.368-0.156c0.176,0.068,0.274,0.297,0.206,0.474
	c-0.071,0.182-0.275,0.305-0.472,0.286c-0.223-0.021-0.438-0.235-0.475-0.473c-0.043-0.265,0.07-0.469,0.273-0.622
	c0.229-0.174,0.487-0.209,0.754-0.092C101.239,92.483,101.457,93.033,101.257,93.547z M106.607,79.271
	c-0.777-0.641-1.655-0.799-2.585-0.393c-0.983,0.428-1.522,1.223-1.63,2.273c-0.139,1.359,0.491,2.363,1.534,3.18
	c0.667,0.521,1.282,1.107,1.823,1.578c-0.101-0.461-0.57-0.865-1.035-1.275c-0.455-0.4-0.964-0.76-1.343-1.223
	c-0.974-1.193-0.868-2.84,0.189-3.773c0.611-0.539,1.325-0.666,2.086-0.402c0.671,0.232,1.143,0.676,1.262,1.416
	c0.105,0.662-0.283,1.414-0.856,1.662c-0.507,0.219-1.154,0.066-1.499-0.354c-0.334-0.408-0.265-1.104,0.142-1.434
	c0.335-0.271,0.846-0.227,1.109,0.096c0.291,0.357,0.181,0.729-0.336,1.137c0.04,0.033,0.08,0.066,0.12,0.102
	c0.184-0.232,0.496-0.453,0.517-0.699c0.022-0.277-0.144-0.658-0.358-0.846c-0.5-0.439-1.252-0.199-1.571,0.432
	c-0.29,0.574-0.149,1.223,0.357,1.645c0.577,0.48,1.423,0.504,2.018,0.059C107.573,81.683,107.607,80.095,106.607,79.271z
	 M108.59,72.449c-0.273-0.97-0.904-1.6-1.899-1.796c-1.052-0.21-1.948,0.136-2.636,0.938c-0.889,1.038-0.943,2.223-0.553,3.487
	c0.251,0.809,0.422,1.642,0.599,2.336c0.181-0.436,0.024-1.036-0.124-1.638c-0.145-0.588-0.357-1.174-0.405-1.771
	c-0.119-1.535,0.906-2.827,2.308-2.991c0.809-0.095,1.468,0.208,1.942,0.858c0.419,0.573,0.554,1.207,0.229,1.883
	c-0.291,0.604-1.039,1-1.651,0.877c-0.541-0.109-0.986-0.604-1.03-1.146c-0.041-0.525,0.412-1.057,0.934-1.097
	c0.431-0.032,0.824,0.296,0.857,0.712c0.035,0.459-0.268,0.701-0.924,0.742c0.014,0.05,0.027,0.1,0.04,0.151
	c0.284-0.086,0.666-0.089,0.823-0.279c0.177-0.216,0.258-0.623,0.188-0.899c-0.16-0.646-0.914-0.878-1.537-0.541
	c-0.564,0.306-0.819,0.919-0.644,1.555c0.2,0.724,0.882,1.225,1.624,1.198C108.008,74.981,108.941,73.696,108.59,72.449z
	 M107.361,61.823c-0.986-0.237-1.822,0.071-2.476,0.839c-0.84,0.986-0.527,2.544,0.613,3.121c0.663,0.333,1.491,0.162,1.976-0.411
	c0.425-0.505,0.449-1.168,0.064-1.682c-0.426-0.566-1.208-0.671-1.623-0.15c-0.179,0.222-0.275,0.626-0.205,0.896
	c0.063,0.239,0.409,0.401,0.632,0.598c0.033-0.042,0.066-0.081,0.1-0.121c-0.58-0.311-0.754-0.657-0.53-1.06
	c0.204-0.364,0.698-0.498,1.077-0.289c0.457,0.254,0.646,0.926,0.39,1.386c-0.266,0.475-0.877,0.738-1.414,0.611
	c-0.607-0.144-1.122-0.815-1.135-1.486c-0.013-0.749,0.375-1.27,0.995-1.615c0.702-0.393,1.428-0.393,2.123,0.031
	c1.205,0.733,1.598,2.336,0.849,3.682c-0.293,0.521-0.731,0.966-1.107,1.439c-0.386,0.484-0.779,0.965-0.797,1.437
	c0.45-0.558,0.954-1.243,1.52-1.873c0.883-0.986,1.327-2.085,0.953-3.399C109.075,62.759,108.405,62.071,107.361,61.823z
	 M116.504,55.848c0.041-0.042,0.084-0.087,0.125-0.13c0.009-0.088,0.019-0.176,0.026-0.265c-0.067,0.122-0.136,0.245-0.204,0.364
	C116.47,55.828,116.484,55.836,116.504,55.848z M19.618,50.243c-0.816-3.618-4.665-6.064-8.154-5.182
	c-0.603,0.153-1.155,0.407-1.647,0.734c-0.242,1.322-0.426,2.659-0.521,4.016c-0.102,1.456-0.11,2.899-0.04,4.332
	c1.766,1.217,4.263,1.002,5.509-0.856c1.028-1.532,0.708-3.447-0.729-4.389c-1.183-0.773-2.476-0.604-3.421,0.449
	c-0.065,0.073-0.132,0.141-0.303,0.326c0.577-1.311,2.146-1.824,3.406-1.245c2.479,1.134,2.672,4.466,0.357,6.15
	c-1.402,1.02-3.275,1.006-4.79,0.164c0.011,0.159,0.024,0.318,0.037,0.478c0.936,0.268,1.156,1.065,0.519,2.057
	c-0.1-0.045-0.199-0.088-0.299-0.132c0.163,1.146,0.391,2.282,0.684,3.409c1.176-0.131,2.313-0.2,3.391-0.488
	C17.782,58.957,20.546,54.361,19.618,50.243z M9.345,55.454c0.008,0.089,0.018,0.177,0.026,0.265
	c0.041,0.043,0.084,0.088,0.125,0.13c0.02-0.012,0.034-0.021,0.053-0.03C9.48,55.699,9.412,55.576,9.345,55.454z"/>
</svg>
