<?xml version="1.0" encoding="utf-8"?>
<!-- Generator: Adobe Illustrator 16.0.0, SVG Export Plug-In . SVG Version: 6.00 Build 0)  -->
<!DOCTYPE svg PUBLIC "-//W3C//DTD SVG 1.1//EN" "http://www.w3.org/Graphics/SVG/1.1/DTD/svg11.dtd">
<svg version="1.1" id="Layer_1" xmlns="http://www.w3.org/2000/svg" xmlns:xlink="http://www.w3.org/1999/xlink" x="0px" y="0px"
	 width="126px" height="126px" viewBox="0 0 126 126" enable-background="new 0 0 126 126" xml:space="preserve">
<path fill-rule="evenodd" clip-rule="evenodd" d="M106.052,67.157c-0.019-0.367-0.046-0.729-0.082-1.088
	c5.665-1.433,11.261-0.06,16.382,3.211c-5.414-6.686-10.602-12.982-18.133-15.14c4.077-2.109,8.752-2.575,13.63-1.763
	c-8.745-4.627-17.014-8.893-26.162-6.025c11.101-10.998,27.227-4.831,27.227-4.831c-21.168-13.667-37.545-2.371-44.091,3.717
	c-3.811-0.363-7.645-0.49-11.49-0.48c-2.149,0.058-4.296,0.05-6.447,0.148c-1.246,0.057-2.488,0.139-3.729,0.236
	c-6.615-6.109-22.928-17.218-43.987-3.621c0,0,17.405-6.656,28.498,6.195c-10.512-5.259-19.715-0.525-29.516,4.661
	c4.878-0.812,9.553-0.346,13.63,1.763C14.25,56.298,9.063,62.595,3.648,69.28c5.293-3.383,11.097-4.743,16.958-3.063
	c-0.03,0.273-0.044,0.544-0.064,0.817c-4.25,0.718-7,4.046-9.88,7.602c2.731-1.745,6.667-2.385,9.693-1.327l0.439-0.771
	c0.276,1.704,0.722,3.39,1.327,5.056c2.021,5.558,5.864,9.345,11.381,11.442c3.758,1.428,7.667,1.858,11.665,1.902
	c4.078,0.045,7.661-1.173,10.837-3.712c1.607-1.286,3.021-2.8,4.7-3.998c1.759-1.253,3.231-1.277,5.031-0.088
	c1.236,0.818,2.292,1.853,3.386,2.839c2.673,2.412,5.625,4.319,9.287,4.744c4.731,0.548,9.384,0.103,13.911-1.416
	c5.383-1.804,9.329-5.231,11.648-10.447c0.802-1.807,1.36-3.663,1.703-5.56c3.023-1.046,6.942-0.406,9.666,1.334
	C112.595,71.25,109.967,68.073,106.052,67.157z M95.794,61.963c0.761,0.297,1.139,1.155,0.841,1.917
	c-0.297,0.762-1.155,1.139-1.917,0.841c-0.762-0.296-1.804-1.995-2.719-2.351C93.389,61.761,95.032,61.667,95.794,61.963z
	 M84.907,64.275c6.044,0,10.944,5.78,10.944,5.78s-4.9,5.78-10.944,5.78c-6.044,0-10.945-5.78-10.945-5.78
	S78.863,64.275,84.907,64.275z M73.687,65.373c0.167-1.509,0.908-2.978,1.547-3.489c0.639-0.511,1.57-0.407,2.081,0.232
	c0.511,0.638,0.407,1.57-0.231,2.081C76.444,64.708,74.453,64.76,73.687,65.373z M79.173,61.729
	c0.793-1.294,2.087-2.311,2.882-2.502c0.795-0.19,1.595,0.299,1.786,1.094c0.192,0.795-0.298,1.595-1.093,1.786
	C81.954,62.297,80.128,61.499,79.173,61.729z M85.649,59.896c1.391-0.61,3.032-0.705,3.794-0.408
	c0.762,0.297,1.139,1.155,0.842,1.917c-0.297,0.762-1.155,1.139-1.917,0.842C87.606,61.951,86.563,60.253,85.649,59.896z
	 M32.274,61.98c0.762-0.297,2.405-0.203,3.795,0.408c-0.915,0.356-1.958,2.054-2.719,2.351c-0.762,0.297-1.62-0.08-1.917-0.841
	C31.136,63.136,31.513,62.277,32.274,61.98z M43.589,64.275c6.044,0,10.943,5.78,10.943,5.78s-4.899,5.78-10.943,5.78
	c-6.045,0-10.945-5.78-10.945-5.78S37.544,64.275,43.589,64.275z M38.625,59.505c0.762-0.297,2.404-0.202,3.794,0.408
	c-0.914,0.356-1.957,2.054-2.719,2.352c-0.762,0.296-1.62-0.08-1.917-0.842C37.486,60.661,37.862,59.802,38.625,59.505z
	 M44.227,60.337c0.191-0.795,0.991-1.285,1.786-1.093c0.795,0.192,2.089,1.207,2.882,2.502c-0.955-0.229-2.78,0.569-3.575,0.377
	C44.525,61.933,44.036,61.133,44.227,60.337z M50.754,62.133c0.51-0.639,1.442-0.743,2.081-0.232
	c0.639,0.511,1.379,1.98,1.547,3.489c-0.767-0.613-2.758-0.666-3.397-1.176C50.348,63.703,50.243,62.771,50.754,62.133z
	 M64.665,76.255c0,0-0.28-0.14-0.675-0.417c-0.674,0.58-1.257,0.871-1.257,0.871s-30.847,19.249-38.497-8.514
	c0,0,4.649,7.773,10.086,8.051l-4.072,0.416c0,0,13.418,6.478,21.285-1.342c0,0-0.684,3.424-3.188,3.979
	c-2.181,0.484,11.658-1.563,13.063-8.54c-0.293,2.665,1.542,4.351,2.579,5.078c1.384-1.189,3.155-3.604,1.088-7.273
	c-0.494-1.027-0.997-1.982-1.505-2.883c-0.422,0.768-0.84,1.572-1.252,2.429c-0.458,0.811-0.724,1.56-0.852,2.249
	c0.121-0.926,0.036-1.931-0.339-3.029c0,0-9.123-17.521-23.996-10.858c0,0,14.907-11.186,26.438,9.21
	c7.908-14.37,17.48-13.606,22.744-11.687l0.029,0.011v0c2.417,0.887,3.918,2.012,3.918,2.012
	c-14.873-6.663-23.996,10.858-23.996,10.858c-3.331,9.748,15.286,12.524,12.782,11.969c-2.503-0.555-3.188-3.979-3.188-3.979
	c7.866,7.82,21.285,1.342,21.285,1.342l-4.072-0.416c4.538-0.232,8.525-5.684,9.72-7.48l0.129,0.227
	C94.904,95.119,64.665,76.255,64.665,76.255z M55.99,66.475c0.64-0.508,1.572-0.4,2.08,0.24c0.508,0.642,0.9,2.239,0.727,3.747
	c-0.61-0.769-2.54-1.266-3.048-1.907C55.241,67.915,55.349,66.983,55.99,66.475z M72.319,68.538
	c-0.508,0.641-2.438,1.138-3.048,1.907c-0.173-1.508,0.218-3.105,0.727-3.746c0.509-0.642,1.44-0.749,2.08-0.241
	C72.72,66.966,72.827,67.897,72.319,68.538z"/>
</svg>
