<?xml version="1.0" encoding="utf-8"?>
<!-- Generator: Adobe Illustrator 16.0.0, SVG Export Plug-In . SVG Version: 6.00 Build 0)  -->
<!DOCTYPE svg PUBLIC "-//W3C//DTD SVG 1.1//EN" "http://www.w3.org/Graphics/SVG/1.1/DTD/svg11.dtd">
<svg version="1.1" id="Layer_1" xmlns="http://www.w3.org/2000/svg" xmlns:xlink="http://www.w3.org/1999/xlink" x="0px" y="0px"
	 width="126px" height="126px" viewBox="0 0 126 126" enable-background="new 0 0 126 126" xml:space="preserve">
<path fill-rule="evenodd" clip-rule="evenodd" d="M118.731,75.152c0-2.501-0.871-4.678-2.157-5.807l0.001-0.113
	c-0.802-1.132-1.056-2.264-0.973-3.664c0.342-5.77-1.345-11.13-3.425-16.43c-2.293-5.836-6.035-10.422-11.252-13.845h-0.494
	c-0.112,0.495,0.009,0.982,0.043,1.475c0.23,3.396,0.557,6.744-0.498,10.139c-1.296,4.173-3.929,6.642-8.096,7.616
	c-2.222,0.519-4.502,0.582-6.757,0.712c-4.877,0.279-8.909,2.836-13.151,4.769L63,63.584l-8.973-3.58
	c-4.242-1.933-8.274-4.489-13.151-4.769c-2.255-0.13-4.536-0.193-6.757-0.712c-4.167-0.975-6.8-3.443-8.096-7.616
	c-1.055-3.395-0.729-6.743-0.498-10.139c0.034-0.492,0.155-0.979,0.043-1.475h-0.494c-5.217,3.423-8.959,8.009-11.252,13.845
	c-2.08,5.3-3.767,10.66-3.425,16.43c0.083,1.4-0.172,2.532-0.973,3.664l0.001,0.113c-1.286,1.129-2.157,3.306-2.157,5.807
	c0,2.56,0.913,4.779,2.248,5.883l0.005,0.639c-1.336,5.004,3.98,10.03,9.432,8.612c2.65-0.688,5.154-0.759,7.763,0.124
	c2.029,0.687,3.987,0.091,5.832-0.889c1.945-1.033,3.57-2.52,5.368-3.76c4.331-2.984,8.91-3.453,13.699-1.19
	c1.562,0.737,2.79,1.892,3.765,3.319c0.202,0.295,0.32,0.799,0.722,0.775c0.475-0.028,0.512-0.582,0.671-0.934
	c0.926-2.07,1.711-4.208,3.023-6.086c0.19-0.27,0.36-0.554,0.565-0.813c0.847-1.066,1.742-1.678,2.639-1.842
	c0.896,0.164,1.792,0.775,2.639,1.842c0.205,0.259,0.376,0.543,0.565,0.813c1.313,1.878,2.098,4.016,3.023,6.086
	c0.158,0.352,0.196,0.905,0.671,0.934c0.401,0.023,0.52-0.48,0.722-0.775c0.975-1.428,2.203-2.582,3.765-3.319
	c4.789-2.263,9.368-1.794,13.699,1.19c1.798,1.24,3.423,2.727,5.368,3.76c1.845,0.979,3.803,1.575,5.832,0.889
	c2.608-0.883,5.112-0.813,7.763-0.124c5.452,1.418,10.768-3.608,9.432-8.612l0.005-0.639
	C117.818,79.932,118.731,77.712,118.731,75.152z M52.046,77.329c-0.209,0.221-0.476,0.063-0.694-0.013
	c-2.503-0.877-5.066-0.977-7.69-0.771c-2.013,0.158-4.049,0.141-6.048-0.232c-2.734-0.51-4.996-1.855-6.721-4.049
	c-1.598-2.031-2.623-4.37-3.512-6.896c3.471,3.057,7.694,2.534,11.731,2.516c5.196-0.023,11.113,3.857,12.87,8.76
	C52.061,76.862,52.258,77.104,52.046,77.329z M95.107,72.264c-1.725,2.193-3.986,3.539-6.721,4.049
	c-1.999,0.373-4.035,0.391-6.048,0.232c-2.624-0.205-5.188-0.105-7.69,0.771c-0.219,0.076-0.485,0.233-0.695,0.013
	c-0.211-0.225-0.014-0.467,0.064-0.687c1.757-4.902,7.674-8.783,12.87-8.76c4.037,0.019,8.261,0.541,11.731-2.516
	C97.732,67.894,96.705,70.232,95.107,72.264z"/>
</svg>
