<?xml version="1.0" encoding="utf-8"?>
<!-- Generator: Adobe Illustrator 16.0.0, SVG Export Plug-In . SVG Version: 6.00 Build 0)  -->
<!DOCTYPE svg PUBLIC "-//W3C//DTD SVG 1.1//EN" "http://www.w3.org/Graphics/SVG/1.1/DTD/svg11.dtd">
<svg version="1.1" id="Layer_1" xmlns="http://www.w3.org/2000/svg" xmlns:xlink="http://www.w3.org/1999/xlink" x="0px" y="0px"
	 width="126px" height="126px" viewBox="0 0 126 126" enable-background="new 0 0 126 126" xml:space="preserve">
<path d="M119.975,55.703l3.671-0.987H91.014c-0.82-0.064-1.661-0.102-2.52-0.102c-3.088,0-5.985,0.476-8.611,1.413l-16.505,5.251
	L63,61.161l-0.378,0.117l-16.505-5.251c-2.626-0.937-5.522-1.413-8.611-1.413c-0.858,0-1.699,0.038-2.52,0.102H2.354l3.671,0.987
	H3.771l4.815,0.77l-2.817,0.306l5.788,0.718c0,0-3.022,0.357-2.868,0.357c0.154,0,6.814,0.55,6.814,0.55s5.615,0.478,6.733,2.465
	l-0.001-0.104c1.25,2.434,6.766,12.167,16.589,15.721c2.651,0.96,5.582,1.446,8.71,1.446c7.853,0,14.38-3.027,14.654-3.157
	L63,74.396l0.811,0.381c0.274,0.13,6.801,3.157,14.654,3.157c3.128,0,6.059-0.486,8.71-1.446
	c9.823-3.555,15.339-13.288,16.589-15.721l-0.001,0.104c1.118-1.987,6.733-2.465,6.733-2.465s6.66-0.55,6.814-0.55
	c0.154,0-2.868-0.357-2.868-0.357l5.789-0.718l-2.818-0.306l4.815-0.77H119.975z M39.452,74.753
	c-4.153-1.504-7.503-4.238-10.036-6.984c1.197,0.336,2.427,0.401,3.681,0.417c0.475,0.487,0.967,0.951,1.469,1.386
	c-0.001,0-0.002,0-0.003,0.001c-0.488,0.211-0.951,0.41-1.419,0.527c-0.129,0.034-0.226,0.142-0.244,0.274
	c-0.019,0.132,0.045,0.263,0.161,0.33c1.442,0.833,3.159,0.955,4.357,0.965c0.858,0.522,1.742,0.965,2.629,1.322
	c-0.418,0.323-0.823,0.656-1.212,0.997c-0.101,0.088-0.137,0.228-0.095,0.354c0.044,0.126,0.161,0.213,0.294,0.219
	c0.346,0.018,0.688,0.028,1.027,0.028c1.467,0,2.667-0.18,3.766-0.566c1.06,0.171,2.17,0.258,3.301,0.261
	c-0.035,0.021-0.069,0.044-0.105,0.066c-0.407,0.26-0.829,0.529-1.232,0.844c-0.107,0.085-0.151,0.228-0.109,0.359
	s0.161,0.221,0.299,0.227c0.099,0.004,0.196,0.006,0.293,0.006c2.003,0,3.506-0.84,5.113-1.861c3.896-0.639,7.384-1.617,7.419-1.627
	c0.094-0.027,0.171-0.094,0.21-0.184s0.037-0.192-0.007-0.28c-0.049-0.098-5.028-9.849-13.363-12.991
	c-2.053-0.773-4.339-1.165-6.793-1.165c-5.93,0-10.983,2.309-11.033,2.333c-0.163,0.076-0.235,0.269-0.161,0.433
	c0.046,0.103,1.114,2.45,3.235,5.206c-0.883,0.254-1.807,0.493-2.742,0.678c-2.996-3.624-4.52-6.888-4.52-6.888
	s11.522-5.419,21.952-1.644c10.43,3.774,15.817,15.313,15.817,15.313S49.881,78.527,39.452,74.753z M31.429,61.234
	c0,0,7.611-2.999,14.326-0.224c6.716,2.774,9.992,10.27,9.992,10.27s-7.611,2.999-14.326,0.224
	C34.705,68.73,31.429,61.234,31.429,61.234z M97.845,66.327c-0.935-0.185-1.858-0.424-2.742-0.678
	c2.121-2.755,3.189-5.103,3.235-5.206c0.074-0.164,0.002-0.356-0.161-0.433c-0.05-0.023-5.104-2.333-11.033-2.333
	c-2.454,0-4.74,0.392-6.793,1.165c-8.335,3.143-13.313,12.894-13.363,12.991c-0.043,0.088-0.046,0.19-0.007,0.28
	s0.117,0.157,0.21,0.184c0.036,0.01,3.524,0.988,7.419,1.627c1.607,1.021,3.11,1.861,5.113,1.861c0.097,0,0.195-0.002,0.293-0.006
	c0.139-0.006,0.257-0.096,0.299-0.227c0.042-0.131-0.002-0.274-0.109-0.359c-0.403-0.315-0.825-0.584-1.232-0.844
	c-0.036-0.021-0.07-0.044-0.105-0.066c1.13-0.003,2.241-0.09,3.301-0.261c1.099,0.386,2.299,0.566,3.766,0.566
	c0.339,0,0.682-0.01,1.027-0.028c0.133-0.006,0.25-0.093,0.294-0.219c0.042-0.126,0.006-0.267-0.095-0.354
	c-0.389-0.341-0.794-0.674-1.212-0.997c0.887-0.356,1.771-0.8,2.629-1.322c1.197-0.011,2.915-0.132,4.357-0.965
	c0.116-0.067,0.18-0.197,0.161-0.33c-0.018-0.132-0.115-0.24-0.244-0.274c-0.468-0.118-0.931-0.316-1.419-0.527
	c-0.001-0.001-0.002-0.001-0.003-0.001c0.502-0.436,0.994-0.899,1.469-1.386c1.254-0.016,2.484-0.081,3.681-0.417
	c-2.532,2.746-5.882,5.48-10.036,6.984c-10.43,3.774-21.953-1.645-21.953-1.645s5.387-11.539,15.817-15.313
	c10.429-3.775,21.952,1.644,21.952,1.644S100.841,62.704,97.845,66.327z M94.571,61.234c0,0-3.276,7.496-9.992,10.27
	c-6.715,2.774-14.326-0.224-14.326-0.224s3.276-7.496,9.992-10.27C86.96,58.236,94.571,61.234,94.571,61.234z"/>
</svg>
