<?xml version="1.0" encoding="iso-8859-1"?>
<!-- Generator: Adobe Illustrator 18.0.0, SVG Export Plug-In . SVG Version: 6.00 Build 0)  -->
<!DOCTYPE svg PUBLIC "-//W3C//DTD SVG 1.1//EN" "http://www.w3.org/Graphics/SVG/1.1/DTD/svg11.dtd">
<svg version="1.1" id="Capa_1" xmlns="http://www.w3.org/2000/svg" xmlns:xlink="http://www.w3.org/1999/xlink" x="0px" y="0px"
	 viewBox="0 0 120.239 107.197" style="enable-background:new 0 0 120.239 107.197;" xml:space="preserve">
<g>
	<path d="M109.215,2.957c-5.221-2.557-10.408-2.693-10.626-2.697l-9.252-0.191l7.579,5.311c2.372,1.662,4.638,4.26,6.217,7.127
		c1.652,2.998,2.436,6.063,2.21,8.63c-0.282,3.19-2.038,5.495-5.371,7.044c-1.472,0.684-2.884,1.017-4.319,1.017
		c-4.551,0-8.789-3.47-12.887-6.825c-3.503-2.868-6.812-5.577-10.529-6.395c-1.206-0.266-2.392-0.4-3.525-0.4
		c-4.048,0-6.822,1.646-8.591,3.309c-1.77-1.663-4.543-3.309-8.591-3.309c-1.132,0-2.318,0.135-3.525,0.4
		c-3.717,0.818-7.026,3.527-10.53,6.395c-4.099,3.355-8.337,6.825-12.887,6.825c0,0-0.001,0-0.001,0
		c-1.433,0-2.845-0.333-4.317-1.017c-3.333-1.55-5.09-3.854-5.371-7.044c-0.226-2.567,0.558-5.632,2.21-8.63
		c1.579-2.867,3.845-5.465,6.217-7.127L31.001,0l-9.371,0.26c-0.217,0.006-5.367,0.177-10.568,2.771
		C6.066,5.523,0.091,10.714,0.001,21.297c-0.059,6.942,2.442,13.319,7.041,17.958c4.149,4.184,9.658,6.649,15.66,7.043
		c-0.83,1.141-1.599,2.417-2.301,3.829c-2.401,4.834-3.19,9.592-3.223,9.792l-0.546,3.367l3.409-0.103
		c4.254-0.128,8.061-1.306,11.204-2.773c0.599,2.738,1.534,5.339,2.803,7.761c1.653,3.153,3.362,6.565,4.67,10.15
		c0.552,1.513,1.055,2.98,1.141,4.303c-0.04,0.15-0.317,0.555-0.502,0.825c-0.371,0.542-0.832,1.217-1.164,2.079
		c-1.11,2.888-0.745,6.324,1.001,9.426c0.841,1.494,1.729,2.719,2.89,3.535c-1.401,3.212-0.661,5.341,0.287,6.604
		c1.047,1.395,2.698,2.102,4.905,2.102c1.73,0,3.725-0.416,5.838-0.857c2.347-0.49,4.775-0.996,7.004-0.996s4.657,0.506,7.004,0.996
		c2.112,0.441,4.107,0.857,5.837,0.857h0.001c2.207,0,3.858-0.707,4.905-2.102c0.948-1.263,1.688-3.392,0.287-6.604
		c1.161-0.816,2.049-2.041,2.89-3.535c1.56-2.771,2.029-5.641,1.358-8.3c-0.243-0.96-0.629-1.88-1.148-2.734
		c-0.225-0.369-0.453-0.676-0.636-0.923c-0.079-0.107-0.18-0.242-0.243-0.337c0.02-0.354,0.097-0.757,0.172-1.112
		c0.465-2.207,1.413-4.472,2.266-6.422c0.92-2.104,1.993-4.314,3.378-6.956c1.281-2.444,2.221-5.07,2.819-7.834
		c3.173,1.5,7.035,2.715,11.359,2.846l3.409,0.103l-0.546-3.367c-0.032-0.2-0.822-4.958-3.223-9.792
		c-0.675-1.36-1.413-2.593-2.208-3.701c6.068-0.369,11.587-2.92,15.672-7.279c4.364-4.657,6.767-11.033,6.767-17.956
		C120.239,10.583,114.244,5.42,109.215,2.957z M81.202,65.558c-1.448,2.762-2.576,5.086-3.55,7.314
		c-0.965,2.206-2.042,4.788-2.617,7.518c-0.139,0.662-0.283,1.454-0.297,2.315c-0.028,1.787,0.807,2.91,1.36,3.653
		c0.137,0.185,0.256,0.344,0.344,0.489c0.227,0.373,0.395,0.772,0.5,1.187c0.393,1.557-0.221,3.121-0.805,4.16
		c-0.487,0.865-0.822,1.305-1.042,1.527c-0.059,0.06-0.111,0.105-0.154,0.137c-0.062,0.047-0.14,0.105-0.551,0.105h0
		c-0.601,0-1.487-0.138-2.603-0.318c-0.054-0.009-0.109-0.017-0.164-0.026c-0.939-0.151-2.065-0.332-3.407-0.497
		c-2.118-0.261-4.776-0.482-8.096-0.482c-3.32,0-5.978,0.221-8.096,0.482c-1.342,0.165-2.468,0.346-3.407,0.498
		c-0.056,0.009-0.11,0.018-0.165,0.027c-1.116,0.179-2.002,0.318-2.602,0.318c-0.411,0-0.489-0.058-0.552-0.105
		c-0.043-0.033-0.095-0.078-0.154-0.137c-0.22-0.223-0.555-0.662-1.042-1.527c-0.907-1.611-1.15-3.347-0.652-4.644
		c0.095-0.247,0.319-0.575,0.556-0.921c0.639-0.934,1.604-2.345,1.473-4.362c-0.134-2.068-0.772-3.959-1.471-5.874
		c-1.425-3.905-3.313-7.668-4.972-10.834c-0.726-1.385-1.318-2.829-1.778-4.33c0.758,0.246,1.541,0.375,2.324,0.375
		c1.884,0,3.553-0.738,4.701-2.077c1.195-1.395,1.662-3.305,1.283-5.241c-0.337-1.721-1.308-3.34-2.733-4.561
		c-1.51-1.294-3.36-2.007-5.208-2.007c-0.401,0-0.792,0.035-1.171,0.101c0.12-0.817,0.267-1.644,0.443-2.481
		c0.157-0.747,0.33-1.467,0.513-2.154c0.662-0.307,1.314-0.621,1.96-0.932c1.808-0.87,3.515-1.692,5.273-2.303
		c2.447-0.851,4.971-1.282,7.502-1.282c2.365,0,4.764,0.377,7.13,1.119l0.843,0.265l0.843-0.265c2.366-0.743,4.765-1.119,7.13-1.119
		c2.532,0,5.056,0.431,7.502,1.282c1.788,0.622,3.521,1.451,5.357,2.33c0.616,0.295,1.238,0.592,1.869,0.884
		c0.378,1.422,0.716,2.986,0.959,4.649c-0.367-0.061-0.744-0.094-1.132-0.094c-1.848,0-3.698,0.713-5.208,2.007
		c-1.425,1.221-2.396,2.841-2.733,4.561c-0.38,1.936,0.088,3.846,1.283,5.241c1.148,1.339,2.817,2.077,4.701,2.077h0
		c0.768,0,1.535-0.125,2.279-0.361C82.527,62.691,81.948,64.136,81.202,65.558z M72.961,101.566c-1.149,0-2.868-0.359-4.688-0.738
		c-2.505-0.522-5.344-1.115-8.154-1.115s-5.649,0.592-8.154,1.115c-1.82,0.38-3.539,0.738-4.688,0.738
		c-0.12,0-0.221-0.004-0.305-0.01c0.066-0.337,0.269-0.967,0.881-1.953c0.039-0.063,0.079-0.125,0.118-0.187
		c0.478-0.067,0.986-0.149,1.54-0.238c2.378-0.383,5.635-0.908,10.608-0.908c4.972,0,8.229,0.525,10.608,0.908
		c0.555,0.089,1.064,0.171,1.544,0.239c0.526,0.826,0.916,1.633,1.009,2.138C73.194,101.562,73.089,101.566,72.961,101.566
		L72.961,101.566z M13.019,8.359c-0.295,0.468-0.576,0.946-0.843,1.431c-1.546,2.807-3.302,7.139-2.887,11.841
		c0.219,2.486,1.026,4.729,2.397,6.668c1.469,2.076,3.558,3.754,6.209,4.987c2.201,1.023,4.451,1.542,6.691,1.542
		c0,0,0.002,0,0.002,0c6.56-0.001,11.816-4.303,16.453-8.099c2.968-2.429,5.771-4.724,8.174-5.253
		c0.81-0.178,1.588-0.269,2.314-0.269c1.801,0,3.346,0.555,4.592,1.649c0.563,0.494,0.951,1.002,1.184,1.351v3.954v2.847v2.5
		c-1.718-0.313-3.443-0.472-5.158-0.472c-3.163,0-6.309,0.536-9.352,1.595c-2.062,0.717-3.996,1.648-5.866,2.548
		c-0.206,0.099-0.411,0.198-0.615,0.296c-1.206,0.578-2.38,1.129-3.557,1.596c-0.649,0.257-1.299,0.49-1.956,0.688
		c-2.129,0.642-4.279,0.967-6.388,0.967c-5.149,0-9.898-1.93-13.373-5.435c-3.534-3.564-5.455-8.517-5.409-13.946
		C5.682,15.364,8.167,10.997,13.019,8.359z M82.649,53.348c0.228,0,0.378,0.055,0.425,0.11c0.145,0.17,0.083,1.074-0.838,1.864
		c-0.172,0.147-0.357,0.272-0.546,0.373c-0.336,0.178-0.685,0.279-0.999,0.279c-0.229,0-0.378-0.055-0.425-0.11
		c-0.051-0.06-0.083-0.24-0.033-0.494c0.093-0.476,0.411-0.975,0.871-1.369c0.462-0.396,1.02-0.636,1.501-0.649
		C82.619,53.35,82.634,53.348,82.649,53.348z M38.039,55.321c-0.46-0.394-0.778-0.893-0.871-1.369
		c-0.05-0.255-0.018-0.435,0.033-0.494c0.047-0.055,0.197-0.11,0.425-0.11c0.061,0,0.123,0.004,0.186,0.011
		c0.446,0.052,0.941,0.283,1.359,0.641c0.921,0.789,0.983,1.694,0.838,1.864c-0.047,0.055-0.196,0.11-0.425,0.11
		c-0.288,0-0.605-0.086-0.914-0.237C38.451,55.629,38.236,55.49,38.039,55.321z M96.263,40.844h-0.001
		c-2.209,0-4.497-0.363-6.801-1.079c-0.667-0.207-1.326-0.448-1.984-0.712c-1.177-0.473-2.351-1.022-3.559-1.599
		c-0.178-0.085-0.356-0.17-0.536-0.256c-1.894-0.906-3.853-1.843-5.938-2.568c-3.043-1.058-6.189-1.595-9.352-1.595
		c-1.715,0-3.44,0.159-5.158,0.472v-2.5v-2.847v-3.954c0.232-0.349,0.621-0.856,1.184-1.351c1.245-1.094,2.791-1.648,4.592-1.648
		c0.726,0,1.505,0.091,2.315,0.269c2.403,0.529,5.205,2.823,8.173,5.253c4.637,3.796,9.893,8.099,16.454,8.099
		c2.24,0,4.492-0.519,6.692-1.542c2.651-1.233,4.74-2.91,6.209-4.987c1.371-1.939,2.178-4.182,2.397-6.668
		c0.415-4.702-1.341-9.035-2.887-11.841c-0.296-0.538-0.609-1.065-0.939-1.582c2.128,1.108,3.822,2.549,5.04,4.288
		c1.621,2.315,2.443,5.24,2.443,8.695c0,5.487-1.862,10.497-5.245,14.106C106.012,38.874,101.36,40.844,96.263,40.844z
		 M23.679,57.076c1.118-3.578,3.355-8.742,7.345-10.954c-0.473,2.858-0.653,5.652-0.538,8.35
		C28.572,55.517,26.259,56.509,23.679,57.076z M89.756,54.379c0.108-2.702-0.077-5.498-0.558-8.359
		c4.108,2.153,6.397,7.423,7.533,11.056C94.076,56.492,91.702,55.458,89.756,54.379z"/>
	<path d="M54.648,63.949l-2.767-0.516l-2.766-0.523c-0.076,0.401-1.8,9.896,3.141,16.485l4.504-3.378
		C53.322,71.431,54.635,64.023,54.648,63.949z"/>
	<path d="M68.145,79.395c4.942-6.589,3.217-16.084,3.142-16.485l-5.532,1.046c0.014,0.074,1.3,7.509-2.113,12.06L68.145,79.395z"/>
	<path d="M53.693,87.389c-0.587-1.234-2.171-1.932-3.864-1.651c-0.078,0.013-0.156,0.027-0.235,0.044
		c-2.01,0.44-3.352,2.11-2.998,3.73c0.078,0.358,0.234,0.684,0.449,0.97c0.542,0.719,1.468,1.181,2.524,1.261
		c0.421,0.032,0.862,0.004,1.309-0.094c2.01-0.44,3.352-2.11,2.998-3.73C53.835,87.733,53.773,87.557,53.693,87.389z"/>
	<path d="M70.521,85.783c-0.032-0.007-0.063-0.012-0.095-0.019c-1.745-0.344-3.401,0.358-4.005,1.625
		c-0.08,0.167-0.142,0.344-0.183,0.53c-0.354,1.62,0.988,3.29,2.998,3.73c0.488,0.107,0.971,0.131,1.427,0.083
		c1.052-0.11,1.962-0.601,2.474-1.347c0.18-0.262,0.311-0.555,0.381-0.873C73.873,87.893,72.531,86.223,70.521,85.783z"/>
</g>
<g>
</g>
<g>
</g>
<g>
</g>
<g>
</g>
<g>
</g>
<g>
</g>
<g>
</g>
<g>
</g>
<g>
</g>
<g>
</g>
<g>
</g>
<g>
</g>
<g>
</g>
<g>
</g>
<g>
</g>
</svg>
