<?xml version="1.0" encoding="iso-8859-1"?>
<!-- Generator: Adobe Illustrator 18.0.0, SVG Export Plug-In . SVG Version: 6.00 Build 0)  -->
<!DOCTYPE svg PUBLIC "-//W3C//DTD SVG 1.1//EN" "http://www.w3.org/Graphics/SVG/1.1/DTD/svg11.dtd">
<svg version="1.1" id="Capa_1" xmlns="http://www.w3.org/2000/svg" xmlns:xlink="http://www.w3.org/1999/xlink" x="0px" y="0px"
	 viewBox="0 0 612 792" style="enable-background:new 0 0 612 792;" xml:space="preserve">
<path d="M611.328,401.303c-0.926-17.564-4.759-54.006-20.124-93.084c-12.5-31.78-30.064-58.724-52.204-80.08
	c-27.514-26.532-61.996-44.3-102.5-52.82c-14.343-16.674-31.774-25.117-51.955-25.117c-10.485,0-20.099,2.189-28.288,4.245
	c-17.432,4.372-44.987,6.265-50.01,6.581c-5.029-0.316-32.584-2.214-50.01-6.581c-8.189-2.056-17.803-4.245-28.293-4.245
	c-20.15,0-37.561,8.418-51.889,25.036c-40.661,8.495-75.27,26.288-102.871,52.906c-22.14,21.356-39.704,48.3-52.204,80.08
	c-14.113,35.892-18.496,69.56-19.844,88.427C0.382,403.146,0,409.711,0,416.328c0,35.571,9.909,66.302,30.293,93.954
	c17.462,23.687,39.745,41.572,61.294,58.866c27.825,22.328,54.103,43.425,62.363,72.649l27.754-5.69
	c-0.02-0.163-0.707-5.522-1.618-14.811c16.241,4.245,42.32,10.032,74.614,13.594c19.249,2.122,38.33,3.186,57.055,3.186
	c12.459,0,24.761-0.473,36.849-1.415c29.077-2.27,56.978-7.298,83.261-14.974c-0.891,9.049-1.557,14.256-1.578,14.414l27.749,5.69
	c8.26-29.23,34.543-50.321,62.368-72.649c21.549-17.294,43.832-35.179,61.294-58.866c20.384-27.647,30.293-58.378,30.293-93.954
	C611.99,411.284,611.766,406.276,611.328,401.303z M518.911,248.233c7.273,6.973,13.986,14.673,20.129,23.056
	c-1.379-1.196-2.774-2.387-4.184-3.568c-29.27-24.466-58.332-39.073-70.237-44.534c-1.445-3.919-3.11-7.813-5.018-11.757
	C482.281,219.854,502.151,232.166,518.911,248.233z M192.733,200.05c6.912-9.981,17.162-21.443,35.21-21.443
	c7.253,0,14.536,1.674,21.381,3.39c21.773,5.461,54.729,7.365,56.123,7.441l0.799,0.046l0.799-0.046
	c1.395-0.076,34.35-1.98,56.123-7.441c6.84-1.715,14.129-3.39,21.381-3.39c18.048,0,28.298,11.457,35.21,21.443
	c21.305,30.777,25.616,47.165,25.616,97.441c0,4.408-1.43,5.359-2.377,5.99c-1.573,1.048-5.502,2.794-14.185,2.845
	c-0.132,0-0.249,0.005-0.382,0.005h-0.005c-13.004,0-31.235-3.894-51.201-10.831c-3.746-1.303-7.553-2.713-11.401-4.224
	c-17.279-6.795-31.683-14.2-41.297-20.216c-3.868-2.418-6.963-4.611-9.156-6.449l-9.115-7.629l-9.115,7.629
	c-2.255,1.888-5.456,4.148-9.462,6.637c-9.614,5.985-23.896,13.304-40.997,20.028c-4.464,1.756-8.876,3.374-13.208,4.845
	c-19.259,6.55-36.783,10.21-49.395,10.21c-0.473,0-0.921-0.005-1.369-0.015c-8.001-0.173-11.691-1.827-13.202-2.835
	c-0.947-0.631-2.377-1.588-2.377-5.99C167.122,247.215,171.428,230.827,192.733,200.05z M232.453,364.526
	c1.13,0,2.295-0.036,3.456-0.102c12.118-0.697,20.827-1.873,29.255-3.013c11.345-1.532,22.058-2.982,40.595-2.982
	c18.536,0,29.25,1.451,40.595,2.982c8.423,1.14,17.137,2.316,29.255,3.013c1.16,0.066,2.321,0.102,3.451,0.102h0.005
	c16.327,0,27.041-6.739,33.688-14.852c4.453,12.276,8.306,25.865,11.538,40.671c-24.389,7.166-50.346,11.879-77.469,14.027
	c-28.344,2.239-58.006,1.715-88.167-1.568c-30.568-3.329-55.512-8.856-70.858-12.841c3.181-14.495,6.958-27.825,11.309-39.892
	C205.773,358.006,216.395,364.526,232.453,364.526z M219.5,329.81c14.826-3.629,28.512-8.535,37.561-12.093
	c18.964-7.451,36.742-16.409,49.181-24.629c12.439,8.22,30.217,17.172,49.181,24.624c8.876,3.486,22.211,8.271,36.706,11.879
	c-0.326,0.585-0.707,1.186-1.16,1.766c-1.588,2.041-4.55,4.754-11.91,4.754c-0.59,0-1.201-0.02-1.822-0.056
	c-11.029-0.636-19.188-1.741-27.082-2.804c-11.777-1.593-23.952-3.237-44.397-3.237s-32.619,1.644-44.397,3.237
	c-7.894,1.064-16.053,2.168-27.082,2.804c-0.621,0.036-1.232,0.056-1.822,0.056c-7.365,0-10.327-2.713-11.915-4.759
	C220.141,330.853,219.8,330.329,219.5,329.81z M254.704,431.587c19.249,2.122,38.33,3.186,57.055,3.186
	c12.459,0,24.761-0.473,36.849-1.415c28.227-2.204,55.344-7.003,80.95-14.307c1.736,11.472,3.156,23.529,4.26,36.116
	c-27.112,8.841-56.317,14.541-87.007,16.969c-28.344,2.245-58.011,1.715-88.167-1.568c-38.177-4.153-67.58-11.747-80.472-15.472
	c1.12-12.724,2.555-24.904,4.321-36.487C198.856,422.787,223.968,428.197,254.704,431.587z M93.272,248.233
	c16.852-16.154,36.849-28.517,59.686-36.945c-1.893,3.899-3.547,7.751-4.988,11.625c-11.518,5.242-41.063,19.926-70.827,44.804
	c-1.247,1.043-2.479,2.092-3.695,3.145C79.51,262.647,86.121,255.089,93.272,248.233z M154.704,412.271
	c-4.957,31.8-7.573,67.773-7.767,106.928c-0.112,22.796,0.595,43.898,1.588,61.864c-11.971-12.256-25.667-23.244-39.154-34.07
	c-20.129-16.154-40.946-32.864-56.215-53.568c-31.841-43.185-30.97-105.034-4.418-150.337
	c11.029-18.816,26.517-36.676,46.036-53.085c16.246-13.655,32.645-24.048,45.369-31.189c-1.089,11.156-1.43,23.702-1.43,38.676
	c0,16.19,8.164,25.041,15.009,29.611c5.599,3.741,12.632,6.113,20.974,7.105C166.028,356.494,159.325,382.635,154.704,412.271z
	 M434.418,590.51c-27.28,8.953-56.688,14.719-87.602,17.167c-28.344,2.245-58.006,1.715-88.167-1.568
	c-38.783-4.219-68.516-11.986-81.072-15.645c-0.743-11.243-1.41-24.12-1.822-38.096c15.707,4.291,43.608,10.851,78.95,14.755
	c19.249,2.122,38.33,3.186,57.055,3.186c12.459,0,24.761-0.468,36.849-1.415c30.695-2.397,60.073-7.858,87.628-16.271
	C435.823,566.522,435.156,579.323,434.418,590.51z M346.816,539.914c-28.344,2.245-58.006,1.715-88.167-1.568
	c-41.328-4.499-72.379-13.024-83.322-16.312c0-1.018,0.005-2.036,0.01-3.064c0.061-11.757,0.361-23.168,0.87-34.243
	c15.788,4.291,43.491,10.765,78.492,14.628c19.249,2.122,38.325,3.186,57.055,3.186c12.459,0,24.766-0.468,36.854-1.415
	c30.533-2.382,59.762-7.802,87.19-16.144c0.504,10.994,0.794,22.318,0.86,33.983c0.005,1.008,0.01,2.016,0.01,3.013
	C408.757,531.368,378.585,537.399,346.816,539.914z M558.844,493.425c-15.264,20.705-36.08,37.414-56.215,53.568
	c-13.487,10.826-27.184,21.814-39.154,34.07c0.992-17.966,1.7-39.068,1.588-61.864c-0.193-39.149-2.809-75.128-7.767-106.928
	c-4.616-29.611-11.314-55.731-19.977-78.003c8.551-0.957,15.742-3.354,21.448-7.161c6.846-4.57,15.004-13.421,15.004-29.616
	c0-14.846-0.336-27.301-1.4-38.386c12.648,7.13,28.828,17.427,44.85,30.899c19.519,16.409,35.006,34.268,46.03,53.08
	C590.242,389.119,590.919,449.919,558.844,493.425z M203.072,207.372c5.79-11.012,17.644-16.174,26.476-11.529
	s11.298,17.336,5.508,28.347c-5.79,11.012-17.644,16.173-26.476,11.529C199.748,231.075,197.282,218.383,203.072,207.372z
	 M289.778,236.328c-2.073-3.943-1.191-8.488,1.971-10.151s7.406,0.186,9.48,4.13s1.191,8.488-1.971,10.151
	S291.852,240.272,289.778,236.328z M311.233,230.311c2.074-3.943,6.319-5.792,9.481-4.129s4.044,6.208,1.97,10.151
	c-2.074,3.943-6.319,5.792-9.481,4.129C310.041,238.799,309.159,234.254,311.233,230.311z M376.673,224.188
	c-5.79-11.012-3.324-23.703,5.508-28.347c8.832-4.644,20.686,0.518,26.476,11.529c5.79,11.012,3.324,23.703-5.508,28.347
	C394.317,240.362,382.463,235.2,376.673,224.188z"/>
</svg>
