<?xml version="1.0" encoding="iso-8859-1"?>
<!-- Generator: Adobe Illustrator 18.0.0, SVG Export Plug-In . SVG Version: 6.00 Build 0)  -->
<!DOCTYPE svg PUBLIC "-//W3C//DTD SVG 1.1//EN" "http://www.w3.org/Graphics/SVG/1.1/DTD/svg11.dtd">
<svg version="1.1" id="Capa_1" xmlns="http://www.w3.org/2000/svg" xmlns:xlink="http://www.w3.org/1999/xlink" x="0px" y="0px"
	 viewBox="0 0 89.135 101.241" style="enable-background:new 0 0 89.135 101.241;" xml:space="preserve">
<g>
	<path d="M89.089,27.002H74.513c0.986-2.017,1.793-4.267,2.408-6.73c1.59-6.363,1.37-11.957,1.36-12.192L77.933,0l-4.006,7.025
		c-2.069,3.628-4.615,6.722-7.568,9.195c-2.359,1.976-4.988,3.567-7.812,4.73c-1.788,0.736-3.433,1.206-4.801,1.508H35.371
		c-5.072-1.125-14.005-4.615-20.174-15.433L11.191,0l-0.348,8.08c-0.01,0.235-0.229,5.829,1.36,12.192
		c0.615,2.463,1.422,4.713,2.408,6.73H0.047l-0.046,2.284c-0.006,0.295-0.086,7.29,5.054,12.585c3.15,3.245,7.494,5.11,12.936,5.56
		c-0.002,6.985,1.027,12.128,3.127,15.676c3.813,6.44,4.76,25.571,4.803,32.4l0.004,0.587l0.281,0.515
		c0.329,0.603,1.282,1.766,3.965,2.775c3.279,1.233,8.123,1.859,14.398,1.859s11.118-0.625,14.398-1.859
		c2.683-1.009,3.636-2.172,3.965-2.775l0.281-0.515l0.004-0.587c0.042-6.826,0.987-25.954,4.803-32.399
		c2.101-3.548,3.129-8.691,3.127-15.676c5.442-0.45,9.786-2.315,12.936-5.56c5.14-5.295,5.06-12.29,5.054-12.585L89.089,27.002z
		 M19.945,27.002c-2.105-3.334-3.22-7.299-3.808-10.72c1.176,1.306,2.429,2.512,3.755,3.613c1.965,1.631,4.091,3.03,6.345,4.183
		c-1.426,0.746-3.072,1.744-4.394,2.924H19.945z M25.097,57.566c-1.772-0.932-2.267-3.479-1.105-5.688
		c1.162-2.21,3.541-3.246,5.312-2.314c1.772,0.932,2.267,3.478,1.105,5.688C29.247,57.462,26.869,58.498,25.097,57.566z
		 M58.567,94.436c-0.573,0.343-1.794,0.904-4.134,1.367c-1.237-1.838-3.975-4.306-9.763-4.335v-0.001c-0.017,0-0.034,0-0.052,0.001
		c-0.017,0-0.034-0.001-0.052-0.001v0.001c-5.806,0.029-8.543,2.514-9.774,4.353c-2.4-0.466-3.645-1.037-4.226-1.384
		c-0.018-0.948-0.057-2.491-0.142-4.42c3.381-2.961,9.463-10.168,9.687-23.829c0.311-18.958-12.276-21.8-7.614-29.003
		c4.662-7.203,9.79-5.649,12.12-5.649c2.331,0,7.459-1.554,12.12,5.649c4.662,7.203-7.925,10.045-7.614,29.003
		c0.222,13.529,6.188,20.727,9.587,23.741C58.625,91.898,58.585,93.473,58.567,94.436z M64.142,57.566
		c-1.772,0.932-4.151-0.104-5.312-2.314c-1.162-2.21-0.667-4.757,1.105-5.688c1.772-0.932,4.151,0.104,5.313,2.314
		C66.409,54.087,65.914,56.634,64.142,57.566z M69.178,27.002h-1.886c-1.324-1.181-2.973-2.18-4.4-2.927
		c2.252-1.152,4.376-2.551,6.339-4.18c1.326-1.101,2.58-2.307,3.755-3.613C72.399,19.703,71.283,23.667,69.178,27.002z"/>
</g>
<g>
</g>
<g>
</g>
<g>
</g>
<g>
</g>
<g>
</g>
<g>
</g>
<g>
</g>
<g>
</g>
<g>
</g>
<g>
</g>
<g>
</g>
<g>
</g>
<g>
</g>
<g>
</g>
<g>
</g>
</svg>
