<?xml version="1.0" encoding="iso-8859-1"?>
<!-- Generator: Adobe Illustrator 18.0.0, SVG Export Plug-In . SVG Version: 6.00 Build 0)  -->
<!DOCTYPE svg PUBLIC "-//W3C//DTD SVG 1.1//EN" "http://www.w3.org/Graphics/SVG/1.1/DTD/svg11.dtd">
<svg version="1.1" id="Capa_1" xmlns="http://www.w3.org/2000/svg" xmlns:xlink="http://www.w3.org/1999/xlink" x="0px" y="0px"
	 viewBox="0 0 82.02 98.616" style="enable-background:new 0 0 82.02 98.616;" xml:space="preserve">
<g>
	<path d="M5.532,44.172c4.897,7.455,11.562,11.373,19.274,11.312c-0.793,5.191-1.832,16.24,2.139,23.371
		c2.349,4.218,2.633,7.018,2.861,9.268c0.224,2.212,0.456,4.499,3.013,6.066c1.081,0.663,1.784,1.306,2.464,1.928
		c1.342,1.229,2.73,2.499,5.727,2.499c2.997,0,4.385-1.271,5.727-2.499c0.68-0.622,1.383-1.266,2.464-1.928
		c2.556-1.567,2.788-3.854,3.013-6.066c0.228-2.25,0.512-5.05,2.861-9.268c3.972-7.131,2.932-18.18,2.14-23.371
		c0.058,0.001,0.115,0.001,0.173,0.001c7.637,0,14.243-3.912,19.102-11.312c3.553-5.41,4.919-10.769,4.975-10.995l0.555-2.221
		l-2.241-0.467c-0.12-0.025-1.225-0.244-3.066-0.244c-3.824,0-9.849,0.899-16.835,5.18c-1.814,1.112-3.611,2-5.333,2.711
		c0.256-0.981,0.545-1.904,0.83-2.816c0.993-3.177,2.019-6.463,1.277-11.246c-1.334-8.6,1.114-15.391,1.137-15.454L61.006,0
		l-6.768,6.234C47.54,12.403,46.241,18.62,46.33,22.75c0.085,3.933,0.009,5.265-2.245,9.713c-1.298,2.562-1.755,5.757-1.867,8.487
		c-0.324,0.013-0.576,0.016-0.748,0.016c-0.228,0-0.353-0.005-0.355-0.005l-0.095-0.006l-0.11,0.005
		c-0.001,0-0.128,0.005-0.36,0.005c-0.232,0-0.612-0.006-1.118-0.033c-0.113-2.726-0.57-5.914-1.866-8.47
		c-2.254-4.448-2.33-5.78-2.245-9.713c0.089-4.129-1.21-10.347-7.908-16.516L20.644,0l3.217,8.621
		c0.025,0.067,2.481,6.791,1.137,15.454c-0.742,4.783,0.285,8.069,1.277,11.246c0.268,0.858,0.539,1.725,0.783,2.641
		c-1.595-0.681-3.249-1.514-4.917-2.536c-6.986-4.281-13.011-5.18-16.835-5.18c-1.841,0-2.946,0.219-3.066,0.244L0,30.957
		l0.556,2.221C0.612,33.403,1.979,38.762,5.532,44.172z M29.032,63.365c0.026-0.009,0.08-0.022,0.168-0.022
		c0.318,0,0.697,0.163,1.015,0.435c0.514,0.441,0.626,0.94,0.59,1.103c-0.026,0.009-0.08,0.022-0.168,0.022
		c-0.318,0-0.697-0.162-1.015-0.434C29.108,64.027,28.996,63.528,29.032,63.365z M52.023,63.777
		c0.317-0.272,0.697-0.435,1.015-0.435c0.088,0,0.142,0.013,0.168,0.022c0.036,0.163-0.076,0.663-0.59,1.103
		c-0.317,0.272-0.697,0.434-1.014,0.434c-0.088,0-0.142-0.013-0.168-0.022C51.397,64.717,51.509,64.217,52.023,63.777z
		 M48.009,34.452c2.619-5.168,2.818-7.228,2.719-11.797c-0.04-1.872,0.298-3.74,1.005-5.554c0.056-0.142,0.113-0.284,0.173-0.426
		c-0.128,2.401-0.058,5.137,0.397,8.074c0.585,3.773-0.171,6.194-1.129,9.26c-0.535,1.711-1.108,3.55-1.486,5.765
		c-0.236,1.381-0.394,2.909-0.42,4.645c-0.001,0.075-0.003,0.148-0.003,0.224c-0.463,0.207-1.088,0.404-1.797,0.404
		c-0.268,0-0.53-0.027-0.791-0.082c-0.001-0.016-0.002-0.033-0.004-0.049c-0.088-1.195-0.134-2.796-0.026-4.469
		C46.784,38.341,47.164,36.119,48.009,34.452z M30.475,34.009c-0.958-3.066-1.714-5.487-1.129-9.26
		c0.456-2.937,0.526-5.674,0.397-8.074c0.06,0.142,0.118,0.284,0.173,0.426c0.707,1.813,1.046,3.682,1.005,5.554
		c-0.099,4.569,0.101,6.629,2.719,11.797c0.734,1.449,1.196,3.48,1.357,5.928c0.031,0.472,0.052,0.958,0.06,1.46
		c0.02,1.178-0.029,2.233-0.085,3.016c-0.003,0.037-0.005,0.075-0.008,0.111c-0.259,0.054-0.519,0.08-0.784,0.08h0
		c-0.708,0-1.334-0.197-1.797-0.404c-0.001-0.104-0.003-0.206-0.005-0.309c-0.03-1.744-0.195-3.278-0.437-4.664
		C31.565,37.501,31.001,35.694,30.475,34.009z M19.843,39.177c2.791,1.71,5.535,2.951,8.079,3.85
		c0.059,0.862,0.08,1.786,0.051,2.786l-0.031,1.074l0.828,0.685c0.232,0.192,2.354,1.874,5.412,1.875h0
		c1.316,0,2.605-0.313,3.829-0.93l1.033-0.521L39.2,46.85c0.012-0.086,0.085-0.643,0.152-1.514c0.488,0.022,0.892,0.029,1.198,0.029
		c0.211,0,0.365-0.003,0.46-0.006c0.095,0.003,0.25,0.006,0.46,0.006c0.226,0,0.504-0.004,0.829-0.015
		c0.066,0.863,0.139,1.414,0.151,1.5l0.157,1.146l1.033,0.521c1.225,0.617,2.513,0.93,3.829,0.93c3.058,0,5.18-1.683,5.412-1.875
		l0.828-0.685l-0.031-1.074c-0.028-0.95-0.01-1.83,0.043-2.654c2.649-0.908,5.528-2.186,8.457-3.981
		c5.426-3.326,10.141-4.265,13.085-4.478c-3.43,1.218-4.596,1.698-8.172,7.201c-2.903,4.467-6.448,7.423-9.029,9.17
		c-0.224,0.008-0.448,0.014-0.674,0.014c-0.001,0-0.002,0-0.003,0c-0.827,0-1.684-0.057-2.546-0.17l-3.098-0.403l0.664,3.053
		c0.01,0.047,0.32,1.506,0.617,3.733c-0.551,0.276-1.17,0.62-1.797,1.034c-2.751,1.818-4.38,4.129-4.709,6.683
		c-0.198,1.532-0.942,2.963-1.804,4.619c-1.343,2.58-3.014,5.791-3.014,10.484h4.4c0-3.616,1.28-6.075,2.517-8.453
		c0.433-0.833,0.873-1.678,1.253-2.565c0.536,0.198,1.12,0.301,1.733,0.301h0c0.592,0,1.184-0.097,1.756-0.282
		c-0.291,2.764-0.927,5.442-2.125,7.594c-2.791,5.011-3.154,8.594-3.395,10.965c-0.212,2.091-0.308,2.375-0.935,2.759
		c-1.442,0.883-2.381,1.744-3.136,2.435c-1.128,1.033-1.469,1.345-2.757,1.345c-1.287,0-1.628-0.312-2.756-1.345
		c-0.755-0.691-1.694-1.551-3.136-2.435c-0.627-0.384-0.723-0.668-0.935-2.759c-0.24-2.371-0.604-5.954-3.395-10.965
		c-1.21-2.172-1.846-4.881-2.133-7.672c0.642,0.236,1.311,0.36,1.981,0.36c0.654,0,1.273-0.118,1.837-0.341
		c0.384,0.901,0.83,1.76,1.27,2.605c1.237,2.378,2.517,4.837,2.517,8.453h4.4c0-4.692-1.671-7.904-3.014-10.484
		c-0.862-1.657-1.607-3.088-1.805-4.619c-0.33-2.554-1.958-4.865-4.709-6.683c-0.751-0.496-1.489-0.891-2.114-1.19
		c0.29-2.139,0.586-3.532,0.596-3.577l0.668-3.056l-3.101,0.405c-0.863,0.113-1.719,0.17-2.546,0.17
		c-0.209,0-0.416-0.004-0.623-0.011c-2.571-1.753-6.126-4.717-9.084-9.172c-3.598-5.42-4.757-5.936-8.235-7.205
		C9.634,34.899,14.377,35.827,19.843,39.177z"/>
	<path d="M37.128,86.066c-3.107-0.419-1.356,2.53,0.329,3.543c1.685,1.012,2.468,1.482,2.468,1.482S40.235,86.485,37.128,86.066z"/>
	<path d="M44.563,89.609c1.685-1.012,3.436-3.961,0.329-3.543c-3.107,0.418-2.797,5.025-2.797,5.025S42.878,90.621,44.563,89.609z"
		/>
</g>
<g>
</g>
<g>
</g>
<g>
</g>
<g>
</g>
<g>
</g>
<g>
</g>
<g>
</g>
<g>
</g>
<g>
</g>
<g>
</g>
<g>
</g>
<g>
</g>
<g>
</g>
<g>
</g>
<g>
</g>
</svg>
