<?xml version="1.0" encoding="iso-8859-1"?>
<!-- Generator: Adobe Illustrator 18.0.0, SVG Export Plug-In . SVG Version: 6.00 Build 0)  -->
<!DOCTYPE svg PUBLIC "-//W3C//DTD SVG 1.1//EN" "http://www.w3.org/Graphics/SVG/1.1/DTD/svg11.dtd">
<svg version="1.1" id="Capa_1" xmlns="http://www.w3.org/2000/svg" xmlns:xlink="http://www.w3.org/1999/xlink" x="0px" y="0px"
	 viewBox="0 0 86.39 77.964" style="enable-background:new 0 0 86.39 77.964;" xml:space="preserve">
<path d="M84.54,19.811c2.097-3.79,2.036-7.536,1.616-10.011c-0.33-1.947-1.014-3.729-1.926-5.173
	c-1.436-2.276-2.912-2.667-3.897-2.667H65.587c-2.366-1-5.548-1.055-9.871-1.399C49.284,0.049,43.441,0,43.195,0
	s-6.089,0.071-12.521,0.583c-4.323,0.344-7.505,0.377-9.871,1.377H6.057c-0.985,0-2.461,0.391-3.897,2.667
	c-0.912,1.445-1.596,3.27-1.926,5.217c-0.42,2.475-0.481,6.2,1.617,9.989c1.849,3.343,4.95,5.923,9.228,7.709
	c-0.429,0.903-0.918,1.784-1.477,2.639c-2.435,3.726-4.301,8.043-5.255,12.159c-1.204,5.198-1.005,9.946,0.593,14.116
	c1.247,3.254,3.341,6.079,6.222,8.398c2.939,2.365,6.733,4.219,11.286,5.521c1.378,1.616,7.375,7.589,20.746,7.589
	s19.369-5.973,20.746-7.589c4.554-1.301,8.348-3.157,11.286-5.521c2.882-2.319,4.975-5.145,6.223-8.399
	c1.598-4.169,1.797-8.919,0.593-14.117c-0.954-4.116-2.82-8.435-5.255-12.162c-0.559-0.855-1.048-1.742-1.477-2.645
	C79.59,25.745,82.69,23.154,84.54,19.811z M72.416,10.96h2.468c0.351,1,0.812,2.033,0.501,3.504
	c-0.296,1.399-1.208,2.57-2.716,3.408c-0.136-1.136-0.214-2.277-0.253-3.251C72.363,13.316,72.374,11.96,72.416,10.96z
	 M68.448,24.502c-0.401,0.52-1.055,0.914-1.795,1.083c-0.432,0.098-0.931,0.151-1.443,0.151h0c-1.659,0-2.643-0.51-2.805-0.741
	c0.001-0.178,0.223-0.744,0.93-1.433c0.731-0.713,1.721-1.292,2.52-1.474c0.263-0.06,0.528-0.09,0.788-0.09
	c1.083,0,1.99,0.53,2.156,1.259C68.921,23.787,68.631,24.265,68.448,24.502z M17.583,23.256c0.166-0.73,1.073-1.259,2.156-1.259
	c0.26,0,0.526,0.03,0.788,0.09c0.8,0.182,1.789,0.761,2.52,1.474c0.714,0.696,0.934,1.266,0.931,1.432
	c-0.158,0.23-1.142,0.743-2.806,0.743c-0.512,0-1.011-0.052-1.443-0.151c-0.74-0.168-1.394-0.563-1.795-1.083
	C17.751,24.265,17.462,23.787,17.583,23.256z M13.975,14.643c-0.04,0.983-0.119,2.111-0.256,3.257
	c-1.539-0.841-2.468-2.044-2.768-3.459c-0.311-1.47,0.149-2.481,0.501-3.481h2.523C14.017,11.96,14.027,13.338,13.975,14.643z
	 M4.11,13.518C3.786,9.454,5.571,5.96,6.291,5.96h7.124l0.109,0.488c0.002,0.009,0.041,0.512,0.096,0.512h-2.757
	c-2.143,0-3.552,2.605-3.955,4.975c-0.241,1.421-0.274,3.6,0.936,5.787c1.046,1.89,2.771,3.363,5.131,4.362
	c-0.131,0.54-0.278,1.117-0.442,1.663C6.074,21.008,4.368,16.745,4.11,13.518z M57.002,70.73c-2.561,1.443-7.036,3.163-13.807,3.163
	c-6.771,0-11.246-1.72-13.807-3.163c-1.511-0.851-2.551-1.708-3.185-2.311c1.75-3.091,7.509-11.825,16.992-12.433
	c4.721,0.302,9.08,2.61,12.957,6.862c1.975,2.166,3.329,4.326,4.035,5.572C59.553,69.023,58.512,69.88,57.002,70.73z M78.078,43.256
	c1.018,4.393,0.874,8.344-0.429,11.742c-1.994,5.203-6.709,8.975-14.027,11.226c-0.83-1.444-2.304-3.713-4.394-6.024
	c-4.095-4.526-9.033-7.291-14.033-8.08v-6.407l1.651-0.826c0.847-2.016,3.032-0.887,3.032-0.887
	c0.645,0.726,0.649-0.403,0.649-0.403c-0.242-5.16-7.335-6.128-7.335-6.128s-7.094,0.968-7.336,6.128c0,0,0.001,1.129,0.646,0.403
	c0,0,2.195-1.129,3.042,0.887l1.651,0.826v6.407c-5,0.79-9.939,3.555-14.033,8.08c-2.091,2.311-3.556,4.58-4.385,6.024
	c-7.317-2.251-12.037-6.023-14.031-11.226C7.443,51.6,7.297,47.649,8.314,43.256c0.849-3.663,2.516-7.517,4.696-10.854
	c0.926-1.417,1.73-2.969,2.41-4.637c0.922,0.867,2.099,1.491,3.406,1.788c0.724,0.165,1.535,0.252,2.347,0.252
	c3.576,0,6.234-1.53,6.774-3.897c0.378-1.66-0.3-3.476-1.91-5.115c-1.289-1.312-3.011-2.312-4.606-2.675
	c-0.559-0.127-1.128-0.192-1.692-0.192c-0.681,0-1.337,0.094-1.951,0.268c0.127-1.111,0.214-2.246,0.258-3.405
	c0.13-3.419-0.129-6.181-0.326-7.731c0.613-0.313,1.688-1.099,3.546-1.099h-0.071V5.848c2-0.473,5.218-0.955,9.723-1.314
	c6.274-0.5,12.19-0.507,12.249-0.507c0.058,0,6.04,0.006,12.312,0.505c4.453,0.354,7.715,0.828,9.715,1.295V5.96h-0.071
	c1.858,0,2.933,0.786,3.546,1.099c-0.197,1.55-0.456,4.338-0.326,7.757c0.044,1.159,0.131,2.283,0.259,3.394
	c-0.617-0.176-1.275-0.277-1.959-0.277c-0.564,0-1.133,0.061-1.692,0.189c-1.595,0.363-3.317,1.362-4.606,2.674
	c-1.61,1.639-2.288,3.454-1.91,5.114c0.539,2.367,3.198,3.896,6.773,3.896l0,0c0.811,0,1.622-0.087,2.346-0.252
	c1.309-0.298,2.489-0.924,3.412-1.794c0.68,1.67,1.486,3.224,2.412,4.642C75.561,35.739,77.23,39.593,78.078,43.256z M73.856,23.728
	c-0.166-0.552-0.314-1.104-0.446-1.651c2.335-0.998,4.042-2.451,5.081-4.328c1.21-2.187,1.177-4.394,0.936-5.814
	c-0.402-2.37-1.811-4.975-3.955-4.975H72.77c0.055,0,0.094-0.502,0.096-0.51l0.11-0.49h7.123c0.721,0,2.506,3.494,2.182,7.558
	C82.023,16.745,80.316,20.989,73.856,23.728z"/>
<g>
</g>
<g>
</g>
<g>
</g>
<g>
</g>
<g>
</g>
<g>
</g>
<g>
</g>
<g>
</g>
<g>
</g>
<g>
</g>
<g>
</g>
<g>
</g>
<g>
</g>
<g>
</g>
<g>
</g>
</svg>
