<?xml version="1.0" encoding="iso-8859-1"?>
<!-- Generator: Adobe Illustrator 18.0.0, SVG Export Plug-In . SVG Version: 6.00 Build 0)  -->
<!DOCTYPE svg PUBLIC "-//W3C//DTD SVG 1.1//EN" "http://www.w3.org/Graphics/SVG/1.1/DTD/svg11.dtd">
<svg version="1.1" id="Capa_1" xmlns="http://www.w3.org/2000/svg" xmlns:xlink="http://www.w3.org/1999/xlink" x="0px" y="0px"
	 viewBox="0 0 91.609 106.426" style="enable-background:new 0 0 91.609 106.426;" xml:space="preserve">
<g>
	<path d="M77.475,101.171l1.962-0.445V77.802c2.851,0.682,5.162,0.805,5.294,0.812l6.877,0.34l-5.034-4.698
		c-3.505-3.271-5.799-8.217-7.137-11.934V39.283c0-4.93-1.004-9.755-2.904-13.952c-2.032-4.49-4.989-7.971-8.568-10.096
		c-1.005-1.324-0.76-5.701,0.133-9.015l0.324-1.203L66.84,2.951L65.484,3.05C57.68,3.618,50.716,4.738,44.315,6.458
		c0.095-0.793,0.19-1.34,0.192-1.351L45.414,0l-4.575,2.445c-4.334,2.316-7.484,6.188-8.945,8.236
		c-5.854,2.795-10.466,6.336-13.714,10.532c-3.928,5.074-5.92,11.153-5.92,18.069v22.785c-1.345,3.8-3.661,8.859-7.228,12.188
		L0,78.953l6.875-0.339c0.135-0.007,2.493-0.132,5.385-0.833v22.945l1.963,0.445c0.076,0.017,1.897,0.424,4.221,0.424
		c1.173,0,2.27-0.098,3.286-0.292c-0.504,0.786-0.53,1.649-0.324,2.316c0.716,2.327,3.706,2.327,4.832,2.327
		c3.859,0,9.292-1.252,12.796-4.412c1.46,2.655,3.638,4.307,6.36,4.808l0.456,0.084l0.456-0.084c2.722-0.5,4.899-2.153,6.36-4.808
		c3.504,3.16,8.937,4.412,12.796,4.412c1.126,0,4.116,0,4.832-2.327c0.205-0.667,0.18-1.531-0.324-2.317
		c1.016,0.194,2.113,0.292,3.286,0.292C75.579,101.595,77.399,101.188,77.475,101.171z M22.165,24.298
		c2.863-3.698,7.058-6.84,12.468-9.336l0.638-0.295l0.394-0.583c0.591-0.874,1.784-2.506,3.438-4.115l0.117,3.285l3.153-0.986
		c6.08-1.903,12.708-3.19,20.175-3.914c-0.082,0.57-0.154,1.182-0.204,1.815c-0.117,1.481-0.094,2.815,0.07,3.997L53.79,13.04
		l11.352,6.382c2.797,1.572,5.149,4.334,6.802,7.987c0.744,1.644,1.329,3.447,1.742,5.328c-2.57-0.786-6.182-1.536-10.607-1.536
		c-5.049,0-7.818,1.68-10.26,3.163c-2.105,1.277-3.767,2.286-6.969,2.286c-3.202,0-4.865-1.009-6.97-2.286
		C36.438,32.88,33.67,31.2,28.62,31.2c-4.385,0-7.971,0.736-10.537,1.515C18.865,29.616,20.228,26.8,22.165,24.298z M60.948,36.944
		c0.333-0.132,0.684-0.201,1.015-0.201c0.558,0,1.044,0.205,1.155,0.488c0.093,0.236-0.057,0.545-0.126,0.667
		c-0.244,0.431-0.704,0.804-1.263,1.025c-0.333,0.132-0.684,0.201-1.015,0.201h0c-0.558,0-1.044-0.205-1.156-0.488
		C59.403,38.243,59.878,37.367,60.948,36.944z M41.4,49.132c0.082-0.146,0.167-0.299,0.252-0.457
		c0.869,0.23,2.613,0.346,2.485-2.487c0,0-0.6-0.034-1.26,0.156c0.492-0.927,1.021-1.874,1.571-2.686
		c0.721-1.064,1.189-1.465,1.402-1.609c0.213,0.144,0.681,0.544,1.402,1.609c0.559,0.825,1.096,1.79,1.595,2.731
		c-0.715-0.24-1.406-0.201-1.406-0.201c-0.133,2.953,1.767,2.702,2.591,2.458c0.089,0.165,0.177,0.325,0.263,0.478l0.67,1.189
		l1.362,0.088c1.521,0.098,3.81,0.215,6.071,0.215c0.187,0,0.37-0.001,0.55-0.002c-1.514,1.019-3.324,1.897-4.953,1.989
		l-2.248,0.127l-0.125,2.248c-0.178,3.201-1.105,10.664-5.772,15.398c-4.669-4.737-5.595-12.204-5.772-15.407l-0.122-2.209
		l-2.207-0.164c-1.601-0.119-3.371-0.983-4.858-1.982c0.177,0.001,0.356,0.002,0.539,0.002c2.211,0,4.449-0.112,5.936-0.207
		l1.364-0.086L41.4,49.132z M28.58,37.231c0.112-0.283,0.598-0.488,1.155-0.488c0.331,0,0.682,0.069,1.015,0.201
		c0.559,0.221,1.019,0.594,1.263,1.025c0.069,0.122,0.22,0.431,0.127,0.667c-0.112,0.283-0.598,0.488-1.156,0.488
		c-0.331,0-0.682-0.07-1.015-0.201c-0.559-0.221-1.019-0.594-1.263-1.025C28.638,37.776,28.487,37.467,28.58,37.231z M67.208,94.027
		l-4.341-7.878l-0.382,8.987c-0.018,0.437-0.084,3.082,0.884,5.614c-1.454-0.201-3.162-0.61-4.723-1.312
		c-2.445-1.1-3.886-2.578-4.282-4.396l-3.635-16.694l-1.337,17.023c-0.005,0.051-0.463,4.903-3.542,5.901
		c-3.078-0.997-3.537-5.849-3.541-5.89l-1.337-17.023l-3.636,16.683c-0.396,1.818-1.837,3.296-4.282,4.396
		c-1.561,0.702-3.269,1.11-4.723,1.312c0.968-2.532,0.903-5.177,0.884-5.614l-0.382-8.987l-4.341,7.878
		c-1.152,2.09-3.924,2.529-6.046,2.529c-0.406,0-0.792-0.016-1.145-0.041V70.658l-3.444,1.36c-0.295,0.116-0.592,0.224-0.889,0.324
		c1.92-3.096,3.282-6.375,4.196-9.026l0.137-0.399V39.283c0-0.323,0.006-0.642,0.016-0.96c1.226-0.512,3.361-1.256,6.253-1.703
		c-0.175,1.254,0.081,2.572,0.754,3.76c0.813,1.437,2.162,2.584,3.797,3.23c0.93,0.367,1.894,0.553,2.865,0.553
		c2.667,0,4.96-1.443,5.842-3.676c0.164-0.414,0.272-0.844,0.33-1.282c0.946,0.557,1.97,1.108,3.17,1.549
		c-0.939,1.37-1.75,2.928-2.489,4.351c-0.062,0.12-0.124,0.238-0.185,0.355c-1.251,0.063-2.748,0.117-4.224,0.117
		c-2.644,0-4.079-0.173-4.817-0.318c-0.322-0.063-0.618-0.094-0.906-0.094c-1.723,0-3.018,1.191-3.079,2.831
		c-0.039,1.057,0.446,2.14,1.527,3.407c0.746,0.874,1.73,1.784,2.848,2.631c1.279,0.97,3.569,2.482,6.206,3.203
		c0.234,2.162,0.71,4.858,1.661,7.636c1.601,4.673,4.111,8.326,7.459,10.856l1.519,1.148l1.519-1.148
		c3.346-2.529,5.855-6.179,7.457-10.848c0.949-2.765,1.425-5.451,1.661-7.608c2.655-0.697,4.972-2.212,6.269-3.188
		c1.131-0.851,2.13-1.767,2.888-2.651c1.091-1.271,1.585-2.355,1.555-3.412c-0.047-1.656-1.342-2.858-3.079-2.858
		c-0.288,0-0.584,0.031-0.906,0.094c-0.738,0.145-2.173,0.318-4.817,0.318c-1.522,0-3.068-0.057-4.354-0.124
		c-0.06-0.114-0.12-0.23-0.181-0.348c-0.74-1.422-1.55-2.981-2.489-4.351c1.199-0.441,2.224-0.992,3.169-1.549
		c0.058,0.438,0.167,0.868,0.33,1.282c0.882,2.233,3.175,3.676,5.842,3.676h0c0.972,0,1.936-0.186,2.865-0.553
		c1.636-0.646,2.984-1.793,3.798-3.229c0.671-1.186,0.928-2.501,0.754-3.753c2.871,0.45,5.016,1.193,6.251,1.704
		c0.01,0.317,0.017,0.635,0.017,0.952v23.902l0.142,0.404c1.164,3.322,2.528,6.244,4.08,8.745c-0.264-0.089-0.528-0.184-0.789-0.286
		l-3.433-1.335v25.802c-0.353,0.025-0.739,0.041-1.145,0.041C71.132,96.556,68.36,96.117,67.208,94.027z"/>
</g>
<g>
</g>
<g>
</g>
<g>
</g>
<g>
</g>
<g>
</g>
<g>
</g>
<g>
</g>
<g>
</g>
<g>
</g>
<g>
</g>
<g>
</g>
<g>
</g>
<g>
</g>
<g>
</g>
<g>
</g>
</svg>
