<?xml version="1.0" encoding="iso-8859-1"?>
<!-- Generator: Adobe Illustrator 18.0.0, SVG Export Plug-In . SVG Version: 6.00 Build 0)  -->
<!DOCTYPE svg PUBLIC "-//W3C//DTD SVG 1.1//EN" "http://www.w3.org/Graphics/SVG/1.1/DTD/svg11.dtd">
<svg version="1.1" id="Capa_1" xmlns="http://www.w3.org/2000/svg" xmlns:xlink="http://www.w3.org/1999/xlink" x="0px" y="0px"
	 viewBox="0 0 62 83.433" style="enable-background:new 0 0 62 83.433;" xml:space="preserve">
<g>
	<path d="M37.183,15.316c-1.258-0.305-3.68-0.784-6.16-0.784c-2.48,0-4.951,0.479-6.209,0.784L0,0v46.924
		c0,14.09,6.516,17.912,11.692,20.983c1.295,0.768,2.556,1.494,3.596,2.329c4.979,3.998,7.836,11.564,7.863,11.635l0.525,1.561
		h13.16l1.427-0.226l0.508-1.445c0.028-0.074,2.866-7.471,7.845-11.469c1.04-0.835,2.367-1.589,3.662-2.357
		C55.455,64.864,62,61.014,62,46.924V0L37.183,15.316z M35.464,78.433h-8.985c-0.43-1-1.102-2.138-2.011-3.688l6.504-3.898
		l6.504,3.847C36.566,76.244,35.893,77.433,35.464,78.433z M58,46.924c0,5.32-1.162,9.282-3.195,12.113
		c-1.768,2.461-4.187,3.845-6.656,5.31c-1.362,0.808-2.813,1.643-4.081,2.661c-1.084,0.871-2.095,1.858-2.991,2.89
		c-0.141-2.053-0.323-4.796-0.458-7.709c-0.218-4.693-0.273-8.09-0.23-10.549c0.991,0.436,2.105,0.668,3.25,0.668
		c0.345,0,0.694-0.021,1.039-0.063c1.849-0.222,3.536-1.018,4.752-2.241c1.325-1.333,1.967-3.08,1.761-4.794
		c-0.189-1.574-1.058-2.986-2.445-3.976c-1.247-0.889-2.848-1.379-4.509-1.379c-0.345,0-0.695,0.021-1.041,0.063
		c-1.849,0.222-3.537,1.018-4.753,2.241c-1.02,1.026-1.633,2.297-1.768,3.61c-0.893,4.983-0.222,17.446,0.218,23.963l-4.801-2.954
		l-0.017-0.01l-0.02-0.012c-0.002-0.001-0.004-0.002-0.006-0.003c-0.026-0.016-0.052-0.031-0.078-0.045
		c-0.007-0.004-0.013-0.007-0.02-0.011c-0.022-0.012-0.044-0.023-0.066-0.034c-0.011-0.006-0.023-0.011-0.034-0.017
		c-0.017-0.008-0.034-0.016-0.051-0.023c-0.017-0.007-0.033-0.014-0.05-0.021c-0.012-0.005-0.023-0.009-0.035-0.014
		c-0.022-0.008-0.044-0.017-0.066-0.024c-0.007-0.002-0.014-0.005-0.021-0.007c-0.026-0.009-0.052-0.017-0.079-0.025
		c-0.003-0.001-0.006-0.038-0.009-0.039c-0.03-0.008-0.059-0.06-0.089-0.06c-0.001,0-0.002,0-0.003,0c-0.031,0-0.062,0-0.094,0
		c-0.001,0-0.002,0-0.003,0c-0.031,0-0.062,0.015-0.093,0.01c-0.003,0-0.007,0.012-0.01,0.012c-0.029-0.004-0.057-0.001-0.086-0.004
		c-0.008-0.001-0.016,0.002-0.024,0.001c-0.024-0.002-0.047-0.011-0.071-0.012c-0.014-0.001-0.029-0.008-0.044-0.008
		c-0.017,0-0.034,0-0.051,0c-0.022,0-0.043,0-0.065,0c-0.01,0-0.02,0-0.03,0c-0.028,0-0.056,0-0.084,0c-0.004,0-0.007,0-0.011,0
		c-0.13,0-0.259,0-0.386,0h-0.002c-0.029,0-0.057,0.066-0.086,0.076c-0.005,0.002-0.009,0.028-0.014,0.029
		c-0.024,0.008-0.048,0.029-0.071,0.038c-0.01,0.004-0.02,0.014-0.03,0.018c-0.018,0.007-0.037,0.018-0.055,0.026
		c-0.016,0.007-0.031,0.015-0.047,0.023c-0.013,0.006-0.025,0.013-0.038,0.019c-0.021,0.01-0.042,0.021-0.063,0.033
		c-0.008,0.004-0.015,0.008-0.023,0.013c-0.025,0.014-0.051,0.029-0.076,0.044c-0.002,0.001-0.005,0.003-0.007,0.004l-0.024,0.015
		l-0.012,0.007l-4.866,2.993c0.44-6.506,1.116-19.009,0.221-24.002c-0.136-1.313-0.749-2.584-1.768-3.61
		c-1.216-1.223-2.904-2.019-4.753-2.241c-0.346-0.042-0.696-0.063-1.041-0.063c-1.661,0-3.262,0.49-4.509,1.379
		c-1.388,0.99-2.256,2.402-2.445,3.976c-0.206,1.714,0.436,3.462,1.761,4.794c1.216,1.223,2.904,2.019,4.753,2.241
		c0.345,0.042,0.695,0.063,1.041,0.063h0c1.146,0,2.264-0.234,3.257-0.671c0.099,5.718-0.361,13.629-0.673,18.195
		c-0.88-1.008-1.851-1.972-2.912-2.825c-1.268-1.018-2.676-1.854-4.038-2.661c-2.469-1.465-4.946-2.849-6.714-5.31
		C5.133,56.207,4,52.245,4,46.924V7.436l20.087,12.359l0.965-0.268c0.029-0.008,2.922-0.855,5.883-0.855
		c2.938,0,5.838,0.847,5.865,0.855l1.075,0.268L58,7.436V46.924z M40.792,46.46c-0.145-1.21,1.41-2.252,2.897-2.431
		c0.182-0.022,0.366-0.033,0.547-0.033c1.48,0,2.729,0.75,2.844,1.708c0.074,0.615-0.336,1.13-0.587,1.382
		c-0.554,0.557-1.396,0.939-2.311,1.049c-0.182,0.022-0.366,0.033-0.547,0.033C42.157,48.169,40.907,47.418,40.792,46.46z
		 M21.089,46.46c-0.115,0.958-1.364,1.709-2.844,1.708c-0.181,0-0.365-0.011-0.547-0.033c-1.487-0.179-3.043-1.221-2.898-2.431
		c0.115-0.958,1.364-1.708,2.844-1.708c0.18,0,0.365,0.011,0.547,0.033C19.678,44.208,21.234,45.25,21.089,46.46z"/>
	<path d="M8,26.817c0,0,4.26-3.82,8.519-6.583L8,15.005V26.817z"/>
	<path d="M53,15.005l-8.519,5.228C48.74,22.997,53,26.817,53,26.817V15.005z"/>
</g>
<g>
</g>
<g>
</g>
<g>
</g>
<g>
</g>
<g>
</g>
<g>
</g>
<g>
</g>
<g>
</g>
<g>
</g>
<g>
</g>
<g>
</g>
<g>
</g>
<g>
</g>
<g>
</g>
<g>
</g>
</svg>
