<?xml version="1.0" encoding="iso-8859-1"?>
<!-- Generator: Adobe Illustrator 18.0.0, SVG Export Plug-In . SVG Version: 6.00 Build 0)  -->
<!DOCTYPE svg PUBLIC "-//W3C//DTD SVG 1.1//EN" "http://www.w3.org/Graphics/SVG/1.1/DTD/svg11.dtd">
<svg version="1.1" id="Capa_1" xmlns="http://www.w3.org/2000/svg" xmlns:xlink="http://www.w3.org/1999/xlink" x="0px" y="0px"
	 viewBox="0 0 76.684 99.597" style="enable-background:new 0 0 76.684 99.597;" xml:space="preserve">
<g>
	<path d="M49.342,50.174c0.557,0.137,1.125,0.207,1.688,0.207c2.732,0,4.955-1.572,5.531-3.911c0.359-1.46-0.003-3.029-0.994-4.304
		c-0.881-1.134-2.188-1.96-3.68-2.328c-0.557-0.137-1.125-0.207-1.688-0.207c-2.732,0-4.955,1.572-5.531,3.911
		c-0.359,1.46,0.003,3.029,0.994,4.305C46.543,48.98,47.85,49.807,49.342,50.174z M49.139,44.643
		c0.035-0.142,0.429-0.406,1.059-0.406c0.193,0,0.39,0.025,0.587,0.073c0.483,0.119,0.9,0.367,1.145,0.682
		c0.131,0.169,0.174,0.314,0.159,0.377c-0.035,0.142-0.429,0.406-1.059,0.406c-0.193,0-0.39-0.025-0.587-0.073
		c-0.483-0.119-0.9-0.368-1.145-0.682C49.167,44.851,49.124,44.706,49.139,44.643z"/>
	<path d="M21.198,42.165c-0.991,1.275-1.354,2.844-0.994,4.304c0.576,2.339,2.799,3.911,5.531,3.911h0
		c0.563,0,1.131-0.069,1.688-0.207c1.492-0.367,2.799-1.194,3.68-2.328c0.991-1.276,1.354-2.844,0.994-4.305
		c-0.576-2.339-2.799-3.911-5.531-3.911c-0.563,0-1.131,0.069-1.688,0.207C23.387,40.204,22.08,41.031,21.198,42.165z
		 M24.835,44.991c0.244-0.314,0.662-0.563,1.145-0.682c0.197-0.049,0.395-0.073,0.587-0.073c0.629,0,1.024,0.264,1.059,0.406
		c0.044,0.179-0.336,0.821-1.303,1.059c-0.197,0.049-0.394,0.073-0.587,0.073h0c-0.63,0-1.024-0.264-1.059-0.406
		C24.661,45.305,24.704,45.16,24.835,44.991z"/>
	<path d="M22.774,25.71l1.631-1.173c0,0-2.774-8.242-5.061-9.814s-6.956-3.812-10.815-4.669C8.529,10.054,9.767,22.038,22.774,25.71
		z"/>
	<path d="M68.236,10.054c-3.859,0.858-8.528,3.097-10.815,4.669c-2.287,1.572-5.061,9.814-5.061,9.814l1.631,1.173
		C66.998,22.038,68.236,10.054,68.236,10.054z"/>
	<path d="M29.609,79.023c-1.725,0-3.123,2.926-3.123,5.432c0,2.506,1.398,3.644,3.123,3.644
		C31.334,88.098,31.334,79.023,29.609,79.023z"/>
	<path d="M47.112,79.023c-1.725,0-1.725,9.075,0,9.075s3.123-1.137,3.123-3.644C50.235,81.948,48.837,79.023,47.112,79.023z"/>
	<path d="M3.492,19.096c2.179,4.139,6.14,9.356,12.96,12.005c-1.765,4.238-2.588,9.156-2.337,14.131
		c0.295,5.846,2.021,11.246,4.861,15.203c0.062,0.086,0.132,0.183,0.211,0.292c0.856,1.182,2.861,3.949,4.077,6.965
		c1.319,3.272,1.323,5.805,0.014,7.529c-3.188,4.194-4.18,9.54-2.528,13.62c0.974,2.406,2.815,4.105,5.139,4.787
		c0.501,0.68,1.318,1.638,2.501,2.589c3.438,2.766,7.304,3.365,9.942,3.381l0.014,0l0.014,0c4.778-0.028,8.044-1.854,9.942-3.381
		c1.183-0.951,2-1.909,2.501-2.589c2.324-0.682,4.165-2.381,5.139-4.787c1.652-4.08,0.66-9.426-2.528-13.62
		c-1.31-1.723-1.305-4.256,0.014-7.528c1.215-3.016,3.22-5.784,4.077-6.966c0.079-0.109,0.149-0.206,0.211-0.292
		c2.839-3.957,4.566-9.356,4.861-15.203c0.251-4.974-0.572-9.893-2.337-14.131c6.82-2.649,10.781-7.866,12.959-12.006
		c2.935-5.577,3.816-11.444,3.387-14.784C76.081,0.42,73.878,0,72.953,0c-0.142,0-0.286,0.01-0.428,0.029
		c-2.511,0.342-7.254,2.212-10.552,3.709c-2.834,1.286-7.927,3.783-10.201,6.058c-1.968,1.968-3.646,5.284-4.881,8.284
		c-0.149-0.052-0.3-0.103-0.451-0.152l2.26-9.551h-20.72l2.261,9.552c-0.15,0.049-0.3,0.099-0.448,0.152
		c-1.236-3.001-2.912-6.316-4.881-8.284c-2.274-2.274-7.367-4.771-10.201-6.058C9.435,1.343,5.73,0.243,4.161,0.029
		C4.019,0.01,3.875,0,3.733,0C2.809,0,0.605,0.42,0.105,4.311c-0.234,1.822-0.073,4.196,0.455,6.685
		C1.148,13.768,2.162,16.569,3.492,19.096z M51.67,87.111c-0.515,1.271-1.397,2.01-2.623,2.198l-1.128,0.172l-0.546,1.002
		c-0.006,0.01-0.612,1.06-1.96,2.145c-1.926,1.55-4.304,2.345-7.068,2.364c-6.315-0.044-8.859-4.218-9.032-4.517l-0.515-0.99
		l-1.155-0.176c-1.226-0.187-2.109-0.926-2.623-2.198c-1.489-3.675,0.648-7.875,3.113-10.602c2.537-2.807,6.395-4.805,10.235-4.799
		c3.906,0.006,7.655,1.966,10.245,4.83C51.099,79.293,53.177,83.39,51.67,87.111z M33.805,12.983h9.074l-0.933,3.94l-1.068,4.511
		l-1.399,5.911L38.342,28.8l-1.138-1.455l-1.399-5.911l-1.068-4.511L33.805,12.983z M4.674,4.835
		c4.335,1.151,14.415,5.649,16.983,8.218c1.448,1.448,3.153,4.671,4.679,8.845l0.874,2.39l2.291-1.108
		c0.582-0.281,1.185-0.529,1.807-0.748l1.646,6.955l5.387,6.89l5.387-6.89l1.646-6.956c0.623,0.219,1.227,0.467,1.81,0.749
		l2.291,1.108l0.874-2.39c1.526-4.173,3.231-7.397,4.679-8.845c2.569-2.569,12.648-7.066,16.983-8.218
		c0.225,1.72-0.035,5.695-2.017,10.28c-1.274,2.947-2.968,5.476-5.038,7.518c-2.41,2.378-5.274,4.013-8.513,4.859L53.6,28.236
		l1.404,2.584c2.174,3.999,3.228,9.034,2.968,14.178c-0.247,4.902-1.706,9.549-4.003,12.75c-0.058,0.081-0.125,0.173-0.199,0.275
		c-0.955,1.319-3.192,4.407-4.619,7.946c-0.581,1.442-0.974,2.826-1.174,4.134c-2.42-1.579-5.625-2.889-9.596-2.898v-0.001
		c-0.007,0-0.013,0-0.02,0c-0.007,0-0.013,0-0.02,0v0.001c-3.992,0.009-7.208,1.332-9.632,2.922
		c-0.199-1.316-0.592-2.708-1.177-4.159c-1.427-3.54-3.663-6.628-4.619-7.946c-0.074-0.102-0.141-0.194-0.198-0.275
		c-2.297-3.201-3.755-7.848-4.003-12.75c-0.26-5.145,0.794-10.18,2.968-14.178l1.405-2.584l-2.846-0.744
		c-3.239-0.847-6.103-2.482-8.514-4.86c-2.069-2.042-3.764-4.572-5.038-7.519C4.708,10.529,4.449,6.555,4.674,4.835z"/>
</g>
<g>
</g>
<g>
</g>
<g>
</g>
<g>
</g>
<g>
</g>
<g>
</g>
<g>
</g>
<g>
</g>
<g>
</g>
<g>
</g>
<g>
</g>
<g>
</g>
<g>
</g>
<g>
</g>
<g>
</g>
</svg>
