<?xml version="1.0" encoding="iso-8859-1"?>
<!-- Generator: Adobe Illustrator 18.0.0, SVG Export Plug-In . SVG Version: 6.00 Build 0)  -->
<!DOCTYPE svg PUBLIC "-//W3C//DTD SVG 1.1//EN" "http://www.w3.org/Graphics/SVG/1.1/DTD/svg11.dtd">
<svg version="1.1" id="Capa_1" xmlns="http://www.w3.org/2000/svg" xmlns:xlink="http://www.w3.org/1999/xlink" x="0px" y="0px"
	 viewBox="0 0 82.495 100.978" style="enable-background:new 0 0 82.495 100.978;" xml:space="preserve">
<g>
	<path d="M36.596,85.844c-3.856-0.519-1.683,3.141,0.408,4.397c2.092,1.257,3.063,1.84,3.063,1.84S40.452,86.364,36.596,85.844z"/>
	<path d="M45.9,85.844c-3.856,0.519-3.471,6.237-3.471,6.237s0.971-0.583,3.063-1.84S49.756,85.325,45.9,85.844z"/>
	<path d="M82.495,36.77l-1.519-1.256c-0.268-0.221-6.65-5.421-15.102-5.421c-1.03,0-2.062,0.079-3.067,0.234
		c-2.784,0.43-4.512,0.904-6.04,1.404l-0.674-2.489c0.313-1.935,2.12-10.859,10.156-22.788L70.597,0l-7.151,3.069
		c-0.173,0.074-4.292,1.864-8.881,5.803C48.56,14.025,44.518,20.51,42.855,27.645l-1.607,2.809l-1.608-2.809
		c-1.662-7.135-5.705-13.62-11.711-18.774c-4.589-3.938-8.708-5.728-8.881-5.803L11.898,0l4.347,6.453
		c7.981,11.847,9.831,20.845,10.155,22.793l-0.673,2.484c-1.528-0.5-3.256-0.974-6.04-1.404c-1.005-0.155-2.037-0.234-3.067-0.234
		c-8.452,0-14.834,5.2-15.102,5.421L0,36.77l1.016,1.689c2.092,3.479,5.192,6.014,9.214,7.533c2.832,1.07,6.051,1.613,9.566,1.613
		c0.724,0,1.397-0.024,2.004-0.06c-0.982,6.202-2.433,20.203,2.542,29.135c2.96,5.314,3.333,8.989,3.605,11.673
		c0.28,2.76,0.544,5.368,3.532,7.199c1.378,0.844,2.266,1.657,3.125,2.443c1.574,1.44,3.202,2.929,6.607,2.984l0.038,0.001
		l0.038-0.001c3.405-0.056,5.033-1.545,6.607-2.984c0.859-0.786,1.748-1.598,3.125-2.443c2.987-1.831,3.252-4.438,3.532-7.199
		c0.272-2.684,0.645-6.359,3.604-11.673c4.975-8.932,3.524-22.934,2.542-29.135c0.607,0.036,1.28,0.06,2.004,0.06c0,0,0,0,0,0
		c3.515,0,6.734-0.543,9.565-1.612c4.022-1.519,7.122-4.054,9.214-7.533L82.495,36.77z M57.301,12.563
		c-3.359,6.522-4.812,11.59-5.417,14.328l-3.965-0.405C49.586,21.227,52.732,16.554,57.301,12.563z M25.201,12.577
		c3.555,3.111,7.384,7.677,9.372,13.91l-3.962,0.405C30.007,24.155,28.556,19.092,25.201,12.577z M19.795,43.023
		c-5.281,0-8.875-1.346-11.319-3.103c3.663,0.388,7.695,1.148,11.22,2.589c0.407,0.166,0.782,0.332,1.129,0.495
		C20.498,43.016,20.154,43.023,19.795,43.023z M60.6,38.459c-3.875,1.659-5.497,3.342-5.669,3.529l0.025,0.023l-0.045-0.009
		l0.742,3.409c0.013,0.058,0.403,1.89,0.774,4.687c-2.767,1.286-7.794,4.312-8.476,9.538l-0.944,6.713l4.537,0.638l0.388-2.761
		c0.629,0.238,1.317,0.363,2.041,0.363h0c1.008,0,2.016-0.241,2.955-0.695c-0.315,3.821-1.121,7.583-2.777,10.556
		c-3.42,6.14-3.865,10.533-4.16,13.44c-0.264,2.6-0.4,3.161-1.368,3.755c-1.752,1.074-2.9,2.124-3.823,2.968
		c-1.387,1.269-1.913,1.75-3.553,1.784c-1.64-0.034-2.165-0.515-3.553-1.784c-0.923-0.844-2.071-1.895-3.823-2.968
		c-0.968-0.593-1.104-1.155-1.368-3.755c-0.295-2.907-0.74-7.299-4.16-13.44c-1.677-3.012-2.483-6.833-2.789-10.705
		c1.02,0.55,2.135,0.845,3.248,0.845c0.725,0,1.413-0.125,2.042-0.363l0.388,2.761l4.537-0.638l-0.944-6.713
		c-0.705-5.397-6.045-8.448-8.741-9.659c0.366-2.729,0.745-4.508,0.757-4.565l0.738-3.398l-0.067,0.013l0.043-0.04
		c-0.172-0.186-1.795-1.87-5.669-3.529c-3.097-1.326-6.732-2.279-10.86-2.852c1.67-0.545,3.569-0.934,5.594-0.934
		c0.797,0,1.593,0.061,2.368,0.18c3.229,0.499,4.722,1.017,6.613,1.673c0.313,0.108,0.631,0.219,0.964,0.332l2.308,0.781
		l1.662-6.136l5.701-0.583l5.011,8.758l5.011-8.758l5.701,0.583l1.662,6.136l2.308-0.781c0.333-0.113,0.652-0.223,0.964-0.332
		c1.891-0.656,3.384-1.174,6.613-1.673c0.774-0.12,1.571-0.18,2.368-0.18c2.024,0,3.922,0.388,5.591,0.933
		C67.335,36.179,63.699,37.133,60.6,38.459z M56.391,57.883c-0.094,0.482-0.41,0.982-0.867,1.373
		c-0.473,0.405-1.053,0.647-1.552,0.647c-0.121,0-0.418-0.017-0.555-0.178c-0.15-0.175-0.106-0.504-0.08-0.637
		c0.094-0.482,0.41-0.982,0.867-1.373c0.473-0.405,1.053-0.647,1.552-0.647c0.121,0,0.418,0.017,0.555,0.178
		C56.462,57.422,56.418,57.75,56.391,57.883z M26.464,57.246c0.137-0.16,0.434-0.178,0.555-0.178c0.499,0,1.079,0.242,1.552,0.647
		c0.457,0.391,0.772,0.891,0.867,1.373c0.026,0.133,0.071,0.462-0.08,0.637c-0.137,0.16-0.434,0.178-0.555,0.178
		c-0.499,0-1.079-0.242-1.552-0.647c-0.457-0.391-0.773-0.891-0.867-1.373C26.358,57.75,26.314,57.422,26.464,57.246z M62.7,43.023
		c-0.362,0-0.708-0.007-1.037-0.019c0.346-0.163,0.722-0.328,1.128-0.494c3.528-1.443,7.564-2.203,11.23-2.59
		C71.576,41.676,67.982,43.023,62.7,43.023z"/>
</g>
<g>
</g>
<g>
</g>
<g>
</g>
<g>
</g>
<g>
</g>
<g>
</g>
<g>
</g>
<g>
</g>
<g>
</g>
<g>
</g>
<g>
</g>
<g>
</g>
<g>
</g>
<g>
</g>
<g>
</g>
</svg>
