<?xml version="1.0" encoding="iso-8859-1"?>
<!-- Generator: Adobe Illustrator 18.0.0, SVG Export Plug-In . SVG Version: 6.00 Build 0)  -->
<!DOCTYPE svg PUBLIC "-//W3C//DTD SVG 1.1//EN" "http://www.w3.org/Graphics/SVG/1.1/DTD/svg11.dtd">
<svg version="1.1" id="Capa_1" xmlns="http://www.w3.org/2000/svg" xmlns:xlink="http://www.w3.org/1999/xlink" x="0px" y="0px"
	 viewBox="0 0 96.101 79.425" style="enable-background:new 0 0 96.101 79.425;" xml:space="preserve">
<g>
	<path d="M54.171,49.543c-1.098-1.098-2.671-1.306-3.513-0.464c-0.481,0.481-0.619,1.2-0.445,1.933
		c0.131,0.551,0.437,1.109,0.908,1.58c1.098,1.098,2.671,1.306,3.513,0.464c0.723-0.723,0.672-1.985-0.053-3.023
		C54.463,49.862,54.326,49.698,54.171,49.543z"/>
	<path d="M41.93,49.543c-0.155,0.155-0.292,0.32-0.411,0.49c-0.724,1.038-0.776,2.299-0.053,3.023
		c0.842,0.842,2.415,0.634,3.513-0.464c0.471-0.471,0.778-1.029,0.908-1.58c0.174-0.733,0.036-1.452-0.445-1.933
		C44.601,48.237,43.028,48.445,41.93,49.543z"/>
	<path d="M91.391,46.935c-1.668-2.097-3.528-3.768-5.043-4.957c1.337-1.827,2.374-3.816,3.084-5.898
		c0.593-1.189,0.925-2.509,0.93-3.899c0.13-0.937,0.197-1.883,0.197-2.833c0-3.18-0.714-6.258-2.072-9.091
		c1.146,0.274,2.365,0.716,3.635,1.389l2.102-3.963c-3.278-1.739-6.328-2.299-8.916-2.289c-0.722-0.845-1.512-1.652-2.372-2.413
		c-0.436-0.386-0.885-0.756-1.345-1.111c1.583-0.571,3.507-0.929,5.793-0.811l0.232-4.48c-4.559-0.237-8.053,0.998-10.564,2.494
		c-1.536-0.743-3.152-1.341-4.825-1.787c0.873-1.185,2.111-2.385,3.871-3.398L73.86,0c-3.255,1.875-5.217,4.254-6.4,6.448
		c-0.855-0.076-1.72-0.115-2.59-0.115c-3.556,0-6.999,0.639-10.234,1.899c-2.408,0.937-4.613,2.184-6.584,3.717
		c-0.001,0-0.001-0.001-0.002-0.001c-0.001,0-0.001,0.001-0.002,0.001c-1.97-1.532-4.176-2.779-6.584-3.717
		c-3.235-1.26-6.679-1.899-10.234-1.899c-0.871,0-1.735,0.039-2.59,0.115c-1.183-2.193-3.145-4.573-6.4-6.448l-2.239,3.887
		c1.76,1.014,2.998,2.214,3.871,3.398C22.2,7.731,20.584,8.33,19.048,9.073c-2.51-1.496-6.004-2.731-10.564-2.494l0.232,4.48
		c2.286-0.119,4.211,0.24,5.793,0.811c-0.46,0.355-0.91,0.724-1.345,1.111c-0.86,0.762-1.65,1.569-2.372,2.413
		c-2.588-0.01-5.638,0.55-8.916,2.289l2.102,3.963c1.269-0.673,2.488-1.115,3.635-1.389c-1.358,2.832-2.072,5.91-2.072,9.091
		c0,0.95,0.067,1.896,0.197,2.833c0.004,1.39,0.337,2.71,0.93,3.899c0.711,2.082,1.747,4.071,3.084,5.898
		c-1.515,1.189-3.374,2.86-5.043,4.957C1.585,50.863,0,55.103,0,59.535c0,2.895,0.932,5.571,2.771,7.953
		c1.587,2.057,3.82,3.847,6.637,5.319c4.882,2.552,11.288,4.016,17.574,4.016c1.551,0,3.054-0.092,4.47-0.274
		c1.618-0.208,3.207-0.313,4.721-0.313c7.012,0,10.59,2.261,10.791,2.392l1.083,0.797c0,0,0.001-0.001,0.003-0.002
		c0.002,0.001,0.003,0.002,0.003,0.002l1.083-0.797c0.2-0.13,3.779-2.392,10.791-2.392c1.515,0,3.103,0.105,4.721,0.313
		c1.415,0.182,2.919,0.274,4.469,0.274c6.286,0,12.692-1.464,17.575-4.016c2.817-1.473,5.05-3.262,6.637-5.319
		c1.839-2.382,2.771-5.058,2.771-7.953C96.101,55.103,94.517,50.863,91.391,46.935z M85.87,31.932
		c-0.126,0.794-0.309,1.576-0.55,2.341c-0.933,1.686-2.942,2.856-5.265,2.856c-3.21,0-5.821-2.232-5.821-4.976
		c0-2.743,2.611-4.975,5.821-4.975C83.179,27.178,85.734,29.291,85.87,31.932z M16.045,27.178c3.21,0,5.821,2.232,5.821,4.975
		c0,2.744-2.612,4.976-5.821,4.976c-2.323,0-4.332-1.17-5.265-2.856c-0.241-0.766-0.424-1.547-0.55-2.341
		C10.367,29.291,12.922,27.178,16.045,27.178z M84.615,68.832c-4.2,2.196-9.993,3.506-15.497,3.506c-1.359,0-2.67-0.08-3.896-0.238
		c-1.807-0.232-3.588-0.35-5.293-0.35c-5.477,0-9.559,1.244-11.875,2.356c0,0-0.001-0.001-0.002-0.001
		c-0.001,0-0.001,0.001-0.002,0.001c-2.317-1.111-6.399-2.356-11.875-2.356c-1.705,0-3.486,0.118-5.293,0.35
		c-1.226,0.158-2.537,0.238-3.896,0.238c-5.504,0-11.298-1.311-15.497-3.506c-3.194-1.67-7.001-4.638-7.001-9.297
		c0-2.639,0.95-9.41,9.748-15.271l2.175-1.449L15.29,41.59c0.25,0.017,0.501,0.026,0.755,0.026c5.683,0,10.307-4.244,10.307-9.462
		c0-0.129-0.004-0.258-0.009-0.386c0.286,0.424,0.545,0.875,0.774,1.355l4.046-1.937c-1.859-3.885-5.109-6.586-9.398-7.814
		c-2.849-0.815-5.285-0.713-5.816-0.678c-1.815,0.015-3.52,0.463-4.998,1.237c0.479-1.365,1.133-2.664,1.94-3.876
		c2.247,0.37,3.627,1.203,3.655,1.22l2.367-3.811c-0.109-0.068-1.082-0.657-2.695-1.19c0.785-0.688,1.632-1.322,2.531-1.896
		c1.011,0.898,1.504,1.631,1.517,1.65l3.754-2.455c-0.05-0.077-0.391-0.585-1.036-1.296c0.898-0.333,1.828-0.611,2.784-0.834
		c0.163,0.75,0.179,1.246,0.181,1.311l0-0.018l4.486-0.022c0-0.094-0.012-0.803-0.219-1.874c0.337-0.014,0.675-0.022,1.015-0.022
		c2.997,0,5.892,0.536,8.607,1.593c2.606,1.015,4.921,2.458,6.881,4.29l1.329,1.242v0.003l0.002-0.002l0.002,0.002l0.002-0.002
		l0.002,0.002v-0.003l1.329-1.242c1.96-1.832,4.274-3.275,6.881-4.29c2.714-1.057,5.61-1.593,8.607-1.593
		c0.34,0,0.679,0.008,1.015,0.022c-0.208,1.071-0.219,1.78-0.219,1.874l4.486,0.022l0,0.018c0.001-0.065,0.018-0.56,0.181-1.311
		c0.956,0.223,1.886,0.502,2.784,0.834c-0.646,0.711-0.986,1.22-1.036,1.296l3.754,2.455c0.013-0.02,0.506-0.752,1.517-1.65
		c0.9,0.574,1.746,1.208,2.531,1.896c-1.613,0.533-2.587,1.122-2.695,1.19l2.367,3.811c0.027-0.017,1.407-0.851,3.655-1.22
		c0.807,1.212,1.462,2.511,1.94,3.876c-1.477-0.774-3.182-1.222-4.998-1.237c-0.531-0.035-2.967-0.137-5.816,0.678
		c-4.288,1.227-7.538,3.929-9.397,7.814l4.046,1.937c0.23-0.48,0.489-0.931,0.774-1.355c-0.006,0.128-0.009,0.257-0.009,0.386
		c0,5.217,4.624,9.462,10.307,9.462c0.254,0,0.506-0.009,0.755-0.026l-1.119,1.226l2.175,1.449
		c8.799,5.861,9.748,12.632,9.748,15.271C91.616,64.194,87.808,67.162,84.615,68.832z"/>
	<path d="M77.319,46.409c-0.805,0-1.56,0.065-2.011,0.104l-0.045,0.004c-0.847,0.073-1.629,0.108-2.39,0.108
		c-2.262,0-4.34-0.313-6.948-1.048c-1.245-0.351-2.402-1.198-3.626-2.094c-1.149-0.841-2.337-1.711-3.773-2.333
		c-2.872-1.244-6.06-2.021-9.218-2.248c-0.4-0.029-0.824-0.042-1.254-0.041v-0.005c-0.001,0-0.002,0-0.004,0
		c-0.001,0-0.002,0-0.004,0v0.005c-0.43-0.001-0.855,0.012-1.254,0.041c-3.158,0.227-6.345,1.005-9.218,2.248
		c-1.436,0.622-2.624,1.492-3.773,2.333c-1.224,0.896-2.381,1.743-3.626,2.094c-2.608,0.735-4.685,1.048-6.947,1.048
		c-0.762,0-1.543-0.035-2.39-0.108l-0.044-0.004c-0.451-0.039-1.207-0.104-2.011-0.104c-1.49,0-3.589,0.188-4.615,1.814
		c-0.354,0.561-0.834,1.741-0.072,3.338c1.036,2.169,2.802,3.606,4.367,4.516c-0.542,0.704-1.027,1.425-1.422,2.123
		c-1.243,2.195-1.571,4.063-0.976,5.555c0.368,0.922,1.41,2.469,4.252,2.469h0c0.878,0,1.881-0.145,3.043-0.441
		c0.008,0.042,0.015,0.085,0.024,0.127c0.261,1.188,1.052,2.823,3.336,3.863c1.042,0.475,2.107,0.706,3.254,0.706h0.001
		c1.912,0,3.723-0.643,5.82-1.387c2.643-0.938,5.854-2.078,10.473-2.339c0.012,0.013,0.897,0.018,1.782,0.017
		c0.885,0.001,1.77-0.004,1.782-0.017c4.619,0.261,7.83,1.401,10.473,2.339c2.097,0.744,3.908,1.387,5.82,1.387c0,0,0,0,0.001,0
		c1.147,0,2.212-0.231,3.254-0.706c2.284-1.04,3.075-2.675,3.336-3.863c0.009-0.042,0.016-0.085,0.024-0.127
		c1.161,0.296,2.164,0.441,3.043,0.441h0c2.842,0,3.884-1.547,4.252-2.469c0.595-1.491,0.267-3.36-0.976-5.555
		c-0.395-0.698-0.879-1.418-1.422-2.123c1.565-0.91,3.332-2.346,4.367-4.516c0.762-1.597,0.282-2.777-0.072-3.338
		C80.908,46.597,78.809,46.409,77.319,46.409z M34.193,64.576c-1.749,0.621-3.13,1.111-4.217,1.111h0
		c-0.454,0-0.857-0.087-1.269-0.275c-0.267-0.122-0.595-0.313-0.644-0.533c-0.028-0.126-0.024-0.278,0.005-0.448
		c2.029-0.534,4.131-1.006,6.283-1.409c0.156-0.029,0.311-0.058,0.467-0.087c0.439-0.068,1.141-0.147,2.029-0.147
		c0.731,0,1.547,0.054,2.407,0.199C37.272,63.484,35.614,64.071,34.193,64.576z M68.038,64.879c-0.048,0.22-0.377,0.411-0.644,0.533
		c-0.411,0.187-0.814,0.275-1.269,0.275h0c-1.087,0-2.468-0.491-4.217-1.111c-1.421-0.505-3.078-1.092-5.061-1.588
		c0.861-0.146,1.676-0.199,2.407-0.199c0.888,0,1.59,0.079,2.029,0.147c0.156,0.028,0.311,0.057,0.467,0.087
		c2.152,0.403,4.253,0.875,6.283,1.409C68.062,64.601,68.065,64.754,68.038,64.879z M73.342,53.09l-3.973,0.964l2.985,2.835
		c1.958,1.86,3.104,3.862,3.405,4.848c-0.486-0.003-1.377-0.109-2.888-0.582c-0.373-0.117-0.75-0.231-1.129-0.343
		c-2.37-0.704-4.849-1.322-7.401-1.849c-0.585-0.121-1.172-0.239-1.764-0.349c-0.172-0.032-0.344-0.064-0.517-0.096l-0.052-0.009
		c-0.596-0.094-1.557-0.206-2.753-0.206c-2.167,0-4.252,0.357-6.196,1.061c-1.671,0.605-3.203,1.458-4.581,2.546
		c-0.143,0.113-0.424,0.344-0.424,0.344c-0.001-0.001-0.002-0.002-0.004-0.003c-0.001,0.001-0.002,0.002-0.004,0.003
		c0,0-0.281-0.231-0.424-0.344c-1.378-1.088-2.91-1.941-4.581-2.546c-1.944-0.704-4.028-1.061-6.195-1.061
		c-1.196,0-2.158,0.112-2.753,0.206l-0.052,0.009c-0.172,0.031-0.344,0.063-0.517,0.096c-0.592,0.111-1.18,0.229-1.764,0.349
		c-2.552,0.527-5.031,1.146-7.401,1.849c-0.379,0.112-0.756,0.227-1.129,0.343c-1.511,0.473-2.402,0.578-2.888,0.582
		c0.301-0.986,1.447-2.988,3.405-4.848l2.985-2.835l-3.973-0.964c-0.122-0.034-2.282-0.646-3.735-2.192
		c0.527,0.011,1.033,0.055,1.384,0.085l0.045,0.004c0.976,0.084,1.884,0.125,2.775,0.125c2.661,0,5.179-0.375,8.164-1.217
		c0.962-0.271,1.83-0.68,2.629-1.146c0.162-0.094,0.322-0.191,0.478-0.289c0.697-0.439,1.343-0.911,1.953-1.357
		c0.993-0.727,1.931-1.414,2.905-1.836c2.414-1.045,5.096-1.699,7.757-1.89c0.293-0.021,0.612-0.03,0.936-0.029
		c0.324-0.001,0.643,0.008,0.936,0.029c2.66,0.191,5.343,0.845,7.757,1.89c0.974,0.422,1.913,1.109,2.905,1.836
		c0.61,0.447,1.255,0.919,1.953,1.357c0.156,0.098,0.316,0.195,0.478,0.289c0.799,0.466,1.667,0.875,2.629,1.146
		c2.986,0.841,5.503,1.217,8.164,1.217c0.891,0,1.799-0.041,2.775-0.125l0.045-0.004c0.351-0.03,0.856-0.074,1.384-0.085
		C75.624,52.443,73.464,53.056,73.342,53.09z"/>
</g>
<g>
</g>
<g>
</g>
<g>
</g>
<g>
</g>
<g>
</g>
<g>
</g>
<g>
</g>
<g>
</g>
<g>
</g>
<g>
</g>
<g>
</g>
<g>
</g>
<g>
</g>
<g>
</g>
<g>
</g>
</svg>
