<?xml version="1.0" encoding="UTF-8" standalone="yes"?>
<svg xmlns="http://www.w3.org/2000/svg" viewBox="0 0 100 100">
  <path d="M12.303 20.992h2.802l2.454-1.752-1.402-1.752zM39.3 6.487l1.927 1.226h.875l1.226-3.68-4.906-.874.877.874zM43.21 17.19l-1.265 1.792v3.1l3.375-1.876 2.397-1.04-.21-2.918-3.27-.792-.94 2.142zM38.98 13.667L37.7 13.5l-.9.87 1.09.478zM39.568 9.855l-1.1-.6-.398 2.222 1.72-.348zM12.414 15.783l-1.15-.464.445 2.168 1.067-.475zM13.688 12.068l-1.827-2.57-.926.658-.016 1.945.912 1.287zM7.557 13.666l-.215.942 1.304.297.106-.47-.545-.62zM46.8 7.703l-1.2-.46-1.2.46v1.844l1.73.69zM32.36 2.44h-2.73l-1.202.46v1.844l1.744-.806zM32.36 8.52l3.163.11.106-3.794-2.07 1.378-1.2.462zM40.566 19.24H39.28l-4.085-1.222 1.334-1.615-5.167 1.084 2.197-6.046-2.197 1.946-4.055-6.893c-.12.036-.24.056-.36.096-3.9 1.315-6.517 4.685-7.073 8.496l2.86 1.06-2.958 1.005c.05.946.217 1.9.533 2.84 1.867 5.533 7.867 8.506 13.4 6.637 3.517-1.186 5.993-4.043 6.856-7.387zM88.422 61.694l-11.143-2.8-1.59 1.62-2.764-2.714-12.81-3.218c.112-.86-1.276-5.373-1.507-6.293l-.028.05-5.38 1.532 3.985-3.39-3.355-3.576 2.682-.927-3.063-9.43c9.228-3.888 23.02-9.246 23.177-9.308a4.105 4.105 0 0 0 2.34-5.313 4.093 4.093 0 0 0-5.313-2.342c-.46.18-7.5 2.914-14.865 5.888l-.312 2.68-3.943-.948c-1.844.756-3.63 1.5-5.256 2.19-1.935-1.235-4.37-1.697-6.495-1.515 0 0-1.162.04-2.277.444-1.066.387-2.18 1.04-2.18 1.04l-.025.014c-3.092 1.964-5.754 5.922-4.365 10.043l.725 2.146 1.574-1.536-.535 4.612 3.043 9.014 3.28-3.198-.628 5.406-1.986-.23 1.993 5.9c.63 1.86 1.88 3.197 3.436 4.06l5.876 17.275 1.074-.556 2.03 3.928-2.104-.438 4.068 11.957a5.598 5.598 0 0 0 7.1 3.497h.004a5.598 5.598 0 0 0 3.496-7.103L58.024 65.6l27.67 6.952a5.595 5.595 0 0 0 6.793-4.064c.755-3-1.065-6.04-4.065-6.794zM52.7 3.815h28.116v1.05H52.7zM65.514 9.255h12.22v1.05h-12.22zM54.54 14.93h12.218v1.052h-12.22z"/>
</svg>