<?xml version="1.0" encoding="utf-8"?>
<!-- Generator: Adobe Illustrator 16.0.4, SVG Export Plug-In . SVG Version: 6.00 Build 0)  -->
<!DOCTYPE svg PUBLIC "-//W3C//DTD SVG 1.1//EN" "http://www.w3.org/Graphics/SVG/1.1/DTD/svg11.dtd">
<svg version="1.1" id="Layer_1" xmlns="http://www.w3.org/2000/svg" xmlns:xlink="http://www.w3.org/1999/xlink" x="0px" y="0px"
	 width="46.113px" height="46.114px" viewBox="0 0 46.113 46.114" enable-background="new 0 0 46.113 46.114" xml:space="preserve">
<path d="M38.284,17.077c-0.546-2.676-0.198-8.278-9.462-9.756c-7.802-1.245-14.931,1.906-15.739,9.065
	c-0.315,0.059-0.697,0.124-0.937,0.2c-1.81,0.564-2.545,1.076-2.045,1.785c0.499,0.708,2.335,0.76,2.335,0.76
	s-2.099,0.105-2.782-0.418c-0.024,0-0.051,0-0.075,0V18.15H7.941v0.563c-0.044,0-0.068,0-0.068,0s-0.144,0.249-0.144,0.459
	s-0.016,1.089-0.016,1.089s0.016,0.604,0.445,0.604c0.18,0,2.477,0.12,5.125,0.146c-0.229,1.873-3.65,4.619-2.786,5.569
	c0.893,0.98,2.408,1.021,2.408,1.021s-0.985,1.871-0.543,2.391c0.442,0.519,1.677,0.296,1.677,0.296s-1.146,0.824-1.146,1.464
	c0,0.642,1.934,1.491,1.934,1.491s-0.355,3.544,2.549,3.3c2.901-0.246,3.393-1.065,3.393-1.065l0.86,3.582h11.232l-0.395-7.785
	C32.47,31.269,39.367,23.779,38.284,17.077z M7.956,20.441c-0.058,0-0.104-0.243-0.104-0.542s0.047-0.541,0.104-0.541
	s0.104,0.242,0.104,0.541S8.013,20.441,7.956,20.441z M9.423,18.713c-0.563,0-1.055,0-1.323,0v-0.404h1.323V18.713z M21.819,20.994
	c-0.36,0-4.781-0.044-8.519-0.081c-0.001,0.012-0.005,0.025-0.006,0.038c-0.004-0.052-0.011-0.113-0.011-0.135
	c-0.178-0.869-0.271-1.709-0.305-2.521c-1.002-0.021-1.712-0.045-1.923-0.069c-1.081-0.124,0.198-0.672,0.629-0.889
	c0.196-0.101,0.567-0.26,1.339-0.406c-0.027,0.442-0.043,0.895-0.023,1.366c4.215,0.089,13.291,0.152,13.291,0.152
	s9.97,0.216,10.44,0.263c0.474,0.046,0.573,0.314,0.578,0.683c0.003,0.366-0.198,1.747-0.288,2.045
	c-0.094,0.299-0.094,0.577-0.525,0.577c-0.433,0-2.2,0-3.596,0c-2.751,0-3.988-2.794-5.535-2.794c-1.247,0-4.638-0.013-5.22-0.013
	C23.218,19.476,22.443,20.994,21.819,20.994z"/>
</svg>
