<?xml version="1.0" encoding="utf-8"?>
<!-- Generator: Adobe Illustrator 16.0.4, SVG Export Plug-In . SVG Version: 6.00 Build 0)  -->
<!DOCTYPE svg PUBLIC "-//W3C//DTD SVG 1.1//EN" "http://www.w3.org/Graphics/SVG/1.1/DTD/svg11.dtd">
<svg version="1.1" id="Layer_1" xmlns="http://www.w3.org/2000/svg" xmlns:xlink="http://www.w3.org/1999/xlink" x="0px" y="0px"
	 width="44.801px" height="44.801px" viewBox="0 0 44.801 44.801" enable-background="new 0 0 44.801 44.801" xml:space="preserve">
<g>
	<path d="M38.25,23.333c0.512-2.95,0.191-12.83-10.072-14.017c-10.262-1.187-12.091,6.768-12.091,6.768s-7.12-3.272-9.686,1.86
		c2.951-0.706,4.587,0.097,4.587,0.097s-4.298,4.233-2.405,9.333c1.059-6.733,6.831-9.687,6.831-9.687s0.589,5.228,0.353,5.966
		c-0.236,0.736,0.225,1.539-0.128,1.796s-5.003,7.856,3.688,10.007c-3.496-3.527-1.957-6.317-1.957-6.317s0.866,5.581,5.517,5.581
		c-2.479-2.629-2.721-6.92-2.599-9.532c0.365,0.101,0.72,0.16,0.804,0.174c0.249,0.067,1.226,0.303,3.028,0.303
		c0.145,0,0.291-0.001,0.444-0.004c0.454-0.029,0.609-0.229,0.609-0.418c0-0.158,0-1.515,0-1.943
		c0.213,0.002,0.437,0.002,0.666,0.004c0.308,0.255,0.929,0.921,0.929,2.125c0,1.003-0.466,1.623-0.812,1.945
		c0.027-0.104,0.016-0.203-0.047-0.274c-0.121-0.14-0.383-0.107-0.585,0.066c-0.2,0.177-0.268,0.434-0.146,0.57
		c0.109,0.125,0.33,0.112,0.521-0.02c0.244-0.151,1.182-0.84,1.182-2.291c0-1.129-0.527-1.806-0.871-2.123
		c0.453,0,0.938,0.002,1.455,0.002c0.609,0,1.174-0.002,1.693-0.006c-0.289,0.224-1.037,0.927-1.037,2.269
		c0,1.451,0.938,2.139,1.18,2.292c0.188,0.13,0.412,0.142,0.521,0.019c0.121-0.14,0.057-0.395-0.146-0.569
		c-0.202-0.176-0.463-0.207-0.584-0.067c-0.062,0.071-0.073,0.172-0.047,0.276c-0.347-0.324-0.812-0.945-0.812-1.948
		c0-1.589,1.084-2.27,1.084-2.27c3.908-0.027,5.347-0.164,5.871-0.474c0.023,0.636,0.031,1.32,0.014,2.05
		c-0.096,3.504-3.454,7.997-8.915,8.212c1.059,1.697,5.483-0.578,5.483-0.578s0.226,1.635-2.406,1.986
		c1.638,0.771,4.011-0.673,4.011-0.673s-0.347,1.63-1.494,1.703C40.937,36.617,37.746,26.228,38.25,23.333z M25.028,25.24
		c0,0.149-0.176,0.252-0.472,0.271c-0.146,0.005-0.296,0.007-0.438,0.007c-1.689,0-2.65-0.211-2.947-0.287v-2.04
		c0.826,0.055,1.977,0.088,3.628,0.104l0.229,0.01V25.24z M35.148,22.221c0,0.221,0,0.396-0.941,0.531
		c-1.025,0.148-3.043,0.212-6.742,0.212c-3.472,0-5.417-0.039-6.596-0.137l6.244-1.971l7.639-2.08c0,0,0.285,1.362,0.406,3.443
		L35.148,22.221L35.148,22.221z"/>
	<circle cx="23.738" cy="24.322" r="0.942"/>
	<circle cx="30.458" cy="24.422" r="0.943"/>
	<path d="M29.167,29.62c0.094-0.052,0.127-0.168,0.076-0.261c-0.053-0.093-0.169-0.126-0.262-0.076
		c-0.006,0.004-0.642,0.347-1.447,0.347c-0.814,0-1.587-0.35-1.595-0.353c-0.098-0.045-0.211-0.003-0.255,0.095
		c-0.045,0.098-0.002,0.211,0.094,0.256c0.035,0.017,0.854,0.388,1.756,0.388C28.445,30.015,29.137,29.636,29.167,29.62z"/>
</g>
</svg>
