<?xml version="1.0" encoding="utf-8"?>
<!-- Generator: Adobe Illustrator 16.0.4, SVG Export Plug-In . SVG Version: 6.00 Build 0)  -->
<!DOCTYPE svg PUBLIC "-//W3C//DTD SVG 1.1//EN" "http://www.w3.org/Graphics/SVG/1.1/DTD/svg11.dtd">
<svg version="1.1" id="Layer_1" xmlns="http://www.w3.org/2000/svg" xmlns:xlink="http://www.w3.org/1999/xlink" x="0px" y="0px"
	 width="44.801px" height="44.801px" viewBox="0 0 44.801 44.801" enable-background="new 0 0 44.801 44.801" xml:space="preserve">
<g>
	<path d="M38.25,23.334c0.512-2.951,0.191-12.829-10.072-14.016c-10.262-1.188-12.09,6.768-12.09,6.768S8.966,12.814,6.4,17.945
		c2.951-0.706,4.587,0.096,4.587,0.096s-4.298,4.233-2.405,9.333c1.058-6.734,6.831-9.686,6.831-9.686s0.589,5.227,0.353,5.964
		c-0.236,0.737,0.225,1.54-0.128,1.797c-0.354,0.258-5.004,7.856,3.688,10.007c-3.495-3.527-1.956-6.317-1.956-6.317
		s0.866,5.579,5.517,5.579c-2.129-2.256-2.605-5.736-2.622-8.331h6.384v-1.724h1.091v1.724h6.58V24.24
		c0.139-0.078,0.524-0.304,0.893-0.543c0.004,0.378,0.002,0.771-0.01,1.175c-0.098,3.505-3.455,7.998-8.914,8.211
		c1.057,1.699,5.482-0.578,5.482-0.578s0.225,1.638-2.406,1.988c1.637,0.771,4.01-0.673,4.01-0.673s-0.348,1.63-1.494,1.703
		C40.937,36.617,37.746,26.228,38.25,23.334z M20.088,24.431c-0.232,0-0.421-0.188-0.421-0.422c0-0.231,0.188-0.42,0.421-0.42
		s0.421,0.188,0.421,0.42C20.508,24.243,20.32,24.431,20.088,24.431z M26.295,26.035h-5.88v-0.439h4.572v-2.383h-4.522
		c0.024-0.168,0.041-0.27,0.041-0.27l0.544-0.171h5.247L26.295,26.035L26.295,26.035z M22.331,25.437v-2.064h2.499v2.064H22.331z
		 M33.967,26.035h-5.883v-3.263h5.883V26.035z M34.318,23.418v-0.994h-6.58v1.049h-1.091v-1.049H22.16l4.953-1.563l7.641-2.08
		c0,0,0.332,1.592,0.432,3.966C34.92,22.985,34.539,23.261,34.318,23.418z"/>
	<path d="M31.878,35.523"/>
	<circle cx="23.737" cy="24.421" r="0.943"/>
	<circle cx="30.46" cy="24.421" r="0.943"/>
	<path d="M28.799,29.204c0.094-0.052,0.127-0.169,0.074-0.262c-0.051-0.094-0.168-0.126-0.261-0.075
		c-0.007,0.004-0.636,0.348-1.446,0.348c-0.814,0-1.588-0.351-1.596-0.354c-0.097-0.045-0.21-0.001-0.255,0.096
		c-0.044,0.097-0.002,0.212,0.095,0.255c0.034,0.017,0.854,0.389,1.756,0.389C28.078,29.597,28.771,29.22,28.799,29.204z"/>
</g>
</svg>
