<?xml version="1.0" encoding="utf-8"?>
<!-- Generator: Adobe Illustrator 16.0.4, SVG Export Plug-In . SVG Version: 6.00 Build 0)  -->
<!DOCTYPE svg PUBLIC "-//W3C//DTD SVG 1.1//EN" "http://www.w3.org/Graphics/SVG/1.1/DTD/svg11.dtd">
<svg version="1.1" id="Layer_1" xmlns="http://www.w3.org/2000/svg" xmlns:xlink="http://www.w3.org/1999/xlink" x="0px" y="0px"
	 width="44.801px" height="44.801px" viewBox="0 0 44.801 44.801" enable-background="new 0 0 44.801 44.801" xml:space="preserve">
<g>
	<path d="M38.25,23.333c0.512-2.951,0.191-12.83-10.072-14.017c-10.264-1.186-12.091,6.768-12.091,6.768s-7.121-3.272-9.687,1.86
		c2.951-0.706,4.587,0.096,4.587,0.096s-4.298,4.234-2.406,9.333c1.059-6.734,6.832-9.687,6.832-9.687s0.589,5.228,0.353,5.966
		c-0.236,0.737,0.225,1.54-0.128,1.797c-0.354,0.257-5.004,7.856,3.688,10.007c-3.495-3.527-1.956-6.317-1.956-6.317
		s0.866,5.579,5.517,5.579c-2.633-2.789-2.742-7.457-2.573-9.995h2.573c0.153,0.319,0.475,0.545,0.852,0.545
		c0.378,0,0.701-0.226,0.854-0.545h1.599v-1.651h9.011c0.017,0.564,0.021,1.168,0.005,1.802c-0.099,3.506-3.455,7.999-8.916,8.212
		c1.059,1.699,5.483-0.576,5.483-0.576s0.226,1.635-2.406,1.986c1.638,0.771,4.011-0.673,4.011-0.673s-0.349,1.63-1.494,1.703
		C40.936,36.617,37.747,26.228,38.25,23.333z M25.802,24.337h-1.125c0-0.004,0.002-0.01,0.002-0.015
		c0-0.521-0.422-0.942-0.942-0.942c-0.52,0-0.942,0.422-0.942,0.942c0,0.005,0.001,0.011,0.001,0.015h-0.97v-1.268h3.978
		L25.802,24.337L25.802,24.337z M22.75,22.235l4.363-1.377l7.64-2.08c0,0,0.287,1.368,0.406,3.457H22.75z"/>
	<circle cx="30.459" cy="24.422" r="0.943"/>
	<path d="M28.8,29.203c0.093-0.051,0.127-0.168,0.074-0.261c-0.052-0.094-0.168-0.126-0.263-0.075
		c-0.006,0.003-0.635,0.347-1.444,0.347c-0.815,0-1.588-0.35-1.597-0.354c-0.096-0.044-0.21-0.001-0.255,0.095
		c-0.044,0.097-0.002,0.212,0.096,0.255c0.033,0.018,0.854,0.39,1.756,0.39C28.079,29.597,28.771,29.219,28.8,29.203z"/>
</g>
</svg>
