<?xml version="1.0" encoding="utf-8"?>
<!-- Generator: Adobe Illustrator 16.0.4, SVG Export Plug-In . SVG Version: 6.00 Build 0)  -->
<!DOCTYPE svg PUBLIC "-//W3C//DTD SVG 1.1//EN" "http://www.w3.org/Graphics/SVG/1.1/DTD/svg11.dtd">
<svg version="1.1" id="Layer_1" xmlns="http://www.w3.org/2000/svg" xmlns:xlink="http://www.w3.org/1999/xlink" x="0px" y="0px"
	 width="48.334px" height="48.335px" viewBox="0 0 48.334 48.335" enable-background="new 0 0 48.334 48.335" xml:space="preserve">
<g>
	<path d="M38.21,26.557c-0.188-0.201-0.479-0.302-0.895-0.302c-0.294,0-0.637,0.052-0.955,0.115
		c2.799-8.786-2.822-12.121-7.359-13.872c-1.601-0.617-3.422-0.831-5.186-1.037c-2.899-0.341-5.639-0.661-6.675-2.753l-0.266-0.541
		l-0.438,0.416c-6.64,6.32-4.803,15.346-4.061,18.025c-0.404-0.088-0.896-0.172-1.305-0.172c-0.446,0-0.756,0.102-0.947,0.311
		c-0.138,0.15-0.204,0.353-0.186,0.564c0.007,0.08,0.009,0.19,0.012,0.328c0.029,1.327,0.107,4.811,3.996,5.9
		c0.02,0.067,0.04,0.145,0.062,0.227c0.449,1.631,1.642,5.967,9.874,6.383c0.232,0.012,0.457,0.018,0.679,0.018
		c6.956,0,9.506-5.6,9.971-6.793c3.847-1.079,3.854-4.549,3.857-5.871c0-0.157-0.001-0.286,0.007-0.377
		C38.415,26.908,38.351,26.709,38.21,26.557z M37.499,27.502c-0.004,1.373-0.01,4.231-3.412,5.067l-0.241,0.062l-0.077,0.233
		c-0.089,0.271-2.329,6.774-9.84,6.394c-7.591-0.383-8.621-4.129-9.061-5.729c-0.058-0.21-0.106-0.384-0.156-0.515l-0.082-0.221
		L14.4,32.74c-3.465-0.85-3.531-3.844-3.56-5.121c-0.002-0.104-0.005-0.196-0.009-0.272c0.049-0.011,0.126-0.02,0.239-0.02
		c0.711,0,1.822,0.332,1.834,0.335l0.852,0.256l-0.306-0.835c-0.003-0.008-0.03-0.086-0.071-0.215
		c0.04,0.053,0.072,0.11,0.116,0.159c0.188,0.207,0.416,0.371,0.686,0.492c0.271,0.121,0.578,0.181,0.923,0.181
		c0.217,0,0.431-0.046,0.643-0.138s0.405-0.248,0.58-0.475l0.1,0.506h0.623v-2.406h-1.87v0.729h0.985
		c-0.029,0.312-0.134,0.55-0.313,0.713c-0.179,0.165-0.428,0.246-0.748,0.246c-0.22,0-0.407-0.042-0.561-0.127
		c-0.154-0.085-0.278-0.198-0.374-0.34c-0.096-0.142-0.166-0.3-0.209-0.478c-0.044-0.174-0.065-0.354-0.065-0.541
		c0-0.195,0.021-0.387,0.065-0.568c0.043-0.182,0.113-0.345,0.209-0.488c0.096-0.143,0.22-0.258,0.374-0.343
		c0.153-0.085,0.341-0.128,0.561-0.128c0.233,0,0.434,0.062,0.602,0.188c0.169,0.123,0.281,0.312,0.34,0.562h0.936
		c-0.025-0.254-0.095-0.479-0.209-0.673c-0.114-0.195-0.257-0.36-0.427-0.493c-0.171-0.133-0.363-0.233-0.577-0.302
		c-0.214-0.069-0.436-0.104-0.664-0.104c-0.345,0-0.652,0.062-0.923,0.182c-0.27,0.121-0.498,0.286-0.686,0.499
		c-0.187,0.213-0.33,0.463-0.43,0.748c-0.075,0.214-0.112,0.445-0.131,0.683c-0.708-3.332-1.369-10.308,3.713-15.524
		c1.385,2.055,4.15,2.377,7.064,2.721c1.708,0.199,3.475,0.405,4.968,0.981c4.687,1.811,9.668,4.979,6.578,13.52l-0.273,0.758v-2.34
		h-1.868v0.729H34.1c-0.029,0.312-0.133,0.55-0.312,0.714c-0.181,0.164-0.43,0.246-0.748,0.246c-0.223,0-0.408-0.043-0.562-0.128
		c-0.151-0.085-0.276-0.198-0.374-0.341c-0.097-0.141-0.165-0.299-0.208-0.477c-0.044-0.178-0.063-0.357-0.063-0.547
		c0-0.193,0.021-0.384,0.063-0.566c0.043-0.184,0.111-0.346,0.208-0.488c0.098-0.142,0.223-0.257,0.374-0.342
		c0.154-0.086,0.341-0.128,0.562-0.128c0.23,0,0.434,0.062,0.602,0.187s0.281,0.312,0.34,0.562h0.936
		c-0.023-0.252-0.096-0.479-0.209-0.672c-0.112-0.195-0.255-0.359-0.425-0.492c-0.173-0.135-0.363-0.233-0.578-0.304
		c-0.213-0.067-0.437-0.104-0.664-0.104c-0.346,0-0.651,0.062-0.922,0.181c-0.271,0.12-0.498,0.287-0.688,0.499
		c-0.187,0.212-0.33,0.461-0.431,0.748c-0.102,0.286-0.149,0.595-0.149,0.922c0,0.32,0.05,0.622,0.149,0.904
		c0.101,0.283,0.244,0.527,0.431,0.734c0.188,0.209,0.416,0.373,0.688,0.494c0.271,0.118,0.576,0.18,0.922,0.18
		c0.217,0,0.432-0.045,0.643-0.137c0.213-0.093,0.404-0.25,0.58-0.476l0.101,0.505h0.623v-0.01l0.816-0.234
		c0.615-0.179,1.169-0.279,1.516-0.279c0.084,0,0.145,0.006,0.186,0.013C37.499,27.253,37.499,27.37,37.499,27.502z"/>
	<circle cx="20.879" cy="25.729" r="1.266"/>
	<circle cx="27.177" cy="25.729" r="1.266"/>
	<path d="M27.154,33.377c-0.013,0.01-1.302,0.833-2.892,0.833c-1.604,0-3.085-0.835-3.1-0.843c-0.17-0.099-0.389-0.039-0.486,0.132
		c-0.097,0.171-0.039,0.39,0.132,0.486c0.066,0.037,1.656,0.938,3.454,0.938c1.808,0,3.222-0.909,3.281-0.946
		c0.164-0.107,0.211-0.328,0.104-0.494C27.54,33.319,27.319,33.272,27.154,33.377z"/>
	<path d="M22.08,28.457c0.388-0.173,0.716-0.408,0.984-0.707c0.268-0.298,0.474-0.647,0.616-1.055
		c0.144-0.406,0.215-0.838,0.215-1.299c0-0.471-0.071-0.911-0.215-1.322c-0.143-0.411-0.349-0.771-0.616-1.073
		c-0.269-0.305-0.597-0.543-0.984-0.716s-0.829-0.26-1.324-0.26c-0.495,0-0.936,0.087-1.323,0.26
		c-0.387,0.173-0.716,0.411-0.984,0.716c-0.268,0.306-0.475,0.662-0.617,1.073s-0.216,0.854-0.216,1.323
		c0,0.461,0.072,0.893,0.215,1.299c0.143,0.404,0.35,0.757,0.617,1.055c0.269,0.3,0.597,0.534,0.984,0.707
		c0.387,0.173,0.828,0.261,1.323,0.261C21.25,28.717,21.691,28.629,22.08,28.457z M19.414,26.866
		c-0.137-0.203-0.236-0.432-0.3-0.686c-0.063-0.254-0.094-0.516-0.094-0.783c0-0.278,0.031-0.551,0.094-0.812
		c0.063-0.263,0.163-0.496,0.3-0.702c0.138-0.204,0.316-0.367,0.537-0.49c0.221-0.122,0.489-0.185,0.805-0.185
		c0.316,0,0.584,0.062,0.806,0.185c0.22,0.123,0.399,0.286,0.536,0.49c0.137,0.206,0.237,0.439,0.3,0.702
		c0.063,0.265,0.094,0.534,0.094,0.812c0,0.27-0.031,0.529-0.094,0.783s-0.163,0.48-0.3,0.686c-0.137,0.201-0.316,0.365-0.536,0.486
		c-0.222,0.123-0.489,0.184-0.806,0.184c-0.315,0-0.584-0.061-0.805-0.184C19.729,27.231,19.551,27.067,19.414,26.866z"/>
	<path d="M29.484,23.153c-0.269-0.304-0.597-0.542-0.982-0.715c-0.39-0.174-0.828-0.261-1.323-0.261s-0.937,0.087-1.324,0.261
		c-0.388,0.173-0.715,0.411-0.982,0.715c-0.27,0.305-0.476,0.662-0.618,1.073c-0.144,0.411-0.215,0.854-0.215,1.322
		c0,0.459,0.071,0.894,0.215,1.298c0.143,0.405,0.349,0.758,0.618,1.057c0.269,0.298,0.597,0.533,0.982,0.705
		c0.389,0.175,0.829,0.261,1.324,0.261s0.938-0.086,1.323-0.261c0.388-0.172,0.716-0.407,0.982-0.705
		c0.27-0.299,0.475-0.649,0.617-1.057c0.145-0.404,0.215-0.839,0.215-1.298c0-0.471-0.07-0.911-0.215-1.322
		C29.958,23.815,29.753,23.457,29.484,23.153z M28.817,26.332c-0.062,0.254-0.161,0.482-0.299,0.687
		c-0.139,0.202-0.315,0.363-0.537,0.485c-0.221,0.123-0.487,0.185-0.805,0.185s-0.585-0.062-0.807-0.185
		c-0.222-0.122-0.397-0.283-0.535-0.485c-0.14-0.203-0.237-0.433-0.301-0.687c-0.062-0.253-0.095-0.514-0.095-0.781
		c0-0.28,0.031-0.553,0.095-0.813c0.062-0.262,0.161-0.496,0.301-0.701c0.138-0.206,0.313-0.37,0.535-0.493
		c0.222-0.122,0.488-0.183,0.807-0.183c0.314,0,0.584,0.061,0.805,0.183c0.222,0.123,0.398,0.287,0.537,0.493
		c0.138,0.205,0.236,0.439,0.299,0.701C28.88,25,28.914,25.27,28.914,25.55C28.914,25.819,28.88,26.08,28.817,26.332z"/>
	<polygon points="23.505,29.864 22.938,29.864 22.941,32.444 24.767,32.442 24.766,31.965 23.507,31.968 	"/>
	<polygon points="25.708,29.137 23.788,29.143 23.794,31.709 25.746,31.704 25.744,31.229 24.359,31.233 24.356,30.606 25.601,30.6 
		25.6,30.162 24.355,30.165 24.354,29.614 25.708,29.61 	"/>
</g>
</svg>
