<?xml version="1.0" encoding="utf-8"?>
<!-- Generator: Adobe Illustrator 16.0.4, SVG Export Plug-In . SVG Version: 6.00 Build 0)  -->
<!DOCTYPE svg PUBLIC "-//W3C//DTD SVG 1.1//EN" "http://www.w3.org/Graphics/SVG/1.1/DTD/svg11.dtd">
<svg version="1.1" id="Layer_1" xmlns="http://www.w3.org/2000/svg" xmlns:xlink="http://www.w3.org/1999/xlink" x="0px" y="0px"
	 width="44.801px" height="44.801px" viewBox="0 0 44.801 44.801" enable-background="new 0 0 44.801 44.801" xml:space="preserve">
<g>
	<path d="M30.701,25.036c-0.027-0.013-0.053-0.011-0.078,0.01c-0.033,0.022-0.057,0.055-0.064,0.094
		c-0.012,0.037-0.012,0.082-0.003,0.132l0.199-0.153C30.744,25.08,30.723,25.051,30.701,25.036z"/>
	<path d="M29.711,26.074c-0.009-0.021-0.017-0.045-0.024-0.069c-0.011-0.023-0.021-0.045-0.037-0.062
		c-0.01-0.015-0.023-0.023-0.041-0.03c-0.019-0.003-0.037,0.005-0.059,0.021s-0.037,0.035-0.043,0.062
		c-0.014,0.024-0.018,0.051-0.018,0.076c0,0.024,0.002,0.054,0.008,0.081c0.008,0.027,0.011,0.052,0.018,0.076
		c0.008,0.023,0.018,0.05,0.024,0.072c0.013,0.023,0.022,0.045,0.034,0.062c0.014,0.018,0.033,0.026,0.047,0.03
		c0.018,0.007,0.035,0,0.058-0.018c0.021-0.019,0.037-0.037,0.045-0.062c0.011-0.025,0.015-0.051,0.017-0.077
		c0-0.025-0.004-0.054-0.01-0.082C29.724,26.125,29.72,26.098,29.711,26.074z"/>
	<path d="M29.058,26.641c-0.013-0.047-0.033-0.082-0.059-0.104c-0.026-0.021-0.054-0.02-0.085,0.007
		c-0.018,0.012-0.03,0.024-0.037,0.045c-0.008,0.018-0.016,0.039-0.021,0.06c-0.002,0.021-0.002,0.044,0.002,0.067
		c0,0.022,0.008,0.047,0.014,0.069c0.008,0.025,0.017,0.05,0.025,0.07c0.01,0.023,0.022,0.042,0.035,0.059
		c0.014,0.017,0.025,0.024,0.043,0.027c0.016,0.003,0.034-0.002,0.055-0.018c0.02-0.018,0.035-0.035,0.043-0.059
		c0.008-0.021,0.014-0.046,0.011-0.07c0.001-0.023-0.001-0.052-0.007-0.076C29.071,26.691,29.064,26.665,29.058,26.641z"/>
	<path d="M32.617,23.928c-0.01,0.019-0.02,0.035-0.03,0.049c-0.011,0.017-0.021,0.035-0.033,0.05
		c-0.021,0.024-0.034,0.048-0.041,0.069c-0.009,0.02-0.007,0.043,0.001,0.07c0.006,0.02,0.016,0.032,0.032,0.041
		c0.017,0.008,0.035,0.004,0.049-0.012c0.024-0.019,0.04-0.042,0.052-0.077c0.008-0.03,0.006-0.069-0.007-0.114L32.617,23.928z"/>
	<path d="M28.353,27.192c-0.007-0.022-0.016-0.049-0.025-0.072c-0.008-0.022-0.018-0.043-0.029-0.061
		c-0.016-0.016-0.026-0.025-0.045-0.029c-0.02-0.002-0.037,0.002-0.059,0.019c-0.021,0.016-0.035,0.035-0.045,0.06
		c-0.006,0.022-0.012,0.048-0.014,0.073c0,0.027,0.002,0.054,0.008,0.082c0.006,0.026,0.012,0.051,0.021,0.076
		c0.007,0.021,0.014,0.047,0.022,0.069c0.009,0.023,0.021,0.044,0.034,0.062c0.013,0.015,0.026,0.025,0.043,0.029
		s0.038-0.002,0.06-0.019c0.021-0.016,0.035-0.034,0.043-0.059c0.009-0.025,0.013-0.051,0.013-0.076
		c0.003-0.027,0-0.055-0.007-0.082C28.366,27.24,28.36,27.215,28.353,27.192z"/>
	<path d="M34.324,22.281c-0.021-0.016-0.047-0.013-0.07,0.004c-0.027,0.021-0.045,0.05-0.055,0.085
		c-0.008,0.035-0.008,0.075-0.002,0.123l0.179-0.134C34.363,22.322,34.347,22.296,34.324,22.281z"/>
	<path d="M31.685,24.504c-0.013-0.047-0.031-0.08-0.056-0.102c-0.024-0.021-0.052-0.019-0.081,0.002
		c-0.016,0.012-0.023,0.024-0.035,0.043c-0.004,0.018-0.013,0.036-0.013,0.059c-0.007,0.021-0.004,0.043-0.002,0.063
		c0.002,0.021,0.006,0.046,0.012,0.066c0.009,0.022,0.017,0.047,0.027,0.07c0.011,0.021,0.022,0.04,0.032,0.055
		c0.013,0.016,0.025,0.022,0.043,0.027c0.015,0.004,0.033-0.003,0.049-0.018c0.02-0.013,0.033-0.032,0.039-0.054
		c0.007-0.021,0.012-0.043,0.012-0.067c-0.002-0.023-0.004-0.05-0.012-0.076C31.697,24.551,31.693,24.527,31.685,24.504z"/>
	<path d="M36.043,20.468c-0.97-0.1-8.016,4.443-8.016,4.443s-1.549,0.098-1.853,0.305c-0.309,0.203-7.486-1-8.56-1.187
		c-1.313-0.227-2.203,0.544-2.646,0.416c-0.527-0.151-0.324-0.255-1.051-1.326c-0.73-1.07-3.646-2.08-3.646-2.08
		s8.704-7.445,10.235-8.445c1.531-1,3.417,2.557,4.339,2.526c0.923-0.031,1.216-0.428,1.173-1.312
		c-0.014-1.51-4.041-2.916-5.526-2.523c-1.484,0.393-14.053,8.281-14.091,8.934C6.36,20.87,6.99,25.114,6.99,25.114
		s0.754,3.846,4.091,5.151c3.333,1.309,3.191-3.559,3.917-3.484c0.72,0.074,1.34,2.982,2.018,4.297
		c0.68,1.312,3.312,2.652,5.893,2.494c2.578-0.162,3.496-2.078,3.466-2.594c0.713-0.828,9.027-8.678,9.814-8.805
		c0.793-0.128,0.424,1.029,1.188,1.142c0.762,0.112,1.044-0.857,1.023-1.34C38.381,21.493,37.011,20.568,36.043,20.468z
		 M12.475,29.42c-1.31,0.043-2.98-1.168-3.531-2.367c-0.551-1.203-1.241-5.623-1.241-5.623s4.621,1.681,5.47,3.128
		C14.018,26.008,13.789,29.379,12.475,29.42z M24.091,32.115c-1.107,0.744-4.461,0.037-5.825-1.42
		c-0.822-1.055-2.228-4.453-1.603-5.313c0.623-0.86,8.631,1.68,8.631,1.68S25.202,31.369,24.091,32.115z M27.789,28.1l-0.048-0.119
		c-0.014,0.076-0.034,0.146-0.069,0.201c-0.034,0.056-0.075,0.103-0.121,0.138c-0.062,0.049-0.124,0.075-0.183,0.08
		c-0.061,0.005-0.114-0.007-0.168-0.038c-0.051-0.028-0.098-0.078-0.141-0.143c-0.039-0.062-0.076-0.14-0.102-0.229
		c-0.034-0.118-0.052-0.229-0.054-0.334c0.006-0.104,0.018-0.197,0.043-0.281c0.023-0.084,0.059-0.156,0.103-0.218
		c0.041-0.063,0.084-0.11,0.133-0.147c0.105-0.08,0.205-0.104,0.297-0.072c0.088,0.031,0.162,0.111,0.223,0.244l-0.244,0.188
		c-0.018-0.042-0.042-0.066-0.072-0.078c-0.032-0.013-0.063-0.006-0.096,0.018c-0.029,0.023-0.051,0.05-0.065,0.078
		c-0.018,0.029-0.029,0.06-0.035,0.09c-0.008,0.033-0.009,0.064-0.008,0.097c-0.001,0.033,0.004,0.063,0.01,0.094
		c0.006,0.027,0.01,0.055,0.019,0.077c0.008,0.023,0.013,0.044,0.018,0.06c0.008,0.027,0.021,0.061,0.035,0.093
		c0.018,0.034,0.037,0.062,0.059,0.084c0.024,0.021,0.053,0.034,0.082,0.038c0.033,0.003,0.067-0.01,0.107-0.043
		c0.014-0.01,0.028-0.024,0.039-0.041c0.014-0.018,0.024-0.035,0.035-0.057c0.008-0.021,0.012-0.043,0.021-0.066
		c0.002-0.023,0-0.049-0.004-0.073l-0.113,0.086l-0.075-0.265l0.34-0.26l0.198,0.676L27.789,28.1z M28.583,27.34
		c-0.018,0.062-0.039,0.121-0.071,0.18c-0.033,0.056-0.076,0.107-0.135,0.15c-0.056,0.043-0.107,0.066-0.155,0.072
		c-0.048,0.008-0.092-0.003-0.129-0.023c-0.04-0.023-0.073-0.059-0.106-0.104c-0.027-0.046-0.053-0.101-0.066-0.163
		c-0.021-0.062-0.03-0.127-0.034-0.19c-0.004-0.067,0.003-0.133,0.018-0.194c0.015-0.062,0.035-0.123,0.069-0.181
		c0.034-0.059,0.078-0.106,0.136-0.148c0.057-0.042,0.108-0.065,0.155-0.069c0.05-0.008,0.093,0.002,0.132,0.024
		c0.037,0.021,0.07,0.06,0.1,0.104c0.03,0.045,0.054,0.098,0.072,0.16c0.019,0.061,0.028,0.127,0.03,0.19
		C28.597,27.211,28.593,27.277,28.583,27.34z M29.286,26.792c-0.014,0.062-0.035,0.122-0.067,0.178
		c-0.031,0.057-0.072,0.104-0.128,0.146c-0.059,0.042-0.106,0.068-0.153,0.072c-0.049,0.006-0.093-0.004-0.131-0.025
		c-0.035-0.022-0.068-0.056-0.101-0.102c-0.026-0.047-0.055-0.102-0.069-0.162c-0.021-0.062-0.027-0.125-0.031-0.188
		c-0.007-0.068,0.004-0.132,0.014-0.191c0.016-0.063,0.039-0.123,0.068-0.178c0.033-0.057,0.08-0.105,0.133-0.146
		c0.057-0.042,0.104-0.062,0.151-0.068c0.05-0.006,0.091,0.004,0.13,0.024c0.036,0.023,0.07,0.06,0.1,0.103
		c0.027,0.047,0.053,0.1,0.068,0.161c0.021,0.062,0.027,0.121,0.033,0.188C29.302,26.668,29.299,26.731,29.286,26.792z
		 M30.07,26.526c-0.01,0.039-0.018,0.077-0.032,0.114c-0.017,0.039-0.037,0.076-0.065,0.113c-0.027,0.033-0.062,0.069-0.109,0.106
		c-0.03,0.023-0.064,0.047-0.102,0.062c-0.035,0.02-0.07,0.027-0.105,0.027c-0.03,0-0.062-0.012-0.096-0.031
		c-0.029-0.022-0.056-0.062-0.078-0.119l0.217-0.166c0.002,0.002,0.004,0.006,0.011,0.01c0.003,0.003,0.008,0.007,0.011,0.011
		c0.012,0.01,0.023,0.02,0.039,0.024c0.016,0.004,0.025,0,0.043-0.01c0.02-0.016,0.028-0.031,0.038-0.056
		c0.007-0.021,0.013-0.046,0.011-0.071c0.002-0.025-0.003-0.052-0.009-0.074c-0.004-0.024-0.008-0.045-0.015-0.063l-0.023-0.08
		h-0.001c-0.005,0.055-0.021,0.102-0.038,0.141c-0.021,0.043-0.046,0.074-0.076,0.1c-0.043,0.031-0.082,0.047-0.121,0.051
		c-0.035,0.002-0.069-0.01-0.102-0.032c-0.031-0.023-0.062-0.057-0.084-0.102c-0.025-0.044-0.047-0.095-0.062-0.154
		c-0.018-0.057-0.027-0.113-0.031-0.173c-0.007-0.059,0-0.112,0.008-0.167c0.012-0.054,0.027-0.103,0.053-0.146
		c0.021-0.047,0.059-0.084,0.098-0.117c0.031-0.023,0.063-0.035,0.099-0.037c0.032,0,0.062,0.019,0.087,0.052h0.003l-0.026-0.104
		l0.215-0.166l0.219,0.756c0.011,0.027,0.018,0.059,0.023,0.092c0.008,0.035,0.014,0.068,0.012,0.105
		C30.074,26.452,30.072,26.488,30.07,26.526z M30.18,26.242l-0.347-1.188l0.213-0.16l0.344,1.184L30.18,26.242z M30.999,25.452
		c-0.011,0.049-0.022,0.094-0.042,0.133c-0.021,0.043-0.038,0.082-0.064,0.112c-0.027,0.034-0.057,0.062-0.088,0.086
		c-0.045,0.034-0.087,0.058-0.129,0.064c-0.045,0.011-0.085,0.007-0.124-0.01c-0.038-0.019-0.073-0.047-0.106-0.091
		c-0.029-0.045-0.058-0.103-0.08-0.174c-0.018-0.062-0.027-0.126-0.026-0.188c-0.004-0.066,0.004-0.129,0.019-0.191
		c0.012-0.061,0.031-0.116,0.062-0.167c0.027-0.05,0.062-0.093,0.107-0.126c0.055-0.041,0.104-0.063,0.149-0.069
		c0.044-0.009,0.088,0.002,0.125,0.026c0.037,0.023,0.072,0.064,0.104,0.119c0.029,0.056,0.057,0.125,0.08,0.209l-0.398,0.308
		c0.02,0.047,0.039,0.079,0.064,0.1c0.027,0.016,0.061,0.01,0.094-0.016c0.015-0.014,0.029-0.031,0.045-0.054
		c0.013-0.022,0.02-0.049,0.023-0.075l0.192-0.148C31.009,25.352,31.004,25.403,30.999,25.452z M32.06,24.975
		c-0.005,0.035-0.017,0.072-0.027,0.107c-0.016,0.035-0.031,0.07-0.061,0.104c-0.027,0.037-0.062,0.07-0.101,0.105
		c-0.032,0.022-0.063,0.043-0.099,0.059c-0.031,0.018-0.065,0.025-0.098,0.023c-0.031,0-0.062-0.013-0.089-0.033
		c-0.028-0.022-0.06-0.062-0.075-0.113l0.2-0.156c0.002,0.003,0.005,0.007,0.009,0.011c0.006,0.004,0.008,0.006,0.01,0.01
		c0.014,0.01,0.024,0.019,0.039,0.021c0.014,0.005,0.026,0.003,0.039-0.007c0.016-0.014,0.024-0.029,0.035-0.053
		c0.003-0.021,0.008-0.043,0.008-0.068c0.004-0.022,0-0.049-0.006-0.071c-0.005-0.023-0.011-0.044-0.016-0.062l-0.024-0.078h-0.001
		c-0.003,0.051-0.014,0.096-0.031,0.134c-0.021,0.04-0.045,0.069-0.074,0.096c-0.037,0.027-0.074,0.043-0.11,0.045
		c-0.033,0-0.065-0.013-0.095-0.033c-0.031-0.023-0.059-0.057-0.081-0.101c-0.024-0.042-0.046-0.093-0.063-0.147
		c-0.016-0.057-0.023-0.111-0.029-0.17c-0.004-0.055-0.002-0.107,0.006-0.16c0.013-0.051,0.023-0.098,0.049-0.141
		c0.021-0.043,0.057-0.08,0.09-0.107c0.033-0.023,0.062-0.036,0.098-0.035c0.029-0.001,0.057,0.017,0.08,0.052l0.002-0.001
		l-0.029-0.104l0.201-0.152l0.213,0.728c0.01,0.03,0.018,0.06,0.021,0.09c0.011,0.033,0.015,0.065,0.017,0.104
		C32.066,24.901,32.064,24.936,32.06,24.975z M32.166,24.703l-0.335-1.147l0.198-0.148l0.334,1.144L32.166,24.703z M32.797,24.211
		c-0.003-0.013-0.013-0.021-0.019-0.037c-0.004-0.014-0.008-0.023-0.01-0.037v0.002c-0.015,0.055-0.029,0.1-0.056,0.135
		c-0.022,0.035-0.052,0.064-0.084,0.091c-0.022,0.021-0.052,0.033-0.075,0.041c-0.021,0.006-0.046,0.008-0.07-0.002
		c-0.021-0.008-0.041-0.021-0.061-0.048c-0.021-0.022-0.037-0.059-0.049-0.102c-0.014-0.043-0.02-0.084-0.018-0.121
		c0-0.035,0.004-0.07,0.019-0.104c0.009-0.028,0.022-0.061,0.04-0.087c0.02-0.023,0.035-0.052,0.056-0.074
		c0.021-0.023,0.04-0.042,0.062-0.062c0.021-0.021,0.033-0.039,0.053-0.058c0.011-0.015,0.021-0.03,0.027-0.048
		c0.009-0.019,0.01-0.04,0-0.064c-0.008-0.028-0.019-0.043-0.035-0.045c-0.018-0.002-0.034,0.004-0.051,0.018
		c-0.016,0.011-0.026,0.023-0.033,0.035c-0.008,0.013-0.016,0.025-0.018,0.039c-0.002,0.011-0.004,0.023-0.002,0.035
		c0.002,0.013,0.002,0.021,0.002,0.029l-0.183,0.141c-0.015-0.061-0.019-0.113-0.015-0.162c0.009-0.049,0.021-0.09,0.039-0.129
		c0.021-0.037,0.047-0.071,0.074-0.104c0.027-0.029,0.059-0.055,0.09-0.076c0.062-0.049,0.109-0.074,0.147-0.08
		c0.037-0.009,0.067,0,0.092,0.02c0.024,0.021,0.043,0.048,0.058,0.084c0.014,0.037,0.026,0.074,0.039,0.113l0.097,0.338
		c0.011,0.029,0.021,0.061,0.034,0.093c0.012,0.03,0.024,0.056,0.043,0.073L32.797,24.211z M33.46,23.65
		c-0.018,0.041-0.041,0.077-0.068,0.108c-0.027,0.033-0.057,0.062-0.088,0.084c-0.029,0.021-0.062,0.041-0.093,0.056
		c-0.032,0.011-0.065,0.016-0.095,0.011c-0.03-0.004-0.057-0.02-0.086-0.045c-0.022-0.022-0.047-0.062-0.062-0.115l0.184-0.143
		c0.012,0.027,0.022,0.046,0.045,0.056c0.018,0.008,0.035,0.002,0.06-0.016c0.006-0.007,0.015-0.011,0.021-0.021
		c0.008-0.008,0.015-0.017,0.019-0.025c0.005-0.01,0.008-0.021,0.01-0.032c0.005-0.011,0.003-0.021,0-0.035
		c-0.006-0.011-0.007-0.021-0.013-0.025s-0.012-0.008-0.021-0.009c-0.01-0.002-0.021,0.001-0.037,0.007
		c-0.018,0.006-0.035,0.014-0.06,0.023c-0.079,0.036-0.142,0.046-0.187,0.03c-0.045-0.018-0.076-0.059-0.094-0.131
		c-0.019-0.051-0.021-0.101-0.018-0.146c0.006-0.045,0.018-0.088,0.033-0.124c0.02-0.036,0.041-0.07,0.066-0.099
		c0.024-0.03,0.049-0.055,0.076-0.074c0.023-0.02,0.057-0.037,0.084-0.053c0.031-0.014,0.061-0.021,0.09-0.021
		c0.03,0.004,0.057,0.014,0.082,0.035c0.024,0.022,0.043,0.061,0.062,0.108l-0.176,0.134c-0.004-0.015-0.01-0.021-0.018-0.031
		c-0.008-0.007-0.014-0.011-0.021-0.013c-0.018-0.01-0.032-0.006-0.049,0.009c-0.017,0.012-0.025,0.024-0.035,0.041
		c-0.008,0.018-0.014,0.04-0.006,0.067c0.004,0.01,0.01,0.018,0.018,0.02c0.006,0.002,0.012,0.003,0.02,0.005
		c0.008-0.002,0.021-0.004,0.034-0.01c0.013-0.005,0.029-0.011,0.044-0.019c0.018-0.008,0.035-0.017,0.053-0.021
		c0.02-0.007,0.035-0.012,0.058-0.016c0.021-0.004,0.036-0.004,0.054-0.004c0.021,0,0.035,0.006,0.051,0.017
		c0.019,0.01,0.03,0.026,0.047,0.044c0.015,0.021,0.022,0.044,0.035,0.079c0.018,0.059,0.021,0.11,0.018,0.157
		C33.488,23.566,33.478,23.609,33.46,23.65z M34.004,23.227c-0.019,0.041-0.04,0.076-0.067,0.107
		c-0.024,0.031-0.057,0.061-0.084,0.082c-0.027,0.022-0.059,0.043-0.092,0.053c-0.029,0.013-0.062,0.018-0.092,0.013
		c-0.031-0.005-0.061-0.021-0.085-0.046s-0.045-0.062-0.062-0.114l0.18-0.138c0.008,0.025,0.023,0.043,0.044,0.054
		c0.015,0.009,0.034,0.002,0.058-0.017c0.008-0.004,0.012-0.01,0.02-0.019c0.009-0.007,0.012-0.016,0.018-0.024
		c0.008-0.008,0.012-0.021,0.014-0.031c0-0.014,0.002-0.022-0.004-0.035c-0.003-0.012-0.008-0.021-0.011-0.026
		c-0.008-0.006-0.017-0.009-0.022-0.01c-0.012-0.002-0.021,0-0.035,0.008c-0.018,0.004-0.035,0.012-0.062,0.022
		c-0.073,0.035-0.137,0.044-0.18,0.027c-0.043-0.016-0.075-0.06-0.097-0.129c-0.016-0.052-0.02-0.099-0.016-0.145
		c0.006-0.044,0.016-0.087,0.034-0.123s0.038-0.068,0.063-0.098c0.024-0.03,0.049-0.052,0.074-0.071
		c0.028-0.02,0.055-0.038,0.086-0.051c0.028-0.014,0.06-0.019,0.086-0.018s0.058,0.013,0.08,0.034
		c0.023,0.021,0.045,0.058,0.062,0.109l-0.169,0.128c-0.004-0.013-0.014-0.021-0.02-0.03c-0.007-0.007-0.015-0.01-0.023-0.014
		c-0.018-0.007-0.029-0.003-0.047,0.008c-0.014,0.01-0.024,0.024-0.032,0.042c-0.015,0.019-0.017,0.039-0.007,0.063
		c0.004,0.013,0.011,0.019,0.015,0.022c0.008,0.002,0.017,0.003,0.021,0.003c0.011,0,0.021-0.002,0.035-0.009
		c0.014-0.004,0.029-0.011,0.045-0.018c0.017-0.008,0.032-0.017,0.051-0.021c0.017-0.006,0.037-0.012,0.053-0.014
		c0.02-0.005,0.039-0.007,0.055-0.005c0.018,0,0.034,0.006,0.051,0.017c0.017,0.01,0.029,0.025,0.043,0.044
		c0.016,0.021,0.026,0.046,0.035,0.079c0.02,0.055,0.022,0.107,0.021,0.156C34.033,23.145,34.021,23.189,34.004,23.227z
		 M34.592,22.672c-0.006,0.044-0.019,0.086-0.034,0.124c-0.015,0.037-0.035,0.07-0.059,0.1c-0.021,0.03-0.047,0.056-0.074,0.077
		c-0.036,0.031-0.078,0.049-0.115,0.056c-0.039,0.008-0.076,0.001-0.111-0.015c-0.03-0.017-0.062-0.047-0.092-0.088
		c-0.029-0.042-0.056-0.096-0.074-0.165c-0.019-0.058-0.027-0.118-0.029-0.177c-0.002-0.061,0.003-0.12,0.011-0.177
		c0.017-0.055,0.031-0.105,0.058-0.151c0.022-0.044,0.056-0.083,0.097-0.112c0.048-0.035,0.092-0.058,0.132-0.061
		c0.041-0.006,0.078,0.004,0.113,0.028s0.064,0.063,0.094,0.115c0.025,0.053,0.053,0.118,0.074,0.196l-0.352,0.269
		c0.016,0.045,0.037,0.076,0.062,0.092c0.021,0.019,0.051,0.016,0.077-0.007c0.019-0.013,0.029-0.027,0.041-0.048
		s0.021-0.043,0.021-0.069l0.173-0.13C34.601,22.578,34.601,22.627,34.592,22.672z M35.113,22.367
		c-0.018,0.039-0.037,0.074-0.063,0.104c-0.024,0.03-0.054,0.058-0.082,0.08c-0.024,0.021-0.056,0.038-0.086,0.05
		c-0.032,0.013-0.062,0.016-0.091,0.01c-0.028-0.005-0.057-0.02-0.08-0.045c-0.025-0.024-0.045-0.062-0.061-0.112l0.172-0.134
		c0.011,0.026,0.021,0.045,0.043,0.054c0.016,0.007,0.033,0.004,0.055-0.014c0.007-0.005,0.012-0.011,0.02-0.018
		c0.006-0.008,0.012-0.017,0.019-0.025c0.004-0.009,0.007-0.02,0.01-0.032c0.003-0.011,0.002-0.022-0.002-0.032
		c-0.004-0.013-0.008-0.021-0.013-0.025c-0.006-0.007-0.012-0.009-0.02-0.011c-0.011-0.001-0.021,0.002-0.035,0.006
		c-0.018,0.004-0.031,0.013-0.055,0.021c-0.074,0.033-0.136,0.043-0.177,0.027c-0.041-0.017-0.07-0.059-0.093-0.129
		c-0.016-0.049-0.021-0.096-0.016-0.139c0.004-0.044,0.018-0.083,0.034-0.119c0.015-0.036,0.034-0.068,0.062-0.096
		c0.022-0.028,0.045-0.051,0.069-0.066c0.025-0.021,0.054-0.037,0.081-0.05c0.027-0.014,0.059-0.021,0.084-0.019
		c0.027,0.003,0.053,0.013,0.076,0.034c0.023,0.022,0.043,0.058,0.061,0.106l-0.164,0.125c-0.002-0.014-0.008-0.022-0.014-0.028
		c-0.008-0.008-0.015-0.013-0.023-0.017c-0.014-0.006-0.029-0.004-0.045,0.009c-0.016,0.01-0.025,0.021-0.035,0.039
		s-0.01,0.04-0.002,0.063c0,0.013,0.009,0.02,0.014,0.021c0.006,0.003,0.014,0.004,0.021,0.004s0.019,0,0.031-0.009
		c0.014-0.003,0.026-0.01,0.041-0.018c0.02-0.007,0.032-0.012,0.051-0.019c0.019-0.008,0.033-0.013,0.055-0.017
		c0.016-0.003,0.033-0.004,0.051-0.002c0.016,0.001,0.033,0.007,0.048,0.018c0.015,0.009,0.028,0.023,0.04,0.042
		c0.018,0.019,0.025,0.045,0.036,0.079c0.015,0.053,0.021,0.104,0.017,0.15C35.142,22.287,35.13,22.33,35.113,22.367z"/>
</g>
</svg>
