<?xml version="1.0" encoding="utf-8"?>
<!-- Generator: Adobe Illustrator 16.0.4, SVG Export Plug-In . SVG Version: 6.00 Build 0)  -->
<!DOCTYPE svg PUBLIC "-//W3C//DTD SVG 1.1//EN" "http://www.w3.org/Graphics/SVG/1.1/DTD/svg11.dtd">
<svg version="1.1" id="Layer_1" xmlns="http://www.w3.org/2000/svg" xmlns:xlink="http://www.w3.org/1999/xlink" x="0px" y="0px"
	 width="44.8px" height="44.8px" viewBox="0 0 44.8 44.8" enable-background="new 0 0 44.8 44.8" xml:space="preserve">
<g>
	<path d="M37.298,10.275h-8.475v0.134H10.445v-0.134H6.4v3.36h2.835c-0.035,0.533-0.033,1.621,0.522,2.081
		c0.629,0.519,5.35,1.696,7.764,1.696c0.455,0,0.827-0.042,1.076-0.139c1.115-0.429,1.338-1.094,1.458-1.451
		c0.013-0.037,0.026-0.079,0.04-0.11c0.995,1.641,1.556,3.218,1.699,3.646h-0.331v1.283h0.535v9.483h-0.334l-0.416,1.268h-0.001
		L21.042,32h0.005V33.9h0.506v0.625h1.637V33.9h0.625V32l-0.164-0.438l0,0l-0.008-0.019l-0.059-0.153h-0.002l-0.502-1.265h-0.248
		v-9.483h0.533v-1.283h-0.402c0.152-0.434,0.746-2.034,1.77-3.688c0.004,0.022,0.008,0.047,0.012,0.067
		c0.054,0.377,0.154,1.078,1.349,1.537c0.248,0.097,0.621,0.139,1.076,0.139c2.414,0,7.135-1.179,7.765-1.696
		c0.588-0.487,0.563-1.619,0.524-2.081h1.842H38.4v-3.362H37.298z M23.009,34.351h-1.278v-0.357h1.278V34.351z M21.292,31.822
		l0.085-0.25l2.086-0.006l0.095,0.254L21.292,31.822z M23.386,31.382l-1.948,0.006l0.355-1.083h1.165L23.386,31.382z M35.841,10.861
		v2.009h-2.438v-2.009H35.841z M29.966,11.215c-0.219,0.061-0.521,0.158-0.873,0.302v-0.305h0.855L29.966,11.215z M22.403,17.981
		c-0.393-0.941-0.873-2.012-1.388-2.956c0.223-0.514,0.751-1.693,1.438-1.672c0.774,0.024,1.253,1.212,1.386,1.59
		C23.281,15.959,22.77,17.103,22.403,17.981z M21.922,19.183c-0.204-0.587-0.799-2.167-1.802-3.765l0.002-0.01
		c-0.004,0-0.006,0.001-0.009,0c-0.303-0.482-0.643-0.969-1.021-1.428c-1.517-1.839-3.445-2.539-4.252-2.764l0.017-0.004h2.031
		c0.646,0.343,1.67,0.968,2.608,1.906c1.049,1.05,2.203,3.626,2.81,5.096C22.135,18.631,22.004,18.97,21.922,19.183z M24.32,14.126
		c-0.301-0.761-0.819-1.935-1.865-1.903c-1.021,0.03-1.592,1.307-1.901,2.001c-0.31-0.496-0.622-0.924-0.929-1.23
		c-0.822-0.822-1.711-1.41-2.363-1.78h10.288c-0.651,0.37-1.541,0.958-2.362,1.78C24.9,13.277,24.607,13.672,24.32,14.126z
		 M6.669,13.367v-2.824h1.354v0.267H7.679v2.142h1.07V10.81H8.422v-0.266H9.21v0.669h0.967v2.155H9.504l-0.24-0.033
		c-0.001,0.004-0.002,0.016-0.004,0.033H6.669z M8.482,11.076v1.606H7.947v-1.606H8.482z M19.801,15.737
		c-0.113,0.338-0.303,0.903-1.301,1.287c-1.5,0.58-7.914-0.973-8.572-1.516c-0.465-0.382-0.457-1.392-0.424-1.873h0.939v-2.423
		h3.587l-0.05,0.01l0.448,0.077c0.026,0.005,2.609,0.47,4.526,2.794c0.362,0.439,0.689,0.904,0.983,1.368
		C19.875,15.525,19.837,15.636,19.801,15.737z M22.653,30.123h-0.476v-9.479h0.476V30.123z M22.05,19.358
		c0.108-0.27,0.365-0.898,0.433-1.099c0.635-1.538,1.793-4.107,2.829-5.143c0.938-0.938,1.961-1.563,2.607-1.906h0.904v0.421
		c-0.92,0.411-2.104,1.128-3.109,2.348c-1.797,2.178-2.787,4.935-2.939,5.379H22.05z M34.761,15.509
		c-0.658,0.544-7.07,2.096-8.572,1.516c-1.049-0.402-1.129-0.958-1.182-1.325c-0.02-0.126-0.035-0.236-0.094-0.316
		c0.281-0.438,0.596-0.874,0.938-1.29c0.959-1.162,2.086-1.86,2.975-2.269v1.811h6.361C35.222,14.042,35.257,15.1,34.761,15.509z
		 M29.093,13.367V11.71c0.748-0.313,1.271-0.408,1.285-0.41l0.447-0.077l-0.051-0.011h2.358v1.926h2.976v-2.328h0.268v-0.267h0.654
		v2.824H29.093z M38.132,13.367h-0.834v-2.824h0.834V13.367z"/>
	<path d="M34.9,12.372c0.381,0,0.689-0.312,0.689-0.691c0-0.379-0.311-0.691-0.689-0.691c-0.383,0-0.69,0.312-0.69,0.691
		C34.209,12.06,34.517,12.372,34.9,12.372z M34.9,11.255c0.232,0,0.422,0.189,0.422,0.424c0,0.235-0.188,0.424-0.422,0.424
		c-0.234,0-0.424-0.189-0.424-0.424C34.476,11.444,34.667,11.255,34.9,11.255z"/>
</g>
</svg>
