<?xml version="1.0" encoding="utf-8"?>
<!-- Generator: Adobe Illustrator 16.0.4, SVG Export Plug-In . SVG Version: 6.00 Build 0)  -->
<!DOCTYPE svg PUBLIC "-//W3C//DTD SVG 1.1//EN" "http://www.w3.org/Graphics/SVG/1.1/DTD/svg11.dtd">
<svg version="1.1" id="Layer_1" xmlns="http://www.w3.org/2000/svg" xmlns:xlink="http://www.w3.org/1999/xlink" x="0px" y="0px"
	 width="42.05px" height="42.05px" viewBox="0 0 42.05 42.05" enable-background="new 0 0 42.05 42.05" xml:space="preserve">
<g>
	<path d="M11.138,13.414c-4.596-0.539-3.881-2.789-3.881-3.441h-1.25c0,2.167,0.841,3.334,2.214,3.88c0,5.935,0,5.68,0,6.43
		c0,1.59,4.724,2.562,5.42,2.675c0.927,0.258,4.542,1.124,11.226,1.124c0.529,0,1.079-0.006,1.646-0.017
		c1.682-0.111,2.266-0.849,2.266-1.549c0-0.586,0-5.614,0-7.208c0.791,0.005,1.612,0.01,2.464,0.014
		c1.141,0.947,3.439,3.414,3.439,7.876c0,3.717-1.723,6.02-3.004,7.217c0.104-0.388,0.058-0.761-0.172-1.021
		c-0.449-0.515-1.418-0.403-2.166,0.249s-0.99,1.598-0.543,2.113c0.403,0.459,1.222,0.416,1.924-0.065
		c0.902-0.57,4.377-3.116,4.377-8.492c0-4.188-1.963-6.691-3.229-7.874c1.682,0.007,4.174-0.072,4.174-0.072v-1.25
		C36.043,14.003,15.266,13.898,11.138,13.414z M10.615,16.957c-0.49,0-0.89-0.396-0.89-0.888s0.398-0.889,0.89-0.889
		c0.492,0,0.889,0.396,0.889,0.889C11.504,16.561,11.106,16.957,10.615,16.957z M28.234,22.517c0,0.557-0.649,0.933-1.745,1.008
		c-0.546,0.011-1.092,0.017-1.623,0.017c-6.262,0-9.823-0.777-10.925-1.062v-7.564c3.064,0.203,7.324,0.325,13.451,0.384
		l0.842,0.042V22.517L28.234,22.517z"/>
	<path d="M21.293,16.397c-2.094,0-4.909,2.448-5.029,2.552l-0.257,0.225l0.257,0.227c0.12,0.104,2.937,2.552,5.029,2.552
		c2.093,0,4.908-2.447,5.028-2.552l0.257-0.227l-0.257-0.227C26.201,18.845,23.386,16.397,21.293,16.397z M21.293,21.353
		c-1.521,0-3.621-1.579-4.361-2.178c0.74-0.599,2.841-2.178,4.361-2.178c1.521,0,3.621,1.579,4.36,2.178
		C24.914,19.773,22.814,21.353,21.293,21.353z"/>
	<circle cx="21.293" cy="19.174" r="1.226"/>
</g>
</svg>
