<?xml version="1.0" encoding="utf-8"?>
<!-- Generator: Adobe Illustrator 16.0.4, SVG Export Plug-In . SVG Version: 6.00 Build 0)  -->
<!DOCTYPE svg PUBLIC "-//W3C//DTD SVG 1.1//EN" "http://www.w3.org/Graphics/SVG/1.1/DTD/svg11.dtd">
<svg version="1.1" id="Layer_1" xmlns="http://www.w3.org/2000/svg" xmlns:xlink="http://www.w3.org/1999/xlink" x="0px" y="0px"
	 width="42.232px" height="42.232px" viewBox="0 0 42.232 42.232" enable-background="new 0 0 42.232 42.232" xml:space="preserve">
<path d="M35.082,16.903c-0.896,0.64-7.603,9.461-8.016,9.939c-0.416,0.479-1.038,0.799-2.283,0.623
	c-0.866-0.133-2.722-0.534-3.6-0.673c-0.878-0.138-3.001,0.165-3.991-0.06c-0.989-0.224-2.717-1.604-3.4-1.818
	c-0.683-0.214-3.559-1.116-3.559-1.116s5.313-4.433,5.617-4.763s0.63-1.763,0.805-1.895s3.446-2.961,3.659-3.132
	c0.213-0.17,0.797-0.426,0.979-0.145c0.183,0.28,2.506,3.159,2.607,3.352c0.217,0.346,1.264,0.33,1.461,0.129
	c0.082-0.096,0.885-1.028,1.332-1.543c0.127-0.146,0.124-0.362-0.021-0.577c-0.889-1.312-2.74-3.956-3.092-4.307
	c-0.404-0.405-5.738,3.941-5.738,3.941l-11.81,9.513v2.35l3.081,0.909l1.174-0.788l2.281,0.651l0.627-0.493l-0.007-1.786
	l-0.33-0.086c0.224,0.015,0.421,0.031,0.569,0.054c0.772,0.112,1.491,1.479,2.599,2.209c0,0,0.109,0.039,0.111,0.069
	c0.054,0.031,0.111,0.055,0.168,0.082c0.08,0.509,0.312,1.541,0.257,1.725c-0.053,0.18-0.196,0.371-0.289,0.482
	c-0.004-0.002-0.008-0.006-0.012-0.008c-0.213-0.116-0.502,0.001-0.646,0.263c-0.141,0.261-0.082,0.565,0.132,0.684
	c0.215,0.116,0.503-0.001,0.646-0.262c0.113-0.209,0.096-0.445-0.025-0.593c0.101-0.119,0.256-0.328,0.316-0.53
	c0.057-0.188-0.148-1.157-0.238-1.688c0.194,0.089,0.396,0.163,0.617,0.199c0.287,0.049,0.564,0.063,0.834,0.061
	c0,0.003-0.001,0.011-0.001,0.014c0.018,0.204-0.353,1.775-0.279,2.021c0.062,0.201,0.218,0.41,0.316,0.53
	c-0.121,0.146-0.139,0.384-0.025,0.593c0.144,0.262,0.433,0.378,0.646,0.263c0.214-0.117,0.271-0.424,0.132-0.686
	c-0.143-0.261-0.432-0.378-0.646-0.262c-0.004,0.002-0.008,0.006-0.012,0.008c-0.093-0.111-0.235-0.305-0.289-0.482
	c-0.066-0.227,0.306-1.757,0.285-1.982c0-0.003,0.001-0.012,0.001-0.016c1.297-0.048,2.357-0.557,3.188-0.437
	c1.024,0.147,4.023,0.699,4.642,0.778c0.617,0.08,1.24-0.145,1.576-0.574c0.334-0.432,7.32-9.738,7.752-9.675
	c0.771,0.125-0.795,2.522-0.875,3.208c-0.078,0.688,0.652,1.178,0.75,0.792c0.099-0.387,1.046-3.793,1.125-4.208
	C36.266,17.344,35.973,16.266,35.082,16.903z M9.45,26.47l-0.008-1.354l3.033,0.759l0.006,1.464L9.45,26.47z M12.611,27.293v-1.46
	l0.451-0.349l0.006,1.456L12.611,27.293z M13.065,25.316l-0.555,0.435l-2.713-0.679c0.529-0.004,1.56-0.004,2.434,0.026
	L13.065,25.316z"/>
</svg>
