<?xml version="1.0" encoding="utf-8"?>
<!-- Generator: Adobe Illustrator 16.0.4, SVG Export Plug-In . SVG Version: 6.00 Build 0)  -->
<!DOCTYPE svg PUBLIC "-//W3C//DTD SVG 1.1//EN" "http://www.w3.org/Graphics/SVG/1.1/DTD/svg11.dtd">
<svg version="1.1" id="Layer_1" xmlns="http://www.w3.org/2000/svg" xmlns:xlink="http://www.w3.org/1999/xlink" x="0px" y="0px"
	 width="47.622px" height="47.622px" viewBox="0 0 47.622 47.622" enable-background="new 0 0 47.622 47.622" xml:space="preserve">
<path d="M37.815,7.812l-0.578,0.579c0.379,0.378,0.68,0.679-0.705,2.533c-1.508,2.019-4.86,5.591-11.215,11.945
	c-6.8,6.798-10.281,10.105-12.418,11.794c-2.38,1.881-2.794,1.465-3.097,1.162l-0.579,0.58c0.551,0.552,1.174,0.659,2.063,0.276
	c2.751,2.75,2.632,2.631,2.98,2.979c0.736,0.735,3.839-1.466,4.215-1.735c0.547-0.31,2.625-1.584,5.722-4.681
	c0.247-0.246,0.499-0.504,0.753-0.771c0.729-0.831,0.658-1.442,0.334-1.768c-0.271-0.271-2.603-2.603-3.34-3.34
	c0.369-0.363,0.753-0.744,1.149-1.137c0.966-0.088,3.176-0.012,5.244,2.057c1.722,1.723,1.988,3.588,1.953,4.734
	c-0.133-0.228-0.328-0.377-0.555-0.394c-0.445-0.03-0.845,0.471-0.889,1.119s0.281,1.2,0.729,1.23
	c0.398,0.026,0.759-0.373,0.861-0.92c0.153-0.685,0.584-3.474-1.908-5.965c-1.938-1.939-4.011-2.192-5.144-2.153
	c0.782-0.774,1.614-1.604,2.504-2.494c1.048-1.048,2.013-2.018,2.902-2.918c-0.118,0.878-0.197,3.371,2.107,5.677
	c2.492,2.491,5.281,2.062,5.965,1.908c0.549-0.104,0.947-0.463,0.92-0.861c-0.029-0.446-0.582-0.771-1.229-0.729
	c-0.647,0.044-1.149,0.441-1.118,0.89c0.014,0.227,0.163,0.42,0.393,0.553c-1.149,0.039-3.014-0.229-4.735-1.952
	c-2.73-2.729-1.988-5.713-1.98-5.744l-0.053-0.014C39.063,10.106,39.102,9.099,37.815,7.812z M13.836,37.011
	c-0.228,0.228-0.597,0.228-0.824,0c-0.228-0.228-0.228-0.597,0-0.824c0.227-0.228,0.596-0.228,0.824,0
	C14.063,36.415,14.063,36.785,13.836,37.011z M25.039,30.958c0.259,0.258,0.131,0.733-0.342,1.274
	c-0.248,0.259-0.499,0.515-0.745,0.761c-2.903,2.901-4.913,4.192-5.556,4.569l-3.503-3.502c1.515-1.327,3.545-3.244,6.411-6.058
	l0.41-0.369L25.039,30.958z"/>
</svg>
