<?xml version="1.0" encoding="utf-8"?>
<!-- Generator: Adobe Illustrator 16.0.4, SVG Export Plug-In . SVG Version: 6.00 Build 0)  -->
<!DOCTYPE svg PUBLIC "-//W3C//DTD SVG 1.1//EN" "http://www.w3.org/Graphics/SVG/1.1/DTD/svg11.dtd">
<svg version="1.1" id="Layer_1" xmlns="http://www.w3.org/2000/svg" xmlns:xlink="http://www.w3.org/1999/xlink" x="0px" y="0px"
	 width="47.652px" height="47.652px" viewBox="0 0 47.652 47.652" enable-background="new 0 0 47.652 47.652" xml:space="preserve">
<path d="M38.287,17.846c-0.546-2.677-0.199-8.278-9.462-9.757C21.109,6.858,14.058,9.93,13.12,16.92l-0.406-0.016v-0.451
	c0.003-0.021,0.007-0.045,0.007-0.068c0-0.287-0.234-0.521-0.521-0.521c-0.29,0-0.523,0.234-0.523,0.521v0.618H9.269v0.122
	l-0.02,1.82l1.841,0.019l0.019-1.496h0.565v6.55h0.002c0.009,0.154,0.088,0.287,0.2,0.378c-0.929,1.24-1.879,2.399-1.377,2.953
	c0.895,0.981,2.409,1.02,2.409,1.02s-0.986,1.873-0.543,2.392c0.443,0.52,1.676,0.296,1.676,0.296s-1.145,0.824-1.145,1.465
	c0,0.64,1.934,1.49,1.934,1.49s-0.354,3.545,2.548,3.3c2.902-0.246,3.394-1.064,3.394-1.064l0.859,3.582h11.233l-0.394-7.787
	C32.472,32.038,39.37,24.548,38.287,17.846z M12.712,23.196l-0.014-3.895c0,0,0.173,0.009,0.32,0.01
	c0.042,0.727,0.134,1.481,0.296,2.273C13.314,22.07,13.064,22.624,12.712,23.196z M30.292,22.366
	c-0.679-0.812-1.771-2.166-2.23-2.665c-0.461-0.501-1.325-0.825-2.193-0.886c-0.869-0.063-2.56-0.186-2.56-0.186
	s-1.178-0.228-1.405,0.357c-0.197,0.62-2.141,0.5-2.141,0.5l-6.7-0.181c-0.044-1.26-0.011-2.151,0.06-2.389l13.168,0.586
	c0,0,1.712,0.048,2.521,1c0.809,0.954,1.809,2.118,2.503,3.003C32.006,22.394,30.974,23.178,30.292,22.366z"/>
</svg>
