<?xml version="1.0" encoding="utf-8"?>
<!-- Generator: Adobe Illustrator 16.0.4, SVG Export Plug-In . SVG Version: 6.00 Build 0)  -->
<!DOCTYPE svg PUBLIC "-//W3C//DTD SVG 1.1//EN" "http://www.w3.org/Graphics/SVG/1.1/DTD/svg11.dtd">
<svg version="1.1" id="Layer_1" xmlns="http://www.w3.org/2000/svg" xmlns:xlink="http://www.w3.org/1999/xlink" x="0px" y="0px"
	 width="44.801px" height="44.8px" viewBox="0 0 44.801 44.8" enable-background="new 0 0 44.801 44.8" xml:space="preserve">
<path d="M38.279,15.172c-0.156-0.949-2.176-2.479-4.904-3.722c-1.934-0.881-5.868-2.358-10.5-2.378c-0.037,0-0.074,0-0.111,0
	c-2.889,0-5.361,0.45-7.275,0.982L15.285,8.61l-0.94-1.507l-3.773,1.655V8.757L8.088,9.982c0,0-1.892,0.993-1.67,4.068
	c0.223,3.075,1.427,23.033,2.536,23.507c1.11,0.477,3.149-0.412,3.149-0.412l-0.518-5.802l-1.808,0.031
	c0,0-0.986-7.597-1.142-12.664c0-0.031,0-0.061-0.001-0.09c2.295-0.519,9.646-2.224,10.609-3.049
	c0.209-0.18,0.408-0.446,0.604-0.763c-0.018,0.235,0.028,0.513,0.308,0.623c0.528,0.211,0.908-1.091,0.992-1.492
	c0.085-0.4-0.274-0.559-0.274-0.559L21,12.758c0.567-0.949,1.227-1.754,2.089-1.722c0.644,0.026,1.12,0.984,1.614,2.046l0.062,0.533
	c0,0-0.275-0.12-0.213,0.324c0.063,0.444,0.486,1.619,0.824,1.684c0.235,0.044,0.446-0.179,0.557-0.317
	c0.244,0.297,0.518,0.524,0.827,0.637c1.091,0.395,4.605,1.372,7.173,2.088c1.168,0.324,2.121,0.59,2.475,0.696
	c0.037,1.129,0.283,9.646,0.018,11.44c-0.284,1.935-1.457,5.707-1.647,6.088c-0.188,0.38,0.429,0.69,0.604,0.222
	s1.604-5.171,1.774-6.246c0.146-2,0.466-10.436,0.272-11.483c0.228-0.09,0.404-0.233,0.486-0.375
	c0.01-0.017,0.021-0.033,0.033-0.054C38.149,17.994,38.623,17.224,38.279,15.172z M14.378,7.348l0.784,1.293l0.148,1.06l-0.932-1.49
	V7.348z M15.4,10.082c-1.993,0.56-3.367,1.205-3.954,1.507l-0.964-1.447l3.808-1.833L15.4,10.082z M10.559,8.903l3.692-1.635v0.92
	l-3.799,1.828L10.559,8.903z M37.731,18.188c-0.013,0.021-0.022,0.04-0.035,0.059c-0.131,0.225-0.619,0.446-1.084,0.281
	c-0.192-0.067-1.207-0.35-2.608-0.739c-2.562-0.714-6.076-1.691-7.154-2.081c-0.773-0.279-1.312-1.435-1.83-2.551
	c-0.561-1.201-1.085-2.336-1.919-2.371c-1.327-0.045-2.157,1.507-2.891,2.875c-0.387,0.719-0.751,1.397-1.128,1.722
	c-0.902,0.772-8.122,2.455-10.448,2.98c-0.023-2.352,0.484-3.695,0.627-4.111C9.692,13,11.46,11.879,11.58,11.805
	c1.154-0.593,5.291-2.478,11.183-2.478c0.036,0,0.073,0,0.11,0c7.742,0.03,14.891,4.289,15.156,5.886
	C38.356,17.173,37.92,17.885,37.731,18.188z"/>
</svg>
