<?xml version="1.0" encoding="utf-8"?>
<!-- Generator: Adobe Illustrator 16.0.4, SVG Export Plug-In . SVG Version: 6.00 Build 0)  -->
<!DOCTYPE svg PUBLIC "-//W3C//DTD SVG 1.1//EN" "http://www.w3.org/Graphics/SVG/1.1/DTD/svg11.dtd">
<svg version="1.1" id="Layer_1" xmlns="http://www.w3.org/2000/svg" xmlns:xlink="http://www.w3.org/1999/xlink" x="0px" y="0px"
	 width="45.176px" height="45.176px" viewBox="0 0 45.176 45.176" enable-background="new 0 0 45.176 45.176" xml:space="preserve">
<g>
	<path d="M27.448,14.098c-0.039,0-0.07,0.008-0.108,0.021c-0.212,0.126-0.267,0.485-0.328,0.907
		c-0.069,0.43-0.142,0.922-0.397,1.094c-0.078,0.047-0.164,0.078-0.259,0.078c-0.233,0-0.469-0.164-0.516-0.359
		c-0.056-0.202,0.094-0.404,0.413-0.577l0.023-0.009l0.008-0.021c0.103-0.188,0.188-0.398,0.281-0.604
		c0.28-0.633,0.569-1.297,1.008-1.297c0.069,0,0.147,0.023,0.228,0.056c0.196,0.062,0.594,0.519,1.118,1.229l0.104-0.142
		c-0.529-0.691-0.941-1.144-1.167-1.22c-0.096-0.041-0.189-0.062-0.283-0.062c-0.531,0-0.845,0.703-1.142,1.383
		c-0.086,0.195-0.172,0.392-0.267,0.57c-0.516,0.28-0.5,0.602-0.469,0.727c0.069,0.267,0.353,0.468,0.655,0.468
		c0.117,0,0.233-0.038,0.337-0.101c0.305-0.203,0.391-0.728,0.461-1.188c0.055-0.353,0.108-0.72,0.258-0.806
		c0.008-0.008,0.022-0.008,0.039-0.008c0.105,0,0.452,0.461,0.907,1.15l0.092-0.125C27.963,14.541,27.604,14.098,27.448,14.098z"/>
	<path d="M16.472,31.336c-0.181,0-0.319,0.143-0.319,0.328c0,0.172,0.141,0.32,0.319,0.32c0.18,0,0.328-0.148,0.328-0.32
		C16.801,31.479,16.652,31.336,16.472,31.336z M16.472,31.844c-0.095,0-0.181-0.076-0.181-0.18c0-0.102,0.086-0.188,0.181-0.188
		c0.103,0,0.188,0.086,0.188,0.188C16.66,31.768,16.574,31.844,16.472,31.844z"/>
</g>
<path d="M29.465,13.555l-0.104,0.143c2.487,3.37,7.905,12.568,9.202,13.62l-2.188,0.143c-0.319-0.327-5.251-9.767-7.482-13.111
	l-0.091,0.125c0.518,0.783,1.178,1.864,1.816,2.958c0.671,1.146,1.625,3.077,2.21,4.038c1.483,2.462,2.796,5.305,3.358,6
	l-0.188,0.017c-2.828,0.156-18.692,1.125-19.442,1.164c-0.36-0.566-2.571-5.174-3.885-7.894c-0.848-1.76-1.927-4.085-2.733-5.518
	c-0.441-0.784-0.896-1.282-0.969-1.32c-0.088-0.054-0.177-0.09-0.269-0.103c-0.525-0.077-0.938,0.574-1.33,1.203
	c-0.114,0.18-0.227,0.359-0.346,0.523c-0.551,0.203-0.582,0.523-0.569,0.65c0.031,0.272,0.28,0.515,0.582,0.559
	c0.115,0.02,0.237-0.003,0.347-0.05c0.331-0.157,0.491-0.663,0.629-1.107c0.104-0.34,0.212-0.694,0.372-0.759
	c0.009-0.007,0.023-0.004,0.04-0.002c0.104,0.018,1.326,2.477,1.513,2.905c0.272,0.641,1.547,3.625,1.547,3.625v0.453l4.931,9.72
	l6.305-0.32l-0.109-1.679l-6.109,0.405l-0.358-0.374c1.139-0.061,5.908-0.303,9.03-0.446v-0.014l2.03-0.122
	c0.142-0.014,0.234,0.021,0.294,0.102c0.229,0.311-0.119,1.074-0.275,1.455c-0.018,0.009-0.033,0.005-0.049,0.015
	c-0.162,0.088-0.29,0.219-0.359,0.367c-0.073,0.155-0.075,0.314-0.003,0.445c0.084,0.156,0.261,0.25,0.475,0.25
	c0.137,0,0.277-0.037,0.407-0.105c0.163-0.09,0.291-0.221,0.36-0.369c0.04-0.084,0.054-0.168,0.052-0.25
	c0.085-0.352,0.32-1.444,0.896-1.517c0.562-0.066,0.829,0.984,0.925,1.378c-0.004,0.081,0.012,0.166,0.051,0.25
	c0.068,0.149,0.199,0.28,0.359,0.367c0.131,0.071,0.271,0.107,0.407,0.107c0.213,0,0.392-0.094,0.476-0.248
	c0.07-0.133,0.069-0.291-0.002-0.447c-0.07-0.148-0.199-0.279-0.361-0.367c-0.036-0.021-0.076-0.016-0.114-0.029l0.026-0.006
	c-0.141-0.418-0.396-1.153-0.186-1.498c0.049-0.078,0.117-0.122,0.206-0.135l2.776-0.179v0.003c1.719-0.096,3.703-0.198,5.156-0.265
	v-0.994C37.461,26.201,31.906,16.801,29.465,13.555z M18.399,29.958l4.078-0.266l0.094,1.383L18.4,31.317L18.399,29.958
	L18.399,29.958z M16.555,30.075l1.703-0.108v1.358l-1.703,0.094V30.075z M16.422,30.075l0.017,1.172l-4.83-9.494l0.187-1.171
	l4.118,8.955L16.422,30.075z M27.914,31.081c-0.056,0.12-0.161,0.228-0.296,0.3c-0.262,0.143-0.579,0.104-0.678-0.082
	c-0.048-0.088-0.045-0.197,0.007-0.312c0.056-0.12,0.161-0.228,0.296-0.3c0.108-0.061,0.226-0.09,0.335-0.09
	c0.159,0,0.284,0.062,0.343,0.172C27.97,30.857,27.968,30.969,27.914,31.081z M31.077,30.85c0.053,0.111,0.056,0.225,0.007,0.312
	c-0.098,0.184-0.417,0.227-0.678,0.08c-0.135-0.072-0.24-0.18-0.296-0.299c-0.054-0.112-0.056-0.225-0.007-0.312
	c0.059-0.107,0.184-0.171,0.343-0.171c0.11,0,0.228,0.03,0.335,0.091C30.915,30.623,31.02,30.73,31.077,30.85z M38.577,28.187
	c-0.7,0.022-2.925,0.133-4.95,0.244l-0.002-0.005l-2.854,0.177c-0.139,0.017-0.248,0.086-0.319,0.204
	c-0.25,0.406,0.021,1.178,0.146,1.545c-0.053-0.012-0.102-0.041-0.15-0.041c-0.192,0-0.346,0.084-0.438,0.213
	c-0.089-0.342-0.371-1.403-1.01-1.348c-0.637,0.058-0.934,1.118-1.021,1.446c-0.095-0.103-0.229-0.175-0.397-0.175
	c-0.06,0-0.116,0.033-0.177,0.047c0.148-0.363,0.489-1.125,0.216-1.496c-0.093-0.127-0.236-0.181-0.425-0.162l-2.227,0.123
	l0.005,0.007c-3.408,0.134-8.535,0.354-8.916,0.376l-4.309-9.182l-0.185,0.986c0,0-2.627-6.361-3.12-6.453
	c-0.039-0.004-0.071-0.001-0.112,0.008c-0.227,0.093-0.333,0.44-0.456,0.85c-0.132,0.415-0.273,0.892-0.553,1.023
	c-0.084,0.035-0.174,0.053-0.267,0.04c-0.232-0.034-0.44-0.229-0.458-0.43c-0.024-0.209,0.152-0.391,0.494-0.514l0.023-0.004
	l0.011-0.021c0.128-0.17,0.244-0.367,0.366-0.555c0.371-0.584,0.753-1.198,1.186-1.137C8.747,13.966,8.822,14,8.894,14.042
	c0.187,0.088,0.931,1.375,0.931,1.375c1.317,2.116,6.353,13.377,6.729,13.377c0.961-0.062,16.624-1.016,19.45-1.172
	c0.213-0.016,0.338-0.016,0.354-0.021l0.156-0.009h-0.01l2.07-0.125v0.72H38.577z"/>
</svg>
