<?xml version="1.0" encoding="utf-8"?>
<!-- Generator: Adobe Illustrator 16.0.4, SVG Export Plug-In . SVG Version: 6.00 Build 0)  -->
<!DOCTYPE svg PUBLIC "-//W3C//DTD SVG 1.1//EN" "http://www.w3.org/Graphics/SVG/1.1/DTD/svg11.dtd">
<svg version="1.1" id="Layer_1" xmlns="http://www.w3.org/2000/svg" xmlns:xlink="http://www.w3.org/1999/xlink" x="0px" y="0px"
	 width="44.729px" height="44.729px" viewBox="0 0 44.729 44.729" enable-background="new 0 0 44.729 44.729" xml:space="preserve">
<path d="M24.443,15.024c-9.781,2.268-18.518,9.601-18.035,11.3c0.481,1.697,1.437,4.653,1.562,5.062
	c0.129,0.41,0.906,0.123,1.255-0.295c0.351-0.419-0.03-0.896,0.486-1.741c0.516-0.848-0.549-4.496,0.245-5.312
	c0.794-0.818,2.489-2.062,2.763-2.226c-0.873,0.572-0.038,3.618,0.931,3.542c0.967-0.073,1.271-0.245,1.659-0.451
	c0.391-0.206,5.797-4.808,11.208-5.243c0.585-0.41,1.847-1.293,1.847-1.293s-0.76-1.706-1.144-2.938
	c2.128-0.478,1.855-0.396,3.207-0.663c0.312,0.094,0.817,0.367,1.104,0.574c0.761,0.549,1.309,1.417,1.553,2.425
	c-5.78,2.964-13.188,7.257-13.318,7.322c-0.144,0.07-0.204,0.247-0.134,0.388c0.064,0.132,0.214,0.193,0.349,0.151
	c0.017-0.003,0.027-0.009,0.04-0.02c0.531-0.257,7.474-4.322,13.17-7.241c0.102,0.864-0.263,2.768-0.57,3.161
	c-0.148,0.191-0.312,0.28-0.422,0.322c-0.036-0.688-1.157-0.867-1.206-0.101c-0.042,0.681-0.092,0.879-0.104,1.657
	c-0.011,0.776,1.225,0.765,1.243,0.043c0.021-0.624,0.049-0.787,0.065-1.292c0.012-0.005,0.022-0.01,0.042-0.015
	c0.146-0.046,0.392-0.159,0.604-0.426c0.38-0.48,0.762-2.468,0.629-3.481c-0.002-0.005-0.003-0.008-0.006-0.013
	c0.718-0.37,1.377-0.711,1.956-1.014c0.001,0.275,0.592,3.55-0.049,4.132c-0.034,0.055-0.073,0.09-0.119,0.107
	c-0.034-0.087-0.07-0.181-0.113-0.292c-0.271-0.678-1.432-0.41-1.173,0.334c0.226,0.643,0.255,0.847,0.546,1.566
	c0.29,0.724,1.425,0.229,1.165-0.44c-0.167-0.432-0.229-0.634-0.326-0.896c0.109-0.042,0.2-0.117,0.27-0.228
	c0.644-1.257,0.083-4.128,0.09-4.438c1.007-0.532,2.824-2.234,2.609-3.168C38.074,12.957,35.374,12.488,24.443,15.024z
	 M24.252,18.659c-0.517,0.16-1.067-0.125-1.229-0.646c-0.16-0.518,0.131-1.064,0.646-1.228c0.518-0.162,1.067,0.125,1.229,0.642
	C25.058,17.949,24.769,18.497,24.252,18.659z M33.347,17.632c-0.267-1.049-0.847-1.95-1.646-2.524
	c-0.172-0.125-0.354-0.233-0.534-0.318c3.449-0.669,4.445-0.701,4.92-0.736c-0.266,0.491-0.646,1.578-0.742,2.527
	C34.742,16.901,34.138,17.226,33.347,17.632z M35.611,16.438c0.129-1.043,0.612-2.205,0.76-2.451c0,0,1.204-0.104,1.316,0.123
	C37.939,14.613,36.416,16.008,35.611,16.438z"/>
</svg>
