<?xml version="1.0" encoding="utf-8"?>
<!-- Generator: Adobe Illustrator 16.0.4, SVG Export Plug-In . SVG Version: 6.00 Build 0)  -->
<!DOCTYPE svg PUBLIC "-//W3C//DTD SVG 1.1//EN" "http://www.w3.org/Graphics/SVG/1.1/DTD/svg11.dtd">
<svg version="1.1" id="Layer_1" xmlns="http://www.w3.org/2000/svg" xmlns:xlink="http://www.w3.org/1999/xlink" x="0px" y="0px"
	 width="44.814px" height="44.814px" viewBox="0 0 44.814 44.814" enable-background="new 0 0 44.814 44.814" xml:space="preserve">
<path d="M38.01,31.023c2.153-2.057-5.015-22.246-5.39-23.163s-1.229-0.5-1.062-0.021c0.238,0.687,6.927,21.039,5.696,22.477
	c-1.467,0.945-6.923,0.884-13.296,0.749c-1.436-0.03-14.492,0.663-16.02-0.646c-1.551-1.326,5.735-21.716,5.808-22.602
	c0.035-0.449-0.751-0.729-1.042,0.021S6.26,27.584,6.422,29.17v2.022c0-0.497-0.02,6.306-0.02,6.306h12.901l0.008-4.755
	c0,0-9.479,0.275-12.034-0.964c0,0-0.017-0.699,0.042-0.641c0.896,0.946,4.513,1.062,11.974,1.089
	c1.089,0.003,2.147,0.012,3.177,0.022l-0.004,0.001c0.006,0.017,0.417,2.146,0.376,3.138h-1.655V36.8h1.721l0.003,0.003
	c0.859-1.071,0.28-3.795,0.091-4.545c0.304,0.004,0.621,0.005,0.912,0.013c0.358,0.006,0.761,0.01,1.197,0.01
	c0.055,0,0.116-0.001,0.172-0.001c-0.194,0.778-0.756,3.459,0.097,4.523l0.003-0.003h1.72v-1.411h-1.657
	c-0.04-0.962,0.342-2.973,0.371-3.112C30.74,32.234,37.193,32.093,38.01,31.023z M12.392,33.449l6.143,0.04l-0.006,3.229h-6.144
	L12.392,33.449z M8.056,33.257c0.371,0,0.673,0.301,0.673,0.671c0,0.369-0.302,0.67-0.673,0.67c-0.368,0-0.671-0.301-0.671-0.67
	C7.385,33.557,7.687,33.257,8.056,33.257z"/>
</svg>
