<?xml version="1.0" encoding="utf-8"?>
<!-- Generator: Adobe Illustrator 16.0.4, SVG Export Plug-In . SVG Version: 6.00 Build 0)  -->
<!DOCTYPE svg PUBLIC "-//W3C//DTD SVG 1.1//EN" "http://www.w3.org/Graphics/SVG/1.1/DTD/svg11.dtd">
<svg version="1.1" id="Layer_1" xmlns="http://www.w3.org/2000/svg" xmlns:xlink="http://www.w3.org/1999/xlink" x="0px" y="0px"
	 width="44.8px" height="44.8px" viewBox="0 0 44.8 44.8" enable-background="new 0 0 44.8 44.8" xml:space="preserve">
<g>
	<rect x="28.836" y="16.211" width="2.004" height="1.888"/>
	<rect x="35.122" y="16.211" width="2.002" height="1.888"/>
	<path d="M34.859,16.095h-0.842v2.118h0.842V16.095z M34.627,17.981H34.25v-1.654h0.377V17.981z"/>
	<path d="M28.517,16.095h-0.842v2.118h0.842V16.095z M28.285,17.981h-0.377v-1.654h0.377V17.981z"/>
	<path d="M38.4,16.211h-0.436v-0.64H26.935v3.31h9.187v0.406H23.25v0.618h-1.888l-0.016-0.616H8.436l0.016-0.479h9.414V15.5H6.837
		v0.64H6.4v1.886h0.437v0.784h0.438v3.525h0.894V29.3H9.19v-7.004h12.174v-1.341h1.887v1.494H35.22V29.3h1.021V22.45l1.045-0.001
		l0.015-3.568h0.668v-0.782H38.4V16.211z M7.067,15.731h10.565v2.845H7.067V15.731z M8.958,29.068H8.4v-6.757h0.558V29.068z
		 M21.129,22.064H8.451v-2.496h12.68L21.129,22.064L21.129,22.064z M23.48,22.218V19.52h12.642v2.698h-0.904H23.48z M36.005,29.068
		h-0.559v-6.617h0.559V29.068z M37.732,18.648H27.168v-2.843h10.563V18.648z"/>
	<rect x="13.844" y="16.139" width="2.003" height="1.886"/>
	<rect x="7.677" y="16.139" width="2.002" height="1.886"/>
	<path d="M9.984,18.141h0.842v-2.119H9.984V18.141z M10.216,16.254h0.377v1.654h-0.377V16.254z"/>
	<path d="M16.283,18.141h0.843v-2.119h-0.843V18.141z M16.893,16.254v1.654h-0.377v-1.654H16.893z"/>
</g>
</svg>
