<?xml version="1.0" encoding="utf-8"?>
<!-- Generator: Adobe Illustrator 16.0.4, SVG Export Plug-In . SVG Version: 6.00 Build 0)  -->
<!DOCTYPE svg PUBLIC "-//W3C//DTD SVG 1.1//EN" "http://www.w3.org/Graphics/SVG/1.1/DTD/svg11.dtd">
<svg version="1.1" id="Layer_1" xmlns="http://www.w3.org/2000/svg" xmlns:xlink="http://www.w3.org/1999/xlink" x="0px" y="0px"
	 width="44.8px" height="44.8px" viewBox="0 0 44.8 44.8" enable-background="new 0 0 44.8 44.8" xml:space="preserve">
<g>
	<circle cx="21.877" cy="24.033" r="2.869"/>
	<path d="M6.4,9.705v3.078h0.026v8.178h5.341c-1.584,1.122-2.679,2.051-2.795,2.147l-1.025,0.878l1.025,0.878
		c0.311,0.265,7.637,6.481,12.681,6.481c5.045,0,12.37-6.219,12.681-6.481l1.024-0.878l-1.024-0.878
		c-0.115-0.098-1.209-1.025-2.795-2.147h2.182v-8.177h1.187c0.627,2.055,2.342,7.907,2.342,10.701c0,2.127-1.012,6.902-1.754,8.559
		c-0.336-0.367-0.812-0.603-1.35-0.603c-1.011,0-1.828,0.817-1.828,1.826c0,1.012,0.817,1.829,1.828,1.829
		c0.674,0,1.518-0.407,2.094-1.028s2.16-6.941,2.16-10.583c0-2.84-1.576-8.356-2.283-10.701l-1.094-3.078L6.4,9.705L6.4,9.705z
		 M31.75,23.987c-2.494,1.938-7.123,5.052-10.098,5.052c-2.969,0-7.602-3.115-10.097-5.052c1.161-0.902,2.789-2.048,4.493-3.025
		h11.203C28.959,21.939,30.589,23.083,31.75,23.987z M32.566,19.807H18.713v-6.446h13.853V19.807z"/>
</g>
</svg>
