<?xml version="1.0" encoding="utf-8"?>
<!-- Generator: Adobe Illustrator 16.0.4, SVG Export Plug-In . SVG Version: 6.00 Build 0)  -->
<!DOCTYPE svg PUBLIC "-//W3C//DTD SVG 1.1//EN" "http://www.w3.org/Graphics/SVG/1.1/DTD/svg11.dtd">
<svg version="1.1" id="Layer_1" xmlns="http://www.w3.org/2000/svg" xmlns:xlink="http://www.w3.org/1999/xlink" x="0px" y="0px"
	 width="42px" height="42px" viewBox="0 0 42 42" enable-background="new 0 0 42 42" xml:space="preserve">
<g>
	<path d="M28.145,10.254c-0.496,0-0.899,0.378-0.899,0.842c0,0.463,0.403,0.841,0.899,0.841s0.9-0.378,0.9-0.841
		C29.045,10.632,28.641,10.254,28.145,10.254z M28.145,11.812c-0.43,0-0.776-0.321-0.776-0.717c0-0.396,0.349-0.718,0.776-0.718
		c0.429,0,0.777,0.321,0.777,0.718C28.922,11.491,28.572,11.812,28.145,11.812z"/>
	<path d="M35.575,11.878l0.278-1.828h0.008V9.671h0.007V7.734h-0.722v1.811H7.48c-0.358,0-0.572,0.223-0.572,0.438
		c0,0.103,0.049,0.196,0.136,0.264H6v0.434h11.271L12.09,26.469l-0.75,0.007l-0.038,0.001l-0.51,0.699l-2.434,0.051l-0.019,0.045
		c0,0-1.708,4.09-2.106,5.047c-0.145,0.349-0.162,0.607-0.052,0.771c0.104,0.155,0.289,0.18,0.39,0.18
		c0.039,0,0.067-0.004,0.069-0.004l1.066-0.004L7.55,34.266h3.605l0.156-1.014l0.514-0.002h0.061l1.212-5.938h0.003l0.199-0.748
		l4.822-15.886h3.464l2.08,1.875h0.086h1.77h0.918h1.463h0.938h0.086h0.972c-0.088,0.425-0.127,0.852-0.066,1.215
		c0.168,0.995,0.869,1.077,1.382,1.137c0.14,0.017,0.272,0.032,0.369,0.065l3.03,1.021l0.354-1.458l0.445-0.181L36,11.882
		L35.575,11.878z M10.988,27.161l0.391-0.538l1.754-0.014l-0.139,0.521l-1.5,0.029L10.988,27.161L10.988,27.161z M8.155,28.1h4.629
		l-0.046,0.226H8.062C8.095,28.244,8.125,28.17,8.155,28.1z M11.026,34.114H7.725l0.133-0.851l2.135-0.011l1.166-0.004
		L11.026,34.114z M11.764,33.1l-0.43,0.002V33.1l-1.175,0.006l-3.533,0.012c-0.006,0.001-0.227,0.031-0.321-0.108
		c-0.079-0.118-0.056-0.338,0.066-0.633c0.262-0.631,1.091-2.615,1.627-3.899h4.709L11.764,33.1z M12.815,27.948H8.218
		c0.118-0.282,0.204-0.489,0.24-0.575l3.043-0.062h1.443L12.815,27.948z M13.175,26.459h-0.924l5.165-15.743l0.541-0.012
		L13.175,26.459z M35.297,7.884h0.421v1.637h-0.421V7.884z M7.031,9.982c0-0.153,0.168-0.312,0.449-0.312h9.042v0.575H7.48
		c-0.15,0-0.272-0.029-0.352-0.088C7.065,10.111,7.031,10.049,7.031,9.982z M21.496,10.555H18.16l0.001-0.005l-0.175,0.005H6.123
		V10.37H7.48h9.083c0.369,0,0.646-0.059,0.967-0.126c0.439-0.094,0.979-0.207,1.995-0.225c0.488,0,1.203-0.002,1.971-0.002V10.555z
		 M25.398,12.43h-1.646h-0.038l-2.08-1.875H21.62V10.02c1.022,0.002,2.349,0.006,3.778,0.008V12.43z M25.46,9.894
		c0,0-2.123,0.001-3.957,0.003c-0.775-0.002-1.365-0.003-1.675-0.003c-0.106,0-0.207,0.003-0.305,0.003
		c-0.261,0.001-0.457,0.001-0.561,0.001c-0.448,0-1.039,0.116-1.56,0.217c-0.31,0.062-0.583,0.115-0.758,0.129V9.67h18.5v0.001
		h0.594v0.255c-0.631-0.002-5.873-0.015-10.219-0.021V9.894H25.46z M26.439,12.43h-0.918v-2.403
		c0.303,0.002,0.606,0.003,0.918,0.003V12.43z M28.855,12.43h-0.019H27.9h-1.338v-2.4c1.254,0.003,2.545,0.005,3.752,0.008
		L28.855,12.43z M29.001,12.43l1.459-2.393c2.651,0.007,4.853,0.012,5.269,0.013l-0.278,1.828l-0.647-0.005l-0.095,0.348
		l-4.086-0.014c0.036-0.062,0.065-0.111,0.083-0.138h2.789v-1.691l-2.861,0.063l-0.017,0.035c-0.027,0.056-0.474,0.979-0.694,1.952
		L29.001,12.43L29.001,12.43z M30.479,12.49l0.078-0.16l4.117,0.016l-0.434,1.585l0.324,0.489l-0.254,1.011
		c-0.379-0.134-2.237-0.783-2.683-0.857l-0.09-0.015c-0.488-0.08-1.099-0.181-1.263-0.866C30.182,13.282,30.327,12.82,30.479,12.49z
		 M30.368,12.43h-0.317c0.202-0.862,0.578-1.688,0.661-1.864l2.658-0.062v1.44h-2.729l-0.02,0.026
		c-0.008,0.012-0.066,0.1-0.143,0.235l0,0l-0.008,0.015C30.438,12.282,30.402,12.354,30.368,12.43z M34.374,13.908l0.428-1.562
		h0.284l-0.48,1.911L34.374,13.908z M34.836,12.222l0.061-0.224L35.432,12l-0.035,0.225l-0.279-0.001L34.836,12.222z M34.521,15.831
		l-2.902-0.978c-0.107-0.037-0.247-0.055-0.395-0.07c-0.5-0.059-1.121-0.13-1.273-1.034c-0.059-0.353-0.016-0.773,0.072-1.194h0.291
		c-0.14,0.335-0.252,0.768-0.154,1.167c0.184,0.767,0.863,0.878,1.359,0.959l0.09,0.016c0.474,0.079,2.701,0.867,2.725,0.875
		l0.064,0.021l0.276-1.106l0.163,0.046L34.521,15.831z M34.868,14.41l-0.163-0.045l0.508-2.021l0.159,0.002L34.868,14.41z
		 M35.305,14.261l-0.304,0.122l0.498-2.036h0.005l0.008-0.051l0.018-0.071h-0.006l0.033-0.223l0.287,0.001L35.305,14.261z"/>
</g>
</svg>
