<?xml version="1.0" encoding="utf-8"?>
<!-- Generator: Adobe Illustrator 16.0.4, SVG Export Plug-In . SVG Version: 6.00 Build 0)  -->
<!DOCTYPE svg PUBLIC "-//W3C//DTD SVG 1.1//EN" "http://www.w3.org/Graphics/SVG/1.1/DTD/svg11.dtd">
<svg version="1.1" id="Layer_1" xmlns="http://www.w3.org/2000/svg" xmlns:xlink="http://www.w3.org/1999/xlink" x="0px" y="0px"
	 width="50.121px" height="50.121px" viewBox="0 0 50.121 50.121" enable-background="new 0 0 50.121 50.121" xml:space="preserve">
<path d="M38.4,26.666c0-0.955-0.384-1.814-0.998-2.429c-0.049-5.782-0.123-13.944-0.129-14.466H37.26v-0.71h-6.033v1.36h5.518
	c0.004,0.331,0.009,0.777,0.015,1.314H26.418v0.458c-0.393-0.417-0.933-1.1-1.623-1.1c-0.619,0-1.129,0.649-1.511,1.003v-0.36H13.1
	l-0.268-0.004c-0.001,0.094-0.138,7.1-0.141,12.547c-0.598,0.61-0.97,1.454-0.97,2.387c0,0.963,0.395,1.83,1.024,2.443
	c0.002,0.451,0.019,1.104,0.422,1.475c0.155,0.143,0.353,0.22,0.579,0.236c1.308,5.885,5.88,10.24,11.305,10.24
	c5.438,0,10.021-4.379,11.312-10.285c0.438-0.054,1.069-0.146,1.08-0.836c0-0.068,0-0.385-0.005-0.885
	C38.033,28.443,38.4,27.601,38.4,26.666z M37.615,26.666c0,0.361-0.065,0.709-0.185,1.025c-0.005-0.609-0.011-1.318-0.019-2.098
	C37.541,25.924,37.615,26.285,37.615,26.666z M36.437,24.352c0.157,0.106,0.304,0.232,0.435,0.374
	c0.015,1.558,0.024,2.911,0.031,3.851c-0.074,0.082-0.154,0.158-0.236,0.229c0.041-0.469,0.062-0.942,0.062-1.426
	C36.729,26.338,36.625,25.327,36.437,24.352z M36.863,23.803c-0.191-0.125-0.398-0.231-0.617-0.312
	c-1.252-4.936-4.817-8.71-9.221-9.594c-0.002-0.057-0.004-0.119-0.009-0.463h9.759C36.8,16.579,36.834,20.521,36.863,23.803z
	 M13.27,28.609c-0.029-1.018-0.042-2.356-0.044-3.84c0.131-0.146,0.274-0.273,0.433-0.386c-0.185,0.966-0.286,1.967-0.286,2.995
	c0,0.47,0.021,0.933,0.062,1.389C13.375,28.717,13.322,28.664,13.27,28.609z M13.227,23.833c0.006-3.587,0.065-7.735,0.2-10.366
	h9.234c-0.104,0.36-0.108,0.465-0.109,0.551c-4.165,1.068-7.503,4.746-8.7,9.492C13.631,23.596,13.421,23.704,13.227,23.833z
	 M23.52,13.142h2.561c0.092,0.223,0.125,0.45,0.139,0.626c-0.385-0.045-0.772-0.067-1.166-0.067c-0.573,0-1.138,0.051-1.688,0.145
	C23.377,13.644,23.417,13.386,23.52,13.142z M25.672,12.606h-1.743c0.221-0.158,0.507-0.709,0.863-0.709
	C25.164,11.897,25.449,12.449,25.672,12.606z M12.694,25.664c0.003,0.746,0.01,1.44,0.021,2.062
	c-0.127-0.326-0.198-0.686-0.198-1.062C12.516,26.312,12.58,25.974,12.694,25.664z M13.529,30.188
	c-0.146-0.131-0.204-0.387-0.229-0.644c0.078,0.05,0.158,0.096,0.24,0.139c0.028,0.191,0.06,0.381,0.094,0.57
	C13.595,30.238,13.559,30.217,13.529,30.188z M25.051,39.99c-5.85,0-10.607-5.655-10.607-12.608S19.202,14.77,25.051,14.77
	c5.85,0,10.605,5.657,10.605,12.609C35.658,34.332,30.9,39.99,25.051,39.99z M36.908,29.933c-0.002,0.169-0.082,0.231-0.436,0.286
	c0.031-0.169,0.059-0.342,0.083-0.514c0.121-0.062,0.239-0.127,0.353-0.203C36.908,29.738,36.91,29.889,36.908,29.933z"/>
</svg>
