<?xml version="1.0" encoding="utf-8"?>
<!-- Generator: Adobe Illustrator 16.0.4, SVG Export Plug-In . SVG Version: 6.00 Build 0)  -->
<!DOCTYPE svg PUBLIC "-//W3C//DTD SVG 1.1//EN" "http://www.w3.org/Graphics/SVG/1.1/DTD/svg11.dtd">
<svg version="1.1" id="Layer_1" xmlns="http://www.w3.org/2000/svg" xmlns:xlink="http://www.w3.org/1999/xlink" x="0px" y="0px"
	 width="44.8px" height="44.8px" viewBox="0 0 44.8 44.8" enable-background="new 0 0 44.8 44.8" xml:space="preserve">
<g>
	<path d="M28.398,14.011c-2.348-0.711-4.776-0.616-5.785,0.189c-1.007,0.807-1.376,1.299-1.422,1.802
		c-0.054,0.593,0.847,0.818,1.422,0.331c0.417-0.729,1.139-1.703,2.275-1.849c1.639-0.208,3.836,0.683,4.646,1.256
		c1.375,0.973,6.328,5.452,6.328,5.452s-3.151,0.568-5.145,1.138c-1.99,0.569-2.893,1.563-4.268,1.803
		c-1.375,0.236-2.391-0.421-4.646-0.166c-2.255,0.254-9.458,1.636-10.358,0.972c-0.856-0.632-2.444-3.993-3.046-5.09
		c-0.027-0.057-0.056-0.105-0.081-0.148c0.004-0.003,0.006-0.006,0.011-0.009c-0.274-0.47-1.097-1.951-0.888-2.459
		c0.037-0.091,0.107-0.152,0.202-0.176c0.087-0.022,0.167,0.003,0.226,0.072c0.168,0.196,0.13,0.727,0.022,0.974
		c-0.034,0.08-0.075,0.132-0.123,0.157c0.193,0.47,0.468,0.987,0.661,1.322c0.47-0.634,0.529-2.621-0.111-3.461
		C7.632,15.22,6.4,15.173,6.4,16.95c0,0.83,0.236,3.343,0.973,4.148c-0.309,0.237-0.309,1.02,0.283,1.967
		c0.594,0.947,2.301,5.901,4.078,6.233c1.588,2.536,3.199,1.896,5.049,1.896c1.849,0,4.74-0.734,5.996-1.258
		c1.258-0.521,2.656-3.104,2.822-3.483c0.164-0.38,1.492-0.663,1.705-0.214c0.215,0.45,0.189,2.894,3.521,2.441
		c3.33-0.45,5.771-1.209,6.673-2.986C38.4,23.919,38.4,21.17,38.4,21.17S30.744,14.723,28.398,14.011z M22.876,29.11
		c-0.735,0.854-5.478,1.494-5.478,1.494s-2.394,0.143-3.176,0.119c-0.597-0.021-1.285-0.603-1.57-1.1
		c0.873,0.172,2.188-0.018,2.188-0.018l4.907-0.379v-1.418l0.019-0.001l-0.019-0.037v-0.059l-0.03,0.002l-0.565-1.106l-4.738,0.274
		h-1.899c-0.029-0.701,0.826-1.034,1.636-1.14c0.829-0.104,6.733-0.96,7.351-0.96c0.616,0,2.698,0.014,2.817,1.197
		C24.439,27.165,23.609,28.257,22.876,29.11z M19.604,27.864v1.233l-4.623,0.356v-1.279L19.604,27.864z M14.938,27.98l-0.331-0.967
		l4.459-0.259l0.474,0.927L14.938,27.98z M35.367,26.906c-1.562,0.461-3.698,1.114-4.539,1.257
		c-0.657,0.117-1.331,0.151-1.624-0.117c-0.603-0.56-0.354-1.868-0.421-2.618c-0.172-1.246,2.39-2.194,2.39-2.194
		s4.076-1.138,5.237-1.278c0.144-0.023,1.066,1.871,1.066,1.871S36.927,26.444,35.367,26.906z"/>
	<path d="M7.815,17.339c-0.033-0.128-0.081-0.149-0.111-0.149c-0.011,0-0.019,0.003-0.023,0.004
		c-0.051,0.013-0.085,0.042-0.106,0.093c-0.066,0.163,0.009,0.479,0.144,0.838C7.796,18.064,7.893,17.632,7.815,17.339z"/>
</g>
</svg>
