<?xml version="1.0" encoding="utf-8"?>
<!-- Generator: Adobe Illustrator 16.0.4, SVG Export Plug-In . SVG Version: 6.00 Build 0)  -->
<!DOCTYPE svg PUBLIC "-//W3C//DTD SVG 1.1//EN" "http://www.w3.org/Graphics/SVG/1.1/DTD/svg11.dtd">
<svg version="1.1" id="Layer_1" xmlns="http://www.w3.org/2000/svg" xmlns:xlink="http://www.w3.org/1999/xlink" x="0px" y="0px"
	 width="44.8px" height="44.801px" viewBox="0 0 44.8 44.801" enable-background="new 0 0 44.8 44.801" xml:space="preserve">
<g>
	<path d="M35.651,16.438c-2.223-1.349-8.643-3.228-8.848-2.823c-0.207,0.405,1.125,0.763,1.125,0.763
		c1.602-0.198,5.195,1.271,7.393,2.606c1.101,0.668,1.896,5.323,1.535,5.423c-0.36,0.101-6.836,2.533-7.787,2.822
		c-1.301,0.462-2.272,0.842-4.254,0.842c-1.98,0-3.562-0.36-4.309-0.652c-1.729-0.679-10.424-2.829-10.424-2.829
		s0.778-4.348,1.071-4.826c0.292-0.479-0.107-1.783-0.027-2.103c0.08-0.318,1.436-1.144,1.436-1.144s0.512,1.219,0.718,1.182
		c0.207-0.037,3.069-0.233,3.343-0.27c0.274-0.037-0.006-2.468-0.395-2.454c-4.539,0.372-6.694,2.532-7.494,3.946v-0.001
		c0,0-1.671,6.025-2.07,7.038c-0.399,1.012-0.358,2.446,0.2,3.696c0.366,0.819,2.359,1.079,3.69,1.16
		c1.376,2.086,7.743,3.729,9.925,2.695c2.194-1.039,3.096-3.903,3.285-4.149c0.139-0.182,0.812-0.141,1.09-0.148
		c0.277-0.008,0.859,0.035,0.964,0.167c0.088,0.109,0.374,2.623,1.376,3.707c1.463,1.437,8.213-1.074,9.688-2.786
		c1.197-1.395,1.509-5.445,1.509-5.445C38.477,22.673,38.012,17.872,35.651,16.438z M19.868,31.179
		c-1.743,0.267-6.626-0.215-8.302-1.729c-0.105-0.095-0.507-0.493-0.581-0.613c0.27,0.012,0.486,0.015,0.624,0.016v0.004h0.061
		l-0.012-2.913l1.168-0.767l-2.671-0.204c0.029-0.371,0.09-0.667,0.166-0.842c0.438-1.224,5.18,0.206,6.193,0.488
		c1.014,0.283,4.644,1.453,5.428,1.934C22.727,27.028,21.609,30.913,19.868,31.179z M36.469,28.229
		c-1.576,1.965-7.859,3.181-8.604,2.421c-0.743-0.759-1.03-2.61-0.552-3.532c0.407-0.781,2.229-1.786,3.856-2.315
		c0.217-0.062,4.713-1.771,5.983-1.254C37.907,23.879,37.864,26.563,36.469,28.229z"/>
	<path d="M17.659,25.236v-0.007h-4.718l-1.169,0.768l0.013,2.858h4.918v0.001l0.001-0.001h0.008v-0.008l0.955-0.986l-0.001-2.631
		L17.659,25.236z M11.979,28.663l0.911-0.816h3.812l0.001,0.816H11.979z M12.943,26.366h3.758v1.36h-3.744L12.943,26.366z
		 M16.862,28.462v-0.615h0.597L16.862,28.462z M16.862,27.727l-0.001-1.409l0.646-0.686l0.001,2.095H16.862z M16.776,26.176h-3.835
		l-0.007-0.786h4.582L16.776,26.176z"/>
</g>
</svg>
