<?xml version="1.0" encoding="utf-8"?>
<!-- Generator: Adobe Illustrator 16.0.4, SVG Export Plug-In . SVG Version: 6.00 Build 0)  -->
<!DOCTYPE svg PUBLIC "-//W3C//DTD SVG 1.1//EN" "http://www.w3.org/Graphics/SVG/1.1/DTD/svg11.dtd">
<svg version="1.1" id="Layer_1" xmlns="http://www.w3.org/2000/svg" xmlns:xlink="http://www.w3.org/1999/xlink" x="0px" y="0px"
	 width="44.799px" height="44.8px" viewBox="0 0 44.799 44.8" enable-background="new 0 0 44.799 44.8" xml:space="preserve">
<path d="M37.709,10.28c-0.8,0-6.205,0-7.761,0c-1.555,0-3.194-0.431-5.961-0.431c-2.764,0-4.664,0.431-5.571,0.431
	c-0.907,0-10.013,0-10.898,0c-0.885,0-1.08,0.929-1.08,1.252c0,0.323,0,2.137,0,2.547c0,0.411,0.13,0.563,0.54,0.563
	c0.133,0-0.484,0,0.079,0v6.489v6.667H6.401v1.031H6.399v4.33c0,0.662,0.079,1.132,0.477,1.429c0.35,0.261,0.913,0.36,2.01,0.36
	c0.118,0,0.243,0,0.415-0.002l0.355,0.004c0.446,0,1.806,0,1.806-1.523v-4.597H8.288v-1.031H7.645V20.07l0.918-1.658l0.036-3.772
	c0.778,0,1.488,0,1.741,0c0.007,0,0.014-0.002,0.021-0.002v0.002c0,0,5.197,0,5.666,0c0.467,0,0.64-0.103,0.64-0.498
	c0-0.321,0-2.181,0-2.873c1.547,0,3.361,0,5.299,0c0.046,0.056,0.841,1.048,0.841,2.455c0,0.967-0.481,1.738-0.793,2.138
	c-0.543,0.011-0.977,0.232-0.977,0.503c0,0.279,0.454,0.504,1.015,0.504s1.015-0.226,1.015-0.504c0-0.177-0.187-0.333-0.466-0.422
	c0.338-0.495,0.725-1.267,0.725-2.219c0-1.125-0.438-2.001-0.725-2.455c0.886,0,1.794,0,2.71,0c-0.287,0.454-0.726,1.33-0.726,2.455
	c0,0.952,0.387,1.724,0.726,2.219c-0.28,0.09-0.466,0.246-0.466,0.422c0,0.279,0.453,0.504,1.015,0.504
	c0.562,0,1.016-0.226,1.016-0.504c0-0.271-0.435-0.492-0.979-0.503c-0.312-0.399-0.793-1.171-0.793-2.138
	c0-1.407,0.795-2.399,0.841-2.455c7.853,0,11.496,0,11.763,0C38.746,11.273,38.506,10.28,37.709,10.28z M10.99,33.43
	c0,0.749-0.386,1.056-1.335,1.056L9.251,34.48c-1.188,0.021-1.811-0.055-2.094-0.266c-0.212-0.159-0.287-0.436-0.287-1.052v-2.999
	h4.121L10.99,33.43L10.99,33.43z M10.99,29.304v0.391h-4.12v-0.391H10.99z M16.321,14.146c0,0.071-0.007,0.106-0.012,0.122
	c-0.023,0.01-0.094,0.03-0.283,0.03h-5.03c0.027-0.092,0.034-0.195,0.034-0.304c0-0.346-0.037-2.58-0.02-2.672l5.31,0.049
	L16.321,14.146L16.321,14.146z"/>
</svg>
