<?xml version="1.0" encoding="utf-8"?>
<!-- Generator: Adobe Illustrator 16.0.4, SVG Export Plug-In . SVG Version: 6.00 Build 0)  -->
<!DOCTYPE svg PUBLIC "-//W3C//DTD SVG 1.1//EN" "http://www.w3.org/Graphics/SVG/1.1/DTD/svg11.dtd">
<svg version="1.1" id="Layer_1" xmlns="http://www.w3.org/2000/svg" xmlns:xlink="http://www.w3.org/1999/xlink" x="0px" y="0px"
	 width="44.8px" height="44.8px" viewBox="0 0 44.8 44.8" enable-background="new 0 0 44.8 44.8" xml:space="preserve">
<path d="M33.457,18.034c0.1-1.579,2.19-3.189,2.26-3.233l-0.726-1.115c-0.094,0.062-2.284,1.375-3.014,4.338
	c-2.65-0.021-2.58-0.041-5.329-0.062c-0.898-1.958-3.377-4.155-3.474-4.216l-0.723,1.115c0.066,0.044,1.957,1.863,2.691,3.09
	c-2.123-0.017-4.151-0.032-5.957-0.048V14.53H6.401v7.511h3.429c0,1.432,0,2.991,0,2.991h2.188v-2.609h9.7v-3.246
	c1.266,0.01,2.602,0.021,3.965,0.03c0.163,0.529,0.274,1.107,0.254,1.763c-0.035,1.184-0.404,5.241-0.688,6.083
	c-0.693-0.349-1.719,0.209-2.311,1.271c-0.602,1.079-0.525,2.271,0.17,2.657c0.563,0.313,1.307,0.068,2-0.688
	c0.69-0.756,2.041-5.516,2.158-9.285c0.021-0.65-0.058-1.246-0.189-1.795c2.472,0.021,2.093,0.038,4.483,0.056
	c-0.123,0.534-0.195,1.109-0.177,1.74c-0.133,4.955,1.492,8.744,1.922,9.258c0.429,0.514,1.398,1.026,1.966,0.713
	c0.694-0.388,0.771-1.578,0.168-2.657c-0.592-1.062-1.617-1.62-2.312-1.271c-0.283-0.843-0.379-4.898-0.416-6.083
	c-0.021-0.625,0.084-1.177,0.233-1.688c3.027,0.022,3.851,0.02,5.453,0.011v-1.25C36.903,18.051,36.262,18.055,33.457,18.034z
	 M12.068,20.174c-0.401,0-0.727-0.324-0.727-0.726c0-0.402,0.325-0.727,0.727-0.727s0.727,0.324,0.727,0.727
	C12.795,19.849,12.469,20.174,12.068,20.174z M17.858,17.893c-3.312-0.029-5.611-0.051-5.815-0.06c-1.689,0-2.18,1.371-2.207,2.878
	H7.729v-4.853h10.129V17.893z"/>
</svg>
