<?xml version="1.0" encoding="utf-8"?>
<!-- Generator: Adobe Illustrator 16.0.4, SVG Export Plug-In . SVG Version: 6.00 Build 0)  -->
<!DOCTYPE svg PUBLIC "-//W3C//DTD SVG 1.1//EN" "http://www.w3.org/Graphics/SVG/1.1/DTD/svg11.dtd">
<svg version="1.1" id="Layer_1" xmlns="http://www.w3.org/2000/svg" xmlns:xlink="http://www.w3.org/1999/xlink" x="0px" y="0px"
	 width="54.045px" height="54.045px" viewBox="0 0 54.045 54.045" enable-background="new 0 0 54.045 54.045" xml:space="preserve">
<path d="M37.771,26.064c-0.286-1.989-1.312-8.536-2.49-9.265c0,0-0.479,1.027-0.142,1.953c0.896,1.742,3.146,15.048,1.927,17.079
	c-1.613,2.691-5.854,3.946-8.388,4.474c0.033-0.263,0.152-0.61,0.328-0.857c0.154-0.005,0.32-0.047,0.479-0.131
	c0.42-0.224,0.633-0.65,0.471-0.956c-0.16-0.305-0.631-0.371-1.055-0.147c-0.079,0.041-0.146,0.094-0.21,0.146l-0.006-0.009
	c-0.661,0.419-1.026,1.384-1.037,2.078c-0.001,0.026,0.005,0.045,0.006,0.069c-0.583,0.099-1.346,0.099-1.93,0
	c0.001-0.024,0.007-0.043,0.006-0.069c-0.009-0.694-0.375-1.659-1.037-2.078l-0.006,0.009c-0.063-0.053-0.131-0.104-0.21-0.146
	c-0.421-0.223-0.894-0.155-1.055,0.147c-0.161,0.306,0.05,0.732,0.471,0.956c0.159,0.084,0.325,0.126,0.479,0.131
	c0.175,0.248,0.294,0.596,0.328,0.857c-2.532-0.526-5.75-1.781-7.365-4.474c-0.028-0.047-0.052-0.106-0.076-0.168
	c0-0.135,0.018-6.676,0.738-11.786c0.237-1.367,0.495-2.634,0.75-3.669c0.923-3.018,3.897-5.272,3.726-6.551
	c-0.17-1.278-1.121-3.115-1.974-2.518c-0.852,0.597-2.136,6.114-2.621,7.545c-0.126,0.375-0.374,1.848-0.659,3.85
	c-0.276,1.448-0.482,2.797-0.587,3.53c-0.173,1.203-0.554,4.089-0.617,6.554c-0.322,3.344-0.488,6.159-0.268,6.865
	c0.596,1.918,1.992,2.071,3.09,2.157c0.472,0.373,1.854,1.104,2.749,1.356c0.895,0.257,1.263-1.582,0.415-1.789
	c-0.399-0.017-4.299-1.535-4.762-3.047c0.004-0.111,0.009-0.385,0.012-0.712c2.743,3.286,7.366,3.978,9.439,3.949
	c2.287-0.028,8.708-0.803,11.253-5.043C38.923,34.726,38.06,28.066,37.771,26.064z"/>
</svg>
