<?xml version="1.0" encoding="utf-8"?>
<!-- Generator: Adobe Illustrator 16.0.4, SVG Export Plug-In . SVG Version: 6.00 Build 0)  -->
<!DOCTYPE svg PUBLIC "-//W3C//DTD SVG 1.1//EN" "http://www.w3.org/Graphics/SVG/1.1/DTD/svg11.dtd">
<svg version="1.1" id="Layer_1" xmlns="http://www.w3.org/2000/svg" xmlns:xlink="http://www.w3.org/1999/xlink" x="0px" y="0px"
	 width="44.8px" height="44.8px" viewBox="0 0 44.8 44.8" enable-background="new 0 0 44.8 44.8" xml:space="preserve">
<path d="M22.4,6.4c-8.821,0-16,7.179-16,15.999c0,8.823,7.179,16,16,16c8.822,0,16-7.178,16-16C38.4,13.58,31.222,6.4,22.4,6.4z
	 M33.027,13.08c1.207,1.373,2.15,2.979,2.756,4.744c-1.146-0.922-2.803-1.892-4.823-2.678L33.027,13.08z M22.4,8.244
	c3.572,0,6.83,1.341,9.322,3.53l-2.711,2.711c-1.885-0.552-3.986-0.925-6.222-0.966c-5.716-0.101-10.053,0.966-11.89,2.933
	c-0.271,0.289-0.481,0.6-0.638,0.92H9.185C11.218,12.045,16.368,8.244,22.4,8.244z M11.774,31.72
	c-2.131-2.426-3.444-5.576-3.516-9.034h6.181c-1.41,1.034-2.331,1.856-2.331,1.856s1.645,1.465,3.899,2.945L11.774,31.72z
	 M21.022,19.051v2.22v1.028h-2.146h-3.677v-4.541h5.823V19.051z M15.442,24.543c0.812-0.604,1.764-1.259,2.764-1.855h2.604
	l-3.288,3.288C16.774,25.5,16.065,25.007,15.442,24.543z M21.427,24.675c0.07,1.23,1.083,2.211,2.33,2.211
	c1.295,0,2.348-1.049,2.348-2.346c0-1.246-0.979-2.26-2.213-2.329l1.336-1.336c2.277,0.573,4.937,2.247,6.836,3.665
	c-2.315,1.717-5.826,3.893-8.311,3.893c-1.357,0-2.997-0.641-4.588-1.494L21.427,24.675z M21.415,22.084v-0.958
	c0.451-0.161,0.895-0.282,1.321-0.363L21.415,22.084z M23.754,18.558c-0.75,0-1.54,0.141-2.341,0.374v-1.173v-0.388h-0.392h-9.715
	c0.073-0.104,0.154-0.205,0.248-0.306c1.64-1.758,5.839-2.749,11.22-2.647c1.952,0.034,3.812,0.342,5.504,0.801l-3.436,3.435
	C24.474,18.595,24.109,18.558,23.754,18.558z M22.4,36.554c-3.57,0-6.829-1.34-9.321-3.529l4.549-4.547
	c1.973,1.123,4.184,2.051,6.128,2.051c4.942,0,11.646-5.985,11.646-5.985s-4.263-3.8-8.496-5.342l3.352-3.351
	c2.373,0.876,4.268,2.015,5.379,3.018c-0.248,0.411-0.312,1.3-0.117,1.818c0.062,0.166,0.121,0.321,0.185,0.486
	c0.161,0.426,0.483,0.729,0.838,0.844c0.004,0.128,0.021,0.254,0.021,0.383C36.556,30.208,30.208,36.554,22.4,36.554z"/>
</svg>
