<?xml version="1.0" encoding="utf-8"?>
<!-- Generator: Adobe Illustrator 16.0.4, SVG Export Plug-In . SVG Version: 6.00 Build 0)  -->
<!DOCTYPE svg PUBLIC "-//W3C//DTD SVG 1.1//EN" "http://www.w3.org/Graphics/SVG/1.1/DTD/svg11.dtd">
<svg version="1.1" id="Layer_1" xmlns="http://www.w3.org/2000/svg" xmlns:xlink="http://www.w3.org/1999/xlink" x="0px" y="0px"
	 width="44.797px" height="44.797px" viewBox="0 0 44.797 44.797" enable-background="new 0 0 44.797 44.797" xml:space="preserve">
<path d="M23.044,11.96c0,0-0.492,0.396,0,0.618c0.489,0.222,14.764,4.176,14.916,6.907s-5.678,6.443-12.294,6.983
	c-4.603,0.375-7.529-0.598-10.566-3.687c-1.333-1.351-2.333-3.007-4.098-5.307c-0.232-0.62,0.17-1.548,0-2.372
	c-0.172-0.825-0.185-1.704-0.347-1.974c-0.16-0.271-0.828-0.271-1.227,0.155c-0.4,0.425-0.118,1.825,0.052,2.618
	c0.101,0.822,0.084,1.117,0.129,1.649c0.148,0.236,1.148,1.833,1.486,2.373c0.043,0.478,0.172,1.81,0.267,1.912
	c0.116,0.125,0.231,0.444,0.231,0.444v0.328c0,0-2.145-1.913-5.193-2.3c0,0.366,0,0.812,0,1.044
	c2.584,0.153,5.193,2.474,5.193,2.474v1.006l1.238,0.754l0.676-0.271c0,0,4.215,5.103,4.717,5.759
	c1.508,1.662,3.402,2.396,7.692,1.104c0.008-0.064,0.019-0.137,0.025-0.214L29.933,31l0.242-1.834l-1.004-1.691l-4.112,0.764
	c-0.049-0.069-0.091-0.129-0.147-0.215c-3.906,0.638-5.068-0.095-5.201-0.193s-1.328-1.005-1.328-1.005v-0.001
	c4.2,1.304,8.694,0.15,10.426-0.225c0.182-0.041,0.426-0.104,0.714-0.19c-0.199,0.155-0.4,0.424,0.004,0.724
	c0.635,0.468,1.77,0.401,1.939-0.373c-0.742,0.019-0.705-0.59-0.674-0.778c0.588-0.222,1.244-0.49,1.918-0.81
	c0.182,0.165,0.461,0.536-0.021,0.974c0.656,0.444,1.525-0.285,1.666-1.062c0.08-0.45-0.186-0.538-0.424-0.532
	c2.264-1.246,4.385-2.991,4.465-5.09C38.552,15.439,23.044,11.96,23.044,11.96z M29.726,30.814l-3.752,0.903
	c0.073-0.596,0.168-1.347,0.2-1.618l3.763-0.875L29.726,30.814z M29.066,27.732l0.744,1.283l-3.697,0.858
	c-0.527-0.826-0.771-1.206-0.914-1.428L29.066,27.732z M22.316,31.033c0.526,0,0.953,0.326,0.953,0.729
	c0,0.403-0.427,0.727-0.953,0.727c-0.527,0-0.954-0.323-0.954-0.727C21.362,31.359,21.789,31.033,22.316,31.033z"/>
</svg>
