<?xml version="1.0" encoding="utf-8"?>
<!-- Generator: Adobe Illustrator 16.0.4, SVG Export Plug-In . SVG Version: 6.00 Build 0)  -->
<!DOCTYPE svg PUBLIC "-//W3C//DTD SVG 1.1//EN" "http://www.w3.org/Graphics/SVG/1.1/DTD/svg11.dtd">
<svg version="1.1" id="Layer_1" xmlns="http://www.w3.org/2000/svg" xmlns:xlink="http://www.w3.org/1999/xlink" x="0px" y="0px"
	 width="44.8px" height="44.8px" viewBox="0 0 44.8 44.8" enable-background="new 0 0 44.8 44.8" xml:space="preserve">
<g>
	<path d="M28.088,14.03l-6.7,8.37l6.699,8.371H38.4V14.03H28.088z M29.894,25.009c-1.379,0-2.496-1.117-2.496-2.494
		c0-1.379,1.117-2.496,2.496-2.496c1.377,0,2.494,1.117,2.494,2.496C32.388,23.892,31.271,25.009,29.894,25.009z M33.654,24.975
		c-0.444,0-0.805-0.361-0.805-0.808c0-0.445,0.359-0.808,0.805-0.808c0.447,0,0.808,0.36,0.808,0.808
		C34.461,24.614,34.099,24.975,33.654,24.975z"/>
	<path d="M26.146,30.683c-1.236,0.457-2.606,0.719-4.053,0.719c-4.592,0-11.102-7.01-13.132-9.002
		c2.029-1.993,8.534-9.002,13.132-9.002c1.445,0,2.814,0.263,4.053,0.721l0.924-1.015l0.394-0.434
		c-1.608-0.706-3.435-1.107-5.369-1.107c-6.261,0-14.733,9.829-15.09,10.204L6.4,22.4l0.604,0.633
		c0.356,0.375,8.829,10.205,15.091,10.205c1.936,0,3.762-0.402,5.368-1.107l-0.394-0.434L26.146,30.683z"/>
	<path d="M22.902,18.688c-0.597-0.323-1.277-0.507-2.004-0.507c-2.329,0-4.216,1.888-4.216,4.216c0,2.329,1.887,4.216,4.216,4.216
		c0.725,0,1.405-0.184,2.001-0.504l-2.529-2.783L19.527,22.4l0.842-0.926L22.902,18.688z"/>
</g>
</svg>
