<?xml version="1.0" encoding="utf-8"?>
<!-- Generator: Adobe Illustrator 16.0.4, SVG Export Plug-In . SVG Version: 6.00 Build 0)  -->
<!DOCTYPE svg PUBLIC "-//W3C//DTD SVG 1.1//EN" "http://www.w3.org/Graphics/SVG/1.1/DTD/svg11.dtd">
<svg version="1.1" id="Layer_1" xmlns="http://www.w3.org/2000/svg" xmlns:xlink="http://www.w3.org/1999/xlink" x="0px" y="0px"
	 width="44.799px" height="44.799px" viewBox="0 0 44.799 44.799" enable-background="new 0 0 44.799 44.799" xml:space="preserve">
<path d="M38.398,22.222c-0.025-0.296-0.643-0.744-0.643-0.744s0.389-1.965,0.389-2.552c0-0.589-0.921-1.063-1.146-1.202
	c-0.229-0.141-1.437-0.955-3.127-1.203c-1.691-0.248-11.95-1.63-12.404-1.63s-0.396,0.769,0.349,0.932
	c0.745,0.162,11.449,1.979,11.449,1.979l1.07-0.257c0,0,1.922,0.651,2.023,1.188c-0.357,0.194-4.538,1.536-6.865,2.77
	c-4.443-0.817-14.938-0.863-14.938-0.863s-6.103-1.291-6.434-1.361c-0.331-0.072-0.283-0.369-0.113-0.874
	c0.17-0.504,0.26-1.104,0.38-1.768c0.12-0.664-0.473-0.629-0.523-0.326c-0.05,0.303-1.536,3.537-1.464,3.815
	c0.072,0.279,0.58,0.769,0.65,0.513c0.07-0.256,0.489-0.151,0.489-0.151s3.083,1.723,4.433,2.061
	c1.35,0.338,1.419,2.211,1.419,2.211l-0.002-0.002c0.107,0.562,0.274,1.254,0.402,1.354c0.167,0.131,0.925,0.379,3.594,0.818
	c2.161,0.354,7.2,0.152,8.01,0.116c-0.277-0.319-0.558-0.613-0.558-0.613l-0.092-0.932l-8.542-0.128c0,0-0.329-1.505-0.597-2.292
	c-0.268-0.789,1.109-1.805,5.088-1.583c1.373,0.069,7.68,0.885,8.959,0.899c1.584-0.423,7.098-2.924,7.559-2.895
	c0.459,0.03,0.511,0.497,0.455,0.908c-0.055,0.411-0.59,2.621-0.59,2.621l-1.256,2.935c0,0-0.006,0.022-0.002,0.06
	c-0.334,0.247-1.586,1.157-2.553,1.65c-0.296,0.148-0.568,0.179-0.809,0.083c-0.264-0.104-0.442-0.336-0.549-0.518
	c0.002-0.516-0.658-2.759-1.229-3.696c-0.651-1.069-1.727-0.854-2.106-0.325c-0.346,0.479-2.537,3.443-3.123,3.916
	c-0.342,0.016-2.143,0.093-4.052,0.093c-1.494,0-3.053-0.048-4.029-0.209c-2.158-0.354-3.382-0.637-3.636-0.837
	c-0.182-0.144-0.369-1.046-0.447-1.467c-0.57-0.216-3.355-1.277-3.923-1.494c-0.634-0.241-2.316-0.641-2.327,0.372
	c-0.012,1.013-0.163,2.361,0.605,2.793c0.768,0.431,3.485,1.814,4.131,2.151c0.646,0.336,1.78,0.662,3.106,0.291
	c1.722,1.06,9.576,1.104,10.472,1.069c0.761-0.029,0.792-1.345,0.633-1.975c1.188-0.457,2.401-3.611,3.369-3.764
	c1.047-0.162,1.352,2.065,1.455,2.597c0.088,0.458,0.64,0.543,0.938,0.578c0.121,0.204,0.33,0.472,0.645,0.597
	c0.115,0.046,0.236,0.068,0.361,0.068c0.19,0,0.393-0.055,0.602-0.159c0.964-0.49,2.204-1.391,2.562-1.654
	c0.151,0.106,0.533,0.146,1.489-0.221C37.739,25.585,38.424,22.519,38.398,22.222z M9.352,25.655
	c-0.104,0.271-0.502,0.365-0.889,0.217c-0.387-0.149-0.615-0.489-0.51-0.76c0.104-0.27,0.502-0.365,0.889-0.216
	C9.228,25.047,9.456,25.388,9.352,25.655z M14.939,27.952c-0.073,0.279-0.458,0.421-0.858,0.314
	c-0.401-0.104-0.667-0.416-0.593-0.695c0.074-0.278,0.458-0.421,0.858-0.313C14.747,27.36,15.012,27.674,14.939,27.952z
	 M22.107,29.575c-0.501,0-0.908-0.282-0.908-0.632c0-0.349,0.406-0.632,0.908-0.632c0.501,0,0.907,0.283,0.907,0.632
	C23.015,29.293,22.608,29.575,22.107,29.575z M24.12,29.657c-0.5,0-0.908-0.283-0.908-0.633c0-0.349,0.406-0.632,0.908-0.632
	s0.908,0.283,0.908,0.632C25.028,29.374,24.622,29.657,24.12,29.657z"/>
</svg>
