<?xml version="1.0" encoding="utf-8"?>
<!-- Generator: Adobe Illustrator 16.0.4, SVG Export Plug-In . SVG Version: 6.00 Build 0)  -->
<!DOCTYPE svg PUBLIC "-//W3C//DTD SVG 1.1//EN" "http://www.w3.org/Graphics/SVG/1.1/DTD/svg11.dtd">
<svg version="1.1" id="Layer_1" xmlns="http://www.w3.org/2000/svg" xmlns:xlink="http://www.w3.org/1999/xlink" x="0px" y="0px"
	 width="54.293px" height="54.292px" viewBox="0 0 54.293 54.292" enable-background="new 0 0 54.293 54.292" xml:space="preserve">
<path d="M35.604,17.326c-0.112-0.16-0.334-0.198-0.494-0.086c-0.159,0.112-0.198,0.334-0.086,0.494
	c0.37,0.526,1.064,3.558,1.729,7.544c0.637,3.817,1.022,7.189,0.92,8.016c-0.049,0.406-0.387,2.53-2.129,4.467
	c-1.608,1.787-3.881,2.848-6.762,3.166v-0.635l0.889-1.672c0.056-0.104,0.017-0.232-0.09-0.287
	c-0.103-0.057-0.229-0.018-0.287,0.088l-0.912,1.719c-0.016,0.031-0.023,0.064-0.023,0.101v0.729
	c-0.36,0.031-0.728,0.053-1.106,0.061c-0.292,0.007-0.577,0-0.859-0.011v-0.777c0-0.033-0.009-0.068-0.024-0.101l-0.913-1.719
	c-0.055-0.104-0.184-0.145-0.287-0.088c-0.104,0.055-0.144,0.184-0.089,0.287l0.889,1.672v0.705
	c-2.879-0.203-5.21-1.322-6.947-3.336c-0.971-1.125-1.51-2.271-1.769-2.939c0.097-1.44,0.823-12.013,1.253-13.7
	c0.344-1.02,3.898-8.3,3.934-8.749c0.036-0.449-1.099-1.323-1.3-1.087c-0.2,0.236-3.165,7.679-3.261,8.532
	c-0.094,0.854-0.07,2.525-0.07,2.525s-0.531-0.177-0.603,0c-0.072,0.176-0.716,8.773-0.819,10.039
	c-0.103,1.267-0.989,6.5-0.103,7.822c0.746,1.115,2.096,1.608,2.503,1.737l3.031,1.305l0.908-1.573l-2.858-1.574l0,0
	c-0.345-0.22-1.743-1.134-2.167-1.877c-0.208-0.367-0.322-1.018-0.385-1.64c0.295,0.508,0.671,1.062,1.146,1.616
	c1.435,1.672,4.063,3.641,8.493,3.641c0.103,0,0.206-0.002,0.311-0.004c3.82-0.077,6.784-1.257,8.805-3.502
	c1.46-1.622,2.149-3.57,2.308-4.854C38.619,31.431,36.572,18.704,35.604,17.326z M22.337,41.68l-0.639,1.106l-2.505-1.08
	l0.779-1.328L22.337,41.68z"/>
</svg>
