<?xml version="1.0" encoding="utf-8"?>
<!-- Generator: Adobe Illustrator 16.0.4, SVG Export Plug-In . SVG Version: 6.00 Build 0)  -->
<!DOCTYPE svg PUBLIC "-//W3C//DTD SVG 1.1//EN" "http://www.w3.org/Graphics/SVG/1.1/DTD/svg11.dtd">
<svg version="1.1" id="Layer_1" xmlns="http://www.w3.org/2000/svg" xmlns:xlink="http://www.w3.org/1999/xlink" x="0px" y="0px"
	 width="44.8px" height="44.8px" viewBox="0 0 44.8 44.8" enable-background="new 0 0 44.8 44.8" xml:space="preserve">
<g>
	<path d="M38.4,18.478v-3.196H11.421h-0.452H6.4v10.135h1.778h0.328l0.103-0.312c0.956-2.937,2.316-6.276,2.872-6.627h2.09v5.226
		h4.222h0.603h6.562V22.76h5.896v-4.283h2.826c0.004,0.186,0.037,7.6,0,8.624c0,0.018-0.002,0.032-0.002,0.049
		c-0.365-0.162-0.893-0.021-1.268,0.351c-0.428,0.428-0.643,0.823-0.641,1.181c0.002,0.229,0.094,0.439,0.268,0.607
		c0.156,0.152,0.342,0.23,0.54,0.23c0.106,0,0.218-0.022,0.327-0.068c0.74-0.295,1.35-1.495,1.379-2.33
		c0.035-1.034,0.004-8.317,0-8.644h1.363c-0.004,0.794-0.031,7.562,0.002,8.535c0.028,0.833,0.641,2.033,1.377,2.33
		c0.112,0.044,0.223,0.064,0.328,0.064c0.198,0,0.385-0.076,0.543-0.229c0.172-0.168,0.264-0.378,0.266-0.607
		c0.002-0.355-0.213-0.754-0.641-1.18c-0.375-0.375-0.898-0.517-1.269-0.353c0-0.017,0-0.032-0.002-0.05
		c-0.033-0.95-0.006-7.759-0.002-8.513L38.4,18.478L38.4,18.478z M32.677,28.892c-0.107,0.043-0.166,0.02-0.221-0.037
		c-0.074-0.07-0.084-0.131-0.084-0.179c-0.002-0.181,0.168-0.452,0.463-0.75c0.178-0.18,0.379-0.241,0.504-0.241
		c0.045,0,0.08,0.008,0.104,0.021c0.022,0.015,0.006,0.086-0.01,0.134l0.061,0.021C33.293,28.351,32.956,28.781,32.677,28.892z
		 M36.486,27.599c0.084-0.055,0.365-0.023,0.605,0.219c0.297,0.295,0.467,0.568,0.467,0.75c0,0.045-0.012,0.106-0.084,0.179
		c-0.059,0.056-0.113,0.079-0.225,0.036c-0.273-0.109-0.611-0.541-0.814-1.029l0.062-0.021
		C36.48,27.685,36.462,27.613,36.486,27.599z M7.851,24.511H7.307v-8.324h3.663v1.584C10.167,18.415,9.119,20.671,7.851,24.511z
		 M11.876,16.188h25.62v1.386h-25.62V16.188z M17.793,23.099h-3.619v-4.337h3.617L17.793,23.099L17.793,23.099z M24.351,23.099
		h-5.957v-4.337h5.957v3.998V23.099z M30.247,22.155h-5.289v-3.393h5.289V22.155z"/>
	<circle cx="21.506" cy="20.975" r="1.093"/>
</g>
</svg>
