<?xml version="1.0" encoding="utf-8"?>
<!-- Generator: Adobe Illustrator 16.0.4, SVG Export Plug-In . SVG Version: 6.00 Build 0)  -->
<!DOCTYPE svg PUBLIC "-//W3C//DTD SVG 1.1//EN" "http://www.w3.org/Graphics/SVG/1.1/DTD/svg11.dtd">
<svg version="1.1" id="Layer_1" xmlns="http://www.w3.org/2000/svg" xmlns:xlink="http://www.w3.org/1999/xlink" x="0px" y="0px"
	 width="44.8px" height="44.8px" viewBox="0 0 44.8 44.8" enable-background="new 0 0 44.8 44.8" xml:space="preserve">
<path d="M22.4,6.4c-8.838,0-16,7.163-16,16c0,8.837,7.162,16,16,16c8.835,0,16-7.162,16-16C38.4,13.563,31.236,6.4,22.4,6.4z
	 M8.4,22.4c0-7.72,6.279-14,14-14c3.559,0,6.802,1.347,9.273,3.542l-4.217,4.216c-2.463-0.767-4.52-1.229-4.52-1.229
	s-0.411,0.331,0,0.517c0.149,0.068,1.86,0.561,3.967,1.266l-8.796,8.796c-0.608-0.422-1.206-0.926-1.807-1.537
	c-1.112-1.128-1.948-2.511-3.422-4.433c-0.194-0.519,0.141-1.292,0-1.98c-0.145-0.689-0.154-1.424-0.289-1.65
	c-0.132-0.226-0.691-0.226-1.023,0.13c-0.335,0.354-0.1,1.525,0.042,2.188c0.084,0.688,0.07,0.933,0.108,1.377
	c0.123,0.198,0.958,1.531,1.241,1.982c0.035,0.396,0.143,1.509,0.223,1.598c0.097,0.104,0.192,0.37,0.192,0.37v0.272
	c0,0-1.791-1.597-4.338-1.921c0,0.309,0,0.68,0,0.872c2.158,0.129,4.338,2.065,4.338,2.065v0.842l1.033,0.631l0.564-0.229
	c0,0,0.506,0.611,1.156,1.4l-4.188,4.188C9.748,29.203,8.4,25.961,8.4,22.4z M29,17.445c3.139,1.15,6.33,2.597,6.396,3.771
	c0.129,2.281-4.74,5.383-10.268,5.834c-2.047,0.166-3.689,0-5.168-0.566L29,17.445z M22.4,36.4c-3.441,0-6.594-1.254-9.034-3.321
	l4.038-4.037c0.713,0.866,1.347,1.644,1.51,1.856c1.259,1.389,2.841,2.002,6.426,0.92c0.006-0.057,0.015-0.112,0.021-0.179
	l3.334-0.806l0.203-1.531l-0.84-1.416l-3.437,0.641c-0.039-0.059-0.074-0.108-0.123-0.182c-3.262,0.533-4.231-0.076-4.343-0.16
	c-0.102-0.076-0.937-0.707-1.081-0.816l0.016-0.014c3.496,1.066,7.224,0.113,8.664-0.197c0.151-0.032,0.354-0.088,0.599-0.159
	c-0.168,0.131-0.339,0.354,0.002,0.604c0.528,0.391,1.479,0.336,1.621-0.312c-0.621,0.014-0.591-0.494-0.562-0.65
	c0.488-0.184,1.037-0.41,1.6-0.676c0.152,0.139,0.387,0.447-0.018,0.812c0.549,0.371,1.273-0.238,1.393-0.887
	c0.066-0.377-0.154-0.449-0.354-0.445c1.892-1.039,3.662-2.5,3.729-4.251c0.062-1.646-3.023-3.186-6.186-4.326l3.501-3.501
	c2.067,2.441,3.321,5.593,3.321,9.034C36.4,30.122,30.119,36.4,22.4,36.4z M21.533,31.468c0-0.334,0.357-0.605,0.798-0.605
	c0.439,0,0.796,0.271,0.796,0.605s-0.356,0.605-0.796,0.605C21.891,32.076,21.533,31.802,21.533,31.468z M25.502,29.894
	c-0.44-0.688-0.646-1.008-0.765-1.191l3.229-0.598l0.621,1.07L25.502,29.894z M28.695,29.351l-0.176,1.326l-3.135,0.756
	c0.062-0.496,0.143-1.123,0.168-1.354L28.695,29.351z"/>
</svg>
