<?xml version="1.0" encoding="utf-8"?>
<!-- Generator: Adobe Illustrator 16.0.4, SVG Export Plug-In . SVG Version: 6.00 Build 0)  -->
<!DOCTYPE svg PUBLIC "-//W3C//DTD SVG 1.1//EN" "http://www.w3.org/Graphics/SVG/1.1/DTD/svg11.dtd">
<svg version="1.1" id="Layer_1" xmlns="http://www.w3.org/2000/svg" xmlns:xlink="http://www.w3.org/1999/xlink" x="0px" y="0px"
	 width="43.4px" height="43.4px" viewBox="0 0 43.4 43.4" enable-background="new 0 0 43.4 43.4" xml:space="preserve">
<g>
	<circle cx="25.018" cy="21.699" r="2.724"/>
	<path d="M35.567,15.355c-1.01,0-17.365,0-17.365,0L6.2,15.562v10.927l12.002,1.557c0,0,15.863,0,17.062,0
		C37.729,28.044,37.85,15.355,35.567,15.355z M19.195,18.983c1.874-1.128,4.028-2.12,5.823-2.12c3.38,0,6.811,3.507,8.453,4.836
		c-1.645,1.33-5.073,4.837-8.453,4.837c-1.795,0-3.949-0.992-5.823-2.119V18.983z M21.441,16.348
		c-0.766,0.311-1.521,0.688-2.246,1.093v-1.093H21.441z M10.781,20.948c-1.066,0-1.765-0.749-1.765-1.672s0.539-1.671,1.605-1.671
		s1.932,0.749,1.932,1.671C12.554,20.198,11.846,20.948,10.781,20.948z M19.195,25.958c0.727,0.406,1.48,0.781,2.246,1.094h-2.246
		V25.958z M35.177,27.05h-6.58c3.767-1.527,6.16-4.674,6.358-4.85l0.572-0.502l-0.572-0.501c-0.198-0.174-2.594-3.322-6.358-4.85
		h6.826c0.387,0.491,0.926,2.797,0.752,6.167C36.028,25.401,35.465,26.772,35.177,27.05z"/>
</g>
</svg>
