<?xml version="1.0" encoding="utf-8"?>
<!-- Generator: Adobe Illustrator 16.0.4, SVG Export Plug-In . SVG Version: 6.00 Build 0)  -->
<!DOCTYPE svg PUBLIC "-//W3C//DTD SVG 1.1//EN" "http://www.w3.org/Graphics/SVG/1.1/DTD/svg11.dtd">
<svg version="1.1" id="Layer_1" xmlns="http://www.w3.org/2000/svg" xmlns:xlink="http://www.w3.org/1999/xlink" x="0px" y="0px"
	 width="44.797px" height="44.799px" viewBox="0 0 44.797 44.799" enable-background="new 0 0 44.797 44.799" xml:space="preserve">
<path d="M37.828,28.948c-0.047,0-0.09,0.008-0.131,0.021c-0.393-0.07-1.354-1.381-1.596-2.446c-0.271-1.203,0.26-2.656,0.438-3.093
	c0.031-0.079,0.059-0.137,0.059-0.141c0,0,1.855-4.204-0.754-6.371c-4.318-3.586-13.796-5.556-14.177-4.273
	c-0.614,2.058,13.021,1.458,14.58,6.15c1.707,5.138-4.843,6.107-6.66,6.352c-1.816,0.243-8.605,2.191-18.324,0.736
	c-2.946-0.373-2.451-2.631-3.914-2.854c-1.283-0.196-0.991,1.09-0.691,3.666c0.3,2.576,0.633,3.18,3.088,3.044
	c1.332-0.106,1.063-2.712,1.063-2.712s0.122,0.036,3.751,0.024c-0.279,0.009-1.443,0.105-1.123,1.31
	c0.364,1.364,6.176,1.184,6.176,1.184l-0.144-2.584c0.056,0,0.111-0.002,0.166-0.002l0.189,2.652c0,0,2.244,0.994,6.642,0.629
	c-0.002-0.025-0.002-0.054-0.002-0.08c1.395-0.019,5.896-1.494,6.095-1.561l0.151-0.146c-0.051-0.388-0.299-2.355-0.312-2.449
	l-0.012-0.117l-0.109,0.041c-0.646,0.238-1.532,0.473-1.586,0.484c-0.071,0.014-2.727,0.527-4.229,0.582
	c0.002-0.127,0.002-0.24,0.002-0.338c1.725-0.126,3.138-0.292,4.004-0.508c0.908-0.29,1.806-0.5,2.671-0.779
	c0.01,0.004,0.024,0.012,0.034,0.018l0.231-0.086c-0.008-0.004-0.016-0.01-0.021-0.014c0.266-0.091,0.525-0.191,0.783-0.304
	c0.221,0.63,0.521,1.756,0.303,2.728c-0.242,1.065-1.203,2.375-1.596,2.446c-0.041-0.014-0.084-0.021-0.129-0.021
	c-0.32,0-0.572,0.361-0.572,0.824c0,0.016,0.098,1.586,0.572,1.586s0.57-1.57,0.57-1.586c0-0.276-0.09-0.519-0.23-0.666
	c0.477-0.127,1.33-1.522,1.562-2.544c0.229-1.025-0.082-2.19-0.31-2.842l-0.008-0.007c0.678-0.312,1.33-0.708,1.94-1.289
	c-0.014,0.032-0.024,0.072-0.037,0.105c-0.229,0.65-0.541,1.816-0.311,2.844c0.232,1.021,1.088,2.417,1.562,2.543
	c-0.142,0.148-0.23,0.39-0.23,0.667c0,0.017,0.098,1.585,0.572,1.585c0.474,0,0.572-1.566,0.572-1.582
	C38.398,29.312,38.146,28.948,37.828,28.948z M24.422,29.612c-0.373,0-0.678-0.402-0.678-0.896c0-0.498,0.305-0.897,0.678-0.897
	S25.1,28.22,25.1,28.716S24.795,29.612,24.422,29.612z M30.801,26.572c0.209-0.056,0.88-0.239,1.429-0.436
	c0.053,0.425,0.233,1.85,0.289,2.281l-1.718-0.312V26.572z M30.715,28.274l1.438,0.265c-1.106,0.354-4.571,1.434-5.696,1.44
	c0-0.211-0.002-0.455-0.002-0.714C27.59,29.239,30.416,28.368,30.715,28.274z M30.621,26.612v1.501
	c-0.439,0.136-3.111,0.946-4.164,0.968c0-0.646,0-1.361,0.004-1.906C27.817,27.128,30.097,26.712,30.621,26.612z M32.744,32.26
	c-0.133-0.147-0.301-0.914-0.301-1.299c0-0.326,0.156-0.554,0.301-0.554c0.141,0,0.299,0.228,0.299,0.554
	C33.042,31.346,32.876,32.111,32.744,32.26z M37.828,31.072c-0.135-0.146-0.301-0.915-0.301-1.299c0-0.326,0.158-0.555,0.301-0.555
	s0.299,0.229,0.299,0.555C38.126,30.157,37.958,30.924,37.828,31.072z"/>
</svg>
