<?xml version="1.0" encoding="utf-8"?>
<!-- Generator: Adobe Illustrator 16.0.4, SVG Export Plug-In . SVG Version: 6.00 Build 0)  -->
<!DOCTYPE svg PUBLIC "-//W3C//DTD SVG 1.1//EN" "http://www.w3.org/Graphics/SVG/1.1/DTD/svg11.dtd">
<svg version="1.1" id="Layer_1" xmlns="http://www.w3.org/2000/svg" xmlns:xlink="http://www.w3.org/1999/xlink" x="0px" y="0px"
	 width="44.8px" height="44.8px" viewBox="0 0 44.8 44.8" enable-background="new 0 0 44.8 44.8" xml:space="preserve">
<g>
	<circle cx="14.667" cy="22.984" r="1.347"/>
	<path d="M37.92,22.55c-0.146-0.124-3.584-3.042-5.951-3.042c-2.368,0-5.807,2.918-5.95,3.042l-0.482,0.413l0.482,0.412
		c0.145,0.123,3.582,3.041,5.95,3.041c2.367,0,5.806-2.918,5.951-3.041l0.479-0.412L37.92,22.55z M31.966,25.334
		c-1.393,0-3.566-1.463-4.738-2.371c1.172-0.911,3.344-2.372,4.738-2.372s3.566,1.462,4.738,2.372
		C35.538,23.873,33.363,25.334,31.966,25.334z"/>
	<circle cx="31.974" cy="22.984" r="1.347"/>
	<path d="M25.671,26.826c-0.252,0-0.477,0.11-0.633,0.283c-0.35-0.777-0.746-3.384-0.746-4.383c0-1.312,0.803-4.06,1.098-5.021
		h12.658v-1.445H6.4v1.445h0.013v3.838h3.508c-0.743,0.527-1.257,0.962-1.312,1.008l-0.48,0.413l0.48,0.412
		c0.146,0.123,3.584,3.041,5.952,3.041c2.368,0,5.806-2.918,5.951-3.041l0.48-0.412l-0.48-0.413
		c-0.053-0.046-0.567-0.479-1.312-1.008h1.023v-3.838h0.557c0.295,0.964,1.101,3.711,1.101,5.021c0,0.999-0.551,3.604-0.899,4.383
		c-0.157-0.173-0.382-0.283-0.634-0.283c-0.474,0-0.857,0.384-0.857,0.856c0,0.476,0.385,0.858,0.857,0.858
		c0.316,0,0.59-0.174,0.738-0.429l0.008,0.004c0.051-0.094,1.328-3.683,1.328-5.392c0-1.333-0.74-3.924-1.072-5.021h3.475
		c-0.334,1.1-1.074,3.688-1.074,5.021c0,1.709,1.125,5.298,1.178,5.392l0.008-0.004c0.148,0.255,0.422,0.429,0.736,0.429
		c0.477,0,0.859-0.385,0.859-0.858C26.531,27.209,26.146,26.826,25.671,26.826z M19.299,22.963
		c-1.171,0.909-3.344,2.371-4.739,2.371c-1.394,0-3.568-1.463-4.739-2.371c0.545-0.425,1.31-0.962,2.109-1.421h5.258
		C17.989,22.001,18.754,22.539,19.299,22.963z M19.683,21H13.18v-3.024h6.502V21z"/>
</g>
</svg>
