<?xml version="1.0" encoding="utf-8"?>
<!-- Generator: Adobe Illustrator 16.0.4, SVG Export Plug-In . SVG Version: 6.00 Build 0)  -->
<!DOCTYPE svg PUBLIC "-//W3C//DTD SVG 1.1//EN" "http://www.w3.org/Graphics/SVG/1.1/DTD/svg11.dtd">
<svg version="1.1" id="Layer_1" xmlns="http://www.w3.org/2000/svg" xmlns:xlink="http://www.w3.org/1999/xlink" x="0px" y="0px"
	 width="48.689px" height="48.689px" viewBox="0 0 48.689 48.689" enable-background="new 0 0 48.689 48.689" xml:space="preserve">
<path d="M38.398,25.6c0-1.338-0.711-2.469-1.727-3.002c-0.051-3.912-0.156-9.849-0.33-10.382c-0.361-0.545-3.559-2.36-3.559-2.36
	s-2.135-1.206-3.164-1.485c-1.031-0.279-0.492,1.896-0.492,1.896s4.965,1.74,5.496,3.396c-0.004,0.121-0.012,0.42-0.014,0.776
	c-2.588-2.943-6.625-3.982-9.312-4.246c-0.377-0.277-0.825-0.441-1.309-0.441c-0.452,0-0.87,0.148-1.233,0.396
	c-3.028,0.133-8.546,0.862-11.16,5.002c-0.82,1.299-0.897,5.504-0.753,8.546c-0.34,0.541-0.549,1.192-0.549,1.905
	c0,1.031,0.425,1.941,1.081,2.557c0.517,2.691,1.482,6.666,2.562,7.301c0,0,0.353-0.732,0.285-1.547
	c2.188,3.611,5.868,5.998,10.047,5.998c4.814,0,8.98-3.16,10.945-7.729c-0.027,0.123-0.053,0.233-0.084,0.376
	c-0.451,1.994-3.238,3.832-3.041,5.23c0.195,1.397,0.986,3.066,1.969,2.414c0.98-0.653,2.15-5.524,2.332-6.425
	c0.182-0.897,0.43-2.021,0.758-4.214c0.096-0.469,0.09-0.896,0.043-1.292C37.919,27.66,38.398,26.699,38.398,25.6z M34.513,16.213
	c0.031,0.051,0.061,0.117,0.088,0.181c0.312,0.539,0.574,2.305,0.766,4.34c-1.457-3.665-4.312-6.468-7.803-7.572
	c-0.021-0.279-0.244-0.58-0.602-0.761c-0.184-0.092-0.375-0.139-0.553-0.143c-0.014-0.019-0.021-0.044-0.033-0.063
	c-0.027-0.297-0.09-0.58-0.193-0.843C29.073,11.944,32.683,13.315,34.513,16.213z M23.223,11.045
	c0.532-0.034,1.11-0.017,1.592,0.058c0.015,0.014,0.024,0.025,0.038,0.038c-0.002,0.015-0.004,0.026-0.004,0.044
	c0.006,0.463,0.182,1.023,0.479,1.504c-0.35-0.032-0.701-0.06-1.059-0.06c-0.554,0-1.095,0.056-1.627,0.137
	c-0.014-0.096-0.033-0.188-0.033-0.289C22.607,11.881,22.852,11.354,23.223,11.045z M12.604,15.725
	c1.858-2.944,5.937-3.831,8.852-4.407c-0.039,0.286-0.178,0.668-0.378,0.939c-0.179,0.004-0.367,0.051-0.554,0.143
	c-0.482,0.244-0.727,0.712-0.541,1.045c0.012,0.021,0.034,0.03,0.049,0.05c-3.539,1.48-6.304,4.759-7.4,8.848
	c-0.135,0.034-0.264,0.085-0.394,0.139C12.005,19.391,12.034,16.629,12.604,15.725z M12.331,23.558
	c0.011-0.007,0.02-0.018,0.028-0.023c-0.008,0.043-0.012,0.089-0.02,0.133C12.339,23.631,12.335,23.594,12.331,23.558z
	 M24.268,38.906c-6.136,0-11.126-5.669-11.126-12.637c0-6.969,4.99-12.639,11.126-12.639c6.135,0,11.125,5.67,11.125,12.639
	C35.394,33.238,30.402,38.906,24.268,38.906z M36.923,27.031c-0.113-0.399-0.215-0.75-0.217-1.058c0-0.192-0.006-0.999-0.02-2.127
	c0.412,0.427,0.684,1.047,0.684,1.753C37.37,26.154,37.193,26.637,36.923,27.031z"/>
</svg>
