<?xml version="1.0" encoding="utf-8"?>
<!-- Generator: Adobe Illustrator 16.0.4, SVG Export Plug-In . SVG Version: 6.00 Build 0)  -->
<!DOCTYPE svg PUBLIC "-//W3C//DTD SVG 1.1//EN" "http://www.w3.org/Graphics/SVG/1.1/DTD/svg11.dtd">
<svg version="1.1" id="Layer_1" xmlns="http://www.w3.org/2000/svg" xmlns:xlink="http://www.w3.org/1999/xlink" x="0px" y="0px"
	 width="44.8px" height="44.799px" viewBox="0 0 44.8 44.799" enable-background="new 0 0 44.8 44.799" xml:space="preserve">
<path d="M32.806,8.365c-2.691,1.877-7.9,7.402-9.451,9.001l-0.006-0.005c-0.358,0.346-6.153,5.958-10.496,10.446
	c-1.139,1.062-2.115,2.021-2.598,2.604C10.021,30.698,9.794,31,9.577,31.309c-0.546,0.617-0.969,1.13-1.22,1.49
	c-1.765,2.529-2.609,4.349-1.366,5.592l0.79-0.79c-0.215-0.216-0.354-0.548-0.142-1.238c0.652,0.3,2.007,0.843,2.77,0.611
	c0.257-0.08,0.499-0.235,0.74-0.478c0.448-0.447,0.834-1.135,1.238-1.859c0.157-0.281,0.316-0.569,0.486-0.85
	c0.149-0.252,0.734-0.957,2.648-2.871c2.648-2.647,6.31-6.076,6.346-6.11l0.244-0.229l-2.243-2.242
	c0.981-0.969,1.868-1.839,2.578-2.53c0.633,0.617,1.889,1.848,2.651,2.663c0.477,0.513,0.436,1.258,0.365,1.656
	c-0.056,0.325-0.164,0.618-0.287,0.861c-0.305-0.176-0.729-0.12-1.03,0.183c-0.351,0.352-0.394,0.875-0.095,1.173
	c0.27,0.271,0.721,0.248,1.064-0.02l0,0c0.02-0.008,0.03-0.024,0.047-0.035c0.021-0.016,0.039-0.021,0.061-0.041
	c0.002-0.002,0.003-0.004,0.003-0.006c0.086-0.058,0.172-0.109,0.251-0.188c0.396-0.396,0.713-1.056,0.835-1.781
	c0.164-0.958-0.043-1.808-0.584-2.387c-0.769-0.822-2.021-2.052-2.667-2.68c0.426-0.414,0.744-0.722,0.916-0.891l0.011,0.011
	c0.021-0.021,0.408-0.421,1.036-1.065c0.628,0.645,1.857,1.897,2.681,2.666c0.578,0.541,1.428,0.75,2.387,0.587
	c0.729-0.126,1.388-0.441,1.781-0.836c0.079-0.08,0.133-0.166,0.188-0.25c0.002-0.002,0.006-0.004,0.006-0.006
	c0.019-0.017,0.025-0.04,0.043-0.059c0.01-0.015,0.025-0.03,0.033-0.046H32.14c0.268-0.346,0.293-0.798,0.021-1.069
	c-0.297-0.297-0.822-0.254-1.174,0.098c-0.301,0.301-0.357,0.727-0.182,1.029c-0.244,0.125-0.537,0.234-0.863,0.29
	c-0.396,0.066-1.144,0.111-1.652-0.369c-0.816-0.761-2.052-2.017-2.666-2.65c3.484-3.565,5.68-5.865,7.82-7.358
	c2.936-2.046,3.748-1.9,4.16-1.49L38.4,6.998C37.158,5.756,35.338,6.602,32.806,8.365z M12.8,32.086
	c-0.318,0.319-0.836,0.32-1.155,0.002c-0.319-0.319-0.318-0.838,0-1.156c0.319-0.319,0.837-0.319,1.156,0
	C13.122,31.25,13.122,31.768,12.8,32.086z M21.186,24.563c-0.586,0.55-2.143,2.019-3.787,3.608l-1.686-1.686
	c1.178-1.189,2.381-2.394,3.499-3.499c0.081-0.071,0.153-0.132,0.215-0.185L21.186,24.563z"/>
</svg>
