<?xml version="1.0" encoding="utf-8"?>
<!-- Generator: Adobe Illustrator 16.0.4, SVG Export Plug-In . SVG Version: 6.00 Build 0)  -->
<!DOCTYPE svg PUBLIC "-//W3C//DTD SVG 1.1//EN" "http://www.w3.org/Graphics/SVG/1.1/DTD/svg11.dtd">
<svg version="1.1" id="Layer_1" xmlns="http://www.w3.org/2000/svg" xmlns:xlink="http://www.w3.org/1999/xlink" x="0px" y="0px"
	 width="47.357px" height="47.355px" viewBox="0 0 47.357 47.355" enable-background="new 0 0 47.357 47.355" xml:space="preserve">
<path d="M38.288,17.698c-0.546-2.677-0.199-8.278-9.462-9.757c-7.521-1.2-14.419,1.685-15.631,8.306
	c-0.474-0.218-1.932-0.044-1.781-0.049c0.001,0,0.001,0.003,0.002,0.003c-0.145-0.007-0.401,0.006-0.859,0.12
	c-0.688,0.173-1.471,0.896-1.598,1.019H8.954v0.045v1.848h2.023c0.201-0.201,0.386-0.422,0.451-0.422c0.001,0,0.002,0,0.004,0.001
	c-0.005-0.001-0.015-0.005-0.02-0.014l0.146-0.086c-0.001-0.002,0.002-0.008,0.001-0.011c0.61-0.397,1.327-0.262,1.491-0.262
	c0-0.021,0.001-0.034,0.001-0.055c0.012,0.727,0.061,2.065,0.263,3.053c0,1.872-3.708,4.778-2.814,5.763
	c0.894,0.981,2.409,1.02,2.409,1.02s-0.985,1.873-0.543,2.393c0.443,0.519,1.676,0.295,1.676,0.295s-1.145,0.824-1.145,1.465
	c0,0.64,1.934,1.491,1.934,1.491s-0.355,3.544,2.548,3.299c2.902-0.246,3.393-1.064,3.393-1.064l0.861,3.582h11.232l-0.395-7.787
	C32.474,31.889,39.371,24.399,38.288,17.698z M10.774,19.062h-1.65v-1.555h1.65V19.062z M10.767,17.339H9.212
	c0.278-0.245,0.874-0.727,1.385-0.854c0.507-0.125,0.769-0.125,0.87-0.113c0.031,0.205,0.052,0.433,0.044,0.528
	C11.152,16.9,10.855,17.23,10.767,17.339z M11.539,18.49c-0.17,0.064-0.461,0.328-0.596,0.455v-1.549
	c0.104-0.115,0.328-0.326,0.57-0.326c0.002,0,0.005,0,0.007,0c0.002,0.001,0.005-0.002,0.007-0.001
	C11.543,17.559,11.541,18.133,11.539,18.49z M28.47,20.506c-0.656,0-2.375-2.644-3.244-2.644c-0.871,0-4.618,0-4.618,0h-7.546
	c0.007-0.308,0.014-0.53,0.029-0.73h12.097c0,0,7.582-0.142,7.916,0.533s0.375,2.549,0,2.841S29.126,20.506,28.47,20.506z"/>
</svg>
