<?xml version="1.0" encoding="utf-8"?>
<!-- Generator: Adobe Illustrator 16.0.4, SVG Export Plug-In . SVG Version: 6.00 Build 0)  -->
<!DOCTYPE svg PUBLIC "-//W3C//DTD SVG 1.1//EN" "http://www.w3.org/Graphics/SVG/1.1/DTD/svg11.dtd">
<svg version="1.1" id="Layer_1" xmlns="http://www.w3.org/2000/svg" xmlns:xlink="http://www.w3.org/1999/xlink" x="0px" y="0px"
	 width="44.8px" height="44.8px" viewBox="0 0 44.8 44.8" enable-background="new 0 0 44.8 44.8" xml:space="preserve">
<path d="M22.4,6.4c-8.837,0-16,7.163-16,16c0,8.837,7.163,16,16,16c8.837,0,16-7.162,16-16C38.4,13.563,31.238,6.4,22.4,6.4z
	 M35.002,16.32c-0.49,0.811-0.429,2.444-0.026,2.986c0.174-0.302,0.422-0.768,0.596-1.19c-0.043-0.022-0.08-0.068-0.111-0.141
	c-0.074-0.173-0.107-0.496-0.051-0.717c0.031,0.077,0.068,0.149,0.098,0.229c-0.004,0.229,0.059,0.467,0.111,0.509
	c0.012-0.032,0.016-0.059,0.027-0.091c0.022,0.066,0.043,0.135,0.063,0.201c-0.197,0.508-0.5,1.055-0.644,1.299
	c0.002,0.003,0.004,0.005,0.008,0.009c-0.022,0.037-0.047,0.083-0.073,0.133c-0.541,0.987-1.972,4.015-2.742,4.582
	c-0.782,0.578-6.858-0.563-9.096-0.847l9.915-9.916C33.838,14.262,34.484,15.254,35.002,16.32z M24.976,26.597l0.426-0.834
	l4.015,0.232l-0.298,0.869L24.976,26.597z M29.081,27.042v1.151l-4.162-0.319v-1.111L29.081,27.042z M25.326,25.63l-0.508,0.996
	l-0.026-0.002v0.055l-0.019,0.033h0.019v1.277l4.418,0.342c0,0,1.183,0.168,1.967,0.014c-0.256,0.449-0.877,0.973-1.414,0.988
	c-0.702,0.021-2.858-0.105-2.858-0.105s-4.268-0.576-4.929-1.346c-0.521-0.604-1.09-1.346-1.257-2.152l1.704-1.705
	c0.327-0.031,0.622-0.035,0.79-0.035c0.556,0,5.871,0.771,6.616,0.863c0.729,0.094,1.498,0.396,1.474,1.023h-1.707L25.326,25.63z
	 M22.4,8.4c3.559,0,6.802,1.347,9.275,3.542L20.253,23.365c-0.515,0.074-0.98,0.129-1.5,0.039c-1.238-0.215-2.049-1.108-3.843-1.623
	c-1.791-0.513-4.63-1.022-4.63-1.022s4.459-4.034,5.698-4.908c0.729-0.517,2.707-1.318,4.184-1.131
	c1.023,0.13,1.672,1.008,2.048,1.664c0.519,0.438,1.327,0.234,1.279-0.299c-0.041-0.451-0.375-0.896-1.279-1.621
	c-0.907-0.727-3.096-0.812-5.207-0.172c-1.74,0.526-6.718,4.553-8.418,5.957C9.625,13.549,15.416,8.4,22.4,8.4z M16.276,26.923
	c-0.264,0.244-0.871,0.213-1.462,0.105c-0.757-0.127-2.681-0.717-4.086-1.131c-1.406-0.416-1.899-2.773-1.899-2.773
	s0.833-1.707,0.961-1.686c1.045,0.127,4.715,1.151,4.715,1.151s2.304,0.854,2.148,1.977C16.597,25.242,16.818,26.421,16.276,26.923z
	 M18.522,25.095l-0.663,0.662c0.053-0.203,0.084-0.371,0.125-0.455C18.057,25.15,18.273,25.089,18.522,25.095z M8.518,24.105
	c0.083,0.246,0.178,0.484,0.291,0.707c0.81,1.601,3.009,2.281,6.007,2.688c0.524,0.068,0.952,0.059,1.31-0.008l-4.183,4.182
	C10.104,29.605,8.875,26.99,8.518,24.105z M22.4,36.4c-3.441,0-6.593-1.254-9.034-3.321l6.665-6.664
	c0.503,0.819,1.29,1.911,2.028,2.217c1.129,0.47,3.733,1.131,5.397,1.131s3.115,0.576,4.545-1.707
	c1.602-0.299,3.137-4.758,3.67-5.61c0.533-0.854,0.533-1.559,0.256-1.771c0.109-0.119,0.201-0.289,0.287-0.478
	c0.116,0.719,0.186,1.452,0.186,2.204C36.4,30.122,30.122,36.4,22.4,36.4z"/>
</svg>
