<?xml version="1.0" encoding="utf-8"?>
<!-- Generator: Adobe Illustrator 16.0.4, SVG Export Plug-In . SVG Version: 6.00 Build 0)  -->
<!DOCTYPE svg PUBLIC "-//W3C//DTD SVG 1.1//EN" "http://www.w3.org/Graphics/SVG/1.1/DTD/svg11.dtd">
<svg version="1.1" id="Layer_1" xmlns="http://www.w3.org/2000/svg" xmlns:xlink="http://www.w3.org/1999/xlink" x="0px" y="0px"
	 width="47.457px" height="47.457px" viewBox="0 0 47.457 47.457" enable-background="new 0 0 47.457 47.457" xml:space="preserve">
<g>
	<rect x="29.104" y="8.364" width="1.787" height="1.687"/>
	<rect x="34.717" y="8.364" width="1.789" height="1.687"/>
	<path d="M34.482,8.26H33.73v1.894h0.752V8.26z M34.275,9.946h-0.336V8.468h0.336V9.946z"/>
	<path d="M38,8.364v-0.57H27.887v2.956h8.424v0.362H25.539v0.261h-0.294c-0.431-0.637-1.102-1.055-1.863-1.055
		c-0.729,0-1.373,0.384-1.805,0.974v-0.317H10.938v-0.291h8.632V7.729H9.456V8.3H9.057v1.685h0.399v0.699h0.403v3.263h0.818v9.773
		c-0.409,0.56-0.656,1.274-0.656,2.055c0,1.438,0.834,2.647,1.984,3.089c1.025,6.174,5.853,10.865,11.648,10.865
		c5.776,0,10.595-4.664,11.638-10.811c1.232-0.387,2.145-1.643,2.145-3.146c0-0.985-0.396-1.86-1.02-2.454v-9.38h0.176v-0.104h0.799
		V10.75H38v-0.7h0.4V8.364H38z M25.784,11.335l10.526-0.016v2.41h-0.83h-8.342c-0.392-0.135-0.793-0.247-1.354-0.322V11.335
		L25.784,11.335z M35.693,22.817v-8.878h0.512v9.203C36.045,23.017,35.875,22.908,35.693,22.817z M21.364,11.182v0.449
		c-0.207,0.396-0.334,0.852-0.334,1.345c0,0.162,0.019,0.32,0.043,0.475c-0.289,0.072-0.573,0.159-0.854,0.255h-9.281v-2.524H21.364
		z M9.669,10.476v-2.54h9.688v2.54H9.669z M10.892,14.051h0.509v8.961c-0.188,0.13-0.354,0.289-0.509,0.461V14.051z M11.615,22.89
		v-8.977h8.049c-3.52,1.416-6.274,4.644-7.359,8.685C12.059,22.66,11.832,22.764,11.615,22.89z M23.653,38.75
		c-5.984,0-10.852-5.527-10.852-12.322c0-6.797,4.867-12.326,10.852-12.326c5.981,0,10.853,5.529,10.853,12.326
		C34.504,33.223,29.635,38.75,23.653,38.75z M27.686,13.939h7.795v8.772c-0.156-0.062-0.318-0.111-0.486-0.143
		C33.91,18.559,31.176,15.361,27.686,13.939z M37.787,10.542H28.1v-0.39h0.717V8.26H28.1V8h9.688V10.542z M28.271,9.946V8.468h0.339
		v1.478H28.271z"/>
	<rect x="15.708" y="8.3" width="1.79" height="1.685"/>
	<rect x="10.198" y="8.3" width="1.789" height="1.685"/>
	<path d="M12.259,10.088h0.753V8.195h-0.753V10.088z M12.467,8.402h0.337v1.479h-0.337V8.402z"/>
	<path d="M17.887,10.088h0.752V8.195h-0.752V10.088z M18.094,8.402h0.338v1.479h-0.338V8.402z"/>
</g>
</svg>
