<?xml version="1.0" encoding="utf-8"?>
<!-- Generator: Adobe Illustrator 16.0.4, SVG Export Plug-In . SVG Version: 6.00 Build 0)  -->
<!DOCTYPE svg PUBLIC "-//W3C//DTD SVG 1.1//EN" "http://www.w3.org/Graphics/SVG/1.1/DTD/svg11.dtd">
<svg version="1.1" id="Layer_1" xmlns="http://www.w3.org/2000/svg" xmlns:xlink="http://www.w3.org/1999/xlink" x="0px" y="0px"
	 width="47.521px" height="47.521px" viewBox="0 0 47.521 47.521" enable-background="new 0 0 47.521 47.521" xml:space="preserve">
<g>
	<circle cx="28.541" cy="24.906" r="1.388"/>
	<path d="M26.376,31.472c-0.031,0.037-0.795,0.928-2.562,0.928c-1.772,0-2.598-0.779-2.611-0.797c-0.133-0.133-0.351-0.133-0.481,0
		c-0.135,0.131-0.136,0.35-0.004,0.482c0.041,0.041,1.01,0.998,3.099,0.998c2.109,0,3.052-1.133,3.091-1.18
		c0.116-0.146,0.097-0.357-0.051-0.479C26.711,31.306,26.496,31.325,26.376,31.472z"/>
	<path d="M38.358,24.956c-0.242-2.236-1.175-2.706-1.91-2.706c-0.123,0-0.241,0.016-0.355,0.04c0.12-0.604,0.207-2.082,0.207-2.417
		C36.297,13.184,30.684,7.761,23.76,7.761c-6.924,0-12.537,5.423-12.537,12.112c0,0.479-0.095,1.65-0.013,2.389
		c-0.046-0.003-0.089-0.012-0.135-0.012c-0.737,0-1.667,0.47-1.912,2.706c-0.362,3.312,1.75,4.469,2.545,4.781
		c0.523,1.611,3.671,10.021,11.975,10.023h0.08c8.356-0.055,11.521-8.418,12.048-10.021C36.606,29.427,38.721,28.273,38.358,24.956z
		 M21.455,16.302c0,0,0.816,0.838-0.378,1.437c1.065,0.641,2.513-1.437,2.513-1.437s0.32,1.493-0.662,2.005
		c1.708,1.025,3.139-2.005,3.139-2.005s5.81-0.331,8.14,6.152c-3.154-0.15-9.349-0.063-10.375-0.047v-0.006
		c-0.278-0.004-4.793-0.076-8.287-0.02c-0.87-0.03-1.638-0.037-2.06,0.004c-0.078,0.008-0.159,0.022-0.24,0.033
		C15.422,17.425,21.455,16.302,21.455,16.302z M18.719,23.517c-0.562,0-1.042,0.335-1.261,0.814
		c-0.087-0.002-0.174-0.004-0.262-0.006v-1.333c0.937-0.006,1.89-0.006,2.77-0.001c0.061,0.005,0.113,0.009,0.157,0.012v1.392
		c-0.032,0-0.076-0.002-0.116-0.004C19.802,23.881,19.303,23.517,18.719,23.517z M14.287,23.598c0,0.254-0.204,0.458-0.456,0.458
		c-0.254,0-0.458-0.204-0.458-0.458c0-0.252,0.204-0.456,0.458-0.456C14.082,23.142,14.287,23.346,14.287,23.598z M35.281,28.841
		l-0.294,0.07l-0.08,0.291c-0.026,0.096-2.735,9.479-11.149,9.533h-0.073c-8.35-0.002-11.043-9.438-11.067-9.531l-0.08-0.293
		l-0.296-0.07c-0.1-0.023-2.404-0.613-2.061-3.773c0.026-0.24,0.072-0.543,0.147-0.827c0.162,0.331,0.373,0.67,0.62,0.803
		c0.133,0.07,0.291,0.104,0.48,0.104c0.354,0,0.777-0.119,1.228-0.246c0.174-0.051,0.35-0.102,0.525-0.145
		c0.16-0.039,0.669-0.088,2.187-0.088c0.629,0,1.319,0.008,1.981,0.02c-0.011,0.07-0.021,0.143-0.021,0.217
		c0,0.766,0.621,1.387,1.388,1.387s1.389-0.621,1.389-1.387c0-0.053-0.01-0.102-0.015-0.148c0.123,0.004,0.2,0.006,0.204,0.006
		l0.188,0.006v-1.773c0.771,0.004,1.469,0.011,2.022,0.018c0.006,0.494,0.016,1.48-0.006,2.105c-0.015,0.391-0.325,0.668-0.51,0.799
		c-0.149,0.105-0.312,0.18-0.455,0.227c-0.053-0.189-0.241-0.336-0.48-0.336c-0.274,0-0.501,0.191-0.501,0.426
		c0,0.217,0.188,0.385,0.431,0.414l-0.001,0.002c0.013,0.002,0.022,0.002,0.032,0.006c0.016,0.002,0.025,0.008,0.039,0.008
		c0.002,0,0.004,0,0.005,0c0.059,0.012,0.11,0.021,0.174,0.021c0.313,0,0.698-0.135,1.036-0.375c0.443-0.312,0.696-0.73,0.712-1.176
		c0.021-0.627,0.014-1.611,0.008-2.114c0.331,0.004,0.577,0.009,0.714,0.011v0.008c0.018,0,0.328-0.005,0.832-0.012
		c-0.009,0.504-0.019,1.486,0.005,2.115c0.017,0.443,0.269,0.861,0.713,1.174c0.337,0.238,0.724,0.375,1.035,0.375
		c0.062,0,0.118-0.014,0.175-0.021c0.001,0,0.003,0.002,0.004,0.002c0.014,0,0.025-0.008,0.04-0.008
		c0.009-0.004,0.021-0.002,0.032-0.006h-0.001c0.242-0.029,0.431-0.201,0.431-0.416c0-0.232-0.225-0.428-0.502-0.428
		c-0.238,0-0.429,0.146-0.479,0.336c-0.146-0.047-0.307-0.117-0.456-0.227c-0.186-0.131-0.496-0.408-0.511-0.799
		c-0.021-0.625-0.012-1.608-0.006-2.104c2.294-0.024,6.99-0.057,9.396,0.074c0.101,0.33,0.203,0.655,0.285,1.019l-0.033,0.359
		l0.962-0.835c0.087-0.076,0.48-0.359,0.823-0.359c0.604,0,0.818,1.125,0.894,1.794C37.681,28.198,35.375,28.818,35.281,28.841z"/>
</g>
</svg>
