<?xml version="1.0" encoding="utf-8"?>
<!-- Generator: Adobe Illustrator 16.0.4, SVG Export Plug-In . SVG Version: 6.00 Build 0)  -->
<!DOCTYPE svg PUBLIC "-//W3C//DTD SVG 1.1//EN" "http://www.w3.org/Graphics/SVG/1.1/DTD/svg11.dtd">
<svg version="1.1" id="Layer_1" xmlns="http://www.w3.org/2000/svg" xmlns:xlink="http://www.w3.org/1999/xlink" x="0px" y="0px"
	 width="44.8px" height="44.8px" viewBox="0 0 44.8 44.8" enable-background="new 0 0 44.8 44.8" xml:space="preserve">
<g>
	<circle cx="23.737" cy="24.322" r="0.942"/>
	<circle cx="30.458" cy="24.422" r="0.943"/>
	<path d="M28.799,29.204c0.094-0.052,0.127-0.169,0.074-0.262c-0.051-0.094-0.168-0.126-0.262-0.075
		c-0.006,0.003-0.635,0.347-1.445,0.347c-0.814,0-1.588-0.35-1.596-0.354c-0.097-0.044-0.21-0.001-0.255,0.095
		c-0.044,0.097-0.002,0.212,0.095,0.255c0.034,0.018,0.854,0.39,1.756,0.39C28.078,29.595,28.771,29.218,28.799,29.204z"/>
	<path d="M38.248,23.333c0.514-2.952,0.192-12.83-10.07-14.017c-10.263-1.187-12.091,6.768-12.091,6.768S8.965,12.812,6.4,17.943
		c2.951-0.706,4.587,0.096,4.587,0.096s-4.298,4.234-2.406,9.333c1.059-6.734,6.832-9.687,6.832-9.687s0.589,5.228,0.353,5.966
		c-0.236,0.737,0.225,1.54-0.128,1.797c-0.354,0.257-5.004,7.855,3.688,10.007c-3.495-3.527-1.956-6.317-1.956-6.317
		s0.866,5.579,5.517,5.579c-2.35-2.489-2.689-6.478-2.615-9.109h4.902v-2.231h2.233c0,0,0.007,1.541-0.015,2.135
		c-0.015,0.371-0.31,0.638-0.482,0.761c-0.145,0.104-0.295,0.171-0.434,0.216c-0.048-0.181-0.229-0.317-0.455-0.317
		c-0.265,0-0.479,0.181-0.479,0.403c0,0.203,0.181,0.364,0.41,0.394v0.002c0.008,0.003,0.021,0.003,0.029,0.005
		c0.014,0,0.022,0.007,0.038,0.007c0.001,0,0.001-0.001,0.003-0.001c0.055,0.01,0.104,0.022,0.166,0.022
		c0.297,0,0.664-0.13,0.981-0.355c0.422-0.3,0.662-0.695,0.678-1.116c0.021-0.598,0.012-1.531,0.005-2.009c0.005,0,0.007,0,0.011,0
		v-0.596c-0.573-0.008-1.415-0.018-2.708-0.019v0.001h-4.534l6.489-2.048l7.639-2.081c0,0,0.545,2.589,0.448,6.095
		c-0.096,3.504-3.455,7.996-8.915,8.209c1.059,1.699,5.483-0.576,5.483-0.576s0.225,1.635-2.404,1.987
		c1.636,0.771,4.009-0.673,4.009-0.673s-0.347,1.63-1.494,1.703C40.936,36.617,37.746,26.227,38.248,23.333z M22.477,23.168h2.437
		v2.176h-2.437V23.168z M19.807,24.358c-0.271,0-0.489-0.222-0.489-0.489c0-0.271,0.219-0.489,0.489-0.489
		c0.27,0,0.489,0.22,0.489,0.489C20.296,24.136,20.077,24.358,19.807,24.358z"/>
</g>
</svg>
