<svg xmlns="http://www.w3.org/2000/svg" width="126" height="126" viewBox="0 0 126 126"><path d="M33.922 42.126a2.89 2.89 0 0 0 2.688-1.835c.778-.69 2.458-2.174 3.575-3.154l.06-.054L55.33 22.85l13.043-3.982 15.714 8.168 4.68 7.574 3.38 10.105 1.172 3.99a3.247 3.247 0 0 0-.835 2.172c0 1.8 1.463 3.262 3.262 3.262a3.266 3.266 0 0 0 3.262-3.263c0-1.228-.685-2.3-1.69-2.856L96 43.54l-.02-.067-3.467-10.362a1.967 1.967 0 0 0-.195-.417l-5.092-8.247a2.026 2.026 0 0 0-.786-.73l-16.937-8.803a2.025 2.025 0 0 0-1.52-.14l-14.28 4.362c-.296.09-.57.248-.794.46L38.136 33.534c-.24.226-.44.414-.605.583l-.006-.006s-1.02.896-2.033 1.792c-.23.2-.455.4-.67.59a2.89 2.89 0 0 0-3.787 2.744 2.89 2.89 0 0 0 2.886 2.89zM95.746 52.7a1.825 1.825 0 0 1-1.823-1.822c0-1.005.817-1.822 1.823-1.822a1.823 1.823 0 0 1 0 3.645zM33.922 37.788a1.45 1.45 0 1 1 .002 2.9 1.45 1.45 0 0 1-.002-2.9z"/><path d="M37.457 72.186C43.134 70.15 63.5 61.97 75.56 45.706a2.89 2.89 0 0 0 2.354-2.837 2.89 2.89 0 0 0-2.888-2.89 2.894 2.894 0 0 0-2.826 3.49c-11.187 14.967-29.992 22.7-35.778 24.806a2.884 2.884 0 0 0-4.362 2.48 2.892 2.892 0 0 0 2.89 2.89 2.89 2.89 0 0 0 2.507-1.46zm37.57-30.767c.798 0 1.45.648 1.45 1.448 0 .8-.652 1.45-1.45 1.45-.8 0-1.45-.65-1.45-1.45 0-.8.65-1.45 1.45-1.45zM34.948 72.207c-.8 0-1.452-.652-1.452-1.45 0-.8.65-1.45 1.45-1.45.8 0 1.45.65 1.45 1.45 0 .8-.65 1.45-1.45 1.45z"/><path d="M40.955 81.89l24.2-13.576c.147-.08.282-.18.4-.295l21.95-20.837c.75-.712.838-1.877.205-2.696l-8.79-11.332a2.014 2.014 0 0 0-2.47-.58L62.54 39.32c-.147.07-.282.16-.405.263L46.11 52.85c-.815.478-5.576 3.205-10.78 4.812a2.868 2.868 0 0 0-1.56-.462 2.893 2.893 0 0 0-2.89 2.89 2.888 2.888 0 0 0 5.346 1.513c6.268-1.884 11.842-5.226 12.088-5.375a2.2 2.2 0 0 0 .242-.172l15.96-13.216 12.225-5.925 6.67 8.6-20.444 19.41-24.34 13.65a2.893 2.893 0 0 0-3.41 2.84 2.892 2.892 0 0 0 2.892 2.89 2.89 2.89 0 0 0 2.847-2.414zM33.77 61.54a1.45 1.45 0 1 1 0-2.9 1.45 1.45 0 0 1 0 2.9zm4.338 21.328c-.8 0-1.45-.65-1.45-1.45 0-.8.65-1.45 1.45-1.45.8 0 1.45.65 1.45 1.45 0 .8-.65 1.45-1.45 1.45zM78.675 103.44c-.197 0-.39.022-.58.06l-9.618-5.023a2.015 2.015 0 0 0-2.136.17l-7.42 5.526a2.85 2.85 0 0 0-.936-.16 2.892 2.892 0 0 0-2.89 2.89 2.892 2.892 0 0 0 2.89 2.89c1.254 0 2.32-.806 2.72-1.923l7.03-5.236 8.102 4.23a2.894 2.894 0 0 0 2.84 2.354 2.89 2.89 0 0 0 2.887-2.888 2.89 2.89 0 0 0-2.888-2.89zm-20.69 4.913c-.8 0-1.452-.65-1.452-1.45 0-.8.65-1.45 1.45-1.45.8 0 1.45.65 1.45 1.45.002.8-.65 1.45-1.45 1.45zm20.69-.573a1.45 1.45 0 1 1 .002-2.9 1.45 1.45 0 0 1-.002 2.9z"/><path d="M85.91 93.19c-.41 0-.798.087-1.15.24l-15.13-7.65a2.02 2.02 0 0 0-1.995.1c-.527.337-11.446 7.33-16.59 10.784a2.892 2.892 0 0 0-3.816 2.733 2.893 2.893 0 0 0 2.89 2.89c1.277 0 2.36-.836 2.74-1.99 4.08-2.755 13.022-8.506 15.978-10.4l14.4 7.282a2.894 2.894 0 0 0 2.672 1.79 2.892 2.892 0 0 0 2.89-2.888 2.89 2.89 0 0 0-2.89-2.89zm-35.792 7.658c-.8 0-1.45-.65-1.45-1.45 0-.8.65-1.45 1.45-1.45.8 0 1.45.65 1.45 1.45 0 .8-.65 1.45-1.45 1.45zM85.91 97.53a1.45 1.45 0 1 1 1.45-1.45c0 .8-.65 1.45-1.45 1.45z"/><path d="M91.407 83.497c-.402 0-.782.082-1.13.23L71.032 73.175a2.014 2.014 0 0 0-1.975.023l-25.65 14.807a2.868 2.868 0 0 0-.96-.168 2.893 2.893 0 0 0-2.89 2.89 2.893 2.893 0 0 0 2.89 2.887 2.89 2.89 0 0 0 2.742-1.986l24.9-14.375 18.643 10.223a2.892 2.892 0 0 0 2.674 1.798 2.892 2.892 0 0 0 2.89-2.888 2.894 2.894 0 0 0-2.89-2.888zm-50.41 7.23c0-.8.65-1.452 1.45-1.452.8 0 1.45.65 1.45 1.45a1.45 1.45 0 1 1-2.9 0zm50.41-2.89c-.8 0-1.45-.652-1.45-1.45 0-.8.65-1.452 1.45-1.452.8 0 1.45.65 1.45 1.45 0 .8-.65 1.45-1.45 1.45zM93.204 72.584a2.9 2.9 0 0 0-.714.093c-1.795-.95-3.59-1.898-5.386-2.846l-.46-.243-.083-.042-.113-.102c-.74-.653-1.344-1.463-1.914-2.262a35.687 35.687 0 0 1-1.484-2.257c.238-.422.377-.907.377-1.426a2.892 2.892 0 0 0-2.888-2.888 2.893 2.893 0 0 0-2.892 2.887c0 1.01.52 1.897 1.306 2.415a45.13 45.13 0 0 0 2.1 3.303c1.004 1.44 2.163 3.115 3.755 3.955 1.858.984 3.72 1.968 5.58 2.95a2.893 2.893 0 0 0 2.814 2.242 2.893 2.893 0 0 0 2.89-2.89 2.894 2.894 0 0 0-2.89-2.888zM80.54 62.05a1.45 1.45 0 1 1-.003 2.9 1.45 1.45 0 0 1 .002-2.9zm12.664 14.873c-.8 0-1.45-.65-1.45-1.45 0-.8.65-1.45 1.45-1.45.798 0 1.45.65 1.45 1.45 0 .8-.652 1.45-1.45 1.45zM96.818 61.61c-.293 0-.574.043-.84.124l-1.115-.795-1.598-1.137c-.01-.008-.022-.017-.034-.024l-2.745-4.02c.134-.332.21-.694.21-1.074a2.893 2.893 0 0 0-2.89-2.89 2.892 2.892 0 0 0-2.89 2.89c0 1.204.742 2.236 1.79 2.67 1.097 1.604 2.19 3.207 3.288 4.81.6.876 1.756 1.483 2.607 2.09.48.34.96.683 1.438 1.024a2.89 2.89 0 0 0 2.78 2.106 2.892 2.892 0 0 0 2.888-2.888 2.89 2.89 0 0 0-2.888-2.89zm-9.01-8.375a1.45 1.45 0 0 1 0 2.9c-.8 0-1.452-.65-1.452-1.45 0-.8.65-1.45 1.45-1.45zm9.01 12.713c-.8 0-1.45-.65-1.45-1.45 0-.8.65-1.45 1.45-1.45a1.45 1.45 0 1 1 0 2.9zM67.23 25.143l-15.258 9.92c-2.248 1.462-4.166 3.393-6.174 5.164-1.453 1.28-2.907 2.563-4.36 3.845l-.064.055c-.06.043-.175.126-.318.21a59.462 59.462 0 0 1-3.367 1.85 33.918 33.918 0 0 1-1.562.736l-.08.03a2.87 2.87 0 0 0-1.71-.563 2.892 2.892 0 0 0-2.888 2.888 2.893 2.893 0 0 0 2.89 2.89c.937 0 1.77-.45 2.296-1.144 2.354-.8 4.59-2.093 6.707-3.357 1.07-.64 1.996-1.673 2.924-2.493l5.13-4.523 1.7-1.496.08-.072c5.416-3.52 10.832-7.043 16.246-10.564.393.155.818.243 1.264.243a3.468 3.468 0 0 0 3.465-3.463 3.47 3.47 0 0 0-3.465-3.466 3.467 3.467 0 0 0-3.456 3.313zM32.89 49.278c0-.8.652-1.45 1.45-1.45.8 0 1.45.65 1.45 1.45a1.45 1.45 0 1 1-2.9 0zm39.822-23.982a2.027 2.027 0 0 1-2.024 2.025 2.03 2.03 0 0 1-2.025-2.024c0-1.118.91-2.026 2.025-2.026 1.117 0 2.024.91 2.024 2.026z"/></svg>