<?xml version="1.0" encoding="utf-8"?>
<!-- Generator: Adobe Illustrator 16.0.0, SVG Export Plug-In . SVG Version: 6.00 Build 0)  -->
<!DOCTYPE svg PUBLIC "-//W3C//DTD SVG 1.1//EN" "http://www.w3.org/Graphics/SVG/1.1/DTD/svg11.dtd">
<svg version="1.1" id="Layer_1" xmlns="http://www.w3.org/2000/svg" xmlns:xlink="http://www.w3.org/1999/xlink" x="0px" y="0px"
	 width="126px" height="126px" viewBox="0 0 126 126" enable-background="new 0 0 126 126" xml:space="preserve">
<g>
	<path d="M98.283,18.67c-0.008-0.01-0.017-0.02-0.026-0.029C88.166,7.463,71.903,9.766,64.959,10.75l-0.729,0.102
		c-1.895,0.264-3.53-0.029-4.057-0.168c-0.156-0.066-0.326-0.115-0.502-0.141c-0.734-0.1-1.477,0.234-1.875,0.857
		c-0.396,0.623-0.396,1.424,0.002,2.045c0.33,0.512,0.727,0.896,2.846,1.176c0.941,0.123,2.418,0.221,4.106-0.016l0.74-0.104
		c6.343-0.898,21.194-3.002,29.94,6.666c7.037,8.145,6.686,19.26-1.018,32.141c-0.262,0.439-0.424,0.707-0.529,0.932
		c-1.287,2.078-2.721,4.84-2.456,6.486c0.065,0.408,0.259,0.764,0.531,1.037c0.082,0.082,0.177,0.15,0.272,0.215v25.275h0.891
		v28.883h1.088V87.254h0.021V62.07c0.641-0.363,1.034-1.076,0.953-1.842c0.078-0.605,1.014-2.537,1.998-4.113
		c0.059-0.094,0.108-0.193,0.15-0.295c0.063-0.111,0.205-0.352,0.332-0.564c1.223-2.043,4.467-7.467,5.898-14.186
		C105.413,32.391,103.638,24.855,98.283,18.67z"/>
	<path d="M92.582,36.619c-2.225-4.186-7.89-6.293-15.528-5.773c-0.095,0.004-10.492,0.268-19.07-1.797
		c-0.063-0.016-6.295-1.574-11.471-4.533c-0.908-0.52-2.068-0.203-2.586,0.703c-0.521,0.908-0.205,2.068,0.705,2.586
		c5.628,3.223,12.168,4.857,12.453,4.928c9.308,2.238,20.113,1.904,20.209,1.895c4.638-0.313,10.209,0.512,11.939,3.77
		c1.02,1.916,1.238,3.736,0.648,5.404c-0.703,1.996-2.579,3.771-5.146,4.871c-4.779,2.047-13.15,1.914-23.578-0.371
		c-5.229-1.145-18.266-4.158-26.356-7.404c-0.972-0.391-2.073,0.08-2.464,1.053c-0.292,0.727-0.102,1.527,0.418,2.047
		c0.176,0.176,0.39,0.32,0.635,0.42c8.355,3.348,21.635,6.424,26.957,7.588c7.916,1.736,18.834,3.172,25.882,0.152
		c3.538-1.516,6.175-4.102,7.229-7.096C94.401,42.389,94.097,39.471,92.582,36.619z"/>
	<path d="M52.227,21.23c1.783,0.957,3.731,1.494,5.671,2.027c1.64,0.451,3.213,0.955,4.904,1.184
		c3.295,0.449,6.568,0.396,9.869,0.061c1.336-0.137,2.68-0.197,4.023-0.201c0.732,0,1.466,0.023,2.199,0.063
		c0.382,0.02,0.762,0.049,1.143,0.082c0.191,0.018,0.385,0.035,0.578,0.057c0.051,0.004,0.422,0.047,0.518,0.059
		c1.648,0.219,3.278,0.576,4.862,1.086c1.497,0.48,2.844,1.117,4.298,2.068c0.481,0.316,0.578,0.395,0.906,0.662
		c0.803,0.65,1.895,0.787,2.682,0.002c0.676-0.676,0.805-2.029,0-2.684c-5.348-4.342-12.521-5.457-19.231-5.133
		c-1.278,0.063-2.544,0.236-3.819,0.334c-1.67,0.131-3.352,0.129-5.025,0.045c-1.72-0.088-3.033-0.234-4.713-0.688
		c-1.777-0.484-3.586-0.98-5.328-1.58c-0.6-0.207-1.074-0.426-1.664-0.742c-0.908-0.488-2.063-0.201-2.584,0.713
		C51.013,19.525,51.317,20.74,52.227,21.23z"/>
	<path d="M38.487,35.766l0.064,0.031c3.911,1.912,24.444,11.281,44.553,7.918c1.032-0.174,1.729-1.15,1.557-2.182
		c-0.172-1.033-1.15-1.73-2.183-1.559c-18.967,3.174-38.532-5.762-42.265-7.582c-0.078-0.041-0.127-0.064-0.145-0.072
		c-0.955-0.43-2.078-0.006-2.508,0.949c-0.334,0.74-0.152,1.578,0.389,2.119C38.102,35.541,38.282,35.67,38.487,35.766z"/>
	<path d="M67.046,80.25c-1.238-2.477-1.895-6.369-2.526-10.133c-0.914-5.455-1.706-10.16-4.331-12.014
		c-1.975-1.393-6.795-2.453-14.496-4.037c-5.553-1.139-11.847-2.434-13.94-3.639c-0.909-0.52-2.067-0.209-2.589,0.697
		c-0.438,0.76-0.291,1.695,0.301,2.287c0.115,0.113,0.248,0.217,0.395,0.301c2.627,1.512,8.672,2.752,15.07,4.068
		c5.17,1.063,11.604,2.383,13.073,3.42c1.333,0.943,2.136,5.711,2.78,9.543c0.609,3.633,1.244,7.367,2.449,10.254v5.756h-1.377
		v29.383h1.635v-28.73h3.742v-6.123c0.012-0.123,0.012-0.246,0-0.371v-0.006H67.23C67.208,80.684,67.151,80.461,67.046,80.25z"/>
	<path d="M57.123,83.461c-0.689-1.473-1.36-4.314-2.011-7.061c-1.371-5.805-2.305-9.432-4.225-10.785
		c-1.943-1.371-7.79-2.486-17.899-4.063c-1.237-0.193-2.306-0.359-3.036-0.486c-1.033-0.176-2.013,0.516-2.19,1.547
		c-0.107,0.631,0.108,1.242,0.529,1.662c0.268,0.268,0.617,0.457,1.019,0.527c0.76,0.131,1.842,0.299,3.095,0.496
		c4.022,0.627,14.71,2.295,16.282,3.402c0.893,0.779,2.049,5.656,2.736,8.57c0.727,3.07,1.412,5.973,2.268,7.799
		c0.129,0.275,0.318,0.498,0.541,0.674v1.01h-4.143v29.383h4.629v-28.73h2.514v-2.5H57.19
		C57.354,84.451,57.345,83.934,57.123,83.461z"/>
	<path d="M45.933,85.596c-0.262-1.244-0.459-2.43-0.652-3.576c-0.627-3.77-1.172-7.025-3.617-8.746
		c-2.75-1.941-10.24-1.918-11.713-1.896c-1.047,0.018-1.882,0.881-1.865,1.928c0.009,0.512,0.219,0.973,0.555,1.309
		c0.35,0.35,0.836,0.564,1.371,0.555c3.65-0.059,8.307,0.385,9.467,1.203c1.148,0.811,1.574,3.342,2.064,6.273
		c0.189,1.129,0.403,2.41,0.68,3.732c0.094,0.447,0.345,0.818,0.676,1.082v28.678h2.614v-28.73h0.386v-0.695h-0.07
		C45.97,86.369,46.014,85.984,45.933,85.596z"/>
	<path d="M82.188,57.844c-2.784,3.883-2.273,8.129-0.668,12.305v16.605h-1.212v29.383h2.391v-28.73h2.821V70.053h-0.043
		c-0.015-0.111-0.038-0.221-0.082-0.33c-0.646-1.588-1.317-3.254-1.476-4.977c-0.174-1.896,0.476-3.508,1.565-5.029
		C86.908,57.732,83.601,55.875,82.188,57.844z"/>
	<path d="M75.897,75.682c0.191-0.459,0.201-1.002-0.098-1.566c-0.695-1.316-1.068-2.473-1.503-4.168
		c-0.799-3.104-0.907-6.553,0.36-9.551c0.402-0.951,0.266-2.029-0.713-2.586c-0.818-0.465-2.182-0.238-2.586,0.715
		c-2.34,5.535-1.65,12.18,1.145,17.463c0.111,0.213,0.248,0.375,0.395,0.512v10.254h-0.259v29.383h0.981v-28.73h1.559v28.73h1.35
		V86.754h-0.631V75.682z"/>
	<rect x="87.079" y="86.754" width="3.561" height="29.383"/>
	<rect x="46.874" y="86.754" width="1.637" height="29.383"/>
	<rect x="67.473" y="86.754" width="3.472" height="29.383"/>
	<rect x="59.133" y="86.754" width="1.087" height="29.383"/>
</g>
</svg>
