<?xml version="1.0" encoding="utf-8"?>
<!-- Generator: Adobe Illustrator 16.0.0, SVG Export Plug-In . SVG Version: 6.00 Build 0)  -->
<!DOCTYPE svg PUBLIC "-//W3C//DTD SVG 1.1//EN" "http://www.w3.org/Graphics/SVG/1.1/DTD/svg11.dtd">
<svg version="1.1" id="Layer_1" xmlns="http://www.w3.org/2000/svg" xmlns:xlink="http://www.w3.org/1999/xlink" x="0px" y="0px"
	 width="126px" height="126px" viewBox="0 0 126 126" enable-background="new 0 0 126 126" xml:space="preserve">
<g>
	<g>
		<path d="M34.562,43.478c0.608,0.133,1.171,0.124,2.901-1.206c0.77-0.59,1.905-1.586,2.955-2.973l0.459-0.609
			c3.93-5.228,13.131-17.466,26.42-16.801c10.959,0.8,18.728,9.076,22.465,23.936c0.127,0.504,0.205,0.814,0.291,1.053
			c0.57,2.43,1.528,5.457,2.908,6.453c0.343,0.248,0.738,0.366,1.131,0.366c0.601,0,1.193-0.278,1.57-0.803
			c0.604-0.837,0.443-1.993-0.349-2.634c-0.382-0.494-1.101-2.563-1.527-4.412c-0.025-0.109-0.06-0.217-0.104-0.32
			c-0.035-0.125-0.105-0.4-0.167-0.648c-0.593-2.354-2.166-8.611-5.982-14.496c-4.929-7.598-11.649-11.755-19.978-12.355
			c-0.014-0.002-0.027-0.002-0.041-0.003c-15.352-0.783-25.428,12.617-29.729,18.339l-0.452,0.601
			c-1.178,1.558-2.569,2.526-3.049,2.808c-0.162,0.063-0.318,0.15-0.465,0.26c-0.602,0.457-0.896,1.234-0.734,1.972
			C33.247,42.74,33.824,43.316,34.562,43.478z"/>
		<path d="M83.022,50.898c1.46-3.648,1.495-7.417,0.097-10.34c-1.248-2.607-3.574-4.496-6.726-5.462
			c-4.627-1.416-10.235,1.153-15.374,7.041c-0.066,0.072-7.381,7.766-15.062,12.469c-0.056,0.034-5.681,3.407-11.552,5.007
			c-1.031,0.281-1.639,1.344-1.358,2.375s1.344,1.641,2.375,1.358c6.388-1.739,12.288-5.278,12.546-5.434
			c8.332-5.103,15.89-13.144,15.954-13.218c3.12-3.574,7.736-7.001,11.337-5.898c2.119,0.649,3.59,1.804,4.369,3.433
			c0.933,1.948,0.86,4.585-0.199,7.231c-1.688,4.221-6.444,9.191-13.54,14.224h6.413C76.937,59.922,81.183,55.496,83.022,50.898z"/>
		<path d="M51.861,36.453c-0.879,0.967-1.667,2.006-2.516,2.997c-1.111,1.3-2.326,2.514-3.596,3.659
			c-1.304,1.178-2.359,2.021-3.898,2.904c-1.632,0.936-3.295,1.883-4.986,2.707c-0.582,0.283-1.081,0.467-1.735,0.664
			c-1.009,0.303-1.636,1.346-1.351,2.381c0.273,0.998,1.369,1.654,2.379,1.352c1.979-0.596,3.772-1.613,5.559-2.629
			c1.508-0.857,3.006-1.63,4.393-2.685c2.703-2.055,5.028-4.454,7.167-7.08c0.866-1.063,1.792-2.076,2.759-3.048
			c0.529-0.531,1.075-1.043,1.633-1.544c0.29-0.261,0.586-0.515,0.883-0.765c0.152-0.128,0.305-0.253,0.459-0.378
			c0.041-0.032,0.341-0.271,0.418-0.332c1.348-1.032,2.782-1.949,4.292-2.725c1.427-0.733,2.858-1.247,4.595-1.608
			c0.576-0.12,0.701-0.133,1.133-0.178c1.049-0.108,1.936-0.798,1.936-1.935c0-0.973-0.885-2.044-1.936-1.935
			C62.453,27.002,56.471,31.375,51.861,36.453z"/>
		<path d="M74.674,47.06c0.621-0.87,0.419-2.077-0.451-2.698c-0.869-0.621-2.078-0.419-2.698,0.451
			c-6.125,8.586-14.896,14.77-22.324,18.872h7.496C63.046,59.556,69.673,54.07,74.674,47.06z"/>
		<path d="M90.444,61.652c-1.495-1.244-2.19-2.877-2.501-4.762c-0.404-2.457-4.133-1.412-3.731,1.029
			c0.395,2.395,1.447,4.261,2.914,5.765h6.826C92.711,63.135,91.482,62.515,90.444,61.652z"/>
	</g>
	<rect x="29.174" y="63.444" width="76.333" height="1.27"/>
	<rect x="108.976" y="62.832" width="7" height="2.494"/>
	<rect x="17.81" y="62.832" width="7" height="2.494"/>
	<g>
		<path opacity="0.4" d="M70.634,64.708h-6.635c-0.623,0.419-1.257,0.839-1.911,1.257c-4.602,2.947-16.186,10.181-24.368,13.679
			c-0.983,0.42-1.438,1.558-1.019,2.54c0.314,0.734,1.029,1.174,1.779,1.174c0.254,0,0.512-0.049,0.76-0.155
			c8.449-3.612,20.252-10.979,24.936-13.978C66.228,67.91,68.447,66.385,70.634,64.708z"/>
		<path opacity="0.4" d="M36.746,73.256c2.279-0.781,9.669-3.514,17.882-8.548h-7.862c-5.332,2.746-9.659,4.333-11.278,4.889
			c-0.086,0.029-0.138,0.048-0.156,0.056c-1,0.378-1.503,1.494-1.125,2.494c0.293,0.774,1.029,1.25,1.811,1.25
			c0.219,0,0.442-0.037,0.66-0.116L36.746,73.256z"/>
		<path opacity="0.4" d="M89.397,84.775c-2.682-0.895-5.964-3.231-9.137-5.491c-4.597-3.274-8.563-6.102-11.798-5.544
			c-2.43,0.42-6.675,3.132-13.376,7.549c-4.831,3.186-10.307,6.795-12.688,7.436c-1.032,0.278-1.644,1.34-1.365,2.371
			c0.232,0.864,1.014,1.434,1.867,1.434c0.166,0,0.336-0.021,0.504-0.067c2.984-0.804,8.244-4.271,13.813-7.941
			c4.498-2.965,10.096-6.655,11.904-6.968c1.643-0.279,5.664,2.582,8.895,4.883c3.405,2.426,6.927,4.934,10.158,6.011
			c1.014,0.339,2.109-0.21,2.447-1.224S90.41,85.113,89.397,84.775z"/>
		<path opacity="0.4" d="M84.553,94.254c-1.559-0.564-4.095-2.131-6.547-3.645c-5.18-3.201-8.472-5.143-10.834-4.734
			c-2.393,0.413-7.416,3.828-15.852,9.986c-1.033,0.754-1.924,1.404-2.542,1.842c-0.873,0.616-1.081,1.824-0.464,2.696
			c0.377,0.534,0.975,0.819,1.582,0.819c0.385,0,0.775-0.115,1.114-0.355c0.644-0.454,1.546-1.113,2.591-1.877
			c3.357-2.45,12.275-8.961,14.209-9.295c1.207-0.082,5.561,2.603,8.162,4.209c2.74,1.693,5.328,3.293,7.266,3.992
			c1.004,0.364,2.113-0.156,2.477-1.162C86.078,95.727,85.559,94.617,84.553,94.254z"/>
		<path opacity="0.4" d="M78.018,103.873c-1.087-0.709-2.086-1.422-3.053-2.111c-3.174-2.266-5.916-4.225-8.923-3.702
			c-3.386,0.585-8.776,6.006-9.823,7.087c-0.743,0.768-0.723,1.992,0.045,2.735c0.375,0.364,0.86,0.545,1.346,0.545
			c0.505,0,1.01-0.197,1.39-0.589c2.591-2.677,6.272-5.719,7.702-5.965c1.412-0.242,3.547,1.276,6.017,3.038
			c0.952,0.679,2.03,1.449,3.185,2.202c0.896,0.585,2.095,0.332,2.678-0.563C79.164,105.656,78.912,104.457,78.018,103.873z"/>
		<path opacity="0.4" d="M95.803,64.708h-7.301c1.35,1.03,2.917,1.86,4.59,2.565c0.971,0.411,2.063,0.303,2.646-0.693
			C96.044,66.059,96.071,65.299,95.803,64.708z"/>
		<path opacity="0.4" d="M91.289,74.029c-1.453-0.447-2.556-1.016-4.094-1.924c-2.816-1.664-5.385-4.076-6.633-7.154
			c-0.034-0.085-0.077-0.164-0.118-0.243h-3.529c-0.193,0.399-0.256,0.85-0.085,1.272c2.307,5.686,7.6,9.984,13.43,11.779
			C92.652,78.496,93.666,74.762,91.289,74.029z"/>
	</g>
</g>
</svg>
