<?xml version="1.0" encoding="utf-8"?>
<!-- Generator: Adobe Illustrator 16.0.0, SVG Export Plug-In . SVG Version: 6.00 Build 0)  -->
<!DOCTYPE svg PUBLIC "-//W3C//DTD SVG 1.1//EN" "http://www.w3.org/Graphics/SVG/1.1/DTD/svg11.dtd">
<svg version="1.1" id="Layer_1" xmlns="http://www.w3.org/2000/svg" xmlns:xlink="http://www.w3.org/1999/xlink" x="0px" y="0px"
	 width="126px" height="126px" viewBox="0 0 126 126" enable-background="new 0 0 126 126" xml:space="preserve">
<g>
	<path d="M33.808,39.658c0.595,0.131,1.147,0.121,2.843-1.182c0.753-0.578,1.866-1.553,2.894-2.912l0.45-0.598
		c3.85-5.121,12.864-17.109,25.883-16.459c10.736,0.783,18.348,8.891,22.009,23.449c0.124,0.494,0.2,0.799,0.284,1.031
		c0.068,0.291,0.143,0.59,0.223,0.893h3.953c-0.189-0.609-0.371-1.268-0.518-1.9c-0.025-0.107-0.059-0.211-0.103-0.313
		c-0.034-0.125-0.103-0.395-0.164-0.637c-0.58-2.307-2.122-8.436-5.86-14.201C80.874,19.387,74.29,15.314,66.13,14.727
		c-0.013-0.002-0.025-0.002-0.039-0.004c-15.04-0.768-24.911,12.361-29.125,17.967l-0.443,0.588
		c-1.154,1.525-2.517,2.475-2.987,2.75c-0.158,0.063-0.312,0.148-0.455,0.256c-0.59,0.447-0.878,1.209-0.719,1.932
		C32.521,38.936,33.086,39.5,33.808,39.658z"/>
	<path d="M54.023,66.164c-5.235,3.162-11.851,6.938-17.065,9.166c-0.963,0.412-1.409,1.525-0.998,2.488
		c0.308,0.721,1.008,1.15,1.744,1.15c0.249,0,0.502-0.049,0.745-0.15c7.427-3.178,17.484-9.305,22.788-12.654H54.023z"/>
	<path d="M82.151,43.881c0.457-2.553,0.209-5.031-0.773-7.082c-1.221-2.555-3.5-4.404-6.588-5.352
		c-4.533-1.387-10.027,1.131-15.062,6.898c-0.037,0.041-2.417,2.543-5.857,5.535h5.649c1.873-1.773,3.028-3.002,3.053-3.029
		c3.058-3.502,7.579-6.859,11.106-5.779c2.077,0.637,3.518,1.768,4.281,3.363c0.719,1.504,0.818,3.43,0.324,5.445H82.151z"/>
	<path d="M57.311,31.713c0.148-0.125,0.298-0.248,0.449-0.371c0.039-0.031,0.333-0.264,0.408-0.324c1.32-1.01,2.727-1.91,4.207-2.67
		c1.397-0.719,2.8-1.221,4.501-1.576c0.564-0.117,0.687-0.129,1.109-0.172c1.027-0.107,1.896-0.783,1.896-1.896
		c0-0.953-0.866-2.002-1.896-1.895c-6.852,0.709-12.712,4.994-17.229,9.967c-0.86,0.949-1.632,1.967-2.464,2.938
		c-1.089,1.273-2.279,2.463-3.522,3.584c-1.278,1.154-2.312,1.98-3.819,2.846c-1.031,0.592-2.079,1.174-3.134,1.738h7.322
		c2.641-2.01,4.913-4.354,7.003-6.92c0.849-1.041,1.756-2.035,2.704-2.986c0.517-0.52,1.052-1.021,1.599-1.514
		C56.729,32.207,57.018,31.959,57.311,31.713z"/>
	<path d="M36.003,69.072c1.19-0.408,3.81-1.363,7.21-2.908H33.79c-0.386,0.504-0.515,1.186-0.273,1.822
		c0.287,0.758,1.008,1.223,1.774,1.223c0.214,0,0.433-0.035,0.646-0.111L36.003,69.072z"/>
	<path d="M70.019,40.967c-0.717,1.006-1.473,1.977-2.258,2.914h4.814c0.178-0.238,0.357-0.471,0.531-0.713
		c0.607-0.854,0.409-2.035-0.442-2.645C71.812,39.916,70.627,40.113,70.019,40.967z"/>
	<path d="M87.585,80.357c-2.627-0.875-5.843-3.164-8.951-5.379c-4.503-3.209-8.39-5.977-11.559-5.432
		c-2.38,0.412-6.538,3.068-13.104,7.396c-4.732,3.119-10.097,6.656-12.43,7.283c-1.011,0.273-1.61,1.314-1.338,2.324
		c0.228,0.848,0.993,1.404,1.83,1.404c0.163,0,0.329-0.021,0.493-0.066c2.925-0.789,8.078-4.186,13.533-7.779
		c4.406-2.906,9.889-6.52,11.661-6.826c1.609-0.275,5.549,2.527,8.715,4.783c3.336,2.375,6.785,4.832,9.951,5.889
		c0.994,0.33,2.066-0.207,2.398-1.199C89.114,81.762,88.577,80.689,87.585,80.357z"/>
	<path d="M82.839,89.645c-1.527-0.553-4.012-2.088-6.414-3.572c-5.074-3.135-8.299-5.037-10.613-4.639
		c-2.344,0.406-7.267,3.752-15.529,9.785c-1.012,0.738-1.885,1.375-2.491,1.805c-0.854,0.604-1.058,1.787-0.455,2.641
		c0.371,0.523,0.956,0.803,1.55,0.803c0.378,0,0.76-0.113,1.092-0.348c0.63-0.445,1.514-1.092,2.539-1.838
		c3.288-2.402,12.024-8.779,13.92-9.107c1.182-0.08,5.447,2.551,7.995,4.123c2.685,1.658,5.221,3.227,7.118,3.912
		c0.983,0.357,2.071-0.154,2.427-1.139S83.824,90,82.839,89.645z"/>
	<path d="M76.437,99.068c-1.065-0.695-2.043-1.395-2.991-2.07c-3.108-2.221-5.796-4.139-8.741-3.625
		c-3.316,0.572-8.598,5.883-9.624,6.941c-0.728,0.752-0.708,1.953,0.044,2.682c0.368,0.354,0.843,0.533,1.317,0.533
		c0.496,0,0.991-0.193,1.362-0.578c2.54-2.621,6.146-5.602,7.545-5.844c1.384-0.238,3.476,1.252,5.895,2.977
		c0.933,0.666,1.989,1.42,3.12,2.158c0.877,0.572,2.053,0.326,2.624-0.551S77.313,99.641,76.437,99.068z"/>
	<path d="M89.438,69.83c-1.424-0.439-2.504-0.994-4.011-1.885c-0.877-0.518-1.722-1.119-2.517-1.781h-5.186
		c2.674,3.457,6.547,6.041,10.705,7.322C90.773,74.207,91.767,70.549,89.438,69.83z"/>
	<path d="M27.494,44.957V63.24h69.677V44.957H27.494z M94.171,60.24H30.494V47.957h63.677V60.24z"/>
	<polygon points="39.884,57.049 41.83,58.277 42.994,55.75 44.064,58.244 46.17,57.041 44.489,54.939 47.089,55.25 47.089,52.926 
		44.468,53.273 46.14,51.072 44.106,49.92 43.024,52.406 41.925,49.941 39.874,51.117 41.521,53.256 38.987,52.928 38.987,55.254 
		41.536,54.926 	"/>
	<polygon points="52.746,57.049 54.692,58.277 55.857,55.75 56.926,58.244 59.032,57.041 57.352,54.939 59.952,55.25 59.952,52.926 
		57.331,53.273 59.003,51.072 56.969,49.92 55.887,52.406 54.787,49.941 52.736,51.117 54.383,53.256 51.85,52.928 51.85,55.254 
		54.398,54.926 	"/>
	<polygon points="65.608,57.049 67.555,58.277 68.72,55.75 69.789,58.244 71.896,57.041 70.214,54.939 72.814,55.25 72.814,52.926 
		70.192,53.273 71.865,51.072 69.831,49.92 68.749,52.406 67.649,49.941 65.599,51.117 67.245,53.256 64.712,52.928 64.712,55.254 
		67.261,54.926 	"/>
	<polygon points="78.472,57.049 80.417,58.277 81.582,55.75 82.651,58.244 84.758,57.041 83.077,54.939 85.677,55.25 85.677,52.926 
		83.056,53.273 84.728,51.072 82.694,49.92 81.612,52.406 80.513,49.941 78.462,51.117 80.108,53.256 77.575,52.928 77.575,55.254 
		80.124,54.926 	"/>
</g>
</svg>
