<svg xmlns="http://www.w3.org/2000/svg" width="126" height="126" viewBox="0 0 126 126"><path d="M35.25 38.4c.607.133 1.17.123 2.9-1.205a15.885 15.885 0 0 0 2.955-2.975l.46-.61c3.93-5.226 13.13-17.464 26.42-16.8 10.96.8 18.728 9.076 22.466 23.936.128.506.204.816.29 1.053.57 2.43 1.53 5.458 2.91 6.454a1.933 1.933 0 0 0 2.35-3.07c-.382-.496-1.1-2.565-1.526-4.414a1.993 1.993 0 0 0-.104-.32c-.037-.126-.105-.4-.168-.647-.592-2.355-2.166-8.61-5.982-14.496C83.292 17.71 76.57 13.55 68.24 12.95c-.01 0-.024 0-.04-.002-15.35-.783-25.428 12.617-29.73 18.34l-.452.6c-1.178 1.557-2.568 2.527-3.05 2.807a1.962 1.962 0 0 0-1.197 2.233c.165.736.74 1.312 1.48 1.472z"/><path d="M83.71 45.822c1.462-3.648 1.497-7.418.097-10.34-1.246-2.607-3.572-4.498-6.725-5.463-4.627-1.417-10.236 1.153-15.375 7.04-.064.072-7.38 7.766-15.06 12.47-.058.034-5.68 3.407-11.554 5.007a1.926 1.926 0 0 0-1.154.88h9.776c2.834-1.317 4.793-2.493 4.94-2.58 8.333-5.103 15.89-13.144 15.954-13.218 3.12-3.575 7.736-7.003 11.338-5.9 2.12.65 3.588 1.804 4.367 3.433.934 1.95.86 4.584-.2 7.23-1.33 3.326-4.563 7.115-9.343 11.035h5.844c3.122-2.982 5.75-6.242 7.095-9.596zM36.848 48.04c1.98-.595 3.77-1.614 5.557-2.628 1.508-.86 3.008-1.63 4.395-2.686 2.7-2.055 5.027-4.455 7.166-7.08a41.476 41.476 0 0 1 4.39-4.592c.292-.26.587-.514.886-.766.15-.127.305-.252.457-.377.038-.032.34-.267.417-.33a28.24 28.24 0 0 1 4.293-2.726c1.426-.732 2.857-1.246 4.594-1.607.576-.12.7-.133 1.133-.178 1.05-.11 1.936-.8 1.936-1.937 0-.973-.883-2.043-1.936-1.936-6.994.727-12.977 5.098-17.586 10.176-.876.97-1.665 2.006-2.515 2.998a39.796 39.796 0 0 1-3.594 3.66c-1.304 1.18-2.358 2.02-3.9 2.903-1.63.938-3.294 1.885-4.985 2.707a10.6 10.6 0 0 1-1.734.666c-1.01.303-1.636 1.344-1.35 2.38.272 1 1.368 1.658 2.378 1.353z"/><path d="M74.912 39.285c-.87-.62-2.08-.42-2.7.45-4.706 6.597-10.976 11.776-16.997 15.683h6.738c4.852-3.645 9.602-8.098 13.41-13.436.62-.87.418-2.078-.45-2.697zM84.9 52.842a10.9 10.9 0 0 0 .748 2.576h4.398c-.768-1.04-1.193-2.256-1.414-3.604-.405-2.46-4.134-1.412-3.732 1.028zM27.504 57.148h76.332v2.555H27.504zM107.305 55.918h7v5.016h-7zM16.14 55.918h7v5.016h-7zM87.94 67.275c1.538.908 2.642 1.475 4.093 1.922 2.38.732 1.363 4.47-1.027 3.732-5.3-1.634-10.143-5.337-12.713-10.265H67.516a104.06 104.06 0 0 1-2.596 1.727c-4.682 3-16.486 10.367-24.934 13.98a1.938 1.938 0 0 1-2.54-1.018 1.936 1.936 0 0 1 1.02-2.542c7-2.992 16.476-8.71 21.952-12.146h-9.916c-6.135 3.275-11.195 5.137-13.012 5.76l-.068.023a1.936 1.936 0 0 1-1.346-3.627 77.346 77.346 0 0 0 5.527-2.157h-14.1v45.886h76.332V62.666H82.748c1.36 1.887 3.21 3.436 5.19 4.61zm-8.614 34.446a1.936 1.936 0 0 1-2.678.564 90.534 90.534 0 0 1-3.186-2.203c-2.47-1.76-4.604-3.278-6.018-3.038-1.428.248-5.11 3.29-7.7 5.967-.38.39-.886.587-1.392.587a1.936 1.936 0 0 1-1.39-3.28c1.046-1.08 6.438-6.503 9.823-7.087 3.006-.52 5.75 1.438 8.924 3.703.964.688 1.964 1.4 3.052 2.11a1.933 1.933 0 0 1 .564 2.678zm7.135-9.82a1.936 1.936 0 0 1-2.478 1.162c-1.936-.7-4.525-2.3-7.266-3.992-2.602-1.607-6.955-4.29-8.16-4.21-1.936.335-10.854 6.845-14.21 9.296-1.046.764-1.948 1.422-2.59 1.877a1.94 1.94 0 0 1-2.698-.464 1.934 1.934 0 0 1 .465-2.696c.617-.438 1.51-1.09 2.54-1.842 8.437-6.158 13.462-9.574 15.855-9.986 2.36-.408 5.654 1.533 10.834 4.732 2.45 1.516 4.986 3.082 6.547 3.646a1.934 1.934 0 0 1 1.16 2.476zm4.905-9.507a1.934 1.934 0 0 1-2.447 1.223c-3.23-1.076-6.752-3.584-10.156-6.01-3.232-2.303-7.252-5.162-8.896-4.883-1.81.313-7.406 4.002-11.904 6.967-5.568 3.67-10.828 7.14-13.813 7.94a1.934 1.934 0 0 1-1.006-3.737c2.382-.642 7.856-4.25 12.688-7.435 6.7-4.418 10.945-7.13 13.375-7.55 3.234-.558 7.2 2.27 11.8 5.544 3.173 2.26 6.454 4.598 9.136 5.492a1.935 1.935 0 0 1 1.222 2.45z"/></svg>