<?xml version="1.0" encoding="utf-8"?>
<!-- Generator: Adobe Illustrator 16.0.0, SVG Export Plug-In . SVG Version: 6.00 Build 0)  -->
<!DOCTYPE svg PUBLIC "-//W3C//DTD SVG 1.1//EN" "http://www.w3.org/Graphics/SVG/1.1/DTD/svg11.dtd">
<svg version="1.1" id="Layer_1" xmlns="http://www.w3.org/2000/svg" xmlns:xlink="http://www.w3.org/1999/xlink" x="0px" y="0px"
	 width="126px" height="126px" viewBox="0 0 126 126" enable-background="new 0 0 126 126" xml:space="preserve">
<g>
	<path d="M43,52.031c0.367,0.08,0.707,0.074,1.752-0.729c0.463-0.355,1.15-0.957,1.783-1.795l0.277-0.367
		c2.373-3.156,7.926-10.543,15.949-10.143c6.615,0.482,11.305,5.479,13.561,14.449c0.078,0.305,0.125,0.492,0.176,0.635
		c0.344,1.467,0.924,3.295,1.756,3.896c0.207,0.15,0.445,0.221,0.684,0.221c0.361,0,0.719-0.168,0.947-0.484
		c0.365-0.504,0.268-1.203-0.211-1.59c-0.23-0.299-0.664-1.547-0.922-2.662c-0.016-0.066-0.035-0.131-0.063-0.193
		c-0.021-0.076-0.064-0.244-0.102-0.393c-0.357-1.422-1.307-5.199-3.611-8.75c-2.975-4.588-7.031-7.098-12.061-7.459
		c-0.008-0.002-0.016-0.002-0.023-0.002c-9.268-0.473-15.35,7.617-17.947,11.07L44.672,48.1c-0.711,0.939-1.551,1.523-1.84,1.693
		c-0.098,0.039-0.193,0.092-0.281,0.158c-0.363,0.275-0.541,0.744-0.443,1.189C42.207,51.586,42.555,51.934,43,52.031z"/>
	<path d="M72.254,56.51c0.883-2.201,0.904-4.477,0.059-6.24c-0.752-1.574-2.156-2.715-4.061-3.299
		c-2.793-0.854-6.178,0.697-9.279,4.252c-0.041,0.043-4.455,4.688-9.094,7.527c-0.033,0.02-3.428,2.057-6.973,3.021
		c-0.623,0.17-0.99,0.813-0.82,1.434c0.17,0.623,0.811,0.99,1.434,0.82c3.857-1.049,7.418-3.186,7.574-3.279
		c5.029-3.08,9.592-7.936,9.631-7.98c1.883-2.158,4.67-4.227,6.844-3.561c1.279,0.393,2.168,1.09,2.637,2.072
		c0.564,1.176,0.52,2.768-0.119,4.365c-1.189,2.975-4.896,6.564-10.436,10.111c-2.777,1.779-9.77,6.146-14.709,8.258
		c-0.594,0.254-0.869,0.939-0.615,1.533c0.189,0.443,0.621,0.709,1.074,0.709c0.152,0,0.309-0.029,0.459-0.094
		c5.1-2.182,12.225-6.627,15.053-8.438C65.117,65.029,70.5,60.896,72.254,56.51z"/>
	<path d="M53.443,47.791c-0.529,0.584-1.006,1.211-1.52,1.809c-0.67,0.785-1.404,1.518-2.17,2.209
		c-0.787,0.711-1.424,1.221-2.354,1.754c-0.984,0.564-1.988,1.137-3.01,1.633c-0.352,0.172-0.652,0.283-1.047,0.402
		c-0.609,0.182-0.988,0.811-0.816,1.436c0.166,0.604,0.828,1,1.438,0.816c1.193-0.359,2.277-0.975,3.354-1.586
		c0.912-0.518,1.816-0.984,2.652-1.621c1.633-1.24,3.035-2.689,4.326-4.273c0.523-0.643,1.082-1.254,1.666-1.842
		c0.32-0.32,0.648-0.629,0.986-0.932c0.174-0.156,0.354-0.311,0.533-0.461c0.092-0.076,0.184-0.152,0.275-0.229
		c0.025-0.02,0.207-0.162,0.252-0.199c0.814-0.623,1.68-1.178,2.592-1.645c0.861-0.443,1.727-0.754,2.773-0.973
		c0.348-0.072,0.424-0.08,0.684-0.105c0.633-0.066,1.17-0.482,1.17-1.168c0-0.588-0.535-1.234-1.17-1.17
		C59.838,42.086,56.227,44.725,53.443,47.791z"/>
	<path d="M44.354,70.156c2.537-0.871,15.566-5.736,22.861-15.963c0.375-0.525,0.252-1.254-0.271-1.629
		c-0.525-0.375-1.256-0.254-1.631,0.271c-6.881,9.648-19.299,14.279-21.719,15.111c-0.051,0.018-0.084,0.029-0.094,0.033
		c-0.604,0.229-0.908,0.902-0.68,1.506c0.178,0.467,0.621,0.754,1.094,0.754c0.131,0,0.266-0.021,0.398-0.068L44.354,70.156z"/>
	<path d="M76.137,77.109c-1.619-0.539-3.6-1.949-5.516-3.314c-2.775-1.977-5.17-3.684-7.121-3.348
		c-1.467,0.254-4.029,1.893-8.076,4.559c-2.916,1.922-6.221,4.102-7.658,4.488c-0.623,0.168-0.992,0.809-0.824,1.432
		c0.141,0.521,0.611,0.865,1.127,0.865c0.1,0,0.203-0.014,0.303-0.041c1.803-0.486,4.979-2.578,8.34-4.793
		c2.715-1.791,6.094-4.018,7.186-4.207c0.992-0.17,3.42,1.559,5.369,2.947c2.057,1.465,4.182,2.979,6.133,3.629
		c0.611,0.203,1.273-0.127,1.477-0.738C77.08,77.975,76.748,77.314,76.137,77.109z"/>
	<path d="M73.213,82.832c-0.941-0.34-2.473-1.287-3.953-2.201c-3.127-1.932-5.113-3.104-6.539-2.857
		c-1.445,0.25-4.479,2.311-9.57,6.029c-0.623,0.455-1.16,0.848-1.533,1.111c-0.527,0.373-0.652,1.102-0.281,1.627
		c0.229,0.322,0.588,0.494,0.955,0.494c0.232,0,0.469-0.068,0.674-0.213c0.387-0.275,0.932-0.674,1.564-1.133
		c2.025-1.48,7.408-5.41,8.576-5.611c0.729-0.051,3.357,1.57,4.928,2.541c1.654,1.021,3.217,1.986,4.385,2.41
		c0.607,0.219,1.277-0.096,1.496-0.703C74.133,83.721,73.82,83.051,73.213,82.832z"/>
	<path d="M69.268,88.639c-0.656-0.428-1.26-0.859-1.844-1.275c-1.914-1.367-3.57-2.549-5.387-2.234
		c-2.043,0.354-5.297,3.627-5.93,4.277c-0.447,0.465-0.436,1.203,0.027,1.652c0.227,0.219,0.52,0.33,0.813,0.33
		c0.305,0,0.609-0.119,0.84-0.357c1.564-1.615,3.785-3.451,4.648-3.6c0.854-0.146,2.143,0.77,3.633,1.834
		c0.574,0.41,1.225,0.875,1.922,1.33c0.541,0.352,1.266,0.199,1.617-0.34C69.959,89.715,69.807,88.992,69.268,88.639z"/>
	<path d="M79.545,64.527c-0.973-0.41-1.99-0.844-2.811-1.525c-0.902-0.75-1.322-1.736-1.51-2.873
		c-0.244-1.484-2.494-0.854-2.252,0.619c0.5,3.031,2.73,4.672,5.395,5.797c0.586,0.248,1.246,0.184,1.598-0.42
		C80.256,65.631,80.133,64.775,79.545,64.527z"/>
	<path d="M77.279,70.623c-0.877-0.271-1.543-0.613-2.471-1.162c-1.701-1.004-3.252-2.459-4.006-4.318
		c-0.238-0.59-0.768-1-1.436-0.816c-0.561,0.154-1.057,0.846-0.816,1.438c1.393,3.432,4.588,6.027,8.107,7.111
		C78.102,73.32,78.715,71.064,77.279,70.623z"/>
	<path d="M61.08,14.168c-27.9,0-50.598,22.699-50.598,50.6s22.697,50.6,50.598,50.6s50.6-22.699,50.6-50.6
		S88.98,14.168,61.08,14.168z M61.08,101.367c-20.18,0-36.598-16.418-36.598-36.6c0-20.18,16.418-36.6,36.598-36.6
		c20.182,0,36.6,16.42,36.6,36.6C97.68,84.949,81.262,101.367,61.08,101.367z M61.047,25.055v-7c25.971,0,47.098,21.129,47.098,47.1
		h-7C101.145,43.043,83.156,25.055,61.047,25.055z"/>
</g>
</svg>
