<?xml version="1.0" encoding="utf-8"?>
<!-- Generator: Adobe Illustrator 16.0.0, SVG Export Plug-In . SVG Version: 6.00 Build 0)  -->
<!DOCTYPE svg PUBLIC "-//W3C//DTD SVG 1.1//EN" "http://www.w3.org/Graphics/SVG/1.1/DTD/svg11.dtd">
<svg version="1.1" id="Layer_1" xmlns="http://www.w3.org/2000/svg" xmlns:xlink="http://www.w3.org/1999/xlink" x="0px" y="0px"
	 width="126px" height="126px" viewBox="0 0 126 126" enable-background="new 0 0 126 126" xml:space="preserve">
<g>
	<path d="M28.867,39.229c0.595,0.129,1.147,0.119,2.843-1.182c0.753-0.58,1.866-1.555,2.894-2.914l0.45-0.598
		c3.85-5.119,12.864-17.109,25.883-16.457c10.736,0.783,18.347,8.891,22.008,23.447c0.125,0.494,0.2,0.799,0.284,1.031
		c0.559,2.381,1.498,5.348,2.85,6.324c0.334,0.242,0.723,0.357,1.108,0.357c0.587,0,1.168-0.273,1.538-0.785
		c0.592-0.82,0.434-1.953-0.342-2.582c-0.374-0.482-1.077-2.51-1.496-4.32c-0.024-0.109-0.059-0.213-0.102-0.314
		c-0.035-0.123-0.103-0.395-0.164-0.635c-0.58-2.309-2.122-8.438-5.86-14.201c-4.828-7.445-11.413-11.518-19.572-12.105
		c-0.013-0.002-0.026-0.002-0.04-0.002c-15.039-0.77-24.911,12.359-29.125,17.965l-0.443,0.588c-1.154,1.525-2.517,2.477-2.987,2.75
		c-0.158,0.063-0.312,0.148-0.455,0.256c-0.59,0.447-0.878,1.209-0.719,1.932C27.58,38.504,28.145,39.07,28.867,39.229z"/>
	<path d="M76.343,46.496c1.43-3.572,1.466-7.266,0.094-10.129c-1.221-2.555-3.5-4.404-6.588-5.35
		c-4.533-1.387-10.028,1.129-15.062,6.896c-0.064,0.072-7.23,7.609-14.755,12.217c-0.055,0.033-5.564,3.336-11.317,4.904
		c-1.01,0.273-1.606,1.318-1.331,2.326c0.274,1.01,1.316,1.607,2.327,1.33c6.257-1.701,12.038-5.17,12.291-5.322
		c8.163-4.998,15.567-12.875,15.629-12.949c3.057-3.502,7.58-6.857,11.107-5.777c2.077,0.635,3.517,1.766,4.28,3.361
		c0.914,1.91,0.843,4.492-0.195,7.086c-1.931,4.826-7.945,10.652-16.935,16.408c-4.507,2.887-15.856,9.975-23.873,13.402
		c-0.963,0.41-1.409,1.523-0.998,2.486c0.308,0.721,1.008,1.152,1.744,1.152c0.249,0,0.502-0.049,0.745-0.152
		c8.276-3.541,19.84-10.758,24.427-13.695C64.759,60.32,73.494,53.615,76.343,46.496z"/>
	<path d="M45.815,32.346c-0.86,0.947-1.632,1.965-2.464,2.936c-1.089,1.273-2.279,2.463-3.522,3.586
		c-1.278,1.154-2.312,1.979-3.819,2.846c-1.599,0.916-3.229,1.844-4.885,2.65c-0.57,0.277-1.06,0.459-1.701,0.652
		c-0.988,0.297-1.602,1.316-1.323,2.33c0.268,0.979,1.342,1.623,2.332,1.326c1.938-0.584,3.695-1.582,5.444-2.576
		c1.479-0.84,2.946-1.598,4.304-2.631c2.648-2.012,4.926-4.363,7.021-6.936c0.849-1.041,1.756-2.033,2.704-2.986
		c0.517-0.52,1.052-1.021,1.599-1.512c0.284-0.256,0.573-0.504,0.866-0.75c0.148-0.125,0.298-0.248,0.449-0.369
		c0.039-0.033,0.333-0.266,0.408-0.324c1.32-1.012,2.727-1.91,4.207-2.67c1.398-0.719,2.8-1.223,4.501-1.576
		c0.564-0.117,0.687-0.131,1.109-0.174c1.027-0.107,1.896-0.783,1.896-1.895c0-0.955-0.866-2.004-1.896-1.896
		C56.191,23.086,50.331,27.371,45.815,32.346z"/>
	<path d="M31.063,68.641c4.118-1.412,25.262-9.307,37.103-25.904c0.608-0.852,0.41-2.035-0.442-2.645
		c-0.853-0.607-2.037-0.41-2.645,0.443C53.91,56.189,33.757,63.707,29.831,65.059c-0.084,0.027-0.136,0.045-0.154,0.051
		c-0.979,0.373-1.472,1.467-1.101,2.445c0.287,0.758,1.008,1.225,1.774,1.225c0.214,0,0.433-0.037,0.646-0.113L31.063,68.641z"/>
	<path d="M69.731,71.807c-2.855-1.852-5.399-3.068-7.597-2.691c-2.38,0.412-6.539,3.07-13.104,7.396
		c-4.732,3.119-10.097,6.656-12.43,7.283c-1.011,0.275-1.61,1.314-1.338,2.324c0.228,0.848,0.993,1.404,1.83,1.404
		c0.163,0,0.329-0.021,0.493-0.066c2.925-0.789,8.078-4.186,13.533-7.779c4.406-2.904,9.889-6.52,11.661-6.826
		c0.734-0.125,1.957,0.395,3.366,1.205c0.217-0.137,0.423-0.27,0.614-0.391C67.838,72.98,68.818,72.363,69.731,71.807z"/>
	<path d="M66.111,82.49"/>
	<path d="M45.341,90.787c-1.012,0.738-1.885,1.377-2.491,1.805c-0.854,0.605-1.058,1.787-0.455,2.641
		c0.371,0.523,0.956,0.803,1.55,0.803c0.378,0,0.76-0.113,1.092-0.348c0.63-0.445,1.514-1.092,2.539-1.838
		c2.72-1.986,9.159-6.686,12.379-8.438c-0.53-1.367-0.944-2.625-1.165-3.641C56.04,83.125,51.675,86.164,45.341,90.787z"/>
	<path d="M63.71,93.564c-1.305-0.58-2.599-0.857-3.947-0.623c-3.317,0.572-8.598,5.885-9.624,6.941
		c-0.728,0.752-0.708,1.953,0.044,2.682c0.368,0.355,0.843,0.533,1.317,0.533c0.496,0,0.991-0.193,1.362-0.578
		c2.539-2.621,6.146-5.6,7.545-5.842c1.384-0.238,3.476,1.25,5.895,2.975c0.518,0.371,1.08,0.768,1.666,1.176
		c-1.001-1.484-2.088-3.262-3.269-5.408C64.387,94.85,64.053,94.225,63.71,93.564z"/>
	<path d="M88.176,59.508c-1.58-0.668-3.232-1.369-4.562-2.477c-1.464-1.217-2.145-2.816-2.45-4.664
		c-0.396-2.408-4.05-1.383-3.656,1.008c0.811,4.916,4.43,7.58,8.754,9.404c0.952,0.404,2.021,0.299,2.593-0.678
		C89.328,61.297,89.128,59.91,88.176,59.508z"/>
	<path d="M85.23,72.672c0.898-0.895,0.868-2.779-0.733-3.273c-1.423-0.439-2.504-0.994-4.01-1.885
		c-2.759-1.629-5.275-3.992-6.499-7.01c-0.388-0.955-1.247-1.621-2.332-1.322c-0.909,0.25-1.712,1.373-1.324,2.332
		c1.176,2.898,3.149,5.424,5.572,7.434c0.339-0.061,0.667-0.094,0.984-0.094C79.071,68.854,81.557,70.295,85.23,72.672z"/>
</g>
<path stroke="#000000" stroke-width="2" stroke-miterlimit="10" d="M92.153,80.314c-0.142-0.248-0.378-0.385-0.664-0.385
	c-1.246,0-4.122-1.877-6.902-3.691c-3.134-2.043-6.093-3.975-7.698-3.975c-1.695,0-5.159,2.205-8.516,4.342
	c-2.564,1.635-5.218,3.324-6.085,3.324c-0.242,0-0.447,0.125-0.563,0.342c-0.075,0.143-0.112,0.322-0.112,0.547
	c0,3.209,10.152,24.725,15.275,24.725c4.836,0,15.417-20.584,15.417-24.521C92.306,80.725,92.256,80.492,92.153,80.314z
	 M76.889,104.711c-1.448,0-3.979-2.746-6.942-7.533c-4.221-6.818-7.708-15.102-7.511-16.422c1.173-0.127,3.592-1.666,6.396-3.453
	c3.097-1.973,6.604-4.207,8.058-4.207c1.356,0,4.482,2.041,7.243,3.842c2.984,1.947,5.805,3.789,7.315,3.818
	c0.125,0.242,0.031,1.727-1.836,5.955C86.294,94.227,79.848,104.711,76.889,104.711z"/>
</svg>
