<?xml version="1.0" encoding="utf-8"?>
<!-- Generator: Adobe Illustrator 16.0.0, SVG Export Plug-In . SVG Version: 6.00 Build 0)  -->
<!DOCTYPE svg PUBLIC "-//W3C//DTD SVG 1.1//EN" "http://www.w3.org/Graphics/SVG/1.1/DTD/svg11.dtd">
<svg version="1.1" id="Layer_1" xmlns="http://www.w3.org/2000/svg" xmlns:xlink="http://www.w3.org/1999/xlink" x="0px" y="0px"
	 width="126px" height="126px" viewBox="0 0 126 126" enable-background="new 0 0 126 126" xml:space="preserve">
<g>
	<path d="M60.501,83.893c0.121,0.025,0.232,0.023,0.576-0.24c0.154-0.117,0.379-0.314,0.59-0.592l0.09-0.119
		c0.781-1.043,2.613-3.477,5.256-3.344c2.18,0.158,3.725,1.807,4.467,4.762c0.027,0.102,0.041,0.164,0.061,0.209
		c0.113,0.482,0.305,1.086,0.578,1.285c0.066,0.049,0.146,0.072,0.227,0.072c0.119,0,0.234-0.055,0.311-0.16
		c0.121-0.164,0.09-0.396-0.068-0.523c-0.078-0.098-0.219-0.512-0.303-0.877c-0.006-0.023-0.014-0.043-0.021-0.064
		c-0.008-0.025-0.021-0.08-0.033-0.129c-0.119-0.469-0.432-1.713-1.189-2.883c-0.982-1.512-2.32-2.34-3.975-2.459
		c-0.004,0-0.008,0-0.008,0c-3.055-0.158-5.061,2.51-5.918,3.646l-0.088,0.119c-0.234,0.313-0.51,0.502-0.609,0.561
		c-0.029,0.012-0.061,0.031-0.09,0.051c-0.121,0.09-0.178,0.246-0.146,0.393C60.24,83.746,60.353,83.859,60.501,83.893z"/>
	<path d="M70.142,85.369c0.289-0.725,0.297-1.477,0.02-2.057c-0.248-0.518-0.713-0.895-1.34-1.088
		c-0.918-0.281-2.035,0.229-3.057,1.404c-0.014,0.012-1.471,1.541-2.998,2.479c-0.01,0.008-1.129,0.678-2.297,0.994
		c-0.207,0.057-0.326,0.268-0.271,0.473c0.057,0.207,0.27,0.328,0.473,0.271c1.271-0.346,2.445-1.051,2.496-1.082
		c1.658-1.014,3.164-2.615,3.172-2.629c0.623-0.711,1.541-1.393,2.258-1.172c0.42,0.127,0.715,0.357,0.869,0.682
		c0.186,0.389,0.17,0.912-0.039,1.438c-0.393,0.98-1.613,2.164-3.439,3.332c-0.914,0.588-3.221,2.029-4.848,2.723
		c-0.195,0.084-0.285,0.309-0.203,0.504c0.064,0.148,0.205,0.236,0.355,0.236c0.049,0,0.102-0.012,0.15-0.031
		c1.682-0.721,4.027-2.186,4.959-2.781C67.791,88.178,69.562,86.816,70.142,85.369z"/>
	<path d="M63.943,82.494c-0.176,0.195-0.332,0.4-0.502,0.596c-0.221,0.26-0.461,0.502-0.715,0.729
		c-0.26,0.234-0.469,0.402-0.775,0.578c-0.326,0.188-0.656,0.375-0.99,0.539c-0.117,0.057-0.217,0.094-0.346,0.131
		c-0.201,0.063-0.326,0.27-0.27,0.475c0.055,0.199,0.271,0.33,0.473,0.268c0.395-0.117,0.752-0.318,1.107-0.52
		c0.299-0.174,0.598-0.326,0.873-0.537c0.537-0.408,0.998-0.885,1.426-1.408c0.172-0.211,0.357-0.412,0.549-0.605
		c0.105-0.105,0.213-0.207,0.324-0.307c0.057-0.053,0.115-0.102,0.176-0.154c0.029-0.021,0.063-0.049,0.092-0.074
		c0.008-0.004,0.068-0.053,0.084-0.064c0.268-0.205,0.551-0.389,0.854-0.543c0.283-0.145,0.566-0.248,0.912-0.32
		c0.117-0.023,0.141-0.027,0.225-0.033c0.209-0.023,0.387-0.16,0.387-0.385c0-0.197-0.176-0.408-0.387-0.387
		C66.048,80.615,64.861,81.484,63.943,82.494z"/>
	<path d="M60.947,89.867c0.836-0.289,5.131-1.891,7.535-5.262c0.123-0.174,0.082-0.414-0.092-0.537
		c-0.172-0.123-0.412-0.082-0.535,0.09c-2.268,3.178-6.361,4.705-7.158,4.979c-0.018,0.008-0.029,0.012-0.031,0.014
		c-0.197,0.074-0.299,0.297-0.225,0.494c0.061,0.154,0.203,0.248,0.361,0.248c0.045,0,0.088-0.004,0.131-0.023L60.947,89.867z"/>
	<path d="M71.421,92.158c-0.533-0.18-1.186-0.643-1.818-1.092c-0.916-0.652-1.705-1.215-2.346-1.104
		c-0.484,0.082-1.33,0.621-2.66,1.502c-0.963,0.633-2.053,1.352-2.525,1.479c-0.207,0.055-0.328,0.266-0.273,0.471
		c0.047,0.172,0.203,0.285,0.373,0.285c0.031,0,0.064-0.004,0.098-0.012c0.596-0.16,1.641-0.852,2.752-1.582
		c0.891-0.588,2.006-1.322,2.367-1.385c0.324-0.057,1.127,0.514,1.77,0.971c0.676,0.484,1.377,0.982,2.02,1.195
		c0.203,0.068,0.42-0.041,0.486-0.242C71.732,92.443,71.623,92.225,71.421,92.158z"/>
	<path d="M70.457,94.043c-0.309-0.111-0.814-0.424-1.303-0.725c-1.029-0.637-1.684-1.025-2.152-0.941
		c-0.479,0.082-1.479,0.762-3.156,1.986c-0.205,0.148-0.383,0.277-0.504,0.365c-0.174,0.125-0.215,0.365-0.094,0.537
		c0.074,0.105,0.193,0.162,0.314,0.162c0.078,0,0.156-0.023,0.223-0.068c0.129-0.092,0.307-0.223,0.516-0.375
		c0.668-0.486,2.443-1.781,2.826-1.85c0.24-0.016,1.107,0.518,1.623,0.838c0.547,0.336,1.061,0.656,1.447,0.795
		c0.197,0.072,0.42-0.031,0.492-0.232S70.66,94.115,70.457,94.043z"/>
	<path d="M69.158,95.957c-0.217-0.143-0.416-0.283-0.609-0.42c-0.629-0.451-1.176-0.842-1.775-0.736
		c-0.672,0.117-1.746,1.195-1.951,1.408c-0.15,0.152-0.145,0.398,0.008,0.545c0.074,0.072,0.172,0.107,0.268,0.107
		c0.102,0,0.201-0.037,0.275-0.115c0.518-0.533,1.248-1.137,1.533-1.186c0.281-0.051,0.707,0.252,1.197,0.604
		c0.189,0.133,0.404,0.289,0.633,0.438c0.18,0.117,0.416,0.064,0.531-0.113C69.384,96.311,69.335,96.074,69.158,95.957z"/>
	<path d="M72.544,88.01c-0.32-0.135-0.656-0.275-0.926-0.5c-0.297-0.248-0.438-0.572-0.498-0.949
		c-0.08-0.488-0.824-0.281-0.742,0.207c0.164,0.998,0.898,1.537,1.775,1.908c0.197,0.082,0.412,0.061,0.529-0.137
		C72.779,88.373,72.738,88.092,72.544,88.01z"/>
	<path d="M71.798,90.02c-0.289-0.088-0.51-0.201-0.814-0.383c-0.561-0.332-1.074-0.809-1.32-1.424
		c-0.078-0.193-0.254-0.33-0.473-0.268c-0.186,0.049-0.348,0.279-0.271,0.473c0.459,1.131,1.512,1.984,2.672,2.344
		C72.07,90.908,72.271,90.166,71.798,90.02z"/>
	<path d="M92.976,20.068H38.98c-3.453,0-6.262,2.81-6.262,6.264v78.049c0,3.453,2.809,6.264,6.262,6.264h53.996
		c3.453,0,6.264-2.811,6.264-6.264V26.332C99.24,22.878,96.429,20.068,92.976,20.068z M95.66,104.381
		c0,1.48-1.203,2.684-2.684,2.684H38.98c-1.48,0-2.684-1.203-2.684-2.684V26.332c0-1.48,1.203-2.685,2.684-2.685h53.996
		c1.48,0,2.684,1.204,2.684,2.685V104.381z"/>
	<path d="M54.339,102.754h24.066V72.932H54.339V102.754z M57.917,76.512h16.91v22.664h-16.91V76.512z"/>
	<rect x="43.703" y="28.128" width="10.385" height="10.386"/>
	<rect x="60.906" y="28.128" width="10.385" height="10.386"/>
	<rect x="77.642" y="28.128" width="10.385" height="10.386"/>
	<rect x="43.814" y="42.696" width="10.387" height="10.386"/>
	<rect x="61.017" y="42.696" width="10.385" height="10.386"/>
	<rect x="77.755" y="42.696" width="10.385" height="10.386"/>
	<rect x="43.851" y="57.671" width="10.387" height="10.386"/>
	<rect x="61.054" y="57.671" width="10.385" height="10.386"/>
	<rect x="77.792" y="57.671" width="10.385" height="10.386"/>
</g>
</svg>
