<?xml version="1.0" encoding="utf-8"?>
<!-- Generator: Adobe Illustrator 16.0.0, SVG Export Plug-In . SVG Version: 6.00 Build 0)  -->
<!DOCTYPE svg PUBLIC "-//W3C//DTD SVG 1.1//EN" "http://www.w3.org/Graphics/SVG/1.1/DTD/svg11.dtd">
<svg version="1.1" id="Layer_1" xmlns="http://www.w3.org/2000/svg" xmlns:xlink="http://www.w3.org/1999/xlink" x="0px" y="0px"
	 width="126px" height="126px" viewBox="0 0 126 126" enable-background="new 0 0 126 126" xml:space="preserve">
<g>
	<path d="M37.727,77.32c-0.006-0.002-0.01-0.002-0.018-0.004c-6.398-1.377-12.875,0.461-15.639,1.246l-0.291,0.082
		c-0.756,0.213-1.506,0.295-1.756,0.311c-0.078,0-0.158,0.004-0.24,0.014c-0.33,0.043-0.584,0.172-0.635,0.33
		s0.102,0.318,0.389,0.408c0.236,0.076,0.477,0.119,1.43-0.006c0.424-0.055,1.07-0.16,1.742-0.352l0.295-0.082
		c2.525-0.719,8.439-2.396,13.982-1.207c4.529,1.031,6.48,3.279,5.641,6.506c-0.029,0.109-0.047,0.178-0.051,0.23
		c-0.154,0.523-0.24,1.197,0.184,1.502c0.104,0.076,0.254,0.131,0.422,0.162c0.254,0.049,0.551,0.041,0.797-0.033
		c0.395-0.115,0.516-0.355,0.283-0.545c-0.08-0.129-0.049-0.594,0.072-0.992c0.006-0.023,0.01-0.047,0.008-0.07
		c0.006-0.027,0.021-0.088,0.035-0.141c0.133-0.512,0.486-1.869-0.174-3.334C43.348,79.457,41.17,78.104,37.727,77.32z"/>
	<path d="M38.93,85.029c1.219-0.602,1.85-1.342,1.732-2.029c-0.104-0.613-0.785-1.172-1.967-1.613
		c-1.736-0.646-4.541-0.588-7.689,0.164c-0.039,0.008-4.406,0.943-8.443,1.258c-0.029,0.002-2.973,0.219-5.73,0.066
		c-0.482-0.027-0.916,0.135-0.965,0.359s0.303,0.43,0.787,0.457c3.002,0.166,6.088-0.061,6.225-0.072
		c4.377-0.342,8.904-1.324,8.943-1.334c1.912-0.455,4.436-0.762,5.785-0.26c0.795,0.299,1.232,0.643,1.297,1.025
		c0.078,0.459-0.383,0.973-1.266,1.41c-1.645,0.813-5.227,1.496-10.09,1.924c-2.438,0.213-8.547,0.717-12.598,0.754
		c-0.488,0.004-0.867,0.191-0.85,0.42c0.014,0.168,0.246,0.313,0.566,0.371c0.107,0.021,0.227,0.031,0.348,0.029
		c4.184-0.037,10.408-0.549,12.889-0.768C31.596,86.867,36.506,86.229,38.93,85.029z"/>
	<path d="M28.041,79.701c-0.531,0.121-1.037,0.264-1.561,0.391c-0.684,0.168-1.398,0.311-2.125,0.434
		c-0.748,0.129-1.334,0.211-2.133,0.262c-0.848,0.055-1.709,0.109-2.564,0.137c-0.293,0.01-0.535,0.006-0.846-0.006
		c-0.479-0.021-0.916,0.133-0.965,0.359c-0.045,0.219,0.313,0.436,0.793,0.457c0.938,0.039,1.867-0.018,2.791-0.076
		c0.783-0.049,1.547-0.082,2.309-0.178c1.484-0.189,2.865-0.479,4.205-0.826c0.541-0.139,1.102-0.266,1.672-0.379
		c0.311-0.064,0.627-0.121,0.945-0.176c0.166-0.027,0.334-0.053,0.502-0.08c0.084-0.014,0.17-0.025,0.256-0.037
		c0.021-0.004,0.189-0.025,0.232-0.033c0.74-0.096,1.502-0.162,2.27-0.193c0.729-0.031,1.42-0.02,2.217,0.049
		c0.266,0.021,0.32,0.029,0.512,0.055c0.463,0.063,0.953-0.004,1.141-0.227c0.158-0.191-0.043-0.473-0.508-0.535
		C34.09,78.682,30.832,79.068,28.041,79.701z"/>
	<path d="M15.582,85.801c2.023,0.051,12.518,0.182,20.426-2.193c0.406-0.121,0.518-0.375,0.25-0.566
		c-0.27-0.191-0.816-0.25-1.223-0.127c-7.459,2.24-17.461,2.115-19.391,2.066c-0.041,0-0.066-0.002-0.076-0.002
		c-0.486-0.004-0.883,0.176-0.887,0.402c-0.002,0.176,0.234,0.328,0.568,0.391c0.092,0.018,0.193,0.027,0.297,0.031L15.582,85.801z"
		/>
	<path d="M36.086,92.266c-0.994-0.391-2.006-1.113-2.986-1.811c-1.42-1.012-2.643-1.885-4.111-2.033
		c-1.102-0.109-3.35,0.086-6.922,0.424c-2.574,0.242-5.492,0.518-6.611,0.453c-0.482-0.025-0.918,0.135-0.969,0.359
		c-0.041,0.189,0.199,0.363,0.561,0.432c0.07,0.012,0.146,0.021,0.225,0.027c1.402,0.078,4.205-0.186,7.174-0.465
		c2.396-0.227,5.379-0.508,6.199-0.426c0.746,0.076,1.986,0.961,2.984,1.67c1.053,0.75,2.139,1.525,3.338,1.994
		c0.375,0.146,0.932,0.127,1.242-0.047C36.516,92.672,36.463,92.412,36.086,92.266z"/>
	<path d="M32.479,93.746c-0.572-0.234-1.395-0.746-2.189-1.24c-1.678-1.043-2.762-1.688-3.832-1.795
		c-1.086-0.109-3.781,0.164-8.373,0.707c-0.563,0.064-1.049,0.121-1.383,0.16c-0.471,0.051-0.758,0.271-0.639,0.494
		c0.074,0.135,0.281,0.238,0.539,0.287c0.164,0.029,0.35,0.039,0.533,0.018c0.348-0.037,0.84-0.096,1.408-0.164
		c1.828-0.215,6.684-0.787,7.563-0.699c0.525,0.08,1.938,0.957,2.781,1.48c0.889,0.551,1.729,1.072,2.438,1.365
		c0.367,0.152,0.924,0.137,1.242-0.033C32.887,94.158,32.846,93.898,32.479,93.746z"/>
	<path d="M28.125,95.121c-0.346-0.227-0.652-0.445-0.951-0.66c-0.98-0.697-1.826-1.303-3.191-1.439
		c-1.535-0.154-4.713,0.486-5.334,0.613c-0.441,0.094-0.633,0.336-0.43,0.545c0.102,0.1,0.277,0.176,0.484,0.213
		c0.215,0.041,0.463,0.043,0.688-0.006c1.539-0.32,3.602-0.627,4.25-0.561c0.641,0.064,1.301,0.533,2.063,1.078
		c0.293,0.209,0.627,0.447,0.994,0.688c0.285,0.186,0.836,0.232,1.23,0.102C28.322,95.564,28.41,95.307,28.125,95.121z"/>
	<path d="M41.896,88.607c-0.576-0.264-1.174-0.537-1.568-0.869c-0.432-0.363-0.461-0.74-0.283-1.137
		c0.229-0.516-1.529-0.607-1.756-0.094c-0.469,1.055,0.658,1.883,2.23,2.604c0.346,0.158,0.828,0.223,1.238,0.072
		C42.096,89.061,42.242,88.766,41.896,88.607z"/>
	<path d="M38.648,90.299c-0.545-0.205-0.92-0.404-1.426-0.705c-0.926-0.553-1.623-1.232-1.652-1.939
		c-0.008-0.223-0.27-0.428-0.791-0.455c-0.436-0.023-0.973,0.137-0.963,0.361c0.051,1.303,1.6,2.572,3.785,3.391
		C38.498,91.287,39.539,90.631,38.648,90.299z"/>
	<path d="M84.713,65.296c-0.004-0.002-0.01-0.003-0.016-0.004c-6.4-1.378-12.875,0.46-15.639,1.245l-0.291,0.082
		c-0.756,0.213-1.506,0.294-1.756,0.311c-0.08-0.001-0.16,0.004-0.24,0.015c-0.33,0.041-0.584,0.172-0.635,0.33
		c-0.051,0.157,0.1,0.317,0.387,0.408C66.76,67.757,67,67.8,67.955,67.676c0.424-0.056,1.068-0.161,1.742-0.351l0.295-0.083
		c2.525-0.718,8.438-2.396,13.982-1.207c4.529,1.03,6.479,3.28,5.639,6.505c-0.027,0.11-0.047,0.178-0.049,0.231
		c-0.154,0.524-0.242,1.196,0.182,1.503c0.105,0.075,0.256,0.131,0.422,0.162c0.254,0.048,0.553,0.04,0.799-0.033
		c0.395-0.117,0.514-0.357,0.281-0.547c-0.08-0.127-0.047-0.592,0.072-0.99c0.008-0.023,0.01-0.048,0.008-0.071
		c0.006-0.028,0.021-0.089,0.035-0.142c0.135-0.512,0.486-1.869-0.174-3.332C90.336,67.431,88.156,66.077,84.713,65.296z"/>
	<path d="M85.918,73.004c1.217-0.603,1.85-1.343,1.732-2.03c-0.105-0.612-0.785-1.17-1.969-1.611
		c-1.734-0.647-4.541-0.588-7.688,0.163c-0.039,0.009-4.408,0.942-8.443,1.258c-0.029,0.001-2.973,0.218-5.73,0.066
		c-0.484-0.028-0.916,0.134-0.967,0.359c-0.049,0.226,0.303,0.431,0.789,0.456c3,0.167,6.088-0.061,6.223-0.07
		c4.377-0.342,8.906-1.325,8.945-1.335c1.91-0.455,4.434-0.763,5.785-0.259c0.795,0.297,1.23,0.642,1.297,1.024
		c0.078,0.458-0.385,0.972-1.268,1.409c-1.643,0.813-5.227,1.496-10.09,1.924c-2.438,0.214-8.547,0.717-12.598,0.754
		c-0.486,0.005-0.865,0.192-0.848,0.42c0.014,0.169,0.246,0.313,0.564,0.372c0.107,0.021,0.227,0.031,0.35,0.03
		c4.184-0.039,10.406-0.55,12.887-0.769C78.584,74.843,83.494,74.204,85.918,73.004z"/>
	<path d="M75.029,67.675c-0.533,0.122-1.037,0.264-1.561,0.391c-0.686,0.168-1.4,0.311-2.127,0.436
		c-0.746,0.128-1.334,0.21-2.133,0.261c-0.846,0.055-1.709,0.109-2.563,0.137c-0.293,0.01-0.537,0.006-0.848-0.007
		c-0.477-0.021-0.914,0.135-0.963,0.36c-0.047,0.22,0.313,0.436,0.791,0.456c0.938,0.041,1.867-0.018,2.793-0.075
		c0.781-0.049,1.545-0.082,2.307-0.179c1.486-0.189,2.867-0.477,4.205-0.824c0.543-0.141,1.102-0.267,1.672-0.381
		c0.313-0.063,0.629-0.12,0.947-0.174c0.166-0.028,0.332-0.055,0.5-0.081c0.086-0.013,0.172-0.024,0.258-0.038
		c0.021-0.003,0.188-0.025,0.23-0.032c0.742-0.096,1.502-0.162,2.271-0.194c0.727-0.031,1.42-0.018,2.217,0.049
		c0.266,0.022,0.32,0.029,0.51,0.056c0.465,0.062,0.955-0.004,1.141-0.228c0.158-0.191-0.043-0.473-0.508-0.535
		C81.078,66.657,77.818,67.042,75.029,67.675z"/>
	<path d="M62.568,73.776c2.023,0.05,12.52,0.182,20.428-2.194c0.406-0.122,0.518-0.375,0.25-0.567
		c-0.27-0.191-0.816-0.248-1.223-0.126c-7.461,2.241-17.461,2.114-19.391,2.066c-0.043,0-0.068-0.002-0.076-0.002
		c-0.486-0.004-0.885,0.176-0.887,0.402c-0.002,0.176,0.234,0.328,0.566,0.391c0.094,0.017,0.193,0.027,0.299,0.03H62.568z"/>
	<path d="M83.074,80.239c-0.994-0.39-2.008-1.111-2.986-1.81c-1.42-1.012-2.645-1.885-4.111-2.032
		c-1.102-0.11-3.35,0.086-6.922,0.423c-2.574,0.242-5.494,0.518-6.611,0.454c-0.484-0.027-0.918,0.134-0.969,0.359
		c-0.043,0.188,0.197,0.362,0.561,0.43c0.07,0.014,0.146,0.023,0.225,0.027c1.4,0.079,4.205-0.186,7.172-0.465
		c2.398-0.227,5.381-0.507,6.201-0.424c0.744,0.074,1.986,0.959,2.984,1.67c1.051,0.749,2.139,1.523,3.336,1.993
		c0.377,0.147,0.932,0.127,1.242-0.046C83.504,80.646,83.449,80.387,83.074,80.239z"/>
	<path d="M79.465,81.721c-0.57-0.235-1.393-0.745-2.188-1.239c-1.68-1.043-2.762-1.688-3.834-1.796
		c-1.084-0.109-3.779,0.164-8.373,0.706c-0.563,0.066-1.047,0.123-1.383,0.16c-0.471,0.052-0.756,0.273-0.637,0.494
		c0.072,0.135,0.279,0.239,0.537,0.287c0.166,0.031,0.35,0.039,0.533,0.019c0.35-0.038,0.84-0.096,1.408-0.163
		c1.828-0.215,6.686-0.788,7.563-0.7c0.527,0.08,1.939,0.956,2.781,1.479c0.891,0.552,1.729,1.073,2.438,1.365
		c0.367,0.152,0.926,0.138,1.244-0.031C79.873,82.132,79.834,81.873,79.465,81.721z"/>
	<path d="M75.113,83.097c-0.346-0.227-0.654-0.447-0.953-0.66c-0.979-0.699-1.824-1.304-3.189-1.439
		c-1.535-0.154-4.713,0.484-5.334,0.613c-0.443,0.093-0.635,0.336-0.43,0.543c0.102,0.101,0.277,0.176,0.482,0.215
		c0.217,0.04,0.463,0.041,0.689-0.006c1.539-0.321,3.602-0.627,4.25-0.562c0.641,0.063,1.299,0.534,2.061,1.077
		c0.293,0.21,0.627,0.447,0.994,0.688c0.287,0.187,0.838,0.231,1.232,0.102C75.309,83.538,75.398,83.282,75.113,83.097z"/>
	<path d="M88.883,76.582c-0.574-0.263-1.174-0.538-1.566-0.868c-0.432-0.364-0.461-0.741-0.285-1.137
		c0.229-0.518-1.527-0.608-1.756-0.096c-0.467,1.055,0.658,1.885,2.23,2.604c0.346,0.158,0.828,0.224,1.24,0.073
		C89.084,77.035,89.229,76.741,88.883,76.582z"/>
	<path d="M85.635,78.272c-0.545-0.204-0.92-0.403-1.426-0.705c-0.924-0.553-1.623-1.231-1.65-1.938
		c-0.01-0.224-0.271-0.428-0.791-0.455c-0.438-0.024-0.973,0.137-0.965,0.361c0.051,1.304,1.6,2.572,3.785,3.392
		C85.486,79.261,86.527,78.606,85.635,78.272z"/>
	<path d="M43.648,47.055c0.236,0.074,0.477,0.117,1.432-0.006c0.424-0.057,1.068-0.16,1.742-0.352l0.295-0.082
		c2.525-0.719,8.438-2.396,13.98-1.207c4.529,1.031,6.48,3.279,5.641,6.506c-0.027,0.109-0.047,0.176-0.049,0.23
		c-0.154,0.523-0.242,1.195,0.182,1.502c0.105,0.076,0.254,0.131,0.422,0.162c0.254,0.049,0.553,0.041,0.799-0.033
		c0.395-0.115,0.514-0.357,0.281-0.547c-0.08-0.127-0.049-0.592,0.072-0.99c0.008-0.023,0.01-0.047,0.008-0.07
		c0.006-0.029,0.021-0.088,0.035-0.143c0.133-0.512,0.486-1.869-0.174-3.332c-0.854-1.889-3.033-3.244-6.477-4.025
		c-0.004-0.002-0.01-0.002-0.016-0.004c-6.4-1.377-12.875,0.461-15.639,1.246l-0.293,0.082c-0.756,0.213-1.506,0.293-1.756,0.311
		c-0.078,0-0.158,0.004-0.24,0.014c-0.328,0.043-0.582,0.172-0.635,0.33C43.211,46.805,43.361,46.965,43.648,47.055z"/>
	<path d="M63.043,52.377c1.217-0.604,1.85-1.344,1.73-2.031c-0.104-0.611-0.785-1.17-1.967-1.611
		c-1.734-0.646-4.541-0.588-7.689,0.164c-0.039,0.008-4.406,0.941-8.443,1.258c-0.027,0.002-2.971,0.219-5.73,0.066
		c-0.482-0.027-0.916,0.133-0.965,0.359c-0.049,0.225,0.303,0.43,0.787,0.457c3.002,0.166,6.09-0.061,6.225-0.072
		c4.377-0.342,8.906-1.324,8.945-1.334c1.91-0.455,4.434-0.764,5.785-0.26c0.795,0.297,1.23,0.643,1.297,1.025
		c0.076,0.457-0.385,0.973-1.268,1.408c-1.643,0.814-5.227,1.498-10.09,1.924c-2.438,0.215-8.547,0.717-12.598,0.754
		c-0.486,0.006-0.865,0.193-0.848,0.42c0.012,0.17,0.246,0.313,0.564,0.373c0.107,0.021,0.227,0.031,0.35,0.029
		c4.184-0.037,10.406-0.549,12.887-0.768C55.709,54.215,60.617,53.576,63.043,52.377z"/>
	<path d="M52.154,47.047c-0.533,0.123-1.037,0.266-1.561,0.393c-0.686,0.168-1.4,0.309-2.127,0.434
		c-0.748,0.129-1.334,0.211-2.133,0.262c-0.848,0.055-1.709,0.109-2.563,0.137c-0.295,0.01-0.537,0.006-0.848-0.008
		c-0.479-0.021-0.916,0.135-0.963,0.361c-0.047,0.219,0.313,0.436,0.791,0.457c0.938,0.039,1.867-0.018,2.793-0.076
		c0.781-0.049,1.545-0.082,2.307-0.18c1.486-0.189,2.867-0.477,4.205-0.824c0.543-0.141,1.102-0.266,1.672-0.379
		c0.313-0.064,0.627-0.121,0.947-0.176c0.166-0.027,0.332-0.055,0.5-0.08c0.084-0.014,0.17-0.025,0.256-0.037
		c0.023-0.004,0.189-0.027,0.232-0.033c0.742-0.096,1.502-0.162,2.271-0.193c0.727-0.033,1.418-0.02,2.217,0.047
		c0.264,0.023,0.318,0.031,0.51,0.057c0.463,0.061,0.955-0.004,1.141-0.229c0.158-0.191-0.043-0.473-0.508-0.535
		C58.203,46.029,54.943,46.414,52.154,47.047z"/>
	<path d="M39.693,53.148c2.023,0.051,12.518,0.182,20.428-2.193c0.406-0.123,0.518-0.375,0.248-0.566
		c-0.268-0.193-0.814-0.25-1.221-0.127c-7.461,2.24-17.463,2.113-19.391,2.066c-0.043,0-0.068-0.002-0.076-0.002
		c-0.488-0.004-0.885,0.176-0.887,0.402c-0.002,0.176,0.232,0.328,0.566,0.391c0.092,0.018,0.193,0.027,0.299,0.029H39.693z"/>
	<path d="M39.16,57.438c0.07,0.012,0.146,0.021,0.225,0.025c1.4,0.08,4.205-0.184,7.172-0.463c2.398-0.227,5.379-0.508,6.201-0.426
		c0.744,0.076,1.986,0.959,2.984,1.67c1.051,0.75,2.139,1.523,3.336,1.994c0.377,0.146,0.932,0.127,1.242-0.047
		c0.309-0.172,0.254-0.432-0.121-0.58c-0.994-0.389-2.008-1.111-2.988-1.809c-1.418-1.012-2.643-1.885-4.109-2.033
		c-1.102-0.109-3.35,0.086-6.922,0.424c-2.576,0.242-5.494,0.518-6.611,0.453c-0.484-0.025-0.918,0.135-0.969,0.359
		C38.557,57.195,38.797,57.369,39.16,57.438z"/>
	<path d="M56.68,61.674c0.318-0.168,0.277-0.428-0.09-0.58c-0.57-0.234-1.395-0.746-2.188-1.24c-1.68-1.043-2.764-1.688-3.834-1.795
		c-1.084-0.109-3.779,0.164-8.373,0.705c-0.563,0.066-1.049,0.123-1.383,0.16c-0.471,0.053-0.758,0.273-0.637,0.494
		c0.072,0.135,0.279,0.24,0.537,0.287c0.166,0.031,0.35,0.041,0.533,0.02c0.348-0.039,0.84-0.096,1.408-0.164
		c1.828-0.215,6.686-0.787,7.563-0.699c0.525,0.08,1.939,0.955,2.781,1.479c0.891,0.553,1.729,1.074,2.438,1.365
		C55.803,61.857,56.359,61.844,56.68,61.674z"/>
	<path d="M51.285,61.809c-0.979-0.699-1.826-1.303-3.189-1.439c-1.535-0.154-4.715,0.484-5.336,0.613
		c-0.441,0.094-0.633,0.336-0.428,0.545c0.1,0.1,0.277,0.174,0.482,0.213c0.215,0.041,0.463,0.043,0.688-0.006
		c1.541-0.32,3.604-0.627,4.252-0.561c0.639,0.064,1.299,0.533,2.061,1.076c0.293,0.211,0.627,0.447,0.994,0.689
		c0.285,0.186,0.838,0.23,1.232,0.102c0.393-0.129,0.482-0.387,0.197-0.572C51.891,62.242,51.584,62.021,51.285,61.809z"/>
	<path d="M66.008,55.955c-0.574-0.264-1.174-0.537-1.566-0.869c-0.432-0.363-0.461-0.74-0.285-1.137
		c0.229-0.518-1.527-0.607-1.756-0.094c-0.469,1.053,0.658,1.883,2.23,2.604c0.346,0.156,0.828,0.223,1.24,0.072
		C66.209,56.408,66.354,56.113,66.008,55.955z"/>
	<path d="M62.76,57.646c-0.545-0.205-0.92-0.404-1.426-0.705c-0.926-0.553-1.623-1.232-1.65-1.939
		c-0.01-0.223-0.271-0.428-0.793-0.455c-0.436-0.023-0.971,0.137-0.963,0.361c0.051,1.303,1.6,2.572,3.785,3.391
		C62.609,58.635,63.65,57.979,62.76,57.646z"/>
	<path d="M92.174,32.932c0.236,0.074,0.477,0.117,1.432-0.006c0.424-0.057,1.068-0.16,1.742-0.352l0.295-0.082
		c2.525-0.719,8.438-2.396,13.982-1.207c4.527,1.031,6.479,3.279,5.639,6.506c-0.027,0.109-0.047,0.176-0.049,0.23
		c-0.154,0.523-0.242,1.195,0.182,1.502c0.105,0.076,0.254,0.131,0.422,0.162c0.254,0.049,0.553,0.041,0.799-0.033
		c0.395-0.115,0.514-0.355,0.281-0.545c-0.08-0.129-0.049-0.594,0.072-0.992c0.008-0.023,0.01-0.047,0.008-0.07
		c0.006-0.027,0.021-0.088,0.035-0.141c0.133-0.514,0.486-1.871-0.174-3.334c-0.854-1.889-3.033-3.244-6.477-4.025
		c-0.004-0.002-0.01-0.002-0.016-0.004c-6.4-1.377-12.875,0.461-15.639,1.246l-0.293,0.082c-0.756,0.213-1.504,0.293-1.756,0.311
		c-0.078,0-0.158,0.004-0.24,0.014c-0.328,0.043-0.582,0.172-0.633,0.33S91.887,32.842,92.174,32.932z"/>
	<path d="M100.541,40.416c3.693-0.324,8.602-0.963,11.027-2.162c1.217-0.602,1.85-1.344,1.73-2.029
		c-0.104-0.613-0.785-1.172-1.967-1.613c-1.734-0.646-4.541-0.588-7.689,0.164c-0.039,0.008-4.406,0.941-8.443,1.258
		c-0.027,0.002-2.971,0.219-5.73,0.066c-0.482-0.027-0.916,0.133-0.965,0.359c-0.049,0.225,0.303,0.43,0.787,0.457
		c3.002,0.166,6.09-0.063,6.225-0.072c4.377-0.342,8.906-1.324,8.945-1.334c1.91-0.455,4.434-0.764,5.785-0.26
		c0.795,0.297,1.23,0.643,1.297,1.025c0.076,0.457-0.385,0.973-1.268,1.41c-1.643,0.813-5.227,1.496-10.088,1.922
		c-2.439,0.215-8.547,0.717-12.6,0.754c-0.486,0.006-0.865,0.193-0.848,0.42c0.012,0.17,0.246,0.314,0.564,0.373
		c0.107,0.021,0.227,0.031,0.35,0.029C91.836,41.146,98.061,40.635,100.541,40.416z"/>
	<path d="M100.68,32.926c-0.533,0.121-1.039,0.264-1.561,0.391c-0.686,0.168-1.4,0.309-2.127,0.434
		c-0.748,0.129-1.334,0.211-2.133,0.262c-0.846,0.055-1.709,0.109-2.563,0.137c-0.295,0.01-0.537,0.006-0.848-0.008
		c-0.479-0.02-0.916,0.135-0.963,0.361c-0.047,0.219,0.313,0.436,0.791,0.457c0.938,0.039,1.867-0.018,2.793-0.076
		c0.781-0.049,1.545-0.082,2.307-0.178c1.484-0.191,2.867-0.479,4.205-0.826c0.543-0.139,1.102-0.266,1.672-0.379
		c0.313-0.064,0.627-0.121,0.947-0.176c0.166-0.027,0.332-0.055,0.5-0.08c0.086-0.014,0.172-0.025,0.258-0.037
		c0.021-0.004,0.188-0.025,0.23-0.033c0.742-0.096,1.502-0.162,2.271-0.193c0.727-0.033,1.418-0.02,2.217,0.047
		c0.264,0.023,0.318,0.031,0.51,0.057c0.465,0.063,0.955-0.004,1.141-0.229c0.158-0.189-0.043-0.473-0.508-0.535
		C106.729,31.906,103.469,32.293,100.68,32.926z"/>
	<path d="M88.219,39.025c2.023,0.051,12.518,0.182,20.428-2.193c0.406-0.121,0.518-0.375,0.248-0.566
		c-0.268-0.193-0.814-0.25-1.221-0.127c-7.461,2.24-17.461,2.115-19.391,2.066c-0.043,0-0.068-0.002-0.076-0.002
		c-0.488-0.004-0.885,0.176-0.887,0.402c-0.002,0.176,0.232,0.328,0.566,0.391c0.092,0.016,0.193,0.027,0.299,0.031L88.219,39.025z"
		/>
	<path d="M101.627,41.646c-1.104-0.109-3.35,0.086-6.922,0.424c-2.576,0.242-5.494,0.518-6.611,0.453
		c-0.484-0.025-0.918,0.135-0.969,0.359c-0.043,0.189,0.197,0.363,0.561,0.432c0.07,0.012,0.146,0.021,0.225,0.025
		c1.4,0.08,4.205-0.184,7.172-0.463c2.398-0.227,5.379-0.508,6.201-0.426c0.744,0.076,1.986,0.961,2.984,1.67
		c1.051,0.75,2.139,1.525,3.336,1.994c0.377,0.146,0.932,0.127,1.242-0.047c0.309-0.172,0.254-0.432-0.121-0.578
		c-0.994-0.391-2.008-1.113-2.988-1.811C104.318,42.668,103.094,41.795,101.627,41.646z"/>
	<path d="M105.205,47.551c0.318-0.168,0.277-0.428-0.09-0.58c-0.57-0.234-1.395-0.746-2.188-1.24
		c-1.68-1.043-2.762-1.688-3.834-1.795c-1.084-0.109-3.779,0.164-8.373,0.707c-0.563,0.064-1.047,0.121-1.383,0.158
		c-0.471,0.053-0.758,0.273-0.637,0.494c0.072,0.137,0.279,0.24,0.539,0.289c0.164,0.029,0.348,0.037,0.531,0.018
		c0.348-0.037,0.84-0.096,1.408-0.164c1.828-0.215,6.684-0.787,7.563-0.699c0.525,0.08,1.939,0.955,2.781,1.48
		c0.889,0.551,1.729,1.072,2.438,1.363C104.328,47.736,104.885,47.721,105.205,47.551z"/>
	<path d="M99.811,47.686c-0.979-0.697-1.824-1.303-3.189-1.439c-1.535-0.154-4.715,0.484-5.336,0.613
		c-0.441,0.094-0.633,0.336-0.428,0.545c0.1,0.1,0.277,0.176,0.482,0.213c0.215,0.041,0.463,0.043,0.688-0.006
		c1.541-0.32,3.604-0.627,4.252-0.561c0.641,0.064,1.299,0.533,2.061,1.078c0.293,0.209,0.627,0.447,0.994,0.688
		c0.285,0.186,0.838,0.232,1.232,0.102c0.393-0.129,0.482-0.387,0.197-0.572C100.418,48.119,100.109,47.898,99.811,47.686z"/>
	<path d="M114.533,41.832c-0.574-0.264-1.174-0.537-1.566-0.869c-0.434-0.363-0.463-0.74-0.285-1.137
		c0.229-0.516-1.527-0.607-1.756-0.094c-0.467,1.053,0.658,1.883,2.232,2.604c0.344,0.156,0.826,0.223,1.238,0.072
		C114.734,42.285,114.879,41.99,114.533,41.832z"/>
	<path d="M110.238,44.176c0.896,0.336,1.938-0.32,1.047-0.652c-0.545-0.205-0.92-0.404-1.426-0.705
		c-0.926-0.553-1.623-1.232-1.65-1.939c-0.01-0.223-0.271-0.428-0.793-0.455c-0.436-0.023-0.971,0.137-0.963,0.361
		C106.504,42.088,108.053,43.357,110.238,44.176z"/>
</g>
</svg>
