<?xml version="1.0" encoding="utf-8"?>
<!-- Generator: Adobe Illustrator 16.0.0, SVG Export Plug-In . SVG Version: 6.00 Build 0)  -->
<!DOCTYPE svg PUBLIC "-//W3C//DTD SVG 1.1//EN" "http://www.w3.org/Graphics/SVG/1.1/DTD/svg11.dtd">
<svg version="1.1" id="Layer_1" xmlns="http://www.w3.org/2000/svg" xmlns:xlink="http://www.w3.org/1999/xlink" x="0px" y="0px"
	 width="126px" height="126px" viewBox="0 0 126 126" enable-background="new 0 0 126 126" xml:space="preserve">
<g>
	<path d="M28.883,31.61c8.273-4.701,17.85-2.484,27.693,6.41c0.334,0.303,0.539,0.488,0.715,0.618
		c1.58,1.474,3.729,3.191,5.201,3.244c0.922,0.031,1.701-0.69,1.734-1.615c0.031-0.893-0.641-1.647-1.52-1.728
		c-0.512-0.17-2.025-1.314-3.223-2.439c-0.072-0.067-0.148-0.127-0.23-0.181c-0.086-0.073-0.27-0.238-0.432-0.386
		c-1.561-1.41-5.705-5.155-11.285-7.552c-7.205-3.095-14.045-2.852-20.326,0.726c-0.012,0.006-0.021,0.012-0.031,0.018
		c-11.428,6.831-12.227,21.324-12.566,27.513l-0.037,0.648c-0.098,1.688-0.633,3.057-0.844,3.489
		c-0.084,0.123-0.154,0.259-0.207,0.408c-0.213,0.618-0.053,1.32,0.42,1.773c0.316,0.306,0.736,0.468,1.162,0.468
		c0.205,0,0.412-0.038,0.611-0.116c0.5-0.196,0.9-0.474,1.508-2.265c0.27-0.795,0.607-2.058,0.695-3.563l0.037-0.658
		C18.27,50.768,18.998,37.531,28.883,31.61z"/>
	<path d="M54.168,44.917c-0.705-3.329-2.494-6.058-4.908-7.488c-2.154-1.276-4.736-1.515-7.471-0.692
		c-4.012,1.208-6.811,5.758-7.674,12.468c-0.014,0.084-1.576,9.15-4.836,16.226c-0.023,0.052-2.459,5.2-5.904,9.166
		c-0.605,0.698-0.531,1.756,0.166,2.363c0.699,0.607,1.758,0.533,2.363-0.166c3.76-4.327,6.303-9.715,6.414-9.951
		c3.533-7.667,5.107-17.108,5.117-17.193c0.525-4.075,2.199-8.764,5.32-9.704c1.838-0.554,3.451-0.43,4.797,0.367
		c1.609,0.953,2.826,2.885,3.338,5.3c0.953,4.494-0.602,11.731-4.375,20.377c-1.893,4.337-6.748,15.121-10.953,21.577
		c-0.504,0.775-0.285,1.813,0.49,2.318c0.283,0.184,0.6,0.271,0.912,0.271c0.549,0,1.086-0.268,1.406-0.761
		c4.342-6.667,9.289-17.651,11.215-22.065C52.453,60.764,55.574,51.545,54.168,44.917z"/>
	<path d="M26.146,60.391c0.971-2.739,1.473-5.644,1.723-8.531c0.039-0.448,0.09-0.895,0.146-1.341
		c0.008-0.069,0.021-0.16,0.025-0.19c0.02-0.134,0.039-0.269,0.061-0.403c0.051-0.325,0.107-0.648,0.166-0.972
		c0.23-1.256,0.535-2.499,0.906-3.722c0.189-0.623,0.402-1.238,0.633-1.847c0.238-0.629,0.395-0.982,0.76-1.729
		c0.295-0.601,0.625-1.186,0.975-1.755c0.176-0.286,0.363-0.564,0.555-0.84c0.094-0.138,0.193-0.273,0.293-0.408
		c0.027-0.036,0.047-0.063,0.064-0.084c0.063-0.079,0.127-0.158,0.191-0.237c0.602-0.739,1.281-1.413,2.016-2.021
		c0.703-0.583,0.602-1.769,0-2.369c-0.689-0.69-1.666-0.583-2.369,0c-4.32,3.583-6.434,9.296-7.354,14.683
		c-0.195,1.145-0.342,2.302-0.438,3.459c-0.109,1.304-0.25,2.217-0.563,3.702c-0.313,1.485-0.721,2.956-1.266,4.374
		c0,0.001-0.102,0.251-0.123,0.307c-0.055,0.123-0.109,0.245-0.166,0.367c-0.137,0.293-0.293,0.578-0.449,0.861
		c-0.424,0.761-0.797,1.55-1.191,2.327c-0.482,0.954-1.045,1.996-1.688,2.776c-0.578,0.705-0.691,1.678,0,2.37
		c0.6,0.599,1.789,0.706,2.371,0c1.145-1.391,1.955-2.941,2.758-4.543C24.885,63.219,25.619,61.875,26.146,60.391z"/>
	<path d="M44.688,44.448c-0.918-0.025-1.697,0.7-1.725,1.625c-0.51,16.991-11.621,32.417-13.842,35.336
		c-0.049,0.062-0.076,0.101-0.086,0.115c-0.537,0.753-0.363,1.8,0.391,2.337c0.295,0.21,0.635,0.312,0.971,0.312
		c0.518,0,1.025-0.238,1.354-0.685l0.037-0.049c2.33-3.063,13.984-19.252,14.525-37.265C46.34,45.249,45.613,44.476,44.688,44.448z"
		/>
	<path d="M118.518,60.759c-0.051-0.148-0.121-0.285-0.207-0.408c-0.209-0.433-0.746-1.801-0.844-3.489l-0.035-0.648
		c-0.342-6.189-1.139-20.683-12.566-27.513c-0.012-0.006-0.021-0.012-0.031-0.018c-6.283-3.577-13.123-3.821-20.326-0.726
		c-5.58,2.397-9.725,6.143-11.285,7.552c-0.164,0.148-0.348,0.313-0.434,0.386c-0.08,0.053-0.158,0.114-0.229,0.18
		c-1.197,1.125-2.711,2.269-3.223,2.439c-0.879,0.081-1.553,0.835-1.52,1.728c0.033,0.925,0.803,1.644,1.732,1.615
		c1.475-0.053,3.621-1.77,5.201-3.244c0.176-0.13,0.383-0.315,0.717-0.618c9.844-8.894,19.42-11.11,27.691-6.41
		c9.885,5.921,10.613,19.158,10.926,24.812l0.037,0.659c0.086,1.504,0.426,2.768,0.695,3.563c0.605,1.792,1.006,2.069,1.508,2.265
		c0.197,0.078,0.404,0.116,0.611,0.116c0.426,0,0.844-0.162,1.162-0.468C118.57,62.079,118.732,61.376,118.518,60.759z"/>
	<path d="M102.77,65.415c-3.266-7.085-4.828-16.151-4.838-16.219c-0.867-6.726-3.664-11.276-7.678-12.484
		c-2.732-0.822-5.316-0.583-7.471,0.693c-2.412,1.43-4.203,4.159-4.908,7.488c-1.404,6.629,1.717,15.847,4.582,22.413
		c1.926,4.414,6.875,15.398,11.215,22.065c0.322,0.493,0.859,0.761,1.406,0.761c0.314,0,0.631-0.088,0.912-0.271
		c0.775-0.505,0.996-1.543,0.49-2.318c-4.203-6.456-9.059-17.24-10.953-21.577c-3.773-8.646-5.326-15.883-4.373-20.377
		c0.512-2.415,1.727-4.346,3.338-5.299c1.344-0.797,2.957-0.92,4.795-0.367c3.123,0.94,4.797,5.629,5.32,9.705
		c0.012,0.084,1.586,9.525,5.123,17.202c0.105,0.227,2.648,5.615,6.408,9.942c0.607,0.698,1.664,0.772,2.363,0.166
		s0.773-1.665,0.166-2.363C105.223,70.605,102.789,65.457,102.77,65.415z"/>
	<path d="M110.572,62.547c-0.318-0.632-0.68-1.244-0.979-1.886c-0.002-0.004-0.105-0.242-0.129-0.291
		c-0.053-0.132-0.105-0.265-0.156-0.398c-0.148-0.389-0.281-0.784-0.408-1.18c-0.465-1.447-0.803-2.938-1.066-4.435
		c-0.057-0.332-0.109-0.665-0.156-0.999c-0.004-0.016-0.004-0.027-0.006-0.041c-0.004-0.025-0.008-0.068-0.018-0.143
		c-0.02-0.149-0.035-0.298-0.051-0.447c-0.057-0.532-0.09-1.065-0.146-1.598c-0.584-5.424-2.193-10.909-5.688-15.192
		c-0.604-0.739-1.283-1.413-2.018-2.021c-0.701-0.583-1.678-0.69-2.369,0c-0.6,0.601-0.703,1.786,0,2.369
		c1.086,0.9,1.994,1.925,2.662,2.889c0.773,1.118,1.406,2.33,1.947,3.575c-0.004-0.008,0.121,0.298,0.125,0.304
		c0.061,0.153,0.119,0.307,0.178,0.461c0.115,0.306,0.225,0.614,0.328,0.924c0.223,0.656,0.418,1.321,0.596,1.99
		c0.314,1.188,0.557,2.394,0.744,3.608c0.021,0.133,0.041,0.267,0.059,0.4c0.002,0.012,0.004,0.02,0.006,0.03
		c0,0.013,0.002,0.025,0.004,0.042c0.033,0.247,0.061,0.495,0.088,0.743c0.057,0.54,0.092,1.083,0.15,1.623
		c0.16,1.512,0.422,3.014,0.766,4.494c0.361,1.551,0.84,3.066,1.465,4.53c0.605,1.417,1.385,2.783,2.096,4.151
		c0.572,1.103,1.232,2.131,2.023,3.091c0.582,0.706,1.77,0.599,2.369,0c0.691-0.692,0.58-1.665,0-2.37
		C112.004,65.578,111.295,63.974,110.572,62.547z"/>
	<path d="M102.924,81.385c-2.223-2.92-13.332-18.346-13.844-35.336c-0.027-0.925-0.807-1.65-1.725-1.625
		c-0.924,0.028-1.652,0.8-1.623,1.725c0.541,18.013,12.193,34.202,14.523,37.265l0.039,0.049c0.326,0.447,0.836,0.685,1.352,0.685
		c0.336,0,0.676-0.102,0.971-0.312c0.754-0.538,0.93-1.583,0.393-2.337C103,81.486,102.971,81.447,102.924,81.385z"/>
	<path d="M83.189,80.364c-2.697-6.406-4.445-10.401-5.992-11.874c-2.057-1.957-6.273-1.833-11.16-1.69
		c-0.146,0.004-0.293,0.008-0.439,0.013c-5.256-0.152-8.846-0.11-10.752,1.703c-1.547,1.472-3.295,5.467-5.99,11.873
		c-1.943,4.618-4.146,9.852-5.553,11.46c-0.609,0.697-0.537,1.755,0.158,2.364c0.318,0.278,0.711,0.414,1.102,0.414
		c0.467,0,0.932-0.194,1.264-0.573c1.762-2.015,3.877-7.042,6.117-12.365c1.809-4.299,4.061-9.65,5.213-10.746
		c0.943-0.898,4.654-0.879,7.521-0.804c0.129,0.029,0.264,0.044,0.402,0.041c0.352-0.009,0.705-0.02,1.055-0.03
		c3.436-0.101,7.709-0.226,8.754,0.769c1.15,1.096,3.402,6.446,5.213,10.746c2.24,5.322,4.355,10.35,6.117,12.365
		c0.33,0.379,0.795,0.573,1.262,0.573c0.391,0,0.783-0.137,1.102-0.414c0.697-0.609,0.768-1.667,0.158-2.364
		C87.336,90.216,85.133,84.982,83.189,80.364z"/>
	<path d="M78.447,92.482c-2.961-8.635-4.727-13.27-6.164-14.637c-1-0.952-2.809-1.414-6.445-1.646
		c-0.244-0.016-0.479,0.023-0.693,0.104c-2.908,0.25-4.486,0.712-5.385,1.566c-1.436,1.367-3.201,6.001-6.162,14.636
		c-0.572,1.665-1.064,3.103-1.381,3.929c-0.332,0.864,0.102,1.833,0.965,2.164c0.197,0.076,0.4,0.111,0.6,0.111
		c0.674,0,1.309-0.409,1.564-1.076c0.338-0.882,0.84-2.346,1.422-4.041c1.248-3.645,4.176-12.181,5.289-13.285
		c0.1-0.077,0.748-0.472,3.797-0.701c0.074-0.005,0.146-0.018,0.219-0.033c3.064,0.225,3.77,0.596,3.9,0.697
		c1.127,1.116,4.055,9.652,5.305,13.297c0.582,1.695,1.084,3.159,1.422,4.041c0.256,0.667,0.891,1.076,1.564,1.076
		c0.199,0,0.402-0.036,0.6-0.111c0.863-0.331,1.295-1.3,0.965-2.164C79.51,95.584,79.018,94.147,78.447,92.482z"/>
	<path d="M67.23,87.159c-0.441-0.42-1.053-0.551-1.602-0.401c-0.297,0.061-0.58,0.202-0.816,0.426
		c-2.08,1.979-3.26,10.113-3.672,13.518c-0.111,0.918,0.543,1.753,1.463,1.864c0.068,0.008,0.135,0.012,0.203,0.012
		c0.834,0,1.559-0.624,1.66-1.475c0.357-2.959,0.951-6.275,1.557-8.605c0.578,2.21,1.164,5.371,1.553,8.581
		c0.104,0.851,0.826,1.475,1.662,1.475c0.066,0,0.135-0.004,0.203-0.012c0.918-0.111,1.572-0.946,1.463-1.864
		C70.492,97.271,69.311,89.138,67.23,87.159z"/>
	<path d="M71.359,46.919c-2.324,2.462-5.141,2.248-8.227,1.653c-0.074-0.014-0.146-0.023-0.217-0.029
		c-0.779-0.332-1.521-0.845-2.23-1.6c-1.484-1.577-3.85,0.797-2.371,2.369c1.453,1.543,3.229,2.663,5.34,3.01
		c1.193,0.196,2.387,0.155,3.574,0.009c0.346-0.015,0.693-0.044,1.043-0.093c0.467-0.066,0.918-0.17,1.355-0.307
		c0.129-0.029,0.246-0.069,0.352-0.119c1.426-0.514,2.68-1.391,3.75-2.525C75.211,47.719,72.846,45.345,71.359,46.919z"/>
	<path d="M71.486,56.994c-2.008,0.78-4.25,1.182-6.441,1.074c-1.086-0.078-2.164-0.269-3.201-0.561
		c-0.977-0.307-1.91-0.742-2.771-1.32c-1.797-1.21-3.473,1.694-1.689,2.893c0.605,0.408,1.248,0.758,1.916,1.057
		c0.107,0.07,0.227,0.13,0.357,0.18c0.227,0.084,0.457,0.164,0.689,0.239c1.408,0.497,2.906,0.779,4.424,0.864
		c3.48,0.251,7.066-0.463,9.893-2.365c1.781-1.199,0.107-4.104-1.691-2.893C72.496,56.481,72,56.757,71.486,56.994z"/>
</g>
</svg>
