<?xml version="1.0" encoding="UTF-8" standalone="yes"?>
<svg xmlns="http://www.w3.org/2000/svg" viewBox="0 0 126 126">
  <path d="M36.458 39.73c.608.134 1.17.125 2.9-1.205.77-.59 1.906-1.586 2.956-2.973l.46-.61c3.93-5.227 13.13-17.465 26.42-16.8 10.958.8 18.727 9.076 22.464 23.936.127.504.205.814.29 1.053.57 2.43 1.53 5.458 2.91 6.454a1.93 1.93 0 0 0 2.7-.437 1.934 1.934 0 0 0-.35-2.634c-.38-.494-1.1-2.563-1.526-4.412a1.898 1.898 0 0 0-.104-.32c-.036-.124-.105-.4-.167-.647-.59-2.354-2.165-8.61-5.98-14.496C84.5 19.04 77.78 14.882 69.45 14.28c-.012 0-.026 0-.04-.002-15.35-.783-25.428 12.618-29.73 18.34l-.453.6c-1.178 1.558-2.57 2.526-3.048 2.808a1.966 1.966 0 0 0-1.2 2.232c.163.736.74 1.312 1.478 1.473z"/>
  <path d="M84.918 47.152c1.46-3.648 1.496-7.417.097-10.34-1.248-2.607-3.574-4.496-6.726-5.462-4.628-1.416-10.237 1.153-15.375 7.04-.064.07-7.003 7.36-14.46 12.086a9.82 9.82 0 0 1 1.735 3.482c6.122-3.813 11.776-9.14 14.276-11.627.433-5.05 4.675-9.03 9.836-9.03 5.448 0 9.88 4.433 9.88 9.88 0 4.782-3.416 8.778-7.934 9.686-3.023 3.1-7.15 6.36-12.21 9.6-4.6 2.946-16.186 10.18-24.368 13.678a1.936 1.936 0 0 0 1.52 3.56c8.45-3.613 20.253-10.98 24.936-13.98 6.97-4.462 15.885-11.306 18.792-18.572zM53.757 32.707c-.878.967-1.667 2.006-2.515 2.997a39.796 39.796 0 0 1-3.595 3.66c-1.304 1.177-2.36 2.02-3.9 2.903-1.63.936-3.294 1.883-4.985 2.707-.582.283-1.08.467-1.735.664-1.006.303-1.63 1.34-1.353 2.37a9.817 9.817 0 0 1 4.988-1.364c.873 0 1.715.125 2.522.34.143-.082.286-.16.43-.242 1.507-.857 3.006-1.63 4.393-2.685 2.702-2.055 5.028-4.454 7.167-7.08a41.47 41.47 0 0 1 4.39-4.592c.29-.26.586-.515.884-.765.15-.128.305-.253.458-.378a28.373 28.373 0 0 1 4.71-3.057c1.426-.733 2.858-1.247 4.595-1.608.577-.12.702-.133 1.133-.178 1.05-.11 1.936-.8 1.936-1.936 0-.973-.885-2.044-1.937-1.935-6.994.726-12.976 5.1-17.586 10.177z"/>
  <path d="M38.698 69.756c3.443-1.182 18.543-6.807 30.537-18.11a9.964 9.964 0 0 1-2.867-2.604c-5.434 5.08-11.54 8.945-16.796 11.72-1.59 3.33-4.98 5.643-8.91 5.643-1 0-1.962-.15-2.872-.43-.125.046-.246.087-.35.123-.085.03-.137.048-.156.056a1.934 1.934 0 0 0 1.345 3.628l.068-.026zM91.35 81.275c-2.682-.895-5.963-3.23-9.137-5.49-4.597-3.275-8.563-6.103-11.798-5.545-2.43.42-6.674 3.132-13.375 7.55-4.83 3.185-10.307 6.794-12.688 7.435a1.935 1.935 0 1 0 1.005 3.738c2.985-.804 8.245-4.27 13.813-7.94 4.498-2.966 10.095-6.656 11.904-6.97 1.644-.278 5.664 2.583 8.896 4.884 3.405 2.426 6.926 4.934 10.158 6.01 1.014.34 2.11-.21 2.447-1.223a1.94 1.94 0 0 0-1.225-2.45zM86.506 90.754c-1.23-.444-3.065-1.514-4.988-2.687a9.83 9.83 0 0 1-1.625 3.542c1.994 1.208 3.833 2.253 5.298 2.782a1.934 1.934 0 1 0 1.316-3.638z"/>
  <path d="M62.044 86.148c-2.378 1.59-5.278 3.663-8.77 6.213a261.37 261.37 0 0 1-2.543 1.843 1.934 1.934 0 0 0 1.12 3.515c.385 0 .775-.115 1.114-.355.643-.454 1.546-1.113 2.59-1.877 1.65-1.203 4.642-3.387 7.488-5.337a9.793 9.793 0 0 1-.998-4.002zM79.97 100.373c-1.086-.71-2.085-1.422-3.052-2.11-1.39-.994-2.7-1.93-3.984-2.62a9.805 9.805 0 0 1-5.383-.972c-3.394.937-8.377 5.94-9.38 6.977a1.935 1.935 0 1 0 2.782 2.69c2.59-2.676 6.273-5.718 7.702-5.964 1.413-.242 3.548 1.276 6.017 3.038.953.68 2.03 1.45 3.186 2.202a1.934 1.934 0 0 0 2.115-3.24zM96.997 60.433c-1.613-.68-3.3-1.397-4.657-2.526-1.495-1.244-2.19-2.877-2.5-4.762-.405-2.457-4.134-1.412-3.732 1.03.828 5.02 4.522 7.735 8.936 9.6.972.41 2.063.302 2.647-.694.482-.82.28-2.236-.693-2.647zM93.242 70.53c-1.453-.448-2.556-1.017-4.094-1.925-2.816-1.664-5.384-4.076-6.633-7.154-.396-.976-1.273-1.655-2.38-1.35-.927.255-1.748 1.4-1.35 2.38 2.305 5.686 7.598 9.984 13.43 11.78 2.39.736 3.404-2.998 1.027-3.73zM48.685 56.488c0-4.344-3.535-7.88-7.88-7.88s-7.878 3.536-7.878 7.88c0 4.346 3.535 7.88 7.88 7.88s7.878-3.534 7.878-7.88zM74.448 51.025c4.345 0 7.88-3.535 7.88-7.88s-3.536-7.88-7.88-7.88-7.88 3.535-7.88 7.88 3.536 7.88 7.88 7.88zM79.93 85.78c0-4.343-3.534-7.878-7.878-7.878s-7.88 3.535-7.88 7.88 3.536 7.88 7.88 7.88 7.88-3.535 7.88-7.88z"/>
</svg>