<?xml version="1.0" encoding="utf-8"?>
<!-- Generator: Adobe Illustrator 16.0.0, SVG Export Plug-In . SVG Version: 6.00 Build 0)  -->
<!DOCTYPE svg PUBLIC "-//W3C//DTD SVG 1.1//EN" "http://www.w3.org/Graphics/SVG/1.1/DTD/svg11.dtd">
<svg version="1.1" id="Layer_1" xmlns="http://www.w3.org/2000/svg" xmlns:xlink="http://www.w3.org/1999/xlink" x="0px" y="0px"
	 width="126px" height="126px" viewBox="0 0 126 126" enable-background="new 0 0 126 126" xml:space="preserve">
<g>
	<path d="M98.971,41.585c-0.648-0.302-1.338-0.462-1.98-0.462c-0.932,0-1.709,0.326-2.195,0.914
		c-2.869,3.494-5.498,10.29-7.613,15.752c-0.973,2.524-2.281,5.903-3.164,7.49c-0.482-4.648,1.604-21.41,2.406-27.863l0.014-0.105
		c0.557-4.484,0.646-5.27,0.617-5.619c-0.217-2.498-1.088-4.188-2.594-5.021c-1.521-0.846-3.588-0.664-5.881,0.514
		c-1.152,0.594-1.617,2.872-3.293,13.235l-0.008,0.046c-0.922,5.692-3.045,18.803-4.676,20.896
		c-1.451-3.192-2.523-20.816-2.986-28.445c-0.322-5.344-0.514-8.41-0.721-9.349c-0.436-1.963-2.73-3.769-5.111-4.025
		c-1.98-0.237-3.682,0.664-4.582,2.372c-1.57,1.524-1.432,6.956-0.717,19.847c0.34,6.134,1.043,18.806-0.049,20.147
		c-1.969-0.356-4.824-8.463-8.486-24.102c-1.027-4.379-1.35-5.697-1.717-6.291c-0.668-2.023-3.295-3.729-5.756-3.729
		c-0.211,0-0.416,0.014-0.619,0.038c-1.301,0.165-4.309,1.146-4.066,6.663c1.195,7.708,2.686,13.407,4.127,18.942l0.029,0.11
		c0.865,3.313,1.682,6.446,2.402,9.907c1.695,8.174,0.471,13.088,0.457,13.145c-0.111,0.506-0.291,0.807-0.535,0.9
		c-0.09,0.031-0.199,0.051-0.322,0.051c-0.719,0-1.758-0.551-2.291-0.898c-1.094-2.514-6.572-14.508-12.158-16.51l-0.201-0.075
		l-0.209,0.005c-2.104,0.053-3.693,0.74-4.73,2.04c-1.639,2.056-1.215,4.851-1.105,5.413l0.07,0.203
		c0.041,0.088,4.025,8.773,4.461,12.715c0.377,3.381,3.279,7.217,5.611,10.299l0.096,0.127c0.762,1.008,1.418,1.881,1.928,2.68
		c6.82,8.225,18.006,15.525,18.098,15.584c1.377,1.178,2.111,2.273,2.133,3.178c0.014,0.59-0.314,0.918-0.324,0.93l-0.271,0.248
		l0.023,0.027h-0.111v2H85.48v-0.674l1.666-5.621c5.236-16.738,5.408-31.307,5.4-31.406c0.055-0.533,1.551-5.617,2.756-9.723
		l0.031-0.105c2.398-8.184,5.387-18.365,6.096-22.27C101.732,44.035,100.768,42.416,98.971,41.585z M99.199,45.305
		c-0.689,3.797-3.801,14.396-6.07,22.137c-1.967,6.699-2.775,9.5-2.842,10.252c0,0.141-0.061,14.086-5.309,30.857l-1.469,4.957
		H55.725c0.113-0.34,0.195-0.732,0.191-1.191c-0.006-1.605-1.025-3.287-3.049-5.01c-0.113-0.072-11.209-7.381-17.613-15.088
		c-0.512-0.818-1.293-1.852-2.049-2.848c-2.049-2.713-4.859-6.432-5.164-9.186c-0.457-4.109-4.125-12.25-4.592-13.271
		c-0.059-0.413-0.25-2.232,0.688-3.402c0.566-0.708,1.506-1.104,2.791-1.174c5.004,2.086,10.721,15.361,10.777,15.496l0.123,0.281
		l0.244,0.189c0.344,0.25,2.141,1.502,3.883,1.502c0.398,0,0.775-0.064,1.109-0.193c0.695-0.26,1.6-0.906,1.945-2.492
		c0.057-0.215,1.371-5.396-0.443-14.133c-0.721-3.498-1.557-6.693-2.439-10.078l-0.014-0.051c-1.422-5.443-2.895-11.072-4.07-18.594
		c-0.109-2.519,0.643-4.007,2.105-4.195c1.67-0.234,3.781,1.138,4.014,2.219l0.293,0.836c0.309,1.012,0.895,3.521,1.285,5.199
		c3.32,14.149,6.428,25.863,10.822,25.863c0.357,0,0.881-0.105,1.355-0.608c1.805-1.905,1.52-9.562,0.83-21.955
		c-0.334-6.002-0.758-16.925-0.084-17.997l0.271-0.563c0.414-0.891,1.443-1.291,2.26-1.291c0.119,0,0.232,0.008,0.344,0.021
		c1.393,0.15,2.924,1.251,3.145,2.265c0.174,0.777,0.4,4.518,0.666,8.846l0.008,0.146c1.5,24.758,2.494,30.803,5.047,30.803
		c2.9,0,4.318-5.762,7.115-23.072l0.014-0.073c0.686-4.24,1.717-10.617,2.178-11.554c1.498-0.752,2.861-0.936,3.652-0.502
		c1.004,0.555,1.334,2.045,1.43,3.184c0.004,0.309-0.307,2.793-0.604,5.195c-2.713,21.794-3.102,29.271-1.605,30.77
		c0.398,0.395,0.959,0.566,1.461,0.449c1.529-0.32,2.539-2.621,5.254-9.653c2.053-5.304,4.602-11.903,7.248-15.118
		c0.021-0.025,0.148-0.09,0.424-0.09c0.324,0,0.695,0.09,1.047,0.25C98.678,43.947,99.336,44.545,99.199,45.305z"/>
	<g>
		<path d="M83.416,20.693c-5.615-1.089-11.07,2.594-12.162,8.21c-0.971,5.007,1.855,9.878,6.459,11.649
			c-0.098-0.746-0.094-1.467-0.047-2.203c-3.258-1.648-5.176-5.309-4.449-9.064c0.881-4.535,5.287-7.507,9.82-6.627
			c4.533,0.879,7.506,5.283,6.625,9.818c-0.475,2.443-1.98,4.422-3.971,5.598c0.047,0.171,0.094,0.341,0.121,0.52
			c0.08,0.546,0.105,1.09,0.092,1.631c2.863-1.369,5.07-4.019,5.721-7.367C92.715,27.24,89.033,21.784,83.416,20.693z"/>
	</g>
</g>
</svg>
