<?xml version="1.0" encoding="utf-8"?>
<!-- Generator: Adobe Illustrator 16.0.0, SVG Export Plug-In . SVG Version: 6.00 Build 0)  -->
<!DOCTYPE svg PUBLIC "-//W3C//DTD SVG 1.1//EN" "http://www.w3.org/Graphics/SVG/1.1/DTD/svg11.dtd">
<svg version="1.1" id="Layer_1" xmlns="http://www.w3.org/2000/svg" xmlns:xlink="http://www.w3.org/1999/xlink" x="0px" y="0px"
	 width="126px" height="126px" viewBox="0 0 126 126" enable-background="new 0 0 126 126" xml:space="preserve">
<path d="M95.684,53.506l-0.186-0.295c0.006-0.613,0.016-1.23,0-1.854l0.021-0.443l-0.807-4.527c0-7.943-5.195-30.064-18.428-28.186
	c0,0-13.59-7.42-30.258,1.547c-16.15,6.57-18.432,18.695-18.432,26.639v5.99c-0.037,0.111-0.063,0.205-0.094,0.289
	c-0.529,1.506-0.564,1.615,1.563,12.875c-0.551,0.162-1.029,0.496-1.4,0.98c-1.82,2.406-0.232,8.756,0.254,10.461
	c0.459,2.982,1.615,4.697,2.672,5.67c2.338,16.783,16.762,29.971,29.439,29.971c14.826,0,28.85-14.527,31.326-29.951
	c1.051-0.959,2.211-2.648,2.645-5.504c0.527-1.895,2.115-8.26,0.289-10.662c-0.221-0.291-0.48-0.527-0.775-0.701
	c0.791-2.74,1.836-7.215,1.979-12.188C95.557,53.574,95.625,53.549,95.684,53.506z M42.932,44.324
	c0.088-0.068,0.182-0.119,0.279-0.158c0.289-0.17,1.127-0.752,1.836-1.689l0.273-0.363c2.59-3.443,8.656-11.514,17.9-11.041
	c0.008,0,0.018,0,0.023,0.002c5.016,0.361,9.063,2.863,12.031,7.439c2.297,3.543,3.244,7.311,3.602,8.729
	c0.037,0.148,0.078,0.314,0.102,0.391c0.025,0.063,0.047,0.127,0.063,0.193c0.258,1.113,0.689,2.357,0.918,2.656
	c0.479,0.385,0.576,1.082,0.211,1.586c-0.227,0.314-0.584,0.482-0.945,0.482c-0.236,0-0.475-0.072-0.68-0.221
	c-0.832-0.6-1.41-2.422-1.752-3.885c-0.053-0.145-0.1-0.33-0.176-0.635c-2.25-8.947-6.928-13.932-13.525-14.412
	c-8.004-0.4-13.543,6.969-15.91,10.115l-0.277,0.367c-0.631,0.836-1.314,1.436-1.779,1.791c-1.041,0.801-1.379,0.807-1.746,0.727
	c-0.443-0.098-0.791-0.445-0.889-0.889C42.391,45.066,42.568,44.598,42.932,44.324z M65.551,37.207c0,0.684-0.535,1.1-1.166,1.164
	c-0.26,0.027-0.334,0.033-0.682,0.107c-1.045,0.217-1.908,0.525-2.768,0.969c-0.908,0.465-1.773,1.02-2.584,1.641
	c-0.047,0.037-0.227,0.18-0.25,0.199c-0.094,0.074-0.186,0.15-0.277,0.227c-0.18,0.152-0.357,0.305-0.531,0.461
	c-0.336,0.301-0.666,0.609-0.984,0.93c-0.582,0.586-1.139,1.195-1.66,1.836c-1.289,1.58-2.688,3.025-4.316,4.262
	c-0.834,0.637-1.736,1.102-2.645,1.617c-1.076,0.611-2.156,1.225-3.346,1.582c-0.609,0.184-1.27-0.213-1.434-0.813
	c-0.172-0.623,0.205-1.252,0.813-1.434c0.395-0.119,0.695-0.229,1.047-0.4c1.018-0.496,2.02-1.066,3.002-1.631
	c0.926-0.531,1.563-1.039,2.348-1.748c0.764-0.689,1.494-1.42,2.164-2.203c0.512-0.596,0.986-1.221,1.514-1.805
	c2.775-3.057,6.379-5.689,10.59-6.127C65.018,35.975,65.551,36.619,65.551,37.207z M43.199,63.809
	c-0.227-0.602,0.076-1.273,0.678-1.502c0.012-0.004,0.043-0.016,0.094-0.033c2.414-0.83,14.801-5.449,21.666-15.072
	c0.373-0.523,1.1-0.645,1.625-0.271c0.523,0.375,0.645,1.102,0.271,1.625C60.256,58.756,47.26,63.609,44.729,64.477l-0.041,0.016
	c-0.131,0.047-0.266,0.068-0.396,0.068C43.82,64.561,43.377,64.275,43.199,63.809z M45.773,70.559c-0.453,0-0.883-0.264-1.072-0.707
	c-0.252-0.592,0.021-1.275,0.613-1.529c4.928-2.105,11.904-6.461,14.674-8.236c5.525-3.537,9.221-7.119,10.408-10.084
	c0.639-1.594,0.682-3.184,0.119-4.355c-0.469-0.98-1.354-1.676-2.631-2.066c-2.168-0.664-4.947,1.398-6.826,3.551
	c-0.039,0.045-4.59,4.887-9.605,7.959c-0.156,0.094-3.709,2.225-7.555,3.271c-0.623,0.17-1.262-0.197-1.432-0.816
	c-0.168-0.621,0.199-1.262,0.818-1.43c3.537-0.965,6.922-2.996,6.955-3.016c4.627-2.832,9.031-7.465,9.07-7.508
	c3.094-3.545,6.473-5.094,9.258-4.24c1.896,0.582,3.297,1.719,4.049,3.289c0.844,1.76,0.822,4.027-0.059,6.227
	c-1.75,4.375-7.119,8.496-11.314,11.182c-2.818,1.807-9.926,6.24-15.014,8.418C46.082,70.529,45.926,70.559,45.773,70.559z
	 M69.92,84.525c-0.354,0.539-1.074,0.691-1.613,0.338c-0.695-0.453-1.346-0.916-1.918-1.326c-1.486-1.061-2.771-1.975-3.623-1.83
	c-0.861,0.15-3.076,1.98-4.637,3.592c-0.229,0.238-0.533,0.355-0.838,0.355c-0.291,0-0.584-0.109-0.811-0.326
	c-0.461-0.449-0.475-1.188-0.027-1.65c0.631-0.65,3.877-3.914,5.916-4.266c1.809-0.314,3.461,0.863,5.373,2.229
	c0.582,0.416,1.184,0.846,1.838,1.273C70.119,83.266,70.27,83.986,69.92,84.525z M74.215,78.611
	c-0.219,0.605-0.889,0.92-1.492,0.701c-1.166-0.422-2.725-1.387-4.375-2.406c-1.564-0.967-4.188-2.582-4.914-2.533
	c-1.164,0.201-6.533,4.121-8.555,5.598c-0.631,0.459-1.174,0.855-1.561,1.131c-0.205,0.143-0.439,0.211-0.672,0.211
	c-0.365,0-0.725-0.17-0.953-0.492c-0.371-0.525-0.244-1.252,0.279-1.623c0.373-0.264,0.91-0.654,1.531-1.109
	c5.08-3.707,8.105-5.764,9.545-6.014c1.422-0.244,3.404,0.924,6.523,2.852c1.477,0.912,3.004,1.855,3.943,2.195
	C74.121,77.34,74.434,78.006,74.215,78.611z M77.168,72.887c-0.203,0.609-0.861,0.939-1.473,0.738
	c-1.945-0.65-4.066-2.16-6.117-3.621c-1.945-1.385-4.365-3.107-5.355-2.939c-1.09,0.189-4.459,2.41-7.168,4.195
	c-3.352,2.209-6.52,4.297-8.318,4.783c-0.1,0.025-0.201,0.039-0.303,0.039c-0.514,0-0.982-0.342-1.123-0.863
	c-0.168-0.621,0.201-1.26,0.822-1.428c1.434-0.387,4.73-2.559,7.639-4.477c4.037-2.66,6.592-4.293,8.055-4.547
	c1.947-0.334,4.336,1.367,7.104,3.34c1.912,1.361,3.889,2.768,5.502,3.307C77.043,71.617,77.371,72.275,77.168,72.887z
	 M76.951,67.189c-3.51-1.082-6.697-3.67-8.086-7.094c-0.238-0.59,0.254-1.279,0.813-1.434c0.668-0.184,1.195,0.227,1.434,0.814
	c0.752,1.854,2.299,3.305,3.994,4.307c0.926,0.549,1.592,0.889,2.465,1.16C79.002,65.383,78.393,67.633,76.951,67.189z
	 M80.25,60.457c-0.352,0.602-1.008,0.666-1.594,0.416c-2.658-1.121-4.883-2.758-5.381-5.779c-0.242-1.469,2.004-2.1,2.248-0.619
	c0.188,1.135,0.605,2.117,1.504,2.867c0.818,0.68,1.834,1.111,2.805,1.521C80.418,59.111,80.541,59.963,80.25,60.457z"/>
</svg>
