<?xml version="1.0" encoding="utf-8"?>
<!-- Generator: Adobe Illustrator 16.0.0, SVG Export Plug-In . SVG Version: 6.00 Build 0)  -->
<!DOCTYPE svg PUBLIC "-//W3C//DTD SVG 1.1//EN" "http://www.w3.org/Graphics/SVG/1.1/DTD/svg11.dtd">
<svg version="1.1" id="Layer_1" xmlns="http://www.w3.org/2000/svg" xmlns:xlink="http://www.w3.org/1999/xlink" x="0px" y="0px"
	 width="126px" height="126px" viewBox="0 0 126 126" enable-background="new 0 0 126 126" xml:space="preserve">
<g>
	<path fill="#020202" d="M52.191,49.982c0.336,0.074,0.647,0.068,1.604-0.666c0.425-0.326,1.054-0.877,1.633-1.643l0.254-0.338
		c2.172-2.889,7.258-9.654,14.603-9.285c6.059,0.441,10.352,5.016,12.418,13.229c0.07,0.279,0.113,0.451,0.161,0.582
		c0.038,0.166,0.08,0.334,0.125,0.504h2.229c-0.106-0.344-0.209-0.715-0.291-1.072c-0.015-0.061-0.034-0.119-0.059-0.176
		c-0.02-0.07-0.057-0.223-0.092-0.359c-0.328-1.303-1.197-4.76-3.307-8.012c-2.723-4.201-6.438-6.498-11.043-6.83
		c-0.007,0-0.014,0-0.022-0.002c-8.485-0.432-14.054,6.973-16.432,10.137l-0.251,0.332c-0.65,0.859-1.419,1.396-1.685,1.551
		c-0.09,0.035-0.177,0.084-0.257,0.145c-0.332,0.252-0.496,0.682-0.406,1.09C51.465,49.574,51.784,49.895,52.191,49.982z"/>
	<path fill="#020202" d="M63.597,64.938c-2.954,1.783-6.686,3.914-9.629,5.172c-0.543,0.232-0.795,0.859-0.563,1.402
		c0.174,0.406,0.568,0.65,0.984,0.65c0.139,0,0.282-0.027,0.42-0.084c4.189-1.795,9.864-5.252,12.857-7.141H63.597z"/>
	<path fill="#020202" d="M79.466,52.365c0.259-1.441,0.119-2.84-0.436-3.996c-0.689-1.441-1.975-2.484-3.717-3.02
		c-2.558-0.781-5.658,0.639-8.498,3.893c-0.021,0.023-1.363,1.436-3.305,3.123h3.188c1.057-1,1.708-1.693,1.723-1.709
		c1.724-1.975,4.275-3.871,6.266-3.26c1.172,0.357,1.984,0.996,2.415,1.896c0.405,0.848,0.462,1.936,0.183,3.072H79.466z"/>
	<path fill="#020202" d="M65.452,45.5c0.082-0.07,0.167-0.139,0.252-0.209c0.022-0.018,0.188-0.148,0.23-0.182
		c0.744-0.57,1.538-1.078,2.373-1.508c0.789-0.406,1.58-0.689,2.539-0.889c0.318-0.066,0.389-0.074,0.627-0.098
		c0.579-0.061,1.069-0.441,1.069-1.07c0-0.537-0.488-1.129-1.069-1.068c-3.866,0.398-7.172,2.816-9.721,5.623
		c-0.484,0.535-0.92,1.109-1.391,1.656c-0.613,0.719-1.285,1.391-1.986,2.023c-0.721,0.652-1.305,1.117-2.155,1.605
		c-0.581,0.334-1.172,0.662-1.768,0.98h4.131c1.49-1.133,2.772-2.457,3.951-3.904c0.479-0.588,0.991-1.148,1.525-1.686
		c0.292-0.293,0.595-0.576,0.902-0.854C65.123,45.779,65.286,45.639,65.452,45.5z"/>
	<path fill="#020202" d="M53.43,66.576c0.672-0.229,2.149-0.768,4.068-1.639h-5.317c-0.217,0.283-0.29,0.67-0.154,1.027
		c0.162,0.428,0.569,0.691,1.002,0.691c0.121,0,0.244-0.021,0.364-0.064L53.43,66.576z"/>
	<path fill="#020202" d="M72.621,50.721c-0.404,0.566-0.831,1.115-1.273,1.645h2.716c0.1-0.135,0.202-0.266,0.3-0.402
		c0.343-0.48,0.23-1.148-0.25-1.492C73.634,50.129,72.964,50.238,72.621,50.721z"/>
	<path fill="#020202" d="M82.532,72.945c-1.482-0.494-3.297-1.785-5.05-3.035c-2.542-1.811-4.735-3.371-6.521-3.064
		c-1.344,0.232-3.689,1.732-7.394,4.174c-2.67,1.76-5.697,3.754-7.014,4.109c-0.57,0.154-0.908,0.74-0.754,1.311
		c0.128,0.479,0.56,0.791,1.031,0.791c0.092,0,0.186-0.01,0.278-0.037c1.651-0.443,4.558-2.361,7.636-4.389
		c2.486-1.639,5.579-3.678,6.58-3.852c0.907-0.154,3.129,1.428,4.916,2.699c1.882,1.342,3.828,2.727,5.615,3.322
		c0.561,0.188,1.165-0.117,1.352-0.676C83.396,73.738,83.092,73.133,82.532,72.945z"/>
	<path fill="#020202" d="M79.854,78.186c-0.862-0.313-2.264-1.178-3.619-2.016c-2.862-1.77-4.683-2.842-5.988-2.617
		c-1.322,0.229-4.1,2.117-8.761,5.52c-0.571,0.418-1.064,0.777-1.405,1.02c-0.482,0.342-0.598,1.008-0.258,1.49
		c0.209,0.293,0.539,0.453,0.875,0.453c0.213,0,0.43-0.064,0.616-0.197c0.355-0.252,0.854-0.615,1.433-1.037
		c1.855-1.355,6.784-4.953,7.854-5.139c0.666-0.045,3.074,1.439,4.511,2.326c1.514,0.936,2.946,1.82,4.017,2.207
		c0.555,0.203,1.168-0.086,1.369-0.643C80.698,78.998,80.409,78.385,79.854,78.186z"/>
	<path fill="#020202" d="M76.242,83.502c-0.602-0.393-1.153-0.787-1.688-1.168c-1.753-1.254-3.27-2.336-4.932-2.045
		c-1.871,0.322-4.851,3.318-5.43,3.916c-0.41,0.424-0.398,1.102,0.025,1.514c0.207,0.199,0.477,0.299,0.744,0.299
		c0.279,0,0.559-0.109,0.768-0.324c1.434-1.48,3.468-3.16,4.258-3.297c0.78-0.135,1.961,0.705,3.324,1.678
		c0.527,0.377,1.123,0.801,1.762,1.219c0.494,0.322,1.158,0.184,1.48-0.313C76.876,84.486,76.736,83.824,76.242,83.502z"/>
	<path fill="#020202" d="M83.577,67.006c-0.803-0.248-1.412-0.563-2.263-1.063c-0.495-0.293-0.972-0.631-1.419-1.006H76.97
		c1.509,1.949,3.693,3.408,6.039,4.131C84.331,69.475,84.892,67.412,83.577,67.006z"/>
	<path fill="#020202" d="M87.94,52.973H48.629v10.314H87.94V52.973z M86.247,61.594H50.321v-6.928h35.926V61.594z"/>
	<polygon fill="#020202" points="55.619,59.795 56.717,60.488 57.374,59.063 57.978,60.469 59.165,59.789 58.218,58.605 
		59.685,58.781 59.685,57.469 58.206,57.664 59.149,56.424 58.001,55.773 57.391,57.176 56.771,55.785 55.614,56.449 56.543,57.654 
		55.113,57.469 55.113,58.781 56.552,58.596 	"/>
	<polygon fill="#020202" points="62.876,59.795 63.974,60.488 64.631,59.063 65.234,60.469 66.423,59.789 65.475,58.605 
		66.941,58.781 66.941,57.469 65.462,57.664 66.406,56.424 65.259,55.773 64.647,57.176 64.027,55.785 62.871,56.449 63.8,57.654 
		62.37,57.469 62.37,58.781 63.808,58.596 	"/>
	<polygon fill="#020202" points="70.134,59.795 71.23,60.488 71.889,59.063 72.491,60.469 73.68,59.789 72.731,58.605 
		74.198,58.781 74.198,57.469 72.72,57.664 73.663,56.424 72.517,55.773 71.905,57.176 71.284,55.785 70.128,56.449 71.057,57.654 
		69.628,57.469 69.628,58.781 71.065,58.596 	"/>
	<polygon fill="#020202" points="77.39,59.795 78.487,60.488 79.144,59.063 79.749,60.469 80.937,59.789 79.989,58.605 
		81.456,58.781 81.456,57.469 79.977,57.664 80.92,56.424 79.772,55.773 79.162,57.176 78.542,55.785 77.385,56.449 78.313,57.654 
		76.884,57.469 76.884,58.781 78.322,58.596 	"/>
	<path fill="#020202" d="M92.008,9.887H43.742c-3.203,0-5.808,2.508-5.808,5.592v93.414c0,3.084,2.604,5.592,5.808,5.592h48.266
		c3.203,0,5.808-2.508,5.808-5.592V15.479C97.815,12.395,95.211,9.887,92.008,9.887z M67.875,108.629
		c-1.792,0-3.248-1.455-3.248-3.248c0-1.785,1.456-3.242,3.248-3.242s3.248,1.457,3.248,3.242
		C71.123,107.174,69.667,108.629,67.875,108.629z M93.851,96.479H41.905v-69.99h51.945V96.479z"/>
</g>
</svg>
