<?xml version="1.0" encoding="utf-8"?>
<!-- Generator: Adobe Illustrator 16.0.0, SVG Export Plug-In . SVG Version: 6.00 Build 0)  -->
<!DOCTYPE svg PUBLIC "-//W3C//DTD SVG 1.1//EN" "http://www.w3.org/Graphics/SVG/1.1/DTD/svg11.dtd">
<svg version="1.1" id="Layer_1" xmlns="http://www.w3.org/2000/svg" xmlns:xlink="http://www.w3.org/1999/xlink" x="0px" y="0px"
	 width="126px" height="126px" viewBox="0 0 126 126" enable-background="new 0 0 126 126" xml:space="preserve">
<g>
	<path d="M32.111,44.145c0.607,0.133,1.17,0.123,2.901-1.207c0.769-0.59,1.905-1.585,2.955-2.973l0.459-0.609
		c3.93-5.227,13.131-17.465,26.42-16.801c10.96,0.801,18.728,9.076,22.466,23.936c0.127,0.505,0.204,0.814,0.289,1.053
		c0.571,2.43,1.529,5.457,2.91,6.453c0.342,0.248,0.738,0.367,1.131,0.367c0.6,0,1.191-0.279,1.57-0.803
		c0.604-0.837,0.442-1.993-0.35-2.635c-0.382-0.493-1.1-2.563-1.527-4.411c-0.025-0.11-0.061-0.217-0.104-0.32
		c-0.036-0.126-0.105-0.401-0.168-0.648c-0.592-2.354-2.166-8.612-5.982-14.496c-4.928-7.599-11.649-11.755-19.978-12.356
		c-0.013-0.001-0.026-0.002-0.041-0.002c-15.351-0.783-25.428,12.617-29.729,18.338l-0.453,0.602
		c-1.178,1.557-2.568,2.525-3.048,2.807c-0.163,0.063-0.319,0.15-0.465,0.261c-0.602,0.456-0.896,1.234-0.733,1.972
		C30.797,43.406,31.374,43.982,32.111,44.145z"/>
	<path d="M80.572,51.564c1.461-3.648,1.496-7.416,0.097-10.34c-1.247-2.607-3.573-4.496-6.726-5.461
		c-4.627-1.416-10.236,1.153-15.374,7.041c-0.065,0.072-7.38,7.766-15.062,12.469c-0.057,0.033-5.68,3.407-11.552,5.006
		c-1.03,0.281-1.64,1.345-1.358,2.375c0.281,1.031,1.344,1.641,2.375,1.359c6.389-1.739,12.288-5.278,12.546-5.434
		c8.333-5.103,15.89-13.145,15.954-13.219c3.12-3.574,7.736-7,11.338-5.898c2.119,0.65,3.589,1.805,4.368,3.434
		c0.933,1.948,0.86,4.584-0.199,7.23c-1.972,4.926-8.11,10.875-17.284,16.75c-4.602,2.948-16.188,10.182-24.369,13.68
		c-0.982,0.42-1.438,1.557-1.019,2.539c0.313,0.734,1.028,1.175,1.78,1.175c0.253,0,0.512-0.05,0.76-0.155
		c8.448-3.613,20.252-10.979,24.934-13.979C68.749,65.675,77.664,58.83,80.572,51.564z"/>
	<path d="M49.41,37.119c-0.877,0.968-1.666,2.006-2.515,2.998c-1.111,1.3-2.327,2.514-3.595,3.658
		c-1.305,1.178-2.359,2.021-3.899,2.904c-1.632,0.937-3.295,1.884-4.986,2.707c-0.581,0.283-1.081,0.468-1.735,0.664
		c-1.01,0.304-1.636,1.346-1.352,2.381c0.275,0.998,1.371,1.654,2.381,1.352c1.979-0.596,3.771-1.613,5.557-2.629
		c1.509-0.857,3.008-1.629,4.395-2.684c2.701-2.055,5.027-4.455,7.166-7.08c0.866-1.063,1.793-2.076,2.76-3.049
		c0.528-0.531,1.074-1.043,1.632-1.543c0.29-0.261,0.585-0.515,0.884-0.766c0.15-0.127,0.305-0.252,0.457-0.377
		c0.04-0.033,0.34-0.27,0.418-0.332c1.347-1.032,2.782-1.949,4.293-2.725c1.426-0.733,2.858-1.248,4.595-1.609
		c0.575-0.119,0.701-0.133,1.132-0.177c1.049-0.108,1.936-0.798,1.936-1.935c0-0.973-0.883-2.045-1.936-1.936
		C60.002,27.668,54.021,32.041,49.41,37.119z"/>
	<path d="M34.352,74.169c4.204-1.442,25.787-9.502,37.873-26.442c0.62-0.87,0.418-2.078-0.451-2.699
		c-0.87-0.621-2.079-0.418-2.699,0.451c-11.4,15.98-31.971,23.654-35.979,25.031c-0.086,0.029-0.139,0.048-0.157,0.055
		c-0.999,0.379-1.503,1.495-1.124,2.495c0.293,0.774,1.028,1.25,1.81,1.25c0.22,0,0.442-0.038,0.66-0.116L34.352,74.169z"/>
	<path d="M59.578,82.334c0.448-2.076,1.191-4.043,2.188-5.854c-2.326,1.302-5.313,3.243-9.072,5.722
		c-4.831,3.185-10.307,6.794-12.688,7.435c-1.032,0.279-1.644,1.341-1.366,2.372c0.233,0.864,1.014,1.433,1.867,1.433
		c0.167,0,0.336-0.021,0.504-0.066c2.985-0.805,8.245-4.271,13.813-7.941C56.346,84.43,57.993,83.344,59.578,82.334z"/>
	<path d="M59.248,89.545c-2.629,1.68-6.032,4.098-10.321,7.229c-1.032,0.754-1.924,1.404-2.542,1.842
		c-0.873,0.617-1.08,1.824-0.465,2.697c0.378,0.533,0.976,0.818,1.582,0.818c0.387,0,0.776-0.115,1.115-0.355
		c0.643-0.453,1.546-1.113,2.592-1.876c1.932-1.41,5.699-4.16,8.924-6.308C59.713,92.291,59.416,90.938,59.248,89.545z"/>
	<path d="M62.875,99.181c-3.378,1.151-8.08,5.876-9.05,6.878c-0.743,0.768-0.724,1.992,0.044,2.736
		c0.376,0.363,0.861,0.545,1.346,0.545c0.506,0,1.012-0.197,1.391-0.59c2.592-2.676,6.273-5.718,7.701-5.965
		c0.655-0.111,1.47,0.164,2.396,0.656C65.248,102.195,63.959,100.765,62.875,99.181z"/>
	<path d="M92.65,64.846c-1.613-0.682-3.299-1.398-4.656-2.527c-1.494-1.243-2.189-2.876-2.5-4.762
		c-0.406-2.457-4.135-1.411-3.732,1.029c0.549,3.328,2.361,5.639,4.805,7.365c1.991,0.545,3.871,1.363,5.594,2.417
		c0.47-0.099,0.892-0.374,1.185-0.876C93.826,66.672,93.623,65.256,92.65,64.846z"/>
	<path d="M75.788,64.512c-0.702,0.193-1.342,0.898-1.438,1.656c1.148-0.359,2.339-0.621,3.56-0.786
		C77.45,64.683,76.699,64.262,75.788,64.512z"/>
	<path d="M79.669,67.115c-10.339,0-18.75,8.412-18.75,18.75c0,10.34,8.411,18.75,18.75,18.75s18.75-8.41,18.75-18.75
		C98.419,75.527,90.008,67.115,79.669,67.115z M79.669,100.615c-8.133,0-14.75-6.616-14.75-14.75c0-8.133,6.617-14.75,14.75-14.75
		s14.75,6.617,14.75,14.75C94.419,93.999,87.802,100.615,79.669,100.615z"/>
	<rect x="89.952" y="85.365" width="3.643" height="1"/>
	<rect x="66.702" y="85.365" width="3.643" height="1"/>
	<rect x="79.169" y="95.67" width="1" height="3.643"/>
	<rect x="79.169" y="72.42" width="1" height="3.643"/>
	<polygon points="78.997,85.125 80.341,86.605 88.5,78.242 88.155,77.762 	"/>
</g>
</svg>
