<?xml version="1.0" encoding="utf-8"?>
<!-- Generator: Adobe Illustrator 16.0.0, SVG Export Plug-In . SVG Version: 6.00 Build 0)  -->
<!DOCTYPE svg PUBLIC "-//W3C//DTD SVG 1.1//EN" "http://www.w3.org/Graphics/SVG/1.1/DTD/svg11.dtd">
<svg version="1.1" id="Layer_1" xmlns="http://www.w3.org/2000/svg" xmlns:xlink="http://www.w3.org/1999/xlink" x="0px" y="0px"
	 width="126px" height="126px" viewBox="0 0 126 126" enable-background="new 0 0 126 126" xml:space="preserve">
<g>
	<path d="M34.418,40.822c0.607,0.133,1.17,0.125,2.902-1.205c0.768-0.59,1.904-1.586,2.955-2.973l0.459-0.609
		c3.93-5.229,13.131-17.467,26.42-16.801c10.959,0.799,18.727,9.076,22.465,23.936c0.127,0.504,0.205,0.814,0.289,1.053
		c0.572,2.43,1.529,5.457,2.91,6.453c0.342,0.248,0.738,0.365,1.131,0.365c0.6,0,1.191-0.277,1.57-0.803
		c0.604-0.836,0.443-1.992-0.35-2.633c-0.381-0.494-1.1-2.563-1.527-4.412c-0.025-0.109-0.061-0.217-0.104-0.32
		c-0.035-0.125-0.105-0.4-0.168-0.648c-0.592-2.355-2.166-8.611-5.982-14.496c-4.928-7.598-11.648-11.756-19.977-12.355
		c-0.014-0.002-0.027-0.002-0.041-0.004c-15.352-0.783-25.428,12.617-29.73,18.34l-0.453,0.6c-1.178,1.559-2.568,2.527-3.047,2.809
		c-0.164,0.063-0.32,0.15-0.465,0.26c-0.602,0.457-0.896,1.234-0.734,1.971C33.104,40.086,33.682,40.662,34.418,40.822z"/>
	<path d="M35.279,60.691c6.389-1.738,12.289-5.277,12.547-5.434c1.209-0.74,2.398-1.547,3.555-2.377
		c0.512-4.531,3.275-8.201,7.549-10.174v-1.006c0-0.102,0.023-0.197,0.029-0.299c-2.68,2.6-7.822,7.291-13.145,10.549
		c-0.057,0.035-5.68,3.408-11.551,5.008c-1.031,0.281-1.641,1.344-1.359,2.375S34.248,60.975,35.279,60.691z"/>
	<path d="M51.148,72.459l0.781-2.721c-4.695,2.752-9.969,5.646-14.297,7.496c-0.982,0.42-1.438,1.559-1.018,2.541
		c0.313,0.734,1.027,1.174,1.779,1.174c0.254,0,0.512-0.049,0.76-0.156c3.621-1.547,7.855-3.785,11.885-6.072
		C50.906,73.982,50.932,73.213,51.148,72.459z"/>
	<path d="M82.879,48.244c1.461-3.648,1.496-7.418,0.098-10.34c-1.248-2.607-3.574-4.496-6.727-5.463
		c-3.826-1.17-8.324,0.393-12.674,4.297c0.119-0.01,0.232-0.037,0.354-0.037h3.893c0.678,0,1.322,0.139,1.91,0.383
		c1.848-0.988,3.725-1.449,5.385-0.941c2.119,0.648,3.59,1.803,4.369,3.432c0.932,1.949,0.859,4.586-0.199,7.232
		c-0.002,0.004-0.006,0.008-0.006,0.012c0.129,0.74,0.113,1.514-0.111,2.273l-1.281,4.367c-0.406,1.387-1.395,2.529-2.707,3.133
		c0.35,0.26,0.697,0.539,1.037,0.838C79.15,54.561,81.598,51.443,82.879,48.244z"/>
	<path d="M69.303,27.492c1.049-0.109,1.936-0.799,1.936-1.936c0-0.973-0.883-2.043-1.936-1.934
		c-6.994,0.725-12.975,5.098-17.586,10.176c-0.877,0.967-1.666,2.006-2.514,2.996c-1.111,1.301-2.328,2.514-3.596,3.66
		c-1.305,1.178-2.359,2.02-3.898,2.904c-1.633,0.936-3.295,1.883-4.986,2.707c-0.582,0.283-1.082,0.467-1.736,0.664
		c-1.01,0.303-1.635,1.346-1.352,2.381c0.275,0.998,1.371,1.654,2.381,1.352c1.979-0.596,3.771-1.613,5.557-2.629
		c1.51-0.857,3.008-1.631,4.395-2.686c2.701-2.055,5.027-4.453,7.166-7.08c0.867-1.063,1.793-2.076,2.76-3.047
		c0.529-0.531,1.074-1.043,1.633-1.545c0.289-0.26,0.584-0.514,0.883-0.764c0.15-0.129,0.305-0.254,0.457-0.379
		c0.041-0.031,0.342-0.27,0.418-0.33c1.348-1.033,2.783-1.951,4.293-2.727c1.426-0.732,2.859-1.246,4.596-1.607
		C68.746,27.549,68.873,27.537,69.303,27.492z"/>
	<path d="M36.658,70.848c2.256-0.773,9.51-3.453,17.615-8.383c-0.824-0.926-1.545-2-2.07-3.256
		c-7.719,4.682-14.648,7.24-16.801,7.979c-0.086,0.029-0.139,0.049-0.156,0.057c-1,0.377-1.504,1.494-1.125,2.494
		c0.293,0.773,1.029,1.25,1.811,1.25c0.219,0,0.441-0.037,0.66-0.117L36.658,70.848z"/>
	<path d="M89.311,82.367c-2.682-0.895-5.963-3.232-9.137-5.492c-0.799-0.568-1.576-1.121-2.338-1.648
		c-0.805,1.029-1.773,1.943-2.881,2.721c1.006,0.68,2.023,1.404,2.975,2.08c3.404,2.426,6.926,4.934,10.158,6.01
		c1.014,0.34,2.109-0.209,2.447-1.223C90.871,83.801,90.324,82.705,89.311,82.367z"/>
	<path d="M58.699,81.08c-0.02-0.182-0.055-0.359-0.055-0.547V80.27c-1.355-0.328-2.615-0.783-3.746-1.322
		c-4.807,3.168-10.221,6.732-12.586,7.369c-1.033,0.277-1.645,1.34-1.367,2.371c0.234,0.863,1.014,1.434,1.867,1.434
		c0.168,0,0.336-0.021,0.504-0.068c2.986-0.803,8.246-4.27,13.814-7.941C57.641,81.775,58.166,81.43,58.699,81.08z"/>
	<path d="M84.467,91.846c-1.561-0.564-4.096-2.131-6.547-3.645c-2.885-1.783-5.17-3.154-7.049-3.967
		c-0.887,0.799-2.047,1.299-3.334,1.299h-3.893c-0.289,0-0.566-0.039-0.84-0.084c-2.766,1.668-6.563,4.348-11.57,8.004
		c-1.033,0.754-1.924,1.404-2.543,1.842c-0.873,0.615-1.08,1.824-0.465,2.695c0.379,0.535,0.977,0.82,1.582,0.82
		c0.387,0,0.777-0.115,1.115-0.355c0.643-0.455,1.547-1.113,2.592-1.877c3.357-2.451,12.275-8.961,14.209-9.295
		c1.205-0.082,5.561,2.602,8.16,4.209c2.74,1.693,5.33,3.293,7.268,3.992c1.002,0.363,2.113-0.156,2.477-1.162
		C85.992,93.318,85.473,92.209,84.467,91.846z"/>
	<path d="M77.932,101.465c-1.088-0.709-2.086-1.422-3.053-2.111c-3.174-2.266-5.918-4.225-8.924-3.703
		c-3.385,0.586-8.777,6.006-9.822,7.088c-0.744,0.768-0.725,1.992,0.043,2.734c0.377,0.365,0.861,0.545,1.346,0.545
		c0.506,0,1.012-0.197,1.391-0.588c2.592-2.678,6.273-5.719,7.701-5.965c1.414-0.242,3.549,1.275,6.018,3.037
		c0.951,0.68,2.031,1.449,3.186,2.203c0.895,0.584,2.094,0.332,2.678-0.563S78.826,102.049,77.932,101.465z"/>
	<path d="M94.957,61.523c-1.613-0.68-3.299-1.396-4.656-2.525c-1.494-1.244-2.189-2.877-2.5-4.762
		c-0.406-2.457-4.135-1.412-3.732,1.029c0.828,5.02,4.523,7.736,8.936,9.6c0.973,0.41,2.064,0.303,2.648-0.693
		C96.133,63.352,95.93,61.936,94.957,61.523z"/>
	<path d="M91.203,71.621c-1.453-0.447-2.557-1.016-4.094-1.924c-2.816-1.664-5.385-4.076-6.635-7.154
		c-0.252-0.623-0.701-1.121-1.279-1.324c0.832,1.635,1.365,3.602,1.365,5.975c0,0.703-0.055,1.389-0.156,2.057
		c2.635,2.842,6.094,4.969,9.77,6.102C92.564,76.088,93.58,72.354,91.203,71.621z"/>
	<path d="M67.758,81.074v-5.127c5.475-0.895,8.412-4.627,8.412-8.859c0-4.428-2.49-7.117-8.064-9.207
		c-4.23-1.691-6.023-2.836-6.023-4.877c0-1.693,1.246-3.484,4.729-3.484c3.385,0,5.576,1.145,6.77,1.691l1.344-4.578
		c-1.594-0.797-3.732-1.543-6.867-1.643v-4.629h-4.082v4.877c-5.027,0.896-8.012,4.182-8.012,8.463c0,4.629,3.381,7.018,8.609,8.908
		c3.682,1.344,5.424,2.787,5.424,5.027c0,2.389-2.141,3.932-5.275,3.932c-3.035,0-5.824-1.045-7.764-2.189l-1.344,4.678
		c1.791,1.195,4.928,2.09,8.063,2.189v4.828H67.758z"/>
</g>
</svg>
