<?xml version="1.0" encoding="utf-8"?>
<!-- Generator: Adobe Illustrator 16.0.0, SVG Export Plug-In . SVG Version: 6.00 Build 0)  -->
<!DOCTYPE svg PUBLIC "-//W3C//DTD SVG 1.1//EN" "http://www.w3.org/Graphics/SVG/1.1/DTD/svg11.dtd">
<svg version="1.1" id="Layer_1" xmlns="http://www.w3.org/2000/svg" xmlns:xlink="http://www.w3.org/1999/xlink" x="0px" y="0px"
	 width="126px" height="126px" viewBox="0 0 126 126" enable-background="new 0 0 126 126" xml:space="preserve">
<g>
	<path d="M30.303,42.785c0.596,0.131,1.147,0.121,2.844-1.182c0.752-0.578,1.865-1.553,2.894-2.912l0.45-0.598
		c3.85-5.121,12.863-17.109,25.883-16.459c10.736,0.783,18.348,8.891,22.009,23.449c0.124,0.494,0.2,0.799,0.284,1.031
		c0.007,0.031,0.017,0.064,0.023,0.096c1.037,1.822,1.855,3.783,2.421,5.85c0.131,0.141,0.265,0.275,0.405,0.377
		c0.335,0.242,0.724,0.359,1.109,0.359c0.586,0,1.168-0.273,1.537-0.787c0.592-0.818,0.434-1.951-0.342-2.58
		c-0.374-0.484-1.078-2.51-1.496-4.322c-0.025-0.107-0.059-0.211-0.103-0.313c-0.034-0.125-0.103-0.395-0.164-0.637
		c-0.58-2.307-2.122-8.436-5.86-14.201c-4.828-7.443-11.412-11.516-19.572-12.104c-0.013-0.002-0.025-0.002-0.039-0.004
		c-15.039-0.768-24.911,12.361-29.125,17.967l-0.443,0.588c-1.154,1.525-2.518,2.475-2.988,2.75
		c-0.158,0.063-0.312,0.148-0.454,0.256c-0.59,0.447-0.878,1.209-0.72,1.932C29.016,42.063,29.582,42.627,30.303,42.785z"/>
	<path d="M75.471,36.82c-1.146-0.98-2.548-1.744-4.186-2.246c-0.598-0.182-1.213-0.293-1.841-0.342
		C71.58,34.838,73.602,35.713,75.471,36.82z"/>
	<path d="M31.148,62.25c2.07-0.564,4.083-1.32,5.865-2.086c-0.024-0.457-0.038-0.916-0.038-1.379c0-0.957,0.058-1.902,0.161-2.832
		c-1.989,0.934-4.464,1.953-6.985,2.641c-1.01,0.273-1.605,1.316-1.33,2.326C29.095,61.93,30.137,62.527,31.148,62.25z"/>
	<path d="M42.127,74.141c-3.011,1.65-6.024,3.184-8.674,4.316c-0.963,0.412-1.41,1.525-0.998,2.488
		c0.307,0.721,1.008,1.15,1.743,1.15c0.249,0,0.502-0.049,0.745-0.15c2.984-1.277,6.396-3.035,9.755-4.895
		C43.771,76.146,42.91,75.176,42.127,74.141z"/>
	<path d="M47.251,35.902c-0.86,0.949-1.632,1.967-2.464,2.938c-1.089,1.273-2.279,2.463-3.521,3.584
		c-1.279,1.154-2.313,1.98-3.82,2.846c-1.599,0.916-3.229,1.846-4.885,2.652c-0.57,0.277-1.061,0.459-1.701,0.65
		c-0.988,0.297-1.602,1.318-1.322,2.332c0.268,0.979,1.342,1.621,2.331,1.324c1.938-0.584,3.695-1.58,5.444-2.574
		c0.592-0.338,1.18-0.662,1.762-0.996c2.798-6.447,8.182-11.52,14.836-13.904c0.114-0.096,0.229-0.189,0.344-0.285
		c0.039-0.031,0.334-0.264,0.408-0.324c1.32-1.01,2.727-1.91,4.207-2.67c1.397-0.719,2.8-1.221,4.501-1.576
		c0.564-0.117,0.687-0.129,1.109-0.172c1.027-0.107,1.896-0.783,1.896-1.896c0-0.953-0.866-2.002-1.896-1.895
		C57.627,26.645,51.768,30.93,47.251,35.902z"/>
	<path d="M32.499,72.199c1.146-0.393,3.612-1.289,6.828-2.734c-0.528-1.141-0.975-2.328-1.331-3.553
		c-3.17,1.432-5.609,2.318-6.728,2.703c-0.085,0.029-0.137,0.047-0.154,0.053c-0.979,0.373-1.473,1.467-1.102,2.445
		c0.287,0.758,1.008,1.223,1.773,1.223c0.215,0,0.434-0.035,0.646-0.111L32.499,72.199z"/>
	<path d="M73.659,81.711c1.887,1.34,3.799,2.668,5.668,3.727l-4.387-4.395C74.519,81.279,74.09,81.5,73.659,81.711z"/>
	<path d="M53.453,82.645c-1.387-0.527-2.717-1.172-3.977-1.922c-4.47,2.943-9.268,6.047-11.438,6.631
		c-1.012,0.273-1.611,1.314-1.339,2.324c0.228,0.848,0.993,1.404,1.829,1.404c0.163,0,0.33-0.021,0.494-0.066
		c2.924-0.789,8.077-4.186,13.533-7.779C52.85,83.043,53.15,82.844,53.453,82.645z"/>
	<path d="M79.334,92.771c-1.527-0.553-4.012-2.088-6.414-3.572c-5.074-3.135-8.299-5.037-10.613-4.639
		c-2.344,0.406-7.267,3.752-15.529,9.785c-1.012,0.738-1.885,1.375-2.491,1.805c-0.854,0.604-1.058,1.787-0.455,2.641
		c0.37,0.523,0.956,0.803,1.55,0.803c0.379,0,0.76-0.113,1.093-0.348c0.63-0.445,1.515-1.092,2.539-1.838
		c3.288-2.402,12.024-8.779,13.92-9.107c1.182-0.08,5.447,2.551,7.995,4.123c2.685,1.658,5.221,3.227,7.118,3.912
		c0.983,0.357,2.071-0.154,2.427-1.139S80.32,93.127,79.334,92.771z"/>
	<path d="M72.932,102.195c-1.065-0.695-2.043-1.395-2.991-2.07c-3.108-2.221-5.796-4.139-8.741-3.625
		c-3.316,0.572-8.598,5.883-9.623,6.941c-0.729,0.752-0.709,1.953,0.043,2.682c0.368,0.354,0.844,0.533,1.318,0.533
		c0.495,0,0.99-0.193,1.361-0.578c2.539-2.621,6.146-5.602,7.546-5.844c1.384-0.238,3.476,1.252,5.895,2.977
		c0.933,0.666,1.989,1.42,3.12,2.158c0.877,0.572,2.053,0.326,2.624-0.551S73.808,102.768,72.932,102.195z"/>
	<path d="M90.292,65.658c0.473-0.803,0.273-2.189-0.68-2.592c-0.609-0.258-1.226-0.529-1.834-0.816
		c-0.176,1.277-0.452,2.533-0.818,3.764c0.244,0.111,0.49,0.219,0.74,0.324C88.651,66.742,89.72,66.637,90.292,65.658z"/>
	<path d="M85.934,72.957c-0.604-0.186-1.145-0.4-1.684-0.646l2.943,2.949C87.412,74.359,87.071,73.309,85.934,72.957z"/>
	<path d="M107.327,97.439L81.703,71.77c-0.039-0.041-0.087-0.066-0.128-0.104c2.782-3.865,4.44-8.588,4.44-13.701
		c0-12.971-10.551-23.521-23.521-23.521S38.974,44.994,38.974,57.965c0,12.969,10.551,23.52,23.521,23.52
		c4.714,0,9.1-1.406,12.784-3.803c0.078,0.092,0.144,0.193,0.23,0.281l25.622,25.67c1.71,1.711,4.483,1.709,6.195,0
		C109.035,101.922,109.035,99.148,107.327,97.439z M43.611,57.965c0-4.129,1.347-7.939,3.603-11.051v22.1
		C44.958,65.902,43.611,62.092,43.611,57.965z M48.756,70.879v-25.83c0.415-0.441,0.849-0.861,1.304-1.26v28.35
		C49.605,71.74,49.171,71.32,48.756,70.879z M51.026,72.932V43.641h-0.803c3.305-2.836,7.587-4.561,12.271-4.561
		s8.968,1.725,12.271,4.561h-1.476v29.383h0.551c-3.164,2.389-7.086,3.824-11.347,3.824C58.179,76.848,54.209,75.377,51.026,72.932z
		 M75.392,71.719v-27.51c0.515,0.482,1.007,0.988,1.465,1.525v24.459C76.399,70.73,75.907,71.236,75.392,71.719z M77.5,69.383
		V46.545c2.423,3.176,3.879,7.127,3.879,11.42S79.922,66.207,77.5,69.383z"/>
	<rect x="52.458" y="43.641" width="2.732" height="29.383"/>
	<rect x="64.767" y="43.641" width="0.579" height="29.383"/>
	<rect x="69.294" y="43.641" width="1.411" height="29.383"/>
	<rect x="66.267" y="43.641" width="0.796" height="29.383"/>
	<rect x="58.402" y="43.641" width="0.965" height="29.383"/>
	<rect x="61.718" y="43.641" width="2.049" height="29.383"/>
	<rect x="56.795" y="43.641" width="0.642" height="29.383"/>
</g>
</svg>
