<?xml version="1.0" encoding="utf-8"?>
<!-- Generator: Adobe Illustrator 16.0.0, SVG Export Plug-In . SVG Version: 6.00 Build 0)  -->
<!DOCTYPE svg PUBLIC "-//W3C//DTD SVG 1.1//EN" "http://www.w3.org/Graphics/SVG/1.1/DTD/svg11.dtd">
<svg version="1.1" id="Layer_1" xmlns="http://www.w3.org/2000/svg" xmlns:xlink="http://www.w3.org/1999/xlink" x="0px" y="0px"
	 width="126px" height="126px" viewBox="0 0 126 126" enable-background="new 0 0 126 126" xml:space="preserve">
<g>
	<path fill="#020202" d="M89.195,10.633H40.93c-3.203,0-5.807,2.508-5.807,5.592v93.414c0,3.084,2.604,5.592,5.807,5.592h48.266
		c3.203,0,5.809-2.508,5.809-5.592V16.225C95.004,13.141,92.398,10.633,89.195,10.633z M65.063,109.375
		c-1.791,0-3.248-1.455-3.248-3.248c0-1.785,1.457-3.242,3.248-3.242c1.793,0,3.248,1.457,3.248,3.242
		C68.311,107.92,66.855,109.375,65.063,109.375z M91.039,97.225H39.094v-69.99h51.945V97.225z"/>
</g>
<g>
	<path d="M85.721,69.094c-2.375-2.377-6.242-2.375-8.617,0c-1.643,1.643-2.148,3.998-1.52,6.08l-3.289,3.289
		c-0.105,0.107-0.148,0.264-0.109,0.41l0.457,1.75l-1.775-0.439c-0.145-0.037-0.297,0.006-0.402,0.111l-0.773,0.773
		c-0.104,0.104-0.146,0.252-0.115,0.393l0.221,0.998l-1.229-0.068c-0.119-0.006-0.238,0.037-0.322,0.123l-1.061,1.061
		c-0.078,0.078-0.121,0.182-0.125,0.291l-0.076,3.531c-0.004,0.125,0.049,0.246,0.143,0.328c0.096,0.082,0.221,0.119,0.346,0.102
		l3.197-0.486c0.09-0.014,0.172-0.055,0.236-0.119l8.186-8.186c2.207,0.904,4.84,0.465,6.629-1.324
		C88.096,75.334,88.096,71.469,85.721,69.094z M84.438,76.727l-0.15,0.15l-6.352-6.352l0.15-0.148c1.75-1.752,4.6-1.752,6.352,0
		C86.188,72.127,86.188,74.977,84.438,76.727z"/>
	<path d="M48.197,51.943c0.336,0.072,0.646,0.066,1.605-0.668c0.426-0.328,1.055-0.879,1.635-1.646l0.256-0.338
		c2.174-2.893,7.266-9.666,14.621-9.297c6.064,0.443,10.365,5.023,12.432,13.246c0.072,0.279,0.115,0.451,0.162,0.584
		c0.316,1.344,0.846,3.02,1.609,3.572c0.189,0.137,0.408,0.201,0.627,0.201c0.332,0,0.66-0.154,0.869-0.443
		c0.334-0.463,0.244-1.104-0.193-1.459c-0.213-0.273-0.609-1.418-0.846-2.441c-0.014-0.061-0.033-0.119-0.059-0.178
		c-0.02-0.068-0.059-0.221-0.092-0.357c-0.328-1.305-1.199-4.768-3.311-8.023c-2.729-4.205-6.447-6.506-11.057-6.838
		c-0.008-0.002-0.016-0.002-0.023-0.002c-8.496-0.434-14.072,6.982-16.453,10.148l-0.25,0.334c-0.652,0.861-1.422,1.398-1.688,1.553
		c-0.09,0.035-0.178,0.084-0.258,0.145c-0.332,0.252-0.496,0.684-0.406,1.092C47.471,51.533,47.789,51.854,48.197,51.943z"/>
	<path d="M75.018,56.049c0.809-2.02,0.828-4.104,0.053-5.723c-0.689-1.443-1.977-2.488-3.721-3.021
		c-2.563-0.783-5.666,0.639-8.51,3.896c-0.037,0.039-4.084,4.297-8.336,6.9c-0.031,0.02-3.145,1.885-6.393,2.771
		c-0.57,0.154-0.908,0.744-0.752,1.313c0.154,0.572,0.744,0.908,1.314,0.752c3.535-0.961,6.801-2.92,6.943-3.006
		c4.611-2.824,8.793-7.273,8.828-7.316c1.729-1.977,4.283-3.873,6.275-3.264c1.174,0.359,1.988,0.998,2.418,1.9
		c0.516,1.078,0.477,2.537-0.109,4.002c-1.092,2.727-4.488,6.018-9.566,9.27c-2.547,1.631-8.957,5.635-13.486,7.57
		c-0.545,0.232-0.797,0.861-0.564,1.406c0.174,0.406,0.57,0.65,0.984,0.65c0.141,0,0.283-0.027,0.422-0.086
		c4.676-2,11.209-6.076,13.799-7.736C68.473,63.859,73.408,60.07,75.018,56.049z"/>
	<path d="M57.771,48.055c-0.486,0.535-0.922,1.109-1.393,1.658c-0.615,0.721-1.287,1.391-1.99,2.025
		c-0.721,0.652-1.305,1.117-2.156,1.607c-0.904,0.518-1.824,1.043-2.76,1.498c-0.322,0.156-0.6,0.26-0.961,0.369
		c-0.559,0.166-0.904,0.742-0.748,1.316c0.152,0.553,0.758,0.916,1.316,0.748c1.096-0.33,2.088-0.895,3.076-1.455
		c0.836-0.475,1.664-0.902,2.432-1.486c1.496-1.137,2.783-2.465,3.967-3.918c0.48-0.588,0.992-1.148,1.527-1.688
		c0.291-0.293,0.594-0.576,0.902-0.854c0.162-0.145,0.324-0.285,0.49-0.424c0.084-0.07,0.168-0.139,0.254-0.209
		c0.021-0.018,0.188-0.148,0.23-0.184c0.744-0.57,1.539-1.078,2.375-1.508c0.789-0.406,1.582-0.689,2.543-0.891
		c0.318-0.066,0.389-0.074,0.627-0.098c0.58-0.061,1.07-0.441,1.07-1.07c0-0.539-0.488-1.133-1.07-1.072
		C63.633,42.824,60.322,45.244,57.771,48.055z"/>
	<path d="M49.438,68.559c2.326-0.799,14.271-5.258,20.959-14.635c0.344-0.48,0.232-1.148-0.25-1.492
		c-0.48-0.344-1.15-0.232-1.492,0.25c-6.311,8.844-17.695,13.09-19.912,13.854c-0.049,0.016-0.078,0.025-0.088,0.029
		c-0.553,0.209-0.832,0.828-0.621,1.381c0.162,0.428,0.568,0.691,1.002,0.691c0.121,0,0.244-0.02,0.365-0.064L49.438,68.559z"/>
	<path d="M67.355,70.938c0.908-0.156,3.135,1.428,4.922,2.701c0.238,0.17,0.479,0.342,0.719,0.51
		c-0.021-0.816,0.088-1.625,0.316-2.402c-2.455-1.748-4.582-3.219-6.322-2.92c-1.344,0.232-3.693,1.734-7.402,4.18
		c-2.674,1.762-5.705,3.76-7.021,4.113c-0.572,0.156-0.91,0.742-0.758,1.313c0.131,0.48,0.563,0.795,1.035,0.795
		c0.092,0,0.186-0.014,0.277-0.037c1.652-0.447,4.564-2.365,7.646-4.396C63.256,73.152,66.354,71.111,67.355,70.938z"/>
	<path d="M69.855,79.039c0.059-0.455,0.266-0.891,0.602-1.227l0.471-0.469c-2.107-1.268-3.563-1.99-4.65-1.801
		c-1.324,0.229-4.105,2.119-8.773,5.527c-0.572,0.416-1.064,0.777-1.408,1.02c-0.482,0.342-0.598,1.008-0.256,1.492
		c0.209,0.295,0.539,0.453,0.875,0.453c0.215,0,0.43-0.064,0.617-0.197c0.355-0.252,0.855-0.617,1.434-1.039
		c1.859-1.355,6.795-4.959,7.863-5.145c0.469-0.031,1.789,0.688,3.033,1.426C69.727,79.066,69.789,79.049,69.855,79.039z"/>
	<path d="M60.215,86.207c-0.412,0.426-0.4,1.104,0.023,1.516c0.209,0.201,0.477,0.303,0.744,0.303c0.281,0,0.561-0.109,0.771-0.328
		c0.9-0.93,2.039-1.939,2.957-2.596l0.018-0.727c0.01-0.549,0.232-1.066,0.623-1.455l0.672-0.674
		c-0.123,0.008-0.248,0.018-0.373,0.041C63.777,82.609,60.793,85.611,60.215,86.207z"/>
	<path d="M80.621,65.248c0.537,0.229,1.141,0.168,1.465-0.385c0.268-0.453,0.154-1.236-0.385-1.465
		c-0.893-0.377-1.826-0.773-2.576-1.398c-0.826-0.688-1.213-1.592-1.385-2.635c-0.223-1.359-2.287-0.781-2.064,0.568
		C76.133,62.713,78.178,64.217,80.621,65.248z"/>
	<path d="M73.688,63.963c-0.221-0.541-0.705-0.918-1.318-0.748c-0.514,0.141-0.967,0.775-0.748,1.318
		c0.688,1.691,1.855,3.158,3.287,4.311c0.117-0.135,0.229-0.273,0.357-0.402c0.398-0.398,0.834-0.742,1.299-1.041
		C75.33,66.521,74.258,65.371,73.688,63.963z"/>
</g>
</svg>
