<?xml version="1.0" encoding="utf-8"?>
<!-- Generator: Adobe Illustrator 16.0.0, SVG Export Plug-In . SVG Version: 6.00 Build 0)  -->
<!DOCTYPE svg PUBLIC "-//W3C//DTD SVG 1.1//EN" "http://www.w3.org/Graphics/SVG/1.1/DTD/svg11.dtd">
<svg version="1.1" id="Layer_1" xmlns="http://www.w3.org/2000/svg" xmlns:xlink="http://www.w3.org/1999/xlink" x="0px" y="0px"
	 width="126px" height="126px" viewBox="0 0 126 126" enable-background="new 0 0 126 126" xml:space="preserve">
<g>
	<path d="M30.888,42.785c0.596,0.131,1.147,0.121,2.844-1.182c0.752-0.578,1.865-1.553,2.894-2.912l0.45-0.598
		c3.85-5.121,12.863-17.109,25.883-16.459c10.737,0.783,18.348,8.891,22.008,23.449c0.125,0.494,0.201,0.799,0.285,1.031
		c0.006,0.031,0.016,0.064,0.023,0.096c1.037,1.822,1.855,3.783,2.42,5.85c0.131,0.141,0.266,0.275,0.406,0.377
		c0.334,0.242,0.723,0.359,1.109,0.359c0.586,0,1.168-0.273,1.537-0.787c0.592-0.818,0.434-1.951-0.342-2.58
		c-0.375-0.484-1.078-2.51-1.496-4.322c-0.025-0.107-0.059-0.211-0.104-0.313c-0.033-0.125-0.102-0.395-0.164-0.637
		c-0.58-2.307-2.121-8.436-5.859-14.201c-4.828-7.443-11.412-11.516-19.573-12.104c-0.013-0.002-0.025-0.002-0.039-0.004
		C48.132,17.082,38.26,30.211,34.046,35.816l-0.443,0.588c-1.154,1.525-2.518,2.475-2.988,2.75
		c-0.158,0.063-0.312,0.148-0.454,0.256c-0.59,0.447-0.878,1.209-0.72,1.932C29.601,42.063,30.167,42.627,30.888,42.785z"/>
	<path d="M76.057,36.82c-1.146-0.98-2.549-1.744-4.186-2.246c-0.598-0.182-1.213-0.293-1.842-0.342
		C72.164,34.838,74.188,35.713,76.057,36.82z"/>
	<path d="M31.733,62.25c2.07-0.564,4.083-1.32,5.865-2.086c-0.024-0.457-0.038-0.916-0.038-1.379c0-0.957,0.058-1.902,0.161-2.832
		c-1.989,0.934-4.464,1.953-6.985,2.641c-1.01,0.273-1.605,1.316-1.33,2.326C29.68,61.93,30.722,62.527,31.733,62.25z"/>
	<path d="M42.712,74.141c-3.011,1.65-6.024,3.184-8.674,4.316c-0.963,0.412-1.41,1.525-0.998,2.488
		c0.307,0.721,1.008,1.15,1.743,1.15c0.249,0,0.502-0.049,0.745-0.15c2.984-1.277,6.396-3.035,9.755-4.895
		C44.356,76.146,43.495,75.176,42.712,74.141z"/>
	<path d="M47.836,35.902c-0.86,0.949-1.632,1.967-2.464,2.938c-1.089,1.273-2.279,2.463-3.521,3.584
		c-1.279,1.154-2.313,1.98-3.82,2.846c-1.599,0.916-3.229,1.846-4.885,2.652c-0.57,0.277-1.061,0.459-1.701,0.65
		c-0.988,0.297-1.602,1.318-1.322,2.332c0.268,0.979,1.342,1.621,2.331,1.324c1.938-0.584,3.695-1.58,5.444-2.574
		c0.592-0.338,1.18-0.662,1.762-0.996c2.798-6.447,8.182-11.52,14.836-13.904c0.114-0.096,0.229-0.189,0.344-0.285
		c0.039-0.031,0.334-0.264,0.408-0.324c1.32-1.01,2.727-1.91,4.207-2.67c1.397-0.719,2.8-1.221,4.5-1.576
		c0.564-0.117,0.688-0.129,1.109-0.172c1.027-0.107,1.896-0.783,1.896-1.896c0-0.953-0.865-2.002-1.896-1.895
		C58.212,26.645,52.353,30.93,47.836,35.902z"/>
	<path d="M33.083,72.199c1.146-0.393,3.612-1.289,6.828-2.734c-0.528-1.141-0.975-2.328-1.331-3.553
		c-3.17,1.432-5.609,2.318-6.728,2.703c-0.085,0.029-0.137,0.047-0.154,0.053c-0.979,0.373-1.473,1.467-1.102,2.445
		c0.287,0.758,1.008,1.223,1.773,1.223c0.215,0,0.434-0.035,0.646-0.111L33.083,72.199z"/>
	<path d="M74.244,81.711c1.887,1.34,3.799,2.668,5.668,3.727l-4.387-4.395C75.104,81.279,74.676,81.5,74.244,81.711z"/>
	<path d="M54.038,82.645c-1.387-0.527-2.717-1.172-3.977-1.922c-4.47,2.943-9.268,6.047-11.438,6.631
		c-1.012,0.273-1.611,1.314-1.339,2.324c0.228,0.848,0.993,1.404,1.829,1.404c0.163,0,0.33-0.021,0.494-0.066
		c2.924-0.789,8.077-4.186,13.533-7.779C53.435,83.043,53.735,82.844,54.038,82.645z"/>
	<path d="M79.92,92.771c-1.527-0.553-4.012-2.088-6.414-3.572c-5.074-3.135-8.299-5.037-10.614-4.639
		c-2.344,0.406-7.267,3.752-15.529,9.785c-1.012,0.738-1.885,1.375-2.491,1.805c-0.854,0.604-1.058,1.787-0.455,2.641
		c0.37,0.523,0.956,0.803,1.55,0.803c0.379,0,0.76-0.113,1.093-0.348c0.63-0.445,1.515-1.092,2.539-1.838
		c3.288-2.402,12.024-8.779,13.919-9.107c1.182-0.08,5.447,2.551,7.996,4.123c2.684,1.658,5.221,3.227,7.117,3.912
		c0.984,0.357,2.072-0.154,2.428-1.139S80.904,93.127,79.92,92.771z"/>
	<path d="M73.518,102.195c-1.066-0.695-2.043-1.395-2.992-2.07c-3.107-2.221-5.795-4.139-8.741-3.625
		c-3.316,0.572-8.598,5.883-9.623,6.941c-0.729,0.752-0.709,1.953,0.043,2.682c0.368,0.354,0.844,0.533,1.318,0.533
		c0.495,0,0.99-0.193,1.361-0.578c2.539-2.621,6.146-5.602,7.546-5.844c1.384-0.238,3.476,1.252,5.894,2.977
		c0.934,0.666,1.99,1.42,3.121,2.158c0.877,0.572,2.053,0.326,2.623-0.551C74.641,103.941,74.393,102.768,73.518,102.195z"/>
	<path d="M90.877,65.658c0.473-0.803,0.273-2.189-0.68-2.592c-0.609-0.258-1.227-0.529-1.834-0.816
		c-0.176,1.277-0.453,2.533-0.818,3.764c0.244,0.111,0.49,0.219,0.74,0.324C89.236,66.742,90.305,66.637,90.877,65.658z"/>
	<path d="M86.52,72.957c-0.605-0.186-1.145-0.4-1.684-0.646l2.943,2.949C87.996,74.359,87.656,73.309,86.52,72.957z"/>
	<path d="M107.912,97.439L82.287,71.77c-0.039-0.041-0.086-0.066-0.127-0.104c2.781-3.865,4.439-8.588,4.439-13.701
		c0-12.971-10.551-23.521-23.52-23.521c-12.97,0-23.521,10.551-23.521,23.521c0,6.395,2.569,12.199,6.726,16.443v0.041h0.038
		c4.27,4.338,10.203,7.035,16.757,7.035c4.713,0,9.1-1.406,12.784-3.803c0.078,0.092,0.145,0.193,0.23,0.281l25.623,25.67
		c1.709,1.711,4.482,1.709,6.195,0C109.619,101.922,109.619,99.148,107.912,97.439z M77.051,45.305v5.453h-6.768V43.99h5.453
		C76.195,44.406,76.633,44.844,77.051,45.305z M48.335,46.197c0.648-0.811,1.367-1.559,2.138-2.252h4.63v6.768h-6.768V46.197z
		 M48.113,69.434v-3.576h6.766v6.766h-3.68C50.046,71.688,49.017,70.611,48.113,69.434z M78.752,68.486H77.68V67.32h-1.613v1.611
		h1.248V70.1h0.213c-1.08,1.283-2.326,2.418-3.707,3.377v-1.221h-2.303v2.305h0.564c-2.678,1.457-5.744,2.287-9.002,2.287
		c-3.334,0-6.463-0.877-9.185-2.398h2.812v-10.42H46.285v2.527c-1.326-2.582-2.089-5.496-2.089-8.592
		c0-3.275,0.841-6.357,2.313-9.045v3.619h10.42v-10.42h-4.086c2.953-1.914,6.463-3.039,10.236-3.039
		c3.805,0,7.342,1.141,10.311,3.084h-4.934v10.42h10.42v-4.936c1.945,2.969,3.086,6.51,3.086,10.316
		C81.963,61.857,80.777,65.477,78.752,68.486z"/>
	<rect x="71.813" y="45.385" width="3.711" height="3.713"/>
	<rect x="49.865" y="45.34" width="3.709" height="3.711"/>
	<rect x="49.642" y="67.252" width="3.709" height="3.711"/>
	<polygon points="58.425,62.764 59.513,62.764 59.513,63.932 60.716,63.932 60.716,62.729 59.626,62.729 59.626,61.6 61.751,61.6 
		61.751,59.338 59.49,59.338 59.49,61.563 58.525,61.563 58.525,60.361 57.324,60.361 57.324,61.563 58.425,61.563 	"/>
	<rect x="58.412" y="66.631" width="1.203" height="1.201"/>
	<rect x="58.101" y="72.691" width="1.201" height="1.201"/>
	<rect x="59.013" y="64.898" width="1.201" height="1.201"/>
	<polygon points="47.71,56.789 48.912,56.789 48.912,55.588 47.71,55.588 47.71,54.424 46.509,54.424 46.509,55.625 47.71,55.625 	
		"/>
	<polygon points="49.513,60.361 48.478,60.361 48.478,58.498 46.509,58.498 46.509,60.469 48.31,60.469 48.31,61.563 49.513,61.563 
		49.513,62.65 50.714,62.65 50.714,61.449 49.513,61.449 49.513,60.5 50.714,60.5 50.714,59.299 49.513,59.299 	"/>
	<rect x="75.709" y="54.039" width="3.227" height="3.225"/>
	<polygon points="77.352,59.326 78.406,59.326 78.406,57.715 76.793,57.715 76.793,59.113 76.234,59.113 76.234,60.23 77.352,60.23 
			"/>
	<rect x="77.32" y="64.898" width="1.613" height="1.613"/>
	<polygon points="69.258,65.814 69.258,64.201 67.809,64.201 67.809,62.357 65.863,62.357 65.863,64.303 67.645,64.303 
		67.645,65.814 	"/>
	<polygon points="68.01,70.1 68.01,68.486 66.566,68.486 66.566,67.32 64.953,67.32 64.953,68.932 66.396,68.932 66.396,70.1 	"/>
	<rect x="72.119" y="55.023" width="1.613" height="1.613"/>
	<rect x="64.121" y="59.9" width="1.613" height="1.611"/>
	<polygon points="69.152,59.094 67.402,59.094 67.402,62.318 70.629,62.318 70.629,59.352 71.992,59.352 71.992,61.607 
		74.27,61.607 74.27,59.549 75.344,59.549 75.344,58.346 74.143,58.346 74.143,59.33 72.051,59.33 72.051,56.455 69.461,56.455 
		69.461,55.004 70.971,55.004 70.971,53.393 69.357,53.393 69.357,54.672 67.678,54.672 67.678,56.455 69.152,56.455 	"/>
	<rect x="62.982" y="69.746" width="1.471" height="1.469"/>
	<polygon points="65.572,51.406 64.297,51.406 64.297,52.682 65.492,52.682 65.492,54.672 67.648,54.672 67.648,52.516 
		65.572,52.516 	"/>
	<rect x="64.855" y="49.043" width="1.273" height="1.275"/>
	<rect x="58.589" y="48.414" width="1.275" height="1.275"/>
	<polygon points="60.103,52.055 62.302,52.055 62.302,49.758 64.297,49.758 64.297,47.15 61.689,47.15 61.689,49.68 59.927,49.68 
		59.927,52.045 57.923,52.045 57.923,54.223 60.103,54.223 	"/>
	<rect x="64.658" y="43.91" width="2.178" height="2.178"/>
	<polygon points="59.531,46.967 61.71,46.967 61.71,44.787 60.132,44.787 60.132,43.91 57.953,43.91 57.953,46.088 59.531,46.088 	
		"/>
	<polygon points="66.402,57.154 64.934,57.154 64.934,55.525 63.316,55.525 63.316,54.199 60.626,54.199 60.626,55.328 
		59.013,55.328 59.013,58.018 61.703,58.018 61.703,56.889 62.755,56.889 62.755,57.705 64.584,57.705 64.584,58.973 66.402,58.973 
			"/>
	<rect x="53.181" y="54.307" width="3.045" height="3.047"/>
	<polygon points="63.654,67.625 63.654,66.281 62.361,66.281 62.361,65.033 61.015,65.033 61.015,66.377 62.31,66.377 62.31,67.625 
			"/>
	<polygon points="71.979,65.887 72.926,65.887 72.926,64.684 71.803,64.684 71.803,63.701 70.602,63.701 70.602,64.902 
		71.723,64.902 71.723,65.887 69.291,65.887 69.291,68.574 71.52,68.574 71.52,71.088 74.746,71.088 74.746,67.861 71.979,67.861 	
		"/>
	<polygon points="77.766,62.082 78.922,62.082 78.922,60.469 77.309,60.469 77.309,61.996 76.152,61.996 76.152,63.125 
		73.74,63.125 73.74,65.813 76.428,65.813 76.428,63.607 77.766,63.607 	"/>
	<rect x="61.97" y="62.318" width="2.69" height="2.689"/>
	<polygon points="54.166,58.498 52.48,58.498 52.48,56.977 50.511,56.977 50.511,58.947 52.197,58.947 52.197,60.469 53.181,60.469 
		53.181,62.164 56.226,62.164 56.226,59.117 54.166,59.117 	"/>
	<rect x="69.563" y="69.24" width="1.203" height="1.201"/>
	<polygon points="61.755,68.682 58.701,68.682 58.701,71.736 61.011,71.736 61.011,72.648 59.625,72.648 59.625,74.117 
		61.093,74.117 61.093,73.383 63.142,73.383 63.142,71.252 61.755,71.252 	"/>
	<rect x="63.717" y="72.049" width="2.488" height="2.486"/>
	<rect x="67.637" y="70.922" width="2.488" height="2.486"/>
</g>
</svg>
