<?xml version="1.0" encoding="UTF-8" standalone="yes"?>
<svg xmlns="http://www.w3.org/2000/svg" viewBox="0 0 440.89 440.89">
  <path d="M417.992 262.48c14.248-16.258 22.898-37.54 22.898-60.805 0-40.58-26.302-75.13-62.754-87.5-.072-32.72-26.71-59.318-59.446-59.318-31.095 0-56.674 24.002-59.223 54.45h-78.044c-2.55-30.448-28.128-54.45-59.223-54.45-32.736 0-59.374 26.598-59.446 59.318C26.302 126.545 0 161.095 0 201.675c0 23.265 8.65 44.546 22.898 60.804L2.52 323c-8.083 24.01 7.277 50.93 34.242 60.01 5.96 2.005 12.102 3.023 18.255 3.023 21.038 0 39.246-12.097 45.31-30.102l7.024-20.862c1.596.167 3.213.255 4.85.255 23.83 0 43.506-18.105 46.008-41.28h124.477c2.502 23.175 22.177 41.28 46.007 41.28 1.638 0 3.255-.088 4.85-.255l7.025 20.863c6.063 18.004 24.27 30.102 45.31 30.103h.002c6.15 0 12.29-1.018 18.25-3.024 26.965-9.08 42.326-36 34.242-60.01l-20.38-60.52zm-268.355-47.425h-16.864v16.864c0 9.614-7.823 17.437-17.438 17.437s-17.438-7.823-17.438-17.438v-16.865H81.032c-9.615 0-17.438-7.823-17.438-17.438s7.823-17.438 17.438-17.438h16.864v-16.865c0-9.615 7.823-17.438 17.438-17.438s17.438 7.823 17.438 17.438v16.864h16.864c9.615 0 17.438 7.822 17.438 17.437s-7.822 17.438-17.437 17.438zm155.145 28.19c-10.16 0-18.428-8.268-18.428-18.43s8.267-18.427 18.428-18.427 18.428 8.267 18.428 18.428-8.267 18.428-18.428 18.428zm0-54.398c-10.16 0-18.428-8.267-18.428-18.428s8.267-18.43 18.428-18.43 18.428 8.268 18.428 18.43-8.267 18.427-18.428 18.427zm54.086 54.397c-10.16 0-18.428-8.267-18.428-18.428s8.267-18.428 18.428-18.428 18.428 8.267 18.428 18.428-8.267 18.428-18.428 18.428zm0-54.397c-10.16 0-18.428-8.267-18.428-18.428s8.267-18.43 18.428-18.43 18.428 8.268 18.428 18.43-8.267 18.427-18.428 18.427z"/>
</svg>