<?xml version="1.0" encoding="UTF-8" standalone="yes"?>
<svg xmlns="http://www.w3.org/2000/svg" viewBox="0 0 411.108 411.108">
  <path d="M382.108 137.417H292.69c-10.477 0-19-8.523-19-19V29c0-15.99-13.01-29-29-29h-78.273c-15.99 0-29 13.01-29 29v89.417c0 10.477-8.523 19-19 19H29c-15.99 0-29 13.01-29 29v78.273c0 15.99 13.01 29 29 29h89.417c10.477 0 19 8.523 19 19v89.417c0 15.99 13.01 29 29 29h78.273c15.99 0 29-13.01 29-29V292.69c0-10.477 8.523-19 19-19h89.418c15.99 0 29-13.01 29-29v-78.273c0-15.99-13.01-29-29-29zm-289.22 106.18c0 2.75-1.827 3.688-4.062 2.085L36.95 208.468c-2.233-1.603-2.233-4.226 0-5.83l51.876-37.213c2.234-1.603 4.063-.665 4.063 2.085v76.087zm72.537-154.77l37.214-51.875c1.602-2.234 4.225-2.234 5.828 0l37.214 51.875c1.603 2.234.665 4.063-2.085 4.063H167.51c-2.75 0-3.688-1.83-2.085-4.063zm80.258 233.454l-37.214 51.876c-1.604 2.234-4.227 2.234-5.83 0l-37.214-51.875c-1.603-2.233-.665-4.062 2.085-4.062H243.6c2.75 0 3.688 1.83 2.085 4.063zm-40.13-69.726c-25.956 0-47-21.043-47-47s21.044-47 47-47c25.958 0 47 21.043 47 47s-21.042 47-47 47zm168.603-44.085l-51.875 37.213c-2.233 1.603-4.062.665-4.062-2.085V167.51c0-2.75 1.828-3.688 4.063-2.085l51.876 37.214c2.234 1.602 2.234 4.225 0 5.83z"/>
</svg>