<?xml version="1.0" encoding="UTF-8" standalone="yes"?>
<svg xmlns="http://www.w3.org/2000/svg" viewBox="0 0 462.489 462.489">
  <path d="M358.088 194.193v-.12H248.745v-71.697h26.664c8.786 0 16.966-3.466 23.03-9.76 6.066-6.294 9.227-14.596 8.902-23.377l-.843-22.774c-.358-9.658-8.487-17.2-18.136-16.84-9.66.357-17.198 8.477-16.84 18.135l.726 19.616h-26.003c-17.92 0-32.5 14.58-32.5 32.5v74.198H104.4v.12C46.39 196.815 0 244.827 0 303.473 0 363.8 49.077 412.877 109.4 412.877c46.575 0 86.438-29.258 102.194-70.356h39.302c15.756 41.098 55.62 70.356 102.193 70.356 60.323 0 109.4-49.077 109.4-109.4 0-58.648-46.39-106.66-104.402-109.283zm-221.22 126.14h-16.11v16.11c0 9.295-7.56 16.856-16.856 16.856-9.294 0-16.856-7.563-16.856-16.857v-16.11h-16.11c-9.295 0-16.857-7.563-16.857-16.857s7.56-16.856 16.856-16.856h16.11v-16.11c0-9.296 7.562-16.857 16.856-16.857 9.295 0 16.857 7.562 16.857 16.856v16.11h16.11c9.294 0 16.855 7.562 16.855 16.856s-7.56 16.856-16.856 16.856zm185.22 35.078c-11.445 0-20.757-9.31-20.757-20.757 0-11.446 9.313-20.758 20.76-20.758 11.445 0 20.757 9.312 20.757 20.758s-9.31 20.758-20.758 20.758zm0-62.354c-11.445 0-20.757-9.312-20.757-20.758s9.313-20.758 20.76-20.758c11.445 0 20.757 9.312 20.757 20.758s-9.31 20.758-20.758 20.758zm62 62.355c-11.447 0-20.76-9.31-20.76-20.757 0-11.446 9.313-20.758 20.76-20.758 11.445 0 20.757 9.312 20.757 20.758s-9.31 20.758-20.758 20.758zm0-62.354c-11.447 0-20.76-9.312-20.76-20.758s9.313-20.758 20.76-20.758c11.445 0 20.757 9.312 20.757 20.758s-9.31 20.758-20.758 20.758z" fill="#000001"/>
</svg>