<?xml version="1.0" encoding="UTF-8" standalone="yes"?>
<svg xmlns="http://www.w3.org/2000/svg" viewBox="0 0 434.691 434.691">
  <path d="M377.172 366.035v-45.72c0-5.105-2.754-9.566-6.845-12.013.003-.148.01-.295.01-.443 0-13.478-10.963-24.442-24.44-24.442-10.643 0-19.714 6.843-23.06 16.358-5.972-5-14.083-9.527-24.153-13.39-16.805-6.445-37.824-10.646-60.605-12.24v-33.31c19.53-5.52 27.303-17.777 27.303-26.28 0-4.993-1.962-8.3-3.692-11.216-1.8-3.036-3.355-5.658-3.355-10.94 0-4.168 1.78-6.59 4.247-9.945 3.043-4.14 6.83-9.29 6.83-18.25 0-8.643-4.692-14.204-8.832-19.11-3.907-4.633-7.28-8.633-7.28-15.13 0-6.106 3.785-10.588 8.17-15.777 5.14-6.084 10.964-12.98 10.964-23.5 0-11.114-5.57-15.93-9.638-19.445-3.41-2.948-5.47-4.73-5.47-9.758 0-3.827 3.633-7.536 7.838-11.83 7.82-7.99 18.53-18.93 12.064-39.047C275.954 6.646 272.058 0 260.27 0c-26.03 0-78.07 32.885-93.397 42.963-2.58 1.695-3.23 3.776-3.322 5.224-.12 1.916.707 3.78 2.27 5.114 3.892 3.328 17.397 15.6 27.78 33.82 14.316 25.12 3.468 42.3-14.505 70.765-4.865 7.705-10.38 16.438-15.73 26.04-8.866 15.914-10.282 29.225-4.207 39.563 7.065 12.024 22.884 17.06 37.443 19.048v31.61c-22.775 1.595-43.79 5.797-60.59 12.24-10.07 3.863-18.182 8.39-24.154 13.39-3.345-9.515-12.417-16.358-23.06-16.358-13.478 0-24.442 10.965-24.442 24.44 0 .147.01.29.01.436-4.098 2.445-6.858 6.91-6.858 12.02V424.692c0 5.514 4.486 10 10 10h42.578c5.514 0 10-4.486 10-10v-13.936H314.61v13.936c0 5.514 4.485 10 10 10h42.577c5.514 0 10-4.486 10-10v-58.367c0-.098-.012-.193-.015-.29zm-49.59 13.605h-36.04c-10.115 0-18.315-8.2-18.315-18.316s8.2-18.316 18.316-18.316h36.04c10.115 0 18.315 8.2 18.315 18.316s-8.2 18.316-18.316 18.316z"/>
</svg>