<?xml version="1.0" encoding="UTF-8" standalone="yes"?>
<svg xmlns="http://www.w3.org/2000/svg" viewBox="0 0 64 64">
  <path d="M55.046 17.92a24.21 24.21 0 0 1 1.173 7.37c0 7.652-8.02 13.607-19.5 14.48a1 1 0 0 1-1.074-.92.967.967 0 0 1 .04-.337.99.99 0 0 1 .88-.737C46.96 36.986 54.22 31.85 54.22 25.29c0-3.247-.815-6.608-2.273-9.713C48.637 8.525 41.99 2.8 33.927 2.8S19.223 8.527 15.912 15.58c-1.457 3.104-2.27 6.465-2.27 9.71 0 2.673 1.24 5.195 3.586 7.294.29.26.384.65.29 1.004a.978.978 0 0 1-.21.408c-.37.41-1 .446-1.413.078-2.783-2.488-4.254-5.525-4.254-8.784 0-2.53.42-5.01 1.173-7.37C9.786 20.678 8 24.05 8 27.697c0 9.312 11.61 16.86 25.93 16.86s25.928-7.548 25.928-16.86c0-3.646-1.786-7.02-4.812-9.778zm-37.38 39.638s2.988 4.616 16.263-1.767c13.273 6.385 16.26 1.77 16.26 1.77-5.357.59-7.015-1.416-7.015-1.416 2.168.526 4.464-.442 4.464-.442-2.165-.115-4.798-1.396-6.267-2.208 1.52.552 3.46.35 3.46.35s-1.786-.338-2.806-3.462c-.922-2.823-6.948-2.888-8.1-2.875-1.152-.014-7.177.05-8.1 2.875-1.02 3.124-2.806 3.462-2.806 3.462s1.94.202 3.46-.35c-1.467.812-4.1 2.093-6.265 2.208 0 0 2.296.97 4.464.442 0 0-1.658 2.007-7.015 1.416z"/>
</svg>