<?xml version="1.0" encoding="UTF-8" standalone="yes"?>
<svg xmlns="http://www.w3.org/2000/svg" viewBox="0 0 64 64">
  <path d="M59.53 37.478c-.41 2.494-7.203-1.26-7.203-1.26v.002c-5.51-3.223-11.238-6.14-13.26-7.156a4.164 4.164 0 0 0-.635-.316 34.61 34.61 0 0 1-.13-.065c-2.152-.804-4.556.31-5.37 2.49s.27 4.596 2.42 5.4c.295.11.593.177.89.217 3.274.79 14.72 3.488 19.517 3.738 6.14.846 4.22-5.786 3.77-3.05zm-54.726 0c-.45-2.736-2.37 3.896 3.772 3.05 4.797-.25 16.243-2.947 19.516-3.737.298-.04.597-.105.89-.215 2.15-.804 3.235-3.22 2.42-5.4s-3.216-3.293-5.368-2.49l-.13.065a4.21 4.21 0 0 0-.635.315c-2.025 1.015-7.75 3.932-13.264 7.156 0 0-6.792 3.753-7.203 1.26z"/>
</svg>