<?xml version="1.0" encoding="iso-8859-1"?>
<!-- Generator: Adobe Illustrator 17.0.0, SVG Export Plug-In . SVG Version: 6.00 Build 0)  -->
<!DOCTYPE svg PUBLIC "-//W3C//DTD SVG 1.1//EN" "http://www.w3.org/Graphics/SVG/1.1/DTD/svg11.dtd">
<svg version="1.1" id="Capa_1" xmlns="http://www.w3.org/2000/svg" xmlns:xlink="http://www.w3.org/1999/xlink" x="0px" y="0px"
	 width="64px" height="64px" viewBox="0 0 64 64" style="enable-background:new 0 0 64 64;" xml:space="preserve">
<g>
	<path d="M11.43,37.083l2.312-9.739c-1.232-1.171-2.539-2.254-3.932-3.206c-2.999-2.05-5.294-3.807-6.767-5.514
		c0.066,0.486,0.156,1.018,0.29,1.626c1.25,5.667,3.083,16.438,3.083,16.438l1.333,0.105v7.291H6.5l0.833,16.333h2.5l1.25-16.333
		h-1.25v-7.126L11.43,37.083z"/>
	<path d="M10.375,23.312c0.391,0.267,0.775,0.545,1.153,0.83c0.329-0.343,1.597-0.555,3.147-0.727
		c1.974-0.219,4.382-0.377,5.825-0.665c0.56-0.112,1.292-0.249,2.119-0.404c-2.632-4.846-4.635-9.119-5.244-10.534
		c-0.499-1.158-1.241-2.616-2.02-4.065c0.551,0.671,1.094,1.349,1.621,2.038c0.504,0.659,0.995,1.328,1.48,2.001
		c2.346,3.258,4.487,6.668,6.583,10.108c0.093,0.152,0.185,0.304,0.278,0.456c0.092,0.152,0.185,0.304,0.277,0.456
		c-0.49,0.093-0.972,0.184-1.439,0.271c-0.172,0.032-0.341,0.064-0.508,0.095c-0.11,0.021-0.222,0.041-0.33,0.061
		c-0.066,0.012-0.127,0.024-0.192,0.036c-0.955,0.178-1.801,0.335-2.429,0.461c-1.035,0.207-2.524,0.348-3.964,0.484
		c-0.692,0.065-1.527,0.146-2.304,0.239c-0.454,0.054-0.893,0.111-1.259,0.173c0.284,0.272,0.62,0.599,0.989,0.964
		c2.256,2.236,5.878,6.087,8.342,10.003c1.886-0.309,4.794-0.8,7.547-1.294c0.184-0.033,0.367-0.066,0.549-0.099
		c0.178-0.032,0.354-0.064,0.529-0.097c0.521-0.095,1.027-0.19,1.516-0.282c0.12,0.147,0.239,0.297,0.363,0.44
		c0.129,0.148,0.264,0.289,0.397,0.433c1.111,1.197,2.382,2.221,3.923,2.866c2.367,0.99,4.946,1.362,7.471,1.886
		c0.233,0.048,0.464,0.102,0.695,0.153c0.217,0.048,0.434,0.095,0.65,0.147c-0.992,0.768-2.692,1.698-5.13,1.698
		c-1.249,0-2.69-0.245-4.326-0.882c-1.817-0.708-3.874-2.719-5.954-5.371c-3.534,0.64-7.288,1.26-8.403,1.442
		c4.451,7.289,7.033,14.725,8.294,17.804c1.398,3.412,1.821,4.904,5.219,4.904c1.769,0,4.344-0.405,8.281-1.154
		c11.5-2.188,14.375-5,14.375-5c0.375-11.125-2.312-12.125-5.125-12.375s-6.188-2.062-6.188-2.062s-0.058,0.075-0.163,0.191
		c-0.184-0.049-0.367-0.101-0.551-0.146c-0.194-0.048-0.388-0.092-0.583-0.137c-2.476-0.572-5.006-0.921-7.419-1.716
		c-1.532-0.504-2.808-1.388-3.922-2.475c-0.142-0.139-0.282-0.28-0.419-0.425c-0.134-0.142-0.268-0.284-0.398-0.431
		c1.675-0.329,2.988-0.618,3.488-0.8c2.204-0.801,3.135-0.99,4.083-1.058c0.074-0.005,0.148-0.007,0.223-0.007
		c0.005,0,0.01,0,0.016,0c-0.078-0.314-0.243-0.833-0.592-1.675c-1.527-3.691-2.237-5.573-2.627-8.105
		c-0.116-0.752-0.185-1.299-0.237-1.714c-0.061-0.486-0.094-0.726-0.133-0.877c-0.558,0.115-1.602,0.524-2.467,0.863
		c-0.722,0.283-1.469,0.576-2.226,0.835c-1.4,0.478-4.034,1.034-6.633,1.538c-0.092-0.152-0.185-0.304-0.277-0.456
		s-0.185-0.304-0.277-0.456c-3.033-4.978-6.151-9.893-9.826-14.403c-0.542-0.665-1.086-1.327-1.654-1.972
		c-0.488-0.555-0.997-1.094-1.508-1.633c-0.71-1.229-1.211-2.065-1.211-2.065C3.965,9.406,0.447,12.772,2.932,16.802
		C4.08,18.664,6.505,20.667,10.375,23.312z"/>
</g>
</svg>
