<?xml version="1.0" encoding="iso-8859-1"?>
<!-- Generator: Adobe Illustrator 17.0.0, SVG Export Plug-In . SVG Version: 6.00 Build 0)  -->
<!DOCTYPE svg PUBLIC "-//W3C//DTD SVG 1.1//EN" "http://www.w3.org/Graphics/SVG/1.1/DTD/svg11.dtd">
<svg version="1.1" id="Capa_1" xmlns="http://www.w3.org/2000/svg" xmlns:xlink="http://www.w3.org/1999/xlink" x="0px" y="0px"
	 width="64px" height="64px" viewBox="0 0 64 64" style="enable-background:new 0 0 64 64;" xml:space="preserve">
<g>
	<path d="M31.137,55.867c0.086,1.491,0.217,2.898,0.416,3.446c0,0,3.571,6.938,20.438-1.375c0,0,1.54-4.093,1.836-7.621
		c-1.861,1.462-10.602,8.045-17.178,8.045C34.293,58.362,32.431,57.499,31.137,55.867z"/>
	<path d="M30.047,35.065c-0.125,0-0.283-0.221-0.484-0.752c-0.872-2.305-0.005-31.063-1.176-31.063c-0.004,0-0.008,0-0.011,0.001
		c-0.115,0.018-0.278,0.026-0.48,0.026c-1.882,0-7.082-0.714-7.082-0.714c-1.604,15.312-10.729,14.771-7.979,26.104
		c2.75,11.333,1.083,30,1.083,30h1.833c0,0,1.583-15.5,2-19.75c0.332-3.383,0.769-6.278,3.077-6.278c0.591,0,1.306,0.19,2.173,0.611
		c4.25,2.062,7.812,20,7.812,20c0.069,0.186,0.153,0.343,0.23,0.515c1.161,2.607,3.2,3.597,5.607,3.597
		c6.965,0,16.913-8.112,16.913-8.112c0.102-0.301,0.17-0.592,0.222-0.878c0.588-3.211-1.887-5.413-5.847-5.872
		c-4.312-0.5-6.125-5.188-6-7.435c0.125-2.248-1.25-8.877-1.938-16.877s0.812-13.062-0.312-13.312
		c-1.026-0.228-1.74-0.508-3.471-0.508c-0.167,0-0.343,0.003-0.529,0.008c-0.075,0.002-0.148,0.003-0.222,0.003
		c-1.313,0-2.443-0.332-3.171-0.332c-0.392,0-0.668,0.096-0.794,0.391c-0.375,0.875,0,1.75-0.625,5.688s-0.25,18.688-0.312,20.812
		C30.514,32.575,30.466,35.065,30.047,35.065z"/>
</g>
</svg>
