<?xml version="1.0" encoding="iso-8859-1"?>
<!-- Generator: Adobe Illustrator 17.0.0, SVG Export Plug-In . SVG Version: 6.00 Build 0)  -->
<!DOCTYPE svg PUBLIC "-//W3C//DTD SVG 1.1//EN" "http://www.w3.org/Graphics/SVG/1.1/DTD/svg11.dtd">
<svg version="1.1" id="Capa_1" xmlns="http://www.w3.org/2000/svg" xmlns:xlink="http://www.w3.org/1999/xlink" x="0px" y="0px"
	 width="64px" height="64px" viewBox="0 0 64 64" style="enable-background:new 0 0 64 64;" xml:space="preserve">
<g>
	<path d="M17.684,35.004c-1.21-0.901-2.44-1.76-3.617-2.474c-0.689-0.417-1.414-0.82-2.181-1.246
		c-2.223-1.235-4.678-2.601-6.469-4.558c0.906,1.529,2.42,3.65,4.731,7.037c6.084,8.917,4.75,24.918,7.33,26.502
		s2.754-1.167,2.754-1.167C17.277,44.223,17.242,37.781,17.684,35.004z"/>
	<path d="M55.952,41.478c0.795,1.896,1.404,3.844,0.738,5.287c-0.627,1.361-6,3.349-6.61,3.572
		c-2.418,0.881-7.119,2.358-11.425,2.358c-3.537,0-6.031-1-7.411-2.972c-0.336-0.48-0.653-0.929-0.961-1.365
		c2.41,6.237,3.013,12.454,9.45,12.99c9.001,0.75,17.918-8.751,17.918-8.751c-0.333-1.5,1.333-6,2.75-9.417
		C61.33,40.938,58.211,41.101,55.952,41.478z"/>
	<path d="M27.478,23.99c1.463-0.209,2.938-0.446,4.375-0.776l0.09-0.021c1.377-0.316,3.386-0.788,4.762-1.677
		C33.532,21.614,30.443,22.63,27.478,23.99z"/>
	<path d="M45.627,38.374c0.242-0.544,0.098-0.733,0.051-0.795l-0.2-0.264c-0.034,0.024-0.07,0.032-0.102,0.061
		c-1.456,1.325-2.491,2.932-3.3,4.672C43.741,40.775,45.155,39.437,45.627,38.374z"/>
	<path d="M28.389,35.599c0.01,0.725-0.024,1.372-0.072,1.967c3.453,2.593,6.826,5.176,10.882,6.477
		c0.722-0.456,1.461-0.956,2.178-1.476c-4.836-0.993-8.662-4.058-12.587-7.048C28.657,35.546,28.523,35.572,28.389,35.599z"/>
	<path d="M29.67,27.293c-0.1,0.046-0.2,0.092-0.299,0.139c1.334-0.195,2.674-0.417,3.982-0.717l0.094-0.021
		c1.35-0.31,3.471-0.807,4.87-1.76c-0.162,0.003-0.323-0.001-0.485,0.008c-1.256,0.649-2.652,1.115-3.958,1.476
		C32.487,26.801,31.077,27.069,29.67,27.293z"/>
	<path d="M13.17,5.945c4.917-1.21,9.905-2.029,14.96-2.276c1.048-0.518,2.093-1.131,3.112-1.869c0.05-0.058,0.123-0.132,0.209-0.21
		c-7.205-0.021-14.299,1.165-21.237,3.055c0.22,0.27,0.434,0.564,0.621,0.918C11.417,5.685,12.214,5.828,13.17,5.945z"/>
	<path d="M7.171,3.918C7.182,3.943,7.206,4.02,7.214,4.19l0.124-0.346L7.171,3.918z"/>
	<path d="M38.655,51.894c7.178,0,16.789-4.337,17.309-5.465c0.553-1.198-0.054-3.017-0.815-4.805
		c-0.245-0.575-0.505-1.147-0.748-1.695c-1-2.25,0.417-2.5,0.417-2.5c-2.059-0.48-3.864-0.622-5.274-0.622
		c-2.015,0-3.226,0.288-3.226,0.288c0.019,0.025,0.029,0.054,0.046,0.08c1.088,1.682-2.597,4.854-6.136,7.162
		c-2.359,1.538-4.651,2.692-5.41,2.758c-0.019,0.002-0.038,0.002-0.058,0.002c-1.54,0-5.761-4.953-7.584-7.185
		c0.179-0.793,0.315-1.804,0.377-2.924c0.035-0.649,0.052-1.325,0.02-2.041c0.123-0.025,0.246-0.049,0.369-0.074
		c2.98-0.607,5.986-1.104,8.87-2.101c2.711-0.937,6.363-2.469,6.88-5.686c0.023-0.142,0.012-0.27-0.014-0.39
		c-0.108-0.499-0.584-0.793-1.045-0.793c-0.416,0-0.813,0.237-0.9,0.774c-0.04,0.247-0.117,0.477-0.211,0.699
		c-0.942,2.241-4.405,3.245-6.441,3.85c-2.532,0.752-5.119,1.208-7.699,1.734c-0.104-0.7-0.261-1.409-0.459-2.116
		c-0.024-0.085-0.041-0.17-0.066-0.255c0.244-0.033,0.489-0.065,0.733-0.097c2.544-0.336,5.09-0.66,7.572-1.347
		c1.603-0.444,3.53-1.07,5.01-2.135c0.635-0.457,1.185-0.996,1.593-1.636c0.281-0.441,0.498-0.927,0.621-1.472
		c0.031-0.139,0.028-0.266,0.011-0.386c-0.078-0.531-0.578-0.864-1.06-0.864c-0.391,0-0.766,0.217-0.879,0.718
		c-0.04,0.178-0.097,0.347-0.165,0.509c-0.172,0.41-0.432,0.769-0.749,1.091c-1.475,1.497-4.26,2.121-6.01,2.523
		c-2.137,0.491-4.3,0.776-6.466,1.067c-0.307,0.041-0.613,0.082-0.92,0.124c-0.221-0.487-0.476-0.963-0.76-1.429
		c-0.032-0.052-0.059-0.106-0.091-0.157c0.172-0.023,0.343-0.046,0.515-0.068c2.637-0.35,5.278-0.672,7.851-1.384
		c1.566-0.434,3.445-1.04,4.911-2.061c0.695-0.484,1.291-1.065,1.722-1.762c0.265-0.428,0.472-0.897,0.591-1.421
		c0.018-0.077,0.003-0.143,0.005-0.214c0.185-0.417,0.13-0.93-0.385-1.218c-1.409-0.79-2.952-1.121-4.559-1.121
		c-4.848,0-10.287,3.003-14.446,5.433c-0.523-0.338-1.074-0.658-1.685-0.938c-4.292-1.964-6.551-3.896-7.736-5.824
		c0.973,0.431,2.138,0.62,3.422,0.62c8.088,0,20.922-7.463,20.668-8.629c-0.313-1.438-0.375-3.438-1.813-5.563
		C33.851,2.2,33.388,1.923,32.995,1.86c-0.059-0.009-0.121-0.028-0.176-0.028c-0.626,0-1.024,0.554-1.024,0.554
		C31.187,2.83,30.571,3.233,29.949,3.6c-4.511,2.664-9.288,3.372-13.085,3.372c-2.382,0-4.366-0.277-5.669-0.524
		c-0.353-0.067-0.666-0.132-0.911-0.188C10.027,5.681,9.7,5.234,9.361,4.878c-0.898-0.945-1.88-1.201-1.88-1.201
		s1.046,0.495-2.833,11.334c-1.329,3.713-1.238,6.467-0.324,8.616c1.754,4.125,6.542,6.027,10.158,8.218
		c1.102,0.668,2.249,1.461,3.382,2.295c2.453,1.806,4.827,3.815,6.488,5.284c0.143,0.127,0.263,0.234,0.395,0.352
		c0.162,0.145,0.34,0.302,0.484,0.432c0,0,0.088,0.105,0.259,0.318c0.135,0.168,0.323,0.406,0.57,0.724
		c0.509,0.655,1.26,1.643,2.281,3.035c0.949,1.294,2.127,2.933,3.558,4.977C33.243,51.184,35.75,51.894,38.655,51.894z
		 M25.177,25.115c-0.422,0.057-0.843,0.113-1.265,0.173c-0.222-0.241-0.464-0.472-0.711-0.7c3.724-2.187,8.508-4.758,12.61-4.758
		c1.047,0,2.049,0.168,2.978,0.552c-0.182,0.432-0.458,0.812-0.8,1.147c-1.488,1.458-4.231,2.068-5.958,2.465
		C29.767,24.514,27.473,24.805,25.177,25.115z"/>
</g>
</svg>
