<?xml version="1.0" encoding="iso-8859-1"?>
<!-- Generator: Adobe Illustrator 17.0.0, SVG Export Plug-In . SVG Version: 6.00 Build 0)  -->
<!DOCTYPE svg PUBLIC "-//W3C//DTD SVG 1.1//EN" "http://www.w3.org/Graphics/SVG/1.1/DTD/svg11.dtd">
<svg version="1.1" id="Capa_1" xmlns="http://www.w3.org/2000/svg" xmlns:xlink="http://www.w3.org/1999/xlink" x="0px" y="0px"
	 width="64px" height="64px" viewBox="0 0 64 64" style="enable-background:new 0 0 64 64;" xml:space="preserve">
<g>
	<path d="M16.57,31.377l-9.636-5.748c3.645,6.017,7.847,15.865,7.847,21.101c0,5.823,0,14.974,0,14.974h2.496
		C16.419,44.23,16.44,35.46,16.57,31.377z"/>
	<path d="M56.707,45.562c-1.012,0-1.995,0.18-1.995,0.18c0.078-1.95-0.624-5.381-0.624-5.381s-0.624-0.546-5.147-1.638
		s-9.203-15.52-11.309-19.81c-2.106-4.289-3.588-10.919-3.588-10.919c-0.988-0.479-1.741-0.688-2.305-0.688
		c-1.984,0-1.611,2.595-0.754,5.167c-0.181-0.039-0.368-0.077-0.561-0.112c-0.184-0.034-0.373-0.066-0.567-0.096
		c-3.681-0.571-8.97-0.524-12.119-0.427c-0.179,0.006-0.35,0.011-0.514,0.017c-0.185,0.006-0.358,0.013-0.523,0.019
		c0.523-2.299,1.043-3.881,1.043-3.881c1.072,0.858,2.525,1.18,4.101,1.18c4.727,0,10.562-2.895,10.562-2.895
		c0.546-1.482-0.558-1.482-0.558-1.482c-1.193,0.167-2.165,0.239-3.048,0.239c-2.012,0-3.565-0.375-6.22-0.863
		c-2.859-0.525-6.416-2.665-8.092-2.665c-0.564,0-0.916,0.243-0.955,0.871C13.377,4.876,8.542,13.221,6.28,17.666
		s-0.546,6.083-0.546,6.083l10.88,6.49l2.3,1.372c15.52,12.931,7.955,28.014,15.442,29.73c1.131,0.259,2.417,0.372,3.788,0.372
		c7.712,0,18.096-3.583,18.361-4.974c0.312-1.638,1.794-7.799,2.34-9.827C59.141,45.814,57.904,45.562,56.707,45.562z
		 M16.057,15.234c0.159-0.019,0.332-0.035,0.521-0.048c0.159-0.011,0.327-0.019,0.504-0.026c3.541-0.129,10.629,0.551,14.25,0.933
		c0.208,0.022,0.405,0.043,0.588,0.063c0.212,0.023,0.411,0.044,0.587,0.064c0.367,0.784,0.631,1.29,0.631,1.29
		c0.766,2.106,0.548,3.969-0.213,5.587c-0.139-0.078-0.286-0.16-0.436-0.244c-0.142-0.079-0.288-0.16-0.439-0.243
		c-3.845-2.126-10.576-5.611-15.088-6.648c-0.164-0.038-0.328-0.075-0.486-0.106c-0.171-0.034-0.335-0.061-0.498-0.086
		C16.003,15.589,16.029,15.411,16.057,15.234z M16.497,25.465c-0.651-1.586-0.875-3.533-0.854-5.544l0.117,0.031
		c0,0,0.142,0.038,0.388,0.106c0.134,0.037,0.296,0.082,0.491,0.137c2.517,0.708,9.818,2.861,13.552,5.006
		c0.151,0.086,0.296,0.173,0.434,0.259c0.151,0.094,0.294,0.188,0.429,0.282c-3.172,3.307-8.162,5.025-8.162,5.025L16.497,25.465z
		 M39.894,37.164c-0.624,0.936-7.435,6.239-7.894,6.031c-0.458-0.208-2.245-3.172-2.245-3.172
		C38.126,35.5,40.517,36.228,39.894,37.164z"/>
</g>
</svg>
