<?xml version="1.0" encoding="iso-8859-1"?>
<!-- Generator: Adobe Illustrator 17.0.0, SVG Export Plug-In . SVG Version: 6.00 Build 0)  -->
<!DOCTYPE svg PUBLIC "-//W3C//DTD SVG 1.1//EN" "http://www.w3.org/Graphics/SVG/1.1/DTD/svg11.dtd">
<svg version="1.1" id="Capa_1" xmlns="http://www.w3.org/2000/svg" xmlns:xlink="http://www.w3.org/1999/xlink" x="0px" y="0px"
	 width="64px" height="64px" viewBox="0 0 64 64" style="enable-background:new 0 0 64 64;" xml:space="preserve">
<g>
	<path d="M54.809,58.477c-0.818,0-1.738,0.015-2.769,0.045c-0.09,0.003-0.169,0.006-0.258,0.009
		c0.313-0.775,1.793-4.813-0.866-6.022c-0.871-0.396-1.283-1.001-1.647-1.534c-0.32-0.469-0.656-0.942-1.241-0.977
		c-2.741-3.356-4.467-7.358-5.663-11.6l0.164-0.378c1.226-2.818-0.009-4.474-0.062-4.542l-0.097-0.126l-0.151-0.047
		c-0.374-0.116-0.749-0.219-1.124-0.326c-0.721-3.69-1.229-7.413-1.827-10.924l0.484,0.013L40.34,3.238l-0.368-0.11
		c-4.477-1.347-8.678-2.029-12.486-2.029c-7.423,0-10.819,2.563-10.96,2.673l-0.203,0.157l0.009,0.256
		c0.008,0.233,0.006,0.441,0.012,0.668l0.503-0.066l0.497-0.065l3.374-0.441c0.353-0.046,0.7,0.048,0.981,0.264
		s0.461,0.529,0.507,0.881l0.33,2.522l0.051-0.007c0.27-0.038,0.524,0.157,0.561,0.432c0.036,0.273-0.157,0.524-0.431,0.561
		l-0.052,0.007l0.33,2.522c0.095,0.725-0.418,1.393-1.144,1.488l-4.988,0.652l-0.501,0.066L16.111,13.7
		c-0.059,0.008-0.117,0.011-0.175,0.011c-0.026,0-0.051-0.011-0.077-0.013c-0.949,5.807-3.02,8.23-4.547,10.004
		c-0.469,0.544-0.874,1.015-1.186,1.514c-0.609,0.975-3.582,6.017-2.272,9.561c0.03,0.082,0.082,0.148,0.116,0.227
		c-0.035,0.887,0.175,2.312,0.634,4.277c1.062,4.54,2.889,19.152,2.625,22.052l-0.011,0.123l0.048,0.114
		c0.072,0.173,0.414,0.739,1.775,0.739c0.333,0,0.71-0.034,1.122-0.102l0.427-0.069l-0.007-0.432
		c-0.009-0.589-0.228-14.472-0.506-17.979c-0.089-1.122,0.065-1.908,0.46-2.335c0.788-0.852,2.819-0.463,5.907,1.111
		c2.007,1.569,5.778,5.043,8.616,10.795c3.679,7.458,5.453,9.202,14.44,9.202c0,0,0,0,0.001,0c1.095,0,2.299-0.023,3.633-0.062
		c0.136-0.004,13.56-0.526,13.528-2.741C60.653,59.054,60.198,58.477,54.809,58.477z M17.993,27.166
		c-0.761-3.384,0.018-5.134,0.332-5.665l19.124,0.505c0.591,3.387,1.099,6.941,1.768,10.477c-3.74-0.907-7.532-1.372-11.314-1.372
		c-4.016,0-7.109,0.515-8.933,0.923C18.656,30.28,18.308,28.567,17.993,27.166z M46.327,50.919
		c-1.833,1.741-3.365,6.161-3.966,8.074c-0.771,0.036-1.458,0.058-2.079,0.058c-3.879,0-4.937-0.775-7.071-5.183
		c-2.97-6.132-6.232-11.924-13.372-15.413c-0.033-0.477-0.084-0.994-0.143-1.527c2.011-0.827,4.494-1.252,7.417-1.252
		c5.302,0,10.723,1.387,13.278,2.141c1.233,4.726,3.029,9.226,6.019,13.027C46.382,50.872,46.357,50.89,46.327,50.919z"/>
	<path d="M18.897,8.423l2.649-0.346l-0.33-2.523c-0.012-0.087-0.056-0.163-0.125-0.217c-0.069-0.053-0.154-0.074-0.242-0.064
		l-3.491,0.457l-0.49,0.064l-0.506,0.066l-1.256,0.164c-0.179,0.023-0.305,0.188-0.282,0.367l-0.496,0.064v0l0.789,6.036
		l0.496-0.064c0.012,0.087,0.056,0.163,0.125,0.217c0.07,0.053,0.155,0.078,0.242,0.064l0.025-0.003l0.507-0.066l0.504-0.066
		l4.706-0.615c0.179-0.023,0.305-0.188,0.282-0.367l-0.33-2.521l-2.649,0.346c-0.022,0.003-0.044,0.004-0.065,0.004
		c-0.248,0-0.462-0.184-0.495-0.436C18.43,8.71,18.624,8.459,18.897,8.423z"/>
</g>
</svg>
