<?xml version="1.0" encoding="UTF-8" standalone="yes"?>
<svg xmlns="http://www.w3.org/2000/svg" viewBox="0 0 419.039 419.039">
  <path d="M339.034 0H80.004c-8.27 0-15 6.73-15 15v389.04c0 8.27 6.73 15 15 15h259.03c8.27 0 15-6.73 15-15V15c0-8.27-6.73-15-15-15zM108.49 60.738c0-5.5 4.5-10 10-10h182.06c5.5 0 10 4.5 10 10V166.52c0 5.5-4.5 10-10 10H118.49c-5.5 0-10-4.5-10-10V60.738zm0 163.657a4.89 4.89 0 0 1 4.875-4.875h192.31a4.89 4.89 0 0 1 4.875 4.875v20.142a4.89 4.89 0 0 1-4.875 4.875h-192.31a4.89 4.89 0 0 1-4.875-4.875v-20.142zm73.765 116.263h-15.88v15.88c0 9.197-7.482 16.68-16.68 16.68s-16.678-7.482-16.678-16.68v-15.88h-15.88c-9.197 0-16.68-7.482-16.68-16.68s7.483-16.678 16.68-16.678h15.88v-15.88c0-9.196 7.482-16.68 16.68-16.68s16.678 7.483 16.678 16.68v15.88h15.88c9.197 0 16.68 7.483 16.68 16.68s-7.483 16.678-16.68 16.678zm101.232 18.415c-19.35 0-35.094-15.743-35.094-35.094s15.743-35.095 35.094-35.095c19.35 0 35.094 15.743 35.094 35.094s-15.742 35.093-35.093 35.093z"/>
</svg>