<?xml version="1.0" encoding="UTF-8" standalone="yes"?>
<svg xmlns="http://www.w3.org/2000/svg" viewBox="0 0 48 48">
  <path d="M40.52 10.93H7.082c-3.036 0-5.487 2.47-5.487 5.505v17.567c0 3.036 2.45 5.504 5.487 5.504H40.52c3.035 0 5.48-2.468 5.48-5.504V16.435c0-3.037-2.446-5.504-5.48-5.504zm-9.763 13.08c.134-.304 1.73.094 3.07.62a14.12 14.12 0 0 1-.166-.275c-1.067-1.804-2.138-4.425-1.698-4.686.377-.224 1.738 1.354 2.792 2.945.04-2.526.532-5.677 1.133-5.677s1.093 3.15 1.133 5.677c1.054-1.59 2.416-3.17 2.792-2.946.44.26-.63 2.88-1.7 4.685-.056.096-.112.188-.166.275 1.34-.525 2.938-.924 3.072-.62.15.344-1.606 1.446-3.014 2.063-.13.057-.254.108-.37.154.726.257 1.433.61 1.385.78-.06.208-1.258.055-2.116-.187a3.376 3.376 0 0 1-.643-.233v1.406a.39.39 0 0 1-.39.382.39.39 0 0 1-.39-.382v-1.406a3.18 3.18 0 0 1-.626.233c-.858.242-2.046.395-2.105.186-.048-.17.662-.522 1.387-.78a10.05 10.05 0 0 1-.37-.153c-1.405-.616-3.16-1.72-3.01-2.062zM19.69 19.636c0-.84.694-1.516 1.534-1.516h5.153c.84 0 1.527.676 1.527 1.515v.03c0 .84-.688 1.534-1.527 1.534h-5.153c-.84 0-1.535-.694-1.535-1.534v-.03zm0 5.634c0-.84.694-1.52 1.534-1.52h5.153c.84 0 1.527.68 1.527 1.52v.03c0 .84-.688 1.53-1.527 1.53h-5.153a1.54 1.54 0 0 1-1.535-1.53v-.03zm-7.803-8.41a3.66 3.66 0 1 1 0 7.32 3.66 3.66 0 0 1 0-7.32zm5.5 14.673c0 1.128-.908 2.06-2.037 2.06H8.423a2.06 2.06 0 0 1-2.047-2.06v-2.82A3.412 3.412 0 0 1 9.8 25.308h4.174a3.404 3.404 0 0 1 3.414 3.407v2.82zm23.83-.6c0 .84-.668 1.527-1.508 1.527H21.223c-.84 0-1.535-.686-1.535-1.526v-.03c0-.84.694-1.525 1.534-1.525H39.71c.84 0 1.508.683 1.508 1.523v.03z"/>
</svg>