<?xml version="1.0" encoding="UTF-8" standalone="yes"?>
<svg xmlns="http://www.w3.org/2000/svg" viewBox="0 0 64 64">
  <path d="M58.095 7.843a.285.285 0 0 0 .29-.28l.067-3.02a.285.285 0 0 0-.57-.013l-.064 3.02a.28.28 0 0 0 .074.2.28.28 0 0 0 .203.093zm-.78.703l.065-3.023a.285.285 0 1 0-.57-.012l-.064 3.023a.278.278 0 0 0 .074.2.286.286 0 0 0 .495-.186zm-1.073.982l.065-3.022a.285.285 0 0 0-.57-.014l-.064 3.022a.282.282 0 0 0 .278.29.283.283 0 0 0 .293-.276zm-1.072.982l.066-3.023a.284.284 0 0 0-.57-.012l-.064 3.022a.283.283 0 0 0 .28.29.286.286 0 0 0 .29-.278zm-1.07.98l.064-3.02a.284.284 0 1 0-.568-.013l-.065 3.02c0 .078.028.147.076.2a.28.28 0 0 0 .204.092.286.286 0 0 0 .29-.28zm-1.074.982l.066-3.022a.285.285 0 0 0-.57-.012l-.064 3.02a.274.274 0 0 0 .074.2.284.284 0 0 0 .494-.186zm-1.07.982l.064-3.022a.285.285 0 0 0-.57-.013l-.065 3.02a.274.274 0 0 0 .074.2c.05.054.12.09.2.09.16.005.29-.12.294-.277zM19.612 55.228l-.065 3.022a.284.284 0 0 0 .28.292.285.285 0 0 0 .29-.278l.065-3.022a.285.285 0 1 0-.57-.014zm1.07-.98l-.064 3.02a.28.28 0 0 0 .073.198.286.286 0 0 0 .495-.185l.065-3.02a.285.285 0 0 0-.57-.014zm1.58 2.052l.063-3.022a.285.285 0 1 0-.57-.013l-.064 3.023c0 .075.027.146.075.197a.285.285 0 0 0 .495-.185zm1.07-.982l.064-3.02a.285.285 0 0 0-.278-.292.283.283 0 0 0-.29.278l-.068 3.022c0 .076.028.146.076.197a.284.284 0 0 0 .494-.185zm1.072-.98l.065-3.023a.285.285 0 1 0-.57-.013l-.066 3.023a.29.29 0 0 0 .28.29.286.286 0 0 0 .29-.278zm1.072-.983l.066-3.022a.286.286 0 0 0-.57-.012l-.065 3.023a.28.28 0 0 0 .277.292c.158.004.29-.12.292-.28zm1.07-.98l.067-3.023a.286.286 0 0 0-.57-.012l-.066 3.02a.28.28 0 0 0 .075.2.285.285 0 0 0 .495-.186zm24.337-37.94l.064-3.022a.286.286 0 1 0-.57-.012l-.064 3.023a.284.284 0 0 0 .57.012zm-1.074.982l.066-3.02a.283.283 0 0 0-.28-.292.284.284 0 0 0-.29.278l-.064 3.02a.29.29 0 0 0 .074.2.286.286 0 0 0 .495-.186zm-1.07.983l.063-3.023a.283.283 0 0 0-.278-.29.282.282 0 0 0-.29.277l-.067 3.022a.283.283 0 0 0 .28.29.284.284 0 0 0 .29-.277zm-1.073.98l.065-3.022a.285.285 0 0 0-.57-.014l-.065 3.023a.285.285 0 0 0 .57.013zm-1.07.982l.064-3.022a.285.285 0 0 0-.57-.012l-.063 3.022a.283.283 0 0 0 .28.29.285.285 0 0 0 .29-.278zm-1.074.98l.066-3.02a.286.286 0 0 0-.573-.01l-.065 3.02a.285.285 0 1 0 .57.012zm-1.073.983l.067-3.023a.286.286 0 0 0-.57-.01l-.066 3.02a.287.287 0 0 0 .28.29.285.285 0 0 0 .29-.277zm-1.07.982l.065-3.022a.284.284 0 0 0-.278-.29.286.286 0 0 0-.292.278l-.065 3.022a.285.285 0 0 0 .57.012zm-1.072.98l.065-3.02a.285.285 0 0 0-.57-.013l-.066 3.022a.283.283 0 0 0 .28.29.286.286 0 0 0 .29-.278zm-1.073.983l.065-3.02a.285.285 0 0 0-.57-.015l-.066 3.022c0 .076.027.147.075.2a.28.28 0 0 0 .202.09.28.28 0 0 0 .292-.277zm-1.07.982l.065-3.023a.286.286 0 0 0-.57-.014l-.066 3.02a.285.285 0 0 0 .28.292.283.283 0 0 0 .29-.278zm-1.073.98l.065-3.022a.286.286 0 0 0-.57-.012l-.065 3.022a.282.282 0 0 0 .278.29.285.285 0 0 0 .292-.277zm-1.072.983l.065-3.022a.286.286 0 0 0-.57-.012l-.065 3.023a.28.28 0 0 0 .074.2.287.287 0 0 0 .496-.187zm-1.072.98l.065-3.02a.285.285 0 0 0-.57-.013l-.064 3.02a.287.287 0 0 0 .28.292.285.285 0 0 0 .287-.278z"/>
  <path d="M35.056 23.61l-1.588 12.645c-.01.085.02.168.073.227a.28.28 0 0 0 .177.09c.156.02.3-.09.318-.247l1.575-12.542L57.5 3.736a.285.285 0 1 0-.385-.42l-21.97 20.118a.276.276 0 0 0-.09.175zM8.87 59.46l21.97-20.117a.85.85 0 0 0 .27-.524l1.588-12.648A.854.854 0 1 0 31 25.96l-1.547 12.334L7.716 58.2a.854.854 0 0 0 1.155 1.26zm43.55-24.424a.286.286 0 0 0-.296-.274l-12.736.47a.294.294 0 0 0-.182.075l-21.97 20.118a.285.285 0 1 0 .385.42l21.89-20.047 12.633-.466c.16-.007.28-.14.275-.296z"/>
  <path d="M59.47 8.112L36.767 28.904l-.993 6.51 22.704-20.79zm-19.74 29.12L28.374 47.636l-.15 5.74 11.356-10.4z"/>
</svg>