<?xml version="1.0" encoding="iso-8859-1"?>
<!-- Generator: Adobe Illustrator 17.0.2, SVG Export Plug-In . SVG Version: 6.00 Build 0)  -->
<!DOCTYPE svg PUBLIC "-//W3C//DTD SVG 1.1//EN" "http://www.w3.org/Graphics/SVG/1.1/DTD/svg11.dtd">
<svg version="1.1" id="Capa_1" xmlns="http://www.w3.org/2000/svg" xmlns:xlink="http://www.w3.org/1999/xlink" x="0px" y="0px"
	 width="64px" height="64px" viewBox="0 0 64 64" style="enable-background:new 0 0 64 64;" xml:space="preserve">
<g>
	<path d="M56.04,5.429L7.32,40.92c-0.167,0.121-0.241,0.332-0.189,0.531l2.442,9.324c0.058,0.22,0.256,0.373,0.484,0.373h30.606
		c0.276,0,0.5-0.224,0.5-0.5c0-0.276-0.224-0.5-0.5-0.5h-30.22l-2.257-8.621l48.443-35.29c0.223-0.163,0.272-0.476,0.11-0.699
		C56.575,5.315,56.262,5.267,56.04,5.429z"/>
	<path d="M49.693,14.059c-0.325-0.446-0.951-0.545-1.397-0.219L10.978,41.025c-0.327,0.238-0.478,0.649-0.383,1.042l1.558,6.462
		c0.108,0.449,0.51,0.766,0.972,0.766h25.756c0.552,0,1-0.448,1-1s-0.448-1-1-1H13.913l-1.217-5.047l36.778-26.793
		C49.92,15.13,50.019,14.505,49.693,14.059z"/>
	<path d="M7.557,55.022h10.049c0.359,0.672,1.059,1.134,1.874,1.134c0.815,0,1.515-0.462,1.874-1.134h13.918
		c0.359,0.672,1.059,1.134,1.874,1.134s1.515-0.462,1.874-1.134h3.472c0.552,0,1-0.448,1-1c0-0.552-0.448-1-1-1H39.02
		c-0.359-0.672-1.059-1.134-1.874-1.134s-1.515,0.462-1.874,1.134H21.354c-0.359-0.672-1.059-1.134-1.874-1.134
		c-0.815,0-1.515,0.462-1.874,1.134H8.292L4.368,40.479l2.641-1.942c0.193,0.057,0.394,0.098,0.606,0.098
		c1.171,0,2.119-0.943,2.131-2.111l6.031-4.435c0.163,0.04,0.33,0.066,0.504,0.066c1.131,0,2.048-0.883,2.12-1.996l3.024-2.224
		c0.445-0.327,0.541-0.953,0.213-1.398c-0.327-0.444-0.953-0.542-1.398-0.213l-2.699,1.984c-0.354-0.261-0.788-0.42-1.261-0.42
		c-1.179,0-2.134,0.955-2.134,2.134c0,0.244,0.049,0.474,0.125,0.691l-5.464,4.018c-0.341-0.23-0.752-0.364-1.193-0.364
		c-1.179,0-2.134,0.955-2.134,2.134c0,0.212,0.04,0.412,0.098,0.605L2.608,39.29c-0.344,0.253-0.49,0.697-0.362,1.104L6.602,54.32
		C6.733,54.738,7.119,55.022,7.557,55.022z"/>
	<path d="M31.232,30.943l-3.262,2.315c-0.451,0.319-0.557,0.944-0.237,1.394c0.195,0.275,0.503,0.421,0.816,0.421
		c0.2,0,0.402-0.06,0.578-0.185l3.262-2.315c0.451-0.319,0.557-0.944,0.237-1.394C32.307,30.729,31.682,30.623,31.232,30.943z"/>
	<path d="M24.708,35.573l-3.262,2.315c-0.451,0.319-0.557,0.944-0.237,1.394c0.195,0.275,0.503,0.421,0.816,0.421
		c0.2,0,0.402-0.06,0.578-0.185l3.262-2.315c0.451-0.319,0.557-0.944,0.237-1.394C25.782,35.36,25.158,35.253,24.708,35.573z"/>
	<path d="M18.184,40.203l-3.262,2.315c-0.451,0.319-0.557,0.944-0.237,1.394c0.195,0.275,0.503,0.421,0.816,0.421
		c0.2,0,0.402-0.06,0.578-0.185l3.262-2.315c0.451-0.319,0.557-0.944,0.237-1.394C19.259,39.989,18.633,39.883,18.184,40.203z"/>
	<path d="M37.755,26.315l-3.261,2.314c-0.451,0.319-0.557,0.944-0.237,1.394c0.195,0.275,0.503,0.421,0.816,0.421
		c0.2,0,0.402-0.06,0.578-0.185l3.261-2.314c0.451-0.319,0.557-0.944,0.237-1.394C38.831,26.101,38.207,25.995,37.755,26.315z"/>
	<path d="M54.807,54.522c0.276,0,0.5-0.224,0.5-0.5c0-0.276-0.224-0.5-0.5-0.5h-0.63c-0.276,0-0.5,0.224-0.5,0.5
		c0,0.276,0.224,0.5,0.5,0.5H54.807z"/>
	<path d="M50.176,53.522h-4c-0.276,0-0.5,0.224-0.5,0.5c0,0.276,0.224,0.5,0.5,0.5h4c0.276,0,0.5-0.224,0.5-0.5
		C50.676,53.746,50.453,53.522,50.176,53.522z"/>
</g>
</svg>
