<?xml version="1.0" encoding="iso-8859-1"?>
<!-- Generator: Adobe Illustrator 17.0.2, SVG Export Plug-In . SVG Version: 6.00 Build 0)  -->
<!DOCTYPE svg PUBLIC "-//W3C//DTD SVG 1.1//EN" "http://www.w3.org/Graphics/SVG/1.1/DTD/svg11.dtd">
<svg version="1.1" id="Capa_1" xmlns="http://www.w3.org/2000/svg" xmlns:xlink="http://www.w3.org/1999/xlink" x="0px" y="0px"
	 width="64px" height="64px" viewBox="0 0 64 64" style="enable-background:new 0 0 64 64;" xml:space="preserve">
<g>
	<polygon points="36.81,6.882 30.957,3.761 30.957,34.396 32.713,35.332 32.713,17.513 36.81,14.48 	"/>
	<polygon points="39.25,14.933 34.372,18.542 34.372,46.543 39.25,42.934 	"/>
	<path d="M32.416,60.41c0.276,0,0.5-0.224,0.5-0.5V38.675l-3.333-3.893V4.695l-3.489-3.297c-0.201-0.19-0.517-0.181-0.707,0.02
		c-0.189,0.201-0.181,0.517,0.02,0.706l3.177,3.002v30.026l3.333,3.893V59.91C31.916,60.186,32.14,60.41,32.416,60.41z"/>
	<path d="M24.18,55.441c-0.199-0.191-0.516-0.184-0.707,0.016c-0.19,0.199-0.184,0.516,0.016,0.707l3.832,3.666
		c0.097,0.093,0.222,0.139,0.346,0.139c0.132,0,0.263-0.052,0.361-0.154c0.19-0.199,0.184-0.516-0.016-0.707L24.18,55.441z"/>
	<path d="M28.012,56.557l-3.832-3.666c-0.199-0.191-0.516-0.183-0.707,0.016c-0.19,0.199-0.184,0.516,0.016,0.707l3.832,3.666
		c0.097,0.093,0.222,0.139,0.346,0.139c0.132,0,0.263-0.052,0.361-0.154C28.218,57.065,28.211,56.748,28.012,56.557z"/>
	<path d="M28.012,54.006L24.18,50.34c-0.199-0.19-0.516-0.183-0.707,0.016c-0.19,0.199-0.184,0.516,0.016,0.707l3.832,3.666
		c0.097,0.093,0.222,0.139,0.346,0.139c0.132,0,0.263-0.052,0.361-0.154C28.218,54.514,28.211,54.197,28.012,54.006z"/>
	<path d="M28.012,51.455l-3.832-3.666c-0.199-0.19-0.516-0.183-0.707,0.016c-0.19,0.199-0.184,0.516,0.016,0.707l3.832,3.666
		c0.097,0.093,0.222,0.139,0.346,0.139c0.132,0,0.263-0.052,0.361-0.154C28.218,51.963,28.211,51.646,28.012,51.455z"/>
	<path d="M28.012,48.904l-3.832-3.666c-0.199-0.191-0.516-0.183-0.707,0.016c-0.19,0.199-0.184,0.516,0.016,0.707l3.832,3.666
		c0.097,0.093,0.222,0.139,0.346,0.139c0.132,0,0.263-0.052,0.361-0.154C28.218,49.412,28.211,49.096,28.012,48.904z"/>
	<path d="M28.012,46.353l-3.832-3.666c-0.199-0.191-0.516-0.183-0.707,0.016c-0.19,0.199-0.184,0.516,0.016,0.707l3.832,3.666
		c0.097,0.093,0.222,0.139,0.346,0.139c0.132,0,0.263-0.052,0.361-0.154C28.218,46.861,28.211,46.545,28.012,46.353z"/>
	<path d="M28.012,43.803l-3.832-3.666c-0.199-0.19-0.516-0.183-0.707,0.016c-0.19,0.199-0.184,0.516,0.016,0.707l3.832,3.666
		c0.097,0.093,0.222,0.139,0.346,0.139c0.132,0,0.263-0.052,0.361-0.154C28.218,44.31,28.211,43.994,28.012,43.803z"/>
	<path d="M28.012,41.252l-3.832-3.666c-0.199-0.19-0.516-0.184-0.707,0.016c-0.19,0.199-0.184,0.516,0.016,0.707l3.832,3.666
		c0.097,0.093,0.222,0.139,0.346,0.139c0.132,0,0.263-0.052,0.361-0.154C28.218,41.76,28.211,41.443,28.012,41.252z"/>
	<path d="M28.012,38.701l-3.832-3.666c-0.199-0.191-0.516-0.184-0.707,0.016c-0.19,0.199-0.184,0.516,0.016,0.707l3.832,3.666
		c0.097,0.093,0.222,0.139,0.346,0.139c0.132,0,0.263-0.052,0.361-0.154C28.218,39.209,28.211,38.893,28.012,38.701z"/>
	<path d="M28.012,36.15l-3.832-3.666c-0.199-0.191-0.516-0.183-0.707,0.016c-0.19,0.2-0.184,0.516,0.016,0.707l3.832,3.666
		c0.097,0.093,0.222,0.139,0.346,0.139c0.132,0,0.263-0.052,0.361-0.154C28.218,36.658,28.211,36.342,28.012,36.15z"/>
	<path d="M28.012,33.6l-3.832-3.667c-0.199-0.191-0.516-0.184-0.707,0.016c-0.19,0.2-0.184,0.516,0.016,0.707l3.832,3.667
		c0.097,0.093,0.222,0.139,0.346,0.139c0.132,0,0.263-0.052,0.361-0.154C28.218,34.107,28.211,33.791,28.012,33.6z"/>
	<path d="M28.012,31.048l-3.832-3.666c-0.199-0.191-0.516-0.183-0.707,0.016c-0.19,0.2-0.184,0.516,0.016,0.707l3.832,3.666
		c0.097,0.093,0.222,0.139,0.346,0.139c0.132,0,0.263-0.052,0.361-0.154C28.218,31.556,28.211,31.239,28.012,31.048z"/>
	<path d="M28.012,28.498l-3.832-3.666c-0.199-0.191-0.516-0.183-0.707,0.016c-0.19,0.2-0.184,0.516,0.016,0.707l3.832,3.666
		c0.097,0.093,0.222,0.139,0.346,0.139c0.132,0,0.263-0.052,0.361-0.154C28.218,29.005,28.211,28.688,28.012,28.498z"/>
	<path d="M28.012,25.947l-3.832-3.666c-0.199-0.19-0.516-0.182-0.707,0.016c-0.19,0.2-0.184,0.516,0.016,0.707l3.832,3.666
		c0.097,0.093,0.222,0.139,0.346,0.139c0.132,0,0.263-0.052,0.361-0.154C28.218,26.454,28.211,26.138,28.012,25.947z"/>
	<path d="M28.012,23.396L24.18,19.73c-0.199-0.191-0.516-0.183-0.707,0.016c-0.19,0.2-0.184,0.516,0.016,0.707l3.832,3.666
		c0.097,0.093,0.222,0.139,0.346,0.139c0.132,0,0.263-0.052,0.361-0.154C28.218,23.903,28.211,23.587,28.012,23.396z"/>
	<path d="M28.012,20.845l-3.832-3.666c-0.199-0.191-0.516-0.183-0.707,0.016c-0.19,0.2-0.184,0.516,0.016,0.707l3.832,3.666
		c0.097,0.093,0.222,0.139,0.346,0.139c0.132,0,0.263-0.052,0.361-0.154C28.218,21.352,28.211,21.036,28.012,20.845z"/>
	<path d="M28.012,18.294l-3.832-3.666c-0.199-0.191-0.516-0.183-0.707,0.016c-0.19,0.2-0.184,0.516,0.016,0.707l3.832,3.666
		c0.097,0.093,0.222,0.139,0.346,0.139c0.132,0,0.263-0.052,0.361-0.154C28.218,18.802,28.211,18.485,28.012,18.294z"/>
	<path d="M28.012,15.744l-3.832-3.666c-0.199-0.19-0.516-0.183-0.707,0.016c-0.19,0.2-0.184,0.516,0.016,0.707l3.832,3.666
		c0.097,0.093,0.222,0.139,0.346,0.139c0.132,0,0.263-0.052,0.361-0.154C28.218,16.251,28.211,15.935,28.012,15.744z"/>
	<path d="M28.012,13.193L24.18,9.527c-0.199-0.191-0.516-0.184-0.707,0.016c-0.19,0.2-0.184,0.516,0.016,0.707l3.832,3.666
		c0.097,0.093,0.222,0.139,0.346,0.139c0.132,0,0.263-0.052,0.361-0.154C28.218,13.7,28.211,13.384,28.012,13.193z"/>
	<path d="M28.012,10.642L24.18,6.976c-0.199-0.191-0.516-0.183-0.707,0.016c-0.19,0.2-0.184,0.516,0.016,0.707l3.832,3.666
		c0.097,0.093,0.222,0.139,0.346,0.139c0.132,0,0.263-0.052,0.361-0.154C28.218,11.149,28.211,10.833,28.012,10.642z"/>
	<path d="M28.012,8.091L24.18,4.425c-0.199-0.191-0.516-0.183-0.707,0.016c-0.19,0.2-0.184,0.516,0.016,0.707l3.832,3.666
		c0.097,0.093,0.222,0.139,0.346,0.139c0.132,0,0.263-0.052,0.361-0.154C28.218,8.599,28.211,8.282,28.012,8.091z"/>
</g>
</svg>
