<svg xmlns="http://www.w3.org/2000/svg" width="64" height="64" viewBox="0 0 64 64"><path d="M43.947 27.938l6.096.003 4.12-4.12c.437.21.905.33 1.378.33a3.172 3.172 0 0 0 0-6.342 3.17 3.17 0 0 0-3.167 3.172 3.11 3.11 0 0 0 .383 1.48l-3.66 3.66H36.404l-2.485 2.488.456-1.71 4.71-2.72 4.357-2.515 1.244-4.644a2.62 2.62 0 0 0 1.12-.333 2.61 2.61 0 0 0 .958-3.573 2.615 2.615 0 1 0-4.53 2.615c.21.365.52.67.886.898l-1.104 4.125-4.154 2.398-4.914 2.84-.566 2.118-.803-2.993 3.437-5.956L38.2 13.65 36.624 7.78c.418-.284.77-.644 1.018-1.072.422-.73.566-1.63.328-2.51a3.292 3.292 0 0 0-1.54-2.008 3.3 3.3 0 0 0-4.516 1.21 3.316 3.316 0 0 0-.332 2.51 3.263 3.263 0 0 0 3.08 2.434l1.398 5.215-3.033 5.25-3.586 6.214.97 3.616-1.193-1.193V16.98l-3.4-3.4c.174-.36.273-.747.273-1.138 0-.668-.256-1.34-.768-1.85a2.62 2.62 0 0 0-3.7 0 2.62 2.62 0 0 0 0 3.7c.512.51 1.184.768 1.852.766.422.002.838-.113 1.22-.316l3.02 3.02v10.47l1.594 1.594-2.86-.766-3.337-5.782-3.085-5.346-5.7-1.528a3.2 3.2 0 0 0-.41-1.375 3.195 3.195 0 0 0-1.948-1.496 3.21 3.21 0 0 0-3.932 2.27 3.206 3.206 0 0 0 .322 2.435 3.204 3.204 0 0 0 4.385 1.175c.45-.258.822-.636 1.104-1.087l5.062 1.357 2.945 5.1 3.48 6.03 3.463.927-1.688.452-4.71-2.72-4.354-2.515-4.647 1.243a2.597 2.597 0 0 0-.848-.805 2.618 2.618 0 0 0-3.834 2.943 2.618 2.618 0 0 0 4.793.63c.21-.365.32-.784.333-1.216l4.127-1.105 4.153 2.398 4.914 2.836 2.2-.59-2.054 2.055-6.592-.004-6.093.003-4.123 4.118a3.162 3.162 0 0 0-1.377-.33 3.17 3.17 0 0 0-3.17 3.17 3.17 3.17 0 0 0 6.34 0 3.11 3.11 0 0 0-.385-1.48l3.662-3.66h12.689l2.488-2.49-.458 1.712-4.71 2.717-4.356 2.516-1.244 4.646a2.604 2.604 0 0 0-1.12.33 2.61 2.61 0 0 0-.958 3.572 2.614 2.614 0 0 0 3.572.958 2.61 2.61 0 0 0 .957-3.573 2.567 2.567 0 0 0-.885-.897l1.105-4.128 4.154-2.398 4.914-2.836.57-2.12.8 2.995-3.44 5.953-3.177 5.508 1.572 5.874c-.416.282-.77.643-1.018 1.07a3.293 3.293 0 0 0-.33 2.51 3.307 3.307 0 1 0 4.848-3.72 3.254 3.254 0 0 0-1.537-.424l-1.398-5.218 3.033-5.252 3.586-6.212-.968-3.61 1.19 1.19v10.47l3.4 3.4a2.61 2.61 0 0 0-.272 1.136 2.613 2.613 0 0 0 2.616 2.616 2.616 2.616 0 0 0 0-5.232 2.57 2.57 0 0 0-1.22.317l-3.023-3.02V35.057l-1.594-1.595 2.858.767 3.34 5.782 3.086 5.346 5.7 1.527c.036.488.167.96.407 1.376a3.208 3.208 0 0 0 4.386 1.175 3.21 3.21 0 0 0 1.498-1.948 3.212 3.212 0 0 0-4.707-3.61c-.45.257-.822.635-1.103 1.086l-5.062-1.356-2.945-5.1-3.48-6.03-3.464-.927 1.686-.452 4.712 2.72 4.354 2.515 4.644-1.244c.225.33.51.608.848.804a2.617 2.617 0 0 0 2.617-4.53 2.618 2.618 0 0 0-1.984-.263c-.698.19-1.257.642-1.587 1.22a2.588 2.588 0 0 0-.338 1.217L46.57 34.64l-4.154-2.398-4.914-2.838-2.2.59 2.054-2.052 6.59-.004zm-30.382-10.65a2.507 2.507 0 0 1-1.172 1.527 2.51 2.51 0 0 1-1.91.25 2.503 2.503 0 0 1-1.53-1.173 2.512 2.512 0 0 1 .922-3.44 2.496 2.496 0 0 1 1.91-.25 2.52 2.52 0 0 1 1.53 1.172c.32.56.43 1.238.25 1.913zm-.547 13.4c-.262.455-.697.81-1.246.955-.55.148-1.103.06-1.557-.205a2.046 2.046 0 0 1-.75-2.802 2.054 2.054 0 0 1 2.8-.75c.456.264.81.697.956 1.247.147.548.06 1.1-.202 1.556zm37.955 15.314a2.512 2.512 0 0 1 3.082-1.778c.674.18 1.207.613 1.53 1.172a2.518 2.518 0 1 1-4.613.606zM51.52 32.6a2.05 2.05 0 0 1 1.245-.954 2.05 2.05 0 0 1 2.307 3.006A2.054 2.054 0 0 1 51.52 32.6zm2.263-13.377a2.476 2.476 0 0 1 1.758-.73 2.485 2.485 0 0 1 0 4.97c-.636.002-1.27-.238-1.757-.725a2.482 2.482 0 0 1 0-3.515zM42.72 15.448a2.044 2.044 0 0 1-.202-1.557c.146-.548.5-.98.955-1.244a2.045 2.045 0 0 1 2.803.752 2.048 2.048 0 0 1-.752 2.8 2.035 2.035 0 0 1-1.556.205 2.036 2.036 0 0 1-1.246-.955zm-9.29 10.917l4.713-2.722 4.355-2.516 1.14-4.25c.06.023.12.054.185.072.096.022.19.03.285.044l-1.152 4.3-4.15 2.396-4.916 2.836-.77 2.882-.31.31-.14-.518.76-2.835zm.045-19.062a2.597 2.597 0 0 1 .63-4.753 2.574 2.574 0 0 1 1.966.262c.577.33 1.024.88 1.208 1.57a2.594 2.594 0 0 1-3.803 2.92zM30.203 25.13l3.44-5.96 3.18-5.507-1.44-5.375c.083-.012.167-.018.25-.037.118-.033.226-.085.34-.13l1.456 5.436-3.032 5.247-3.588 6.213 1.2 4.475-.16.596-.435-.436-1.212-4.52zM23.47 14.495c-.524 0-1.048-.2-1.45-.602-.402-.402-.6-.926-.6-1.45s.198-1.05.6-1.452a2.05 2.05 0 0 1 2.9 0 2.048 2.048 0 0 1 0 2.902c-.4.402-.924.603-1.45.603zM28.278 28V17.527l-3.11-3.11c.05-.043.104-.078.153-.125.068-.07.12-.148.182-.225l3.146 3.146v10.468l2.05 2.048.134.505-.438-.117-2.117-2.12zm-2.488 2.22l-3.34-5.784-3.087-5.346-5.215-1.397c.025-.077.065-.15.086-.23.03-.116.04-.23.057-.35l5.276 1.413 2.94 5.1 3.483 6.03 4.292 1.147.424.424-.578.154-4.34-1.16zm1.325 3.058l-4.713-2.72-4.354-2.517-4.25 1.14c-.014-.064-.016-.13-.033-.195-.025-.096-.066-.18-.102-.27l4.297-1.153 4.152 2.4 4.914 2.835 2.854-.766.486.13-.334.336-2.917.782zm-16.36 10.787a2.467 2.467 0 0 1-1.76.727c-.636 0-1.27-.24-1.757-.727a2.475 2.475 0 0 1-.73-1.758c0-.638.243-1.27.73-1.756a2.488 2.488 0 0 1 1.758-.73 2.49 2.49 0 0 1 1.76.73 2.48 2.48 0 0 1 0 3.515zm17.097-7.583h-6.596l-6.096-.003-3.77 3.77c-.052-.06-.095-.128-.153-.186-.084-.085-.178-.148-.27-.222l3.81-3.814 5.813.002 6.877-.002 3.088-3.09.572-.153-.152.57-3.123 3.127zm-6.036 11.355c.262.455.35 1.01.203 1.557-.147.55-.503.985-.958 1.246a2.03 2.03 0 0 1-1.557.205c-.547-.146-.98-.5-1.244-.956a2.056 2.056 0 0 1 .75-2.802 2.04 2.04 0 0 1 1.56-.204 2.04 2.04 0 0 1 1.246.953zm9.29-10.914l-4.712 2.72-4.355 2.515-1.14 4.25c-.062-.02-.12-.053-.186-.07-.096-.025-.19-.03-.285-.047l1.15-4.296 4.153-2.396 4.912-2.838.772-2.877.31-.31.14.516-.76 2.833zm1.363-5.08l-.165.044h.002l-.11.03-.12-.12v.002l-.08-.08.045-.166h-.002l.03-.108.163-.044h-.003l.11-.03.118.12h.002l.078.078-.043.162.002.002-.028.11zm-1.41 24.14a2.592 2.592 0 0 1 .947 3.544 2.573 2.573 0 0 1-1.574 1.208 2.584 2.584 0 0 1-1.967-.26 2.57 2.57 0 0 1-1.207-1.572 2.588 2.588 0 0 1 1.833-3.178 2.584 2.584 0 0 1 1.967.257zm3.274-17.825l-3.44 5.96-3.18 5.503 1.44 5.376c-.082.016-.166.018-.248.04-.12.032-.227.084-.342.13l-1.457-5.434 3.035-5.25 3.584-6.213-1.2-4.47.16-.596.44.438 1.208 4.516zm6.732 10.636c.525 0 1.05.2 1.45.602.4.402.6.926.6 1.45s-.198 1.05-.6 1.452c-.4.4-.925.6-1.45.6-.527 0-1.05-.2-1.45-.6-.4-.402-.6-.926-.6-1.45s.198-1.05.6-1.452c.402-.4.925-.602 1.45-.602zM36.26 35.29v10.47l3.11 3.11c-.05.044-.106.08-.153.126-.07.07-.123.148-.184.225l-3.147-3.145.002-4.795v-5.674L33.84 33.56l-.136-.506.435.116 2.12 2.12zm2.488-2.22l3.338 5.783 3.088 5.346 5.217 1.397c-.028.077-.065.15-.09.23-.028.116-.036.23-.054.35l-5.275-1.414-2.94-5.098-3.482-6.03-4.295-1.15-.424-.422.58-.154 4.338 1.16zm-1.328-3.06l4.713 2.722 4.357 2.514 4.25-1.14c.01.068.014.133.03.198.026.095.067.18.103.27l-4.3 1.15-4.15-2.397-4.913-2.837-2.855.767-.484-.13.335-.335 2.915-.78zm-3.438.338l-.572.153.152-.57 3.123-3.122h6.598l6.094-.003 3.77-3.77c.054.062.097.13.153.188.084.083.18.146.27.22l-3.813 3.815-5.81-.002h-6.878l-3.088 3.092z"/></svg>