<?xml version="1.0" encoding="UTF-8" standalone="yes"?>
<svg xmlns="http://www.w3.org/2000/svg" viewBox="0 0 31.604 27.111">
  <path d="M4.876 27.107c-.733.146-1.15-3.935-1.15-3.935s-.635.098-.634 1.76c-1.882-.465-1.076-7.626-1.076-7.626s-1.124-.196-1.98.464c-.317-.66 1.54-1.49 1.54-1.49s-.44-.343-1.223-.172c-.145-.488 1.297-.83 1.297-.83s-.464-.465-1.393-.392c.123-.61 1.296-.636 1.296-.636s.707-3.52.66-4.082c-.05-.562.122-1.418-1.614 1.125C.524 5.5 5.314 5.5 6.683 4.23c1.368-1.27 4.022-1.917 4.57-2.445S13.188-.047 14.264 0c-1.198.93-2.177 2.128-1.15 1.81C17.905.197 21.693.808 23.6 1.86s6.77 4.718 7.724 10.02-.794 5.794-1.173 6.674c1.957 4.814-2.467 8.36-2.467 8.36s.39-7.506-1.418-8.483c-.512-.242-.17 1.787-1 2.47.072-2.49-.857-4.69-.857-4.69s.293 1.612-.244 2.32c-.097-1.76-.93-2.957-.93-2.957s.49 1.81-.292 2.322c-.096-1.64-1-3.105-1-3.105s-.194.67-.123 2.37c-.465-.978-4.034-5.72-4.768-4.424-.733 1.296 4.057 4.645 4.08 6.526-1.61-1.66-7.844-7.138-8.7-7.553s2.396 4.57 4.52 6.11c-1.733-.197-4.007-2.494-4.007-2.494s1.442 2.64 2.517 3.544c-1.1.538-3.52-2.688-4.033-3.396.05.807.015 2.01 2.142 3.55-2.03.658-4.122-4.847-4.39-4.283-.66 2.837.78 4.84 2.736 6.455-2.126-.025-5.378-4.01-5.378-4.01s-.928 3.423.76 4.156c-2.887.22-2.838 4.155-2.422 5.768z"/>
</svg>