<?xml version="1.0" encoding="UTF-8" standalone="yes"?>
<svg xmlns="http://www.w3.org/2000/svg" viewBox="0 0 30.619 30.567">
  <path d="M17.64.07C6.814-.71 2.34 5.224.934 9.23c-2.238 8.69-.52 15.613 5.88 21.337-.728-1.717-.324-3.98-.416-4.684-.092-.703.937-1.093.937-1.093s-1.093-1.873-.833-1.873.86.7 1.483.662c-1.053-.437-3.148-5.244-3.148-5.244l2.03 1.145-.886-2.7s7.9 5.355 11.036 5.46c-1.145-1.04-.364-1.978-.364-1.978l.99 1.093-.677-2.395 2.498 3.176s.364.04.26-1.093 3.436 2.29 3.436 2.29-1-2.213-1.094-6.55c-.025 1.956 5.037 5.093 4.945 7.018-.09 1.927-1.144 5.26-1.144 5.26S32.11 16.463 30.29 9.855C29.397 7.466 28.465.852 17.64.07z"/>
</svg>