<?xml version="1.0" encoding="UTF-8" standalone="yes"?>
<svg xmlns="http://www.w3.org/2000/svg" viewBox="0 0 31.418 27.792">
  <path d="M30.923 15.387c-.944.494-1.753 0-1.753 0s1.978-1.214 2.248-2.383c-.495-.225-2.472-.584-2.472-.584s2.382-.854 2.157-2.202c-.494.404-2.876 1.033-2.876 1.033s3.775-3.323 2.876-6.964c-.72 1.482-4.13 2.337-4.13 2.337s2.872-1.708 2.153-3.287c-.99 1.624-3.55 2.928-3.55 2.928S28.766 1.41 27.233.6c-1.433 1.48-7.097 6.066-7.097 6.066s1.573-4.405 2.697-5.618c-.81-.72-3.64 2.965-3.64 2.965s-.45-1.978.808-3.46c-2.483-1.22-4.672 4.09-4.81 4.225-.133.135 0-4.78 0-4.78s-1.21 4.782-1.21 4.918-1.845-3.146-1.845-3.146l.36 3.505s-3.013-4.36-6.43-2.65c2.877.77 3.687 4.27 3.687 4.27L3.28 4.735 7.82 6.89s-5.842-1.123-6.516.36c3.55-.09 4.584 4.315 4.584 4.315s-3.01-.9-4.135-2.563c-.62 1.63 3.383 3.552 3.383 3.687S2.292 14.17 0 12.553c.135 1.573 4.675 5.26 4.675 5.26l-4.09-.54 3.506 1.483s-1.796 2.113-4.09.99c.662 3.145 6.293 4.09 6.293 4.09s-2.607.9-4.135.853c.596 1.107 3.734.36 4.134.146-.24.224-1.435 1.42-3.37 1.923 3.582 2.02 6.652.492 6.832.27l.146-2.697c-.68-.305-1.508-.088-2.02-1.238-.666-1.5-1.332-2.583-.332-4.625.61-1.245 1.762-.535 2.596.216-.023-.724-.122-1.21-.345-1.903-.406-1.26 1.886-4.226 1.886-4.226s.764 6.832 1.708 5.844c-.09-4.18 1.66-6.422 2.315-7.505.29 6.158 2.853 7.057 3.213 6.518-1.304-6.832 2.586-6.248 2.586-6.248s.2-1.708 2.276-1.43c4.44 1.52 4.53 12.127 4.53 12.127h1.26l-.945-1.077 1.934.314-1.798-1.17s2.112-.09 1.348-.847c-.81-.057-1.258-1.714-1.258-1.714s2.2-.678 2.066-1.98z"/>
</svg>