<svg xmlns="http://www.w3.org/2000/svg" width="24.042" height="31.658" viewBox="0 0 24.042 31.658"><path d="M11.797 27.45c-4.31-.367-5.102-1.804-5.102-1.804s-.586 2.52-.264 3.606c4.545 4.104 9.568 2.09 11.034.304.47-.91.02-3.91.02-3.91s-1.378 2.17-5.687 1.803zM20.885 3.19C17.28.55 9.54-1.913 4.41 2.162S.04 15.68.04 15.68s1.085 4.22 1.642 4.31-.557-4.81.38-5.25c.94-.44 1.438-3.576.793-4.25-.528-.266-.147-4.223 1.348-4.047 4.193 1.643 10.29 1.496 15.656.176 1.29-.236 1.494 3.195 1.494 3.195s-1.73 2.315.82 4.28c.763.732-.292 5.805.235 5.57.527-.235 1.612-4.134 1.612-4.134s.47-9.702-3.137-12.34z"/></svg>