<?xml version="1.0" encoding="UTF-8" standalone="yes"?>
<svg xmlns="http://www.w3.org/2000/svg" viewBox="0 0 20.908 30.5">
  <path d="M17.39 2.427s.04-.475.91-.73c-.85-.396-1.56.533-1.56.533l-1.265-.316s-.418-.97.652-1.244c-.75-.453-1.52.83-1.52.83S13.127-.494 12.672.117c.87.376.553 1.185.553 1.185S2.585-1.938 0 7.618c.69-1.105.87-.87.87-.87s-.916 5.943.374 9.772l.513.553s-.53-2.246-.056-4.19c.334-1.358 1.675-2.403 1.835-3.14.263-1.615-.317-3.184 1.526-4.37 1.843-1.183 4.693.347 5.765.29 1.072-.056 3.516-1.693 5.343-.71 1.957 1.053 1.288 4.196 1.343 4.66.106.577.91 1.156 1.44 2.103.535.948-.196 5.83-.196 5.83s.257.12.494-.197 1.244-8.767 1.145-9.063.08-.71.494-.217c.354-3.117-3.495-5.643-3.495-5.643zm.297 17.51c-.217.947-1.54 3.89-1.994 4.204s-3.533-1.5-4.54-1.54c-1.007-.037-3.79 1.028-4.402.77-.61-.254-4.834-6.57-5.09-5.82-.258.75 1.45 3.29 1.5 3.85.05.557.017 1.27.572 1.973.556.702 1.64 2.054 2.33 2.94 0-.71.276-.67.276-.67s2.21 2.96 2.803 2.547c-.69-.436-.415-.85-.415-.85s1.64 3.04 2.17 3.158c.534.118 2.41-3.258 2.41-3.258s.473.73 0 1.165c.67.06 3.315-2.566 4.263-4.58.947-2.013 1.382-5.724 1.382-5.724s-1.046.89-1.263 1.837z"/>
</svg>