<?xml version="1.0" encoding="UTF-8" standalone="yes"?>
<svg xmlns="http://www.w3.org/2000/svg" viewBox="0 0 31.013 29.015">
  <path d="M30.935 14.953C27.242-1.024 13.748 1.73 13.748 1.73s-1.376-.47.873-1.546C10.527-.856 7.977 2.87 7.977 2.87s-.873.033-.873-1.544c-1.04.134-.067 2.886-.067 2.886s-2.887.067-3.56-.402c-.334 1.074 2.324.857 3.09 1.14-13.495.94-2.014 19.403-1.947 17.926-2.015-8.66 2.82-11.816 2.82-11.816s4.094 4.13 7.384 3.76c-3.49-1.342-2.81-2.014-2.81-2.014s5.596.47 11-2.08c2.283.1 4.163 5.018 4.7 11.144 2.535-1.83 1.88-6.916 1.88-6.916s1.812 1.477 1.342 0zM21.293 26.25c-.867-.718-2.882-3.035-5.417-.542-2.46-2.24-4.407-.01-5.255.693-3.17 1.46-3.32-.325-3.397-.804-2.39 4.305 5.237 3.323 6.345 3.323 1.053 0 2.432-.63 2.567-.694.51.208 1.447.54 2.213.54 1.107 0 8.736.984 6.344-3.32-.074.478-.225 2.266-3.397.805z"/>
</svg>