<?xml version="1.0" encoding="UTF-8" standalone="yes"?>
<svg xmlns="http://www.w3.org/2000/svg" viewBox="0 0 612 612">
  <circle cx="345.975" cy="138.696" r="14.44"/>
  <circle cx="265.35" cy="138.696" r="14.44"/>
  <path d="M157.55 490.27c-33.562 0-60.867 27.304-60.867 60.866S123.988 612 157.55 612s60.865-27.303 60.865-60.865-27.305-60.864-60.866-60.864zm0 109.504c-26.82 0-48.64-21.818-48.64-48.64s21.82-48.638 48.64-48.638 48.64 21.82 48.64 48.64-21.82 48.638-48.64 48.638z"/>
  <path d="M505.027 353.528s-126.56-127.27-128.183-128.707c17.643-17.834 28.64-42.243 28.964-69.18 12.993-3.075 22.488-14.67 22.488-28.58 0-13.91-9.5-25.5-22.5-28.57C404.886 44.027 360.333 0 305.662 0c-54.672 0-99.226 44.03-100.136 98.488-13.004 3.078-22.51 14.67-22.51 28.57 0 13.903 9.498 25.496 22.498 28.58.326 26.938 11.323 51.35 28.97 69.187-4.745 4.2-127.513 128.706-127.513 128.706-15.04 15.06-15.04 39.554.007 54.6 7.53 7.524 17.416 11.283 27.302 11.283s19.77-3.763 27.293-11.284l36.725-36.727v82.36h31.008v158.234h152.7V453.76h31.023v-83.03l37.396 37.4c7.526 7.525 17.414 11.29 27.3 11.29 9.885 0 19.77-3.764 27.3-11.29 15.047-15.047 15.047-39.538.002-54.6zM405.84 111.35c6.056 2.642 10.232 8.662 10.232 15.706 0 7.05-4.175 13.076-10.232 15.72V111.35zm-200.357 31.423a17.085 17.085 0 0 1-10.242-15.718 17.07 17.07 0 0 1 10.244-15.703v31.42zm12.226 11.64v-51.96h23.88V90.227h-23.304A87.38 87.38 0 0 1 220.546 78h30.216V65.776h-26.04a88.28 88.28 0 0 1 18.4-27.364v13.61h12.225V28.104a88.01 88.01 0 0 1 15.282-8.578V61.19h12.224V15.243a87.48 87.48 0 0 1 16.81-2.79v56.38h12.227V12.47a87.5 87.5 0 0 1 16.81 2.838V61.19h12.227V19.63a87.74 87.74 0 0 1 15.282 8.64v23.75h12.225V38.658c7.626 7.78 13.83 16.956 18.165 27.118h-27.333V78h31.51a87.526 87.526 0 0 1 2.26 12.227H368.44v12.226h25.177v51.96c0 48.498-39.454 87.954-87.953 87.954-48.5 0-87.955-39.457-87.955-87.953zm133.454 89.203c-8.41 16.795-25.826 28.156-45.508 28.156s-37.09-11.36-45.497-28.156a99.525 99.525 0 0 0 45.5 10.976c16.38 0 31.84-3.976 45.504-10.976zM198.3 354.11l-45.37 45.372c-10.28 10.28-27.02 10.277-37.31 0-10.28-10.282-10.28-27.02-.002-37.31l45.184-45.18 37.495 36.05v1.068h.002zm0-18.028l-28.848-27.736 8.204-8.202L198.3 320v16.082zm.04-33.005L186.302 291.5l16.207-16.206c-2.586 8.947-3.99 18.262-4.17 27.783zm43.764 296.69c2.645-12.937 14.388-23.532 28.44-23.532s25.795 10.597 28.44 23.533h-56.88zm57.44-23.304c-7.455-7.554-17.7-12.455-29-12.455-11.303 0-21.556 4.906-29.012 12.466V519.66h58.012v56.803zm0-69.03h-58.012v-10.698h58.01l.002 10.698zm0-22.924h-58.012v-30.75h58.01l.002 30.75zm12.796 115.257c2.645-12.938 14.388-23.533 28.44-23.533s25.795 10.597 28.44 23.533h-56.88zm57.442-23.304c-7.455-7.554-17.703-12.457-29-12.457-11.304 0-21.555 4.906-29.01 12.464v-56.81h58.01v56.806zm0-69.03H311.77v-10.7h58.012v10.7zm0-22.925H311.77v-30.75h58.012v30.75zm31.023-42.975h-190.28V305.187c0-20.383 6.333-39.78 18.325-56.15 0 0 7.268-9.935 14.85-15.994.028.02.055.043.083.064 5.73 29.278 31.643 50.89 61.875 50.89 30.233 0 56.153-21.615 61.89-50.893.027-.02.054-.044.082-.066 5.138 4.406 12.17 12.528 12.17 12.528 13.742 17.063 21.006 37.677 21.006 59.62v136.35zm7.644-167.285l20.15 20.148-15.57 14.96v-4.17c0-10.527-1.575-20.955-4.58-30.938zm4.58 52.065l24.215-23.27 7.025 7.025-31.24 30.037v-13.792zm83.35 73.167c-10.284 10.283-27.02 10.283-37.31 0l-44.19-44.193 38.04-36.573 43.46 43.454c10.28 10.294 10.28 27.03 0 37.312z"/>
  <path d="M283.918 308.297h-12.226v14.136h-13.524v12.226h13.524v35.53h-10.697v12.225h34.003V370.19h-11.08zm58.837 0H330.53v14.136h-13.526v12.226h13.525v35.53h-10.7v12.225h34.003V370.19h-11.08z"/>
</svg>