<?xml version="1.0" encoding="UTF-8" standalone="yes"?>
<svg xmlns="http://www.w3.org/2000/svg" viewBox="0 0 611.997 611.997">
  <path d="M185.746 488.948l16.877 12.556 19.085-8.49 1.975-20.945-16.877-12.557-19.085 8.49-1.974 20.945zm12.87-13.113l6.71-2.984 6.213 4.624-.728 7.71-6.708 2.984-6.214-4.623.727-7.71z"/>
  <path d="M527.33 367.052s-120.616-121.24-121.307-121.86c16.425-16.973 26.655-40.078 26.976-65.563 12.474-2.803 21.566-13.86 21.566-27.147 0-13.154-8.31-24.125-21.34-27.056V94.914C433.223 42.578 390.72 0 338.385 0s-94.84 42.578-94.84 94.914v30.513c-11.583 2.93-21.283 13.9-21.283 27.056 0 13.107 8.906 24.04 21.12 27.025.29 25.527 10.576 48.673 27.11 65.67-.835.74-100.703 102.136-100.703 102.136l-7.39-16.622c5.423-9.015 7.746-19.428 6.56-30.15-1.425-12.88-7.732-24.29-17.754-32.13-8.43-6.594-18.97-10.225-29.675-10.225-9.15 0-17.966 2.554-25.49 7.39l-6.862 4.406 28.777 22.498-9.72 12.417L79.6 282.473l-2.727 7.442c-7.08 19.472-.912 41.305 15.347 54.02 8.563 6.697 18.778 10.332 29.542 10.332h.003c.08 0 1.528-.03 2.224-.056l15.705 35.135c-1.07 10.564 2.425 21.432 10.5 29.517 1.357 1.354 2.793 2.538 4.296 3.636l14.765 33.18a43.577 43.577 0 0 0-5.004 9.41c-4.16 10.825-3.853 22.617.86 33.21 6.967 15.66 22.545 25.775 39.69 25.775 6.09 0 12.02-1.266 17.623-3.76 21.87-9.73 31.75-35.44 22.02-57.312-6.268-14.09-19.517-23.667-34.597-25.45l-8.215-18.495c.098-.094.198-.182.293-.278l34.188-34.188.25 35.637c1.465 16.586 14.424 30.114 30.35 33.218v158.55h143.345V453.503c15.927-2.983 28.71-16.502 30.16-33.272l.1-36.78 35.31 35.333c7.133 7.127 16.486 10.69 25.853 10.69s18.73-3.566 25.857-10.694c14.255-14.27 14.248-37.474-.005-51.728zm-94.106-229.576c5.792 2.433 10.02 8.214 10.02 15.006 0 6.798-4.228 12.585-10.02 15.02v-30.026zM243.546 167.3c-5.792-2.547-9.513-8.212-9.513-14.817 0-6.6 3.72-12.26 9.513-14.806V167.3zM85.82 302.263l24.407 19 23.992-30.72-24.158-18.92a36.24 36.24 0 0 1 11.47-1.868c8.25 0 16.043 2.653 22.538 7.732 7.547 5.902 12.297 14.465 13.376 24.22 1.08 9.746-1.625 19.535-7.61 27.19-6.807 8.702-17.038 13.79-28.07 13.79-8.153 0-15.903-2.787-22.408-7.875-10.074-7.874-15.023-20.214-13.537-32.548zm64.374 64.79a36.45 36.45 0 0 0-4.935 6.144l-9.608-21.59a46.21 46.21 0 0 0 18.59-10.735l6.783 15.27-10.83 10.912zm54.564 81.76c12.57 0 23.995 7.42 29.103 18.903 7.135 16.036-.108 34.886-16.143 42.02a31.578 31.578 0 0 1-12.915 2.757c-12.572 0-23.996-7.42-29.103-18.903-3.457-7.77-3.682-16.418-.63-24.354 3.048-7.938 9.007-14.21 16.775-17.666a31.533 31.533 0 0 1 12.913-2.758zm-34.693-19.84c1.985.326 3.992.5 6 .5 5.45 0 10.896-1.216 15.906-3.628l5.348 12.04a43.676 43.676 0 0 0-19.435 8.67l-7.818-17.583zm23.668-18.38c-9.74 9.74-25.6 9.738-35.347.002-9.742-9.753-9.742-25.61.013-35.365l13.882-13.99 34.707 36.096-13.257 13.255zm42.573-89.34v46.96l-21.027 20.93-34.786-36.13 59.957-60.34a100.232 100.232 0 0 0-4.144 28.58zM344.9 11.842c43.438 3.217 76.74 39.232 76.74 83.07v21.575c-21.72-19.09-49.23-29.34-76.74-30.683v-73.96zm62.71 109.313H269.275c40.943-30.407 97.396-30.407 138.337 0zm-152.48-26.24c0-44.16 34.75-80.388 78.187-83.144v74.007c-27.51 1.153-55.02 11.402-78.188 30.71V94.914zm0 83.485v-45.662h166.51V178.4c0 46.322-37.232 84.008-83.01 84.008-46.04 0-83.5-37.685-83.5-84.008zm47.78 184.558v7.24H278.1s.754-116.572 1.096-116.865c4.22 3.397 9.236 6.126 13.58 8.773v50.176H381.1v-48.5c5.79-3.004 11.328-6.287 16.434-10.418.28.248.744 116.834.744 116.834h-24.42v-7.24h-70.947zm59.365 11.583v40.543h-47.78V374.54h47.78zm-57.916-73.843v-33.16c10.134 4.152 22.2 6.454 34.286 6.454 10.81 0 20.734-1.865 30.87-5.255v31.96H304.36zm-56.47 20.555c0-19.767 7.24-39.137 18.823-54.885v103.83H247.89v-48.945zm0 60.53h55.02v27.51h-55.02v-27.51zm18.823 59.727c-10.135-2.822-17.403-11.946-18.768-20.634h18.768v20.633zm11.9 158.907c2.885-13.03 13.748-21.106 26.703-21.106s23.818 8.076 26.704 21.107h-53.408zm65.53 0c2.887-13.03 13.75-21.106 26.704-21.106 12.956 0 23.817 8.076 26.704 21.107h-53.407zm54.33-22.046c-7.24-6.97-17.112-11.284-27.794-11.284-10.4 0-19.988 4.093-27.228 10.745V467.21h21.72v-11.584h-53.574v11.583h20.27v110.83c-5.79-6.774-16.21-10.953-26.72-10.953-10.574 0-19.612 4.23-26.852 11.078V420.877h24.615v5.792h70.95v-5.793h24.614V578.37zm11.584-136.764v-20.73h18.397c-1.312 10.134-8.262 18.048-18.397 20.73zm18.823-32.315h-55.02v-27.51h55.02v27.51zm0-39.093h-18.823V266.22c11.583 15.68 18.823 35.086 18.823 55.032v48.945zm11.583-3.127v-45.817c0-9.973-1.614-19.82-4.46-29.244l63.62 63.718-34.555 36.042-24.605-24.7zm78.676 43.52c-9.74 9.74-25.6 9.74-35.35 0l-10.628-10.628 34.655-36.042 11.324 11.324c9.74 9.74 9.738 25.597 0 35.347z"/>
  <circle cx="300.249" cy="163.508" r="13.681"/>
  <circle cx="376.637" cy="163.508" r="13.681"/>
</svg>