<?xml version="1.0" encoding="iso-8859-1"?>
<!-- Generator: Adobe Illustrator 18.1.1, SVG Export Plug-In . SVG Version: 6.00 Build 0)  -->
<svg version="1.1" id="Capa_1" xmlns="http://www.w3.org/2000/svg" xmlns:xlink="http://www.w3.org/1999/xlink" x="0px" y="0px"
	 viewBox="0 0 612 612" style="enable-background:new 0 0 612 612;" xml:space="preserve">
<g>
	<g>
		<path d="M557.766,447.204c-0.588-20.814-12.07-39.729-29.553-49.409c2.558-5.217,3.918-10.988,3.918-16.969
			c0-10.309-4.015-20.001-11.304-27.289c0,0-126.548-127.289-128.168-128.724c17.64-17.839,28.633-42.248,28.955-69.183
			c12.998-3.082,22.499-14.671,22.499-28.564c0-13.898-9.506-25.491-22.509-28.569C420.698,44.033,376.142,0,321.469,0
			S222.24,44.033,221.333,98.494c-12.998,3.076-22.5,14.668-22.5,28.569c0,13.896,9.496,25.483,22.488,28.566
			c0.324,26.938,11.318,51.351,28.963,69.189c-4.901,5.9-105.061,106.282-105.061,106.282v-54.087c0-9.091-7.397-16.49-16.49-16.49
			H69.286c-1.559,0-2.827-1.268-2.827-2.827v-28.822c0-1.559,1.268-2.827,2.827-2.827h10.392v0.903
			c0,11.202,9.113,20.315,20.313,20.315h81.482c11.202,0,20.313-9.113,20.313-20.315v-14.177c0-11.2-9.113-20.313-20.313-20.313
			h-81.48c-11.2,0-20.313,9.113-20.313,20.313v1.048H69.287c-8.3,0-15.053,6.753-15.053,15.053v28.822
			c0,8.3,6.753,15.053,15.053,15.053h59.448c2.35,0,4.264,1.913,4.264,4.264v66.314l-10.204,10.205
			c-7.299,7.29-11.318,16.982-11.318,27.294c0,10.311,4.019,20.004,11.312,27.288c3.029,3.033,6.478,5.491,10.209,7.339v171.7
			h12.226V419.12c1.6,0.2,3.221,0.313,4.86,0.313c10.312,0,20.004-4.021,27.291-11.316L214.1,371.39v82.377h31.023V612h152.7
			V453.768h31.008v-83.064l35.563,35.562c-11.022,10.51-17.576,25.274-18.015,40.938l16.598,111.806h78.821L557.766,447.204z
			 M91.904,212.773c0-4.459,3.628-8.087,8.087-8.087h81.482c4.459,0,8.087,3.628,8.087,8.087v14.177
			c0,4.461-3.628,8.089-8.087,8.089h-81.48c-4.459,0-8.087-3.628-8.087-8.089v-14.177H91.904z M519.905,380.824
			c0,7.045-2.743,13.667-7.727,18.65c-4.979,4.987-11.601,7.731-18.643,7.731c-7.044,0-13.664-2.745-18.647-7.733l-13.167-13.167
			l38.027-36.561l12.435,12.435C517.162,367.159,519.905,373.781,519.905,380.824z M259.487,233.028
			c0.796,0.63,48.142,47.59,48.142,47.59l-25.043,11.008l-27.711-54.402C256.356,235.779,257.902,234.387,259.487,233.028z
			 M321.473,277.171l-26.039-26.03c8.307,2.239,17.029,3.452,26.033,3.452c9.009,0,17.737-1.215,26.049-3.455L321.473,277.171z
			 M383.461,233.019c1.576,1.352,3.111,2.76,4.595,4.215l-27.707,54.393l-25.035-11.005
			C335.314,280.622,382.673,233.642,383.461,233.019z M431.887,127.064c0,7.037-4.18,13.057-10.242,15.702v-31.405
			C427.709,114.007,431.887,120.025,431.887,127.064z M321.469,12.226c32.501,0,60.92,17.734,76.145,44.02H245.325
			C260.549,29.959,288.968,12.226,321.469,12.226z M329.929,99.405c-15.128-2.771-27.083-14.727-29.855-29.854
			C315.2,72.322,327.157,84.277,329.929,99.405z M286.63,69.551c-2.772,15.126-14.727,27.083-29.855,29.854
			C259.547,84.277,271.503,72.322,286.63,69.551z M211.059,127.064c0-7.037,4.175-13.056,10.231-15.702v31.403
			C215.234,140.12,211.059,134.102,211.059,127.064z M233.516,100.178c0-11.177,2.118-21.863,5.937-31.706h21.958
			c-10.676,9.07-17.469,22.581-17.469,37.655v6.113h6.113c18.631,0,34.882-10.367,43.298-25.634
			c8.417,15.267,24.667,25.634,43.299,25.634h6.113v-6.113c0-15.074-6.793-28.584-17.469-37.655h41.583v18.339h12.226V68.472h7.641
			v25.98h12.226v-25.98h4.514c3.819,9.843,5.937,20.529,5.937,31.706v54.237c0,48.497-39.456,87.952-87.952,87.952
			s-87.952-39.454-87.952-87.952v-54.237H233.516z M168.727,399.475c-4.979,4.987-11.601,7.733-18.644,7.733
			c-7.042,0-13.664-2.746-18.649-7.739c-4.985-4.98-7.731-11.601-7.731-18.643c0-7.044,2.746-13.664,7.734-18.647l13.914-13.916
			l38.027,36.561L168.727,399.475z M192.025,376.177l-38.028-36.563l64.286-64.295c-2.748,9.565-4.184,19.593-4.184,29.86v48.923
			L192.025,376.177z M226.326,305.177c0-21.429,7.066-41.681,19.83-58.134l30.777,60.42l37.984-16.693v150.771h-88.591V305.177z
			 M315.36,453.768v123.303c-7.455-7.368-17.708-11.894-29.01-11.894c-11.298,0-21.546,4.523-29.001,11.887v-68.162
			c4.045,2.736,8.919,4.336,14.159,4.336c13.969,0,25.333-11.365,25.333-25.332c0-13.969-11.364-25.333-25.333-25.333
			c-5.24,0-10.114,1.6-14.159,4.336v-13.138h58.011V453.768z M314.624,599.774h-56.547c2.919-13.286,14.475-22.373,28.274-22.373
			C300.148,577.401,311.705,586.488,314.624,599.774z M258.4,487.904c0-7.227,5.881-13.108,13.108-13.108
			s13.108,5.881,13.108,13.108c0,7.227-5.881,13.106-13.108,13.106C264.281,501.01,258.4,495.129,258.4,487.904z M328.312,599.774
			c2.919-13.286,14.475-22.373,28.274-22.373c13.798,0,25.355,9.087,28.274,22.373H328.312z M385.598,577.072
			c-7.456-7.368-17.709-11.896-29.012-11.896c-11.298,0-21.545,4.523-29,11.885V453.769h58.011V577.072z M416.605,441.542h-89.462
			V290.385l38.86,17.078l30.772-60.409c12.846,16.584,19.832,36.815,19.832,58.123v136.365H416.605z M424.35,274.347l66.75,66.75
			l-38.027,36.561l-24.244-24.244v-48.237C428.831,294.583,427.297,284.225,424.35,274.347z M473.944,414.097
			c5.873,3.477,12.588,5.335,19.592,5.335c10.311,0,20.004-4.019,27.291-11.315c0.092-0.092,0.176-0.186,0.266-0.28
			c14.332,7.328,23.849,22.526,24.447,39.367h-86.936C459.055,434.375,464.653,422.367,473.944,414.097z M531.326,546.785h-57.874
			l-13.563-87.355h84.39L531.326,546.785z"/>
		<circle cx="281.156" cy="138.697" r="14.44"/>
		<circle cx="361.78" cy="138.697" r="14.44"/>
		<path d="M386.371,322.432c-5.492,0-10.754,2.037-14.815,5.74c-2.827,2.58-4.904,5.818-6.07,9.408
			c-4.669,1.116-8.946,3.371-12.556,6.665c-5.659,5.161-8.969,12.198-9.321,19.85c-0.352,7.652,2.297,14.946,7.459,20.607
			c5.421,5.943,13.144,9.281,21.192,9.281h0.002c7.161,0,14.023-2.589,19.317-7.42c7.109-6.483,10.412-16.016,9.015-25.367
			c0.205-0.171,0.403-0.348,0.601-0.527c4.34-3.958,6.879-9.37,7.148-15.236c0.269-5.868-1.762-11.491-5.72-15.829
			C398.467,325.045,392.543,322.432,386.371,322.432z M392.954,351.64c-0.598,0.547-1.278,1.016-2.078,1.433l-4.579,2.389
			l1.589,4.913c1.985,6.137,0.202,12.898-4.545,17.228c-3.038,2.771-6.972,4.296-11.078,4.296h-0.002
			c-4.618,0-9.05-1.955-12.16-5.364c-2.962-3.247-4.481-7.452-4.279-11.842c0.202-4.389,2.1-8.437,5.347-11.397
			c2.734-2.496,6.145-3.96,9.863-4.233l5.164-0.38l0.474-5.156c0.225-2.441,1.334-4.682,3.124-6.318
			c1.803-1.643,4.138-2.549,6.576-2.549c2.783,0,5.346,1.129,7.219,3.183c1.757,1.929,2.661,4.424,2.54,7.03
			C396.011,347.477,394.885,349.879,392.954,351.64z"/>
	</g>
</g>
<g>
</g>
<g>
</g>
<g>
</g>
<g>
</g>
<g>
</g>
<g>
</g>
<g>
</g>
<g>
</g>
<g>
</g>
<g>
</g>
<g>
</g>
<g>
</g>
<g>
</g>
<g>
</g>
<g>
</g>
</svg>
