<?xml version="1.0" encoding="iso-8859-1"?>
<!-- Generator: Adobe Illustrator 18.1.1, SVG Export Plug-In . SVG Version: 6.00 Build 0)  -->
<svg version="1.1" id="Capa_1" xmlns="http://www.w3.org/2000/svg" xmlns:xlink="http://www.w3.org/1999/xlink" x="0px" y="0px"
	 viewBox="0 0 611.997 611.997" style="enable-background:new 0 0 611.997 611.997;" xml:space="preserve">
<g>
	<g>
		<path d="M185.746,488.948l16.877,12.556l19.085-8.491l1.975-20.944l-16.877-12.556l-19.085,8.489L185.746,488.948z
			 M198.617,475.835l6.708-2.984l6.214,4.623l-0.727,7.71l-6.708,2.984l-6.214-4.623L198.617,475.835z"/>
		<path d="M527.33,367.052c0,0-120.616-121.239-121.307-121.86c16.425-16.973,26.655-40.078,26.976-65.563
			c12.475-2.802,21.567-13.858,21.567-27.146c0-13.154-8.31-24.125-21.341-27.056V94.914C433.224,42.578,390.72,0,338.385,0
			s-94.839,42.578-94.839,94.914v30.513c-11.583,2.929-21.283,13.9-21.283,27.056c0,13.107,8.906,24.041,21.119,27.025
			c0.291,25.527,10.577,48.673,27.111,65.67c-0.835,0.74-100.703,102.136-100.703,102.136l-7.389-16.622
			c5.422-9.015,7.745-19.428,6.559-30.149c-1.425-12.881-7.732-24.292-17.754-32.131c-8.431-6.594-18.971-10.225-29.675-10.225
			c-9.152,0-17.967,2.554-25.491,7.39l-6.862,4.406l28.777,22.498l-9.72,12.416l-28.636-22.424l-2.726,7.442
			c-7.079,19.472-0.912,41.305,15.347,54.02c8.563,6.697,18.778,10.332,29.542,10.332c0.001,0,0.001,0,0.003,0
			c0.08,0,1.528-0.03,2.224-0.056l15.706,35.134c-1.071,10.564,2.425,21.432,10.5,29.517c1.357,1.354,2.793,2.538,4.296,3.636
			l14.764,33.181c-2.024,2.887-3.707,6.032-5.004,9.409c-4.16,10.825-3.854,22.617,0.86,33.211
			c6.966,15.659,22.544,25.774,39.688,25.774c6.09,0,12.021-1.266,17.624-3.759c21.871-9.73,31.75-35.441,22.02-57.313
			c-6.268-14.091-19.517-23.668-34.597-25.45l-8.215-18.496c0.097-0.094,0.197-0.182,0.292-0.278l34.188-34.188l0.249,35.638
			c1.465,16.586,14.424,30.114,30.351,33.218v158.55h143.344V453.503c15.927-2.983,28.709-16.502,30.159-33.272l0.101-36.782
			l35.309,35.334c7.134,7.127,16.487,10.689,25.854,10.689c9.367,0,18.729-3.565,25.857-10.693
			C541.59,404.51,541.583,381.306,527.33,367.052z M433.224,137.476c5.792,2.433,10.02,8.214,10.02,15.006
			c0,6.798-4.228,12.585-10.02,15.019V137.476z M243.546,167.301c-5.792-2.548-9.513-8.213-9.513-14.818
			c0-6.6,3.721-12.26,9.513-14.806V167.301z M85.821,302.262l24.406,19.001l23.992-30.722l-24.157-18.919
			c3.643-1.215,7.51-1.868,11.47-1.868c8.249,0,16.043,2.653,22.538,7.732c7.547,5.902,12.297,14.465,13.376,24.221
			c1.079,9.745-1.625,19.534-7.61,27.188c-6.807,8.703-17.038,13.79-28.069,13.79h-0.001c-8.153,0-15.903-2.786-22.408-7.874
			C89.284,326.936,84.335,314.596,85.821,302.262z M150.194,367.052c-1.901,1.901-3.542,3.966-4.935,6.144l-9.607-21.589
			c6.93-2.071,13.277-5.706,18.591-10.736l6.782,15.268L150.194,367.052z M204.758,448.812c12.571,0,23.995,7.419,29.103,18.903
			c7.134,16.036-0.109,34.886-16.144,42.02c-4.112,1.83-8.459,2.757-12.915,2.757c-12.572,0-23.996-7.421-29.103-18.903
			c-3.456-7.768-3.681-16.417-0.63-24.353c3.049-7.938,9.008-14.211,16.776-17.666C195.954,449.739,200.299,448.812,204.758,448.812
			z M170.065,428.971c1.985,0.327,3.992,0.501,5.999,0.501c5.45,0,10.897-1.216,15.907-3.628l5.347,12.039
			c-3.485,0.61-6.892,1.638-10.186,3.103c-3.346,1.488-6.443,3.362-9.249,5.567L170.065,428.971z M193.733,410.591
			c-9.74,9.742-25.599,9.739-35.347,0.003c-9.742-9.753-9.742-25.611,0.013-35.365l13.883-13.99l34.707,36.097L193.733,410.591z
			 M236.306,321.252v46.96l-21.027,20.93l-34.785-36.129l59.957-60.342C237.702,301.915,236.306,311.536,236.306,321.252z
			 M344.9,11.843c43.438,3.216,76.74,39.231,76.74,83.07v21.574c-21.719-19.091-49.229-29.341-76.74-30.683L344.9,11.843
			L344.9,11.843z M407.611,121.155H269.274C310.217,90.748,366.67,90.748,407.611,121.155z M255.129,94.914
			c0-44.16,34.75-80.387,78.188-83.143v74.006c-27.51,1.153-55.021,11.402-78.188,30.71V94.914z M255.129,178.4v-45.662H421.64
			V178.4c0,46.322-37.232,84.008-83.009,84.008C292.589,262.408,255.129,224.723,255.129,178.4z M302.911,362.958v7.24h-24.81
			c0,0,0.753-116.572,1.095-116.865c4.219,3.397,9.236,6.126,13.58,8.773v50.176h88.323v-48.5
			c5.792-3.004,11.329-6.287,16.435-10.418c0.281,0.248,0.744,116.834,0.744,116.834h-24.419v-7.24h-70.948V362.958z
			 M362.275,374.541v40.542h-47.781v-40.542H362.275z M304.359,300.697v-33.159c10.135,4.151,22.2,6.453,34.287,6.453
			c10.809,0,20.734-1.866,30.87-5.256v31.961H304.359z M247.89,321.252c0-19.767,7.24-39.137,18.823-54.885v103.83H247.89V321.252z
			 M247.89,381.781h55.021v27.511H247.89V381.781z M266.713,441.509c-10.135-2.821-17.403-11.945-18.768-20.633h18.768V441.509z
			 M278.612,600.417c2.886-13.031,13.749-21.106,26.704-21.106s23.818,8.075,26.704,21.106H278.612z M344.143,600.417
			c2.887-13.031,13.749-21.106,26.704-21.106c12.956,0,23.817,8.075,26.704,21.106H344.143z M398.473,578.371
			c-7.24-6.972-17.112-11.285-27.794-11.285c-10.4,0-19.987,4.093-27.227,10.745V467.209h21.719v-11.583h-53.573v11.583h20.271
			v110.83c-5.792-6.773-16.212-10.952-26.721-10.952c-10.574,0-19.612,4.229-26.852,11.078V420.877h24.615v5.792h70.948v-5.792
			h24.615L398.473,578.371L398.473,578.371z M410.057,441.606v-20.73h18.397C427.142,431.01,420.192,438.924,410.057,441.606z
			 M428.88,409.291h-55.021v-27.511h55.021V409.291z M428.88,370.197h-18.823V266.219c11.583,15.681,18.823,35.087,18.823,55.033
			V370.197z M440.463,367.07v-45.817c0-9.973-1.614-19.821-4.461-29.244l63.622,63.719l-34.556,36.042L440.463,367.07z
			 M519.139,410.591c-9.74,9.739-25.598,9.739-35.348,0l-10.629-10.629l34.655-36.042l11.324,11.324
			C528.879,384.983,528.878,400.841,519.139,410.591z"/>
		<circle cx="300.249" cy="163.508" r="13.681"/>
		<circle cx="376.637" cy="163.508" r="13.681"/>
	</g>
</g>
<g>
</g>
<g>
</g>
<g>
</g>
<g>
</g>
<g>
</g>
<g>
</g>
<g>
</g>
<g>
</g>
<g>
</g>
<g>
</g>
<g>
</g>
<g>
</g>
<g>
</g>
<g>
</g>
<g>
</g>
</svg>
