<?xml version="1.0" encoding="UTF-8" standalone="yes"?>
<svg xmlns="http://www.w3.org/2000/svg" viewBox="0 0 612 612">
  <path d="M557.766 447.204c-.588-20.814-12.07-39.73-29.553-49.41a38.443 38.443 0 0 0 3.918-16.968c0-10.31-4.013-20-11.302-27.29 0 0-126.548-127.288-128.168-128.723 17.64-17.84 28.632-42.248 28.954-69.183 12.998-3.082 22.5-14.67 22.5-28.564 0-13.898-9.507-25.49-22.51-28.57C420.698 44.034 376.142 0 321.47 0s-99.23 44.033-100.137 98.494c-12.998 3.076-22.5 14.668-22.5 28.57 0 13.895 9.496 25.482 22.488 28.565.326 26.936 11.32 51.35 28.965 69.187-4.9 5.9-105.06 106.282-105.06 106.282V277.01c0-9.09-7.398-16.49-16.49-16.49h-59.45a2.83 2.83 0 0 1-2.827-2.827v-28.822a2.83 2.83 0 0 1 2.826-2.827h10.392v.903c0 11.2 9.113 20.314 20.313 20.314h81.482c11.202 0 20.313-9.113 20.313-20.315V212.77c0-11.2-9.113-20.313-20.313-20.313h-81.48c-11.2 0-20.313 9.112-20.313 20.312v1.048H69.286c-8.3 0-15.053 6.754-15.053 15.054v28.822c0 8.3 6.753 15.053 15.053 15.053h59.448A4.27 4.27 0 0 1 133 277.01v66.314l-10.206 10.205c-7.3 7.29-11.318 16.983-11.318 27.295 0 10.31 4.02 20.004 11.312 27.288a38.664 38.664 0 0 0 10.208 7.34v171.7h12.226V419.12c1.6.2 3.22.313 4.86.313 10.312 0 20.004-4.02 27.29-11.316L214.1 371.39v82.377h31.023V612h152.7V453.768h31.008v-83.064l35.565 35.562c-11.022 10.51-17.576 25.274-18.015 40.938l16.597 111.806h78.82l15.97-111.806zM91.904 212.774c0-4.46 3.628-8.088 8.087-8.088h81.484c4.46 0 8.087 3.628 8.087 8.087v14.177c0 4.46-3.627 8.09-8.086 8.09h-81.48c-4.46 0-8.087-3.63-8.087-8.09v-14.177h-.002zm428 168.05c0 7.045-2.742 13.667-7.726 18.65-4.98 4.987-11.6 7.73-18.643 7.73-7.044 0-13.664-2.744-18.647-7.732l-13.167-13.167 38.03-36.56 12.434 12.434c4.98 4.98 7.722 11.6 7.722 18.643zM259.488 233.028c.796.63 48.142 47.59 48.142 47.59l-25.044 11.008-27.71-54.402a97.023 97.023 0 0 1 4.61-4.196zm61.986 44.143l-26.04-26.03a99.884 99.884 0 0 0 52.083 0l-26.043 26.032zm61.988-44.15a93.876 93.876 0 0 1 4.596 4.215l-27.707 54.393-25.035-11.005s47.36-46.98 48.147-47.603zm48.427-105.955c0 7.037-4.18 13.057-10.243 15.702V111.36a17.065 17.065 0 0 1 10.242 15.704zM321.47 12.225c32.5 0 60.92 17.735 76.144 44.02h-152.29c15.225-26.286 43.644-44.02 76.145-44.02zm8.46 87.18c-15.13-2.77-27.084-14.727-29.856-29.854 15.126 2.773 27.083 14.728 29.855 29.856zm-43.3-29.854c-2.772 15.128-14.727 27.085-29.855 29.856 2.772-15.128 14.728-27.083 29.855-29.854zm-75.57 57.515a17.068 17.068 0 0 1 10.23-15.702v31.403a17.065 17.065 0 0 1-10.23-15.7zm22.456-26.886a87.458 87.458 0 0 1 5.937-31.707h21.958c-10.674 9.07-17.467 22.58-17.467 37.655v6.113h6.113c18.63 0 34.882-10.366 43.298-25.633 8.417 15.267 24.667 25.634 43.3 25.634h6.112v-6.112c0-15.074-6.793-28.584-17.47-37.655h41.584v18.34h12.225V68.47h7.64v25.98h12.227V68.47h4.514a87.458 87.458 0 0 1 5.937 31.706v54.237c0 48.497-39.456 87.952-87.952 87.952s-87.95-39.454-87.95-87.952v-54.237h-.003zm-64.79 299.296c-4.978 4.987-11.6 7.733-18.643 7.733-7.042 0-13.664-2.747-18.65-7.74-4.984-4.98-7.73-11.6-7.73-18.643 0-7.044 2.746-13.664 7.734-18.647l13.914-13.917 38.03 36.56-14.65 14.652zm23.3-23.298l-38.03-36.563 64.287-64.295a108.028 108.028 0 0 0-4.184 29.86v48.92l-22.076 22.075zm34.3-71c0-21.43 7.066-41.68 19.83-58.134l30.777 60.42 37.984-16.693v150.77h-88.59V305.18zm89.034 148.59v123.304a41.13 41.13 0 0 0-29.01-11.893 41.128 41.128 0 0 0-29 11.886v-68.162a25.193 25.193 0 0 0 14.158 4.336c13.97 0 25.333-11.365 25.333-25.332 0-13.97-11.362-25.333-25.33-25.333-5.24 0-10.115 1.6-14.16 4.336v-13.14h58.01zm-.736 146.007h-56.547c2.92-13.286 14.475-22.373 28.274-22.373 13.8 0 25.356 9.088 28.275 22.374zM258.4 487.905c0-7.228 5.88-13.11 13.108-13.11s13.108 5.88 13.108 13.11c0 7.226-5.88 13.105-13.108 13.105-7.227 0-13.108-5.88-13.108-13.106zm69.912 111.87c2.92-13.287 14.475-22.374 28.274-22.374 13.798 0 25.355 9.09 28.274 22.375h-56.548zm57.286-22.703a41.137 41.137 0 0 0-29.012-11.896 41.132 41.132 0 0 0-29 11.885V453.77h58.01v123.3zm31.007-135.53h-89.462V290.385l38.86 17.078 30.772-60.41c12.846 16.585 19.832 36.816 19.832 58.124v136.365h-.002zm7.745-167.195l66.75 66.75-38.027 36.56-24.244-24.243v-48.237a107.64 107.64 0 0 0-4.48-30.83zm49.594 139.75c5.873 3.477 12.588 5.335 19.592 5.335 10.31 0 20.004-4.02 27.29-11.315.093-.092.177-.186.267-.28 14.332 7.328 23.85 22.526 24.447 39.367h-86.936c.45-12.83 6.05-24.837 15.34-33.107zm57.382 132.688h-57.874L459.89 459.43h84.39l-12.954 87.355z"/>
  <path d="M386.37 322.432a21.94 21.94 0 0 0-14.814 5.74 21.866 21.866 0 0 0-6.07 9.408 28.284 28.284 0 0 0-12.556 6.665c-5.66 5.16-8.97 12.198-9.32 19.85-.353 7.652 2.296 14.946 7.458 20.607 5.42 5.943 13.144 9.28 21.192 9.28h.002c7.16 0 14.023-2.588 19.317-7.42a28.6 28.6 0 0 0 9.013-25.366 21.842 21.842 0 0 0 7.75-15.763 21.848 21.848 0 0 0-5.72-15.83 22.036 22.036 0 0 0-16.253-7.172zm6.584 29.208a9.614 9.614 0 0 1-2.078 1.433l-4.58 2.39 1.59 4.912c1.985 6.137.202 12.898-4.545 17.228a16.403 16.403 0 0 1-11.076 4.296h-.002c-4.617 0-9.05-1.957-12.16-5.366a16.34 16.34 0 0 1-4.278-11.842c.202-4.39 2.1-8.437 5.347-11.397 2.734-2.496 6.145-3.96 9.863-4.233l5.164-.38.474-5.156a9.74 9.74 0 0 1 3.125-6.318 9.743 9.743 0 0 1 6.576-2.55 9.657 9.657 0 0 1 7.22 3.183 9.704 9.704 0 0 1 2.54 7.03 9.69 9.69 0 0 1-3.175 6.768z"/>
  <circle cx="281.156" cy="138.697" r="14.44"/>
  <circle cx="361.78" cy="138.697" r="14.44"/>
</svg>