<?xml version="1.0" encoding="iso-8859-1"?>
<!-- Generator: Adobe Illustrator 18.0.0, SVG Export Plug-In . SVG Version: 6.00 Build 0)  -->
<!DOCTYPE svg PUBLIC "-//W3C//DTD SVG 1.1//EN" "http://www.w3.org/Graphics/SVG/1.1/DTD/svg11.dtd">
<svg version="1.1" id="Capa_1" xmlns="http://www.w3.org/2000/svg" xmlns:xlink="http://www.w3.org/1999/xlink" x="0px" y="0px"
	 viewBox="0 0 69.247 88.249" style="enable-background:new 0 0 69.247 88.249;" xml:space="preserve">
<g>
	<path d="M69.244,88.249v-2.063c0-0.138,0.001-0.268,0.001-0.393c0.001-0.266,0.003-0.518-0.003-0.778
		c-0.156-7.878-0.814-15.52-1.956-22.716c-1.355-8.534-3.246-16.24-5.781-23.56c-3.334-9.626-7.316-17.608-12.172-24.4
		C45.195,8.55,40.758,4.111,35.772,0.77L34.623,0l-1.148,0.77c-4.987,3.342-9.423,7.78-13.562,13.569
		c-4.856,6.792-8.838,14.774-12.172,24.4c-2.535,7.32-4.426,15.026-5.781,23.56c-1.142,7.195-1.8,14.838-1.956,22.716
		C-0.001,85.275,0,85.527,0.001,85.794c0.001,0.124,0.001,0.254,0.001,0.392v2.063H69.244z M6.953,84.123l3.618-6.945
		c0.015-0.029,0.054-0.108,0.113-0.236c1.291-2.751,6.077-12.233,13.434-18.714l0.506-0.446l0.569-2.586l1.602,1.343l7.826-2.525
		l7.826,2.525l1.603-1.343l0.569,2.586l0.506,0.446c7.358,6.481,12.143,15.963,13.435,18.714c0.06,0.128,0.099,0.207,0.114,0.236
		l3.618,6.945H6.953z M11.773,66.55c0.406-3.354,1.016-6.859,2.142-10.316c1.774-5.449,4.531-9.767,8.398-13.137l5.276,7.476
		l0.486-5.624c0.058-0.676,0.116-1.334,0.173-1.98c0.113-1.293,0.222-2.534,0.323-3.764l2.373-0.869
		c0.338,0.677,0.686,1.354,1.046,2.052c0.261,0.508,0.527,1.023,0.793,1.55l1.657,3.271l-2.094,4.424
		c-0.15,0.317-0.295,0.623-0.437,0.923l-4.21,1.359l-5.071-4.249l-1.745,7.923C17.161,58.976,14.11,62.956,11.773,66.55z
		 M34.807,45.208l1.657-3.271c0.267-0.526,0.532-1.041,0.793-1.549c0.359-0.699,0.708-1.376,1.046-2.053l2.374,0.869
		c0.101,1.23,0.21,2.47,0.323,3.763c0.057,0.646,0.115,1.305,0.173,1.981l0.486,5.624l5.276-7.476
		c3.867,3.371,6.624,7.689,8.398,13.137c1.126,3.458,1.735,6.962,2.142,10.316c-2.337-3.594-5.388-7.574-9.111-10.962l-1.745-7.923
		l-5.071,4.249l-4.21-1.359c-0.141-0.299-0.286-0.604-0.435-0.92L34.807,45.208z M6.035,62.946
		c1.316-8.292,3.15-15.768,5.605-22.856c3.203-9.247,7.007-16.885,11.63-23.351c0.996-1.393,2.009-2.7,3.041-3.926
		c1.456-0.235,2.825-0.807,3.782-2.023c0.697-0.885,1.082-1.977,1.171-3.095c1.092-0.971,2.211-1.87,3.359-2.698
		c1.148,0.829,2.267,1.727,3.359,2.698c0.089,1.118,0.474,2.21,1.171,3.095c0.957,1.216,2.327,1.788,3.783,2.023
		c1.033,1.226,2.045,2.533,3.041,3.926c4.623,6.466,8.427,14.104,11.63,23.351c2.455,7.088,4.288,14.565,5.605,22.856
		c1.066,6.713,1.699,13.832,1.884,21.177h-1.569l-0.973-8.143c-0.153-1.277-0.278-2.696-0.411-4.197
		c-0.431-4.872-0.968-10.936-2.887-16.827c-2.29-7.033-6.054-12.43-11.506-16.499l-1.698-1.267l-1.255,1.779
		c-0.039-0.471-0.077-0.939-0.113-1.407l-0.103-1.322l-8.395-3.074l-0.799,1.721c-0.245,0.528-0.5,1.052-0.764,1.581
		c-0.264-0.529-0.519-1.053-0.764-1.581l-0.799-1.72l-8.395,3.074l-0.103,1.322c-0.036,0.468-0.074,0.936-0.113,1.407l-1.255-1.779
		l-1.698,1.267c-5.452,4.069-9.216,9.465-11.506,16.499c-1.918,5.891-2.455,11.955-2.886,16.827
		c-0.133,1.502-0.259,2.92-0.411,4.197L5.72,84.123H4.151C4.336,76.778,4.969,69.659,6.035,62.946z"/>
</g>
<g>
</g>
<g>
</g>
<g>
</g>
<g>
</g>
<g>
</g>
<g>
</g>
<g>
</g>
<g>
</g>
<g>
</g>
<g>
</g>
<g>
</g>
<g>
</g>
<g>
</g>
<g>
</g>
<g>
</g>
</svg>
