<?xml version="1.0" encoding="iso-8859-1"?>
<!-- Generator: Adobe Illustrator 18.0.0, SVG Export Plug-In . SVG Version: 6.00 Build 0)  -->
<!DOCTYPE svg PUBLIC "-//W3C//DTD SVG 1.1//EN" "http://www.w3.org/Graphics/SVG/1.1/DTD/svg11.dtd">
<svg version="1.1" id="Capa_1" xmlns="http://www.w3.org/2000/svg" xmlns:xlink="http://www.w3.org/1999/xlink" x="0px" y="0px"
	 viewBox="0 0 68.226 92.117" style="enable-background:new 0 0 68.226 92.117;" xml:space="preserve">
<g>
	<path d="M65.376,44.587c-0.627-3.338-1.33-6.045-1.991-8.174c0.771-0.236,1.458-0.552,2.054-0.95
		c1.272-0.849,2.788-2.499,2.788-5.536c0-10.832-0.862-15.45-6.254-23.238c-1.657-2.394-3.557-4.166-5.647-5.265
		C54.505,0.465,52.566,0,50.397,0c-2.098,0-4.047,0.444-5.708,0.861c-3.715,0.932-9.558,1.33-10.575,1.394
		c-1.017-0.064-6.86-0.462-10.575-1.394C21.876,0.444,19.927,0,17.829,0c-2.169,0-4.108,0.465-5.928,1.423
		c-2.09,1.1-3.99,2.871-5.647,5.265C0.862,14.476,0,19.095,0,29.926c0,3.037,1.516,4.687,2.788,5.536
		c0.596,0.398,1.283,0.714,2.054,0.95c-0.661,2.129-1.365,4.836-1.991,8.174c-1.07,5.696-1.712,12.122-1.91,19.097
		c-0.246,8.675,0.2,18.241,1.324,28.433l4.464-0.492c-1.088-9.86-1.527-19.11-1.307-27.493c0.176-6.701,0.772-12.865,1.77-18.321
		c0.663-3.624,1.419-6.451,2.095-8.554c0.216,0.551,0.523,1.179,0.959,1.807c0.063,0.09,0.13,0.182,0.199,0.274
		c-0.858,3.109-1.558,6.541-2.094,10.273C7.501,55.517,7.054,62.202,7.02,69.48C6.964,81.835,8.103,91.499,8.152,91.904l4.362-0.522
		l0,0h0c-0.006-0.048-0.215-1.822-0.449-4.77c4.774,1.475,9.873,2.431,15.202,2.847c2.071,0.161,4.179,0.242,6.314,0.242
		c0.177,0,0.354-0.003,0.531-0.004c0.177,0.001,0.355,0.004,0.531,0.004c2.135,0,4.243-0.081,6.314-0.242
		c5.329-0.416,10.428-1.372,15.202-2.847c-0.234,2.948-0.443,4.723-0.449,4.77h0l0,0l4.362,0.522
		c0.049-0.405,1.188-10.069,1.132-22.424c-0.033-7.278-0.481-13.962-1.33-19.868c-0.537-3.732-1.237-7.164-2.094-10.273
		c0.07-0.092,0.136-0.184,0.199-0.274c0.436-0.629,0.743-1.257,0.959-1.807c0.676,2.103,1.432,4.93,2.095,8.554
		c0.999,5.456,1.594,11.62,1.77,18.321c0.22,8.383-0.22,17.633-1.307,27.493l4.464,0.492c1.124-10.191,1.569-19.757,1.324-28.433
		C67.088,56.709,66.445,50.284,65.376,44.587z M56.487,81.782c-4.901,1.677-10.21,2.751-15.805,3.193
		c-2.15,0.17-4.343,0.247-6.569,0.232c-2.225,0.015-4.419-0.063-6.568-0.232c-5.595-0.442-10.904-1.516-15.805-3.193
		c-0.118-2.102-0.219-4.466-0.276-7.008c4.947,1.583,10.25,2.604,15.805,3.038c2.071,0.162,4.179,0.242,6.314,0.242
		c0.177,0,0.354-0.003,0.531-0.004c0.177,0.001,0.355,0.004,0.531,0.004c2.135,0,4.243-0.081,6.314-0.242
		c5.555-0.433,10.858-1.455,15.805-3.038C56.706,77.316,56.604,79.68,56.487,81.782z M40.682,73.328
		c-2.15,0.17-4.343,0.247-6.569,0.233c-2.225,0.015-4.419-0.063-6.568-0.233c-5.719-0.452-11.141-1.563-16.132-3.305
		c0-0.191,0.001-0.383,0.002-0.576c0.01-2.157,0.059-4.255,0.143-6.291c4.745,1.51,9.818,2.502,15.124,2.957
		c-0.027,0.177-0.054,0.351-0.082,0.52l-0.821,4.971l7.85-5.198c0.161,0,0.323-0.002,0.484-0.003
		c0.161,0.001,0.323,0.003,0.484,0.003l7.85,5.198l-0.821-4.971c-0.028-0.169-0.055-0.342-0.082-0.52
		c5.306-0.455,10.378-1.447,15.124-2.957c0.085,2.036,0.133,4.134,0.144,6.291c0.001,0.193,0.001,0.385,0.002,0.576
		C51.822,71.765,46.401,72.876,40.682,73.328z M14.27,42.095c0.907,0.306,1.965,0.493,3.199,0.493c0,0,0,0,0.001,0
		c0.236,0,0.479-0.007,0.722-0.021c2.698-0.155,4.646-0.418,6.529-0.673c1.123-0.152,2.219-0.3,3.445-0.419
		c-0.062,2.707-0.148,5.648-0.265,8.585c-0.119-0.009-0.238-0.017-0.356-0.026c-5.053-0.399-9.873-1.315-14.37-2.723
		C13.497,45.481,13.862,43.741,14.27,42.095z M13.742,36.386c0.804-0.153,1.623-0.336,2.452-0.545
		c4.122-1.037,8.466-2.699,12.125-4.463c-0.01,1.369-0.03,3.339-0.068,5.677c-1.53,0.135-2.836,0.311-4.119,0.485
		c-1.802,0.243-3.664,0.495-6.194,0.641c-0.159,0.009-0.317,0.014-0.47,0.014h0c-0.762,0-1.421-0.113-1.986-0.339
		c-0.673-0.269-1.213-0.699-1.628-1.297C13.815,36.501,13.778,36.444,13.742,36.386z M27.268,54.517
		c0.141,0.011,0.283,0.021,0.425,0.031c-0.134,2.52-0.297,4.941-0.493,7.103c-5.436-0.456-10.6-1.509-15.377-3.135
		c0.171-2.335,0.395-4.576,0.671-6.716C17.144,53.201,22.097,54.114,27.268,54.517z M31.531,62.526
		c0.02-0.21,0.039-0.423,0.059-0.637c0.198-2.197,0.361-4.628,0.496-7.143c0.079-1.477,0.148-2.984,0.209-4.488
		c0.125-3.106,0.214-6.205,0.277-9.032c0.017-0.754,0.032-1.488,0.045-2.198c0.014-0.763,0.027-1.498,0.037-2.197
		c0.046-3.026,0.062-5.408,0.067-6.636l1.392-1.459l1.392,1.459c0.005,1.229,0.021,3.61,0.067,6.636
		c0.011,0.7,0.023,1.435,0.037,2.197c0.013,0.71,0.028,1.444,0.045,2.198c0.063,2.827,0.152,5.926,0.277,9.032
		c0.061,1.505,0.13,3.011,0.209,4.488c0.135,2.515,0.298,4.946,0.496,7.143c0.019,0.215,0.039,0.427,0.059,0.637l-0.936-0.62
		l-1.646-1.09l-1.646,1.09L31.531,62.526z M40.682,50.034c-0.118,0.009-0.237,0.017-0.356,0.026
		c-0.118-2.937-0.203-5.878-0.265-8.585c1.226,0.119,2.322,0.267,3.445,0.419c1.884,0.255,3.832,0.518,6.53,0.673
		c0.243,0.014,0.486,0.021,0.722,0.021c0,0,0,0,0,0c1.234,0,2.292-0.187,3.199-0.493c0.408,1.647,0.773,3.387,1.096,5.216
		C50.554,48.719,45.735,49.635,40.682,50.034z M55.733,51.8c0.276,2.14,0.5,4.381,0.671,6.716
		c-4.777,1.626-9.941,2.679-15.377,3.135c-0.197-2.162-0.359-4.583-0.493-7.103c0.142-0.01,0.284-0.02,0.425-0.031
		C46.129,54.114,51.082,53.201,55.733,51.8z M54.371,36.559c-0.415,0.598-0.955,1.028-1.628,1.297
		c-0.565,0.226-1.225,0.339-1.986,0.339h-0.001c-0.152,0-0.31-0.005-0.47-0.014c-2.529-0.146-4.392-0.397-6.194-0.641
		c-1.283-0.173-2.589-0.35-4.119-0.485c-0.038-2.338-0.058-4.308-0.068-5.677c3.66,1.764,8.004,3.427,12.125,4.463
		c0.829,0.208,1.649,0.391,2.452,0.545C54.448,36.444,54.411,36.501,54.371,36.559z M62.998,31.809
		c-0.236,0.158-0.588,0.329-1.105,0.466c-0.409,0.108-0.92,0.194-1.56,0.233c-0.246,0.015-0.509,0.024-0.794,0.024h-0.001
		c-0.473,0-0.968-0.023-1.482-0.067c-0.296-0.025-0.598-0.058-0.905-0.096c-0.424-0.053-0.857-0.118-1.3-0.195
		c-0.206-0.036-0.414-0.074-0.623-0.115c-0.619-0.12-1.251-0.26-1.893-0.418c-6.844-1.686-14.768-5.406-17.842-7.979l-0.725-0.607
		l-0.44-0.462l-0.214-0.225l-0.214,0.225l-0.44,0.462l-0.725,0.607c-3.074,2.573-10.999,6.293-17.842,7.979
		c-0.642,0.158-1.275,0.298-1.893,0.418c-0.21,0.041-0.417,0.079-0.623,0.115c-0.442,0.077-0.876,0.142-1.299,0.195
		c-0.307,0.039-0.609,0.071-0.905,0.096c-0.514,0.044-1.01,0.067-1.483,0.067H8.687c-0.285,0-0.548-0.008-0.794-0.024
		c-0.64-0.039-1.152-0.125-1.56-0.233c-0.517-0.137-0.869-0.308-1.105-0.466c-0.412-0.275-0.834-0.715-0.834-1.883
		c0-7.874,0.501-11.838,2.592-16.015c0.856-0.313,2.643-0.886,4.988-1.213c0.057-0.008,0.115-0.015,0.172-0.023
		c-0.577,1.989,0.03,4.005,1.585,4.822c1.84,0.968,4.31-0.108,5.517-2.403c0.388-0.737,0.597-1.51,0.642-2.252
		c1.512,0.284,2.984,0.721,4.409,1.309l1.676-4.061C20.03,7.637,14.369,7.803,10.372,8.496c2.806-3.659,5.577-4.102,7.457-4.102
		c1.597,0,3.168,0.36,4.64,0.729c4.467,1.12,11.264,1.512,11.551,1.528l0.093,0.005l0.093-0.005
		c0.287-0.016,7.083-0.408,11.551-1.528c1.472-0.369,3.042-0.729,4.64-0.729c1.88,0,4.651,0.443,7.457,4.102
		c-3.997-0.692-9.658-0.858-15.603,1.595l1.676,4.061c1.425-0.588,2.897-1.024,4.409-1.309c0.046,0.742,0.255,1.515,0.642,2.252
		c1.207,2.294,3.676,3.37,5.516,2.403c1.555-0.818,2.162-2.833,1.586-4.822c0.057,0.008,0.115,0.015,0.172,0.023
		c2.345,0.327,4.132,0.901,4.988,1.213c2.091,4.177,2.592,8.141,2.592,16.015C63.832,31.094,63.411,31.534,62.998,31.809z"/>
	<path d="M37.123,15.36c-0.659-0.347-1.543,0.039-1.975,0.86c-0.29,0.551-0.301,1.158-0.079,1.603
		c0.109,0.218,0.273,0.398,0.49,0.512c0.659,0.347,1.543-0.039,1.976-0.86c0.066-0.126,0.116-0.255,0.154-0.384
		C37.896,16.377,37.681,15.653,37.123,15.36z"/>
	<path d="M31.103,15.36c-0.558,0.293-0.773,1.017-0.565,1.731c0.038,0.129,0.088,0.258,0.154,0.384
		c0.432,0.822,1.317,1.207,1.976,0.86c0.217-0.114,0.381-0.294,0.49-0.512c0.222-0.445,0.211-1.052-0.079-1.603
		C32.647,15.398,31.762,15.013,31.103,15.36z"/>
</g>
<g>
</g>
<g>
</g>
<g>
</g>
<g>
</g>
<g>
</g>
<g>
</g>
<g>
</g>
<g>
</g>
<g>
</g>
<g>
</g>
<g>
</g>
<g>
</g>
<g>
</g>
<g>
</g>
<g>
</g>
</svg>
