<?xml version="1.0" encoding="iso-8859-1"?>
<!-- Generator: Adobe Illustrator 18.0.0, SVG Export Plug-In . SVG Version: 6.00 Build 0)  -->
<!DOCTYPE svg PUBLIC "-//W3C//DTD SVG 1.1//EN" "http://www.w3.org/Graphics/SVG/1.1/DTD/svg11.dtd">
<svg version="1.1" id="Capa_1" xmlns="http://www.w3.org/2000/svg" xmlns:xlink="http://www.w3.org/1999/xlink" x="0px" y="0px"
	 viewBox="0 0 97.553 82.173" style="enable-background:new 0 0 97.553 82.173;" xml:space="preserve">
<g>
	<path d="M86.01,17.593c-2.053-1.539-3.992-2.994-5.416-4.572c-1.309-1.45-3.229-2.791-5.743-4.017
		c-2.782-2.825-5.39-3.124-7.492-3.363c-1.609-0.183-2.88-0.327-4.453-1.598c-5.046-4.076-13.352-4.053-14.129-4.043
		C48-0.011,39.694-0.032,34.648,4.044c-1.573,1.27-2.844,1.415-4.453,1.598c-2.102,0.239-4.71,0.537-7.492,3.363
		c-2.515,1.226-4.435,2.566-5.744,4.017c-1.424,1.578-3.363,3.032-5.416,4.572c-3.301,2.476-7.043,5.282-9.331,9.286
		c-2.677,4.684-2.921,10.133-0.745,16.66c2.429,7.287,7.105,17.702,15.587,25.93c8.689,8.429,19.362,12.703,31.723,12.703
		S71.811,77.899,80.5,69.47c8.482-8.229,13.158-18.643,15.587-25.93c2.175-6.526,1.932-11.976-0.745-16.66
		C93.054,22.875,89.312,20.069,86.01,17.593z M80.646,24.186c0.491,0.894,0.661,1.839,0.686,2.662
		c-1.482-0.792-2.225-2.341-2.745-4.805C79.504,22.643,80.192,23.359,80.646,24.186z M75.433,18.164L75.433,18.164L75.433,18.164
		L75.433,18.164z M22.12,18.164L22.12,18.164L22.12,18.164L22.12,18.164z M16.908,24.186c0.454-0.828,1.142-1.543,2.058-2.143
		c-0.519,2.464-1.262,4.012-2.745,4.805C16.246,26.026,16.417,25.081,16.908,24.186z M76.985,65.846
		c-0.214,0.208-0.43,0.411-0.646,0.613c-1.124-1.188-2.757-1.853-4.367-2.089c-2.108-0.309-4.403-0.06-6.253,1.059
		c-1.075,0.65-1.694,1.636-2.318,2.692c-0.252,0.427-0.519,0.864-0.938,1.145c-0.523,0.351-1.169,0.403-1.78,0.426
		c-1.388,0.052-2.759-0.022-4.004,0.707c-0.941,0.551-1.551,1.536-1.705,2.604c-0.179,1.247,0.056,2.449,0.373,3.641
		c-2.125,0.318-4.315,0.48-6.569,0.48c-3.791,0-7.401-0.451-10.822-1.347c0.017-0.761-0.135-1.526-0.29-2.267
		c-0.224-1.072-0.499-2.154-0.94-3.159c-0.431-0.982-1.198-1.845-1.917-2.626c-1.662-1.807-3.763-3.566-6.111-4.38
		c-2.247-0.779-4.267,0.151-6.078,1.447c-0.609,0.436-1.216,0.881-1.857,1.238c-0.064-0.062-0.129-0.121-0.193-0.183
		c-7.751-7.52-12.062-17.149-14.313-23.904c-1.719-5.156-1.611-9.147,0.339-12.559c1.192-2.085,3.012-3.839,5.005-5.461
		c-1.003,3.552,0.089,6.734,0.145,6.892l0.649,1.836l1.941-0.162c3.825-0.319,6.593-2.116,8.227-5.343
		c1.281-2.529,1.655-5.462,2.016-8.298l0.085-0.664c0.001-0.007,0.002-0.013,0.003-0.02c0.234-1.816,0.533-3.916,1.21-5.071
		c0.104-0.178,0.218-0.334,0.341-0.463c1.568-1.634,2.754-1.768,4.549-1.972c1.933-0.22,4.34-0.493,7.055-2.687
		c3.103-2.506,8.919-2.961,10.894-2.922l0.028,0.001l0.095-0.001c1.979-0.037,7.794,0.416,10.898,2.922
		c2.716,2.193,5.122,2.467,7.055,2.687c1.795,0.204,2.98,0.339,4.549,1.972c0.123,0.129,0.237,0.285,0.341,0.463
		c0.677,1.155,0.976,3.255,1.21,5.071c0.001,0.007,0.002,0.014,0.003,0.021l0.085,0.663c0.361,2.836,0.735,5.769,2.016,8.298
		c1.635,3.227,4.403,5.025,8.227,5.343l1.941,0.162l0.649-1.836c0.056-0.159,1.148-3.34,0.145-6.892
		c1.993,1.622,3.813,3.376,5.005,5.461c0.002,0.003,0.003,0.006,0.005,0.009c-0.485,0.483-0.942,0.993-1.346,1.56
		c-0.978,1.375-1.206,3.001-1.257,4.646c-0.047,1.527,0.153,3.086,0.779,4.488c0.44,0.986,1.113,1.827,1.943,2.488
		C88.778,49.288,84.497,58.558,76.985,65.846z"/>
	<path d="M45.37,18.164h0.035c0.966,0,1.749-0.783,1.749-1.749v-6.251c0-0.966-0.783-1.749-1.749-1.749H45.37
		c-0.966,0-1.749,0.783-1.749,1.749v6.251C43.621,17.381,44.404,18.164,45.37,18.164z"/>
	<path d="M52.334,18.164h0.035c0.966,0,1.749-0.783,1.749-1.749v-6.251c0-0.966-0.783-1.749-1.749-1.749h-0.035
		c-0.966,0-1.749,0.783-1.749,1.749v6.251C50.585,17.381,51.368,18.164,52.334,18.164z"/>
	<path d="M48.87,40.247c-0.001,0-0.002,0-0.003,0C29.257,40.25,13.82,50.051,13.82,50.051l0.976,2.439
		c12.68-6.561,55.469-6.561,68.149,0l0.976-2.439c0,0-15.438-9.801-35.047-9.803C48.872,40.247,48.871,40.247,48.87,40.247z"/>
	<path d="M34.234,33.857c0.765,0.739,1.998,0.906,3.013,0.808c2.141-0.207,3.752-1.93,3.42-4.125
		c-0.129-0.853-0.531-1.589-1.134-2.198c-0.155-0.157-0.526-0.418-0.557-0.66c-0.069-0.531-0.031-0.977-0.28-1.474
		c-1.003-2.005-4.796-3.892-6.934-2.45c-0.769,0.519-1.087,1.36-1.191,2.246c-0.266,2.268,1.679,3.828,2.539,5.713
		C33.428,32.412,33.624,33.268,34.234,33.857z"/>
</g>
<g>
</g>
<g>
</g>
<g>
</g>
<g>
</g>
<g>
</g>
<g>
</g>
<g>
</g>
<g>
</g>
<g>
</g>
<g>
</g>
<g>
</g>
<g>
</g>
<g>
</g>
<g>
</g>
<g>
</g>
</svg>
