<?xml version="1.0" encoding="UTF-8" standalone="yes"?>
<svg xmlns="http://www.w3.org/2000/svg" viewBox="0 0 80.358 95.093">
  <path d="M22.717 26.965l6.24-5.878s-9.92-5.094-6.24 5.878zM59.39 26.965l-6.24-5.878s9.92-5.094 6.24 5.878zM38.92 12.463a14.442 14.442 0 0 1 2.517 0c1.278.11 2.455.39 3.345.8l1.847-3.997c-1.45-.67-3.26-1.09-5.193-1.22a19.336 19.336 0 0 0-2.516 0c-1.933.13-3.742.55-5.19 1.22l1.846 3.997c.89-.41 2.067-.69 3.345-.8z"/>
  <path d="M77.483 22.338a36.44 36.44 0 0 0-7.837-11.625A36.452 36.452 0 0 0 58.02 2.876 36.33 36.33 0 0 0 43.784 0h-7.209a36.34 36.34 0 0 0-14.237 2.875 36.44 36.44 0 0 0-11.625 7.837 36.44 36.44 0 0 0-7.837 11.625A36.33 36.33 0 0 0 0 36.575v51.572h4.403V52.854l3.323 2.177c.51-.776 1.234-1.474 2.062-2.09.003 1.27.07 2.47.203 3.607C8.353 58.09 6.85 60.14 6.09 62.81l4.234 1.208c.225-.787.554-1.5.95-2.147.546 1.374 1.242 2.585 2.087 3.628-.946 2.098-1.643 4.61-1.784 7.564l4.398.21c.08-1.71.4-3.328.95-4.85 1.495.757 4.147.618 4.147.618 2.102 10.056 9.555 25.34 9.905 26.054l4.072-1.646c-2.012-6.23-2.21-16.688-2.047-24.074h14.357c.165 7.386-.034 17.845-2.046 24.074l4.073 1.646c.35-.715 7.803-15.998 9.904-26.054 0 0 2.652.14 4.148-.618.55 1.522.868 3.14.95 4.85l4.397-.21c-.14-2.954-.838-5.466-1.783-7.564.844-1.043 1.54-2.254 2.086-3.627.396.647.726 1.36.95 2.148l4.234-1.21c-.762-2.67-2.264-4.72-3.903-6.26.132-1.137.2-2.34.203-3.61.828.618 1.553 1.315 2.062 2.093l3.323-2.176v35.294h4.403V36.575a36.34 36.34 0 0 0-2.875-14.237zm-48.847 56.27c-1.57-4.133-2.957-8.4-3.486-11.695a102.514 102.514 0 0 0 3.59-2.07c-.045.984-.088 2.102-.123 3.32-.086 3.033-.117 6.688.02 10.444zm12.8-13.637h-8.289c.06-1.342.123-2.42.168-3.133.974-.687 1.83-1.307 2.604-1.87 1.236-.895 2.225-1.612 3-2.092a6.27 6.27 0 0 1 .128-.078c.827-.5 1.1-.523 1.127-.524h.01c.026 0 .3.025 1.126.524.043.025.085.05.128.078.776.48 1.765 1.197 3 2.093.775.562 1.63 1.182 2.605 1.87.045.713.108 1.79.168 3.133h-5.773zm10.287 13.637c.135-3.756.104-7.41.02-10.442-.035-1.22-.08-2.338-.124-3.32a93.258 93.258 0 0 0 3.59 2.07c-.53 3.294-1.918 7.56-3.487 11.692zm24.232-26.503c-1.52-2.036-3.776-3.538-5.893-4.6-.707-3.448-2.29-7.08-5.576-9.754a14.622 14.622 0 0 0-2.044-1.393 171.427 171.427 0 0 0 .122-3.283c1.303-.82 3.2-2.39 4.113-4.935.93-2.603.576-5.477-1.054-8.543-1.866-3.508-4.156-5.58-6.807-6.157-3.054-.666-5.285.954-5.53 1.14l2.676 3.5-.034.024c.036-.025.896-.615 2.004-.35 1.293.31 2.608 1.662 3.804 3.91 1.017 1.913 1.288 3.582.806 4.962-.707 2.024-2.857 3.027-3 3.09l-1.346.538v1.444c-.04 1.75-.11 3.805-.18 4.843l-.36 2.65-.018-.003c.02.003 2.152.348 4.23 2.113 1.308 1.11 2.592 4.114 2.548 4.104l-.503 2.143-.506 2.143c.606.144 1.57.432 2.664.857.056.613.088 1.247.096 1.904.005.392.002.775-.007 1.15-1.36-.702-2.364-1.024-2.48-1.06l-.655 2.102-.665 2.098c.03.01 1.527.502 3.217 1.624-.273 1.117-.64 2.11-1.097 2.973-2.148-2.744-4.324-4.09-4.497-4.195l-2.276 3.77-.01-.007c.016.01 1.62 1.013 3.238 3.054.15.188.294.38.434.572 0 0-7.008-2.966-10.934-5.693-1.316-.915-2.43-1.724-3.414-2.437-2.465-1.788-4.062-2.945-5.586-3.36a4.724 4.724 0 0 0-1.255-.174h-.002-.003c-.424 0-.836.058-1.255.172-1.524.416-3.12 1.573-5.586 3.36-.984.714-2.1 1.523-3.414 2.437-3.926 2.726-10.933 5.692-10.933 5.692.14-.193.284-.384.434-.573 1.62-2.042 3.223-3.045 3.24-3.055l-.01.006-2.277-3.768c-.173.105-2.35 1.45-4.497 4.195-.457-.862-.824-1.856-1.097-2.973 1.69-1.122 3.186-1.614 3.216-1.624l-.663-2.1-.656-2.1c-.116.035-1.12.357-2.48 1.06-.008-.376-.01-.758-.006-1.15.01-.657.04-1.29.096-1.904a21.6 21.6 0 0 1 2.664-.857l-.506-2.144-.503-2.143c-.043.01 1.24-2.994 2.548-4.104 2.08-1.766 4.21-2.11 4.23-2.114l-.018.003-.36-2.65c-.068-1.038-.14-3.092-.178-4.843v-1.444l-1.347-.537c-.142-.064-2.293-1.067-3-3.09-.482-1.38-.21-3.05.807-4.962 1.196-2.248 2.51-3.6 3.804-3.91 1.107-.267 1.968.323 2.004.35a.608.608 0 0 1-.034-.026l2.675-3.498c-.243-.187-2.474-1.807-5.528-1.14-2.65.577-4.94 2.648-6.807 6.156-1.63 3.066-1.986 5.94-1.054 8.542.912 2.547 2.81 4.115 4.114 4.935.014.48.03 1.05.052 1.622.024.66.046 1.205.07 1.66-.658.372-1.35.83-2.044 1.394-3.286 2.673-4.87 6.305-5.576 9.754-2.117 1.06-4.374 2.563-5.893 4.6v-15.53c0-8.592 3.346-16.67 9.423-22.748 6.077-6.077 14.155-9.423 22.75-9.423h7.208c8.593 0 16.672 3.346 22.75 9.423 6.075 6.076 9.422 14.155 9.422 22.75v15.528z"/>
  <path d="M45.89 30.142a13.317 13.317 0 0 0-5.71-1.24 13.335 13.335 0 0 0-5.71 1.24c-2.2 1.015-3.95 2.22-5.2 3.577-.485.525-1.96 2.125-1.2 3.858.403.916 1.294 1.475 2.397 1.507l8.455.65 1.258.098 1.258-.097 8.455-.65c1.103-.034 1.994-.592 2.396-1.508.76-1.733-.715-3.334-1.2-3.86-1.25-1.357-3-2.56-5.2-3.576zm-4.453 5.277l-1.258.096-1.26-.097-4.545-.35a16.844 16.844 0 0 1 1.897-1.02 9.114 9.114 0 0 1 2.65-.77c.416-.055.835-.08 1.257-.074.42-.006.84.018 1.257.073a9.123 9.123 0 0 1 2.65.77c.7.325 1.333.664 1.896 1.02l-4.546.35z"/>
</svg>