<?xml version="1.0" encoding="UTF-8" standalone="yes"?>
<svg xmlns="http://www.w3.org/2000/svg" viewBox="0 0 63.954 101.944">
  <path d="M16.935 86.71c0 2.454 1.368 3.567 3.056 3.567s1.69-8.882 0-8.882-3.055 2.863-3.055 5.316zM37.12 90.276c1.69 0 3.057-1.113 3.057-3.566s-1.368-5.316-3.056-5.316-1.687 8.882 0 8.882z"/>
  <path d="M7.083 34.735c-1.75 4.173-2.567 9.022-2.32 13.926.29 5.738 1.985 11.037 4.773 14.923 1.8 2.507 3.39 5.18 4.89 7.873 1.29 2.314.91 4.408-.68 6.5-3.136 4.128-4.11 9.39-2.484 13.41.96 2.37 2.77 4.046 5.056 4.725.495.67 1.295 1.602 2.445 2.528 3.383 2.722 7.186 3.31 9.78 3.327h.028c7.067-.042 10.833-3.984 12.222-5.853 2.288-.678 4.1-2.355 5.06-4.726 1.2-2.96.983-6.598-.467-9.958a18.94 18.94 0 0 0 4.083 2.168c3.04 1.164 5.7 1.3 6.782 1.3.302 0 .482-.01.512-.012l6.194-.402-4.924-3.78c-.02-.015-1.973-1.562-3.392-4.324-1.918-3.735-1.943-7.814-.073-12.125 3.286-7.576 3.758-15.604 3.576-21.004a62.802 62.802 0 0 0-.153-2.74c.815 1.034 1.297 1.755 1.308 1.77l3.114 4.703 1.12-5.528c1.05-5.172.135-10.443-2.643-15.244a25.497 25.497 0 0 0-3.787-5 25.145 25.145 0 0 0-.19-3.902c-.555-4.32-2.377-8.94-5.824-8.94-.706 0-1.758.214-2.773 1.23-.522.52-1.32 1.34-2.264 2.33-2.344-.84-4.67-1.147-6.81-.884a2.47 2.47 0 0 0-.085.01c.188-2.644 1.054-5.016 1.064-5.045l1.503-4.02-4.19.92c-2.835.623-5.382 1.643-7.307 2.564L28.663 0 26.54 7.486c-5.648 3.217-8.058 7.796-9.085 11.09l-.09.297c-.598-.708-1.29-1.506-2.098-2.41-2.526-2.83-5.252-5.668-6.47-6.884-1.014-1.016-2.067-1.23-2.77-1.23-3.448 0-5.27 4.62-5.825 8.94-.282 2.193-.513 6.493 1.102 10.658 1.206 3.11 3.18 5.416 5.78 6.787zm48.727-6.788c.088-.226.17-.453.246-.68 1.234 1.82 2.517 4.325 3.015 7.35a30.405 30.405 0 0 0-2.94-2.71l-1.65-1.317a14.88 14.88 0 0 0 1.33-2.643zm-4.085-12.73c.13.426.252.91.36 1.458.468 2.38.475 5.05.02 7.326a13 13 0 0 1-.91 2.87 9.967 9.967 0 0 0-.457-2.354c-.9-2.804-.022-6.536.987-9.3zM50.03 34.735a11.426 11.426 0 0 0 2.133-1.457l.24 1c.037.15 3.528 15.07-2.122 28.096-3.054 7.045-1.575 12.653.205 16.117.103.202.21.4.316.59-3.54-1.456-6.202-4.127-7.924-7.95l1.196-2.095a60.745 60.745 0 0 1 3.506-5.453c2.788-3.885 4.482-9.185 4.772-14.922.247-4.903-.57-9.752-2.32-13.925zM34.76 8.59c-.297 1.768-.453 3.876-.11 5.896l.57 3.38 2.936-1.77c.02-.012 1.576-.824 4.32-.334l-.63.7c-2.395 2.684-3.796 4.44-4.636 5.64a23.2 23.2 0 0 0-3.464-.96c-.538-3.556-1.263-7.343-2.24-11.11a33.346 33.346 0 0 1 3.253-1.44zm-6.333 12.057c.08-.502.165-1.007.253-1.515a127.855 127.855 0 0 1 .85 5.686c-.213.11-.49.177-.856.177-.36 0-.636-.067-.848-.173.173-1.348.37-2.745.6-4.175zm-1.07 8.362a6.41 6.41 0 0 0 2.644 0l.083.894c-.192.366-.588.688-1.41.688-.813 0-1.21-.317-1.403-.68l.086-.903zm-.432 5.492a6.37 6.37 0 0 0 1.75.24c.61 0 1.198-.082 1.752-.24l.038.67c-.203.68-.8 1.025-1.79 1.025-.986 0-1.584-.343-1.79-1.02l.04-.675zm1.75 5.845c.696 0 1.35-.092 1.952-.265-.02.48-.21.693-.376.826-.34.272-.915.43-1.575.43-.66 0-1.235-.157-1.576-.43-.167-.132-.356-.345-.377-.826a7.062 7.062 0 0 0 1.952.265zm-6.707-20.555a14.088 14.088 0 0 1 2.762-4.92c-.437 2.12-.803 4.208-1.11 6.22-.72.134-1.425.3-2.114.494.108-.557.256-1.16.462-1.794zm-4.8 36.04c.557 0 1.235-.096 1.952-.415a11.967 11.967 0 0 1-.345 1.754l4.503 1.236c.736-2.683.778-5.353.12-7.72-.42-1.52-1.008-2.504-1.282-2.91-.42-.728-1.05-1.398-1.884-2.004-1.522-1.104-4.236-2.28-6.54-2.626l.002-.014c-.078-.01-.256-.028-.512-.05l-.292-.022a29.21 29.21 0 0 0-3.235-.056c.418-3.057 1.322-5.938 2.667-8.41l1.424-2.62-1.75-.458c-.607-.795-2-3-1.174-5.57.73-2.273.712-4.744.352-7.052.2.22.4.443.598.665 4.363 4.886 4.91 6.16 4.96 6.29l.885 2.423 2.323-1.123c.953-.46 1.962-.835 3.024-1.122-.898 7.798-.912 13.564-.912 13.963 0 3.543 2.724 6.017 6.624 6.017s6.624-2.474 6.624-6.015c0-.402-.013-6.154-.896-13.893.97.277 1.896.626 2.772 1.05l2.323 1.123.885-2.423c.048-.13.596-1.404 4.96-6.29.197-.223.397-.445.597-.666-.36 2.308-.378 4.78.352 7.05.826 2.574-.568 4.777-1.174 5.572l-1.75.457 1.424 2.62c1.345 2.474 2.25 5.355 2.667 8.413-1.32-.056-2.512 0-3.27.055-.107.01-.204.017-.293.024-.256.022-.433.04-.51.05v.013c-2.303.345-5.017 1.523-6.54 2.626-.835.606-1.464 1.277-1.883 2.006-.274.404-.86 1.388-1.282 2.906-.657 2.368-.615 5.038.12 7.72l4.504-1.234a11.973 11.973 0 0 1-.347-1.755 4.78 4.78 0 0 0 1.952.417c1.14 0 2.272-.402 3.366-1.196 1.246-.904 2.728-2.476 3.774-4.005.197-.288.375-.57.535-.845-.42 4.273-1.776 8.25-3.8 11.074-1.68 2.338-3.03 4.806-4.534 7.246-.736 1.196-1.744 2.833-2.022 4.987-.33 2.555.486 5.142 2.42 7.69 2.457 3.23 2.712 6.762 1.875 8.83-.492 1.214-1.335 1.92-2.505 2.1l-1.144.174-.554 1.015c-.005.01-.612 1.04-1.898 2.075-1.87 1.505-4.18 2.277-6.867 2.296-6.12-.042-8.593-4.078-8.77-4.378l-.52-1.004-1.173-.18c-1.17-.177-2.012-.884-2.505-2.1-.838-2.067-.583-5.6 1.873-8.83 1.936-2.547 2.75-5.134 2.42-7.69-.278-2.154-1.286-3.79-2.022-4.987-1.5-2.437-2.857-4.912-4.53-7.246-2.014-2.805-3.367-6.754-3.794-11 .15.253.313.51.493.773 1.046 1.53 2.527 3.1 3.773 4.005 1.094.793 2.226 1.195 3.366 1.195zm-3.322-7.89c1.304.348 2.85 1.035 3.645 1.61.36.262.52.46.572.544-.02.065-.08.226-.277.497-.34.47-.576.57-.616.57-.076 0-.292-.063-.625-.305-.92-.668-2-1.897-2.7-2.916zm29.386 0c-.7 1.02-1.778 2.248-2.7 2.916-.332.242-.548.306-.623.306-.04 0-.277-.102-.617-.57-.196-.27-.258-.432-.277-.498.05-.086.21-.282.57-.543.796-.577 2.342-1.263 3.646-1.61zM5.03 16.674c.108-.55.23-1.04.36-1.467 1.012 2.758 1.892 6.488.986 9.31-.26.812-.405 1.6-.458 2.352a13.03 13.03 0 0 1-.91-2.87c-.456-2.275-.448-4.945.02-7.326z"/>
</svg>