<?xml version="1.0" encoding="iso-8859-1"?>
<!-- Generator: Adobe Illustrator 18.0.0, SVG Export Plug-In . SVG Version: 6.00 Build 0)  -->
<!DOCTYPE svg PUBLIC "-//W3C//DTD SVG 1.1//EN" "http://www.w3.org/Graphics/SVG/1.1/DTD/svg11.dtd">
<svg version="1.1" id="Capa_1" xmlns="http://www.w3.org/2000/svg" xmlns:xlink="http://www.w3.org/1999/xlink" x="0px" y="0px"
	 viewBox="0 0 96.086 94.405" style="enable-background:new 0 0 96.086 94.405;" xml:space="preserve">
<g>
	<path d="M37.289,47.652l2.03,4.555c0.086-0.038,8.711-3.793,17.393,0.007l1.999-4.568C48.034,42.973,37.723,47.459,37.289,47.652z"
		/>
	<path d="M35.647,37.881l2.024,4.557c0.026-0.011,2.667-1.16,6.561-1.714c5.103-0.727,9.854-0.149,14.122,1.719l1.999-4.568
		C48.038,32.484,36.147,37.658,35.647,37.881z"/>
	<path d="M42.271,26.235c-5.583,0.824-9.32,2.471-9.476,2.541l2.03,4.555c0.131-0.058,13.216-5.755,26.382,0.007l1.999-4.568
		C56.919,26.017,49.68,25.141,42.271,26.235z"/>
	<path d="M95.632,23.61c1.108-5.078,0.172-10.283-2.636-14.656c-2.807-4.374-7.15-7.392-12.227-8.5
		c-5.077-1.108-10.283-0.172-14.657,2.636c-1.037,0.665-1.997,1.418-2.874,2.246c-8.37-2.222-16.415-2.043-21.89-1.45
		c-3.623,0.393-6.569,1.001-8.499,1.473C28.329,1.078,21.839-0.97,15.312,0.454C4.83,2.74-1.837,13.128,0.449,23.61
		c1.734,7.946,8.122,13.7,15.678,15.023c0.639,3,0.62,6.83,0.467,9.43c-4.222,1.167-7.584,4.426-8.894,8.586
		c-0.79,0.285-1.748,0.721-2.709,1.381c-2.102,1.442-4.609,4.214-4.609,9.228c0,3.328,1.311,6.319,3.717,8.546
		c-0.499,2.161-0.895,5.906,0.964,9.54c1.969,3.851,5.848,6.496,11.529,7.863c3.603,0.866,6.585,1.199,9.168,1.199
		c4.367,0,7.595-0.951,10.756-1.882c3.249-0.957,6.609-1.946,11.492-1.946c4.882,0,8.242,0.99,11.491,1.946
		c3.161,0.931,6.388,1.882,10.756,1.882c2.583,0,5.566-0.333,9.169-1.199c5.681-1.366,9.56-4.012,11.529-7.863
		c1.858-3.634,1.462-7.378,0.964-9.54c2.406-2.228,3.717-5.218,3.717-8.546c0-5.014-2.506-7.786-4.609-9.228
		c-1.055-0.724-2.105-1.179-2.935-1.46c-1.307-4.056-4.566-7.243-8.665-8.449c-0.156-2.597-0.18-6.456,0.462-9.476
		C87.472,37.344,93.894,31.58,95.632,23.61z M86.513,83.073c-1.277,2.496-4.054,4.274-8.256,5.285
		c-8.396,2.019-12.545,0.797-17.349-0.618c-3.421-1.007-7.299-2.15-12.9-2.15c-5.601,0-9.479,1.142-12.9,2.15
		c-4.804,1.415-8.953,2.637-17.349,0.618c-4.181-1.005-6.952-2.771-8.236-5.247c-0.8-1.541-0.924-3.179-0.823-4.509
		c0.704,0.267,1.439,0.487,2.199,0.662c1.047,2.152,3.297,5.577,7.279,6.431c0,0-0.807-3.451-0.85-6.005
		c0.677-0.052,1.363-0.134,2.057-0.243c1.215,2.066,3.336,4.593,6.678,5.309c0,0-0.945-4.042-0.844-6.615
		c0.763-0.127,1.484-0.201,2.166-0.23c0.981,2.121,3.251,5.825,7.415,6.717c0,0-0.687-2.937-0.827-5.398
		c1.498,0.763,2.286,1.594,2.408,1.729l0.705,0.874h20.654l1.155,0.044l0.741-0.917c0.12-0.133,0.891-0.946,2.353-1.701
		c-0.144,2.455-0.825,5.37-0.825,5.37c4.165-0.893,6.435-4.599,7.416-6.719c0.681,0.027,1.402,0.098,2.164,0.223
		c0.104,2.573-0.844,6.624-0.844,6.624c3.346-0.717,5.468-3.249,6.682-5.316c0.693,0.11,1.377,0.192,2.052,0.246
		c-0.042,2.555-0.85,6.009-0.85,6.009c3.974-0.852,6.223-4.264,7.272-6.417c0.783-0.178,1.538-0.402,2.262-0.676
		C87.419,79.918,87.297,81.54,86.513,83.073z M74.782,38.832c-0.276,1.71-0.422,3.653-0.435,5.818
		c-0.007,1.104,0.022,2.131,0.063,3.013c-3.064,0.291-6.424,1.521-9.237,3.415c-3.864,2.601-5.991,5.957-5.991,9.448h4.986
		c0-1.754,1.381-3.69,3.789-5.312c2.375-1.599,5.445-2.632,7.821-2.632c4.38,0,7.944,3.563,7.944,7.944l0.005,0.155
		c0.001,0.017,0.071,1.728-0.642,3.358l4.568,1.999c0.567-1.296,0.836-2.571,0.961-3.586c1.365,1.117,2.032,2.693,2.032,4.805
		c0,2.185-0.938,4.047-2.712,5.385c-3.053,2.303-8.074,2.764-13.432,1.233c-9.761-2.788-15.645,1.108-17.771,2.969H39.284
		c-2.125-1.861-8.009-5.758-17.771-2.969c-5.357,1.531-10.379,1.07-13.431-1.233c-1.775-1.339-2.713-3.201-2.713-5.385
		c0-2.017,0.608-3.544,1.852-4.651c0.133,0.989,0.402,2.202,0.941,3.433l4.568-1.999c-0.693-1.584-0.646-3.235-0.641-3.365
		l0.004-0.148c0-4.38,3.563-7.944,7.944-7.944c2.376,0,5.446,1.033,7.821,2.632c2.408,1.621,3.79,3.557,3.79,5.312h4.986
		c0-3.492-2.128-6.847-5.991-9.448c-2.752-1.852-6.028-3.07-9.038-3.394c0.042-0.887,0.071-1.921,0.064-3.034
		c-0.014-2.163-0.159-4.104-0.434-5.812c0.788-0.073,1.58-0.193,2.372-0.366l-1.063-4.872c-7.795,1.7-15.521-3.258-17.222-11.054
		C3.621,14.752,8.579,7.026,16.375,5.326c7.796-1.701,15.521,3.258,17.222,11.054l4.872-1.063c-0.442-2.026-1.188-3.909-2.177-5.613
		c1.579-0.317,3.521-0.641,5.725-0.875c4.537-0.482,10.99-0.655,17.801,0.812c-1.015,1.741-1.763,3.65-2.205,5.676l4.872,1.063
		c1.7-7.796,9.426-12.754,17.222-11.054c3.776,0.824,7.006,3.069,9.094,6.322c2.088,3.253,2.784,7.124,1.96,10.9
		c-0.824,3.776-3.069,7.006-6.322,9.094c-3.253,2.088-7.124,2.784-10.9,1.96l-1.063,4.872
		C73.246,38.641,74.016,38.759,74.782,38.832z"/>
	<path d="M19.142,10.856c-4.844,0-8.785,3.941-8.785,8.785c0,4.844,3.941,8.785,8.785,8.785c4.844,0,8.785-3.941,8.785-8.785
		C27.927,14.797,23.986,10.856,19.142,10.856z M19.142,23.441c-2.095,0-3.799-1.704-3.799-3.799c0-2.095,1.704-3.799,3.799-3.799
		s3.799,1.704,3.799,3.799C22.941,21.736,21.236,23.441,19.142,23.441z"/>
	<path d="M85.484,19.642c0-4.844-3.941-8.785-8.785-8.785s-8.785,3.941-8.785,8.785c0,4.844,3.941,8.785,8.785,8.785
		S85.484,24.486,85.484,19.642z M72.9,19.642c0-2.095,1.704-3.799,3.799-3.799s3.799,1.704,3.799,3.799
		c0,2.095-1.704,3.799-3.799,3.799S72.9,21.736,72.9,19.642z"/>
	<path d="M18.599,56.055c-5.44,0.997-2.372,6.975-2.372,6.975l11.801-1.491C26.2,55.39,18.599,56.055,18.599,56.055z"/>
	<path d="M77,56.055c0,0-7.601-0.665-9.429,5.485l11.801,1.491C79.372,63.03,82.44,57.052,77,56.055z"/>
</g>
<g>
</g>
<g>
</g>
<g>
</g>
<g>
</g>
<g>
</g>
<g>
</g>
<g>
</g>
<g>
</g>
<g>
</g>
<g>
</g>
<g>
</g>
<g>
</g>
<g>
</g>
<g>
</g>
<g>
</g>
</svg>
