<?xml version="1.0" encoding="UTF-8" standalone="yes"?>
<svg xmlns="http://www.w3.org/2000/svg" viewBox="0 0 69.247 88.249">
  <path d="M69.244 88.25v-2.457c.002-.266.004-.518-.002-.778-.156-7.878-.814-15.52-1.956-22.716-1.355-8.536-3.246-16.24-5.78-23.56-3.335-9.628-7.317-17.61-12.173-24.4C45.195 8.55 40.758 4.11 35.773.77L34.623 0l-1.15.77c-4.986 3.342-9.422 7.78-13.56 13.57-4.857 6.79-8.84 14.773-12.173 24.4-2.534 7.32-4.425 15.025-5.78 23.56C.818 69.493.16 77.136.004 85.014c-.005.26-.004.512-.003.78.003.123.003.253.003.39v2.064h69.242zm-62.29-4.127l3.617-6.945a6.72 6.72 0 0 0 .115-.236c1.29-2.75 6.077-12.233 13.434-18.714l.505-.446.57-2.586 1.6 1.343 7.827-2.527 7.827 2.525 1.602-1.344.57 2.586.505.446c7.358 6.48 12.143 15.963 13.435 18.714.06.128.1.207.114.236l3.618 6.945H6.952zm4.82-17.573c.405-3.354 1.015-6.86 2.14-10.316 1.775-5.45 4.532-9.767 8.4-13.137l5.275 7.476.484-5.624c.058-.678.116-1.336.173-1.98.113-1.295.222-2.536.323-3.766l2.374-.87c.338.678.686 1.355 1.046 2.053.26.508.527 1.023.793 1.55l1.657 3.27-2.094 4.425-.437.923-4.21 1.36-5.073-4.25-1.745 7.923c-3.722 3.386-6.773 7.366-9.11 10.96zm23.033-21.342l1.657-3.27c.267-.527.532-1.042.793-1.55.36-.7.708-1.376 1.046-2.053l2.374.87c.1 1.23.21 2.47.323 3.762l.173 1.98.486 5.625 5.274-7.476c3.867 3.37 6.624 7.69 8.398 13.137 1.126 3.458 1.735 6.962 2.142 10.316-2.337-3.596-5.388-7.576-9.11-10.964l-1.746-7.923-5.072 4.25-4.21-1.36c-.14-.3-.286-.604-.435-.92l-2.095-4.426zM6.035 62.946c1.316-8.292 3.15-15.768 5.605-22.856 3.203-9.247 7.007-16.885 11.63-23.35a62.89 62.89 0 0 1 3.04-3.927c1.457-.235 2.826-.807 3.783-2.023.697-.885 1.082-1.977 1.17-3.095a42.665 42.665 0 0 1 3.36-2.698 42.468 42.468 0 0 1 3.36 2.698c.088 1.118.473 2.21 1.17 3.095.957 1.216 2.327 1.788 3.783 2.023a62.512 62.512 0 0 1 3.04 3.926c4.624 6.464 8.428 14.102 11.63 23.35 2.456 7.087 4.29 14.564 5.606 22.855 1.066 6.713 1.7 13.832 1.884 21.177h-1.57l-.972-8.143a138.682 138.682 0 0 1-.41-4.198c-.432-4.872-.97-10.936-2.888-16.827-2.29-7.033-6.054-12.43-11.506-16.5l-1.698-1.266-1.255 1.78c-.04-.473-.077-.94-.113-1.41l-.103-1.32-8.393-3.075-.8 1.72c-.244.53-.5 1.053-.763 1.582-.264-.53-.52-1.053-.764-1.58l-.8-1.72-8.395 3.073-.103 1.323c-.036.468-.074.936-.113 1.407l-1.257-1.78-1.698 1.268c-5.452 4.07-9.216 9.465-11.506 16.5-1.92 5.89-2.456 11.954-2.887 16.826a152.56 152.56 0 0 1-.41 4.197l-.974 8.144H4.15c.186-7.345.82-14.464 1.885-21.177z"/>
</svg>