<?xml version="1.0" encoding="UTF-8" standalone="yes"?>
<svg xmlns="http://www.w3.org/2000/svg" viewBox="0 0 68.226 92.117">
  <path d="M65.376 44.587c-.627-3.338-1.33-6.045-1.99-8.174a7.777 7.777 0 0 0 2.053-.95c1.27-.85 2.786-2.5 2.786-5.536 0-10.832-.862-15.45-6.254-23.238-1.657-2.396-3.557-4.168-5.647-5.267C54.505.463 52.565 0 50.395 0 48.3 0 46.35.444 44.69.86c-3.716.933-9.56 1.33-10.576 1.395-1.017-.064-6.86-.462-10.575-1.394C21.874.446 19.925 0 17.83 0c-2.17 0-4.11.465-5.93 1.423-2.09 1.1-3.99 2.87-5.646 5.265C.862 14.476 0 19.095 0 29.926c0 3.037 1.516 4.687 2.788 5.536a7.777 7.777 0 0 0 2.054.95c-.66 2.13-1.365 4.836-1.99 8.174C1.78 50.282 1.138 56.708.94 63.683c-.247 8.675.2 18.24 1.323 28.433l4.464-.492C5.64 81.764 5.2 72.514 5.42 64.13c.176-6.7.772-12.864 1.77-18.32.663-3.624 1.42-6.45 2.095-8.554a8.81 8.81 0 0 0 1.158 2.08c-.858 3.11-1.558 6.542-2.094 10.274-.85 5.907-1.297 12.592-1.33 19.87C6.962 81.835 8.1 91.5 8.15 91.904l4.363-.522a135.46 135.46 0 0 1-.45-4.77c4.775 1.475 9.874 2.43 15.203 2.847 2.07.16 4.18.24 6.314.24.178 0 .355-.003.532-.004.177 0 .355.004.53.004 2.136 0 4.244-.08 6.315-.24 5.33-.417 10.428-1.373 15.202-2.848a135.154 135.154 0 0 1-.45 4.77l4.36.522c.05-.405 1.19-10.07 1.133-22.424-.033-7.278-.48-13.962-1.33-19.868-.537-3.732-1.237-7.164-2.094-10.273a8.516 8.516 0 0 0 1.157-2.083c.676 2.103 1.432 4.93 2.095 8.554 1 5.457 1.594 11.62 1.77 18.32.22 8.385-.22 17.635-1.307 27.495l4.464.492c1.123-10.19 1.57-19.757 1.323-28.433-.196-6.976-.84-13.4-1.908-19.098zm-8.89 37.195c-4.9 1.677-10.21 2.75-15.804 3.193-2.15.17-4.343.247-6.57.232a77.2 77.2 0 0 1-6.567-.232c-5.595-.442-10.904-1.516-15.805-3.193-.118-2.102-.22-4.466-.276-7.008 4.947 1.583 10.25 2.604 15.805 3.038 2.07.162 4.177.242 6.312.242.177 0 .354-.003.53-.004.178 0 .356.004.532.004 2.135 0 4.243-.08 6.314-.242 5.554-.433 10.857-1.455 15.804-3.038-.058 2.542-.16 4.906-.277 7.008zm-15.804-8.454a77.22 77.22 0 0 1-6.57.233 76.786 76.786 0 0 1-6.567-.23c-5.72-.453-11.14-1.564-16.132-3.306 0-.19 0-.383.002-.576.01-2.157.06-4.255.143-6.29 4.745 1.51 9.818 2.5 15.124 2.956-.027.177-.054.35-.082.52l-.82 4.97 7.85-5.197.483-.003.484.003 7.85 5.198-.82-4.97a38.65 38.65 0 0 1-.083-.52c5.306-.456 10.378-1.448 15.124-2.958.085 2.036.133 4.134.144 6.29 0 .194 0 .386.002.577-4.992 1.742-10.413 2.853-16.132 3.305zM14.27 42.095c.907.306 1.965.493 3.2.493.236 0 .48-.007.722-.02 2.698-.156 4.646-.42 6.53-.674 1.122-.152 2.218-.3 3.444-.42a513.417 513.417 0 0 1-.265 8.586c-.117-.01-.236-.017-.354-.026-5.053-.4-9.873-1.315-14.37-2.723a77.45 77.45 0 0 1 1.095-5.214zm-.528-5.71a42.714 42.714 0 0 0 2.452-.544c4.122-1.035 8.466-2.697 12.125-4.46-.01 1.37-.03 3.34-.07 5.676a84.65 84.65 0 0 0-4.12.485c-1.8.244-3.663.496-6.193.64a8.36 8.36 0 0 1-.47.016c-.762 0-1.42-.113-1.986-.34a3.533 3.533 0 0 1-1.74-1.47zm13.526 18.132l.425.03c-.134 2.52-.297 4.942-.493 7.104-5.436-.454-10.6-1.507-15.377-3.133.17-2.335.395-4.576.67-6.716 4.65 1.4 9.604 2.315 14.775 2.718zm4.263 8.01l.06-.638c.2-2.2.36-4.63.497-7.145.08-1.477.148-2.984.21-4.488a509.257 509.257 0 0 0 .32-11.23 616.056 616.056 0 0 0 .104-8.833l1.394-1.458 1.392 1.46a615.813 615.813 0 0 0 .15 11.03c.062 2.827.15 5.926.276 9.032.062 1.505.13 3.01.21 4.488a201.144 201.144 0 0 0 .555 7.78l-.936-.62-1.646-1.09-1.646 1.09-.936.62zm9.153-12.493c-.118.01-.237.017-.356.026a502.918 502.918 0 0 1-.265-8.585c1.227.12 2.323.267 3.446.42 1.884.254 3.832.517 6.53.672.243.014.486.02.722.02 1.234 0 2.292-.186 3.2-.492a78.495 78.495 0 0 1 1.095 5.216c-4.5 1.41-9.318 2.326-14.37 2.725zm15.05 1.766c.277 2.14.5 4.38.672 6.716-4.777 1.626-9.94 2.68-15.377 3.135-.197-2.16-.36-4.58-.493-7.1l.425-.03c5.17-.405 10.122-1.318 14.773-2.72zm-1.36-15.24a3.533 3.533 0 0 1-1.63 1.296c-.564.226-1.224.34-1.985.34-.153 0-.31-.006-.47-.015-2.53-.144-4.393-.395-6.195-.64-1.283-.172-2.59-.35-4.12-.484a644.718 644.718 0 0 1-.067-5.677c3.66 1.763 8.004 3.426 12.125 4.462.83.21 1.65.392 2.453.546a2.79 2.79 0 0 1-.11.173zM63 31.81c-.237.157-.59.328-1.106.465-.41.108-.92.194-1.56.233-.246.015-.51.024-.794.024h-.002c-.473 0-.968-.023-1.482-.067a23.462 23.462 0 0 1-.905-.096 27.54 27.54 0 0 1-1.92-.31c-.62-.12-1.25-.26-1.894-.42-6.844-1.686-14.768-5.406-17.842-7.98l-.725-.606-.44-.462-.215-.225-.214.225-.44.462-.724.607c-3.074 2.574-11 6.294-17.842 7.98a39.232 39.232 0 0 1-2.516.533 27.5 27.5 0 0 1-1.3.195c-.306.038-.608.07-.904.095-.514.044-1.01.067-1.483.067H8.69c-.285 0-.548-.008-.794-.024a8.02 8.02 0 0 1-1.56-.233c-.517-.137-.87-.308-1.105-.466-.413-.276-.835-.716-.835-1.884 0-7.874.5-11.838 2.592-16.015a24.96 24.96 0 0 1 4.988-1.212l.172-.023c-.577 1.99.03 4.005 1.585 4.822 1.84.968 4.31-.108 5.518-2.403.388-.737.597-1.51.642-2.252a22.36 22.36 0 0 1 4.41 1.31l1.675-4.062C20.03 7.638 14.37 7.803 10.372 8.496c2.806-3.66 5.577-4.102 7.457-4.102 1.595 0 3.166.36 4.64.73 4.465 1.12 11.262 1.51 11.55 1.527l.092.007.093-.005c.287-.015 7.083-.407 11.55-1.527 1.473-.37 3.043-.73 4.64-.73 1.88 0 4.652.444 7.458 4.103-3.997-.692-9.658-.858-15.603 1.595l1.677 4.062a22.427 22.427 0 0 1 4.41-1.31c.045.743.254 1.516.64 2.253 1.208 2.294 3.677 3.37 5.517 2.403 1.555-.817 2.162-2.832 1.586-4.82l.172.022c2.345.326 4.132.9 4.988 1.212 2.09 4.177 2.592 8.14 2.592 16.015 0 1.166-.42 1.606-.834 1.88z"/>
  <path d="M37.123 15.36c-.66-.347-1.543.04-1.975.86-.29.55-.3 1.158-.08 1.603.11.218.274.398.49.512.66.347 1.544-.04 1.977-.86a2.11 2.11 0 0 0 .154-.384c.205-.712-.01-1.436-.568-1.73zm-6.02 0c-.558.293-.773 1.017-.565 1.73.038.13.088.26.154.385.432.822 1.317 1.207 1.976.86a1.15 1.15 0 0 0 .49-.512c.222-.445.21-1.052-.08-1.603-.43-.822-1.316-1.207-1.975-.86z"/>
</svg>