<?xml version="1.0" encoding="UTF-8" standalone="yes"?>
<svg xmlns="http://www.w3.org/2000/svg" viewBox="0 0 612 792">
  <path d="M209.27 432.35c-1.817 15.11-18.794 25.498-37.92 23.2-19.127-2.3-33.16-16.412-31.345-31.523 1.816-15.11 18.793-25.498 37.92-23.2 19.126 2.3 33.16 16.412 31.344 31.523zm224.783-31.486c-19.127 2.298-33.16 16.41-31.344 31.522 1.814 15.11 18.79 25.498 37.917 23.2 19.127-2.298 33.16-16.41 31.345-31.522-1.816-15.11-18.793-25.498-37.92-23.2zm158-292.233c-12.486 26.6-36.41 46.676-71.264 59.87 13.01 29.455 19.817 61.53 19.817 93.987V574.49l-11.754 5.092a299.643 299.643 0 0 0-10.59 4.813l-.01 64.078c-.087 2.924-1.49 29.118-23.42 47.702-13.195 11.188-30.368 16.814-51.2 16.814h-.12c-10.988 10.063-21.54 16.804-32.464 20.613.11 1.26.214 2.55.294 3.857 1.235 19.588-1.833 33.646-9.38 42.985-6.015 7.443-14.654 11.547-24.32 11.547-12.184 0-20.137-2.16-27.827-4.247-9.148-2.478-19.524-5.29-43.82-5.29s-34.673 2.812-43.822 5.29c-7.69 2.088-15.643 4.247-27.827 4.247-9.667 0-18.305-4.104-24.322-11.547-7.547-9.34-10.615-23.396-9.38-42.984.08-1.305.184-2.596.296-3.855-10.933-3.81-21.484-10.56-32.473-20.623-.175 0-.35.01-.526.01-20.823 0-37.995-5.627-51.2-16.815-21.93-18.583-23.333-44.777-23.42-47.702l-.008-.582v-63.686a312.4 312.4 0 0 0-10.176-4.622l-11.753-5.092V262.486c0-32.465 6.805-64.532 19.82-93.985-34.857-13.194-58.78-33.27-71.274-59.87-20.8-44.273-.566-88.9.31-90.78L28.53 0l146.02 69.345c38.25-25.668 82.637-39.167 129.135-39.167h4.622c46.498 0 90.893 13.5 129.135 39.167L583.472 0l8.27 17.85c.87 1.873 21.11 46.506.312 90.78zM153.06 672.087c-.685-5.164-1.33-10.997-1.92-17.65-1.076-12.082-1.697-23.613-2.016-30.912-5.722-5.594-11.228-10.543-16.79-15.03v38.785c.167 1.712 1.506 12.47 9.92 19.38 3.1 2.54 6.805 4.28 10.806 5.426zm219.064 63.95L306 726.64l-66.127 9.396c-.605 6.518-.66 12.655-.103 16.687 4.088-.422 7.475-1.34 12.192-2.622 10.932-2.963 24.543-6.653 54.036-6.653 29.5 0 43.104 3.69 54.037 6.654 4.725 1.284 8.112 2.2 12.192 2.623.558-4.033.502-10.17-.103-16.687zm107.14-127.462c-5.458 4.36-10.87 9.14-16.48 14.527-.206 7.293-.652 18.63-1.593 30.546-.542 6.86-1.163 12.886-1.857 18.2 3.69-1.14 7.108-2.812 10-5.187 8.416-6.91 9.755-17.668 9.922-19.38h.008v-38.706zM561.55 53.598l-128.307 60.93-9.42-7.036C390.268 82.438 350.32 69.194 308.31 69.194h-4.622c-42.012 0-81.96 13.244-115.516 38.298l-9.42 7.036L50.46 53.606c-1.61 10.98-1.54 25.182 4.924 38.745 9.985 20.936 33.03 36.29 68.5 45.656l24.592 6.495-12.64 22.067c-16.646 29.062-25.444 62.23-25.444 95.92v286.65c28.018 13.403 48.403 28.392 71.863 52.346l5.34 5.46.222 7.633c.78 26.967 3.84 60.396 7.276 69.903 13.404 12.2 21.763 13.93 28.79 13.93 6.902 0 15.15-1.92 24.696-4.137 14.79-3.435 33.19-7.714 57.414-7.714s42.625 4.28 57.416 7.713c9.556 2.215 17.795 4.136 24.696 4.136 7.076 0 15.5-1.76 29.07-14.194 3.34-8.495 6.44-40.1 6.75-69.672l.08-7.937 5.602-5.626c23.548-23.635 43.964-38.48 71.983-51.852v-286.64c0-33.692-8.796-66.867-25.443-95.92l-12.64-22.067 24.593-6.494c35.644-9.41 58.737-24.87 68.643-45.956 6.336-13.5 6.4-27.574 4.806-38.452zM362.367 567.23c-14.057 8.544-32.497 12.695-56.372 12.695s-42.315-4.152-56.372-12.694c-12.91-7.847-28.273-23.38-28.53-52.92-.493-7.76-1.696-52.482 29.318-118.814-9.657-7.825-14.933-19.253-15.132-33.27-.288-4.343-.59-18.408 5.083-39.366 8.305-30.697 25.238-62.38 50.316-94.17l15.316-19.41 15.316 19.41c25.078 31.79 42.004 63.465 50.315 94.17 5.666 20.95 5.37 35.014 5.084 39.365-.2 14.017-5.476 25.445-15.134 33.27 31.015 66.333 29.81 111.054 29.317 118.815-.252 29.54-15.616 45.08-28.525 52.92zm-87.745-216.425a512.773 512.773 0 0 1 15.348-23.428l16.026-23.086 16.025 23.088a511.003 511.003 0 0 1 15.35 23.428c-1.474-13.236-7.515-40.633-31.373-76.804-23.86 36.172-29.89 63.568-31.373 76.805zm71.608 116.417c-3.744-15.085-10.382-35.398-22.08-59.583-5.045-10.425-11.03-21.558-18.13-33.31-6.128 10.142-12.336 21.347-18.137 33.31-8.917 18.366-16.87 38.543-22.098 59.58-6.718 27.047-5.825 43.328-5.746 44.563l.11.996-.03.78c0 12.67 4.94 17.38 9.776 20.32 5.267 3.21 15.818 7.03 36.107 7.03s30.832-3.825 36.107-7.03c4.838-2.94 9.78-7.65 9.78-20.32v-1.076l.08-.7c.078-1.27.963-17.55-5.74-44.563zm1.467 167.585c-4.335 12.336 1.793 28.975 14.997 32.983 17.882 5.427 27.285-11.682 22.966-25.93-4.718-15.58-.478-26.41 10.654-38.602.01-.008-41.166 10.367-48.617 31.55zm-133.04-31.557c11.132 12.192 15.372 23.03 10.654 38.61-4.317 14.247 5.086 31.356 22.968 25.93 13.204-4.008 19.332-20.647 14.997-32.983-7.45-21.182-48.617-31.557-48.617-31.557z"/>
</svg>