<?xml version="1.0" encoding="iso-8859-1"?>
<!-- Generator: Adobe Illustrator 18.0.0, SVG Export Plug-In . SVG Version: 6.00 Build 0)  -->
<!DOCTYPE svg PUBLIC "-//W3C//DTD SVG 1.1//EN" "http://www.w3.org/Graphics/SVG/1.1/DTD/svg11.dtd">
<svg version="1.1" id="Capa_1" xmlns="http://www.w3.org/2000/svg" xmlns:xlink="http://www.w3.org/1999/xlink" x="0px" y="0px"
	 viewBox="0 0 612 792" style="enable-background:new 0 0 612 792;" xml:space="preserve">
<path d="M209.269,432.35c-1.816,15.111-18.793,25.498-37.919,23.199c-19.127-2.298-33.16-16.411-31.345-31.522
	c1.816-15.111,18.793-25.498,37.919-23.199C197.051,403.127,211.085,417.239,209.269,432.35z M434.053,400.864
	c-19.127,2.298-33.16,16.411-31.344,31.522c1.816,15.111,18.793,25.498,37.919,23.2c19.127-2.298,33.16-16.411,31.345-31.522
	C470.157,408.953,453.18,398.566,434.053,400.864z M592.054,108.631c-12.487,26.6-36.41,46.674-71.265,59.87
	c13.013,29.453,19.819,61.527,19.819,93.985V574.49l-11.754,5.092c-3.69,1.594-7.212,3.195-10.591,4.813l-0.008,64.078
	c-0.088,2.924-1.49,29.118-23.42,47.702c-13.196,11.188-30.369,16.814-51.2,16.814c-0.04,0-0.08,0-0.12,0
	c-10.989,10.065-21.54,16.806-32.465,20.615c0.112,1.259,0.215,2.55,0.295,3.857c1.235,19.587-1.833,33.645-9.379,42.984
	c-6.016,7.443-14.655,11.547-24.321,11.547c-12.184,0-20.137-2.16-27.827-4.247c-9.148-2.478-19.524-5.291-43.821-5.291
	s-34.672,2.813-43.821,5.291c-7.69,2.088-15.643,4.247-27.827,4.247c-9.666,0-18.304-4.104-24.321-11.547
	c-7.547-9.339-10.615-23.396-9.379-42.984c0.08-1.307,0.183-2.598,0.295-3.857c-10.933-3.809-21.484-10.559-32.473-20.623
	c-0.175,0-0.351,0.008-0.526,0.008c-20.823,0-37.995-5.626-51.2-16.814c-21.93-18.583-23.333-44.777-23.42-47.702l-0.008-0.582
	v-63.687c-3.251-1.554-6.638-3.084-10.176-4.622l-11.754-5.092V262.486c0-32.465,6.805-64.532,19.819-93.985
	c-34.856-13.196-58.778-33.27-71.273-59.87c-20.799-44.275-0.566-88.9,0.311-90.781L28.529,0L174.55,69.345
	c38.25-25.668,82.637-39.167,129.135-39.167h4.622c46.498,0,90.893,13.499,129.135,39.167L583.471,0l8.272,17.85
	C592.612,19.723,612.853,64.356,592.054,108.631z M153.058,672.085c-0.685-5.164-1.331-10.997-1.92-17.651
	c-1.076-12.081-1.697-23.612-2.016-30.911c-5.722-5.594-11.228-10.543-16.79-15.029v38.784c0.167,1.713,1.506,12.471,9.921,19.38
	C145.352,669.2,149.057,670.937,153.058,672.085z M372.122,736.035l-66.125-9.395l-66.126,9.395
	c-0.606,6.518-0.661,12.655-0.104,16.687c4.088-0.422,7.475-1.339,12.192-2.622c10.933-2.964,24.544-6.654,54.037-6.654
	c29.501,0,43.104,3.69,54.037,6.654c4.725,1.283,8.112,2.199,12.192,2.622C372.783,748.689,372.727,742.553,372.122,736.035z
	 M479.263,608.573c-5.459,4.359-10.87,9.14-16.48,14.527c-0.207,7.292-0.653,18.631-1.594,30.545
	c-0.542,6.861-1.163,12.886-1.857,18.201c3.69-1.14,7.108-2.813,10.001-5.188c8.415-6.909,9.754-17.667,9.921-19.38h0.008V608.573z
	 M561.549,53.598l-128.306,60.93l-9.419-7.036c-33.557-25.054-73.505-38.298-115.516-38.298h-4.622
	c-42.012,0-81.96,13.244-115.516,38.298l-9.419,7.036L50.459,53.606c-1.61,10.981-1.538,25.182,4.925,38.745
	c9.985,20.934,33.031,36.29,68.5,45.654l24.592,6.495l-12.639,22.066c-16.647,29.062-25.445,62.229-25.445,95.921v286.648
	c28.018,13.404,48.403,28.393,71.863,52.347l5.339,5.459l0.223,7.634c0.781,26.967,3.841,60.396,7.276,69.903
	c13.404,12.2,21.763,13.93,28.791,13.93c6.901,0,15.149-1.92,24.695-4.136c14.79-3.435,33.19-7.714,57.416-7.714
	c24.225,0,42.625,4.279,57.416,7.714c9.555,2.215,17.794,4.136,24.695,4.136c7.076,0,15.499-1.761,29.07-14.193
	c3.339-8.495,6.439-40.099,6.75-69.672l0.08-7.937l5.602-5.626c23.548-23.636,43.964-38.482,71.983-51.853v-286.64
	c0-33.692-8.798-66.867-25.445-95.921l-12.639-22.066l24.592-6.495c35.645-9.411,58.738-24.871,68.644-45.956
	C563.079,78.549,563.143,64.476,561.549,53.598z M362.368,567.231c-14.057,8.543-32.497,12.694-56.372,12.694
	c-23.875,0-42.315-4.152-56.372-12.694c-12.91-7.849-28.273-23.381-28.529-52.921c-0.494-7.762-1.697-52.483,29.317-118.815
	c-9.658-7.825-14.934-19.253-15.133-33.27c-0.287-4.343-0.59-18.408,5.084-39.366c8.304-30.696,25.237-62.38,50.315-94.168
	l15.316-19.412l15.316,19.412c25.078,31.788,42.004,63.464,50.315,94.168c5.666,20.95,5.371,35.015,5.084,39.366
	c-0.199,14.017-5.475,25.445-15.133,33.27c31.015,66.333,29.811,111.054,29.317,118.815
	C390.641,543.85,375.277,559.389,362.368,567.231z M274.623,350.805c4.702-7.626,9.802-15.444,15.348-23.428l16.025-23.086
	l16.025,23.086c5.546,7.993,10.654,15.802,15.348,23.428c-1.474-13.236-7.515-40.633-31.373-76.804
	C282.137,310.172,276.105,337.568,274.623,350.805z M346.231,467.222c-3.745-15.085-10.383-35.398-22.082-59.583
	c-5.044-10.423-11.029-21.556-18.129-33.31c-6.128,10.144-12.336,21.349-18.137,33.31c-8.917,18.368-16.87,38.545-22.098,59.583
	c-6.718,27.046-5.825,43.327-5.746,44.562l0.112,0.996l-0.032,0.781c0,12.671,4.941,17.38,9.778,20.321
	c5.267,3.211,15.818,7.029,36.107,7.029s30.832-3.825,36.107-7.029c4.837-2.941,9.778-7.65,9.778-20.321v-1.076l0.08-0.701
	C352.048,510.516,352.933,494.236,346.231,467.222z M347.697,634.807c-4.335,12.336,1.793,28.975,14.997,32.983
	c17.882,5.427,27.285-11.682,22.966-25.931c-4.718-15.579-0.478-26.409,10.654-38.601
	C396.323,603.25,355.148,613.625,347.697,634.807z M214.657,603.25c11.132,12.192,15.372,23.03,10.654,38.609
	c-4.319,14.248,5.084,31.357,22.966,25.931c13.204-4.008,19.332-20.647,14.997-32.983
	C255.824,613.625,214.657,603.25,214.657,603.25z"/>
</svg>
