<?xml version="1.0" encoding="UTF-8" standalone="yes"?>
<svg xmlns="http://www.w3.org/2000/svg" viewBox="0 0 97.503 98.142">
  <path d="M36.026 56.03c.953-1.442 1.236-3.32.774-5.147a7.395 7.395 0 0 0-3.097-4.37c-1.126-.745-2.317-1.123-3.54-1.123-2.085 0-4.016 1.113-5.298 3.053-.962 1.455-1.324 3.027-1.047 4.547.206 1.13.876 2.76 2.895 4.095 1.424.942 2.98 1.44 4.498 1.44 2.014-.002 3.77-.91 4.817-2.495zm-4.13-2.73c-.055.08-.18.272-.686.272-.53 0-1.173-.225-1.767-.618-.433-.286-.708-.597-.755-.852-.042-.232.07-.57.306-.928.344-.52.78-.832 1.167-.832.238 0 .51.1.81.3 1.085.715 1.306 2.083.926 2.657zm34.686-7.91c-1.224 0-2.415.376-3.54 1.12a7.398 7.398 0 0 0-3.098 4.372c-.462 1.83-.18 3.705.774 5.147 1.048 1.583 2.803 2.49 4.815 2.49 1.518 0 3.073-.497 4.498-1.44 2.02-1.333 2.69-2.962 2.897-4.093.277-1.52-.085-3.092-1.047-4.547-1.284-1.938-3.214-3.05-5.298-3.05zm1.473 6.71c-.047.256-.32.567-.755.853-.594.393-1.24.618-1.767.618-.505 0-.63-.19-.685-.27-.38-.575-.16-1.943.923-2.66.304-.2.577-.3.81-.3.388 0 .825.31 1.17.83.236.36.35.7.306.93z"/>
  <path d="M92.78 51.845a25.43 25.43 0 0 0-10.64-8.617c-.014-.846-.184-3.323-1.595-6 2.82-3.75 3.984-9.956 3.455-18.49-.423-6.826-1.774-12.657-1.832-12.902L80.802 0l-3.15 5.1c-1.29 2.08-5.525 7.728-9.58 8.87-3.587 1.01-6.364 2.44-8.285 4.268-3.306-.884-6.932-1.33-10.804-1.33h-.462c-3.872 0-7.497.446-10.803 1.33-1.92-1.827-4.698-3.26-8.286-4.27-4.053-1.14-8.29-6.79-9.58-8.867L16.704 0l-1.367 5.837c-.057.245-1.41 6.076-1.832 12.9-.528 8.535.634 14.74 3.455 18.493-1.41 2.676-1.58 5.152-1.596 6a25.43 25.43 0 0 0-10.64 8.616A25.326 25.326 0 0 0 0 66.632c0 8.604 4.5 16.832 11.746 21.475 4.354 2.79 9.97 4.204 16.696 4.204.57 0 1.158-.01 1.745-.03a32.853 32.853 0 0 0 3.05-.255c3.08 3.18 7.918 6.117 15.283 6.117.078 0 .154 0 .232-.002.078 0 .154.003.232.003 7.365 0 12.203-2.937 15.283-6.116 1.003.13 2.02.22 3.05.256.587.02 1.174.03 1.745.03 6.725 0 12.342-1.413 16.696-4.203 7.245-4.643 11.746-12.87 11.746-21.475a25.34 25.34 0 0 0-4.724-14.787zM77.927 22.04c.41-.968.79-1.9 1.142-2.802.35 5.962-.22 10.635-1.618 13.563-.873-1.082-1.924-2.29-2.996-3.285a131.145 131.145 0 0 0 3.47-7.475zM28.09 18.734c4.17 1.174 6.035 2.722 6.867 3.813l1.058 1.39 1.664-.532c3.22-1.028 6.87-1.55 10.84-1.55.08 0 .154.003.232.003.077 0 .154-.003.232-.003 3.972 0 7.62.52 10.842 1.55l1.664.53 1.06-1.39c.83-1.09 2.697-2.638 6.867-3.812 1.9-.535 3.835-1.63 5.784-3.268-1.89 5.264-4.636 10.9-6.05 13.548l-.347.654c-.068-.01-.133-.023-.202-.032-4.236-.596-7.847.337-10.732 2.775-5.69 4.81-6.372 13.685-6.445 16.322-.125 4.42-.885 8.265-1.203 9.265h-2.935c-.32-1-1.078-4.845-1.2-9.265-.074-2.638-.755-11.565-6.446-16.374-2.887-2.437-6.498-3.344-10.735-2.748-.068.01-.134.034-.202.044l-.35-.647c-1.41-2.648-4.16-8.282-6.05-13.546 1.95 1.64 3.886 2.737 5.785 3.27zM51.75 77.44c0 .265 1 .467 2 .603V82h-2v-4.56zM18.434 19.237c.35.9.73 1.834 1.142 2.8a132.67 132.67 0 0 0 3.47 7.476c-1.073.997-2.124 2.203-2.997 3.287-1.4-2.926-1.968-7.6-1.617-13.562zm64.652 64.7c-3.544 2.27-8.262 3.422-14.025 3.422-.44 0-.896-.01-1.353-.023 1.864-3.38 2.406-6.287 2.432-6.434l-2.438-.438-2.434-.447c0 .006-.032.167-.103.446a19.4 19.4 0 0 1-2.885 6.222l-.064.09c-1.21 1.68-2.637 3.03-4.27 4.053-2.507 1.567-5.502 2.36-8.96 2.36-.08 0-.155-.004-.233-.004-.076 0-.153.003-.23.003-3.46 0-6.455-.793-8.96-2.36-1.635-1.02-3.062-2.373-4.272-4.05l-.063-.093a19.4 19.4 0 0 1-2.885-6.222c-.07-.28-.103-.44-.104-.447l-2.435.446-2.436.438c.026.147.568 3.055 2.432 6.434-.458.014-.913.022-1.356.022-5.762 0-10.48-1.15-14.024-3.422-5.84-3.74-9.466-10.373-9.466-17.306 0-4.303 1.315-8.422 3.804-11.912a20.5 20.5 0 0 1 9.726-7.405l1.493-.536.13-1.585c.232-2.867.922-5.79 2.924-7.975 1.687-1.842 4.134-2.63 6.58-2.68 2.34-.047 4.965.072 6.837 1.654 3.274 2.768 4.57 8.418 4.69 12.78.118 4.21.752 7.74 1.164 9.634-1.3.83-1.93 2.77-.67 4.026l4.126 4.36v4.92c0 .212-1.396.836-1.396.836-.785.37-1.515.557-2.398.557-2.008 0-3.833-.96-4.856-2.614-.515-.83-.73-1.69-.73-2.69h-4.954c0 2 .76 3.68 1.76 5.293 1.426 2.31 3.57 3.897 6.57 4.595v9.11h18V77.89c3-.7 5.146-2.287 6.573-4.596C65.32 71.68 66.08 70 66.08 68h-4.95c0 1-.272 1.86-.786 2.69-1.023 1.656-2.906 2.65-4.914 2.65-.884 0-1.496-.205-2.28-.575 0 0-1.397-.64-1.397-.853v-4.918l4.126-4.36c1.254-1.257.742-3.197-.557-4.027.412-1.893.988-5.425 1.105-9.632.12-4.365 1.386-10.014 4.66-12.78 1.873-1.583 4.482-1.702 6.822-1.655 2.447.05 4.887.838 6.573 2.68 2.002 2.186 2.688 5.108 2.92 7.975l.128 1.584 1.493.534a20.492 20.492 0 0 1 9.725 7.405 20.404 20.404 0 0 1 3.804 11.91c-.002 6.935-3.63 13.566-9.468 17.307zm-37.334-6.5V82h-2v-3.958c1-.136 2-.338 2-.603z"/>
</svg>