<?xml version="1.0" encoding="UTF-8" standalone="yes"?>
<svg xmlns="http://www.w3.org/2000/svg" viewBox="0 0 90.784 84.321">
  <path d="M27.113 27.822c-1.303 0-2.602.58-3.658 1.636-2.05 2.05-2.188 4.885-.33 6.743.92.923 2.15 1.43 3.462 1.43a5.01 5.01 0 0 0 3.56-1.48c1.95-1.95 1.973-5.1.05-7.02-.84-.843-1.936-1.307-3.084-1.307zm-.014 5.28a.72.72 0 0 1-.513.217.572.572 0 0 1-.457-.217c.008-.068.08-.304.374-.598.288-.288.52-.365.598-.373a.45.45 0 0 1 .05.042c.24.242.216.657-.053.926zm41.984-.522c-.138-1.13-.692-2.21-1.604-3.12-1.055-1.056-2.354-1.637-3.657-1.637-1.148 0-2.244.464-3.086 1.306a4.86 4.86 0 0 0-1.428 3.526 5.01 5.01 0 0 0 1.48 3.493 5.004 5.004 0 0 0 3.557 1.48A4.86 4.86 0 0 0 67.81 36.2c.985-.986 1.437-2.272 1.273-3.622zm-4.32.574a.575.575 0 0 1-.415.166.718.718 0 0 1-.513-.218.726.726 0 0 1-.218-.502.572.572 0 0 1 .214-.466c.076.007.31.084.598.373.294.294.366.53.373.598a.456.456 0 0 1-.043.05zm.24 44.32l-2.52-3.5c-3.006 2.165-10.99 3.15-17.132 3.15-8.764 0-15.025-1.63-17.133-3.148l-2.52 3.5c3.395 2.442 10.925 3.96 19.65 3.96 8.727 0 16.257-1.52 19.652-3.962zm10.483-38.936c-2.552.093-4.612 1.008-4.84 1.112l-2.364 1.086 1.507 2.12c.342.482.656.968.947 1.46a18.227 18.227 0 0 1 1.65 3.596c.932 2.838.988 5.638.088 8.01-.9 2.375-2.686 4.106-5.16 5.006-.76.276-1.576.47-2.433.576-1.103.138-2.27.136-3.466-.012-2.3-.284-4.614-1.07-6.878-2.338a22.334 22.334 0 0 1-7.417-6.715l-1.77-2.558-1.77 2.557a22.334 22.334 0 0 1-7.416 6.714c-2.264 1.267-4.578 2.054-6.878 2.338a14.06 14.06 0 0 1-3.372.022c-.89-.105-1.74-.3-2.526-.587-2.474-.9-4.26-2.632-5.16-5.007-.923-2.43-.84-5.312.163-8.225a18.44 18.44 0 0 1 1.577-3.38c.29-.49.605-.977.947-1.458l1.507-2.12-2.364-1.087c-.227-.104-2.287-1.02-4.84-1.112-3.734-.138-6.666 1.577-8.266 4.825l3.866 1.905a5.18 5.18 0 0 1 .596-.952c.826-1.035 1.974-1.507 3.545-1.473.292.007.578.03.852.067-.254.466-.487.935-.7 1.406-2.05 4.49-2.413 9.182-.913 13.135 1.34 3.534 4.08 6.208 7.716 7.53.733.268 1.49.477 2.266.63 5.774 4.2 13.264 6.504 21.21 6.504 7.963 0 15.467-2.313 21.247-6.528.736-.15 1.455-.35 2.152-.605 3.635-1.322 6.375-3.996 7.715-7.53 1.165-3.07 1.204-6.59.203-10.11v-.006h-.002a21.31 21.31 0 0 0-1.114-3.017c-.215-.47-.448-.94-.7-1.406.242-.03.493-.053.75-.063 1.62-.06 2.802.412 3.646 1.47.22.277.42.594.596.952l3.867-1.906c-1.597-3.248-4.532-4.963-8.265-4.825zM41.73 60.608a26.797 26.797 0 0 0 3.622-3.44 26.735 26.735 0 0 0 4.448 4.06c-1.136.298-2.543.507-4.26.507h-.072c-1.83 0-3.31-.236-4.483-.565.252-.184.5-.37.744-.563zm3.66 7.192c-4.633 0-9.074-.87-13.006-2.512a23.56 23.56 0 0 0 3.97-1.403c1.83 1.06 4.772 2.16 9.113 2.16h.072c4.234 0 7.14-1.048 8.976-2.083a23.488 23.488 0 0 0 3.85 1.338c-3.926 1.634-8.356 2.5-12.978 2.5z"/>
  <path d="M37.332 44.315c0 .005 0 .01.002.015.507 2.987 3.602 2.002 4.367-.015a2.59 2.59 0 0 0 .166-.718c.196-2.463 1.234-5.1 1.234-5.1s-6.31 2.5-5.768 5.818zm11.52-.8c.017.28.08.55.18.8.765 1.9 3.658 2.75 4.3 0 .013-.056.026-.113.037-.173.63-3.34-5.65-5.7-5.65-5.7s.985 2.615 1.13 5.073z"/>
  <path d="M80.936 27.134c-.226-4.003-1.31-7.75-3.227-11.147-1.94-3.436-4.684-6.44-8.154-8.925C66.286 4.72 62.49 2.915 58.27 1.7 54.147.513 49.815-.058 45.392.005 40.97-.058 36.637.513 32.514 1.7c-4.22 1.215-8.017 3.02-11.287 5.362-3.47 2.487-6.213 5.49-8.152 8.925-1.918 3.398-3 7.144-3.227 11.147-2.05 1.68-7.053 6.448-9.744 14.803L0 42.26v42.06h4.31V42.942c2.93-8.76 8.81-12.896 8.865-12.933l.923-.63.02-1.115c.17-9.055 5.326-14.624 9.62-17.7 2.87-2.057 6.224-3.646 9.97-4.725C37.43 4.77 41.35 4.257 45.36 4.316h.064c4.008-.06 7.93.454 11.653 1.526 3.745 1.08 7.1 2.67 9.97 4.725 4.293 3.077 9.448 8.646 9.62 17.7l.02 1.117.923.627c.06.04 5.91 4.094 8.864 12.933V84.32h4.31V42.26l-.103-.323c-2.69-8.355-7.692-13.122-9.743-14.803z"/>
  <path d="M25.062 48.893l-.102-2.153c-.104.005-2.565.13-4.962 1.115l1.637 3.988c1.69-.693 3.516-.796 3.534-.797l-.11-2.153zm3.288 7.277l-1.368-1.663-1.365-1.668c-.08.064-1.98 1.632-3.32 3.852l3.693 2.225c.943-1.564 2.347-2.736 2.36-2.747zm3.604-3.38c-.043.094-1.054 2.34-1.274 4.924l4.295.365c.154-1.82.897-3.494.904-3.51l-1.965-.887-1.962-.894zm38.938-4.934c-2.398-.984-4.86-1.11-4.962-1.115l-.21 4.307c.02 0 1.846.104 3.535.797l1.637-3.987zm-8.35 8.318c.015.01 1.416 1.18 2.358 2.744l3.692-2.225c-1.338-2.22-3.24-3.788-3.32-3.854l-2.73 3.333zM55.01 54.57c.007.017.75 1.688.904 3.508l4.295-.365c-.22-2.583-1.233-4.83-1.276-4.924l-3.925 1.78zm-9.573-25.118c-3.62 0-7.136.766-10.167 2.216l1.86 3.89c2.454-1.175 5.326-1.795 8.307-1.795 2.98 0 5.853.62 8.307 1.794l1.86-3.89c-3.03-1.45-6.547-2.215-10.167-2.215z"/>
</svg>