<?xml version="1.0" encoding="iso-8859-1"?>
<!-- Generator: Adobe Illustrator 18.0.0, SVG Export Plug-In . SVG Version: 6.00 Build 0)  -->
<!DOCTYPE svg PUBLIC "-//W3C//DTD SVG 1.1//EN" "http://www.w3.org/Graphics/SVG/1.1/DTD/svg11.dtd">
<svg version="1.1" id="Capa_1" xmlns="http://www.w3.org/2000/svg" xmlns:xlink="http://www.w3.org/1999/xlink" x="0px" y="0px"
	 viewBox="0 0 100 86" style="enable-background:new 0 0 100 86;" xml:space="preserve">
<g>
	<path d="M31.089,36.779L31.089,36.779c1.076,0,2.126-0.233,3.123-0.693c3.51-1.62,5.143-5.586,3.64-8.841
		c-1.042-2.257-3.328-3.659-5.967-3.659c-1.076,0-2.126,0.233-3.123,0.693c-3.51,1.62-5.143,5.586-3.641,8.841
		C26.164,35.377,28.45,36.779,31.089,36.779z M30.714,28.508c0.375-0.173,0.78-0.264,1.171-0.264c0.801,0,1.468,0.365,1.739,0.953
		c0.419,0.908-0.206,2.127-1.364,2.661c-0.375,0.173-0.78,0.264-1.171,0.264h0c-0.801,0-1.468-0.365-1.739-0.953
		C28.932,30.261,29.556,29.043,30.714,28.508z"/>
	<path d="M25.949,52.539c0,1.128,0.942,2.07,2.07,2.07c1.128,0,2.07-0.941,2.07-2.07c0-1.128-0.941-2.07-2.07-2.07
		C26.891,50.469,25.949,51.41,25.949,52.539z"/>
	<path d="M33.193,54.815c-1.128,0-2.07,0.941-2.07,2.07c0,1.128,0.941,2.07,2.07,2.07c1.128,0,2.07-0.941,2.07-2.07
		C35.263,55.757,34.321,54.815,33.193,54.815z"/>
	<path d="M37.229,50.365c0-1.128-0.942-2.07-2.07-2.07c-1.128,0-2.07,0.941-2.07,2.07c0,1.128,0.941,2.07,2.07,2.07
		C36.288,52.435,37.229,51.494,37.229,50.365z"/>
	<path d="M100,69.116c0-7.075-2.748-16.487-4.255-21.468c-1.427-4.714-3.123-9.084-4.437-12.019
		c4.142-1.445,7.067-5.391,7.067-10.019c0-5.849-4.786-10.607-10.635-10.607c-2.224,0-4.376,0.701-6.147,1.957
		c-2.615-4.564-6.468-8.483-11.278-11.452C64.328,1.811,57.162-0.027,50.003,0c-7.158-0.028-14.323,1.811-20.31,5.507
		c-4.81,2.97-8.657,6.888-11.272,11.452c-1.771-1.255-3.91-1.957-6.134-1.957c-5.849,0-10.608,4.758-10.608,10.607
		c0,4.628,2.98,8.574,7.122,10.019c-1.315,2.935-3.12,7.305-4.547,12.019C2.748,52.629,0,62.041,0,69.116v3.777l5.027-2.418
		c-0.234,2.967-0.073,7.021,1.113,11.199l1.231,4.145l5.913-6.706C17.684,83.522,23.147,86,28.857,86H50h21.143
		c5.71,0,11.146-2.478,15.546-6.886l5.885,6.746l1.177-4.165c1.186-4.178,1.456-8.242,1.223-11.209L100,72.894V69.116z
		 M93.861,27.514l-4.273,4.245c-0.005-0.172-0.008-0.339-0.006-0.501c0.014-1.619,0.373-2.768,1.056-3.318
		c0.698-0.563,1.8-0.606,2.735-0.498C93.543,27.462,93.706,27.487,93.861,27.514z M6.139,27.514
		c0.155-0.027,0.318-0.052,0.488-0.072c0.935-0.108,2.037-0.065,2.735,0.498c0.683,0.551,1.042,1.7,1.056,3.318
		c0.001,0.162,0,0.329-0.006,0.501L6.139,27.514z M88.26,61.998l1.278,4.963c0.012,0.048,0.986,3.99,0.555,8.889l-3.415-3.938
		l-1.751,2.044C81.152,78.557,76.257,81,71.143,81H50H28.857c-5.114,0-10.01-2.443-13.784-7.044l-1.751-2.089l-3.414,3.96
		c-0.431-4.899,0.543-8.83,0.555-8.877l1.278-4.957l-6.409,3.226c0.64-5.804,2.439-12.384,3.601-16.222
		c2.19-7.237,4.479-12.627,5.288-13.735l2.721-3.724l-1.87,0.009c0.033-3.283-0.899-5.71-2.786-7.231
		c-1.356-1.094-3.148-1.628-5.212-1.566c1.013-1.839,2.971-3.089,5.215-3.089c1.936,0,3.758,0.949,4.874,2.54l2.393,3.411
		l1.651-3.825c2.142-4.963,5.922-9.002,10.933-12.095C37.312,6.495,43.417,5,49.793,5h0.042h0.049C49.923,5,49.961,5.001,50,5.001
		C50.039,5.001,50.077,5,50.116,5h0.049h0.042c6.376,0,12.48,1.495,17.655,4.69c5.01,3.093,8.791,7.242,10.933,12.205l1.651,3.77
		l2.393-3.438c1.116-1.59,2.938-2.553,4.874-2.553c2.244,0,4.202,1.242,5.215,3.082c-2.064-0.062-3.856,0.469-5.212,1.563
		c-1.887,1.522-2.819,3.947-2.786,7.23l-1.87-0.01l2.721,3.724c0.81,1.108,3.098,6.499,5.289,13.736
		c1.161,3.838,2.961,10.419,3.601,16.223L88.26,61.998z"/>
	<path d="M77.508,42.515l-2.078,1.051c0.989,1.954,1.49,4.064,1.49,6.272c0,7.673-6.242,13.915-13.915,13.915
		c-4.333,0-8.344-1.967-11.003-5.398l-0.255-0.329c-0.144-3.553-0.258-9.615,0.427-12.846l2.665-2.665l2.787-2.868
		C58.204,39.069,57.794,38,56.977,38H50h-6.977c-0.817,0-1.227,1.069-0.649,1.647l2.787,2.828l2.665,2.685
		c0.685,3.231,0.571,9.303,0.427,12.856l-0.255,0.334c-2.66,3.43-6.67,5.4-11.004,5.4c-7.672,0-13.915-6.241-13.915-13.913
		c0-2.208,0.501-4.317,1.49-6.271l-2.078-1.051l-2.078-1.051c-1.321,2.612-1.991,5.225-1.991,8.17
		C18.423,59.873,26.755,68,36.995,68C37.002,68,37,68,37,68v10h13h13V68c0,0-0.003,0,0.005,0c10.241,0,18.572-8.126,18.572-18.367
		c0-2.945-0.67-5.66-1.991-8.272L77.508,42.515z M48,74h-6v-6.182c2-0.549,4-1.471,6-2.726V74z M58,74h-6v-8.908
		c2,1.255,4,2.177,6,2.726V74z"/>
	<path d="M65.788,36.086c0.996,0.46,2.047,0.693,3.123,0.693h0c2.639,0,4.925-1.402,5.967-3.658c1.502-3.255-0.131-7.221-3.64-8.841
		c-0.996-0.46-2.047-0.693-3.123-0.693c-2.639,0-4.925,1.402-5.967,3.659C60.645,30.5,62.278,34.466,65.788,36.086z M66.376,29.197
		c0.271-0.588,0.938-0.953,1.739-0.953c0.391,0,0.796,0.091,1.171,0.264c1.158,0.535,1.783,1.753,1.364,2.661
		c-0.271,0.588-0.938,0.953-1.739,0.953h0c-0.391,0-0.796-0.091-1.171-0.264C66.581,31.323,65.957,30.104,66.376,29.197z"/>
	<path d="M71.981,50.469c-1.128,0-2.07,0.941-2.07,2.07c0,1.128,0.941,2.07,2.07,2.07c1.128,0,2.07-0.941,2.07-2.07
		C74.051,51.41,73.109,50.469,71.981,50.469z"/>
	<path d="M66.807,58.955c1.128,0,2.07-0.941,2.07-2.07c0-1.128-0.942-2.07-2.07-2.07c-1.128,0-2.07,0.941-2.07,2.07
		C64.737,58.013,65.678,58.955,66.807,58.955z"/>
	<path d="M66.91,50.365c0-1.128-0.942-2.07-2.07-2.07c-1.128,0-2.07,0.941-2.07,2.07c0,1.128,0.942,2.07,2.07,2.07
		C65.969,52.435,66.91,51.494,66.91,50.365z"/>
	<polygon points="58,34 58,31.201 58,29 50,29 42,29 42,31.201 42,34 50,34 	"/>
</g>
<g>
</g>
<g>
</g>
<g>
</g>
<g>
</g>
<g>
</g>
<g>
</g>
<g>
</g>
<g>
</g>
<g>
</g>
<g>
</g>
<g>
</g>
<g>
</g>
<g>
</g>
<g>
</g>
<g>
</g>
</svg>
