<?xml version="1.0" encoding="iso-8859-1"?>
<!-- Generator: Adobe Illustrator 18.0.0, SVG Export Plug-In . SVG Version: 6.00 Build 0)  -->
<!DOCTYPE svg PUBLIC "-//W3C//DTD SVG 1.1//EN" "http://www.w3.org/Graphics/SVG/1.1/DTD/svg11.dtd">
<svg version="1.1" id="Capa_1" xmlns="http://www.w3.org/2000/svg" xmlns:xlink="http://www.w3.org/1999/xlink" x="0px" y="0px"
	 viewBox="0 0 78.145 87" style="enable-background:new 0 0 78.145 87;" xml:space="preserve">
<path d="M77.837,78.281c-0.027-0.217-2.734-21.969-2.734-45.437c0-8.834-3.44-17.025-9.687-23.272C59.17,3.325,50.864,0,42.03,0
	h-5.948c-8.834,0-17.14,3.325-23.387,9.572c-6.247,6.247-9.687,14.495-9.687,23.329c0,23.468-2.706,45.192-2.734,45.409L0,80.475
	l2.163,0.374c0.099,0.018,2.458,0.424,5.44,0.424c2.574,0,4.842-0.304,6.741-0.9c0.179-0.056,0.355-0.116,0.528-0.177
	c-0.352,0.945-0.818,1.987-1.435,3.099l-1.861,3.498L15.417,87c0,0,0.046,0,0.134,0c0.741,0,4.645-0.201,8.703-1.431
	c3.214-0.974,5.761-2.517,7.571-4.426c0.005,0.01,0.011-0.014,0.016-0.004c1.522,2.948,3.865,4.771,6.775,5.306l0.419,0.069
	l0.02-0.008l0.02,0.001l0.419-0.078c2.91-0.535,5.253-2.377,6.775-5.324c0.005-0.01,0.011-0.021,0.016-0.031
	c1.81,1.909,4.357,3.521,7.571,4.495C57.914,86.799,61.819,87,62.56,87c0.088,0,0.135,0,0.135,0l3.859-0.208l-1.882-3.434
	c-0.622-1.111-1.09-2.187-1.442-3.132c0.176,0.063,0.421,0.105,0.604,0.163c1.899,0.596,3.807,0.89,6.807,0.89v-0.004
	c3,0,5.276-0.412,5.374-0.43l2.13-0.383L77.837,78.281z M66.1,19.208c0.003-0.001,0.011-0.004,0.033-0.004
	c0.301,0,1.079,0.479,1.509,1.586c0.24,0.619,0.301,1.263,0.167,1.767c-0.078,0.291-0.195,0.424-0.236,0.441
	c-0.003,0.001-0.011,0.004-0.033,0.004c-0.302,0-1.079-0.479-1.509-1.586C65.564,20.214,65.906,19.283,66.1,19.208z M54.596,9.55
	c0.604-0.559,1.43-0.84,2.51-0.854c1.808,1.134,3.502,2.479,5.048,4.025c0.729,0.729,1.411,1.491,2.05,2.281
	c-2.699,1.21-3.788,4.704-2.474,8.085c1.052,2.709,3.387,4.529,5.81,4.53h0c0.588,0,1.162-0.107,1.704-0.318
	c0.224-0.087,0.438-0.192,0.643-0.312c0.397,1.906,0.602,3.865,0.602,5.857c0,5.627,0.154,11.156,0.389,16.321
	c-2.375,0.706-4.354,0.531-6.019-0.527c-1.265-0.804-2.3-2.078-3.141-3.581L61.3,43.512c-0.273-1.008-0.582-4.72-0.509-16.684
	c0.003-0.505,0.005-0.894,0.005-1.134c0-5.483-2.308-10-6.674-13.062c-0.254-0.178-0.515-0.351-0.781-0.518
	C53.502,11.283,53.861,10.229,54.596,9.55z M21.936,26.8c-0.003-0.492-0.005-0.872-0.005-1.107c0-3.969,1.584-7.092,4.708-9.283
	c0.69-0.484,1.455-0.917,2.283-1.298c-0.672,0.771-0.874,1.73-0.426,2.392c0.575,0.849,2.001,0.888,3.186,0.086
	s1.68-2.14,1.105-2.99c-0.192-0.284-0.481-0.476-0.823-0.577c2.137-0.577,4.536-0.881,7.091-0.882
	c2.556,0.001,4.956,0.305,7.093,0.882c-0.342,0.102-0.631,0.293-0.823,0.577c-0.575,0.849-0.08,2.188,1.105,2.99
	c1.185,0.802,2.611,0.763,3.186-0.086c0.448-0.662,0.246-1.621-0.426-2.392c0.828,0.381,1.593,0.815,2.283,1.298
	c3.124,2.191,4.708,5.315,4.708,9.283c0,0.235-0.002,0.614-0.005,1.106c-0.01,1.582-0.013,3.047-0.011,4.403
	c0.001,0.394,0.002,0.78,0.004,1.156c0.005,1.16,0.016,2.233,0.031,3.222c0.014,0.893,0.032,1.719,0.055,2.479
	c-0.238-0.216-0.484-0.435-0.734-0.655c-0.423-0.372-0.862-0.748-1.314-1.124c-0.789-0.654-1.616-1.304-2.467-1.92
	c-1.25-0.905-2.547-1.737-3.835-2.396l-2.31-1.183l-0.905,2.433c-0.017,0.045-1.576,4.14-5.634,7.56
	c-4.019-3.396-5.621-7.521-5.636-7.56l-0.905-2.433l-2.31,1.183c-1.278,0.655-2.565,1.479-3.806,2.376
	c-0.923,0.667-1.82,1.375-2.669,2.084c-0.383,0.321-0.755,0.641-1.116,0.959c-0.258,0.227-0.512,0.453-0.758,0.676
	c0.023-0.786,0.042-1.642,0.056-2.571c0.015-0.961,0.025-2.001,0.03-3.123c0.002-0.366,0.003-0.74,0.004-1.123
	C21.95,29.877,21.946,28.398,21.936,26.8z M49.809,38.673c-0.151,0.269-0.309,0.539-0.475,0.81c-2.607,4.243-5.887,6.48-9.755,6.659
	l0.807-0.569c3.832-2.702,6.185-6.067,7.448-8.306C48.499,37.702,49.161,38.178,49.809,38.673z M38.53,46.139
	c-3.823-0.19-7.072-2.394-9.662-6.562c-0.191-0.308-0.372-0.616-0.543-0.923c0.641-0.489,1.295-0.958,1.953-1.389
	c1.263,2.24,3.616,5.604,7.448,8.307L38.53,46.139z M24.743,41.675c0.045,0.074,0.089,0.149,0.135,0.223
	c3.565,5.803,8.474,8.871,14.194,8.871c5.721,0,10.629-3.068,14.194-8.871c0.042-0.068,0.082-0.135,0.122-0.203
	c1.264,1.161,2.323,2.226,3.027,2.959c0.061,0.151,0.123,0.3,0.186,0.447c-0.338,1.875-1.188,5.605-3.056,9.268
	c-3.322,6.513-8.239,9.815-14.616,9.815c-6.366,0-11.232-3.295-14.464-9.794c-1.907-3.835-2.697-7.745-2.978-9.518
	C22.185,44.138,23.338,42.965,24.743,41.675z M36.082,4h5.948c3.316,0,6.545,0.756,9.579,1.837
	c-0.064,0.056-0.127,0.209-0.186,0.264c-1.254,1.177-1.949,2.669-2.335,3.944c-2.95-1.031-6.336-1.541-10.033-1.543
	c-3.695,0.002-7.082,0.548-10.031,1.579c-0.386-1.275-1.081-2.713-2.335-3.89c-0.059-0.056-0.122-0.301-0.186-0.358
	C29.537,4.753,32.766,4,36.082,4z M10.47,20.789c0.43-1.107,1.207-1.586,1.509-1.586c0.022,0,0.03,0.003,0.033,0.004
	c0.194,0.075,0.536,1.006,0.069,2.208c-0.43,1.107-1.207,1.586-1.509,1.586c-0.022,0-0.03-0.003-0.033-0.004
	c-0.041-0.016-0.159-0.149-0.236-0.441C10.169,22.052,10.23,21.408,10.47,20.789z M7.623,32.844c0-1.992,0.205-3.951,0.602-5.857
	c0.206,0.119,0.419,0.225,0.643,0.312c0.542,0.211,1.116,0.318,1.704,0.318c2.423,0,4.758-1.82,5.81-4.53
	c1.314-3.381,0.225-6.875-2.474-8.085c0.639-0.791,1.321-1.553,2.05-2.281c1.546-1.546,3.24-2.891,5.048-4.025
	c1.08,0.015,1.906,0.295,2.51,0.854c0.734,0.679,1.094,1.733,1.255,2.565c-0.266,0.167-0.527,0.339-0.782,0.518
	c-4.366,3.062-6.674,7.579-6.674,13.062c0,0.241,0.002,0.63,0.005,1.135c0.073,11.964-0.237,15.676-0.509,16.683l-0.262,0.969
	c-0.893,1.753-2.025,3.252-3.449,4.157c-1.629,1.036-3.56,1.225-5.869,0.57C7.469,44.03,7.623,38.487,7.623,32.844z M70.509,76.655
	L70.509,76.655c-2.612,0-7.204-0.385-8.625-2.965l-3.717-6.746l-0.604,7.678c-0.012,0.152-0.21,3.021,1.348,7.194
	c-3.91-0.558-9.71-2.181-10.953-6.903c-0.273-1.039-1.215-1.765-2.29-1.765c-1.185,0-2.194,0.886-2.348,2.061
	c-0.082,0.625-0.358,2.246-1.15,3.78c-0.789,1.527-1.81,2.451-3.114,2.812c-1.304-0.361-2.325-1.285-3.114-2.812
	c-0.792-1.534-1.068-3.154-1.15-3.779c-0.153-1.175-1.163-2.062-2.348-2.062c-1.075,0-2.016,0.726-2.289,1.765
	c-1.245,4.727-7.055,6.349-10.965,6.905c1.209-3.244,1.455-5.892,1.361-7.183l-0.568-7.758l-3.754,6.813
	c-1.422,2.58-6.014,2.965-8.624,2.965c-0.914,0-1.766-0.045-2.483-0.104c0.429-3.865,1.281-12.257,1.871-22.649
	c0.958,0.205,1.887,0.309,2.787,0.309c2.103,0,4.044-0.561,5.806-1.683c0.874-0.557,1.687-1.245,2.439-2.061
	c0.522,1.793,1.247,3.819,2.248,5.854c4.015,8.163,10.467,12.478,18.658,12.478c8.18,0,14.678-4.307,18.79-12.456
	c1.014-2.008,1.758-4.009,2.301-5.784c0.728,0.776,1.514,1.433,2.355,1.969c1.762,1.122,3.702,1.683,5.806,1.683
	c0.946,0,1.926-0.115,2.937-0.342c0.59,10.408,1.444,18.813,1.873,22.683C72.274,76.61,71.424,76.655,70.509,76.655z"/>
<g>
</g>
<g>
</g>
<g>
</g>
<g>
</g>
<g>
</g>
<g>
</g>
<g>
</g>
<g>
</g>
<g>
</g>
<g>
</g>
<g>
</g>
<g>
</g>
<g>
</g>
<g>
</g>
<g>
</g>
</svg>
