<?xml version="1.0" encoding="iso-8859-1"?>
<!-- Generator: Adobe Illustrator 18.0.0, SVG Export Plug-In . SVG Version: 6.00 Build 0)  -->
<!DOCTYPE svg PUBLIC "-//W3C//DTD SVG 1.1//EN" "http://www.w3.org/Graphics/SVG/1.1/DTD/svg11.dtd">
<svg version="1.1" id="Capa_1" xmlns="http://www.w3.org/2000/svg" xmlns:xlink="http://www.w3.org/1999/xlink" x="0px" y="0px"
	 viewBox="0 0 73.791 96.477" style="enable-background:new 0 0 73.791 96.477;" xml:space="preserve">
<g>
	<path d="M68.482,51.257c0.875-0.664,1.67-1.448,2.361-2.339c2.067-2.666,2.971-5.977,2.548-9.324
		c-0.725-5.726-5.241-10.17-10.821-10.928c-2.464-2.467-5.675-4.305-9.647-5.534c0.545-2.68,1.29-4.837,1.914-6.35
		c2.073,1.645,5.453,3.684,9.962,4.763c0.945,0.226,1.836,0.237,2.649,0.237c0,0,0.001,0,0.001,0c2.506,0,3.968-0.973,4.754-1.876
		c1.958-2.25,1.577-5.392,1.527-5.749l-0.225-1.637l-1.664-0.217c-0.059-0.009-5.936-0.906-9.596-5.539
		c-2.438-3.086-6.184-6.76-10.19-6.76c-1.066,0-1.75,0.276-1.995,0.394l-0.777,0.376l-8.204,20.492
		c-1.332-0.064-2.732-0.097-4.182-0.097c-1.45,0-2.85,0.033-4.182,0.097L24.51,0.778l-0.773-0.375C23.488,0.281,22.792,0,21.707,0
		c-4.028,0-7.753,3.687-10.168,6.781c-3.736,4.785-9.314,5.502-9.504,5.525l-1.73,0.158L0.062,14.21
		c-0.05,0.357-0.43,3.551,1.528,5.8c0.786,0.903,2.249,1.98,4.755,1.98c0.813,0,1.704-0.115,2.649-0.341
		c4.509-1.078,7.888-3.221,9.962-4.866c0.624,1.513,1.368,3.671,1.914,6.35c-3.971,1.228-7.181,3.065-9.645,5.531
		c-5.587,0.751-10.112,5.199-10.838,10.93c-0.424,3.346,0.481,6.658,2.548,9.324c0.696,0.897,1.495,1.685,2.378,2.352
		c0.331,3.191,0.98,6.42,1.928,9.532c0.749,2.457,1.688,4.851,2.783,7.117c-1.479,1.726-2.919,3.791-4.315,6.195
		c-2.747,4.73-4.3,9.031-4.365,9.212l-0.388,1.083l0.661,0.942c4.657,6.642,9.948,10.349,15.724,11.018
		c0.636,0.074,1.257,0.107,1.861,0.107c6.599,0,11.198-4.031,11.407-4.218l3.914-3.494l-5.233-0.381
		c-4.153-0.303-6.682-2.691-7.911-4.259l1.217-1.105c4.354,2.888,9.212,4.41,14.3,4.41c5.089,0,9.946-1.523,14.3-4.41l1.217,1.105
		c-1.227,1.563-3.759,3.956-7.911,4.259l-5.233,0.381l3.914,3.494c0.209,0.187,4.808,4.218,11.407,4.218
		c0.604,0,1.226-0.034,1.861-0.107c5.777-0.669,11.067-4.376,15.724-11.018l0.661-0.942l-0.388-1.083
		c-0.065-0.181-1.618-4.482-4.365-9.212c-1.396-2.404-2.836-4.469-4.315-6.195c1.095-2.265,2.035-4.659,2.783-7.117
		C67.501,57.686,68.151,54.452,68.482,51.257z M9.562,48.891c-1.212-0.542-2.279-1.498-3.115-2.577
		c-0.577-0.744-1.013-1.626-1.302-2.494c-0.382-1.147-0.506-2.404-0.349-3.639c0.209-1.65,0.904-3.15,1.928-4.335
		c1.509-1.745,3.733-2.844,6.177-2.844c0.133,0,0.268,0,0.402,0.007c0.213,0.01,0.427,0.026,0.639,0.053
		c0.093,0.012,0.465,0.38,0.775,1.406c0.405,1.343,0.554,3.249,0.421,5.367c-0.164,2.609-0.73,5.442-1.552,7.353
		c-0.836,1.943-1.576,2.592-1.687,2.592c-0.002,0-0.006,0-0.012,0C11.072,48.782,10.291,49.217,9.562,48.891z M64.205,76.287
		c1.773,3.042,3.032,5.953,3.642,7.464c-3.69,4.937-7.674,7.693-11.854,8.196c-2.079,0.25-3.97-0.099-5.528-0.636
		c4.672-2.295,6.724-6.35,6.836-6.577l0.74-1.502l-3.284-2.981l-3.308-3.003l-0.443-0.403c1.377-3.606,0.876-6.692,0.14-8.746
		c-0.465-1.298-1.069-2.328-1.565-3.041c-0.457-0.658-0.821-1.046-0.896-1.124l-1.6,1.543l-1.6,1.543
		c0.037,0.039,3.694,3.926,0.862,9.359l-0.793,1.521l2.23,2.024c-3.393,2.031-7.055,3.062-10.889,3.062
		c-3.835,0-7.497-1.03-10.89-3.062l2.23-2.024l-0.792-1.521c-2.789-5.351,0.723-9.21,0.874-9.372l-0.012,0.013l-1.6-1.543
		l-1.6-1.543c-0.076,0.078-0.44,0.467-0.896,1.124c-0.495,0.713-1.099,1.743-1.565,3.041c-0.736,2.054-1.237,5.14,0.14,8.746
		l-0.443,0.403l-3.308,3.003l-3.284,2.981l0.74,1.502c0.112,0.227,2.164,4.282,6.836,6.577c-1.558,0.538-3.45,0.886-5.528,0.636
		c-4.18-0.503-8.164-3.259-11.854-8.196c0.61-1.511,1.87-4.422,3.642-7.464c0.903-1.55,1.822-2.938,2.749-4.156
		c1.035-1.36,2.08-2.508,3.123-3.433c1.346-1.192,2.688-2.013,4.003-2.436l-0.681-2.116L18.1,62.03
		c-1.598,0.514-3.168,1.383-4.703,2.597c-0.73-1.651-1.371-3.367-1.905-5.121c-0.601-1.971-1.069-3.992-1.401-6.015
		c0.406,0.092,0.818,0.165,1.237,0.218c0.189,0.024,0.381,0.036,0.57,0.036c2.978,0,4.782-2.741,5.771-5.04
		c1.016-2.361,1.71-5.492,1.905-8.589c0.315-4.986-0.648-8.631-2.635-10.367c1.93-1.243,4.253-2.184,6.995-2.852l1.973-0.481
		l-0.301-2.008c-1.141-7.616-3.933-12.245-4.051-12.439l-1.584-2.589l-1.99,2.291c-0.036,0.041-3.645,4.128-10.022,5.654
		c-0.607,0.145-1.15,0.219-1.615,0.219c-1.001,0-1.297-0.335-1.395-0.445c-0.178-0.201-0.298-0.481-0.376-0.783
		c2.588-0.682,7.063-2.436,10.47-6.8c3.025-3.875,5.157-4.807,6.169-5.015l8.572,21.411l1.619-0.115
		c1.696-0.121,3.543-0.182,5.492-0.182s3.796,0.061,5.492,0.182l1.619,0.115l8.567-21.399c1.021,0.219,3.145,1.168,6.182,5.012
		c3.326,4.21,7.888,6.019,10.474,6.747c-0.076,0.311-0.197,0.607-0.381,0.818c-0.097,0.112-0.393,0.452-1.401,0.452h-0.001
		c-0.465,0-1.009-0.074-1.616-0.219c-6.309-1.509-9.991-5.618-10.022-5.654l-1.99-2.291l-1.584,2.589
		c-0.118,0.193-2.91,4.822-4.051,12.439l-0.301,2.008l1.973,0.481c2.738,0.667,5.059,1.607,6.987,2.847
		c-1.991,1.734-2.956,5.38-2.642,10.369c0.195,3.098,0.889,6.229,1.905,8.591c1.792,4.167,4.127,5.042,5.771,5.042
		c0,0,0.001,0,0.001,0c0.189,0,0.381-0.012,0.57-0.036c0.424-0.054,0.842-0.128,1.253-0.222c-0.332,2.024-0.8,4.047-1.402,6.019
		c-0.535,1.755-1.175,3.471-1.905,5.121c-1.535-1.214-3.105-2.083-4.703-2.597l-0.681,2.116l-0.681,2.116
		c1.315,0.423,2.658,1.244,4.004,2.436c1.043,0.925,2.088,2.073,3.123,3.433C62.383,73.349,63.302,74.737,64.205,76.287z
		 M61.89,49.782c-0.007,0-0.01,0-0.011,0c-0.111,0-0.852-0.65-1.688-2.594c-0.822-1.912-1.388-4.625-1.552-7.234
		c-0.133-2.117,0.016-4.083,0.421-5.425c0.309-1.025,0.681-1.424,0.774-1.436c0.217-0.027,0.435-0.06,0.654-0.071
		c0.13-0.006,0.259-0.018,0.388-0.018c2.459,0,4.695,1.101,6.204,2.864c1.01,1.18,1.694,2.651,1.901,4.286
		c0.155,1.221,0.036,2.435-0.336,3.571c-0.289,0.881-0.73,1.715-1.315,2.469c-0.833,1.074-1.894,2.148-3.1,2.69
		C63.496,49.214,62.71,48.782,61.89,49.782z"/>
	<path d="M42.688,55.9l-3.241,3.241c-0.887,0.887-0.887,2.326,0,3.213c0.444,0.444,1.025,0.665,1.607,0.665
		c0.582,0,1.163-0.222,1.607-0.665l3.242-3.242c0.887-0.887,0.887-2.326,0-3.213C45.014,55.013,43.576,55.013,42.688,55.9z"/>
	<path d="M31.005,55.9c-0.887-0.887-2.326-0.887-3.213,0c-0.887,0.887-0.887,2.326,0,3.213l3.241,3.242
		c0.444,0.444,1.025,0.665,1.607,0.665s1.163-0.222,1.607-0.665c0.887-0.887,0.887-2.326,0-3.213L31.005,55.9z"/>
	<rect x="33.253" y="42.782" width="7" height="7"/>
</g>
<g>
</g>
<g>
</g>
<g>
</g>
<g>
</g>
<g>
</g>
<g>
</g>
<g>
</g>
<g>
</g>
<g>
</g>
<g>
</g>
<g>
</g>
<g>
</g>
<g>
</g>
<g>
</g>
<g>
</g>
</svg>
