<?xml version="1.0" encoding="iso-8859-1"?>
<!-- Generator: Adobe Illustrator 18.0.0, SVG Export Plug-In . SVG Version: 6.00 Build 0)  -->
<!DOCTYPE svg PUBLIC "-//W3C//DTD SVG 1.1//EN" "http://www.w3.org/Graphics/SVG/1.1/DTD/svg11.dtd">
<svg version="1.1" id="Capa_1" xmlns="http://www.w3.org/2000/svg" xmlns:xlink="http://www.w3.org/1999/xlink" x="0px" y="0px"
	 viewBox="0 0 85.923 98.312" style="enable-background:new 0 0 85.923 98.312;" xml:space="preserve">
<g>
	<path d="M1.765,2.118l-0.323,1.2c-1.087,4.042-1.563,7.931-1.415,11.558c0.126,3.087,0.701,5.994,1.71,8.64
		c1.241,3.256,3.057,5.805,4.704,7.359c-2.164,6.543-2.293,12.523-2.26,14.612c-2.155,3.37-4.205,8.863-3.319,17.074
		c0.803,7.442,4.801,13.202,11.562,16.657c3.424,1.75,6.727,2.473,8.514,2.759c0.97,1.807,2.226,3.652,3.835,5.505l1.067,1.228
		l2.784-1.026l-0.19,1.424l0.089,0.405c0.042,0.193,1.08,4.749,5.179,7.091c1.991,1.137,5.626,1.706,9.261,1.706
		c3.635,0,7.271-0.569,9.261-1.706c4.099-2.342,5.137-6.898,5.179-7.091l0.088-0.405l-0.19-1.424l2.784,1.026l1.067-1.228
		c1.648-1.898,2.927-3.788,3.906-5.637c1.811-0.298,5.047-1.028,8.399-2.74c6.761-3.456,10.759-9.216,11.562-16.657
		c0.88-8.154-1.135-13.626-3.274-17.003c0.03-2.126-0.111-8.072-2.262-14.573c0.515-0.485,1.034-1.053,1.526-1.674
		c1.295-1.634,2.364-3.546,3.179-5.683c1.009-2.646,1.584-5.553,1.71-8.64c0.148-3.627-0.328-7.516-1.415-11.558l-0.323-1.2
		l-1.173-0.412c-0.211-0.074-5.23-1.809-11.202-1.702c-7.517,0.136-13.211,3.102-16.595,8.608
		c-6.338-1.804-11.552-1.85-12.228-1.845c-0.673-0.003-5.89,0.041-12.228,1.845c-3.384-5.506-9.078-8.472-16.595-8.608
		C8.17-0.103,3.148,1.633,2.937,1.707L1.765,2.118z M14.438,74.955c-5.272-2.741-8.263-7.081-8.891-12.899
		c-0.387-3.589-0.18-6.791,0.613-9.578c2.536,1.113,3.495,3.536,4.767,7.245c1.219,3.554,2.702,7.874,7.09,10.024
		c-0.072,2.096,0.126,4.441,0.8,6.934C17.504,76.305,15.977,75.755,14.438,74.955z M27.307,83.147
		c-2.95-3.805-4.486-7.841-4.593-12.053c0.908,0.133,1.772,0.192,2.59,0.192c3.231,0,5.75-0.922,7.497-1.882
		c0.722-0.397,1.354-0.82,1.897-1.234c1.277,2.117,3.171,4.252,5.907,5.341v4.736L27.307,83.147z M49.884,92.513
		c-0.938,0.536-3.442,1.077-6.923,1.077c-3.481,0-5.985-0.541-6.923-1.077c-1.77-1.012-2.556-2.903-2.814-3.679l0.399-2.992
		l9.338-3.44l9.338,3.44l0.399,2.992C52.44,89.61,51.654,91.501,49.884,92.513z M58.616,83.147l-13.298-4.899v-4.736
		c2.654-1.056,4.516-3.097,5.791-5.151c0.484,0.353,1.031,0.708,1.643,1.045c1.747,0.959,4.266,1.882,7.497,1.882
		c0.929,0,1.917-0.077,2.962-0.25C63.117,75.268,61.581,79.324,58.616,83.147z M79.714,52.347c0.798,2.792,1.006,6,0.618,9.596
		c-0.628,5.819-3.619,10.159-8.891,12.899c-1.507,0.784-3.003,1.327-4.298,1.701c0.664-2.516,0.845-4.877,0.755-6.982
		c4.109-2.206,5.542-6.384,6.727-9.838C75.951,55.861,76.935,53.393,79.714,52.347z M5.676,5.802
		c1.646-0.446,4.833-1.149,8.377-1.084c6.489,0.118,11.001,2.72,13.411,7.735l0.898,1.869l1.968-0.653
		c6.487-2.152,12.011-2.19,12.62-2.186h0.022c0.611-0.005,6.133,0.034,12.62,2.186l1.968,0.653l0.898-1.869
		c2.395-4.983,6.867-7.585,13.293-7.732c3.571-0.082,6.826,0.634,8.497,1.085c1.774,7.524,0.751,12.841-0.466,16.033
		c-1.484,3.893-3.635,5.828-4.271,6.199l-1.727,1.006l0.71,1.868c1.264,3.323,1.905,6.607,2.226,9.258
		c-0.828-0.564-1.413-0.841-1.547-0.901l-1.937,4.297l-0.019-0.009c0.022,0.01,2.193,1.058,4.133,3.795
		c0.158,0.222,0.309,0.45,0.455,0.681c-4.817,1.938-6.36,6.435-7.638,10.162c-0.934,2.721-1.705,4.776-3.069,6.151
		c-1.207-4.563-3.327-7.492-3.428-7.631l-3.8,2.788c0.02,0.028,1.949,2.742,2.863,6.832c-4.897,0.911-8.042-1.014-9.546-2.33
		c1.357-3.398,1.107-6.26-0.717-13.264c-0.314-1.205-0.379-2.362-0.197-3.462c0.94,0.782,2.147,1.205,3.478,1.205h0
		c1.615,0,3.234-0.624,4.556-1.757c1.248-1.069,2.097-2.486,2.392-3.99c0.33-1.684-0.075-3.344-1.112-4.554
		c-0.996-1.162-2.446-1.802-4.084-1.802c-1.284,0-2.57,0.396-3.708,1.127c-0.206,0.123-1.086,0.67-2.132,1.658
		c-0.189-7.691,0.354-9.265,0.272-9.153l-3.804-2.782c-0.579,0.791-0.997,2.023-1.156,5.466c-0.087,1.884-0.089,4.329-0.006,7.268
		c0.141,4.955,0.544,9.749,0.544,9.749c0.069,0.731,0.2,1.471,0.394,2.217c1.823,7.002,1.736,8.62,0.647,10.932
		c-3.482,0.771-5.596,2.078-5.596,2.078s-2.12-1.311-5.611-2.081c-1.088-2.311-1.174-3.931,0.649-10.929
		c0.194-0.745,0.325-1.485,0.394-2.216c0,0,0.391-4.795,0.532-9.75c0.084-2.939,0.082-5.384-0.005-7.268
		c-0.16-3.443-0.578-4.675-1.156-5.466l-3.804,2.782c-0.082-0.112,0.46,1.46,0.272,9.142c-0.698-0.658-1.321-1.119-1.718-1.389
		c-1.226-0.896-2.656-1.385-4.085-1.385c-1.638,0-3.088,0.64-4.084,1.802c-1.037,1.21-1.442,2.87-1.112,4.554
		c0.295,1.504,1.145,2.922,2.392,3.99c1.322,1.133,2.94,1.757,4.556,1.757c1.321,0,2.52-0.417,3.457-1.188
		c0.178,1.095,0.112,2.246-0.2,3.445c-1.78,6.834-2.06,9.724-0.813,13.017c-0.511,0.48-1.27,1.089-2.272,1.614
		c-2.13,1.116-4.538,1.46-7.179,1.028c0.911-4.138,2.862-6.874,2.883-6.904l-1.905-1.387l-1.9-1.394
		c-0.103,0.141-2.308,3.187-3.501,7.91c-1.553-1.368-2.367-3.518-3.366-6.431c-1.25-3.645-2.753-8.027-7.324-10.03
		c0.149-0.237,0.305-0.47,0.467-0.698c1.94-2.738,4.112-3.785,4.133-3.796l-0.019,0.009l-1.937-4.297
		c-0.132,0.059-0.704,0.329-1.514,0.878c0.317-2.667,0.958-5.988,2.236-9.349l0.711-1.868l-1.727-1.006
		c-0.637-0.371-2.788-2.306-4.272-6.199C4.022,16.281,4.631,10.25,5.676,5.802z M56.016,41.716c0.455-0.39,1.012-0.623,1.489-0.623
		c0.112,0,0.384,0.015,0.505,0.155c0.092,0.107,0.116,0.324,0.066,0.58c-0.09,0.461-0.394,0.942-0.834,1.318
		c-0.455,0.39-1.012,0.623-1.489,0.623c-0.112,0-0.384-0.015-0.504-0.156C55.032,43.362,55.16,42.449,56.016,41.716z M30.686,43.614
		c-0.12,0.14-0.393,0.156-0.504,0.156c-0.477,0-1.034-0.233-1.49-0.623c-0.44-0.376-0.743-0.857-0.834-1.318
		c-0.05-0.256-0.026-0.473,0.066-0.58c0.12-0.14,0.393-0.155,0.504-0.155c0.477,0,1.034,0.233,1.489,0.623
		C30.775,42.449,30.903,43.362,30.686,43.614z"/>
	<path d="M13.769,26.382c0,0,3.877-6.226,11.744-10.312c0,0-1.564-11.319-17.762-8.268C7.751,7.802,4.534,20.048,13.769,26.382z"/>
	<path d="M72.154,26.382c9.235-6.334,6.018-18.58,6.018-18.58C61.975,4.751,60.41,16.07,60.41,16.07
		C68.277,20.155,72.154,26.382,72.154,26.382z"/>
	<path d="M29.038,77.67c-1.616,0-1.616,2.506,0,2.506C30.654,80.176,30.654,77.67,29.038,77.67z"/>
	<path d="M27.404,73.911c-1.616,0-1.616,2.506,0,2.506C29.02,76.417,29.02,73.911,27.404,73.911z"/>
	<path d="M32.96,73.911c-1.616,0-1.616,2.506,0,2.506C34.576,76.417,34.576,73.911,32.96,73.911z"/>
	<path d="M56.845,77.67c-1.616,0-1.616,2.506,0,2.506S58.461,77.67,56.845,77.67z"/>
	<path d="M58.479,73.911c-1.616,0-1.616,2.506,0,2.506C60.095,76.417,60.095,73.911,58.479,73.911z"/>
	<path d="M52.923,73.911c-1.616,0-1.616,2.506,0,2.506C54.539,76.417,54.539,73.911,52.923,73.911z"/>
</g>
<g>
</g>
<g>
</g>
<g>
</g>
<g>
</g>
<g>
</g>
<g>
</g>
<g>
</g>
<g>
</g>
<g>
</g>
<g>
</g>
<g>
</g>
<g>
</g>
<g>
</g>
<g>
</g>
<g>
</g>
</svg>
