<?xml version="1.0" encoding="iso-8859-1"?>
<!-- Generator: Adobe Illustrator 18.0.0, SVG Export Plug-In . SVG Version: 6.00 Build 0)  -->
<!DOCTYPE svg PUBLIC "-//W3C//DTD SVG 1.1//EN" "http://www.w3.org/Graphics/SVG/1.1/DTD/svg11.dtd">
<svg version="1.1" id="Capa_1" xmlns="http://www.w3.org/2000/svg" xmlns:xlink="http://www.w3.org/1999/xlink" x="0px" y="0px"
	 viewBox="0 0 103.931 98.061" style="enable-background:new 0 0 103.931 98.061;" xml:space="preserve">
<g>
	<path d="M39.19,63.928c-1.828,0-3.525,1.075-4.654,2.949c-0.919,1.525-1.425,3.502-1.425,5.568s0.506,4.043,1.425,5.568
		c1.129,1.874,2.826,2.949,4.654,2.949c1.828,0,3.524-1.075,4.654-2.949c0.919-1.525,1.425-3.502,1.425-5.568
		s-0.506-4.043-1.425-5.568C42.715,65.003,41.019,63.928,39.19,63.928z M39.19,76.196c-0.412-0.153-1.318-1.554-1.318-3.751
		s0.906-3.598,1.318-3.751c0.412,0.154,1.318,1.554,1.318,3.751C40.508,74.641,39.602,76.042,39.19,76.196z"/>
	<path d="M59.716,66.877c-0.919,1.525-1.425,3.502-1.425,5.568s0.506,4.043,1.425,5.568c1.13,1.874,2.826,2.949,4.654,2.949
		c1.828,0,3.524-1.075,4.654-2.949c0.919-1.525,1.425-3.502,1.425-5.568s-0.506-4.043-1.425-5.568
		c-1.13-1.874-2.826-2.949-4.654-2.949C62.542,63.928,60.846,65.003,59.716,66.877z M64.37,68.694
		c0.412,0.153,1.318,1.554,1.318,3.751s-0.906,3.598-1.318,3.751c-0.412-0.153-1.318-1.554-1.318-3.751S63.958,68.847,64.37,68.694z
		"/>
	<path d="M102.177,7.723c-2.221-4.025-6.197-6.849-10.636-7.554c-2.324-0.369-4.678-0.088-6.843,0.72
		c-4.087,1.526-3.443,3.879-3.443,3.879c0.162,1.185,1.015,1.671,1.578,1.992c2.237,1.275,4.973,3.257,5.304,5.46
		c0.135,0.897-0.164,1.87-0.888,2.903c-0.724-1.156-1.669-2.267-2.793-3.26c-2.343-2.072-5.109-3.322-7.59-3.43
		c-0.573-0.025-3.494-0.046-4.787,2c-0.562,0.889-0.722,1.917-0.465,2.973c0.166,0.681,0.498,1.346,1.014,2.032
		c0.731,0.971,1.698,1.789,2.276,2.277c0.064,0.054,0.123,0.104,0.177,0.15c2.33,1.993,3.211,3.24,3.542,3.865
		c-0.843,0.433-1.691,0.833-2.527,1.202c-1.7-4.662-7.277-9.26-11.901-9.462c-0.573-0.025-3.494-0.046-4.787,2
		c-0.518,0.82-0.694,1.758-0.516,2.727c-3.17-0.996-6.074-1.087-7.014-1.087c-0.07,0-0.124,0-0.161,0.001
		c-0.038-0.001-0.092-0.001-0.162-0.001c-0.888,0-3.528,0.081-6.489,0.929c0.132-0.913-0.053-1.794-0.543-2.569
		c-1.293-2.046-4.214-2.025-4.786-2c-4.626,0.202-10.205,4.803-11.903,9.467c-0.837-0.369-1.685-0.769-2.528-1.203
		c0.058-0.108,0.13-0.234,0.221-0.374c0.43-0.665,1.355-1.811,3.324-3.495c0.054-0.046,0.113-0.096,0.177-0.15
		c0.578-0.488,1.545-1.306,2.276-2.277c0.516-0.686,0.848-1.35,1.014-2.032c0.258-1.056,0.097-2.084-0.464-2.973
		c-1.293-2.046-4.214-2.025-4.786-2c-2.481,0.108-5.247,1.358-7.59,3.43c-1.123,0.993-2.068,2.104-2.792,3.26
		c-0.725-1.033-1.023-2.006-0.889-2.903c0.331-2.203,3.067-4.185,5.304-5.46c0.564-0.321,1.416-0.807,1.579-1.992
		c0,0,0.379-2.353-3.443-3.879c-2.146-0.857-4.519-1.089-6.843-0.72C7.951,0.873,3.975,3.697,1.754,7.722
		c-0.682,1.237-1.177,2.555-1.471,3.917c-0.683,3.167-0.128,6.258,1.65,9.187c1.325,2.183,3.356,4.285,6.036,6.248
		c4.013,2.94,8.678,5.339,13.49,6.938c1.153,0.383,2.305,0.719,3.452,1.007c-0.979,1.05-1.918,2.392-2.768,4.102
		c-1.686,3.395-2.242,6.742-2.264,6.883l-0.461,2.847l2.883-0.087c3.566-0.108,6.684-1.259,9.099-2.554
		c-0.5,3.229-1.026,6.382-1.622,9.011c-1.148,5.066-2.073,5.951-2.194,6.048c-3.457,2.221-4.133,7.409-4.228,10.305
		c-0.16,4.88,1.057,11.156,4.109,13.405c1.157,0.853,2.409,1.446,3.673,1.897c-0.07,0.184-0.137,0.373-0.201,0.568
		c-0.935,2.865-0.638,5.441,0.858,7.45c2.078,2.791,6.544,3.167,10.638,3.167c1.816,0,3.713-0.09,5.386-0.17
		c1.441-0.069,2.801-0.134,3.909-0.134c1.107,0,2.468,0.065,3.909,0.134c1.673,0.08,3.57,0.17,5.385,0.17c0.001,0,0.001,0,0.001,0
		c4.095,0,8.56-0.377,10.638-3.167c1.496-2.009,1.793-4.586,0.858-7.45c-0.064-0.198-0.133-0.389-0.203-0.575
		c1.257-0.45,2.502-1.042,3.653-1.89c3.052-2.249,4.269-8.525,4.109-13.405c-0.095-2.896-0.771-8.084-4.228-10.305
		c-0.12-0.096-1.046-0.981-2.194-6.048c-0.601-2.65-1.131-5.832-1.634-9.088c2.434,1.327,5.604,2.522,9.241,2.632l2.883,0.087
		l-0.461-2.847c-0.023-0.141-0.578-3.488-2.264-6.883c-0.83-1.671-1.746-2.991-2.701-4.03c1.247-0.304,2.499-0.663,3.753-1.08
		c4.812-1.598,9.477-3.997,13.49-6.938c2.68-1.963,4.71-4.066,6.036-6.248c1.778-2.929,2.334-6.02,1.65-9.187
		C103.354,10.277,102.859,8.959,102.177,7.723z M78.176,14.248c-0.06-0.052-0.127-0.108-0.199-0.169
		c-0.38-0.322-0.7-0.608-0.958-0.857c2.49,0.329,5.596,2.884,6.69,5.344c-0.324,0.248-0.654,0.49-0.991,0.724
		C81.865,17.779,80.368,16.123,78.176,14.248z M71.662,24.662c-0.42,0.145-0.828,0.28-1.218,0.406
		c-0.735-1.683-2.356-3.573-4.939-5.782c-0.06-0.052-0.127-0.108-0.198-0.168c-0.379-0.32-0.698-0.606-0.956-0.855
		C67.029,18.651,70.767,21.958,71.662,24.662z M63.593,62.075c2.681-0.459,5.436,0.776,7.276,1.893
		c1.676,1.018,2.933,2.135,3.423,2.596c0.663,1.382,0.971,3.453,1.027,5.167c0.153,4.657-1.186,8.687-2.175,9.415
		c-1.263,0.931-2.889,1.447-4.558,1.865c-0.463,0.116-0.929,0.225-1.393,0.333c-2.027,0.471-3.941,0.917-5.422,1.959
		c-2.122,1.493-5.975,2.421-10.054,2.421c-4.08,0-7.933-0.928-10.055-2.421c-1.481-1.043-3.395-1.488-5.422-1.959
		c-0.463-0.108-0.93-0.217-1.393-0.333c-1.669-0.418-3.295-0.934-4.558-1.865c-0.989-0.729-2.328-4.759-2.175-9.415
		c0.078-2.367,0.5-4.041,1.014-5.114c0.968-0.912,5.981-5.36,10.753-4.543l0.804-4.692c-2.36-0.404-4.648-0.037-6.701,0.68
		c0.563-2.137,1.061-4.696,1.559-7.655c0.756,2.193,2.996,3.669,5.704,3.669h0c0.44,0,0.886-0.041,1.325-0.121
		c1.562-0.286,2.963-1.058,3.942-2.173c1.102-1.254,1.574-2.851,1.293-4.38c-0.474-2.586-2.897-4.392-5.894-4.392
		c-0.44,0-0.886,0.041-1.325,0.121c-1.562,0.286-2.963,1.058-3.942,2.173c-0.13,0.148-0.251,0.301-0.363,0.459
		c0.115-0.749,0.231-1.518,0.35-2.306c1.005-6.679,2.144-14.25,3.608-16.68c2.874-4.768,10.458-4.906,11.313-4.906
		c0.057,0,0.092,0,0.098,0.001l0.053,0.002l0.069-0.002c0.011,0,0.046-0.001,0.103-0.001c0.855,0,8.439,0.138,11.313,4.906
		c1.465,2.43,2.604,10.001,3.608,16.68c0.108,0.72,0.215,1.424,0.32,2.111c-0.07-0.089-0.142-0.178-0.218-0.264
		c-0.98-1.115-2.38-1.887-3.942-2.173c-0.439-0.081-0.884-0.121-1.325-0.121c-2.997,0-5.42,1.806-5.894,4.392
		c-0.28,1.529,0.191,3.125,1.294,4.38c0.98,1.115,2.38,1.887,3.942,2.173c0.439,0.081,0.884,0.121,1.325,0.121
		c2.619,0,4.8-1.38,5.625-3.454c0.485,2.861,0.971,5.342,1.519,7.424c-2.041-0.707-4.313-1.066-6.655-0.664L63.593,62.075z
		 M40.224,48.447c0.272-0.309,0.718-0.54,1.224-0.632c0.157-0.029,0.314-0.043,0.467-0.043c0.726,0,1.181,0.323,1.211,0.489
		c0.012,0.066-0.041,0.213-0.187,0.379c-0.272,0.309-0.718,0.54-1.224,0.632c-0.156,0.029-0.313,0.043-0.466,0.043h0
		c-0.726,0-1.181-0.323-1.211-0.489C40.024,48.76,40.078,48.613,40.224,48.447z M63.512,48.826c-0.03,0.166-0.486,0.489-1.211,0.489
		c-0.153,0-0.31-0.015-0.467-0.043c-0.506-0.093-0.952-0.323-1.224-0.632c-0.146-0.166-0.199-0.313-0.187-0.38
		c0.03-0.166,0.485-0.489,1.211-0.489c0.153,0,0.31,0.015,0.467,0.043c0.506,0.093,0.952,0.323,1.224,0.632
		C63.471,48.613,63.524,48.76,63.512,48.826z M39.581,18.262c-0.258,0.249-0.577,0.534-0.956,0.855
		c-0.072,0.061-0.138,0.117-0.198,0.168c-2.584,2.211-4.206,4.102-4.94,5.786c-0.391-0.125-0.798-0.261-1.218-0.405
		C33.16,21.961,36.9,18.651,39.581,18.262z M26.912,13.222c-0.258,0.25-0.578,0.536-0.959,0.857
		c-0.072,0.061-0.138,0.117-0.199,0.168c-2.192,1.876-3.69,3.533-4.542,5.044c-0.337-0.235-0.667-0.477-0.991-0.725
		C21.315,16.107,24.421,13.551,26.912,13.222z M10.783,23.235c-2.173-1.592-3.781-3.233-4.78-4.879
		c-1.141-1.88-1.49-3.748-1.066-5.712c0.196-0.909,0.528-1.791,0.986-2.621c1.494-2.708,4.258-4.682,7.213-5.151
		c0.769-0.122,1.543-0.139,2.3-0.054c-1.913,1.538-3.911,3.77-4.351,6.696c-0.407,2.711,0.598,5.374,2.988,7.917
		c5.718,6.084,15.072,9.396,20.02,10.806c-0.098,0.42-0.193,0.852-0.287,1.298C25.995,31.215,17.564,28.203,10.783,23.235z
		 M25.462,43.499c0.26-0.742,0.587-1.547,0.989-2.346c1.618-3.211,3.696-4.861,6.176-4.903l0-0.006
		c0.102,0.007,0.204,0.011,0.306,0.017c-0.193,1.163-0.383,2.372-0.573,3.618C31.171,40.841,28.661,42.622,25.462,43.499z
		 M67.842,92.051c-0.218,0.293-1.355,1.25-6.819,1.25h-0.001c-1.702,0-3.459-0.084-5.159-0.165
		c-1.499-0.072-2.915-0.139-4.136-0.139c-1.221,0-2.637,0.068-4.136,0.139c-1.7,0.081-3.457,0.165-5.159,0.165
		c-5.465,0-6.602-0.957-6.82-1.25c-0.788-1.059-0.379-2.703,0.155-3.927c1.328,0.314,2.525,0.631,3.154,1.073
		c2.97,2.09,7.633,3.289,12.795,3.289s9.825-1.199,12.795-3.289c0.631-0.444,1.837-0.763,3.173-1.078
		C68.22,89.346,68.631,90.991,67.842,92.051z M77.111,41.152c0.402,0.799,0.729,1.604,0.989,2.346
		c-3.34-0.915-5.928-2.816-7.046-3.742c-0.183-1.194-0.365-2.353-0.55-3.47c0.196-0.009,0.392-0.02,0.587-0.032
		C73.503,36.363,75.528,38.009,77.111,41.152z M97.928,18.356c-0.999,1.646-2.607,3.287-4.78,4.879
		c-6.925,5.074-15.57,8.106-23.518,8.314c-0.085-0.406-0.172-0.801-0.261-1.185c1.519-0.422,3.537-1.044,5.776-1.895
		c6.42-2.441,11.37-5.482,14.712-9.038c2.39-2.543,3.395-5.206,2.987-7.917c-0.329-2.188-1.578-4.256-3.712-6.147
		c-0.215-0.191-0.433-0.374-0.65-0.548c0.76-0.086,1.538-0.069,2.311,0.053c2.955,0.469,5.719,2.443,7.213,5.151
		c0.458,0.83,0.79,1.712,0.986,2.621C99.418,14.608,99.069,16.476,97.928,18.356z"/>
</g>
<g>
</g>
<g>
</g>
<g>
</g>
<g>
</g>
<g>
</g>
<g>
</g>
<g>
</g>
<g>
</g>
<g>
</g>
<g>
</g>
<g>
</g>
<g>
</g>
<g>
</g>
<g>
</g>
<g>
</g>
</svg>
