<?xml version="1.0" encoding="iso-8859-1"?>
<!-- Generator: Adobe Illustrator 18.0.0, SVG Export Plug-In . SVG Version: 6.00 Build 0)  -->
<!DOCTYPE svg PUBLIC "-//W3C//DTD SVG 1.1//EN" "http://www.w3.org/Graphics/SVG/1.1/DTD/svg11.dtd">
<svg version="1.1" id="Capa_1" xmlns="http://www.w3.org/2000/svg" xmlns:xlink="http://www.w3.org/1999/xlink" x="0px" y="0px"
	 viewBox="0 0 96.892 87.826" style="enable-background:new 0 0 96.892 87.826;" xml:space="preserve">
<g>
	<path d="M96.859,0h-2.248C71.289,0,62.868,6.153,59.893,9.969c-3.516-0.652-7.358-0.981-11.447-0.981
		c-4.089,0-7.931,0.33-11.447,0.981C34.024,6.153,25.603,0,2.281,0H0.033L0.026,2.248C0.021,3.54-0.073,33.931,0.128,38.149
		c0.09,1.896,1.191,3.473,3.099,4.441c1.427,0.723,3.315,1.098,5.457,1.091c-0.41,6.344-0.502,16.728-0.502,19.572
		c0,4.027,1.731,7.751,5.145,11.069c2.661,2.586,6.389,4.95,11.081,7.025c8.01,3.544,16.884,5.437,21.461,6.251
		c0.849,0.151,1.716,0.227,2.577,0.227s1.728-0.076,2.577-0.227c4.577-0.813,13.451-2.707,21.46-6.251
		c4.692-2.076,8.42-4.439,11.081-7.025c3.414-3.318,5.145-7.042,5.145-11.069c0-2.844-0.091-13.228-0.502-19.572
		c0.027,0,0.058,0.001,0.081,0c2.108,0,3.968-0.378,5.376-1.092c1.908-0.967,3.009-2.545,3.099-4.441
		c0.201-4.219,0.107-34.609,0.103-35.901L96.859,0z M50.234,83.158c-1.178,0.209-2.398,0.209-3.576,0
		c-1.246-0.221-3.184-0.594-5.515-1.137c-2.106-2.085-3.145-4.253-3.089-6.454c0.078-3.082,2.216-5.702,3.434-6.949
		c1.071,0.336,1.873,1.304,1.963,2.457c0.037,0.48-0.047,0.938-0.225,1.345c-0.058,0.132,0.04,0.279,0.184,0.279h4.962h4.962
		c0.144,0,0.241-0.147,0.184-0.279c-0.178-0.407-0.263-0.864-0.225-1.345c0.089-1.153,0.892-2.121,1.963-2.457
		c1.218,1.247,3.355,3.867,3.434,6.949c0.056,2.217-0.998,4.401-3.135,6.499C53.309,82.585,51.445,82.942,50.234,83.158z
		 M92.258,37.935c-0.024,0.505-1.451,1.236-3.969,1.236c-0.711,0-1.457-0.057-2.218-0.168l-2.886-0.424l0.316,2.9
		c0.574,5.258,0.698,18.724,0.698,21.775c0,2.801-1.236,5.363-3.778,7.834c-2.277,2.212-5.561,4.277-9.762,6.135
		c-2.751,1.217-5.646,2.232-8.399,3.064c0.671-1.569,0.985-3.196,0.937-4.873c-0.144-5.003-3.558-8.852-5.147-10.378V49.321
		c0-4.858-3.938-12.203-8.795-12.203h-0.883h-0.883c-4.858,0-8.795,7.346-8.795,12.203v15.715
		c-1.589,1.527-5.003,5.376-5.147,10.378c-0.048,1.658,0.259,3.267,0.914,4.821c-2.701-0.823-5.533-1.821-8.226-3.012
		c-4.201-1.859-7.486-3.923-9.762-6.135c-2.542-2.47-3.778-5.033-3.778-7.834c0-3.051,0.124-16.517,0.698-21.775l0.316-2.9
		l-2.886,0.424c-0.761,0.112-1.508,0.168-2.218,0.168c-2.518,0-3.945-0.731-3.969-1.236C4.483,34.757,4.507,15.311,4.526,6.542
		c0.43,0.378,0.882,0.798,1.342,1.256c2.009,2.001,4.525,5.129,5.105,8.664c1.395,8.5,4.449,12.504,4.578,12.67l2.157,2.773
		l1.686-3.082c0.032-0.059,3.3-5.928,10.906-10.565l-2.401-3.937c-4.946,3.016-8.29,6.51-10.275,9.002
		c-0.764-1.839-1.575-4.4-2.101-7.607c-0.737-4.489-3.546-8.29-6.212-10.995c7.432,0.466,13.467,1.709,17.996,3.713
		c4.608,2.039,6.209,4.267,6.684,5.13l0.811,1.476l1.645-0.359c3.601-0.785,7.638-1.183,11.998-1.183
		c4.361,0,8.397,0.398,11.998,1.183l1.645,0.359l0.811-1.476c0.474-0.863,2.076-3.09,6.684-5.13
		c4.573-2.024,10.68-3.272,18.21-3.727c-2.67,2.706-5.487,6.511-6.226,11.008c-0.526,3.207-1.337,5.768-2.101,7.607
		c-1.985-2.491-5.328-5.986-10.275-9.002l-2.401,3.937c7.538,4.596,10.876,10.512,10.906,10.565l1.686,3.082l2.157-2.773
		c0.129-0.166,3.183-4.17,4.578-12.67c0.661-4.029,3.768-7.523,6.247-9.74C92.385,15.575,92.408,34.778,92.258,37.935z"/>
	<path d="M34.029,37.431c-1.141-0.799-2.461-1.39-3.693-1.771c-2.651-0.819-6.663-1.097-10.719,2.236l2.864,3.485
		c0.872-0.717,1.762-1.211,2.678-1.486c-0.253,0.521-0.425,1.086-0.496,1.682c-0.377,3.137,2.084,6.021,5.486,6.43
		c0.269,0.032,0.542,0.049,0.811,0.049c3.102,0,5.7-2.148,6.042-4.996C37.297,40.625,35.906,38.746,34.029,37.431z M32.525,42.522
		c-0.069,0.574-0.756,1.023-1.564,1.023c-0.09,0-0.182-0.006-0.273-0.016c-0.901-0.108-1.623-0.769-1.546-1.413
		c0.069-0.574,0.756-1.023,1.563-1.023c0.09,0,0.182,0.006,0.273,0.016c0.24,0.029,0.47,0.096,0.677,0.194
		c0.24,0.173,0.373,0.288,0.377,0.291l-0.01-0.009l0.028-0.032c0.063,0.052,0.122,0.106,0.175,0.165
		C32.386,41.897,32.566,42.18,32.525,42.522z"/>
	<path d="M66.555,35.661c-1.231,0.381-2.552,0.971-3.693,1.771c-1.877,1.315-3.267,3.194-2.975,5.629
		c0.342,2.848,2.94,4.996,6.042,4.996c0.269,0,0.542-0.016,0.811-0.049c3.402-0.409,5.863-3.293,5.486-6.43
		c-0.072-0.596-0.243-1.16-0.496-1.682c0.916,0.274,1.806,0.769,2.678,1.486l2.864-3.485C73.218,34.563,69.206,34.841,66.555,35.661
		z M66.203,43.529c-0.091,0.011-0.183,0.016-0.273,0.016c-0.808,0-1.494-0.449-1.563-1.023c-0.041-0.342,0.139-0.625,0.298-0.802
		c0.053-0.059,0.113-0.113,0.175-0.165l0.028,0.032l-0.01,0.009c0.004-0.003,0.138-0.119,0.377-0.291
		c0.207-0.098,0.437-0.166,0.677-0.194c0.091-0.011,0.183-0.016,0.273-0.016c0.808,0,1.495,0.449,1.564,1.023
		C67.826,42.76,67.104,43.42,66.203,43.529z"/>
</g>
<g>
</g>
<g>
</g>
<g>
</g>
<g>
</g>
<g>
</g>
<g>
</g>
<g>
</g>
<g>
</g>
<g>
</g>
<g>
</g>
<g>
</g>
<g>
</g>
<g>
</g>
<g>
</g>
<g>
</g>
</svg>
