<?xml version="1.0" encoding="iso-8859-1"?>
<!-- Generator: Adobe Illustrator 18.0.0, SVG Export Plug-In . SVG Version: 6.00 Build 0)  -->
<!DOCTYPE svg PUBLIC "-//W3C//DTD SVG 1.1//EN" "http://www.w3.org/Graphics/SVG/1.1/DTD/svg11.dtd">
<svg version="1.1" id="Capa_1" xmlns="http://www.w3.org/2000/svg" xmlns:xlink="http://www.w3.org/1999/xlink" x="0px" y="0px"
	 viewBox="0 0 88.131 82.045" style="enable-background:new 0 0 88.131 82.045;" xml:space="preserve">
<g>
	<path d="M69.703,0.018c-2.944,0-5.757,0.674-8.363,2.003c-2.081,1.062-3.964,2.46-5.509,4.223c-3.525-0.748-7.427-1.2-11.62-1.2
		c-0.048,0-0.096,0-0.144,0c-0.048,0-0.096,0-0.144,0c-4.193,0-8.095,0.451-11.62,1.2c-1.545-1.763-3.428-3.198-5.509-4.259
		C24.186,0.656,21.372,0,18.429,0C8.267,0,0,8.276,0,18.438c0,3.297,0.882,6.537,2.549,9.362c1.347,2.282,3.176,4.252,5.341,5.765
		c-0.505,2.43-0.98,6.432-1.214,9.219c-0.232,2.763-0.329,5.28-0.282,7.277c0.065,2.717,0.38,4.517,0.994,5.665
		c1.979,3.703,5.269,6.732,9.779,9.002c3.743,1.884,7.316,2.718,9.192,3.056l1.778,1.855c0.818,1.59,1.811,2.914,2.966,3.959
		c0.225,0.901,0.759,2.41,1.984,3.952c2.971,3.739,7.592,4.494,10.946,4.494c0.011,0,0.022,0,0.033,0c0.011,0,0.022,0,0.033,0
		c3.354,0,7.975-0.755,10.946-4.494c1.225-1.542,1.759-3.066,1.984-3.967c1.154-1.046,2.148-2.362,2.966-3.952l1.778-1.852
		c1.876-0.338,5.449-1.17,9.192-3.054c4.509-2.27,7.799-5.298,9.779-9.001c0.614-1.148,0.93-2.948,0.994-5.665
		c0.048-1.997-0.05-4.513-0.282-7.276c-0.234-2.788-0.708-6.788-1.214-9.218c2.166-1.512,3.994-3.481,5.341-5.762
		c1.668-2.825,2.549-6.061,2.549-9.357C88.131,8.285,79.864,0.018,69.703,0.018z M44.098,78.045c-0.011,0-0.022,0-0.033,0
		c-0.011,0-0.022,0-0.033,0c-2.951,0-5.27-0.525-6.917-1.859c0.483,0.058,0.977,0.164,1.482,0.164c2.301,0,4.307-0.588,5.43-1.026
		c0.012,0.005,0.026,0.029,0.038,0.034c0.012-0.005,0.026-0.001,0.038-0.006c1.123,0.439,3.129,1.069,5.43,1.069
		c0.504,0,0.998-0.178,1.482-0.236C49.368,77.518,47.049,78.045,44.098,78.045z M77.109,53.784
		c-1.571,2.939-4.262,5.383-7.997,7.264c-2.358,1.187-4.635,1.898-6.339,2.314c0.004-2.298-0.232-5.84-1.418-9.37
		c2.043-0.909,3.827-2.48,5.159-4.576c1.609-2.531,2.449-5.683,2.307-8.647c-0.192-4.008-2.446-7.514-5.882-9.149
		c-1.545-0.735-3.252-1.038-4.937-0.875c-1.805,0.174-3.524,0.855-5.109,2.022c-2.245,1.652-3.507,3.934-3.65,6.599
		c-0.187,3.473,1.601,7.375,4.665,10.184c2.953,2.707,4.065,6.854,4.478,9.857c0.372,2.705,0.262,4.953,0.203,5.747l-2.002,2.089
		l-0.141,0.287c-1.577,3.213-3.837,4.774-6.909,4.774c-2.439,0-4.482-1.017-4.503-1.027l-0.966-0.498L43.1,71.277
		c-0.02,0.01-2.064,1.027-4.503,1.027c-3.072,0-5.332-1.562-6.909-4.774l-0.141-0.287l-2.002-2.089
		c-0.059-0.794-0.17-3.042,0.203-5.747c0.413-3.003,1.525-7.15,4.478-9.857c3.064-2.809,4.852-6.711,4.665-10.184
		c-0.143-2.666-1.406-4.948-3.65-6.599c-1.586-1.167-3.305-1.847-5.109-2.022c-1.685-0.163-3.392,0.14-4.937,0.875
		c-3.436,1.635-5.689,5.141-5.882,9.149c-0.142,2.964,0.698,6.116,2.307,8.647c1.332,2.096,3.116,3.667,5.159,4.576
		c-1.186,3.53-1.422,7.072-1.418,9.37c-1.704-0.416-3.981-1.127-6.339-2.314c-3.736-1.88-6.427-4.324-7.997-7.264
		c-0.357-0.667-0.813-3.606-0.262-10.391c0.414-5.098,1.125-9.189,1.383-9.912l0.628-1.334c0.933-1.421,1.93-2.868,2.984-4.321
		c-2.309-1.457-3.897-3.975-4.045-6.909c-0.242-4.789,3.444-8.868,8.233-9.11c2.755-0.139,5.273,1.022,6.962,2.945
		c1.414-1.391,2.863-2.717,4.337-3.956l0.759-0.318c3.532-0.863,7.543-1.434,11.92-1.434c0.048,0,0.096,0,0.144,0
		c0.048,0,0.096,0,0.144,0c4.378,0,8.388,0.57,11.92,1.434l0.759,0.252c1.474,1.239,2.923,2.599,4.337,3.989
		c1.689-1.923,4.207-3.068,6.962-2.928c4.789,0.242,8.476,4.329,8.233,9.118c-0.148,2.933-1.736,5.456-4.045,6.913
		c1.053,1.453,2.051,2.902,2.984,4.323l0.628,1.335c0.258,0.723,0.969,4.814,1.383,9.912C77.922,50.178,77.465,53.117,77.109,53.784
		z"/>
	<path d="M44.066,54.045c-0.017,0-0.035,0-0.052,0c-3.325,0-6.021,1.213-6.021,2.978c0,1.102,1.051,1.965,2.651,2.539l-0.007-0.042
		c0,0,2.816,1.008,3.064,3.02c0.021,0.169,0.163,0.504,0.334,0.504h0.006c0.009,0,0.018-0.002,0.026-0.003
		c0.009,0.001,0.017,0.003,0.026,0.003h0.006c0.17,0,0.313-0.362,0.334-0.531c0.247-2.013,3.064-2.93,3.064-2.93l-0.007-0.071
		c1.599-0.574,2.651-1.358,2.651-2.46c0-1.765-2.696-3.007-6.021-3.007C44.101,54.045,44.083,54.045,44.066,54.045z"/>
</g>
<g>
</g>
<g>
</g>
<g>
</g>
<g>
</g>
<g>
</g>
<g>
</g>
<g>
</g>
<g>
</g>
<g>
</g>
<g>
</g>
<g>
</g>
<g>
</g>
<g>
</g>
<g>
</g>
<g>
</g>
</svg>
