<?xml version="1.0" encoding="iso-8859-1"?>
<!-- Generator: Adobe Illustrator 18.0.0, SVG Export Plug-In . SVG Version: 6.00 Build 0)  -->
<!DOCTYPE svg PUBLIC "-//W3C//DTD SVG 1.1//EN" "http://www.w3.org/Graphics/SVG/1.1/DTD/svg11.dtd">
<svg version="1.1" id="Capa_1" xmlns="http://www.w3.org/2000/svg" xmlns:xlink="http://www.w3.org/1999/xlink" x="0px" y="0px"
	 viewBox="0 0 93.137 94.961" style="enable-background:new 0 0 93.137 94.961;" xml:space="preserve">
<g>
	<path d="M84.714,28.701c0.744-1.422,1.166-3.038,1.166-4.751c0-2.484-0.885-4.765-2.357-6.544c0.773-1.443,1.213-3.091,1.213-4.84
		c0-5.671-4.614-10.284-10.284-10.284c-1.017,0-2,0.149-2.928,0.425C69.735,1.041,67.211,0,64.417,0
		c-2.871,0-4.806,1.037-6.565,2.478c-1.864-1.46-3.758-2.276-6.527-2.276c-1.866,0-3.503,0.585-4.776,1.264
		c-1.272-0.679-2.91-1.264-4.776-1.264c-2.759,0-4.694,0.845-6.533,2.28C33.441,1.009,31.547,0,28.681,0
		c-2.789,0-5.309,1.037-7.097,2.697c-0.92-0.271-1.892-0.417-2.898-0.417c-5.671,0-10.284,4.614-10.284,10.284
		c0,1.749,0.439,3.397,1.213,4.84c-1.471,1.779-2.357,4.061-2.357,6.544c0,1.713,0.421,3.329,1.165,4.751
		c-3.688,4.171-6.751,7.598-7.584,8.431c-0.806,0.806-1.053,1.921-0.644,2.909c0.603,1.455,2.217,1.773,2.748,1.878
		c0.769,0.152,1.739,0.229,2.883,0.229c2.881,0,6.31-0.474,9.406-1.301c2.352-0.628,4.242-1.384,5.748-2.153v30.191
		c0,4.913,1.786,9.648,5.028,13.332c1.911,2.172,4.247,3.89,6.836,5.063c0.474,1.373,1.322,2.667,2.496,3.788
		c1.295,1.237,2.924,2.218,4.711,2.836c2.017,0.698,4.288,1.056,6.554,1.056c1.244,0,2.488-0.108,3.687-0.327
		c3.961-0.723,7.125-2.613,8.907-5.323c0.447-0.679,0.792-1.361,1.034-2.038c2.582-1.173,4.912-2.889,6.819-5.056
		c3.242-3.685,5.028-8.419,5.028-13.332V38.661c5.246,2.697,11.865,3.488,15.232,3.488h0c2.353,0,4.862-0.25,5.631-2.107
		c0.409-0.988,0.162-2.102-0.644-2.909C91.466,36.3,88.403,32.873,84.714,28.701z M79.024,36.448
		c-2.482-0.667-4.591-1.552-6.212-2.597c-0.553-0.356-1.049-0.731-1.483-1.122l-3.788-3.415v1.023v38.547
		c0,3.808-1.384,7.479-3.897,10.334c-2.491,2.831-5.908,4.668-9.623,5.173l-0.09,0.014c-0.008,0.001-0.777,0.133-1.827,0.133
		c-1.301,0-2.437-0.2-3.307-0.573V69.302c1.741-0.349,3.347-1.098,4.661-2.196c1.988-1.66,3.083-3.902,3.083-6.314h-4.538
		c0,1.043-0.516,2.048-1.454,2.83c-1.056,0.881-2.484,1.367-4.022,1.367c-1.538,0-2.966-0.485-4.022-1.367
		c-0.937-0.783-1.454-1.788-1.454-2.83h-4.538c0,2.412,1.095,4.654,3.083,6.314c1.314,1.097,2.921,1.846,4.662,2.196v14.664
		c-0.87,0.373-2.005,0.573-3.307,0.573c-1.05,0-1.819-0.131-1.82-0.132l-0.096-0.015c-3.714-0.505-7.131-2.342-9.622-5.173
		c-2.513-2.855-3.897-6.526-3.897-10.334V30.434v-0.989l-3.773,3.342c-0.418,0.37-0.894,0.726-1.419,1.065
		c-1.632,1.052-3.761,1.943-6.265,2.611c-2.423,0.647-5.161,1.06-7.483,1.135c1.321-1.467,3.006-3.361,4.817-5.407
		c0.495-0.559,0.999-1.13,1.508-1.706c0.502-0.568,1.008-1.142,1.514-1.716c1.266-1.437,2.531-2.875,3.723-4.233
		c1.428,0.845,3.039,1.383,4.727,1.571c0.412,0.046,0.829,0.072,1.248,0.076c0.374,0.003,0.752-0.005,1.132-0.024
		c0.803-0.039,1.611-0.123,2.388-0.231c1.912-0.267,3.642-0.686,4.674-0.963c2.196,1.204,4.515,1.814,6.905,1.814
		c3.206,0,5.826-1.121,7.335-1.958c1.509,0.837,4.129,1.958,7.335,1.958c2.391,0,4.709-0.609,6.905-1.814
		c1.04,0.28,2.787,0.702,4.714,0.969c0.778,0.108,1.585,0.19,2.388,0.228c0.309,0.014,0.617,0.023,0.923,0.023
		c0.057,0,0.113,0,0.169-0.001c0.432-0.004,0.861-0.031,1.285-0.08c1.685-0.193,3.292-0.734,4.716-1.582
		c1.196,1.362,2.466,2.806,3.736,4.248c0.506,0.574,1.012,1.148,1.513,1.716c0.509,0.576,1.013,1.147,1.508,1.706
		c1.811,2.047,3.495,3.94,4.816,5.407C84.219,37.521,81.462,37.104,79.024,36.448z M19.096,6.835
		c-0.04,0.162-0.076,0.324-0.106,0.489c-3.034,1.389-5.173,3.94-5.807,6.892c-0.157-0.523-0.243-1.077-0.243-1.651
		c0-3.168,2.578-5.746,5.746-5.746C18.824,6.819,18.96,6.826,19.096,6.835z M25.847,5.192c0.819-0.413,1.792-0.653,2.834-0.653
		c1.885,0,2.854,0.623,4.999,2.622l1.562,1.457l1.548-1.471c1.964-1.866,3.082-2.406,4.983-2.406c1.403,0,2.664,0.676,3.474,1.244
		l1.301,0.911l1.301-0.911c0.81-0.567,2.071-1.244,3.474-1.244c1.911,0,2.983,0.518,4.988,2.411l1.558,1.471l1.558-1.471
		c2.042-1.928,3.102-2.613,4.988-2.613c1.054,0,2.035,0.245,2.86,0.666C68,5.573,68.601,6.077,69.023,6.67
		c0.426,0.599,0.669,1.288,0.669,2.021c0,0.041-0.003,0.081-0.004,0.122l-0.025,0.581l-0.051,1.194l1.682,0.512
		c1.583,0.482,2.844,1.426,3.577,2.592c0.432,0.687,0.68,1.451,0.702,2.244c0.001,0.038,0.003,0.076,0.003,0.115
		c0,0.62-0.134,1.234-0.388,1.818c-0.054,0.123-0.113,0.245-0.177,0.366c-0.009,0.017-0.018,0.035-0.027,0.053
		c-0.288,0.524-0.678,1.018-1.16,1.466c-0.031,0.029-0.061,0.058-0.093,0.087c-0.244,0.219-0.504,0.418-0.776,0.599
		c-0.331,0.22-0.681,0.41-1.046,0.572c-0.477,0.211-0.981,0.372-1.502,0.478c-0.276,0.056-0.556,0.098-0.84,0.124
		c-0.206,0.019-0.414,0.03-0.623,0.032c-0.333,0.003-0.672-0.007-1.015-0.026c-0.764-0.043-1.542-0.136-2.286-0.253
		c-2.411-0.378-4.459-1.008-4.487-1.016l-1.002-0.313l-0.887,0.561c-1.722,1.089-3.532,1.642-5.379,1.642
		c-3.402,0-5.864-1.831-5.967-1.909l-1.368-1.035l-1.368,1.034c-0.103,0.078-2.565,1.91-5.967,1.91
		c-1.847,0-3.657-0.552-5.379-1.642l-0.887-0.56l-1.001,0.311c-0.029,0.009-2.056,0.633-4.451,1.012
		c-0.742,0.117-1.52,0.211-2.285,0.256c-0.312,0.018-0.622,0.028-0.927,0.028c-0.042,0-0.085,0-0.127,0
		c-0.198-0.002-0.394-0.013-0.59-0.029c-0.281-0.024-0.559-0.063-0.831-0.118c-0.526-0.104-1.035-0.263-1.517-0.474
		c-0.372-0.163-0.729-0.356-1.065-0.579c-0.275-0.182-0.538-0.384-0.785-0.605c-0.024-0.022-0.047-0.045-0.071-0.067
		c-0.492-0.454-0.89-0.956-1.183-1.489c-0.01-0.017-0.018-0.035-0.027-0.053c-0.059-0.11-0.113-0.221-0.163-0.334
		c-0.263-0.593-0.401-1.216-0.401-1.847c0-0.038,0.002-0.077,0.003-0.115c0.022-0.793,0.271-1.558,0.704-2.246
		c0.733-1.164,1.994-2.108,3.575-2.589l1.681-0.512l-0.054-1.255l-0.022-0.518c-0.002-0.041-0.004-0.082-0.004-0.123
		c0-0.742,0.25-1.439,0.685-2.043C24.518,6.057,25.122,5.557,25.847,5.192z M74.452,6.819c3.168,0,5.746,2.578,5.746,5.746
		c0,0.601-0.093,1.181-0.265,1.726c-0.614-2.984-2.764-5.566-5.824-6.967c-0.029-0.164-0.066-0.325-0.105-0.486
		C74.152,6.827,74.301,6.819,74.452,6.819z M78.735,21.914c0.611-0.281,1.189-0.62,1.729-1.01c0.555,0.884,0.877,1.928,0.877,3.047
		c0,0.291-0.022,0.576-0.064,0.855C80.432,23.844,79.579,22.874,78.735,21.914z M11.796,23.95c0-1.119,0.322-2.163,0.877-3.047
		c0.54,0.39,1.118,0.729,1.729,1.01c-0.844,0.96-1.696,1.93-2.543,2.892C11.818,24.526,11.796,24.241,11.796,23.95z M49.477,90.169
		c-2.6,0.475-5.569,0.268-7.942-0.553c-0.446-0.154-0.872-0.341-1.273-0.553c0.218,0.009,0.45,0.014,0.692,0.014
		c2.489,0,4.299-0.529,5.574-1.162c1.887,0.938,3.998,1.162,5.578,1.162c0.248,0,0.484-0.005,0.705-0.014
		C51.857,89.564,50.733,89.94,49.477,90.169z"/>
	<path d="M38.92,33.033c-0.051-0.057-0.102-0.113-0.155-0.169c-1.078-1.11-2.579-1.842-4.226-2.059
		c-0.337-0.045-0.678-0.067-1.015-0.067c-3.257,0-5.889,2.034-6.259,4.836c-0.209,1.583,0.359,3.199,1.559,4.435
		c1.078,1.11,2.579,1.842,4.227,2.06c0.337,0.044,0.678,0.067,1.015,0.067c1.32,0,2.537-0.334,3.543-0.918
		c0.11,0.862,0.179,1.864,0.179,3.027h4.538C42.324,36.749,39.865,33.864,38.92,33.033z M35.825,36.705
		c-0.056,0.422-0.793,0.892-1.761,0.892c-0.138,0-0.28-0.009-0.42-0.028c-1.221-0.161-1.941-0.95-1.881-1.401
		c0.056-0.422,0.792-0.892,1.76-0.892c0.138,0,0.28,0.009,0.42,0.028c0.63,0.083,1.201,0.346,1.565,0.722
		C35.617,36.136,35.862,36.424,35.825,36.705z"/>
	<path d="M59.536,30.738c-0.337,0-0.678,0.023-1.015,0.067c-1.647,0.218-3.148,0.949-4.226,2.059
		c-0.054,0.055-0.104,0.112-0.155,0.169c-0.944,0.831-3.404,3.716-3.404,11.212h4.538c0-1.162,0.069-2.164,0.179-3.027
		c1.006,0.583,2.222,0.918,3.542,0.918h0c0.336,0,0.677-0.023,1.014-0.067c1.647-0.218,3.148-0.949,4.226-2.06
		c1.2-1.236,1.768-2.853,1.559-4.435C65.426,32.771,62.793,30.738,59.536,30.738z M59.416,37.569
		c-0.14,0.019-0.282,0.028-0.42,0.028h0c-0.968,0-1.705-0.47-1.761-0.893c-0.037-0.281,0.209-0.569,0.316-0.679
		c0.364-0.376,0.935-0.639,1.565-0.722c0.14-0.019,0.282-0.028,0.42-0.028c0.968,0,1.705,0.47,1.76,0.893
		C61.356,36.619,60.636,37.408,59.416,37.569z"/>
</g>
<g>
</g>
<g>
</g>
<g>
</g>
<g>
</g>
<g>
</g>
<g>
</g>
<g>
</g>
<g>
</g>
<g>
</g>
<g>
</g>
<g>
</g>
<g>
</g>
<g>
</g>
<g>
</g>
<g>
</g>
</svg>
