<?xml version="1.0" encoding="iso-8859-1"?>
<!-- Generator: Adobe Illustrator 18.0.0, SVG Export Plug-In . SVG Version: 6.00 Build 0)  -->
<!DOCTYPE svg PUBLIC "-//W3C//DTD SVG 1.1//EN" "http://www.w3.org/Graphics/SVG/1.1/DTD/svg11.dtd">
<svg version="1.1" id="Capa_1" xmlns="http://www.w3.org/2000/svg" xmlns:xlink="http://www.w3.org/1999/xlink" x="0px" y="0px"
	 viewBox="0 0 91.994 88.965" style="enable-background:new 0 0 91.994 88.965;" xml:space="preserve">
<g>
	<path d="M91.93,57.416c-0.186-4.917-0.78-9.447-1.764-13.462c-1.227-5.006-3.074-9.241-5.49-12.594l-0.105-0.158
		c-0.045-0.068-0.916-1.367-2.569-3.279c2.225-2.819,3.291-6.71,3.35-9.751c0.025-1.292-0.156-2.502-0.331-3.673
		c-0.153-1.022-0.298-1.988-0.287-2.909c0.023-1.98,0.353-4.105,0.98-6.316l0.898-3.167l-3.186,0.315
		c-0.128,0.002-0.255,0.016-0.382,0.04c-6.587,0.69-11.984,2.535-16.042,5.488c-2.539,1.848-4.174,3.856-5.218,5.58
		c-1.436-0.543-2.895-1.01-4.362-1.395c-1.656-4.456-3.669-7.575-5.992-9.28L47.54,0l0.326,4.814
		c0.003,0.036,0.196,3.235-0.27,6.136c-0.341-0.008-0.682,0.188-1.022,0.188H45.42c-0.339,0-0.68-0.196-1.021-0.188
		c-0.463-2.893-0.273-6.001-0.271-6.036l0.326-4.864l-3.89,2.83c-2.323,1.705-4.335,4.811-5.992,9.267
		c-1.467,0.385-2.926,0.846-4.362,1.389c-1.045-1.724-2.679-3.736-5.219-5.583C20.908,4.98,15.468,3.129,8.822,2.45
		C8.737,2.436,8.651,2.426,8.565,2.423L5.382,2.107l0.898,3.167c0.627,2.211,0.957,4.336,0.98,6.316
		c0.011,0.92-0.134,1.886-0.287,2.908c-0.175,1.17-0.356,2.381-0.331,3.673c0.059,3.041,1.125,6.932,3.35,9.751
		c-1.653,1.912-2.524,3.211-2.569,3.279l-0.106,0.159c-2.416,3.352-4.262,7.587-5.489,12.593c-0.984,4.016-1.578,8.545-1.765,13.462
		c-0.315,8.321,0.634,14.833,0.674,15.106L2.396,83.68l2.736-10.944c0.44-1.758,1.142-3.091,1.9-4.093
		c0.205,1.148,0.528,2.367,0.968,3.651c0.827,2.416,1.78,4.2,1.82,4.275l2.614,4.864l1.517-5.309
		c0.354-1.241,1.438-2.147,2.498-2.761c2.023,4.031,5.724,7.263,10.836,9.431c2.02,0.857,3.937,1.412,5.439,1.764
		c1.132,2.023,2.857,3.322,5.029,3.741c2.29,0.442,4.388,0.666,6.233,0.666c0.91,0,1.572-0.057,1.984-0.108
		c0.412,0.051,1.074,0.108,1.984,0.108c1.846,0,3.943-0.224,6.233-0.666c2.167-0.418,3.888-1.712,5.02-3.726
		c1.512-0.351,3.455-0.91,5.503-1.779c5.112-2.169,8.812-5.4,10.836-9.431c1.06,0.615,2.144,1.52,2.498,2.761l1.517,5.309
		l2.614-4.864c0.04-0.075,0.993-1.859,1.82-4.275c0.44-1.285,0.762-2.504,0.968-3.652c0.758,1.002,1.46,2.335,1.899,4.093
		l2.736,10.944l1.657-11.159C91.296,72.248,92.245,65.737,91.93,57.416z M80.288,10.426c-0.021,0.374-0.035,0.745-0.039,1.112
		c-0.015,1.281,0.163,2.473,0.336,3.625c0.154,1.032,0.3,2.007,0.283,2.922c-0.04,2.045-0.731,4.643-2.005,6.538
		c-1.087-1.401-2.359-3.628-2.297-6.328C76.626,15.694,77.876,13.06,80.288,10.426z M11.409,15.163
		c0.173-1.153,0.351-2.344,0.336-3.625c-0.004-0.346-0.016-0.696-0.035-1.048c2.361,2.599,3.59,5.197,3.661,7.765
		c0.075,2.697-1.178,4.921-2.265,6.331c-1.258-1.891-1.94-4.469-1.98-6.501C11.109,17.17,11.255,16.195,11.409,15.163z
		 M55.975,80.551c-0.166,0.743-0.428,1.493-0.84,2.099c-0.423,0.621-1.002,1.091-1.799,1.245c-0.097,0.019-0.191,0.036-0.287,0.054
		c-2.355,0.437-4.065,0.531-5.096,0.531c-1.018,0-1.534-0.087-1.59-0.097l-0.394-0.07l-0.394,0.07
		c-0.056,0.01-0.573,0.097-1.59,0.097c-1.025,0-2.719-0.093-5.051-0.523c-0.11-0.02-0.219-0.04-0.332-0.062
		c-0.322-0.062-1.103-0.214-1.784-1.225c-0.295-0.437-0.57-1.034-0.782-1.856c-0.02-0.079-0.037-0.158-0.055-0.237
		c-0.087-0.378-0.15-0.75-0.193-1.101c0.322,0.089,0.652,0.17,0.987,0.244c0.767,0.169,1.565,0.3,2.38,0.402
		c0.786,0.098,1.588,0.169,2.393,0.219c1.492,0.093,2.993,0.116,4.421,0.116c1.444,0,2.965-0.024,4.475-0.12
		c0.804-0.051,1.605-0.123,2.391-0.222c0.814-0.103,1.611-0.235,2.376-0.406c0.321-0.071,0.636-0.149,0.945-0.234
		C56.115,79.819,56.056,80.184,55.975,80.551z M58.81,71.489c-0.116,1.357-0.764,2.458-2.576,3.228
		c-0.386,0.164-0.827,0.314-1.325,0.447c-0.594,0.159-1.272,0.297-2.044,0.41c-1.104,0.162-2.401,0.277-3.92,0.34
		c-0.747,0.031-1.547,0.049-2.404,0.055c-0.188,0.001-0.377,0.002-0.571,0.002c-0.193,0-0.383-0.001-0.571-0.002
		c-0.837-0.005-1.619-0.023-2.35-0.053c-1.511-0.061-2.804-0.173-3.906-0.331c-0.831-0.12-1.554-0.266-2.182-0.439
		c-0.47-0.129-0.887-0.272-1.256-0.429c-1.811-0.771-2.459-1.871-2.576-3.228c-0.014-0.159-0.021-0.322-0.021-0.488
		c0-0.203,0.01-0.408,0.029-0.614c0.009-0.101,0.02-0.202,0.034-0.304c0.12-0.895,0.411-1.812,0.85-2.712
		c0.319-0.652,0.715-1.295,1.183-1.913c0.443-0.585,0.949-1.148,1.511-1.675c0.031-0.029,0.062-0.058,0.093-0.087
		c2.56-2.356,5.813-3.654,9.161-3.654c3.348,0,6.601,1.298,9.161,3.654c0.012,0.011,0.023,0.022,0.035,0.033
		c0.566,0.524,1.076,1.084,1.522,1.667c0.471,0.615,0.871,1.255,1.195,1.904c0.459,0.923,0.762,1.865,0.885,2.783
		c0.014,0.102,0.024,0.203,0.034,0.304c0.019,0.206,0.029,0.411,0.029,0.613C58.83,71.168,58.823,71.33,58.81,71.489z
		 M36.364,58.398c0.338-0.734,0.673-1.407,0.991-2.009c0.825-0.415,2.524-1.161,4.799-1.606c0.06-0.012,0.12-0.024,0.181-0.035
		c2.486-0.462,4.951-0.449,7.373,0.035c1.656,0.331,3.292,0.882,4.901,1.652c0.352,0.669,0.674,1.325,0.968,1.964
		c-2.886-1.847-6.205-2.841-9.607-2.841C42.567,55.558,39.249,56.552,36.364,58.398z M87.418,64.635
		c-1.401-1.439-2.801-2.245-3.629-2.639l-4.04-1.923l0.877,4.387c0.376,1.88-0.176,4.34-0.884,6.411
		c-1.083-0.968-2.581-1.9-4.651-2.619l-2.163-0.751l-0.706,2.179c-1.836,5.665-7.404,8.484-11.566,9.832
		c0.048-0.514,0.069-0.977,0.076-1.36c4.986-2.117,8.373-6.818,9.821-13.665c1.099-5.195,0.704-9.818,0.686-10.012l-0.481-5.384
		l-3.471,4.144c-1.625,1.94-3.929,4.057-6.445,6.125c-0.659-1.738-1.494-3.599-2.55-5.546c-1.181-2.176-1.665-4.57-1.363-6.739
		c0.028-0.202,0.065-0.401,0.107-0.599c1.196,0.975,2.81,1.559,4.558,1.559h0c0.426,0,0.855-0.036,1.274-0.106
		c1.906-0.32,3.52-1.338,4.429-2.792c0.768-1.23,0.969-2.66,0.565-4.028c-0.311-1.052-0.957-1.969-1.824-2.681
		c0.057-0.017,0.113-0.034,0.17-0.05c1.349-0.386,3.845-0.872,5.412,0.218l2.56-3.682c-5.049-3.511-12.979-0.007-16.79,3.027
		c-3.984,3.171-5.678,7.992-4.827,12.936c-4.487-1.285-8.45-1.046-11.265-0.496c-0.681,0.133-1.321,0.288-1.916,0.455
		c0.835-4.93-0.861-9.733-4.834-12.895c-3.812-3.034-11.741-6.538-16.79-3.027l2.56,3.682c1.331-0.925,3.409-0.817,5.53-0.187
		c-0.779,0.689-1.333,1.573-1.564,2.585c-0.35,1.537,0.085,3.175,1.193,4.496c0.975,1.162,2.397,2.004,4.004,2.37
		c0.579,0.132,1.169,0.199,1.751,0.199c1.422,0,2.727-0.404,3.756-1.098c0.006,0.038,0.013,0.075,0.018,0.114
		c0.302,2.169-0.182,4.563-1.363,6.739c-1.073,1.978-1.917,3.867-2.581,5.628c-2.555-2.094-4.898-4.241-6.545-6.208l-3.471-4.144
		l-0.481,5.384c-0.017,0.194-0.413,4.818,0.686,10.012c1.461,6.907,4.895,11.629,9.954,13.719c0.008,0.371,0.029,0.812,0.074,1.299
		c-4.153-1.347-9.674-4.161-11.51-9.826l-0.706-2.179l-2.163,0.751c-2.073,0.72-3.571,1.653-4.655,2.622
		c-0.707-2.067-1.258-4.524-0.88-6.414l0.877-4.387l-4.04,1.923c-0.83,0.395-2.234,1.204-3.638,2.648
		c-0.087-2.076-0.119-4.482-0.022-7.058c0.272-7.175,1.63-17.128,6.555-23.8l0.961-1.302l-0.007-0.009
		c0.544-0.698,1.331-1.654,2.347-2.755l0,0c0.229-0.185,5.614-4.618,5.453-11.527c-0.078-3.363-1.434-6.644-4.046-9.808
		c2.527,0.797,4.716,1.862,6.544,3.192c2.765,2.012,4.11,4.203,4.752,5.687l0.89,2.058l2.058-0.891
		c2.191-0.948,4.456-1.697,6.732-2.224l1.214-0.281l0.402-1.18c0.469-1.376,0.974-2.622,1.504-3.718
		c0.126,0.89,0.301,1.793,0.543,2.655l0.492,1.757l1.821-0.168c0.878-0.06,1.772-0.134,2.657-0.134h1.154
		c0.885,0,1.779,0.073,2.657,0.134l1.821,0.147l0.492-1.747c0.241-0.862,0.417-1.76,0.543-2.65c0.53,1.096,1.035,2.345,1.504,3.721
		l0.402,1.181l1.214,0.282c2.276,0.527,4.541,1.276,6.732,2.224l2.058,0.891l0.89-2.058c0.642-1.484,1.988-3.675,4.752-5.687
		c1.81-1.317,3.973-2.374,6.469-3.169c-2.599,3.156-3.948,6.43-4.026,9.785c-0.16,6.909,5.224,11.342,5.453,11.527
		c0.055,0.045,0.112,0.086,0.17,0.125c0.964,1.052,1.713,1.964,2.237,2.636l-0.007,0.01l0.957,1.297
		C87.209,42.341,87.767,56.206,87.418,64.635z M61.513,64.567c0.263-0.206,0.522-0.409,0.777-0.612
		c1.629-1.293,3.089-2.526,4.375-3.694c-0.31,3.143-1.14,7.064-3.23,10.057c-0.044,0.062-0.088,0.124-0.132,0.186
		c-0.003-0.061-0.005-0.122-0.009-0.184c-0.013-0.222-0.034-0.444-0.06-0.666C63.029,67.93,62.44,66.203,61.513,64.567z
		 M59.567,42.133c0.174-0.279,0.625-0.622,1.368-0.746c0.175-0.029,0.354-0.044,0.532-0.044c1.07,0,1.947,0.536,2.095,1.038
		c0.028,0.096,0.04,0.208-0.067,0.379c-0.174,0.279-0.625,0.621-1.368,0.746c-0.175,0.029-0.354,0.044-0.532,0.044h0
		c-1.07,0-1.947-0.537-2.096-1.038C59.471,42.416,59.46,42.304,59.567,42.133z M32.768,42.926c-0.06,0.265-0.641,0.648-1.534,0.648
		c-0.248,0-0.502-0.029-0.755-0.087c-0.649-0.148-1.22-0.469-1.565-0.88c-0.192-0.229-0.29-0.466-0.256-0.617
		c0.06-0.265,0.641-0.648,1.534-0.648c0.248,0,0.502,0.029,0.755,0.087c0.649,0.148,1.22,0.469,1.565,0.88
		C32.705,42.538,32.803,42.774,32.768,42.926z M30.386,64.638c-0.904,1.614-1.479,3.316-1.681,5.015
		c-0.026,0.222-0.047,0.444-0.06,0.666c-0.003,0.053-0.005,0.106-0.007,0.159c-0.003,0.065-0.007,0.13-0.008,0.195
		c-2.28-3.033-3.164-7.143-3.486-10.412c1.314,1.195,2.811,2.456,4.484,3.781C29.876,64.24,30.129,64.438,30.386,64.638z"/>
	<path d="M39.695,65.901c-0.645,0.323-1.252,0.83-1.741,1.524c-0.403,0.571-0.724,1.269-0.92,2.092
		c-0.069,0.291-0.122,0.599-0.158,0.922c-0.073,0.659-0.073,1.382,0.02,2.173c0,0,2.084,0.101,4.049-0.439
		c0.865-0.237,1.706-0.599,2.338-1.148c0.203-0.177,0.385-0.373,0.538-0.59c0.277-0.393,0.463-0.856,0.521-1.401
		c0.027-0.25,0.027-0.517-0.004-0.804C44.064,65.681,41.7,64.898,39.695,65.901z"/>
	<path d="M54.887,69.439c-0.205-0.819-0.535-1.51-0.945-2.075c-0.501-0.69-1.12-1.189-1.775-1.5
		c-1.988-0.945-4.296-0.149-4.567,2.366c-0.027,0.256-0.029,0.496-0.011,0.722c0.048,0.581,0.237,1.07,0.528,1.482
		c0.14,0.198,0.302,0.377,0.483,0.541c0.615,0.557,1.443,0.927,2.301,1.172c1.992,0.569,4.142,0.465,4.142,0.465
		c0.092-0.79,0.093-1.514,0.02-2.172C55.024,70.087,54.965,69.753,54.887,69.439z"/>
</g>
<g>
</g>
<g>
</g>
<g>
</g>
<g>
</g>
<g>
</g>
<g>
</g>
<g>
</g>
<g>
</g>
<g>
</g>
<g>
</g>
<g>
</g>
<g>
</g>
<g>
</g>
<g>
</g>
<g>
</g>
</svg>
