<?xml version="1.0" encoding="UTF-8" standalone="yes"?>
<svg xmlns="http://www.w3.org/2000/svg" viewBox="0 0 48 48">
  <path d="M43.187 14.592H32.81v-9.36a3.436 3.436 0 0 0-3.437-3.435H18.536A3.436 3.436 0 0 0 15.1 5.233v9.36H4.77a3.437 3.437 0 0 0-3.437 3.436v10.834A3.437 3.437 0 0 0 4.77 32.3H15.1v10.38a3.437 3.437 0 0 0 3.437 3.436h10.837a3.436 3.436 0 0 0 3.436-3.437V32.3h10.377a3.437 3.437 0 0 0 3.436-3.436V18.028a3.436 3.436 0 0 0-3.436-3.436zm-16.103 13.89c-.19.083-.37.158-.54.224 1.057.374 2.085.888 2.016 1.134-.086.305-1.816.08-3.064-.27a5.307 5.307 0 0 1-.923-.338v2.045a.554.554 0 0 1-1.107 0V29.23a5.448 5.448 0 0 1-.938.34c-1.248.35-2.988.574-3.074.27-.07-.247.958-.76 2.013-1.134a12.7 12.7 0 0 1-.54-.224c-2.045-.897-4.602-2.5-4.384-3 .195-.443 2.517.136 4.467.9-.08-.127-.16-.26-.243-.4-1.554-2.624-3.11-6.436-2.47-6.815.547-.324 2.526 1.97 4.06 4.285.06-3.674.774-8.256 1.648-8.256s1.59 4.583 1.648 8.256c1.533-2.314 3.513-4.61 4.06-4.285.64.38-.917 4.19-2.47 6.815-.084.14-.165.273-.244.4 1.95-.764 4.27-1.343 4.466-.9.22.5-2.336 2.103-4.383 3z"/>
</svg>