<svg xmlns="http://www.w3.org/2000/svg" width="48" height="48" viewBox="0 0 48 48"><path d="M46.66 37.832a2.83 2.83 0 0 0-2.02-2.547c-1.054-.304-2.05-.023-2.747.59-.555.49-1.344.458-1.905-.024a2.854 2.854 0 0 0-3.726 0c-.487.42-1.25.42-1.738 0-.5-.43-1.148-.69-1.86-.69a2.85 2.85 0 0 0-1.867.69c-.57.49-1.362.49-1.932 0a2.85 2.85 0 0 0-1.866-.69c-.713 0-1.363.258-1.864.687a1.41 1.41 0 0 1-1.86 0c-.5-.43-1.15-.69-1.862-.69-.713 0-1.364.26-1.866.692-.57.49-1.36.49-1.933 0a2.85 2.85 0 0 0-1.866-.69c-.71 0-1.357.257-1.856.683a1.4 1.4 0 0 1-1.837 0 2.846 2.846 0 0 0-1.855-.684 2.85 2.85 0 0 0-1.866.692c-.56.48-1.35.513-1.904.024-.697-.614-1.694-.895-2.748-.592a2.827 2.827 0 0 0-1.917 1.956c-.054.2-.087.4-.1.593l-.034 2.937c0 .9.75 1.61 1.65 1.61h41.754c.9 0 1.623-.71 1.623-1.61v-2.938zM30.174 25.603a1.288 1.288 0 0 0 .512 1.75c.625.343 1.41.113 1.75-.512.342-.624.667-2.42.042-2.76-.624-.343-1.962.898-2.304 1.523zM31.373 18.3a1.29 1.29 0 0 0 1.39-2.172c-.6-.384-2.37-.83-2.753-.23-.384.6.762 2.02 1.363 2.403zM30.952 12.334a1.29 1.29 0 0 0 1.65-.78c.24-.67.28-2.493-.39-2.734-.67-.24-1.8 1.194-2.04 1.864-.24.67.11 1.41.78 1.65zM37.606 21.523c.5-.508 1.3-2.148.79-2.647-.507-.5-2.132.332-2.63.84a1.29 1.29 0 1 0 1.84 1.807zM35.988 30.887a1.29 1.29 0 0 0 1.29-1.29c0-.713-.578-2.443-1.29-2.443-.712 0-1.29 1.73-1.29 2.443 0 .713.578 1.29 1.29 1.29zM41.762 28.206a1.29 1.29 0 0 0 .59-2.51c-.692-.164-2.51 0-2.673.695-.164.693 1.388 1.652 2.082 1.816zM12.417 30.54l16.56-8.55-7.338-19.6L3.535 6.812A3.525 3.525 0 0 0 1.47 11.35l6.41 17.125a3.524 3.524 0 0 0 4.537 2.065zM9.495 17.67l1.41-.527a3.964 3.964 0 0 1-.473-.554c-.564-.77-1.166-1.91-.978-2.048.15-.11.77.465 1.3 1.096.003-.133.008-.276.017-.43.09-1.642.538-3.817.938-3.795.356.02.557 1.77.533 3.313l.214-.27c1.408-1.75 3.635-3.808 4.062-3.464.365.294-.708 2.252-1.907 3.907 2.548-.91 5.892-1.6 6.118-.996.225.603-2.75 2.28-5.27 3.268 1.992.46 4.087 1.232 4.004 1.694-.096.54-3.127.45-5.337.055-.118-.02-.23-.04-.34-.063 1.03 1.147 2.03 2.6 1.774 2.85-.29.278-2.053-1.07-3.2-2.25a8.688 8.688 0 0 1-.293-.313c.015.824-.075 1.666-.262 1.682-.232.02-.526-1.235-.606-2.187a3.872 3.872 0 0 1-.007-.73l-1.41.53a.41.41 0 1 1-.288-.77z"/></svg>