<?xml version="1.0" encoding="iso-8859-1"?>
<!-- Generator: Adobe Illustrator 17.0.0, SVG Export Plug-In . SVG Version: 6.00 Build 0)  -->
<!DOCTYPE svg PUBLIC "-//W3C//DTD SVG 1.1//EN" "http://www.w3.org/Graphics/SVG/1.1/DTD/svg11.dtd">
<svg version="1.1" id="Capa_1" xmlns="http://www.w3.org/2000/svg" xmlns:xlink="http://www.w3.org/1999/xlink" x="0px" y="0px"
	 width="64px" height="64px" viewBox="0 0 64 64" style="enable-background:new 0 0 64 64;" xml:space="preserve">
<g>
	<path d="M14.993,60.008v-26.87c-0.936-0.487-1.916-0.952-2.993-1.368c-3.321-1.283-5.707-2.59-7.264-3.991l2.57,31.386
		C7.305,59.166,11.517,60.64,14.993,60.008z"/>
	<path d="M12.36,30.838c0.93,0.359,1.804,0.747,2.633,1.159c11.806,5.861,13.68,16.676,16.042,22.711
		c2.422,6.19,7.552,6.319,13.166,6.319c0.244,0,0.489,0,0.735,0c5.897,0,15.024-4.634,15.024-4.634s0.421-8.144,0.562-12.637
		c0.14-4.493-8.144-4.634-10.531-6.88c-0.641-0.604-1.499-1.548-2.452-2.665c0.273,0.152,0.558,0.293,0.88,0.396
		c0.049,0.016,0.091,0.01,0.136,0.015c0.209,0.021,0.378-0.057,0.489-0.199c0.245-0.313,0.21-0.875-0.289-1.035
		c-0.421-0.135-0.79-0.349-1.122-0.617c-0.452-0.366-0.825-0.846-1.142-1.396c-1.406-2.438-1.662-6.322-2.266-8.513
		c-0.316-1.149-0.673-2.27-1.077-3.364c1.774-0.941,2.102-3.592,1.099-5.13c-0.956-1.467-2.744-2.385-4.488-2.991
		c-0.163-0.057-0.323-0.105-0.484-0.157c-0.164-0.052-0.329-0.107-0.49-0.154c0.039-0.478,0.078-0.903,0.114-1.266
		c0.174-0.068,0.349-0.138,0.524-0.212c0.174-0.073,0.349-0.148,0.523-0.226c2.803-1.259,5.554-3.219,5.797-6.325
		c0.02-0.256-0.206-0.567-0.464-0.609c-3.144-0.515-5.561,1.462-7.339,3.844c-0.1,0.133-0.197,0.268-0.293,0.403
		C37.55,6.812,37.453,6.951,37.36,7.09c-1.963-1.495-5.435-3.633-9.274-3.633c-5.897,0-17.411-1.544-17.411-1.544
		c-0.281,3.791-3.229,12.216-4.493,15.445c-0.891,2.278-4.497,5.324-1.576,8.843C5.827,27.671,8.18,29.224,12.36,30.838z
		 M44.082,27.664c0.059,0.291,0.122,0.587,0.188,0.884c0.089,0.4,0.184,0.801,0.295,1.199c0.14,0.5,0.312,0.985,0.507,1.456
		c-1.976-2.489-3.97-5.167-5.192-6.964c-0.964-1.417-1.286-4.254-1.329-7.133c0.168,0.264,0.338,0.523,0.515,0.767
		c0.171,0.237,0.348,0.459,0.529,0.666c0.688,0.785,1.455,1.319,2.36,1.301C42.907,22.363,43.551,25.026,44.082,27.664z
		 M39.665,12.716c1.075,0.42,2.102,0.964,2.966,1.72c0.854,0.748,1.218,1.726,0.75,2.798c-0.162,0.372-0.401,0.78-0.71,1.038
		c-0.786-1.885-1.773-3.662-3.021-5.316c-0.087-0.116-0.165-0.236-0.255-0.35C39.486,12.64,39.575,12.68,39.665,12.716z
		 M39.088,14.309c0.163,0.232,0.324,0.466,0.476,0.704c0.668,1.043,1.251,2.133,1.752,3.265c-0.743-0.441-1.291-1.105-1.772-1.844
		c-0.17-0.261-0.336-0.525-0.492-0.802c-0.161-0.285-0.321-0.571-0.479-0.861c0.011-0.38,0.026-0.753,0.043-1.117
		C38.78,13.869,38.934,14.089,39.088,14.309z M38.627,7.463c0.094-0.137,0.191-0.273,0.29-0.408
		c1.356-1.857,3.181-3.556,5.474-3.462c-0.451,2.023-2.42,3.428-4.46,4.399c-0.162,0.077-0.323,0.151-0.485,0.223
		c-0.167,0.074-0.332,0.145-0.497,0.213c-0.105-0.1-0.313-0.292-0.604-0.542C38.436,7.744,38.53,7.604,38.627,7.463z"/>
</g>
</svg>
