<?xml version="1.0" encoding="iso-8859-1"?>
<!-- Generator: Adobe Illustrator 17.0.0, SVG Export Plug-In . SVG Version: 6.00 Build 0)  -->
<!DOCTYPE svg PUBLIC "-//W3C//DTD SVG 1.1//EN" "http://www.w3.org/Graphics/SVG/1.1/DTD/svg11.dtd">
<svg version="1.1" id="Capa_1" xmlns="http://www.w3.org/2000/svg" xmlns:xlink="http://www.w3.org/1999/xlink" x="0px" y="0px"
	 width="64px" height="64px" viewBox="0 0 64 64" style="enable-background:new 0 0 64 64;" xml:space="preserve">
<g>
	<path d="M15.674,55.301c1.054,1.419,2.309,4.493,2.309,4.493h9.616v-4.948c2.793,0.164,5.844,1.031,9.174,3.591
		c6.702,5.152,19.122-1.769,19.122-1.769s0.774-1.216-1.879-2.984c-2.653-1.769-9.064,1.99-10.832-3.537
		c-1.769-5.527-9.285-7.074-7.737-12.711c1.547-5.637,3.205-28.407,3.205-28.407c-4.056-2.836-8.094-3.993-11.818-4.188v4.17
		c0,1.049-0.853,1.902-1.902,1.902h-2.256c-1.049,0-1.903-0.853-1.903-1.902V5.327c-6.676,1.399-11.302,5.139-11.302,5.139
		s6.632,28.739,6.521,32.718C15.884,47.123,12.185,54.193,15.674,55.301z"/>
	<path d="M22.676,9.914h2.256c0.498,0,0.902-0.404,0.902-0.902V4.815V3.521c0-0.498-0.404-0.903-0.902-0.903h-2.256
		c-0.498,0-0.903,0.404-0.903,0.903v1.616v3.874C21.774,9.51,22.178,9.914,22.676,9.914z"/>
</g>
</svg>
