<?xml version="1.0" encoding="iso-8859-1"?>
<!-- Generator: Adobe Illustrator 17.0.0, SVG Export Plug-In . SVG Version: 6.00 Build 0)  -->
<!DOCTYPE svg PUBLIC "-//W3C//DTD SVG 1.1//EN" "http://www.w3.org/Graphics/SVG/1.1/DTD/svg11.dtd">
<svg version="1.1" id="Capa_1" xmlns="http://www.w3.org/2000/svg" xmlns:xlink="http://www.w3.org/1999/xlink" x="0px" y="0px"
	 width="64px" height="64px" viewBox="0 0 64 64" style="enable-background:new 0 0 64 64;" xml:space="preserve">
<g>
	<path d="M10.533,60.003v1h1h2.5h1.029l-0.029-1.028c-0.006-0.206-0.583-20.587-0.583-22.138c0-0.323,0.154-1.044,0.498-1.636
		c0.54-0.93,1.159-0.936,1.367-0.936c0.001,0,0.002,0,0.004,0c0.804,0,2.632,0.62,5.841,4.767c2.696,3.484,4.327,7.715,5.765,11.449
		c2.312,6,4.309,11.183,9.767,11.183c0.564,0,1.163-0.06,1.78-0.178c9.652-1.846,18.385-7.155,18.752-7.38l0.296-0.181l0.12-0.325
		c0.193-0.525,0.84-2.376,1.095-4.248l-0.157,0.039c-0.043,0.011-0.173,0.043-0.369,0.09c-0.141,0.034-0.32,0.077-0.532,0.127
		c-2.978,0.703-12.592,2.848-19.009,2.848c-2.537,0-4.294-0.336-5.372-1.028c-1.568-1.006-3.2-3.262-5.266-6.119
		c-4.23-5.849-10.024-13.86-19.245-16.769c-2.386-0.753-4.107-1.678-5.223-2.792c-0.326-0.326-0.604-0.667-0.825-1.026
		c-0.169-0.274-0.318-0.555-0.427-0.849c-0.207-0.558-0.299-1.13-0.3-1.713c-0.062,1.056,0.003,4.127,2.41,7.135
		C7.722,33.174,10.533,55.894,10.533,60.003z"/>
	<path d="M3.235,21.464l-0.009,0.063c0.005-0.02,0.008-0.041,0.014-0.061L3.235,21.464z"/>
	<path d="M10.085,28.587c14,4.417,20.333,20.167,24.75,23c0.975,0.626,2.713,0.869,4.832,0.869c6.555,0,16.737-2.334,19.144-2.909
		c0.306-0.073,0.48-0.116,0.511-0.124c0.003-0.001,0.013-0.003,0.013-0.003c0.208-0.444,0.349-0.846,0.46-1.231
		c1.226-4.236-3.244-5.068-10.044-6.519c-7.417-1.583-7.833-12.833-7.917-25.167C41.752,4.17,41.981,3.899,39.731,3.462
		s-3.875-0.875-14.188-1.25S13.856,1.337,13.856,1.337c-3.396,0.417-2.271,4.5-2.271,4.5c-0.668,6.116-6.4,11.659-7.418,16.047
		c-0.04,0.171-0.069,0.339-0.094,0.506c-0.034,0.228-0.052,0.452-0.056,0.673C3.982,25.273,5.512,27.144,10.085,28.587z"/>
</g>
</svg>
