<?xml version="1.0" encoding="iso-8859-1"?>
<!-- Generator: Adobe Illustrator 17.0.0, SVG Export Plug-In . SVG Version: 6.00 Build 0)  -->
<!DOCTYPE svg PUBLIC "-//W3C//DTD SVG 1.1//EN" "http://www.w3.org/Graphics/SVG/1.1/DTD/svg11.dtd">
<svg version="1.1" id="Capa_1" xmlns="http://www.w3.org/2000/svg" xmlns:xlink="http://www.w3.org/1999/xlink" x="0px" y="0px"
	 width="64px" height="64px" viewBox="0 0 64 64" style="enable-background:new 0 0 64 64;" xml:space="preserve">
<g>
	<path d="M3.798,31.097c1.687,2.729,3.846,7.637,3.846,14.938h3.669c0,0-0.234-7.112,3.222-10.85
		C11.611,33.788,8.094,32.404,3.798,31.097z"/>
	<path d="M30.248,45.53c2.419,2.181,4.837,2.555,8.259,2.555c1.785,0,3.844-0.102,6.318-0.102c7.216,0,7.361-2.526,12.412-2.959
		s8.01-6.423,0-6.783c-5.707-0.257-8.584-1.5-9.772-2.195c-0.065,0.249-0.147,0.496-0.268,0.735
		c-0.922,1.827-3.32,2.778-7.129,2.826c-0.033,0-0.066,0.001-0.099,0.001c-8.736,0-21.226-14.535-27.203-22.198
		c-1.799-1.519-3.118-2.661-3.735-3.127c-1.083-0.818-1.884-1.091-2.472-1.09c-1.176,0-1.497,1.09-1.497,1.09
		c-4.152,8.164-3.508,12.344-2.534,14.281c0.533,1.059,1.163,1.451,1.163,1.451c4.69,1.405,8.489,2.916,11.619,4.439
		C24.073,38.718,27.536,43.084,30.248,45.53z"/>
	<path d="M39.967,38.608c0.03,0,0.059-0.001,0.088-0.001c3.406-0.043,5.508-0.809,6.249-2.277c0.118-0.233,0.191-0.479,0.239-0.729
		c-0.52,0.08-1.054,0.126-1.609,0.126c-8.328,0-20.321-8.67-28.211-15.044C23.172,28.393,33.026,38.608,39.967,38.608z"/>
</g>
</svg>
