<?xml version="1.0" encoding="iso-8859-1"?>
<!-- Generator: Adobe Illustrator 17.0.0, SVG Export Plug-In . SVG Version: 6.00 Build 0)  -->
<!DOCTYPE svg PUBLIC "-//W3C//DTD SVG 1.1//EN" "http://www.w3.org/Graphics/SVG/1.1/DTD/svg11.dtd">
<svg version="1.1" id="Capa_1" xmlns="http://www.w3.org/2000/svg" xmlns:xlink="http://www.w3.org/1999/xlink" x="0px" y="0px"
	 width="64px" height="64px" viewBox="0 0 64 64" style="enable-background:new 0 0 64 64;" xml:space="preserve">
<g>
	<path d="M51.384,39.969c-5.107-0.128-8.299-4.469-9.065-7.98c-0.766-3.511-2.234-9.576-3.639-13.215
		c-0.668-1.73-1.103-3.994-1.419-6.195c2.823-0.712,3.045,4.757,3.581,6.727c0.562,2.062,1.584,3.912,3.699,4.611
		c0.941,0.311,1.341-1.169,0.407-1.477c-3.418-1.131-2.71-9.033-5.368-11.102c2.136-1.199,3.823-2.85,4.243-5.576
		c0.058-0.373-0.089-0.873-0.535-0.942c-3-0.464-5.192,1.855-6.438,4.464c-0.128-1.151-0.235-2.18-0.341-2.959
		c-0.383-2.809-0.83-3-3.766-1.922c-2.937,1.078-6.32,1.667-8.81,0.582c-2.49-1.085-7.98-0.319-7.98-0.319
		c-2.575,3.064,0.106,6.469,0.106,6.469s9.023-1.277,6.639,2.554c-2.383,3.83-5.694-0.17-5.694-0.17
		C15,13.891,15.52,15.7,15.223,16.944c2.428,1.269,6.6,4.068,9.023,9.194c2.147,4.542,2.416,9.867,0.822,15.863
		c3.245,3.679,6.581,8.671,7.759,11.778c1.873,4.937,5.107,7.32,5.107,7.32c8.938,1.277,17.96-8.597,17.96-8.597
		s-0.511-2.979,0.255-6.214C56.917,43.055,56.491,40.097,51.384,39.969z M42.112,6.288c-0.644,2.047-2.225,3.251-4.098,4.151
		C38.794,8.559,40.176,6.486,42.112,6.288z M31.477,15.519c0-1.144,0.931-2.074,2.075-2.074c1.144,0,2.074,0.931,2.074,2.074
		c0,1.145-0.931,2.075-2.074,2.075C32.408,17.594,31.477,16.663,31.477,15.519z M33.52,21.647c0-1.145,0.931-2.075,2.074-2.075
		c1.145,0,2.075,0.931,2.075,2.075c0,1.144-0.931,2.074-2.075,2.074C34.45,23.722,33.52,22.791,33.52,21.647z M35.562,27.775
		c0-1.144,0.931-2.074,2.074-2.074c1.145,0,2.075,0.931,2.075,2.074c0,1.145-0.931,2.075-2.075,2.075
		C36.493,29.851,35.562,28.92,35.562,27.775z M38.658,35.979c-1.144,0-2.074-0.931-2.074-2.074s0.931-2.074,2.074-2.074
		c1.145,0,2.075,0.931,2.075,2.074S39.803,35.979,38.658,35.979z"/>
	<path d="M14.451,18.247c-1.91,2.512-7.251,9.443-3.328,14.258c4.511,5.538,4.767,25.701,5.882,26.127s1.949-0.426,1.949-0.426
		c-1.447-19.322-2.809-22.301,0.936-20.684c1.091,0.471,2.488,1.64,3.963,3.166c1.233-5.256,0.92-9.915-0.954-13.889
		C20.656,22.039,16.675,19.411,14.451,18.247z"/>
	<circle cx="35.594" cy="21.647" r="1.075"/>
	<circle cx="38.658" cy="33.904" r="1.074"/>
	<circle cx="33.551" cy="15.519" r="1.075"/>
	<circle cx="37.637" cy="27.775" r="1.075"/>
</g>
</svg>
