<?xml version="1.0" encoding="iso-8859-1"?>
<!-- Generator: Adobe Illustrator 17.0.0, SVG Export Plug-In . SVG Version: 6.00 Build 0)  -->
<!DOCTYPE svg PUBLIC "-//W3C//DTD SVG 1.1//EN" "http://www.w3.org/Graphics/SVG/1.1/DTD/svg11.dtd">
<svg version="1.1" id="Capa_1" xmlns="http://www.w3.org/2000/svg" xmlns:xlink="http://www.w3.org/1999/xlink" x="0px" y="0px"
	 width="64px" height="64px" viewBox="0 0 64 64" style="enable-background:new 0 0 64 64;" xml:space="preserve">
<g>
	<path d="M61.492,39.206c-0.928-0.309-7.732,0.309-9.897-0.928c-2.165-1.237-0.619-2.938-8.815-1.856
		c-4.9,0.647-11.568-6.775-17.23-14.172l7.728-1.508c0.534-0.139,0.855-0.685,0.716-1.219l-1.762-6.775
		c-0.139-0.534-0.685-0.855-1.22-0.716l-11.349,2.214c-0.392-0.542-0.771-1.062-1.13-1.551l11.744-2.291
		c0.534-0.139,0.855-0.685,0.716-1.22L29.232,2.41c-0.139-0.534-0.685-0.855-1.22-0.716L9.237,5.357l0.027,0.104
		C9.238,5.479,9.221,5.493,9.221,5.493S-1.604,13.534,3.344,24.36c4.949,10.825,3.711,34.177,3.711,34.177h3.402
		c0-19.176-1.083-31.703,6.959-27.372c8.042,4.33,13.145,22.115,16.238,25.362c3.093,3.248,12.99,2.01,12.99,2.01
		s6.959-2.784,11.289-4.949C62.265,51.423,62.42,39.515,61.492,39.206z"/>
</g>
</svg>
