<?xml version="1.0" encoding="iso-8859-1"?>
<!-- Generator: Adobe Illustrator 17.0.0, SVG Export Plug-In . SVG Version: 6.00 Build 0)  -->
<!DOCTYPE svg PUBLIC "-//W3C//DTD SVG 1.1//EN" "http://www.w3.org/Graphics/SVG/1.1/DTD/svg11.dtd">
<svg version="1.1" id="Capa_1" xmlns="http://www.w3.org/2000/svg" xmlns:xlink="http://www.w3.org/1999/xlink" x="0px" y="0px"
	 width="64px" height="64px" viewBox="0 0 64 64" style="enable-background:new 0 0 64 64;" xml:space="preserve">
<g>
	<path d="M35.689,59.561c-6.159,0-13.504-0.193-21.831-0.575c-0.196,0.02-0.781,0.034-1.294-0.558
		c-0.105-0.121-0.195-0.266-0.278-0.422c-0.468,0.34-0.792,0.872-0.83,1.493c-0.066,1.103,0.774,2.05,1.877,2.116
		c0.773,0.046,11.255,0.66,21.85,0.66c8.452,0,16.979-0.391,20.694-1.773c1.035-0.385,1.562-1.537,1.178-2.572
		c-0.178-0.478-0.524-0.841-0.942-1.063c0.014,0.2,0.027,0.399,0.03,0.612l0.003,0.267l-0.22,0.151
		C55.679,58.067,53.004,59.561,35.689,59.561z"/>
	<path d="M13.488,38.172c1.081,7.596,0.688,9.446,0.093,12.246c-0.187,0.879-0.398,1.875-0.585,3.182
		c-0.362,2.535-0.055,3.595,0.225,4.036c0.034,0.053,0.067,0.101,0.099,0.138c0.166,0.191,0.329,0.219,0.411,0.219l0.077-0.021
		l0.05,0.014c8.331,0.382,15.676,0.576,21.831,0.576c14.473,0,18.513-1.051,19.445-1.394c-0.008-0.184-0.024-0.357-0.042-0.529
		c-0.337-3.283-2.424-4.418-5.468-6.065c-0.907-0.491-1.937-1.047-2.996-1.709c-4.768-2.977-13.286-6.479-13.371-6.514l-0.447-0.184
		l0.168-0.453c1.618-4.371,1.761-34.545,1.772-38.735C33.914,2.945,33.132,2.93,32.4,2.93c-9.613,0-10.012,2.605-10.015,2.632
		l-0.467,4.229l-0.528-4.197c-0.177-1.418-3.278-2.232-8.508-2.232c-1.691,0-3.171,0.088-3.898,0.14
		c0.715,14.602,1.938,20.822,3.122,26.838C12.603,32.862,13.071,35.244,13.488,38.172z"/>
</g>
</svg>
