<?xml version="1.0" encoding="iso-8859-1"?>
<!-- Generator: Adobe Illustrator 17.0.0, SVG Export Plug-In . SVG Version: 6.00 Build 0)  -->
<!DOCTYPE svg PUBLIC "-//W3C//DTD SVG 1.1//EN" "http://www.w3.org/Graphics/SVG/1.1/DTD/svg11.dtd">
<svg version="1.1" id="Capa_1" xmlns="http://www.w3.org/2000/svg" xmlns:xlink="http://www.w3.org/1999/xlink" x="0px" y="0px"
	 width="64px" height="64px" viewBox="0 0 64 64" style="enable-background:new 0 0 64 64;" xml:space="preserve">
<g>
	<path d="M19.018,33.655c-0.307,0.021-0.62,0.05-0.91,0.05c-2.36,0-3.777-0.681-4.601-1.34c-0.719,2.18-0.982,4.763,1.001,7.515
		c3.169,4.398,2.458,18.381,2.269,21.326l1.454,0.035c-0.093-3.393-0.382-18.01,1.512-19.964c0.265-0.272,0.539-0.33,0.724-0.33
		c0.022,0,0.044,0.007,0.067,0.008c-0.221-0.741-0.432-1.54-0.63-2.414C19.507,36.799,19.219,35.07,19.018,33.655z"/>
	<path d="M47.126,45.162c-0.027-0.217-0.963-0.835-4.772-0.835c-0.746,0-1.336,0.024-1.556,0.035
		c-0.235,0.1-0.813,0.294-1.742,0.294c-0.655,0-1.362-0.103-2.106-0.292c-2.6,0.596-6.042,1.576-8.825,2.368l-0.965,0.274
		c1.012,1.415,1.897,2.948,2.497,4.48c1.62,4.138,1.89,7.205,2.035,8.854l0.04,0.442c0.081,0.842,1.686,1.344,4.292,1.344
		c0,0,0,0,0.001,0c2.833,0,6.892-0.554,12.065-1.647c0.39-1.147,1.939-5.925,2.689-11.479
		C49.867,48.437,47.324,46.738,47.126,45.162z"/>
	<path d="M36.018,43.555c0.326-0.078,0.64-0.151,0.944-0.219c1.4-0.314,2.558-0.513,3.26-0.513c0.157,0,0.292,0.01,0.402,0.031
		c0,0-0.907-3.819-3.708-8.251c0,0,0.22-1.177-0.23-3.05c-0.025,0-0.043-0.002-0.069-0.002c-2.778,0-7.391,0.691-11.462,1.3
		c-0.543,0.081-1.078,0.161-1.599,0.238c-0.217,0.032-0.42,0.061-0.632,0.092c-0.212,0.031-0.428,0.063-0.634,0.092
		c-0.836,0.119-1.595,0.219-2.273,0.298c0.328,2.302,0.888,5.414,1.757,7.994c0.093,0.277,0.19,0.548,0.291,0.811
		c0.123,0.322,0.251,0.635,0.386,0.93c0.778,1.708,1.748,2.907,2.942,3.014c0.057,0.005,0.113,0.019,0.171,0.019
		c0.139,0,0.283-0.031,0.428-0.061c0.052-0.011,0.101-0.007,0.153-0.022c0.121-0.034,0.25-0.071,0.375-0.106
		c2.643-0.749,5.923-1.701,8.695-2.395C35.487,43.685,35.757,43.618,36.018,43.555z"/>
	<path d="M13.402,30.749c0,0,0.032,0.069,0.108,0.18c0.075,0.109,0.194,0.26,0.367,0.427c0.594,0.574,1.838,1.349,4.231,1.349
		c0.238,0,0.514-0.027,0.776-0.043c0.166-0.01,0.316-0.01,0.492-0.027c0.028-0.003,0.05-0.001,0.078-0.004
		c0.134-0.014,0.286-0.033,0.429-0.05c0.459-0.053,0.955-0.116,1.494-0.19c0.206-0.028,0.417-0.058,0.633-0.088
		c0.205-0.029,0.416-0.059,0.63-0.09c4.368-0.633,10.28-1.615,13.746-1.656c0.075-0.001,0.158-0.005,0.231-0.005
		c0.108,0,0.205,0.004,0.307,0.006c0.186,0.004,0.362,0.011,0.529,0.022c0.448,0.029,0.833,0.082,1.123,0.17
		c0.049,0.015,0.095,0.022,0.138,0.022c2.444,0-5.555-23.894-5.797-25.836c-0.181-1.448-0.296-2.515-1.994-2.515
		c-0.62,0-1.452,0.142-2.576,0.461C24.148,4.07,11.797,6.047,11.92,9.258c0.111,2.879,1.908,15.681,1.655,20.258
		C13.547,30.043,13.492,30.468,13.402,30.749z M16.113,27.414c0-0.062,0.014-0.12,0.018-0.181c0.013-0.172,0.045-0.337,0.093-0.496
		c0.051-0.167,0.118-0.325,0.203-0.475c0.405-0.713,1.162-1.201,2.039-1.201c1.297,0,2.353,1.056,2.353,2.353
		c0,0.099-0.017,0.193-0.029,0.289c-0.022,0.174-0.06,0.342-0.117,0.502c-0.064,0.179-0.143,0.35-0.246,0.506
		c-0.163,0.246-0.372,0.457-0.613,0.626c-0.021,0.015-0.041,0.029-0.063,0.043c-0.147,0.096-0.307,0.171-0.474,0.233
		c-0.009,0.003-0.018,0.005-0.027,0.008c-0.169,0.06-0.347,0.099-0.532,0.119c-0.007,0.001-0.015,0.001-0.022,0.002
		c-0.077,0.008-0.151,0.023-0.23,0.023C17.169,29.767,16.113,28.711,16.113,27.414z M20.819,19.51c0,1.297-1.056,2.353-2.353,2.353
		c-1.298,0-2.354-1.056-2.354-2.353c0-1.298,1.056-2.354,2.354-2.354C19.764,17.156,20.819,18.212,20.819,19.51z M17.479,9.252
		c1.297,0,2.353,1.056,2.353,2.353s-1.056,2.353-2.353,2.353s-2.353-1.056-2.353-2.353S16.182,9.252,17.479,9.252z"/>
	<circle cx="17.479" cy="11.604" r="1.353"/>
	<circle cx="18.466" cy="19.51" r="1.353"/>
	<path d="M19.018,28.647c0.192-0.086,0.357-0.218,0.489-0.379c0.008-0.01,0.017-0.02,0.025-0.031
		c0.115-0.149,0.201-0.32,0.246-0.508c0.024-0.102,0.041-0.206,0.041-0.315c0-0.746-0.606-1.353-1.353-1.353
		c-0.542,0-1.008,0.322-1.224,0.783c-0.081,0.174-0.13,0.365-0.13,0.569c0,0.003,0.001,0.006,0.001,0.008
		c0.005,0.73,0.59,1.32,1.316,1.34c0.013,0,0.024,0.004,0.037,0.004c0.16,0,0.311-0.033,0.453-0.084
		C18.953,28.671,18.986,28.661,19.018,28.647z"/>
</g>
</svg>
