<?xml version="1.0" encoding="iso-8859-1"?>
<!-- Generator: Adobe Illustrator 17.0.0, SVG Export Plug-In . SVG Version: 6.00 Build 0)  -->
<!DOCTYPE svg PUBLIC "-//W3C//DTD SVG 1.1//EN" "http://www.w3.org/Graphics/SVG/1.1/DTD/svg11.dtd">
<svg version="1.1" id="Capa_1" xmlns="http://www.w3.org/2000/svg" xmlns:xlink="http://www.w3.org/1999/xlink" x="0px" y="0px"
	 width="64px" height="64px" viewBox="0 0 64 64" style="enable-background:new 0 0 64 64;" xml:space="preserve">
<g>
	<path d="M10.844,26.951c-0.328-0.319-0.66-0.633-0.997-0.941c-3.641-3.334-5.888-5.491-7.116-7.245
		c0.152,7.379,0.701,22.847,2.677,36.389c0,0,1.805,1.108,2.708,0.657C8.833,55.451,4.856,27.166,10.844,26.951z"/>
	<path d="M27.24,51.084c-0.012,0.508,0.057,1.062,0.315,1.557c1.132,2.172,9.142,6.031,13.911,5.959
		c4.769-0.072,13.721-1.287,16.897-4.02c1.947-1.676,3.346-3.486,2.563-4.148l-0.34,0.237c-0.322,0.224-7.994,5.485-17.91,5.485
		C37.062,56.154,31.877,54.436,27.24,51.084z"/>
	<path d="M55.97,43.153c-0.15,0-0.307,0.007-0.468,0.021c-0.431,0.037-0.841,0.054-1.23,0.054c-3.541,0-5.378-1.403-5.945-1.933
		c-0.019-0.024-0.024-0.051-0.046-0.075c-0.16-0.17-0.327-0.328-0.491-0.49c-0.118-0.118-0.234-0.241-0.354-0.354
		c-4.5-4.243-10.422-5.92-14.304-11.156c-1.818-2.452-3.591-4.719-5.676-6.612c-0.448-0.407-0.907-0.8-1.388-1.169
		c-0.386-0.296-0.789-0.574-1.201-0.843c-5.605-7.961-13.44-17.285-13.44-17.285S11.055,3,10.412,3C9.318,3,7.437,3.895,5.258,8.733
		c-1.192,2.647-2.206,4.272-2.585,5.666c0,0,0,0,0,0c-0.207,0.762-0.225,1.454,0.021,2.206c0.609,1.866,2.84,4.099,7.829,8.667
		c1.002,0.917,1.963,1.879,2.882,2.868c0.596,0.641,1.173,1.295,1.733,1.955c0.903,1.065,1.758,2.148,2.566,3.231
		c6.156,8.257,9.517,16.521,9.517,16.521c0.056,0.043,0.113,0.081,0.169,0.124c5.163,3.881,10.48,5.183,15.286,5.183
		c8.243,0,14.96-3.809,16.813-4.967c0.331-0.207,0.526-0.339,0.526-0.339S60.723,43.153,55.97,43.153z M42.309,43.834
		c-6.045,0-9.966-9.54-12.531-15.253c-0.225-0.501-0.508-1.055-0.833-1.644c0.501,0.616,0.995,1.249,1.491,1.891
		c0.425,0.55,0.854,1.106,1.294,1.664c0.486,0.617,0.985,1.235,1.51,1.849c3.524,4.125,8.82,5.653,12.751,9.175
		c0.128,0.115,0.255,0.23,0.381,0.35c0.121,0.115,0.239,0.236,0.357,0.355C45.142,43.342,43.671,43.834,42.309,43.834z"/>
</g>
</svg>
