<?xml version="1.0" encoding="iso-8859-1"?>
<!-- Generator: Adobe Illustrator 17.0.0, SVG Export Plug-In . SVG Version: 6.00 Build 0)  -->
<!DOCTYPE svg PUBLIC "-//W3C//DTD SVG 1.1//EN" "http://www.w3.org/Graphics/SVG/1.1/DTD/svg11.dtd">
<svg version="1.1" id="Capa_1" xmlns="http://www.w3.org/2000/svg" xmlns:xlink="http://www.w3.org/1999/xlink" x="0px" y="0px"
	 width="64px" height="64px" viewBox="0 0 64 64" style="enable-background:new 0 0 64 64;" xml:space="preserve">
<g>
	<path d="M13.587,60.797c0-15.722-0.79-26.553,4.331-25.801c-3.585-2.39-8.302-3.63-11.269-6.537
		c0.126,0.345,0.264,0.693,0.425,1.046c4.531,9.912,3.398,31.292,3.398,31.292H13.587z"/>
	<path d="M21.425,36.713c6.524,5.148,10.762,19.472,13.401,22.243c2.832,2.973,11.894,1.841,11.894,1.841s6.372-2.549,10.336-4.531
		c3.965-1.982,4.106-12.885,3.257-13.168s-7.08,0.283-9.062-0.85s-0.566-2.69-8.071-1.699c-6.57,0.868-17.438-14.109-23.178-21.653
		c5.095,2.091,11.418,4.242,14.385,3.487L32.552,4.291c0,0-5.713-0.326-9.844-0.622l-0.566,14.038L21.267,3.562
		C20.39,3.494,19.655,3.43,19.17,3.375c-5.521-0.624-6.348-4.905-6.634,8.755c-0.058,0.053-0.082,0.101-0.082,0.101
		S4.888,17.852,6,25.884C8.982,31.232,17.42,32.044,21.425,36.713z"/>
</g>
</svg>
