<?xml version="1.0" encoding="iso-8859-1"?>
<!-- Generator: Adobe Illustrator 17.0.0, SVG Export Plug-In . SVG Version: 6.00 Build 0)  -->
<!DOCTYPE svg PUBLIC "-//W3C//DTD SVG 1.1//EN" "http://www.w3.org/Graphics/SVG/1.1/DTD/svg11.dtd">
<svg version="1.1" id="Capa_1" xmlns="http://www.w3.org/2000/svg" xmlns:xlink="http://www.w3.org/1999/xlink" x="0px" y="0px"
	 width="64px" height="64px" viewBox="0 0 64 64" style="enable-background:new 0 0 64 64;" xml:space="preserve">
<g>
	<path d="M5.775,37.302c-0.361,0-1.549-0.11-2.532-1.268c-0.151,2.591,1.543,4.829,3.861,5.033l11.143,0.982
		c1.413,0.125,2.725-0.544,3.61-1.661c-2.334-0.973-6.495-1.988-16.078-3.086H5.775z"/>
	<path d="M15.73,23.215c0.253,0,0.503-0.01,0.751-0.028l1.532-0.235c0.091-0.022,0.179-0.051,0.269-0.075
		c-3.41-1.177-10.279-3.463-12.445-3.562l0.067,0.057C5.951,19.409,10.523,23.215,15.73,23.215z"/>
	<path d="M5.775,36.302c0.032,0,0.05-0.001,0.05-0.001c9.98,1.141,14.192,2.194,16.586,3.23c3.726,1.613,3.035,3.186,12.731,4.989
		c2.34,0.435,4.562,0.62,6.654,0.62c12.149,0,19.845-6.258,19.845-6.258c-0.282-2.396-3.383-4.088-11.135-6.724
		c-3.737-1.271-7.962-3.88-11.34-6.242v7.186l-0.491,0.009c0,0-0.264,0.004-0.672,0.004c-2.392,0-3.879-0.133-4.419-0.396
		c-0.37-0.18-0.869-0.422-0.566-5.947c-1.003,0.759-1.883,1.143-2.624,1.143c-0.538,0-1.28-0.204-1.761-1.178
		c-0.427-0.864-0.383-1.771,0.126-2.624c0.83-1.39,2.82-2.429,4.458-2.716c-0.211-0.175-0.33-0.276-0.33-0.276
		s-1.185-1.725-3.924-1.725c-1.69,0-3.971,0.657-6.929,2.781c-0.321,0.23-0.644,0.431-0.968,0.617
		c-0.955,0.55-1.922,0.92-2.883,1.142c-0.52,0.12-1.038,0.197-1.552,0.238c-0.302,0.024-0.603,0.039-0.901,0.039
		c-0.599,0-1.186-0.054-1.762-0.137c-0.495-0.071-0.981-0.164-1.453-0.283c-3.588-0.9-6.396-2.981-7.083-3.523
		c-0.106-0.083-0.172-0.138-0.172-0.138c-0.134,0.394-0.256,0.772-0.376,1.147c-0.152,0.473-0.294,0.932-0.427,1.376
		c-1.928,6.475-1.79,9.879-1.079,11.666C4.125,36.199,5.497,36.302,5.775,36.302z"/>
	<path d="M34.103,31.85c0.392,0.128,1.601,0.264,3.9,0.264c0.058,0,0.112,0,0.163,0v-6.907v-0.623v-0.619v-0.545l-0.871-0.641
		l0.073-0.319c0.09-0.394,0.142-0.718,0.164-1.022c0.076-0.984-0.477-2.868-1.277-3.732c-0.502-0.544-0.938-0.559-1.464-0.035
		c-0.884,0.884-0.866,2.141-0.602,3.231c0.063,0.261,0.136,0.516,0.219,0.75l0.035,0.099l0.193,0.544l-0.303,0.011l-0.379,0.013
		c-1.427,0.051-3.586,1.049-4.338,2.309c-0.336,0.562-0.364,1.108-0.088,1.668c0.271,0.55,0.604,0.62,0.864,0.62
		c0.68,0,1.694-0.583,2.856-1.64l0.918-0.835l-0.082,1.238C33.768,30.49,34.015,31.614,34.103,31.85z"/>
</g>
</svg>
