<?xml version="1.0" encoding="iso-8859-1"?>
<!-- Generator: Adobe Illustrator 17.0.0, SVG Export Plug-In . SVG Version: 6.00 Build 0)  -->
<!DOCTYPE svg PUBLIC "-//W3C//DTD SVG 1.1//EN" "http://www.w3.org/Graphics/SVG/1.1/DTD/svg11.dtd">
<svg version="1.1" id="Capa_1" xmlns="http://www.w3.org/2000/svg" xmlns:xlink="http://www.w3.org/1999/xlink" x="0px" y="0px"
	 width="64px" height="64px" viewBox="0 0 64 64" style="enable-background:new 0 0 64 64;" xml:space="preserve">
<g>
	<path d="M3.409,26.301c0.153,1.55,0.453,3.598,1.007,6.31c1.833,8.972,3,22.306,3,24.056s7.5,0.5,7.5,0.5l-0.511-23.952
		c-0.742-0.405-1.48-0.798-2.205-1.185C8.668,30.146,5.466,28.433,3.409,26.301z"/>
	<path d="M59.828,53.626c0.549-0.001,0.922-0.043,0.922-0.043s1.75-3.25,1.083-3.917c-0.274-0.274-1.281-0.491-2.371-0.652
		C59.634,50.342,59.756,51.881,59.828,53.626z"/>
	<path d="M40.68,31.016c0.617,0.113,1.236,0.21,1.856,0.303c-0.45-0.809-0.865-1.61-1.245-2.389
		C41.081,29.624,40.872,30.318,40.68,31.016z"/>
	<path d="M49.946,40.684c-0.773-0.625-1.511-1.317-2.213-2.062c-0.068,0.72-0.135,1.44-0.184,2.162
		C48.348,40.769,49.147,40.728,49.946,40.684z"/>
	<path d="M39.701,25.344c-0.378-0.952-0.679-1.797-0.902-2.493c-0.274,0.683-0.548,1.366-0.805,2.056
		C38.561,25.064,39.131,25.206,39.701,25.344z"/>
	<path d="M45.811,36.36c-0.556-0.724-1.081-1.474-1.579-2.233c-0.19,0.628-0.378,1.257-0.551,1.889
		C44.388,36.146,45.099,36.255,45.811,36.36z"/>
	<path d="M14.381,32.063c0.949,0.513,1.91,1.043,2.869,1.603c9.417,5.5,13.417,22.167,20.167,23.667
		c0.868,0.193,1.866,0.277,2.948,0.277c7.331,0,18.468-3.86,18.468-3.86c-0.003-0.062-0.007-0.114-0.009-0.175
		c-0.083-1.918-0.222-3.454-0.392-4.696c-0.681-4.968-1.868-5.129-2.003-5.129c-0.008,0-0.013,0.001-0.013,0.001
		c-1.871-0.287-3.614-1.056-5.224-2.141c-0.019,0.003-0.032,0.012-0.052,0.013c-1.374,0.068-2.743,0.18-4.119,0.178
		c-0.257,0-0.525-0.214-0.51-0.49c0.068-1.238,0.198-2.47,0.312-3.704c-0.028-0.032-0.055-0.064-0.083-0.097
		c-1.263-0.186-2.528-0.346-3.78-0.602c-0.252-0.051-0.472-0.314-0.402-0.582c0.29-1.113,0.632-2.211,0.966-3.311
		c-0.12-0.196-0.237-0.392-0.353-0.588c-1.074-0.154-2.147-0.302-3.211-0.519c-0.252-0.051-0.472-0.314-0.402-0.582
		c0.328-1.259,0.722-2.499,1.095-3.744c-0.17-0.374-0.328-0.737-0.479-1.092c-0.996-0.233-1.992-0.465-2.974-0.757
		c-0.246-0.073-0.442-0.354-0.349-0.615c0.464-1.3,1-2.571,1.508-3.854c-0.856-3.597-0.292-3.657-10.526-4.847
		c-8.803-1.024-13.834-5.639-15.571-7.491c0.111-0.129,0.221-0.258,0.328-0.389c0.106-0.13,0.222-0.252,0.324-0.384
		c0.005-0.007,0.012-0.013,0.017-0.021c0.64-0.83,1.746-2.218,1.243-3.352c-0.491-1.106-1.906-0.96-2.695-0.315
		c-0.602,0.492-0.986,1.319-1.214,2.174c-0.047,0.177-0.088,0.353-0.121,0.53c-0.037,0.194-0.067,0.384-0.089,0.571
		c-1.101,0.477-2.903,2.472-6.306,8.177c-2.239,3.753-2.065,6.451-0.463,8.683C5.328,27.442,9.691,29.528,14.381,32.063z
		 M11.85,5.571c0.288-0.474,0.776-0.797,1.315-0.507c0.34,0.183-0.021,0.878-0.123,1.09c-0.211,0.441-0.487,0.861-0.787,1.271
		C12.157,7.56,12.05,7.689,11.944,7.82c-0.107,0.132-0.202,0.271-0.314,0.4c-0.014-0.016-0.038-0.045-0.047-0.054
		c-0.156-0.165-0.324-0.316-0.517-0.422c0.026-0.168,0.067-0.333,0.107-0.499c0.04-0.164,0.084-0.324,0.137-0.484
		C11.451,6.343,11.626,5.938,11.85,5.571z"/>
</g>
</svg>
