<?xml version="1.0" encoding="iso-8859-1"?>
<!-- Generator: Adobe Illustrator 17.0.0, SVG Export Plug-In . SVG Version: 6.00 Build 0)  -->
<!DOCTYPE svg PUBLIC "-//W3C//DTD SVG 1.1//EN" "http://www.w3.org/Graphics/SVG/1.1/DTD/svg11.dtd">
<svg version="1.1" id="Capa_1" xmlns="http://www.w3.org/2000/svg" xmlns:xlink="http://www.w3.org/1999/xlink" x="0px" y="0px"
	 width="64px" height="64px" viewBox="0 0 64 64" style="enable-background:new 0 0 64 64;" xml:space="preserve">
<g>
	<path d="M60.917,33.167c-1.639,0.622-3.665,0.988-5.784,1.188c-0.19,0.888-1.005,1.603-1.978,1.67L47.9,36.387
		c-0.047,0.003-0.093,0.005-0.138,0.005c-0.521,0-0.997-0.203-1.339-0.571c-0.345-0.371-0.514-0.867-0.484-1.399
		c-2.619-0.155-4.438-0.386-4.438-0.386c0.651-0.959,2.531-2.517,4.287-3.863c-0.324-2.073-1.118-4.247-2.899-5.54
		C39.06,25.523,33.5,31.25,33.5,31.25c-0.551-0.208-1.182-0.42-1.865-0.631c2.744-3.469,5.897-6.679,9.926-6.696
		c0.43-0.002,0.872,0.039,1.323,0.114c0.39,0.065,0.788,0.161,1.194,0.288c0.087,0.081,0.174,0.162,0.257,0.247
		c1.31,1.35,1.996,3.164,2.338,4.93c0.379,1.96,0.341,3.854,0.261,4.961c0,0.004,0.001,0.007,0.001,0.011
		c-0.032,0.522,0.316,0.918,0.825,0.918c0.023,0,0.046-0.001,0.07-0.002l5.255-0.362c0.378-0.026,0.736-0.264,0.932-0.585
		c0.09-0.147,0.156-0.305,0.156-0.479c0.009-8.566-8.125-10.501-11.234-10.928c-0.254-0.035-0.477-0.06-0.657-0.078
		c-0.339-0.033-0.533-0.04-0.533-0.04c0.014,0.005,0.025,0.012,0.039,0.017c-0.444-0.009-0.88,0.01-1.305,0.067
		c-0.326,0.044-0.646,0.111-0.961,0.192c-3.473,0.885-6.34,3.861-8.906,7.123C25.87,28.941,19.5,27.667,19.5,27.667
		c-0.417-2.25-2.583-4.917-2.583-4.917c3.25-1.583,12.25-9.083,12.25-9.083L27.25,10.5l-13.417,8.417
		C11,17.5,2.75,15.667,2.75,15.667S0.583,20,6.667,22.167c6.083,2.167,6,4.583,6,4.583s-2.167-0.583-6.75-0.833
		c-4.583-0.25-3.833,1.167-3.833,1.167S3.167,44.417,3.167,45.5C3.167,46.583,15,46.25,15,46.25l0.583-11.167
		c10.833,2.25,10.75,5.5,18,9.917C40.833,49.417,59,42.5,59,42.5C63.333,31.583,60.917,33.167,60.917,33.167z"/>
</g>
</svg>
