<?xml version="1.0" encoding="iso-8859-1"?>
<!-- Generator: Adobe Illustrator 17.0.0, SVG Export Plug-In . SVG Version: 6.00 Build 0)  -->
<!DOCTYPE svg PUBLIC "-//W3C//DTD SVG 1.1//EN" "http://www.w3.org/Graphics/SVG/1.1/DTD/svg11.dtd">
<svg version="1.1" id="Capa_1" xmlns="http://www.w3.org/2000/svg" xmlns:xlink="http://www.w3.org/1999/xlink" x="0px" y="0px"
	 width="64px" height="64px" viewBox="0 0 64 64" style="enable-background:new 0 0 64 64;" xml:space="preserve">
<g>
	<path d="M46.527,38.169c-3.605,1.129-7.424,1.245-11.002-0.167c-3.277-1.293-5.768-3.987-7.887-6.7
		c-2.713-3.473-5.051-7.234-7.704-10.755c-3.144-4.172-6.465-8.202-9.788-12.231C7.6,9.956-0.512,16.094,4.375,25.125
		c5.75,10.625,2,23.125,2.875,23.75S9.875,49,9.875,49c-1.5-17.875,0-19.375,0-19.375c12-4.125,13.25,19.375,27,20
		S61.5,45.147,61.5,45.147C61.864,40.804,49.765,41.219,46.527,38.169z"/>
	<path d="M34.846,36.582c3.457,1.739,7.245,1.801,10.867,0.785C42.647,35.132,35.862,39.58,27.75,27
		C20.257,15.38,13.054,9.522,11.291,8.183c5.414,6.671,10.601,13.434,15.605,20.438C29.04,31.621,31.465,34.882,34.846,36.582z"/>
</g>
</svg>
