<?xml version="1.0" encoding="iso-8859-1"?>
<!-- Generator: Adobe Illustrator 17.0.0, SVG Export Plug-In . SVG Version: 6.00 Build 0)  -->
<!DOCTYPE svg PUBLIC "-//W3C//DTD SVG 1.1//EN" "http://www.w3.org/Graphics/SVG/1.1/DTD/svg11.dtd">
<svg version="1.1" id="Capa_1" xmlns="http://www.w3.org/2000/svg" xmlns:xlink="http://www.w3.org/1999/xlink" x="0px" y="0px"
	 width="64px" height="64px" viewBox="0 0 64 64" style="enable-background:new 0 0 64 64;" xml:space="preserve">
<g>
	<path d="M56.692,57.489c-0.015-0.124-0.053-0.257-0.139-0.393c-0.561-0.894-2.813-1.455-6.706-1.676
		c0.164-1.296,0.269-2.7,0.154-3.732c-0.067-0.601-0.79-1.055-1.28-0.53c-1.133,1.214-1.839,2.688-2.546,4.158
		c-0.204-0.001-0.403-0.004-0.614-0.004l-0.835,0.002c0.931-1.328,1.887-2.639,3.056-3.784c0.692-0.678-0.369-1.738-1.061-1.061
		c-1.479,1.448-2.62,3.163-3.799,4.843c-0.266-0.001-0.535-0.003-0.783-0.006c1.284-1.535,2.539-3.102,3.956-4.527
		c0.682-0.687-0.378-1.747-1.061-1.061c-1.714,1.725-3.187,3.689-4.774,5.534c-0.859-0.041-1.594-0.109-2.21-0.221
		c0.732-0.616,1.468-1.226,2.212-1.827c0.023-0.017,0.046-0.022,0.068-0.041c0.981-0.832,2.448-1.659,3.569-2.635
		c0.16-0.104,0.314-0.217,0.476-0.319c0.213-0.133,0.316-0.319,0.343-0.512c0.346-0.425,0.603-0.88,0.712-1.376
		c0.221-1.003-0.86-1.071-1.783-0.927c0.15-0.197,0.282-0.403,0.376-0.627c0.407-0.979-0.727-1.223-1.681-1.23
		c0.364-0.287,0.68-0.606,0.884-0.992c0.441-0.835-0.39-1.2-1.248-1.336c0.381-0.276,0.714-0.586,0.935-0.97
		c0.706-1.224-1.472-1.506-2.34-1.488c-0.028,0.001-0.056,0.005-0.083,0.005c0.795-0.378,1.471-0.852,1.855-1.518
		c0.706-1.224-1.472-1.506-2.34-1.488c-0.025,0.001-0.051,0.004-0.076,0.005c0.794-0.378,1.47-0.852,1.854-1.517
		c0.689-1.194-1.364-1.491-2.271-1.488c0.625-0.368,1.156-0.818,1.463-1.435c0.661-1.328-1.483-1.693-2.335-1.696
		c-0.062,0-0.125,0.008-0.188,0.009c0.826-0.552,1.502-1.183,1.809-1.914c0.599-1.427-1.473-1.885-2.291-1.911
		c-0.188-0.006-0.375,0.012-0.563,0.013c0.826-0.552,1.502-1.183,1.809-1.914c0.457-1.089-0.639-1.612-1.549-1.811
		c0.417-0.342,0.76-0.751,0.972-1.271c0.389-0.954-0.401-1.465-1.213-1.706c0.317-0.286,0.599-0.612,0.789-1.036
		c0.505-1.127-0.571-1.768-1.45-2.044c0.249-0.204,0.478-0.433,0.65-0.724c0.724-1.219-1.112-1.885-1.856-2.008
		c-0.123-0.02-0.248-0.024-0.372-0.041c0.667-0.296,1.25-0.711,1.619-1.378c0.603-1.089-0.594-1.769-1.435-2.04
		c0.531-0.27,0.993-0.63,1.299-1.172c0.494-0.876-0.279-1.467-1.014-1.776c0.282-0.174,0.544-0.375,0.747-0.644
		c0.71-0.939-0.614-1.611-1.417-1.856c0.407-0.2,0.767-0.462,1.039-0.832c0.769-1.05-0.927-1.767-1.625-1.926
		c-3.627-0.824-7.565-0.183-11.28,0.003c-0.317-0.279-0.71-0.493-1.199-0.646c-1.171-1.63-4.12-1.131-5.585-0.998
		C14.5,2.167,14.75,4,14.75,4c0.167,7-3.833,14.333-5.333,16.583s-5.583,8.75-1.083,14.167c4.5,5.417,3.333,25.705,3.333,25.705
		h1.583c-0.333-27.712,0.583-23.788,4.917-20.871c4.333,2.917,7.667,13.333,10,18.667c2.333,5.333,18.167,2.083,23.667,1.833
		C56.467,59.873,57.368,58.246,56.692,57.489z M23.323,6.321c-0.298,0.016-0.595,0.028-0.89,0.038
		c-0.002-0.451-0.005-0.835-0.009-1.183c0.191-0.006,0.383-0.015,0.574-0.022C23.138,5.475,23.241,5.86,23.323,6.321z M30.009,7.542
		c1.434-0.015,2.921-0.017,4.336,0.255c-0.415,0.121-0.854,0.2-1.269,0.277c-0.941,0.176-1.905,0.239-2.838,0.453
		c-0.029,0.007-0.045,0.024-0.072,0.032c-1.847,0.171-3.7,0.511-5.518,0.778c-0.027-0.356-0.065-0.797-0.121-1.424
		c-0.004-0.047-0.009-0.091-0.014-0.137C26.343,7.681,28.173,7.56,30.009,7.542z M30.078,15.272
		c-1.742,0.185-3.486,0.482-5.201,0.73c-0.03-0.706-0.054-1.308-0.073-1.833c1.812-0.24,3.621-0.508,5.444-0.66
		c1.456-0.121,2.967-0.232,4.427-0.014c-0.412,0.173-0.85,0.298-1.266,0.42c-0.942,0.277-1.915,0.421-2.846,0.741
		C30.259,14.762,30.117,15.004,30.078,15.272z M24.111,19.571c-0.295,0.062-0.588,0.116-0.881,0.171
		c-0.084-0.616-0.16-1.225-0.227-1.828c0.322-0.032,0.643-0.072,0.965-0.109C24.003,18.403,24.047,18.993,24.111,19.571z
		 M31.308,20.137c1.518-0.234,3.093-0.461,4.642-0.329c-0.419,0.216-0.869,0.382-1.295,0.544c-0.966,0.366-1.976,0.591-2.927,1.003
		c-0.072,0.031-0.116,0.082-0.171,0.126c-1.966,0.435-3.916,1.056-5.842,1.642c-0.134-0.606-0.252-1.214-0.356-1.828
		C27.339,20.892,29.311,20.446,31.308,20.137z M35.001,23.395c-0.85,0.378-1.737,0.663-2.585,1.045
		c-2,0.402-3.987,1.006-5.948,1.584c-0.105-0.364-0.214-0.73-0.31-1.092c1.791-0.504,3.579-1.024,5.394-1.443
		c1.544-0.356,3.148-0.711,4.747-0.723C35.882,23.008,35.429,23.205,35.001,23.395z M26.694,30.072
		c-0.315,0.09-0.629,0.18-0.943,0.265c-0.001-0.001-0.001-0.003-0.002-0.004c-0.246-0.661-0.471-1.334-0.682-2.013
		c0.324-0.084,0.649-0.164,0.973-0.25C26.248,28.726,26.466,29.394,26.694,30.072z M27.727,33.085
		c0.07,0.201,0.142,0.409,0.213,0.614c-0.31,0.088-0.619,0.172-0.927,0.258c-0.206-0.632-0.419-1.263-0.638-1.891
		c0.306-0.08,0.612-0.158,0.917-0.24C27.436,32.244,27.577,32.655,27.727,33.085z M28.987,36.759
		c-0.343,0.095-0.686,0.187-1.028,0.281c-0.143-0.488-0.287-0.976-0.438-1.466c0.326-0.085,0.651-0.17,0.976-0.256
		C28.659,35.787,28.822,36.268,28.987,36.759z M29.935,39.653c-0.387,0.107-0.775,0.213-1.161,0.319
		c-0.126-0.481-0.259-0.966-0.394-1.452c0.366-0.094,0.732-0.187,1.098-0.281C29.63,38.7,29.782,39.172,29.935,39.653z
		 M30.829,42.564c-0.44,0.121-0.881,0.243-1.319,0.363c-0.114-0.483-0.229-0.969-0.352-1.462c0.414-0.106,0.829-0.211,1.244-0.317
		C30.544,41.61,30.686,42.082,30.829,42.564z M35.348,43.086c1.661-0.361,3.385-0.723,5.083-0.798
		c-0.457,0.219-0.949,0.402-1.415,0.579c-0.997,0.379-2.035,0.669-3.023,1.067c-1.158,0.282-2.311,0.61-3.46,0.963
		c-0.093-0.344-0.193-0.704-0.297-1.071C33.269,43.567,34.305,43.313,35.348,43.086z M40.238,47.89
		c-0.996,0.533-2.054,0.967-3.028,1.533c-0.496,0.288-0.521,0.724-0.302,1.027c-0.822,0.494-1.638,1.002-2.446,1.523
		c-0.239-0.638-0.461-1.407-0.698-2.311c0.95-0.373,1.902-0.741,2.865-1.084c1.601-0.571,3.265-1.151,4.938-1.444
		C41.142,47.41,40.677,47.655,40.238,47.89z M35.591,55.156c-1.009,0.831-2.033,1.643-3.097,2.401
		c-0.543-0.399-0.878-0.998-0.911-1.891c-0.001-0.018-0.003-0.04-0.003-0.059c0.922-0.56,1.84-1.127,2.755-1.698
		C34.68,54.428,35.091,54.834,35.591,55.156z M30.423,47.178c0.518-0.154,1.038-0.305,1.556-0.458
		c0.144,0.559,0.281,1.099,0.408,1.604c0.015,0.06,0.028,0.11,0.043,0.169c-0.548,0.229-1.095,0.46-1.64,0.688
		C30.679,48.536,30.557,47.868,30.423,47.178z M23.722,11.138c0.005,0.333,0.012,0.755,0.029,1.364
		c-0.391,0.055-0.778,0.1-1.166,0.144c-0.024-0.491-0.046-0.968-0.062-1.432c0.078,0.022,0.159,0.041,0.254,0.032
		C23.092,11.215,23.406,11.174,23.722,11.138z M23.882,16.136c-0.35,0.045-0.699,0.088-1.046,0.124
		c-0.056-0.625-0.105-1.236-0.146-1.836c0.373-0.04,0.746-0.083,1.118-0.129C23.828,14.822,23.852,15.432,23.882,16.136z
		 M25.506,26.301c-0.316,0.09-0.632,0.177-0.946,0.262c-0.099-0.372-0.183-0.747-0.273-1.122c0.302-0.08,0.605-0.155,0.907-0.238
		C25.291,25.567,25.401,25.935,25.506,26.301z M32.833,50.03c0.261,0.964,0.513,1.793,0.79,2.486
		c-0.725,0.47-1.448,0.938-2.168,1.392c-0.091-0.926-0.228-1.992-0.409-3.169C31.641,50.502,32.237,50.267,32.833,50.03z
		 M39.354,45.32c-1.04,0.44-2.133,0.776-3.155,1.251c-0.33,0.153-0.462,0.384-0.478,0.614c-0.789,0.292-1.574,0.603-2.356,0.924
		c-0.003-0.01-0.005-0.019-0.008-0.03c-0.13-0.516-0.27-1.068-0.418-1.641c0.916-0.265,1.833-0.524,2.758-0.762
		c1.646-0.423,3.356-0.849,5.049-0.988C40.298,44.924,39.813,45.125,39.354,45.32z M31.576,45.192
		c-0.489,0.154-0.975,0.308-1.461,0.462c-0.084-0.402-0.171-0.808-0.263-1.221c0.471-0.121,0.942-0.239,1.413-0.36
		C31.374,44.457,31.479,44.832,31.576,45.192z M24.757,23.411c-0.289,0.085-0.577,0.165-0.865,0.245
		c-0.136-0.671-0.26-1.339-0.371-2.007c0.286-0.052,0.573-0.106,0.858-0.162C24.489,22.134,24.615,22.774,24.757,23.411z
		 M33.44,10.705c-0.896,0.26-1.822,0.395-2.707,0.696c-0.119,0.04-0.212,0.103-0.285,0.178c-1.904,0.145-3.818,0.48-5.701,0.773
		c-0.015-0.575-0.021-0.974-0.026-1.292c0-0.013,0-0.023-0.001-0.036c1.903-0.243,3.8-0.535,5.713-0.694
		c1.385-0.115,2.822-0.22,4.211-0.018C34.253,10.473,33.835,10.59,33.44,10.705z M23.53,8.003c0.059,0.657,0.098,1.11,0.125,1.468
		c-0.333,0.043-0.667,0.088-0.997,0.12c-0.07,0.007-0.123,0.037-0.182,0.06c-0.014-0.637-0.024-1.236-0.03-1.791
		c0.356-0.011,0.712-0.024,1.067-0.04C23.518,7.883,23.525,7.939,23.53,8.003z M47.266,56.328c0.318,0.006,0.624,0.013,0.918,0.022
		c-0.031,0.278-0.063,0.525-0.095,0.7c-0.005,0.03,0.004,0.054,0.002,0.083c-0.406,0.016-0.818,0.032-1.243,0.048
		C46.989,56.898,47.128,56.614,47.266,56.328z M54.254,56.973c-1.198-0.025-2.786,0.027-4.654,0.1
		c0.036-0.21,0.071-0.43,0.106-0.661C51.961,56.536,53.372,56.754,54.254,56.973z M48.423,54.085
		c-0.04,0.286-0.086,0.766-0.136,1.269c-0.177-0.006-0.352-0.011-0.534-0.016C47.966,54.913,48.184,54.492,48.423,54.085z
		 M45.56,56.312c0.044,0,0.083,0.001,0.126,0.001c-0.157,0.313-0.323,0.621-0.494,0.926c-0.12,0.004-0.237,0.008-0.358,0.012
		c-0.502,0.015-1.025,0.057-1.554,0.108c0.251-0.344,0.499-0.692,0.744-1.041L45.56,56.312z M42.211,56.306
		c-0.322,0.44-0.651,0.875-0.996,1.297c-0.425,0.058-0.849,0.117-1.271,0.178c0.466-0.488,0.92-0.987,1.362-1.498
		C41.602,56.291,41.891,56.301,42.211,56.306z M39.435,56.184c-0.613,0.67-1.253,1.313-1.936,1.912
		c-0.749,0.081-1.464,0.133-2.12,0.134l-0.996-0.222c0.931-0.711,1.839-1.449,2.738-2.201C37.77,55.984,38.526,56.107,39.435,56.184
		z M36.389,54.491c-0.499-0.27-0.895-0.622-1.222-1.095c1.091-0.677,2.187-1.35,3.303-1.989c1.475-0.845,3.01-1.709,4.607-2.292
		c-0.295,0.276-0.616,0.535-0.933,0.786c-0.799,0.562-1.575,1.154-2.338,1.764c-0.205,0.157-0.418,0.305-0.615,0.472
		c-0.028,0.024-0.038,0.05-0.062,0.074C38.21,52.963,37.3,53.728,36.389,54.491z M31.794,42.302
		c-0.141-0.476-0.281-0.943-0.422-1.401c1.131-0.287,2.265-0.567,3.407-0.815c1.661-0.361,3.385-0.723,5.083-0.798
		c-0.457,0.219-0.949,0.402-1.415,0.579c-1.056,0.401-2.161,0.695-3.2,1.132c-0.318,0.134-0.461,0.343-0.497,0.559
		C33.762,41.783,32.776,42.037,31.794,42.302z M30.9,39.389c-0.151-0.475-0.301-0.94-0.45-1.396
		c1.251-0.319,2.503-0.632,3.767-0.906c1.661-0.361,3.385-0.723,5.083-0.798c-0.457,0.219-0.949,0.402-1.415,0.579
		c-1.056,0.401-2.161,0.695-3.2,1.132c-0.317,0.133-0.46,0.342-0.497,0.558C33.089,38.807,31.992,39.091,30.9,39.389z M38.54,33.307
		c-0.443,0.229-0.921,0.418-1.374,0.601c-1.026,0.414-2.103,0.709-3.111,1.162c-0.263,0.118-0.41,0.299-0.466,0.497
		c-1.216,0.277-2.429,0.596-3.636,0.927c-0.163-0.486-0.325-0.964-0.485-1.429c1.362-0.358,2.726-0.71,4.104-1.011
		C35.193,33.699,36.876,33.346,38.54,33.307z M37.921,29.638c-0.419,0.237-0.874,0.43-1.304,0.616
		c-0.972,0.42-2.988,1.705-3.948,2.173c-1.261,0.298-2.518,0.643-3.766,0.999c-0.077-0.223-0.156-0.449-0.232-0.668
		c-0.141-0.407-0.275-0.797-0.412-1.192c1.629-0.443,3.257-0.89,4.908-1.253C34.715,29.971,36.322,29.634,37.921,29.638z
		 M27.656,29.796c-0.227-0.673-0.443-1.336-0.649-1.987c1.698-0.461,3.395-0.93,5.115-1.309c1.548-0.341,3.156-0.678,4.754-0.674
		c-0.419,0.237-0.874,0.43-1.304,0.616c-0.975,0.422-3.001,1.713-3.958,2.178c-0.044,0.021-0.066,0.055-0.103,0.081
		C30.218,29.035,28.931,29.419,27.656,29.796z M35.287,16.957c-0.413,0.164-0.852,0.283-1.267,0.399
		c-0.936,0.262-1.903,0.401-2.829,0.702c-2.048,0.314-4.09,0.843-6.1,1.298c-0.059-0.545-0.098-1.102-0.129-1.664
		c1.964-0.247,3.924-0.538,5.9-0.701C32.317,16.87,33.828,16.759,35.287,16.957z M29.829,4.854c1.39-0.015,2.83-0.017,4.201,0.255
		c-0.403,0.121-0.827,0.2-1.229,0.277c-0.912,0.176-1.845,0.239-2.75,0.453c-0.077,0.018-0.132,0.056-0.192,0.089
		c-1.847,0.034-3.711,0.209-5.538,0.333c-0.073-0.42-0.162-0.804-0.279-1.148C25.969,5.017,27.895,4.874,29.829,4.854z"/>
</g>
</svg>
