<?xml version="1.0" encoding="iso-8859-1"?>
<!-- Generator: Adobe Illustrator 17.0.0, SVG Export Plug-In . SVG Version: 6.00 Build 0)  -->
<!DOCTYPE svg PUBLIC "-//W3C//DTD SVG 1.1//EN" "http://www.w3.org/Graphics/SVG/1.1/DTD/svg11.dtd">
<svg version="1.1" id="Capa_1" xmlns="http://www.w3.org/2000/svg" xmlns:xlink="http://www.w3.org/1999/xlink" x="0px" y="0px"
	 width="64px" height="64px" viewBox="0 0 64 64" style="enable-background:new 0 0 64 64;" xml:space="preserve">
<g>
	<path d="M22.049,7.27c0.04,0.485,0.084,0.975,0.129,1.465c-1.18,0.03-1.961,0.21-1.961,0.21v1.563l-4.429,0.217v1.52l4.646,0.304
		c0,0-0.351,0.511,2.229,0.817c0.074,0.624,0.151,1.249,0.23,1.876c-0.798,0.086-1.31,0.22-1.31,0.22l0.056,1.446l-4.089,0.36
		l0.055,1.406l4.309,0.114c0,0-0.254,0.408,1.547,0.623c0.06,0.415,0.123,0.828,0.185,1.242c-0.977,0.122-1.604,0.32-1.604,0.32
		l0.119,1.442l-4.07,0.538l0.116,1.402l4.31-0.073c0,0-0.254,0.451,1.79,0.569c0.059,0.36,0.119,0.718,0.179,1.076
		c-1.193,0.164-1.985,0.45-1.985,0.45l0.184,1.435l-4.041,0.722l0.179,1.395l4.302-0.269c0,0-0.261,0.505,2.098,0.489
		c0.071,0.393,0.142,0.785,0.214,1.173c-0.981,0.151-1.623,0.383-1.623,0.383l0.167,1.304l-3.671,0.655l0.163,1.268l3.908-0.244
		c0,0-0.232,0.442,1.779,0.445c0.08,0.413,0.161,0.825,0.241,1.228c-0.896,0.138-1.482,0.349-1.482,0.349L25.07,37.9l-3.346,0.598
		l0.148,1.156l3.562-0.223c0,0-0.217,0.41,1.669,0.406c0.105,0.507,0.209,1.005,0.311,1.49c-0.882,0.115-1.47,0.329-1.47,0.329
		l0.131,1.02l-2.873,0.513l0.127,0.992l3.058-0.191c0,0-0.193,0.382,1.671,0.344c0.069,0.318,0.137,0.627,0.204,0.93
		c-1.059,0.27-1.698,1.488-1.698,1.488c-1.487,0.045-2.703,1.081-2.703,1.081c-0.18,1.487,0.856,1.892,0.856,1.892
		c1.081-0.991,2.23-0.721,2.23-0.721c0.608,0.811,1.465,1.089,2.338,0.774c0.133,0.572,0.247,1.054,0.341,1.447
		c-0.285,0.195-0.483,0.506-0.483,0.877v2.816c-1.218,0.979-3.24,2.752-4.156,4.375h-2.027c-0.299,0-0.541,0.242-0.541,0.541v1.16
		c0,0.299,0.242,0.541,0.541,0.541h5.036c0.299,0,0.541-0.242,0.541-0.541v-0.007c4.692-0.265,12.95,0.452,17.355,0.362
		c4.415-0.09,5.451-0.991,4.685-1.746c-0.766-0.755-1.306-0.011-4.46-0.524c-0.345-0.056-0.765-0.101-1.228-0.14v-1.589
		c0.362,0.03,0.629,0.034,0.736,0.034c0.024,0,0.041,0,0.049,0c0.275-0.004,0.496-0.231,0.492-0.507
		c-0.004-0.273-0.228-0.493-0.5-0.493c-0.003,0-0.005,0-0.007,0c-0.057-0.007-3.109,0.025-4.508-1.479
		c-1.439-1.549-6.798-5.473-7.972-6.326c0.058-3.072-1.398-20.968-2.097-27.044C30.34,15.065,29.616,3.63,29.609,3.515
		c-0.018-0.275-0.232-0.484-0.53-0.468c-0.275,0.018-0.485,0.255-0.468,0.53c0.001,0.009,0.006,0.1,0.016,0.248
		c-0.602-0.155-1.638-0.432-3.324-0.91c-3.018-0.856-5.721-0.225-5.721-0.225v1.622l-4.595,0.225v1.577l4.82,0.315
		C19.807,6.43,19.445,6.952,22.049,7.27z M25.482,25.833c-0.053-0.318-0.107-0.635-0.16-0.954c0.391,0.001,0.841-0.008,1.347-0.027
		c0.037,0.333,0.074,0.664,0.111,0.996C26.325,25.817,25.891,25.812,25.482,25.833z M26.433,31.218
		c-0.067-0.365-0.134-0.733-0.201-1.102c0.317-0.017,0.666-0.041,1.051-0.073c0.049,0.389,0.098,0.778,0.147,1.162
		C27.079,31.191,26.749,31.199,26.433,31.218z M27.398,36.259c-0.075-0.379-0.151-0.769-0.227-1.156
		c0.237-0.012,0.495-0.029,0.774-0.051c0.056,0.404,0.113,0.807,0.169,1.202C27.867,36.247,27.627,36.248,27.398,36.259z
		 M28.422,41.261c-0.1-0.475-0.202-0.963-0.305-1.461c0.16-0.009,0.333-0.021,0.513-0.035c0.077,0.511,0.154,1.01,0.229,1.499
		C28.708,41.258,28.566,41.26,28.422,41.261z M29.302,45.334c-0.075-0.339-0.153-0.693-0.231-1.052
		c0.084-0.006,0.172-0.013,0.261-0.021c0.065,0.402,0.129,0.789,0.191,1.167C29.448,45.391,29.375,45.362,29.302,45.334z
		 M32.872,58.723c-0.066,0.102-0.12,0.195-0.174,0.289c-0.289,0.022-0.551,0.044-0.75,0.066c-2.275,0.253-3.412,0.215-3.412,0.215
		H27.95c0.463-0.536,1.485-1.678,2.607-2.664h3.019C33.462,57.294,33.253,58.133,32.872,58.723z M40.06,55.225
		c0.138,0.131,0.261,0.252,0.36,0.359c0.698,0.751,1.682,1.188,2.611,1.443v1.805c-0.795-0.029-1.651-0.043-2.53-0.047
		c-0.221-0.32-0.531-0.679-0.984-1.075l-0.912-0.676C38.605,57.034,39.528,56.08,40.06,55.225z M34.753,52.433l2.169,0.199
		c0.368,0.285,0.73,0.57,1.079,0.848c-0.288,0.262-0.791,0.846-1.414,2.1c0,0-0.909-0.307-1.834-0.259V52.433z M32.171,48.774
		l-0.028,0.286l0.233,0.168c0.018,0.013,0.552,0.399,1.33,0.974v0.824c-0.012,0-0.022-0.007-0.034-0.007h-2.168
		c-0.116-0.635-0.268-1.488-0.447-2.518c0.42-0.272,0.812-0.391,1.124-0.427C32.186,48.396,32.184,48.641,32.171,48.774z
		 M32.123,46.505l-1.368-0.025c-0.018-0.022-0.035-0.036-0.052-0.057c-0.118-0.703-0.243-1.455-0.373-2.258
		c0.299-0.033,0.618-0.071,0.964-0.115c0,0-0.344-0.796,0.623-1.013C32.006,44.38,32.076,45.558,32.123,46.505z M31.822,41.65
		c-0.335-0.041-0.948-0.122-1.934-0.268c-0.086-0.555-0.173-1.122-0.262-1.706c0.461-0.047,0.955-0.102,1.523-0.174
		c0,0-0.336-0.765,0.436-1.097C31.67,39.534,31.75,40.624,31.822,41.65z M31.198,33.531c0.086,1.049,0.171,2.1,0.252,3.135
		c-0.476-0.062-1.214-0.163-2.315-0.328c-0.064-0.451-0.129-0.913-0.194-1.376c0.515-0.052,1.069-0.113,1.707-0.195
		C30.648,34.767,30.252,33.876,31.198,33.531z M31.042,31.664c-0.518-0.067-1.347-0.18-2.594-0.366
		c-0.058-0.446-0.115-0.896-0.172-1.349c0.532-0.055,1.1-0.118,1.747-0.201c0,0-0.451-1.04,0.729-1.39
		C30.849,29.422,30.946,30.533,31.042,31.664z M30.569,26.346c-0.531-0.067-1.414-0.187-2.77-0.388
		c-0.044-0.384-0.087-0.768-0.13-1.155c0.529-0.031,1.093-0.068,1.736-0.121c0,0-0.416-1.099,0.865-1.37
		C30.364,24.219,30.465,25.24,30.569,26.346z M29.73,18.153c0.105,1.115,0.212,2.179,0.32,3.146
		c-0.547-0.095-1.44-0.258-2.798-0.524c-0.04-0.414-0.079-0.828-0.117-1.243c0.504-0.008,1.038-0.021,1.643-0.044
		C28.779,19.488,28.407,18.357,29.73,18.153z M29.236,12.343c0.097,1.242,0.202,2.527,0.312,3.788
		c-0.545-0.12-1.425-0.321-2.749-0.64c-0.048-0.638-0.092-1.274-0.134-1.909c0.366,0.005,0.738,0.009,1.149,0.009
		C27.814,13.592,28.03,12.623,29.236,12.343z M28.774,6.038c0.075,1.099,0.173,2.495,0.288,4.035
		c-0.473-0.121-1.31-0.343-2.629-0.712c-0.027-0.624-0.049-1.244-0.068-1.859c0.354,0.005,0.708,0.009,1.101,0.009
		C27.466,7.511,27.057,6.116,28.774,6.038z M26.234,20.623c-0.568-0.059-1.099-0.066-1.59-0.046
		c-0.054-0.36-0.108-0.719-0.161-1.079c0.461,0.025,1.011,0.039,1.649,0.042C26.166,19.901,26.2,20.262,26.234,20.623z
		 M25.781,15.293c-0.679-0.1-1.322-0.13-1.889-0.118c-0.073-0.572-0.143-1.143-0.211-1.713c0.559,0.042,1.215,0.076,1.98,0.098
		C25.699,14.137,25.738,14.714,25.781,15.293z M25.364,7.482c0.016,0.531,0.035,1.065,0.057,1.602
		c-0.791-0.199-1.553-0.299-2.239-0.336c-0.043-0.462-0.085-0.924-0.123-1.381C23.695,7.419,24.459,7.458,25.364,7.482z"/>
</g>
</svg>
