<?xml version="1.0" encoding="iso-8859-1"?>
<!-- Generator: Adobe Illustrator 17.0.0, SVG Export Plug-In . SVG Version: 6.00 Build 0)  -->
<!DOCTYPE svg PUBLIC "-//W3C//DTD SVG 1.1//EN" "http://www.w3.org/Graphics/SVG/1.1/DTD/svg11.dtd">
<svg version="1.1" id="Capa_1" xmlns="http://www.w3.org/2000/svg" xmlns:xlink="http://www.w3.org/1999/xlink" x="0px" y="0px"
	 width="64px" height="64px" viewBox="0 0 64 64" style="enable-background:new 0 0 64 64;" xml:space="preserve">
<g>
	<path d="M7.273,18.926c0.329,0.395,0.62,0.843,0.881,1.333c0.081,0.152,0.165,0.298,0.24,0.458
		c0.072,0.154,0.137,0.318,0.204,0.479c4.97-0.933,13.303-2.683,16.129-4.377c0.199,0.654,0.519,1.621,0.974,2.771
		c-2.736,0.342-11.412,1.573-16.33,3.926c0.041,0.158,0.079,0.32,0.117,0.481c0.04,0.168,0.081,0.335,0.118,0.505
		c0.211,0.956,0.38,1.944,0.527,2.933c0.025,0.169,0.051,0.339,0.075,0.508c0.024,0.17,0.047,0.338,0.07,0.507
		c4.758-1.809,14.395-5.323,17.111-5.183c0.316,0.596,0.663,1.202,1.036,1.806c-4.278,1.235-13.611,5.927-17.535,7.943
		c0.028,0.178,0.056,0.349,0.085,0.519c0.03,0.175,0.059,0.35,0.09,0.516c0.224,1.185,0.494,2.137,0.858,2.577
		c0.056,0.068,0.101,0.132,0.155,0.2c0.108,0.135,0.213,0.269,0.31,0.4c0.102,0.137,0.195,0.27,0.286,0.403
		c4.729-2.203,14.701-7.684,17.962-9.487c0.541,0.638,1.123,1.248,1.746,1.816c0.124,0.113,0.251,0.223,0.379,0.332
		c0.127,0.11,0.253,0.221,0.384,0.327c-1.945,1.769-7.719,7.137-10.429,10.939c-0.12,0.169-0.221,0.328-0.329,0.49
		c-0.11,0.166-0.22,0.332-0.316,0.49c-0.138,0.228-0.268,0.452-0.372,0.661c-0.023,0.046-0.041,0.106-0.023,0.136
		c0.021,0.034,0.097,0.071,0.211,0.071H24.2c0.386,0,0.946-0.289,1.176-0.607c0.034-0.047,0.075-0.103,0.111-0.152
		c0.111-0.152,0.229-0.314,0.357-0.489c0.115-0.156,0.233-0.317,0.361-0.489c1.983-2.67,5.461-7.116,8.569-9.904
		c0.148,0.091,0.297,0.18,0.448,0.265c0.156,0.088,0.315,0.17,0.475,0.251c0.409,0.21,0.827,0.405,1.263,0.572
		c0.195,0.075,0.405,0.156,0.613,0.236c0.16,0.062,0.321,0.123,0.488,0.188c0.16,0.062,0.325,0.125,0.49,0.189
		c-0.991,1.237-3.763,4.797-5.862,8.42c-0.095,0.164-0.19,0.327-0.282,0.491c-0.092,0.164-0.18,0.327-0.268,0.491
		c-0.213,0.394-0.419,0.786-0.608,1.174c-0.043,0.089-0.036,0.136-0.033,0.141c0.008,0.011,0.068,0.057,0.22,0.057h1.27
		c0.403,0,0.947-0.3,1.142-0.629c0.126-0.214,0.258-0.437,0.394-0.668c0.094-0.16,0.194-0.327,0.293-0.493
		c0.096-0.162,0.194-0.327,0.294-0.494c1.715-2.874,3.909-6.436,5.063-7.859c0.161,0.063,0.324,0.127,0.488,0.192
		c0.163,0.064,0.325,0.128,0.489,0.193c0.411,0.163,0.826,0.329,1.243,0.497c0.158,0.064,0.316,0.128,0.474,0.192
		c0.158,0.064,0.316,0.128,0.474,0.193c-0.648,0.962-2.308,3.664-2.654,6.52c-0.02,0.167-0.035,0.335-0.045,0.503
		c-0.011,0.167-0.017,0.334-0.018,0.502c0,0.16-0.001,0.319,0.009,0.479c0.015,0.238,0.388,0.525,0.829,0.525h1.209
		c0.429,0,0.74-0.28,0.763-0.542c0.017-0.195,0.039-0.413,0.063-0.636c0.018-0.161,0.04-0.332,0.062-0.505
		c0.021-0.167,0.041-0.33,0.067-0.506c0.26-1.769,0.771-3.938,1.758-5.484c0.163,0.07,0.318,0.139,0.478,0.208
		c0.156,0.068,0.314,0.137,0.467,0.204c0.956,0.424,1.828,0.834,2.568,1.217c0.176,0.091,0.341,0.179,0.5,0.266
		c0.175,0.096,0.347,0.191,0.5,0.282v3.004v0.5v0.5v0.991c0,0.276,0.225,0.5,0.5,0.5h2.188c0.328,0,0.689-0.274,0.743-0.563
		c0.05-0.274,0.098-0.61,0.124-0.979c0.012-0.161,0.02-0.328,0.021-0.5c0.001-0.163-0.006-0.331-0.017-0.5
		c-0.053-0.81-0.262-1.661-0.796-2.336c-0.057-0.072-0.132-0.128-0.195-0.195c-0.014-0.109-0.047-0.216-0.111-0.314
		c-0.212-0.321-0.592-0.667-1.175-1.059c-0.349-0.235-0.77-0.486-1.28-0.759c-1.707-0.916-4.385-2.082-8.403-3.675
		c-0.554-0.219-1.132-0.447-1.738-0.683c-0.72-0.281-1.464-0.569-2.261-0.875c-0.708-0.272-1.377-0.618-2.013-1.016
		c-0.358-0.224-0.704-0.465-1.039-0.721c-6-4.59-8.49-14.047-8.518-14.157c-0.103-0.401-0.51-0.641-0.912-0.541
		c-0.113,0.029-0.209,0.087-0.293,0.157c-0.099-0.003-0.206-0.004-0.331-0.004c-2.727,0-12.653,0.743-17.889,2.992
		c0.141,0.115,0.282,0.231,0.412,0.362C7.038,18.652,7.157,18.787,7.273,18.926z"/>
	<path d="M6.607,48.777c0.129,0.026,0.395,0.05,1.452,0.05c0.941,0,2.252-0.019,3.599-0.038c1.419-0.021,2.879-0.042,3.988-0.042
		c0.843,0,1.397,0.013,1.646,0.038c0.677,0.068,0.938-0.252,1.143-0.479c0.304-0.336,0.868-0.961,4.224-0.961
		c0.846,0,1.829,0.041,2.922,0.121c1.858,0.136,3.439,0.211,4.755,0.233c-2.021-0.375-4.867-0.649-7.899-0.851
		c-1.018-0.068-2.056-0.128-3.092-0.18C13.69,46.382,8.15,46.314,6.652,46.3c-0.24-0.002-0.388-0.003-0.404-0.003l-0.098,0l-0.092,0
		l-0.176-0.071c-0.094-0.037-0.171-0.09-0.26-0.132C5.79,48.612,6.363,48.728,6.607,48.777z"/>
	<path d="M5.001,28.401c-0.099,4.443-3.083,13.92,0.577,16.513c0.157,0.112,0.331,0.206,0.514,0.292
		c0.057,0.027,0.101,0.067,0.161,0.091c0,0,0.127,0.001,0.342,0.003c1.264,0.011,5.976,0.064,11.136,0.29
		c5.756,0.252,12.053,0.719,14.7,1.585c0,0,0.001,0,0.001,0c0.39,0.127,0.887,0.238,1.436,0.34c2.196,0.407,5.531,0.611,9.168,0.611
		c8.102,0,17.603-0.996,18.806-2.933c1.534-2.472-0.904-2.854-6.401-2.854c-0.319,0-0.649,0.001-0.988,0.004
		c-0.027,0.442-0.082,0.845-0.141,1.169c-0.142,0.762-0.916,1.382-1.727,1.382h-2.188c-0.827,0-1.5-0.673-1.5-1.5v-0.965
		c-1.731,0.054-3.117,0.135-4.385,0.219c-0.035,0.298-0.063,0.571-0.082,0.789c-0.069,0.816-0.842,1.457-1.759,1.457h-1.209
		c-0.957,0-1.777-0.656-1.827-1.463c-0.01-0.167-0.006-0.333-0.007-0.5c-0.81,0.028-1.682,0.045-2.671,0.045
		c-0.405,0-0.838-0.004-1.285-0.01c-0.224,0.376-0.45,0.759-0.683,1.153c-0.376,0.64-1.237,1.122-2.003,1.122h-1.27
		c-0.469,0-0.857-0.192-1.067-0.526c-0.199-0.318-0.206-0.723-0.018-1.108c0.125-0.256,0.26-0.516,0.395-0.775
		c-1.434-0.049-2.893-0.098-4.33-0.145c-0.197,0.268-0.375,0.51-0.511,0.699c-0.421,0.582-1.274,1.021-1.986,1.021h-2.312
		c-0.453,0-0.851-0.204-1.062-0.545c-0.201-0.327-0.209-0.73-0.021-1.108c0.039-0.079,0.097-0.168,0.141-0.249
		c-4.425-0.137-7.707-0.232-7.707-0.232s0.338-1.646-1.489-4.223c-0.093-0.131-0.19-0.263-0.294-0.399
		c-0.098-0.127-0.194-0.254-0.302-0.385c-0.004-0.004-0.007-0.01-0.01-0.015c-0.447-0.549-0.756-1.513-1.002-2.722
		c-0.034-0.166-0.066-0.338-0.098-0.513c-0.031-0.169-0.061-0.341-0.089-0.517c-0.229-1.4-0.413-3.023-0.634-4.683
		c-0.023-0.17-0.045-0.339-0.068-0.509c-0.023-0.17-0.048-0.339-0.073-0.509c-0.137-0.946-0.292-1.891-0.482-2.799
		c-0.036-0.174-0.076-0.345-0.115-0.516c-0.038-0.168-0.078-0.333-0.119-0.497c-0.234-0.939-0.513-1.824-0.86-2.605
		c-0.072-0.163-0.149-0.318-0.228-0.472c-0.081-0.159-0.166-0.31-0.254-0.459c-0.242-0.411-0.511-0.781-0.81-1.098
		c-0.125-0.133-0.257-0.254-0.393-0.368c-0.142-0.119-0.29-0.226-0.444-0.323c-0.542-0.341-1.158-0.552-1.874-0.585
		c0,0-1.088,0.521,0,2.086C3.601,20.161,5.106,23.708,5.001,28.401z"/>
</g>
</svg>
