<?xml version="1.0" encoding="iso-8859-1"?>
<!-- Generator: Adobe Illustrator 17.0.0, SVG Export Plug-In . SVG Version: 6.00 Build 0)  -->
<!DOCTYPE svg PUBLIC "-//W3C//DTD SVG 1.1//EN" "http://www.w3.org/Graphics/SVG/1.1/DTD/svg11.dtd">
<svg version="1.1" id="Capa_1" xmlns="http://www.w3.org/2000/svg" xmlns:xlink="http://www.w3.org/1999/xlink" x="0px" y="0px"
	 width="64px" height="64px" viewBox="0 0 64 64" style="enable-background:new 0 0 64 64;" xml:space="preserve">
<g>
	<path d="M24.176,26.765c-0.893,7.873,0.568,10.633,2.029,14.529c1.461,3.896,1.136,4.627-0.568,7.305
		c-1.497,2.352-1.427,3.015-0.179,3.966l-0.001,0l0.423,6.971h0.873l0.156-5.854c1.147,1.074,1.688,2.39,2.218,4.576
		c0.649,2.679,0.081,3.409,3.49,3.409c3.409,0,8.604,0,8.604,0c2.435-1.38-2.029-2.273-3.653-3.653
		c-1.623-1.38-3.328-7.63-3.328-16.234s0-21.022-0.081-28.084c-0.081-7.062-1.136-11.363-1.136-11.363S25.8,2.252,23.933,5.418
		c-1.867,3.166-3.571,4.302-3.571,4.302C24.745,14.265,25.069,18.891,24.176,26.765z"/>
</g>
</svg>
