<?xml version="1.0" encoding="iso-8859-1"?>
<!-- Generator: Adobe Illustrator 17.0.0, SVG Export Plug-In . SVG Version: 6.00 Build 0)  -->
<!DOCTYPE svg PUBLIC "-//W3C//DTD SVG 1.1//EN" "http://www.w3.org/Graphics/SVG/1.1/DTD/svg11.dtd">
<svg version="1.1" id="Capa_1" xmlns="http://www.w3.org/2000/svg" xmlns:xlink="http://www.w3.org/1999/xlink" x="0px" y="0px"
	 width="64px" height="64px" viewBox="0 0 64 64" style="enable-background:new 0 0 64 64;" xml:space="preserve">
<g>
	<path d="M63.025,38.514c-0.313-1.952-3.471-3.329-8.66-3.777c-1.426-0.123-2.542-0.184-3.411-0.184
		c-0.82,0-1.398,0.054-1.817,0.161c-7.706,0.25-15.349-0.456-22.722-2.703l0.574-0.499l-0.372-0.339l-0.371-0.339l-1.413-1.291
		l-0.376-0.344l-0.383-0.35c-2.358,1.64-4.917,2.975-6.921,2.859c-5.101-0.312-11.797-4.738-11.864-4.783L4.907,26.67l-0.286,0.356
		c-0.051,0.063-5.012,6.38-1.695,14.56c1.08,2.666,2.396,3.753,4.541,3.753c0.659,0,1.386-0.105,2.192-0.26l7.304,0.232l0.06,0.001
		c0.596,0,1.355-0.264,1.809-0.626l1.632-1.313c0.548-0.023,1.114-0.036,1.698-0.036c2.369,0,4.868,0.205,7.428,0.609
		c5.022,0.793,9.611,1.195,13.639,1.195c9.107,0,13.871-2.042,17.023-3.393C62.933,40.601,63.141,39.229,63.025,38.514z
		 M17.022,44.812l0-0.005c0,0,0,0,0,0V44.812z M44.394,36.599c-2.256,0.472-5.345,1.116-8.611,1.116
		c-4.786,0-8.434-1.365-11.13-4.172l0.23-0.2c6.518,2.131,13.264,3.044,20.081,3.138C44.779,36.519,44.594,36.557,44.394,36.599z"/>
	<path d="M31.143,23.06l-0.253-0.036l-0.178,0.185c-0.042,0.043-2.213,2.269-4.994,4.433l0.382,0.349l0.372,0.339l1.295,1.183
		l0.371,0.339l0.372,0.339l4.969-4.318l0.032-0.171c0.017-0.087,0.144-0.865-0.376-1.591C32.728,23.544,32.058,23.19,31.143,23.06z"
		/>
</g>
</svg>
