<?xml version="1.0" encoding="iso-8859-1"?>
<!-- Generator: Adobe Illustrator 17.0.0, SVG Export Plug-In . SVG Version: 6.00 Build 0)  -->
<!DOCTYPE svg PUBLIC "-//W3C//DTD SVG 1.1//EN" "http://www.w3.org/Graphics/SVG/1.1/DTD/svg11.dtd">
<svg version="1.1" id="Capa_1" xmlns="http://www.w3.org/2000/svg" xmlns:xlink="http://www.w3.org/1999/xlink" x="0px" y="0px"
	 width="64px" height="64px" viewBox="0 0 64 64" style="enable-background:new 0 0 64 64;" xml:space="preserve">
<g>
	<path d="M61.729,50.872l-0.505,0.279c-0.257,0.142-6.425,3.482-16.982,3.482c-3.953,0-8.039-0.477-12.142-1.419
		c-4.967-1.14-9.332-1.815-13.019-2.205c-3.499-0.37-6.388-0.482-8.585-0.482c-3.746,0-5.79,0.32-5.811,0.323l-0.796,0.127
		l-0.058-0.148l-0.21-0.536c-0.078,0.392-0.154,0.799-0.221,1.213c-0.102,0.268-0.152,0.559-0.128,0.864
		c0,0.002,0.001,0.005,0.001,0.007c-0.258,1.951-0.286,3.726,0.323,3.616c1.24-0.225,13.175,0.896,16.069,0.896
		c1.415,0,2.049-1.236,2.33-2.499c2.747,0.308,5.365,0.809,7.42,1.606c3.574,1.386,8.418,1.995,13.367,1.994
		c7.447,0,15.131-1.377,19.085-3.554c0.968-0.533,1.32-1.749,0.787-2.717C62.438,51.328,62.107,51.044,61.729,50.872z"/>
	<path d="M4.167,48.125c0.134,1.144,0.359,1.737,0.359,1.737s2.077-0.336,5.969-0.336c0.699,0,1.464,0.013,2.278,0.038
		c2.728,0.086,6.093,0.338,10.04,0.9c1.279,0.182,2.618,0.397,4.017,0.649c1.742,0.314,3.571,0.685,5.492,1.125
		c4.421,1.014,8.415,1.393,11.919,1.393c10.421,0,16.499-3.357,16.499-3.357c-0.103-5.063-4.606-6.235-9.094-6.613
		c-0.47-0.04-0.947-0.053-1.429-0.053c-0.953,0-1.923,0.052-2.891,0.052c-2.708,0-5.397-0.404-7.629-3.467
		c-0.369,0.497-0.723,1.005-1.025,1.552c-0.514,0.931-1.861-0.031-1.35-0.955c0.403-0.729,0.891-1.394,1.4-2.043
		c-0.998-1.451-2.001-2.57-2.937-3.481c-0.782,0.644-1.421,1.48-1.983,2.336c-0.581,0.885-2.03,0.085-1.443-0.808
		c0.633-0.964,1.352-1.898,2.209-2.654c-0.875-0.773-1.633-1.403-2.195-2.022c-1.204,0.757-2.246,1.776-3.154,2.876
		c-0.675,0.818-2.016-0.151-1.335-0.976c1.033-1.252,2.231-2.438,3.614-3.31c-0.137-0.423-0.188-0.879-0.107-1.41
		c0.066-0.436,0.082-1.027,0.061-1.728c-1.956,0.055-3.904,0.195-5.848,0.453c-1.055,0.14-1.041-1.515,0-1.653
		c1.911-0.254,3.826-0.395,5.748-0.452c-0.122-1.505-0.334-3.273-0.582-5.116c-2.378-0.019-4.739,0.116-7.082,0.647
		c-1.038,0.235-1.479-1.359-0.44-1.594c2.412-0.547,4.844-0.711,7.294-0.705c-0.556-3.968-1.169-7.925-1.219-9.773
		c-0.041-1.51-1.125-1.938-2.832-1.938c-2.237,0-5.544,0.736-8.973,0.736c-0.541,0-1.086-0.018-1.629-0.061
		c-0.509-0.04-1.001-0.058-1.476-0.058c-5.702,0-8.961,2.641-8.961,2.641s6.303,13.64,1.653,23.767
		C4.001,41.233,3.896,45.819,4.167,48.125z"/>
</g>
</svg>
