<?xml version="1.0" encoding="iso-8859-1"?>
<!-- Generator: Adobe Illustrator 17.0.0, SVG Export Plug-In . SVG Version: 6.00 Build 0)  -->
<!DOCTYPE svg PUBLIC "-//W3C//DTD SVG 1.1//EN" "http://www.w3.org/Graphics/SVG/1.1/DTD/svg11.dtd">
<svg version="1.1" id="Capa_1" xmlns="http://www.w3.org/2000/svg" xmlns:xlink="http://www.w3.org/1999/xlink" x="0px" y="0px"
	 width="64px" height="64px" viewBox="0 0 64 64" style="enable-background:new 0 0 64 64;" xml:space="preserve">
<g>
	<path d="M2.241,21.852c0,0,0.008,0.078,0.02,0.205c2.183,1.822,6.401,2.891,8.509,3.331l0.536-0.455l1.854-1.576
		C10.072,22.198,4.438,20.413,2.241,21.852z"/>
	<path d="M61.378,38.947l-0.13,0.513l-0.497,0.181c-0.496,0.181-12.27,4.428-21.981,4.428c-5.062,0-8.696-1.18-10.801-3.509
		c-6.839-7.565-16.365-13.898-16.555-14.024c-1.481-0.268-6.111-1.228-9.018-3.141c0.511,5.129,2.139,21.452,2.408,23.966h10.46
		c0,0-0.747-4.398,0.747-8.87c1.494-4.471,3.949-2.27,6.724,0.845c2.775,3.115,6.831,8.991,12.06,8.991
		c5.23,0,24.316-3.421,26.193-6.516c0.756-1.247,0.735-2.288,0.446-3.092C61.414,38.795,61.398,38.871,61.378,38.947z"/>
	<path d="M37.676,13.421c-8.004,1.801-21.73,9.417-23.416,10.363c-0.113,0.063-0.172,0.097-0.172,0.097l-2.057,1.749l-0.017,0.106
		c0.787,0.525,9.959,6.703,16.696,14.155c2.132,2.358,5.874,3.179,10.06,3.179c9.646,0,21.639-4.368,21.639-4.368
		c0.107-0.422,0.196-0.821,0.276-1.209c0.861-4.184,0.035-6.414-4.952-6.414c-1.005,0-2.18,0.09-3.542,0.273
		c-0.785,0.105-1.523,0.154-2.217,0.154c-7.041,0-9.465-5.01-8.883-6.629c0.64-1.779,0-4.625-1.494-5.052
		c-1.494-0.427-1.494-2.135-1.387-4.056C38.316,13.847,37.676,13.421,37.676,13.421z"/>
</g>
</svg>
