<?xml version="1.0" encoding="iso-8859-1"?>
<!-- Generator: Adobe Illustrator 17.0.0, SVG Export Plug-In . SVG Version: 6.00 Build 0)  -->
<!DOCTYPE svg PUBLIC "-//W3C//DTD SVG 1.1//EN" "http://www.w3.org/Graphics/SVG/1.1/DTD/svg11.dtd">
<svg version="1.1" id="Capa_1" xmlns="http://www.w3.org/2000/svg" xmlns:xlink="http://www.w3.org/1999/xlink" x="0px" y="0px"
	 width="64px" height="64px" viewBox="0 0 64 64" style="enable-background:new 0 0 64 64;" xml:space="preserve">
<g>
	<path d="M4.501,44.746h12.676c0.471,0,0.852-0.382,0.852-0.852v-3.1c-5.701-0.267-11.168-0.762-14.38-2.383v5.483
		C3.649,44.364,4.03,44.746,4.501,44.746z"/>
	<path d="M3.649,37.283c3.022,1.809,9.096,2.268,14.38,2.512c0.395,0.018,0.787,0.035,1.172,0.052
		c7.563,0.32,10.971,5.432,20.771,5.432c9.8,0,21.836-6.284,21.836-6.284c0-2.377-2.206-4.052-6.522-4.052
		c-0.132,0-0.266,0.002-0.402,0.005c-0.559,0.013-1.095,0.021-1.614,0.021c-3.734,0-6.549-0.427-10.103-2.578
		c-3.647-2.208-6.17-7.269-7.958-7.269c-0.196,0-0.384,0.061-0.563,0.194c-1.527,1.13-2.068,3.939-2.2,4.794l0.035-0.003
		l0.277,2.852l-0.646-0.111c-0.993-0.171-21.489-3.767-28.656-9.68c-1.543,2.439-1.723,7.192-1.723,11.268
		C1.731,35.642,2.453,36.567,3.649,37.283z"/>
	<path d="M4.063,22.413c6.141,5.136,23.946,8.656,27.571,9.33l-0.141-1.457c-6.662-0.841-21.984-8.105-26.45-8.104
		C4.601,22.181,4.273,22.257,4.063,22.413z"/>
</g>
</svg>
