<?xml version="1.0" encoding="iso-8859-1"?>
<!-- Generator: Adobe Illustrator 17.0.0, SVG Export Plug-In . SVG Version: 6.00 Build 0)  -->
<!DOCTYPE svg PUBLIC "-//W3C//DTD SVG 1.1//EN" "http://www.w3.org/Graphics/SVG/1.1/DTD/svg11.dtd">
<svg version="1.1" id="Capa_1" xmlns="http://www.w3.org/2000/svg" xmlns:xlink="http://www.w3.org/1999/xlink" x="0px" y="0px"
	 width="64px" height="64px" viewBox="0 0 64 64" style="enable-background:new 0 0 64 64;" xml:space="preserve">
<g>
	<path d="M3.264,14.586l2.361,39.149h8.771l0.793-31.504C11.778,19.234,7.822,16.58,3.264,14.586z"/>
	<path d="M58.525,40.505c1.043-0.228,1.973-0.473,2.732-0.733l0.097-0.992c-0.4-0.125-0.935-0.189-1.596-0.189
		c-0.702,0-1.461,0.073-2.175,0.174C57.786,39.484,58.089,40.099,58.525,40.505z"/>
	<path d="M3.196,13.466c4.58,1.941,8.568,4.536,12.024,7.478c14.091,11.994,19.36,29.68,19.931,31.731
		c1.666,1.037,3.828,1.562,6.431,1.562c8.04,0,17.908-5.054,18.858-6.127l0.713-7.272c-1.454,0.468-3.275,0.857-5.127,1.171
		c-1.456,0.259-3.474,0.565-5.798,0.784c-1.527,0.163-2.675,0.256-3.063,0.286l-0.005-0.065c-0.89,0.042-1.806,0.066-2.735,0.066
		c-2.132,0-4.16-0.126-6.028-0.375c-5.189-0.692-6.09-2.191-8.268-5.814c-2.031-3.38-5.101-8.487-13.654-16.864
		c-0.132-0.129-0.278-0.367-0.226-0.766c0.039-0.291,0.193-0.646,0.396-0.99c-6.315-4.598-12.11-7.281-13.369-7.281
		c-0.43,0.15-0.688,0.381-0.828,0.704c-0.222,0.512-0.096,1.137-0.009,1.445C2.697,13.242,2.942,13.359,3.196,13.466z"/>
	<path d="M46.54,24.59c-1.762-6.12-4.034-13.126-4.58-14.799c-8.558,0.706-19.232,5.596-23.74,8.121
		c-0.036,0.02-0.079,0.054-0.125,0.097c-0.102,0.095-0.223,0.241-0.342,0.403c-0.108,0.147-0.212,0.306-0.299,0.459
		c-0.114,0.199-0.199,0.386-0.213,0.505c8.594,8.428,11.693,13.584,13.746,16.999c2.117,3.523,2.83,4.71,7.543,5.338
		c1.824,0.243,3.808,0.367,5.896,0.367c1.946,0,3.824-0.108,5.541-0.266c2.138-0.227,4.464-0.538,6.574-0.916
		c0.326-0.062,0.613-0.119,0.851-0.167c-0.364-0.51-0.619-1.135-0.799-1.804c-0.043-0.159-0.07-0.325-0.105-0.489
		c-0.035-0.164-0.077-0.325-0.104-0.492c-0.274-1.706-0.164-3.493-0.079-4.369C51.375,33.225,48.178,30.28,46.54,24.59z"/>
</g>
</svg>
