<?xml version="1.0" encoding="iso-8859-1"?>
<!-- Generator: Adobe Illustrator 17.0.0, SVG Export Plug-In . SVG Version: 6.00 Build 0)  -->
<!DOCTYPE svg PUBLIC "-//W3C//DTD SVG 1.1//EN" "http://www.w3.org/Graphics/SVG/1.1/DTD/svg11.dtd">
<svg version="1.1" id="Capa_1" xmlns="http://www.w3.org/2000/svg" xmlns:xlink="http://www.w3.org/1999/xlink" x="0px" y="0px"
	 width="64px" height="64px" viewBox="0 0 64 64" style="enable-background:new 0 0 64 64;" xml:space="preserve">
<g>
	<path d="M44.594,58.938c8.525,0,15.426-8.67,15.426-13.006c0-4.335-2.165-2.439-2.165-2.439c-0.692,0.594-1.381,1.132-2.068,1.623
		c-0.726-1.65-1.781-3.686-3.185-5.519c0.65-0.812,1.057-1.302,1.057-1.302c-1.427-2.152-3.869-2.735-5.765-2.734
		c-1.447-0.676-3.075-0.978-4.891-0.694c0,0-7.065,0.645-6.502,12.234c-2.367-1.292-4.363-3.092-5.846-5.099
		c-1.343-1.817-3.322-3.751-5.494-5.608c1.795-2.029,5.281-5.942,8.201-9.054c4.127-4.398,3.451-6.698-0.541-12.923
		C28.83,8.194,18.411,4.338,18.411,4.338c-7.645-3.654-7.781,1.827-12.381,8.999c-2.485,3.874-2.541,7.647-2.068,10.299
		C3.939,23.923,3.947,24.258,4,24.663c0.812,6.232,2.706,23.708,3.112,29.263c0.342,4.687,9.066,3.779,11.784,3.381
		c0.444-0.065,0.701-0.48,0.582-0.913c-1.064-3.891-5.435-20.809,0.083-16.98c6.225,4.319,15.02,19.524,15.02,19.524
		S36.07,58.938,44.594,58.938z M48.391,45.123l1.597,3.041c-1.469,0.505-2.905,0.804-4.295,0.918
		C46.523,47.772,47.458,46.416,48.391,45.123z M17.544,8.538c0.341-0.576,3.088,0.421,6.135,2.227
		c3.047,1.806,5.24,3.736,4.899,4.312c-0.341,0.576-3.088-0.421-6.135-2.227S17.203,9.114,17.544,8.538z M21.168,33.202
		c-0.005-0.004-0.011-0.009-0.016-0.013c-0.656-0.494-1.306-0.972-1.94-1.429c3.681-6.926-8.311-14.094-8.311-14.094
		c-1.759-7.375,1.15-6.766,1.15-6.766c3.315,6.36,10.284,8.931,15.358,9.066c5.074,0.135,4.574,1.894,4.574,1.894
		C30.462,23.258,24.086,30.071,21.168,33.202z"/>
</g>
</svg>
