<?xml version="1.0" encoding="iso-8859-1"?>
<!-- Generator: Adobe Illustrator 17.0.0, SVG Export Plug-In . SVG Version: 6.00 Build 0)  -->
<!DOCTYPE svg PUBLIC "-//W3C//DTD SVG 1.1//EN" "http://www.w3.org/Graphics/SVG/1.1/DTD/svg11.dtd">
<svg version="1.1" id="Capa_1" xmlns="http://www.w3.org/2000/svg" xmlns:xlink="http://www.w3.org/1999/xlink" x="0px" y="0px"
	 width="64px" height="64px" viewBox="0 0 64 64" style="enable-background:new 0 0 64 64;" xml:space="preserve">
<g>
	<path d="M34.227,58.602c8.448,1.108,20.498-4.986,21.329-5.618c0.577-0.439,2.223-6.073,3.175-9.475
		c-4.309,1.446-13.386,3.103-19.358,3.103c-2.508,0-4.577-0.25-6.148-0.743l-0.304-0.096l-0.143-0.285
		c-0.089-0.179-9.11-17.943-22.94-20.682c-2.832-0.561-4.905-1.676-6.221-3.313c0.485,3.293,2.236,7.661,4.158,13.841
		c3.878,12.465,5.817,23.402,5.817,23.402S25.779,57.494,34.227,58.602z"/>
	<path d="M3.662,18.211c0.651,2.673,2.816,4.402,6.466,5.124c7.636,1.513,13.759,7.288,17.551,11.866
		c3.539,4.273,5.714,8.229,6.289,9.325c1.392,0.389,3.207,0.586,5.404,0.586c7.764,0,17.168-2.316,19.839-3.344
		c0.296-0.114,0.533-0.216,0.652-0.294l0.007-0.013c0.381-0.694,1.54-2.807,0.673-4.607c-0.727-1.509-2.708-2.555-5.891-3.108
		c-10.776-1.871-11.766-12.313-12.138-16.245c-0.458-4.838-1.049-5.561-1.361-5.561c-0.05,0-0.14,0.014-0.283,0.079
		c-0.324,0.147-0.527,0.279-0.706,0.396c-0.323,0.21-0.657,0.427-1.269,0.427s-1.488-0.205-3.649-0.781
		c-0.661-0.176-1.377-0.266-2.129-0.266c-3.51,0-6.789,1.928-6.822,1.948l-0.697,0.415l-0.36-0.726
		c-0.641-1.295-11.17-8.223-15.966-9.993c-1.863,1.683-6.793,9.098-5.678,14.536C3.611,18.059,3.643,18.131,3.662,18.211z"/>
</g>
</svg>
