<?xml version="1.0" encoding="iso-8859-1"?>
<!-- Generator: Adobe Illustrator 17.0.0, SVG Export Plug-In . SVG Version: 6.00 Build 0)  -->
<!DOCTYPE svg PUBLIC "-//W3C//DTD SVG 1.1//EN" "http://www.w3.org/Graphics/SVG/1.1/DTD/svg11.dtd">
<svg version="1.1" id="Capa_1" xmlns="http://www.w3.org/2000/svg" xmlns:xlink="http://www.w3.org/1999/xlink" x="0px" y="0px"
	 width="64px" height="64px" viewBox="0 0 64 64" style="enable-background:new 0 0 64 64;" xml:space="preserve">
<g>
	<path d="M45.207,43.071c-1.649-1.34-5.564-16.899-6.698-20.3c-1.133-3.4-0.515-3.297-1.34-4.843
		c-0.824-1.546-18.445-5.255-18.445-5.255s4.142-0.642,7.728-0.206c0.505,0.061,1.012,0.119,1.517,0.173v0.065
		c0,1.191,0.969,2.161,2.161,2.161h2.046c1.045,0,1.919-0.746,2.118-1.734c0.811,0.036,1.545,0.056,2.153,0.056
		c2.267,0,3.607-1.34,1.443-2.164c-0.965-0.368-2.145-0.514-3.572-0.566c-0.102-1.097-1.017-1.962-2.141-1.962h-2.046
		c-1.139,0-2.065,0.889-2.146,2.008c-0.102,0.001-0.193,0.003-0.296,0.005c-4.873,0.052-11.747-0.824-16.932-0.824
		s-2.028,2.473-4.089,5.152c-2.061,2.679-4.431,7.934-3.607,11.026s4.74,28.852,4.74,28.852h10.82l0.721-16.899
		c0,0,2.37,3.607,7.522,12.984c5.152,9.377,35.344,1.03,35.344,1.03C62.622,47.296,46.856,44.411,45.207,43.071z M32.178,13.366
		h-2.046c-0.334,0-0.599-0.253-0.644-0.574c1.133,0.106,2.224,0.19,3.242,0.255C32.614,13.234,32.415,13.366,32.178,13.366z
		 M30.132,9.997h2.046c0.285,0,0.523,0.184,0.616,0.437c-0.988,0.002-2.073,0.025-3.288,0.048
		C29.585,10.205,29.83,9.997,30.132,9.997z M16.5,22.557c-0.922-1.33-2.07-2.984-1.932-3.458c0.566-1.941,1.746-3.851,2.156-4.48
		c5.922,0.094,13.579,3.273,16.876,4.643c0.663,0.275,1.159,0.481,1.414,0.567c1.098,0.724,5.1,12.256,8.39,22.973
		c-6.898,0.317-12.267,2.898-13.911,3.778c-3.568-9.047-8.17-13.673-9.277-14.698C20.915,28.921,18.475,25.402,16.5,22.557z"/>
</g>
</svg>
