<?xml version="1.0" encoding="iso-8859-1"?>
<!-- Generator: Adobe Illustrator 17.0.0, SVG Export Plug-In . SVG Version: 6.00 Build 0)  -->
<!DOCTYPE svg PUBLIC "-//W3C//DTD SVG 1.1//EN" "http://www.w3.org/Graphics/SVG/1.1/DTD/svg11.dtd">
<svg version="1.1" id="Capa_1" xmlns="http://www.w3.org/2000/svg" xmlns:xlink="http://www.w3.org/1999/xlink" x="0px" y="0px"
	 width="64px" height="64px" viewBox="0 0 64 64" style="enable-background:new 0 0 64 64;" xml:space="preserve">
<g>
	<path d="M34.351,34.147c-0.019-0.22-0.042-0.43-0.062-0.645c-0.96-0.711-2.019-1.388-3.206-2.002
		c-6.636-3.434-9.363-7.758-10.521-10.567c-0.444,0.665-0.856,1.263-1.195,1.723c-1.181,1.603-0.894,4.788,0.809,8.967
		c0.186,0.456,0.501,1.162,0.9,2.057c0.295,0.66,0.639,1.432,1.011,2.283c5.489,1.021,8.749,6.284,14.099,7.645
		c-0.103-0.862-0.306-1.569-0.552-2.422C35.201,39.677,34.66,37.799,34.351,34.147z"/>
	<path d="M51.858,52.872c-0.534,2.85-0.779,4.898-0.873,5.805c1.172-0.59,2.147-1.408,2.848-2.51c0,0-1.083-5.417,1.583-9.25
		c0.227-0.326,0.418-0.618,0.592-0.896c-0.744,0.35-1.62,0.454-2.492,0.473c-0.271,1.261-0.63,2.526-0.964,3.698
		C52.263,51.209,51.99,52.17,51.858,52.872z"/>
	<path d="M56.568,44.164c0.051-0.098,0.121-0.155,0.197-0.195c-0.158-0.59-1.041-0.755-2.828-0.598
		c-0.021,0.685-0.103,1.398-0.228,2.122C54.845,45.46,55.992,45.277,56.568,44.164z"/>
	<path d="M34.655,58.985c0.385-2.937,1.054-8.151,1.476-12.031c0.101-0.928,0.132-1.663,0.119-2.305
		c-0.017-0.002-0.032,0.003-0.05-0.001c-5.271-1.186-8.516-6.191-13.62-7.55c2.437,5.661,5.786,14.263,6.474,21.546
		C30.673,58.721,32.646,58.832,34.655,58.985z"/>
	<path d="M18.875,61c2.305,0.685,9.266,0.686,9.312,0.686h0c0.023-0.99-0.024-2.023-0.129-3.086
		C27.038,48.245,20.497,35.061,19.25,32c-1.375-3.375-2.438-7.562-0.688-9.938c0.429-0.582,0.982-1.397,1.571-2.295
		c1.424-2.169,3.059-4.811,3.703-5.86c0.011-0.664,0.073-1.326,0.08-1.991c0.006-0.644,1.006-0.645,1,0
		c-0.007,0.695-0.077,1.388-0.083,2.083c0,0.039-0.015,0.069-0.022,0.104c7.911,7.658,9.895,12.367,10.536,19.959
		c0.009,0.106,0.02,0.194,0.029,0.297c0.68,7.486,2.364,7.031,1.748,12.703c-0.423,3.89-1.086,9.059-1.471,12.002
		c-0.184,1.407-0.306,2.311-0.306,2.311c1.889,0.219,3.546,0.311,4.998,0.311c7.642,0,9.585-2.553,9.591-2.561l0.001-0.001
		c0,0,0.188-2.438,0.938-6.438c0.405-2.159,1.917-6.081,2.057-9.207c0.117-2.613-0.723-4.671-3.98-4.671
		c-0.066,0-0.134,0.001-0.203,0.003c-0.066,0.002-0.131,0.003-0.196,0.003c-7.221,0-6.119-10.29-6.429-14.44
		C41.812,20.188,41.812,11.25,41.812,7c0-2.61,0.071-3.264-2.118-3.264c-1.376,0-3.644,0.258-7.382,0.451
		c-0.994,0.051-1.936,0.074-2.829,0.074c-1.541,0-2.925-0.07-4.163-0.18c-0.06,0.555-0.07,1.111-0.07,1.669c0,0.645-1,0.645-1,0
		c0-0.591,0.007-1.18,0.078-1.767C19.95,3.486,17.75,2.5,17.75,2.5c-0.109-0.036-0.207-0.053-0.295-0.053
		C15.902,2.448,17.469,7.914,12.5,15.25c-5.25,7.75-1.583,8.667,4.583,23.583C23.25,53.75,16.562,60.312,18.875,61z M24.083,7.917
		c0.08-0.631,1.081-0.638,1,0C25.009,8.499,25,9.081,25,9.667c0,0.645-1,0.645-1,0C24,9.081,24.009,8.499,24.083,7.917z"/>
</g>
</svg>
