<?xml version="1.0" encoding="iso-8859-1"?>
<!-- Generator: Adobe Illustrator 17.0.0, SVG Export Plug-In . SVG Version: 6.00 Build 0)  -->
<!DOCTYPE svg PUBLIC "-//W3C//DTD SVG 1.1//EN" "http://www.w3.org/Graphics/SVG/1.1/DTD/svg11.dtd">
<svg version="1.1" id="Capa_1" xmlns="http://www.w3.org/2000/svg" xmlns:xlink="http://www.w3.org/1999/xlink" x="0px" y="0px"
	 width="64px" height="64px" viewBox="0 0 64 64" style="enable-background:new 0 0 64 64;" xml:space="preserve">
<g>
	<path d="M59.187,41.811c-0.456,0-1.443,0.126-2.765,0.307c0.207-1.539,0.466-3.525,0.466-3.827c0-0.503-2.586-1.652-6.609-2.371
		c-0.375-0.067-0.709-0.14-1.045-0.214c-0.043-0.202-0.161-0.393-0.388-0.531c-7.559-4.581-10.076-15.15-10.493-23.395
		c-0.006-0.125-0.04-0.231-0.083-0.327c0.221-0.627,0.284-1.484-0.491-2.259c0,0-14.938,0-20.692,2.258
		c-2.736-5.136-6.101-8.725-7.039-8.437C8.178,3.591,7.173,5.603,7.173,5.603c7.539,5.097,6.995,13.25,6.198,17.16
		C10.095,21.105,6.335,19.603,2,18.391c0,0,4.742,33.91,3.305,40.088h4.167c0,0-2.586-32.329,3.736-29.312
		s18.104,12.07,19.398,28.019c0,0,6.897,5.46,23.852-1.293c0,0,0.718-7.903,4.023-10.776C63.785,42.242,61.773,41.811,59.187,41.811
		z M44.531,34.052c-5.393,0.49-9.21,4.257-11.093,6.602c-2.151-2.997-5.842-8.368-12.713-13.396
		c0.545-3.994-0.369-8.216-1.875-12.003c4.458-1.172,13.195-3.267,17.807-3.02c0.446,7.558,2.581,16.553,8.227,22.02
		C44.649,34.13,44.531,34.052,44.531,34.052z"/>
</g>
</svg>
