<?xml version="1.0" encoding="iso-8859-1"?>
<!-- Generator: Adobe Illustrator 17.0.0, SVG Export Plug-In . SVG Version: 6.00 Build 0)  -->
<!DOCTYPE svg PUBLIC "-//W3C//DTD SVG 1.1//EN" "http://www.w3.org/Graphics/SVG/1.1/DTD/svg11.dtd">
<svg version="1.1" id="Capa_1" xmlns="http://www.w3.org/2000/svg" xmlns:xlink="http://www.w3.org/1999/xlink" x="0px" y="0px"
	 width="64px" height="64px" viewBox="0 0 64 64" style="enable-background:new 0 0 64 64;" xml:space="preserve">
<g>
	<path d="M28.019,44.706c2.038,10.966,6.858,12.059,6.858,12.059c9.798,1.86,24.681-4.713,25.673-7.317
		c0.757-1.986,0.864-6.991,0.872-9.261c-5.274,3.841-12.334,5.806-21.033,5.806C34.395,45.992,29.567,45.046,28.019,44.706z"/>
	<path d="M10.1,56.114c0,0-0.247-19.066,0.578-27.591c-0.19,0.016-0.379,0.033-0.564,0.052c-0.444,0.045-0.904,0.092-1.369,0.092
		c-1.629,0-2.967-0.644-4.307-2.115c0.3,1.015,0.699,2.156,1.239,3.369c1.863,4.191,0.815,25.494,0.815,25.494
		S7.539,57.045,10.1,56.114z"/>
	<path d="M56.233,37.347c-6.977-0.473-9.578-3.311-9.578-3.311s-0.011,0.013-0.027,0.032c-0.044-0.041-0.093-0.079-0.157-0.106
		c-0.104-0.044-0.209-0.077-0.313-0.119c-0.169-0.067-0.338-0.131-0.508-0.193c-2.861-1.038-5.874-1.361-8.75-2.357
		c-4.498-1.558-6.823-6.345-9.174-10.139c-2.042-3.296-4.606-5.935-7.463-8.238c-0.409-0.33-0.824-0.653-1.245-0.97
		c-0.401-0.302-0.807-0.599-1.218-0.891c-3.388-4.918-5.614-7.465-6.857-8.12c-0.105-0.055-0.231-0.082-0.375-0.082
		c-2.927,0-13.264,11.171-6.839,21.111c0.038,0.059,0.075,0.112,0.113,0.169c1.967,2.98,3.412,3.533,4.902,3.533
		c0.656,0,1.321-0.105,2.043-0.156c0.229-0.016,0.462-0.028,0.704-0.028c3.11,0,7.43,1.756,16.243,16.132
		c0,0,5.543,1.378,12.655,1.378c6.709,0,14.814-1.225,20.986-5.99C61.375,39.002,63.21,37.82,56.233,37.347z M40.017,37.215
		c-3.204,0-7.29-2.029-11.626-9.328c-3.561-5.996-6.541-10.768-9.007-14.484c0.234,0.18,0.478,0.344,0.709,0.529
		c0.197,0.158,0.375,0.328,0.564,0.491c0.518,0.444,1.012,0.905,1.483,1.38c2.784,2.814,4.822,6.126,6.979,9.531
		c1.74,2.746,3.878,5.501,6.983,6.734c2.804,1.114,5.815,1.427,8.675,2.356c0.187,0.061,0.371,0.129,0.557,0.196
		c0.179,0.064,0.357,0.131,0.535,0.201C44.807,35.761,42.731,37.215,40.017,37.215z"/>
</g>
</svg>
