<?xml version="1.0" encoding="iso-8859-1"?>
<!-- Generator: Adobe Illustrator 17.0.0, SVG Export Plug-In . SVG Version: 6.00 Build 0)  -->
<!DOCTYPE svg PUBLIC "-//W3C//DTD SVG 1.1//EN" "http://www.w3.org/Graphics/SVG/1.1/DTD/svg11.dtd">
<svg version="1.1" id="Capa_1" xmlns="http://www.w3.org/2000/svg" xmlns:xlink="http://www.w3.org/1999/xlink" x="0px" y="0px"
	 width="64px" height="64px" viewBox="0 0 64 64" style="enable-background:new 0 0 64 64;" xml:space="preserve">
<g>
	<path d="M11.87,2.738c-0.088,0-0.197,0.04-0.321,0.125c-7.475,5.17-8.321,12.658-5.74,20.674c2.66,8.26,3.36,36.258,3.36,36.258
		l3.64,0.28c0,0,0-21.559,0-31.078c0-1.725,0.414-2.476,1.124-2.475c3.208,0,12.465,15.322,16.935,25.294
		c3.626,8.089,7.067,9.447,11.388,9.447c2.186,0,4.597-0.347,7.371-0.347c8.26,0,9.799-14.699,9.799-14.699
		c0.14-5.04-2.94-3.36-12.319-5.32c-1.876-0.392-3.629-0.549-5.232-0.549c-6.415,0-10.447,2.509-10.447,2.509
		s-0.222,0.208-0.59,0.208c-0.762,0-2.148-0.892-3.469-6.367c-1.96-8.12-14.176-16.046-13.999-16.519c0.84-2.24-1.54-3.5-1.82-8.26
		c-0.094-1.604-0.042-3.198,0.064-4.62h0.503h0.501h26.23c0.464,0,0.84-0.376,0.84-0.84v-1.68c0-0.464-0.376-0.84-0.84-0.84h-25.85
		h-0.506h-0.506c0.04-0.268,0.079-0.51,0.113-0.714C12.151,2.914,12.056,2.738,11.87,2.738z"/>
</g>
</svg>
