<?xml version="1.0" encoding="iso-8859-1"?>
<!-- Generator: Adobe Illustrator 17.0.0, SVG Export Plug-In . SVG Version: 6.00 Build 0)  -->
<!DOCTYPE svg PUBLIC "-//W3C//DTD SVG 1.1//EN" "http://www.w3.org/Graphics/SVG/1.1/DTD/svg11.dtd">
<svg version="1.1" id="Capa_1" xmlns="http://www.w3.org/2000/svg" xmlns:xlink="http://www.w3.org/1999/xlink" x="0px" y="0px"
	 width="64px" height="64px" viewBox="0 0 64 64" style="enable-background:new 0 0 64 64;" xml:space="preserve">
<g>
	<path d="M6.494,27.687c1.13,1.081,2.63,2.099,4.295,2.099c0.341,0,0.685-0.044,1.022-0.131c1.257-0.323,2.097-0.857,2.666-1.588
		C11.932,28.38,8.792,28.048,6.494,27.687z"/>
	<path d="M61.788,33.584c-0.102,0.12-0.233,0.249-0.401,0.384c1.56,5.442-5.397,5.681-11.48,7.226
		c-2.636,0.669-6.08,0.878-9.617,0.878c-5.449,0-11.122-0.495-14.41-0.559c-0.219-0.004-0.448-0.006-0.685-0.006
		c-4.635,0-12.732,0.774-17.529,0.774c-1.06,0-1.959-0.038-2.623-0.13c-2.248-0.312-2.585-2.051-2.484-3.436
		c-0.186-0.03-0.35-0.062-0.496-0.098c-0.194-0.048-0.354-0.102-0.491-0.162c-0.09,0.927-0.025,2.045,0.542,2.987
		c0.393,0.653,1.197,1.479,2.791,1.7c0.677,0.094,1.58,0.14,2.761,0.14c2.449,0,5.763-0.2,8.968-0.394
		c3.094-0.187,6.294-0.38,8.561-0.38c0.231,0,0.453,0.002,0.666,0.006c1.243,0.024,2.822,0.111,4.651,0.21
		c2.996,0.163,6.391,0.349,9.778,0.349c4.229,0,7.456-0.297,9.863-0.909c1.048-0.266,2.14-0.496,3.195-0.719
		c3.926-0.828,7.635-1.61,8.863-4.195c0.558-1.173,0.526-2.56-0.082-4.201C62.061,33.195,61.965,33.377,61.788,33.584z"/>
	<path d="M2.217,37.604c0.133,0.041,0.296,0.078,0.488,0.111c1.672,0.289,5.713,0.29,14.671,0.29c13.304,0,28.214-0.89,36.805-2.593
		c-0.005-0.01-0.014-0.015-0.018-0.026c-0.405-0.912-0.906-1.783-1.504-2.571c-0.123-0.162-0.256-0.315-0.388-0.47
		c-0.135-0.159-0.269-0.318-0.413-0.467c-0.908-0.946-1.992-1.71-3.271-2.175c-0.025-0.009-0.037-0.026-0.059-0.037
		c-1.114,0.095-2.174,0.171-3.122,0.171c-1.319,0-2.422-0.146-3.153-0.588c-0.763-0.461-1.911-0.986-3.233-1.523
		c-1.082,0.652-2.13,1.356-3.143,2.112c-0.66,0.492-1.295-0.616-0.644-1.102c0.748-0.558,1.514-1.088,2.295-1.595
		c-0.463-0.176-0.934-0.35-1.41-0.523c-1.153,0.718-2.252,1.507-3.301,2.376c-0.628,0.521-1.536-0.377-0.902-0.902
		c0.862-0.714,1.749-1.39,2.671-2.017c-0.498-0.173-0.991-0.342-1.47-0.503c-1.312,0.795-2.627,1.584-3.807,2.572
		c-0.626,0.524-1.534-0.373-0.902-0.902c0.984-0.824,2.051-1.52,3.135-2.192c-0.417-0.136-0.812-0.264-1.179-0.382
		c-1.607,0.624-3.026,1.591-4.349,2.732c-0.62,0.534-1.526-0.364-0.902-0.902c1.074-0.925,2.208-1.752,3.438-2.401
		c-0.477-0.148-0.754-0.231-0.754-0.231s-6.535-3.547-9.604-3.547c-0.942,0-1.558,0.334-1.558,1.208
		c0,2.181,0.065,4.503-0.837,6.303c-0.637,1.272-1.754,2.285-3.734,2.795c-0.433,0.112-0.857,0.162-1.271,0.162
		c-2.535,0-4.664-1.9-5.943-3.385c-0.818-0.949-1.291-1.729-1.291-1.729c-1.488,1.701-0.851,4.253-0.851,8.292
		c0,1.846-1.436,2.847-0.945,3.391C1.846,37.452,1.992,37.535,2.217,37.604z"/>
	<path d="M60.785,31.137c-1.425-1.45-3.763-1.855-6.345-1.855c-1.146,0-2.338,0.078-3.516,0.175
		c0.957,0.617,1.789,1.399,2.503,2.291c0.124,0.155,0.245,0.311,0.362,0.472c0.113,0.156,0.222,0.314,0.328,0.474
		c0.48,0.724,0.901,1.49,1.253,2.282c0.028,0.063,0.031,0.12,0.039,0.177c2.86-0.642,4.847-1.388,5.595-2.237
		c0.156-0.177,0.254-0.359,0.298-0.545c0.081-0.34-0.014-0.694-0.338-1.064C60.909,31.245,60.843,31.196,60.785,31.137z"/>
</g>
</svg>
