<?xml version="1.0" encoding="iso-8859-1"?>
<!-- Generator: Adobe Illustrator 17.0.0, SVG Export Plug-In . SVG Version: 6.00 Build 0)  -->
<!DOCTYPE svg PUBLIC "-//W3C//DTD SVG 1.1//EN" "http://www.w3.org/Graphics/SVG/1.1/DTD/svg11.dtd">
<svg version="1.1" id="Capa_1" xmlns="http://www.w3.org/2000/svg" xmlns:xlink="http://www.w3.org/1999/xlink" x="0px" y="0px"
	 width="64px" height="64px" viewBox="0 0 64 64" style="enable-background:new 0 0 64 64;" xml:space="preserve">
<g>
	<path d="M22.808,36.78c-10.099,0-17.441-0.232-19.64-0.62l-0.568-0.1c-0.292,0.965-0.33,2.408,0.341,4.57
		c0,0,30.608,2.009,43.329,0.956c12.721-1.052,15.495-2.965,15.495-2.965l0-3.69c-1.028,0.411-3.965,0.938-13.708,1.36
		C40.913,36.603,31.71,36.78,22.808,36.78z"/>
	<path d="M12.664,32.899h10.498c0.958-0.564,4.72-2.681,7.208-2.681c0.448,0,0.851,0.066,1.2,0.197
		c0.235,0.088,0.469,0.133,0.695,0.133c0.323,0,0.537-0.09,0.641-0.161c-0.137-0.13-0.508-0.364-1.286-0.549
		c-2.218-0.525-4.753-1.909-5.775-3.843c-4.135,0.845-12.207,1.016-15.347-0.207c-3.73-1.452-4.974-2.948-5.93-2.47
		c-0.303,0.152-0.413,0.563-0.424,1.053l0.484,0.362C5.345,25.269,11.249,29.747,12.664,32.899z"/>
	<path d="M51.341,30.779c0,0,0,0-7.652-2.296c-7.535-2.261-14.757-7.752-15.193-7.752c-0.007,0-0.012,0.001-0.015,0.004
		c-2.411,1.866-2.591,3.622-1.728,5.045c0.951,1.568,3.17,2.73,5.076,3.181c3.077,0.729,2.178,2.486,0.437,2.486
		c-0.316,0-0.659-0.058-1.011-0.19c-0.258-0.097-0.557-0.14-0.884-0.14c-2.588,0-6.959,2.681-6.959,2.681H12.029
		c-0.611-2.658-6.711-7.407-7.767-8.214c-0.1-0.077-0.172-0.13-0.172-0.13c-0.971,2.292-0.847,7.715-0.786,9.339
		c0.011,0.296,0.021,0.481,0.021,0.481c2.285,0.403,10.192,0.606,19.483,0.606c13.521,0,29.965-0.429,36.294-1.293
		c1.699-0.232,2.677-0.495,2.664-0.789C61.671,31.653,51.341,30.779,51.341,30.779z"/>
</g>
</svg>
