<?xml version="1.0" encoding="iso-8859-1"?>
<!-- Generator: Adobe Illustrator 17.0.0, SVG Export Plug-In . SVG Version: 6.00 Build 0)  -->
<!DOCTYPE svg PUBLIC "-//W3C//DTD SVG 1.1//EN" "http://www.w3.org/Graphics/SVG/1.1/DTD/svg11.dtd">
<svg version="1.1" id="Capa_1" xmlns="http://www.w3.org/2000/svg" xmlns:xlink="http://www.w3.org/1999/xlink" x="0px" y="0px"
	 width="64px" height="64px" viewBox="0 0 64 64" style="enable-background:new 0 0 64 64;" xml:space="preserve">
<g>
	<path d="M60.667,44.667c-0.49-0.14-1.393-0.088-2.275,0.019c0.227,0.984,0.247,2.111-0.029,3.403
		c1.829-0.427,3.381-0.818,3.554-0.921C62.333,46.917,61.833,45,60.667,44.667z"/>
	<path d="M51.167,39.25c-0.78-0.354-1.368-0.477-1.799-0.507c-0.045-0.024-0.09-0.048-0.151-0.058
		c-0.915-0.151-1.825-0.193-2.735-0.193c-1.072,0-2.145,0.059-3.23,0.069c-0.025,0-0.05,0-0.076,0c-2.498,0-4.421-1.169-6.158-2.854
		c-0.962-0.933-1.798-2.017-2.532-3.18c-1.89-5.392-2.178-12.009-2.166-14.708l-6.776,2.272l0.23,0.642l-6.227,2.233
		c-0.056,0.02-0.113,0.029-0.169,0.029c-0.205,0-0.397-0.127-0.471-0.331c-0.043-0.12-0.033-0.244,0.011-0.353l-3.658,1.226
		c-0.328,0.11-0.752,0.171-1.192,0.171c-0.422,0-0.829-0.057-1.146-0.159l-0.811-0.263c-0.759-0.246-0.877-0.715-0.88-0.972
		c-0.003-0.258,0.104-0.729,0.857-0.993c1.946-0.683,3.941-1.387,5.91-2.084c-0.193-0.013-0.368-0.137-0.438-0.33
		c-0.093-0.26,0.042-0.546,0.302-0.64l6.227-2.233l0.328,0.915c3.016-1.083,5.722-2.068,7.768-2.834
		c-0.373-1.076-1.289-2.025-3.352-2.447c-3.667-0.75-19.5-5-19.5-5c-6.5,10.667-8.417,16.167-5.167,21.82
		c3.25,5.654,3,23.301,3,23.301h2.5c0.892-3.368-2.554-20.329,3.932-20.329c0.181,0,0.371,0.013,0.568,0.041
		c7.25,1,16.083,18.167,23,19.917c1.03,0.261,2.201,0.372,3.447,0.372c5.595,0,12.698-2.229,15.495-3.188
		c0.763-0.262,1.225-0.434,1.225-0.434c0.318-1.291,0.293-2.388,0.059-3.339C56.524,41.297,52.611,39.906,51.167,39.25z
		 M42.926,40.443c-2.907,0-5.024-1.607-6.567-3.982c1.21,1.266,2.691,2.203,4.341,2.772c0.94,0.324,1.929,0.411,2.936,0.411
		c1.125,0,2.272-0.109,3.397-0.117C45.514,40.158,44.15,40.443,42.926,40.443z"/>
	<path d="M26.827,18.376l-1.679,0.609l0.159,0.444l7.025-2.355l0.507-0.17l0.514-0.172l4.623-1.55c0,0,0.617-2.192-0.737-2.192
		c-0.276,0-0.634,0.091-1.097,0.311c-0.46,0.219-1.473,0.621-2.832,1.137c-0.153,0.058-0.311,0.118-0.472,0.179
		c-0.157,0.059-0.321,0.121-0.486,0.182c-2.138,0.8-4.89,1.799-7.698,2.807l0.157,0.438l1.675-0.608
		c0.261-0.092,0.547,0.04,0.641,0.3C27.221,17.995,27.086,18.282,26.827,18.376z"/>
	<path d="M12.329,22.619l0.811,0.263c0.258,0.083,0.593,0.125,0.93,0.125c0.35,0,0.702-0.045,0.969-0.135l3.996-1.34l0.118,0.33
		l0.058,0.16l5.285-1.895l-0.018-0.05l-0.118-0.33l-0.151-0.421l-1.6,0.581c-0.057,0.02-0.114,0.03-0.171,0.03
		c-0.204,0-0.396-0.126-0.47-0.33c-0.095-0.259,0.04-0.546,0.299-0.641l1.604-0.582l-0.158-0.442l-0.118-0.329l-0.109-0.303
		L18.2,19.207l0.104,0.291l0.118,0.329c-2.653,0.94-4.899,1.73-6.102,2.153C11.8,22.163,11.803,22.449,12.329,22.619z"/>
</g>
</svg>
