<?xml version="1.0" encoding="iso-8859-1"?>
<!-- Generator: Adobe Illustrator 17.0.0, SVG Export Plug-In . SVG Version: 6.00 Build 0)  -->
<!DOCTYPE svg PUBLIC "-//W3C//DTD SVG 1.1//EN" "http://www.w3.org/Graphics/SVG/1.1/DTD/svg11.dtd">
<svg version="1.1" id="Capa_1" xmlns="http://www.w3.org/2000/svg" xmlns:xlink="http://www.w3.org/1999/xlink" x="0px" y="0px"
	 width="64px" height="64px" viewBox="0 0 64 64" style="enable-background:new 0 0 64 64;" xml:space="preserve">
<g>
	<path d="M57.274,46.779c-2.266-0.101-4.662,0.046-7.074,0.204c0.597-2.469,2.171-6.228,2.171-6.228s-1.147-1.636-2.771-1.758
		c-4.187-2.662-7.248-6.644-8.798-11.208c0.149-1.602-0.339-3.005-0.339-3.005c-0.171-0.016-0.318-0.026-0.451-0.034
		c-0.289-1.58-0.414-3.202-0.339-4.847c0.002-0.035-0.013-0.066-0.014-0.101c0.356-0.686,2.75-6.881-23.012-13.09
		c0,0-0.605-0.331-1.476-0.595c0.55-0.991,0.859-1.841,0.496-2.487c-1.261-2.242-5.604,1.821-7.285,7.005
		c-1.538,4.741-5.168,6.676-3.635,10.508c-1.377,0.629-3.406,1.984-2.248,4.202c1.681,3.222,4.623,13.449,5.464,22.695
		c0.841,9.246-0.187,12.328,4.81,12.048c4.997-0.28,11.581,0.42,16.905,1.401s18.492,1.121,28.299-5.744
		c0,0,1.541-0.841,1.261-3.222C59.236,52.523,66.66,47.199,57.274,46.779z M13.791,17.786c-0.294-0.861-0.628-1.688-1.019-2.429
		c-0.992-1.878-0.594-3.718,0.191-5.401c5.991,3.124,18.246,9.195,24.367,9.951c-0.062,1.421,0.015,2.827,0.203,4.208
		c-0.774-0.388-2.043-1.007-4.214-1.994C25.975,18.785,14.822,17.865,13.791,17.786z M15.263,24.367
		c-0.048-0.347-0.101-0.706-0.16-1.076c0.537,0.109,1.181,0.189,1.965,0.232c6.095,0.332,17.178,3.731,21.548,5.137
		c0.386,1.115,0.847,2.201,1.393,3.245c-4.794-0.901-11.436,1.148-14.575,2.28C22.475,30.43,19.083,26.892,15.263,24.367z
		 M36.697,46.227c-2.414-0.852-4.538-2.343-6.18-4.876c-0.57-0.879-1.171-1.776-1.791-2.677c0.036-0.008,0.077-0.006,0.109-0.021
		c0.864-0.384,8.034-1.359,12.469-1.935L36.697,46.227z M44.922,47.249c-1.064,0.02-2.115,0.007-3.142-0.061
		c0.498-2.743,1.243-6.673,3.483-8.548c0.589,0.526,1.204,1.028,1.849,1.498C45.656,41.769,45.118,45.049,44.922,47.249z"/>
</g>
</svg>
