<?xml version="1.0" encoding="iso-8859-1"?>
<!-- Generator: Adobe Illustrator 17.0.0, SVG Export Plug-In . SVG Version: 6.00 Build 0)  -->
<!DOCTYPE svg PUBLIC "-//W3C//DTD SVG 1.1//EN" "http://www.w3.org/Graphics/SVG/1.1/DTD/svg11.dtd">
<svg version="1.1" id="Capa_1" xmlns="http://www.w3.org/2000/svg" xmlns:xlink="http://www.w3.org/1999/xlink" x="0px" y="0px"
	 width="64px" height="64px" viewBox="0 0 64 64" style="enable-background:new 0 0 64 64;" xml:space="preserve">
<g>
	<path d="M19.776,35.755c0.243-0.44,0.56-0.904,0.971-1.403c-0.692-2.145-1.227-4.33-1.727-6.477
		c-2.818-2.631-7.513-6.589-11.753-8.152c-6.59-2.428-5.116,0.26-2.515,4.335s7.583,4.162,7.954,31.128h2.278
		c0,0-0.434-19.77-0.434-20.55C14.55,33.941,15.312,27.402,19.776,35.755z"/>
	<path d="M59.812,48.944C57.038,47.643,48.8,42.527,48.8,42.527s-0.021,0.019-0.051,0.047c-1.114-0.653-2.243-0.89-3.572-0.89
		c-0.103,0-0.208,0.001-0.314,0.004c-0.73,0.019-1.403,0.05-2.029,0.05c-2.172,0-3.79-0.37-5.332-2.879
		c-2.511-4.087-3.248-8.807-7.064-12.047c-0.103-0.088-0.251-0.15-0.396-0.15c-0.007,0-0.014,0-0.022,0
		c-0.007-0.008-0.009-0.016-0.016-0.024c-3.769-3.62-6.389-7.952-8.936-12.468c-0.063-0.112-0.151-0.173-0.243-0.211
		c-1.65-3.299-3.385-6.241-6.531-8.402c-0.149-0.103-0.318-0.148-0.487-0.148c-0.644,0-1.309,0.656-1.041,1.323
		c1.865,4.656,4.151,9.109,5.518,13.951c0.793,2.811,1.382,5.649,2.064,8.462c0.442,1.824,0.922,3.638,1.524,5.428
		c-0.716,0.804-1.275,1.599-1.513,2.314c-0.124,0.373-0.166,0.725-0.087,1.043c0.607,2.428,3.642,12.659,7.891,16.822
		c1.618,1.585,6.308,2.076,11.493,2.076c8.426,0,18.162-1.296,18.162-1.296C64.842,54.406,62.587,50.245,59.812,48.944z
		 M21.972,27.249c0.743,1.666,1.519,3.317,2.346,4.945c-0.267,0.238-0.536,0.477-0.804,0.726
		C22.919,31.051,22.428,29.156,21.972,27.249z M25.598,31.07c-0.15,0.13-0.317,0.276-0.475,0.414
		c-1.618-3.204-3.025-6.505-4.445-9.8c-0.884-3.701-2.32-7.116-3.804-10.544c1.284,1.906,2.248,4.045,3.281,6.16
		c2.14,4.38,4.686,8.375,5.927,13.148C25.92,30.655,25.753,30.856,25.598,31.07z M25.455,23.039
		c1.121,1.485,2.342,2.901,3.708,4.226c-0.508,0.426-0.999,0.865-1.457,1.327C27.106,26.664,26.32,24.834,25.455,23.039z
		 M39.84,47.264c-1.483,0-2.801-0.683-3.612-2.569c-2.496-5.8-6.173-13.711-8.136-15.053c0.147-0.159,0.286-0.322,0.438-0.478
		c0.513-0.524,0.968-0.993,1.48-0.993c0.26,0,0.534,0.121,0.839,0.417c0.672,0.654,1.192,1.45,1.693,2.237
		c1.562,2.454,2.377,5.334,3.704,7.916c1.073,2.088,2.511,3.734,4.9,4.12c0.465,0.075,0.917,0.101,1.359,0.101
		c1.007,0,1.964-0.135,2.911-0.135c0.826,0,1.643,0.103,2.478,0.488C46.261,44.661,42.735,47.264,39.84,47.264z"/>
</g>
</svg>
