<?xml version="1.0" encoding="iso-8859-1"?>
<!-- Generator: Adobe Illustrator 17.0.0, SVG Export Plug-In . SVG Version: 6.00 Build 0)  -->
<!DOCTYPE svg PUBLIC "-//W3C//DTD SVG 1.1//EN" "http://www.w3.org/Graphics/SVG/1.1/DTD/svg11.dtd">
<svg version="1.1" id="Capa_1" xmlns="http://www.w3.org/2000/svg" xmlns:xlink="http://www.w3.org/1999/xlink" x="0px" y="0px"
	 width="64px" height="64px" viewBox="0 0 64 64" style="enable-background:new 0 0 64 64;" xml:space="preserve">
<g>
	<path d="M61.971,48.391l-5.883-0.14v-4.762c-7.563-7.844-22.69-2.661-24.791-3.221c-2.101-0.56-1.261-2.661-1.261-2.661
		c4.482-2.521,14.006-13.565,14.006-13.565c0.28-8.943-4.342-7.663-4.342-7.663C29.308,16.169,11.766,1.744,9.566,3.956
		C9.433,3.824,9.26,3.725,9.027,3.711c-7.214-0.446-5.406,9.995-6.973,14.343c-0.368,1.022,1.256,1.458,1.621,0.447
		c1.263-3.504-0.158-13.299,5.234-13.11c-1.705,3.311-6.208,7.096-3.944,16.528c2.521,10.505,3.081,36.628,3.081,36.628
		s5.042,0.349,5.743,0c0,0-0.14-20.941-0.42-28.504c-0.28-7.563,11.065,2.241,15.827,16.948
		c4.762,14.707,9.945,13.586,15.267,13.586s12.606-1.821,16.247-6.863C64.353,48.671,61.971,48.391,61.971,48.391z M22.473,14.776
		c0,0,13.586,4.902,16.247,5.042c1.821,0.096,3.376,0.258,2.654,1.382c-8.69-0.7-17.537-1.835-24.974-6.67
		C17.036,13.524,18.843,13.393,22.473,14.776z M25.275,30.323c-1.577-1.299-8.737-10.149-9.127-14.354
		c7.177,4.508,15.629,5.757,23.973,6.473c-0.381,0.303-0.839,0.638-1.401,1.018C33.959,26.681,27.656,32.284,25.275,30.323z"/>
</g>
</svg>
