<?xml version="1.0" encoding="iso-8859-1"?>
<!-- Generator: Adobe Illustrator 18.0.0, SVG Export Plug-In . SVG Version: 6.00 Build 0)  -->
<!DOCTYPE svg PUBLIC "-//W3C//DTD SVG 1.1//EN" "http://www.w3.org/Graphics/SVG/1.1/DTD/svg11.dtd">
<svg version="1.1" id="Capa_1" xmlns="http://www.w3.org/2000/svg" xmlns:xlink="http://www.w3.org/1999/xlink" x="0px" y="0px"
	 viewBox="0 0 490.446 490.446" style="enable-background:new 0 0 490.446 490.446;" xml:space="preserve">
<path d="M253.486,356.428c3.565-0.879,6.936-1.877,10.118-2.98c15.408-5.314,27.697-17.237,33.468-32.478
	c0.016-0.064,0.047-0.119,0.064-0.183c-12.802,15.08-30.592,14.057-30.592,14.057c3.949-2.638,7.561-5.363,10.838-8.128
	c17.661-14.88,29.584-35.475,33.691-58.195c-14.463,16.774-34.236,13.738-34.236,13.738c23.208-12.516,38.313-36.098,40.006-62.389
	c0.655-10.054,1.007-20.371,1.007-30.912c0-38.159-1.039-73.61-5.498-103.314c-5.61,10.437-17.375,21.162-41.509,27.507
	c0,0,1.663-0.775,4.38-2.509c27.587-17.549,36.25-53.855,19.532-81.945C283.933,10.517,268.159,0,245.223,0
	c-48.812,0-65.211,47.605-70.373,115.389c-1.854,24.286,8.79,47.972,28.209,62.67c5.579,4.219,9.399,6.018,9.399,6.018
	c-21.594-5.682-33.326-14.872-39.574-24.223c-0.191,9.509-0.288,19.18-0.288,29.105c0,10.54,0.352,20.858,1.006,30.912
	c1.694,26.252,16.846,49.898,40.006,62.389l0,0c0,0-19.771,3.036-34.236-13.738c4.106,22.745,16.015,43.298,33.692,58.195
	c3.277,2.764,6.889,5.489,10.836,8.128c0,0-17.789,1.023-30.592-14.057c0.033,0.095,0.064,0.183,0.113,0.28
	c5.738,15.175,17.948,27.02,33.277,32.334c3.227,1.118,6.648,2.133,10.26,3.028c0,0-10.98,4.66-24.358,1
	c6.378,8.358,13.267,14.488,20.538,17.668c0.543,34.573,3.484,82.681,12.083,115.35c8.632-32.766,11.54-80.45,12.083-115.35
	c7.272-3.18,14.16-9.309,20.538-17.668C264.467,361.088,253.486,356.428,253.486,356.428z"/>
<g>
</g>
<g>
</g>
<g>
</g>
<g>
</g>
<g>
</g>
<g>
</g>
<g>
</g>
<g>
</g>
<g>
</g>
<g>
</g>
<g>
</g>
<g>
</g>
<g>
</g>
<g>
</g>
<g>
</g>
</svg>
