<?xml version="1.0" encoding="UTF-8" standalone="yes"?>
<svg xmlns="http://www.w3.org/2000/svg" viewBox="0 0 487.38 487.38">
  <path d="M293.86 13.178c-11.517 13.29-23.54 31.847-31.74 57.1 0 0-8.41-24.197 6.924-48.127-14.426 13.043-32.762 35.135-43.972 69.657 0 0-10.31-29.876 13.064-56.075-.445.228-.89.447-1.33.674C197.91 56.23 172.69 95.704 171.11 139.324v.102s-17.893-25.495-3.224-56.787a.51.51 0 0 1-.024.022c-16.585 14.37-28.07 33.482-33.044 54.854-2.27 9.762-3.835 20.63-4.264 32.646 0 0-11.202-16.045-8.583-38.263-.013.015-.03.03-.037.046-8.434 11.445-15.677 22.765-21.818 33.874-9.755 17.64-9.818 39.153-.125 56.832 0 0-9.693-4.443-18.455-14.895-17.422 52.6-9.457 96.3 12.525 118.284 2.15 2.15 4.614 4.2 7.267 6.147-16.35 51.382-21.452 100.228-6.104 155.192 18.328-91.507 23.9-167.09 133.514-323.025-31.003 55.942-60.455 119.886-79.724 183.744 40.696 1.877 93.124-20.78 137.003-98.36C336.71 160.114 316.856 59.848 415.33 4.767c-31.322-8.43-75.294-5.708-121.473 8.412z"/>
</svg>