<svg xmlns="http://www.w3.org/2000/svg" viewBox="0 0 489.738 489.738"><path d="M487.944 12.61c-8.023-8.014-64.847 11.518-127.95 44.377a43.945 43.945 0 0 0-22.955 31.236l-3.562 20.05-4.794-26.97a4.602 4.602 0 0 0-2.596-3.375 4.612 4.612 0 0 0-4.258.223c-13.233 7.792-26.34 16.027-38.99 24.597a52.702 52.702 0 0 0-22.323 34.39l-9.533 53.624-9.062-50.962a3.373 3.373 0 0 0-2.18-2.587 3.388 3.388 0 0 0-3.33.594c-10.748 9.098-19.53 17.288-30.327 28.918-7.65 8.245-12.688 18.41-14.663 29.482L176.25 281.51l-9.97-56.053a3.36 3.36 0 0 0-2.634-2.718 3.385 3.385 0 0 0-3.504 1.437c-32.906 49.367-47.356 96.138-38.184 125.955L1.418 470.672a4.834 4.834 0 0 0-.825 5.74 4.844 4.844 0 0 0 5.277 2.402l47.856-10.507a31.324 31.324 0 0 0 15.45-8.458l81.244-81.246c29.826 9.174 76.6-5.277 125.966-38.182a3.378 3.378 0 0 0 1.438-3.506 3.383 3.383 0 0 0-2.718-2.642l-56.055-9.97 85.316-15.174c11.028-1.966 21.294-7.058 29.494-14.68 11.62-10.787 19.837-19.606 28.888-30.31a3.38 3.38 0 0 0-1.983-5.51l-50.972-9.06 53.633-9.544a52.637 52.637 0 0 0 34.39-22.314c8.57-12.65 16.805-25.744 24.596-38.98.76-1.298.834-2.884.213-4.256a4.592 4.592 0 0 0-3.368-2.596l-26.97-4.796 20.033-3.56a43.887 43.887 0 0 0 31.245-22.955c32.85-63.115 52.39-119.94 44.38-127.96z"/></svg>