<?xml version="1.0" encoding="UTF-8" standalone="yes"?>
<svg xmlns="http://www.w3.org/2000/svg" viewBox="0 0 479.106 479.106">
  <path d="M421.4 231.49c72.382-63.374 61.265-195.883 47.906-209.27-7.472-7.47-25.012 28.356-71.725 57.095-4.055 4.01-9.177 25.642-8.93 56.826 0 0-8.786-22.642-8.06-46.89-10.83 5.845-22.75 11.368-35.504 16.58-40.878 16.703-69.57 54.13-75.085 97.945-.533-23.713-14.8-41.322-2.383-71.885-42.053 12.346-84.8 24.04-117.246 39.516-28.07 13.325-48.723 38.39-56.497 68.48-3.842 14.898-6.334 33.212-6.173 56.293-3.273-2.235-15.228-35.82-12.167-71.78C30.97 271.424 31.93 343.593 47.87 389.275v.01C29.705 375.33 0 383.502 0 383.502c22.005 3.033 33.745 20.493 33.745 20.493C1.46 414.615 0 457.885 0 457.885c18.216-37.95 67.49-33.86 67.49-33.86.39.393.783.615 1.174.98-7.987-77.21 39.17-155.066 118.687-180.487 48.833-15.61 158.235-48.742 201.248-77.32-25.065 40.22-159.94 90.262-192.528 102.18-70.98 24.682-111.86 94.23-109.528 163.232 25.864-.363 58.276-41.944 122.725-74.49-7.578-8.388-38.887-22.618-73.255-13.617 37.907-20.99 69.038-22.885 94.174-19.007 22.04 3.4 44.632.15 64.786-9.383.018-.018.055-.027.073-.036 37.57-17.984 78.945-40.93 112.07-70.666-4.484-7.815-24.532-22.99-50.165-13.695 26.898-15.752 47.96-10.06 64.45-.223z"/>
</svg>