<svg xmlns="http://www.w3.org/2000/svg" viewBox="0 0 488.929 488.929"><path d="M436.246 426.438c-8.058 11.935-18.773 17.86-24.05 20.166 6.24 5.45 12.553 10.792 18.89 16.1 4.337-9.87 5.967-22.15 5.16-36.266z"/><path d="M391.694 462.324C269.178 350.756 173.898 209.244 134.77 125.248c79.064 111.962 173.38 230.06 275.92 320.07a171.517 171.517 0 0 0 6.15-9.505c12.03-20.01 14.435-44.463 6.484-66.44.165 28.093-20.026 43.36-20.026 43.36a169.01 169.01 0 0 0 4.305-19.078 139.528 139.528 0 0 0-17.037-92.795c-.28 31.17-24.24 45.936-24.24 45.936 13.514-34.636 8.197-73.757-13.984-103.593a670.804 670.804 0 0 0-27.187-34.174c-28.083-33.05-63.287-64.73-98.968-93.027-.23 14.6-5.622 32.685-20.832 54.488 0 0 .937-2.072 2.156-5.924 9.803-30.973-1.464-64.694-27.885-83.592C111.425 32.206 52.485 0 52.485 0s12.947 140.18 64.102 254.982c14.247 31.96 47.738 50.91 82.463 46.578 5.36-.666 8.347-1.482 8.347-1.482-26.158 12.553-45.962 14.166-60.885 10.98 7.006 10.906 14.47 21.236 22.495 30.684a671.854 671.854 0 0 0 29.35 32.348c25.814 26.65 63.708 38.23 99.998 30.48 0 0-18.446 21.276-49.27 16.517a139.315 139.315 0 0 0 88.456 31.78c6.305.008 12.947-.354 19.91-1.168 0 0-18.322 17.464-46.02 12.773.084.04.166.09.24.132a77.567 77.567 0 0 0 66.26 4.312 170.09 170.09 0 0 0 13.29-5.942s-7.628 15.186-25.54 23.45c19.904 4.427 36.752 3.07 49.197-4.75-7.785-6.378-15.554-12.765-23.183-19.35z"/></svg>