<?xml version="1.0" encoding="UTF-8" standalone="yes"?>
<svg xmlns="http://www.w3.org/2000/svg" viewBox="0 0 479.106 479.106">
  <path d="M421.4 231.49c72.382-63.374 61.265-195.883 47.906-209.27-7.472-7.47-25.012 28.356-71.725 57.095-4.056 4.01-9.178 25.642-8.93 56.826 0 0-8.787-22.643-8.06-46.89-10.832 5.844-22.75 11.367-35.505 16.58-40.878 16.702-69.57 54.13-75.085 97.944-.534-23.713-14.8-41.322-2.384-71.885-42.053 12.346-84.8 24.04-117.246 39.516-28.07 13.325-48.724 38.39-56.498 68.48-3.842 14.898-6.334 33.212-6.173 56.293-3.273-2.234-15.228-35.82-12.167-71.78C30.97 271.425 31.93 343.594 47.87 389.276v.01C29.705 375.33 0 383.502 0 383.502c22.005 3.033 33.745 20.493 33.745 20.493C1.46 414.616 0 457.886 0 457.886c18.216-37.952 67.49-33.86 67.49-33.86.39.392.783.614 1.174.978-7.987-77.21 39.17-155.065 118.687-180.486 48.832-15.61 158.234-48.742 201.247-77.32-25.065 40.22-159.94 90.262-192.528 102.18C125.09 294.06 84.21 363.607 86.542 432.61c25.864-.363 58.276-41.944 122.725-74.49-7.578-8.388-38.887-22.618-73.255-13.617 37.907-20.99 69.038-22.885 94.174-19.007 22.04 3.4 44.632.15 64.786-9.383.018-.018.055-.027.073-.036 37.57-17.984 78.945-40.93 112.07-70.666-4.484-7.816-24.532-22.992-50.165-13.696 26.898-15.752 47.96-10.06 64.45-.223z"/>
</svg>