<?xml version="1.0" encoding="iso-8859-1"?>
<!-- Generator: Adobe Illustrator 18.0.0, SVG Export Plug-In . SVG Version: 6.00 Build 0)  -->
<!DOCTYPE svg PUBLIC "-//W3C//DTD SVG 1.1//EN" "http://www.w3.org/Graphics/SVG/1.1/DTD/svg11.dtd">
<svg version="1.1" id="Capa_1" xmlns="http://www.w3.org/2000/svg" xmlns:xlink="http://www.w3.org/1999/xlink" x="0px" y="0px"
	 viewBox="0 0 489.738 489.738" style="enable-background:new 0 0 489.738 489.738;" xml:space="preserve">
<path d="M487.944,12.609c-8.023-8.013-64.847,11.519-127.951,44.378c-12.065,6.279-20.57,17.844-22.954,31.236l-3.561,20.051
	l-4.794-26.97c-0.26-1.484-1.235-2.745-2.596-3.376c-1.373-0.621-2.959-0.547-4.258,0.223
	c-13.233,7.791-26.339,16.026-38.989,24.596c-11.778,7.976-19.828,20.385-22.324,34.39l-9.533,53.624l-9.062-50.963
	c-0.213-1.187-1.039-2.181-2.179-2.587c-1.132-0.408-2.412-0.186-3.33,0.593c-10.749,9.098-19.531,17.288-30.328,28.918
	c-7.651,8.245-12.688,18.409-14.663,29.482L176.25,281.51l-9.97-56.053c-0.241-1.364-1.28-2.441-2.634-2.718
	c-1.354-0.279-2.735,0.287-3.504,1.438c-32.906,49.367-47.356,96.138-38.184,125.955L1.418,470.671
	c-1.521,1.512-1.855,3.858-0.825,5.742c1.029,1.882,3.181,2.855,5.277,2.401l47.856-10.507c5.852-1.28,11.213-4.22,15.451-8.458
	l81.243-81.245c29.826,9.174,76.599-5.277,125.966-38.182c1.149-0.769,1.725-2.152,1.438-3.506
	c-0.279-1.354-1.354-2.393-2.718-2.642l-56.055-9.97l85.315-15.174c11.028-1.966,21.294-7.058,29.494-14.68
	c11.62-10.787,19.837-19.606,28.888-30.309c0.79-0.919,1.012-2.198,0.604-3.33c-0.408-1.142-1.4-1.966-2.587-2.181l-50.972-9.06
	l53.633-9.544c14.004-2.484,26.413-10.534,34.389-22.314c8.57-12.65,16.806-25.744,24.597-38.979
	c0.76-1.299,0.834-2.885,0.213-4.257c-0.631-1.364-1.892-2.338-3.368-2.596l-26.97-4.796l20.033-3.561
	c13.421-2.384,24.949-10.87,31.245-22.954C476.415,77.455,495.956,20.631,487.944,12.609z"/>
<g>
</g>
<g>
</g>
<g>
</g>
<g>
</g>
<g>
</g>
<g>
</g>
<g>
</g>
<g>
</g>
<g>
</g>
<g>
</g>
<g>
</g>
<g>
</g>
<g>
</g>
<g>
</g>
<g>
</g>
</svg>
