<?xml version="1.0" encoding="UTF-8" standalone="yes"?>
<svg xmlns="http://www.w3.org/2000/svg" viewBox="0 0 494.247 494.247">
  <path d="M210.655 322.844C235.938 307.44 314.36 254.65 358.813 198.05c-35.167-6.18-92.562 13.738-153.043 44.757C121.41 291.832-1.07 376.223.007 389.633c.273 3.38 6.596 7.286 17.17 11.03a38.007 38.007 0 0 0 28.803-1.422l33.96-15.92-21.477 21.7a3.427 3.427 0 0 0-.82 3.494 3.415 3.415 0 0 0 2.74 2.313c44.647 6.855 106.52 7.914 159.328-8.04 11.016-3.336 19.966-11.5 24.265-22.168l17.04-42.237-1.35 42.974a3.45 3.45 0 0 0 1.592 3.006c1.02.65 2.313.714 3.398.168a303.16 303.16 0 0 0 27.373-15.745 38.015 38.015 0 0 0 16.847-25.806l8.75-53.79 8.98 46.46a3.45 3.45 0 0 0 2.308 2.62 3.45 3.45 0 0 0 3.398-.746c36.67-33.905 59.173-72.476 59.125-100.813 48.944-46.46 82.8-101.56 102.587-153.363a3.433 3.433 0 0 0-1.557-4.242 3.44 3.44 0 0 0-4.418.98c-36.647 49.844-79.204 133.02-277.39 242.76z"/>
</svg>