<svg xmlns="http://www.w3.org/2000/svg" viewBox="0 0 484.42 484.42"><path d="M384.79 365.354a226.273 226.273 0 0 0-2.467-14.578c-6.47-31.544-21.3-60.817-42.937-84.667 6.452 28.41-11.2 46.56-11.42 46.5 3.126-34.127-8.258-68.02-31.365-93.323a11244.213 11244.213 0 0 1-28.545-31.34c-33.834-37.204-61.316-74.914-85.86-106.72.593 15.718-4.728 35.852-25.76 60.472.238-.027 9.004-17.095 12.247-45.617a65.71 65.71 0 0 0-16.485-51.407C121.675 10.86 91.693-8.744 53.23 3.833 13.2 16.736 1.31 59.69 15.9 119.013a65.61 65.61 0 0 0 28.734 39.846c32.616 20.54 56.703 18.385 56.484 18.64-31.535 8.46-54.102.835-69.17-11.208 20 47.135 53.68 98.772 97.784 147.216a459.966 459.966 0 0 0 50.235 47.607c27.955 22.752 65.943 29.264 99.86 17.044-.1-.214-10.726 23.908-44.592 21.348A487.524 487.524 0 0 0 244 404.5c18.785 10.388 39.85 16.266 61.283 16.992 15.81.54 33.75-1.494 52.262-8.546.726.152-43.224 30.032-9.9 69.854.053-17.348 34.746-54.29 47.804-68.41.388-.39-18.227 39.348 32.65 70.03-21.536-26.408-10.05-43.968-2.4-57.05-31.84-13.546-64.54-30.783-95.298-50.85-59.44-38.48-110.165-87.944-142.512-129.075-16.435-20.405-28.225-38.807-36.518-51.55-8.09-12.915-12.128-20.65-12.146-20.634.017-.016 5.608 6.68 15.456 18.21 9.662 11.647 24.322 27.532 42.228 46.01 35.826 36.985 87.26 82.236 144.977 119.413 29.83 19.526 61.062 37.093 91.4 51.796 4.695-14.688 11.67-33.402 41.23-38.04-47.886-12.12-69.27 22.39-69.372 22.81 3.328-19.034 16.96-67.243 29.982-77.714-41.892-1.502-50.827 47.11-50.338 47.608z"/></svg>