<?xml version="1.0" encoding="utf-8"?>
<!-- Generator: Adobe Illustrator 16.0.0, SVG Export Plug-In . SVG Version: 6.00 Build 0)  -->
<!DOCTYPE svg PUBLIC "-//W3C//DTD SVG 1.1//EN" "http://www.w3.org/Graphics/SVG/1.1/DTD/svg11.dtd">
<svg version="1.1" id="Layer_1" xmlns="http://www.w3.org/2000/svg" xmlns:xlink="http://www.w3.org/1999/xlink" x="0px" y="0px"
	 width="126px" height="126px" viewBox="0 0 126 126" enable-background="new 0 0 126 126" xml:space="preserve">
<g>
	<path d="M36.188,42.941c0.607,0.133,1.17,0.124,2.9-1.205c0.77-0.591,1.906-1.586,2.955-2.974l0.459-0.609
		c3.93-5.228,13.131-17.466,26.42-16.801c10.961,0.8,18.729,9.076,22.467,23.936c0.127,0.505,0.203,0.815,0.289,1.053
		c0.57,2.43,1.529,5.458,2.91,6.454c0.342,0.247,0.738,0.365,1.131,0.365c0.6,0,1.191-0.278,1.57-0.803
		c0.604-0.836,0.441-1.992-0.35-2.633c-0.383-0.494-1.1-2.563-1.527-4.412c-0.025-0.109-0.061-0.217-0.104-0.32
		c-0.037-0.126-0.105-0.401-0.168-0.648c-0.592-2.355-2.166-8.611-5.982-14.496C84.23,22.25,77.508,18.092,69.18,17.491
		c-0.012-0.001-0.025-0.001-0.041-0.003c-15.35-0.783-25.428,12.617-29.729,18.34l-0.453,0.6c-1.178,1.558-2.568,2.527-3.049,2.808
		c-0.162,0.063-0.318,0.15-0.465,0.261c-0.602,0.457-0.895,1.234-0.732,1.971C34.873,42.205,35.449,42.781,36.188,42.941z"/>
	<path d="M84.648,50.363c1.461-3.648,1.496-7.418,0.096-10.34c-1.246-2.607-3.572-4.497-6.725-5.463
		c-4.627-1.416-10.236,1.154-15.375,7.041c-0.064,0.072-7.379,7.766-15.061,12.469c-0.057,0.035-5.68,3.408-11.553,5.008
		c-0.504,0.137-0.906,0.464-1.154,0.881h9.777c2.834-1.318,4.793-2.493,4.939-2.582c8.334-5.102,15.891-13.143,15.955-13.217
		c3.119-3.574,7.736-7.002,11.338-5.898c2.119,0.648,3.588,1.803,4.367,3.432c0.934,1.949,0.861,4.585-0.199,7.231
		c-1.33,3.325-4.564,7.115-9.344,11.034h5.844C80.676,56.978,83.305,53.717,84.648,50.363z"/>
	<path d="M69.461,66.514h-7.006c-5.223,3.307-15.559,9.637-23.053,12.84c-0.982,0.42-1.439,1.558-1.02,2.541
		c0.314,0.733,1.029,1.174,1.781,1.174c0.252,0,0.512-0.05,0.76-0.156c8.447-3.611,20.252-10.979,24.934-13.978
		C67.016,68.192,68.23,67.379,69.461,66.514z"/>
	<path d="M37.785,52.581c1.979-0.595,3.771-1.613,5.557-2.628c1.508-0.858,3.008-1.631,4.395-2.686
		c2.701-2.055,5.027-4.454,7.166-7.08c0.865-1.063,1.793-2.076,2.76-3.048c0.527-0.53,1.074-1.043,1.631-1.544
		c0.291-0.26,0.586-0.514,0.885-0.765c0.15-0.128,0.305-0.253,0.457-0.378c0.039-0.032,0.34-0.268,0.418-0.33
		c1.346-1.033,2.781-1.951,4.293-2.727c1.426-0.732,2.857-1.246,4.594-1.607c0.576-0.121,0.701-0.133,1.133-0.178
		c1.049-0.109,1.936-0.799,1.936-1.936c0-0.973-0.883-2.043-1.936-1.935c-6.994,0.726-12.977,5.098-17.586,10.176
		c-0.877,0.968-1.666,2.006-2.516,2.997c-1.111,1.301-2.326,2.514-3.594,3.66c-1.305,1.178-2.359,2.02-3.9,2.903
		c-1.631,0.937-3.295,1.884-4.986,2.707c-0.58,0.284-1.08,0.468-1.734,0.665c-1.01,0.303-1.637,1.345-1.352,2.38
		C35.68,52.228,36.775,52.885,37.785,52.581z"/>
	<path d="M38.428,72.967c1.939-0.666,7.586-2.746,14.289-6.453h-8.602c-3.273,1.48-5.793,2.398-6.943,2.793
		c-0.086,0.029-0.139,0.049-0.158,0.057c-0.998,0.377-1.502,1.494-1.123,2.494c0.293,0.773,1.027,1.25,1.809,1.25
		c0.221,0,0.443-0.038,0.66-0.117L38.428,72.967z"/>
	<path d="M75.85,43.826c-0.871-0.621-2.08-0.42-2.699,0.451c-4.707,6.597-10.977,11.775-16.998,15.682h6.738
		c4.852-3.645,9.602-8.098,13.41-13.436C76.92,45.654,76.719,44.446,75.85,43.826z"/>
	<path d="M91.08,84.486c-2.682-0.895-5.963-3.232-9.137-5.492c-4.598-3.273-8.564-6.102-11.799-5.544
		c-2.43,0.42-6.674,3.132-13.375,7.55c-4.832,3.185-10.307,6.794-12.689,7.436c-1.031,0.277-1.643,1.34-1.365,2.371
		c0.232,0.863,1.014,1.433,1.867,1.433c0.166,0,0.336-0.021,0.504-0.067c2.984-0.803,8.244-4.271,13.813-7.941
		c4.498-2.965,10.096-6.654,11.904-6.967c1.645-0.279,5.664,2.581,8.896,4.883c3.404,2.426,6.926,4.934,10.156,6.01
		c1.014,0.34,2.109-0.21,2.447-1.223C92.641,85.919,92.094,84.823,91.08,84.486z"/>
	<path d="M86.236,93.965c-1.561-0.564-4.096-2.131-6.547-3.646c-5.18-3.2-8.473-5.142-10.834-4.733
		c-2.393,0.412-7.418,3.828-15.854,9.986c-1.031,0.753-1.924,1.404-2.541,1.842c-0.873,0.615-1.08,1.823-0.465,2.695
		c0.377,0.534,0.975,0.819,1.582,0.819c0.387,0,0.775-0.115,1.115-0.354c0.643-0.455,1.545-1.113,2.592-1.877
		c3.355-2.451,12.273-8.961,14.209-9.295c1.205-0.082,5.559,2.602,8.16,4.209c2.74,1.693,5.33,3.292,7.266,3.992
		c1.004,0.363,2.115-0.156,2.479-1.162C87.762,95.437,87.24,94.327,86.236,93.965z"/>
	<path d="M79.701,103.584c-1.088-0.71-2.088-1.423-3.053-2.111c-3.174-2.266-5.918-4.225-8.924-3.703
		c-3.385,0.585-8.777,6.006-9.824,7.087c-0.742,0.769-0.723,1.993,0.045,2.735c0.375,0.364,0.861,0.545,1.346,0.545
		c0.506,0,1.012-0.197,1.391-0.588c2.592-2.678,6.273-5.719,7.701-5.966c1.414-0.241,3.549,1.276,6.018,3.038
		c0.951,0.68,2.029,1.449,3.186,2.203c0.895,0.584,2.094,0.332,2.678-0.563S80.596,104.168,79.701,103.584z"/>
	<path d="M85.838,57.384c0.154,0.936,0.408,1.79,0.748,2.575h4.398c-0.768-1.039-1.193-2.256-1.414-3.604
		C89.164,53.897,85.436,54.943,85.838,57.384z"/>
	<path d="M94.773,66.984c0.891,0.377,1.877,0.309,2.486-0.471h-3.539C94.066,66.676,94.416,66.834,94.773,66.984z"/>
	<path d="M92.971,73.739c-1.451-0.447-2.555-1.015-4.094-1.923c-2.221-1.313-4.277-3.099-5.666-5.303h-4.332
		c2.465,5.275,7.518,9.249,13.064,10.957C94.334,78.207,95.35,74.472,92.971,73.739z"/>
	<rect x="28.441" y="61.689" width="76.332" height="2.555"/>
	<rect x="108.242" y="60.459" width="7" height="5.016"/>
	<rect x="17.076" y="60.459" width="7" height="5.016"/>
</g>
</svg>
