<?xml version="1.0" encoding="UTF-8" standalone="yes"?>
<svg xmlns="http://www.w3.org/2000/svg" viewBox="0 0 126 126">
  <path d="M92.29 63.424c.592 2.52 1.585 5.66 3.016 6.69.355.26.766.38 1.173.38a2.003 2.003 0 0 0 1.265-3.56c-.397-.515-1.142-2.66-1.584-4.575a1.982 1.982 0 0 0-.107-.334c-.037-.13-.11-.416-.174-.672-.615-2.443-2.247-8.93-6.203-15.03-5.11-7.878-12.078-12.188-20.713-12.81l-.042-.003C53.007 32.7 42.56 46.593 38.1 52.526l-.468.623c-1.22 1.614-2.664 2.62-3.16 2.91a2.036 2.036 0 0 0-1.243 2.314 2.007 2.007 0 0 0 1.53 1.53c.63.137 1.21.127 3.006-1.25a16.517 16.517 0 0 0 3.063-3.084l.475-.632c4.074-5.42 13.613-18.107 27.39-17.418 11.363.83 19.417 9.41 23.293 24.816.13.523.212.844.3 1.09z"/>
  <path d="M70.927 42.067c-7.25.75-13.453 5.285-18.232 10.55-.91 1.004-1.728 2.08-2.608 3.107-1.152 1.35-2.412 2.606-3.727 3.794-1.353 1.222-2.446 2.097-4.042 3.01-1.692.972-3.416 1.954-5.17 2.808-.602.295-1.12.484-1.798.69-1.046.313-1.696 1.394-1.4 2.466.284 1.035 1.42 1.717 2.466 1.402 2.05-.617 3.91-1.672 5.762-2.725 1.563-.893 3.117-1.69 4.555-2.785 2.8-2.13 5.212-4.62 7.43-7.342a43.006 43.006 0 0 1 4.553-4.76c.3-.27.607-.533.916-.794.157-.133.316-.263.475-.393.042-.033.352-.277.433-.343a29.377 29.377 0 0 1 4.45-2.825c1.48-.76 2.964-1.294 4.765-1.67.597-.124.727-.137 1.174-.183 1.085-.113 2.005-.828 2.005-2.006-.002-1.007-.918-2.116-2.01-2.004zm-34.6 49.11c.23 0 .46-.04.686-.12l.07-.027c4.358-1.496 26.734-9.852 39.264-27.414a2.005 2.005 0 0 0-3.265-2.33C61.262 77.85 39.936 85.808 35.78 87.236c-.09.03-.143.05-.163.057a2.005 2.005 0 0 0 .71 3.882zm61.198-9.814c-1.673-.707-3.42-1.45-4.828-2.62-1.55-1.288-2.27-2.98-2.592-4.937-.42-2.547-4.286-1.463-3.87 1.066.86 5.205 4.69 8.02 9.265 9.955 1.008.424 2.14.313 2.745-.72.498-.85.288-2.318-.72-2.744z"/>
  <path d="M65.834 12.877c-26.346 0-47.78 21.435-47.78 47.78 0 26.35 21.434 47.782 47.78 47.782 26.347 0 47.78-21.436 47.78-47.783 0-26.346-21.433-47.78-47.78-47.78zm2.794 91.236c-.772.133-1.823.58-3.158 1.318a44.79 44.79 0 0 1-9.6-1.12 699.6 699.6 0 0 0 2.436-1.603c4.664-3.074 10.466-6.898 12.342-7.223 1.704-.29 5.872 2.676 9.222 5.063.816.582 1.638 1.16 2.462 1.73a44.38 44.38 0 0 1-9.724 2.65c-1.58-.69-2.882-1.002-3.98-.813zm26.128-9.304c.55-1.025.32-2.535-1.125-2.98-1.504-.464-2.65-1.05-4.242-1.993-2.92-1.727-5.583-4.227-6.877-7.42-.41-1.012-1.32-1.715-2.467-1.4-.96.266-1.813 1.453-1.4 2.47 2.39 5.894 7.877 10.35 13.922 12.212.395.12.75.114 1.063.032a44.964 44.964 0 0 1-7.025 4.582c-1.448-.938-2.936-1.99-4.405-3.035-4.766-3.396-8.878-6.327-12.232-5.75-2.52.437-6.92 3.247-13.867 7.827a353.812 353.812 0 0 1-5.33 3.467 44.462 44.462 0 0 1-7.157-3.313c8.17-4.013 17.747-9.995 21.908-12.66C72.745 82.222 81.988 75.126 85 67.595c1.515-3.785 1.552-7.69.1-10.722-1.292-2.703-3.704-4.66-6.972-5.663-4.797-1.466-10.612 1.2-15.94 7.303-.067.074-7.65 8.05-15.614 12.926-.058.036-5.89 3.534-11.977 5.192a2.005 2.005 0 1 0 1.054 3.87c6.625-1.803 12.74-5.47 13.01-5.633C57.3 69.58 65.133 61.24 65.2 61.164c3.236-3.706 8.02-7.26 11.755-6.115 2.197.673 3.72 1.87 4.53 3.56.966 2.02.89 4.752-.208 7.496-2.044 5.107-8.408 11.275-17.92 17.367-4.484 2.872-15.366 9.67-23.7 13.487-11.258-8.143-18.603-21.375-18.603-36.3 0-24.692 20.088-44.78 44.78-44.78s44.78 20.088 44.78 44.78c.002 13.675-6.165 25.93-15.857 34.152z"/>
</svg>