<?xml version="1.0" encoding="UTF-8" standalone="yes"?>
<svg xmlns="http://www.w3.org/2000/svg" viewBox="0 0 126 126">
  <path d="M91.213 52.396c-.392 0-.788-.12-1.13-.366-1.38-.996-2.34-4.024-2.91-6.454-.085-.238-.163-.548-.29-1.054-.492-1.953-1.797-7.143-4.732-12.13a1.935 1.935 0 0 1 3.337-1.962c3.217 5.465 4.62 11.047 5.15 13.148.06.248.13.523.167.648.044.104.08.21.104.32.427 1.85 1.146 3.92 1.527 4.412a1.934 1.934 0 0 1-1.22 3.438zM79.67 27.774a1.927 1.927 0 0 1-1.404-.603c-3.772-3.972-8.43-6.186-13.848-6.58a20.99 20.99 0 0 0-5.126.373 1.934 1.934 0 1 1-.753-3.795 24.89 24.89 0 0 1 6.137-.44c6.417.464 11.934 3.082 16.396 7.782a1.934 1.934 0 0 1-1.404 3.264zM32.12 42.232c-.153 0-.294-.023-.437-.055a1.94 1.94 0 0 1-1.477-1.475 1.965 1.965 0 0 1 1.198-2.233c.48-.28 1.87-1.25 3.048-2.81l.454-.6c.698-.93 1.566-2.084 2.587-3.347 3.344-4.135 6.646-7.314 10.094-9.72A1.936 1.936 0 1 1 49.8 25.17c-3.145 2.193-6.186 5.13-9.297 8.978-.978 1.21-1.823 2.334-2.503 3.238l-.46.61a15.965 15.965 0 0 1-2.955 2.975c-1.324 1.018-1.964 1.263-2.464 1.263zm-.085 19.883a1.935 1.935 0 0 1-.508-3.802c3.57-.972 7.04-2.59 9.32-3.776a1.935 1.935 0 0 1 1.785 3.434c-2.45 1.275-6.187 3.016-10.09 4.078a1.94 1.94 0 0 1-.508.068zm14.222-6.628a1.934 1.934 0 0 1-1.093-3.533c6.913-4.718 12.923-11.058 12.976-11.118 5.14-5.886 10.748-8.457 15.375-7.04 4.704 1.44 6.547 4.517 7.265 6.844a1.935 1.935 0 0 1-3.698 1.14c-.643-2.084-2.224-3.526-4.7-4.284-3.6-1.102-8.217 2.324-11.337 5.9-.648.74-6.888 7.106-13.698 11.753a1.932 1.932 0 0 1-1.09.336zM35.66 82.304a1.935 1.935 0 0 1-.762-3.715c8.182-3.5 19.767-10.733 24.37-13.68C68.44 59.035 74.58 53.086 76.55 48.16a1.936 1.936 0 0 1 3.593 1.438c-2.908 7.266-11.823 14.11-18.79 18.57-4.684 3-16.487 10.367-24.936 13.98a1.92 1.92 0 0 1-.76.156zm18.055-46.477c1.828-1.75 3.59-3.158 5.77-4.452 2.178-1.293 4.677-2.278 7.083-2.53 1.05-.108 1.935-.796 1.935-1.934 0-.97-.884-2.042-1.935-1.933-6.05.632-11.277 3.985-15.59 8.114-1.805 1.73.935 4.463 2.737 2.738zM33.28 51.817c2.642-.795 4.94-2.344 7.367-3.61 2.557-1.332 4.81-3.406 6.823-5.44 1.756-1.776-.98-4.514-2.737-2.738-1.814 1.83-3.763 3.596-6.04 4.836-2.103 1.146-4.214 2.548-6.442 3.218-1.007.303-1.634 1.345-1.35 2.38.275.998 1.37 1.655 2.38 1.35z"/>
  <path d="M61.433 56.164a1.933 1.933 0 0 1-1.276-3.39c3.333-2.923 6.188-6.04 8.488-9.262a1.936 1.936 0 0 1 3.15 2.247c-2.473 3.464-5.53 6.803-9.087 9.922-.367.322-.822.48-1.275.48zm-28.238 16.18a1.936 1.936 0 0 1-.527-3.8c1.902-.655 6.995-2.54 13.197-5.928a88.815 88.815 0 0 0 6.04-3.612 1.936 1.936 0 0 1 2.12 3.24 92.92 92.92 0 0 1-6.306 3.77c-6.464 3.53-11.8 5.503-13.796 6.188l-.068.023c-.22.08-.442.118-.662.118zM85.963 87.49c-.203 0-.41-.032-.612-.1-3.23-1.078-6.75-3.586-10.156-6.01-3.23-2.302-7.25-5.167-8.895-4.884-1.604.277-6.478 3.427-8.08 4.46a1.934 1.934 0 1 1-2.1-3.25c5.137-3.32 7.806-4.728 9.52-5.023 3.23-.555 7.202 2.27 11.8 5.544 3.17 2.26 6.453 4.595 9.135 5.49a1.935 1.935 0 0 1-.61 3.77zm-45.885 3.983a1.935 1.935 0 0 1-.502-3.805c2.38-.64 7.967-4.323 12.456-7.282a1.935 1.935 0 1 1 2.13 3.23c-6.204 4.09-10.81 7.043-13.58 7.79a1.91 1.91 0 0 1-.504.067zm40.996 5.48c-.22 0-.44-.037-.658-.116-1.58-.57-3.604-1.754-5.56-2.945a1.934 1.934 0 1 1 2.014-3.304c1.697 1.035 3.602 2.153 4.862 2.61a1.935 1.935 0 0 1-.658 3.754zm-34 3.21a1.934 1.934 0 0 1-1.118-3.516c.618-.44 1.51-1.09 2.542-1.843 8.435-6.158 13.46-9.573 15.853-9.986 1.655-.285 3.78.503 7.838 2.908a1.935 1.935 0 1 1-1.97 3.33c-3.802-2.252-4.925-2.444-5.228-2.42-1.935.333-10.853 6.844-14.21 9.294-1.045.763-1.947 1.422-2.59 1.876-.34.238-.73.354-1.116.354zm7.713 7.208a1.935 1.935 0 0 1-1.39-3.28c1.047-1.082 6.44-6.503 9.824-7.087 3.007-.52 5.75 1.437 8.925 3.702.966.688 1.965 1.4 3.053 2.11a1.936 1.936 0 0 1-2.115 3.242c-1.155-.754-2.233-1.524-3.185-2.203-2.47-1.762-4.602-3.282-6.017-3.04-1.43.248-5.11 3.29-7.7 5.967-.38.39-.887.59-1.39.59zM81.333 56.62c.827 5.018 4.522 7.735 8.936 9.6.97.41 2.062.302 2.645-.694.48-.82.278-2.236-.694-2.647-1.612-.684-3.3-1.4-4.656-2.53-1.494-1.242-2.19-2.875-2.5-4.76-.405-2.46-4.134-1.412-3.732 1.028zm-7.325 8.306c2.306 5.686 7.6 9.984 13.43 11.78 2.392.736 3.406-3 1.03-3.732-1.454-.447-2.557-1.014-4.095-1.923-2.815-1.662-5.384-4.073-6.633-7.152-.396-.976-1.273-1.656-2.38-1.352-.928.255-1.75 1.4-1.352 2.38z"/>
</svg>