<?xml version="1.0" encoding="UTF-8" standalone="yes"?>
<svg xmlns="http://www.w3.org/2000/svg" viewBox="0 0 126 126">
  <path d="M32.885 40.92c.608.132 1.17.123 2.902-1.207.77-.59 1.904-1.585 2.955-2.973l.46-.61c3.93-5.226 13.13-17.464 26.42-16.8 10.958.8 18.726 9.076 22.464 23.936.127.505.205.815.29 1.053.57 2.43 1.528 5.456 2.91 6.452a1.932 1.932 0 0 0 2.7-.437 1.933 1.933 0 0 0-.35-2.635c-.38-.494-1.1-2.563-1.527-4.412a1.87 1.87 0 0 0-.106-.32 41.68 41.68 0 0 1-.168-.648c-.592-2.355-2.166-8.612-5.982-14.496-4.928-7.598-11.648-11.755-19.977-12.356-.014 0-.027 0-.04-.002-15.353-.783-25.43 12.617-29.73 18.34l-.453.6c-1.178 1.557-2.57 2.526-3.048 2.807a1.965 1.965 0 0 0-1.2 2.232 1.94 1.94 0 0 0 1.478 1.472z"/>
  <path d="M81.346 48.34c1.46-3.648 1.496-7.417.098-10.34-1.248-2.607-3.574-4.497-6.727-5.462-4.627-1.416-10.235 1.154-15.373 7.04-.064.07-7.004 7.36-14.46 12.086a9.845 9.845 0 0 1 1.735 3.482c6.12-3.813 11.773-9.14 14.273-11.627.434-5.053 4.676-9.03 9.837-9.03 5.45 0 9.88 4.43 9.88 9.877 0 4.78-3.414 8.778-7.933 9.685-3.023 3.1-7.15 6.36-12.21 9.6-4.6 2.947-16.185 10.18-24.367 13.678a1.935 1.935 0 1 0 1.52 3.56c8.45-3.613 20.253-10.98 24.936-13.98 6.967-4.46 15.882-11.305 18.79-18.57zm-31.16-14.446c-.88.968-1.668 2.006-2.516 2.998a39.68 39.68 0 0 1-3.596 3.66c-1.305 1.177-2.36 2.02-3.898 2.903-1.633.937-3.295 1.884-4.986 2.707-.582.284-1.082.468-1.736.665-1.006.302-1.63 1.34-1.352 2.372a9.804 9.804 0 0 1 4.987-1.368c.87 0 1.714.125 2.52.34.143-.082.286-.16.43-.242 1.51-.857 3.006-1.63 4.393-2.684 2.702-2.055 5.027-4.455 7.166-7.08a41.71 41.71 0 0 1 2.76-3.048 39.013 39.013 0 0 1 2.515-2.308c.15-.127.305-.252.458-.377l.418-.332a28.367 28.367 0 0 1 4.293-2.723c1.427-.733 2.86-1.247 4.596-1.608.574-.12.7-.134 1.13-.178 1.05-.108 1.937-.797 1.937-1.934 0-.973-.884-2.044-1.936-1.935-6.995.723-12.976 5.096-17.586 10.174z"/>
  <path d="M35.126 70.944c3.442-1.182 18.544-6.807 30.536-18.11a9.947 9.947 0 0 1-2.866-2.605C57.362 55.31 51.256 59.172 46 61.95c-1.59 3.33-4.98 5.64-8.91 5.64-1 0-1.963-.15-2.87-.427a71.172 71.172 0 0 1-.507.178 1.934 1.934 0 0 0 1.346 3.63l.065-.025zm52.65 11.52c-2.68-.895-5.962-3.23-9.136-5.49-4.596-3.276-8.563-6.104-11.798-5.546-2.43.42-6.675 3.132-13.376 7.55-4.83 3.185-10.307 6.794-12.688 7.435a1.936 1.936 0 1 0 1.005 3.738c2.985-.803 8.245-4.27 13.813-7.94 4.498-2.964 10.095-6.654 11.903-6.966 1.642-.28 5.662 2.58 8.894 4.883 3.404 2.425 6.926 4.933 10.158 6.01 1.014.34 2.11-.21 2.447-1.223a1.935 1.935 0 0 0-1.224-2.45zm-4.842 9.476c-1.23-.443-3.065-1.512-4.988-2.686a9.823 9.823 0 0 1-1.625 3.542c1.996 1.21 3.836 2.254 5.3 2.784a1.935 1.935 0 1 0 1.315-3.64z"/>
  <path d="M58.472 87.336c-2.378 1.59-5.278 3.663-8.77 6.213-1.034.75-1.925 1.402-2.544 1.84a1.934 1.934 0 1 0 2.232 3.16 221.28 221.28 0 0 0 2.592-1.876c1.65-1.204 4.64-3.387 7.486-5.337a9.836 9.836 0 0 1-.996-4.002zm17.926 14.224c-1.088-.71-2.086-1.422-3.053-2.11-1.39-.994-2.7-1.928-3.984-2.62a9.79 9.79 0 0 1-5.38-.972c-3.395.936-8.377 5.94-9.38 6.976a1.934 1.934 0 1 0 2.78 2.692c2.593-2.677 6.274-5.718 7.703-5.965 1.413-.24 3.548 1.28 6.017 3.04.95.68 2.03 1.45 3.185 2.204a1.935 1.935 0 0 0 2.113-3.242zm17.027-39.94c-1.613-.68-3.3-1.397-4.657-2.527-1.494-1.243-2.19-2.876-2.5-4.76-.405-2.46-4.134-1.413-3.732 1.028.828 5.02 4.523 7.738 8.937 9.603.972.41 2.063.303 2.647-.694.48-.82.276-2.238-.695-2.65zM89.67 71.716c-1.453-.447-2.557-1.015-4.094-1.923-2.816-1.664-5.385-4.076-6.634-7.155-.396-.976-1.272-1.656-2.38-1.35-.928.254-1.748 1.4-1.352 2.38 2.306 5.685 7.6 9.983 13.43 11.78 2.392.736 3.407-3 1.03-3.732zm-44.557-14.04c0-4.345-3.535-7.88-7.88-7.88s-7.88 3.536-7.88 7.88 3.535 7.88 7.88 7.88 7.88-3.535 7.88-7.88zm-13.76 0c0-3.242 2.64-5.88 5.88-5.88s5.88 2.64 5.88 5.88-2.638 5.88-5.88 5.88-5.88-2.638-5.88-5.88zm39.523-5.463c4.345 0 7.88-3.535 7.88-7.88s-3.535-7.878-7.88-7.878-7.88 3.535-7.88 7.88 3.535 7.878 7.88 7.878zm0-13.76c3.24 0 5.88 2.64 5.88 5.88s-2.64 5.88-5.88 5.88-5.88-2.64-5.88-5.88 2.64-5.88 5.88-5.88zm5.482 48.517c0-4.346-3.534-7.88-7.88-7.88-4.344 0-7.88 3.535-7.88 7.88s3.536 7.878 7.88 7.878c4.346 0 7.88-3.534 7.88-7.88zm-13.758 0a5.886 5.886 0 0 1 5.88-5.88c3.24 0 5.88 2.638 5.88 5.88s-2.64 5.878-5.88 5.878a5.885 5.885 0 0 1-5.88-5.88z"/>
</svg>