<svg xmlns="http://www.w3.org/2000/svg" width="126" height="126" viewBox="0 0 126 126"><path d="M34.562 43.478c.608.133 1.17.124 2.9-1.206.77-.59 1.906-1.586 2.956-2.973l.46-.61c3.93-5.228 13.13-17.466 26.42-16.8 10.958.8 18.727 9.075 22.464 23.935.127.504.205.814.29 1.053.57 2.43 1.53 5.457 2.91 6.453a1.92 1.92 0 0 0 1.13.367 1.934 1.934 0 0 0 1.22-3.437c-.38-.494-1.1-2.563-1.526-4.412a1.898 1.898 0 0 0-.104-.32 32.15 32.15 0 0 1-.167-.648c-.593-2.354-2.166-8.61-5.982-14.496-4.93-7.598-11.65-11.755-19.978-12.355-.014-.003-.027-.003-.04-.004-15.353-.783-25.43 12.617-29.73 18.34l-.452.6c-1.178 1.558-2.57 2.526-3.05 2.808a1.966 1.966 0 0 0-1.2 2.232c.163.734.74 1.31 1.478 1.472z"/><path d="M83.022 50.898c1.46-3.648 1.495-7.417.097-10.34-1.25-2.607-3.575-4.496-6.727-5.462-4.627-1.416-10.235 1.153-15.374 7.04-.067.073-7.382 7.767-15.063 12.47-.056.034-5.68 3.407-11.552 5.007a1.934 1.934 0 1 0 1.017 3.733c6.388-1.74 12.288-5.278 12.546-5.434 8.332-5.103 15.89-13.144 15.954-13.218 3.12-3.574 7.736-7 11.337-5.898 2.118.65 3.59 1.804 4.368 3.433.933 1.947.86 4.584-.2 7.23-1.687 4.22-6.443 9.19-13.54 14.224h6.414c4.635-3.762 8.88-8.188 10.72-12.786zM51.86 36.453c-.878.967-1.666 2.006-2.515 2.997a39.552 39.552 0 0 1-3.596 3.66c-1.305 1.177-2.36 2.02-3.9 2.903-1.63.936-3.294 1.883-4.985 2.707-.582.283-1.08.467-1.735.664-1.01.303-1.636 1.346-1.35 2.38.272 1 1.368 1.655 2.378 1.353 1.98-.596 3.772-1.613 5.56-2.63 1.507-.856 3.005-1.63 4.392-2.684 2.703-2.055 5.028-4.454 7.167-7.08a41.47 41.47 0 0 1 4.392-4.592 35.28 35.28 0 0 1 1.34-1.142l.42-.332a28.496 28.496 0 0 1 4.29-2.725c1.428-.732 2.86-1.246 4.596-1.607.576-.12.7-.133 1.133-.178 1.048-.108 1.935-.798 1.935-1.935 0-.973-.885-2.044-1.936-1.935-6.997.727-12.98 5.1-17.59 10.178z"/><path d="M74.674 47.06a1.933 1.933 0 1 0-3.15-2.247C65.4 53.4 56.63 59.583 49.202 63.685h7.497c6.35-4.13 12.976-9.615 17.977-16.625zM90.444 61.652c-1.495-1.244-2.19-2.877-2.5-4.762-.405-2.457-4.134-1.412-3.732 1.03.395 2.394 1.447 4.26 2.914 5.764h6.826c-1.24-.55-2.47-1.17-3.508-2.032z"/><path d="M29.174 63.444h76.333v1.27H29.174zM108.976 62.832h7v2.494h-7zM17.81 62.832h7v2.494h-7z"/><g><path opacity=".4" d="M70.634 64.708H64c-.624.42-1.258.84-1.912 1.257-4.602 2.947-16.186 10.18-24.368 13.68a1.936 1.936 0 0 0 1.52 3.558c8.45-3.612 20.252-10.98 24.936-13.978a94.375 94.375 0 0 0 6.458-4.517zM36.746 73.256c2.28-.78 9.67-3.514 17.882-8.548h-7.862c-5.332 2.746-9.66 4.333-11.278 4.89-.086.028-.138.047-.156.055a1.934 1.934 0 0 0 1.346 3.628l.068-.024zM89.397 84.775c-2.682-.895-5.964-3.23-9.137-5.49-4.597-3.275-8.563-6.103-11.798-5.545-2.43.42-6.675 3.132-13.376 7.55-4.83 3.185-10.307 6.794-12.688 7.435a1.936 1.936 0 1 0 1.006 3.738c2.984-.804 8.244-4.27 13.813-7.94 4.498-2.966 10.096-6.656 11.904-6.97 1.644-.278 5.665 2.583 8.896 4.884 3.405 2.426 6.927 4.934 10.158 6.01 1.014.34 2.11-.21 2.447-1.223s-.21-2.11-1.223-2.45z"/><path opacity=".4" d="M84.553 94.254c-1.56-.564-4.095-2.13-6.547-3.645-5.18-3.202-8.472-5.144-10.834-4.735-2.393.413-7.416 3.828-15.852 9.986a261.37 261.37 0 0 1-2.542 1.843 1.934 1.934 0 1 0 2.232 3.16c.644-.454 1.546-1.113 2.59-1.877 3.358-2.45 12.276-8.96 14.21-9.295 1.207-.08 5.56 2.604 8.162 4.21 2.74 1.693 5.328 3.293 7.266 3.992a1.934 1.934 0 1 0 1.315-3.638z"/><path opacity=".4" d="M78.018 103.873c-1.087-.71-2.086-1.422-3.053-2.11-3.174-2.267-5.916-4.226-8.923-3.703-3.386.585-8.776 6.006-9.823 7.087a1.934 1.934 0 1 0 2.78 2.69c2.59-2.676 6.272-5.718 7.702-5.964 1.412-.242 3.547 1.276 6.017 3.038.95.68 2.03 1.45 3.184 2.203a1.934 1.934 0 0 0 2.114-3.24zM95.803 64.708h-7.3c1.35 1.03 2.916 1.86 4.59 2.565.97.41 2.062.303 2.645-.693.306-.52.333-1.28.065-1.872zM91.29 74.03c-1.454-.448-2.557-1.017-4.095-1.925-2.816-1.664-5.385-4.076-6.633-7.154-.034-.084-.077-.163-.118-.242h-3.53c-.192.4-.255.85-.084 1.272 2.307 5.686 7.6 9.984 13.43 11.78 2.392.736 3.406-2.998 1.03-3.73z"/></g></svg>