<svg xmlns="http://www.w3.org/2000/svg" width="64" height="64" viewBox="0 0 64 64"><path d="M54.81 58.477c-.82 0-1.74.015-2.77.045l-.258.01c.313-.776 1.793-4.814-.866-6.023-.87-.397-1.283-1.002-1.647-1.535-.32-.47-.657-.942-1.242-.977-2.74-3.356-4.467-7.358-5.663-11.6l.164-.378c1.225-2.818-.01-4.474-.063-4.542l-.097-.126-.15-.047c-.375-.116-.75-.22-1.125-.326-.72-3.69-1.23-7.414-1.827-10.925l.484.013.588-18.83-.368-.11c-4.477-1.347-8.678-2.03-12.486-2.03-7.423 0-10.82 2.564-10.96 2.674l-.203.157.01.255c.007.233.005.44.01.668l.504-.066.497-.065 3.374-.44a1.323 1.323 0 0 1 1.488 1.145l.33 2.52.05-.006a.5.5 0 1 1 .13.994l-.05.007.33 2.523a1.33 1.33 0 0 1-1.145 1.488l-4.987.653-.5.066-.252.03c-.058.008-.116.01-.174.01-.026 0-.05-.01-.077-.012-.95 5.807-3.02 8.23-4.548 10.004-.47.544-.874 1.015-1.186 1.514-.61.975-3.582 6.017-2.272 9.56.03.083.082.15.116.228-.035.887.175 2.312.634 4.277 1.062 4.54 2.89 19.153 2.625 22.053l-.012.123.048.114c.072.173.414.74 1.775.74.334 0 .71-.035 1.123-.103l.427-.07-.007-.43c-.01-.59-.228-14.473-.506-17.98-.09-1.122.065-1.908.46-2.335.788-.852 2.82-.463 5.907 1.11 2.007 1.57 5.778 5.044 8.616 10.796 3.68 7.458 5.453 9.202 14.44 9.202 1.096 0 2.3-.023 3.634-.062.136-.004 13.56-.526 13.528-2.74-.01-.644-.464-1.22-5.853-1.22zm-36.817-31.31c-.76-3.385.018-5.135.332-5.666l19.124.506c.59 3.387 1.098 6.94 1.767 10.477a47.986 47.986 0 0 0-11.314-1.372c-4.016 0-7.11.516-8.933.924a116.35 116.35 0 0 0-.977-4.868zm28.334 23.752c-1.833 1.74-3.365 6.16-3.966 8.073a45.21 45.21 0 0 1-2.078.058c-3.88 0-4.937-.774-7.07-5.182-2.97-6.132-6.233-11.924-13.373-15.413a37.914 37.914 0 0 0-.144-1.527c2.01-.827 4.494-1.252 7.417-1.252 5.302 0 10.723 1.387 13.278 2.14 1.234 4.727 3.03 9.227 6.02 13.028-.028.028-.053.046-.083.075z"/><path d="M18.897 8.423l2.65-.346-.33-2.523a.33.33 0 0 0-.126-.217.33.33 0 0 0-.24-.064l-3.492.457-.49.064-.506.066-1.256.164a.328.328 0 0 0-.282.367l-.496.065.79 6.036.495-.063a.33.33 0 0 0 .125.217c.07.053.155.078.242.064l.025-.003.507-.066.504-.067 4.706-.615a.328.328 0 0 0 .282-.367l-.33-2.52-2.65.346a.5.5 0 1 1-.128-.993z"/></svg>