<?xml version="1.0" encoding="UTF-8" standalone="yes"?>
<svg xmlns="http://www.w3.org/2000/svg" viewBox="0 0 64 64">
  <path d="M17.684 35.004c-1.21-.9-2.44-1.76-3.617-2.474-.69-.417-1.414-.82-2.18-1.246-2.224-1.235-4.68-2.6-6.47-4.558.906 1.53 2.42 3.65 4.73 7.037 6.085 8.917 4.75 24.918 7.33 26.502s2.755-1.167 2.755-1.167c-2.955-14.875-2.99-21.317-2.548-24.094zm38.268 6.474c.795 1.896 1.404 3.844.738 5.287-.627 1.36-6 3.35-6.61 3.572-2.418.88-7.12 2.358-11.425 2.358-3.537 0-6.03-1-7.41-2.972-.337-.48-.654-.93-.962-1.365 2.41 6.237 3.013 12.454 9.45 12.99 9 .75 17.918-8.75 17.918-8.75-.33-1.5 1.335-6 2.75-9.418.93-2.242-2.19-2.08-4.447-1.702zM27.478 23.99c1.463-.21 2.938-.446 4.375-.776l.09-.02c1.377-.317 3.386-.79 4.762-1.678-3.173.098-6.262 1.114-9.227 2.474zm18.15 14.384c.24-.544.097-.733.05-.795l-.2-.266c-.034.024-.07.032-.1.06-1.458 1.326-2.493 2.933-3.3 4.673 1.663-1.273 3.077-2.61 3.55-3.674zM28.39 35.6c.01.724-.025 1.37-.073 1.966 3.453 2.593 6.826 5.176 10.882 6.477a41.37 41.37 0 0 0 2.176-1.476c-4.836-.993-8.662-4.058-12.587-7.048-.134.025-.268.05-.4.08zm1.28-8.307c-.1.046-.2.092-.3.14 1.335-.196 2.675-.418 3.983-.718l.094-.02c1.35-.31 3.47-.808 4.87-1.76-.162.002-.323-.002-.485.007-1.256.65-2.652 1.115-3.958 1.476-1.387.383-2.797.65-4.204.875zM13.17 5.945c4.917-1.21 9.905-2.03 14.96-2.276a21.613 21.613 0 0 0 3.112-1.87 2.54 2.54 0 0 1 .21-.21c-7.206-.02-14.3 1.164-21.238 3.054.22.27.434.564.62.918a28.3 28.3 0 0 0 2.336.382zm-6-2.027a.8.8 0 0 1 .044.272l.124-.346-.167.074z"/>
  <path d="M38.655 51.894c7.178 0 16.79-4.337 17.31-5.465.552-1.2-.055-3.02-.816-4.807-.247-.575-.507-1.147-.75-1.695-1-2.25.417-2.5.417-2.5a23.308 23.308 0 0 0-5.274-.623c-2.015 0-3.226.288-3.226.288.02.025.03.054.046.08 1.088 1.682-2.597 4.854-6.136 7.162-2.36 1.538-4.65 2.692-5.41 2.758-.02.002-.038.002-.058.002-1.54 0-5.76-4.953-7.585-7.185.18-.793.315-1.804.377-2.924.035-.65.052-1.325.02-2.04.123-.026.246-.05.37-.075 2.98-.606 5.985-1.103 8.87-2.1 2.71-.937 6.362-2.47 6.88-5.686a1.07 1.07 0 0 0-.015-.39c-.108-.5-.584-.793-1.045-.793-.416 0-.813.238-.9.775-.04.247-.117.477-.21.7-.943 2.24-4.406 3.244-6.442 3.85-2.53.75-5.118 1.207-7.698 1.733-.104-.7-.26-1.41-.46-2.116-.023-.085-.04-.17-.065-.255.244-.034.49-.066.733-.098 2.544-.337 5.09-.66 7.572-1.348 1.603-.444 3.53-1.07 5.01-2.135.635-.457 1.185-.996 1.593-1.636.28-.44.498-.926.62-1.47.032-.14.03-.267.012-.387-.078-.53-.578-.864-1.06-.864-.39 0-.766.216-.88.717a3.03 3.03 0 0 1-.164.51 3.48 3.48 0 0 1-.75 1.09c-1.474 1.497-4.26 2.12-6.01 2.523-2.136.49-4.3.776-6.465 1.067-.307.04-.613.082-.92.124-.22-.486-.476-.962-.76-1.43-.032-.05-.06-.104-.09-.155l.514-.068c2.637-.35 5.278-.672 7.85-1.384 1.567-.434 3.446-1.04 4.912-2.06.695-.485 1.29-1.066 1.722-1.763a4.63 4.63 0 0 0 .59-1.42c.02-.078.004-.144.006-.215.185-.417.13-.93-.385-1.218-1.41-.79-2.952-1.12-4.56-1.12-4.847 0-10.286 3.002-14.445 5.432a13.274 13.274 0 0 0-1.685-.94c-4.292-1.963-6.55-3.895-7.736-5.823.975.43 2.14.62 3.424.62 8.088 0 20.922-7.463 20.668-8.63-.312-1.437-.374-3.437-1.812-5.562-.507-.748-.97-1.025-1.363-1.088-.06-.01-.12-.028-.176-.028-.626 0-1.024.553-1.024.553-.608.444-1.224.847-1.846 1.214C25.438 6.26 20.66 6.97 16.864 6.97a30.76 30.76 0 0 1-5.67-.525 25.895 25.895 0 0 1-.91-.188 4.81 4.81 0 0 0-.923-1.382c-.896-.945-1.88-1.2-1.88-1.2S8.53 4.17 4.65 15.01c-1.33 3.714-1.238 6.468-.324 8.617 1.754 4.125 6.542 6.027 10.158 8.218a45.89 45.89 0 0 1 3.382 2.295c2.453 1.806 4.827 3.815 6.488 5.284l.395.352c.16.145.34.302.483.432 0 0 .09.105.26.318.135.168.323.406.57.724.51.655 1.26 1.643 2.28 3.035a279.78 279.78 0 0 1 3.56 4.977c1.343 1.922 3.85 2.632 6.755 2.632zm-13.478-26.78c-.422.058-.843.114-1.265.174-.222-.24-.464-.472-.71-.7 3.723-2.187 8.507-4.758 12.61-4.758 1.046 0 2.048.168 2.977.552a3.526 3.526 0 0 1-.8 1.147c-1.49 1.456-4.233 2.066-5.96 2.463-2.264.52-4.558.81-6.854 1.12z"/>
</svg>