<?xml version="1.0" encoding="UTF-8" standalone="yes"?>
<svg xmlns="http://www.w3.org/2000/svg" viewBox="0 0 64 64">
  <path d="M62.235 39.206c-.928-.31-7.732.31-9.897-.928-2.165-1.237-.62-2.938-8.815-1.856s-21.34-20.413-26.445-26.6c-5.103-6.185-7.114-4.33-7.114-4.33s-.8.598-1.865 1.68c-.008-.006-.01-.013-.018-.02C7.687 6.812 6.56 6.3 5.76 6.3c-.503 0-.784.202-.93.372-.828.963.653 2.875.966 3.144.017.014.04.02.056.033-.176.247-.35.505-.522.772-.65-.138-1.225-.17-1.367.093-.138.256.154.754.57 1.27-.18.345-.353.7-.514 1.065a5.144 5.144 0 0 0-1.16-.126c-.993 0-1.604.268-1.817.797-.473 1.18 1.545 2.51 1.928 2.664.01.003.018.002.026.005-.042.24-.08.484-.108.73-.632.16-1.15.38-1.163.676-.013.29.468.61 1.07.894 0 .377.024.763.06 1.153-.063.016-.13.013-.192.04-.38.16-2.375 1.526-1.88 2.697.214.51.8.766 1.74.766.38 0 .782-.046 1.105-.117.136.37.286.75.46 1.13C9.04 35.182 7.8 58.534 7.8 58.534h3.403c0-19.176-1.083-31.703 6.96-27.372 8.04 4.33 13.144 22.115 16.237 25.362 3.093 3.248 12.99 2.01 12.99 2.01s6.96-2.784 11.29-4.95c4.328-2.163 4.483-14.07 3.555-14.38zM6.187 9.36c-.372-.32-1.317-1.815-.902-2.3.1-.115.27-.163.476-.163.646 0 1.636.462 1.926.706l.007.006c.372.32.337.97-.08 1.453-.26.304-.612.47-.93.47a.754.754 0 0 1-.48-.165c-.004-.006-.01-.007-.015-.01zm-4.585 4.583c.127-.317.692-.42 1.26-.42.34 0 .673.037.92.088.112.025.21.05.275.076.456.183.632.81.395 1.402-.193.48-.6.79-.992.79a.702.702 0 0 1-.263-.05c-.022-.01-.054-.03-.08-.042-.513-.256-1.742-1.28-1.515-1.842zm-.267 8.404c-.248-.587 1.11-1.72 1.56-1.912.008-.003.016-.002.023-.004a.696.696 0 0 1 .253-.05c.39 0 .795.3.995.774.248.587.082 1.218-.37 1.41-.08.033-.21.065-.358.094-.258.05-.584.09-.913.09-.54 0-1.06-.1-1.188-.4zm2.802-3.785c0-.48.648-.903 1.316-1.15.387-.14.78-.225 1.06-.225a1.376 1.376 0 0 1 0 2.75c-.424 0-1.105-.195-1.632-.495-.42-.238-.742-.543-.742-.88zm3.758 6.176c-.652.388-2.356.686-2.744.034-.386-.653.687-2.008 1.34-2.396a1.375 1.375 0 0 1 1.406 2.362zm.965-10.695a1.375 1.375 0 0 1-1.89.453c-.293-.18-.663-.56-.95-.978-.35-.51-.574-1.08-.355-1.436.27-.44 1.14-.43 1.875-.253.344.08.66.195.868.322.646.396.85 1.243.452 1.89zm3.345-3.662c-.537.54-1.408.54-1.945 0s-.98-1.85-.442-2.384c.537-.537 1.85-.095 2.386.442a1.373 1.373 0 0 1 0 1.944z"/>
</svg>