<?xml version="1.0" encoding="UTF-8" standalone="yes"?>
<svg xmlns="http://www.w3.org/2000/svg" viewBox="0 0 64 64">
  <path d="M11.43 37.083l2.312-9.74A31.655 31.655 0 0 0 9.81 24.14c-3-2.05-5.294-3.807-6.767-5.514.066.486.156 1.018.29 1.626C4.583 25.92 6.416 36.69 6.416 36.69l1.333.105v7.29H6.5l.833 16.334h2.5l1.25-16.334h-1.25V36.96l1.597.125z"/>
  <path d="M10.375 23.312c.39.267.775.545 1.153.83.33-.343 1.597-.555 3.147-.727 1.974-.22 4.382-.377 5.825-.665.56-.112 1.292-.25 2.12-.404-2.633-4.846-4.636-9.12-5.245-10.534-.5-1.158-1.24-2.616-2.02-4.065.55.67 1.094 1.35 1.62 2.038.505.66.996 1.328 1.48 2 2.347 3.26 4.488 6.67 6.584 10.11l.276.455.277.456c-.49.093-.972.184-1.44.27l-.507.096-.33.06-.192.037c-.955.176-1.8.333-2.43.46-1.034.206-2.523.347-3.963.483a89.2 89.2 0 0 0-2.303.24 26 26 0 0 0-1.26.172c.285.272.62.6.99.964 2.256 2.235 5.878 6.086 8.342 10.002a541.477 541.477 0 0 0 8.624-1.49c.52-.095 1.027-.19 1.516-.282.12.148.24.298.364.44.13.15.264.29.397.434 1.113 1.197 2.384 2.22 3.925 2.866 2.367.99 4.946 1.362 7.47 1.886.234.048.465.102.696.153.218.046.435.093.65.145-.99.768-2.69 1.698-5.13 1.698-1.25 0-2.69-.245-4.325-.882-1.817-.707-3.874-2.72-5.954-5.37a515.34 515.34 0 0 1-8.402 1.44c4.45 7.29 7.033 14.727 8.294 17.806 1.4 3.412 1.822 4.904 5.22 4.904 1.77 0 4.344-.404 8.28-1.153 11.5-2.188 14.376-5 14.376-5 .375-11.125-2.312-12.125-5.125-12.375s-6.187-2.062-6.187-2.062-.058.075-.163.19c-.184-.048-.367-.1-.55-.145-.195-.048-.39-.092-.584-.137-2.477-.572-5.007-.92-7.42-1.716-1.53-.504-2.808-1.388-3.92-2.475-.144-.14-.284-.28-.42-.425-.135-.142-.27-.284-.4-.43 1.676-.33 2.99-.62 3.49-.8 2.203-.802 3.134-.99 4.082-1.06a3.3 3.3 0 0 1 .222-.006h.016c-.078-.314-.243-.833-.592-1.675-1.527-3.69-2.237-5.57-2.627-8.103-.116-.752-.185-1.3-.237-1.714-.06-.486-.094-.726-.133-.877-.56.115-1.603.524-2.468.863-.722.282-1.47.575-2.226.834-1.4.478-4.034 1.034-6.633 1.538l-.277-.455-.277-.456c-3.035-4.98-6.153-9.893-9.828-14.403a67.383 67.383 0 0 0-1.654-1.972 59.35 59.35 0 0 0-1.51-1.633c-.71-1.228-1.21-2.064-1.21-2.064C3.965 9.406.448 12.772 2.932 16.802c1.148 1.862 3.573 3.865 7.443 6.51z"/>
</svg>