<?xml version="1.0" encoding="UTF-8" standalone="yes"?>
<svg xmlns="http://www.w3.org/2000/svg" viewBox="0 0 64 64">
  <path d="M22.55 16.2l.018-.012-.146-.2c.044.07.084.14.127.213z"/>
  <path d="M61.478 38.24c-.896-.3-7.467.3-9.557-.896-1.48-.846-1.177-1.913-3.68-2.094.004.01.013.02.015.03-.032-.013-.064-.023-.096-.035a12.95 12.95 0 0 0-.827-.28c-.058-.02-.117-.036-.175-.053-.433-.126-.87-.232-1.31-.325-2.304-.482-4.684-.625-6.868-1.547a9.47 9.47 0 0 1-1.155-.574c-2.044-1.206-3.8-2.825-5.405-4.576-.78-.85-1.53-1.73-2.254-2.614-1.904-2.32-3.714-5.295-5.692-8.135-.28-.402-.565-.8-.853-1.196-1.11-1.525-2.284-2.974-3.563-4.223a19.58 19.58 0 0 0-2.136-1.795c-.015-.02-.032-.042-.048-.06-4.928-5.974-6.87-4.182-6.87-4.182S.55 13.45 5.33 23.903c.104.228.2.47.3.707.013.02.03.03.04.054C7.694 28.91 12.9 28.3 16.724 29.69c.64.088 1.364.338 2.194.785 7.765 4.18 12.693 21.355 15.68 24.49 2.987 3.137 12.544 1.942 12.544 1.942s6.72-2.688 10.902-4.78c4.182-2.09 4.332-13.588 3.436-13.887zm-29.393-7.2a96.618 96.618 0 0 1-5.068-6.017c-1.39-1.68-2.704-3.428-3.765-5.266-1.657-2.535-3.142-5.156-4.376-7.827.85.75 1.65 1.597 2.42 2.5a34.162 34.162 0 0 1 1.364 1.694c.994 1.312 1.935 2.698 2.852 4.08 1.617 2.436 3.162 4.854 4.795 6.807 2.038 2.44 4.325 4.615 7.012 6.32.22.14.443.267.67.384 2.132 1.1 4.528 1.252 6.858 1.667.99.178 1.97.402 2.91.77-4.854 5.463-12.058-1.164-15.673-5.11z"/>
  <path d="M6.686 27.726c3.17 11.297 2.226 29.18 2.226 29.18h3.285c0-13.85-.584-24.104 2.37-26.646-2.756-.664-5.73-.92-7.88-2.534z"/>
</svg>