<?xml version="1.0" encoding="UTF-8" standalone="yes"?>
<svg xmlns="http://www.w3.org/2000/svg" viewBox="0 0 64 64">
  <path d="M54.35 50.322a10.37 10.37 0 0 0-1.023.104l.027-.212c.46-3.64.362-3.676-.58-4.015-.526-.19-1.247-.45-2.174-1.11-1.154-.82-3.288-1.894-5.437-2.89.28.46.38.92.306 1.38-.336 2.07-4.183 3.028-6.17 3.245-1.607.175-3.627.45-5.367.703-.032 0-.065.003-.097.005-.177.01-.354.016-.53.033-.174.018-.347.04-.52.064a18.836 18.836 0 0 1-.352-.894c-.767-2.068-1.406-4.562-1.406-4.562 3.084-.266 8.037-.82 10.835-1.365.267-.05.514-.104.738-.156.077-.018.15-.035.22-.053a6.25 6.25 0 0 0 .74-.22c.292-.113.45-.22.4-.323-.44-.877-2.28-7.455-2.105-12.016.023-.6-.29-1.023-.833-1.324-.36-.2-.822-.34-1.37-.434a12.52 12.52 0 0 0-2.08-.155c-5.132 0-13.312 1.954-15.49 1.954a1.5 1.5 0 0 1-.4-.04c-1.84-.524-4.998-7.98-5.35-10.172-.35-2.194-1.84-2.72-.438-3.338.895-.394 2.358-2.28 3.303-3.595.125.11.25.222.385.326a8.992 8.992 0 0 0 1.47.9c2.23 1.374 5.372 2.686 9.4 4.04 6.777 2.28 8.59 6.564 9.062 9.046.532.072 1 .177 1.398.32-.278-2.98-.813-9.245-.548-10.768.35-2.017.965-1.316-1.49-2.63C36.42 10.852 18.878 1.994 18.878 1.994s-.004-.51-.59.94c-.542-.714-1.39-.865-2.285.303-1.692 2.208-.65 4.67-.418 7.104.032.337.043.673.035 1.007-.01.445-.068.888-.19 1.327-.107.18-.205.35-.325.547-3.596 5.877-5.35 8.245-2.368 17.893 2.98 9.648 1.753 29.995 1.753 29.995h2.105s.526-19.033.516-22.717c-.007-2.74.34-7.03 2.72-7.03.82 0 1.884.51 3.255 1.77 4.535 4.163 4.126 7.732 4.78 8.923.65 1.187 1.435 3.42 1.977 5.08l.156.483c.303.942.5 1.608.5 1.608l.02-.005a31.813 31.813 0 0 0 .342.942c.234.62.515 1.336.713 1.794.107.393.215.76.324 1.112.038.57.095 1.234.18 1.95.058.476.13.97.212 1.464.36 2.13.986 4.255 2.09 4.91 2.432 1.447 10.325.855 20.324-3.618 0 0 .92-3.092 1.447-5.46.353-1.588-.186-2.08-1.804-1.994zM16.49 9.57a27.93 27.93 0 0 0-.21-1.094l-.066-.306c-.26-1.196-.366-2.447.126-3.596.153-.358.39-.665.653-.947.55-.59.748.03.83.546a75.3 75.3 0 0 0-.356 1.013c.04 0 .09 0 .147.006-.036.067-.08.124-.1.206-.027.1-.035.19-.057.288-.04.185-.083.37-.106.55-.08.04-.147.123-.193.273-.005.013-.013.017-.017.034-.126.48-.052.75.033 1.03.05.158.1.322.12.525.05.45-.05 1.113-.68 2.42-.027-.315-.07-.632-.123-.952z"/>
</svg>