<?xml version="1.0" encoding="UTF-8" standalone="yes"?>
<svg xmlns="http://www.w3.org/2000/svg" viewBox="0 0 48 48">
  <path d="M47.01 41.36c0-2.504-2.985-4.642-5.438-5.307 1.38-1.682 1.766-4.438 1.018-6.473l-1.116-3.04-3.986 1.464-4.05-11.028a3.878 3.878 0 0 0 1.677-4.67l-.86-2.342-7.973 2.928.86 2.34a3.877 3.877 0 0 0 4.302 2.476l4.05 11.028L31.51 30.2l1.115 3.04c.504 1.372 1.612 2.66 2.937 3.472a8.316 8.316 0 0 0-2.822 2.434c-1.32-1.63-4.177-2.74-7.486-2.74-.415 0-.803.017-1.23.05v-.978c.165.077.37.156.65.235.866.244 2.073.398 2.132.187.048-.17-.663-.527-1.395-.786a8.71 8.71 0 0 0 .375-.155c1.418-.623 3.19-1.733 3.038-2.08-.135-.308-1.744.094-3.096.624.055-.088.11-.18.168-.277 1.077-1.82 2.157-4.462 1.713-4.724-.38-.225-1.752 1.367-2.815 2.97-.04-2.547-.537-5.723-1.143-5.723-.605 0-1.1 3.176-1.142 5.723-1.063-1.604-2.435-3.195-2.815-2.97-.443.262.636 2.905 1.713 4.724.057.097.113.19.168.277-1.352-.53-2.962-.93-3.097-.624-.152.346 1.62 1.457 3.038 2.08.132.057.256.11.373.154-.73.26-1.444.616-1.396.786.06.21 1.25.057 2.114-.187.28-.08.467-.157.63-.235v1.062c-1.965.273-3.658.946-4.784 1.88-1.635-1.65-4.7-2.72-8.252-2.72-.24 0-.526.007-.69.02v-1.65c.164.1.445.2.8.3 1.103.31 2.627.507 2.703.238.06-.217-.852-.67-1.784-1 .148-.06.304-.125.472-.198 1.807-.792 4.063-2.208 3.87-2.65-.172-.39-2.224.12-3.947.795.07-.112.142-.23.214-.354 1.372-2.317 2.747-5.684 2.182-6.02-.484-.286-2.232 1.743-3.587 3.787-.052-3.246-.684-7.293-1.456-7.293-.772 0-1.404 4.048-1.457 7.293-1.355-2.044-3.104-4.072-3.587-3.786-.565.336.81 3.703 2.183 6.02.072.125.144.242.214.355-1.723-.675-3.774-1.186-3.946-.794-.193.442 2.064 1.858 3.87 2.65.17.074.328.14.477.197-.932.33-1.84.785-1.78 1 .077.27 1.613.073 2.715-.237.357-.1.627-.2.823-.3v1.73C4.07 36.32.68 38.81.68 41.19c.003 2.37 46.33 1.482 46.33.17zM32.08 15.29l-.696.256a1.754 1.754 0 0 1-2.25-1.04l-.127-.35 3.986-1.463.128.35a1.753 1.753 0 0 1-1.04 2.248z"/>
</svg>