<?xml version="1.0" encoding="UTF-8" standalone="yes"?>
<svg xmlns="http://www.w3.org/2000/svg" viewBox="0 0 48 48">
  <path d="M44.43 29.288c-.534-1.214-6.89.37-12.23 2.462.217-.35.438-.714.665-1.096 4.254-7.184 8.518-17.622 6.766-18.66-1.498-.887-6.918 5.4-11.117 11.734C28.35 13.668 26.393 1.122 24 1.122s-4.35 12.546-4.512 22.605c-4.2-6.334-9.618-12.62-11.118-11.732-1.75 1.037 2.512 11.475 6.766 18.66.227.38.448.746.666 1.095-5.34-2.093-11.698-3.677-12.23-2.462-.6 1.366 6.397 5.754 12 8.21.52.23 1.01.433 1.473.614-2.89 1.023-5.704 2.43-5.514 3.104.236.833 4.99.224 8.407-.74 1.105-.31 1.926-.62 2.545-.925v5.6a1.524 1.524 0 0 0 3.048 0v-5.6c.618.306 1.434.616 2.54.927 3.416.962 8.168 1.572 8.402.74.19-.673-2.625-2.08-5.515-3.105.462-.18.952-.384 1.473-.613 5.602-2.458 12.598-6.846 12-8.212z"/>
</svg>