<?xml version="1.0" encoding="utf-8"?>
<!-- Generator: Adobe Illustrator 16.0.0, SVG Export Plug-In . SVG Version: 6.00 Build 0)  -->
<!DOCTYPE svg PUBLIC "-//W3C//DTD SVG 1.1//EN" "http://www.w3.org/Graphics/SVG/1.1/DTD/svg11.dtd">
<svg version="1.1" id="Layer_1" xmlns="http://www.w3.org/2000/svg" xmlns:xlink="http://www.w3.org/1999/xlink" x="0px" y="0px"
	 width="100px" height="100px" viewBox="0 0 100 100" enable-background="new 0 0 100 100" xml:space="preserve">
<g>
	<g>
		<polygon points="5.749,54.735 7.773,54.34 9.301,52.728 8.041,51.659 		"/>
		<polygon points="24.783,41.058 25.415,40.935 25.784,38.102 22.114,38.161 22.871,38.67 23.217,40.443 		"/>
		<polygon points="32.105,43.932 31.827,42.499 30.231,42.598 29.345,43.869 		"/>
		<polygon points="5.094,50.954 4.197,50.781 4.826,52.286 5.532,51.792 		"/>
		<polygon points="5.49,48.089 3.81,46.488 3.23,47.096 3.493,48.503 4.335,49.304 		"/>
		<polygon points="1.286,50.108 1.263,50.82 2.247,50.85 2.257,50.497 1.775,50.125 		"/>
		<polygon points="35.827,40.323 36.222,42.349 38.269,42.738 38.461,39.809 37.044,39.56 		"/>
		<path d="M4.294,22.474l-1.058,1.747l1.171,1.507L3.936,25.75c1.985,1.933,4.951,2.723,7.761,1.786
			c4.011-1.337,6.179-5.671,4.844-9.682c-1.338-4.011-5.674-6.179-9.685-4.842c-1.021,0.34-1.921,0.876-2.675,1.55l1.311-0.199
			l-2.461,2.71l-0.48-0.436c-0.847,1.567-1.153,3.42-0.754,5.257l0.654,0.748L4.294,22.474z"/>
		<path d="M52.109,52.91c-0.392-0.283-0.771-0.557-1.14-0.823l-0.067,1.588l-2.011-3.066c-8.791-6.188-10.708-6.573-11.383-6.706
			c-0.994-0.199-2.825-0.11-5.458,0.254l-1.756,1.933l-1.547-1.405c-1.603,0.284-3.396,0.635-5.388,1.055l-0.282-0.85l-1.02,2.062
			l-1.773-0.245l-3.521,0.818l1.369-3.093l3.602-1.163l-7.132-1.934l6.02-2.883l-0.304-1.831c1.52,0.261,3.129,0.447,4.507,0.421
			l-0.041-1.574l1.516,0.896L28,35.625l-0.215,0.939c3.388-0.951,7.58-3.079,8.528-3.573c0.321-0.167,0.6-0.384,0.832-0.638
			c0.352-0.387,0.582-0.86,0.693-1.363l-1.052-1.443l0.504-1.005c-0.861-1.118-2.421-1.498-3.718-0.826
			c-2.457,1.277-6.707,3.164-8.465,3.363c-1.05,0.119-3.005-0.153-4.926-0.538c3.407-1.954,7.25-4.651,10.453-8.176
			c0.338-0.372,0.668-0.753,0.988-1.142c1.047-1.267,0.866-3.139-0.399-4.184c-0.048-0.039-0.102-0.064-0.151-0.1l-0.326,0.959
			l-1.109-1.522c-0.953-0.097-1.937,0.269-2.597,1.063c-0.585,0.708-1.207,1.382-1.854,2.022l-0.166,0.595l1.155,1.45l-2.04,0.075
			l-2.161,3.866l0.451-3.557c-1.599,1.26-5.687,6.046-10.582,6.096c0,0-0.84,0.026-1.647,0.315
			c-0.774,0.277-1.579,0.747-1.579,0.747l-0.021,0.011c-2.242,1.412-4.183,4.271-3.188,7.257l1.471,4.407l0.146,0.075l1.641-0.864
			l0.353,2.015l2.909,2.878l-3.996-0.944l2.82,8.462c0.712,2.141,2.567,3.341,4.633,3.703l2.412,4.096l0.841-2.115l1.095,3.494
			l-0.949,0.296l2.751,4.673l0.104,0.051l1.639-0.863l-0.306,2.019l1.658,0.944l-1.43,0.676l5.123,8.7
			c1.134,1.928,3.619,2.57,5.548,1.436c0.362-0.213,0.678-0.473,0.946-0.768c1.159-1.278,1.414-3.214,0.488-4.781l-3.252-5.523
			l-1.95,0.611l0.934-2.341l-7.462-12.668c2.644-0.575,5.642-1.155,8.076-1.561l-1.096-1.624l3.441,1.266
			c0.814-0.109,1.475-0.177,1.892-0.186c1.69,0.786,7.132,4.446,11.455,7.588c1.689,1.227,4.008,0.96,5.38-0.549
			c0.099-0.109,0.192-0.225,0.281-0.347C54.321,56.76,53.918,54.226,52.109,52.91z"/>
	</g>
	<path d="M97.959,34.341c-1.654-2.125-4.827-2.001-10.595-1.778c-1.172,0.046-2.362,0.092-3.525,0.115
		c2.055-1.259,3.527-3.422,3.795-6.006c0.458-4.402-2.74-8.34-7.144-8.796c-4.403-0.457-8.341,2.743-8.799,7.146
		c-0.356,3.465,1.555,6.635,4.529,8.054c-0.363,0.135-0.723,0.296-1.069,0.484l-25.915,0.043v-0.411h-3.534v0.417l-1.427,0.002
		l0.004,2.829l13.198-0.022c0.888,0.56,2.12,1.088,3.76,1.37c0.041,0.112,0.088,0.223,0.142,0.333
		c0.249,0.484,2.47,4.797,4.491,7.037c1.504,1.667,3.455,2.42,4.942,2.763l-0.811,8.387c-0.064,0.624-0.027,0.664,0.096,1.217
		c-3.866,3.143-7.958,7.354-7.914,11.08c0.039,3.315,2.269,13.806,2.715,15.876c0.372,1.724,1.897,2.902,3.591,2.902
		c0.258,0,0.517-0.027,0.779-0.083c1.984-0.428,3.246-2.384,2.818-4.37c-1.007-4.673-2.421-11.976-2.543-14.189
		c0.5-1.179,3.305-4.055,6.085-6.22c0.345,0.081,0.696,0.146,1.047,0.183c0.27,0.027,0.543,0.038,0.816,0.038
		c0.694,4.541,1.819,9.022,3.647,10.928c2.098,2.188,10.028,10.896,10.11,10.984c0.725,0.796,1.721,1.201,2.72,1.201
		c0.884,0,1.77-0.316,2.475-0.958c1.5-1.368,1.609-3.694,0.243-5.195c-0.326-0.357-7.9-8.672-10.165-11.042
		c-0.689-1.105-1.744-5.237-2.276-9.797c0.379-0.237,0.49-0.909,0.535-1.341l1.273-13.993c-2.722,0.196-6.248,0.219-9.521-0.473
		c-0.168-0.036-0.328-0.082-0.485-0.138c-1.719-0.617-2.729-2.431-2.352-4.221c0.209-0.985,0.796-1.794,1.577-2.309l0.551-0.296
		c0.68-0.298,1.45-0.397,2.229-0.232c5.122,1.083,12.236-0.069,14.208-0.808c0.141-0.13,0.522,1.01,0.522,1.01
		c-1.918,0.776-9.536,2.052-14.965,0.905c-1.372-0.29-2.726,0.591-3.019,1.964c-0.283,1.353,0.585,2.726,1.966,3.017
		c3.231,0.684,6.737,0.642,9.406,0.438l0.002-0.023c1.454-0.123,2.729-0.299,3.677-0.455c7.86-1.288,8.401-3.118,8.723-4.211
		C98.925,36.515,98.701,35.292,97.959,34.341z M71.466,41.624c-0.369-0.149-0.723-0.354-0.975-0.635
		c-0.575-0.635-1.252-1.651-1.872-2.672c1.493,0.087,2.59,0.15,3.171,0.182L71.466,41.624z"/>
</g>
<polygon points="43.037,35.281 42.967,35.284 42.735,35.945 42.488,35.231 41.836,36.083 42.499,34.624 41.626,35.03 41.891,34.557 
	40.528,34.902 41.613,34.347 41.002,33.925 41.905,34.284 41.863,33.979 42.234,34.094 42.678,33.007 42.995,33.501 42.995,33.501 
	43.1,30.489 42.116,33.7 41.128,31.065 41.497,33.762 38.378,32.523 40.963,34.304 37.74,35.952 41.22,35.071 40.83,35.77 
	41.82,35.308 40.316,38.617 42.375,35.928 43.188,38.267 "/>
</svg>
