<?xml version="1.0" encoding="utf-8"?>
<!-- Generator: Adobe Illustrator 16.0.0, SVG Export Plug-In . SVG Version: 6.00 Build 0)  -->
<!DOCTYPE svg PUBLIC "-//W3C//DTD SVG 1.1//EN" "http://www.w3.org/Graphics/SVG/1.1/DTD/svg11.dtd">
<svg version="1.1" id="Layer_1" xmlns="http://www.w3.org/2000/svg" xmlns:xlink="http://www.w3.org/1999/xlink" x="0px" y="0px"
	 width="100px" height="100px" viewBox="0 0 100 100" enable-background="new 0 0 100 100" xml:space="preserve">
<g>
	<path d="M55.061,22.644c6.018,0.396,11.217-4.161,11.613-10.179c0.056-0.842,0.004-1.666-0.125-2.465h-4.882
		c0,0,1.196-2.542,2.423-5.324c-1.846-2.169-4.527-3.623-7.594-3.825C50.478,0.455,45.278,5.012,44.882,11.03
		C44.485,17.048,49.042,22.248,55.061,22.644z"/>
	<path d="M87.334,45.333c-0.158-0.23-1.354-2.062-2.854-4.357L81.75,39.5l0.989-1.188c-2.194-3.355-4.456-6.802-4.989-7.556
		c-0.508-0.72-1.129-1.594-4.568-2.746l-1.432,2.864v-2h-6.5v-2.449c-1.8-1.016-3.725-2.158-7.518-2.971l-2.894,2.553l-2.45-2.936
		c-0.01,0.001-0.019,0.001-0.027,0.003C45.313,23,37.5,23.785,37.5,23.785L39,27l-3.743-3.081l-2.549,0.31
		c-1.052,0.146-2.58,1.345-3.133,1.998l-5.653,6.672l-0.297,2.726l-1.557-0.539l-2.815,3.322c-1.514,1.786-1.293,4.461,0.493,5.975
		c0.797,0.675,1.771,1.005,2.739,1.005c1.203,0,2.397-0.509,3.236-1.499l9.092-10.729l8.366-0.2l-0.361,5.486l2.039,1.179
		l-1.732,4.125l2.5,2.125H42.33l-0.671,10.19c-0.076,1.151,0.08,2.738,0.411,3.75c-0.041,0.209-0.932,12.677-0.932,12.677
		l2.049,2.133c0,0-1.005-0.02-2.187-0.036l-0.146,2.225c1.217,0.765,2.271,1.436,2.271,1.436l-2.339-0.401L40.579,81h1.296
		l-1.427,1.981l-0.091,1.383l-10.19,6.427c-2.341,1.476-3.041,4.57-1.565,6.911c0.953,1.511,2.58,2.338,4.243,2.338
		c0.913,0,1.838-0.25,2.668-0.773l12.35-7.789c1.356-0.855,2.222-2.309,2.326-3.909l0.778-11.837l-1.717-2.607l2.066-2.707
		l0.268-4.068c0.198,0.022,0.395,0.051,0.595,0.064c0.629,0.042,1.257,0.028,1.877-0.022l3.778,12.723
		c0.196,0.66,0.526,1.273,0.97,1.8l14.595,17.341c0.991,1.178,2.408,1.784,3.836,1.784c1.139,0,2.284-0.386,3.224-1.177
		c1.18-0.993,1.764-2.414,1.761-3.844c-0.656-0.117-1.309-0.25-1.844-0.394c-1.861-0.5-2.25-0.875-2.25-0.875l3.612-0.871
		c-0.002-0.004-0.004-0.009-0.006-0.014L74.5,88.5l1.248-3.013l-8.605-10.226l-1.042-3.508l-1.976-0.378l1.063-2.697l-2.256-7.595
		c0.574-1.057,0.947-2.242,1.033-3.549l0.518-7.871l-0.732-0.288l-1.375-5.5c0.147-0.177,1.678,0.764,2.432,0.864l0.195-2.969
		L63.5,39.625l1.687-0.656l0.278-4.226c2.557,0.582,4.771,1.164,5.83,1.58c1.002,1.447,2.834,4.233,4.589,6.927h4.491l-2.244,3.459
		l-0.001,0c1.259,1.944,2.175,3.368,2.21,3.418c0.822,1.199,2.149,1.843,3.501,1.843c0.826,0,1.66-0.241,2.394-0.743
		C88.165,49.903,88.657,47.265,87.334,45.333z"/>
</g>
</svg>
