<?xml version="1.0" encoding="utf-8"?>
<!-- Generator: Adobe Illustrator 16.0.0, SVG Export Plug-In . SVG Version: 6.00 Build 0)  -->
<!DOCTYPE svg PUBLIC "-//W3C//DTD SVG 1.1//EN" "http://www.w3.org/Graphics/SVG/1.1/DTD/svg11.dtd">
<svg version="1.1" id="Layer_1" xmlns="http://www.w3.org/2000/svg" xmlns:xlink="http://www.w3.org/1999/xlink" x="0px" y="0px"
	 width="100px" height="100px" viewBox="0 0 100 100" enable-background="new 0 0 100 100" xml:space="preserve">
<g>
	<path d="M56.227,29.043c0,2.597,1.063,4.945,2.777,6.636c2.296-0.188,4.305-0.503,5.601-0.789c0.349-0.077,0.705-0.115,1.059-0.115
		c1.791,0,3.407,1,4.267,2.501c2.944-1.568,4.95-4.666,4.95-8.234c0-2.722-1.173-5.163-3.032-6.868l-1.958,0.851l0.646-1.857
		c-1.443-0.915-3.149-1.453-4.983-1.453C60.401,19.715,56.227,23.892,56.227,29.043z"/>
	<path d="M91.182,47.387c-1.92-3.895-3.349-6.305-4.413-7.829h-1.624c0,0,0.577-1.35,0.426-1.538
		c-0.001-0.001-0.002-0.003-0.003-0.004c-0.178-0.182-4.469-0.739-4.469-0.739l1.936-0.96c-1.923-0.804-5.39-1.995-8.464-3.013
		c-0.906,1.991-2.417,3.645-4.303,4.729c0.07,0.195,0.143,0.39,0.188,0.596c0.586,2.646-1.087,5.278-3.73,5.868
		c-0.549,0.122-5.538,1.192-11.737,1.192c-1.046,0-2.06-0.037-3.051-0.098c-0.739-0.535-2.37-3.907-2.37-3.907
		c-0.938-1.767-3.131-2.438-4.896-1.5c-1.767,0.938-2.437,3.13-1.5,4.896c0,0,3.916,8.512,8.189,8.878
		c0.09,0.005,0.178,0.008,0.266,0.008c1.961,0,3.473-1.284,5.328-3.783v2.125c1.657,0.25,4.549,0.816,4.549,0.816l-4.549,3.22v3.782
		c0,0.985,0.194,2.403,0.532,3.247c-0.023,0.18-0.054,14.067-0.054,14.067c1.376,1.249,2.621,2.53,2.51,2.696
		c-0.117,0.176-1.337,0.174-2.51,0.128v1.561l-8.895,8.112c-1.746,1.593-1.871,4.3-0.278,6.046c0.845,0.926,2.002,1.396,3.163,1.396
		c1.03,0,2.063-0.37,2.883-1.117l10.291-9.385c0.89-0.812,1.396-1.959,1.396-3.163v-5.207l-3.16-1.606l3.159-1.775l-0.001-6.79
		c0.169,0.008,0.339,0.021,0.51,0.021c0.421,0,0.838-0.033,1.253-0.08l3.94,14.671c0.141,0.52,0.376,1.007,0.696,1.439l3.897,5.254
		l2.615-0.255l-0.578,1.271l2.774,0.81l-2.77,0.927l2.415,3.255c0.84,1.132,2.131,1.73,3.44,1.73c0.886,0,1.78-0.274,2.547-0.843
		c1.898-1.408,2.295-4.088,0.887-5.987L79.75,79.94l-1.847-6.874l-3.023-0.462l2.204-2.588l-1.787-6.652
		c0.475-0.973,0.75-2.058,0.75-3.239v-6.695l-3.388-2.081l3.388-0.527v-1.089L73.7,48.691l2.348-0.605v-6.633
		c1.993,0.689,3.617,1.277,4.315,1.583c0.81,0.982,2.744,4.353,4.324,7.555c0.631,1.279,1.916,2.02,3.25,2.02
		c0.538,0,1.083-0.12,1.6-0.374C91.329,51.352,92.067,49.18,91.182,47.387z"/>
	<circle cx="25.246" cy="21.165" r="9.91"/>
	<path d="M37.224,63.407c0.81-0.858,1.418-1.934,1.701-3.251l3.229-15.071c-0.291-0.903-0.308-1.872-0.023-2.8
		c0.367-1.199,1.179-2.183,2.287-2.771c0.675-0.359,1.435-0.549,2.197-0.549c1.743,0,3.332,0.955,4.149,2.493l0.706,1.34
		c0.295,0.563,0.603,1.144,0.892,1.67c1.026,0.064,2.036,0.093,3.016,0.093c6.133,0,11.108-1.079,11.504-1.167
		c2.072-0.462,3.376-2.515,2.917-4.588c-0.46-2.073-2.517-3.376-4.588-2.923c-0.089,0.02-0.202,0.041-0.298,0.061l-0.632,2.994
		l-2.171-2.524c-5.395,0.72-14.247,0.996-19.341-2.412c-0.985-1.814-2.665-3.263-4.393-4.101c0,0-0.955-0.524-2.046-0.733
		c-1.043-0.198-2.252-0.206-2.252-0.206l-0.029-0.002c-3.431,0.1-7.471,2.012-8.325,5.997l-4.682,21.44
		c-0.375,1.75-0.354,3.29,0.612,4.268c-0.038,0.166-0.09,0.324-0.111,0.497l-1.925,16.052L9.45,90.391
		c-1.629,2.11-1.238,5.142,0.873,6.77c0.878,0.678,1.915,1.006,2.944,1.006c1.446,0,2.875-0.646,3.826-1.878l10.98-14.23
		c0.532-0.689,0.868-1.509,0.971-2.374l1.037-8.647l3.164,6.996l-3.192,15.401c-0.542,2.61,1.136,5.165,3.746,5.706
		c0.331,0.068,0.66,0.102,0.985,0.102c2.24,0,4.25-1.568,4.722-3.848l3.512-16.939c0.207-1,0.092-2.039-0.329-2.969L37.224,63.407z"
		/>
	<polygon points="33.329,5.275 35.36,8.747 39.177,7.347 37.171,11.889 40.958,12.717 38.102,15.245 42.166,17.852 37.887,19.08 
		38.087,19.778 43.908,18.107 39.303,15.152 42.51,12.313 38.194,11.37 40.532,6.078 35.68,7.856 33.228,3.665 30.922,9.054 
		31.59,9.34 	"/>
</g>
</svg>
