<?xml version="1.0" encoding="utf-8"?>
<!-- Generator: Adobe Illustrator 16.0.0, SVG Export Plug-In . SVG Version: 6.00 Build 0)  -->
<!DOCTYPE svg PUBLIC "-//W3C//DTD SVG 1.1//EN" "http://www.w3.org/Graphics/SVG/1.1/DTD/svg11.dtd">
<svg version="1.1" id="Layer_1" xmlns="http://www.w3.org/2000/svg" xmlns:xlink="http://www.w3.org/1999/xlink" x="0px" y="0px"
	 width="100px" height="100px" viewBox="0 0 100 100" enable-background="new 0 0 100 100" xml:space="preserve">
<g>
	<path d="M80.578,49.339c-1.396,2.463-4.555,3.63-5.931,4.026l1.326,2.554c0.676,1.301,2.042,2.01,3.417,1.91
		c0.469-0.033,0.939-0.161,1.384-0.393c1.744-0.906,2.425-3.055,1.518-4.8L80.578,49.339z"/>
	<path d="M65.783,23.846c2.047-0.975,4.752-1.78,6.683-1.98c0.462-0.048,0.889-0.085,1.327-0.126
		c-0.413-2.11-1.684-3.909-3.429-5.031l-1.854,1.167l0.134-1.993c-0.774-0.26-1.601-0.407-2.463-0.407
		c-4.286,0-7.758,3.474-7.758,7.76c0,1.306,0.326,2.537,0.897,3.617C60.859,26.053,62.934,25.071,65.783,23.846z"/>
	<path d="M83.788,23.11c-0.415-0.228-1.096-0.816-4.9-0.795l-1.141,1.29l-0.822-1.233c-1.368,0.065-3.012,0.188-5.02,0.398
		c-1.843,0.192-4.42,0.991-6.277,1.874c-3.584,1.542-6.271,2.84-8.043,3.884l-0.181,2.159c0,0-0.557-0.642-1.109-1.32
		c-0.41,0.297-0.743,0.573-0.946,0.811c-1.481,1.744-2.428,6.023-2.861,8.418c-0.296,1.636,0.791,3.202,2.428,3.499
		c0.182,0.033,0.362,0.049,0.54,0.049c1.025,0,1.961-0.531,2.509-1.366c-0.101,0.662-0.023,1.353,0.263,1.992l5.429,12.116
		l2.451-0.379c0,0-0.907,1.314-1.459,2.175c0.678,0.758,1.648,1.189,2.653,1.189c0.487,0,0.981-0.101,1.454-0.313
		c1.794-0.805,2.597-2.91,1.793-4.704l-0.617-1.376c3.907,2.529,10.896-0.509,11.28-6.257c0.551-8.867-0.943-13.577-2.979-16.837
		c1.202-0.021,2.19,0.002,2.722,0.085c0.802,0.738,2.702,3.227,4.276,5.618c0.101,0.153,0.226,0.278,0.348,0.406l0.925-2.072
		l0.909,2.982c0.113,0.013,0.224,0.041,0.337,0.041c0.568,0,1.143-0.16,1.653-0.496c1.389-0.914,1.774-2.782,0.861-4.171
		C88.335,27.845,85.646,24.133,83.788,23.11z M64.226,35.684c0.454,1.051,1.022,2.329,1.712,3.862l-1.768-0.872l-0.13,2.12
		l-1.303-2.798c-1.277-0.487-2.734-0.21-3.733,0.755c-0.216,0.208-0.392,0.444-0.546,0.69c0.422-2.245,1.087-4.644,1.442-5.295
		c0.476-0.35,1.62-0.957,3.076-1.666c0.106,0.42,0.385,1.157,0.821,2.197c1.108,0,2.309,0,2.309,0L64.226,35.684z"/>
	<path d="M53.377,30.995c-0.829-0.564-1.617-1.178-1.91-2.244c-0.483-1.754,0.041-3.52,1.301-4.78
		c0.577-0.577,1.425-0.926,2.181-1.197c1.164-0.417,1.331-2.248,1.326-3.86l-19.753-0.052c-0.406-0.102-2.275,0.135-2.701,0.386
		c-2.649,0.941-4.44,3.555-5.06,6.05c0,0-0.296,0.979-0.275,2.022c0.02,0.997,0.249,2.109,0.249,2.109l0.003,0.026
		c0.167,0.694,0.438,1.393,0.775,2.069c-3.998,5.108-11.195,7.265-11.625,7.39c-1.919,0.547-3.032,2.546-2.484,4.466
		c0.453,1.588,1.9,2.623,3.474,2.623c0.327,0,0.66-0.045,0.991-0.14c4.428-1.262,11.049-4.552,15.324-10
		c0.224,0.026,0.438,0.075,0.673,0.075l15.85,0.041C52.13,34.208,52.68,32.397,53.377,30.995z"/>
	<path d="M94.16,22.619l-9.463,0.007c1.625,1.226,3.687,3.753,6.198,7.573c0.46,0.701,0.676,1.492,0.665,2.273l2.885-0.003
		c2.72-0.08,4.861-2.348,4.782-5.068C99.149,24.684,96.881,22.529,94.16,22.619z"/>
	<path d="M10.955,32.044c1.701,1.981,4.216,3.243,7.032,3.251c5.14,0.013,9.317-4.142,9.331-9.282
		c0.007-2.718-1.158-5.158-3.011-6.865c-0.334,0.285-0.698,0.534-1.066,0.775c-0.187,1.129-0.994,2.124-2.4,2.234
		c-0.443,0.459-1.072,0.765-1.902,0.765c-0.788,0-1.392-0.277-1.834-0.696c-0.414,0.307-0.933,0.507-1.589,0.507
		c-1.533,0-2.407-1.017-2.63-2.18c-0.562-0.281-1.106-0.599-1.611-0.973c-1.582,1.664-2.562,3.906-2.569,6.384
		C8.7,27.87,9.271,29.642,10.25,31.12C10.541,31.395,10.78,31.703,10.955,32.044z"/>
	<path d="M21.727,61.657c-1.826-0.938-4.75-1.502-5.359-3.38c-1.34-3.382,5.482-5.354,4.385-8.36
		c-0.73-1.784-4.385-1.69-5.603-3.099c-1.157-1.339-0.154-2.186-0.367-3.758c-0.244-2.629-1.461-6.065-2.436-6.387
		s-8.184,2.865-6.578,7.891c1.218,3.85,4.873,3.474-0.244,7.138c-2.324,1.676-6.436,4.711-4.02,8.077
		C2.594,61.407,4.307,61,4.672,62.503c0.486,1.879-2.192,4.885-2.923,6.669c-6.7,18.034,41.419,21.979,31.064,2.067
		C30.742,67.011,26.479,64.007,21.727,61.657z"/>
	<path d="M62.046,57.035c-0.078-1.33-0.159-2.705-0.901-3.756c-1.286-1.929-2.199-1.9-3.338-1.208
		c-0.497,0.302-0.824,0.5-1.565,0.151c-0.038-0.016-0.06-0.04-0.095-0.057c-0.128-1.63-0.216-3.259,0.545-3.893
		c0.543-0.452,1.603-0.47,3.147-0.054c0.025,0.007,0.048,0,0.072,0.005l-0.694-1.55c-1.514-0.265-2.652-0.107-3.416,0.528
		c-0.768,0.639-1.04,1.606-1.107,2.697c-0.167-0.314-1.052-1.987-4.178-3.042c0,0-1.916-0.633-2.591-0.787
		c-2.308-0.523-3.69-0.963-3.45-2.648c0.211-1.485,2.344-2.367,5.541-0.668c2.256,1.045,4.814,2.228,6.4,1.452
		c0.103-0.05,0.212-0.12,0.323-0.206c-0.458-0.26-0.872-0.583-1.236-0.97c-1.136,0.197-3.369-0.779-4.901-1.488
		c-1.763-0.86-6.956-2.697-7.607,1.683c-0.439,3.078,2.652,3.736,4.623,4.204c2.126,0.505,5.283,1.205,6.147,3.787
		c0.226,0.551,0.506,1.187,1.045,1.697c0.107,1.39,0.171,2.756-0.343,3.333c-0.195,0.218-0.5,0.332-0.934,0.346
		c-0.96,0.013-1.382-0.573-1.999-1.563c-0.495-0.796-1.056-1.698-2.159-1.959c-1.024-0.192-1.849,0.234-2.107,0.629
		c-0.795,1.216-0.01,3.307,1.877,6.077l0.234,0.344c1.656,2.208,1.459,2.788,1.404,2.881c-0.179,0.435-2.454,0.345-2.426,0.347
		c-0.372,0.01-0.665,0.318-0.655,0.689c0.009,0.366,0.308,0.655,0.672,0.655c0.026,0,0.692,0.062,1.689-0.053
		c0.8-0.053,1.535-0.288,1.916-0.924c0.717-1.203-0.349-2.916-1.464-4.4l-0.219-0.325c-3.419-4.149-1.903-4.688-1.21-4.56
		c0.513,0.122,0.862,0.684,1.267,1.333c0.598,0.963,1.398,2.299,3.227,2.219c0.822-0.027,1.47-0.299,1.925-0.809
		c0.739-0.826,0.822-2.075,0.753-3.469c1.059,0.285,1.779-0.14,2.275-0.443c0.524-0.316,0.663-0.401,1.467,0.807
		c0.524,0.742,0.59,1.863,0.66,3.05c0.091,1.536,0.193,3.276,1.319,4.684c0.138,0.172,0.339,0.261,0.544,0.261
		c0.153,0,0.306-0.049,0.435-0.152c0.3-0.241,0.349-0.679,0.109-0.979C62.213,59.869,62.128,58.428,62.046,57.035z"/>
</g>
</svg>
