<?xml version="1.0" encoding="UTF-8" standalone="yes"?>
<svg xmlns="http://www.w3.org/2000/svg" viewBox="0 0 100 100">
  <path d="M80.718 63.627a77.12 77.12 0 0 1-4.584.827l-2.61 2.26-.268-1.883a64.19 64.19 0 0 1-2.034.2l-.78 1.684-1.794-1.537c-1.388.032-2.463-.035-3.034-.22-1.466-.73-4.388-2.47-7.603-4.45.25-.83.436-1.668.544-2.488 0 0 .18-1.01.155-2.264a20.808 20.808 0 0 1-14.985-13.798l-20.274 2.25L26.5 50l-7.99-5.243-4.1.455-4.785 2.663-5.88 1.88C2.232 51.68 1.252 54.085.842 56.58l3.58 1.285s-1.787 1.27-3.745 2.698c.012.135.013.272.028.406.127 1.15.38 2.29.746 3.393.016.046.037.093.05.14 2.606.012 5.096.034 5.096.034l-.63 6.622 6.134.57-1.217 2.34 3.282-.36 33.823-3.757c.66-.073 1.283-.217 1.883-.4 4.137 2.565 8.39 5.128 10.53 6.182 2.085 1.026 5.018 1.393 8.145 1.393.9 0 2.73-.087 2.73-.087l-.017-2.347 6.336 1.667c.39-.06.773-.12 1.146-.18l2.312-4.116L84.2 75.03a5.98 5.98 0 0 0 3.62-6.798 5.982 5.982 0 0 0-7.102-4.605z"/>
  <path d="M62.418 53.614c8.462-.94 14.56-8.563 13.62-17.024-.94-8.463-8.56-14.56-17.023-13.622-1.473.164-2.868.54-4.173 1.08l-1.63 2.763-.937-1.404a15.424 15.424 0 0 0-3.164 2.764l-.794 7.166s-.983-.558-2.397-1.368a15.377 15.377 0 0 0-.525 6.025c.94 8.462 8.56 14.56 17.024 13.62zM95.773 27.71l-5.985-2.72a5.987 5.987 0 0 0-4.477-.194l-1.445.572v3.256l-1.844-2.527-6.957 2.75c1.868 3.648 2.77 7.592 2.795 11.684.092-.025.185-.037.276-.07l8.9-3.573 3.785 1.72c3.01 1.524 5.777-.46 5.777-.46a5.938 5.938 0 0 0 1.588-1.54c-.174.235 3.907-6.177-2.41-8.896z"/>
</svg>