<svg xmlns="http://www.w3.org/2000/svg" width="100" height="100" viewBox="0 0 100 100"><path d="M20.575 57.417h2.803l2.452-1.752-1.4-1.752zM49.498 44.138h.875l1.227-3.68-4.906-.875.877.876v2.452zM58.51 49.872V47.89l-2.154-.284-1.51 1.464zM20.687 52.208l-1.152-.464.445 2.17 1.07-.476zM68.05 38.76h3.153v-1.14l-1.576-1.138H68.05zM21.96 48.493l-1.826-2.57-.93.658-.014 1.946.913 1.286zM15.828 50.09l-.215.943 1.305.297.106-.47-.545-.62zM64.405 46.03v2.803l2.628 1.05 1.017-3.853-1.82-.7zM27.534 14.044l-1.863 2.054 1.168 2.313-.635-.092c2.144 3.092 5.89 4.916 9.88 4.398 5.693-.74 9.71-5.952 8.97-11.645-.738-5.692-5.952-9.708-11.645-8.97-1.45.19-2.788.67-3.968 1.372l1.797.075-3.984 2.972-.526-.707a10.358 10.358 0 0 0-2.37 6.81l.675 1.167 2.502.254z"/><path d="M81.53 65.645l-.503 2.1-1.883-4.61C69.037 52.6 66.58 51.59 65.717 51.236c-1.273-.522-3.736-.88-7.34-1.08l-2.842 2.12-1.696-2.275c-2.21-.037-4.69-.036-7.455.006l-.157-1.207-1.894 2.484-2.3-.79-4.904.176 2.628-3.766 5.103-.613-9-4.43 8.772-2.278.073-2.52c1.956.744 4.053 1.41 5.896 1.733l.355-2.107 1.787 1.588 2.456-.544-.528 1.195c4.762-.386 10.902-2.133 12.294-2.544.472-.14.9-.356 1.272-.634a4.025 4.025 0 0 0 1.28-1.637l-1.027-2.197.934-1.207a4.03 4.03 0 0 0-4.74-2.068c-3.607 1.062-9.762 2.472-12.155 2.28-1.432-.114-3.967-.985-6.426-1.997 5.05-1.72 9.87-4.813 15.056-8.68a41.35 41.35 0 0 0 1.615-1.264 4.034 4.034 0 0 0 .556-5.678c-.053-.064-.118-.113-.175-.173l-.685 1.193-1.084-2.318a4.04 4.04 0 0 0-3.735.743 36.704 36.704 0 0 1-2.996 2.212l-.877.6 1.663 2.382-2.74-.43-3.883 4.59 1.526-4.623c-6.268 3.223-11.622 7.957-18.986 6.22-3.584.395-6.993 4.84-6.442 9.08l.813 6.254.178.138 2.41-.724-.054 2.777 3.127 4.593-5.08-2.298 1.56 12.012c.393 3.038 2.552 5.12 5.21 6.14l2.15 6.085 1.672-2.6.55 4.94-1.343.148 2.45 6.943.124.095 2.41-.724-.935 2.61 1.965 1.688-2.082.53 4.565 12.926a5.504 5.504 0 0 0 8.48 2.58 5.504 5.504 0 0 0 1.896-6.245l-2.898-8.208-2.76.307 1.853-2.878-6.653-18.822c3.672-.08 7.82-.072 11.17.02l-1.04-2.45 4.26 2.583c1.114.066 2.01.147 2.57.244 2.046 1.486 8.344 7.78 13.292 13.09a5.504 5.504 0 0 0 7.776.28 5.502 5.502 0 0 0 .277-7.777c-.447-.48-.88-.943-1.304-1.395zM54.58 5.24h28.117v1.05H54.58zM73.71 11.807h12.22v1.05H73.71zM67.602 19.026h12.22v1.05H67.6z"/></svg>