<?xml version="1.0" encoding="utf-8"?>
<!-- Generator: Adobe Illustrator 16.0.0, SVG Export Plug-In . SVG Version: 6.00 Build 0)  -->
<!DOCTYPE svg PUBLIC "-//W3C//DTD SVG 1.1//EN" "http://www.w3.org/Graphics/SVG/1.1/DTD/svg11.dtd">
<svg version="1.1" id="Layer_1" xmlns="http://www.w3.org/2000/svg" xmlns:xlink="http://www.w3.org/1999/xlink" x="0px" y="0px"
	 width="100px" height="100px" viewBox="0 0 100 100" enable-background="new 0 0 100 100" xml:space="preserve">
<g>
	<path d="M28.332,36.692l1.272,0.823l-0.87,1.975c0.498,2.154,1.476,4.188,3.341,5.625c0.449,0.347,0.979,0.514,1.506,0.514
		c0.741,0,1.473-0.331,1.959-0.962c0.522-0.677,0.61-1.53,0.357-2.284c1.206,1.216,2.868,1.979,4.716,1.984
		c3.692,0.009,6.692-2.975,6.702-6.667c0.005-1.952-0.832-3.705-2.163-4.931c-0.648,0.55-1.375,1.012-2.192,1.323
		c-0.863,0.327-1.765,0.494-2.681,0.494c-1.649,0-3.21-0.56-4.488-1.506c-1.136,1.195-1.84,2.806-1.845,4.585
		c-0.003,1.198,0.325,2.314,0.876,3.289c-2.06-1.997-1.667-6.75-1.361-9.484c0.324-0.585,0.528-1.233,0.644-1.887
		c1.018,2.38,3.37,4.054,6.123,4.062c3.692,0.01,6.692-2.975,6.702-6.667c0.005-1.816-0.717-3.462-1.889-4.67h-3.025l1.043-1.405
		c-0.852-0.396-1.796-0.624-2.796-0.627c-3.327-0.009-6.082,2.419-6.603,5.6c-0.232-0.472-0.48-0.872-0.48-0.872l-0.01-0.016
		c-0.53-0.769-1.281-1.47-2.148-1.968l-1.417,0.387v-0.965c-0.821-0.196-1.695-0.186-2.573,0.148l-7.785,2.958l0.26,1.413h-1.783
		v2.387l-2.273-2.358l-1.552,0.59c-2.854,1.083-3.543,4.589-2.544,7.214c0.159,0.421,0.365,0.825,0.606,1.207
		c0.088,0.218,0.195,0.431,0.339,0.631c1.498,2.065,2.946,4.445,3.764,6.104c-0.487-0.038-1.051-0.102-1.645-0.177l0.78,1.808
		c0,0-1.056-1.02-2.126-1.994c-2.504-0.375-5.508-0.959-8.166-1.592c-1.589-0.38-3.197,0.606-3.577,2.202
		c-0.379,1.596,0.606,3.197,2.202,3.577c0.576,0.137,1.107,0.256,1.646,0.378c1.017-1.276,2.002-2.572,2.002-2.572l0.747,3.163
		c4.238,0.854,7.116,1.16,9.088,1.16c0.393,0,0.745-0.013,1.07-0.036l-0.807-2.539l2.965,2.127c0.736-0.279,1.091-0.634,1.352-0.906
		c0.538-0.558,1.462-1.525,0.954-4.007l-1.394-1.025h1.121c-0.436-1.391-1.249-3.159-2.662-5.446l1.557-0.451
		c-0.032-0.936-0.025-1.777,0.116-1.564c0.126,0.189,0.577,0.701,1.052,1.226l1.324-0.383v-0.876l0.651,0.688l3.972-1.15
		C28.265,35.102,28.281,35.893,28.332,36.692z"/>
	<path d="M95.323,35.263L72.5,35.28c-0.851-1.499-2.287-2.673-4.258-2.678l-14.317-0.038c-0.292-0.073-1.634,0.097-1.939,0.277
		c-1.903,0.676-3.189,2.553-3.634,4.346c0,0-0.212,0.704-0.198,1.453c0.014,0.716,0.179,1.515,0.179,1.515l0.002,0.019
		c0.121,0.498,0.314,1,0.557,1.485c-2.872,3.669-8.041,5.218-8.35,5.308c-1.378,0.393-2.177,1.829-1.784,3.208
		c0.325,1.141,1.365,1.884,2.495,1.884c0.235,0,0.475-0.033,0.712-0.101c3.18-0.907,7.935-3.269,11.006-7.182
		c0.161,0.018,0.315,0.053,0.484,0.054L68.21,44.87c1.847,0.005,3.287-1.049,4.181-2.506l23.137-0.026
		c1.954-0.057,3.492-1.686,3.435-3.64C98.906,36.746,97.277,35.198,95.323,35.263z"/>
	<path d="M43.299,63.301c-1.312-0.674-3.412-1.079-3.849-2.428c-0.962-2.429,3.938-3.845,3.15-6.004
		c-0.525-1.282-3.15-1.214-4.024-2.226c-1.05-1.214-0.088-1.417-0.263-2.699c-0.175-1.889-1.14-3.762-1.75-4.087
		s-5.734,2.065-4.725,5.167c0.875,2.766,3.5,2.496-0.175,5.127c-2.712,1.956-5.163,2.631-2.887,5.801
		c0.7,0.81,2.012,0.877,2.274,1.957c0.35,1.349-1.575,3.508-2.1,4.79c-4.812,12.953,29.749,15.786,22.312,1.485
		C49.774,67.147,46.712,64.989,43.299,63.301z"/>
	<path d="M38.312,46.188c0,0-0.03,0.635,0.323,0.902c0.353,0.268,0.662,0.208,0.837-0.023c0.175-0.23,0.148-0.545-0.205-0.813
		S38.312,46.188,38.312,46.188z"/>
	<path d="M37.234,44.962c0,0-0.016,0.36,0.183,0.51c0.2,0.152,0.376,0.118,0.475-0.013c0.1-0.13,0.084-0.309-0.115-0.46
		C37.577,44.847,37.234,44.962,37.234,44.962z"/>
	<polygon points="23.452,37.507 23.452,37.495 23.443,37.498 	"/>
	<path d="M10.936,40.759c-0.116-0.076-0.208-0.125-0.256-0.125L10.936,40.759z"/>
</g>
</svg>
