<svg xmlns="http://www.w3.org/2000/svg" width="100" height="100" viewBox="0 0 100 100"><path d="M99.187 74.955l-3.022-9.728-1.822-.27 1.05-2.216-.62-2h-1.26l.65-1.965-1.56-5.013c.974-1.543 1.286-3.44.325-5.15l-3.21-5.715-1.75.667.143-3.528-1.87-.67-5.954 2.932 6.118-5.302-.677-1.206c-1.342-2.388-4.317-2.812-6.54-2.193l-.02.007s-.773.245-1.404.58c-.658.352-1.168.88-1.168.88-.126.117-.25.245-.37.376-.043-.086-.08-.174-.127-.26a6.638 6.638 0 0 0-4.508-3.265l-.354 1.353-2.244-1.357c-.424.085-.843.212-1.252.382l.574 3.565-3.694-.913a6.66 6.66 0 0 0 10.892 7.632l.36.643c-.492 1.215-1.017 2.31-1.465 2.878-.59.75-2.095 1.907-3.647 2.972 2.19.912 4.343 1.756 3.728 1.666-.644-.095-3.422-.39-5.354-.59l-.533.333.695.263.326 2.03-2.48 1.592c-.095.735 1.344 1.265 2.227 1.265.45 0 .904-.118 1.32-.364.968-.577 5.9-3.575 7.784-5.964a8.7 8.7 0 0 0 .455-.646l2.37 4.217c-3.455 2.495-5.995 4.492-7.61 5.983l1.606.693-3.54 1.5c-.32.564-.998 2.102-1.886 8.306l1.37.35-1.57 1.1c-.056.426-.113.87-.17 1.335l3.63 1.002-3.95 1.694-.084.756a3.528 3.528 0 1 0 7.014.768c.504-4.626 1.33-10.273 1.813-11.82 1.05-1.108 5.144-4.266 8.562-6.703l5.97 19.216a3.528 3.528 0 0 0 4.415 2.32 3.535 3.535 0 0 0 2.322-4.418z"/><path d="M59.807 40.648a2.587 2.587 0 0 0 .756 5.118c1.5-.22 3.35-.585 4.914-1.075-1.185-1.122-2.166-2.83-2.55-4.725-1.063.303-2.11.535-3.12.683z"/><circle cx="32.377" cy="27.262" r="6.789"/><path d="M57.59 27.235l2.756 4.923 4.324-4.762-4.007-3.637a1.2 1.2 0 0 0-.283-1.38c-.396-.36-.962-.4-1.4-.148l-.467-.424-2.673 2.944.42.382L45.732 36.27a2.585 2.585 0 0 0-2.157.43c-.772.507-4.783 2.03-6.292 2.602l-.828.314c-1.435-.698-4.7-3.277-5.41-4.027a2.583 2.583 0 0 0-.383-.337 7.2 7.2 0 0 0-1.356-1.468s-.557-.5-1.25-.808a9.966 9.966 0 0 0-1.474-.487l-.018-.006c-2.307-.466-5.3.182-6.488 2.708l-6.382 13.56a4.584 4.584 0 0 0-.338 2.93l-1.74 10.885L2.09 69.2a3.345 3.345 0 0 0-.835 4.662 3.338 3.338 0 0 0 2.75 1.435c.66 0 1.327-.195 1.91-.6l10.696-7.448a3.356 3.356 0 0 0 1.394-2.22l1.127-7.058c.104.165.214.325.347.473l6.04 6.744-2.19 9.397a3.35 3.35 0 1 0 6.523 1.52l2.584-11.094a3.346 3.346 0 0 0-.767-2.994L24.81 54.36c.055-.1.11-.196.16-.3l2.76-5.862c.646.744 1.312 1.118 2.093 1.245.516.084 1.457.16 2.543.22-.44.367-.483.78.804 1.213 2.686.902 2.182-.116 2.627-.605l.465-.493h.257c.753 0 1.39-.015 1.798-.05a2.64 2.64 0 0 0 2.394-2.86 2.63 2.63 0 0 0-.482-1.282l2.653-2.804c1.944-.784 3.165-1.354 3.804-1.826.99-.73 1.318-2.03.877-3.12L57.59 27.234zM31.41 44.322c-.274-.454-.605-1.15-.946-1.936l.128-.272c1.216.917 2.613 1.824 3.947 2.36a68.548 68.548 0 0 1-3.13-.152zM74.88 28.363c.833.083 1.316-.167 1.657 0 .34.166 0 1.498 0 1.498l1.257-1.54.333-1.008-1.25-.53h-1.164s-1.664 1.497-.832 1.58zM67.092 28.32s-1.165 2-.832 2.082c.334.083 3.08 0 3.08 0l-1.57-1.665-.678-.416zM66.646 24.238s1.996.02 2.413-.146c.416-.167-.418 1.166-.418 1.166l2.498-2.165-2.33-1-2.663.418-1.748 3.164h2.246v-1.436zM75.22 20.597l-2.544 9.858.65.145z"/><path d="M62.433 35.687l-7.628.333 7.628.333z"/></svg>