<?xml version="1.0" encoding="UTF-8" standalone="yes"?>
<svg xmlns="http://www.w3.org/2000/svg" viewBox="0 0 100 100">
  <path d="M99.187 74.955l-3.022-9.728-1.822-.27 1.05-2.216-.62-2h-1.26l.65-1.964-1.56-5.013c.974-1.543 1.286-3.44.325-5.15l-3.21-5.715-1.75.667.143-3.528-1.87-.67-5.953 2.932 6.118-5.303-.677-1.206c-1.342-2.387-4.317-2.81-6.54-2.192l-.02.007s-.773.245-1.404.58a5.35 5.35 0 0 0-1.168.88c-.126.117-.25.245-.37.376-.043-.085-.08-.173-.127-.26a6.638 6.638 0 0 0-4.51-3.264l-.353 1.353-2.244-1.358a6.682 6.682 0 0 0-1.252.382l.575 3.565-3.694-.914a6.66 6.66 0 0 0 10.893 7.632l.36.643c-.492 1.216-1.017 2.31-1.465 2.88-.59.75-2.095 1.906-3.647 2.97 2.19.913 4.344 1.757 3.73 1.667-.645-.095-3.423-.39-5.355-.59l-.533.333.695.263.326 2.03-2.48 1.592c-.095.735 1.344 1.265 2.227 1.265.45 0 .904-.118 1.32-.364.968-.577 5.9-3.575 7.784-5.964a8.7 8.7 0 0 0 .455-.646l2.37 4.217c-3.456 2.495-5.996 4.492-7.61 5.983l1.605.693-3.54 1.5c-.32.563-.998 2.1-1.886 8.305l1.37.35-1.57 1.1c-.057.426-.114.87-.17 1.335l3.63 1.002-3.95 1.694-.085.756a3.528 3.528 0 1 0 7.014.768c.503-4.626 1.33-10.273 1.812-11.82 1.05-1.108 5.144-4.266 8.562-6.703l5.97 19.216a3.528 3.528 0 0 0 4.415 2.32 3.535 3.535 0 0 0 2.32-4.418z"/>
  <path d="M59.807 40.648a2.587 2.587 0 0 0 .756 5.118c1.5-.22 3.35-.585 4.914-1.075-1.185-1.12-2.166-2.83-2.55-4.724a24.29 24.29 0 0 1-3.12.683zM57.59 27.235l2.756 4.923 4.324-4.762-4.007-3.637a1.2 1.2 0 0 0-.283-1.38c-.396-.36-.962-.4-1.4-.15l-.467-.423-2.673 2.944.42.383L45.732 36.27a2.585 2.585 0 0 0-2.157.43c-.772.507-4.783 2.03-6.292 2.602l-.828.314c-1.435-.698-4.7-3.277-5.41-4.027a2.583 2.583 0 0 0-.383-.338 7.2 7.2 0 0 0-1.356-1.468s-.557-.5-1.25-.808a9.966 9.966 0 0 0-1.474-.487l-.018-.007c-2.307-.466-5.3.182-6.488 2.708l-6.382 13.56a4.584 4.584 0 0 0-.338 2.93l-1.74 10.886L2.09 69.2a3.345 3.345 0 0 0-.835 4.662 3.338 3.338 0 0 0 2.75 1.435 3.34 3.34 0 0 0 1.91-.6L16.61 67.25a3.356 3.356 0 0 0 1.395-2.22l1.127-7.06c.104.166.214.326.347.474l6.04 6.744-2.19 9.397a3.35 3.35 0 1 0 6.522 1.52l2.584-11.094a3.346 3.346 0 0 0-.767-2.993l-6.86-7.657c.055-.1.11-.196.16-.3l2.76-5.862c.646.744 1.312 1.118 2.093 1.245.516.084 1.457.16 2.543.22-.44.367-.483.78.804 1.213 2.686.902 2.182-.116 2.627-.605l.465-.492h.257c.752 0 1.39-.015 1.797-.05a2.64 2.64 0 0 0 2.394-2.86 2.63 2.63 0 0 0-.48-1.282l2.652-2.804c1.944-.784 3.165-1.354 3.804-1.826a2.65 2.65 0 0 0 .877-3.12L57.59 27.234zM31.41 44.322c-.274-.454-.605-1.15-.946-1.936l.128-.272c1.216.917 2.613 1.824 3.947 2.36a68.548 68.548 0 0 1-3.13-.152zm43.47-15.96c.833.084 1.316-.166 1.657 0 .34.167 0 1.5 0 1.5l1.257-1.54.333-1.01-1.25-.53h-1.164s-1.664 1.498-.832 1.58zm-7.788-.042s-1.165 2-.832 2.082c.334.083 3.08 0 3.08 0l-1.57-1.665-.678-.416zm-.446-4.082s1.996.02 2.413-.146c.415-.167-.42 1.166-.42 1.166l2.5-2.165-2.33-1-2.664.418-1.748 3.165h2.246V24.24zm8.574-3.64l-2.544 9.857.65.145z"/>
  <path d="M62.433 35.687l-7.628.333 7.628.333z"/>
  <circle cx="32.377" cy="27.262" r="6.789"/>
</svg>