<?xml version="1.0" encoding="UTF-8" standalone="yes"?>
<svg xmlns="http://www.w3.org/2000/svg" viewBox="0 0 100 100">
  <path d="M3.084 50.098h1.62l1.415-1.012-.81-1.01zm15.59-8.376l1.11.708h.51L21 40.306l-2.832-.506.506.506zm2.258 6.18l-.73 1.035v1.79l1.948-1.083 1.383-.602-.12-1.684-1.888-.457-.545 1.238zm-2.444-2.034l-.74-.097-.518.505.63.276zm.34-2.2l-.635-.348-.23 1.284.994-.2zM3.148 47.09l-.664-.268.256 1.253.617-.275zm.735-2.146L2.83 43.46l-.535.38-.01 1.124.526.742zm-3.54.923l-.124.544.752.174.06-.27-.314-.36zm22.663-3.443l-.693-.266-.694.266v1.065l.996.397zm-8.338-3.04H13.09l-.695.267v1.066l1.01-.466zm0 3.512l1.824.063.06-2.19-1.193.793-.693.267zm4.738 6.19h-.744l-2.36-.706.772-.932-2.984.626 1.27-3.49-1.27 1.12-2.34-3.98c-.07.022-.14.033-.21.056a6.098 6.098 0 0 0-4.083 4.907l1.652.613-1.71.58c.026.546.124 1.097.306 1.64a6.107 6.107 0 0 0 11.7-.434zM47.04 73.6l-6.435-1.616-.92.936-1.594-1.567-7.396-1.858c.064-.496-.736-3.103-.87-3.634l-.015.03-3.108.886 2.302-1.958-1.936-2.064 1.547-.536-1.768-5.444c5.326-2.245 13.293-5.34 13.383-5.375a2.373 2.373 0 0 0 1.352-3.07 2.364 2.364 0 0 0-3.068-1.35c-.266.103-4.33 1.683-8.584 3.4l-.18 1.547-2.277-.547c-1.063.436-2.095.864-3.032 1.264-1.116-.714-2.524-.98-3.75-.875 0 0-.67.02-1.315.254-.615.224-1.26.6-1.26.6l-.014.01c-1.784 1.133-3.32 3.418-2.52 5.797l.42 1.24.907-.885-.31 2.663 1.76 5.204 1.892-1.847-.36 3.122-1.148-.134L19.89 71.2c.362 1.074 1.087 1.847 1.983 2.345l3.396 9.976.62-.32 1.172 2.27-1.216-.253 2.35 6.905a3.232 3.232 0 0 0 6.12-2.083L29.49 75.86l15.98 4.013a3.23 3.23 0 0 0 3.924-2.348A3.24 3.24 0 0 0 47.04 73.6zm15.48-24.492a2.654 2.654 0 0 0 2.123-2.315c.39-3.61 1.05-8.034 1.447-9.178.518-.554 2.3-1.863 4.154-3.064 1.19 5.363 1.95 6.27 2.238 6.613 1.076 1.278 5.934 5.356 7.396 6.575a2.643 2.643 0 0 0 1.697.614 2.65 2.65 0 0 0 1.697-4.686c-2.688-2.24-5.875-5-6.637-5.808-.506-1.095-1.514-5.6-2.168-9.28a12.05 12.05 0 0 0-.45-1.44l-3.608-8.514c-1.535.995-3.594 2.147-5.734 2.8a2.47 2.47 0 0 1-3.072-1.637 2.464 2.464 0 0 1 1.64-3.072c3.35-1.02 7.147-3.995 8.063-5.065.04-.12.633.424.633.424-.872 1.074-4.925 4.284-8.478 5.366a1.708 1.708 0 0 0-1.133 2.126 1.71 1.71 0 0 0 2.123 1.133c2.115-.645 4.156-1.8 5.654-2.785L70.1 17.9a31.473 31.473 0 0 0 2.01-1.455c4.19-3.296 3.915-4.543 3.75-5.288a2.476 2.476 0 0 0-1.444-1.767c-1.656-.712-3.48.387-6.785 2.382-1.112.673-2.255 1.357-3.343 1.934.8-1.403.963-3.147.285-4.75a5.364 5.364 0 0 0-9.877 4.186 5.36 5.36 0 0 0 6.117 3.136l-.076.117-.023-.046-16.134 8.42-.19-.35-1.587.853.176.328-.49.256.876 1.678 7.475-3.898c.765.12 1.84.106 3.18-.36.06.053.114.108.18.153.3.203 3 2.013 4.907 2.67a5.66 5.66 0 0 0 1.855.305 7.09 7.09 0 0 0 1.934-.282l2.057 4.855c.084.196.184.376.293.547-1.55 1.102-3.063 2.325-3.668 3.276-.778 1.226-1.52 5.068-2.208 11.423a2.65 2.65 0 0 0 2.135 2.884H57v5.174h5.008v39.9h36.385v-39.9h1.39v-5.17H62.52zm-2.053-26.942c-.54-.187-1.266-.563-1.96-.96.903-.433 1.567-.75 1.917-.92l.82 1.937c-.262.03-.537.026-.777-.057zM76.13 70.374H65.98V60.53h10.146v9.844zm17.98 0H83.966V60.53H94.11v9.844z"/>
  <path d="M37.504 29.546l-5.19 7.367 6.645-5.975-.05 1.99 1.646-2.163.52 9.035 1.42-8.314 4.5 4.213-3.792-6.407.108 1.813-1.374-1.285-.452 2.634-.228-3.984-1.453 1.907.035-1.35-2.604 2.34 1.748-2.482-1.834-.22 2.405-.255-.446-.624.987-.168-.32-2.92 1.273.722-3.263-6.757 1.56 8.216-5.234-4.663 3.938 5.515-8.305.886z"/>
</svg>