<svg xmlns="http://www.w3.org/2000/svg" width="100" height="100" viewBox="0 0 100 100"><path d="M56.05 9.245l-2.99.585-.49 2.804-.5-.5c-.143 4.132 1.96 8.198 5.814 10.362 5.5 3.088 12.46 1.134 15.548-4.364 3.09-5.5 1.134-12.46-4.365-15.548a11.387 11.387 0 0 0-4.396-1.4l1.536 1.248h-5.46v-.968a11.377 11.377 0 0 0-6.56 4.44l-.173 1.47 2.037 1.87z"/><path d="M89.022 33.264l-1.39.602.57-2.753a4.444 4.444 0 0 0-3.778-1.8 40.186 40.186 0 0 1-4.093-.02l-.822.415-.442 2.73-2.13-2.18L70.5 31.75l4.38-3.07c-13.61-2.263-15.817-4.086-17.344-5.57 0 0-.873-.902-2.002-1.503-1.08-.576-2.408-.996-2.408-.996l-.032-.01c-3.81-1.062-8.91-.335-11.21 3.76l-3.392 6.04.067.24 2.597.944-1.87 2.41-.263 6.1-2.965-5.36-6.517 11.603c-1.648 2.935-1.114 6.185.558 8.83l-2.103 6.77 3.182-1.19-2.763 4.71-1.28-.75-2.4 7.726.047.165 2.598.945-2.538 1.687.623 2.778-2.182-.9-4.47 14.382a6.046 6.046 0 1 0 11.547 3.586l2.837-9.13-2.632-1.542 3.52-1.318 6.507-20.945a265.117 265.117 0 0 1 9.824 7.355l.693-2.84 2.053 5.07c.94.79 1.674 1.45 2.104 1.904.827 2.65 2.24 12.33 3.11 20.258a6.045 6.045 0 0 0 12.018-1.315 569.65 569.65 0 0 0-.233-2.083l-1.82 1.518 1.05-5.36.32.064C67.73 70.798 66.23 68.295 65.7 67.416c-.778-1.297-2.71-3.23-5.753-5.77H56.05v-3.12a254.435 254.435 0 0 0-6.57-4.89l2.736-4.872 4.286-7.63c1.235 1.938 2.643 3.902 4.056 5.396l1.695-1.623.53 2.572 2.52 1.133-1.25.705c4.448 2.788 11.002 5.282 12.5 5.834a4.405 4.405 0 0 0 1.536.276c.78 0 1.535-.22 2.2-.6l.54-2.61 1.615-.45a4.428 4.428 0 0 0-2.817-4.933C75.752 45.4 69.406 42.6 67.424 40.86c-1.185-1.04-2.846-3.474-4.346-5.978 5.573 1.8 12.406 3.34 19.51 3.34.75 0 1.5-.017 2.254-.053a4.434 4.434 0 0 0 4.22-4.64c-.005-.09-.03-.176-.04-.266z"/></svg>