<?xml version="1.0" encoding="utf-8"?>
<!-- Generator: Adobe Illustrator 16.0.0, SVG Export Plug-In . SVG Version: 6.00 Build 0)  -->
<!DOCTYPE svg PUBLIC "-//W3C//DTD SVG 1.1//EN" "http://www.w3.org/Graphics/SVG/1.1/DTD/svg11.dtd">
<svg version="1.1" id="Layer_1" xmlns="http://www.w3.org/2000/svg" xmlns:xlink="http://www.w3.org/1999/xlink" x="0px" y="0px"
	 width="100px" height="100px" viewBox="0 0 100 100" enable-background="new 0 0 100 100" xml:space="preserve">
<g>
	<polygon points="20.575,57.417 23.378,57.417 25.83,55.665 24.43,53.913 	"/>
	<polygon points="49.498,44.138 50.373,44.138 51.6,40.459 46.694,39.583 47.571,40.459 47.571,42.912 	"/>
	<polygon points="58.51,49.872 58.51,47.89 56.356,47.606 54.846,49.07 	"/>
	<polygon points="20.687,52.208 19.535,51.744 19.98,53.913 21.05,53.438 	"/>
	<polygon points="68.05,38.759 71.203,38.759 71.203,37.621 69.627,36.482 68.05,36.482 	"/>
	<polygon points="21.96,48.493 20.134,45.922 19.205,46.581 19.19,48.526 20.103,49.812 	"/>
	<polygon points="15.828,50.09 15.613,51.033 16.918,51.33 17.024,50.861 16.479,50.239 	"/>
	<polygon points="64.405,46.03 64.405,48.833 67.033,49.883 68.05,46.03 66.229,45.329 	"/>
	<path d="M27.534,14.044l-1.863,2.054l1.167,2.313l-0.635-0.093c2.144,3.092,5.891,4.916,9.879,4.398
		c5.694-0.739,9.71-5.952,8.972-11.645c-0.739-5.693-5.953-9.709-11.646-8.97C31.959,2.289,30.62,2.77,29.44,3.472l1.797,0.075
		l-3.984,2.972l-0.526-0.706c-1.536,1.868-2.426,4.259-2.371,6.81l0.676,1.167L27.534,14.044z"/>
	<path d="M81.529,65.645l-0.502,2.099l-1.883-4.61C69.037,52.602,66.581,51.591,65.717,51.237c-1.273-0.522-3.736-0.881-7.339-1.079
		l-2.843,2.119l-1.696-2.275c-2.209-0.037-4.69-0.036-7.454,0.006l-0.157-1.207l-1.894,2.483l-2.299-0.789l-4.905,0.175l2.628-3.766
		l5.103-0.613l-9-4.432l8.771-2.277l0.073-2.519c1.956,0.743,4.053,1.41,5.896,1.732l0.354-2.107l1.787,1.588l2.456-0.544
		l-0.528,1.195c4.762-0.386,10.902-2.133,12.294-2.544c0.472-0.139,0.899-0.356,1.272-0.634c0.57-0.425,1.002-0.996,1.279-1.636
		l-1.026-2.197l0.935-1.207c-0.857-1.714-2.838-2.627-4.74-2.067c-3.607,1.062-9.762,2.472-12.155,2.281
		c-1.431-0.115-3.966-0.986-6.425-1.998c5.049-1.719,9.871-4.813,15.056-8.679c0.547-0.407,1.086-0.829,1.615-1.265
		c1.723-1.416,1.971-3.958,0.556-5.679c-0.054-0.064-0.119-0.113-0.176-0.173l-0.685,1.194l-1.084-2.318
		c-1.244-0.377-2.647-0.145-3.735,0.743c-0.963,0.792-1.968,1.528-2.997,2.212l-0.877,0.601l1.663,2.381l-2.739-0.429l-3.884,4.589
		l1.526-4.623c-6.268,3.224-11.622,7.958-18.986,6.22c-3.584,0.396-6.993,4.841-6.442,9.08l0.813,6.255l0.178,0.138l2.41-0.724
		l-0.054,2.777l3.127,4.593l-5.08-2.298l1.56,12.012c0.394,3.038,2.553,5.12,5.211,6.139l2.149,6.086l1.673-2.6l0.549,4.94
		l-1.342,0.148l2.451,6.943l0.124,0.095l2.409-0.724l-0.934,2.611l1.966,1.688l-2.082,0.529l4.565,12.927
		c1.012,2.865,4.156,4.367,7.021,3.356c0.537-0.19,1.025-0.454,1.459-0.777c1.88-1.402,2.72-3.916,1.896-6.244l-2.898-8.207
		l-2.759,0.307l1.852-2.877L44.527,61.05c3.672-0.079,7.82-0.072,11.17,0.021l-1.039-2.45l4.258,2.582
		c1.115,0.066,2.01,0.147,2.57,0.244c2.047,1.486,8.345,7.779,13.293,13.091c1.931,2.075,5.09,2.322,7.311,0.667
		c0.16-0.12,0.316-0.25,0.466-0.389c2.224-2.071,2.347-5.553,0.277-7.776C82.386,66.559,81.952,66.097,81.529,65.645z"/>
	<rect x="54.58" y="5.24" width="28.117" height="1.051"/>
	<rect x="73.711" y="11.807" width="12.219" height="1.051"/>
	<rect x="67.602" y="19.026" width="12.219" height="1.051"/>
</g>
</svg>
