<?xml version="1.0" encoding="utf-8"?>
<!-- Generator: Adobe Illustrator 16.0.0, SVG Export Plug-In . SVG Version: 6.00 Build 0)  -->
<!DOCTYPE svg PUBLIC "-//W3C//DTD SVG 1.1//EN" "http://www.w3.org/Graphics/SVG/1.1/DTD/svg11.dtd">
<svg version="1.1" id="Layer_1" xmlns="http://www.w3.org/2000/svg" xmlns:xlink="http://www.w3.org/1999/xlink" x="0px" y="0px"
	 width="100px" height="100px" viewBox="0 0 100 100" enable-background="new 0 0 100 100" xml:space="preserve">
<g>
	<path d="M69.439,26.467c6.472,0,11.735-5.107,12.019-11.509L79.25,12.75l1.927-1.007c-1.22-5.362-6.006-9.369-11.737-9.369
		c-0.376,0-0.746,0.022-1.112,0.056l-1.452,1.32h-3.016c-0.904,0.474-1.734,1.062-2.484,1.74v2.885l-1.306-1.517
		c-1.671,2.068-2.676,4.697-2.676,7.563C57.394,21.074,62.785,26.467,69.439,26.467z"/>
	<path d="M71.837,86.263L71.837,86.263l-3.712-2.138l2.465-0.468l-1.366-2.852l-2.599-1.181h2.033l-8.379-17.499l0.565-1.289
		l-7.844-1.254l5.083-0.75l-0.69-2.917l4.422,2.708l0.323-0.736l-3.638-5.055l4.356,3.417l3.576-8.151
		c1.136,5.372,1.499,11.469,0.996,17.911c-0.201,2.575,1.724,4.825,4.299,5.026c0.124,0.009,0.246,0.014,0.368,0.014
		c2.418,0,4.467-1.863,4.657-4.313c0.174-2.223,0.29-4.964,0.228-8.006l-2.199-1.23l2.039-2.337
		c-0.338-4.985-1.221-10.503-3.123-15.833l-4.272-3.914l2.752,0.226c-0.914-1.976-1.971-3.905-3.237-5.733
		c-0.157-0.226-0.338-0.424-0.525-0.614c-0.72-0.984-1.568-1.875-2.501-2.624l-3.996,1.469l-1.346-3.998
		c-0.01-0.002-0.02-0.006-0.028-0.008c-1.737-0.355-3.592-0.369-5.365-0.024c-0.245,0.014-0.491,0.033-0.738,0.087
		c-2.29,0.508-4.624,1.126-6.999,1.969L45.417,30.5l-0.803-3.223c-4.428,1.916-8.989,4.766-13.659,9.3l3.17,3.047l-1.703,1.784
		l-1.297-1.284l-3.089-0.5c-1.437,1.604-2.882,3.374-4.336,5.342c-1.534,2.077-1.096,5.005,0.981,6.541
		c0.837,0.618,1.81,0.916,2.776,0.916c1.433,0,2.848-0.656,3.765-1.898c4.416-5.974,8.627-9.75,12.604-12.261l-6.278,14.31
		c-0.579,1.269-0.901,3.4-1.007,4.315l-1.229,12.332L38.5,71l-3.467,1.021l-0.4,4.026l1.617,2.577l-1.835-0.393l-0.374,3.754
		l-6.633-3.656c-2.902-1.602-6.549-0.545-8.147,2.355s-0.544,6.549,2.356,8.148l5.027,2.772L30,89.5v3.955l3.029,1.67H36
		l-0.61,1.302l0.822,0.453c0.9,0.497,1.897,0.746,2.896,0.746c0.958,0,1.916-0.229,2.79-0.688c1.784-0.938,2.978-2.708,3.178-4.715
		l2.366-23.752c0.9,0.179,1.807,0.266,2.704,0.265l5.774,12.062l-2.217-0.573c-3.204-0.828-6.479,1.096-7.309,4.305
		c-0.829,3.207,1.099,6.479,4.305,7.308l14.694,3.799c0.497,0.129,1.001,0.191,1.501,0.191c1.767,0,3.476-0.782,4.631-2.187
		c1.482-1.8,1.786-4.298,0.779-6.4L71.837,86.263z"/>
</g>
</svg>
