<?xml version="1.0" encoding="utf-8"?>
<!-- Generator: Adobe Illustrator 16.0.0, SVG Export Plug-In . SVG Version: 6.00 Build 0)  -->
<!DOCTYPE svg PUBLIC "-//W3C//DTD SVG 1.1//EN" "http://www.w3.org/Graphics/SVG/1.1/DTD/svg11.dtd">
<svg version="1.1" id="Layer_1" xmlns="http://www.w3.org/2000/svg" xmlns:xlink="http://www.w3.org/1999/xlink" x="0px" y="0px"
	 width="48px" height="48px" viewBox="0 0 48 48" enable-background="new 0 0 48 48" xml:space="preserve">
<path d="M45.43,19.188l-6.44-0.085c-1.139-0.015-2.162,0.694-2.548,1.765c-1.442,4.009-4.901,13.591-6.066,16.586
	c-0.23,0.593-0.91,0.882-1.396,0.896c-0.541-0.006-1.086-0.22-1.317-0.701c-1.003-2.095-3.494-8.081-3.494-8.081l4.363-0.227
	c1.2-0.063,2.175-0.989,2.299-2.184l0.541-5.19c0.139-1.34-0.835-2.539-2.175-2.678L6.792,16.96
	c-1.992-0.207-3.37,1.943-2.351,3.667l4.965,8.397c0.135,0.229,0.305,0.43,0.499,0.599l-0.838,1.344
	c-0.403-0.13-0.825-0.221-1.264-0.267c-3.387-0.352-6.418,2.108-6.771,5.495c-0.352,3.387,2.108,6.418,5.495,6.77
	c3.387,0.353,6.418-2.108,6.771-5.495c0.196-1.886-0.48-3.662-1.703-4.926l1.497-2.402l7.899-0.41c0,0,2.967,6.975,4.08,9.388
	c0.567,1.23,1.592,2.273,4.005,2.273c2.516,0,3.643-1.789,3.956-2.631c1.513-4.053,4.358-11.995,5.945-16.336
	c0.081-0.223,0.294-0.368,0.53-0.364l5.857,0.104c0.011,0,0.021,0.001,0.033,0.001c0.808,0,1.472-0.646,1.489-1.458
	C46.906,19.887,46.253,19.206,45.43,19.188z M10.22,37.151c-0.175,1.687-1.684,2.912-3.37,2.736
	c-1.688-0.175-2.912-1.685-2.736-3.371c0.169-1.632,1.589-2.832,3.209-2.749l-1.42,2.277c-0.436,0.699-0.223,1.618,0.476,2.053
	c0.245,0.153,0.518,0.226,0.788,0.226c0.496,0,0.982-0.249,1.265-0.702l1.42-2.277C10.146,35.876,10.288,36.5,10.22,37.151z"/>
</svg>
