<?xml version="1.0" encoding="utf-8"?>
<!-- Generator: Adobe Illustrator 16.0.0, SVG Export Plug-In . SVG Version: 6.00 Build 0)  -->
<!DOCTYPE svg PUBLIC "-//W3C//DTD SVG 1.1//EN" "http://www.w3.org/Graphics/SVG/1.1/DTD/svg11.dtd">
<svg version="1.1" id="Layer_1" xmlns="http://www.w3.org/2000/svg" xmlns:xlink="http://www.w3.org/1999/xlink" x="0px" y="0px"
	 width="48px" height="48px" viewBox="0 0 48 48" enable-background="new 0 0 48 48" xml:space="preserve">
<g>
	<path d="M27.854,22.001c0-2.173-1.763-3.93-3.937-3.93H13.424c-2.173,0-3.925,1.757-3.925,3.93v0.659h18.355V22.001z"/>
	<path d="M44.337,5.316c-0.502-0.646-1.26-1.011-2.079-1.011H39.56c-1.714,0-3.253,1.13-3.745,2.772l-5.227,16.888h-7.254h-4.246
		H9.165c-1.885,0-3.385,1.532-3.385,3.417v1.635c0,0.003-0.016,0.005-0.02,0.008c-1.733,1.193-2.876,3.19-2.876,5.448
		c0,3.645,2.963,6.61,6.607,6.61s6.608-2.969,6.608-6.614c0-0.136-0.005-0.264-0.014-0.409h3.002h4.246h3.002
		c-0.008,0.145-0.013,0.272-0.013,0.409c0,3.645,2.965,6.612,6.61,6.612s6.609-2.964,6.609-6.609c0-2.258-1.145-4.254-2.878-5.447
		c-0.004-0.002-0.018-0.004-0.018-0.007v-1.635c0-1.814-1.397-3.275-3.184-3.383l3.91-12.497h4.394c1.206,0,2.255-0.818,2.552-1.986
		l0.493-1.936C45.012,6.787,44.839,5.962,44.337,5.316z M9.489,37.41c-1.619,0-2.937-1.317-2.937-2.937
		c0-1.619,1.317-2.937,2.937-2.937c1.62,0,2.937,1.317,2.937,2.937C12.426,36.092,11.108,37.41,9.489,37.41z M35.87,34.473
		c0,1.62-1.317,2.937-2.937,2.937c-1.62,0-2.937-1.317-2.937-2.937c0-1.619,1.317-2.937,2.937-2.937
		C34.552,31.536,35.87,32.854,35.87,34.473z M41.671,8.749h-3.477l0.26-0.894c0.145-0.484,0.599-0.845,1.105-0.845h2.543
		L41.671,8.749z"/>
</g>
</svg>
