<?xml version="1.0" encoding="utf-8"?>
<!-- Generator: Adobe Illustrator 16.0.0, SVG Export Plug-In . SVG Version: 6.00 Build 0)  -->
<!DOCTYPE svg PUBLIC "-//W3C//DTD SVG 1.1//EN" "http://www.w3.org/Graphics/SVG/1.1/DTD/svg11.dtd">
<svg version="1.1" id="Layer_1" xmlns="http://www.w3.org/2000/svg" xmlns:xlink="http://www.w3.org/1999/xlink" x="0px" y="0px"
	 width="48px" height="48px" viewBox="0 0 48 48" enable-background="new 0 0 48 48" xml:space="preserve">
<g>
	<path d="M35.513,12.996c0-1.947-1.571-3.558-3.519-3.558H4.5c-1.947,0-3.5,1.611-3.5,3.558v0.459h34.513V12.996z"/>
	<path d="M43.718,17.047h-3.336c-1.435,0-2.653,1.035-2.957,2.374h-1.9v-4.748H1l0.014,5.661c0.373,2.009,2.177,3.622,4.347,3.622
		c1.363,0,2.581-0.616,3.392-1.588c0.172-0.207,0.326-0.429,0.458-0.664c0.193-0.342,0.684-0.339,0.877,0.003
		c0.758,1.341,2.198,2.246,3.849,2.246c1.362,0,2.58-0.616,3.39-1.585c0.173-0.207,0.328-0.43,0.461-0.666
		c0.193-0.342,0.684-0.339,0.876,0.003c0.758,1.342,2.198,2.247,3.849,2.247c1.361,0,2.579-0.616,3.389-1.584
		c0.173-0.207,0.328-0.43,0.461-0.667c0.193-0.342,0.684-0.338,0.877,0.003c0.758,1.343,2.198,2.253,3.849,2.253
		c1.805,0,3.356-1.117,4.042-2.649h2.22v8.339h-2.922v-5.222c-0.974,0.643-2.1,1.019-3.327,1.019c-1.465,0-2.817-0.536-3.854-1.422
		c-0.256-0.219-0.636-0.219-0.893,0c-1.034,0.886-2.376,1.422-3.842,1.422c-1.465,0-2.807-0.536-3.841-1.421
		c-0.256-0.22-0.637-0.22-0.893,0c-1.034,0.886-2.376,1.421-3.842,1.421c-1.465,0-2.807-0.536-3.841-1.421
		c-0.256-0.22-0.637-0.22-0.893,0c-1.034,0.886-2.376,1.421-3.841,1.421c-1.475,0-2.828-0.543-3.863-1.439v15.516
		c0,1.304,1.058,2.361,2.362,2.361h2.386v-7.583c0-1.588,1.299-2.887,2.887-2.887h2.358c1.574,0,2.851,1.276,2.851,2.851v7.619
		h17.726c1.304,0,2.361-1.057,2.361-2.361v-7.986h2.994c0.302,1.339,1.522,2.374,2.958,2.374h3.343c1.657,0,3-1.343,3-3V20.054
		C46.725,18.393,45.378,17.047,43.718,17.047z M30.168,36.54c0,1.244-1.018,2.238-2.262,2.238h-7.233
		c-1.244,0-2.252-0.994-2.252-2.238v-2.388h11.739h0.009V36.54z M30.168,32.63h-0.009H18.42v-2.379c0-1.244,1.008-2.248,2.252-2.248
		h7.233c1.244,0,2.262,1.003,2.262,2.248V32.63z M43.287,27.456c-0.077,0.034-0.148,0.063-0.216,0.09
		c0.423,0.15,0.836,0.356,0.809,0.455c-0.035,0.122-0.729,0.032-1.229-0.108c-0.162-0.046-0.309-0.091-0.37-0.136v0.82
		c0,0.123-0.09,0.223-0.213,0.223c-0.123,0-0.213-0.1-0.213-0.223v-0.82c-0.122,0.044-0.223,0.09-0.385,0.136
		c-0.5,0.141-1.208,0.23-1.243,0.108c-0.028-0.099,0.385-0.305,0.808-0.455c-0.068-0.027-0.139-0.056-0.216-0.09
		c-0.82-0.359-1.844-1.001-1.756-1.202c0.078-0.178,1.008,0.055,1.79,0.361c-0.032-0.051-0.064-0.104-0.098-0.161
		c-0.622-1.051-1.247-2.579-0.99-2.731c0.219-0.13,1.013,0.79,1.627,1.718c0.024-1.473,0.311-3.31,0.661-3.31s0.637,1.837,0.66,3.31
		c0.615-0.928,1.408-1.848,1.627-1.718c0.257,0.152-0.368,1.68-0.99,2.731c-0.034,0.056-0.066,0.109-0.098,0.161
		c0.782-0.306,1.712-0.539,1.791-0.361C45.13,26.455,44.107,27.097,43.287,27.456z"/>
</g>
</svg>
