<?xml version="1.0" encoding="utf-8"?>
<!-- Generator: Adobe Illustrator 16.0.0, SVG Export Plug-In . SVG Version: 6.00 Build 0)  -->
<!DOCTYPE svg PUBLIC "-//W3C//DTD SVG 1.1//EN" "http://www.w3.org/Graphics/SVG/1.1/DTD/svg11.dtd">
<svg version="1.1" id="Layer_1" xmlns="http://www.w3.org/2000/svg" xmlns:xlink="http://www.w3.org/1999/xlink" x="0px" y="0px"
	 width="48px" height="48px" viewBox="0 0 48 48" enable-background="new 0 0 48 48" xml:space="preserve">
<g>
	<path d="M45.612,3.142c-3.766-3.767-17.883,4.243-24.92,11.28c-4.414,4.413-4.994,7.396-3.885,9.935l6.589-6.589
		c0.993-0.992,2.313-1.538,3.716-1.538s2.724,0.546,3.722,1.545l0.043,0.045c0.995,0.992,1.541,2.312,1.541,3.716
		c0,1.403-0.546,2.723-1.538,3.716l-6.629,6.629c2.571,1.197,5.584,0.681,10.082-3.818C41.37,21.025,49.38,6.909,45.612,3.142z"/>
	<path d="M29.734,18.963l-0.051-0.051c-0.709-0.71-1.641-1.065-2.571-1.065c-0.932,0-1.862,0.355-2.572,1.065l-8.877,8.877
		l5.195,5.195l8.877-8.877C31.155,22.688,31.156,20.384,29.734,18.963z"/>
	<path d="M2.454,41c-1.42,1.42-1.42,3.723,0,5.143l0.05,0.051c1.422,1.421,3.724,1.42,5.145,0.001L19.382,34.46l-5.194-5.195
		L2.454,41z M6.978,44.437c-0.764,0.764-2.003,0.765-2.766,0c-0.766-0.765-0.766-2.004,0-2.768c0.763-0.764,2.001-0.764,2.767,0
		C7.742,42.434,7.742,43.673,6.978,44.437z"/>
</g>
</svg>
