<?xml version="1.0" encoding="utf-8"?>
<!-- Generator: Adobe Illustrator 16.0.0, SVG Export Plug-In . SVG Version: 6.00 Build 0)  -->
<!DOCTYPE svg PUBLIC "-//W3C//DTD SVG 1.1//EN" "http://www.w3.org/Graphics/SVG/1.1/DTD/svg11.dtd">
<svg version="1.1" id="Layer_1" xmlns="http://www.w3.org/2000/svg" xmlns:xlink="http://www.w3.org/1999/xlink" x="0px" y="0px"
	 width="48px" height="48px" viewBox="0 0 48 48" enable-background="new 0 0 48 48" xml:space="preserve">
<path d="M46.713,28.433c0-3.737-2.293-6.981-5.548-8.343v-0.827c0-0.814-0.66-1.475-1.475-1.475H28.245
	c-0.814,0-1.475,0.66-1.475,1.475v0.902c0,0.814,0.66,1.475,1.475,1.475h3.646c-0.632,0.55-1.186,1.238-1.643,1.925H22.92v-8.521
	l0.631,0.63c0.4,0.401,1.05,0.401,1.45,0l0.588-0.588c0.4-0.401,0.4-1.05,0-1.451l-3.308-3.308c-0.399-0.4-1.048-0.4-1.448-0.002
	l-0.603,0.6c-0.399,0.397-0.404,1.042-0.011,1.444l0.637,0.651h-7.661c-5.245,0-9.483,4.233-9.483,9.478v3.587h-0.6
	c-1.138,0-2.06,0.922-2.06,2.059v2.896c0,1.137,0.922,2.059,2.06,2.059h1.743c0.659,0,1.194-0.535,1.194-1.195v-1.593
	c0-0.537,0.435-0.972,0.972-0.972H7.3c-0.146,0.563-0.217,1.156-0.204,1.768c0.076,3.504,2.951,6.338,6.456,6.364
	c3.611,0.027,6.557-2.902,6.557-6.506c0-0.561-0.072-1.105-0.206-1.625h3.015h5.935h2.473c-0.146,0.563-0.218,1.156-0.204,1.767
	c0.075,3.504,2.949,6.338,6.454,6.365c3.611,0.028,6.559-2.902,6.559-6.506c0-0.561-0.071-1.105-0.206-1.625h2.752
	C46.701,28.379,46.713,28.689,46.713,28.433z M9.225,18.197c1.143,0,2.07,0.928,2.07,2.071s-0.928,2.071-2.07,2.071
	c-1.145,0-2.071-0.927-2.071-2.071S8.08,18.197,9.225,18.197z M13.602,33.481c-1.387,0-2.515-1.128-2.515-2.514
	c0-1.387,1.128-2.515,2.515-2.515s2.514,1.128,2.514,2.515C16.115,32.353,14.988,33.481,13.602,33.481z M37.625,33.481
	c-1.387,0-2.515-1.128-2.515-2.514c0-1.387,1.128-2.515,2.515-2.515c1.388,0,2.516,1.128,2.516,2.515
	C40.141,32.353,39.013,33.481,37.625,33.481z"/>
</svg>
