<?xml version="1.0" encoding="utf-8"?>
<!-- Generator: Adobe Illustrator 16.0.0, SVG Export Plug-In . SVG Version: 6.00 Build 0)  -->
<!DOCTYPE svg PUBLIC "-//W3C//DTD SVG 1.1//EN" "http://www.w3.org/Graphics/SVG/1.1/DTD/svg11.dtd">
<svg version="1.1" id="Layer_1" xmlns="http://www.w3.org/2000/svg" xmlns:xlink="http://www.w3.org/1999/xlink" x="0px" y="0px"
	 width="48px" height="48px" viewBox="0 0 48 48" enable-background="new 0 0 48 48" xml:space="preserve">
<path d="M40.519,10.931H7.083c-3.036,0-5.487,2.468-5.487,5.504v17.567c0,3.036,2.451,5.504,5.487,5.504h33.436
	c3.036,0,5.48-2.468,5.48-5.504V16.435C45.999,13.398,43.554,10.931,40.519,10.931z M30.757,24.011
	c0.134-0.305,1.73,0.093,3.071,0.619c-0.055-0.088-0.11-0.179-0.167-0.275c-1.068-1.804-2.139-4.425-1.699-4.686
	c0.377-0.223,1.738,1.355,2.792,2.946c0.041-2.526,0.532-5.677,1.133-5.677s1.093,3.151,1.133,5.677
	c1.054-1.591,2.416-3.169,2.792-2.946c0.44,0.261-0.63,2.881-1.699,4.686c-0.057,0.096-0.113,0.188-0.167,0.275
	c1.341-0.525,2.938-0.924,3.072-0.619c0.15,0.343-1.606,1.445-3.014,2.062c-0.131,0.057-0.254,0.108-0.37,0.154
	c0.726,0.257,1.433,0.61,1.385,0.779c-0.059,0.209-1.257,0.056-2.115-0.186c-0.278-0.078-0.501-0.156-0.643-0.233v1.406
	c0,0.211-0.179,0.382-0.39,0.382c-0.211,0-0.39-0.171-0.39-0.382v-1.406c-0.142,0.077-0.35,0.155-0.627,0.233
	c-0.858,0.242-2.046,0.395-2.105,0.186c-0.047-0.169,0.663-0.522,1.388-0.779c-0.116-0.045-0.238-0.097-0.369-0.154
	C32.362,25.457,30.606,24.354,30.757,24.011z M19.689,19.635c0-0.839,0.695-1.516,1.535-1.516h5.153c0.84,0,1.527,0.677,1.527,1.516
	v0.031c0,0.84-0.688,1.533-1.527,1.533h-5.153c-0.84,0-1.535-0.693-1.535-1.533V19.635z M19.689,25.269
	c0-0.839,0.695-1.52,1.535-1.52h5.153c0.84,0,1.527,0.68,1.527,1.52V25.3c0,0.84-0.688,1.53-1.527,1.53h-5.153
	c-0.84,0-1.535-0.689-1.535-1.53V25.269z M11.887,16.86c2.021,0,3.66,1.639,3.66,3.66c0,2.021-1.639,3.659-3.66,3.659
	c-2.021,0-3.66-1.638-3.66-3.659C8.228,18.499,9.866,16.86,11.887,16.86z M17.388,31.533c0,1.128-0.909,2.06-2.038,2.06H8.423
	c-1.128,0-2.047-0.931-2.047-2.06v-2.819c0-1.889,1.535-3.407,3.423-3.407h4.175c1.889,0,3.414,1.518,3.414,3.407V31.533z
	 M41.218,30.934c0,0.84-0.669,1.526-1.509,1.526H21.224c-0.84,0-1.535-0.686-1.535-1.526v-0.031c0-0.84,0.695-1.524,1.535-1.524
	h18.485c0.84,0,1.509,0.684,1.509,1.524V30.934z"/>
</svg>
