<?xml version="1.0" encoding="utf-8"?>
<!-- Generator: Adobe Illustrator 16.0.0, SVG Export Plug-In . SVG Version: 6.00 Build 0)  -->
<!DOCTYPE svg PUBLIC "-//W3C//DTD SVG 1.1//EN" "http://www.w3.org/Graphics/SVG/1.1/DTD/svg11.dtd">
<svg version="1.1" id="Layer_1" xmlns="http://www.w3.org/2000/svg" xmlns:xlink="http://www.w3.org/1999/xlink" x="0px" y="0px"
	 width="48px" height="48px" viewBox="0 0 48 48" enable-background="new 0 0 48 48" xml:space="preserve">
<g>
	<path d="M46.602,39.843L43.97,16.118c-0.156-1.41-1.022-2.576-2.279-3.119v-3.67c0-2.934-2.396-5.311-5.331-5.311h-7.697
		c-2.935,0-5.35,2.377-5.35,5.311v3.67c-1.178,0.543-2.113,1.706-2.271,3.116l-1.048,9.494l-9.07-9.074
		c-0.682-0.682-1.785-0.682-2.467,0l-1.065,1.066c-0.581,0.581-0.678,1.489-0.231,2.18L18.666,37.62l-0.246,2.223
		c-0.254,2.294,1.541,4.308,3.85,4.308h20.482C45.061,44.151,46.855,42.137,46.602,39.843z M32.866,33.507
		c-1.682,0-3.044-1.363-3.044-3.044c0-1.682,3.044-6.375,3.044-6.375s3.045,4.693,3.045,6.375
		C35.911,32.144,34.549,33.507,32.866,33.507z M38.471,12.657H26.532V9.329c0-1.176,0.954-2.169,2.13-2.169h7.697
		c1.176,0,2.111,0.994,2.111,2.169V12.657z"/>
	<path d="M8.879,14.119l0.632-2.973c0.134-0.628-0.473-1.159-1.078-0.942l-6.889,2.463c-0.613,0.219-0.738,1.031-0.22,1.425
		l3.843,2.924c0.326,0.249,0.786,0.217,1.076-0.073l2.414-2.414C8.77,14.416,8.847,14.274,8.879,14.119z"/>
</g>
</svg>
