<?xml version="1.0" encoding="utf-8"?>
<!-- Generator: Adobe Illustrator 16.0.0, SVG Export Plug-In . SVG Version: 6.00 Build 0)  -->
<!DOCTYPE svg PUBLIC "-//W3C//DTD SVG 1.1//EN" "http://www.w3.org/Graphics/SVG/1.1/DTD/svg11.dtd">
<svg version="1.1" id="Layer_1" xmlns="http://www.w3.org/2000/svg" xmlns:xlink="http://www.w3.org/1999/xlink" x="0px" y="0px"
	 width="48px" height="48px" viewBox="0 0 48 48" enable-background="new 0 0 48 48" xml:space="preserve">
<g>
	<path d="M21.134,5.912h4.624c0.871,0,1.568-0.704,1.568-1.575V3.046c0-0.871-0.697-1.576-1.568-1.576h-4.624
		c-0.87,0-1.563,0.705-1.563,1.576v1.291C19.571,5.208,20.264,5.912,21.134,5.912z"/>
	<path d="M41.007,20.943c-6.226-2.894-6.344-10.844-6.344-10.925c-0.003-0.833-0.679-1.442-1.512-1.442c0,0-0.001,0-0.002,0
		c-0.687,0-1.265,0.415-1.449,1.025h-4.489l-0.057-0.332c-0.216-1.291-1.334-2.23-2.643-2.23H22.37c-1.305,0-2.42,0.933-2.641,2.218
		l-0.061,0.344H12.89c-0.835,0-1.513,0.668-1.513,1.503c0,0.835,0.678,1.503,1.513,1.503h6.263l-0.982,5.709
		c-2.452,1.667-4.064,4.479-4.064,7.662v17.398c0,1.731,1.406,3.152,3.138,3.152h12.405c1.73,0,3.144-1.421,3.144-3.152V25.979
		c0-3.207-1.642-6.038-4.125-7.7l-0.952-5.671h4.189c0.565,3.188,2.329,8.489,7.829,11.045c0.206,0.096,0.422,0.142,0.636,0.142
		c0.57,0,1.116-0.308,1.373-0.859C42.093,22.178,41.766,21.294,41.007,20.943z M30.776,25.979v17.398
		c0,0.619-0.509,1.137-1.128,1.137H17.243c-0.619,0-1.122-0.518-1.122-1.137V25.979c0-3.994,3.247-7.257,7.241-7.257h0.167
		C27.522,18.722,30.776,21.985,30.776,25.979z"/>
	<path d="M27.891,28.526c0.279,0,0.505-0.234,0.505-0.513c0-0.278-0.226-0.512-0.505-0.512h-2.819v-3.808
		c0-0.279-0.233-0.504-0.513-0.504c-0.278,0-0.512,0.226-0.512,0.504v1.165c0-0.001-0.028,0.013-0.046,0.013h-3.333
		c-0.278,0-0.504,0.217-0.504,0.495c0,0.279,0.226,0.496,0.504,0.496h3.333c0.018,0,0.046,0.001,0.046,0v4.58
		c0-0.002-0.028-0.002-0.046-0.002h-3.333c-0.278,0-0.504,0.217-0.504,0.495c0,0.279,0.226,0.496,0.504,0.496h3.333
		c0.018,0,0.046,0.016,0.046,0.014v4.581c0-0.002-0.028-0.017-0.046-0.017h-3.333c-0.278,0-0.504,0.233-0.504,0.512
		s0.226,0.512,0.504,0.512h3.333c0.018,0,0.046-0.003,0.046-0.005v3.335c0,0.278,0.233,0.504,0.512,0.504
		c0.279,0,0.513-0.226,0.513-0.504v-0.699h2.819c0.279,0,0.505-0.216,0.505-0.495s-0.226-0.496-0.505-0.496h-2.819v-4.577h2.819
		c0.279,0,0.505-0.234,0.505-0.513c0-0.278-0.226-0.512-0.505-0.512h-2.819v-4.543H27.891z"/>
</g>
</svg>
