<?xml version="1.0" encoding="utf-8"?>
<!-- Generator: Adobe Illustrator 16.0.0, SVG Export Plug-In . SVG Version: 6.00 Build 0)  -->
<!DOCTYPE svg PUBLIC "-//W3C//DTD SVG 1.1//EN" "http://www.w3.org/Graphics/SVG/1.1/DTD/svg11.dtd">
<svg version="1.1" id="Layer_1" xmlns="http://www.w3.org/2000/svg" xmlns:xlink="http://www.w3.org/1999/xlink" x="0px" y="0px"
	 width="48px" height="48px" viewBox="0 0 48 48" enable-background="new 0 0 48 48" xml:space="preserve">
<g>
	<circle cx="31.834" cy="5.71" r="4.524"/>
	<path d="M41.831,26.638l-4.217-13.583c-0.46-1.484-1.929-2.496-3.462-2.242c-1.236,0.205-1.839,1.074-2.375,2.072
		c-0.208,0.388-5.188,12.647-5.188,12.647c-0.262,0.64-0.243,1.326,0.001,1.918l-1.687,1.23l-0.673-1.546
		c-0.246-0.563-0.858-0.872-1.457-0.734L4.378,30.643c-1.071,0.247-1.35,1.642-0.457,2.282l5.175,3.705
		c1.036,0.741,2.264,1.088,3.479,1.039l-0.827,0.618c0-0.005,0-0.01,0-0.015l-0.074,0.054c-0.789-0.671-1.811-1.076-2.928-1.076
		c-2.499,0-4.524,2.025-4.524,4.524s2.025,4.524,4.524,4.524s4.524-2.025,4.524-4.524c0-0.647-0.136-1.263-0.381-1.82l5.071-3.753
		l5.134,7.135c0.192,0.268,0.5,0.42,0.82,0.42c0.09,0,0.182-0.012,0.272-0.038c0.408-0.114,0.702-0.471,0.735-0.894l0.971-12.381
		l2.173-1.577c0.252,0.091,0.51,0.14,0.766,0.149c1.027,0.038,2.017-0.559,2.429-1.566l2.537-6.197l2.069,6.687v15.685
		c0,1.467,0.991,2.816,2.431,3.101c1.94,0.383,3.665-1.094,3.665-2.97V27.479C41.962,27.194,41.915,26.91,41.831,26.638z
		 M10.875,41.764c0,1.175-0.953,2.128-2.128,2.128s-2.128-0.953-2.128-2.128c0-1.176,0.953-2.128,2.128-2.128
		c0.329,0,0.64,0.075,0.917,0.208l-1.557,1.163c-0.44,0.325-0.533,0.946-0.207,1.386l0.012,0.016
		c0.325,0.438,0.942,0.53,1.381,0.208l1.56-1.155C10.868,41.559,10.875,41.661,10.875,41.764z M23.124,39.915l-3.528-4.902
		l4.148-3.012L23.124,39.915z"/>
</g>
</svg>
