<svg xmlns="http://www.w3.org/2000/svg" width="500" height="500" viewBox="0 0 500 500"><path d="M473.26 124.467L371.66 5.613l-10.693 7.11c-.305.2-30.873 20.138-61.044 20.14-16.004 0-28.95-5.72-38.478-16.994l-4.343-5.144h-14.196l-4.347 5.143c-9.487 11.228-22.413 16.92-38.416 16.923-30.183.002-60.806-19.875-61.097-20.066l-10.7-7.11L26.74 124.468l7.572 9.37c16.85 20.86 44.725 60.385 49.486 79.67-33.824 97.94-39.658 157.277-18.932 192.31 18.33 30.976 52.98 36.796 86.498 42.427 32.597 5.48 66.304 11.143 86.195 39.89a14.51 14.51 0 0 0 11.932 6.25c.165 0 .33-.007.506-.02.17.014.34.02.51.02a14.51 14.51 0 0 0 11.933-6.25c19.89-28.745 53.597-34.41 86.204-39.892 33.51-5.63 68.16-11.45 86.488-42.426 20.728-35.034 14.895-94.372-18.93-192.31 4.762-19.27 32.638-58.805 49.486-79.67l7.573-9.373zm-86.396 88.398l-.42 3.365 1.117 3.205c15.563 44.59 25.282 81.666 28.89 110.2 3.512 27.78 1.4 48.444-6.274 61.417-11.465 19.373-36.893 23.646-66.336 28.594-31.65 5.316-67.34 11.314-93.84 38.195-26.5-26.88-62.188-32.878-93.84-38.194-29.44-4.947-54.87-9.22-66.333-28.594-7.677-12.975-9.788-33.637-6.276-61.416 3.608-28.535 13.327-65.61 28.89-110.2l1.116-3.204-.418-3.367c-3.158-25.354-33.478-67.7-48.812-87.734l69.868-81.73c9.03 4.786 21.854 10.62 36.545 14.474 10.28 2.69 20.218 4.06 29.538 4.06 19.257 0 35.962-5.673 49.723-16.872 13.763 11.2 30.468 16.87 49.724 16.87 9.32 0 19.257-1.366 29.538-4.058 14.69-3.854 27.515-9.688 36.545-14.473l69.87 81.73c-15.335 20.038-45.656 62.386-48.813 87.735z"/><path d="M250 146.48l-35.297 66.76-74.402 12.94 52.588 54.2-10.686 74.76L250 321.874l67.798 33.264-10.686-74.76 52.587-54.2-74.402-12.94z"/></svg>