<?xml version="1.0" encoding="UTF-8" standalone="yes"?>
<svg xmlns="http://www.w3.org/2000/svg" viewBox="0 0 500 500">
  <path d="M448.432 22.7C425.398.974 389.115 2.034 367.387 25.068c-21.726 23.033-20.67 59.313 2.36 81.042 23.034 21.728 59.316 20.67 81.048-2.36 21.728-23.032 20.672-59.32-2.363-81.05zm-89.592 78.414L227.87 9.742c-11.39-7.947-27.064-5.155-35.014 6.235-7.946 11.392-5.155 27.067 6.236 35.014l88.804 61.957-77.75 84.36L83.78 67.417c-11.26-11.577-29.776-11.833-41.352-.57-11.576 11.26-11.832 29.777-.57 41.353L212.6 283.7l37.698 187.596c2.79 13.89 14.994 23.487 28.64 23.487 1.907 0 3.85-.188 5.792-.578 15.834-3.183 26.09-18.6 22.908-34.433L273.304 288.93c1.836-1.538 3.718-3.313 5.662-5.375l7.684-7.284a25.028 25.028 0 0 0 13.23 5.273l69.197 6.306a25.15 25.15 0 0 0 19.238-6.473 25.15 25.15 0 0 0 8.19-18.572V160.41c-.835-33.2-37.51-59.187-37.665-59.296zm-27.492 132.79l14.863-14.09v15.444l-14.86-1.354z"/>
</svg>