<?xml version="1.0" encoding="UTF-8" standalone="yes"?>
<svg xmlns="http://www.w3.org/2000/svg" viewBox="0 0 500 500">
  <path d="M429.64 352.813v-63.78h-18.733v-56.32C349.734 180.85 372.34 54.52 372.34 54.52l-20.277-8.645 4.322-17.95c-15.625-11.638-46.543-13.298-46.543-13.298l-23.938 71.81h-71.808l-23.94-71.81s-30.915 1.66-46.54 13.3l4.32 17.948-20.277 8.645s22.605 126.332-38.566 178.195v56.318H70.36v63.782h18.733v33.714H70.36v63.78h18.733v35.067h321.813V450.31h18.733v-63.78h-18.735v-33.72h18.734zm-46.745 65.928h-265.79V291.25h265.79v127.49z"/>
  <path d="M182.613 364.843h28.07v-20.317h-28.07v-17.88h30.44V306.33h-55.37v93.697h24.93zm108.402 27.845c6.387-4.893 9.58-11.59 9.58-20.092 0-5.725-1.303-10.38-3.908-13.97-2.606-3.59-6.815-6.153-12.625-7.69v-.643c4.4-1.066 7.946-3.46 10.638-7.178 2.692-3.717 4.038-8.2 4.038-13.457 0-7.988-3.088-13.875-9.26-17.656-6.176-3.78-15.628-5.672-28.36-5.672h-32.683v93.695H264.9c11.022 0 19.727-2.444 26.115-7.337zm-37.267-67.195h7.114c7.946 0 11.92 2.627 11.92 7.883 0 2.947-.993 5.17-2.98 6.664-1.986 1.496-4.796 2.244-8.427 2.244h-7.627v-16.79zm0 54.986v-19.676h8.396c4.016 0 7.082.832 9.196 2.498 2.115 1.666 3.173 4.06 3.173 7.178 0 6.667-3.953 10-11.856 10h-8.91zm63.126-74.15h25.442v93.696h-25.442z"/>
</svg>