<?xml version="1.0" encoding="utf-8"?>
<!-- Generator: Adobe Illustrator 16.0.0, SVG Export Plug-In . SVG Version: 6.00 Build 0)  -->
<!DOCTYPE svg PUBLIC "-//W3C//DTD SVG 1.1//EN" "http://www.w3.org/Graphics/SVG/1.1/DTD/svg11.dtd">
<svg version="1.1" id="Layer_1" xmlns="http://www.w3.org/2000/svg" xmlns:xlink="http://www.w3.org/1999/xlink" x="0px" y="0px"
	 width="126px" height="126px" viewBox="0 0 126 126" enable-background="new 0 0 126 126" xml:space="preserve">
<g>
	<g>
		<path d="M50.938,33.191c0.155,0.033,0.298,0.031,0.738-0.307c0.196-0.15,0.485-0.404,0.752-0.757l0.116-0.155
			c1.001-1.33,3.342-4.445,6.725-4.275c2.789,0.203,4.766,2.31,5.717,6.092c0.033,0.128,0.053,0.207,0.074,0.268
			c0.146,0.618,0.389,1.389,0.74,1.643c0.088,0.063,0.188,0.093,0.288,0.093c0.153,0,0.304-0.071,0.399-0.204
			c0.154-0.213,0.113-0.507-0.088-0.67c-0.098-0.127-0.28-0.652-0.389-1.123c-0.008-0.028-0.016-0.055-0.027-0.082
			c-0.009-0.031-0.027-0.102-0.043-0.164c-0.15-0.6-0.551-2.192-1.521-3.689c-1.255-1.934-2.965-2.992-5.085-3.146
			c-0.003,0-0.007,0-0.011,0c-3.906-0.2-6.471,3.211-7.565,4.667l-0.115,0.152c-0.3,0.396-0.653,0.644-0.776,0.715
			c-0.041,0.016-0.08,0.039-0.117,0.066c-0.154,0.116-0.229,0.314-0.188,0.502S50.75,33.15,50.938,33.191z"/>
		<path d="M63.296,32.449c-0.318-0.664-0.91-1.146-1.712-1.391c-1.179-0.36-2.604,0.293-3.913,1.791
			c-0.017,0.02-1.878,1.978-3.833,3.174c-0.015,0.009-1.446,0.867-2.94,1.274c-0.262,0.071-0.416,0.343-0.346,0.604
			c0.072,0.263,0.343,0.418,0.605,0.346c1.625-0.442,3.127-1.344,3.192-1.383c2.12-1.299,4.044-3.346,4.061-3.363
			c0.794-0.91,1.969-1.782,2.886-1.502c0.539,0.166,0.913,0.459,1.111,0.874c0.237,0.496,0.219,1.167-0.051,1.84
			c-0.301,0.753-0.992,1.599-1.995,2.479c0.12,0.146,0.229,0.302,0.321,0.476c0.068,0.133,0.113,0.271,0.168,0.408
			c1.057-0.9,1.994-1.93,2.42-2.996C63.643,34.151,63.651,33.192,63.296,32.449z"/>
		<path d="M55.341,31.404c-0.225,0.246-0.425,0.51-0.641,0.762c-0.283,0.331-0.592,0.641-0.915,0.932
			c-0.332,0.3-0.601,0.514-0.993,0.738c-0.414,0.239-0.838,0.48-1.269,0.689c-0.147,0.072-0.274,0.119-0.441,0.169
			c-0.257,0.077-0.417,0.343-0.343,0.606c0.068,0.254,0.348,0.421,0.604,0.344c0.503-0.151,0.96-0.41,1.415-0.669
			c0.383-0.219,0.765-0.415,1.117-0.683c0.688-0.523,1.28-1.135,1.824-1.803c0.221-0.27,0.457-0.527,0.702-0.775
			c0.135-0.135,0.274-0.266,0.415-0.393c0.074-0.066,0.15-0.131,0.226-0.195c0.038-0.032,0.077-0.064,0.116-0.096
			c0.011-0.008,0.087-0.068,0.107-0.085c0.342-0.263,0.707-0.495,1.092-0.693c0.363-0.187,0.727-0.317,1.169-0.409
			c0.147-0.031,0.179-0.033,0.288-0.045c0.268-0.027,0.493-0.203,0.493-0.492c0-0.248-0.226-0.521-0.493-0.492
			C58.036,28.998,56.513,30.111,55.341,31.404z"/>
		<path d="M59.165,36.316c0.715-0.661,1.395-1.392,1.98-2.213c0.158-0.222,0.107-0.529-0.114-0.688s-0.529-0.106-0.687,0.115
			c-0.668,0.938-1.463,1.754-2.299,2.473C58.431,36.063,58.812,36.163,59.165,36.316z"/>
		<path d="M65.159,37.816c-0.38-0.316-0.557-0.731-0.637-1.211c-0.103-0.626-1.051-0.359-0.949,0.262
			c0.101,0.609,0.369,1.084,0.742,1.467h1.737C65.736,38.194,65.424,38.036,65.159,37.816z"/>
	</g>
	<path d="M55.576,38.273h-6.01v0.322h5.786C55.417,38.482,55.491,38.373,55.576,38.273z"/>
	<path d="M61.261,38.273c0.105,0.094,0.19,0.211,0.28,0.322h7.452v-0.322H61.261z"/>
	<rect x="69.876" y="38.117" width="1.781" height="0.635"/>
	<rect x="46.674" y="38.117" width="1.782" height="0.635"/>
	<g>
		<path opacity="0.4" d="M54.671,40.895c-0.998,0.567-2.041,1.121-2.93,1.501c-0.25,0.106-0.366,0.397-0.26,0.647
			c0.08,0.186,0.263,0.298,0.453,0.298c0.064,0,0.131-0.013,0.193-0.04c0.746-0.318,1.594-0.754,2.434-1.217
			C54.581,41.684,54.62,41.289,54.671,40.895z"/>
		<path opacity="0.4" d="M55.229,38.595h-1.186c-1.357,0.698-2.458,1.103-2.871,1.244c-0.021,0.007-0.035,0.013-0.039,0.014
			c-0.255,0.097-0.383,0.381-0.287,0.635c0.075,0.197,0.263,0.318,0.461,0.318c0.057,0,0.113-0.009,0.168-0.029l0.018-0.007
			c0.484-0.166,1.881-0.684,3.545-1.596C55.097,38.98,55.157,38.787,55.229,38.595z"/>
		<path opacity="0.4" d="M64.894,43.702c-0.683-0.228-1.518-0.823-2.326-1.397c-0.205-0.147-0.4-0.281-0.597-0.418
			c-0.085,0.316-0.241,0.615-0.481,0.863c0.173,0.119,0.344,0.24,0.508,0.356c0.866,0.617,1.762,1.255,2.584,1.529
			c0.259,0.087,0.537-0.054,0.623-0.312C65.291,44.066,65.151,43.787,64.894,43.702z"/>
		<path opacity="0.4" d="M66.523,38.595h-1.858c0.344,0.262,0.742,0.474,1.168,0.653c0.248,0.104,0.525,0.076,0.674-0.178
			C66.585,38.938,66.592,38.745,66.523,38.595z"/>
		<path opacity="0.4" d="M65.374,40.967c-0.369-0.113-0.65-0.258-1.041-0.489c-0.717-0.424-1.371-1.038-1.688-1.821
			c-0.009-0.021-0.02-0.041-0.03-0.062h-0.898c-0.049,0.102-0.064,0.216-0.021,0.323c0.588,1.447,1.935,2.541,3.418,2.998
			C65.722,42.104,65.979,41.153,65.374,40.967z"/>
	</g>
</g>
<g>
	<polygon points="65.579,53.77 73.521,53.77 73.521,45.828 72.427,45.828 72.427,52.676 65.579,52.676 	"/>
	<polygon points="52.159,52.676 45.312,52.676 45.312,45.828 44.218,45.828 44.218,53.77 52.159,53.77 	"/>
	<polygon points="45.312,20.475 52.159,20.475 52.159,19.382 44.218,19.382 44.218,27.322 45.312,27.322 	"/>
	<polygon points="72.427,27.323 73.521,27.323 73.521,19.382 65.579,19.382 65.579,20.475 72.427,20.475 	"/>
</g>
<path fill="#231F20" d="M93.177,79.738c0.223-2.551-0.389-4.709-1.815-6.421c-2.104-2.514-5.336-3.298-6.715-3.525
	c-0.878-2.202-2.218-3.653-3.987-4.314c-0.693-0.259-1.445-0.392-2.238-0.392c-1.328,0-2.525,0.366-3.33,0.691
	c-1.063-1.929-2.482-3.127-4.22-3.564c-0.479-0.121-0.984-0.183-1.501-0.183c-1.656,0-3.172,0.624-4.202,1.184
	c-0.358-2.386-0.827-8.056-1.173-12.228l-0.002-0.047c-0.77-9.337-1.014-11.836-1.428-12.563c-0.526-1.81-2.787-4.462-5.041-4.302
	c-1.489,0.091-3.367,1.316-3.846,6.639c0,18.745-0.526,32.604-0.643,35.424c-1.664,0.757-3.184,2.473-3.352,2.668
	c-5.354,5.912-2.816,10.257-2.706,10.436c4.092,7.163,12.546,21.268,12.623,21.396l0.165,0.273l0.082-0.049v0.127h27.033
	l0.998,0.296l1.397-4.777C94.89,95.786,93.368,81.322,93.177,79.738z M48.671,88.264c-0.078-0.136-1.867-3.361,2.482-8.166
	c0.464-0.543,1.924-2.016,3.088-2.322l0.691-0.187l0.03-0.713c0.008-0.111,0.673-14.605,0.667-36.072
	c0.262-2.888,1.033-4.717,2.008-4.776l0.044-0.001c1.209,0,2.804,1.915,3.042,3.026l0.14,0.654l0.081,0.014
	c0.296,1.662,0.74,7.039,1.1,11.379c1.178,14.262,1.32,14.305,2.251,14.583l0.479,0.14l0.395-0.302
	c0.21-0.157,2.11-1.534,4.202-1.534c0.357,0,0.704,0.043,1.023,0.125c1.385,0.347,2.512,1.478,3.355,3.356l0.442,0.991l0.938-0.545
	c0.063-0.034,1.588-0.867,3.29-0.867c0.558,0,1.081,0.088,1.554,0.266c1.345,0.502,2.365,1.742,3.037,3.688l0.209,0.6l0.631,0.058
	c0.037,0.003,3.904,0.396,6.006,2.916c1.096,1.309,1.556,3.01,1.366,5.059l-0.007,0.142l0.01,0.062
	c0.074,0.624,1.74,15.408-3.754,25.939l-0.953,3.213H60.896C59.1,105.987,52.216,94.466,48.671,88.264z"/>
</svg>
