<?xml version="1.0" encoding="utf-8"?>
<!-- Generator: Adobe Illustrator 16.0.0, SVG Export Plug-In . SVG Version: 6.00 Build 0)  -->
<!DOCTYPE svg PUBLIC "-//W3C//DTD SVG 1.1//EN" "http://www.w3.org/Graphics/SVG/1.1/DTD/svg11.dtd">
<svg version="1.1" id="Layer_1" xmlns="http://www.w3.org/2000/svg" xmlns:xlink="http://www.w3.org/1999/xlink" x="0px" y="0px"
	 width="126px" height="126px" viewBox="0 0 126 126" enable-background="new 0 0 126 126" xml:space="preserve">
<g>
	<path d="M36.898,42.791c0.596,0.129,1.148,0.119,2.844-1.182c0.752-0.578,1.865-1.553,2.895-2.914l0.449-0.596
		c3.85-5.121,12.863-17.111,25.883-16.459c10.736,0.783,18.348,8.891,22.01,23.447c0.123,0.496,0.199,0.799,0.283,1.033
		c0.559,2.379,1.498,5.346,2.85,6.322c0.336,0.242,0.725,0.357,1.109,0.357c0.586,0,1.168-0.271,1.537-0.785
		c0.592-0.82,0.434-1.953-0.342-2.58c-0.373-0.484-1.078-2.512-1.496-4.322c-0.025-0.107-0.059-0.213-0.102-0.314
		c-0.035-0.123-0.104-0.393-0.164-0.635c-0.58-2.309-2.123-8.438-5.861-14.201c-4.828-7.445-11.412-11.518-19.572-12.105
		c-0.012-0.002-0.025-0.002-0.039-0.002c-15.039-0.768-24.91,12.359-29.125,17.965l-0.443,0.59
		c-1.154,1.525-2.518,2.475-2.988,2.748c-0.158,0.064-0.311,0.148-0.453,0.256c-0.59,0.447-0.879,1.209-0.721,1.932
		C35.611,42.068,36.178,42.633,36.898,42.791z"/>
	<path d="M50.045,73.418c-3.441,1.922-6.959,3.746-9.996,5.045c-0.963,0.412-1.41,1.523-0.998,2.488
		c0.307,0.719,1.008,1.15,1.744,1.15c0.248,0,0.502-0.049,0.744-0.152c3.229-1.381,6.955-3.322,10.574-5.35
		C51.316,75.627,50.623,74.563,50.045,73.418z"/>
	<path d="M37.744,62.254c5.02-1.365,9.727-3.863,11.523-4.877c1.107-3.268,2.932-6.111,5.307-8.355
		c-2.018,1.633-4.246,3.285-6.51,4.672c-0.057,0.033-5.564,3.338-11.318,4.904c-1.01,0.275-1.605,1.318-1.33,2.326
		C35.691,61.936,36.732,62.531,37.744,62.254z"/>
	<path d="M76.77,38.205c2.078,0.635,3.518,1.768,4.281,3.363c0.902,1.887,0.84,4.432-0.164,6.994
		c0.996,1.016,1.85,2.168,2.553,3.432c0.352-0.641,0.676-1.285,0.936-1.934c1.43-3.574,1.467-7.266,0.094-10.129
		c-1.221-2.557-3.5-4.406-6.588-5.352c-4.533-1.387-10.027,1.131-15.063,6.898c-0.037,0.043-2.633,2.766-6.316,5.932
		c2.672-1.943,5.85-3.221,9.357-3.645C68.912,40.346,73.316,37.148,76.77,38.205z"/>
	<path d="M53.848,35.908c-0.861,0.947-1.633,1.965-2.465,2.938c-1.088,1.273-2.279,2.461-3.521,3.584
		c-1.279,1.154-2.313,1.979-3.82,2.846c-1.598,0.916-3.229,1.844-4.885,2.65c-0.57,0.279-1.061,0.459-1.701,0.652
		c-0.988,0.297-1.602,1.316-1.322,2.332c0.268,0.977,1.342,1.621,2.332,1.324c1.938-0.584,3.695-1.582,5.443-2.576
		c1.479-0.84,2.945-1.596,4.305-2.631c2.648-2.012,4.926-4.363,7.02-6.936c0.85-1.041,1.758-2.033,2.705-2.986
		c0.518-0.52,1.053-1.021,1.598-1.512c0.285-0.256,0.574-0.504,0.867-0.75c0.146-0.123,0.297-0.246,0.447-0.369
		c0.039-0.033,0.334-0.264,0.408-0.324c1.32-1.012,2.727-1.91,4.207-2.67c1.398-0.719,2.801-1.221,4.502-1.576
		c0.564-0.117,0.686-0.131,1.109-0.174c1.027-0.105,1.896-0.781,1.896-1.895c0-0.955-0.867-2.004-1.896-1.896
		C64.223,26.65,58.363,30.934,53.848,35.908z"/>
	<path d="M39.094,72.205c1.422-0.488,4.873-1.75,9.27-3.873c-0.201-1.133-0.316-2.303-0.316-3.514c0-0.191,0.021-0.373,0.025-0.563
		c-4.834,2.428-8.709,3.85-10.209,4.365c-0.084,0.027-0.137,0.045-0.154,0.053c-0.979,0.371-1.473,1.465-1.102,2.445
		c0.287,0.758,1.008,1.223,1.773,1.223c0.215,0,0.434-0.035,0.646-0.113L39.094,72.205z"/>
	<path d="M75.756,43.656c-0.854-0.609-2.037-0.41-2.646,0.441c-0.016,0.023-0.033,0.045-0.049,0.068
		c1.223,0.303,2.385,0.721,3.467,1.256C76.605,44.758,76.338,44.072,75.756,43.656z"/>
	<path d="M60.719,82.209c-1.49-0.42-2.883-1.029-4.168-1.797c-4.602,3.033-9.668,6.342-11.918,6.947
		c-1.012,0.273-1.611,1.313-1.338,2.322c0.227,0.848,0.992,1.404,1.828,1.404c0.164,0,0.33-0.021,0.494-0.064
		c2.924-0.789,8.078-4.186,13.533-7.781C59.66,82.904,60.186,82.559,60.719,82.209z"/>
	<path d="M90.676,83.49c-2.627-0.877-5.842-3.166-8.951-5.379c-1.354-0.967-2.652-1.889-3.893-2.697l1.26,3.387l-1.697,0.895
		c0.725,0.502,1.447,1.016,2.131,1.502c3.336,2.377,6.785,4.832,9.951,5.889c0.994,0.33,2.066-0.207,2.398-1.199
		C92.205,84.895,91.668,83.82,90.676,83.49z"/>
	<path d="M85.93,92.775c-1.527-0.553-4.012-2.088-6.414-3.57c-5.074-3.135-8.299-5.039-10.613-4.639
		c-2.344,0.404-7.266,3.75-15.529,9.785c-1.012,0.738-1.885,1.375-2.49,1.803c-0.855,0.605-1.059,1.787-0.455,2.643
		c0.369,0.521,0.955,0.801,1.549,0.801c0.379,0,0.76-0.113,1.094-0.348c0.629-0.445,1.514-1.092,2.539-1.838
		c3.287-2.4,12.023-8.779,13.92-9.105c1.182-0.082,5.447,2.549,7.994,4.123c2.686,1.658,5.221,3.225,7.119,3.912
		c0.982,0.355,2.07-0.154,2.426-1.141C87.424,94.217,86.916,93.133,85.93,92.775z"/>
	<path d="M79.527,102.199c-1.064-0.695-2.043-1.395-2.99-2.068c-3.109-2.221-5.797-4.139-8.742-3.627
		c-3.316,0.572-8.598,5.885-9.623,6.941c-0.729,0.754-0.709,1.953,0.043,2.682c0.369,0.355,0.844,0.535,1.318,0.535
		c0.496,0,0.99-0.193,1.361-0.578c2.539-2.623,6.146-5.602,7.547-5.844c1.383-0.238,3.475,1.25,5.895,2.977
		c0.932,0.664,1.988,1.418,3.119,2.158c0.877,0.572,2.053,0.324,2.625-0.553C80.65,103.945,80.404,102.773,79.527,102.199z"/>
	<path d="M96.207,63.07c-1.58-0.666-3.23-1.369-4.561-2.475c-1.465-1.219-2.146-2.818-2.451-4.664
		c-0.396-2.408-4.049-1.385-3.654,1.006c0.811,4.918,4.43,7.58,8.754,9.406c0.951,0.404,2.021,0.299,2.592-0.68
		C97.359,64.859,97.16,63.473,96.207,63.07z"/>
	<path d="M92.529,72.961c-1.424-0.438-2.504-0.992-4.01-1.883c-1.535-0.906-2.984-2.047-4.188-3.393
		c-0.525,1.283-1.193,2.408-1.967,3.383c2.525,2.566,5.744,4.498,9.156,5.549C93.865,77.34,94.857,73.68,92.529,72.961z"/>
	<path d="M54.574,49.021c0.67-0.545,1.313-1.082,1.928-1.611C55.824,47.904,55.184,48.445,54.574,49.021z"/>
	<path d="M74.535,57.158c-1.131-0.523-2.787-0.916-4.658-0.916c-6.055,0-10.322,4.922-10.322,10.322
		c0,3.439,2.178,5.486,4.703,5.486c2.613,0,4.617-1.262,6.141-3.832h0.174c-0.131,2.656,1.48,3.832,3.223,3.832
		c4.094,0,7.752-3.832,7.752-10.363c0-7.273-5.094-12.588-12.672-12.588c-9.67,0-15.896,7.752-15.896,16.725
		c0,8.361,6.053,13.588,13.195,13.588c2.918,0,5.357-0.48,7.752-1.742l-0.697-1.873c-1.785,1.002-4.094,1.523-6.576,1.523
		c-6.445,0-11.191-4.484-11.191-11.758c0-8.842,5.967-14.459,13.064-14.459c6.75,0,10.539,4.529,10.539,10.844
		c0,5.053-2.482,8.014-4.703,7.971c-1.438-0.045-1.959-1.568-1.307-4.879L74.535,57.158z M70.617,63.777
		c-0.48,2.699-2.789,5.922-5.314,5.922c-1.916,0-2.873-1.393-2.873-3.309c0-4.225,3.092-7.84,6.924-7.84
		c1.002,0,1.742,0.174,2.178,0.305L70.617,63.777z"/>
</g>
</svg>
