<?xml version="1.0" encoding="utf-8"?>
<!-- Generator: Adobe Illustrator 16.0.0, SVG Export Plug-In . SVG Version: 6.00 Build 0)  -->
<!DOCTYPE svg PUBLIC "-//W3C//DTD SVG 1.1//EN" "http://www.w3.org/Graphics/SVG/1.1/DTD/svg11.dtd">
<svg version="1.1" id="Layer_1" xmlns="http://www.w3.org/2000/svg" xmlns:xlink="http://www.w3.org/1999/xlink" x="0px" y="0px"
	 width="126px" height="126px" viewBox="0 0 126 126" enable-background="new 0 0 126 126" xml:space="preserve">
<g>
	<path d="M32.6,39.275c0.607,0.133,1.17,0.125,2.902-1.205c0.768-0.59,1.904-1.586,2.955-2.973l0.459-0.609
		c3.93-5.229,13.131-17.467,26.42-16.801c10.959,0.799,18.727,9.076,22.465,23.936c0.127,0.504,0.205,0.814,0.289,1.053
		c0.572,2.43,1.529,5.457,2.91,6.453c0.342,0.248,0.738,0.365,1.131,0.365c0.6,0,1.191-0.277,1.57-0.803
		c0.604-0.836,0.443-1.992-0.35-2.633c-0.381-0.494-1.1-2.563-1.527-4.412c-0.025-0.109-0.061-0.217-0.104-0.32
		c-0.035-0.125-0.105-0.4-0.168-0.648c-0.592-2.355-2.166-8.611-5.982-14.496c-4.928-7.598-11.648-11.756-19.977-12.355
		c-0.014-0.002-0.027-0.002-0.041-0.004c-15.352-0.783-25.428,12.617-29.73,18.34l-0.453,0.6c-1.178,1.559-2.568,2.527-3.047,2.809
		c-0.164,0.063-0.32,0.15-0.465,0.26c-0.602,0.457-0.896,1.234-0.734,1.971C31.285,38.539,31.863,39.115,32.6,39.275z"/>
	<path d="M81.061,46.697c1.461-3.648,1.496-7.418,0.098-10.34c-1.248-2.607-3.574-4.496-6.727-5.463
		c-4.627-1.416-10.236,1.154-15.373,7.041c-0.066,0.072-7.381,7.766-15.063,12.469c-0.057,0.035-5.68,3.408-11.551,5.008
		c-1.031,0.281-1.641,1.344-1.359,2.375s1.344,1.641,2.375,1.357c6.389-1.738,12.289-5.277,12.547-5.434
		c8.332-5.102,15.889-13.143,15.953-13.217c3.121-3.574,7.736-7.002,11.338-5.898c2.119,0.648,3.59,1.803,4.369,3.432
		c0.932,1.949,0.859,4.586-0.199,7.232c-1.973,4.926-8.111,10.875-17.285,16.75c-4.602,2.947-16.188,10.18-24.369,13.678
		c-0.982,0.42-1.438,1.559-1.018,2.541c0.313,0.734,1.027,1.174,1.779,1.174c0.254,0,0.512-0.049,0.76-0.156
		c8.449-3.611,20.252-10.979,24.934-13.977C69.238,60.807,78.152,53.963,81.061,46.697z"/>
	<path d="M49.898,32.252c-0.877,0.967-1.666,2.006-2.514,2.996c-1.111,1.301-2.328,2.514-3.596,3.66
		c-1.305,1.178-2.359,2.02-3.898,2.904c-1.633,0.936-3.295,1.883-4.986,2.707c-0.582,0.283-1.082,0.467-1.736,0.664
		c-1.01,0.303-1.635,1.346-1.352,2.381c0.275,0.998,1.371,1.654,2.381,1.352c1.979-0.596,3.771-1.613,5.557-2.629
		c1.51-0.857,3.008-1.631,4.395-2.686c2.701-2.055,5.027-4.453,7.166-7.08c0.867-1.063,1.793-2.076,2.76-3.047
		c0.529-0.531,1.074-1.043,1.633-1.545c0.289-0.26,0.584-0.514,0.883-0.764c0.15-0.129,0.305-0.254,0.457-0.379
		c0.041-0.031,0.34-0.268,0.418-0.33c1.348-1.033,2.783-1.951,4.293-2.727c1.426-0.732,2.859-1.246,4.596-1.607
		c0.574-0.121,0.701-0.133,1.131-0.178c1.049-0.109,1.936-0.799,1.936-1.936c0-0.973-0.883-2.043-1.936-1.934
		C60.49,22.801,54.51,27.174,49.898,32.252z"/>
	<path d="M34.84,69.301c4.205-1.443,25.787-9.502,37.873-26.443c0.621-0.869,0.418-2.076-0.451-2.697s-2.078-0.42-2.699,0.451
		c-11.4,15.979-31.971,23.654-35.979,25.029c-0.086,0.029-0.139,0.049-0.156,0.057c-1,0.377-1.504,1.494-1.125,2.494
		c0.293,0.773,1.029,1.25,1.811,1.25c0.219,0,0.441-0.037,0.66-0.117L34.84,69.301z"/>
	<path d="M60.066,77.465c0.449-2.074,1.191-4.041,2.188-5.852c-2.326,1.301-5.313,3.242-9.072,5.721
		c-4.83,3.186-10.307,6.795-12.688,7.436c-1.033,0.277-1.645,1.34-1.367,2.371c0.234,0.863,1.014,1.434,1.867,1.434
		c0.168,0,0.336-0.021,0.504-0.068c2.986-0.803,8.246-4.27,13.814-7.941C56.834,79.561,58.482,78.477,60.066,77.465z"/>
	<path d="M59.736,84.678c-2.629,1.678-6.031,4.098-10.32,7.229c-1.033,0.754-1.924,1.404-2.543,1.842
		c-0.873,0.615-1.08,1.824-0.465,2.695c0.379,0.535,0.977,0.82,1.582,0.82c0.387,0,0.777-0.115,1.115-0.355
		c0.643-0.455,1.547-1.113,2.592-1.877c1.932-1.41,5.699-4.16,8.924-6.309C60.201,87.424,59.904,86.07,59.736,84.678z"/>
	<path d="M63.363,94.313c-3.377,1.152-8.08,5.877-9.049,6.879c-0.744,0.768-0.725,1.992,0.043,2.734
		c0.377,0.365,0.861,0.545,1.346,0.545c0.506,0,1.012-0.197,1.391-0.588c2.592-2.678,6.273-5.719,7.701-5.965
		c0.656-0.113,1.471,0.164,2.396,0.656C65.736,97.328,64.447,95.896,63.363,94.313z"/>
	<path d="M93.139,59.977c-1.613-0.68-3.299-1.396-4.656-2.525c-1.494-1.244-2.189-2.877-2.5-4.762
		c-0.406-2.457-4.135-1.412-3.732,1.029c0.549,3.326,2.361,5.639,4.805,7.365c1.992,0.545,3.871,1.361,5.594,2.416
		c0.471-0.098,0.893-0.375,1.186-0.875C94.314,61.805,94.111,60.389,93.139,59.977z"/>
	<path d="M76.277,59.645c-0.703,0.193-1.342,0.898-1.439,1.654c1.148-0.359,2.34-0.619,3.561-0.785
		C77.939,59.814,77.188,59.393,76.277,59.645z"/>
	<path d="M69.691,71.844l-2.09-2.717c-0.15-0.195-0.373-0.256-0.566-0.148c-0.199,0.1-0.324,0.352-0.322,0.625l0.016,10.658
		c-0.002,0.371,0.229,0.672,0.52,0.672l8.193,0.012c0.211,0.002,0.398-0.162,0.48-0.418c0.082-0.254,0.037-0.543-0.113-0.736
		l-2.328-3.025c4.188-5.037,10.746-4.904,14.844,0.42c0.201,0.262,0.533,0.262,0.734-0.002l3.053-3.965
		c0.203-0.264,0.176-0.727-0.031-0.994C85.949,64.258,76.043,64.098,69.691,71.844z"/>
	<path d="M91.715,80.955l-8.193-0.01c-0.211-0.004-0.398,0.16-0.48,0.416c-0.08,0.254-0.037,0.541,0.111,0.734l2.33,3.025
		c-4.189,5.039-10.748,4.906-14.846-0.418c-0.201-0.262-0.533-0.262-0.734,0.002L66.85,88.67c-0.203,0.264-0.174,0.727,0.031,0.994
		c6.131,7.967,16.039,8.127,22.391,0.381l2.09,2.717c0.15,0.195,0.373,0.256,0.568,0.146c0.197-0.098,0.322-0.35,0.32-0.623
		l-0.016-10.658C92.236,81.254,92.004,80.955,91.715,80.955z"/>
</g>
</svg>
