<?xml version="1.0" encoding="utf-8"?>
<!-- Generator: Adobe Illustrator 16.0.0, SVG Export Plug-In . SVG Version: 6.00 Build 0)  -->
<!DOCTYPE svg PUBLIC "-//W3C//DTD SVG 1.1//EN" "http://www.w3.org/Graphics/SVG/1.1/DTD/svg11.dtd">
<svg version="1.1" id="Layer_1" xmlns="http://www.w3.org/2000/svg" xmlns:xlink="http://www.w3.org/1999/xlink" x="0px" y="0px"
	 width="126px" height="126px" viewBox="0 0 126 126" enable-background="new 0 0 126 126" xml:space="preserve">
<g>
	<path d="M33.922,42.126c1.223,0,2.268-0.763,2.688-1.835c0.778-0.692,2.458-2.175,3.575-3.155c0.02-0.018,0.039-0.035,0.059-0.054
		c0.283-0.267,12.836-12.11,15.086-14.232l13.043-3.982l15.714,8.168l4.679,7.574l3.38,10.105l1.173,3.991
		c-0.517,0.579-0.834,1.337-0.834,2.171c0,1.799,1.463,3.262,3.262,3.262c1.798,0,3.262-1.463,3.262-3.262
		c0-1.228-0.684-2.299-1.689-2.856l-1.32-4.48c-0.006-0.021-0.013-0.046-0.021-0.068l-3.466-10.362
		c-0.049-0.147-0.114-0.288-0.195-0.418l-5.092-8.247c-0.192-0.309-0.464-0.562-0.786-0.729l-16.937-8.804
		c-0.469-0.242-1.014-0.294-1.519-0.14l-14.282,4.362c-0.295,0.09-0.568,0.248-0.793,0.461L38.137,33.533
		c-0.24,0.226-0.44,0.414-0.605,0.583l-0.006-0.006c0,0-1.019,0.896-2.033,1.792c-0.229,0.201-0.455,0.4-0.67,0.59
		c-0.283-0.092-0.584-0.143-0.9-0.143c-1.591,0-2.887,1.295-2.887,2.887C31.035,40.83,32.331,42.126,33.922,42.126z M95.746,52.701
		c-1.006,0-1.823-0.818-1.823-1.823c0-1.005,0.817-1.822,1.823-1.822c1.004,0,1.821,0.817,1.821,1.822
		C97.567,51.883,96.75,52.701,95.746,52.701z M33.922,37.787c0.802,0,1.451,0.649,1.451,1.449c0,0.799-0.649,1.45-1.451,1.45
		c-0.799,0-1.448-0.651-1.448-1.45C32.474,38.437,33.123,37.787,33.922,37.787z"/>
	<path d="M37.457,72.186c5.677-2.036,26.043-10.216,38.102-26.48c1.339-0.25,2.355-1.426,2.355-2.837
		c0-1.592-1.294-2.889-2.888-2.889c-1.593,0-2.89,1.297-2.89,2.889c0,0.206,0.023,0.406,0.064,0.6
		C61.013,58.437,42.208,66.169,36.422,68.276c-0.432-0.256-0.936-0.407-1.473-0.407c-1.594,0-2.889,1.295-2.889,2.888
		c0,1.593,1.295,2.889,2.889,2.889C36.021,73.646,36.958,73.058,37.457,72.186z M75.026,41.419c0.799,0,1.45,0.649,1.45,1.449
		c0,0.799-0.651,1.45-1.45,1.45c-0.8,0-1.45-0.651-1.45-1.45C73.576,42.068,74.227,41.419,75.026,41.419z M34.949,72.208
		c-0.8,0-1.451-0.652-1.451-1.451c0-0.799,0.651-1.45,1.451-1.45c0.799,0,1.45,0.651,1.45,1.45
		C36.399,71.557,35.748,72.208,34.949,72.208z"/>
	<path d="M40.955,81.891l24.201-13.577c0.146-0.081,0.281-0.181,0.4-0.295l21.948-20.836c0.751-0.712,0.839-1.877,0.206-2.696
		l-8.789-11.332c-0.583-0.753-1.613-0.993-2.47-0.579L62.539,39.32c-0.146,0.071-0.281,0.16-0.404,0.263L46.109,52.851
		c-0.814,0.477-5.575,3.204-10.778,4.811c-0.45-0.291-0.986-0.462-1.562-0.462c-1.593,0-2.889,1.297-2.889,2.889
		c0,1.594,1.296,2.888,2.889,2.888c1.038,0,1.947-0.551,2.457-1.375c6.268-1.883,11.842-5.225,12.088-5.374
		c0.085-0.052,0.166-0.11,0.242-0.172L64.516,42.84l12.225-5.925l6.668,8.601L62.966,64.924L38.627,78.576
		c-0.169-0.03-0.341-0.049-0.519-0.049c-1.593,0-2.89,1.296-2.89,2.889c0,1.594,1.297,2.888,2.89,2.888
		C39.54,84.304,40.727,83.258,40.955,81.891z M33.77,61.538c-0.801,0-1.45-0.651-1.45-1.45c0-0.8,0.649-1.449,1.45-1.449
		c0.799,0,1.449,0.649,1.449,1.449C35.219,60.887,34.568,61.538,33.77,61.538z M38.108,82.866c-0.8,0-1.451-0.651-1.451-1.45
		c0-0.8,0.651-1.45,1.451-1.45c0.799,0,1.45,0.65,1.45,1.45C39.559,82.215,38.907,82.866,38.108,82.866z"/>
	<path d="M78.675,103.441c-0.197,0-0.391,0.021-0.579,0.059l-9.619-5.023c-0.686-0.358-1.515-0.292-2.136,0.17l-7.42,5.526
		c-0.294-0.102-0.608-0.159-0.937-0.159c-1.594,0-2.889,1.296-2.889,2.889c0,1.592,1.295,2.889,2.889,2.889
		c1.254,0,2.32-0.805,2.72-1.922l7.029-5.236l8.103,4.23c0.253,1.339,1.429,2.354,2.839,2.354c1.593,0,2.888-1.295,2.888-2.888
		C81.563,104.737,80.268,103.441,78.675,103.441z M57.984,108.353c-0.8,0-1.451-0.65-1.451-1.449c0-0.8,0.651-1.45,1.451-1.45
		c0.799,0,1.45,0.65,1.45,1.45C59.435,107.703,58.783,108.353,57.984,108.353z M78.675,107.78c-0.8,0-1.449-0.65-1.449-1.45
		c0-0.799,0.649-1.451,1.449-1.451c0.799,0,1.45,0.652,1.45,1.451C80.125,107.13,79.474,107.78,78.675,107.78z"/>
	<path d="M85.91,93.191c-0.409,0-0.798,0.086-1.15,0.24l-15.129-7.652c-0.637-0.321-1.395-0.283-1.996,0.1
		c-0.527,0.338-11.446,7.33-16.591,10.785c-0.291-0.098-0.602-0.154-0.926-0.154c-1.593,0-2.89,1.295-2.89,2.887
		c0,1.595,1.297,2.89,2.89,2.89c1.279,0,2.363-0.836,2.743-1.99c4.079-2.755,13.021-8.506,15.977-10.401l14.401,7.283
		c0.434,1.049,1.466,1.791,2.671,1.791c1.594,0,2.889-1.297,2.889-2.888C88.799,94.486,87.504,93.191,85.91,93.191z M50.118,100.848
		c-0.8,0-1.451-0.65-1.451-1.451c0-0.798,0.651-1.449,1.451-1.449c0.799,0,1.45,0.651,1.45,1.449
		C51.568,100.198,50.917,100.848,50.118,100.848z M85.91,97.53c-0.799,0-1.449-0.651-1.449-1.45c0-0.8,0.65-1.45,1.449-1.45
		c0.8,0,1.451,0.65,1.451,1.45C87.361,96.879,86.71,97.53,85.91,97.53z"/>
	<path d="M91.407,83.497c-0.402,0-0.782,0.082-1.13,0.231L71.032,73.174c-0.616-0.337-1.364-0.33-1.975,0.023L43.408,88.004
		c-0.302-0.107-0.624-0.168-0.961-0.168c-1.592,0-2.889,1.296-2.889,2.889c0,1.592,1.297,2.888,2.889,2.888
		c1.277,0,2.363-0.834,2.742-1.986l24.9-14.375l18.644,10.223c0.432,1.054,1.466,1.798,2.674,1.798c1.593,0,2.89-1.294,2.89-2.888
		C94.297,84.794,93,83.497,91.407,83.497z M40.996,90.726c0-0.8,0.651-1.451,1.451-1.451c0.799,0,1.45,0.651,1.45,1.451
		c0,0.799-0.651,1.448-1.45,1.448C41.647,92.174,40.996,91.524,40.996,90.726z M91.407,87.836c-0.8,0-1.451-0.651-1.451-1.45
		c0-0.8,0.651-1.451,1.451-1.451c0.799,0,1.45,0.651,1.45,1.451C92.857,87.186,92.206,87.836,91.407,87.836z"/>
	<path d="M93.204,72.584c-0.247,0-0.485,0.035-0.714,0.093c-1.795-0.949-3.591-1.898-5.386-2.846
		c-0.153-0.081-0.308-0.163-0.459-0.244c-0.039-0.021-0.063-0.032-0.084-0.042c-0.031-0.027-0.067-0.06-0.114-0.102
		c-0.74-0.653-1.344-1.463-1.914-2.262c-0.522-0.732-1.018-1.487-1.484-2.258c0.239-0.422,0.378-0.907,0.378-1.426
		c0-1.592-1.296-2.888-2.888-2.888c-1.594,0-2.891,1.296-2.891,2.888c0,1.009,0.521,1.897,1.306,2.415
		c0.65,1.13,1.354,2.233,2.1,3.303c1.004,1.44,2.163,3.115,3.755,3.955c1.859,0.984,3.721,1.968,5.582,2.951
		c0.297,1.282,1.443,2.241,2.813,2.241c1.593,0,2.89-1.296,2.89-2.889C96.094,73.881,94.797,72.584,93.204,72.584z M80.539,62.049
		c0.799,0,1.449,0.649,1.449,1.449c0,0.8-0.65,1.45-1.449,1.45c-0.801,0-1.451-0.65-1.451-1.45
		C79.088,62.698,79.738,62.049,80.539,62.049z M93.204,76.923c-0.8,0-1.45-0.65-1.45-1.45c0-0.799,0.65-1.449,1.45-1.449
		c0.798,0,1.449,0.65,1.449,1.449C94.653,76.273,94.002,76.923,93.204,76.923z"/>
	<path d="M96.818,61.609c-0.293,0-0.574,0.044-0.84,0.125l-1.115-0.795c-0.533-0.378-1.065-0.757-1.598-1.136
		c-0.011-0.008-0.022-0.017-0.034-0.024c-0.915-1.339-1.831-2.679-2.746-4.018c0.134-0.333,0.21-0.695,0.21-1.075
		c0-1.593-1.297-2.889-2.889-2.889c-1.594,0-2.89,1.296-2.89,2.889c0,1.204,0.741,2.236,1.79,2.67
		c1.096,1.604,2.19,3.207,3.287,4.81c0.6,0.876,1.756,1.483,2.607,2.09c0.479,0.341,0.959,0.683,1.438,1.024
		c0.342,1.214,1.457,2.106,2.779,2.106c1.593,0,2.889-1.296,2.889-2.888C99.707,62.905,98.411,61.609,96.818,61.609z M87.807,53.235
		c0.799,0,1.449,0.65,1.449,1.45c0,0.799-0.65,1.45-1.449,1.45c-0.8,0-1.451-0.651-1.451-1.45
		C86.355,53.886,87.007,53.235,87.807,53.235z M96.818,65.948c-0.801,0-1.451-0.651-1.451-1.45c0-0.8,0.65-1.45,1.451-1.45
		c0.799,0,1.449,0.65,1.449,1.45C98.268,65.297,97.617,65.948,96.818,65.948z"/>
	<path d="M67.231,25.143c-5.087,3.307-10.173,6.613-15.259,9.921c-2.248,1.461-4.166,3.392-6.174,5.163
		c-1.453,1.281-2.907,2.563-4.361,3.845c-0.021,0.018-0.041,0.036-0.063,0.055c-0.059,0.043-0.175,0.126-0.318,0.209
		c-1.103,0.652-2.225,1.271-3.367,1.85c-0.5,0.252-1.006,0.492-1.518,0.719c-0.018,0.007-0.03,0.012-0.043,0.018
		c-0.026,0.011-0.053,0.021-0.079,0.031c-0.479-0.353-1.069-0.564-1.71-0.564c-1.592,0-2.889,1.295-2.889,2.888
		c0,1.593,1.297,2.889,2.889,2.889c0.938,0,1.77-0.449,2.297-1.143c2.354-0.8,4.59-2.093,6.707-3.357
		c1.071-0.641,1.996-1.673,2.924-2.493c1.711-1.508,3.421-3.015,5.131-4.523c0.565-0.499,1.132-0.998,1.699-1.497l0.081-0.072
		c5.415-3.521,10.831-7.043,16.245-10.564c0.393,0.155,0.818,0.243,1.264,0.243c1.911,0,3.465-1.554,3.465-3.464
		c0-1.911-1.554-3.466-3.465-3.466C68.83,21.831,67.313,23.303,67.231,25.143z M32.891,49.278c0-0.8,0.651-1.45,1.449-1.45
		c0.799,0,1.45,0.65,1.45,1.45c0,0.8-0.651,1.449-1.45,1.449C33.542,50.728,32.891,50.079,32.891,49.278z M72.712,25.296
		c0,1.116-0.907,2.025-2.024,2.025c-1.116,0-2.025-0.91-2.025-2.025c0-1.118,0.909-2.026,2.025-2.026
		C71.805,23.271,72.712,24.179,72.712,25.296z"/>
</g>
</svg>
