<?xml version="1.0" encoding="utf-8"?>
<!-- Generator: Adobe Illustrator 16.0.0, SVG Export Plug-In . SVG Version: 6.00 Build 0)  -->
<!DOCTYPE svg PUBLIC "-//W3C//DTD SVG 1.1//EN" "http://www.w3.org/Graphics/SVG/1.1/DTD/svg11.dtd">
<svg version="1.1" id="Layer_1" xmlns="http://www.w3.org/2000/svg" xmlns:xlink="http://www.w3.org/1999/xlink" x="0px" y="0px"
	 width="126px" height="126px" viewBox="0 0 126 126" enable-background="new 0 0 126 126" xml:space="preserve">
<g>
	<path d="M34.85,42.355c0.607,0.133,1.17,0.125,2.9-1.205c0.77-0.59,1.906-1.586,2.955-2.973l0.459-0.609
		c3.93-5.229,13.131-17.467,26.42-16.801c10.961,0.799,18.729,9.076,22.467,23.936c0.127,0.504,0.203,0.814,0.289,1.053
		c0.57,2.43,1.529,5.457,2.91,6.453c0.342,0.248,0.738,0.365,1.131,0.365c0.6,0,1.191-0.277,1.57-0.803
		c0.604-0.836,0.441-1.992-0.35-2.633c-0.383-0.494-1.1-2.563-1.527-4.412c-0.025-0.109-0.061-0.217-0.104-0.32
		c-0.037-0.125-0.105-0.4-0.168-0.648c-0.592-2.355-2.166-8.611-5.982-14.496c-4.928-7.598-11.65-11.756-19.979-12.355
		c-0.012-0.002-0.025-0.002-0.041-0.004c-15.35-0.783-25.428,12.617-29.729,18.34l-0.453,0.6c-1.178,1.559-2.568,2.527-3.049,2.809
		c-0.162,0.063-0.318,0.15-0.465,0.26c-0.602,0.457-0.895,1.234-0.732,1.971C33.535,41.619,34.111,42.195,34.85,42.355z"/>
	<path d="M83.311,49.777c1.461-3.648,1.496-7.418,0.096-10.34c-1.246-2.607-3.572-4.496-6.725-5.463
		c-4.627-1.416-10.236,1.154-15.375,7.041c-0.064,0.072-7.379,7.766-15.061,12.469c-0.057,0.035-5.68,3.408-11.553,5.008
		c-1.029,0.281-1.639,1.344-1.357,2.375s1.344,1.641,2.375,1.357c6.389-1.738,12.287-5.277,12.545-5.434
		c8.334-5.102,15.891-13.143,15.955-13.217c3.119-3.574,7.736-7.002,11.338-5.898c2.119,0.648,3.588,1.803,4.367,3.432
		c0.934,1.949,0.861,4.586-0.199,7.232c-1.971,4.926-8.109,10.875-17.283,16.75c-4.602,2.947-16.188,10.18-24.369,13.678
		c-0.982,0.42-1.439,1.559-1.02,2.541c0.314,0.734,1.029,1.174,1.781,1.174c0.252,0,0.512-0.049,0.76-0.156
		c8.447-3.611,20.252-10.979,24.934-13.977C71.486,63.887,80.402,57.043,83.311,49.777z"/>
	<path d="M52.148,35.332c-0.877,0.967-1.666,2.006-2.516,2.996c-1.111,1.301-2.326,2.514-3.594,3.66
		c-1.305,1.178-2.359,2.02-3.9,2.904c-1.631,0.936-3.295,1.883-4.986,2.707c-0.58,0.283-1.08,0.467-1.734,0.664
		c-1.01,0.303-1.637,1.346-1.352,2.381c0.275,0.998,1.371,1.654,2.381,1.352c1.979-0.596,3.771-1.613,5.557-2.629
		c1.508-0.857,3.008-1.631,4.395-2.686c2.701-2.055,5.027-4.453,7.166-7.08c0.865-1.063,1.793-2.076,2.76-3.047
		c0.527-0.531,1.074-1.043,1.631-1.545c0.291-0.26,0.586-0.514,0.885-0.764c0.15-0.129,0.305-0.254,0.457-0.379
		c0.039-0.031,0.34-0.268,0.418-0.33c1.346-1.033,2.781-1.951,4.293-2.727c1.426-0.732,2.857-1.246,4.594-1.607
		c0.576-0.121,0.701-0.133,1.133-0.178c1.049-0.109,1.936-0.799,1.936-1.936c0-0.973-0.883-2.043-1.936-1.934
		C62.74,25.881,56.758,30.254,52.148,35.332z"/>
	<path d="M37.09,72.381c4.203-1.443,25.787-9.502,37.873-26.443c0.619-0.869,0.418-2.076-0.451-2.697
		c-0.871-0.621-2.08-0.42-2.699,0.451c-11.4,15.979-31.971,23.654-35.979,25.029c-0.086,0.029-0.139,0.049-0.158,0.057
		c-0.998,0.377-1.502,1.494-1.123,2.494c0.293,0.773,1.027,1.25,1.809,1.25c0.221,0,0.443-0.037,0.66-0.117L37.09,72.381z"/>
	<path d="M62.316,80.545c0.447-2.074,1.191-4.041,2.188-5.852c-2.326,1.301-5.313,3.242-9.072,5.721
		C50.6,83.6,45.125,87.209,42.742,87.85c-1.031,0.277-1.643,1.34-1.365,2.371c0.232,0.863,1.014,1.434,1.867,1.434
		c0.166,0,0.336-0.021,0.504-0.068c2.984-0.803,8.244-4.27,13.813-7.941C59.084,82.641,60.73,81.557,62.316,80.545z"/>
	<path d="M61.986,87.758c-2.629,1.678-6.033,4.098-10.322,7.229c-1.031,0.754-1.924,1.404-2.541,1.842
		c-0.873,0.615-1.08,1.824-0.465,2.695c0.377,0.535,0.975,0.82,1.582,0.82c0.387,0,0.775-0.115,1.115-0.355
		c0.643-0.455,1.545-1.113,2.592-1.877c1.932-1.41,5.699-4.16,8.924-6.309C62.451,90.504,62.154,89.15,61.986,87.758z"/>
	<path d="M65.613,97.393c-3.379,1.152-8.08,5.877-9.051,6.879c-0.742,0.768-0.723,1.992,0.045,2.734
		c0.375,0.365,0.861,0.545,1.346,0.545c0.506,0,1.012-0.197,1.391-0.588c2.592-2.678,6.273-5.719,7.701-5.965
		c0.654-0.113,1.469,0.164,2.395,0.656C67.986,100.408,66.697,98.977,65.613,97.393z"/>
	<path d="M95.389,63.057c-1.613-0.68-3.299-1.396-4.656-2.525c-1.494-1.244-2.189-2.877-2.5-4.762
		c-0.406-2.457-4.135-1.412-3.732,1.029c0.549,3.326,2.361,5.639,4.805,7.365c1.99,0.545,3.871,1.361,5.594,2.416
		c0.469-0.098,0.891-0.375,1.184-0.875C96.564,64.885,96.361,63.469,95.389,63.057z"/>
	<path d="M78.525,62.725c-0.701,0.193-1.342,0.898-1.438,1.654c1.148-0.359,2.338-0.619,3.559-0.785
		C80.188,62.895,79.438,62.473,78.525,62.725z"/>
	<path d="M82.406,65.328c-10.338,0-18.75,8.41-18.75,18.75c0,10.338,8.412,18.75,18.75,18.75c10.34,0,18.75-8.412,18.75-18.75
		C101.156,73.738,92.746,65.328,82.406,65.328z M82.406,98.828c-8.133,0-14.75-6.617-14.75-14.75s6.617-14.75,14.75-14.75
		s14.75,6.617,14.75,14.75S90.539,98.828,82.406,98.828z"/>
	<path d="M82.752,73.725c-1.201,0-2.105,0.906-2.105,2.107c0,1.184,0.879,2.076,2.047,2.076c0.631,0,1.195-0.225,1.586-0.629
		c0.373-0.385,0.566-0.904,0.549-1.447C84.828,74.611,83.955,73.725,82.752,73.725z"/>
	<rect x="80.969" y="79.301" width="3.566" height="15.129"/>
</g>
</svg>
