<?xml version="1.0" encoding="utf-8"?>
<!-- Generator: Adobe Illustrator 16.0.0, SVG Export Plug-In . SVG Version: 6.00 Build 0)  -->
<!DOCTYPE svg PUBLIC "-//W3C//DTD SVG 1.1//EN" "http://www.w3.org/Graphics/SVG/1.1/DTD/svg11.dtd">
<svg version="1.1" id="Layer_1" xmlns="http://www.w3.org/2000/svg" xmlns:xlink="http://www.w3.org/1999/xlink" x="0px" y="0px"
	 width="126px" height="126px" viewBox="0 0 126 126" enable-background="new 0 0 126 126" xml:space="preserve">
<g>
	<path d="M40.971,41.969c0.596,0.129,1.147,0.119,2.844-1.182c0.752-0.578,1.865-1.553,2.894-2.914l0.45-0.596
		c3.85-5.121,12.863-17.111,25.883-16.459c10.736,0.783,18.348,8.891,22.009,23.447c0.124,0.496,0.2,0.799,0.284,1.033
		c0.559,2.379,1.498,5.346,2.85,6.322c0.335,0.242,0.724,0.357,1.109,0.357c0.586,0,1.168-0.271,1.537-0.785
		c0.592-0.82,0.434-1.953-0.342-2.58c-0.374-0.484-1.078-2.512-1.496-4.322c-0.025-0.107-0.059-0.213-0.103-0.314
		c-0.034-0.123-0.103-0.393-0.164-0.635c-0.58-2.309-2.122-8.438-5.86-14.201c-4.828-7.445-11.412-11.518-19.572-12.105
		c-0.013-0.002-0.025-0.002-0.039-0.002c-15.039-0.768-24.911,12.359-29.125,17.965l-0.443,0.59
		c-1.154,1.525-2.518,2.475-2.988,2.748c-0.158,0.064-0.312,0.148-0.454,0.256c-0.59,0.447-0.878,1.209-0.72,1.932
		C39.684,41.246,40.249,41.811,40.971,41.969z"/>
	<path d="M63.683,66.949c-5.476,3.383-13.476,8.09-19.562,10.691c-0.963,0.412-1.41,1.523-0.998,2.488
		c0.307,0.719,1.008,1.15,1.743,1.15c0.249,0,0.502-0.049,0.745-0.152c5.58-2.387,12.648-6.441,18.071-9.732V66.949z"/>
	<path d="M41.815,61.432c6.257-1.701,12.038-5.168,12.29-5.32c1.209-0.74,2.397-1.549,3.553-2.381
		c-0.002-0.07-0.015-0.141-0.015-0.211c0-1.998,0.477-3.881,1.302-5.563c-2.094,1.713-4.433,3.459-6.81,4.914
		c-0.056,0.033-5.564,3.338-11.317,4.904c-1.01,0.275-1.605,1.318-1.33,2.326C39.763,61.113,40.805,61.709,41.815,61.432z"/>
	<path d="M88.447,49.238c1.43-3.574,1.466-7.266,0.094-10.129c-1.221-2.557-3.5-4.406-6.588-5.352
		c-4.533-1.387-10.027,1.131-15.063,6.898c-0.014,0.016-0.365,0.383-0.957,0.975c1.374-0.51,2.853-0.803,4.401-0.803
		c0.538,0,1.065,0.045,1.587,0.109c2.799-2.527,6.162-4.398,8.92-3.555c2.077,0.635,3.518,1.768,4.281,3.363
		c0.913,1.908,0.842,4.49-0.195,7.084c-0.463,1.158-1.166,2.373-2.084,3.631c0.11,0.672,0.183,1.355,0.183,2.059
		c0,1.541-0.302,3.041-0.832,4.445C84.944,55.229,87.232,52.271,88.447,49.238z"/>
	<path d="M64.474,34.021c0.147-0.123,0.298-0.246,0.448-0.369c0.039-0.033,0.334-0.264,0.408-0.324
		c1.32-1.012,2.727-1.91,4.207-2.67c1.397-0.719,2.8-1.221,4.501-1.576c0.564-0.117,0.687-0.131,1.109-0.174
		c1.027-0.105,1.896-0.781,1.896-1.895c0-0.955-0.866-2.004-1.896-1.896c-6.853,0.711-12.712,4.994-17.229,9.969
		c-0.86,0.947-1.632,1.965-2.464,2.938c-1.089,1.273-2.279,2.461-3.521,3.584c-1.279,1.154-2.313,1.979-3.82,2.846
		c-1.599,0.916-3.229,1.844-4.885,2.65c-0.57,0.279-1.061,0.459-1.701,0.652c-0.988,0.297-1.602,1.316-1.322,2.332
		c0.268,0.977,1.342,1.621,2.331,1.324c1.938-0.584,3.695-1.582,5.444-2.576c1.479-0.84,2.945-1.596,4.304-2.631
		c2.648-2.012,4.926-4.363,7.021-6.936c0.85-1.041,1.757-2.033,2.705-2.986c0.517-0.52,1.052-1.021,1.598-1.512
		C63.893,34.516,64.182,34.268,64.474,34.021z"/>
	<path d="M43.166,71.383c2.304-0.791,9.932-3.609,18.279-8.844c-0.905-0.896-1.673-1.918-2.273-3.037
		c-7.871,4.893-15.057,7.547-17.236,8.297c-0.085,0.027-0.137,0.045-0.154,0.053c-0.979,0.371-1.473,1.465-1.102,2.445
		c0.287,0.758,1.008,1.223,1.773,1.223c0.215,0,0.434-0.035,0.646-0.113L43.166,71.383z"/>
	<path d="M80.207,45.561c0.02-0.027,0.041-0.055,0.063-0.084c0.607-0.852,0.409-2.035-0.442-2.643
		c-0.75-0.535-1.757-0.445-2.401,0.164C78.477,43.709,79.412,44.576,80.207,45.561z"/>
	<path d="M63.683,82.115v-4.533c-0.809,0.527-1.651,1.08-2.548,1.67c-4.732,3.121-10.098,6.656-12.43,7.285
		c-1.012,0.273-1.611,1.313-1.339,2.322c0.228,0.848,0.993,1.404,1.829,1.404c0.163,0,0.33-0.021,0.494-0.064
		c2.924-0.789,8.077-4.186,13.533-7.781C63.373,82.318,63.529,82.217,63.683,82.115z"/>
	<path d="M94.748,82.668c-2.627-0.877-5.843-3.166-8.951-5.379c-3.276-2.336-6.225-4.432-8.81-5.193v4.033
		c1.898,0.893,4.437,2.699,6.61,4.246c3.336,2.377,6.785,4.832,9.951,5.889c0.994,0.33,2.066-0.207,2.398-1.199
		C96.277,84.072,95.74,82.998,94.748,82.668z"/>
	<path d="M90.002,91.953c-1.527-0.553-4.012-2.088-6.414-3.57c-5.074-3.135-8.299-5.039-10.613-4.639
		c-2.344,0.404-7.267,3.75-15.529,9.785c-1.012,0.738-1.885,1.375-2.491,1.803c-0.854,0.605-1.058,1.787-0.455,2.643
		c0.37,0.521,0.956,0.801,1.55,0.801c0.379,0,0.76-0.113,1.093-0.348c0.63-0.445,1.515-1.092,2.539-1.838
		c3.288-2.4,12.024-8.779,13.92-9.105c1.182-0.082,5.447,2.549,7.995,4.123c2.685,1.658,5.221,3.225,7.118,3.912
		c0.983,0.355,2.071-0.154,2.427-1.141C91.496,93.395,90.987,92.311,90.002,91.953z"/>
	<path d="M83.6,101.377c-1.065-0.695-2.043-1.395-2.991-2.068c-3.108-2.221-5.796-4.139-8.741-3.627
		c-3.316,0.572-8.598,5.885-9.623,6.941c-0.729,0.754-0.709,1.953,0.043,2.682c0.368,0.355,0.844,0.535,1.318,0.535
		c0.495,0,0.99-0.193,1.361-0.578c2.539-2.623,6.146-5.602,7.546-5.844c1.384-0.238,3.476,1.25,5.895,2.977
		c0.933,0.664,1.989,1.418,3.12,2.158c0.877,0.572,2.053,0.324,2.624-0.553S84.476,101.951,83.6,101.377z"/>
	<path d="M100.279,62.248c-1.58-0.666-3.231-1.369-4.562-2.475c-1.464-1.219-2.146-2.818-2.45-4.664
		c-0.396-2.408-4.049-1.385-3.655,1.006c0.811,4.918,4.431,7.58,8.755,9.406c0.951,0.404,2.021,0.299,2.592-0.68
		C101.432,64.037,101.232,62.65,100.279,62.248z"/>
	<path d="M96.602,72.139c-1.424-0.438-2.504-0.992-4.011-1.883c-2.759-1.631-5.274-3.992-6.499-7.01
		c-0.388-0.957-1.247-1.623-2.332-1.324c-0.908,0.25-1.712,1.373-1.324,2.334c2.26,5.568,7.445,9.779,13.158,11.539
		C97.937,76.518,98.93,72.857,96.602,72.139z"/>
	<path d="M75.02,81.023V63.297c3.573-1.73,6.039-5.393,6.039-9.629c0-5.904-4.787-10.691-10.691-10.691
		c-5.905,0-10.691,4.787-10.691,10.691c0,4.236,2.465,7.898,6.039,9.629v17.727H75.02z"/>
</g>
</svg>
