<?xml version="1.0" encoding="utf-8"?>
<!-- Generator: Adobe Illustrator 16.0.0, SVG Export Plug-In . SVG Version: 6.00 Build 0)  -->
<!DOCTYPE svg PUBLIC "-//W3C//DTD SVG 1.1//EN" "http://www.w3.org/Graphics/SVG/1.1/DTD/svg11.dtd">
<svg version="1.1" id="Layer_1" xmlns="http://www.w3.org/2000/svg" xmlns:xlink="http://www.w3.org/1999/xlink" x="0px" y="0px"
	 width="126px" height="126px" viewBox="0 0 126 126" enable-background="new 0 0 126 126" xml:space="preserve">
<g>
	<path d="M35.25,38.4c0.607,0.133,1.17,0.123,2.9-1.205c0.77-0.592,1.906-1.586,2.955-2.975l0.459-0.609
		c3.93-5.227,13.131-17.465,26.42-16.801c10.961,0.801,18.729,9.076,22.467,23.936c0.127,0.506,0.203,0.816,0.289,1.053
		c0.57,2.43,1.529,5.459,2.91,6.455c0.342,0.246,0.738,0.365,1.131,0.365c0.6,0,1.191-0.279,1.57-0.803
		c0.604-0.836,0.441-1.992-0.35-2.633c-0.383-0.494-1.1-2.563-1.527-4.412c-0.025-0.109-0.061-0.217-0.104-0.32
		c-0.037-0.127-0.105-0.402-0.168-0.648c-0.592-2.355-2.166-8.611-5.982-14.496c-4.928-7.598-11.65-11.756-19.979-12.357
		c-0.012,0-0.025,0-0.041-0.002c-15.35-0.783-25.428,12.617-29.729,18.34l-0.453,0.6c-1.178,1.557-2.568,2.527-3.049,2.807
		c-0.162,0.064-0.318,0.15-0.465,0.262c-0.602,0.457-0.895,1.234-0.732,1.971C33.936,37.664,34.512,38.24,35.25,38.4z"/>
	<path d="M83.711,45.822c1.461-3.648,1.496-7.418,0.096-10.34c-1.246-2.607-3.572-4.498-6.725-5.463
		c-4.627-1.416-10.236,1.154-15.375,7.041c-0.064,0.072-7.379,7.766-15.061,12.469c-0.057,0.035-5.68,3.408-11.553,5.008
		c-0.504,0.137-0.906,0.463-1.154,0.881h9.777c2.834-1.318,4.793-2.494,4.939-2.582c8.334-5.102,15.891-13.143,15.955-13.217
		c3.119-3.574,7.736-7.002,11.338-5.898c2.119,0.648,3.588,1.803,4.367,3.432c0.934,1.949,0.861,4.584-0.199,7.23
		c-1.33,3.326-4.564,7.115-9.344,11.035h5.844C79.738,52.436,82.367,49.176,83.711,45.822z"/>
	<path d="M36.848,48.039c1.979-0.594,3.771-1.613,5.557-2.627c1.508-0.859,3.008-1.631,4.395-2.686
		c2.701-2.055,5.027-4.455,7.166-7.08c0.865-1.063,1.793-2.076,2.76-3.049c0.527-0.529,1.074-1.043,1.631-1.543
		c0.291-0.26,0.586-0.514,0.885-0.766c0.15-0.127,0.305-0.252,0.457-0.377c0.039-0.033,0.34-0.268,0.418-0.33
		c1.346-1.033,2.781-1.951,4.293-2.727c1.426-0.732,2.857-1.246,4.594-1.607c0.576-0.121,0.701-0.133,1.133-0.178
		c1.049-0.109,1.936-0.799,1.936-1.936c0-0.973-0.883-2.043-1.936-1.936c-6.994,0.727-12.977,5.098-17.586,10.176
		c-0.877,0.969-1.666,2.006-2.516,2.998c-1.111,1.301-2.326,2.514-3.594,3.66c-1.305,1.178-2.359,2.02-3.9,2.902
		c-1.631,0.938-3.295,1.885-4.986,2.707c-0.58,0.285-1.08,0.469-1.734,0.666c-1.01,0.303-1.637,1.344-1.352,2.379
		C34.742,47.686,35.838,48.344,36.848,48.039z"/>
	<path d="M74.912,39.285c-0.871-0.621-2.08-0.42-2.699,0.451c-4.707,6.596-10.977,11.775-16.998,15.682h6.738
		c4.852-3.645,9.602-8.098,13.41-13.436C75.982,41.113,75.781,39.904,74.912,39.285z"/>
	<path d="M84.9,52.842c0.154,0.936,0.408,1.791,0.748,2.576h4.398c-0.768-1.039-1.193-2.256-1.414-3.604
		C88.227,49.355,84.498,50.402,84.9,52.842z"/>
	<rect x="27.504" y="57.148" width="76.332" height="2.555"/>
	<rect x="107.305" y="55.918" width="7" height="5.016"/>
	<rect x="16.139" y="55.918" width="7" height="5.016"/>
	<path d="M87.939,67.275c1.539,0.908,2.643,1.475,4.094,1.922c2.379,0.732,1.363,4.469-1.027,3.732
		c-5.299-1.633-10.143-5.336-12.713-10.264H67.516c-0.883,0.604-1.756,1.189-2.596,1.727c-4.682,3-16.486,10.367-24.934,13.979
		c-0.248,0.105-0.508,0.156-0.76,0.156c-0.752,0-1.467-0.441-1.781-1.174c-0.42-0.984,0.037-2.121,1.02-2.541
		c7-2.992,16.477-8.711,21.953-12.146h-9.916c-6.135,3.275-11.195,5.137-13.012,5.76l-0.068,0.023
		c-0.217,0.078-0.439,0.117-0.66,0.117c-0.781,0-1.516-0.477-1.809-1.25c-0.379-1,0.125-2.117,1.123-2.494
		c0.02-0.008,0.072-0.027,0.158-0.057c0.957-0.328,2.871-1.023,5.369-2.1h-14.1v45.887h76.332V62.666H82.748
		C84.109,64.553,85.957,66.102,87.939,67.275z M79.326,101.721c-0.584,0.895-1.783,1.146-2.678,0.563
		c-1.156-0.754-2.234-1.523-3.186-2.203c-2.469-1.762-4.604-3.279-6.018-3.039c-1.428,0.248-5.109,3.289-7.701,5.967
		c-0.379,0.391-0.885,0.588-1.391,0.588c-0.484,0-0.971-0.182-1.346-0.545c-0.768-0.742-0.787-1.967-0.045-2.736
		c1.047-1.08,6.439-6.502,9.824-7.086c3.006-0.521,5.75,1.438,8.924,3.703c0.965,0.688,1.965,1.4,3.053,2.111
		C79.658,99.627,79.91,100.826,79.326,101.721z M86.461,91.9c-0.363,1.006-1.475,1.525-2.479,1.162
		c-1.936-0.701-4.525-2.299-7.266-3.992c-2.602-1.607-6.955-4.291-8.16-4.209c-1.936,0.334-10.854,6.844-14.209,9.295
		c-1.047,0.764-1.949,1.422-2.592,1.877c-0.34,0.238-0.729,0.354-1.115,0.354c-0.607,0-1.205-0.285-1.582-0.818
		c-0.615-0.873-0.408-2.08,0.465-2.695c0.617-0.438,1.51-1.09,2.541-1.842c8.436-6.158,13.461-9.574,15.854-9.986
		c2.361-0.408,5.654,1.533,10.834,4.732c2.451,1.516,4.986,3.082,6.547,3.646C86.303,89.785,86.824,90.895,86.461,91.9z
		 M91.365,82.393c-0.338,1.012-1.434,1.563-2.447,1.223c-3.23-1.076-6.752-3.584-10.156-6.01c-3.232-2.303-7.252-5.162-8.896-4.883
		c-1.809,0.313-7.406,4.002-11.904,6.967c-5.568,3.67-10.828,7.139-13.813,7.941c-0.168,0.045-0.338,0.066-0.504,0.066
		c-0.854,0-1.635-0.568-1.867-1.432c-0.277-1.031,0.334-2.094,1.365-2.371c2.383-0.643,7.857-4.252,12.689-7.436
		c6.701-4.418,10.945-7.131,13.375-7.551c3.234-0.557,7.201,2.271,11.799,5.545c3.174,2.26,6.455,4.598,9.137,5.492
		C91.156,80.281,91.703,81.377,91.365,82.393z"/>
</g>
</svg>
