<?xml version="1.0" encoding="utf-8"?>
<!-- Generator: Adobe Illustrator 16.0.0, SVG Export Plug-In . SVG Version: 6.00 Build 0)  -->
<!DOCTYPE svg PUBLIC "-//W3C//DTD SVG 1.1//EN" "http://www.w3.org/Graphics/SVG/1.1/DTD/svg11.dtd">
<svg version="1.1" id="Layer_1" xmlns="http://www.w3.org/2000/svg" xmlns:xlink="http://www.w3.org/1999/xlink" x="0px" y="0px"
	 width="126px" height="126px" viewBox="0 0 126 126" enable-background="new 0 0 126 126" xml:space="preserve">
<g>
	<g>
		<path d="M92.324,51.075c-1.195-0.863-2.175-4.802-2.395-5.742c-0.063-0.147-0.125-0.392-0.273-0.982
			C84.73,24.767,74.035,19.959,65.93,19.374c-14.036-0.711-23.539,11.944-27.603,17.35L37.87,37.33
			c-1.552,2.053-3.914,3.783-4.458,3.664l-0.345-0.075l-0.153-0.691l0.294-0.228l0.669,0.88l-0.334-0.44l0.463-0.268
			c-0.153-0.26-0.465-0.324-0.666-0.235c0.274-0.122,2.114-1.244,3.65-3.273l0.455-0.604c4.169-5.545,13.931-18.529,28.555-17.789
			c8.48,0.611,19.643,5.586,24.73,25.812c0.086,0.34,0.174,0.691,0.212,0.8l0.032,0.05l0.021,0.092
			c0.428,1.856,1.324,4.683,1.978,5.154L92.324,51.075z"/>
	</g>
	<g>
		<path d="M37.308,81.043l-0.435-1.017c8.279-3.539,19.941-10.82,24.571-13.786c5.453-3.492,15.02-10.396,17.823-17.401
			c1.202-3.004,1.262-6.044,0.162-8.341c-0.953-1.992-2.707-3.391-5.211-4.157c-3.594-1.1-8.372,1.258-12.783,6.311
			c-0.063,0.072-7.596,8.026-15.635,12.947c-0.062,0.038-5.984,3.591-12.188,5.28l-0.29-1.067
			c6.051-1.647,11.846-5.122,11.903-5.157c7.983-4.888,15.313-12.658,15.376-12.73c4.706-5.391,9.917-7.873,13.94-6.642
			c2.772,0.85,4.807,2.488,5.885,4.737c1.232,2.575,1.184,5.939-0.135,9.229c-2.918,7.291-12.688,14.358-18.252,17.921
			C57.388,70.152,45.664,77.471,37.308,81.043z"/>
	</g>
	<g>
		<g>
			<path d="M34.346,50.649c1.864-0.561,3.545-1.532,5.227-2.488c1.509-0.857,3.007-1.63,4.394-2.685
				c2.602-1.979,4.829-4.338,6.887-6.863c3.981-4.887,9.335-9.441,15.647-10.755c0.495-0.104,0.997-0.175,1.501-0.227
				c0.701-0.073,0.708-1.179,0-1.105c-6.607,0.685-12.273,4.993-16.609,9.771c-0.878,0.967-1.667,2.006-2.515,2.998
				c-1.112,1.3-2.327,2.514-3.595,3.659c-1.291,1.166-2.668,2.253-4.179,3.12c-1.631,0.936-3.294,1.884-4.986,2.708
				c-0.667,0.325-1.356,0.59-2.066,0.803C33.371,49.788,33.661,50.855,34.346,50.649L34.346,50.649z"/>
		</g>
	</g>
	<g>
		<path d="M34.821,71.092l-0.389-1.035c0.014-0.005,0.052-0.019,0.116-0.041c4.078-1.4,25.01-9.212,36.655-25.536l0.9,0.643
			C60.263,61.721,39.042,69.642,34.908,71.062L34.821,71.092z"/>
	</g>
	<g>
		<path d="M41.656,90.239l-0.288-1.068c2.597-0.699,7.932-4.215,13.09-7.616c5.415-3.569,10.53-6.941,12.85-7.342
			c2.663-0.462,6.598,2.342,10.762,5.308c3.256,2.319,6.623,4.718,9.5,5.677l-0.35,1.049c-3.034-1.012-6.47-3.459-9.793-5.826
			c-3.795-2.704-7.719-5.503-9.932-5.119c-2.093,0.362-7.348,3.826-12.429,7.175C49.835,85.927,44.425,89.493,41.656,90.239z"/>
	</g>
	<g>
		<path d="M48.824,98.847l-0.638-0.903c0.627-0.443,1.523-1.096,2.56-1.854c6.449-4.708,12.94-9.338,15.272-9.741
			c1.968-0.339,5.806,2.035,9.872,4.547c2.512,1.553,5.109,3.157,6.805,3.77l-0.377,1.04c-1.803-0.651-4.331-2.214-7.009-3.869
			c-3.54-2.187-7.552-4.666-9.103-4.398c-2.273,0.393-10.428,6.346-14.809,9.544C50.357,97.742,49.458,98.398,48.824,98.847z"/>
	</g>
	<g>
		<path d="M56.617,105.989l-0.794-0.77c0.243-0.251,5.988-6.154,9.065-6.686c2.444-0.42,4.843,1.294,7.886,3.465
			c0.978,0.697,1.988,1.419,3.1,2.144l-0.604,0.926c-1.131-0.738-2.151-1.466-3.139-2.17c-2.832-2.022-5.068-3.617-7.055-3.276
			C62.814,100.013,58.203,104.351,56.617,105.989z"/>
	</g>
	<g>
		<g>
			<path d="M84.1,56.418c0.342,2.203,1.305,4.176,2.952,5.693c1.563,1.44,3.544,2.323,5.479,3.138
				c0.657,0.276,0.941-0.794,0.295-1.066c-1.715-0.722-3.445-1.519-4.867-2.741c-1.605-1.379-2.472-3.249-2.793-5.317
				C85.056,55.421,83.99,55.72,84.1,56.418L84.1,56.418z"/>
		</g>
	</g>
	<g>
		<g>
			<path d="M76.773,64.724c1.414,3.553,4.099,6.312,7.291,8.342c1.594,1.014,3.361,1.918,5.174,2.474
				c0.684,0.208,0.975-0.859,0.295-1.067c-1.641-0.501-3.211-1.32-4.667-2.209c-3.034-1.854-5.696-4.486-7.026-7.833
				C77.58,63.776,76.51,64.061,76.773,64.724L76.773,64.724z"/>
		</g>
	</g>
</g>
</svg>
