<?xml version="1.0" encoding="utf-8"?>
<!-- Generator: Adobe Illustrator 16.0.0, SVG Export Plug-In . SVG Version: 6.00 Build 0)  -->
<!DOCTYPE svg PUBLIC "-//W3C//DTD SVG 1.1//EN" "http://www.w3.org/Graphics/SVG/1.1/DTD/svg11.dtd">
<svg version="1.1" id="Layer_1" xmlns="http://www.w3.org/2000/svg" xmlns:xlink="http://www.w3.org/1999/xlink" x="0px" y="0px"
	 width="126px" height="126px" viewBox="0 0 126 126" enable-background="new 0 0 126 126" xml:space="preserve">
<g>
	<path d="M48.386,31.012c-0.309,0.408-0.673,0.662-0.799,0.735c-0.042,0.017-0.083,0.04-0.122,0.068
		c-0.158,0.12-0.235,0.323-0.192,0.517c0.042,0.193,0.194,0.344,0.387,0.387c0.159,0.035,0.307,0.031,0.76-0.316
		c0.201-0.154,0.499-0.416,0.774-0.779l0.12-0.159c1.029-1.37,3.44-4.575,6.922-4.401c2.871,0.209,4.906,2.377,5.885,6.271
		c0.033,0.132,0.054,0.214,0.075,0.275c0.15,0.638,0.401,1.431,0.764,1.691c0.09,0.065,0.193,0.096,0.296,0.096
		c0.157,0,0.313-0.073,0.411-0.21c0.158-0.22,0.116-0.522-0.092-0.69c-0.1-0.13-0.287-0.671-0.4-1.155
		c-0.006-0.029-0.016-0.057-0.026-0.084c-0.009-0.033-0.028-0.105-0.044-0.17c-0.155-0.617-0.567-2.256-1.568-3.799
		c-1.291-1.99-3.051-3.079-5.233-3.236c-0.004,0-0.007,0-0.011-0.001c-4.022-0.205-6.662,3.306-7.789,4.805L48.386,31.012z"/>
	<path d="M52.193,30.878c-0.23,0.253-0.437,0.525-0.659,0.785c-0.292,0.341-0.609,0.659-0.942,0.959
		c-0.341,0.308-0.618,0.529-1.021,0.761c-0.428,0.245-0.864,0.493-1.307,0.709c-0.153,0.074-0.283,0.123-0.455,0.174
		c-0.265,0.08-0.429,0.353-0.354,0.624c0.071,0.262,0.358,0.433,0.623,0.354c0.519-0.156,0.988-0.423,1.456-0.689
		c0.395-0.225,0.788-0.427,1.151-0.703c0.708-0.539,1.317-1.167,1.877-1.854c0.227-0.278,0.47-0.544,0.723-0.799
		c0.138-0.14,0.281-0.272,0.428-0.404c0.076-0.068,0.153-0.135,0.231-0.2c0.039-0.033,0.079-0.066,0.12-0.1
		c0.01-0.008,0.085-0.066,0.107-0.085c0.354-0.271,0.73-0.512,1.127-0.716c0.374-0.191,0.749-0.326,1.204-0.421
		c0.151-0.032,0.184-0.034,0.297-0.047c0.274-0.028,0.507-0.209,0.507-0.507c0-0.254-0.23-0.535-0.507-0.507
		C54.968,28.402,53.4,29.547,52.193,30.878z"/>
	<path d="M63.703,38.836c0.125-0.215,0.072-0.586-0.182-0.693c-0.423-0.18-0.865-0.367-1.221-0.663
		c-0.392-0.325-0.574-0.753-0.655-1.247c-0.106-0.644-1.083-0.37-0.978,0.27c0.217,1.314,1.185,2.027,2.342,2.516
		C63.264,39.125,63.549,39.097,63.703,38.836z"/>
	<path d="M92.857,81.466c0.237-2.711-0.413-5.006-1.929-6.825c-2.238-2.672-5.673-3.506-7.139-3.748
		c-0.934-2.34-2.357-3.883-4.238-4.586c-0.736-0.275-1.537-0.416-2.379-0.416c-1.412,0-2.686,0.389-3.541,0.734
		c-1.13-2.049-2.639-3.322-4.484-3.787c-0.51-0.129-1.047-0.195-1.597-0.195c-1.761,0-3.371,0.662-4.467,1.258
		c-0.38-2.536-0.879-8.563-1.246-12.997l-0.003-0.051c-0.382-4.635-0.642-7.671-0.854-9.685c0.408,0.246,0.837,0.458,1.287,0.596
		c0.627,0.193,0.893-0.785,0.27-0.977c-0.381-0.117-0.67-0.267-1.072-0.504c-0.224-0.132-0.436-0.287-0.639-0.455
		c-0.174-1.354-0.326-2.01-0.508-2.33c-0.14-0.479-0.394-1.014-0.732-1.543c0.322-0.421,0.594-0.852,0.771-1.293
		c0.382-0.955,0.392-1.943,0.025-2.709c-0.327-0.684-0.937-1.178-1.763-1.43c-1.211-0.371-2.681,0.301-4.027,1.844
		c-0.008,0.009-0.424,0.441-1.053,1.02c-0.277,0.175-0.551,0.408-0.812,0.715c-0.623,0.525-1.344,1.081-2.082,1.532
		c-0.015,0.009-1.488,0.894-3.026,1.312c-0.271,0.074-0.43,0.353-0.356,0.623c0.074,0.27,0.352,0.43,0.623,0.355
		c1.673-0.455,3.219-1.383,3.287-1.424c0.146-0.089,0.287-0.188,0.429-0.283c-0.194,0.569-0.364,1.229-0.498,1.998
		c-1.5,0.795-2.739,1.258-3.186,1.41c-0.022,0.008-0.036,0.014-0.041,0.016c-0.262,0.099-0.394,0.391-0.294,0.653
		c0.077,0.202,0.27,0.327,0.474,0.327c0.058,0,0.116-0.01,0.173-0.03l0.018-0.007c0.402-0.138,1.412-0.51,2.684-1.139
		c-0.021,0.178-0.043,0.349-0.06,0.537c0,0.367,0,0.729-0.001,1.093c-0.821,0.452-1.644,0.874-2.368,1.183
		c-0.258,0.109-0.377,0.408-0.268,0.666c0.083,0.191,0.27,0.307,0.467,0.307c0.066,0,0.134-0.013,0.199-0.041
		c0.608-0.26,1.285-0.604,1.968-0.968c-0.04,18.784-0.562,32.532-0.68,35.415c-1.769,0.806-3.384,2.63-3.563,2.836
		c-5.69,6.286-2.993,10.904-2.876,11.094c4.35,7.615,13.336,22.607,13.419,22.745l0.176,0.29l0.086-0.051v0.135h28.737L87.228,115
		l1.485-5.078C94.679,98.525,93.062,83.15,92.857,81.466z M58.322,31.492c0.556,0.17,0.941,0.473,1.145,0.899
		c0.245,0.511,0.227,1.2-0.051,1.895c-0.105,0.261-0.26,0.534-0.459,0.816c-0.932-1.115-2.201-2.049-3.507-2.169
		C56.264,32.036,57.415,31.215,58.322,31.492z M86.794,109.144l-1.014,3.417H58.544c-1.91-3.191-9.227-15.439-12.996-22.032
		c-0.083-0.144-1.986-3.573,2.638-8.681c0.494-0.576,2.046-2.143,3.283-2.469l0.735-0.197l0.032-0.758
		c0.008-0.119,0.715-15.525,0.708-38.346c0.279-3.068,1.1-5.014,2.134-5.076L55.126,35c1.285,0,2.98,2.036,3.233,3.217l0.148,0.696
		l0.087,0.014c0.314,1.767,0.786,7.483,1.169,12.097c1.252,15.16,1.403,15.205,2.393,15.502l0.509,0.148l0.419-0.321
		c0.224-0.167,2.243-1.63,4.467-1.63c0.38,0,0.749,0.045,1.089,0.131c1.471,0.369,2.67,1.572,3.566,3.569l0.471,1.054l0.998-0.579
		c0.066-0.036,1.688-0.923,3.496-0.923c0.594,0,1.15,0.095,1.652,0.282c1.43,0.534,2.515,1.853,3.229,3.921l0.221,0.639l0.672,0.061
		c0.039,0.004,4.15,0.421,6.385,3.1c1.164,1.393,1.653,3.199,1.451,5.377l-0.006,0.151l0.01,0.065
		C90.862,82.233,92.634,97.949,86.794,109.144z"/>
	<polygon points="62.771,53.77 70.714,53.77 70.714,45.828 69.62,45.828 69.62,52.676 62.771,52.676 	"/>
	<polygon points="49.353,52.676 42.504,52.676 42.504,45.828 41.412,45.828 41.412,53.77 49.353,53.77 	"/>
	<polygon points="42.504,20.475 49.353,20.475 49.353,19.382 41.412,19.382 41.412,27.322 42.504,27.322 	"/>
	<polygon points="69.62,27.323 70.714,27.323 70.714,19.382 62.771,19.382 62.771,20.475 69.62,20.475 	"/>
</g>
</svg>
