<?xml version="1.0" encoding="utf-8"?>
<!-- Generator: Adobe Illustrator 16.0.0, SVG Export Plug-In . SVG Version: 6.00 Build 0)  -->
<!DOCTYPE svg PUBLIC "-//W3C//DTD SVG 1.1//EN" "http://www.w3.org/Graphics/SVG/1.1/DTD/svg11.dtd">
<svg version="1.1" id="Layer_1" xmlns="http://www.w3.org/2000/svg" xmlns:xlink="http://www.w3.org/1999/xlink" x="0px" y="0px"
	 width="126px" height="126px" viewBox="0 0 126 126" enable-background="new 0 0 126 126" xml:space="preserve">
<g>
	<path d="M66.279,98.637c-1.906,0.328-7.801,4.213-12.537,7.336c-0.934,0.615-1.857,1.223-2.766,1.816
		c2.945,0.779,6.002,1.271,9.146,1.453c1.795-1.057,3.148-1.678,4.104-1.844c1.404-0.242,3.125,0.305,5.336,1.434
		c3.369-0.49,6.619-1.348,9.713-2.523c-1.213-0.814-2.428-1.676-3.629-2.531C72.242,101.354,68.01,98.34,66.279,98.637z"/>
	<path d="M109.113,63.041c0-25.564-20.723-46.287-46.287-46.287c-25.563,0-46.287,20.723-46.287,46.287
		c0,15.121,7.254,28.547,18.471,36.992c8.438-3.895,19.346-10.709,23.863-13.604C68.535,80.242,75,73.977,77.076,68.789
		c1.115-2.787,1.191-5.563,0.211-7.615c-0.822-1.715-2.371-2.932-4.602-3.615c-3.793-1.16-8.654,2.447-11.941,6.213
		c-0.066,0.078-8.027,8.547-16.801,13.92c-0.271,0.164-6.486,3.893-13.213,5.723c-1.086,0.297-2.207-0.346-2.502-1.432
		c-0.295-1.084,0.344-2.205,1.43-2.5c6.186-1.686,12.107-5.236,12.166-5.273c8.092-4.953,15.793-13.055,15.863-13.131
		c5.41-6.201,11.318-8.906,16.191-7.416c3.318,1.018,5.77,3.006,7.082,5.752c1.473,3.078,1.438,7.047-0.102,10.891
		c-3.063,7.65-12.451,14.859-19.789,19.559c-4.209,2.695-13.877,8.738-22.15,12.816c2.238,1.354,4.605,2.512,7.07,3.475
		c1.805-1.145,3.699-2.391,5.51-3.584c7.057-4.652,11.525-7.51,14.086-7.951c3.406-0.588,7.584,2.391,12.424,5.84
		c1.918,1.365,3.875,2.756,5.727,3.871C98.789,96.693,109.113,81.076,109.113,63.041z M30.693,90.314
		c0.021-0.008,0.074-0.027,0.166-0.059c4.221-1.449,25.885-9.533,37.891-26.361c0.654-0.916,1.928-1.129,2.842-0.475
		c0.916,0.652,1.129,1.926,0.475,2.842C59.34,84.102,36.609,92.59,32.182,94.109l-0.07,0.025c-0.23,0.084-0.465,0.123-0.695,0.123
		c-0.824,0-1.598-0.502-1.906-1.316C29.111,91.889,29.641,90.713,30.693,90.314z M66.563,48.449
		c-0.455,0.047-0.586,0.061-1.191,0.188c-1.83,0.379-3.338,0.922-4.84,1.693c-1.588,0.814-3.096,1.777-4.512,2.861
		c-0.055,0.045-0.404,0.32-0.449,0.357c-0.162,0.133-0.322,0.264-0.482,0.398c-0.314,0.264-0.625,0.531-0.93,0.805
		c-0.588,0.527-1.164,1.066-1.719,1.625c-1.02,1.025-1.994,2.092-2.908,3.211c-2.252,2.766-4.701,5.293-7.547,7.457
		c-1.459,1.111-3.039,1.924-4.627,2.826c-1.881,1.07-3.77,2.143-5.854,2.77c-1.063,0.318-2.217-0.373-2.506-1.424
		c-0.299-1.09,0.361-2.188,1.424-2.508c0.689-0.207,1.215-0.4,1.826-0.699c1.783-0.867,3.533-1.863,5.252-2.852
		c1.621-0.93,2.732-1.816,4.105-3.057c1.338-1.207,2.617-2.484,3.787-3.855c0.895-1.043,1.725-2.137,2.648-3.156
		c4.855-5.348,11.156-9.953,18.521-10.717c1.107-0.113,2.039,1.014,2.039,2.039C68.602,47.609,67.668,48.334,66.563,48.449z
		 M64.299,39.752c-13.996-0.699-23.686,12.188-27.826,17.693l-0.482,0.643c-1.105,1.461-2.301,2.508-3.111,3.131
		c-1.824,1.4-2.416,1.41-3.057,1.27c-0.775-0.17-1.385-0.775-1.555-1.553c-0.172-0.775,0.139-1.596,0.771-2.076
		c0.154-0.117,0.32-0.207,0.49-0.275c0.506-0.295,1.971-1.316,3.211-2.955l0.477-0.633c4.529-6.025,15.143-20.139,31.309-19.314
		c0.016,0.002,0.029,0.002,0.045,0.004c8.77,0.633,15.848,5.012,21.039,13.014c4.02,6.195,5.676,12.785,6.301,15.266
		c0.064,0.26,0.139,0.551,0.176,0.684c0.047,0.109,0.084,0.221,0.109,0.336c0.449,1.947,1.205,4.127,1.609,4.646
		c0.832,0.676,1.004,1.893,0.367,2.773c-0.398,0.553-1.021,0.846-1.654,0.846c-0.412,0-0.83-0.125-1.189-0.385
		c-1.455-1.049-2.463-4.238-3.064-6.797c-0.09-0.25-0.172-0.578-0.307-1.109C84.021,49.311,75.84,40.594,64.299,39.752z
		 M88.541,98.854c-6.141-1.893-11.715-6.42-14.143-12.406c-0.418-1.033,0.447-2.238,1.424-2.508
		c1.164-0.322,2.088,0.395,2.506,1.424c1.314,3.242,4.021,5.781,6.986,7.533c1.619,0.959,2.781,1.557,4.311,2.025
		C92.129,95.693,91.061,99.629,88.541,98.854z M94.311,87.078c-0.613,1.049-1.766,1.162-2.787,0.73
		c-4.648-1.963-8.539-4.824-9.412-10.111c-0.422-2.568,3.504-3.67,3.932-1.082c0.326,1.984,1.059,3.705,2.633,5.014
		c1.432,1.189,3.207,1.943,4.904,2.662C94.604,84.723,94.818,86.215,94.311,87.078z"/>
</g>
</svg>
