<?xml version="1.0" encoding="utf-8"?>
<!-- Generator: Adobe Illustrator 16.0.0, SVG Export Plug-In . SVG Version: 6.00 Build 0)  -->
<!DOCTYPE svg PUBLIC "-//W3C//DTD SVG 1.1//EN" "http://www.w3.org/Graphics/SVG/1.1/DTD/svg11.dtd">
<svg version="1.1" id="Layer_1" xmlns="http://www.w3.org/2000/svg" xmlns:xlink="http://www.w3.org/1999/xlink" x="0px" y="0px"
	 width="126px" height="126px" viewBox="0 0 126 126" enable-background="new 0 0 126 126" xml:space="preserve">
<g>
	<path d="M36.458,39.731c0.608,0.133,1.17,0.124,2.901-1.206c0.769-0.59,1.905-1.586,2.955-2.973l0.459-0.609
		c3.93-5.228,13.131-17.466,26.42-16.801c10.959,0.8,18.728,9.076,22.465,23.936c0.127,0.504,0.205,0.814,0.29,1.053
		c0.571,2.43,1.529,5.457,2.909,6.453c0.342,0.248,0.738,0.366,1.131,0.366c0.6,0,1.192-0.278,1.57-0.803
		c0.604-0.837,0.443-1.993-0.349-2.634c-0.382-0.494-1.1-2.563-1.527-4.412c-0.025-0.109-0.06-0.217-0.104-0.32
		c-0.036-0.125-0.105-0.4-0.167-0.648c-0.592-2.354-2.166-8.611-5.982-14.496C84.5,19.039,77.779,14.882,69.451,14.281
		c-0.013-0.002-0.027-0.002-0.041-0.003C54.059,13.495,43.982,26.896,39.68,32.617l-0.453,0.601
		c-1.178,1.558-2.569,2.526-3.048,2.808c-0.163,0.063-0.319,0.15-0.465,0.26c-0.602,0.457-0.896,1.234-0.734,1.972
		C35.143,38.994,35.72,39.57,36.458,39.731z"/>
	<path d="M84.918,47.152c1.46-3.648,1.496-7.417,0.097-10.34c-1.248-2.607-3.574-4.496-6.726-5.462
		c-4.627-1.416-10.236,1.153-15.374,7.041c-0.064,0.07-7.003,7.359-14.459,12.085c0.794,1.021,1.389,2.199,1.734,3.482
		c6.122-3.813,11.776-9.139,14.276-11.627c0.433-5.051,4.675-9.03,9.836-9.03c5.448,0,9.879,4.432,9.879,9.88
		c0,4.781-3.415,8.777-7.933,9.685c-3.023,3.1-7.151,6.36-12.209,9.599c-4.602,2.947-16.187,10.181-24.369,13.679
		c-0.983,0.42-1.438,1.558-1.019,2.54c0.314,0.734,1.029,1.174,1.78,1.174c0.253,0,0.512-0.049,0.76-0.155
		c8.449-3.612,20.252-10.979,24.935-13.978C73.095,61.262,82.011,54.418,84.918,47.152z"/>
	<path d="M53.757,32.707c-0.878,0.967-1.667,2.006-2.515,2.997c-1.111,1.3-2.327,2.514-3.595,3.659
		c-1.304,1.178-2.359,2.021-3.899,2.904c-1.632,0.936-3.295,1.883-4.986,2.707c-0.582,0.283-1.081,0.467-1.735,0.664
		c-1.006,0.303-1.631,1.34-1.353,2.371c1.466-0.861,3.167-1.365,4.988-1.365c0.873,0,1.715,0.125,2.522,0.339
		c0.143-0.081,0.286-0.16,0.429-0.241c1.508-0.857,3.007-1.63,4.394-2.685c2.702-2.055,5.028-4.454,7.167-7.08
		c0.866-1.063,1.792-2.076,2.759-3.048c0.529-0.531,1.075-1.043,1.632-1.544c0.29-0.261,0.585-0.515,0.883-0.765
		c0.151-0.128,0.305-0.253,0.458-0.378c0.041-0.032,0.34-0.27,0.418-0.331c1.347-1.033,2.782-1.95,4.292-2.726
		c1.426-0.733,2.858-1.247,4.595-1.608c0.576-0.12,0.701-0.133,1.132-0.178c1.049-0.108,1.936-0.798,1.936-1.935
		c0-0.973-0.884-2.044-1.936-1.935C64.349,23.256,58.367,27.629,53.757,32.707z"/>
	<path d="M38.698,69.756c3.443-1.182,18.543-6.807,30.537-18.11c-1.119-0.673-2.092-1.559-2.867-2.604
		c-5.434,5.08-11.541,8.945-16.796,11.721c-1.59,3.33-4.981,5.642-8.911,5.642c-0.999,0-1.961-0.151-2.871-0.429
		c-0.125,0.045-0.246,0.086-0.349,0.122c-0.086,0.029-0.138,0.048-0.157,0.056c-1,0.378-1.503,1.494-1.125,2.494
		c0.293,0.774,1.029,1.25,1.81,1.25c0.219,0,0.442-0.037,0.66-0.116L38.698,69.756z"/>
	<path d="M91.35,81.275c-2.682-0.895-5.963-3.231-9.137-5.491c-4.597-3.274-8.563-6.102-11.798-5.544
		c-2.43,0.42-6.674,3.132-13.375,7.549c-4.831,3.186-10.307,6.795-12.688,7.436c-1.032,0.278-1.644,1.34-1.366,2.371
		c0.233,0.864,1.014,1.434,1.867,1.434c0.167,0,0.336-0.021,0.504-0.067c2.985-0.804,8.245-4.271,13.813-7.941
		c4.498-2.965,10.095-6.655,11.904-6.968c1.644-0.279,5.664,2.582,8.896,4.883c3.405,2.426,6.926,4.934,10.158,6.011
		c1.014,0.339,2.109-0.21,2.447-1.224C92.911,82.709,92.363,81.613,91.35,81.275z"/>
	<path d="M86.506,90.754c-1.229-0.444-3.065-1.514-4.988-2.687c-0.304,1.298-0.864,2.495-1.625,3.542
		c1.994,1.209,3.833,2.254,5.298,2.783c1.003,0.364,2.114-0.156,2.477-1.162C88.031,92.227,87.511,91.117,86.506,90.754z"/>
	<path d="M62.044,86.148c-2.378,1.591-5.278,3.663-8.771,6.213c-1.033,0.754-1.924,1.404-2.542,1.842
		c-0.873,0.616-1.081,1.824-0.464,2.696c0.377,0.534,0.975,0.819,1.582,0.819c0.386,0,0.776-0.115,1.115-0.355
		c0.643-0.454,1.546-1.113,2.591-1.877c1.649-1.203,4.641-3.387,7.487-5.337C62.445,88.934,62.092,87.58,62.044,86.148z"/>
	<path d="M79.971,100.373c-1.087-0.709-2.086-1.422-3.053-2.111c-1.391-0.993-2.7-1.928-3.984-2.619
		c-0.337,0.035-0.68,0.054-1.027,0.054c-1.565,0-3.04-0.376-4.356-1.026c-3.394,0.937-8.377,5.941-9.379,6.977
		c-0.743,0.768-0.723,1.992,0.044,2.735c0.375,0.364,0.861,0.545,1.346,0.545c0.505,0,1.011-0.197,1.39-0.589
		c2.591-2.677,6.273-5.719,7.702-5.965c1.413-0.242,3.548,1.276,6.017,3.038c0.952,0.679,2.03,1.449,3.185,2.202
		c0.895,0.585,2.094,0.332,2.678-0.563C81.117,102.156,80.865,100.957,79.971,100.373z"/>
	<path d="M96.997,60.433c-1.613-0.681-3.299-1.397-4.657-2.526c-1.495-1.244-2.19-2.877-2.5-4.762
		c-0.405-2.457-4.134-1.412-3.732,1.029c0.828,5.02,4.522,7.736,8.936,9.6c0.972,0.411,2.063,0.303,2.647-0.693
		C98.172,62.26,97.969,60.844,96.997,60.433z"/>
	<path d="M93.242,70.529c-1.453-0.447-2.556-1.016-4.094-1.924c-2.816-1.664-5.384-4.076-6.633-7.154
		c-0.396-0.977-1.273-1.656-2.38-1.352c-0.927,0.256-1.748,1.4-1.351,2.381c2.306,5.686,7.599,9.984,13.43,11.779
		C94.604,74.996,95.619,71.262,93.242,70.529z"/>
	<path d="M48.685,56.488c0-4.344-3.535-7.879-7.879-7.879s-7.879,3.535-7.879,7.879c0,4.346,3.535,7.88,7.879,7.88
		S48.685,60.834,48.685,56.488z"/>
	<path d="M74.448,51.025c4.345,0,7.879-3.535,7.879-7.879c0-4.346-3.535-7.88-7.879-7.88s-7.879,3.534-7.879,7.88
		C66.569,47.49,70.104,51.025,74.448,51.025z"/>
	<path d="M79.931,85.781c0-4.344-3.535-7.879-7.879-7.879s-7.879,3.535-7.879,7.879c0,4.346,3.535,7.88,7.879,7.88
		S79.931,90.127,79.931,85.781z"/>
</g>
</svg>
