<?xml version="1.0" encoding="utf-8"?>
<!-- Generator: Adobe Illustrator 16.0.0, SVG Export Plug-In . SVG Version: 6.00 Build 0)  -->
<!DOCTYPE svg PUBLIC "-//W3C//DTD SVG 1.1//EN" "http://www.w3.org/Graphics/SVG/1.1/DTD/svg11.dtd">
<svg version="1.1" id="Layer_1" xmlns="http://www.w3.org/2000/svg" xmlns:xlink="http://www.w3.org/1999/xlink" x="0px" y="0px"
	 width="126px" height="126px" viewBox="0 0 126 126" enable-background="new 0 0 126 126" xml:space="preserve">
<g>
	<path d="M35.293,40.908c0.607,0.133,1.17,0.124,2.9-1.206c0.77-0.59,1.906-1.585,2.955-2.973l0.459-0.609
		c3.93-5.227,13.131-17.465,26.42-16.801c10.961,0.8,18.729,9.076,22.467,23.936c0.127,0.505,0.203,0.815,0.289,1.053
		c0.57,2.43,1.529,5.458,2.91,6.454c0.342,0.248,0.738,0.366,1.131,0.366c0.6,0,1.191-0.279,1.57-0.803
		c0.604-0.836,0.441-1.993-0.35-2.634c-0.383-0.494-1.1-2.563-1.527-4.412c-0.025-0.11-0.061-0.217-0.104-0.32
		c-0.037-0.126-0.105-0.401-0.168-0.648c-0.592-2.355-2.166-8.612-5.982-14.496c-4.928-7.598-11.65-11.755-19.979-12.356
		c-0.012-0.001-0.025-0.001-0.041-0.002c-15.35-0.783-25.428,12.617-29.729,18.339l-0.453,0.601
		c-1.178,1.557-2.568,2.526-3.049,2.807c-0.162,0.063-0.318,0.15-0.465,0.261c-0.602,0.457-0.895,1.234-0.732,1.971
		C33.979,40.171,34.555,40.747,35.293,40.908z"/>
	<path d="M83.754,48.329c1.461-3.648,1.496-7.417,0.096-10.34c-1.246-2.607-3.572-4.497-6.725-5.462
		c-4.627-1.416-10.236,1.154-15.375,7.041c-0.064,0.072-7.379,7.766-15.061,12.469c-0.057,0.034-5.68,3.408-11.553,5.007
		c-1.029,0.281-1.639,1.344-1.357,2.375s1.344,1.64,2.375,1.358c6.389-1.739,12.287-5.278,12.545-5.434
		C57.033,50.242,64.59,42.2,64.654,42.126c3.119-3.574,7.736-7.001,11.338-5.898c2.119,0.649,3.588,1.804,4.367,3.433
		c0.934,1.949,0.861,4.584-0.199,7.231c-1.971,4.926-8.109,10.875-17.283,16.75c-4.602,2.948-16.188,10.181-24.369,13.679
		c-0.982,0.42-1.439,1.557-1.02,2.54c0.314,0.734,1.029,1.174,1.781,1.174c0.252,0,0.512-0.05,0.76-0.156
		c8.447-3.612,20.252-10.979,24.934-13.978C71.93,62.439,80.846,55.595,83.754,48.329z"/>
	<path d="M52.592,33.883c-0.877,0.968-1.666,2.006-2.516,2.998c-1.111,1.3-2.326,2.514-3.594,3.659
		c-1.305,1.178-2.359,2.021-3.9,2.904c-1.631,0.937-3.295,1.884-4.986,2.707c-0.58,0.284-1.08,0.468-1.734,0.665
		c-1.01,0.303-1.637,1.345-1.352,2.38c0.275,0.998,1.371,1.655,2.381,1.352c1.979-0.595,3.771-1.613,5.557-2.628
		c1.508-0.858,3.008-1.63,4.395-2.685c2.701-2.055,5.027-4.455,7.166-7.08c0.865-1.063,1.793-2.076,2.76-3.048
		c0.527-0.531,1.074-1.043,1.631-1.543c0.291-0.26,0.586-0.514,0.885-0.765c0.15-0.127,0.305-0.252,0.457-0.377
		c0.039-0.033,0.34-0.269,0.418-0.331c1.346-1.033,2.781-1.95,4.293-2.726c1.426-0.733,2.857-1.247,4.594-1.608
		c0.576-0.12,0.701-0.133,1.133-0.177c1.049-0.109,1.936-0.798,1.936-1.935c0-0.973-0.883-2.044-1.936-1.935
		C63.184,24.433,57.201,28.805,52.592,33.883z"/>
	<path d="M37.533,70.933c4.203-1.443,25.787-9.502,37.873-26.443c0.619-0.87,0.418-2.078-0.451-2.698
		c-0.871-0.621-2.08-0.419-2.699,0.451c-11.4,15.979-31.971,23.654-35.979,25.03c-0.086,0.029-0.139,0.048-0.158,0.056
		c-0.998,0.378-1.502,1.495-1.123,2.495c0.293,0.774,1.027,1.25,1.809,1.25c0.221,0,0.443-0.038,0.66-0.117L37.533,70.933z"/>
	<path d="M62.76,79.098c0.447-2.076,1.191-4.042,2.188-5.853c-2.326,1.301-5.313,3.243-9.072,5.721
		c-4.832,3.185-10.307,6.794-12.689,7.435c-1.031,0.278-1.643,1.34-1.365,2.372c0.232,0.864,1.014,1.433,1.867,1.433
		c0.166,0,0.336-0.021,0.504-0.067c2.984-0.804,8.244-4.271,13.813-7.941C59.527,81.193,61.174,80.108,62.76,79.098z"/>
	<path d="M62.43,86.31c-2.629,1.679-6.033,4.097-10.322,7.229c-1.031,0.753-1.924,1.404-2.541,1.842
		c-0.873,0.616-1.08,1.824-0.465,2.696c0.377,0.534,0.975,0.819,1.582,0.819c0.387,0,0.775-0.115,1.115-0.355
		c0.643-0.454,1.545-1.113,2.592-1.876c1.932-1.41,5.699-4.16,8.924-6.308C62.895,89.056,62.598,87.702,62.43,86.31z"/>
	<path d="M66.057,95.945c-3.379,1.151-8.08,5.876-9.051,6.878c-0.742,0.768-0.723,1.993,0.045,2.736
		c0.375,0.364,0.861,0.545,1.346,0.545c0.506,0,1.012-0.197,1.391-0.589c2.592-2.677,6.273-5.718,7.701-5.965
		c0.654-0.112,1.469,0.164,2.395,0.657C68.43,98.96,67.141,97.529,66.057,95.945z"/>
	<path d="M95.832,61.609c-1.613-0.681-3.299-1.397-4.656-2.527c-1.494-1.243-2.189-2.876-2.5-4.761
		c-0.406-2.458-4.135-1.412-3.732,1.029c0.549,3.328,2.361,5.639,4.805,7.366c1.99,0.544,3.871,1.362,5.594,2.417
		c0.469-0.099,0.891-0.375,1.184-0.875C97.008,63.437,96.805,62.021,95.832,61.609z"/>
	<path d="M78.969,61.276c-0.701,0.193-1.342,0.898-1.438,1.655c1.148-0.359,2.338-0.621,3.559-0.786
		C80.631,61.447,79.881,61.025,78.969,61.276z"/>
	<path d="M82.85,63.88c-10.338,0-18.75,8.411-18.75,18.75s8.412,18.75,18.75,18.75c10.34,0,18.75-8.411,18.75-18.75
		S93.189,63.88,82.85,63.88z M82.85,97.38c-8.133,0-14.75-6.617-14.75-14.75s6.617-14.75,14.75-14.75S97.6,74.497,97.6,82.63
		S90.982,97.38,82.85,97.38z"/>
	<polygon points="87.805,74.729 83.033,79.789 78.264,74.729 75.135,77.092 80.355,82.63 75.135,88.167 78.264,90.531 
		83.033,85.471 87.805,90.531 90.934,88.167 85.713,82.63 90.934,77.092 	"/>
</g>
</svg>
