<?xml version="1.0" encoding="utf-8"?>
<!-- Generator: Adobe Illustrator 16.0.0, SVG Export Plug-In . SVG Version: 6.00 Build 0)  -->
<!DOCTYPE svg PUBLIC "-//W3C//DTD SVG 1.1//EN" "http://www.w3.org/Graphics/SVG/1.1/DTD/svg11.dtd">
<svg version="1.1" id="Layer_1" xmlns="http://www.w3.org/2000/svg" xmlns:xlink="http://www.w3.org/1999/xlink" x="0px" y="0px"
	 width="126px" height="126px" viewBox="0 0 126 126" enable-background="new 0 0 126 126" xml:space="preserve">
<g>
	<path d="M35.961,44.68c0.607,0.133,1.17,0.123,2.9-1.207c0.77-0.59,1.906-1.585,2.955-2.973l0.459-0.609
		c3.93-5.227,13.131-17.465,26.42-16.801c10.961,0.801,18.729,9.076,22.467,23.936c0.127,0.505,0.203,0.814,0.289,1.053
		c0.57,2.43,1.529,5.457,2.91,6.453c0.342,0.248,0.738,0.367,1.131,0.367c0.6,0,1.191-0.279,1.57-0.803
		c0.604-0.837,0.441-1.993-0.35-2.635c-0.383-0.493-1.1-2.563-1.527-4.411c-0.025-0.11-0.061-0.217-0.104-0.32
		c-0.037-0.126-0.105-0.401-0.168-0.648c-0.592-2.354-2.166-8.612-5.982-14.496c-4.928-7.599-11.65-11.755-19.979-12.356
		c-0.012-0.001-0.025-0.002-0.041-0.002c-15.35-0.783-25.428,12.617-29.729,18.338l-0.453,0.602
		c-1.178,1.557-2.568,2.525-3.049,2.807c-0.162,0.063-0.318,0.15-0.465,0.261c-0.602,0.456-0.895,1.234-0.732,1.972
		C34.646,43.941,35.223,44.518,35.961,44.68z"/>
	<path d="M84.422,52.1c1.461-3.648,1.496-7.416,0.096-10.34c-1.246-2.607-3.572-4.496-6.725-5.461
		c-4.627-1.416-10.236,1.153-15.375,7.041c-0.064,0.072-7.379,7.766-15.061,12.469c-0.057,0.033-5.68,3.407-11.553,5.006
		c-1.029,0.281-1.639,1.345-1.357,2.375c0.281,1.031,1.344,1.641,2.375,1.359c6.389-1.739,12.287-5.278,12.545-5.434
		c8.334-5.103,15.891-13.145,15.955-13.219c3.119-3.574,7.736-7,11.338-5.898c2.119,0.65,3.588,1.805,4.367,3.434
		c0.934,1.948,0.861,4.584-0.199,7.23c-1.971,4.926-8.109,10.875-17.283,16.75c-4.602,2.948-16.188,10.182-24.369,13.68
		c-0.982,0.42-1.439,1.557-1.02,2.539c0.314,0.734,1.029,1.175,1.781,1.175c0.252,0,0.512-0.05,0.76-0.155
		c8.447-3.613,20.252-10.979,24.934-13.979C72.598,66.21,81.514,59.365,84.422,52.1z"/>
	<path d="M53.26,37.654c-0.877,0.968-1.666,2.006-2.516,2.998c-1.111,1.3-2.326,2.514-3.594,3.658
		c-1.305,1.178-2.359,2.021-3.9,2.904c-1.631,0.937-3.295,1.884-4.986,2.707c-0.58,0.283-1.08,0.468-1.734,0.664
		c-1.01,0.304-1.637,1.346-1.352,2.381c0.275,0.998,1.371,1.654,2.381,1.352c1.979-0.596,3.771-1.613,5.557-2.629
		c1.508-0.857,3.008-1.629,4.395-2.684c2.701-2.055,5.027-4.455,7.166-7.08c0.865-1.063,1.793-2.076,2.76-3.049
		c0.527-0.531,1.074-1.043,1.631-1.543c0.291-0.261,0.586-0.515,0.885-0.766c0.15-0.127,0.305-0.252,0.457-0.377
		c0.039-0.033,0.34-0.27,0.418-0.332c1.346-1.032,2.781-1.949,4.293-2.725c1.426-0.733,2.857-1.248,4.594-1.609
		c0.576-0.119,0.701-0.133,1.133-0.177c1.049-0.108,1.936-0.798,1.936-1.935c0-0.973-0.883-2.045-1.936-1.936
		C63.852,28.203,57.869,32.576,53.26,37.654z"/>
	<path d="M38.201,74.704c4.203-1.442,25.787-9.502,37.873-26.442c0.619-0.87,0.418-2.078-0.451-2.699
		c-0.871-0.621-2.08-0.418-2.699,0.451c-11.4,15.98-31.971,23.654-35.979,25.031c-0.086,0.029-0.139,0.048-0.158,0.055
		c-0.998,0.379-1.502,1.495-1.123,2.495c0.293,0.774,1.027,1.25,1.809,1.25c0.221,0,0.443-0.038,0.66-0.116L38.201,74.704z"/>
	<path d="M63.428,82.869c0.447-2.076,1.191-4.043,2.188-5.854c-2.326,1.302-5.313,3.243-9.072,5.722
		c-4.832,3.185-10.307,6.794-12.689,7.435c-1.031,0.279-1.643,1.341-1.365,2.372c0.232,0.864,1.014,1.433,1.867,1.433
		c0.166,0,0.336-0.021,0.504-0.066c2.984-0.805,8.244-4.271,13.813-7.941C60.195,84.965,61.842,83.879,63.428,82.869z"/>
	<path d="M63.098,90.08c-2.629,1.68-6.033,4.098-10.322,7.229c-1.031,0.754-1.924,1.404-2.541,1.842
		c-0.873,0.617-1.08,1.824-0.465,2.697c0.377,0.533,0.975,0.818,1.582,0.818c0.387,0,0.775-0.115,1.115-0.355
		c0.643-0.453,1.545-1.113,2.592-1.876c1.932-1.41,5.699-4.16,8.924-6.308C63.563,92.826,63.266,91.473,63.098,90.08z"/>
	<path d="M66.725,99.716c-3.379,1.151-8.08,5.876-9.051,6.878c-0.742,0.768-0.723,1.992,0.045,2.736
		c0.375,0.363,0.861,0.545,1.346,0.545c0.506,0,1.012-0.197,1.391-0.59c2.592-2.676,6.273-5.718,7.701-5.965
		c0.654-0.111,1.469,0.164,2.395,0.656C69.098,102.73,67.809,101.3,66.725,99.716z"/>
	<path d="M96.5,65.381c-1.613-0.682-3.299-1.398-4.656-2.527c-1.494-1.243-2.189-2.876-2.5-4.762
		c-0.406-2.457-4.135-1.411-3.732,1.029c0.549,3.328,2.361,5.639,4.805,7.365c1.99,0.545,3.871,1.363,5.594,2.417
		c0.469-0.099,0.891-0.374,1.184-0.876C97.676,67.207,97.473,65.791,96.5,65.381z"/>
	<path d="M79.637,65.047c-0.701,0.193-1.342,0.898-1.438,1.656c1.148-0.359,2.338-0.621,3.559-0.786
		C81.299,65.218,80.549,64.797,79.637,65.047z"/>
	<path d="M83.518,67.65c-10.338,0-18.75,8.412-18.75,18.75c0,10.34,8.412,18.75,18.75,18.75c10.34,0,18.75-8.41,18.75-18.75
		C102.268,76.063,93.857,67.65,83.518,67.65z M83.518,101.15c-8.133,0-14.75-6.616-14.75-14.75c0-8.133,6.617-14.75,14.75-14.75
		s14.75,6.617,14.75,14.75C98.268,94.534,91.65,101.15,83.518,101.15z"/>
	<path d="M89.563,89.396H86.27V76.478c0-0.488-0.396-0.884-0.885-0.884h-3.732c-0.49,0-0.885,0.396-0.885,0.884v12.919h-3.293
		c-0.357,0-0.682,0.215-0.818,0.546s-0.061,0.711,0.191,0.964l6.045,6.044c0.172,0.173,0.398,0.259,0.625,0.259
		s0.453-0.086,0.625-0.259l6.045-6.044c0.252-0.253,0.328-0.633,0.191-0.964S89.92,89.396,89.563,89.396z"/>
</g>
</svg>
