<?xml version="1.0" encoding="utf-8"?>
<!-- Generator: Adobe Illustrator 16.0.0, SVG Export Plug-In . SVG Version: 6.00 Build 0)  -->
<!DOCTYPE svg PUBLIC "-//W3C//DTD SVG 1.1//EN" "http://www.w3.org/Graphics/SVG/1.1/DTD/svg11.dtd">
<svg version="1.1" id="Layer_1" xmlns="http://www.w3.org/2000/svg" xmlns:xlink="http://www.w3.org/1999/xlink" x="0px" y="0px"
	 width="126px" height="126px" viewBox="0 0 126 126" enable-background="new 0 0 126 126" xml:space="preserve">
<g>
	<path d="M62.17,79.982c0,2.1,1.441,3.719,3.541,3.719c2.219,0,3.6-1.619,3.6-3.719c0-2.221-1.439-3.781-3.539-3.781
		C63.67,76.201,62.17,77.762,62.17,79.982z"/>
	<path d="M76.689,50.764c0-4.561-3.119-8.82-10.02-8.82c-3.18,0-6.6,0.959-8.578,2.4l1.439,3.779c1.5-1.141,3.9-1.859,6.059-1.859
		c3.781,0.059,5.701,2.1,5.701,5.158c0,2.701-1.5,5.041-4.201,8.221c-3,3.6-4.08,7.139-3.719,10.379l0.119,1.561h4.68l-0.059-1.561
		c-0.182-3.059,0.779-5.699,3.42-8.818C74.41,57.783,76.689,54.842,76.689,50.764z"/>
	<path d="M36.289,42.396c0.596,0.131,1.146,0.121,2.844-1.182c0.752-0.578,1.865-1.553,2.893-2.912l0.451-0.598
		c3.85-5.121,12.863-17.109,25.883-16.459c10.736,0.783,18.348,8.891,22.008,23.449c0.125,0.494,0.201,0.799,0.285,1.031
		c0.559,2.381,1.498,5.346,2.85,6.322c0.334,0.242,0.723,0.359,1.109,0.359c0.586,0,1.168-0.273,1.537-0.787
		c0.592-0.818,0.434-1.951-0.342-2.58c-0.375-0.484-1.078-2.51-1.496-4.322c-0.025-0.107-0.059-0.211-0.104-0.313
		c-0.033-0.125-0.102-0.395-0.164-0.637c-0.58-2.307-2.121-8.436-5.859-14.201c-4.828-7.443-11.412-11.516-19.572-12.104
		c-0.014-0.002-0.025-0.002-0.039-0.004C53.533,16.693,43.66,29.822,39.447,35.428l-0.443,0.588
		c-1.154,1.525-2.518,2.475-2.988,2.75c-0.158,0.063-0.313,0.148-0.455,0.256c-0.59,0.447-0.877,1.209-0.719,1.932
		C35.002,41.674,35.566,42.238,36.289,42.396z"/>
	<path d="M37.133,61.861c6.258-1.703,12.039-5.17,12.291-5.322c2.359-1.443,4.648-3.129,6.721-4.795
		c-0.311-0.355-0.58-0.746-0.752-1.197l-0.896-2.355c-2.152,1.773-4.574,3.598-7.043,5.109c-0.055,0.033-5.564,3.336-11.316,4.904
		c-1.01,0.273-1.605,1.316-1.33,2.326C35.08,61.541,36.123,62.139,37.133,61.861z"/>
	<path d="M83.766,49.666c1.43-3.574,1.465-7.266,0.094-10.129c-1.221-2.555-3.5-4.404-6.588-5.352
		c-3.963-1.213-8.662,0.561-13.145,4.881c0.713-0.074,1.43-0.123,2.145-0.123c1.313,0,2.52,0.133,3.641,0.361
		c2.113-1.35,4.328-2.082,6.248-1.494c2.076,0.637,3.518,1.768,4.281,3.363c0.912,1.908,0.842,4.492-0.195,7.086
		c-0.084,0.209-0.186,0.424-0.285,0.639c0.211,0.949,0.33,1.912,0.33,2.865c0,1.604-0.268,3.066-0.703,4.42
		C81.398,54.092,82.871,51.898,83.766,49.666z"/>
	<path d="M58.988,71.391c-0.145-1.361-0.076-2.732,0.154-4.102c-5.479,3.389-13.564,8.156-19.703,10.779
		c-0.963,0.412-1.41,1.525-0.998,2.488c0.307,0.721,1.008,1.15,1.742,1.15c0.25,0,0.502-0.049,0.746-0.15
		c5.586-2.391,12.664-6.453,18.09-9.746L58.988,71.391z"/>
	<path d="M60.24,34.08c0.039-0.031,0.334-0.264,0.408-0.324c1.32-1.01,2.727-1.91,4.207-2.67c1.396-0.719,2.799-1.221,4.5-1.576
		c0.564-0.117,0.688-0.129,1.109-0.172c1.027-0.107,1.896-0.783,1.896-1.896c0-0.953-0.865-2.002-1.896-1.895
		c-6.852,0.709-12.711,4.994-17.229,9.967c-0.859,0.949-1.631,1.967-2.463,2.938c-1.09,1.273-2.279,2.463-3.521,3.584
		c-1.279,1.154-2.313,1.98-3.82,2.846c-1.6,0.916-3.229,1.846-4.885,2.652c-0.57,0.277-1.061,0.459-1.701,0.65
		c-0.988,0.297-1.602,1.318-1.322,2.332c0.268,0.979,1.342,1.621,2.33,1.324c1.939-0.584,3.695-1.58,5.445-2.574
		c1.479-0.842,2.945-1.598,4.303-2.631c2.648-2.014,4.926-4.363,7.021-6.936c0.85-1.041,1.756-2.035,2.705-2.986
		c0.516-0.52,1.051-1.021,1.598-1.514c0.285-0.254,0.574-0.502,0.865-0.748C59.939,34.326,60.09,34.203,60.24,34.08z"/>
	<path d="M38.484,71.811c2.912-0.998,14.336-5.244,24.965-13.512c0.061-0.072,0.107-0.145,0.168-0.217
		c2.393-2.818,3.273-4.344,3.273-5.66c0-0.576-0.012-0.984-1.08-1.113C54.66,61.84,40.48,67.117,37.254,68.227
		c-0.086,0.029-0.137,0.047-0.154,0.053c-0.979,0.373-1.473,1.467-1.102,2.445c0.287,0.758,1.008,1.223,1.773,1.223
		c0.215,0,0.434-0.035,0.646-0.111L38.484,71.811z"/>
	<path d="M57.771,80.982c0-0.842,0.119-1.643,0.34-2.391c-0.541,0.355-1.08,0.707-1.658,1.09c-4.732,3.119-10.098,6.656-12.43,7.283
		c-1.012,0.273-1.611,1.314-1.34,2.324c0.229,0.848,0.994,1.404,1.83,1.404c0.162,0,0.33-0.021,0.494-0.066
		c2.84-0.766,7.781-3.992,13.061-7.469C57.879,82.471,57.771,81.742,57.771,80.982z"/>
	<path d="M90.066,83.096c-2.627-0.875-5.844-3.164-8.951-5.379c-3.502-2.494-6.629-4.717-9.338-5.328
		c0.004,0.064,0.014,0.127,0.014,0.193c0,1.074-0.424,2.051-1.115,2.77c0.258,0.256,0.488,0.539,0.705,0.834
		c1.932,0.631,4.984,2.801,7.535,4.619c3.336,2.375,6.785,4.832,9.951,5.889c0.994,0.33,2.066-0.207,2.398-1.199
		C91.596,84.5,91.059,83.428,90.066,83.096z"/>
	<path d="M65.311,88.701c-1.365,0-2.633-0.357-3.729-0.982c-2.369,1.576-5.287,3.66-8.818,6.238
		c-1.012,0.738-1.885,1.375-2.492,1.805c-0.854,0.604-1.057,1.787-0.455,2.641c0.371,0.523,0.957,0.803,1.551,0.803
		c0.379,0,0.76-0.113,1.092-0.348c0.631-0.445,1.516-1.092,2.539-1.838c3.025-2.209,10.646-7.77,13.326-8.904
		C67.408,88.494,66.393,88.701,65.311,88.701z"/>
	<path d="M85.32,92.383c-1.527-0.553-4.012-2.088-6.414-3.572c-2.867-1.771-5.129-3.127-6.984-3.918
		c-0.803,1.447-2.051,2.578-3.588,3.219c0.229-0.098,0.436-0.172,0.584-0.199c1.182-0.08,5.447,2.551,7.996,4.123
		c2.684,1.658,5.221,3.227,7.117,3.912c0.984,0.357,2.072-0.154,2.428-1.139S86.305,92.738,85.32,92.383z"/>
	<path d="M78.918,101.807c-1.066-0.695-2.043-1.395-2.992-2.07c-3.107-2.221-5.795-4.139-8.74-3.625
		c-3.316,0.572-8.598,5.883-9.623,6.941c-0.729,0.752-0.709,1.953,0.043,2.682c0.367,0.354,0.844,0.533,1.318,0.533
		c0.494,0,0.99-0.193,1.361-0.578c2.539-2.621,6.146-5.602,7.545-5.844c1.385-0.238,3.477,1.252,5.895,2.977
		c0.934,0.666,1.99,1.42,3.121,2.158c0.877,0.572,2.053,0.326,2.623-0.551C80.041,103.553,79.793,102.379,78.918,101.807z"/>
	<path d="M95.598,62.678c-1.58-0.668-3.232-1.369-4.563-2.477c-1.463-1.219-2.145-2.816-2.449-4.664
		c-0.396-2.408-4.049-1.383-3.656,1.008c0.811,4.916,4.432,7.58,8.756,9.404c0.951,0.404,2.02,0.299,2.592-0.68
		C96.75,64.467,96.551,63.08,95.598,62.678z"/>
	<path d="M91.92,72.568c-1.424-0.439-2.504-0.994-4.012-1.885c-2.758-1.631-5.273-3.992-6.498-7.01
		c-0.389-0.955-1.248-1.621-2.332-1.322c-0.908,0.25-1.713,1.371-1.324,2.332c2.26,5.568,7.445,9.779,13.158,11.541
		C93.254,76.945,94.248,73.287,91.92,72.568z"/>
</g>
</svg>
