<?xml version="1.0" encoding="utf-8"?>
<!-- Generator: Adobe Illustrator 16.0.0, SVG Export Plug-In . SVG Version: 6.00 Build 0)  -->
<!DOCTYPE svg PUBLIC "-//W3C//DTD SVG 1.1//EN" "http://www.w3.org/Graphics/SVG/1.1/DTD/svg11.dtd">
<svg version="1.1" id="Layer_1" xmlns="http://www.w3.org/2000/svg" xmlns:xlink="http://www.w3.org/1999/xlink" x="0px" y="0px"
	 width="126px" height="126px" viewBox="0 0 126 126" enable-background="new 0 0 126 126" xml:space="preserve">
<g>
	<path d="M33.775,42.646c0.607,0.133,1.17,0.124,2.902-1.206c0.768-0.59,1.904-1.585,2.955-2.973l0.459-0.609
		c3.93-5.227,13.131-17.465,26.42-16.801c10.959,0.8,18.727,9.076,22.465,23.936c0.127,0.505,0.205,0.815,0.289,1.053
		c0.572,2.43,1.529,5.458,2.91,6.454c0.342,0.248,0.738,0.366,1.131,0.366c0.6,0,1.191-0.279,1.57-0.803
		c0.604-0.836,0.443-1.993-0.35-2.634c-0.381-0.494-1.1-2.563-1.527-4.412c-0.025-0.11-0.061-0.217-0.104-0.32
		c-0.035-0.126-0.105-0.401-0.168-0.648c-0.592-2.355-2.166-8.612-5.982-14.496c-4.928-7.598-11.648-11.755-19.977-12.356
		c-0.014-0.001-0.027-0.001-0.041-0.002c-15.352-0.783-25.428,12.617-29.73,18.339l-0.453,0.601
		c-1.178,1.557-2.568,2.526-3.047,2.807c-0.164,0.063-0.32,0.15-0.465,0.261c-0.602,0.457-0.896,1.234-0.734,1.971
		C32.461,41.908,33.039,42.484,33.775,42.646z"/>
	<path d="M82.236,50.066c1.461-3.648,1.496-7.417,0.098-10.34c-1.248-2.607-3.574-4.497-6.727-5.462
		c-4.627-1.416-10.236,1.154-15.373,7.041c-0.066,0.072-7.381,7.766-15.063,12.469c-0.057,0.034-5.68,3.408-11.551,5.007
		c-1.031,0.281-1.641,1.344-1.359,2.375s1.344,1.64,2.375,1.358c6.389-1.739,12.289-5.278,12.547-5.434
		c8.332-5.102,15.889-13.144,15.953-13.218c3.121-3.574,7.736-7.001,11.338-5.898c2.119,0.649,3.59,1.804,4.369,3.433
		c0.932,1.949,0.859,4.584-0.199,7.231c-1.973,4.926-8.111,10.875-17.285,16.75C56.758,68.327,45.172,75.56,36.99,79.058
		c-0.982,0.42-1.438,1.557-1.018,2.54c0.313,0.734,1.027,1.174,1.779,1.174c0.254,0,0.512-0.05,0.76-0.156
		c8.449-3.612,20.252-10.979,24.934-13.978C70.414,64.176,79.328,57.332,82.236,50.066z"/>
	<path d="M51.074,35.621c-0.877,0.968-1.666,2.006-2.514,2.998c-1.111,1.3-2.328,2.514-3.596,3.659
		c-1.305,1.178-2.359,2.021-3.898,2.904c-1.633,0.937-3.295,1.884-4.986,2.707c-0.582,0.284-1.082,0.468-1.736,0.665
		c-1.01,0.303-1.635,1.345-1.352,2.38c0.275,0.998,1.371,1.655,2.381,1.352c1.979-0.595,3.771-1.613,5.557-2.628
		c1.51-0.858,3.008-1.63,4.395-2.685c2.701-2.055,5.027-4.455,7.166-7.08c0.867-1.063,1.793-2.076,2.76-3.048
		c0.529-0.531,1.074-1.043,1.633-1.543c0.289-0.26,0.584-0.514,0.883-0.765c0.15-0.127,0.305-0.252,0.457-0.377
		c0.041-0.033,0.34-0.269,0.418-0.331c1.348-1.033,2.783-1.95,4.293-2.726c1.426-0.733,2.859-1.247,4.596-1.608
		c0.574-0.12,0.701-0.133,1.131-0.177c1.049-0.109,1.936-0.798,1.936-1.935c0-0.973-0.883-2.044-1.936-1.935
		C61.666,26.17,55.686,30.542,51.074,35.621z"/>
	<path d="M36.016,72.67c4.205-1.443,25.787-9.502,37.873-26.443c0.621-0.87,0.418-2.078-0.451-2.698
		c-0.869-0.621-2.078-0.419-2.699,0.451c-11.4,15.979-31.971,23.654-35.979,25.03c-0.086,0.029-0.139,0.048-0.156,0.056
		c-1,0.378-1.504,1.495-1.125,2.495c0.293,0.774,1.029,1.25,1.811,1.25c0.219,0,0.441-0.038,0.66-0.117L36.016,72.67z"/>
	<path d="M61.242,80.835c0.449-2.076,1.191-4.042,2.188-5.853c-2.326,1.301-5.313,3.243-9.072,5.721
		c-4.83,3.185-10.307,6.794-12.688,7.435c-1.033,0.278-1.645,1.34-1.367,2.372c0.234,0.864,1.014,1.433,1.867,1.433
		c0.168,0,0.336-0.021,0.504-0.067c2.986-0.804,8.246-4.271,13.814-7.941C58.01,82.931,59.658,81.846,61.242,80.835z"/>
	<path d="M60.912,88.047c-2.629,1.679-6.031,4.097-10.32,7.229c-1.033,0.753-1.924,1.404-2.543,1.842
		c-0.873,0.616-1.08,1.824-0.465,2.696c0.379,0.534,0.977,0.819,1.582,0.819c0.387,0,0.777-0.115,1.115-0.355
		c0.643-0.454,1.547-1.113,2.592-1.876c1.932-1.41,5.699-4.16,8.924-6.308C61.377,90.793,61.08,89.439,60.912,88.047z"/>
	<path d="M64.539,97.682c-3.377,1.151-8.08,5.876-9.049,6.878c-0.744,0.768-0.725,1.993,0.043,2.736
		c0.377,0.364,0.861,0.545,1.346,0.545c0.506,0,1.012-0.197,1.391-0.589c2.592-2.677,6.273-5.718,7.701-5.965
		c0.656-0.112,1.471,0.164,2.396,0.657C66.912,100.697,65.623,99.266,64.539,97.682z"/>
	<path d="M94.314,63.347c-1.613-0.681-3.299-1.397-4.656-2.527c-1.494-1.243-2.189-2.876-2.5-4.761
		c-0.406-2.458-4.135-1.412-3.732,1.029c0.549,3.328,2.361,5.639,4.805,7.366c1.992,0.544,3.871,1.362,5.594,2.417
		c0.471-0.099,0.893-0.375,1.186-0.875C95.49,65.174,95.287,63.758,94.314,63.347z"/>
	<path d="M77.453,63.014c-0.703,0.193-1.342,0.898-1.439,1.655c1.148-0.359,2.34-0.621,3.561-0.786
		C79.115,63.184,78.363,62.763,77.453,63.014z"/>
	<path d="M81.334,65.617c-10.34,0-18.75,8.411-18.75,18.75s8.41,18.75,18.75,18.75c10.338,0,18.75-8.411,18.75-18.75
		S91.672,65.617,81.334,65.617z M81.334,99.117c-8.133,0-14.75-6.617-14.75-14.75s6.617-14.75,14.75-14.75s14.75,6.617,14.75,14.75
		S89.467,99.117,81.334,99.117z"/>
	<polygon points="79.078,87.851 74.016,83.199 71.309,86.145 79.445,93.619 91.533,79.289 88.477,76.709 	"/>
</g>
</svg>
