<?xml version="1.0" encoding="utf-8"?>
<!-- Generator: Adobe Illustrator 16.0.0, SVG Export Plug-In . SVG Version: 6.00 Build 0)  -->
<!DOCTYPE svg PUBLIC "-//W3C//DTD SVG 1.1//EN" "http://www.w3.org/Graphics/SVG/1.1/DTD/svg11.dtd">
<svg version="1.1" id="Layer_1" xmlns="http://www.w3.org/2000/svg" xmlns:xlink="http://www.w3.org/1999/xlink" x="0px" y="0px"
	 width="126px" height="126px" viewBox="0 0 126 126" enable-background="new 0 0 126 126" xml:space="preserve">
<g>
	<path d="M33.435,40.803c0.607,0.133,1.17,0.123,2.9-1.205c0.77-0.592,1.906-1.586,2.955-2.975l0.459-0.609
		c3.93-5.227,13.131-17.465,26.42-16.801c10.961,0.801,18.729,9.076,22.467,23.936c0.127,0.506,0.203,0.816,0.289,1.053
		c0.57,2.43,1.529,5.459,2.91,6.455c0.342,0.246,0.738,0.365,1.131,0.365c0.6,0,1.191-0.279,1.57-0.803
		c0.604-0.836,0.441-1.992-0.35-2.633c-0.383-0.494-1.1-2.563-1.527-4.412c-0.025-0.109-0.061-0.217-0.104-0.32
		c-0.037-0.127-0.105-0.402-0.168-0.648c-0.592-2.355-2.166-8.611-5.982-14.496c-4.928-7.598-11.65-11.756-19.979-12.357
		c-0.012,0-0.025,0-0.041-0.002c-15.35-0.783-25.428,12.617-29.729,18.34l-0.453,0.6c-1.178,1.557-2.568,2.527-3.049,2.807
		c-0.162,0.064-0.318,0.15-0.465,0.262c-0.602,0.457-0.895,1.234-0.732,1.971C32.12,40.066,32.696,40.643,33.435,40.803z"/>
	<path d="M81.896,48.225c1.461-3.648,1.496-7.418,0.096-10.34c-1.246-2.607-3.572-4.498-6.725-5.463
		c-4.627-1.416-10.236,1.154-15.375,7.041c-0.064,0.072-7.379,7.766-15.061,12.469c-0.057,0.035-5.68,3.408-11.553,5.008
		c-1.029,0.279-1.639,1.344-1.357,2.375c0.281,1.029,1.344,1.639,2.375,1.357c6.389-1.738,12.287-5.277,12.545-5.434
		c8.334-5.102,15.891-13.143,15.955-13.217c3.119-3.574,7.736-7.002,11.338-5.898c2.119,0.648,3.588,1.803,4.367,3.432
		c0.934,1.949,0.861,4.584-0.199,7.23c-1.971,4.928-8.109,10.875-17.283,16.752c-4.602,2.947-16.188,10.18-24.369,13.678
		c-0.982,0.42-1.439,1.557-1.02,2.541c0.314,0.732,1.029,1.174,1.781,1.174c0.252,0,0.512-0.051,0.76-0.156
		c8.447-3.611,20.252-10.979,24.934-13.979C70.071,62.334,78.987,55.49,81.896,48.225z"/>
	<path d="M50.733,33.777c-0.877,0.969-1.666,2.006-2.516,2.998c-1.111,1.301-2.326,2.514-3.594,3.66
		c-1.305,1.178-2.359,2.02-3.9,2.902c-1.631,0.938-3.295,1.885-4.986,2.707c-0.58,0.285-1.08,0.469-1.734,0.666
		c-1.01,0.303-1.637,1.344-1.352,2.379c0.275,0.998,1.371,1.656,2.381,1.352c1.979-0.594,3.771-1.613,5.557-2.627
		c1.508-0.859,3.008-1.631,4.395-2.686c2.701-2.055,5.027-4.455,7.166-7.08c0.865-1.063,1.793-2.076,2.76-3.049
		c0.527-0.529,1.074-1.043,1.631-1.543c0.291-0.26,0.586-0.514,0.885-0.766c0.15-0.127,0.305-0.252,0.457-0.377
		c0.039-0.033,0.34-0.268,0.418-0.33c1.346-1.033,2.781-1.951,4.293-2.727c1.426-0.732,2.857-1.246,4.594-1.607
		c0.576-0.121,0.701-0.133,1.133-0.178c1.049-0.109,1.936-0.799,1.936-1.936c0-0.973-0.883-2.043-1.936-1.936
		C61.325,24.328,55.343,28.699,50.733,33.777z"/>
	<path d="M35.675,70.828c4.203-1.443,25.787-9.502,37.873-26.443c0.619-0.869,0.418-2.078-0.451-2.697
		c-0.871-0.621-2.08-0.42-2.699,0.451c-11.4,15.979-31.971,23.654-35.979,25.029c-0.086,0.029-0.139,0.049-0.158,0.057
		c-0.998,0.377-1.502,1.494-1.123,2.494c0.293,0.773,1.027,1.25,1.809,1.25c0.221,0,0.443-0.039,0.66-0.117L35.675,70.828z"/>
	<path d="M60.901,78.992c0.447-2.076,1.191-4.041,2.188-5.852c-2.326,1.301-5.313,3.242-9.072,5.721
		c-4.832,3.184-10.307,6.793-12.689,7.436c-1.031,0.277-1.643,1.34-1.365,2.371c0.232,0.863,1.014,1.432,1.867,1.432
		c0.166,0,0.336-0.021,0.504-0.066c2.984-0.803,8.244-4.271,13.813-7.941C57.669,81.088,59.315,80.004,60.901,78.992z"/>
	<path d="M60.571,86.205c-2.629,1.678-6.033,4.096-10.322,7.229c-1.031,0.752-1.924,1.404-2.541,1.842
		c-0.873,0.615-1.08,1.822-0.465,2.695c0.377,0.533,0.975,0.818,1.582,0.818c0.387,0,0.775-0.115,1.115-0.354
		c0.643-0.455,1.545-1.113,2.592-1.877c1.932-1.41,5.699-4.16,8.924-6.309C61.036,88.951,60.739,87.598,60.571,86.205z"/>
	<path d="M64.198,95.84c-3.379,1.15-8.08,5.877-9.051,6.877c-0.742,0.77-0.723,1.994,0.045,2.736
		c0.375,0.363,0.861,0.545,1.346,0.545c0.506,0,1.012-0.197,1.391-0.588c2.592-2.678,6.273-5.719,7.701-5.967
		c0.654-0.111,1.469,0.164,2.395,0.658C66.571,98.855,65.282,97.424,64.198,95.84z"/>
	<path d="M93.974,61.504c-1.613-0.682-3.299-1.396-4.656-2.527c-1.494-1.242-2.189-2.875-2.5-4.76
		c-0.406-2.459-4.135-1.412-3.732,1.027c0.549,3.328,2.361,5.641,4.805,7.367c1.99,0.543,3.871,1.361,5.594,2.416
		c0.469-0.1,0.891-0.375,1.184-0.875C95.149,63.332,94.946,61.916,93.974,61.504z"/>
	<path d="M77.11,61.172c-0.701,0.193-1.342,0.898-1.438,1.654c1.148-0.359,2.338-0.621,3.559-0.785
		C78.772,61.342,78.022,60.92,77.11,61.172z"/>
	<path d="M80.991,63.775c-10.338,0-18.75,8.41-18.75,18.75c0,10.338,8.412,18.75,18.75,18.75c10.34,0,18.75-8.412,18.75-18.75
		C99.741,72.186,91.331,63.775,80.991,63.775z M80.991,97.275c-8.133,0-14.75-6.617-14.75-14.75c0-8.135,6.617-14.75,14.75-14.75
		s14.75,6.615,14.75,14.75C95.741,90.658,89.124,97.275,80.991,97.275z"/>
	<path d="M86.208,77.291c0-2.877-2.34-5.219-5.216-5.219c-2.876,0-5.216,2.342-5.216,5.219v2.479H74.62v11.398h12.743V79.77h-1.155
		V77.291z M84.774,79.77h-7.565v-2.479c0-2.088,1.696-3.783,3.782-3.783s3.783,1.695,3.783,3.783V79.77z"/>
</g>
</svg>
