<?xml version="1.0" encoding="utf-8"?>
<!-- Generator: Adobe Illustrator 16.0.0, SVG Export Plug-In . SVG Version: 6.00 Build 0)  -->
<!DOCTYPE svg PUBLIC "-//W3C//DTD SVG 1.1//EN" "http://www.w3.org/Graphics/SVG/1.1/DTD/svg11.dtd">
<svg version="1.1" id="Layer_1" xmlns="http://www.w3.org/2000/svg" xmlns:xlink="http://www.w3.org/1999/xlink" x="0px" y="0px"
	 width="126px" height="126px" viewBox="0 0 126 126" enable-background="new 0 0 126 126" xml:space="preserve">
<g>
	<path fill="#020202" d="M49.271,49.408c0.333,0.072,0.641,0.068,1.588-0.66c0.42-0.322,1.042-0.867,1.616-1.625l0.251-0.334
		c2.15-2.861,7.185-9.555,14.455-9.193c5.996,0.439,10.246,4.967,12.291,13.096c0.07,0.277,0.111,0.447,0.158,0.576
		c0.313,1.33,0.837,2.986,1.592,3.531c0.188,0.135,0.404,0.199,0.619,0.199c0.328,0,0.652-0.15,0.859-0.438
		c0.33-0.457,0.242-1.092-0.191-1.441c-0.209-0.271-0.602-1.4-0.836-2.414c-0.014-0.059-0.032-0.117-0.057-0.174
		c-0.02-0.07-0.058-0.221-0.092-0.355c-0.324-1.289-1.185-4.711-3.272-7.932c-2.696-4.156-6.374-6.432-10.931-6.76
		c-0.007,0-0.014,0-0.021-0.002c-8.399-0.428-13.912,6.904-16.266,10.033l-0.248,0.33c-0.645,0.852-1.404,1.381-1.668,1.535
		c-0.088,0.035-0.174,0.082-0.254,0.143c-0.329,0.25-0.49,0.676-0.401,1.078C48.553,49.006,48.869,49.32,49.271,49.408z"/>
	<path fill="#020202" d="M49.744,60.277c3.494-0.949,6.723-2.885,6.863-2.971c4.559-2.791,8.693-7.191,8.729-7.232
		c1.707-1.955,4.232-3.83,6.202-3.227c1.16,0.355,1.964,0.986,2.391,1.879c0.511,1.064,0.471,2.508-0.108,3.955
		c-1.078,2.695-4.438,5.949-9.457,9.164c-2.518,1.613-8.855,5.572-13.332,7.484c-0.538,0.23-0.787,0.852-0.558,1.389
		c0.172,0.402,0.563,0.643,0.974,0.643c0.139,0,0.28-0.027,0.416-0.084c4.622-1.977,11.08-6.008,13.641-7.648
		c3.813-2.439,8.69-6.186,10.281-10.16c0.799-1.996,0.819-4.059,0.053-5.656c-0.682-1.428-1.955-2.461-3.68-2.99
		c-2.531-0.773-5.6,0.633-8.41,3.854c-0.037,0.039-4.039,4.248-8.241,6.822c-0.03,0.018-3.107,1.863-6.32,2.738
		c-0.563,0.152-0.896,0.736-0.743,1.299C48.598,60.1,49.179,60.434,49.744,60.277z"/>
	<path fill="#020202" d="M58.736,45.564c-0.479,0.531-0.912,1.1-1.375,1.641c-0.609,0.711-1.273,1.375-1.967,2.002
		c-0.715,0.645-1.291,1.105-2.134,1.588c-0.894,0.514-1.803,1.031-2.728,1.482c-0.318,0.154-0.593,0.256-0.951,0.363
		c-0.551,0.166-0.895,0.736-0.738,1.303c0.15,0.545,0.749,0.904,1.303,0.738c1.082-0.326,2.063-0.883,3.039-1.438
		c0.826-0.469,1.646-0.891,2.404-1.469c1.479-1.125,2.751-2.436,3.921-3.873c0.475-0.582,0.98-1.137,1.511-1.668
		c0.288-0.291,0.588-0.57,0.893-0.846c0.158-0.143,0.32-0.281,0.483-0.418c0.083-0.068,0.166-0.139,0.25-0.207
		c0.021-0.018,0.187-0.146,0.228-0.182c0.738-0.563,1.523-1.066,2.35-1.49c0.781-0.402,1.564-0.682,2.514-0.881
		c0.315-0.064,0.384-0.07,0.619-0.096c0.574-0.061,1.061-0.438,1.061-1.059c0-0.531-0.484-1.119-1.061-1.059
		C64.531,40.395,61.259,42.787,58.736,45.564z"/>
	<path fill="#020202" d="M50.498,65.836c2.3-0.789,14.107-5.199,20.721-14.469c0.339-0.475,0.229-1.135-0.248-1.475
		c-0.475-0.34-1.137-0.23-1.477,0.246c-6.236,8.742-17.491,12.941-19.684,13.695c-0.048,0.016-0.076,0.025-0.086,0.029
		c-0.547,0.207-0.822,0.818-0.615,1.365c0.16,0.424,0.563,0.684,0.99,0.684c0.119,0,0.242-0.02,0.361-0.063L50.498,65.836z"/>
	<path fill="#020202" d="M79.305,72.139c-1.467-0.49-3.264-1.77-5-3.006c-2.514-1.791-4.685-3.338-6.454-3.033
		c-1.329,0.23-3.651,1.715-7.318,4.131c-2.643,1.742-5.639,3.717-6.941,4.068c-0.564,0.152-0.899,0.732-0.747,1.297
		c0.127,0.473,0.555,0.783,1.021,0.783c0.091,0,0.184-0.012,0.275-0.035c1.633-0.441,4.512-2.338,7.558-4.346
		c2.46-1.621,5.522-3.641,6.513-3.811c0.898-0.154,3.098,1.41,4.866,2.67c1.863,1.326,3.789,2.699,5.558,3.289
		c0.555,0.186,1.154-0.115,1.339-0.67S79.858,72.322,79.305,72.139z"/>
	<path fill="#020202" d="M76.654,77.324c-0.854-0.309-2.241-1.166-3.582-1.994c-2.834-1.752-4.635-2.814-5.928-2.592
		c-1.309,0.227-4.059,2.096-8.672,5.465c-0.566,0.412-1.053,0.768-1.392,1.008c-0.478,0.338-0.591,0.998-0.255,1.475
		c0.207,0.293,0.535,0.447,0.866,0.447c0.212,0,0.425-0.063,0.61-0.193c0.352-0.248,0.846-0.609,1.418-1.027
		c1.836-1.34,6.715-4.902,7.773-5.084c0.66-0.045,3.043,1.424,4.465,2.301c1.5,0.928,2.916,1.803,3.976,2.186
		c0.549,0.199,1.157-0.086,1.354-0.635C77.488,78.129,77.204,77.523,76.654,77.324z"/>
	<path fill="#020202" d="M73.078,82.588c-0.595-0.389-1.141-0.779-1.67-1.156c-1.736-1.24-3.237-2.313-4.882-2.025
		c-1.853,0.318-4.802,3.285-5.374,3.877c-0.407,0.42-0.396,1.09,0.023,1.496c0.206,0.199,0.472,0.299,0.736,0.299
		c0.277,0,0.553-0.107,0.761-0.322c1.418-1.465,3.432-3.129,4.214-3.264c0.773-0.135,1.941,0.697,3.292,1.662
		c0.521,0.371,1.11,0.793,1.743,1.205c0.488,0.32,1.146,0.182,1.465-0.309C73.705,83.561,73.567,82.906,73.078,82.588z"/>
	<path fill="#020202" d="M82.394,60.734c-0.882-0.373-1.806-0.764-2.548-1.383c-0.817-0.682-1.197-1.572-1.368-2.605
		c-0.222-1.344-2.261-0.771-2.041,0.564c0.452,2.744,2.474,4.232,4.889,5.252c0.531,0.225,1.128,0.166,1.448-0.381
		C83.037,61.734,82.926,60.959,82.394,60.734z"/>
	<path fill="#020202" d="M80.339,66.258c-0.794-0.244-1.398-0.555-2.239-1.053c-1.541-0.91-2.945-2.229-3.629-3.914
		c-0.217-0.533-0.697-0.906-1.303-0.738c-0.508,0.139-0.956,0.766-0.739,1.303c1.261,3.109,4.157,5.461,7.348,6.445
		C81.085,68.703,81.64,66.66,80.339,66.258z"/>
	<path fill="#020202" d="M89.791,9.158H41.525c-3.203,0-5.808,2.508-5.808,5.592v93.414c0,3.084,2.604,5.592,5.808,5.592h48.266
		c3.203,0,5.808-2.508,5.808-5.592V14.75C95.599,11.666,92.994,9.158,89.791,9.158z M65.658,107.9c-1.792,0-3.248-1.455-3.248-3.248
		c0-1.785,1.456-3.242,3.248-3.242s3.248,1.457,3.248,3.242C68.906,106.445,67.45,107.9,65.658,107.9z M91.634,95.75H39.688V25.76
		h51.945V95.75z"/>
</g>
</svg>
