<?xml version="1.0" encoding="utf-8"?>
<!-- Generator: Adobe Illustrator 16.0.0, SVG Export Plug-In . SVG Version: 6.00 Build 0)  -->
<!DOCTYPE svg PUBLIC "-//W3C//DTD SVG 1.1//EN" "http://www.w3.org/Graphics/SVG/1.1/DTD/svg11.dtd">
<svg version="1.1" id="Layer_1" xmlns="http://www.w3.org/2000/svg" xmlns:xlink="http://www.w3.org/1999/xlink" x="0px" y="0px"
	 width="126px" height="126px" viewBox="0 0 126 126" enable-background="new 0 0 126 126" xml:space="preserve">
<g>
	<path d="M37.689,42.611c0.609,0.133,1.172,0.123,2.902-1.206c0.77-0.591,1.904-1.585,2.955-2.974l0.459-0.609
		c3.93-5.227,13.131-17.465,26.42-16.801c10.959,0.801,18.727,9.076,22.465,23.936c0.127,0.506,0.205,0.815,0.291,1.053
		c0.57,2.43,1.527,5.458,2.908,6.454c0.342,0.247,0.738,0.366,1.131,0.366c0.6,0,1.193-0.279,1.57-0.803
		c0.604-0.836,0.443-1.992-0.35-2.634c-0.381-0.493-1.1-2.563-1.527-4.411c-0.025-0.11-0.059-0.217-0.104-0.32
		c-0.035-0.127-0.105-0.402-0.168-0.648c-0.592-2.355-2.166-8.612-5.982-14.496c-4.928-7.599-11.648-11.756-19.977-12.357
		c-0.014,0-0.027-0.001-0.041-0.002c-15.352-0.783-25.428,12.617-29.73,18.339l-0.451,0.601c-1.178,1.557-2.57,2.526-3.049,2.807
		c-0.162,0.064-0.318,0.15-0.465,0.262c-0.602,0.456-0.896,1.234-0.734,1.971C36.375,41.874,36.953,42.45,37.689,42.611z"/>
	<path d="M86.15,50.032c1.461-3.648,1.496-7.417,0.098-10.34c-1.248-2.607-3.574-4.497-6.727-5.462
		c-4.627-1.416-10.234,1.154-15.373,7.041c-0.066,0.072-7.381,7.766-15.063,12.469c-0.055,0.034-5.68,3.408-11.551,5.007
		c-1.031,0.28-1.639,1.345-1.359,2.375c0.281,1.03,1.344,1.64,2.375,1.358c6.389-1.738,12.289-5.277,12.547-5.434
		c8.332-5.102,15.889-13.144,15.953-13.218c3.121-3.574,7.736-7.001,11.338-5.898c2.119,0.649,3.59,1.804,4.369,3.433
		c0.932,1.949,0.859,4.584-0.199,7.23c-1.971,4.927-8.109,10.875-17.285,16.751c-4.602,2.948-16.186,10.181-24.369,13.679
		c-0.982,0.42-1.438,1.557-1.018,2.54c0.314,0.733,1.029,1.175,1.779,1.175c0.254,0,0.512-0.051,0.76-0.156
		c8.449-3.612,20.252-10.979,24.936-13.979C74.328,64.143,83.244,57.298,86.15,50.032z"/>
	<path d="M54.99,35.586c-0.879,0.969-1.668,2.006-2.516,2.998c-1.111,1.301-2.326,2.514-3.596,3.659
		c-1.305,1.178-2.359,2.021-3.898,2.903c-1.633,0.938-3.295,1.885-4.986,2.707c-0.582,0.284-1.082,0.469-1.736,0.665
		c-1.008,0.304-1.635,1.345-1.35,2.38c0.273,0.998,1.369,1.655,2.379,1.352c1.979-0.595,3.771-1.613,5.559-2.628
		c1.508-0.858,3.006-1.63,4.393-2.685c2.703-2.055,5.027-4.455,7.166-7.08c0.867-1.063,1.793-2.076,2.76-3.049
		c0.529-0.53,1.074-1.043,1.633-1.543c0.289-0.26,0.586-0.514,0.883-0.766c0.152-0.127,0.305-0.252,0.459-0.377
		c0.039-0.033,0.34-0.27,0.418-0.332c1.348-1.032,2.781-1.949,4.291-2.725c1.428-0.732,2.859-1.247,4.596-1.608
		c0.576-0.12,0.701-0.133,1.133-0.177c1.049-0.109,1.936-0.799,1.936-1.936c0-0.973-0.885-2.044-1.936-1.936
		C65.582,26.136,59.6,30.508,54.99,35.586z"/>
	<path d="M39.932,72.637c4.203-1.443,25.785-9.502,37.871-26.443c0.621-0.869,0.418-2.078-0.451-2.698
		c-0.869-0.621-2.078-0.419-2.699,0.451c-11.4,15.979-31.971,23.654-35.979,25.03c-0.086,0.029-0.139,0.049-0.156,0.056
		c-1,0.378-1.504,1.495-1.125,2.495c0.293,0.773,1.029,1.25,1.811,1.25c0.219,0,0.441-0.039,0.66-0.117L39.932,72.637z"/>
	<path d="M72.307,76.934c1.334-0.228,4.236,1.615,7.01,3.549l1.008-3.102c0.08-0.244,0.182-0.477,0.291-0.704
		c-3.408-2.329-6.416-3.997-8.967-3.558c-2.43,0.42-6.676,3.133-13.377,7.551c-4.83,3.184-10.307,6.793-12.688,7.435
		c-1.033,0.278-1.645,1.341-1.365,2.372c0.232,0.863,1.014,1.432,1.867,1.432c0.166,0,0.336-0.021,0.504-0.066
		c2.984-0.804,8.244-4.271,13.813-7.941C64.9,80.936,70.498,77.246,72.307,76.934z"/>
	<path d="M66.836,87.182c0.059-0.179,0.139-0.344,0.213-0.514c-2.822,1.591-6.92,4.469-12.543,8.573
		c-1.033,0.753-1.924,1.404-2.543,1.842c-0.873,0.616-1.08,1.823-0.463,2.696c0.377,0.533,0.975,0.818,1.582,0.818
		c0.385,0,0.775-0.115,1.113-0.354c0.645-0.454,1.547-1.113,2.592-1.876c2.215-1.616,6.836-4.988,10.289-7.2
		C66.516,89.943,66.398,88.53,66.836,87.182z"/>
	<path d="M69.227,97.439c-3.385,0.584-8.775,6.006-9.822,7.086c-0.744,0.769-0.723,1.993,0.045,2.736
		c0.375,0.363,0.859,0.545,1.346,0.545c0.504,0,1.01-0.197,1.389-0.589c2.592-2.677,6.273-5.718,7.703-5.966
		c0.67-0.113,1.504,0.175,2.457,0.689l1.213-3.729C72.121,97.527,70.707,97.183,69.227,97.439z"/>
	<path d="M98.924,65.96c0.48-0.82,0.277-2.236-0.693-2.647c-1.613-0.682-3.299-1.397-4.658-2.527
		c-1.494-1.242-2.189-2.875-2.5-4.761c-0.404-2.458-4.133-1.411-3.732,1.028c0.828,5.02,4.523,7.736,8.938,9.602
		C97.248,67.064,98.34,66.957,98.924,65.96z"/>
	<path d="M90.381,71.485c-2.816-1.664-5.385-4.075-6.633-7.155c-0.396-0.976-1.273-1.655-2.381-1.351
		c-0.928,0.255-1.748,1.401-1.352,2.38c1.354,3.34,3.742,6.193,6.662,8.35c1.271,0.265,2.396,0.964,3.189,1.971
		c1.154,0.589,2.354,1.083,3.578,1.461c2.393,0.736,3.406-3,1.029-3.732C93.021,72.961,91.918,72.395,90.381,71.485z"/>
	<path d="M100.576,86.6c-0.268-0.824-1.037-1.382-1.902-1.382h-8.852l-2.734-8.417c-0.268-0.824-1.035-1.383-1.902-1.383
		c-0.865,0-1.635,0.559-1.902,1.383l-2.734,8.417h-8.85c-0.867,0-1.635,0.558-1.902,1.382s0.025,1.727,0.727,2.236l7.16,5.201
		l-2.736,8.418c-0.268,0.824,0.025,1.727,0.727,2.236c0.701,0.509,1.65,0.509,2.352,0l7.16-5.202l7.16,5.202
		c0.352,0.254,0.764,0.382,1.176,0.382s0.826-0.128,1.176-0.382c0.701-0.51,0.994-1.412,0.727-2.236l-2.734-8.418l7.16-5.201
		C100.551,88.326,100.844,87.424,100.576,86.6z"/>
</g>
</svg>
