<?xml version="1.0" encoding="utf-8"?>
<!-- Generator: Adobe Illustrator 16.0.0, SVG Export Plug-In . SVG Version: 6.00 Build 0)  -->
<!DOCTYPE svg PUBLIC "-//W3C//DTD SVG 1.1//EN" "http://www.w3.org/Graphics/SVG/1.1/DTD/svg11.dtd">
<svg version="1.1" id="Layer_1" xmlns="http://www.w3.org/2000/svg" xmlns:xlink="http://www.w3.org/1999/xlink" x="0px" y="0px"
	 width="126px" height="126px" viewBox="0 0 126 126" enable-background="new 0 0 126 126" xml:space="preserve">
<g>
	<path d="M32.885,40.919c0.608,0.133,1.171,0.124,2.902-1.206c0.769-0.59,1.904-1.585,2.955-2.973l0.459-0.609
		c3.93-5.227,13.131-17.465,26.42-16.801c10.959,0.8,18.727,9.076,22.465,23.936c0.127,0.505,0.205,0.815,0.29,1.053
		c0.571,2.43,1.528,5.458,2.909,6.454c0.342,0.248,0.738,0.366,1.131,0.366c0.6,0,1.192-0.279,1.57-0.803
		c0.604-0.836,0.443-1.993-0.35-2.634c-0.381-0.494-1.1-2.563-1.527-4.412c-0.025-0.11-0.06-0.217-0.104-0.32
		c-0.035-0.126-0.105-0.401-0.168-0.648c-0.592-2.355-2.166-8.612-5.982-14.496c-4.928-7.598-11.648-11.755-19.977-12.356
		c-0.014-0.001-0.027-0.001-0.041-0.002c-15.352-0.783-25.428,12.617-29.73,18.339l-0.452,0.601
		c-1.178,1.557-2.569,2.526-3.048,2.807c-0.163,0.063-0.319,0.15-0.465,0.261c-0.602,0.457-0.896,1.234-0.734,1.971
		C31.57,40.182,32.148,40.758,32.885,40.919z"/>
	<path d="M81.346,48.34c1.461-3.648,1.496-7.417,0.098-10.34c-1.248-2.607-3.574-4.497-6.727-5.462
		c-4.627-1.416-10.235,1.154-15.373,7.041c-0.064,0.07-7.004,7.359-14.459,12.085c0.793,1.021,1.389,2.2,1.734,3.482
		c6.121-3.813,11.775-9.139,14.275-11.627c0.434-5.051,4.676-9.03,9.837-9.03c5.448,0,9.88,4.432,9.88,9.879
		c0,4.781-3.415,8.778-7.934,9.685c-3.023,3.1-7.151,6.36-12.209,9.599C55.867,66.6,44.282,73.833,36.1,77.331
		c-0.982,0.42-1.438,1.557-1.018,2.54c0.313,0.734,1.028,1.174,1.779,1.174c0.254,0,0.512-0.05,0.76-0.156
		c8.449-3.612,20.252-10.979,24.935-13.978C69.523,62.45,78.438,55.605,81.346,48.34z"/>
	<path d="M50.185,33.894c-0.878,0.968-1.667,2.006-2.515,2.998c-1.111,1.3-2.327,2.514-3.596,3.659
		c-1.305,1.178-2.359,2.021-3.898,2.904c-1.633,0.937-3.295,1.884-4.986,2.707c-0.582,0.284-1.082,0.468-1.736,0.665
		c-1.006,0.302-1.631,1.339-1.352,2.372c1.465-0.862,3.167-1.366,4.987-1.366c0.873,0,1.716,0.125,2.522,0.339
		c0.143-0.081,0.286-0.16,0.429-0.241c1.509-0.858,3.007-1.63,4.394-2.685c2.702-2.055,5.027-4.455,7.166-7.08
		c0.867-1.063,1.793-2.076,2.76-3.048c0.529-0.531,1.074-1.043,1.633-1.543c0.289-0.26,0.585-0.514,0.883-0.765
		c0.151-0.127,0.305-0.252,0.458-0.377c0.04-0.033,0.341-0.27,0.418-0.332c1.347-1.032,2.782-1.95,4.292-2.725
		c1.427-0.733,2.859-1.247,4.596-1.608c0.575-0.12,0.701-0.133,1.132-0.177c1.049-0.109,1.936-0.798,1.936-1.935
		c0-0.973-0.884-2.044-1.936-1.935C60.776,24.443,54.795,28.816,50.185,33.894z"/>
	<path d="M35.126,70.944c3.442-1.182,18.544-6.807,30.536-18.111c-1.119-0.673-2.092-1.559-2.866-2.604
		c-5.434,5.08-11.541,8.945-16.796,11.72c-1.59,3.33-4.98,5.642-8.911,5.642c-0.999,0-1.962-0.152-2.87-0.428
		c-0.125,0.044-0.246,0.086-0.35,0.122c-0.086,0.029-0.139,0.048-0.156,0.056c-1,0.378-1.504,1.495-1.125,2.495
		c0.293,0.774,1.029,1.25,1.811,1.25c0.219,0,0.441-0.038,0.66-0.117L35.126,70.944z"/>
	<path d="M87.777,82.463c-2.682-0.894-5.963-3.231-9.137-5.491c-4.596-3.274-8.563-6.102-11.798-5.544
		c-2.43,0.42-6.675,3.132-13.376,7.55c-4.83,3.185-10.307,6.794-12.688,7.435c-1.033,0.278-1.645,1.34-1.366,2.372
		c0.233,0.864,1.014,1.433,1.867,1.433c0.167,0,0.336-0.021,0.504-0.067c2.985-0.804,8.245-4.271,13.813-7.941
		c4.498-2.965,10.095-6.655,11.903-6.967c1.644-0.28,5.664,2.581,8.896,4.883c3.404,2.425,6.926,4.933,10.158,6.01
		c1.014,0.339,2.109-0.21,2.447-1.223C89.339,83.896,88.791,82.8,87.777,82.463z"/>
	<path d="M82.934,91.941c-1.229-0.444-3.065-1.513-4.988-2.687c-0.305,1.298-0.863,2.496-1.625,3.542
		c1.994,1.209,3.834,2.254,5.299,2.784c1.003,0.364,2.113-0.157,2.477-1.162C84.459,93.414,83.939,92.304,82.934,91.941z"/>
	<path d="M58.472,87.336c-2.378,1.591-5.278,3.663-8.771,6.213c-1.033,0.753-1.924,1.404-2.543,1.842
		c-0.873,0.616-1.08,1.824-0.464,2.696c0.378,0.534,0.976,0.819,1.582,0.819c0.386,0,0.776-0.115,1.114-0.355
		c0.644-0.454,1.547-1.113,2.592-1.876c1.649-1.204,4.641-3.387,7.486-5.337C58.873,90.121,58.52,88.768,58.472,87.336z"/>
	<path d="M76.398,101.561c-1.088-0.71-2.086-1.423-3.053-2.112c-1.391-0.993-2.699-1.927-3.984-2.619
		c-0.338,0.035-0.68,0.054-1.027,0.054c-1.564,0-3.039-0.375-4.355-1.026c-3.395,0.936-8.377,5.941-9.379,6.976
		c-0.744,0.768-0.724,1.993,0.044,2.736c0.376,0.364,0.86,0.545,1.346,0.545c0.505,0,1.011-0.197,1.39-0.589
		c2.592-2.677,6.273-5.718,7.702-5.965c1.413-0.242,3.548,1.277,6.017,3.039c0.952,0.679,2.031,1.449,3.186,2.203
		c0.895,0.584,2.094,0.332,2.678-0.563C77.545,103.344,77.293,102.145,76.398,101.561z"/>
	<path d="M93.425,61.62c-1.613-0.681-3.299-1.397-4.657-2.527c-1.494-1.243-2.189-2.876-2.5-4.761
		c-0.405-2.458-4.134-1.412-3.732,1.029c0.828,5.02,4.523,7.736,8.937,9.601c0.972,0.411,2.063,0.303,2.647-0.694
		C94.6,63.447,94.396,62.031,93.425,61.62z"/>
	<path d="M89.67,71.716c-1.453-0.447-2.557-1.015-4.094-1.923c-2.816-1.664-5.385-4.076-6.634-7.155
		c-0.396-0.976-1.272-1.656-2.38-1.351c-0.928,0.255-1.748,1.401-1.352,2.38c2.306,5.686,7.6,9.984,13.43,11.78
		C91.032,76.184,92.047,72.449,89.67,71.716z"/>
	<path d="M45.113,57.676c0-4.345-3.535-7.879-7.88-7.879s-7.88,3.535-7.88,7.879s3.535,7.879,7.88,7.879
		S45.113,62.021,45.113,57.676z M31.354,57.676c0-3.242,2.639-5.879,5.88-5.879s5.88,2.638,5.88,5.879s-2.639,5.879-5.88,5.879
		S31.354,60.918,31.354,57.676z"/>
	<path d="M70.876,52.213c4.345,0,7.88-3.535,7.88-7.879s-3.535-7.879-7.88-7.879s-7.88,3.535-7.88,7.879
		S66.531,52.213,70.876,52.213z M70.876,38.454c3.241,0,5.88,2.638,5.88,5.879s-2.639,5.879-5.88,5.879s-5.88-2.638-5.88-5.879
		S67.635,38.454,70.876,38.454z"/>
	<path d="M76.358,86.969c0-4.345-3.534-7.879-7.88-7.879c-4.344,0-7.879,3.535-7.879,7.879s3.535,7.879,7.879,7.879
		C72.824,94.849,76.358,91.314,76.358,86.969z M62.6,86.969c0-3.242,2.638-5.879,5.879-5.879c3.242,0,5.88,2.638,5.88,5.879
		s-2.638,5.879-5.88,5.879C65.237,92.849,62.6,90.211,62.6,86.969z"/>
</g>
</svg>
