<?xml version="1.0" encoding="utf-8"?>
<!-- Generator: Adobe Illustrator 16.0.0, SVG Export Plug-In . SVG Version: 6.00 Build 0)  -->
<!DOCTYPE svg PUBLIC "-//W3C//DTD SVG 1.1//EN" "http://www.w3.org/Graphics/SVG/1.1/DTD/svg11.dtd">
<svg version="1.1" id="Layer_1" xmlns="http://www.w3.org/2000/svg" xmlns:xlink="http://www.w3.org/1999/xlink" x="0px" y="0px"
	 width="126px" height="126px" viewBox="0 0 126 126" enable-background="new 0 0 126 126" xml:space="preserve">
<g>
	<polygon points="73.404,104.502 71.318,113.123 78.565,108.037 73.389,104.484 	"/>
	<polygon points="90.607,82.918 88.893,81.738 74.171,103.219 75.889,104.393 75.887,104.393 79.622,106.951 94.346,85.48 
		90.609,82.918 	"/>
	<path d="M93.995,79.895c-2.233-1.416-4.081,0.615-4.081,0.615l5.198,3.559C95.112,84.068,96.432,81.717,93.995,79.895z"/>
	<path d="M38.517,44.584c0.595,0.129,1.147,0.121,2.843-1.182c0.753-0.578,1.866-1.553,2.895-2.912l0.449-0.598
		c3.85-5.121,12.864-17.109,25.884-16.459c10.736,0.783,18.347,8.891,22.009,23.449c0.124,0.494,0.199,0.797,0.283,1.031
		c0.559,2.381,1.498,5.346,2.851,6.322c0.335,0.242,0.724,0.357,1.108,0.357c0.587,0,1.168-0.271,1.537-0.785
		c0.593-0.818,0.435-1.953-0.342-2.58c-0.373-0.484-1.077-2.51-1.496-4.322c-0.024-0.107-0.059-0.211-0.102-0.313
		c-0.035-0.125-0.104-0.395-0.164-0.637c-0.58-2.307-2.122-8.436-5.861-14.201C85.582,24.313,78.998,20.24,70.838,19.65
		c-0.012-0.002-0.025-0.002-0.039-0.002C55.76,18.881,45.889,32.01,41.674,37.613l-0.443,0.59c-1.154,1.525-2.517,2.475-2.987,2.75
		c-0.158,0.063-0.312,0.146-0.454,0.256c-0.59,0.445-0.879,1.209-0.72,1.93C37.229,43.861,37.795,44.426,38.517,44.584z"/>
	<path d="M85.992,51.854c1.431-3.574,1.467-7.266,0.094-10.129c-1.221-2.555-3.5-4.406-6.588-5.352
		c-4.532-1.387-10.027,1.131-15.062,6.898c-0.063,0.07-7.229,7.607-14.755,12.215c-0.056,0.033-5.564,3.338-11.317,4.906
		c-1.01,0.273-1.606,1.316-1.331,2.326s1.316,1.607,2.328,1.328c6.257-1.701,12.037-5.168,12.29-5.32
		c8.163-4.998,15.567-12.877,15.63-12.949c3.057-3.502,7.579-6.859,11.106-5.779c2.077,0.637,3.517,1.768,4.28,3.363
		c0.914,1.908,0.843,4.492-0.195,7.084c-1.931,4.826-7.945,10.652-16.934,16.41c-4.508,2.887-15.857,9.975-23.873,13.4
		c-0.963,0.412-1.409,1.525-0.998,2.488c0.308,0.719,1.008,1.15,1.744,1.15c0.248,0,0.502-0.049,0.744-0.152
		c8.277-3.541,19.841-10.756,24.428-13.693C74.408,65.678,83.144,58.973,85.992,51.854z"/>
	<path d="M55.465,37.701c-0.86,0.949-1.633,1.967-2.465,2.938c-1.088,1.273-2.279,2.461-3.521,3.584
		c-1.278,1.154-2.312,1.98-3.819,2.846c-1.599,0.916-3.229,1.844-4.886,2.652c-0.569,0.277-1.06,0.457-1.701,0.65
		c-0.987,0.297-1.602,1.318-1.322,2.332c0.268,0.977,1.342,1.621,2.332,1.324c1.938-0.584,3.695-1.582,5.443-2.576
		c1.479-0.84,2.946-1.596,4.305-2.629c2.648-2.014,4.926-4.363,7.021-6.936c0.849-1.043,1.757-2.035,2.704-2.988
		c0.518-0.52,1.053-1.021,1.599-1.512c0.284-0.254,0.573-0.504,0.866-0.75c0.147-0.123,0.297-0.246,0.448-0.369
		c0.038-0.031,0.333-0.264,0.407-0.324c1.32-1.012,2.727-1.91,4.207-2.67c1.398-0.719,2.801-1.221,4.502-1.576
		c0.564-0.117,0.687-0.129,1.109-0.174c1.027-0.105,1.896-0.781,1.896-1.895c0-0.953-0.867-2.002-1.896-1.896
		C65.841,28.443,59.98,32.727,55.465,37.701z"/>
	<path d="M40.712,73.998c4.118-1.412,25.263-9.309,37.103-25.906c0.607-0.852,0.41-2.033-0.441-2.643
		c-0.854-0.607-2.037-0.41-2.646,0.441C63.56,61.547,43.406,69.064,39.48,70.414c-0.084,0.029-0.136,0.047-0.154,0.053
		c-0.979,0.373-1.473,1.467-1.102,2.445c0.287,0.758,1.009,1.223,1.774,1.223c0.214,0,0.433-0.035,0.646-0.111L40.712,73.998z"/>
	<path d="M72.429,78.209c1.609-0.275,5.549,2.527,8.714,4.781c0.743,0.529,1.491,1.061,2.24,1.58l2.143-3.125
		c-0.728-0.506-1.458-1.025-2.184-1.541c-4.502-3.209-8.389-5.979-11.558-5.434c-2.38,0.412-6.539,3.07-13.104,7.396
		c-4.732,3.121-10.097,6.656-12.43,7.285c-1.011,0.273-1.61,1.313-1.338,2.322c0.228,0.848,0.992,1.404,1.829,1.404
		c0.163,0,0.329-0.021,0.493-0.064c2.925-0.789,8.078-4.186,13.533-7.779C65.174,82.129,70.656,78.516,72.429,78.209z"/>
	<path d="M77.471,93.197l2.146-3.131c-4.208-2.566-7.023-4.064-9.097-3.707c-2.344,0.406-7.266,3.752-15.529,9.785
		c-1.012,0.738-1.885,1.375-2.49,1.803c-0.855,0.605-1.059,1.787-0.455,2.643c0.37,0.523,0.955,0.801,1.55,0.801
		c0.378,0,0.76-0.111,1.093-0.346c0.63-0.445,1.514-1.092,2.539-1.84c3.287-2.4,12.023-8.777,13.92-9.105
		C72.095,90.033,75.031,91.717,77.471,93.197z"/>
	<path d="M69.412,98.297c-3.316,0.574-8.598,5.885-9.623,6.941c-0.729,0.754-0.709,1.953,0.044,2.684
		c0.368,0.354,0.843,0.533,1.317,0.533c0.496,0,0.99-0.193,1.362-0.578c2.539-2.623,6.146-5.602,7.546-5.844
		c0.367-0.064,0.789,0.002,1.25,0.154l2.194-3.201C72.149,98.361,70.81,98.055,69.412,98.297z"/>
	<path d="M97.825,64.863c-1.58-0.666-3.231-1.369-4.562-2.475c-1.465-1.219-2.146-2.816-2.45-4.664
		c-0.396-2.408-4.05-1.383-3.655,1.008c0.811,4.916,4.43,7.578,8.754,9.404c0.951,0.404,2.021,0.299,2.593-0.68
		C98.977,66.654,98.777,65.268,97.825,64.863z"/>
	<path d="M81.305,64.537c-0.908,0.25-1.711,1.373-1.323,2.334c1.86,4.584,5.706,8.244,10.194,10.379
		c0.648-0.236,1.383-0.406,2.212-0.406c0.987,0,1.94,0.238,2.845,0.686c0.492-0.965,0.26-2.359-1.086-2.773
		c-1.423-0.439-2.504-0.994-4.01-1.885c-2.76-1.631-5.275-3.992-6.5-7.01C83.25,64.906,82.391,64.24,81.305,64.537z"/>
</g>
</svg>
