<?xml version="1.0" encoding="utf-8"?>
<!-- Generator: Adobe Illustrator 16.0.0, SVG Export Plug-In . SVG Version: 6.00 Build 0)  -->
<!DOCTYPE svg PUBLIC "-//W3C//DTD SVG 1.1//EN" "http://www.w3.org/Graphics/SVG/1.1/DTD/svg11.dtd">
<svg version="1.1" id="Layer_1" xmlns="http://www.w3.org/2000/svg" xmlns:xlink="http://www.w3.org/1999/xlink" x="0px" y="0px"
	 width="126px" height="126px" viewBox="0 0 126 126" enable-background="new 0 0 126 126" xml:space="preserve">
<g>
	<path d="M33.096,41.566c0.608,0.133,1.17,0.123,2.901-1.206c0.769-0.591,1.905-1.585,2.955-2.974l0.459-0.609
		c3.93-5.227,13.131-17.465,26.42-16.801c10.959,0.801,18.727,9.076,22.465,23.936c0.127,0.506,0.205,0.815,0.29,1.053
		c0.571,2.43,1.528,5.458,2.909,6.454c0.342,0.247,0.738,0.366,1.131,0.366c0.6,0,1.192-0.279,1.57-0.803
		c0.604-0.836,0.443-1.992-0.35-2.634c-0.381-0.493-1.1-2.563-1.527-4.411c-0.025-0.11-0.06-0.217-0.104-0.32
		c-0.035-0.127-0.105-0.402-0.168-0.648c-0.592-2.355-2.166-8.612-5.982-14.496c-4.928-7.599-11.648-11.756-19.977-12.357
		c-0.014,0-0.027-0.001-0.041-0.002C50.697,15.33,40.621,28.73,36.319,34.452l-0.453,0.601c-1.178,1.557-2.569,2.526-3.048,2.807
		c-0.163,0.064-0.319,0.15-0.465,0.262c-0.602,0.456-0.896,1.234-0.734,1.971C31.782,40.829,32.359,41.405,33.096,41.566z"/>
	<path d="M81.557,48.987c1.461-3.648,1.496-7.417,0.098-10.34c-1.248-2.607-3.574-4.497-6.727-5.462
		c-4.627-1.416-10.235,1.154-15.373,7.041c-0.066,0.072-7.381,7.766-15.062,12.469c-0.056,0.034-5.68,3.408-11.552,5.007
		c-1.031,0.28-1.639,1.345-1.358,2.375s1.344,1.64,2.375,1.358c6.388-1.738,12.288-5.277,12.546-5.434
		c8.333-5.102,15.889-13.144,15.954-13.218c3.121-3.574,7.736-7.001,11.338-5.898c2.119,0.649,3.59,1.804,4.369,3.433
		c0.932,1.949,0.859,4.584-0.199,7.23c-1.972,4.927-8.11,10.875-17.285,16.752c-4.602,2.947-16.187,10.18-24.369,13.678
		c-0.983,0.42-1.438,1.557-1.019,2.541c0.314,0.732,1.029,1.174,1.78,1.174c0.253,0,0.512-0.051,0.76-0.156
		c8.449-3.611,20.252-10.979,24.935-13.979C69.734,63.098,78.649,56.253,81.557,48.987z"/>
	<path d="M50.396,34.541c-0.878,0.969-1.667,2.006-2.515,2.998c-1.111,1.301-2.327,2.514-3.595,3.659
		c-1.304,1.178-2.359,2.021-3.899,2.903c-1.632,0.938-3.295,1.885-4.986,2.707c-0.582,0.284-1.081,0.469-1.735,0.665
		c-1.009,0.304-1.636,1.345-1.351,2.38c0.274,0.998,1.37,1.655,2.38,1.352c1.979-0.595,3.772-1.613,5.558-2.628
		c1.508-0.858,3.007-1.63,4.394-2.685c2.702-2.055,5.028-4.455,7.167-7.08c0.866-1.063,1.792-2.076,2.759-3.049
		c0.529-0.53,1.074-1.043,1.633-1.543c0.289-0.26,0.585-0.514,0.883-0.766c0.151-0.127,0.305-0.252,0.458-0.377
		c0.04-0.033,0.341-0.27,0.418-0.332c1.347-1.031,2.782-1.949,4.292-2.725c1.427-0.732,2.859-1.247,4.596-1.608
		c0.575-0.12,0.701-0.133,1.132-0.177c1.049-0.109,1.936-0.799,1.936-1.936c0-0.973-0.884-2.044-1.936-1.936
		C60.987,25.091,55.005,29.463,50.396,34.541z"/>
	<path d="M35.337,71.592c4.204-1.443,25.786-9.502,37.872-26.443c0.621-0.869,0.418-2.078-0.451-2.698
		c-0.869-0.621-2.078-0.419-2.699,0.451c-11.4,15.979-31.971,23.655-35.979,25.03c-0.086,0.029-0.138,0.049-0.157,0.057
		c-1,0.377-1.503,1.494-1.125,2.494c0.293,0.773,1.029,1.25,1.81,1.25c0.219,0,0.442-0.039,0.66-0.117L35.337,71.592z"/>
	<path d="M87.988,83.111c-2.682-0.895-5.963-3.232-9.137-5.492c-4.596-3.273-8.563-6.102-11.798-5.545
		c-2.43,0.42-6.675,3.133-13.375,7.551c-4.831,3.184-10.307,6.793-12.688,7.436c-1.032,0.277-1.644,1.34-1.366,2.371
		c0.233,0.863,1.014,1.432,1.867,1.432c0.167,0,0.336-0.021,0.504-0.066c2.985-0.803,8.245-4.271,13.813-7.941
		c4.498-2.965,10.095-6.654,11.903-6.967c1.644-0.279,5.664,2.58,8.896,4.883c3.404,2.426,6.926,4.934,10.158,6.01
		c1.014,0.34,2.109-0.211,2.447-1.223C89.55,84.543,89.002,83.447,87.988,83.111z"/>
	<path d="M83.145,92.59c-1.56-0.564-4.096-2.131-6.547-3.646c-5.18-3.199-8.473-5.141-10.834-4.732
		c-2.393,0.412-7.417,3.828-15.852,9.986c-1.033,0.752-1.924,1.404-2.542,1.842c-0.873,0.615-1.081,1.822-0.464,2.695
		c0.377,0.533,0.975,0.818,1.582,0.818c0.386,0,0.776-0.115,1.115-0.354c0.643-0.455,1.546-1.113,2.591-1.877
		c3.357-2.451,12.275-8.961,14.209-9.295c1.206-0.082,5.561,2.602,8.161,4.209c2.74,1.693,5.329,3.291,7.267,3.992
		c1.003,0.363,2.113-0.156,2.477-1.162S84.15,92.951,83.145,92.59z"/>
	<path d="M76.609,102.209c-1.088-0.711-2.086-1.424-3.053-2.111c-3.174-2.266-5.917-4.225-8.924-3.703
		c-3.385,0.584-8.776,6.006-9.823,7.086c-0.743,0.77-0.723,1.994,0.044,2.736c0.375,0.363,0.86,0.545,1.346,0.545
		c0.505,0,1.011-0.197,1.39-0.588c2.592-2.678,6.273-5.719,7.702-5.967c1.413-0.24,3.548,1.277,6.017,3.039
		c0.952,0.68,2.031,1.449,3.186,2.203c0.895,0.584,2.094,0.332,2.678-0.563S77.504,102.793,76.609,102.209z"/>
	<path d="M89.881,72.363c-1.453-0.447-2.557-1.014-4.094-1.922c-2.816-1.664-5.385-4.076-6.634-7.156
		c-0.396-0.976-1.272-1.655-2.38-1.351c-0.928,0.255-1.748,1.401-1.352,2.38c2.306,5.686,7.6,9.984,13.43,11.781
		C91.243,76.832,92.258,73.096,89.881,72.363z"/>
	<path d="M99.712,59.16c-3.583-5.973-10.077-1.451-14.483-7.795c-1.591,4.861,0.344,11.779,1.92,14.303
		c2.23,3.57,6.406,4.98,9.85,3.48C100.614,67.57,102.281,63.443,99.712,59.16z M96.178,58.527c0.85,0.246,2.042,1.078,2.609,1.928
		c0.568,0.85,0.61,1.971,0.096,2.504c-0.514,0.535-1.372,0.261-1.939-0.588C96.104,61.115,97.379,61.211,96.178,58.527z"/>
	<path d="M102.807,78.127c-0.603-2.834-3.765-1.932-4.641-5.018c-1.281,1.695-1.453,4.676-1.174,5.879
		c0.395,1.705,1.846,2.822,3.401,2.695C102.027,81.553,103.238,80.156,102.807,78.127z M101.97,79.508
		c-0.274,0.141-0.575-0.084-0.684-0.494c-0.161-0.607,0.327-0.396,0.218-1.615c0.3,0.213,0.656,0.701,0.765,1.113
		C102.379,78.92,102.244,79.367,101.97,79.508z"/>
</g>
</svg>
