<?xml version="1.0" encoding="utf-8"?>
<!-- Generator: Adobe Illustrator 16.0.0, SVG Export Plug-In . SVG Version: 6.00 Build 0)  -->
<!DOCTYPE svg PUBLIC "-//W3C//DTD SVG 1.1//EN" "http://www.w3.org/Graphics/SVG/1.1/DTD/svg11.dtd">
<svg version="1.1" id="Layer_1" xmlns="http://www.w3.org/2000/svg" xmlns:xlink="http://www.w3.org/1999/xlink" x="0px" y="0px"
	 width="126px" height="126px" viewBox="0 0 126 126" enable-background="new 0 0 126 126" xml:space="preserve">
<g>
	<path d="M35.949,42.991c0.607,0.133,1.17,0.124,2.9-1.206c0.77-0.59,1.906-1.585,2.955-2.973l0.459-0.609
		c3.93-5.227,13.131-17.465,26.42-16.801c10.961,0.8,18.729,9.076,22.467,23.936c0.127,0.505,0.203,0.815,0.289,1.053
		c0.57,2.43,1.529,5.458,2.91,6.454c0.342,0.248,0.738,0.366,1.131,0.366c0.6,0,1.191-0.279,1.57-0.803
		c0.604-0.836,0.441-1.993-0.35-2.634c-0.383-0.494-1.1-2.563-1.527-4.412c-0.025-0.11-0.061-0.217-0.104-0.32
		c-0.037-0.126-0.105-0.401-0.168-0.648c-0.592-2.355-2.166-8.612-5.982-14.496c-4.928-7.598-11.65-11.755-19.979-12.356
		c-0.012-0.001-0.025-0.001-0.041-0.002c-15.35-0.783-25.428,12.617-29.729,18.339l-0.453,0.601
		c-1.178,1.557-2.568,2.526-3.049,2.807c-0.162,0.063-0.318,0.15-0.465,0.261c-0.602,0.457-0.895,1.234-0.732,1.971
		C34.635,42.253,35.211,42.83,35.949,42.991z"/>
	<path d="M59.85,68.045c-5.59,3.472-14.201,8.584-20.686,11.357c-0.982,0.42-1.439,1.557-1.02,2.54
		c0.314,0.734,1.029,1.174,1.781,1.174c0.252,0,0.512-0.05,0.76-0.156c5.789-2.476,13.152-6.713,18.723-10.102
		C59.373,71.246,59.518,69.632,59.85,68.045z"/>
	<path d="M36.811,62.86c6.389-1.739,12.287-5.278,12.545-5.434c8.334-5.102,15.891-13.144,15.955-13.218
		c3.119-3.574,7.736-7.001,11.338-5.898c2.119,0.649,3.588,1.804,4.367,3.433c0.934,1.949,0.861,4.584-0.199,7.231
		c-0.314,0.785-0.744,1.598-1.266,2.429c0.289-0.012,0.576-0.042,0.867-0.042c1.162,0,2.303,0.116,3.428,0.298
		c0.205-0.414,0.396-0.83,0.564-1.248c1.461-3.648,1.496-7.417,0.096-10.34c-1.246-2.607-3.572-4.497-6.725-5.462
		c-4.627-1.416-10.236,1.154-15.375,7.041c-0.064,0.072-7.379,7.766-15.061,12.469c-0.057,0.034-5.68,3.408-11.553,5.007
		c-1.029,0.281-1.639,1.344-1.357,2.375S35.779,63.142,36.811,62.86z"/>
	<path d="M53.248,35.966c-0.877,0.968-1.666,2.006-2.516,2.998c-1.111,1.3-2.326,2.514-3.594,3.659
		c-1.305,1.178-2.359,2.021-3.9,2.904c-1.631,0.937-3.295,1.884-4.986,2.707c-0.58,0.284-1.08,0.468-1.734,0.665
		c-1.01,0.303-1.637,1.345-1.352,2.38c0.275,0.998,1.371,1.655,2.381,1.352c1.979-0.595,3.771-1.613,5.557-2.628
		c1.508-0.858,3.008-1.63,4.395-2.685c2.701-2.055,5.027-4.455,7.166-7.08c0.865-1.063,1.793-2.076,2.76-3.048
		c0.527-0.531,1.074-1.043,1.631-1.543c0.291-0.26,0.586-0.514,0.885-0.765c0.15-0.127,0.305-0.252,0.457-0.377
		c0.039-0.033,0.34-0.269,0.418-0.331c1.346-1.033,2.781-1.95,4.293-2.726c1.426-0.733,2.857-1.247,4.594-1.608
		c0.576-0.12,0.701-0.133,1.133-0.177c1.049-0.109,1.936-0.798,1.936-1.935c0-0.973-0.883-2.044-1.936-1.935
		C63.84,26.515,57.857,30.888,53.248,35.966z"/>
	<path d="M38.189,73.016c3.076-1.056,15.467-5.664,26.627-14.7c0.24-0.267,0.465-0.542,0.723-0.799
		c0.996-0.997,2.076-1.879,3.223-2.645c2.635-2.488,5.123-5.247,7.301-8.298c0.619-0.87,0.418-2.078-0.451-2.698
		c-0.871-0.621-2.08-0.419-2.699,0.451c-11.4,15.979-31.971,23.654-35.979,25.03c-0.086,0.029-0.139,0.048-0.158,0.056
		c-0.998,0.378-1.502,1.495-1.123,2.495c0.293,0.774,1.027,1.25,1.809,1.25c0.221,0,0.443-0.038,0.66-0.117L38.189,73.016z"/>
	<path d="M61.809,82.216c-0.619-1.173-1.111-2.394-1.492-3.642c-1.166,0.752-2.422,1.577-3.785,2.475
		c-4.832,3.185-10.307,6.794-12.689,7.435c-1.031,0.278-1.643,1.34-1.365,2.372c0.232,0.864,1.014,1.433,1.867,1.433
		c0.166,0,0.336-0.021,0.504-0.067c2.984-0.804,8.244-4.271,13.813-7.941C59.672,83.613,60.74,82.909,61.809,82.216z"/>
	<path d="M65.539,87.272c-0.076-0.076-0.139-0.159-0.213-0.235c-2.824,1.589-6.928,4.471-12.563,8.583
		c-1.031,0.753-1.924,1.404-2.541,1.842c-0.873,0.616-1.08,1.824-0.465,2.696c0.377,0.534,0.975,0.819,1.582,0.819
		c0.387,0,0.775-0.115,1.115-0.355c0.643-0.454,1.545-1.113,2.592-1.876c3.033-2.215,10.596-7.732,13.451-9.022
		C67.451,89.002,66.457,88.19,65.539,87.272z"/>
	<path d="M85.998,94.013c-0.541-0.196-1.205-0.517-1.938-0.91c-1.199,0.209-2.422,0.317-3.658,0.317
		c-1.357,0-2.693-0.134-3.996-0.383c0.355,0.218,0.695,0.428,1.01,0.622c2.74,1.693,5.33,3.292,7.266,3.992
		c1.004,0.364,2.115-0.157,2.479-1.162C87.523,95.485,87.002,94.376,85.998,94.013z"/>
	<path d="M79.463,103.633c-1.088-0.71-2.088-1.423-3.053-2.112c-3.174-2.266-5.918-4.224-8.924-3.702
		c-3.385,0.584-8.777,6.006-9.824,7.086c-0.742,0.768-0.723,1.993,0.045,2.736c0.375,0.364,0.861,0.545,1.346,0.545
		c0.506,0,1.012-0.197,1.391-0.589c2.592-2.677,6.273-5.718,7.701-5.965c1.414-0.242,3.549,1.277,6.018,3.039
		c0.951,0.679,2.029,1.449,3.186,2.203c0.895,0.584,2.094,0.332,2.678-0.563C80.609,105.416,80.357,104.217,79.463,103.633z"/>
	<path d="M107.021,98.07L91.689,82.736c-0.191-0.189-0.402-0.336-0.625-0.463c3.461-5.076,3.518-11.781,0.184-16.914
		c1.021,0.633,2.127,1.184,3.287,1.673c0.973,0.411,2.064,0.303,2.646-0.694c0.482-0.82,0.279-2.236-0.693-2.647
		c-1.613-0.681-3.299-1.397-4.656-2.527c-1.494-1.243-2.189-2.876-2.5-4.761c-0.406-2.458-4.135-1.412-3.732,1.029
		c0.213,1.29,0.617,2.426,1.172,3.437c-5.92-3.851-13.939-3.185-19.129,2.004c-5.957,5.956-5.957,15.649,0,21.605
		c5.27,5.27,13.455,5.869,19.4,1.816c0.127,0.222,0.273,0.434,0.463,0.623l15.334,15.333c1.154,1.155,3.027,1.154,4.182,0
		C108.176,101.097,108.178,99.225,107.021,98.07z M86.461,81.691c-4.422,4.42-11.611,4.419-16.029,0c-4.42-4.419-4.42-11.61,0-16.03
		c4.418-4.42,11.609-4.419,16.029,0S90.881,77.271,86.461,81.691z"/>
</g>
</svg>
