<?xml version="1.0" encoding="utf-8"?>
<!-- Generator: Adobe Illustrator 16.0.0, SVG Export Plug-In . SVG Version: 6.00 Build 0)  -->
<!DOCTYPE svg PUBLIC "-//W3C//DTD SVG 1.1//EN" "http://www.w3.org/Graphics/SVG/1.1/DTD/svg11.dtd">
<svg version="1.1" id="Layer_1" xmlns="http://www.w3.org/2000/svg" xmlns:xlink="http://www.w3.org/1999/xlink" x="0px" y="0px"
	 width="126px" height="126px" viewBox="0 0 126 126" enable-background="new 0 0 126 126" xml:space="preserve">
<g>
	<path d="M99.022,35.502c-0.649-0.301-1.338-0.463-1.981-0.463c-0.932,0-1.708,0.328-2.194,0.914
		c-2.87,3.494-5.498,10.291-7.614,15.752c-0.973,2.525-2.28,5.904-3.163,7.49c-0.482-4.646,1.603-21.408,2.405-27.863l0.014-0.104
		c0.558-4.484,0.646-5.271,0.617-5.621c-0.216-2.496-1.088-4.186-2.593-5.02c-1.521-0.846-3.588-0.664-5.882,0.514
		c-1.152,0.592-1.617,2.871-3.293,13.234l-0.007,0.047c-0.923,5.691-3.045,18.803-4.676,20.895
		c-1.452-3.191-2.523-20.816-2.986-28.445c-0.322-5.342-0.515-8.408-0.721-9.348c-0.437-1.963-2.731-3.768-5.111-4.025
		c-1.98-0.236-3.682,0.664-4.582,2.371c-1.57,1.525-1.432,6.957-0.717,19.848c0.34,6.135,1.042,18.807-0.05,20.148
		c-1.968-0.357-4.824-8.463-8.486-24.102c-1.027-4.379-1.349-5.699-1.717-6.291c-0.667-2.023-3.294-3.73-5.755-3.73
		c-0.211,0-0.416,0.014-0.619,0.039c-1.301,0.164-4.31,1.146-4.067,6.662c1.196,7.709,2.687,13.408,4.128,18.943l0.029,0.109
		c0.864,3.314,1.681,6.447,2.401,9.908c1.696,8.174,0.471,13.086,0.457,13.143c-0.111,0.506-0.29,0.809-0.535,0.9
		c-0.089,0.033-0.199,0.053-0.322,0.053c-0.719,0-1.758-0.553-2.29-0.9c-1.095-2.514-6.573-14.506-12.158-16.508l-0.202-0.076
		l-0.208,0.006c-2.104,0.053-3.694,0.738-4.731,2.039c-1.639,2.057-1.215,4.852-1.104,5.412l0.069,0.205
		c0.041,0.088,4.025,8.773,4.461,12.713c0.378,3.383,3.279,7.217,5.612,10.301l0.096,0.127c0.761,1.008,1.417,1.881,1.927,2.68
		c6.82,8.223,18.006,15.523,18.099,15.584c1.376,1.178,2.111,2.273,2.133,3.176c0.014,0.59-0.314,0.918-0.325,0.932l-0.271,0.248
		l0.023,0.025h-0.11v2h32.512v-0.674l1.666-5.621c5.236-16.736,5.408-31.307,5.4-31.406c0.054-0.531,1.55-5.617,2.755-9.723
		l0.032-0.105c2.398-8.184,5.386-18.365,6.095-22.268C101.783,37.953,100.818,36.332,99.022,35.502z M99.25,39.223
		c-0.689,3.797-3.8,14.396-6.07,22.137c-1.966,6.697-2.775,9.498-2.841,10.252c0,0.139-0.061,14.084-5.31,30.857l-1.469,4.955
		H55.776c0.113-0.34,0.194-0.732,0.191-1.189c-0.007-1.607-1.026-3.289-3.05-5.01c-0.112-0.072-11.209-7.383-17.612-15.09
		c-0.512-0.818-1.293-1.852-2.049-2.848c-2.05-2.711-4.86-6.43-5.165-9.184c-0.457-4.109-4.124-12.252-4.592-13.273
		c-0.058-0.412-0.25-2.23,0.688-3.4c0.567-0.709,1.506-1.104,2.791-1.174C31.983,58.342,37.7,71.615,37.757,71.75l0.122,0.283
		l0.245,0.188c0.343,0.25,2.14,1.502,3.882,1.502c0.399,0,0.775-0.063,1.11-0.191c0.695-0.26,1.599-0.906,1.944-2.494
		c0.058-0.215,1.372-5.395-0.442-14.133c-0.722-3.496-1.558-6.691-2.439-10.078l-0.015-0.049
		c-1.422-5.443-2.895-11.072-4.069-18.594c-0.109-2.52,0.642-4.008,2.105-4.195c1.67-0.236,3.78,1.137,4.013,2.219l0.293,0.836
		c0.31,1.01,0.895,3.521,1.286,5.199c3.319,14.148,6.428,25.861,10.821,25.861c0.357,0,0.882-0.104,1.355-0.607
		c1.806-1.904,1.521-9.563,0.831-21.955c-0.335-6.002-0.759-16.924-0.085-17.998l0.272-0.561c0.414-0.891,1.442-1.291,2.259-1.291
		c0.119,0,0.233,0.006,0.344,0.02c1.394,0.15,2.924,1.25,3.146,2.264c0.174,0.779,0.4,4.52,0.666,8.848l0.008,0.146
		c1.5,24.758,2.494,30.803,5.047,30.803c2.9,0,4.318-5.762,7.115-23.074l0.014-0.072c0.685-4.24,1.717-10.617,2.177-11.555
		c1.499-0.75,2.862-0.934,3.652-0.5c1.004,0.555,1.334,2.045,1.431,3.184c0.003,0.309-0.307,2.791-0.604,5.195
		c-2.712,21.793-3.102,29.27-1.604,30.77c0.398,0.393,0.958,0.564,1.46,0.449c1.53-0.322,2.54-2.621,5.255-9.654
		c2.053-5.305,4.602-11.902,7.247-15.119c0.022-0.023,0.148-0.088,0.424-0.088c0.324,0,0.695,0.088,1.047,0.25
		C98.729,37.865,99.387,38.463,99.25,39.223z"/>
	<g>
		<path d="M25.185,67.541c-0.031-0.182-0.043-0.361-0.053-0.543c-3.262-0.314-6.183-2.516-7.208-5.838
			c-1.362-4.414,1.122-9.111,5.535-10.473c4.413-1.361,9.11,1.121,10.472,5.535c0.597,1.938,0.435,3.924-0.292,5.662
			c0.623,0.287,1.181,0.74,1.596,1.311c1.109-2.277,1.41-4.953,0.605-7.563c-1.687-5.465-7.506-8.543-12.972-6.857
			c-5.467,1.688-8.543,7.508-6.857,12.975c1.335,4.324,5.258,7.139,9.545,7.295C25.405,68.549,25.272,68.049,25.185,67.541z"/>
	</g>
</g>
</svg>
