<?xml version="1.0" encoding="utf-8"?>
<!-- Generator: Adobe Illustrator 16.0.0, SVG Export Plug-In . SVG Version: 6.00 Build 0)  -->
<!DOCTYPE svg PUBLIC "-//W3C//DTD SVG 1.1//EN" "http://www.w3.org/Graphics/SVG/1.1/DTD/svg11.dtd">
<svg version="1.1" id="Layer_1" xmlns="http://www.w3.org/2000/svg" xmlns:xlink="http://www.w3.org/1999/xlink" x="0px" y="0px"
	 width="126px" height="126px" viewBox="0 0 126 126" enable-background="new 0 0 126 126" xml:space="preserve">
<g>
	<path d="M31.383,42.785c0.596,0.131,1.147,0.121,2.844-1.182c0.752-0.578,1.865-1.553,2.894-2.912l0.45-0.598
		c3.85-5.121,12.863-17.109,25.883-16.459c10.736,0.783,18.348,8.891,22.009,23.449c0.124,0.494,0.2,0.799,0.284,1.031
		c0.007,0.031,0.017,0.064,0.023,0.096c1.037,1.822,1.855,3.783,2.421,5.85c0.131,0.141,0.265,0.275,0.405,0.377
		c0.335,0.242,0.724,0.359,1.109,0.359c0.586,0,1.168-0.273,1.537-0.787c0.592-0.818,0.434-1.951-0.342-2.58
		c-0.374-0.484-1.078-2.51-1.496-4.322c-0.025-0.107-0.059-0.211-0.103-0.313c-0.034-0.125-0.103-0.395-0.164-0.637
		c-0.58-2.307-2.122-8.436-5.86-14.201c-4.828-7.443-11.412-11.516-19.572-12.104c-0.013-0.002-0.025-0.002-0.039-0.004
		c-15.039-0.768-24.911,12.361-29.125,17.967l-0.443,0.588c-1.154,1.525-2.518,2.475-2.988,2.75
		c-0.158,0.063-0.312,0.148-0.454,0.256c-0.59,0.447-0.878,1.209-0.72,1.932C30.096,42.063,30.662,42.627,31.383,42.785z"/>
	<path d="M76.551,36.82c-1.146-0.98-2.548-1.744-4.186-2.246c-0.598-0.182-1.213-0.293-1.841-0.342
		C72.66,34.838,74.682,35.713,76.551,36.82z"/>
	<path d="M32.228,62.25c2.07-0.564,4.083-1.32,5.865-2.086c-0.024-0.457-0.038-0.916-0.038-1.379c0-0.957,0.058-1.902,0.161-2.832
		c-1.989,0.934-4.464,1.953-6.985,2.641c-1.01,0.273-1.605,1.316-1.33,2.326C30.175,61.93,31.217,62.527,32.228,62.25z"/>
	<path d="M43.208,74.141c-3.011,1.65-6.024,3.184-8.674,4.316c-0.963,0.412-1.41,1.525-0.998,2.488
		c0.307,0.721,1.008,1.15,1.743,1.15c0.249,0,0.502-0.049,0.745-0.15c2.984-1.277,6.396-3.035,9.755-4.895
		C44.851,76.146,43.99,75.176,43.208,74.141z"/>
	<path d="M48.332,35.902c-0.86,0.949-1.632,1.967-2.464,2.938c-1.089,1.273-2.279,2.463-3.521,3.584
		c-1.279,1.154-2.313,1.98-3.82,2.846c-1.599,0.916-3.229,1.846-4.885,2.652c-0.57,0.277-1.061,0.459-1.701,0.65
		c-0.988,0.297-1.602,1.318-1.322,2.332c0.268,0.979,1.342,1.621,2.331,1.324c1.938-0.584,3.695-1.58,5.444-2.574
		c0.592-0.338,1.18-0.662,1.762-0.996c2.798-6.447,8.182-11.52,14.836-13.904c0.114-0.096,0.229-0.189,0.344-0.285
		c0.039-0.031,0.334-0.264,0.408-0.324c1.32-1.01,2.727-1.91,4.207-2.67c1.397-0.719,2.8-1.221,4.501-1.576
		c0.564-0.117,0.687-0.129,1.109-0.172c1.027-0.107,1.896-0.783,1.896-1.896c0-0.953-0.866-2.002-1.896-1.895
		C58.708,26.645,52.848,30.93,48.332,35.902z"/>
	<path d="M33.579,72.199c1.146-0.393,3.612-1.289,6.828-2.734c-0.528-1.141-0.975-2.328-1.331-3.553
		c-3.17,1.432-5.609,2.318-6.728,2.703c-0.085,0.029-0.137,0.047-0.154,0.053c-0.979,0.373-1.473,1.467-1.102,2.445
		c0.287,0.758,1.008,1.223,1.773,1.223c0.215,0,0.434-0.035,0.646-0.111L33.579,72.199z"/>
	<path d="M74.739,81.711c1.887,1.34,3.799,2.668,5.668,3.727l-4.387-4.395C75.599,81.279,75.17,81.5,74.739,81.711z"/>
	<path d="M54.533,82.645c-1.387-0.527-2.717-1.172-3.977-1.922c-4.47,2.943-9.268,6.047-11.438,6.631
		c-1.012,0.273-1.611,1.314-1.339,2.324c0.228,0.848,0.993,1.404,1.829,1.404c0.163,0,0.33-0.021,0.494-0.066
		c2.924-0.789,8.077-4.186,13.533-7.779C53.93,83.043,54.23,82.844,54.533,82.645z"/>
	<path d="M80.415,92.771c-1.527-0.553-4.012-2.088-6.414-3.572c-5.074-3.135-8.299-5.037-10.613-4.639
		c-2.344,0.406-7.267,3.752-15.529,9.785c-1.012,0.738-1.885,1.375-2.491,1.805c-0.854,0.604-1.058,1.787-0.455,2.641
		c0.37,0.523,0.956,0.803,1.55,0.803c0.379,0,0.76-0.113,1.093-0.348c0.63-0.445,1.515-1.092,2.539-1.838
		c3.288-2.402,12.024-8.779,13.92-9.107c1.182-0.08,5.447,2.551,7.995,4.123c2.685,1.658,5.221,3.227,7.118,3.912
		c0.983,0.357,2.071-0.154,2.427-1.139S81.4,93.127,80.415,92.771z"/>
	<path d="M74.012,102.195c-1.065-0.695-2.043-1.395-2.991-2.07c-3.108-2.221-5.796-4.139-8.741-3.625
		c-3.316,0.572-8.598,5.883-9.623,6.941c-0.729,0.752-0.709,1.953,0.043,2.682c0.368,0.354,0.844,0.533,1.318,0.533
		c0.495,0,0.99-0.193,1.361-0.578c2.539-2.621,6.146-5.602,7.546-5.844c1.384-0.238,3.476,1.252,5.895,2.977
		c0.933,0.666,1.989,1.42,3.12,2.158c0.877,0.572,2.053,0.326,2.624-0.551S74.888,102.768,74.012,102.195z"/>
	<path d="M91.372,65.658c0.473-0.803,0.273-2.189-0.68-2.592c-0.609-0.258-1.226-0.529-1.834-0.816
		c-0.176,1.277-0.452,2.533-0.818,3.764c0.244,0.111,0.49,0.219,0.74,0.324C89.731,66.742,90.8,66.637,91.372,65.658z"/>
	<path d="M87.014,72.957c-0.604-0.186-1.145-0.4-1.684-0.646l2.943,2.949C88.492,74.359,88.151,73.309,87.014,72.957z"/>
	<path d="M108.407,97.439L82.783,71.77c-0.039-0.041-0.087-0.066-0.128-0.104c2.782-3.865,4.44-8.588,4.44-13.701
		c0-12.971-10.551-23.521-23.521-23.521S40.054,44.994,40.054,57.965c0,12.969,10.551,23.52,23.521,23.52
		c4.714,0,9.1-1.406,12.784-3.803c0.078,0.092,0.144,0.193,0.23,0.281l25.622,25.67c1.71,1.711,4.483,1.709,6.195,0
		C110.115,101.922,110.115,99.148,108.407,97.439z M82.432,57.451c-0.17,0.266-0.41,0.42-0.729,0.42
		c-0.625,0-1.031-0.65-1.031-1.795c0-1.199,0.438-1.834,1.039-1.834c0.148,0,0.275,0.037,0.391,0.096
		C82.298,55.35,82.404,56.391,82.432,57.451z M73.849,43.613c0,1.123-0.335,1.834-1.037,1.834c-0.625,0-1.031-0.648-1.031-1.793
		c0-1.199,0.438-1.836,1.039-1.836C73.53,41.818,73.849,42.529,73.849,43.613z M48.183,48.26c0.711,0,1.031,0.711,1.031,1.795
		c0,1.125-0.337,1.836-1.039,1.836c-0.624,0-1.03-0.65-1.03-1.795C47.145,48.896,47.583,48.26,48.183,48.26z M44.923,60.775
		c0.179-0.244,0.409-0.375,0.675-0.375c0.712,0,1.031,0.711,1.031,1.793c0,1.061-0.303,1.746-0.927,1.82
		C45.349,62.973,45.091,61.889,44.923,60.775z M49.383,70.381c-0.498-0.568-0.973-1.158-1.4-1.783
		c0.02-1.145,0.446-1.756,1.034-1.756c0.71,0,1.03,0.711,1.03,1.795C50.047,69.535,49.829,70.162,49.383,70.381z M55.501,75.008
		c-0.684-0.324-1.346-0.686-1.981-1.088c0.145-0.719,0.507-1.098,0.969-1.098c0.711,0,1.031,0.711,1.031,1.795
		C55.52,74.756,55.512,74.883,55.501,75.008z M57.458,74.658c0-1.199,0.438-1.836,1.039-1.836c0.71,0,1.03,0.711,1.03,1.795
		c0,0.791-0.171,1.371-0.515,1.65C58.57,76.156,58.13,76.041,57.7,75.9C57.547,75.598,57.458,75.182,57.458,74.658z M69.481,74.658
		c0-1.199,0.438-1.836,1.038-1.836c0.712,0,1.031,0.711,1.031,1.795c0,0.166-0.02,0.309-0.035,0.455
		c-0.593,0.277-1.2,0.523-1.824,0.738C69.561,75.518,69.481,75.139,69.481,74.658z M72.227,74.73c0.001-0.049,0.01-0.09,0.01-0.141
		c0-1.402-0.608-2.229-1.678-2.229c-1.03,0-1.766,0.813-1.766,2.289c0.006,0.561,0.119,1.012,0.3,1.369
		c-0.678,0.209-1.374,0.369-2.082,0.5v-4.084h-0.585l-1.108,0.516l0.133,0.453l0.882-0.412h0.016v3.629
		c-0.907,0.133-1.829,0.227-2.773,0.227c-0.192,0-0.38-0.023-0.571-0.029v-4.383h-0.585l-1.109,0.516l0.134,0.453l0.882-0.412h0.016
		v3.793c-0.917-0.061-1.821-0.17-2.698-0.355c0.369-0.393,0.573-1.008,0.573-1.84c0-1.402-0.61-2.229-1.679-2.229
		c-1.031,0-1.765,0.813-1.765,2.289c0.004,0.359,0.048,0.678,0.127,0.955c-0.254-0.096-0.512-0.182-0.76-0.289
		c0.041-0.223,0.068-0.459,0.068-0.727c0-1.402-0.61-2.229-1.679-2.229c-0.735,0-1.314,0.422-1.588,1.193
		c-1.174-0.803-2.241-1.744-3.204-2.785c0.643-0.309,0.998-1.049,0.998-2.16c0-1.402-0.609-2.229-1.679-2.229
		c-0.774,0-1.381,0.459-1.635,1.313c-0.617-1.02-1.138-2.1-1.555-3.234c0.926-0.145,1.45-0.941,1.45-2.291
		c0-1.402-0.609-2.229-1.679-2.229c-0.301,0-0.571,0.076-0.811,0.211c-0.083-0.719-0.137-1.445-0.137-2.186
		c0-1.143,0.119-2.254,0.313-3.34l0.457-0.215h0.016v3.848h0.664v-4.402h-0.587L45.1,54.066c0.298-1.412,0.767-2.758,1.361-4.033
		c-0.001,0.02-0.004,0.035-0.004,0.057c0.016,1.455,0.688,2.262,1.68,2.262c1.123,0,1.764-0.826,1.764-2.324
		c0-1.402-0.608-2.229-1.679-2.229c-0.218,0-0.42,0.045-0.607,0.117c1.312-2.076,3.011-3.875,5.002-5.301v3.219h0.663v-3.68
		c2.965-1.938,6.497-3.074,10.295-3.074c3.269,0,6.345,0.836,9.028,2.305c-0.893,0.127-1.509,0.914-1.509,2.262
		c0.016,1.457,0.687,2.262,1.679,2.262c1.124,0,1.765-0.826,1.765-2.322c0-0.42-0.062-0.783-0.167-1.094
		c2.124,1.488,3.92,3.404,5.282,5.617l-0.603,0.279l0.133,0.453l0.712-0.332c0.061,0.104,0.128,0.201,0.187,0.305v3.461h0.663
		v-2.127c0.531,1.162,0.949,2.383,1.237,3.656c-0.076-0.01-0.15-0.023-0.232-0.023c-1.031,0-1.765,0.813-1.765,2.289
		c0.016,1.455,0.687,2.262,1.679,2.262c0.297,0,0.559-0.063,0.785-0.174c-0.011,1.021-0.114,2.02-0.281,2.998v-1.143h-0.585
		l-1.109,0.516l0.134,0.453l0.882-0.414h0.015v3.291c-0.308,0.932-0.688,1.83-1.132,2.691c-0.539,0.27-0.906,0.857-0.994,1.719
		c-0.54,0.826-1.149,1.6-1.809,2.328v-4.143h-0.585l-1.108,0.516l0.133,0.453l0.882-0.414h0.016v3.848h0.428
		C75.868,72.42,74.146,73.734,72.227,74.73z"/>
	<path d="M56.742,45.908c1.124,0,1.765-0.826,1.765-2.322c0-1.402-0.608-2.229-1.679-2.229c-1.03,0-1.765,0.814-1.765,2.289
		C55.079,45.104,55.75,45.908,56.742,45.908z M56.789,41.818c0.711,0,1.031,0.711,1.031,1.795c0,1.123-0.337,1.834-1.039,1.834
		c-0.624,0-1.03-0.648-1.03-1.793C55.75,42.455,56.188,41.818,56.789,41.818z"/>
	<polygon points="60.617,41.988 60.632,41.988 60.632,45.834 61.295,45.834 61.295,41.432 60.709,41.432 59.601,41.947 59.734,42.4 
			"/>
	<polygon points="64.625,41.988 64.64,41.988 64.64,45.834 65.304,45.834 65.304,41.432 64.717,41.432 63.609,41.947 63.742,42.4 	
		"/>
	<path d="M68.851,41.357c-1.031,0-1.765,0.814-1.765,2.289c0.016,1.457,0.687,2.262,1.679,2.262c1.124,0,1.765-0.826,1.765-2.322
		C70.53,42.184,69.919,41.357,68.851,41.357z M68.804,45.447c-0.625,0-1.031-0.648-1.031-1.793c0-1.199,0.438-1.836,1.038-1.836
		c0.711,0,1.03,0.711,1.03,1.795C69.841,44.736,69.506,45.447,68.804,45.447z"/>
	<polygon points="52.012,48.43 52.027,48.43 52.027,52.275 52.691,52.275 52.691,47.875 52.105,47.875 50.997,48.389 51.129,48.842 
			"/>
	<polygon points="56.035,48.43 56.035,52.275 56.699,52.275 56.699,47.875 56.113,47.875 55.003,48.389 55.136,48.842 56.02,48.43 	
		"/>
	<path d="M61.924,50.027c0-1.402-0.609-2.229-1.679-2.229c-1.03,0-1.765,0.814-1.765,2.291c0.016,1.455,0.688,2.262,1.679,2.262
		C61.285,52.352,61.924,51.525,61.924,50.027z M59.168,50.096c0-1.199,0.438-1.836,1.038-1.836c0.711,0,1.03,0.711,1.03,1.795
		c0,1.125-0.335,1.836-1.038,1.836C59.575,51.891,59.168,51.24,59.168,50.096z"/>
	<polygon points="64.035,48.43 64.049,48.43 64.049,52.275 64.713,52.275 64.713,47.875 64.128,47.875 63.019,48.389 63.152,48.842 
			"/>
	<path d="M68.175,52.352c1.124,0,1.765-0.826,1.765-2.324c0-1.402-0.609-2.229-1.679-2.229c-1.031,0-1.765,0.814-1.765,2.291
		C66.512,51.545,67.183,52.352,68.175,52.352z M68.222,48.26c0.71,0,1.03,0.711,1.03,1.795c0,1.125-0.336,1.836-1.038,1.836
		c-0.625,0-1.031-0.65-1.031-1.795C67.183,48.896,67.621,48.26,68.222,48.26z"/>
	<polygon points="72.065,48.43 72.065,52.275 72.728,52.275 72.728,47.875 72.143,47.875 71.035,48.389 71.167,48.842 72.049,48.43 
			"/>
	<path d="M76.191,52.352c1.124,0,1.764-0.826,1.764-2.324c0-1.402-0.608-2.229-1.679-2.229c-1.03,0-1.765,0.814-1.765,2.291
		C74.527,51.545,75.199,52.352,76.191,52.352z M76.237,48.26c0.711,0,1.03,0.711,1.03,1.795c0,1.125-0.336,1.836-1.038,1.836
		c-0.624,0-1.03-0.65-1.03-1.795C75.199,48.896,75.636,48.26,76.237,48.26z"/>
	<path d="M49.688,53.781c-1.031,0-1.765,0.813-1.765,2.289c0.016,1.455,0.687,2.262,1.679,2.262c1.124,0,1.765-0.826,1.765-2.322
		C51.367,54.607,50.756,53.781,49.688,53.781z M49.64,57.871c-0.625,0-1.03-0.65-1.03-1.795c0-1.199,0.438-1.834,1.038-1.834
		c0.711,0,1.031,0.711,1.031,1.793C50.679,57.16,50.343,57.871,49.64,57.871z"/>
	<path d="M53.696,53.781c-1.031,0-1.765,0.813-1.765,2.289c0.016,1.455,0.687,2.262,1.679,2.262c1.124,0,1.765-0.826,1.765-2.322
		C55.375,54.607,54.764,53.781,53.696,53.781z M53.649,57.871c-0.626,0-1.031-0.65-1.031-1.795c0-1.199,0.438-1.834,1.039-1.834
		c0.71,0,1.03,0.711,1.03,1.793C54.687,57.16,54.351,57.871,53.649,57.871z"/>
	<polygon points="56.468,54.369 56.602,54.824 57.484,54.41 57.5,54.41 57.5,58.258 58.163,58.258 58.163,53.855 57.578,53.855 	"/>
	<polygon points="62.17,58.258 62.17,53.855 61.585,53.855 60.477,54.369 60.61,54.824 61.492,54.41 61.507,54.41 61.507,58.258 	
		"/>
	<path d="M65.718,53.781c-1.03,0-1.766,0.813-1.766,2.289c0.016,1.455,0.688,2.262,1.68,2.262c1.124,0,1.764-0.826,1.764-2.322
		C67.396,54.607,66.788,53.781,65.718,53.781z M65.67,57.871c-0.624,0-1.03-0.65-1.03-1.795c0-1.199,0.438-1.834,1.038-1.834
		c0.712,0,1.031,0.711,1.031,1.793C66.709,57.16,66.374,57.871,65.67,57.871z"/>
	<polygon points="68.492,54.369 68.625,54.824 69.507,54.41 69.523,54.41 69.523,58.258 70.187,58.258 70.187,53.855 69.601,53.855 
			"/>
	<path d="M73.733,53.781c-1.03,0-1.765,0.813-1.765,2.289c0.017,1.455,0.688,2.262,1.68,2.262c1.124,0,1.764-0.826,1.764-2.322
		C75.412,54.607,74.802,53.781,73.733,53.781z M73.687,57.871c-0.625,0-1.031-0.65-1.031-1.795c0-1.199,0.438-1.834,1.038-1.834
		c0.711,0,1.031,0.711,1.031,1.793C74.725,57.16,74.389,57.871,73.687,57.871z"/>
	<polygon points="76.507,54.369 76.64,54.824 77.523,54.41 77.538,54.41 77.538,58.258 78.202,58.258 78.202,53.855 77.616,53.855 	
		"/>
	<polygon points="48.412,60.529 48.544,60.982 49.427,60.568 49.442,60.568 49.442,64.416 50.106,64.416 50.106,60.014 
		49.521,60.014 	"/>
	<polygon points="54.114,64.416 54.114,60.014 53.529,60.014 52.419,60.529 52.552,60.982 53.435,60.568 53.45,60.568 53.45,64.416 
			"/>
	<polygon points="56.426,60.529 56.56,60.982 57.442,60.568 57.458,60.568 57.458,64.416 58.121,64.416 58.121,60.014 
		57.536,60.014 	"/>
	<path d="M61.668,59.939c-1.03,0-1.765,0.813-1.765,2.289c0.016,1.455,0.688,2.262,1.679,2.262c1.124,0,1.765-0.826,1.765-2.322
		C63.347,60.766,62.739,59.939,61.668,59.939z M61.622,64.029c-0.624,0-1.03-0.65-1.03-1.795c0-1.197,0.438-1.834,1.038-1.834
		c0.711,0,1.031,0.711,1.031,1.793C62.661,63.318,62.324,64.029,61.622,64.029z"/>
	<polygon points="66.136,64.416 66.136,60.014 65.55,60.014 64.442,60.529 64.575,60.982 65.458,60.568 65.473,60.568 
		65.473,64.416 	"/>
	<polygon points="68.45,60.529 68.583,60.982 69.465,60.568 69.481,60.568 69.481,64.416 70.145,64.416 70.145,60.014 
		69.558,60.014 	"/>
	<path d="M73.692,59.939c-1.031,0-1.765,0.813-1.765,2.289c0.016,1.455,0.687,2.262,1.679,2.262c1.124,0,1.765-0.826,1.765-2.322
		C75.371,60.766,74.76,59.939,73.692,59.939z M73.645,64.029c-0.625,0-1.031-0.65-1.031-1.795c0-1.197,0.438-1.834,1.038-1.834
		c0.711,0,1.03,0.711,1.03,1.793C74.682,63.318,74.347,64.029,73.645,64.029z"/>
	<path d="M75.935,62.229c0.016,1.455,0.687,2.262,1.679,2.262c1.124,0,1.765-0.826,1.765-2.322c0-1.402-0.61-2.229-1.679-2.229
		C76.668,59.939,75.935,60.752,75.935,62.229z M78.69,62.193c0,1.125-0.335,1.836-1.037,1.836c-0.625,0-1.031-0.65-1.031-1.795
		c0-1.197,0.438-1.834,1.039-1.834C78.371,60.4,78.69,61.111,78.69,62.193z"/>
	<path d="M53.063,66.381c-1.029,0-1.765,0.813-1.765,2.289c0.016,1.455,0.688,2.262,1.68,2.262c1.123,0,1.764-0.826,1.764-2.322
		C54.742,67.207,54.133,66.381,53.063,66.381z M53.016,70.471c-0.624,0-1.03-0.648-1.03-1.795c0-1.197,0.438-1.834,1.038-1.834
		c0.711,0,1.031,0.711,1.031,1.795C54.055,69.76,53.718,70.471,53.016,70.471z"/>
	<polygon points="55.837,66.971 55.97,67.424 56.853,67.01 56.868,67.01 56.868,70.857 57.532,70.857 57.532,66.455 56.946,66.455 	
		"/>
	<polygon points="59.844,66.971 59.977,67.424 60.861,67.01 60.875,67.01 60.875,70.857 61.54,70.857 61.54,66.455 60.954,66.455 	
		"/>
	<path d="M65.086,66.381c-1.03,0-1.765,0.813-1.765,2.289c0.016,1.455,0.688,2.262,1.679,2.262c1.125,0,1.765-0.826,1.765-2.322
		C66.765,67.207,66.156,66.381,65.086,66.381z M65.04,70.471c-0.624,0-1.03-0.648-1.03-1.795c0-1.197,0.438-1.834,1.038-1.834
		c0.711,0,1.03,0.711,1.03,1.795C66.078,69.76,65.743,70.471,65.04,70.471z"/>
	<polygon points="67.86,66.971 67.993,67.424 68.875,67.01 68.89,67.01 68.89,70.857 69.554,70.857 69.554,66.455 68.969,66.455 	
		"/>
	<path d="M73.102,66.381c-1.031,0-1.765,0.813-1.765,2.289c0.016,1.455,0.687,2.262,1.679,2.262c1.124,0,1.765-0.826,1.765-2.322
		C74.781,67.207,74.171,66.381,73.102,66.381z M73.055,70.471c-0.625,0-1.031-0.648-1.031-1.795c0-1.197,0.438-1.834,1.039-1.834
		c0.71,0,1.03,0.711,1.03,1.795C74.093,69.76,73.757,70.471,73.055,70.471z"/>
</g>
</svg>
