<?xml version="1.0" encoding="iso-8859-1"?>
<!-- Generator: Adobe Illustrator 17.1.0, SVG Export Plug-In . SVG Version: 6.00 Build 0)  -->
<!DOCTYPE svg PUBLIC "-//W3C//DTD SVG 1.1//EN" "http://www.w3.org/Graphics/SVG/1.1/DTD/svg11.dtd">
<svg version="1.1" id="Capa_1" xmlns="http://www.w3.org/2000/svg" xmlns:xlink="http://www.w3.org/1999/xlink" x="0px" y="0px"
	 viewBox="0 0 214.5 214.5" style="enable-background:new 0 0 214.5 214.5;" xml:space="preserve">
<path d="M107.75,202.125c-0.254,0-0.508-0.049-0.748-0.146c-0.511-0.206-51.387-21.069-78.17-61.561
	c-2.219-3.354-4.313-6.786-6.271-10.277c-1.806,0.118-5.297,0.246-9.641-0.106c-6.729-0.545-11.993-4.947-12.214-5.135
	c-0.422-0.356-0.676-0.871-0.704-1.42l0,0c0-0.004-0.001-0.008-0.001-0.012c0-0.001,0-0.002,0-0.002c0-0.004,0-0.005,0-0.007
	s0-0.003,0-0.005s-0.001-0.003-0.001-0.005s0-0.004,0-0.006c0,0,0-0.004,0-0.006c0-0.001,0-0.002,0-0.002c0-0.002,0-0.004,0-0.006
	c0,0,0-0.001,0-0.002c0-0.004,0-0.006,0-0.006c0-0.002-0.001-0.004-0.001-0.006v-0.001c0-0.002,0-0.004,0-0.006s0-0.003,0-0.007
	v-0.001c0-0.002,0-0.004,0-0.006c0-0.001,0-0.001,0-0.002c0-0.002,0-0.003,0-0.005v-0.001c0-0.002,0-0.004,0-0.006
	c0-0.001,0-0.001,0-0.002c0-0.002,0-0.004,0-0.006v-21c0-0.002,0-0.003,0-0.005l0,0c0-0.004,0-0.004,0-0.006
	c0-0.001,0-0.002,0-0.003v-0.001c0-0.002,0-0.004,0-0.004c0-0.001,0-0.003,0-0.004v-0.001c0-0.002,0-0.003,0-0.005
	c0-0.001,0-0.002,0-0.003c0,0,0-0.002,0-0.004c0-0.001,0-0.002,0-0.002c0-0.002,0-0.003,0-0.005c0-0.001,0.002-0.002,0.001-0.005
	c0-0.002,0-0.003,0-0.005c0,0,0-0.001,0-0.002c0,0,0-0.002,0-0.004c0-0.001,0-0.002,0-0.003c0,0,0-0.003,0-0.005v-0.001
	c0-0.002,0-0.003,0-0.005c0-0.001,0-0.002,0-0.003V102.3c0-0.002,0.001-0.003,0.001-0.005c0-0.001,0-0.002,0-0.003v-0.001
	c0-0.001,0-0.002,0-0.004c0,0,0-0.002,0-0.004c0-0.001,0-0.001,0-0.001c0-0.001,0-0.002,0-0.004c0,0,0.001-0.002,0.001-0.004
	c0-0.001,0-0.001,0-0.001c0-0.001,0-0.002,0-0.004c0,0,0-0.002,0-0.004v-0.001c0-0.001,0-0.002,0-0.004c0,0,0.001-0.002,0.001-0.004
	v-0.001c0-0.001,0-0.002,0-0.004c0,0,0-0.002,0-0.004v-0.001c0-0.001,0-0.002,0-0.004c0,0.001,0.002-0.002,0.001-0.004
	c0-0.001,0-0.001,0-0.001c0-0.001,0-0.002,0-0.004l0,0c0-0.002,0-0.003,0-0.004v-0.001c0-0.001,0.001-0.003,0.001-0.004l0,0
	c0-0.004,0-0.005,0-0.005c0-0.001,0-0.002,0-0.004l0,0c0.001-0.002,0.001-0.003,0.001-0.004v-0.001c0-0.001,0-0.002,0-0.004l0,0
	c0-0.003,0.001-0.006,0.001-0.005c0-0.001,0-0.002,0-0.004l0,0c0.061-0.692,0.479-1.31,1.111-1.62H1.12
	c0.266-0.132,2.878-1.404,7.642-3.248c-5.71-19.83-5.041-33.24-5.009-33.817c0.044-0.78,0.537-1.463,1.264-1.749l15.233-6.001
	v-6.139c0-0.758,0.428-1.45,1.105-1.789l12.395-6.197v-7.514c0-0.796,0.472-1.516,1.201-1.833c0.098-0.043,10.026-4.35,25.693-9.323
	c15.694-4.982,45.492-10.337,46.753-10.563c0.234-0.041,0.471-0.041,0.705,0c1.261,0.226,31.059,5.58,46.753,10.563
	c15.667,4.974,25.596,9.28,25.693,9.323c0.729,0.317,1.201,1.037,1.201,1.833v7.514l12.395,6.197
	c0.678,0.339,1.105,1.031,1.105,1.789v6.139l15.233,6.001c0.727,0.286,1.22,0.969,1.264,1.749c0.03,0.543,0.663,13.145-4.491,31.977
	c3.905,1.369,5.969,2.269,6.057,2.308c0.426,0.189,0.763,0.517,0.968,0.915c0,0,0,0.003,0.002,0.004l0,0
	c0.001,0.002,0.001,0.003,0.002,0.004v0.001c0.001,0.001,0.001,0.002,0.002,0.003v0.001c0.001,0.002,0.001,0.002,0.003,0.005
	c0,0-0.001,0.002,0.002,0.004c0,0.001,0,0.002,0.002,0.004c0,0.001-0.001,0.003,0.002,0.004c0,0.002,0.002,0.004,0.002,0.004
	c0,0.001,0.001,0.002,0.001,0.003l0.001,0.001c0,0.001,0.001,0.002,0.001,0.003c0,0,0.001,0.001,0.001,0.002
	c0,0,0.001,0.001,0.001,0.002c0,0,0.002,0.002,0.002,0.004s0,0.002,0.002,0.004c0,0.002,0,0.002,0.002,0.004
	c0,0.001,0.001,0.002,0.001,0.003c0,0,0.002,0,0.002,0.004v0.001c0.002,0.002,0.002,0.004,0.002,0.004s0.001,0.002,0.002,0.003
	v0.001c0.001,0.002,0.002,0.004,0.002,0.004c0.001,0.001,0.001,0.003,0.002,0.004l0,0c0.001,0.002,0.001,0.003,0.002,0.004
	c0,0,0.001,0.002,0.002,0.004c-0.001,0,0,0.002,0.002,0.005l0,0c0,0.001,0.001,0.002,0.001,0.004c0.001,0,0.001,0,0.001,0
	c0,0.001,0.001,0.003,0.001,0.004l0,0c0.001,0.001,0.002,0.003,0.002,0.004l0,0c0.001,0.002,0.001,0.003,0.002,0.004l0,0
	c0.086,0.196,0.142,0.407,0.161,0.626l0,0c0,0.004,0.001,0.009,0.001,0.013c0,0.001,0,0.001,0,0.001c0,0.001,0,0.003,0,0.004l0,0
	c0.001,0.002,0.001,0.003,0.001,0.005l0,0c0,0.004,0,0.005,0,0.005c0,0.001,0,0.003,0,0.004c0-0.001,0.001,0.001,0.001,0.005l0,0
	c0,0.004,0,0.005,0,0.005c0,0.001,0,0.003,0,0.004v0.001c0.001,0.001,0.001,0.002,0.001,0.004c0,0,0,0.002,0,0.004
	c0,0.001,0,0.001,0,0.001c0,0.001,0,0.003,0,0.004v0.001c0,0.001,0.001,0.003,0.001,0.004l0,0c0,0.002,0,0.003,0,0.005l0,0
	c0,0.004,0,0.005,0,0.005c0,0.001,0,0.003,0,0.004c0,0,0.001,0.001,0.001,0.005l0,0c0,0.004,0,0.004,0,0.006
	c0,0.001,0,0.002,0,0.003v0.001c0,0.001,0,0.003,0,0.004v0.001c0,0.002,0,0.003,0,0.005c0.002,0.002,0.001,0.003,0.001,0.005
	c0,0.001,0,0.002,0,0.003c0,0,0,0.003,0,0.005c0,0,0,0.002,0,0.004c0,0.001,0,0.002,0,0.002c0,0.002,0,0.003,0,0.005
	c0,0.001,0,0.002,0,0.003v0.004c0,0.002,0,0.003,0.001,0.005c0,0.002,0,0.003,0,0.005s0,0.003,0,0.005c0,0.001,0,0.002,0,0.003
	v0.001c0,0.002,0,0.005,0,0.005c0,0.001,0,0.002,0,0.003c0,0,0,0.003,0,0.005c0,0,0,0.003,0,0.005v0.001c0,0.001,0,0.002,0,0.002
	c0,0.003,0,0.005,0,0.008v21.5c0,0.002,0,0.004,0,0.006v0.001c0,0.002,0,0.003,0,0.005v0.001c0,0.002,0,0.004,0,0.006
	c0,0,0,0.002,0,0.006c0,0,0,0,0,0.001c-0.002,0.137-0.018,0.272-0.047,0.403c-0.249,1.158-1.712,3.954-9.763,5.772
	c-5.477,1.236-9.182,1.472-11.017,1.493c-2.165,3.944-4.505,7.819-7.006,11.6c-26.783,40.491-77.659,61.354-78.17,61.561
	C108.258,202.076,108.004,202.125,107.75,202.125z M20.272,116.827c3.367,7.349,7.363,14.533,11.896,21.385
	c24.348,36.81,69.242,57.024,75.582,59.743c6.342-2.722,51.253-22.963,75.582-59.743c4.747-7.176,8.897-14.697,12.354-22.388
	c-2.058-0.712-4.336-1.444-6.837-2.179c-3.331,7.851-7.454,15.51-12.271,22.793c-23.503,35.531-66.751,53.273-68.58,54.011
	c-0.48,0.193-1.016,0.193-1.496,0c-1.829-0.737-45.077-18.479-68.58-54.011c-4.581-6.927-8.538-14.198-11.778-21.642
	C24.032,115.479,22.075,116.16,20.272,116.827z M29.988,113.605c3.114,7.09,6.899,14.019,11.27,20.626
	c21.169,32.004,60.111,49.661,65.992,52.192c5.878-2.533,44.841-20.215,65.992-52.192c4.586-6.934,8.523-14.216,11.724-21.677
	c-4.727-1.27-10.142-2.52-16.295-3.659c1.012,2.736,1.541,5.733,1.579,8.956c0.181,15.121-10.757,26.749-22.957,38.309
	c-12.565,11.903-29.241,21.591-30.27,22.184c-0.375,0.224-0.797,0.31-1.213,0.272c-0.001,0-0.002,0-0.004-0.001c0,0,0,0-0.001,0
	c-0.063-0.006-0.124-0.015-0.187-0.026l0,0c-0.002-0.001-0.003-0.002-0.01-0.002l-0.001-0.001c-0.432-0.086-0.837-0.313-1.139-0.674
	c-0.001,0-0.001-0.001-0.001-0.001c-0.001-0.001-0.002-0.002-0.003-0.003c-0.018-0.021-0.034-0.042-0.051-0.063l-5.746-7.411
	c-0.271-0.351-0.419-0.782-0.419-1.226v-65.333c-0.122,0.001-0.252,0.015-0.374,0c-0.014-0.001-0.023-0.001-0.038,0
	c-0.01,0-0.023,0-0.031,0c-0.039,0-0.077,0-0.114,0c-0.01,0-0.019,0-0.025,0c-0.014-0.001-0.031-0.001-0.043,0
	c-0.004,0-0.013,0-0.018,0c-0.341,0-0.683,0.001-1.023,0.002v66.831c0,0.442-0.146,0.872-0.417,1.223l-5.666,7.334
	c-0.677,0.876-1.933,1.035-2.806,0.36c-0.026-0.021-0.052-0.041-0.076-0.063c-0.729-0.591-7.983-6.588-14.695-16.571
	c-3.645-5.424-7.062-12.637-9.51-18.332l-1.997,2.003c-0.241,0.242-0.541,0.419-0.87,0.512l-8.083,2.292
	c-0.798,0.226-1.618-0.063-2.105-0.671c-0.93-1.082-12.058-14.18-20.226-30.353c-1.016-2.01-2.019-4.292-2.988-6.802
	C34.606,112.284,32.221,112.943,29.988,113.605z M71.583,132.708c0.098,0,0.197,0.007,0.296,0.022
	c0.726,0.108,1.334,0.605,1.584,1.295c0.062,0.168,6.165,16.892,12.78,26.734c3.84,5.713,7.928,10.102,10.674,12.772v-69.505
	c-3.033,0.087-6.038,0.21-9,0.368v31.813c0,0.94-0.654,1.753-1.573,1.954c-0.917,0.2-1.853-0.266-2.244-1.12
	c-0.298-0.647-7.083-15.528-10.909-31.528c-1.537,0.151-3.062,0.314-4.572,0.487c-1.19,0.138-2.36,0.28-3.515,0.428
	c1.643,6.764,3.178,11.054,3.195,11.101c0.212,0.59,0.136,1.246-0.207,1.771l-5,7.667c-0.34,0.521-0.904,0.855-1.525,0.901
	c-0.619,0.052-1.229-0.199-1.644-0.665c-0.248-0.278-5.876-6.681-10.531-18.278c-2.929,0.563-5.699,1.152-8.326,1.763
	c0.861,2.192,1.745,4.188,2.637,5.95c6.33,12.534,14.694,23.413,18.141,27.676l8.143-10.81
	C70.366,132.999,70.961,132.708,71.583,132.708z M118,103.997v69.089c5.46-3.374,17.312-11.086,26.542-19.83
	c11.972-11.343,21.869-21.833,21.708-35.357c-0.044-3.672-0.821-6.974-2.313-9.832c-3.29-0.545-6.767-1.054-10.442-1.518
	c1.033,0.717,1.943,1.597,2.685,2.616c1.945,2.677,3.692,7.625,0.973,15.995c-4.484,13.799-27.108,30.15-28.069,30.84
	c-0.611,0.437-1.414,0.494-2.079,0.154c-0.667-0.343-1.087-1.029-1.087-1.779v-35.282c0-0.529,0.21-1.036,0.583-1.411
	c1.808-1.815,9.722-9.547,16.018-12.315C134.667,104.66,126.471,104.201,118,103.997z M100.917,103.935v68.246l1.666-2.156v-66.116
	C102.028,103.917,101.47,103.926,100.917,103.935z M112.25,168.523l1.75,2.258V103.92c-0.581-0.008-1.167-0.016-1.75-0.021V168.523z
	 M129.917,146.88v3.466c6.349-4.979,20.29-16.757,23.431-26.422c1.741-5.357,1.602-9.647-0.404-12.408
	c-1.048-1.441-2.639-2.458-4.461-2.897c0.142,0.244,0.269,0.498,0.375,0.764c0.054,0.136,0.119,0.285,0.191,0.45
	c1.024,2.347,3.154,7.229-1.221,17.104C143.874,135.862,133.035,144.516,129.917,146.88z M71.003,138.802l-3.912,5.194l1.861-0.528
	l2.795-2.803C71.475,139.993,71.227,139.368,71.003,138.802z M129.917,119.926v21.843c4.201-3.462,11.411-10.036,14.255-16.454
	c3.662-8.266,2.067-11.92,1.211-13.882c-0.091-0.207-0.172-0.395-0.24-0.564c-0.237-0.595-0.905-1.212-1.488-1.646
	C139.717,111.155,133.89,116.025,129.917,119.926z M5.652,123.456c1.834,1.079,4.568,2.348,7.593,2.593
	c2.886,0.233,5.392,0.239,7.195,0.187c-1.38-2.627-2.683-5.284-3.904-7.961C11.373,120.368,7.796,122.227,5.652,123.456z
	 M77.216,105.14c1.902,7.785,4.542,15.364,6.701,20.988v-21.495C81.66,104.781,79.426,104.95,77.216,105.14z M199.457,117.191
	c-1.129,2.524-2.33,5.03-3.602,7.513c1.863-0.154,4.526-0.506,7.954-1.28c2.761-0.623,4.432-1.317,5.428-1.878
	C207.336,120.53,204.128,118.971,199.457,117.191z M53.412,108.189c2.823,6.818,5.986,11.68,7.857,14.25l2.938-4.505
	c-0.569-1.701-1.798-5.581-3.089-10.966C58.451,107.35,55.878,107.76,53.412,108.189z M4,103.656v16.096
	c7.675-4.418,29.59-14.768,71.424-18.502c10.063-0.901,20.682-1.361,31.817-1.375c0.03,0.001,0.047,0,0.075,0
	c0.025,0,0.059,0,0.086,0c0.03,0,0.058,0,0.088,0c0.019,0,0.037,0,0.056,0h0.008c0.021,0,0.031,0,0.053,0
	c0.014-0.001,0.027,0,0.045,0c0.005,0,0.011,0,0.017,0h0.002c0.025,0,0.054,0,0.08,0c0.028,0,0.058,0,0.081,0
	c0.017-0.001,0.032-0.001,0.046,0c0.02,0,0.029,0,0.049,0c0.011,0,0.021,0,0.032,0c0.03,0,0.056,0,0.083,0c0.03,0,0.064,0,0.095,0
	c0.035,0.001,0.074,0,0.107,0c0.01,0,0.007,0,0.017,0c11.723,0.013,22.847,0.469,33.333,1.362
	c40.529,3.444,61.504,12.501,68.907,16.415v-16.679c-6.555-2.566-39.436-14.437-90.458-16.144c-1.359-0.045-2.722-0.083-4.086-0.113
	c-0.023,0-0.048-0.001-0.071-0.002c-2.6-0.058-5.252-0.088-7.94-0.09c-0.015-0.002-0.029,0-0.045,0c-0.01,0-0.025,0-0.033,0
	c-0.011,0-0.03,0.002-0.042,0c-0.023,0.003-0.049,0-0.074,0c-0.023,0-0.045-0.001-0.069,0c-0.012,0-0.033,0-0.049,0
	c-0.009,0-0.024-0.001-0.032,0c-0.013,0-0.024,0-0.035,0c-0.003,0-0.007,0-0.01,0C49.386,84.661,10.916,100.567,4,103.656z
	 M7.722,64.998c-0.016,3.715,0.349,15.324,4.799,30.928c1.929-0.695,4.092-1.44,6.482-2.213C15.407,79,15.892,69.348,15.915,68.928
	c0.044-0.78,0.537-1.463,1.264-1.75l13.186-5.192v-5.208c0-0.758,0.428-1.45,1.105-1.789l10.719-5.359v-6.427
	c0-0.796,0.472-1.516,1.201-1.833c0.086-0.038,8.793-3.814,22.527-8.176c13.762-4.368,39.876-9.062,40.98-9.259
	c0.234-0.041,0.471-0.041,0.705,0c1.104,0.197,27.219,4.891,40.98,9.259c13.734,4.361,22.441,8.138,22.527,8.176
	c0.729,0.317,1.201,1.037,1.201,1.833v6.427l10.719,5.359c0.678,0.339,1.105,1.031,1.105,1.789v5.208l13.186,5.192
	c0.726,0.286,1.22,0.97,1.264,1.749c0.021,0.388,0.476,9.278-2.662,22.999c2.852,0.808,5.367,1.58,7.536,2.284
	c4.011-14.77,4.34-25.643,4.321-29.212l-15.264-6.014c-0.764-0.301-1.267-1.039-1.267-1.86v-6.264l-12.395-6.197
	c-0.678-0.339-1.105-1.031-1.105-1.789v-7.423c-3.056-1.267-11.764-4.753-24.105-8.671c-14.546-4.618-42.437-9.746-45.895-10.374
	c-3.458,0.628-31.351,5.757-45.895,10.374c-12.354,3.922-21.053,7.405-24.105,8.671v7.423c0,0.758-0.428,1.45-1.105,1.789
	L24.25,50.861v6.264c0,0.821-0.503,1.56-1.267,1.86L7.722,64.998z M19.887,70.412c-0.002,2.994,0.282,11.102,2.942,22.104
	c2.477-0.751,5.151-1.517,8.022-2.28c-2.153-9.452-3.237-16.998-3.249-17.079c-0.137-0.962,0.438-1.884,1.364-2.184l11.834-3.834
	c0.555-0.18,1.159-0.109,1.656,0.194c0.032,0.02,0.063,0.04,0.094,0.061l8.954,5.803c0.486,0.315,0.813,0.827,0.893,1.401
	c0.01,0.067,0.839,5.953,1.938,10.517c0.991-0.172,1.997-0.341,3.014-0.506c-1.515-13.093-2.582-27.935-2.594-28.091
	c-0.066-0.933,0.522-1.787,1.418-2.058l12.158-3.664c0.019-0.006,0.038-0.012,0.058-0.017c0,0,0.002,0,0.006-0.002
	c0.002,0,0.004-0.001,0.006-0.002l0,0c0.067-0.018,0.135-0.032,0.203-0.043c0,0,0.002,0.001,0.006-0.001
	c0.466-0.072,0.955,0.019,1.384,0.291l7.833,5c0.575,0.367,0.924,1.003,0.924,1.686c0,0.158,0.016,14.94,1.035,24.117
	c1.361-0.118,2.74-0.229,4.132-0.332V40.708c0-0.969,0.693-1.798,1.646-1.969l12.959-2.325c0.199-0.041,0.401-0.049,0.606-0.028
	v0.001c0.008,0,0.023,0.003,0.021,0.002c0.002,0,0.003,0,0.005,0.001h0.001c0.493,0.06,0.964,0.301,1.303,0.712
	c0.016,0.019,0.031,0.038,0.046,0.058l5.661,7.326c0.271,0.35,0.417,0.78,0.417,1.223v34.919c0.317-0.001,0.641-0.002,0.959-0.002
	h0.002c0.012,0,0.021,0,0.034,0h0.005c0.012,0,0.024,0.002,0.034,0c0.008,0.001,0.015,0.001,0.025,0c0.018,0,0.025,0.001,0.044,0
	c0.027,0,0.045,0,0.063,0c0.021,0,0.046-0.001,0.063,0c0.013-0.001,0.029,0,0.043,0c0.011,0,0.013,0,0.023,0c0.01,0,0.022,0,0.035,0
	c0.013-0.001,0.022,0,0.04,0c0.021,0,0.043,0,0.065,0c0.025-0.001,0.05,0,0.076,0c0.022,0,0.043,0,0.064,0c0.025,0,0.05,0,0.077,0
	c0.003,0,0.009,0,0.012,0v-34.25c0-0.419,0.132-0.827,0.376-1.167l5.747-7.996c0.007-0.01,0.014-0.02,0.021-0.029
	c0,0,0.002-0.004,0.004-0.005c0-0.001,0.003-0.004,0.003-0.005c0.31-0.412,0.749-0.671,1.221-0.762h0.001
	c0.002-0.003,0.006-0.003,0.008-0.002c0.001,0,0.002,0,0.002,0c0.003-0.001,0.005-0.001,0.007-0.002l0,0
	c0.038-0.007,0.076-0.013,0.115-0.018c0,0,0.002,0,0.006,0c0.002,0,0.002-0.001,0.005-0.001c0.196-0.022,0.398-0.017,0.597,0.019
	c1.21,0.197,18.145,3.026,29.762,8.669c12.649,6.143,19.326,13.891,23.047,26.742c1.208,4.175,0.935,8.835-0.809,13.882
	c9.259,1.619,17.188,3.439,23.699,5.167c2.304-10.16,2.556-17.613,2.553-20.455l-13.212-5.203c-0.764-0.302-1.267-1.04-1.267-1.861
	v-5.333l-10.719-5.359c-0.678-0.339-1.105-1.031-1.105-1.789v-6.335c-2.8-1.156-10.337-4.158-20.939-7.524
	c-12.667-4.021-36.911-8.486-40.122-9.07c-3.211,0.584-27.458,5.05-40.122,9.07c-10.603,3.366-18.14,6.368-20.939,7.524v6.335
	c0,0.758-0.428,1.45-1.105,1.789l-10.719,5.359v5.333c0,0.821-0.503,1.56-1.267,1.861L19.887,70.412z M31.818,74.253
	c0.43,2.683,1.398,8.345,2.908,14.984c2.655-0.662,5.456-1.315,8.399-1.949c-1.634-6.971-2.732-12.649-3.278-15.637L31.818,74.253z
	 M44.215,73.238c0.609,3.174,1.555,7.81,2.829,13.236c1.1-0.22,2.212-0.436,3.348-0.649c-0.868-3.662-1.547-7.927-1.822-9.765
	L44.215,73.238z M155.232,83.684c3.159,0.419,6.202,0.869,9.123,1.341c1.667-4.502,1.995-8.564,0.974-12.095
	c-3.369-11.638-9.439-18.665-20.953-24.257c-8.801-4.274-21.268-6.936-26.376-7.907v39.995c2.691,0.073,5.327,0.173,7.917,0.297
	v-19.64c-0.001-0.028-0.001-0.056,0-0.084v-6.794c0-0.619,0.286-1.203,0.776-1.582c0.489-0.378,1.126-0.509,1.726-0.354
	c0.964,0.25,23.653,6.269,27.256,19.061C156.96,76.226,156.828,80.119,155.232,83.684z M58.863,57.827
	c0.316,4.153,1.235,15.707,2.44,26.166c2.672-0.397,5.432-0.77,8.262-1.11c-1.303-11.342-2.143-22.643-2.479-27.534L58.863,57.827z
	 M148.683,82.881c0.785,0.089,1.568,0.18,2.341,0.272c1.274-2.201,2.224-5.355,0.802-10.403
	c-2.362-8.386-16.166-13.663-21.908-15.521v2.594c3.802,1.044,12.975,4.038,16.058,9.29
	C149.505,75.127,149.735,78.851,148.683,82.881z M132.848,81.459c4.072,0.273,8.012,0.608,11.804,0.991
	c1.019-3.475,0.926-6.114-2.126-11.313c-1.957-3.334-8.435-5.889-12.608-7.15v17.281C130.886,81.327,131.863,81.39,132.848,81.459z
	 M71.179,56.524c0.385,5.41,1.183,15.644,2.36,25.906c0.749-0.08,1.505-0.158,2.263-0.234c-0.886-8.02-1.025-19.747-1.048-23.39
	L71.179,56.524z M87.917,42.381v38.844c2.938-0.179,5.935-0.321,9-0.422V40.765L87.917,42.381z M100.917,44.234v36.461
	c0.554-0.012,1.108-0.021,1.666-0.03V46.39L100.917,44.234z M112.25,80.651c0.586,0.007,1.168,0.015,1.75,0.024V44.584l-1.75,2.436
	V80.651z"/>
<g>
</g>
<g>
</g>
<g>
</g>
<g>
</g>
<g>
</g>
<g>
</g>
<g>
</g>
<g>
</g>
<g>
</g>
<g>
</g>
<g>
</g>
<g>
</g>
<g>
</g>
<g>
</g>
<g>
</g>
</svg>
