<?xml version="1.0" encoding="iso-8859-1"?>
<!-- Generator: Adobe Illustrator 17.1.0, SVG Export Plug-In . SVG Version: 6.00 Build 0)  -->
<!DOCTYPE svg PUBLIC "-//W3C//DTD SVG 1.1//EN" "http://www.w3.org/Graphics/SVG/1.1/DTD/svg11.dtd">
<svg version="1.1" id="Capa_1" xmlns="http://www.w3.org/2000/svg" xmlns:xlink="http://www.w3.org/1999/xlink" x="0px" y="0px"
	 viewBox="0 0 204.603 204.603" style="enable-background:new 0 0 204.603 204.603;" xml:space="preserve">
<path d="M102.301,204.603c-0.362,0-8.936-0.02-14.416-1.751c-6.999-2.21-14.776-7.698-20.803-14.681
	c-6.985-8.093-15.651-25.108-16.017-25.828c-0.015-0.031-0.03-0.062-0.044-0.093c-0.001-0.002-3.313-7.455-7.178-16.013
	c-2.863-6.341-24.339-76.053-7.451-112.45C52.613-1.173,99.35-0.088,102.301,0.028c2.945-0.111,49.688-1.2,65.91,33.76l0,0
	c16.888,36.397-4.587,106.109-7.451,112.45c-3.866,8.559-7.178,16.013-7.178,16.013c-0.014,0.031-0.029,0.062-0.044,0.093
	c-0.366,0.72-9.032,17.735-16.017,25.828c-6.027,6.982-13.805,12.471-20.804,14.681
	C111.237,204.584,102.664,204.603,102.301,204.603z M54.655,160.577c0.498,0.976,8.955,17.45,15.456,24.981
	c8.243,9.55,16.611,12.731,18.979,13.479c4.889,1.545,13.129,1.565,13.212,1.565c0.082,0,8.322-0.021,13.211-1.565
	c2.369-0.748,10.736-3.93,18.98-13.479c6.5-7.53,14.956-24.002,15.456-24.98c0.291-0.653,3.477-7.817,7.167-15.986
	c4.251-9.414,22.815-76.044,7.467-109.12c-2.094-4.514-4.772-8.38-7.838-11.693v83.443c0,4.999-4.067,9.066-9.066,9.066h-21.735
	v25.562h5.992c1.958,0,3.795,0.96,4.913,2.568c1.118,1.607,1.377,3.663,0.695,5.499l-6.18,16.623
	c-0.866,2.331-3.12,3.897-5.607,3.897H78.849c-2.487,0-4.741-1.566-5.608-3.897l-6.18-16.623c-0.683-1.836-0.423-3.892,0.695-5.499
	c1.118-1.608,2.955-2.568,4.913-2.568h5.992v-25.562H56.925c-4.999,0-9.066-4.067-9.066-9.066V23.784
	c-3.066,3.313-5.746,7.178-7.839,11.688c-15.347,33.076,3.217,99.706,7.468,109.12C51.177,152.759,54.364,159.922,54.655,160.577z
	 M72.669,145.849c-0.659,0-1.252,0.311-1.628,0.852c-0.376,0.54-0.46,1.204-0.23,1.821l6.18,16.623
	c0.288,0.772,1.035,1.292,1.859,1.292h46.906c0.824,0,1.571-0.519,1.858-1.291l6.18-16.624c0.229-0.617,0.146-1.281-0.23-1.822
	c-0.376-0.54-0.969-0.851-1.628-0.851H72.669z M82.66,141.849h39.283v-25.562H82.66V141.849z M123.943,112.288h23.735
	c2.793,0,5.066-2.272,5.066-5.066V80.556H51.859v26.665c0,2.794,2.273,5.066,5.066,5.066H123.943z M125.897,76.556h26.848V19.934
	c-8.104-6.938-17.99-10.863-26.848-13.079V76.556z M102.301,76.556h19.595V5.951c-10.851-2.202-19.318-1.929-19.515-1.924
	c-0.053,0.003-0.107,0.003-0.16,0c-0.195-0.004-8.665-0.271-19.516,1.937v70.593H102.301z M51.859,76.556h26.847V6.869
	c-8.859,2.219-18.744,6.143-26.847,13.075V76.556z"/>
<g>
</g>
<g>
</g>
<g>
</g>
<g>
</g>
<g>
</g>
<g>
</g>
<g>
</g>
<g>
</g>
<g>
</g>
<g>
</g>
<g>
</g>
<g>
</g>
<g>
</g>
<g>
</g>
<g>
</g>
</svg>
