<?xml version="1.0" encoding="iso-8859-1"?>
<!-- Generator: Adobe Illustrator 17.1.0, SVG Export Plug-In . SVG Version: 6.00 Build 0)  -->
<!DOCTYPE svg PUBLIC "-//W3C//DTD SVG 1.1//EN" "http://www.w3.org/Graphics/SVG/1.1/DTD/svg11.dtd">
<svg version="1.1" id="Capa_1" xmlns="http://www.w3.org/2000/svg" xmlns:xlink="http://www.w3.org/1999/xlink" x="0px" y="0px"
	 viewBox="0 0 217.735 217.735" style="enable-background:new 0 0 217.735 217.735;" xml:space="preserve">
<path d="M95.277,217.735c-3.219,0-9.025-1.346-12.99-5.311c-3.157-3.157-5.841-8.791-7.071-11.633
	c-1.918,0.457-4.876,0.762-7.147-0.8c-2.433-1.672-4.126-6.589-6.688-14.473c-0.669-2.059-1.361-4.188-2.064-6.174
	c-1.773-5.006-5.693-11.63-8.842-16.953c-1.784-3.015-3.325-5.62-4.24-7.51c-2.132-4.406-4.076-13.956-4.752-17.507
	c-3.95-0.945-14.697-4.708-18.537-18.148c-4.1-14.347,5.569-26.989,8.068-29.943l-0.137-4.955
	c-0.792-2.816-5.47-23.449,17.143-53.52C71.581-0.524,106.578-0.055,108.868,0.009c2.295-0.066,37.286-0.534,60.849,30.799
	c22.613,30.071,17.936,50.704,17.143,53.52l-0.137,4.955c2.5,2.955,12.168,15.596,8.068,29.943l-0.467-0.133l0.467,0.133
	c-3.84,13.44-14.587,17.203-18.537,18.148c-0.676,3.552-2.621,13.102-4.752,17.507c-0.915,1.89-2.456,4.495-4.24,7.51
	c-3.149,5.323-7.069,11.947-8.842,16.953c-0.703,1.986-1.395,4.115-2.064,6.174c-2.562,7.884-4.256,12.801-6.688,14.473
	c-2.273,1.562-5.23,1.256-7.147,0.8c-1.23,2.842-3.914,8.476-7.071,11.633c-4.542,4.542-11.501,5.647-14.218,5.229
	c-1.976-0.304-10.329-2.144-12.362-2.595c-2.034,0.451-10.387,2.291-12.363,2.595C96.16,217.707,95.746,217.735,95.277,217.735z
	 M79.188,199.881c1.221,2.729,3.472,7.26,5.927,9.715c3.509,3.509,9.137,4.358,10.782,4.104c1.662-0.256,8.927-1.84,12.537-2.642
	c0.286-0.063,0.582-0.063,0.868,0c3.609,0.802,10.875,2.386,12.536,2.642c1.649,0.254,7.273-0.595,10.782-4.104
	c3.657-3.658,6.849-11.888,6.881-11.97c0.151-0.394,0.422-0.727,0.77-0.955l-9.316-28.984c-0.493-0.646-4.884-5.677-22.837-5.677
	c-17.663,0-21.055,4.828-21.424,5.465l-6.83,31.295C79.764,199.223,79.519,199.606,79.188,199.881z M144.612,197.105
	c1.013,0.123,2.083,0.076,2.79-0.41c1.437-0.988,3.583-7.592,5.15-12.414c0.677-2.083,1.377-4.238,2.098-6.273
	c1.903-5.374,5.933-12.183,9.17-17.655c1.738-2.938,3.24-5.476,4.082-7.215c1.654-3.419,3.277-10.776,4.103-14.885
	c-3.858,0.642-10.978,1.375-19.839,0.24c-0.474-0.061-0.938-0.125-1.393-0.194c0.043,0.4-0.034,0.817-0.247,1.193l-15.57,27.571
	L144.612,197.105z M45.732,138.254c0.826,4.11,2.449,11.468,4.103,14.885c0.842,1.739,2.343,4.277,4.082,7.215
	c3.238,5.472,7.267,12.281,9.17,17.655c0.721,2.035,1.421,4.189,2.098,6.273c1.567,4.822,3.713,11.425,5.15,12.414
	c1.434,0.985,4.369,0.161,5.284-0.207c0.218-0.087,0.449-0.135,0.68-0.143l6.377-29.221L67.58,138.205
	c-0.649,0.104-1.319,0.201-2.009,0.29C56.71,139.629,49.591,138.896,45.732,138.254z M111.772,158.081
	c12.016,0.48,17.857,3.299,20.591,5.44l8.128-14.393C134.306,153.303,124.977,157.407,111.772,158.081z M77.927,149.385
	l7.248,13.886c2.596-2.146,8.019-4.717,19.229-5.186C92.31,157.448,83.76,153.599,77.927,149.385z M71.758,137.379
	c2.99,4.622,13.063,16.798,36.193,16.798c26.561,0,37.788-14.806,39.029-16.57c-9.73-2.116-13.87-5.767-14.068-5.945
	c-0.82-0.741-0.884-2.005-0.144-2.825c0.739-0.817,1.997-0.883,2.815-0.152c0.088,0.077,5.06,4.3,17.09,5.842
	c11.054,1.418,19.36-0.293,21.097-0.698c0.159-0.065,0.328-0.111,0.503-0.134c0.16-0.022,1.45-0.214,3.27-0.876
	c-8.745-0.325-15.759-7.541-15.759-16.364c0-9.029,7.346-16.375,16.375-16.375c5.257,0,9.944,2.491,12.942,6.354
	c-2.002-8.623-7.787-14.974-7.869-15.063c-0.355-0.384-0.546-0.892-0.532-1.415l0.167-6c0.005-0.191,0.038-0.381,0.097-0.563
	c0.061-0.191,6.039-20.278-16.447-50.179C143.954,3.205,109.287,3.998,108.936,4.009c-0.044,0.001-0.092,0.001-0.136,0
	c-0.35-0.021-35.019-0.804-57.583,29.203C28.603,63.283,34.705,83.194,34.77,83.392c0.059,0.182,0.092,0.372,0.097,0.563l0.167,6
	c0.015,0.523-0.176,1.031-0.532,1.415c-0.081,0.088-5.84,6.444-7.854,15.043c2.999-3.852,7.679-6.333,12.927-6.333
	c9.029,0,16.375,7.346,16.375,16.375c0,8.823-7.013,16.038-15.758,16.364c1.822,0.663,3.114,0.855,3.275,0.877
	c0.17,0.023,0.334,0.068,0.488,0.131c1.715,0.401,10.03,2.122,21.106,0.701c12.08-1.548,17.042-5.8,17.091-5.843
	c0.827-0.724,2.088-0.652,2.818,0.168c0.731,0.821,0.668,2.073-0.148,2.81C84.632,131.834,80.77,135.24,71.758,137.379z
	 M178.161,104.079c-6.824,0-12.375,5.551-12.375,12.375s5.551,12.375,12.375,12.375s12.375-5.551,12.375-12.375
	S184.984,104.079,178.161,104.079z M39.575,104.079c-6.824,0-12.375,5.551-12.375,12.375s5.551,12.375,12.375,12.375
	s12.375-5.551,12.375-12.375S46.398,104.079,39.575,104.079z M138.459,97.54c-4.458,0-8.567-1.003-11.084-3.304
	c-3.386-3.096-4.373-9.034-4.604-13.47c-0.024-0.454-0.005-0.904,0.053-1.346c-3.201,1.956-5.757,3.468-8.855,2.499
	c-1.934-0.604-3.524-1.754-4.674-3.363c-1.15,1.609-2.74,2.758-4.674,3.363c-3.158,0.984-5.75-0.601-9.035-2.608
	c-0.253-0.155-0.513-0.313-0.778-0.475c0.136,0.625,0.19,1.273,0.156,1.93c-0.231,4.436-1.218,10.374-4.604,13.47
	c-5.155,4.713-16.995,3.979-24.819,0.337c-8.357-3.89-12.945-8.534-13.639-13.802c-0.415-3.152-0.155-5.896,0.679-8.029
	c-7.302,1.357-12.247,3.225-12.339,3.26c-1.03,0.395-2.188-0.118-2.584-1.149c-0.396-1.031,0.117-2.188,1.147-2.584
	c0.564-0.217,10.827-4.103,23.989-4.814c2.3-0.188,5.1-0.262,8.319,0.017c1.708,0.104,3.44,0.276,5.181,0.528
	c11.071,1.6,17.273,5.391,21.377,7.899c2.925,1.788,4.389,2.63,5.755,2.203c1.42-0.443,2.476-1.374,3.137-2.766
	c0.453-0.954,0.696-2.101,0.725-3.278c-0.003-0.162-0.003-0.324,0-0.486c-0.027-1.086-0.234-2.179-0.623-3.151
	c-0.41-1.025,0.088-2.189,1.114-2.6c0.507-0.204,1.048-0.184,1.514,0.012c0.467-0.196,1.007-0.215,1.514-0.012
	c1.026,0.41,1.524,1.574,1.114,2.6c-0.389,0.972-0.596,2.065-0.623,3.151c0.003,0.162,0.003,0.324,0,0.486
	c0.029,1.178,0.272,2.325,0.725,3.278c0.662,1.392,1.717,2.322,3.137,2.766c1.36,0.427,2.83-0.415,5.755-2.203
	c4.104-2.508,10.306-6.299,21.377-7.899c0.43-0.062,0.858-0.119,1.286-0.172c3.94-0.583,7.365-0.62,10.167-0.456
	c14.134,0.386,25.444,4.669,26.037,4.898c1.03,0.396,1.544,1.553,1.147,2.584c-0.396,1.03-1.555,1.544-2.584,1.149
	c-0.096-0.037-5.457-2.062-13.262-3.426c0.888,2.155,1.172,4.96,0.746,8.195c-0.693,5.269-5.282,9.912-13.639,13.802
	C148.19,96.437,143.133,97.54,138.459,97.54z M127.976,77.867c-0.813,0.625-1.265,1.631-1.21,2.69
	c0.268,5.14,1.474,9.049,3.309,10.727c3.418,3.125,13.346,2.961,20.431-0.337c6.937-3.229,10.865-6.929,11.361-10.698
	c0.375-2.854,0.205-7.804-2.817-8.262c-1.255-0.19-2.996-0.454-5.155-0.596c-3.132-0.104-6.394-0.005-9.691,0.389
	c-0.771,0.113-1.563,0.249-2.375,0.41c0.324-0.037,0.654-0.056,0.988-0.056c4.791,0,8.688,3.897,8.688,8.688
	s-3.897,8.688-8.688,8.688s-8.688-3.897-8.688-8.688c0-3.854,2.522-7.13,6.003-8.263c-0.498,0.117-1.002,0.244-1.513,0.382
	C133.231,74.393,129.857,76.421,127.976,77.867L127.976,77.867z M62.553,71.494c-1.572,0.146-2.873,0.343-3.868,0.494
	c-3.021,0.458-3.192,5.408-2.817,8.262c0.496,3.769,4.425,7.468,11.361,10.698c7.085,3.298,17.014,3.461,20.431,0.337
	c1.835-1.677,3.041-5.587,3.309-10.726c0.055-1.061-0.397-2.066-1.21-2.691c-1.881-1.446-5.256-3.474-10.645-4.925
	c-3.013-0.811-5.799-1.26-8.311-1.478C67.979,71.298,65.206,71.33,62.553,71.494z M142.817,76.135c-2.584,0-4.688,2.103-4.688,4.688
	s2.103,4.688,4.688,4.688s4.688-2.103,4.688-4.688S145.401,76.135,142.817,76.135z M72.948,89.51c-4.791,0-8.688-3.897-8.688-8.688
	s3.897-8.688,8.688-8.688s8.688,3.897,8.688,8.688S77.738,89.51,72.948,89.51z M72.948,76.135c-2.584,0-4.688,2.103-4.688,4.688
	s2.103,4.688,4.688,4.688s4.688-2.103,4.688-4.688S75.532,76.135,72.948,76.135z"/>
<g>
</g>
<g>
</g>
<g>
</g>
<g>
</g>
<g>
</g>
<g>
</g>
<g>
</g>
<g>
</g>
<g>
</g>
<g>
</g>
<g>
</g>
<g>
</g>
<g>
</g>
<g>
</g>
<g>
</g>
</svg>
