<?xml version="1.0" encoding="UTF-8" standalone="yes"?>
<svg xmlns="http://www.w3.org/2000/svg" viewBox="0 0 219.667 219.667">
  <path d="M176.375 219.667h-8.667a2 2 0 0 1-2-2v-18.892l-15.726-15.485a1.996 1.996 0 0 1-2.345.395l-10.833-5.5a1.99 1.99 0 0 1-.63-.503l-4.168-5a1.996 1.996 0 0 1-.458-1.138l-.223-3.13-7.45-3.93v.35c0 .406-.124.804-.355 1.14l-10.167 14.665a2 2 0 0 1-1.644.86h-3.75a2 2 0 0 1-1.645-.86l-10.167-14.667a2 2 0 0 1-.356-1.14v-.35l-7.45 3.93-.222 3.13c-.03.42-.19.816-.458 1.14l-4.167 5a2 2 0 0 1-.63.502l-10.834 5.5a1.996 1.996 0 0 1-2.344-.395L53.96 198.775v18.892a2 2 0 0 1-2 2h-8.667a2 2 0 0 1-1.228-.42l-7.5-5.834a1.997 1.997 0 0 1-.77-1.617l1.666-87.834c.01-.408.14-.805.38-1.135l3.103-4.284-.138-5.09a7.568 7.568 0 0 1 2.49-5.825 7.59 7.59 0 0 1 6.044-1.9 7.594 7.594 0 0 1 6.62 7.52v47.697l14.798-7.333c1.01-2.522 6.93-17.735 7.37-28.458.306-7.42-.087-14.828-.543-21.607-18.794-9.023-30.874-28.14-30.874-49.03v-.14C44.71 24.392 69.1 0 99.084 0h21.5c29.982 0 54.375 24.393 54.375 54.375v.14c0 20.893-12.08 40.008-30.874 49.03-.456 6.78-.85 14.188-.544 21.608.44 10.723 6.36 25.936 7.37 28.458l14.798 7.334v-47.697a7.595 7.595 0 0 1 6.622-7.52 7.595 7.595 0 0 1 6.043 1.9 7.57 7.57 0 0 1 2.49 5.826l-.137 5.09 3.102 4.283c.24.33.372.727.38 1.135l1.667 87.835c.012.63-.274 1.23-.77 1.617l-7.5 5.833a2 2 0 0 1-1.23.422zm-6.667-4h5.98l6.167-4.797-1.636-86.205-3.133-4.325a1.992 1.992 0 0 1-.38-1.228l.157-5.768c.03-1.046-.4-2.05-1.176-2.75a3.566 3.566 0 0 0-2.854-.897 3.586 3.586 0 0 0-3.127 3.55v102.42zm-125.73 0h5.98v-102.42a3.586 3.586 0 0 0-3.127-3.55c-1.035-.135-2.077.194-2.853.896s-1.205 1.705-1.176 2.75l.157 5.77c.012.44-.12.87-.38 1.227l-3.13 4.325-1.637 86.205 6.168 4.797zm106.8-37.207l14.93 14.7V165.41l-14.5-7.186v8.18c0 4.143-.237 8.886-.43 12.058zm-96.82-13.052v27.753l14.93-14.7c-.193-3.172-.43-7.915-.43-12.058v-8.18l-14.5 7.186zm18.5-10.28V166.4c0 4.234.263 9.233.457 12.348l7.77-3.944 3.49-4.188L88.79 105.9V24.747c-1.45 1.877-3.03 4.092-4.07 6.03-2.42 4.52-4.958 16.51-5.43 25.66-.37 7.153-.702 16.77-.706 25.15 0 3.565.062 6.898.205 9.713.134 2.654.33 5.44.536 8.39.546 7.808 1.166 16.656.797 25.627-.474 11.53-6.588 27.142-7.665 29.81zm66.523 19.678l7.77 3.944c.195-3.114.458-8.115.458-12.348v-11.275c-1.077-2.668-7.19-18.28-7.665-29.81-.37-8.97.25-17.82.797-25.626.207-2.95.402-5.735.537-8.39.143-2.81.204-6.14.205-9.7-.004-8.385-.334-18.007-.705-25.163-.473-9.15-3.01-21.142-5.432-25.66-1.04-1.94-2.622-4.155-4.07-6.03v81.152l4.615 64.717 3.49 4.19zm-29.974 2.694h1.655l9.215-13.29v-26.205l-6.063-2.505h-7.956l-6.063 2.505v26.204l9.213 13.29zm14.87-17.54l7.093 3.745-1.113-15.592-5.982-3.026v14.874zM89.81 148.114l-1.112 15.592 7.094-3.744v-14.873l-5.982 3.026zm34.065-7.51l5.67 2.87-2.494-34.97c-1.463.174-2.932.29-4.394.347a1.96 1.96 0 0 1-.308.023h-.435c-.444.01-.887.017-1.33.017h-21.5c-2.143 0-4.31-.13-6.467-.388l-2.494 34.97 5.67-2.868v-3.938a2 2 0 0 1 1.236-1.85l7.667-3.166c.242-.1.5-.15.764-.15h8.75c.26 0 .52.05.763.15l7.667 3.167a2 2 0 0 1 1.236 1.85v3.937zm-24.083-35.73h20.556V4.034H99.792v100.84zm-7-.378c1 .125 2 .22 3 .286V4.107c-26.25 1.7-47.083 23.597-47.083 50.27v.14c0 18.576 10.306 35.636 26.53 44.37a389.9 389.9 0 0 1-.445-7.117c-.15-2.945-.21-6.44-.21-10.173 0-8.535.334-18.353.71-25.632.507-9.795 3.21-22.315 5.9-27.34 2.583-4.82 7.878-10.8 8.103-11.052a2 2 0 0 1 3.495 1.33v85.592zM124.348 4.14v100.608a50.023 50.023 0 0 0 2.527-.253V18.902a2 2 0 0 1 3.495-1.33c.224.254 5.52 6.233 8.102 11.052 2.692 5.025 5.395 17.546 5.9 27.34.377 7.28.712 17.098.71 25.633.002 3.73-.06 7.228-.21 10.172a389.34 389.34 0 0 1-.445 7.115c16.225-8.733 26.532-25.793 26.532-44.37v-.14c-.002-26.51-20.587-48.304-46.612-50.235z"/>
</svg>