<?xml version="1.0" encoding="UTF-8" standalone="yes"?>
<svg xmlns="http://www.w3.org/2000/svg" viewBox="0 0 202.432 202.432">
  <path d="M101.216 202.432a101.18 101.18 0 0 1-30.973-4.834c-.002 0-.004 0-.006-.002C28.227 184.102 0 145.37 0 101.216c0-27.3 10.707-52.896 30.148-72.07C49.588 9.98 75.305-.39 102.658.012c54.874.766 99.632 46.046 99.773 100.94.106 40.743-24.044 77.404-61.52 93.398h-.003c-12.57 5.365-25.922 8.084-39.69 8.084zM72.74 194.19a97.23 97.23 0 0 0 28.477 4.243c12.813 0 25.25-2.45 36.99-7.287l.567-8.67c.042-.876 1.28-27.128 1.443-34.27.164-7.22 0-38.724 0-39.04a2 2 0 0 1 1.988-2.012h.01a2 2 0 0 1 2 1.99c.003.317.166 31.875 0 39.153-.126 5.532-.89 22.38-1.254 30.254a23.938 23.938 0 0 1 2.018-.26c1.62-.133 8.39-3.996 8.547-8.054.008-.203.01-.414.01-.635 0-4.692-1.727-13.425-3.552-22.647l-.696-3.527c-2.227-11.34-2.674-16.077-2.886-24.554-.16-6.46-1.8-13.886-2.38-16.33-1.673-.905-6.118-3.207-12.426-5.668-4.227-1.65-8.02-4.067-10.823-6.134a2 2 0 0 1-1.886 1.336h-2.086l1.087.852a2 2 0 0 1 .737 1.23c.05.29 1.252 7.27 2.92 23.03.505 4.79.683 10.3.683 15.672 0 9.87-.6 19.278-.86 22.915a3.892 3.892 0 0 1-3.527 3.604 3.905 3.905 0 0 1-4.14-2.868c-1.946-7.226-8.73-31.842-14.324-45.212C94.176 98.883 86.3 86.697 83.438 82.437l-6.63 4.31-.08 4.58.404 10.914c.002.056.003.11 0 .17-.01.25-.94 25.187-2.93 41.417-1.823 14.895-4.157 33.48-4.556 36.645.42 1.23 1.558 4.765 2.563 9.8.214 1.068.392 2.382.532 3.92zM101.205 4c-25.72 0-49.908 9.91-68.247 27.995C14.285 50.41 4 74.995 4 101.217c0 41.39 25.818 77.816 64.568 91.592-.085-.657-.18-1.24-.28-1.755a83.227 83.227 0 0 0-1.795-7.29c-2.24 1.167-5.78 2.326-9.43.807-5.2-2.167-14.864-11.558-16.986-17.45-.377-1.047-.542-2.486-.54-4.276 0-4.3.955-10.63 2.22-18.43.684-4.21 1.33-8.186 1.463-10.45.398-6.78.403-35.125.403-35.41 0-.823.503-1.562 1.27-1.862l9.493-3.73 1.06-7.642-2.872-12.98a1.995 1.995 0 0 1 .276-1.522l3.658-5.628.14-6.452a2.004 2.004 0 0 1 1.105-1.745l3.475-1.737v-7.312a2 2 0 0 1 .907-1.675l2.104-1.37a5.284 5.284 0 0 1-2.3-4.36V17.685a2 2 0 0 1 2-2h6.92a2 2 0 0 1 2 2V40.54a5.288 5.288 0 0 1-2.604 4.55l1.905.89a2 2 0 0 1 1.155 1.813v13.882c2.2.614 4.81 2.224 5.32 5.668a20.06 20.06 0 0 1 .233 2.938c0 1.258-.152 2.187-.33 2.844.654 1.273 1.368 2.99 1.368 4.42 0 .26-.023.514-.077.753-.098.442-.378 1.25-.735 2.19l3.357-2.18 2.553-4.91.437-4.748c-.715-1.214-2.184-3.948-2.524-6.47a37.398 37.398 0 0 1-.304-3.137c-1.816-1.012-3.928-3.176-3.99-6.942l-.012-.793c-.018-.985-.03-1.84-.03-2.584-.002-2.726.19-4.017 1.173-5.097.326-.358.693-.63 1.066-.838-.595-2-1.347-5.12-1.347-8.146 0-1.764.255-3.497.947-4.953 1.97-4.14 6.567-13.81 21.388-13.81h.197c12.92.072 17.125 4.736 18.378 8.636.33 1.03.448 1.878.448 2.56 0 .138-.004.27-.013.395 1.042 1.148 2.683 3.31 3.072 5.908.052.353.076.736.076 1.14 0 2.65-1.023 6.23-1.644 8.156 1.026 1.074 2.32 2.956 2.322 5.624a8.6 8.6 0 0 1-.063 1.032c-.6 4.987-1.734 8.142-3.38 9.374-.545.41-1.06.72-1.495.953-.176 2.225-.686 6.907-2.007 9.802-1.316 2.883-3.843 4.633-5.356 5.47l-.076 2.23 1.838-.875a1.998 1.998 0 0 1 2.764 1.196l2.13 6.65c1.46 1.33 7.235 6.36 14.043 9.015 8.39 3.275 13.496 6.217 13.71 6.34.463.27.8.713.933 1.23.103.397 2.502 9.78 2.708 18.056.207 8.224.643 12.83 2.814 23.884l.694 3.52c1.94 9.81 3.63 18.347 3.63 23.442 0 .267-.006.524-.016.772-.254 6.62-9.18 11.634-12.21 11.887-.99.083-1.873.24-2.54.387l-.003.042v.028l-.435 6.6c34.284-16 56.194-50.333 56.097-88.373-.136-52.724-43.124-96.215-95.83-96.95A80.31 80.31 0 0 0 101.2 4zM43.527 162.97c0 1.216.094 2.186.313 2.797 1.562 4.336 10.253 13.234 14.763 15.113 2.835 1.182 5.864-.465 7.123-1.298.513-4.08 2.746-21.876 4.505-36.24 1.38-11.243 2.246-26.756 2.646-35.135-1.574 1.147-3.645 2.032-6.29 2.032-6.855 0-12.767-5.835-13.015-6.083a2.002 2.002 0 0 1-.564-1.703l.722-4.933-6.105 2.4c-.005 5.834-.05 28.17-.41 34.283-.145 2.466-.775 6.354-1.506 10.855-.908 5.588-2.18 13.426-2.18 17.91zm42.79-83.42c2.498 3.662 11.05 16.6 16.744 30.206 5.56 13.28 12.216 37.27 14.353 45.175.275-3.935.814-12.827.813-22.085 0-5.24-.173-10.595-.664-15.236-1.347-12.75-2.408-19.82-2.757-22.015l-4.49-3.52h-2.463l-6.644 4.947a2 2 0 0 1-3.112-1.037l-4.24-14.325-6.21-4.67-1.33 2.56zm-29.2 22.428c1.563 1.334 5.446 4.26 9.468 4.26 3.944 0 5.965-3.233 6.53-4.317l-.25-6.75c-1.8.988-4.114 1.723-6.353.907-2.418-.88-5.71-3.375-7.813-5.098l-.514 3.696-.004.025-1.065 7.28zm2.73-15.264c1.848 1.6 5.798 4.79 8.03 5.602 1.378.5 3.594-.85 4.863-1.883l.086-4.8a1.974 1.974 0 0 1 .18-.813c1.31-3.06 2.757-6.65 2.922-7.39-.002-.39-.633-1.966-1.31-3.154-.204-.355-.32-.708-.32-1.055 0-.313.097-.623.31-.92.062-.174.26-.81.26-2.05 0-.618-.05-1.386-.188-2.32-.35-2.355-3.126-2.554-3.442-2.568a2.015 2.015 0 0 1-1.92-1.998V49.067l-2.42-1.128-1.67 1.09v7.463a2 2 0 0 1-1.106 1.79l-3.5 1.75-.127 5.814c-.01.372-.12.734-.323 1.046l-3.512 5.402 2.755 12.458c.01.036.018.07.024.107l.407 1.854zm38.5-3.975l2.77 9.36 4.876-3.63a2 2 0 0 1 1.194-.396h8.916l-.736-2.194-.002-.002c0-.002 0-.004-.002-.006a.088.088 0 0 0-.005-.015v-.004l-1.593-4.97-2.722 1.297c-.044.02-.09.042-.136.06-.002 0-.004 0-.006.002l-.004.002-.016.006-3.11 1.202a2.01 2.01 0 0 1-.917.125l-8.506-.838zm-2.007-4.22l10.432 1.025 1.438-.555.184-5.395a2 2 0 0 1 1.27-1.794c.023-.01 3.17-1.3 4.405-4.005 1.177-2.583 1.646-7.78 1.727-9.563a2 2 0 0 1 1.41-1.82c-.002 0 .716-.246 1.6-.91.287-.254 1.257-2.04 1.81-6.652.022-.176.03-.347.032-.512 0-2.182-1.713-3.36-1.73-3.373a1.998 1.998 0 0 1-.793-2.355c.766-2.127 1.852-5.94 1.852-8.03a4.36 4.36 0 0 0-.04-.612c-.284-1.893-2-3.803-2.64-4.38a2.01 2.01 0 0 1-.48-2.33c.006-.036.013-.1.013-.196 0-.238-.042-.668-.254-1.328-1.538-4.785-8.785-5.83-14.594-5.862h-.175c-12.29 0-15.854 7.494-17.772 11.528-.403.846-.562 1.945-.563 3.143 0 3.294 1.19 7.33 1.772 8.88a2.005 2.005 0 0 1-.227 1.842 2 2 0 0 1-1.646.86c-.217.008-.57.105-.66.19-.105.224-.136 1.024-.136 2.132 0 .8.018 1.764.035 2.785l.014.796c.046 2.9 2.082 3.633 2.49 3.75.86.25 1.477 1.046 1.478 1.934 0 .036 0 .072-.003.11 0 0-.003.072-.003.217 0 .463.03 1.662.293 3.6.264 1.956 1.745 4.593 2.293 5.444a2 2 0 0 1 .31 1.267l-.433 4.69 7.283 5.48zm-30.4-58.838V40.54c0 .708.575 1.285 1.284 1.285h.35c.708 0 1.285-.577 1.285-1.286V19.682h-2.92zM54.88 137.18a2 2 0 0 1-1.28-.463l-1-.833a2 2 0 0 1 2.56-3.073l1 .835a2 2 0 0 1-1.28 3.536zm0-10.298a1.99 1.99 0 0 1-1.28-.464l-1-.833a2 2 0 1 1 2.56-3.072l1 .833a2 2 0 0 1-1.28 3.536zm0-10.297a2 2 0 0 1-1.28-.463l-1-.833a2 2 0 0 1 2.56-3.075l1 .833a2 2 0 0 1-1.28 3.535z"/>
</svg>