<?xml version="1.0" encoding="UTF-8" standalone="yes"?>
<svg xmlns="http://www.w3.org/2000/svg" viewBox="0 0 196.797 196.797">
  <path d="M98.398 196.797c-14.117 0-27.55-2.99-39.7-8.366a1.988 1.988 0 0 1-.574-.256c-16.648-7.5-30.854-19.498-41.05-34.437a2.017 2.017 0 0 1-.454-.668C6.126 137.42 0 118.61 0 98.397 0 58.62 23.728 24.278 57.772 8.783c.35-.366.838-.6 1.38-.616C71.182 2.915 84.457 0 98.398 0c54.257 0 98.398 44.14 98.398 98.398 0 20.214-6.126 39.023-16.62 54.67-.105.253-.26.48-.454.668-17.73 25.977-47.57 43.06-81.324 43.06zm-28.192-8.3c8.908 2.794 18.376 4.3 28.193 4.3s19.284-1.505 28.192-4.3H70.206zm-10.503-4h77.236c.047 0 .095.003.143.006 14.892-6.716 27.74-17.188 37.335-30.197H40.048c10.29 10.384 20.995 16.93 21.157 17.028a2 2 0 0 1-2.07 3.423c-.744-.45-13.423-8.205-24.66-20.45H22.38c9.59 13.004 22.438 23.475 37.323 30.19zm-23.412-34.19h140.92a93.805 93.805 0 0 0 15.565-49.908H17.402c.68 10.023 2.74 23.678 8.526 35.076 2.734 5.383 6.41 10.38 10.363 14.83zm-16.705 0H31c-3.262-3.982-6.267-8.35-8.638-13.02-6.194-12.2-8.336-26.495-9.01-36.89h-9.33c.383 18.404 6.06 35.525 15.563 49.91zm-2.394-53.91h175.586A93.813 93.813 0 0 0 177.65 47.16H97.664a33.16 33.16 0 0 1 .333 7.046c-.517 8.957-4.48 17.57-11.16 24.25s-15.292 10.643-24.25 11.16c-9.048.52-17.356-2.524-23.407-8.575-6.05-6.05-9.095-14.362-8.573-23.407.207-3.58.964-7.106 2.225-10.475H19.148A93.82 93.82 0 0 0 4.02 96.398h9.133c-.208-5.942.05-9.93.08-10.362a2 2 0 0 1 3.99.275c-.008.106-.26 4.076-.032 10.088zm50.8-70.23c-.578 0-1.16.018-1.744.05-7.977.46-15.666 4.01-21.65 9.996-5.986 5.985-9.536 13.674-9.996 21.65-.455 7.89 2.176 15.117 7.41 20.35 5.232 5.233 12.463 7.86 20.348 7.41 7.977-.46 15.666-4.01 21.65-9.996 12.293-12.292 13.454-31.134 2.587-42-4.844-4.844-11.398-7.46-18.605-7.46zM96.764 43.16h78.142C165.2 29.752 152.068 18.99 136.8 12.165H60C44.73 18.992 31.596 29.753 21.89 43.16h12.714a39.25 39.25 0 0 1 7.162-9.775c6.68-6.68 15.292-10.644 24.25-11.16 9.043-.527 17.356 2.522 23.407 8.574a29.105 29.105 0 0 1 7.34 12.36zM70.634 8.165h55.53C117.384 5.458 108.057 4 98.398 4S79.414 5.458 70.633 8.166zM64.3 57.92h-.436a2 2 0 0 1 0-4h.436a2 2 0 0 1 0 4z"/>
</svg>