<?xml version="1.0" encoding="iso-8859-1"?>
<!-- Generator: Adobe Illustrator 17.1.0, SVG Export Plug-In . SVG Version: 6.00 Build 0)  -->
<!DOCTYPE svg PUBLIC "-//W3C//DTD SVG 1.1//EN" "http://www.w3.org/Graphics/SVG/1.1/DTD/svg11.dtd">
<svg version="1.1" id="Capa_1" xmlns="http://www.w3.org/2000/svg" xmlns:xlink="http://www.w3.org/1999/xlink" x="0px" y="0px"
	 viewBox="0 0 225.936 225.936" style="enable-background:new 0 0 225.936 225.936;" xml:space="preserve">
<path d="M114.468,210.149h-3c-0.439,0-0.866-0.145-1.215-0.411l-6.375-4.875c-0.495-0.379-0.785-0.966-0.785-1.589v-27.625
	c0-0.4,0.12-0.791,0.344-1.122l2.225-3.283l-4.894-53.827L87.591,95.734l-3.759-1.613c-3.388,10.32-13.114,17.793-24.553,17.793
	c-12.817,0-23.484-9.383-25.494-21.64H23.25v4.125c0,0.499-0.187,0.98-0.524,1.35l-4,4.375c-0.378,0.414-0.914,0.65-1.476,0.65H2
	c-1.104,0-2-0.896-2-2V81.631c0-1.104,0.896-2,2-2h32.26c2.872-11.135,13-19.385,25.02-19.385c11.533,0,21.326,7.599,24.636,18.052
	l13.331-7.696c-8.37-5.25-13.945-14.561-13.945-25.148c0-16.358,13.309-29.667,29.667-29.667s29.667,13.309,29.667,29.667
	c0,10.564-5.551,19.856-13.889,25.113l13.293,7.674c3.327-10.424,13.105-17.994,24.618-17.994c12.019,0,22.146,8.25,25.019,19.385
	h32.26c1.104,0,2,0.896,2,2v17.143c0,1.104-0.896,2-2,2h-15.25c-0.562,0-1.098-0.236-1.476-0.65l-4-4.375
	c-0.338-0.369-0.524-0.851-0.524-1.35v-4.125H192.15c-2.01,12.257-12.677,21.64-25.493,21.64c-11.439,0-21.166-7.473-24.554-17.793
	l-3.726,1.6l-12.217,21.679l-5.875,53.861l2.213,3.267c0.224,0.331,0.344,0.722,0.344,1.122v27.625c0,0.623-0.29,1.21-0.785,1.589
	l-6.375,4.875C115.334,210.004,114.907,210.149,114.468,210.149z M114.968,97.349v107.899l3.875-2.963v-26.023l-2.281-3.366
	c-0.266-0.393-0.384-0.867-0.332-1.339l5.949-54.534L114.968,97.349z M107.093,202.286l3.875,2.963V98.383l-6.221,18.627
	l4.963,54.583c0.041,0.46-0.077,0.92-0.336,1.303l-2.281,3.366V202.286z M85.022,90.279l4.734,2.032
	c0.382,0.164,0.704,0.443,0.92,0.799l11.51,18.939l8.005-23.969H85.277L85.022,90.279z M115.831,88.081l8.772,23.935l10.622-18.848
	c0.215-0.383,0.55-0.684,0.953-0.856l4.734-2.032l-0.255-2.198H115.831z M166.657,64.247c-12.039,0-21.834,9.795-21.834,21.834
	s9.795,21.833,21.834,21.833s21.833-9.794,21.833-21.833S178.696,64.247,166.657,64.247z M59.279,64.247
	c-12.039,0-21.834,9.795-21.834,21.834s9.795,21.833,21.834,21.833s21.833-9.794,21.833-21.833S71.318,64.247,59.279,64.247z
	 M209.566,96.774h12.369V83.631h-29.561c0.076,0.807,0.115,1.623,0.115,2.449c0,0.064,0,0.129-0.001,0.193h12.196
	c1.104,0,2,0.896,2,2v5.349L209.566,96.774z M4,96.774h12.369l2.881-3.151v-5.349c0-1.104,0.896-2,2-2h12.196
	c-0.001-0.064-0.001-0.129-0.001-0.193c0-0.826,0.039-1.643,0.115-2.449H4V96.774z M116.991,84.081h23.908
	c0.046-0.595,0.112-1.183,0.197-1.765l-15.843-9.146L116.991,84.081z M85.036,84.081h23.933l-8.177-10.906l-15.944,9.204
	C84.929,82.94,84.991,83.508,85.036,84.081z M106.76,74.466l6.216,8.291l6.295-8.312C115.237,75.322,110.798,75.329,106.76,74.466z
	 M93.68,62.37c4.708,5.36,11.609,8.75,19.288,8.75s14.58-3.39,19.288-8.75V28.537c-4.708-5.36-11.609-8.75-19.288-8.75
	s-14.58,3.39-19.288,8.75V62.37z M136.256,34.666v21.576c1.526-3.281,2.379-6.938,2.379-10.788S137.782,37.947,136.256,34.666z
	 M89.68,34.666c-1.526,3.281-2.379,6.938-2.379,10.788s0.853,7.507,2.379,10.788V34.666z M112.968,55.816
	c-6.893,0-12.5-5.607-12.5-12.5c0-4.54,2.433-8.521,6.063-10.712v-6.788c0-1.104,0.896-2,2-2s2,0.896,2,2v5.238
	c1.576-0.313,3.299-0.313,4.875,0v-5.238c0-1.104,0.896-2,2-2s2,0.896,2,2v6.788c3.63,2.19,6.063,6.172,6.063,10.712
	C125.468,50.208,119.86,55.816,112.968,55.816z M106.53,37.771c-1.284,1.489-2.063,3.429-2.063,5.545c0,4.687,3.813,8.5,8.5,8.5
	s8.5-3.813,8.5-8.5c0-2.116-0.778-4.056-2.063-5.545v5.545c0,1.104-0.896,2-2,2s-2-0.896-2-2v-8.144
	c-1.545-0.465-3.33-0.465-4.875,0v8.144c0,1.104-0.896,2-2,2s-2-0.896-2-2V37.771z"/>
<g>
</g>
<g>
</g>
<g>
</g>
<g>
</g>
<g>
</g>
<g>
</g>
<g>
</g>
<g>
</g>
<g>
</g>
<g>
</g>
<g>
</g>
<g>
</g>
<g>
</g>
<g>
</g>
<g>
</g>
</svg>
