<?xml version="1.0" encoding="iso-8859-1"?>
<!-- Generator: Adobe Illustrator 17.1.0, SVG Export Plug-In . SVG Version: 6.00 Build 0)  -->
<!DOCTYPE svg PUBLIC "-//W3C//DTD SVG 1.1//EN" "http://www.w3.org/Graphics/SVG/1.1/DTD/svg11.dtd">
<svg version="1.1" id="Capa_1" xmlns="http://www.w3.org/2000/svg" xmlns:xlink="http://www.w3.org/1999/xlink" x="0px" y="0px"
	 viewBox="0 0 188.589 188.589" style="enable-background:new 0 0 188.589 188.589;" xml:space="preserve">
<path d="M94.294,188.589C42.3,188.589,0,146.289,0,94.295C0,42.3,42.3,0,94.294,0s94.295,42.3,94.295,94.295
	C188.589,146.289,146.288,188.589,94.294,188.589z M94.294,4C44.506,4,4,44.506,4,94.295s40.506,90.294,90.294,90.294
	c49.789,0,90.295-40.506,90.295-90.294S144.083,4,94.294,4z M144.175,160.465H44.414c-1.104,0-2-0.896-2-2v-22.151
	c0-1.104,0.896-2,2-2h19.4c-12.377-9.446-19.837-24.242-19.837-40.019c0-15.778,7.46-30.573,19.837-40.02h-19.4
	c-1.104,0-2-0.896-2-2V30.125c0-1.104,0.896-2,2-2h99.761c1.104,0,2,0.896,2,2v22.151c0,1.104-0.896,2-2,2h-19.4
	c12.377,9.446,19.837,24.242,19.837,40.02c0,15.777-7.46,30.573-19.837,40.019h19.4c1.104,0,2,0.896,2,2v22.151
	C146.175,159.569,145.28,160.465,144.175,160.465z M46.414,156.465h95.761v-18.151h-24.04c-0.907,0-1.701-0.611-1.934-1.489
	s0.156-1.801,0.945-2.25c14.474-8.23,23.465-23.665,23.465-40.28s-8.991-32.051-23.465-40.281c-0.789-0.449-1.178-1.373-0.945-2.25
	s1.026-1.489,1.934-1.489h24.04V32.125H46.414v18.151h24.04c0.907,0,1.701,0.611,1.934,1.489s-0.156,1.801-0.945,2.25
	c-14.474,8.229-23.465,23.665-23.465,40.281c0,16.555,8.926,31.938,23.307,40.19c0.701,0.311,1.189,1.013,1.189,1.829
	c0,1.104-0.895,2-2,2c-0.005,0-0.013,0.001-0.02,0h-24.04V156.465z M94.294,126.889c-17.973,0-32.594-14.622-32.594-32.594
	S76.322,61.7,94.294,61.7s32.595,14.622,32.595,32.595S112.267,126.889,94.294,126.889z M94.294,65.7
	C78.528,65.7,65.7,78.528,65.7,94.295s12.827,28.594,28.594,28.594c15.768,0,28.595-12.827,28.595-28.594S110.062,65.7,94.294,65.7z
	"/>
<g>
</g>
<g>
</g>
<g>
</g>
<g>
</g>
<g>
</g>
<g>
</g>
<g>
</g>
<g>
</g>
<g>
</g>
<g>
</g>
<g>
</g>
<g>
</g>
<g>
</g>
<g>
</g>
<g>
</g>
</svg>
