<?xml version="1.0" encoding="UTF-8" standalone="yes"?>
<svg xmlns="http://www.w3.org/2000/svg" viewBox="0 0 64 64">
  <path d="M32 44.558c14.32 0 25.93-7.55 25.93-16.86 0-3.647-1.787-7.02-4.813-9.78a24.21 24.21 0 0 1 1.173 7.37c0 7.654-8.02 13.61-19.5 14.482a1 1 0 0 1-1.073-.92.967.967 0 0 1 .042-.337.99.99 0 0 1 .877-.737C45.03 36.986 52.29 31.85 52.29 25.29c0-3.247-.815-6.608-2.273-9.713C46.707 8.527 40.063 2.802 32 2.802S17.292 8.526 13.982 15.58c-1.458 3.104-2.272 6.465-2.272 9.71 0 2.672 1.24 5.194 3.587 7.293.29.26.383.65.288 1.004a.972.972 0 0 1-.21.408 1 1 0 0 1-1.412.078C11.18 31.585 9.71 28.547 9.71 25.29c0-2.53.42-5.012 1.173-7.37-3.026 2.757-4.812 6.13-4.812 9.777 0 9.313 11.61 16.86 25.93 16.86zm0 13.06h.15v-.003c5.318-.073 5.816-2.05 5.816-2.05l-2.65-6.433c-2.765.966-3.316.204-3.316.204-.46.82-3.314-.205-3.314-.205l-2.65 6.435s.497 1.977 5.815 2.05v.002H32z"/>
</svg>