<?xml version="1.0" encoding="UTF-8" standalone="yes"?>
<svg xmlns="http://www.w3.org/2000/svg" viewBox="0 0 64 64">
  <path d="M12.696 40.08c-1.558-1.06-3.238-2.407-3.986-3.947-1.444-2.972 1.077-6.39 5.413-5.605 2.193.398 3.636 1.924 4.103 3.566a4.94 4.94 0 0 1-.016 2.838c-.235.75-.86 2.225-1.694 2.7 2.112-1.203 3.368-3.22 3.368-5.263 0-3.632-3.74-6.575-8.354-6.575-4.475 0-8.118 2.77-8.334 6.25-.347 2.823.243 8.495 9.857 10.57 12.905 2.784 18.857-3.384 18.952-3.484.096.1 6.048 6.27 18.952 3.484 9.614-2.075 10.203-7.746 9.857-10.568-.216-3.48-3.858-6.25-8.334-6.25-4.614 0-8.354 2.942-8.354 6.573 0 2.042 1.255 4.06 3.368 5.262-.835-.475-1.46-1.95-1.694-2.7a4.925 4.925 0 0 1-.016-2.838c.467-1.64 1.91-3.168 4.103-3.566 4.336-.786 6.857 2.633 5.413 5.605-.748 1.54-2.428 2.888-3.986 3.948-10.158 6.91-19.112-4.19-19.304-4.343v-.007l-.005.004L32 35.73v.007c-.192.154-9.146 11.254-19.304 4.344z"/>
</svg>