<svg xmlns="http://www.w3.org/2000/svg" width="64" height="64" viewBox="0 0 64 64"><path d="M51.902 34.55c0-2.748-2.248-5.233-5.878-7.03.088 1.85.237 3.89.474 6.19l.02.21-.09.19c-.094.196-2.443 4.815-14.608 4.815a.75.75 0 0 1-.75-.75c0-.022.01-.04.013-.063a.74.74 0 0 1 .725-.684l.012-.002c.548 0 1.067-.013 1.573-.03 8.534-.31 11.086-3.1 11.586-3.79-.257-2.528-.412-4.77-.49-6.767-.35-8.827.803-12.84 1.482-15.2.602-2.084.693-2.405-.75-3.85-2.748-2.747-8.655-3.536-11.83-3.762-.51-.036-.947-.058-1.292-.07-.475-.02-.77-.02-.817-.02v.005c-3.482-.03-10.35.318-13.348 3.317-3.69 3.69 1.258 2.76.49 20.013C14.484 29.086 12 31.67 12 34.55c0 5.478 8.932 9.92 19.95 9.92 11.02 0 19.952-4.44 19.952-9.92zm-32.91-23.266a.75.75 0 0 1 .998-.36c.027.013.664.304 1.757.68 1.987.68 5.498 1.64 9.682 1.733.64.014 1.294.008 1.962-.023 2.597-.12 5.382-.61 8.18-1.71a24.106 24.106 0 0 0 1.57-.677.75.75 0 1 1 .648 1.353c-3.57 1.71-7.137 2.42-10.4 2.572-.465.022-.924.032-1.377.032-.19 0-.374-.008-.56-.012-6.737-.126-11.78-2.438-12.103-2.59a.752.752 0 0 1-.358-.998zM35.763 50.015l-.076-.04c-1.255-.49-2.676.14-3.175 1.41-.5 1.27.114 2.7 1.37 3.192.17.067.345.11.52.136 1.913.495 8.605 2.19 11.418 2.382 3.596.555 2.534-3.355 2.243-1.754-.265 1.46-4.216-.807-4.216-.807-3.203-1.944-6.536-3.71-7.714-4.326a2.49 2.49 0 0 0-.37-.192zM15.943 54.814c-.238-1.61-1.428 2.264 2.184 1.827 2.818-.1 9.56-1.572 11.49-2.005.176-.02.35-.057.525-.12 1.27-.45 1.93-1.858 1.473-3.145s-1.857-1.964-3.127-1.513l-.077.037c-.13.052-.258.108-.374.18-1.197.576-4.586 2.233-7.852 4.072 0 0-4.024 2.136-4.24.668z"/></svg>