<?xml version="1.0" encoding="iso-8859-1"?>
<!-- Generator: Adobe Illustrator 17.1.0, SVG Export Plug-In . SVG Version: 6.00 Build 0)  -->
<!DOCTYPE svg PUBLIC "-//W3C//DTD SVG 1.1//EN" "http://www.w3.org/Graphics/SVG/1.1/DTD/svg11.dtd">
<svg version="1.1" id="Capa_1" xmlns="http://www.w3.org/2000/svg" xmlns:xlink="http://www.w3.org/1999/xlink" x="0px" y="0px"
	 viewBox="0 0 206.574 206.574" style="enable-background:new 0 0 206.574 206.574;" xml:space="preserve">
<path d="M154.067,206.573c-0.422,0-0.839-0.134-1.188-0.391c-0.515-0.38-0.816-0.982-0.813-1.622l0.221-36.007l-38.886,8.371
	c-6.712,1.445-13.519,1.445-20.23,0l-38.886-8.371l0.221,36.007c0.004,0.64-0.298,1.242-0.813,1.622
	c-0.516,0.38-1.182,0.491-1.79,0.298c-0.778-0.246-19.139-6.333-24.505-33.164l-0.795-3.956
	c-5.365-26.661-12.712-63.171-7.728-94.499c0.003-0.023,0.007-0.047,0.011-0.07c5.31-33.249,21.046-56.848,44.312-66.449
	c21.736-8.971,38.358-8.392,40.088-8.303c1.727-0.089,18.351-0.668,40.088,8.303c23.266,9.601,39.002,33.199,44.312,66.449
	c0.004,0.023,0.008,0.047,0.011,0.07c4.984,31.328-2.362,67.838-7.728,94.499l-0.795,3.956
	c-5.366,26.831-23.727,32.918-24.505,33.164C154.472,206.543,154.269,206.573,154.067,206.573z M156.304,166.086
	C156.304,166.086,156.304,166.086,156.304,166.086l-0.218,35.417c4.94-2.604,15.411-10.195,19.167-28.972l0.795-3.96
	c5.125-25.467,12.078-60.022,8.154-89.941l-70.265,48.823c-0.189,0.2-0.42,0.361-0.677,0.471l-7.974,5.54v17.724l19.082,12.721
	l6.867-6.104l-11.687-12.317c-0.398-0.421-0.596-0.994-0.539-1.57c0.056-0.577,0.359-1.102,0.832-1.437l53.852-38.264
	c0.757-0.537,1.789-0.484,2.484,0.134c0.696,0.617,0.875,1.633,0.432,2.451l-20.133,37.114L156.304,166.086z M22.372,78.63
	c-3.924,29.919,3.029,64.475,8.154,89.941l0.795,3.96c3.722,18.607,14.23,26.292,19.166,28.943l-0.217-35.388
	c0-0.001,0-0.001,0-0.001l-0.173-22.171l-20.133-37.114c-0.443-0.818-0.265-1.834,0.432-2.451s1.728-0.672,2.484-0.133
	l53.851,38.263c0.473,0.335,0.776,0.859,0.832,1.437c0.057,0.576-0.141,1.149-0.539,1.57l-11.687,12.317l6.867,6.104l19.082-12.721
	v-17.724l-7.974-5.54c-0.257-0.109-0.488-0.271-0.678-0.472L22.372,78.63z M54.258,164.456l39.756,8.559
	c6.154,1.324,12.393,1.324,18.547,0l39.756-8.559l0.165-21.071c0.003-0.328,0.086-0.649,0.242-0.938l16.261-29.977l-44.946,31.936
	l11.522,12.144c0.373,0.394,0.57,0.921,0.547,1.462c-0.022,0.541-0.265,1.05-0.669,1.41l-9.565,8.503
	c-0.682,0.604-1.682,0.674-2.438,0.169l-20.147-13.432l-20.147,13.432c-0.758,0.506-1.758,0.434-2.438-0.169l-9.565-8.503
	c-0.404-0.36-0.646-0.869-0.669-1.41c-0.023-0.541,0.174-1.068,0.547-1.462l11.522-12.144L37.591,112.47l16.261,29.977
	c0.156,0.289,0.239,0.61,0.242,0.938L54.258,164.456z M96.059,124.961l7.228,5.021l7.228-5.021l1.419-49.695H94.641L96.059,124.961z
	 M81.559,114.886l10.418,7.238L90.64,75.266H78.485C79.273,92.393,81.119,110.663,81.559,114.886z M115.934,75.266l-1.338,46.858
	l10.419-7.239c0.44-4.225,2.286-22.495,3.074-39.619H115.934z M23.035,74.221l54.199,37.659c-0.743-7.529-2.221-23.628-2.833-38.455
	c-0.004-0.05-0.006-0.101-0.006-0.151c-0.168-4.114-0.27-8.128-0.27-11.83c0-0.775,0.005-1.566,0.013-2.371
	c-0.002-0.016-0.003-0.031-0.005-0.047c-0.014-0.155-0.01-0.31,0.011-0.458c0.228-17.977,2.451-42.572,3.25-50.894
	c-3.945,1.099-8.203,2.521-12.67,4.365C43.071,20.976,28.297,43.032,23.035,74.221z M132.175,73.392
	c-0.611,14.836-2.09,30.951-2.834,38.488l54.198-37.659c-5.262-31.188-20.037-53.246-41.689-62.182
	c-4.471-1.845-8.728-3.27-12.669-4.368c0.798,8.317,3.022,32.917,3.25,50.896c0.021,0.148,0.024,0.303,0.011,0.458
	c-0.002,0.016-0.003,0.031-0.005,0.047c0.008,0.805,0.013,1.596,0.013,2.371c0,3.712-0.102,7.738-0.271,11.863
	C132.178,73.335,132.177,73.363,132.175,73.392z M114.002,71.266h14.253c0.123-3.412,0.194-6.728,0.194-9.822
	c0-0.251,0-0.503-0.001-0.757c-4.052-0.316-14.312-1.022-25.161-1.022c-10.854,0-21.109,0.706-25.16,1.022
	c-0.001,0.254-0.001,0.506-0.001,0.757c0,3.094,0.071,6.411,0.194,9.822h14.253c0.008,0,0.016,0,0.023,0h21.382
	C113.986,71.266,113.994,71.266,114.002,71.266z M103.287,55.664c10.667,0,20.769,0.674,25.112,1.007
	c-0.375-18.852-2.736-43.906-3.341-50.063c-12.894-3.056-21.529-2.576-21.646-2.569c-0.084,0.006-0.168,0.006-0.248,0
	c-0.118-0.008-8.779-0.47-21.648,2.575c-0.604,6.164-2.965,31.21-3.34,50.058C82.519,56.338,92.621,55.664,103.287,55.664z"/>
<g>
</g>
<g>
</g>
<g>
</g>
<g>
</g>
<g>
</g>
<g>
</g>
<g>
</g>
<g>
</g>
<g>
</g>
<g>
</g>
<g>
</g>
<g>
</g>
<g>
</g>
<g>
</g>
<g>
</g>
</svg>
