<?xml version="1.0" encoding="iso-8859-1"?>
<!-- Generator: Adobe Illustrator 17.1.0, SVG Export Plug-In . SVG Version: 6.00 Build 0)  -->
<!DOCTYPE svg PUBLIC "-//W3C//DTD SVG 1.1//EN" "http://www.w3.org/Graphics/SVG/1.1/DTD/svg11.dtd">
<svg version="1.1" id="Capa_1" xmlns="http://www.w3.org/2000/svg" xmlns:xlink="http://www.w3.org/1999/xlink" x="0px" y="0px"
	 viewBox="0 0 223.62 223.62" style="enable-background:new 0 0 223.62 223.62;" xml:space="preserve">
<path d="M185.379,203.583c-0.167,0-0.335-0.021-0.503-0.064l-40.349-10.477c-0.886-0.229-1.503-1.032-1.498-1.947l0.155-25.624
	l-2.708-5.391c-0.373-0.742-0.248-1.638,0.313-2.25l3.229-3.517l0.667-8.012l-2.42-5.101c-0.368-0.776-0.199-1.702,0.42-2.298
	l2.968-2.858c-0.013-1.911-0.047-6.707-0.102-11.219l-13.898-5.573c-9.753-3.912-14.506-15.029-10.595-24.783l2.02-5.035
	c-0.96-0.381-1.824-0.723-2.558-1.014c-0.509-0.201-0.913-0.603-1.118-1.109c-0.046-0.107-1.341-3.056-5.271-4.632l-2.321-0.931
	l-2.32,0.93c-3.946,1.583-5.26,4.603-5.272,4.633c-0.205,0.507-0.609,0.908-1.118,1.109c-0.551,0.219-1.176,0.466-1.86,0.737
	l2.13,5.312c3.912,9.754-0.841,20.871-10.594,24.783l-14.711,5.899c-0.053,4.414-0.086,9.027-0.098,10.893l2.968,2.858
	c0.619,0.596,0.788,1.521,0.42,2.298l-2.42,5.101l0.666,8.012l3.229,3.517c0.562,0.612,0.687,1.508,0.314,2.25l-2.708,5.391
	l0.124,20.431c0,0.008,0,0.015,0,0.021l0.031,5.172c0.005,0.915-0.611,1.718-1.498,1.947l-40.349,10.477
	c-0.974,0.255-1.985-0.258-2.359-1.191l-1.643-4.097l-6.112,0.549c-0.557,0.046-1.114-0.137-1.529-0.517
	c-0.414-0.379-0.65-0.915-0.65-1.477l0.021-44.087l-1.97-0.896c-0.809-0.369-1.278-1.229-1.15-2.108
	c0.638-4.388,1.324-16.742-3.101-21.158c-3.01-3.007-7.603-1.893-11.653-0.911c-3.172,0.769-5.677,1.376-7.36-0.213
	c-0.882-0.834-1.307-1.929-1.229-3.166c0.19-2.984,3.509-6.848,9.864-11.482c1.763-1.286,2.419-3.223,2.451-5.537
	c0-0.032,0-0.064,0.001-0.097c0.016-2.444-0.65-5.303-1.436-8.258c-0.218-0.819-0.418-1.576-0.571-2.245l-7.944-1.963
	c-1.072-0.265-1.727-1.349-1.462-2.421c0.266-1.072,1.347-1.728,2.421-1.462l6.6,1.63c0.037-4.751,1.176-10.168,1.239-10.463
	c0.139-0.651,0.593-1.191,1.211-1.439l51.979-20.847l-16.696-6.696c-1.025-0.411-1.523-1.576-1.112-2.601l3.254-8.114l-3.451-1.384
	c-1.025-0.411-1.523-1.576-1.112-2.601l5.365-13.378c0.198-0.492,0.583-0.887,1.07-1.095c0.488-0.209,1.039-0.215,1.531-0.018
	l3.451,1.385l1.551-3.868c0.411-1.026,1.577-1.523,2.601-1.112l50.993,20.452l50.993-20.452c1.024-0.41,2.189,0.087,2.601,1.112
	l1.664,4.147l4.147-1.664c0.494-0.197,1.043-0.19,1.531,0.018c0.488,0.208,0.873,0.603,1.07,1.095l5.365,13.378
	c0.411,1.024-0.087,2.189-1.112,2.601l-4.147,1.663l3.142,7.835c0.411,1.024-0.087,2.189-1.112,2.601l-16.696,6.696l51.979,20.847
	c0.618,0.248,1.073,0.788,1.211,1.439c0.063,0.299,1.235,5.865,1.24,10.663l7.408-1.83c1.075-0.265,2.156,0.39,2.421,1.462
	c0.265,1.072-0.39,2.156-1.462,2.421l-8.802,2.175c-0.145,0.615-0.326,1.299-0.521,2.033c-0.753,2.833-1.396,5.577-1.434,7.953
	c0.001,0.047,0,0.095-0.001,0.143c-0.014,2.429,0.623,4.463,2.452,5.796c6.355,4.635,9.674,8.498,9.864,11.482
	c0.079,1.237-0.346,2.331-1.229,3.165c-1.683,1.589-4.188,0.981-7.361,0.214c-4.051-0.983-8.642-2.095-11.652,0.91
	c-4.435,4.428-3.742,16.774-3.101,21.158c0.129,0.881-0.34,1.74-1.15,2.109l-1.97,0.896l0.021,44.087
	c0,0.562-0.236,1.098-0.65,1.477c-0.415,0.38-0.969,0.563-1.528,0.517l-6.112-0.549l-1.643,4.097
	C186.925,203.1,186.179,203.583,185.379,203.583z M147.039,189.561l37.138,9.644l0.75-1.871l-2.203-0.527
	c-0.009-0.002-0.018-0.004-0.026-0.006l-28.074-6.724c-0.016-0.004-0.032-0.008-0.048-0.013l-7.53-1.803L147.039,189.561z
	 M38.763,197.51l0.679,1.694l37.138-9.644l-0.007-1.106l-6.717,1.608c-0.018,0.005-0.035,0.009-0.052,0.014l-28.074,6.724
	c-0.011,0.002-0.022,0.005-0.034,0.008L38.763,197.51z M189.088,194.233l4.08,0.366l-0.021-43.186c0-0.784,0.458-1.496,1.171-1.821
	l1.81-0.824c-0.462-4.442-1.253-17.405,4.415-23.063c4.598-4.591,11.109-3.014,15.421-1.968c1.27,0.307,2.961,0.727,3.674,0.671
	c-0.055-0.85-2.013-3.865-8.248-8.412c-2.739-1.998-3.81-4.8-4.034-7.745L87.665,60.246l-2.561,6.158l27.854,11.171
	c0.354,0.143,0.651,0.378,0.867,0.672l1.794,0.72c4.181,1.677,6.262,4.586,7.072,6.013c0.607,0.24,1.562,0.619,2.754,1.092
	c0.356-0.062,0.731-0.029,1.089,0.114c0.354,0.143,0.645,0.374,0.858,0.659c4.524,1.797,10.947,4.354,15.551,6.208
	c0.773-0.135,1.526,0.19,1.964,0.794c1.875,0.76,3.215,1.313,3.627,1.504l0.125,0.058c2.41,1.115,4.157,2.246,4.701,6.657
	c0.276,2.239-0.666,4.681-1.758,7.508c-1.044,2.705-2.229,5.771-2.162,8.599c0.027,1.139,0.051,2.515,0.073,3.997
	c0.73,0.524,1.037,1.497,0.688,2.368c-0.14,0.349-0.367,0.637-0.646,0.848c0.065,5.602,0.1,11.408,0.1,11.494
	c0.003,0.548-0.218,1.072-0.613,1.452l-2.549,2.455l2.034,4.287c0.151,0.318,0.215,0.672,0.186,1.023l-0.768,9.23
	c-0.037,0.442-0.22,0.859-0.52,1.187l-2.758,3.005l2.304,4.586c0.142,0.282,0.215,0.594,0.213,0.909l-0.116,19.141l6.221,1.49
	l6.292-74.578c0.297-3.512,2.187-6.587,5.187-8.437c2.999-1.851,6.595-2.159,9.868-0.847l9.738,3.905
	c4.197,1.685,6.907,5.694,6.905,10.215l-0.041,72.477c0,0.508-0.194,0.997-0.542,1.367l-3.721,3.966l1.871,0.447
	C188.932,194.179,189.011,194.204,189.088,194.233z M27.492,148.768l1.81,0.824c0.713,0.325,1.171,1.037,1.171,1.821l-0.021,43.186
	l5.268-0.473l1.729-0.414l-3.721-3.966c-0.348-0.37-0.541-0.859-0.542-1.367l-0.041-72.477c-0.003-4.521,2.707-8.53,6.904-10.215
	l9.74-3.905c3.271-1.312,6.867-1.003,9.867,0.847c3,1.85,4.89,4.925,5.187,8.437l6.292,74.578l5.413-1.297l-0.117-19.334
	c-0.002-0.315,0.071-0.627,0.213-0.909l2.304-4.586l-2.758-3.005c-0.3-0.327-0.483-0.744-0.52-1.187l-0.767-9.23
	c-0.029-0.352,0.035-0.705,0.186-1.023l2.034-4.287l-2.549-2.455c-0.395-0.38-0.616-0.904-0.613-1.452
	c0-0.094,0.042-7.037,0.12-13.064c0-0.031,0-0.063,0.001-0.094c0.027-2.067,0.059-4.021,0.094-5.549
	c0.066-2.827-1.118-5.894-2.162-8.599c-1.092-2.827-2.034-5.269-1.758-7.508c0.544-4.411,2.292-5.542,4.701-6.657l0.125-0.058
	c0.526-0.244,2.56-1.075,5.285-2.175c0.016-0.006,0.031-0.012,0.046-0.019c6.723-2.71,17.605-7.026,20.512-8.178
	c0.711-1.251,2.398-3.641,5.621-5.342l-9.067-3.636l-81.246,32.584c-0.279,2.821-1.37,5.488-4.004,7.41
	c-6.137,4.476-8.13,7.468-8.23,8.414c0.713,0.037,2.396-0.367,3.656-0.673c4.309-1.045,10.823-2.624,15.421,1.968
	C28.745,131.362,27.954,144.326,27.492,148.768z M157.227,186.587l25.273,6.053l4.741-5.053l0.041-71.686
	c0.001-2.877-1.723-5.429-4.394-6.5l-9.738-3.905c-2.082-0.836-4.37-0.639-6.279,0.539c-1.909,1.177-3.111,3.133-3.3,5.367
	L157.227,186.587z M37.186,187.587l4.742,5.053l25.272-6.053l-6.343-75.185c-0.189-2.234-1.392-4.19-3.301-5.368
	c-1.908-1.177-4.197-1.374-6.278-0.538l-9.739,3.905c-2.671,1.071-4.396,3.623-4.394,6.5L37.186,187.587z M78.854,98.105
	c-1.081,0.441-1.822,0.751-2.088,0.874l-0.128,0.06c-1.653,0.765-2.098,0.971-2.412,3.517c-0.153,1.244,0.659,3.349,1.52,5.577
	c1.179,3.052,2.515,6.512,2.43,10.133c-0.018,0.758-0.035,1.621-0.05,2.553l10.239-4.106c-2.624-1.761-5.904-4.687-7.649-9.037
	C79.193,103.878,78.841,100.487,78.854,98.105z M136.064,116.712l9.424,3.779c-0.014-0.807-0.029-1.558-0.044-2.226
	c-0.084-3.621,1.251-7.081,2.43-10.133c0.86-2.229,1.673-4.333,1.52-5.577c-0.314-2.546-0.758-2.752-2.412-3.517l-0.128-0.06
	c-0.193-0.09-0.637-0.277-1.28-0.543c-0.021,2.361-0.407,5.614-1.861,9.238C141.968,112.025,138.687,114.951,136.064,116.712z
	 M82.945,96.451c-0.173,1.691-0.257,5.396,1.483,9.735c1.986,4.952,6.664,7.66,8.517,8.569c6.57-3.612,9.572-11.666,6.711-18.798
	l-2.135-5.324C92.903,92.468,87.216,94.734,82.945,96.451z M126.795,90.911l-2.024,5.047c-1.498,3.733-1.451,7.826,0.13,11.525
	c1.338,3.129,3.639,5.659,6.577,7.271c1.857-0.919,6.549-3.649,8.522-8.567c1.649-4.11,1.674-7.595,1.523-9.395
	C137.383,95.125,131.599,92.82,126.795,90.911z M14.051,94.822c0.032,0.244,0.072,0.477,0.119,0.694
	c0.146,0.679,0.356,1.466,0.585,2.329c0.486,1.83,1.09,4.102,1.382,6.47l75.97-30.469L80.95,69.372
	c-0.944-0.379-1.441-1.396-1.192-2.355L13.94,93.413c0.015,0.443,0.045,0.865,0.092,1.259C14.04,94.721,14.047,94.771,14.051,94.822
	z M88.044,56.089l119.478,47.919c0.304-2.257,0.876-4.412,1.342-6.163c0.229-0.862,0.439-1.649,0.585-2.328
	c0.149-0.689,0.221-1.52,0.238-2.424L58.808,32.579L56.3,38.832l20.475,8.212c1.062,0.383,6.781,2.547,8.803,5.175
	C86.802,53.811,87.612,55.246,88.044,56.089z M14.88,83.817c-0.249,1.337-0.552,3.243-0.748,5.21l61.724-24.756l-6.12-2.454
	L14.88,83.817z M60.296,28.866l149.157,59.822c-0.196-1.846-0.479-3.611-0.714-4.87L61.184,24.637l-0.97,2.419
	c0.288,0.511,0.35,1.143,0.115,1.729L60.296,28.866z M70.141,57.5c0.253,0,0.505,0.048,0.745,0.144l10.748,4.311l0.451-0.181
	c0.219-0.088,0.444-0.134,0.667-0.143l1.634-3.909c-0.367-0.694-1.021-1.82-1.978-3.063c-0.971-1.262-4.711-3.027-7.058-3.877
	l-20.578-8.252c-0.214,0.32-0.518,0.575-0.877,0.729c-0.068,0.029-0.138,0.055-0.208,0.076l-2.673,6.664l18.781,7.532
	C69.909,57.51,70.025,57.5,70.141,57.5z M143.919,53.186l10.369,4.158l18.319-7.347l-2.989-7.453l-20.475,8.212
	C147.588,51.32,145.48,52.255,143.919,53.186z M129.08,47.234l10.486,4.206c2.413-2.268,7.14-4.055,8.152-4.421l20.411-8.187
	l-2.508-6.254L129.08,47.234z M117.587,42.625l6.121,2.455l40.424-16.213l-1.696-4.229L117.587,42.625z M170.896,34.987l1.537,3.831
	l2.292-0.919l-3.876-9.666l-2.292,0.919L170.896,34.987z M49.704,37.899l1.595,0.64l3.876-9.666l-1.595-0.64L49.704,37.899z"/>
<g>
</g>
<g>
</g>
<g>
</g>
<g>
</g>
<g>
</g>
<g>
</g>
<g>
</g>
<g>
</g>
<g>
</g>
<g>
</g>
<g>
</g>
<g>
</g>
<g>
</g>
<g>
</g>
<g>
</g>
</svg>
