<?xml version="1.0" encoding="iso-8859-1"?>
<!-- Generator: Adobe Illustrator 17.1.0, SVG Export Plug-In . SVG Version: 6.00 Build 0)  -->
<!DOCTYPE svg PUBLIC "-//W3C//DTD SVG 1.1//EN" "http://www.w3.org/Graphics/SVG/1.1/DTD/svg11.dtd">
<svg version="1.1" id="Capa_1" xmlns="http://www.w3.org/2000/svg" xmlns:xlink="http://www.w3.org/1999/xlink" x="0px" y="0px"
	 viewBox="0 0 212.44 212.44" style="enable-background:new 0 0 212.44 212.44;" xml:space="preserve">
<path d="M106.22,212.44c-46.442,0-87.181-53.646-87.181-114.803c0-27.814,9.049-52.944,25.479-70.759
	C60.503,9.545,82.416,0,106.22,0s45.717,9.545,61.702,26.878c16.43,17.815,25.479,42.945,25.479,70.759
	C193.401,158.794,152.663,212.44,106.22,212.44z M106.22,4C58.022,4,23.04,43.38,23.04,97.637c0,27.539,8.952,55.533,24.562,76.803
	c16.089,21.925,36.907,34,58.619,34s42.53-12.075,58.619-34c15.609-21.271,24.562-49.265,24.562-76.803
	C189.401,43.38,154.418,4,106.22,4z M117.083,199.563c-3.619,0-6.563-2.944-6.563-6.564c0-3.619,2.944-6.564,6.563-6.564
	s6.563,2.945,6.563,6.564C123.646,196.619,120.702,199.563,117.083,199.563z M117.083,190.436c-1.413,0-2.563,1.15-2.563,2.564
	s1.15,2.564,2.563,2.564s2.563-1.15,2.563-2.564S118.496,190.436,117.083,190.436z M95.359,199.563c-3.62,0-6.564-2.944-6.564-6.564
	c0-3.619,2.944-6.564,6.564-6.564c3.619,0,6.563,2.945,6.563,6.564C101.922,196.619,98.978,199.563,95.359,199.563z M95.359,190.436
	c-1.414,0-2.564,1.15-2.564,2.564s1.15,2.564,2.564,2.564c1.413,0,2.563-1.15,2.563-2.564S96.772,190.436,95.359,190.436z
	 M117.083,180.023c-3.619,0-6.563-2.944-6.563-6.564c0-3.619,2.944-6.564,6.563-6.564s6.563,2.945,6.563,6.564
	C123.646,177.079,120.702,180.023,117.083,180.023z M117.083,170.895c-1.413,0-2.563,1.15-2.563,2.564s1.15,2.564,2.563,2.564
	s2.563-1.15,2.563-2.564S118.496,170.895,117.083,170.895z M95.359,180.023c-3.62,0-6.564-2.944-6.564-6.564
	c0-3.619,2.944-6.564,6.564-6.564c3.619,0,6.563,2.945,6.563,6.564C101.922,177.079,98.978,180.023,95.359,180.023z M95.359,170.895
	c-1.414,0-2.564,1.15-2.564,2.564s1.15,2.564,2.564,2.564c1.413,0,2.563-1.15,2.563-2.564S96.772,170.895,95.359,170.895z
	 M117.083,160.482c-3.619,0-6.563-2.945-6.563-6.564s2.944-6.564,6.563-6.564s6.563,2.945,6.563,6.564
	S120.702,160.482,117.083,160.482z M117.083,151.354c-1.413,0-2.563,1.15-2.563,2.564s1.15,2.564,2.563,2.564
	s2.563-1.15,2.563-2.564S118.496,151.354,117.083,151.354z M95.359,160.482c-3.62,0-6.564-2.945-6.564-6.564
	s2.944-6.564,6.564-6.564c3.619,0,6.563,2.945,6.563,6.564S98.978,160.482,95.359,160.482z M95.359,151.354
	c-1.414,0-2.564,1.15-2.564,2.564s1.15,2.564,2.564,2.564c1.413,0,2.563-1.15,2.563-2.564S96.772,151.354,95.359,151.354z
	 M150.035,154.624c-0.622,0-1.23-0.29-1.619-0.825c-0.03-0.041-3.06-4.215-7.293-10.339c-4.245-6.141-13.308-20.545-13.399-20.689
	c-0.448-0.713-0.401-1.631,0.116-2.295c0.521-0.665,1.402-0.93,2.198-0.67c0.403,0.131,9.955,3.311,18.264,10.966
	c8.23,7.583,12.57,15.439,12.751,15.77c0.528,0.966,0.176,2.176-0.787,2.709l-9.264,5.125
	C150.697,154.543,150.364,154.624,150.035,154.624z M134.597,126.146c3.021,4.744,7.291,11.388,9.816,15.04
	c2.744,3.971,4.978,7.114,6.206,8.829l5.892-3.259c-1.685-2.643-5.399-7.957-10.921-13.043
	C141.851,130.267,137.79,127.787,134.597,126.146z M62.407,154.624c-0.329,0-0.661-0.081-0.967-0.25l-9.264-5.125
	c-0.963-0.533-1.315-1.743-0.787-2.709c0.181-0.331,4.521-8.187,12.751-15.77c8.308-7.655,17.86-10.834,18.264-10.966
	c0.798-0.26,1.679,0.005,2.198,0.67c0.518,0.664,0.564,1.582,0.116,2.295c-0.092,0.145-9.155,14.548-13.399,20.689
	c-4.233,6.124-7.263,10.298-7.293,10.339C63.637,154.334,63.029,154.624,62.407,154.624z M55.929,146.754l5.893,3.26
	c1.229-1.715,3.462-4.857,6.206-8.829c2.523-3.651,6.791-10.289,9.812-15.033c-3.197,1.644-7.261,4.125-10.988,7.559
	C61.312,138.815,57.608,144.116,55.929,146.754z M140.514,107.475c-7.28,0-12.179-2.677-14.977-8.183
	c-2.19-4.311-2.32-9.599-2.328-10.303c-0.194-3.279,1.993-9.944,11.702-12.17c2.396-0.55,4.637-0.828,6.656-0.828
	c8.072,0,12.844,4.415,13.092,12.113c0.199,6.169-1.711,11.984-5.107,15.554c-2.319,2.437-5.261,3.755-8.505,3.812L140.514,107.475z
	 M141.568,79.991c-1.72,0-3.658,0.245-5.762,0.727c-8.781,2.014-8.611,7.835-8.601,8.082c0.002,0.031,0.004,0.087,0.004,0.118
	c0,0.046,0.034,4.901,1.895,8.563c1.418,2.791,3.996,5.994,11.41,5.994l0.463-0.004c2.181-0.038,4.091-0.903,5.677-2.57
	c2.635-2.769,4.171-7.623,4.008-12.668C150.485,82.764,147.426,79.991,141.568,79.991z M71.927,107.475L71.927,107.475l-0.533-0.005
	c-3.244-0.056-6.186-1.375-8.504-3.812c-3.397-3.57-5.308-9.385-5.108-15.554c0.248-7.698,5.02-12.113,13.092-12.113
	c2.02,0,4.26,0.278,6.656,0.828c9.709,2.226,11.896,8.891,11.702,12.17c-0.008,0.704-0.138,5.992-2.328,10.303
	C84.105,104.798,79.206,107.475,71.927,107.475z M70.874,79.991c-5.858,0-8.917,2.773-9.094,8.242
	c-0.163,5.045,1.373,9.899,4.008,12.668c1.586,1.667,3.496,2.532,5.677,2.57l0.463,0.004c7.412,0,9.992-3.204,11.41-5.995
	c1.873-3.686,1.895-8.514,1.895-8.563c0-0.047,0.002-0.094,0.005-0.141c0.01-0.224,0.18-6.045-8.602-8.059
	C74.532,80.236,72.593,79.991,70.874,79.991z M106.22,82.88c-0.41,0-0.821-0.126-1.171-0.378
	c-0.099-0.071-9.972-7.175-18.346-11.318c-8.191-4.053-16.608-5.064-16.692-5.074c-0.956-0.111-1.698-0.886-1.766-1.845
	c-0.068-0.959,0.556-1.832,1.486-2.076c0.237-0.063,5.904-1.529,13.104-1.529c3.191,0,6.213,0.292,8.978,0.87
	c7.896,1.648,12.477,3.672,14.407,4.667c1.931-0.995,6.512-3.019,14.408-4.667c2.765-0.577,5.785-0.87,8.978-0.87
	c7.198,0,12.866,1.466,13.104,1.529c0.931,0.245,1.555,1.117,1.486,2.076c-0.067,0.959-0.81,1.734-1.766,1.845
	c-0.084,0.01-8.501,1.021-16.692,5.074c-8.375,4.144-18.248,11.247-18.347,11.318C107.042,82.754,106.63,82.88,106.22,82.88z
	 M81.326,64.683c2.263,0.75,4.705,1.706,7.151,2.916c7.038,3.482,14.83,8.79,17.743,10.831c2.913-2.041,10.705-7.349,17.744-10.831
	c2.446-1.21,4.889-2.166,7.15-2.916c-0.494-0.015-0.997-0.023-1.509-0.023c-2.918,0-5.664,0.264-8.161,0.786
	c-9.851,2.056-14.107,4.697-14.148,4.724c-0.657,0.416-1.504,0.418-2.159-0.005c-0.034-0.021-4.291-2.663-14.141-4.719
	c-2.497-0.521-5.243-0.786-8.161-0.786C82.324,64.66,81.82,64.668,81.326,64.683z M117.083,52.208c-3.619,0-6.563-2.945-6.563-6.564
	s2.944-6.563,6.563-6.563s6.563,2.944,6.563,6.563S120.702,52.208,117.083,52.208z M117.083,43.081c-1.413,0-2.563,1.15-2.563,2.563
	s1.15,2.564,2.563,2.564s2.563-1.15,2.563-2.564S118.496,43.081,117.083,43.081z M95.359,52.208c-3.62,0-6.564-2.945-6.564-6.564
	s2.944-6.563,6.564-6.563c3.619,0,6.563,2.944,6.563,6.563S98.978,52.208,95.359,52.208z M95.359,43.081
	c-1.414,0-2.564,1.15-2.564,2.563s1.15,2.564,2.564,2.564c1.413,0,2.563-1.15,2.563-2.564S96.772,43.081,95.359,43.081z"/>
<g>
</g>
<g>
</g>
<g>
</g>
<g>
</g>
<g>
</g>
<g>
</g>
<g>
</g>
<g>
</g>
<g>
</g>
<g>
</g>
<g>
</g>
<g>
</g>
<g>
</g>
<g>
</g>
<g>
</g>
</svg>
