<?xml version="1.0" encoding="UTF-8" standalone="yes"?>
<svg xmlns="http://www.w3.org/2000/svg" viewBox="0 0 126 126">
  <path fill-rule="evenodd" clip-rule="evenodd" d="M119.228 41.644a1 1 0 0 0-.68-.886.996.996 0 0 0-1.078.297c-1.154 1.348-2.38 1.575-4.474.803-2.778-1.023-5.522-2.195-7.876-3.214-7.423-3.214-14.13-4.528-20.677-4.048-5.713.413-11.136 1.545-16.12 3.362-1.806.658-3.612 1.032-5.28 1.11-1.755-.078-3.562-.452-5.368-1.11-4.983-1.817-10.406-2.95-16.12-3.362-6.545-.48-13.253.834-20.675 4.048-2.354 1.02-5.098 2.19-7.877 3.214-2.09.77-3.32.544-4.474-.803a1 1 0 0 0-1.76.59c-.75 11.978.65 21.542 4.406 30.1 2.715 6.19 6.36 10.812 11.147 14.13 8.35 5.79 17.532 7.12 26.996 3.905 1.833-.623 3.463-1.732 5.04-2.806.31-.21.617-.42.926-.626 3.094-2.06 5.72-3.103 7.8-3.103 2.02 0 4.443.986 7.625 3.104.31.202.617.412.926.623 1.577 1.073 3.207 2.183 5.04 2.806 3.362 1.14 6.72 1.72 9.976 1.72 5.91 0 11.637-1.894 17.02-5.626 4.786-3.318 8.433-7.94 11.147-14.13 3.756-8.558 5.156-18.123 4.407-30.1zm-1.983 10.954c-.032.48-.065.958-.106 1.43a9.104 9.104 0 0 1-2.373.367c-1.252.027-2.515-.448-3.772-.71-.023.003-.046.01-.07.012l.023-.022-.03-.007a.41.41 0 0 0 .035 0c.166-.147.316-.36.508-.405 2.04-.487 3.327-1.874 4.434-3.546.488-.74.975-1.22 1.514-1.485a77.04 77.04 0 0 1-.067 2.834c-.07.027-.142.052-.21.088-1.94 1.055-3.82 2.226-6.067 2.52 2.217.14 4.336-.027 6.18-1.076zm-4.327 18.497a22.334 22.334 0 0 0-1.27-1.396c-1.954-1.956-4.018-3.405-6.174-4.404.46-.833.874-1.672 1.24-2.5.125.028.252.05.378.08 3.044.722 5.568 2.026 7.504 3.81-.48 1.448-1 2.872-1.607 4.255-.024.053-.05.1-.073.154zm-42.146 12.92a30.685 30.685 0 0 0-1-.595 37.875 37.875 0 0 1 8.783-7.86 35.818 35.818 0 0 1 2.63-1.535c.916.254 1.894.492 2.93.688-3.087 1.208-6.067 2.874-8.925 5.07a29.208 29.208 0 0 0-4.418 4.23zm-19.963-4.27c-2.84-2.18-5.798-3.84-8.86-5.046a35.9 35.9 0 0 0 2.91-.69c.868.464 1.73.96 2.584 1.513a37.91 37.91 0 0 1 8.813 7.894 28.51 28.51 0 0 0-1.006.586 29.132 29.132 0 0 0-4.442-4.258zm-37.8-8.804a48.876 48.876 0 0 1-1.618-4.28c1.937-1.79 4.464-3.097 7.514-3.82.12-.03.243-.05.364-.075.366.828.778 1.67 1.24 2.503-2.15 1-4.21 2.446-6.16 4.396-.454.455-.874.93-1.278 1.41-.02-.046-.043-.087-.063-.132zM8.865 51.117c-.066-.036-.14-.06-.21-.088a79.32 79.32 0 0 1-.067-2.834c.54.266 1.025.746 1.514 1.485 1.106 1.67 2.392 3.06 4.433 3.545.192.045.342.258.508.406h.035c-.01 0-.02.005-.028.007l.023.022c-.024-.004-.046-.01-.07-.013-1.258.262-2.52.737-3.772.71a9.127 9.127 0 0 1-2.374-.368 64.52 64.52 0 0 1-.108-1.43c1.845 1.05 3.965 1.216 6.185 1.076-2.25-.294-4.13-1.465-6.07-2.52zm4.13-3.45c1.95 1.488 4.197 2.315 6.527 2.993.02-.114.046-.16.033-.19a7.36 7.36 0 0 0-.272-.52c-1.407-2.405-2.318-4.847-2.75-7.315.712-.286 1.408-.57 2.09-.856a17.75 17.75 0 0 0 4.966 9.37c-3.097.468-5.402 1.22-6.117 1.473a26.36 26.36 0 0 1-1.597-.443c-4.197-1.34-6.25-4.238-5.834-7.983.234.045.475.073.723.083.292 1.32 1.01 2.453 2.232 3.385zm56.486 9.706c-.052-.353.427-.786.673-1.186.422.263 1.045.443 1.203.817.12.29-.345.824-.676 1.515-.567-.507-1.148-.786-1.2-1.144zm-.742 3.852c-.763.126-1.323-.263-1.48-1.04-.17-.848.223-1.487 1.074-1.492.54-.002 1.08.415 1.456.575.117 1.224-.21 1.822-1.05 1.957zm2.466-6.32c.053-.334.382-.807.676-.872.272-.062.646.333 1.254.69-.557.41-.854.792-1.167.808-.263.01-.794-.444-.765-.626zm-7.02 11.883c-.264-.925-.543-1.91-.83-2.89-.264-.91.24-1.6 1.63-2.147.88 2.256.608 3.735-.8 5.037zm-1.543-2.928c-.286.98-.564 1.965-.83 2.89-1.407-1.3-1.68-2.78-.798-5.037 1.39.55 1.893 1.24 1.628 2.147zm-6.8-7.71c.247.4.726.832.674 1.186-.053.358-.634.637-1.2 1.145-.332-.69-.796-1.225-.675-1.514.157-.374.78-.555 1.202-.818zm-1.812-.657c-.31-.015-.607-.397-1.165-.807.608-.357.982-.752 1.254-.69.292.065.622.538.675.872.03.182-.502.637-.763.626zm2.18 3.738c.377-.16.918-.576 1.457-.574.85.005 1.245.645 1.074 1.493-.156.775-.716 1.164-1.48 1.04-.84-.137-1.166-.735-1.05-1.96zM47.935 47.9c2.15 3.936 4.525 7.763 7.01 11.498 2.746 4.12 5.528 8.216 8.057 12.463v.038c2.53-4.247 5.31-8.342 8.057-12.463 2.486-3.735 4.862-7.563 7.01-11.498 1.82-3.333 2.285-6.966.673-10.58-.01-.02-.022-.036-.03-.057a60.99 60.99 0 0 1 1.52-.236c1.45 3.052 1.776 6.713.593 10.38-1.375 4.26-3.81 7.944-6.34 11.57C70.623 64.54 66.507 69.9 63 75.67v-.037c-3.507-5.77-7.623-11.13-11.483-16.662-2.53-3.624-4.966-7.31-6.34-11.57-1.178-3.65-.858-7.3.58-10.343.508.072 1.014.15 1.517.235-.004.008-.01.016-.012.023-1.613 3.614-1.148 7.246.67 10.58zm58.544 2.798c2.33-.678 4.578-1.505 6.527-2.993 1.232-.94 1.955-2.086 2.244-3.425.242-.01.477-.037.707-.08.43 3.762-1.62 6.676-5.83 8.018-.506.16-1.02.3-1.536.428-.63-.225-2.966-1.006-6.147-1.488a17.75 17.75 0 0 0 4.94-9.374c.682.287 1.377.57 2.09.857-.43 2.48-1.342 4.935-2.756 7.35-.1.17-.187.345-.272.52-.014.03.012.076.033.19zm-5.528 20.43c1.38.29 2.773.673 4.177 1.164.387.134.762.304 1.124.55a52.44 52.44 0 0 0-6.64-.643c.466-.338.915-.694 1.34-1.073zm-4.143.466c-2.09 1.092-4.583 1.645-7.41 1.645-5.504 0-10.827-2.098-12.75-2.94.85-2.71 4.133-11.64 11.425-15.444 2.65-1.384 5.817-2.085 9.412-2.085 4.355 0 8.196 1.047 9.79 1.55-.593 3-3.143 13.454-10.467 17.275zM63 80.554v-.036c-3.164-6.265-7.443-11.695-12.748-16.372a50.243 50.243 0 0 0-2.28-1.888 31.07 31.07 0 0 0-1.08-1.708C53.548 65.556 59.046 71.663 63 79.222v.037c3.943-7.54 9.423-13.637 16.056-18.638a30.9 30.9 0 0 0-1.066 1.7 50.53 50.53 0 0 0-2.242 1.858C70.443 68.86 66.164 74.29 63 80.555zm-26.396-7.32c-2.828 0-5.32-.552-7.41-1.643-7.313-3.813-9.87-14.272-10.466-17.276 1.594-.502 5.436-1.548 9.79-1.548 3.594 0 6.76.7 9.41 2.085 7.28 3.798 10.57 12.735 11.424 15.444-1.92.847-7.234 2.94-12.748 2.94zM25.02 71.097c.42.377.863.73 1.325 1.066-2.166.07-4.364.283-6.596.64a4.73 4.73 0 0 1 1.122-.55 33.27 33.27 0 0 1 4.146-1.156zm11.998-26.482c1.284-2.942-.316-5.27-3.554-5.172-3.772.114-6.26 4.3-4.722 7.962.618 1.47 1.605 2.597 2.79 3.528a28.56 28.56 0 0 0-1.076-.093 16.706 16.706 0 0 1-1.263-1.295c-2.175-2.52-2.098-5.916-.117-8.464 1.607-2.067 4.6-2.715 6.89-1.49 1.995 1.065 2.52 3.57 1.052 5.023zm12.547 15.842c-1.39-.336-2.688-.802-3.83-1.49a24.022 24.022 0 0 0-3.13-3.312c-.503-.93-.98-1.875-1.405-2.84-1.4-3.186-3.777-5.243-7.104-6.232 5.106-.266 9.708 2.206 11.704 6.503 1.188 2.556 2.194 5.174 4.545 6.97-2.42-.976-4.114-2.783-5.683-4.75 1.08 2.25 2.716 3.957 4.903 5.15zm47.242-10.872c-.376.436-.79.85-1.22 1.253-.354.024-.71.05-1.058.087 1.156-.922 2.12-2.037 2.726-3.482 1.537-3.662-.95-7.848-4.722-7.962-3.237-.098-4.837 2.23-3.554 5.172-1.466-1.453-.942-3.958 1.052-5.022 2.29-1.225 5.283-.577 6.89 1.49 1.983 2.548 2.06 5.945-.115 8.464zm-4.903-2.965c-3.327.987-5.703 3.045-7.104 6.23-.414.94-.88 1.865-1.37 2.773a24.088 24.088 0 0 0-3.217 3.406c-1.13.672-2.41 1.13-3.78 1.46 2.188-1.193 3.826-2.9 4.905-5.15-1.57 1.967-3.264 3.774-5.683 4.75 2.352-1.796 3.358-4.414 4.545-6.97 1.996-4.296 6.598-6.767 11.704-6.502zm11.642-6.458c.99 1.972.995 4.552-.082 6.852-.697 1.486-1.813 2.83-3.076 3.89a32.424 32.424 0 0 0-1.578-.107c.72-.767 1.315-1.674 1.802-2.707 1.205-2.56 1.59-5.303 1.718-8.095.005-.105.01-.213.013-.32.4.156.8.32 1.203.488zM89 36.562c.32.02.64.05.96.076a4.31 4.31 0 0 1-.96-.074zm-52.722.053c.053-.004.106-.012.16-.016-.055.003-.107.013-.16.014zm-12.61 3.342c.13 2.792.515 5.534 1.72 8.096.493 1.05 1.1 1.97 1.836 2.742-.538.023-1.06.06-1.573.106-1.28-1.062-2.41-2.42-3.114-3.922-1.068-2.28-1.075-4.837-.11-6.803.413-.173.824-.34 1.232-.5.005.094.008.19.012.283zM16.85 55.153c.06.28.13.595.21.942-1.257.12-2.515.233-3.774.314-1.372.087-2.754.19-4.134.257-.052-.408-.113-.81-.158-1.224a232.01 232.01 0 0 0 7.86-.29zm.215 1.286l.074-.014c.02.09.045.184.07.274-2.745.855-5.198 2.22-7.388 4.048a53.348 53.348 0 0 1-.293-1.544 22.187 22.187 0 0 1 7.536-2.765zm.49 1.542c.118.414.25.85.396 1.3a25.73 25.73 0 0 0-7.347 4.77 53.47 53.47 0 0 1-.398-1.555c2.15-1.878 4.617-3.366 7.35-4.515zM51.5 75.59a96.676 96.676 0 0 0-2.986-2.786 36.864 36.864 0 0 0 1.87-.78c2.27 2.2 4.417 4.533 6.375 7.067.77 1 1.487 2.018 2.17 3.044-.434.17-.88.37-1.335.587a51.388 51.388 0 0 0-6.095-7.13zm-1.178-8.538a36.233 36.233 0 0 0-1.636-3.523 81.747 81.747 0 0 1 2.665 2.48c4.65 4.536 8.58 9.54 11.588 15.243a9.49 9.49 0 0 0-1.646.182c-2.86-5.32-6.537-10.203-10.968-14.384zM74.65 66.05c.86-.842 1.738-1.66 2.63-2.455a36.66 36.66 0 0 0-1.626 3.515c-4.403 4.16-8.06 9.016-10.91 14.3a9.19 9.19 0 0 0-1.656-.164c3.004-5.685 6.926-10.675 11.56-15.197zm-5.41 13.077c1.965-2.544 4.12-4.884 6.4-7.092.433.196 1.068.47 1.873.78a94.985 94.985 0 0 0-3.016 2.81 51.33 51.33 0 0 0-6.058 7.08c-.456-.225-.9-.43-1.33-.6.67-1.005 1.374-2 2.13-2.978zm38.798-19.813c.146-.45.28-.885.398-1.3 2.732 1.148 5.2 2.637 7.35 4.514a55.03 55.03 0 0 1-.398 1.55 25.706 25.706 0 0 0-7.35-4.765zm.744-2.58l.068-.27c.028.004.056.007.083.012a22.154 22.154 0 0 1 7.53 2.762c-.09.52-.19 1.032-.294 1.542a21.342 21.342 0 0 0-7.387-4.046zm3.93-.288a126.022 126.022 0 0 1-3.782-.315c.082-.346.15-.66.21-.94 2.62.136 5.24.244 7.86.29-.044.415-.105.817-.158 1.225-1.378-.068-2.76-.17-4.13-.26zM48.68 87.886c-.08.026-.16.05-.242.074-.438-.226-.875-.453-1.323-.663-4.308-2.02-8.81-3.63-13.213-5.45-.84-.35-1.627-.827-2.438-1.245l.18-.35c7.92-.285 15.052 1.327 21.197 5.336-1.342.91-2.725 1.81-4.16 2.297zm24.51-2.28c6.14-3.995 13.26-5.603 21.17-5.318l.18.35c-.81.42-1.598.897-2.438 1.246-4.403 1.82-8.905 3.43-13.213 5.45-.435.203-.855.424-1.278.64-.097-.03-.192-.056-.29-.09-1.424-.482-2.797-1.373-4.13-2.278zM15.006 53.647c-.023-.003-.045-.01-.068-.01.037-.004.072-.004.11-.007 0 .003.003.005.005.007-.016.004-.032.01-.047.01zm95.95.02c.037.004.072.004.11.007-.024.002-.046.008-.07.01-.014-.002-.03-.007-.045-.01 0-.002.004-.004.006-.006z"/>
</svg>