<?xml version="1.0" encoding="UTF-8" standalone="yes"?>
<svg xmlns="http://www.w3.org/2000/svg" viewBox="0 0 126 126">
  <path d="M73.225 33.326c.253 0 .38.197.38.59 0 .46-.115.596-.504.604-.273.008-.55-.297-.63-.654-.003.025-.002.05-.01.076a.89.89 0 0 1 .046.768l-.01.025v.02c.696.785 1.333 1.61 1.567 2.69.548-.593 1.236-.962 1.974-1.272.78-.328 1.578-.64 2.23-1.21.09-.08.213-.12.32-.177-.446.57-1.022.94-1.703 1.186-.543.195-1.07.44-1.602.672-.11.05-.207.133-.31.2.168.017.298-.04.43-.09.258-.1.51-.24.78-.288.84-.148 1.583-.52 2.31-.936.192-.113.272-.607.138-.785l.21-.486c-.42.02-.406-.254-.394-.52.017-.414.16-.6.526-.693.005-.04.01-.084.013-.13.16-2.07.116-4.14-.085-6.204-.038-.39-.19-.768-.29-1.146-.32.04-.54.496-.79.168-.21-.28-.04-.607.218-.84-.622-.463-1.694-.303-2.09.29.35.144.35.144.317.34-.068.405-.29.653-.66.632-.12-.008-.223-.234-.347-.38-.24.384-.49.806-.763 1.212-.152.226-.29.407-.125.71.13.24.102.563-.138.73-.12.084-.36-.006-.597-.018-.134.21-.312.494-.51.807.448-.034.498.274.552.562.038.2-.01.37-.235.46-.327.126-.576.07-.822-.222a.425.425 0 0 0-.02.044.83.83 0 0 1-.023.238l-.048.203c.07.23.076.44.073.56 0 .065-.013.128-.02.192a.883.883 0 0 1-.003.634c.14-.02.33.007.404.09.185.203.33.46.434.717.032.078-.09.287-.193.34-.175.092-.387.117-.652.184-.024.07-.054.15-.104.237 0 .01 0 .02-.003.03.008.032.008.063.012.1.087-.152.384-.262.75-.262zm.792 2.88c-.448-.04-.44-.464-.573-.74-.076-.16.01-.403.046-.605.007-.04.104-.082.166-.092.34-.06.88.432.87.787-.017.5-.16.684-.51.653zm3.13-4.84c-.285-.02-.483-.34-.446-.776.023-.256.198-.39.453-.396.34-.006.61.3.6.662-.012.33-.255.535-.605.51zm.51 1.005c-.012.23-.143.363-.39.36-.37 0-.836-.39-.838-.714-.004-.316.212-.486.614-.484.405 0 .64.31.612.84zm-.224-2.855c.118-.303.294-.615.534-.818.144-.12.763.406.77.615.013.364-.362.698-.786.704-.25.002-.597-.29-.516-.5zm-.32-1.494c-.326.005-.52-.23-.523-.64-.002-.234.22-.42.53-.436.217-.012.52.21.523.38.01.36-.242.69-.53.697zm-.342.325c.29-.105.59.117.585.53-.082.173-.176.446-.333.677-.138.206-.45.087-.614-.206-.224-.403-.063-.844.365-1zm-.34 1.607c.055.097.124.272.08.323-.124.148-.302.252-.46.375-.33-.074-.546-.277-.614-.592-.07-.314.138-.504.33-.678.04-.037.245.05.33.13.132.125.24.285.333.443zm-.698.84c.222-.01.547.333.564.593.015.248-.32.6-.575.602-.297.002-.657-.44-.662-.818-.002-.08.514-.37.674-.377zm-.505 3.067c.007.265-.465.7-.755.696-.324-.004-.528-.238-.527-.607 0-.507.136-.76.405-.763.442 0 .87.325.877.672zm-.777-.977a.776.776 0 0 0-.167 0c-.235.01-.428-.052-.47-.315-.04-.254.037-.47.29-.574.393-.163.922-.134.872.44-.002.45-.06.5-.524.45zm.98 3.253c-.128.076-.37-.012-.553-.057-.058-.015-.13-.134-.127-.204a7.11 7.11 0 0 1 .094-.86c.058-.325.35-.442.596-.585.037-.02.183.048.2.1.104.317.186.64.304 1.067-.144.158-.293.404-.513.54zm.49-2.397c-.29.01-.445-.228-.45-.694-.006-.39.15-.58.476-.584.347-.005.74.392.754.757.01.29-.314.503-.78.52zm.698 1.66c-.027-.007-.188-.02-.203-.073-.106-.36-.223-.73-.245-1.102-.008-.137.218-.303.36-.432.05-.05.19-.074.246-.04.263.165.512.35.76.534.034.025.04.098.044.15.028.437-.454.96-.962.964zm1.547-1.68c-.073.127-.187.23-.32.387-.28-.156-.54-.234-.694-.406-.23-.25-.107-.52.217-.64.125-.045.236-.154.36-.162.15-.014.337.01.45.094.08.058.085.247.083.376a.777.777 0 0 1-.097.353zm.42-.88c-.122.034-.374-.157-.47-.31-.238-.38-.123-.813.236-1.014.075-.04.273-.018.3.033.12.245.202.513.326.85-.118.146-.226.396-.39.44zm.402-2.177c-.003.367-.365.717-.726.67-.33-.043-.3-.355-.32-.578-.032-.314.316-.596.673-.596.366 0 .33.284.373.503zm-.146-2.527c0 .258-.193.465-.453.418-.378-.067-.703-.214-.672-.546.027-.3.32-.727.537-.74.23-.014.59.517.59.87zm-.736-2.078c.19 0 .414.258.42.49.007.258-.263.54-.528.55-.27.013-.48-.255-.48-.608 0-.33.132-.426.588-.432zm-.994-.848c.183.084.41.26.45.436.06.266-.235.586-.427.578-.262-.01-.64-.304-.64-.5 0-.187.44-.59.616-.513zm-.908.957c.17.117.37.26.574.4-.228.213-.424.523-.693.61-.27.087-.286-.257-.312-.478-.033-.27.118-.41.433-.533zm-.552 1.48c.23.077.388.122.537.185a.31.31 0 0 1 .14.138c.097.186-.105.578-.41.814-.242.186-.445.11-.657-.068-.24-.205-.388-.45-.172-.717.133-.17.382-.246.562-.353zm-.467-1.183c.225.003.386.26.39.622 0 .29-.18.477-.48.467-.244-.007-.396-.146-.41-.397-.012-.23.33-.694.5-.692zm-.62 2.112c.244 0 .785.492.794.723.01.25-.255.534-.498.534-.464 0-.7-.26-.705-.777-.002-.235.206-.48.407-.48zm-.316 1.35c.258.098.467.145.645.248.356.207.357.285.07.568a.212.212 0 0 0-.042.05c-.117.17-.208.54-.446.333-.252-.214-.37-.595-.51-.92-.02-.044.18-.18.283-.278zm-.833 1.863c-.2-.005-.61-.544-.535-.798.046-.158.257-.352.415-.37.308-.044.75.366.74.597-.01.23-.383.57-.622.57zm-2.282 16.157c-.07.21-.143.416-.214.623-.002-.02-.002-.04-.006-.06a.887.887 0 0 0 .098-.468.885.885 0 0 0 .113-.555.9.9 0 0 0 .102-.645.9.9 0 0 0 .016-.416c.036-.117.07-.234.104-.354l.082-.268a.854.854 0 0 0 .032-.166c.155-.607.3-1.217.476-1.816.46-1.566.955-3.123 1.437-4.684.12-.39.25-.777.376-1.166l.087.023c-.126.575-.232 1.153-.382 1.722-.42 1.592-.917 3.162-1.265 4.768-.26 1.19-.663 2.32-1.052 3.463zm-.307 1.284a.874.874 0 0 1-.115.27l-.03.19a.88.88 0 0 1 .038.498c.545-.318 1.103-.62 1.604-.998.56-.42 1.168-.68 1.815-.912.468-.17.895-.453 1.33-.705a.56.56 0 0 0 .212-.286c.127-.36.24-.723.353-1.086.2-.63.4-1.255.592-1.89.097-.314.17-.64.26-.99-.432.127-.803.244-1.18.346-.92.242-1.834.51-2.657 1.006-.55.33-1.038.7-1.182 1.402-.1.49-.295.963-.464 1.436-.154.434-.308.865-.49 1.285-.003.018-.002.033-.006.05l-.083.384zm.628.196c1.143-1.227 2.78-1.582 4.173-2.377-1.334.89-2.962 1.26-4.173 2.376zm2.515-2.328c.013-.223.354-.508.622-.51.208 0 .25.05.244.3-.008.312-.212.58-.456.563-.214-.01-.425-.05-.41-.352zm1.828-.694c-.07.178-.175.346-.29.5-.035.047-.146.037-.216.05-.224-.024-.358-.1-.24-.347.066-.135.1-.318.207-.395.104-.074.29-.066.432-.047.047.008.13.18.105.24zm-.133-2.17c.058-.162.26-.273.33-.342.464 0 .5.29.456.47-.04.153-.258.302-.43.376-.146.063-.43-.298-.358-.504zm.583.954c-.105.21-.18.41-.3.578a.39.39 0 0 1-.307.137c-.095-.01-.243-.128-.248-.206-.01-.188-.016-.443.094-.553.21-.206.49-.15.76.044zm-1.083-1.032c.19.02.224.283.265.496.044.23-.308.463-.646.44-.365-.024-.288-.356-.337-.567-.056-.235.186-.37.718-.368zm-.345 1.23c.237-.05.378.095.342.456-.036.037-.12.146-.223.227a.575.575 0 0 1-.248.093c-.14.024-.284.03-.425.044.012-.182-.038-.404.05-.53.103-.15.318-.252.502-.293zm-.958-.773c.23.04.412.165.423.378-.005.306-.304.53-.6.528-.266-.004-.314-.197-.33-.385-.018-.24.29-.56.507-.52zm-.716 1.855c.172-.174.2-.56.547-.482.133.03.226.22.337.34-.065.244-.543.62-.72.572-.033-.008-.083-.023-.088-.043-.036-.13-.128-.334-.075-.387zm.377 1.158c.07.133-.432.55-.62.5-.125-.033-.224-.17-.28-.217.014-.386.32-.76.503-.68.163.07.316.234.4.396zm-.706-2.37c.285.02.292.27.3.47.01.36-.246.664-.53.654-.24-.006-.453-.06-.397-.336 0-.423.308-.806.627-.786zm-.294 1.476c.175.046.305.128.164.325a3.454 3.454 0 0 1-.444.52.483.483 0 0 1-.36.096c-.06-.01-.09-.185-.094-.196-.02-.634.255-.874.733-.745zm-1.185 1.977c.034-.15.075-.3.122-.448.115-.365.462-.477.747-.24.037.03.047.09.055.107-.016.353-.386.753-.705.796-.172.025-.263-.033-.22-.217zm-.635 5.335c.19-.092.375-.195.56-.303.51-.295 1.024-.586 1.53-.895.35-.213.698-.438 1.025-.686.148-.11.244-.29.363-.44a2.728 2.728 0 0 0-.885.29c-.783.43-1.55.885-2.332 1.314-.36.2-.736.37-1.11.55l-.027.017a3.31 3.31 0 0 1-.095.616c.323-.153.648-.306.973-.462zm1.816-1.355l.035.074-1.257.605-.038-.08 1.262-.6zm-.362-10.247a7.064 7.064 0 0 0-.21-.405l.07-.533c.082.148.164.3.25.447.07.12.008.317.008.48-.04.004-.08.008-.118.01zm5.657-5.252l.57-.317a.74.74 0 0 0 .07.025c-.062.102-.102.248-.193.297a3.1 3.1 0 0 1-.648.242c-.33.098-.665.174-.996.262-.204.056-.4.16-.607.177-.47.04-.833.275-1.216.514-.277.173-.61.253-.93.35.256-.34.573-.58.992-.692.235-.06.45-.19.68-.27.166-.062.34-.1.512-.138.333-.078.667-.148 1-.223-1.077.184-2.192.283-3.176.924.087-.114.153-.263.267-.337.695-.455 1.487-.654 2.285-.836.38-.086.776-.15 1.132-.303.34-.144.64-.392.937-.58.032.32-.07.45-.677.908zm-5.82 5.82c-.05-.077-.095-.16-.144-.24l.017-.116.035-.26.127.22c.058.098.037.244.052.37a.94.94 0 0 0-.085.028zm4.616-1.802c-.716.277-1.468.465-2.2.707-.528.176-1.047.38-1.674.605.19-.176.302-.346.458-.414a90.035 90.035 0 0 1 2.454-1c.662-.26 1.33-.504 1.972-.748-.087.508-.58.682-1.01.85zM70.81 51.56c-.164.132-.327.263-.49.392l-.085.375c.058-.027.114-.057.17-.084.005.01.01.02.013.03l-.204.15-.042.185c.354-.244.708-.492 1.07-.725.4-.258.822-.482 1.234-.72l-.013.01h.005c0-.003 0-.005.002-.005.184-.105.363-.225.556-.31.373-.167.753-.312 1.13-.466-.18.12-.346.273-.542.357-.373.16-.762.28-1.146.42-.04.047-.072.1-.12.135-.74.496-1.482.99-2.22 1.49l-.015.07a.83.83 0 0 1-.06.176v.028l.405-.235c.008.014.016.027.023.043-.14.11-.28.217-.42.326a.97.97 0 0 1-.036.213l.422-.23.004-.005.012-.006c.15-.12.288-.262.454-.354.37-.203.752-.38 1.13-.568.006-.004.01-.012.016-.016.03-.016.06-.03.09-.043l1.063-.63.055.1c-.373.177-.745.355-1.118.53-.028.016-.057.03-.084.05-.007.003-.014.005-.02.01-.058.067-.107.15-.18.188-.464.25-.936.49-1.406.733a.025.025 0 0 0-.01.008l-.007.005c-.044.055-.08.125-.137.158-.108.064-.22.125-.328.188a.95.95 0 0 1-.128.208c.94-.492 1.88-.98 2.82-1.473.413-.22.825-.443 1.23-.68.168-.098.318-.23.477-.344a3.333 3.333 0 0 1-.054-.073l-.244.046.506-.506c-.022-.02-.042-.043-.062-.064-.067.03-.134.06-.2.086l.35-.45-.1-.063.482-.94c-1.078.497-2.115.978-3.152 1.458.168-.12.323-.266.505-.36.847-.43 1.704-.837 2.544-1.274.143-.075.226-.27.336-.405-1.404.488-3.807 1.94-4.87 2.8l-.072.317c.153-.083.306-.167.46-.254zm2.04-.964c-.724.484-1.447.97-2.074 1.39.365-.49.932-.894 2.074-1.39zm-1.08-6.862c-.016-.04-.037-.072-.054-.11v-.003c.024-.13.044-.262.064-.396.086.162.074.29-.01.51zm3.505-.685c.595-.11 1.164-.363 1.745-.55l.044.075c-.167.102-.323.232-.503.3-.742.27-1.487.55-2.247.774-.726.212-1.434.435-1.997.98-.024-.02-.047-.046-.072-.07.083-.11.146-.243.252-.317.842-.594 1.753-1.008 2.78-1.195zm-4.68 7.67l.083-.36c.053-.04.106-.08.163-.114.474-.303.988-.543 1.426-.885.606-.47 1.28-.75 2.004-.97.427-.13.82-.373 1.23-.564l.042.033c-.09.1-.162.23-.27.296-.246.152-.495.328-.768.402-1.157.31-2.114 1.01-3.13 1.585-.278.156-.528.363-.778.574zm1.82-14.12a1.7 1.7 0 0 0 .03-.294c0-.05-.01-.098-.02-.146v-.005c.16.156.315.316.453.49.27.338.47.73.685 1.107.044.076.02.193.03.332-.285-.318-.566-.547-.733-.838a5.233 5.233 0 0 0-.444-.646zm-1.96 14.754l.058-.262c.01-.012.02-.02.03-.03.552-.69 1.36-1.005 2.084-1.433.593-.35 1.24-.606 1.862-.905.257-.125.515-.252.79-.348-1.58 1.036-3.414 1.677-4.827 2.977zm1.152-6.92c.014-.032.03-.062.04-.093 0 .03-.002.06 0 .09l-.04.003zm5.6-2.597c-.083.064-.16.15-.253.184-.958.34-1.924.653-2.877 1.005-.528.195-1.033.45-1.626.71.11-.128.173-.247.27-.308 1.02-.62 2.14-.996 3.295-1.28.386-.095.76-.24 1.14-.364l.053.054zm-.287-.3c-.693.237-1.39.474-2.1.657-.766.195-1.482.477-2.124.947l-.077-.063c.095-.125.167-.305.294-.363.516-.236 1.04-.46 1.576-.643.716-.247 1.45-.44 2.167-.68.238-.08.452-.233.702-.366.014.332-.23.44-.44.514zm-4.36-.16c-.15-.21-.3-.42-.447-.632.008-.06.017-.12.023-.178.146.266.29.536.423.81zm6.06-5.655c-.166.172-.305.39-.504.502-.51.29-1.03.55-1.63.656-.618.108-1.215.33-1.85.513.56-.38 1.13-.715 1.778-.832a5.403 5.403 0 0 0 2.14-.902c.022.02.044.044.067.066zm-.772 3.82c-.12.127-.182.19-.24.254-.178.06-.354.12-.533.176-.085.027-.177.035-.256.07-.657.295-1.305.604-1.965.887-.57.243-1.15.456-1.765.636.133-.096.257-.207.4-.28.264-.138.536-.263.812-.372.287-.115.588-.197.876-.313.225-.09.46-.183.653-.32.456-.33.944-.546 1.505-.597.14-.014.275-.075.514-.14zm-5.526-2.408c0-.06-.003-.115-.01-.168.024-.055.038-.12.057-.178l.053.07c.226.286.46.57.674.866.154.213.28.447.418.674l-.132.082c-.095-.117-.204-.227-.28-.354-.22-.368-.46-.712-.782-.993zm5.797.668c-.265.084-.523.207-.793.242-.456.06-.898.107-1.3.38-.223.153-.514.206-.77.315-.213.09-.422.196-.63.302-.32.162-.642.33-.96.496l-.06-.087c.127-.11.235-.267.38-.317.41-.137.79-.31 1.105-.607.008-.057-.003-.148.025-.162.318-.158.64-.303.963-.45.022.032.04.065.06.097a5.693 5.693 0 0 1-.128.2c.385-.283.822-.37 1.295-.373.26-.003.52-.075.783-.116.01.027.018.054.03.08zm-.775.465c-.62.105-1.168.375-1.694.717a8.3 8.3 0 0 1-1.032.54 4.68 4.68 0 0 1-1.113.362c.156-.12.3-.268.472-.355a59.84 59.84 0 0 1 2.434-1.173c.295-.13.637-.16.956-.236.004.034.01.067.016.1-.013.015-.024.045-.04.047zm-5.096-.692v-.002c.03-.088.047-.174.06-.26a23.383 23.383 0 0 1 .855 1.13c.09.126.125.288.178.42-.373-.438-.736-.862-1.094-1.288zm.282-2.478c.11.13.218.264.313.404.188.274.36.56.484.884-.23-.273-.45-.553-.684-.818l-.116-.13a.922.922 0 0 0-.01-.12 1.16 1.16 0 0 0 .013-.22zm5.384 4.134c-.173.1-.338.26-.52.284-.637.09-1.19.342-1.724.69-.223.145-.51.194-.77.288l-.668.234c.06-.068.11-.154.185-.19.582-.276 1.163-.562 1.76-.806.55-.222 1.122-.397 1.685-.597l.05.1zm-.313.57c0-.002.002-.004.004-.004l.004-.002-.01.01c.205.156.03.264-.07.318-.473.25-.944.508-1.437.71-.345.14-.723.202-1.088.294.238-.143.474-.295.72-.426.326-.17.66-.33.996-.483.15-.066.32-.092.466-.162.146-.07.278-.168.417-.254zm-4.668.185v-.004l.01.02-.01-.012a4.04 4.04 0 0 0-.01.16l-.096.05c-.2-.32-.404-.64-.604-.963a1.044 1.044 0 0 0-.055-.215.88.88 0 0 0 .084-.23c.235.394.452.798.68 1.194zm-.35.004c.192.173.34.356.173.663-.19-.3-.374-.582-.553-.867 0-.014.003-.025.004-.04l.014-.196.124.21c.056.09.154.158.235.23zm4.448-1.305l-2.215.988c-.016-.033-.03-.066-.047-.098.74-.34 1.4-.842 2.205-1.045l.057.156zm-4.566-2.89l.006.007c-.002-.002-.004-.002-.006-.006zm-.213 2.26a.973.973 0 0 0 .026-.202c.34.5.772.94.81 1.6-.275-.46-.554-.93-.835-1.397zm2.712 3.08a.236.236 0 0 1 .038-.01l-.03.02a.197.197 0 0 1-.035.003c.01-.005.017-.01.026-.013zm-2.02.823c.614-.388 1.242-.74 1.994-.812l-1.956.893-.036-.08zm5.126-3.493l-.16.254c0 .08.033.19-.007.23a.82.82 0 0 1-.31.19c-.517.174-1.05.307-1.55.512-.576.238-1.126.537-1.686.81-.34.167-.68.335-1.02.5l-.058-.116c.197-.092.394-.184.592-.27.07-.032.155-.042.218-.083 1.095-.73 2.305-1.2 3.548-1.604.06-.02.106-.073.16-.11l-.843.18-.04-.09c.362-.16.724-.324 1.087-.484a.78.78 0 0 1 .07.08zm-5.676 3.347c-.115-.203-.23-.406-.345-.605.01-.085.023-.17.034-.253.217.338.36.69.312.857zm.54-1.832c-.072-.174-.13-.357-.224-.52-.138-.245-.333-.464-.45-.712a.89.89 0 0 0-.062-.525c.007-.014.01-.03.014-.043.04.063.08.123.117.186.244.412.48.832.686 1.262.042.085-.045.23-.078.352zm.387.622c.096-.08.183-.172.288-.236.16-.092.33-.162.493-.242l-.443.1a.848.848 0 0 0-.035-.088c.306-.13.61-.26.916-.387.01.02.02.035.03.053l-.375.3.426-.167.044.086c-.423.223-.846.447-1.268.672-.023-.033-.048-.062-.07-.09zm1.785-.815c.472-.212.826-.696 1.435-.603-.48.202-.958.4-1.436.602zm3.04-2.34c-.357.33-.79.353-1.23.323a7.53 7.53 0 0 1-.022-.096c.418-.075.836-.152 1.253-.228zm-4.932 3.745c.214-.342.623-.303.946-.43l-.888.533c-.02-.034-.038-.07-.058-.103zm1-.463l.018-.005c-.004.002-.008.008-.012.012a.447.447 0 0 1-.06.025.37.37 0 0 0 .054-.033zm-1.584.24c-.155-.254-.31-.506-.462-.758 0-.023.003-.043.005-.064.03-.02.063-.036.095-.054l.464.814c-.035.022-.07.04-.102.063zm2.19-2.285c-.283.11-.567.223-.85.334l-.07-.14c.29-.104.582-.207.873-.313l.047.118zm-1.452 14.06c-.013.01-.025.013-.038.02l.03-.03a.943.943 0 0 0 .026-.004c-.007.005-.012.013-.018.017zm.478-.13l-.46.115c.183-.176.367-.352.55-.525.02.016.04.033.058.05-.053.126-.105.255-.148.362zm-4.445 2.48a.37.37 0 0 1 .103.05v.004a.86.86 0 0 1-.023.19c0 .007.006.015.007.024a.894.894 0 0 1-.18.668l-.02.03a.233.233 0 0 1-.082.003c-.134-.03-.247-.148-.327-.2.017-.487.268-.845.524-.77zm3.043-21.417a.17.17 0 0 1 .028-.092.9.9 0 0 1-.004.28.998.998 0 0 1-.024-.188zM65.713 27.7c.88.692 1.723 1.42 2.166 2.51.436-.677 1.05-1.16 1.724-1.593.713-.457 1.444-.902 1.99-1.578.075-.094.188-.154.285-.23-.34.638-.846 1.105-1.475 1.46-.503.287-.98.62-1.464.938-.1.067-.18.165-.27.25.168-.013.287-.09.408-.16.237-.146.462-.325.718-.42.802-.29 1.47-.784 2.114-1.32.17-.142.164-.644 0-.796.04-.158.078-.318.125-.514-.412.092-.444-.18-.48-.443-.053-.412.056-.62.4-.773a2.11 2.11 0 0 0-.01-.13 35.684 35.684 0 0 0-1.15-6.097c-.104-.377-.32-.723-.48-1.08-.31.094-.448.582-.75.3-.256-.237-.145-.59.07-.862-.692-.35-1.723-.008-2.01.646.37.08.37.08.37.275.004.414-.17.697-.54.738-.118.014-.26-.193-.408-.313-.17.42-.344.878-.544 1.325-.11.248-.214.45 0 .723.17.213.197.537-.01.742-.104.104-.357.06-.59.086-.096.23-.223.54-.363.88.434-.108.536.19.64.462.072.19.053.367-.153.492-.3.182-.554.17-.85-.078l-.214.74c.158.193.3.334.397.502.04.072.02.246-.037.293-.196.162-.42.287-.635.422-.05.03-.147.04-.156.074-.085.34-.253.662-.086 1.037.276.63.74 1.078 1.265 1.49zm.715-.204c-.314.063-.705-.293-.79-.717-.038-.195.276-.408.707-.48.25-.047.41.127.476.514.08.45-.01.603-.39.68zm2.447-2.52c.34-.063.798.26.873.616.06.283-.222.55-.678.646-.285.06-.478-.148-.563-.605-.073-.383.048-.598.368-.656zm-1.097-1.12c-.015-.08.443-.452.6-.487.216-.05.595.23.655.484.06.24-.212.646-.46.69-.294.055-.724-.32-.795-.69zm1.498.6c-.056-.312.127-.515.523-.585.396-.066.68.2.746.727.03.227-.08.38-.322.422-.366.06-.892-.244-.95-.56zm.597-.763c-.285.03-.535-.252-.574-.69-.025-.255.123-.42.373-.466.335-.064.654.19.704.547.046.328-.157.572-.505.61zm-.89-2.914c.263-.154.6.012.664.42-.05.184-.097.47-.212.727-.1.223-.43.16-.642-.1-.29-.36-.206-.822.19-1.05zm-.346-.92c-.043-.23.146-.453.447-.52.212-.048.547.116.582.284.072.354-.122.72-.405.775-.317.06-.55-.14-.622-.54zm.283 2.56c.072.087.168.245.135.304-.097.168-.253.3-.388.447-.34-.015-.587-.18-.708-.474-.125-.3.047-.52.206-.725.033-.042.25.01.346.07.154.102.288.24.407.38zm-.705-1.066c-.206.227-.42.188-.66.05-.27-.163-.46-.38-.293-.68.104-.188.335-.306.494-.442.24.037.403.053.562.088a.33.33 0 0 1 .16.112c.128.166-.004.59-.263.873zm-1.237 3.477c.358-.23.886-.292.935.28.076.447.026.508-.44.535-.054.004-.11.016-.163.027-.23.053-.43.025-.518-.227-.085-.24-.046-.467.186-.614zm-.442-1.74c-.026-.04.147-.21.23-.323.27.05.485.064.678.133.387.146.4.222.168.548a.595.595 0 0 0-.034.06c-.085.187-.11.565-.383.405-.284-.17-.466-.526-.66-.823zm1.086 5.907c-.448.037-.515-.38-.692-.63-.102-.146-.058-.4-.06-.605 0-.04.09-.1.148-.12.326-.118.942.274.992.624.07.497-.038.704-.388.73zm.16-1.705c-.318.053-.56-.143-.622-.508-.086-.498.003-.77.267-.82.435-.078.914.17.98.512.052.26-.337.767-.624.816zM69 28.682c-.114.1-.367.055-.556.043-.06-.004-.15-.11-.16-.18a6.92 6.92 0 0 1-.055-.863c0-.33.267-.496.484-.68.033-.03.188.014.214.063.156.295.292.6.482.998-.113.18-.22.45-.412.62zm1.042-.926c-.03-.004-.188.012-.212-.04-.167-.337-.346-.68-.43-1.042-.033-.135.162-.336.277-.488.043-.057.176-.104.236-.078.287.115.565.254.84.393.04.023.058.09.07.143.105.424-.28 1.022-.78 1.114zm1.235-1.92c-.05.135-.145.254-.25.432-.3-.105-.57-.14-.752-.28-.267-.21-.195-.495.104-.667.112-.064.203-.19.323-.223.147-.037.334-.047.463.016.087.045.125.23.145.36a.77.77 0 0 1-.034.364zm.265-.943c-.117.057-.397-.09-.52-.225-.297-.332-.26-.777.06-1.037.067-.053.268-.064.3-.02.163.225.29.473.47.783-.094.163-.156.428-.31.5zm.02-2.21c.06.358-.237.765-.6.782-.332.014-.355-.3-.416-.516-.085-.305.208-.643.56-.705.36-.062.376.225.455.436zm-1.13-.462c-.25.047-.642-.182-.596-.402.064-.316.184-.656.385-.896.12-.145.824.27.867.474.074.354-.24.75-.654.827zm.55-2.002c.043.252-.11.49-.374.488-.383-.002-.73-.092-.757-.424-.023-.3.193-.77.404-.82.225-.052.67.41.73.757zm-1.083-1.92c.186-.035.45.18.497.408.05.254-.166.576-.426.635-.262.056-.514-.17-.577-.517-.058-.324.058-.443.505-.525zm-1.126-.666c.196.052.448.187.517.35.108.255-.13.62-.32.646-.26.035-.68-.19-.715-.385-.032-.18.332-.658.52-.61zm-.73 1.1c.188.085.41.19.634.296-.19.248-.33.588-.578.72-.252.134-.326-.204-.39-.415-.08-.262.044-.424.333-.6zm-.952.467c.22-.038.425.19.49.544.052.285-.093.5-.39.543-.243.035-.417-.074-.473-.322-.053-.225.205-.738.372-.766zm-.248 2.187c.24-.043.858.35.906.574.055.244-.157.57-.396.613-.456.08-.732-.135-.827-.645-.042-.23.12-.51.318-.542zm-.896 2.23c.294-.092.802.232.832.465.03.23-.278.627-.516.666-.198.033-.696-.43-.664-.69.02-.165.194-.394.347-.44zm-.533 1.393c.132-.057.36-.072.456.004.218.172.405.396.55.633.047.072-.04.3-.13.37-.163.124-.376.185-.638.304-.098-.092-.225-.184-.318-.3-.33-.412-.3-.85.082-1.01zm5.155 11.04c-.865.4-1.718.82-2.444 1.45-.486.422-.9.873-.922 1.588-.015.5-.126.998-.21 1.494-.087.508-.17 1.018-.3 1.516-.12.46.08.96-.185 1.398-.006.008.02.03.026.043.554-.486 1.148-.93 1.65-1.465.48-.512 1.034-.87 1.63-1.213.433-.246.806-.6 1.192-.92a.576.576 0 0 0 .157-.32c.066-.375.113-.752.163-1.13.09-.653.18-1.306.26-1.962.04-.33.055-.66.084-1.022-.404.2-.75.38-1.105.543zm-.452.58c.19-.015.27.24.348.442.082.217-.225.508-.562.545-.363.04-.345-.303-.43-.5-.096-.224.12-.398.644-.488zm.288 1.66c-.03.044-.093.163-.18.26a.59.59 0 0 1-.23.138c-.133.047-.272.078-.41.115-.02-.18-.105-.393-.04-.533.075-.16.27-.3.443-.37.224-.09.387.028.415.39zm-.433.833c.205-.035.255.008.29.252.047.31-.11.607-.35.635-.214.023-.43.02-.465-.277-.026-.223.26-.563.525-.61zm-1.06-1.82c.233 0 .434.094.482.3.047.302-.208.575-.5.624-.262.04-.343-.14-.39-.324-.06-.235.188-.6.408-.6zm.46 1.656c-.023.254-.43.705-.613.69-.033-.005-.084-.01-.093-.03-.057-.123-.183-.307-.14-.367.14-.2.1-.586.456-.568.134.005.26.177.39.273zm-.736 1.045a.91.91 0 0 1 .46.324c.09.116-.332.616-.524.6-.13-.013-.25-.13-.314-.167-.055-.38.184-.803.376-.758zm-.644-1.887c.284-.034.334.214.375.41.074.353-.126.694-.407.733-.24.036-.456.02-.45-.26-.07-.42.167-.847.484-.88zm-.036 1.5c.18.017.324.077.218.294-.1.203-.207.41-.348.588a.488.488 0 0 1-.337.158c-.06 0-.12-.168-.127-.178-.13-.623.1-.906.594-.86zm-.827 2.153c.008-.153.022-.31.043-.46.05-.38.373-.55.695-.365.04.023.062.08.072.096.046.353-.25.81-.555.91-.164.053-.264.01-.255-.178zm.24.685c.915-1.404 2.468-2.035 3.7-3.06-1.158 1.11-2.698 1.753-3.7 3.06zm3.56-3.182c-.026.053-.137.06-.204.088-.225.015-.37-.036-.295-.3.043-.146.044-.33.136-.426.09-.09.273-.113.417-.12.05 0 .16.153.147.218-.04.188-.114.37-.2.54zm.237-1.195a.395.395 0 0 1-.28.188c-.092.004-.258-.086-.276-.162-.04-.182-.09-.432 0-.56.17-.24.455-.23.754-.087-.068.222-.107.433-.196.62zm-.104-1.025c-.133.086-.476-.22-.44-.436.03-.17.21-.315.266-.394.457-.082.54.2.53.385-.01.16-.2.34-.358.445zm-1.267 8.373c-.522.385-1.05.764-1.566 1.156-.3.23-.573.496-.873.73-.38.292-.787.55-1.16.853a1.577 1.577 0 0 0-.572.98c-.15.802-.386 1.585-.56 2.382-.13.595-.222 1.196-.33 1.794l.08.036c.283-.267.56-.54.852-.798.425-.375.814-.83 1.304-1.088.83-.443 1.457-1.11 2.16-1.69.127-.104.21-.263.37-.468-.416.1-.593-.063-.655-.336-.026-.113.056-.25.09-.375l.634.226.604-2.68c-.2.025-.41.11-.487.045-.096-.083-.127-.3-.104-.444.02-.117.13-.22.214-.322zm-.59.728c.138.12.277.24.342.3.06.392-.148.692-.404.718-.216.02-.453-.102-.4-.29.078-.265.3-.488.46-.728zm-1.206.94c.23-.033.647.21.667.39.025.228-.312.673-.514.606-.17-.057-.337-.27-.403-.45-.09-.253.073-.52.25-.546zm.036 2.03c-.094.003-.195-.15-.292-.23-.032-.33.057-.538.335-.54.16 0 .392.12.472.254.107.18-.212.503-.517.515zm-.945-1.35c.226-.046.488-.005.563.27.068.25-.175.513-.567.573-.05-.05-.237-.156-.226-.236.026-.21-.11-.537.23-.606zm.25 1.222c.06.04.26.102.316.23.096.226-.257.716-.492.747-.24.033-.318-.148-.364-.318-.082-.305.113-.59.54-.66zm-1.012-.598a.608.608 0 0 1 .418.3c.097.224-.228.7-.443.69-.137-.006-.27-.104-.357-.14-.068-.482.118-.877.382-.85zm-.34 1.254l.598.416c-.166.184-.297.43-.502.533-.244.125-.323-.14-.47-.377.123-.19.25-.378.373-.57zm-.078 2.252c-.148.03-.368-.004-.47-.1-.214-.203-.164-.498-.006-.703.223-.285.523-.15.837-.025-.05.32.12.73-.36.83zm1.39-1.037c-.066.248-.344.434-.555.37-.233-.065-.235-.274 0-.84.54.087.636.17.556.47zm.552-.18c-.155-.032-.284-.194-.483-.345.144-.193.225-.408.333-.422.197-.027.474-.033.532.266.04.21-.194.54-.384.5zm1.05-1.273l.018.193c-.16.098-.32.266-.477.264-.125 0-.27-.2-.354-.342-.03-.05.11-.28.155-.275.222.025.437.103.655.162zm.81-1.644c-.128.164-.228.377-.395.475-.087.053-.292-.1-.445-.16a11.772 11.772 0 0 0-.037-.158c.133-.15.244-.38.407-.426.123-.032.31.173.47.27zm-6.04-10.866c.05.102.058.307-.006.36a.778.778 0 0 1-.468.187c-.093 0-.2-.17-.273-.277-.052-.078-.056-.186-.108-.37-.03.437-.09.772-.065 1.103.018.22.155.432.24.646-.047-.18-.118-.358-.133-.542-.025-.266.12-.36.342-.225.14.086.307.22.338.36.04.17-.05.372-.084.56l-.463-.152-.01-.002c.205.237.41.476.602.696.052-.22.072-.402.152-.555.02-.04.292-.02.348.054.104.13.18.32.182.486.002.166-.1.332-.147.47l1.85 3.08c.034-.202.076-.472.132-.815l-.35.294c-.07-.4-.13-.74-.19-1.093.42-.008.504.063.595.443l.115-1.018c-.415.27-.48.252-.666-.146-.042-.09-.14-.17-.146-.257-.014-.196.015-.396.026-.593.174.028.367.015.516.09.13.067.21.233.318.364.27-.505.384-1.087.25-1.59a3.415 3.415 0 0 0-1.116-1.72c-.718-.604-1.417-1.23-2.123-1.85-.11-.096-.212-.205-.35-.336-.06.76-.112 1.455-.167 2.166.22-.098.773.016.86.19zm-.026 1.092c-.054-.328.083-.53.394-.58.246-.04.623.264.67.54.05.282-.118.376-.31.39-.46.086-.7-.037-.754-.35zm.75 1.04c-.044-.308.164-.58.533-.6.465-.024.216.468.406.597.075.318-.106.38-.306.416-.295.05-.593-.146-.633-.414zm.93 1.94c-.103-.04-.225-.056-.304-.122-.137-.115-.247-.264-.35-.377.02-.176.004-.3.052-.39.066-.122.183-.218.277-.323.084.104.19.197.24.314.084.18.15.37.18.564.016.102-.06.22-.092.335zm1.156-2.37c.034.243-.185.618-.382.653-.202.033-.474-.248-.545-.607.05-.164-.038-.44.27-.525.212-.06.625.247.657.475zm-1.315-1.48c.246-.048.497.144.543.413.047.27-.207.707-.416.646-.16-.047-.31-.28-.375-.465-.1-.28.047-.56.246-.596zm-.914-.935c.222-.012.655.303.665.48.013.225-.246.61-.41.615-.32.008-.642-.266-.652-.553-.008-.257.188-.527.397-.54zm-.94-.742c.212-.047.52.19.563.426.042.236-.136.578-.314.607-.216.036-.418-.206-.494-.62-.067-.193-.003-.355.246-.412zm.043 5.994c.103.124.197.25.307.366.476.498.858 1.04 1.066 1.72.1.33.355.61.547.91.154.24.295.48.198.806-.593-.98-1.187-1.955-1.78-2.936.082.22.142.453.252.658.28.52.576 1.027.876 1.533.12.2.283.374.403.573.112.187.192.392.286.587l-.134.078c-.13-.166-.315-.314-.374-.502-.28-.904-.806-1.662-1.317-2.436-.252-.38-.422-.81-.818-1.076.334.524.687 1.036 1 1.575.28.485.514 1.003.772 1.505.156.308.32.61.48.913l.27.52c-.035.028-.072.054-.108.08-.044-.06-.09-.118-.135-.18a.973.973 0 0 0-.03.036l.22.485c-.49-.294-.736-.757-.984-1.224-.194-.36-.42-.707-.63-1.06-.125-.21-.27-.413-.372-.634-.262-.56-.544-1.102-1.01-1.527-.058-.052-.058-.17-.084-.255.047.01.095.02.118.023l-.1-.762c.022-.007.044-.015.067-.02.1.104.2.207.3.313-.048-.12-.1-.24-.15-.36l.06-.048c.308.324.615.646.922.973.073.076.145.156.217.234v.002c-.295-.36-.593-.714-.882-1.08a4.464 4.464 0 0 1-.395-.567c-.03-.05.043-.158.113-.22a53.824 53.824 0 0 1-.063-.562l.104-.036c1.19 1.476 2.34 2.974 3.07 4.74l-.13.08c-.247-.45-.533-.886-.73-1.36-.314-.744-.802-1.352-1.43-1.864zm5.457 8.732c-.278.26-.514.58-.826.787-.65.43-1.32.824-1.875 1.393-.39.398-.84.734-1.243 1.12-.12.112-.166.3-.244.452.025.01.05.02.075.033.564-.498 1.127-1 1.69-1.498l.056.056c-.06.066-.11.14-.177.2-.468.413-.934.827-1.41 1.23-.177.15-.3.302-.25.58.262-.23.492-.442.732-.64 1.013-.836 1.86-1.87 3.067-2.473.62-.31.857-.873.864-1.607-.184.145-.333.247-.462.366zm-.942 1.236l-.054-.068 1.124-.854c-.237.498-.732.612-1.07.922zm1.76-6.717c-.698.558-1.377 1.138-2.07 1.696-.323.257-.665.49-1 .733-.404.29-.7.648-.738 1.156.536-.38 1.072-.757 1.603-1.14.172-.12.336-.258.5-.393.452-.38.908-.754 1.352-1.145a12.2 12.2 0 0 0 .893-.853c.126-.138.19-.33.28-.5-.32.114-.587.255-.82.44zm-1.738 1.683l-.05-.07 1.14-.81c.016.022.03.044.047.065-.38.275-.758.545-1.137.816zM63.4 31.39c.49.67 1.194 1.118 1.806 1.667.625.56 1.137 1.248 1.675 1.9.09.107.066.313.094.473a1.83 1.83 0 0 0-.115.033c-.793-1.133-1.886-1.936-2.976-2.742l-.026-.02c-.49-.312-.705-.726-.458-1.31zm8.635-2.49a.914.914 0 0 1 .072.014c-.044.11-.058.262-.14.326-.18.14-.39.25-.597.352-.307.148-.624.28-.935.428-.19.09-.367.23-.567.28-.456.116-.774.413-1.11.714-.245.215-.558.354-.86.504.196-.38.468-.67.86-.854.22-.102.41-.264.623-.385.155-.088.32-.156.48-.225.316-.133.633-.262.95-.39-1.03.366-2.11.655-2.97 1.456.067-.126.105-.284.206-.38.607-.566 1.353-.9 2.107-1.215.36-.152.74-.283 1.062-.492.31-.203.563-.496.823-.736.088.31.01.46-.51 1.012l.508-.41zm-8.553 4.268c-.21-.184-.36-.402-.215-.695.715.55 1.463 1.063 2.137 1.66.503.447.917 1 1.355 1.516.072.086.076.232.112.352a1.19 1.19 0 0 1-.077.045c-.13-.14-.246-.297-.392-.42-.563-.475-1.14-.934-1.706-1.406-.41-.344-.815-.696-1.216-1.053zm8.398-.7c0 .515-.454.77-.848 1.01-.657.397-1.366.708-2.044 1.073-.49.268-.967.557-1.546.89.157-.208.238-.396.38-.487a82.09 82.09 0 0 1 2.245-1.408c.605-.372 1.22-.728 1.813-1.077zm-3.4 10.77c.76-.57 1.535-1.12 2.287-1.695.128-.098.175-.303.26-.457-1.69.938-4.77 3.783-4.742 4.252l.82-.662c-.248.28-.5.555-.743.838-.074.088-.124.193-.185.293.022.012.044.023.067.037l.58-.428c.005.012.01.02.017.03-.24.25-.48.5-.722.747l.08.076c.462-.453.915-.916 1.388-1.354.35-.322.727-.617 1.09-.922l-.01.012.005-.002v-.002c.166-.137.32-.285.496-.402.34-.226.69-.437 1.034-.653-.157.15-.295.332-.473.447-.34.223-.703.41-1.057.61-.03.054-.054.114-.095.153-.667.645-1.34 1.28-2.003 1.924-.192.188-.362.395-.542.59l.065.063.883-.74c.01.012.02.025.03.04l-.69.753c.022.02.044.043.065.064.214-.17.428-.34.642-.507l.003-.006c.004-.004.008-.006.01-.01.128-.145.24-.307.388-.426.33-.262.676-.502 1.016-.752l.01-.02c.028-.02.056-.037.083-.06l.94-.802c.024.03.047.06.07.092-.335.236-.672.475-1.01.71-.024.024-.05.044-.073.065l-.02.014c-.044.076-.078.166-.142.217-.416.326-.84.645-1.26.963-.004.004-.006.008-.01.01l-.005.006c-.034.06-.057.135-.108.18-.28.238-.57.467-.852.703-.052.043-.08.113-.122.172.195-.088.336-.213.485-.326.877-.673 1.756-1.343 2.63-2.02.372-.284.74-.58 1.098-.88.15-.125.274-.28.41-.42l-.065-.066-.23.09.41-.586c-.02-.018-.045-.033-.07-.053l-.18.12.265-.503c-.035-.016-.07-.03-.106-.045l.31-1.01c-.976.675-1.914 1.327-2.853 1.98.144-.147.272-.317.434-.44zm.47.133c-.63.607-1.26 1.21-1.805 1.73.276-.544.765-1.04 1.804-1.73zm-3.378-.553l-.04.012.246.776c-.46-.758-.795-1.596-1.466-2.21.392.685.79 1.37 1.172 2.062.107.193.17.41.255.615-.04.018-.08.035-.12.05-.195-.353-.384-.712-.59-1.062-.236-.403-.462-.815-.74-1.19-.485-.652-1.012-1.275-1.51-1.916a.93.93 0 0 1-.168-.387c-.01-.05.11-.12.17-.182-.285-.28.028-.59-.108-.92 1.4 1.332 2.378 2.863 3.136 4.54a.612.612 0 0 0-.07.048l-.168-.236zm-.435 4.46c-.2-.255-.43-.49-.597-.763-.582-.955-1.143-1.924-1.714-2.885-.188-.314-.398-.614-.577-.933-.06-.104-.05-.244-.07-.37l.106-.044c.192.252.406.49.57.76.41.678.81 1.363 1.195 2.057.31.554.52 1.16 1.01 1.608.118.104.12.338.174.512-.032.02-.066.036-.098.055zm-1.812-13.53c-.113-.12-.167-.293-.25-.44.036-.024.07-.048.105-.07.23.222.45.452.692.66.858.745 1.727 1.48 2.585 2.226.27.236.31.363.246.68-.612-.988-1.64-1.434-2.448-2.137a12.23 12.23 0 0 1-.93-.92zm8.395 1.004c-.147.128-.28.284-.444.38-.688.395-1.372.8-2.082 1.15-.68.334-1.338.678-1.798 1.31a2.076 2.076 0 0 1-.084-.056c.064-.12.102-.264.194-.355.728-.73 1.554-1.294 2.533-1.657.565-.21 1.082-.555 1.622-.84.02.02.038.045.057.068zm-.59 5.466c-.07.115-.12.254-.216.338-.216.193-.43.41-.686.53-1.087.505-1.91 1.358-2.813 2.1-.38.315-.674.733-1.014 1.112.015-.39.24-.674.51-.92.413-.38.878-.705 1.25-1.115.517-.567 1.13-.962 1.808-1.304.4-.2.746-.508 1.115-.766a.367.367 0 0 1 .048.025zm-2.197 11.428c-.116.15-.215.316-.35.445a19.7 19.7 0 0 1-1.05.93c-.598.485-1.212.95-1.812 1.43-.41.33-.81.673-1.262.954 1.424-1.324 2.84-2.656 4.405-3.813l.07.054zM64.207 28.05c-.106-.114-.184-.255-.276-.382.028-.02.055-.037.08-.057.468.39.927.787 1.403 1.16.38.3.805.54 1.163.857.322.285.588.637.865.97.058.07.053.19.087.325-.335-.265-.65-.44-.866-.7-.707-.85-1.703-1.37-2.452-2.17zm2.19 16.938c-.04-.027-.078-.057-.116-.084.047-.09.08-.19.14-.268.106-.14.255-.254.338-.406.425-.77 1.166-1.225 1.806-1.77.523-.445 1.117-.81 1.678-1.21.236-.17.467-.337.724-.48-1.514 1.418-3.407 2.416-4.568 4.218zM62.98 33.986l.067-.068c.37.326.735.66 1.114.98.64.538 1.295 1.058 1.926 1.608.206.18.367.42.523.648.063.096.06.234.09.354a3.34 3.34 0 0 1-.097.023c-1.015-1.37-2.562-2.216-3.625-3.543zm5.96 17.31c-1.45 1.216-2.9 2.435-4.352 3.65-.022-.02-.046-.038-.07-.058.12-.146.22-.31.358-.43.634-.55 1.364-1.012 1.895-1.643.593-.703 1.387-1.07 2.09-1.588l.08.07zm-1.567-14.61c.085-.145.125-.273.21-.35.9-.79 1.937-1.35 3.025-1.828.364-.16.707-.37 1.06-.555.02.014.042.03.063.043-.07.078-.13.178-.217.227-.886.496-1.784.97-2.662 1.482-.485.283-.94.62-1.477.98zm2.07-1.928c-.72.326-1.38.727-1.93 1.3-.028-.015-.057-.034-.086-.05.073-.14.113-.33.228-.408.467-.322.946-.63 1.442-.906.662-.365 1.35-.684 2.015-1.043.222-.117.406-.305.628-.477.072.322-.148.47-.344.578a26.93 26.93 0 0 1-1.955 1.01zm-6.107 21.22c-.306-.735-.808-1.31-.977-2.09-.138-.64-.546-1.218-.8-1.837-.14-.334-.21-.697-.313-1.05l.102-.04c.11.25.222.498.327.75.228.545.45 1.09.675 1.637.085.207.158.418.252.62.18.384.363.767.56 1.142.136.256.308.5.173.87zm-1.72-2.886c-.193-.5-.335-1.02-.5-1.53l.112-.036c.683 1.607 1.364 3.215 2.047 4.824-.045.02-.09.043-.136.064-.257-.523-.524-1.045-.768-1.574a28.694 28.694 0 0 1-.756-1.748zm1.896-22.453c-.02-.03 0-.086.002-.13.026-.02.053-.036.08-.056 1.232 1.23 2.452 2.47 3.48 3.89-.232-.23-.464-.458-.693-.69-.047-.045-.074-.12-.127-.152-.386-.23-.54-.703-.837-.94-.536-.425-.933-.98-1.476-1.392-.176-.13-.292-.348-.428-.53zm8.482-2.965l.08.053c-.137.196-.236.437-.414.58-.454.374-.92.72-1.493.927-.59.215-1.14.537-1.732.824.485-.473.987-.898 1.607-1.125a5.466 5.466 0 0 0 1.95-1.26zm-.026 3.95c-.098.145-.146.22-.194.292-.165.088-.328.178-.495.264-.08.04-.168.067-.24.116-.594.402-1.18.818-1.78 1.21-.52.337-1.056.65-1.63.93.115-.116.217-.247.344-.345.237-.18.484-.347.737-.505.265-.162.547-.295.81-.457.208-.13.42-.26.59-.433.39-.4.832-.697 1.377-.846.136-.035.258-.12.482-.226zm-5.806-1.712c.272.246.552.482.813.738.188.187.353.396.527.595l-.115.104c-.114-.1-.24-.19-.34-.3-.335-.393-.69-.75-1.17-.977-.13-.063-.213-.22-.325-.326-.282-.268-.543-.564-.858-.785-.333-.23-.586-.498-.695-.914.312.28.62.565.94.84.22.187.453.354.675.54.188.156.365.322.546.484zM65.036 47.74c.162-.26-.004-.406-.13-.582-.277-.39-.547-.783-.793-1.19-.255-.42-.462-.87-.72-1.288-.34-.557-.71-1.098-1.07-1.643-.03-.043-.088-.068-.2-.154.057.162.134.28.106.316-.26.332.043.53.175.76.4.693.82 1.38 1.23 2.066l-.094.06c-.15-.228-.32-.446-.45-.685-.314-.567-.61-1.144-.914-1.716l-.092.045c-.14 1.296-.255 2.597-.434 3.89-.066.49.03.87.35 1.227.102.113.16.268.236.402l-.664-.79-.073.047c.092.154.19.307.28.465.184.326.4.64.543.986.404.962.777 1.938 1.164 2.907-.116-.197-.245-.39-.342-.594-.127-.27-.23-.554-.344-.83-.157-.383-.34-.754-.47-1.145-.17-.51-.354-1.006-.8-1.37 0 .114.006.24.07.317.328.398.51.854.65 1.348.17.587.406 1.157.615 1.73.03.085.076.16.12.24.188.327.378.65.565.978.057.098.104.2.156.297l.085-.03c-.02-.09-.03-.18-.06-.265-.08-.23-.166-.453-.25-.682.114.203.23.406.354.63.018-.054.042-.087.035-.11-.203-.61-.406-1.225-.61-1.834l.18.43c.156.39.302.78.454 1.172.03.004.06.008.09.01.192-.818.394-1.635.568-2.46.095-.442.108-.907.22-1.347.106-.428-.02-.885.207-1.29.02-.04-.003-.13-.035-.177-.168-.252-.362-.484-.514-.744-.25-.435-.477-.886-.713-1.33.032-.017.063-.034.095-.054.354.696.65 1.43 1.226 1.983zm-1.868-1.748c.07.027.102.145.168.197.247.195.255.312.014.496-.34.262-.554.158-.646-.398.015-.064.013-.237.095-.35.035-.047.25.007.367.052zm-.805 2.647c.02-.025.052-.04.1-.07.068.04.155.07.212.13.13.13.263.267.36.423.04.063.018.207-.03.266-.062.07-.185.136-.273.13-.322-.03-.565-.63-.37-.88zm-.016-.92c.03-.293-.01-.545.268-.596.19-.035.426 0 .45.3.02.237-.173.585-.36.556-.13-.02-.24-.17-.358-.26zm.743 1.845c.296-.043.38.244.5.56-.09.108-.164.284-.274.31-.228.057-.41-.055-.448-.32-.033-.23-.035-.514.222-.55zm-.25-.918c-.03-.273.167-.65.356-.68.24-.035.467.19.517.582.028.167.02.372-.303.403-.342.032-.54-.067-.57-.306zm-.728-3.322c.08-.174.015-.508.308-.453.158.03.272.29.438.486-.115.18-.19.333-.3.458-.036.043-.2.055-.22.023-.098-.14-.165-.3-.24-.45-.007-.016.005-.045.014-.065zm.153.76c.212-.027.27.045.31.398-.01.225.154.545-.214.596-.21.03-.376-.146-.405-.39-.04-.34.078-.574.31-.605zm-.29 2.344c-.114-.08-.174-.237-.247-.35.02-.128.013-.24.06-.32.07-.128.178-.233.27-.347.075.11.152.22.22.336.028.044.05.103.05.157-.004.143.017.305-.043.422-.04.07-.254.142-.31.1zm1.15 2.844c-.503-.588-.603-1.354-.902-2.033.14.29.282.577.415.868.128.284.247.57.37.858l.15.35a.435.435 0 0 0-.032-.043zm.754.38c-.24-.106-.43-.327-.716-.556.162-.206.245-.413.37-.444.306-.076.666.2.694.467.042.42-.1.648-.35.534zm.203-1.333c-.116.01-.28-.097-.353-.2-.11-.16-.164-.363-.268-.61.047-.08.086-.226.178-.27.093-.05.296-.05.348.016.165.205.316.438.406.686.083.225-.115.368-.31.38zm.32-1.243c-.338.033-.43-.24-.44-.47-.007-.177.14-.356.218-.536l.526.27c.07.403-.084.714-.304.737zM63.89 46.6l.626 1.124c-.028.016-.057.03-.085.045-.2-.378-.402-.757-.604-1.134a1.34 1.34 0 0 1 .065-.035zm-.13.276c.13.2.23.424.372.703-.076.12-.14.302-.266.384-.08.05-.29-.014-.383-.096-.344-.294-.327-.753.03-1.026.05-.04.216-.016.246.033zm4.016-14.61c.106-.128.186-.306.32-.378.38-.206.726-.44.982-.792-.003-.055-.03-.145-.003-.164.285-.207.58-.406.87-.607l.077.086c-.03.075-.062.147-.093.22.33-.346.747-.51 1.21-.592.257-.047.5-.162.75-.246l.045.072c-.244.13-.477.293-.736.373-.44.138-.868.26-1.216.6-.193.188-.47.29-.703.44-.195.127-.382.27-.57.408-.29.217-.574.436-.862.654a1.702 1.702 0 0 0-.073-.075zm-.024.446c.133-.146.248-.316.404-.432a60.61 60.61 0 0 1 2.196-1.577c.268-.18.598-.268.9-.395l.034.094c-.01.018-.016.05-.03.055-.595.21-1.088.57-1.547.996a8.092 8.092 0 0 1-.926.71c-.31.214-.64.4-1.032.55zm-4.093 21.54c-.393-.935-1.03-1.735-1.283-2.73-.178-.702-.592-1.343-.896-2.01-.02-.046-.005-.106-.01-.192.338.263.47.605.583.964.087.275.21.537.306.81.12.35.214.704.347 1.046.087.227.22.434.334.648.21.395.424.785.62 1.188.037.073 0 .184 0 .278zm.22-25.808c.5.45 1 .902 1.51 1.346.24.212.51.392.75.605.35.31.694.627 1.026.957.11.105.172.262.248.38-.588-.487-1.16-.956-1.723-1.433-.192-.166-.364-.356-.55-.53-.147-.136-.28-.315-.455-.386-.435-.182-.605-.565-.806-.94zm4.49 24.43c.29-.008.1.143.047.19-.4.353-.802.706-1.222 1.034a85.54 85.54 0 0 1-2.02 1.528c-.273.2-.572.37-.86.553l-.062-.076c.276-.23.552-.46.828-.688-.165.074-.332.152-.5.23a2.37 2.37 0 0 1-.07-.097c.386-.28.77-.565 1.153-.85l-.095.165c.583-.36 1.183-.697 1.745-1.088.384-.268.713-.61 1.07-.92-.096.055-.195.104-.284.166-.79.55-1.58 1.104-2.37 1.654.233-.232.446-.492.704-.693.76-.6 1.54-1.178 2.273-1.734a.84.84 0 0 1-.337.625zm-4.85 2.375l-.14.052-2.08-4.678c.05-.02.1-.043.15-.064.15.376.297.75.453 1.122.11.266.23.53.352.79.198.425.4.845.602 1.267.157.332.32.662.47.996.074.165.13.34.19.513zm.837-28.42c-.083-.136-.125-.296-.186-.446l.154-.068c.332 1.06 1.33 1.477 2.023 2.19.232.235.452.485.627.784-.27-.228-.535-.466-.813-.687-.662-.53-1.35-1.03-1.803-1.773zm-.887 4.16c.165.122.338.237.49.376.14.12.258.27.39.404.2.202.38.435.612.59.347.23.4.25.56.74-.853-.602-1.685-1.137-2.05-2.11zm5.764 2.077c-.206.117-.412.23-.62.346.05-.076.084-.17.15-.22.527-.372 1.05-.75 1.597-1.093.506-.315 1.038-.59 1.558-.88l.067.088c-.153.127-.288.313-.464.37-.61.196-1.113.54-1.58.974-.192.184-.466.28-.705.416zm2.54-1.146l.002-.003c0-.002.003-.002.005-.004l-.01.012c.23.12.078.254-.014.326-.42.33-.84.663-1.29.946-.318.197-.68.324-1.023.48.21-.183.416-.374.636-.542.29-.23.593-.44.9-.65.133-.092.295-.146.43-.24.13-.095.243-.214.365-.323zm-2.368 1.77l.036-.016a.184.184 0 0 0-.025.023l-.01-.007zm-2.198-.783v-.004l.012.018-.012-.01.018.16c-.03.02-.057.046-.085.067-.263-.295-.53-.588-.792-.883-.118-.133-.207-.305-.348-.398-.424-.28-.678-.695-.94-1.107.31.233.657.433.922.71.434.455.82.96 1.226 1.447zM61.473 49.6c.433 1.124.835 2.173 1.238 3.224-.203-.373-.417-.742-.607-1.123-.182-.364-.304-.765-.513-1.116-.173-.29-.26-.56-.117-.983zm2.15-19.656c.194.188.342.338.495.48.25.234.52.445.747.697.197.22.348.487.517.733-.386-.166-.72-.37-.918-.785-.096-.202-.344-.337-.536-.485-.18-.14-.402-.247-.305-.64zm3.526 3.65c-.346-.376-.677-.726-.99-1.09-.314-.364-.61-.745-.915-1.118.026-.023.053-.045.08-.066.42.49.84.98 1.267 1.466.07.08.178.13.27.188.22.135.397.294.286.622zm3.87-2.675l-2.01 1.354-.064-.088c.668-.463 1.234-1.07 1.99-1.408l.083.14zm-6.89-3.67c-.05-.064-.023-.194-.026-.23l1.928 1.846c-.757-.474-1.383-.984-1.902-1.617zm-1.4 25.61a.06.06 0 0 1 .004.016l-.008-.01a.24.24 0 0 0-.017-.043l.02.035zm.79 1.79c-.453-.503-.58-1.155-.786-1.774.44.512.632 1.135.787 1.775zm3.747-22.296a1097.16 1097.16 0 0 1-1.54-1.783l.103-.1c.428.68 1.24 1.04 1.438 1.884zm2.114 1.354c.01-.01.017-.013.024-.02l.01.01c-.01 0-.02.005-.033.01zm-1.822 1.138c.537-.484 1.094-.94 1.823-1.14l-1.773 1.214a1.915 1.915 0 0 1-.05-.074zm-.607 20.04l-.01-.01c.01 0 .02-.005.03-.007l-.02.016zm.02-.017l1.18-.928c.062.48-.465.74-1.178.928zm-3.18-24.892c-.07-.078-.114-.182-.17-.273.03-.016.062-.03.092-.043.434.442.87.886 1.302 1.33l-.08.083-.68-.633c-.157-.15-.317-.3-.464-.463zm8.216.55l-.115.277c.016.076.068.18.036.227a.84.84 0 0 1-.273.24c-.478.263-.98.483-1.438.774-.526.332-1.016.72-1.52 1.086-.308.223-.615.445-.92.668l-.076-.104a21.3 21.3 0 0 1 .536-.37c.064-.044.146-.067.2-.118.955-.904 2.065-1.578 3.22-2.19.054-.028.09-.09.137-.136-.267.107-.533.217-.798.324-.02-.027-.038-.057-.057-.084.33-.223.66-.443.99-.664.025.024.053.048.08.07zm-6.225 2.905c.53.21 1.248 1.055 1.213 1.37-.2-.24-.39-.487-.598-.718-.2-.22-.42-.426-.613-.652zm-1.81-3.772l-.237-.394.08-.08c.18.137.358.27.535.41.272.215.544.426.81.646.18.15.352.308.517.472.227.23.453.46.662.703.31.365.612.736.89 1.125.056.078-.005.238-.016.363-.1-.16-.19-.33-.31-.475-.202-.246-.48-.447-.632-.717a2.56 2.56 0 0 0-.864-.9c-.2-.128-.375-.304-.55-.47-.15-.145-.28-.307-.42-.46.14.218.283.433.425.65-.478-.108-.697-.475-.89-.87zm2.947 25.245a.615.615 0 0 0 .027-.025s.01.007.01.01a.24.24 0 0 0-.037.014zm0 0c-.146.14-.28.29-.446.4-.274.182-.573.328-.86.49.184-.315.43-.483 1.307-.89zM67.94 33.17c.138-.118.294-.218.442-.325-.14.06-.28.117-.42.174a1.555 1.555 0 0 0-.05-.08l.835-.54.036.05c-.105.12-.21.237-.317.356l.392-.238c.018.027.037.055.056.08-.378.29-.755.586-1.133.88l-.084-.077c.08-.095.15-.2.244-.28zm2.685-1.67c-.437.28-.874.562-1.31.84.43-.29.695-.827 1.31-.84zm1.283-1.99c-.294.39-.717.485-1.157.534-.01-.03-.022-.06-.035-.09l1.194-.443zm-4.214 4.54c.15-.37.56-.404.858-.584-.26.227-.522.453-.783.678-.027-.03-.05-.063-.077-.094zm.913-.62l-.055.036.048-.04c.005-.005.01-.007.016-.01l-.01.015zm-2.036-.3c.2.24.4.48.6.725l-.09.076-.622-.704c.04-.032.076-.065.114-.096zm1.495-1.35c-.032-.04-.062-.084-.093-.127.27-.15.54-.303.807-.455l.064.105c-.26.16-.52.32-.778.477zm-2.674.088l-.01-.012.016.006.012.02c-.007-.005-.012-.007-.017-.013zm.573.87l-.556-.858c.297.2.558.427.656.788a4.33 4.33 0 0 1-.1.07zm-1.55-3.364l.728.545a1.9 1.9 0 0 1-.08.112l-.71-.575.064-.082zm5.42 16.03a.205.205 0 0 1-.035.024.29.29 0 0 0 .026-.033l.023-.012c-.005.01-.01.014-.014.02zm.448-.21l-.433.19c.15-.204.302-.407.454-.612.02.015.043.026.065.04l-.084.383zm-9.087 2.754c.014-.102.024-.205.037-.307.04-.077.08-.16.106-.24l.06.26c-.066.17-.13.345-.184.526l-.032-.012c.005-.075 0-.148.012-.226zm1.335-13.564l.255-.248v.006c-.086.136-.16.278-.258.4a1.19 1.19 0 0 1 .003-.157zm-.903 9.7c0-.007.004-.015.005-.024a.96.96 0 0 1-.067.606l.06-.582zm.388-3.626c-.01-.08.007-.156.017-.234.008.012.02.02.03.035.074.16.042.33-.043.48.008-.023.01-.047.02-.07l-.025-.21zm-7.86-12.46c.163.175.263.362.31.47.03.063.045.123.065.184a.93.93 0 0 1 .104.114.876.876 0 0 1 .172.46c.118-.08.3-.14.403-.1.255.106.497.27.703.458.063.057.043.297-.025.39-.12.16-.3.276-.508.45a1.4 1.4 0 0 1 .01.26l.01.025c.023.026.038.056.056.083.015-.17.234-.4.563-.56.228-.11.43.012.6.365.2.414.156.586-.19.764-.244.126-.625-.028-.853-.315.006.025.02.047.024.072a.89.89 0 0 1 .375.67v.027c.004.004.006.012.01.018.97.402 1.903.865 2.585 1.734.235-.77.692-1.405 1.22-2.007.56-.637 1.14-1.266 1.477-2.064.047-.11.14-.2.212-.3-.153.71-.508 1.295-1.015 1.813-.403.412-.77.863-1.15 1.303-.076.092-.126.21-.19.316.16-.058.25-.165.348-.27.19-.2.355-.437.577-.597.69-.502 1.197-1.16 1.668-1.854.124-.184-.02-.664-.22-.766a67.657 67.657 0 0 0-.022-.53c-.37.204-.476-.048-.582-.292-.165-.38-.117-.61.17-.853a1.934 1.934 0 0 0-.044-.12 35.663 35.663 0 0 0-2.787-5.545c-.204-.334-.506-.61-.76-.906-.27.175-.27.68-.64.495-.31-.158-.3-.527-.17-.85-.76-.145-1.656.467-1.752 1.174.377-.024.377-.024.433.163.117.397.026.718-.318.86-.11.045-.304-.115-.478-.19-.048.452-.09.94-.157 1.423-.038.27-.083.494.198.695.22.16.337.46.195.716-.07.13-.327.154-.544.246l-.106.948c.388-.227.568.03.743.264.124.166.155.34-.01.516-.24.258-.485.316-.835.162v.047c.037.07.068.145.085.224l.043.206zm1.16-.9c-.036-.032.084-.243.134-.376.275-.024.484-.07.69-.056.41.03.444.102.31.48a.38.38 0 0 0-.016.063c-.03.202.05.575-.254.495-.322-.084-.595-.375-.862-.607zm3.01.555c-.14-.283-.02-.53.342-.705.365-.178.71 0 .918.488.09.213.03.387-.194.494-.334.162-.924.013-1.067-.278zm.295 1.77c-.26.137-.5-.008-.71-.426-.175-.348-.118-.588.174-.734.31-.154.84.03 1.01.354.134.255-.062.59-.473.806zm.07-2.666c-.266.107-.584-.096-.742-.506-.094-.237.005-.437.232-.552.303-.154.68.004.827.334.135.302.006.593-.318.726zm-.763.385c.123.218-.026.68-.253.796-.266.13-.783-.11-.952-.447-.036-.074.302-.557.443-.633.194-.106.636.06.764.285zm-.145-1.962c-.037.242-.37.27-.645.082-.378-.266-.426-.732-.108-1.06.212-.22.58-.153.756.222 0 .19.036.478-.004.756zm-.855.365c.175.055.342.15.496.252.094.063.233.19.216.254-.048.19-.16.36-.25.537-.332.08-.614-.01-.812-.262-.202-.252-.096-.514 0-.754.02-.05.242-.06.352-.026zm-.477-.576c-.136.272-.352.294-.62.224-.307-.08-.547-.234-.47-.568.048-.21.238-.387.354-.563.24-.03.402-.06.563-.067a.296.296 0 0 1 .185.063c.17.12.16.564-.012.91zm-.24 4.323c-.148-.21-.172-.438.01-.644.28-.32.77-.526.976.013.195.408.165.48-.274.635a.95.95 0 0 0-.152.07c-.207.115-.41.143-.56-.074zm.754.323c.396-.195.925-.088 1.083.22.122.237-.114.833-.376.958-.294.142-.58.02-.74-.313-.22-.455-.21-.744.03-.863zm1.022 2.864c-.42.158-.6-.225-.84-.418-.137-.11-.165-.368-.22-.564-.013-.04.056-.12.107-.158.283-.2.98.006 1.127.328.204.457.157.686-.172.81zm1.238-.684c-.083.125-.338.152-.523.19-.06.015-.178-.062-.205-.126a6.98 6.98 0 0 1-.29-.814c-.09-.318.12-.55.278-.79.024-.034.185-.036.224.005.232.24.446.495.74.827-.06.203-.087.49-.226.71zm.747-1.18c-.03.004-.18.064-.218.02-.253-.278-.52-.558-.7-.882-.07-.12.063-.366.132-.546.025-.066.14-.148.205-.14.307.03.612.087.916.145.042.007.08.07.106.114.216.383.01 1.063-.444 1.29zm.534-1.7c-.32-.02-.586.024-.8-.064-.315-.128-.324-.423-.084-.67.093-.097.146-.243.253-.304.13-.078.308-.14.448-.113.098.018.186.186.24.303.05.11.076.242.068.36-.01.144-.07.287-.122.486zm.276-2.03c-.042.182-.03.453-.16.566-.095.083-.406.02-.56-.075-.378-.236-.464-.678-.23-1.014.05-.07.24-.134.284-.1.217.17.408.375.667.623zm-.75-1.567c.157.33-.015.802-.36.92-.314.103-.423-.19-.54-.38-.166-.27.024-.676.345-.83.328-.16.42.11.555.29zm-.812-1.108c.17.32-.022.786-.4.976-.228.113-.667.002-.685-.223-.026-.322-.004-.682.123-.97.076-.173.864.032.962.216zm-.423-1.103c.112.23.03.5-.225.57-.37.105-.726.113-.843-.197-.107-.283-.03-.795.16-.9.2-.11.755.21.908.525zm-1.57-1.55c.17-.084.485.05.592.258.12.23 0 .6-.235.727-.237.127-.542-.02-.698-.34-.144-.296-.067-.442.34-.645zm-.496 1.228c.19-.104.557-.04.635.115.166.318.083.725-.174.855-.29.146-.566.02-.75-.346-.103-.21.016-.472.288-.623zm-.77-1.557c.2-.005.48.056.594.196.17.21.045.63-.13.705-.24.106-.71.007-.796-.17-.082-.166.138-.723.33-.73zm-.4 1.26c.204.03.448.07.69.106-.11.293-.15.658-.355.852-.206.2-.37-.105-.49-.29-.148-.23-.073-.42.156-.67zm-.934 1.55c-.11-.2-.005-.768.147-.84.204-.096.46.064.622.39.128.26.048.507-.226.63-.224.1-.42.043-.544-.18zm.513 1.33c.22-.105.92.1 1.03.305.12.22.004.592-.214.7-.417.2-.742.07-.973-.396-.105-.208-.025-.52.156-.61zm-.248 2.393c.26-.172.836.004.928.217.094.21-.094.68-.31.782-.182.084-.788-.22-.83-.482-.025-.165.08-.43.213-.518zm5.705 17.185c-.012-.018-.02-.035-.033-.053a.885.885 0 0 0-.115-.46.89.89 0 0 0-.14-.552.892.892 0 0 0-.193-.623.894.894 0 0 0-.167-.382c-.02-.12-.04-.242-.062-.36l-.042-.278a.83.83 0 0 0-.045-.164c-.123-.613-.26-1.225-.363-1.842-.27-1.61-.506-3.227-.753-4.84-.062-.404-.115-.81-.172-1.215.03-.006.06-.01.09-.018.137.572.295 1.14.408 1.715.317 1.615.555 3.246.944 4.842.286 1.18.417 2.376.566 3.57l.08.656zm.203.635a.933.933 0 0 1 .016.293c.02.06.038.123.056.184a.89.89 0 0 1 .25.43l.295-.44c.023-.214.046-.427.067-.64-.01.025-.023.047-.033.072.01-.03.027-.06.038-.094l.02-.19.057-.532c-.06.137-.136.258-.236.324-.145.098-.25.084-.295-.1a5.39 5.39 0 0 1-.085-.453c-.057-.38.206-.633.566-.543.047.01.082.06.096.07.013.03.01.064.02.094a1.01 1.01 0 0 1 .032-.16c0-.1.012-.19.032-.28a.978.978 0 0 1 .038-.638 1.05 1.05 0 0 1 .07-.543 1.27 1.27 0 0 1 .006-.152c-.074-.076-.143-.154-.127-.2.07-.198-.025-.49.164-.622a.995.995 0 0 1 .11-.285 1.12 1.12 0 0 1 .064-.44.616.616 0 0 1-.265.257c-.24.113-.367-.04-.463-.2-.122-.21.016-.632.228-.69.207-.06.404-.03.515.12.014-.1.042-.194.083-.284-.037-.06-.072-.12-.11-.17-.12-.144-.047-.314.213-.49.006-.037.01-.084.016-.113v-.008c-.018-.08-.014-.16-.012-.237-.525.48-1.017.988-1.41 1.59-.35.54-.626 1.086-.45 1.78.125.483.155.993.21 1.493.05.457.1.912.12 1.37.005.017.013.03.017.048l.09.38zm.724-2.766c-.04.223-.087.45-.173.66a.482.482 0 0 1-.28.244c-.056.02-.16-.126-.17-.134-.294-.563-.15-.898.335-.99.178-.034.33-.017.29.22zm-.89-.695c-.185-.38-.076-.858.22-.98.264-.108.38.116.474.29.17.322.07.705-.19.82-.22.1-.433.146-.504-.13zm-1.72-3.714c.117.08.148.283.22.43-.034.02-.068.043-.103.063a5.185 5.185 0 0 0-.364-.273c-.056-.172-.114-.34-.17-.51.14.097.28.195.42.29zm2.534-6.886c.242-.28.403-.633.59-.934.17.275.133.44-.212 1.113.124-.18.25-.355.374-.535l.072-.006c-.01.12.017.267-.044.35a3.287 3.287 0 0 1-.478.503c-.254.23-.52.445-.78.67-.16.14-.29.32-.468.424-.406.24-.63.613-.87.994-.176.276-.44.493-.687.72.083-.42.262-.77.59-1.055.184-.158.32-.367.492-.54.124-.128.264-.237.4-.35.267-.214.536-.423.803-.636-.888.634-1.847 1.212-2.453 2.22.028-.143.02-.307.092-.42.425-.715 1.05-1.24 1.69-1.754.306-.244.634-.472.887-.765zm-2.46 7.585c.095.064.14.205.208.31l-.062.064c-.08-.05-.157-.1-.237-.152a2.114 2.114 0 0 0-.037-.113l-.082-.25c.07.048.14.095.21.14zm3.45-3.21c-.508.54-1.078 1.023-1.61 1.543-.4.39-.777.8-1.242 1.277.093-.242.12-.443.23-.572a84.836 84.836 0 0 1 1.77-1.97c.3-.33.604-.646.907-.964l-.054.686zm-3.282 4.257v-.002c-.036-.13-.077-.258-.117-.385.145.107.19.23.21.463-.03-.03-.063-.048-.095-.076zm2.95-2.072c.063-.047.123-.102.185-.152a4.167 4.167 0 0 0 0 .354c-.257.26-.52.516-.787.762-.56.508-1.1 1.018-1.366 1.754l-.096-.03c.028-.134.026-.284.088-.397.498-.9 1.136-1.67 1.978-2.29zm-.857 8.945l-.086-.36c.03-.058.06-.116.096-.173.043-.068.088-.135.132-.203-.02.19-.042.377-.064.566-.027.057-.054.112-.08.17zm-3-12.96c.073.048.1.163.17.284-.395-.162-.746-.244-1.024-.434a5.235 5.235 0 0 0-.682-.387 1.64 1.64 0 0 0-.102-.278c-.02-.042-.052-.08-.082-.122v-.006c.21.072.422.148.622.244.39.187.74.452 1.1.698zm1.195 6.845l-.035.018c0-.033 0-.066-.004-.1.013.027.025.057.04.082zm2.912-3.947l-.01.137a1.106 1.106 0 0 0 0 .14c-.448.444-.895.89-1.333 1.343-.39.408-.732.857-1.15 1.352.04-.164.044-.3.106-.395.644-1 1.48-1.82 2.388-2.577zm.033-.438a20.22 20.22 0 0 1-1.066.984c-.604.51-1.126 1.078-1.497 1.78a3.405 3.405 0 0 0-.097-.022c.033-.154.02-.35.107-.457.36-.437.735-.866 1.137-1.267.468-.467.965-.906 1.444-1.363l-.027.345zm-4.193.696c.25.177.495.356.735.546l-.678-.376c-.02-.056-.037-.113-.057-.17zM61.824 30c.03.008.06.02.09.03-.075.226-.105.483-.235.67-.336.483-.69.944-1.18 1.302-.51.37-.95.83-1.44 1.27.335-.588.702-1.135 1.235-1.523a5.452 5.452 0 0 0 1.53-1.75zm.79 4.05c-.047.108-.077.22-.086.333l-.148.145c-.064.06-.143.107-.2.176-.46.55-.907 1.11-1.378 1.654a15.46 15.46 0 0 1-1.31 1.344c.078-.143.14-.297.236-.426a8.6 8.6 0 0 1 .57-.69c.208-.228.443-.435.65-.663.163-.18.334-.365.447-.576.266-.494.61-.9 1.092-1.193a.903.903 0 0 0 .128-.103zm-4.793.194c.234.125.45.28.67.424-.025.043-.052.088-.08.13-.137-.063-.283-.112-.41-.194-.357-.236-.724-.44-1.137-.553a1.328 1.328 0 0 0-.08-.144c-.003-.06-.02-.123-.027-.184l.08.038c.33.162.665.312.986.486zm3.837-1.738c.234-.117.437-.295.654-.445.02.023.04.04.063.06-.2.19-.378.415-.605.565-.384.252-.762.488-1.003.908-.134.234-.374.41-.555.62-.154.175-.294.362-.436.548-.218.288-.433.58-.65.866l-.088-.05c.066-.153.094-.345.204-.452.308-.303.574-.623.727-1.03-.018-.054-.067-.132-.05-.157.22-.28.447-.55.672-.824l.093.06-.028.237c.22-.426.576-.693 1-.904zm.223.37c-.513.366-.888.847-1.21 1.384-.202.332-.45.635-.695.938-.24.29-.505.56-.84.813.087-.174.15-.37.268-.525.55-.715 1.098-1.43 1.677-2.12.208-.247.502-.42.756-.63l.058.084c-.004.017 0 .05-.015.056zm-3.685 1.985c.135.076.24.205.343.3-.525-.23-1.037-.454-1.545-.68h-.002a1.176 1.176 0 0 0-.057-.26l.014.005c.422.202.84.413 1.25.637zm-1.57-2.507c.288.166.567.346.82.584-.324-.146-.645-.3-.972-.438a5.507 5.507 0 0 0-.162-.067 1.6 1.6 0 0 0-.062-.104.975.975 0 0 0-.082-.2c.157.066.312.14.46.223zm6.06 1.12a.947.947 0 0 0-.045.313.62.62 0 0 1-.17.19c-.533.358-.922.827-1.248 1.374-.137.228-.374.397-.566.593l-.5.504c.025-.088.033-.188.084-.252.404-.504.802-1.014 1.232-1.494.385-.424.806-.82 1.212-1.23zm-.167 1.08l.007-.01a.917.917 0 0 0 .035.187.983.983 0 0 0-.043.194c-.205.275-.413.55-.643.805-.25.275-.562.496-.85.74.15-.234.297-.473.46-.697.22-.3.45-.588.687-.87.105-.127.246-.224.35-.35zm-3.84 1.807l-.015-.01c.02.052.04.1.062.15-.02.03-.042.058-.063.087-.32-.2-.643-.4-.963-.604a1 1 0 0 0-.146-.168.904.904 0 0 0-.025-.244c.382.25.753.52 1.132.777v-.002l.015.015zm.118.665c-.302-.186-.59-.36-.875-.54l-.01-.034-.074-.184c.067.045.134.09.202.133.09.06.208.075.313.104.25.073.464.175.447.522zm2.984-3.638l-1.56 1.857c-.028-.023-.056-.047-.084-.068.516-.63.893-1.37 1.525-1.902l.12.113zm-5.367-.602v-.002c.002.002.004.004.008.004l-.006-.002zM58.57 35.8c-.45-.292-.905-.59-1.363-.89a1.015 1.015 0 0 0-.065-.195c.523.3 1.105.51 1.427 1.086zm2.422.694c.01-.008.02-.018.03-.025a.2.2 0 0 1-.02.027l-.028.02c.006-.01.013-.016.018-.024zm-.018.024l-1.37 1.656-.07-.057c.384-.615.795-1.207 1.44-1.6zm.78-2.916l.77-.91c.032.016.064.03.097.045l-.032.3c.035.07.113.153.094.208a.846.846 0 0 1-.196.307c-.387.383-.808.734-1.17 1.14-.412.464-.777.974-1.162 1.462-.234.3-.466.6-.7.898-.035-.03-.07-.055-.1-.082.136-.168.272-.336.413-.504.05-.06.122-.104.16-.168.667-1.133 1.55-2.086 2.49-2.992.045-.043.064-.11.095-.168-.227.178-.452.355-.68.53a1.583 1.583 0 0 0-.075-.066zm-2.777 4.627a39.457 39.457 0 0 0-.575-.397l-.08-.24c.343.21.626.465.655.635zm-.398-2.24c.073.06.06.23.08.355-.14-.127-.272-.268-.43-.373-.23-.158-.5-.27-.715-.443a.89.89 0 0 0-.284-.446c0-.016-.003-.03-.005-.045.063.04.126.075.186.114.4.265.794.54 1.168.837zm.857.405c.1-.152.223-.29.336-.434l-.355.284c-.024-.02-.047-.043-.07-.064.217-.25.436-.5.653-.747l.05.037-.207.43c.104-.11.207-.223.31-.334.026.02.05.04.078.06-.283.386-.565.77-.847 1.157-.034-.018-.07-.033-.104-.05.052-.112.09-.235.157-.337zm1.094-1.175c.334-.395.44-.985 1.03-1.167-.344.388-.687.777-1.03 1.168zm.75-2.603l-.063-.076 1.027-.752c-.177.455-.556.662-.965.83zm-1.17 3.897l-.568.867-.1-.07c.046-.397.43-.54.666-.795zm.032-.055a.174.174 0 0 1 .014-.014l-.005.016-.04.05.032-.054zm-2.03.275c.257.178.515.354.773.53-.02.034-.044.065-.064.1-.25-.16-.5-.32-.746-.48l-.023-.06c.02-.03.04-.058.06-.09zm1.68-2.382l-.618.674a10.367 10.367 0 0 0-.124-.096l.65-.66c.03.03.063.055.093.083zM55.45 30.79a.923.923 0 0 1 .12.255.917.917 0 0 1-.104-.158.17.17 0 0 1-.015-.096zm5.558 17.495c-.143-1.11-.274-2.225-.41-3.338a.81.81 0 0 1 .093.205l.014.172c.004.188.058.37.114.55-.004.04-.004.083-.014.122.024.02.046.04.07.063.06.21.1.43.036.66-.002.006.027.02.038.03l.175-.263v.006l.04.172c-.134.262-.216.54-.137.85.078-.162.15-.326.222-.49l.038.16c-.02.152-.037.305-.057.455-.035.067-.07.132-.095.198-.035.094-.04.197-.06.297.035.012.07.025.104.04-.008.1-.02.2-.017.296a1.014 1.014 0 0 0-.097.25l-.06-.434zm-16.52-28.578c-.1.064-.318-.06-.503-.104.03.45.074.94.09 1.43.01.27.004.5.315.648.244.12.41.398.315.674-.048.14-.296.21-.495.336l.06.95c.342-.29.564-.066.776.135.148.14.208.307.078.51-.19.295-.425.395-.797.3.048.28.093.552.13.76.225.106.415.17.576.278.067.047.126.213.095.28-.106.23-.252.44-.387.657-.03.05-.114.102-.106.137.072.342.06.705.375.97.523.442 1.136.646 1.79.786 1.093.236 2.17.523 3.043 1.31.1-.8.44-1.503.857-2.187.44-.723.903-1.44 1.1-2.29.026-.114.103-.218.156-.327-.028.72-.277 1.36-.687 1.957-.33.477-.614.982-.91 1.48-.06.105-.09.23-.135.344.146-.083.22-.204.297-.32.15-.235.274-.495.464-.69.595-.613.98-1.35 1.325-2.113.093-.2-.134-.65-.346-.717l-.114-.515c-.328.262-.477.03-.623-.19-.23-.347-.222-.58.022-.87l-.068-.11a35.64 35.64 0 0 0-3.7-4.98c-.258-.296-.603-.513-.904-.763-.236.22-.15.72-.545.598-.333-.104-.387-.467-.313-.807-.775-.014-1.553.744-1.525 1.46.366-.09.366-.09.454.085.184.37.15.7-.164.9zm.52 3.195c-.138-.188-.113-.51.05-.625.198-.145.924-.063 1.065.12.155.196.108.583-.09.726-.374.272-.717.197-1.024-.22zm1.837-.763c.182.02.363.09.533.162.102.045.258.146.253.213-.012.193-.095.38-.15.572-.314.135-.607.096-.846-.117-.24-.214-.183-.487-.13-.743.012-.053.23-.102.342-.088zm-.13-1.34c.17-.254.546-.25.782.086.034.19.118.465.127.746.006.244-.318.332-.62.19-.417-.194-.546-.65-.288-1.024zm1.87 3.18c-.186-.258-.11-.523.216-.758.33-.236.7-.12.99.324.126.19.096.375-.105.52-.3.216-.907.173-1.098-.088zm.594 1.69c-.23.18-.497.075-.773-.298-.232-.313-.217-.56.044-.752.28-.206.83-.116 1.056.173.176.228.04.592-.328.877zm-.39-2.64c-.244.15-.59.006-.818-.37-.133-.22-.07-.433.134-.585.272-.205.67-.115.872.186.182.274.106.585-.19.77zm-.686.512c.158.19.09.674-.113.822-.24.176-.79.027-1.015-.273-.05-.065.2-.6.327-.7.174-.137.638-.05.802.15zm-.62 2.293c-.048.03-.094.063-.137.096-.183.15-.376.21-.565.024-.182-.182-.245-.402-.102-.637.223-.36.67-.648.965-.154.264.367.245.443-.16.672zm-.836-2.04a.49.49 0 0 0-.006.067c.005.207.148.56-.167.533-.33-.027-.65-.27-.953-.45-.04-.024.04-.253.066-.392.267-.072.464-.154.668-.176.41-.04.458.024.39.42zm-.373-2.144c-.086.294-.295.353-.572.33-.315-.024-.58-.136-.56-.48.01-.214.168-.42.25-.612.233-.075.387-.132.544-.17a.333.333 0 0 1 .192.032c.187.094.252.53.144.9zm-1.172 3.57c-.053-.156.004-.436.12-.545.226-.213.825-.143.953.053.126.19.024.685-.172.825-.165.115-.814-.084-.9-.334zm.62 1.884c-.478-.227-.642-.633-.37-.947.096-.107.293-.22.413-.195.27.06.537.182.772.33.073.045.094.285.042.39-.092.183-.257.33-.44.552-.13-.04-.283-.065-.418-.13zm1.627.85c-.256.195-.763.047-1.024-.3-.118-.155.07-.485.426-.74.206-.15.425-.063.654.257.267.37.255.548-.056.784zm.23-1.812c.358-.262.897-.246 1.106.03.16.212.032.84-.206 1.01-.264.187-.566.116-.782-.185-.295-.41-.334-.695-.117-.855zm1.5 2.644c-.386.23-.63-.12-.898-.266-.155-.085-.226-.333-.316-.517-.018-.037.036-.13.08-.174.242-.25.967-.166 1.165.127.28.415.273.65-.03.83zm1.1-.89c-.058.14-.305.21-.48.282-.055.02-.185-.034-.222-.09a6.845 6.845 0 0 1-.427-.755c-.142-.297.026-.564.14-.824.018-.04.176-.068.22-.035.27.195.526.408.87.686-.02.214 0 .5-.1.737zm.535-1.286c-.028.01-.164.093-.208.058-.3-.23-.61-.46-.844-.748-.088-.11 0-.375.037-.563.015-.07.113-.17.18-.174.307-.02.618-.018.927-.014.043 0 .09.055.124.094.28.34.193 1.044-.216 1.346zm.235-1.768c-.317.037-.573.125-.8.076-.33-.07-.39-.36-.197-.646.074-.107.1-.262.195-.342.116-.098.28-.188.423-.188.1 0 .214.152.29.258a.77.77 0 0 1 .13.344c.01.142-.02.29-.04.498zm-.077-2.045c-.012.186.047.45-.06.584-.08.1-.397.094-.565.025-.412-.168-.574-.586-.4-.96.037-.077.21-.175.262-.147.242.13.465.3.763.5zm-1.01-1.414c.212.297.124.793-.195.965-.292.16-.45-.113-.6-.28-.208-.235-.092-.67.2-.878.294-.213.433.037.596.193zm-1.216.078c-.206.15-.658.117-.714-.1-.08-.313-.12-.67-.046-.977.045-.182.857-.117.985.05.222.287.114.777-.226 1.03zm-.382-2.04c.15.21.116.49-.122.603-.346.166-.697.236-.866-.05-.154-.26-.166-.78.003-.915.178-.145.78.076.985.36zm-1.812-1.255c.153-.113.485-.035.626.15.156.205.102.592-.107.756-.21.167-.537.075-.746-.212-.192-.265-.14-.423.226-.693zm-.278 1.295c.17-.138.543-.136.647 0 .22.286.206.702-.025.876-.26.193-.555.115-.796-.213-.14-.19-.066-.47.175-.664zm-1.025-1.403c.198-.04.484-.027.618.09.208.18.155.61-.004.717-.22.146-.697.13-.813-.03-.11-.152.01-.738.2-.777zm-.177 1.306c.207-.004.453-.008.7-.01-.06.305-.038.672-.205.898-.167.23-.38-.04-.53-.2-.186-.2-.146-.4.036-.686zM45 20.477c.17.234.135.49-.114.66-.203.137-.407.113-.567-.084-.146-.18-.138-.756 0-.852.183-.13.465-.013.68.278zm8.574 19.003c.145.494.294.99.394 1.494.094.467.49.828.445 1.338 0 .008.032.02.043.027.287-.68.627-1.34.845-2.04.21-.67.55-1.235.94-1.802.282-.41.462-.892.67-1.35a.56.56 0 0 0 0-.356c-.103-.367-.226-.727-.346-1.088-.205-.627-.41-1.254-.625-1.88-.108-.312-.24-.618-.37-.958-.278.357-.51.672-.758.973-.604.736-1.188 1.486-1.564 2.37-.253.593-.43 1.18-.137 1.83.207.46.325.957.465 1.44zm.29-.25c-.388-.505-.305-.86.16-1.034.168-.066.323-.074.322.166-.002.23-.007.46-.057.682a.474.474 0 0 1-.235.29c-.056.025-.184-.1-.194-.105zm.355 1.262a5.416 5.416 0 0 1-.164-.436c-.12-.36.095-.654.465-.63.048 0 .09.044.107.054.196.295.13.838-.1 1.06-.126.12-.235.124-.308-.048zm1.4-3.627c.166-.12.23-.104.37.1.176.258.166.594-.04.725-.182.115-.376.207-.54-.047-.12-.19-.01-.62.208-.778zm-.47 2.24c-.125.044-.285-.01-.357-.015-.214-.32-.183-.803.01-.846a.905.905 0 0 1 .555.09c.134.066-.028.7-.21.77zm.445-2.863a.554.554 0 0 1-.147.22c-.098.103-.21.19-.316.284-.096-.152-.267-.307-.27-.46-.002-.18.11-.39.237-.528.163-.18.36-.145.543.168-.005.053-.01.19-.046.316zm-.59.738c.092.238-.076.824-.248.89-.03.01-.08.028-.096.015-.104-.086-.297-.195-.284-.27.037-.242-.168-.57.16-.71.122-.053.31.046.47.075zm1.72-.345c-.558 1.502-1.662 2.754-1.99 4.367.207-1.664 1.328-2.908 1.99-4.367zm-.236-.623c.046.186.06.38.055.574 0 .057-.096.115-.145.166-.196.11-.35.13-.397-.14-.026-.15-.106-.315-.064-.442.04-.12.194-.223.32-.29.045-.025.21.067.23.132zm-.35-1.25c.038.23.095.438.095.645a.39.39 0 0 1-.168.29c-.082.046-.27.036-.32-.024-.12-.145-.27-.35-.247-.502.047-.29.31-.407.64-.407zm-.964-.9c.377-.276.574-.06.645.112.06.146-.03.393-.125.553-.084.137-.526.012-.586-.2-.05-.163.05-.372.064-.466zm-.518.7c.165-.097.347.095.506.245.168.158.02.555-.267.734-.31.195-.44-.12-.604-.26-.184-.16-.067-.41.366-.72zm-.79 1.13c.21-.103.432-.106.565.06.175.25.064.605-.178.777-.218.15-.37.02-.493-.123-.157-.183-.093-.62.106-.717zm-.47 1.134c.24-.152.394.05.516.205.222.29.19.684-.045.84-.2.14-.403.22-.52-.037-.25-.346-.223-.834.047-1.006zm3.225 13.342c.142.592.322 1.172.486 1.758l.086-.002c.138-.363.27-.73.42-1.09.217-.525.368-1.102.695-1.55.553-.76.826-1.632 1.204-2.46.07-.15.074-.33.127-.586-.33.273-.56.203-.735-.016-.073-.088-.06-.248-.084-.375.21-.025.426-.047.67-.076l-.626-2.672c-.17.11-.32.28-.42.254-.123-.034-.245-.214-.288-.354-.033-.113.023-.252.052-.38-.302.57-.61 1.144-.903 1.722-.17.338-.297.697-.465 1.037-.215.43-.468.84-.67 1.273a1.585 1.585 0 0 0-.088 1.13c.217.788.35 1.597.54 2.39zm-.08-1.414c.03-.223.06-.45.088-.676.24.04.48.076.72.113-.07.238-.08.518-.217.7-.166.218-.353.017-.59-.135zm1.402-1.79c.185.163.08.757-.117.888-.2.135-.35.008-.465-.125-.208-.24-.155-.58.197-.83.07.01.28-.022.384.068zm0-.968c.146-.072.407-.066.537.02.176.116.03.548-.24.69-.083.045-.24-.05-.362-.08-.173-.28-.184-.507.065-.63zm-.4 4.14c-.12.095-.332.16-.465.118-.283-.09-.367-.377-.314-.63.076-.356.407-.364.742-.39.093.31.424.604.037.903zm.46-.962c-.238.04-.33-.145-.367-.754.524-.16.646-.127.706.176.047.254-.122.54-.34.578zm.755-.98c-.153.038-.34-.052-.584-.1.047-.237.026-.466.118-.526.166-.11.41-.236.594.008.128.17.06.57-.127.617zm.39-1.602l.1.166c-.1.156-.17.377-.314.445-.112.053-.33-.063-.467-.154-.05-.033-.023-.307.02-.32.21-.075.437-.098.66-.14zm.01-1.834c-.044.203-.04.438-.147.6-.056.084-.307.037-.47.05l-.103-.126c.055-.193.053-.45.18-.56.095-.085.353.016.54.036zM58 43.528l.44.118c.225.326.17.69-.05.824-.185.113-.452.105-.485-.086-.046-.273.056-.57.095-.857zm-.673 1.37c.19-.13.672-.096.77.06.122.192.014.74-.198.77-.178.02-.423-.097-.56-.23-.19-.19-.16-.5-.014-.6zm-.522 1.006c.182-.137.437-.215.623 0 .17.193.067.537-.258.764-.068-.023-.282-.037-.307-.115-.07-.203-.334-.438-.057-.65zm-.414.9c.147-.054.394-.013.508.087.186.158.102.73-.096.815-.125.055-.288.025-.382.03-.273-.406-.277-.84-.028-.93zm-3.656-7.513c.02-.57-.13-1.144-.47-1.54a3.395 3.395 0 0 0-1.756-1.056c-.91-.23-1.812-.488-2.717-.738-.14-.037-.28-.09-.462-.146.28.706.535 1.356.797 2.02.156-.187.702-.327.857-.206.09.068.187.25.153.328a.764.764 0 0 1-.34.37c-.084.04-.253-.065-.368-.132-.08-.047-.132-.143-.26-.285.164.404.258.734.424 1.02.113.19.33.32.5.477-.12-.14-.262-.27-.357-.432-.136-.227-.047-.377.212-.352.164.018.372.066.462.178.11.137.116.355.167.54-.16.02-.322.044-.484.065 0 .004.003.004.004.006 0-.002-.003-.004-.004-.004-.004 0-.007 0-.01.003.288.12.577.246.846.36-.05-.218-.113-.394-.107-.565 0-.043.253-.143.335-.104.15.072.3.21.375.357s.054.345.072.487l3.01 1.965c-.058-.197-.138-.46-.238-.793l-.19.417c-.234-.33-.438-.61-.647-.9.376-.19.482-.164.73.14-.108-.31-.218-.62-.342-.968-.253.427-.318.437-.662.16-.077-.064-.2-.09-.243-.167-.1-.172-.16-.36-.234-.545.17-.05.337-.148.503-.145.144.002.29.118.443.188zm-4.038-2c-.18.127-.467-.002-.717-.342-.145-.146-.158-.32.04-.48.17-.134.55-.054.69.138.143.196.133.58-.015.686zm.374.098c-.122-.23-.062-.557.12-.658.194-.11.72-.017.81.142.107.193.044.654-.1.73-.287.144-.696.04-.83-.215zm1.2 1.212c-.378.28-.65.273-.833.018-.192-.27-.157-.516.1-.695.205-.14.676-.035.84.19.168.235.06.393-.108.487zm.154-1.432c.2-.148.51-.086.67.137.16.22.124.727-.09.764-.164.025-.402-.12-.54-.256-.213-.21-.202-.526-.04-.647zm.143 2.057c-.175-.258-.106-.592.218-.77.408-.23.4.323.626.354.21.254.073.39-.09.51-.244.175-.6.13-.75-.096zm1.62.996c.06.088.045.23.064.344-.11.008-.225.05-.326.023-.174-.045-.337-.13-.48-.188-.058-.167-.128-.27-.123-.37.006-.143.07-.277.108-.416.12.06.255.098.354.18a2.2 2.2 0 0 1 .408.428zm-.745-1.844c-.027-.17-.226-.38.013-.59.166-.146.67-.05.8.14.137.206.104.638-.058.755-.167.12-.534-.013-.755-.304zm1.343 4.523c-.61-.538-1.315-.87-2.104-1.058.148.067.29.14.438.196.645.24 1.227.563 1.71 1.08.233.252.587.395.89.58.245.15.477.303.53.637-.96-.62-1.92-1.24-2.884-1.86.172.16.327.345.516.48.477.345.966.673 1.457.997.195.127.417.213.613.34.18.117.343.268.514.402l-.086.13c-.188-.095-.42-.147-.556-.29-.646-.69-1.45-1.143-2.25-1.615-.39-.233-.732-.546-1.204-.61.53.322 1.072.63 1.585.977.467.316.904.68 1.355 1.018.274.207.554.408.83.61l.472.35c-.02.042-.042.08-.063.12-.067-.033-.133-.068-.2-.102a.76.76 0 0 1-.013.046c.138.112.276.226.413.34-.57-.05-.992-.36-1.42-.67-.33-.24-.684-.452-1.027-.68-.205-.132-.423-.253-.612-.407-.48-.39-.97-.754-1.575-.934-.075-.02-.125-.126-.188-.19a1.72 1.72 0 0 1 .117-.03l-.422-.644.05-.05.408.15c-.097-.09-.195-.173-.293-.26l.032-.067 1.254.47c.1.037.2.08.3.117-.42-.193-.843-.383-1.262-.584a4.39 4.39 0 0 1-.603-.338c-.048-.033-.03-.162.006-.248a47.855 47.855 0 0 1-.302-.477l.08-.08c1.71.81 3.402 1.654 4.832 2.926-.028.043-.057.086-.084.13-.42-.3-.868-.567-1.25-.905zm4.715 9.535c-.095.21-.138.4.028.63.135-.32.248-.612.378-.895.546-1.194.855-2.497 1.68-3.564.423-.55.39-1.162.075-1.826-.1.21-.19.367-.254.53-.137.356-.21.75-.4 1.07-.397.673-.827 1.32-1.078 2.073-.176.527-.435 1.027-.628 1.55-.058.153-.017.34-.02.51h.08c.29-.694.577-1.392.866-2.085.025.008.05.018.076.025-.024.086-.04.174-.073.256-.243.574-.48 1.152-.73 1.723zm2.155-4.897c.004.553-.39.87-.558 1.3-.027-.015-.053-.026-.08-.04.207-.406.414-.815.638-1.26zM56.83 45.19c.1-.187.19-.38.277-.573.24-.537.487-1.074.716-1.62.16-.378.31-.763.43-1.155.056-.178.027-.38.037-.57-.24.24-.42.484-.547.754-.384.805-.74 1.625-1.123 2.43-.176.373-.38.732-.577 1.096-.236.44-.346.89-.158 1.363.316-.575.634-1.147.945-1.724zm.68-2.16l.072.038-.666 1.23-.078-.042c.225-.408.448-.817.672-1.227zm-6.2-8.176c-.03.025-.06.053-.09.08-1.208-.674-2.54-.918-3.873-1.166-.01-.002-.02-.006-.033-.006-.578-.068-.953-.348-.985-.98.734.388 1.562.483 2.352.71.806.23 1.568.625 2.336.977.128.056.194.25.29.383zm1.02-7.606c.19-.316.29-.69.418-1.02.214.24.21.408-.016 1.13l.277-.59.07-.02c.007.12.062.263.016.356a3.32 3.32 0 0 1-.384.576c-.21.27-.438.525-.652.793-.132.164-.23.365-.387.5-.36.305-.515.71-.688 1.127-.125.3-.346.563-.55.828.01-.428.126-.807.4-1.143.153-.188.252-.418.39-.617.1-.146.22-.277.335-.41.225-.258.453-.512.682-.766-.766.78-1.61 1.512-2.035 2.607.005-.147-.03-.305.02-.43.298-.777.824-1.404 1.363-2.018.258-.29.54-.575.74-.905zm-.86 8.164l-.05.074c-.18-.07-.353-.16-.537-.205-.714-.18-1.434-.34-2.15-.52-.52-.13-1.035-.27-1.552-.414-.27-.074-.5-.205-.497-.533.883.182 1.78.316 2.647.56.648.185 1.26.5 1.882.772.105.047.172.178.257.268zm1.267-2.226c-.326.45-.628.918-1.004 1.47.053-.253.043-.456.13-.6a79 79 0 0 1 1.404-2.25c.383-.6.78-1.187 1.16-1.76.227.462-.07.892-.32 1.278-.418.645-.92 1.235-1.37 1.862zm2.91 12.675c-.028.065-.023.14-.035.21.137-.163.21-.337.293-.505.495-.99.993-1.977 1.485-2.965.208-.42.41-.847.6-1.272.08-.18.126-.37.186-.56l-.087-.03-.17.182c.035-.23.074-.467.113-.705a12.56 12.56 0 0 0-.086-.018c-.04.064-.076.127-.112.188.007-.2.012-.383.02-.568-.04.002-.078.004-.116.008-.056-.352-.11-.7-.16-1.047-.585 1.035-1.144 2.03-1.704 3.027.065-.195.106-.404.198-.586.435-.846.892-1.678 1.317-2.525.073-.145.026-.348.036-.525-1.11 1.585-2.638 5.49-2.41 5.9.15-.315.3-.636.45-.956-.102.36-.208.717-.302 1.08-.028.11-.026.227-.038.342l.076.004.335-.637a.13.13 0 0 0 .028.018l-.324.99c.036.01.07.023.107.035.217-.61.423-1.22.657-1.82.173-.443.384-.873.578-1.31l-.003.016s.002 0 .002-.003v-.002c.088-.193.162-.396.27-.578.204-.352.428-.693.644-1.04-.075.204-.12.427-.23.608-.207.35-.453.676-.683 1.012-.004.06 0 .125-.02.18-.318.87-.645 1.736-.96 2.605-.092.25-.154.513-.23.767a.82.82 0 0 0 .084.026c.157-.35.314-.7.47-1.053l.045.024-.29.98c.027.01.056.018.085.027l.356-.733v-.007l.006-.015c.05-.184.08-.38.16-.55.18-.382.39-.75.585-1.122v-.023l.05-.088.494-1.133a3.3 3.3 0 0 0 .103.05l-.598 1.082-.038.09-.01.02c-.007.087 0 .183-.034.257-.23.475-.475.945-.713 1.416 0 .004 0 .01-.003.014l-.002.007c-.004.07.008.146-.02.207-.147.34-.31.67-.46 1.007zm.042-2.38c.007-.61.23-1.27.865-2.344-.303.818-.604 1.636-.867 2.344zm-1.886-.75c-.746-.48-1.412-1.087-2.284-1.345.652.443 1.308.887 1.955 1.34.18.127.333.295.5.443l-.084.098c-.33-.234-.656-.473-.994-.7-.39-.26-.773-.53-1.186-.747-.723-.374-1.47-.704-2.198-1.064a.918.918 0 0 1-.32-.275c-.03-.04.046-.155.075-.237-.38-.125-.232-.543-.5-.78 1.842.587 3.39 1.538 4.805 2.714a.886.886 0 0 0-.042.074l-.254-.14-.03.03c.185.197.372.394.56.59zm1.093 3.49a5.34 5.34 0 0 1-.067.09c-.29-.137-.598-.25-.868-.422-.94-.604-1.867-1.23-2.8-1.846-.307-.198-.627-.376-.928-.585-.098-.068-.15-.2-.224-.3l.077-.09c.283.144.58.265.845.437.666.428 1.325.87 1.974 1.326.52.363.974.82 1.613 1.006.15.043.252.252.377.385zm-3.233-10.014c-.982-.62-2.1-.572-3.135-.852-.42-.115-.833-.262-1.24-.42-.152-.06-.28-.19-.415-.29l.063-.106c.303.1.602.21.91.293 1.098.296 2.2.577 3.297.87.346.096.436.194.518.506zm.868.395c.005-.136-.023-.282.02-.403.336-.975.832-1.844 1.554-2.598.418-.437.732-.974 1.094-1.466l.082.035c-.077.18-.126.376-.234.534-.446.656-.883 1.32-1.37 1.945-.465.597-.907 1.194-1.044 1.964-.033-.004-.067-.01-.1-.013zm2.134 6.48c-.16-.356-.08-.71.056-1.05.205-.52.48-1.018.637-1.55.215-.737.597-1.36 1.055-1.96.27-.357.45-.785.668-1.18a.32.32 0 0 0 .054.002c-.014.136.002.282-.047.4-.11.27-.207.556-.385.776-.756.928-1.124 2.055-1.61 3.117-.206.45-.287.955-.428 1.445zm3.825 9.43c-.225.476-.436.96-.72 1.41.703-1.814 1.393-3.628 2.297-5.355l.087.018c-.038.186-.055.38-.12.555-.168.436-.342.87-.54 1.295-.325.697-.673 1.382-1.003 2.078zM45.597 29.425c-.145-.057-.277-.148-.414-.223l.046-.084c.59.145 1.175.303 1.77.432.47.102.957.13 1.418.26.415.117.807.318 1.203.498.08.035.127.145.216.252-.417-.092-.778-.113-1.084-.25-1.01-.46-2.133-.49-3.157-.883zm9.23 14.256c0-.102-.013-.205.005-.3.037-.175.12-.34.13-.515.044-.88.513-1.61.85-2.38.277-.63.65-1.218.98-1.823.14-.252.273-.506.44-.748-.74 1.938-2.007 3.662-2.264 5.79-.046-.01-.093-.016-.14-.024zm-2.852-6.838c-.025.02-.05.043-.076.063-1.514-.793-3.274-.877-4.81-1.604l.03-.09c.478.13.95.27 1.432.393.81.207 1.625.39 2.434.607.265.07.514.216.754.354.1.057.16.184.236.278zm5.718 16.61a3.795 3.795 0 0 0-.087-.024c.042-.182.062-.375.133-.54.33-.772.785-1.507.988-2.306.225-.89.778-1.57 1.186-2.342.034.008.066.018.1.027-.774 1.727-1.546 3.456-2.32 5.184zM53.12 34.28c-.313.466-.574.968-.9 1.526.013-.168-.008-.3.037-.406.464-1.104 1.15-2.06 1.922-2.967.256-.303.473-.64.71-.963l.074.012c-.03.102-.04.217-.097.3-.58.835-1.18 1.654-1.748 2.497zm.2 18.195c1.29 1.084 2.588 2.174 3.88 3.27.06.054.055.18.072.243-1.526-.818-2.614-2.148-3.858-3.305-.058-.052-.07-.154-.094-.208zm-1.35-17.303c.007-.156-.04-.344.028-.467.28-.492.575-.98.902-1.443.436-.617.916-1.205 1.357-1.818.146-.205.23-.455.355-.707.206.26.072.487-.057.67-.422.6-.848 1.2-1.318 1.76-.506.608-.923 1.257-1.167 2.015a3.744 3.744 0 0 1-.1-.01zm8.612 16.664l-2.323 4.31c-.016-.538.28-.99.56-1.466.28-.475.468-1.006.74-1.486.276-.488.606-.947.914-1.42l.107.062zm-3.565 3.088c-.598-.53-1.3-.826-1.792-1.45-.404-.52-1.023-.86-1.524-1.306-.27-.24-.492-.537-.737-.81l.074-.08c.207.177.418.35.622.53.442.39.88.785 1.32 1.178.168.148.326.307.5.45.33.265.66.528 1 .778.237.175.497.32.538.71zm-3.842-3.084c1.316 1.148 2.632 2.297 3.95 3.445l-.096.117c-.46-.36-.93-.71-1.38-1.08-.49-.402-.98-.81-1.444-1.242-.39-.365-.746-.77-1.117-1.16.03-.026.055-.053.084-.08zm-7.077-19.987c1.645.566 3.283 1.148 4.827 1.977-.307-.105-.616-.21-.922-.316-.063-.02-.12-.078-.182-.082-.446-.037-.79-.396-1.162-.48-.668-.147-1.27-.476-1.936-.606-.215-.04-.414-.186-.615-.29-.03-.017-.037-.077-.055-.118.015-.03.033-.055.048-.085zm5.136-4.185c.555-.576.94-1.24 1.205-1.984l.092.014c-.035.236-.02.496-.116.703-.246.534-.515 1.05-.94 1.485-.436.45-.79.98-1.197 1.498.23-.637.494-1.24.953-1.715zm2.907 1.578l-.044.348c-.11.15-.217.305-.33.455-.053.07-.122.133-.166.207-.36.62-.704 1.252-1.074 1.867-.32.53-.665 1.045-1.06 1.55.053-.155.088-.32.16-.462.135-.266.283-.525.442-.775.166-.262.36-.506.528-.768.13-.206.266-.417.34-.646.177-.53.446-.99.87-1.363.107-.09.18-.22.335-.413zm-4.913 1.307c.25.086.49.2.733.303L49.9 31c-.144-.04-.297-.063-.434-.122-.473-.205-.95-.373-1.478-.365-.145.002-.29-.105-.437-.15-.37-.12-.732-.27-1.112-.332-.4-.06-.745-.19-1.024-.517.404.115.807.238 1.212.344.28.073.564.12.844.19.236.06.468.13.702.197.35.103.707.192 1.054.308zm5.72 16.218c.03-.302-.182-.362-.372-.464a19.32 19.32 0 0 1-1.236-.727c-.413-.266-.796-.58-1.21-.84-.55-.354-1.12-.68-1.68-1.01-.047-.03-.11-.027-.248-.053.123.12.244.19.234.236-.088.414.273.46.492.607.664.45 1.34.884 2.01 1.323l-.06.094c-.235-.14-.48-.262-.705-.418-.53-.377-1.047-.764-1.57-1.147-.022.025-.043.053-.064.08.44 1.23.904 2.45 1.31 3.69.15.47.405.77.85.95.14.06.26.172.387.258l-.942-.42-.044.075c.153.098.307.193.456.295.31.216.64.405.92.65.784.69 1.545 1.403 2.316 2.108-.192-.127-.39-.24-.567-.383-.233-.19-.448-.4-.672-.6-.308-.275-.634-.53-.922-.822-.377-.385-.76-.752-1.316-.885.05.102.11.213.2.256.47.215.833.543 1.176.926.407.455.868.863 1.308 1.29.063.062.14.11.212.163.31.21.624.42.936.633.092.063.18.133.27.2l.063-.067c-.057-.07-.108-.148-.17-.213-.17-.17-.35-.334-.525-.502l.594.41c-.008-.055 0-.096-.018-.113-.448-.463-.9-.924-1.35-1.383.116.1.234.202.35.31.31.277.614.57.92.853.03-.012.06-.02.087-.03-.187-.82-.36-1.646-.565-2.462-.11-.44-.3-.862-.393-1.306-.09-.43-.403-.785-.376-1.248.004-.047-.058-.117-.107-.146-.26-.15-.538-.276-.788-.444-.416-.28-.815-.586-1.222-.88.02-.032.042-.062.062-.093.622.473 1.21 1.004 1.97 1.25zm-3.686-.893c-.004-.192-.207-.462.08-.542.153-.043.372.143.606.244-.024.216-.026.384-.07.544-.013.055-.155.137-.188.12-.148-.083-.278-.198-.41-.304-.014-.01-.016-.04-.017-.064zm.454 1.298c-.185-.287-.18-.55.017-.68.18-.12.26-.078.45.22.09.208.38.423.07.632-.177.12-.402.035-.536-.172zm.78 1.554c-.138-.024-.26-.138-.376-.208-.036-.125-.093-.22-.086-.314.01-.144.06-.284.092-.43.116.07.232.134.345.206a.34.34 0 0 1 .112.12c.06.132.15.27.146.4-.002.082-.164.238-.233.226zm.023-.803c-.1-.275-.245-.484-.02-.65.157-.115.384-.188.537.072.12.204.1.603-.08.655-.127.04-.29-.047-.437-.078zm.417.82c.006-.03.03-.055.06-.105.08.008.17-.004.248.023.175.06.355.127.51.225.062.037.106.176.088.252-.023.09-.106.203-.188.236-.302.116-.783-.317-.717-.63zm1.08-.174c-.294.178-.516.176-.645-.027-.148-.233-.137-.66.02-.767.2-.138.504-.034.72.296.098.14.183.328-.095.496zm.675.977c-.036.137-.025.326-.113.398-.18.15-.394.13-.543-.093-.13-.19-.256-.447-.04-.59.247-.167.45.05.695.286zm.082 1.236c-.71-.31-1.134-.954-1.7-1.435.252.2.507.396.752.6.24.2.472.405.708.61l.287.25c-.015-.01-.03-.02-.047-.025zm.845.01c-.262.01-.528-.106-.885-.187.057-.257.04-.48.14-.56.24-.205.686-.11.827.113.22.358.194.626-.083.634zm-.398-1.286c-.1.06-.296.033-.407-.03-.17-.093-.306-.253-.508-.43.01-.09-.02-.24.042-.32.063-.085.246-.173.32-.14.238.115.476.258.665.44.172.17.056.382-.113.48zm-.26-1.26c-.29.178-.49-.03-.6-.232-.082-.154-.03-.38-.037-.576l.59.014c.24.33.236.677.047.794zm-1.54-2.004l1.05.736-.056.078-1.04-.754.045-.06zm-.236.383c.028-.058.188-.11.236-.08.205.126.392.28.642.47-.016.143.007.334-.07.463-.05.08-.268.113-.387.082-.437-.117-.623-.537-.422-.937zm-.214-.07c-.193.384-.43.384-.755-.075-.015-.065-.092-.22-.067-.356.01-.06.227-.106.353-.116.078-.007.157.083.24.103.308.068.366.17.23.44zm.3-18.93c.024.015.05.03.072.046-.164.223-.3.473-.5.658-.334.316-.666.613-.83 1.07-.093.254-.297.467-.44.705-.12.2-.227.407-.334.614-.166.32-.327.643-.49.965l-.097-.036c.04-.162.035-.357.125-.48.25-.35.46-.713.538-1.14-.026-.05-.088-.118-.073-.147.165-.31.342-.616.517-.925.035.014.07.027.105.043.004.08.01.158.012.238.146-.457.45-.783.83-1.063.21-.154.38-.365.567-.55zm4.898 27.4l-.162-.08 2.41-4.585c.012.532-.28.948-.488 1.384-.178.37-.437.7-.642 1.06-.167.287-.31.59-.46.89-.222.44-.438.885-.658 1.33zm-5.18-26.524c-.442.45-.728.988-.954 1.572-.14.36-.33.703-.522 1.04-.186.33-.4.642-.688.948.056-.19.084-.395.174-.566.417-.8.834-1.598 1.287-2.377.162-.28.42-.502.637-.75l.072.07c-.002.022.006.05-.005.063zm3.443 24.472c.067.05.085.166.124.252-.762-.67-1.684-1.11-2.348-1.898-.466-.553-1.118-.947-1.684-1.414-.037-.03-.05-.094-.093-.168.42.088.687.336.945.61.198.21.424.392.63.597.26.26.5.538.768.788.178.166.39.295.585.438.36.263.724.52 1.076.796zM49.7 31.1c.147.05.27.16.39.234-.742-.182-1.46-.352-2.175-.535-.246-.065-.483-.16-.728-.236-.19-.06-.388-.162-.577-.148-.47.027-.792-.244-1.135-.494.647.186 1.294.375 1.945.553.31.082.632.127.94.213.45.123.9.26 1.34.41zm8.195 23.54c.15-.327.296-.653.444-.98-.118.14-.234.28-.35.424l-.104-.055c.22-.424.443-.846.665-1.268l-.014.19c.368-.58.76-1.146 1.095-1.743.23-.41.376-.86.56-1.294-.06.09-.13.178-.182.27-.47.84-.94 1.685-1.41 2.524.11-.31.187-.636.33-.93.423-.872.87-1.73 1.288-2.554a.833.833 0 0 1-.03.707c.258-.133.154.084.126.15-.206.492-.413.986-.646 1.465-.37.76-.756 1.512-1.148 2.258-.16.3-.354.582-.532.873a.93.93 0 0 1-.093-.04zm-1.43-.826c.14.115.265.25.396.377-.03.04-.065.074-.1.11L52.846 51l.106-.12c.3.27.598.542.9.81.216.19.438.373.66.555.364.297.73.584 1.096.877.29.232.58.458.86.694zm-8.868-24.746c-.83-.186-1.668-.338-2.397-.807-.135-.084-.243-.21-.363-.32a3.37 3.37 0 0 0 .107-.125c.76.81 1.842.746 2.776 1.084a4.1 4.1 0 0 1 .907.433c-.342-.088-.684-.186-1.03-.264zm1.388 4.325c-1.03-.168-2.01-.287-2.766-1.002.2.043.405.07.603.127.18.05.35.13.526.193.267.093.53.224.807.263.413.054.468.048.827.42zm3.917-3.014c.315-.506.675-.98 1.015-1.473l.098.05c-.083.18-.122.407-.255.536-.464.443-.766.973-.995 1.566-.095.247-.3.454-.455.68l-.405.583c.01-.09 0-.19.04-.264.31-.565.615-1.135.957-1.68zm1.193-.78v-.005l.002-.004-.002.01zm-.19.45c.078-.14.128-.3.19-.45l-.002.007c.26.006.18.195.13.3-.236.478-.467.962-.75 1.413-.2.317-.47.59-.71.878.11-.256.21-.516.334-.764.163-.332.342-.656.525-.98.082-.14.204-.26.283-.403zm-1.168 2.176l.026-.03-.013.032-.013-.003zm-2.302.265l-.015-.003.085.137c-.017.03-.033.064-.048.096-.367-.15-.735-.296-1.1-.446-.164-.068-.32-.184-.488-.205-.505-.07-.914-.33-1.33-.588.38.074.78.102 1.14.234.59.22 1.16.508 1.737.768l-.002-.004.02.012zm2.118 17.513c.88.822 1.7 1.59 2.52 2.36-.347-.25-.7-.485-1.037-.745-.324-.25-.61-.558-.95-.782-.28-.184-.477-.39-.533-.834zm-6.655-18.62c.257.085.456.155.656.216.326.1.663.173.976.302.274.11.525.283.785.432-.42.02-.81-.018-1.17-.305-.173-.14-.455-.15-.69-.2-.226-.05-.47-.05-.557-.446zm12.5 25.026c.46-1.194 1.07-2.314 1.68-3.435a.96.96 0 0 1 .078.04L58.49 56.46a2.83 2.83 0 0 1-.093-.052zm-7.732-23.284c-.474-.188-.924-.357-1.364-.547-.443-.194-.875-.405-1.313-.61l.04-.094c.593.256 1.184.516 1.78.764.1.042.215.04.325.052.258.027.486.09.53.435zm2.313-4.098c-.408.698-.814 1.397-1.22 2.097l-.093-.053c.4-.707.642-1.502 1.175-2.135l.136.09zm-7.8-.292c-.076-.033-.108-.162-.126-.195.813.263 1.64.528 2.54.82-.887-.095-1.673-.28-2.416-.623zm9.927 23.65a.038.038 0 0 1 .012.013c-.005 0-.008-.004-.013-.006-.01-.012-.022-.02-.033-.03.01.007.022.013.034.022l-.002.002zm1.495 1.264c-.63-.254-1.03-.787-1.483-1.252.617.268 1.063.745 1.482 1.252zM50.23 31.96c-.71-.308-1.437-.618-2.164-.933l.05-.136c.68.425 1.566.394 2.115 1.068zm2.494.292c.004-.01.01-.018.014-.027 0 0 .013.002.01.004a.09.09 0 0 0-.024.023zm-1.142 1.822c.272-.672.574-1.324 1.142-1.822-.355.62-.71 1.244-1.065 1.867a2.17 2.17 0 0 0-.08-.045zm8.22 18.266l-.01.023-.027.03c.004-.01.01-.02.013-.032l.024-.02zm0 0c.22-.45.437-.898.655-1.348.265.404-.096.867-.655 1.348zM46.684 31.55a9.696 9.696 0 0 1-.622-.212c-.098-.04-.182-.113-.272-.172.02-.027.043-.053.065-.078.583.207 1.167.416 1.75.625-.01.037-.023.072-.034.11-.293-.09-.59-.18-.885-.272zm6.306-2.304l.6-1.03c.035.01.07.02.104.026.007.102.01.2.018.3.047.064.138.134.13.19a.85.85 0 0 1-.143.336c-.316.443-.67.86-.957 1.322-.328.53-.6 1.094-.894 1.643-.18.334-.357.67-.537 1.004l-.113-.064c.108-.19.213-.38.323-.566.04-.066.102-.123.128-.195.466-1.23 1.17-2.32 1.943-3.375.036-.05.042-.12.063-.182l-.577.64a1.262 1.262 0 0 0-.09-.05zm-1.94 5.033c-.284-.13-.563-.268-.85-.383-.277-.113-.563-.2-.837-.32.57-.045 1.58.404 1.687.703zm-.777-2.135c.083.045.1.217.143.334-.16-.1-.315-.216-.487-.294-.29-.133-.627-.19-.884-.367a2.558 2.558 0 0 0-1.17-.433c-.24-.03-.47-.11-.7-.186-.198-.062-.387-.15-.58-.226l.665.396c-.472.11-.83-.124-1.176-.395l-.386-.252a4.42 4.42 0 0 1 .037-.105c.22.045.44.088.66.135.338.074.676.146 1.012.23a8.4 8.4 0 0 1 .668.196c.304.105.608.213.903.342.437.194.873.395 1.293.623zm8.704 21.624c.03-.366.177-.624.788-1.374-.07.188-.125.385-.226.557-.17.282-.374.544-.564.816zM51.19 32.397c.072-.168.17-.324.256-.486-.1.113-.2.227-.302.34a2.61 2.61 0 0 0-.08-.05l.515-.85.052.028-.13.46.25-.386c.027.016.056.03.084.047l-.635 1.29c-.036-.013-.072-.02-.11-.03.033-.12.05-.25.098-.36zm.874-1.345c.26-.45.265-1.05.812-1.33-.27.445-.54.886-.812 1.33zm.217-2.76l.883-.92c-.096.48-.434.748-.81.986l-.07-.068zm5.85 27.305c-.083-.658.53-.938.666-1.436.03.014.06.03.09.043-.242.45-.486.897-.754 1.393zm-6.775-22.3c-.026-.4.328-.608.517-.9l-.407.952c-.037-.016-.073-.036-.11-.053zm.54-.958a.064.064 0 0 1 .012-.016v.018a.82.82 0 0 1-.035.055c.01-.02.017-.038.025-.057zm-1.952.62c.284.132.57.26.854.392-.017.035-.032.07-.047.107-.29-.12-.58-.244-.87-.365.022-.045.042-.09.062-.135zm1.245-2.636l-.492.77c-.046-.023-.092-.05-.14-.072.178-.254.352-.508.527-.762.036.02.07.043.105.064zm-2.858 2.018a.05.05 0 0 1-.015-.008h.015a.315.315 0 0 0 .02.012l-.02-.004zm.894.533l-.875-.53c.352.05.686.142.933.423l-.06.107zm-1.994-2.04c-.298-.07-.595-.14-.892-.208.007-.035.015-.068.02-.102.297.057.596.115.893.174l-.02.133zm11.007 11.74c-.006.015-.014.026-.02.04a.385.385 0 0 0 .008-.04.092.092 0 0 1 .016-.022c0 .008 0 .015-.002.023zm.312-.382l-.31.36.14-.75.076.007.092.383zm62.356 3.29c-8.105-7.09-18.83-3.18-27.263 1.23-2.037-.772-4.48-.956-6.04-.767-5.807.707-9.976 4.816-14.38 8.445.12-.283.24-.57.356-.852-.203-.01-.425.04-.49-.04-.08-.1-.073-.317-.024-.456.038-.108.165-.188.265-.276-.58.287-1.165.57-1.74.87-.337.175-.65.39-.986.565-.306.16-.62.307-.93.46-.05.15-.107.294-.177.42.002.02.006.042.007.063.117.074.23.203.257.318.05.208-.255.554-.472.6-.01.013-.017.02-.024.034 0 .016.004.03.004.045a1.606 1.606 0 0 1-.073.38H69.1l-.25-.25-.224.236a23.03 23.03 0 0 1-.374-.01c.113-.262.23-.52.33-.79.15-.394.388-.673.732-.864.117-.065.24-.122.36-.183.018-.05.036-.1.05-.155l-.8.383c.123-.484.463-.78.896-.998.003-.04.01-.078.01-.123a.13.13 0 0 1 .02-.025c-.04.02-.08.04-.12.063-.166.088-.326.186-.533.238.048-.05.09-.112.148-.147l.633-.36a.82.82 0 0 0 .044-.116c-.1.053-.198.105-.297.16a1.732 1.732 0 0 1-.054-.074l.388-.3c0-.044 0-.09-.005-.134a69.98 69.98 0 0 0-.593.34c-.02-.022-.036-.046-.054-.07.21-.16.416-.337.636-.487a1.6 1.6 0 0 0 .086-.057l.042-.19a70.3 70.3 0 0 1-.528.368l-.067-.09c.213-.154.425-.307.638-.463l.02-.095-.472.236c-.02-.015-.04-.03-.06-.048.078-.084.146-.182.234-.254.126-.105.257-.205.385-.31l.03-.134-.46.256c.01-.107.212-.313.532-.572l.033-.145a5.88 5.88 0 0 0-.397.393l-.1-.105c.06-.08.11-.17.182-.24.118-.108.266-.192.373-.308l.083-.375a13.78 13.78 0 0 1-.414.346c.064-.313.26-.527.496-.703l.04-.174v-.003c-.092.053-.183.105-.273.16-.005-.014-.025-.04-.02-.05.157-.18.215-.39.254-.606a.84.84 0 0 0-.034-.087c.025-.03.044-.068.065-.104.03-.19.06-.376.14-.546.023-.054.04-.106.064-.16a.824.824 0 0 0 .006-.226c-.363 1.06-.73 2.12-1.088 3.182-.38 1.123-.713 2.26-1.123 3.37-.174.47-.393.923-.605 1.378-.29-.008-.578-.016-.87-.02l.013-.053c-.018.02-.037.034-.054.052l-.43-.004c.15-.137.304-.27.45-.416.2-.195.355-.438.53-.66-.03-.02-.06-.043-.09-.064l-.36.293-1.053.845h-.3l1.06-.84a.895.895 0 0 0-.054-.07 72.18 72.18 0 0 0-1.237.9h-.176c.788-.57 1.574-1.136 2.364-1.704l-.07-.102c-.483.29-.98.56-1.443.877-.414.287-.786.635-1.195.926l-.28-.002.427-.31a2.782 2.782 0 0 1-.06-.08c-.16.183-.39.278-.612.39h-.175c.337-.262.674-.525 1.013-.787.267-.203.528-.412.804-.6.34-.232.72-.418 1.04-.672.378-.3.822-.547 1.044-1.03-1.407 1.034-2.79 2.054-4.17 3.067.006.01.01.017.018.022l-.254.002c.128-.516.26-1.03.36-1.55.256-1.317.458-2.644.72-3.956.162-.81.44-1.598.59-2.408.21-1.164.344-2.344.523-3.514.203-1.324.422-2.648.628-3.973.187-1.19.39-2.375.44-3.59.066-1.64.288-3.275.427-4.914.05-.586.055-1.174.08-1.762l-.09-.01c-.055.406-.117.81-.17 1.215-.205 1.62-.424 3.238-.608 4.86-.113.987-.136 1.987-.264 2.972-.13.982-.34 1.955-.515 2.932-.12.682-.248 1.363-.367 2.047-.154.877-.3 1.758-.456 2.637-.07.397-.16.788-.24 1.185-.242 1.24-.473 2.482-.73 3.72-.124.603-.316 1.19-.44 1.794-.163.77-.313 1.542-.465 2.317H63c-.634-1.438-1.275-2.873-1.91-4.3-.004.062-.036.157-.008.23.53 1.366.9 2.802 1.647 4.07h-.186c-.465-.737-.71-1.558-.99-2.372-.16-.473-.35-.936-.526-1.404l-.123.036c.042.188.07.38.127.56.124.38.266.755.398 1.134.21.595.377 1.21.642 1.782.042.09.09.178.135.266-.065-.002-.132-.002-.196-.002-.235-.406-.454-.81-.536-1.297-.1-.567-.31-1.114-.47-1.67-.03.003-.06.007-.093.013-.164.875-.216 1.762.283 2.547.087.14.187.27.28.405-.15-.002-.297-.004-.45-.004l-.298-.4a.75.75 0 0 0-.046.4c-.14 0-.285 0-.427.004.017-.082.025-.164.054-.242l-.158.243h-.333c.186-.275.37-.553.568-.82a4.732 4.732 0 0 1-.032-1.025c-.302.65-.69 1.254-1.097 1.85v.002a14.51 14.51 0 0 1-.296.004 14.75 14.75 0 0 0 1.514-2.992l-.015-.078a1 1 0 0 1 .15-.77l.015-.1c0-.02.012-.04.015-.062l-.018-.004c-.066.14-.13.28-.198.422-.57 1.195-1.14 2.39-1.703 3.588-.19.004-.375.004-.566.008-.07-.254-.142-.506-.206-.762-.18-.727-.303-1.467-.496-2.188-.344-1.297-.743-2.576-1.08-3.873-.208-.8-.302-1.63-.522-2.424-.318-1.14-.712-2.26-1.063-3.39-.397-1.28-.778-2.565-1.17-3.847-.354-1.152-.688-2.307-1.174-3.422-.658-1.505-1.172-3.07-1.763-4.606-.21-.547-.463-1.08-.697-1.62l-.085.032c.127.39.248.78.378 1.168.523 1.545 1.033 3.098 1.576 4.637.33.94.745 1.847 1.06 2.788.313.94.55 1.908.818 2.86.188.67.372 1.337.563 2.003.247.858.5 1.714.743 2.573.11.387.2.78.302 1.168.323 1.224.657 2.44.97 3.667.15.596.233 1.21.384 1.805.287 1.153.6 2.3.89 3.45l-.21.006c-.095-.203-.317-.465-.697-.678-.825-.465-1.438-1.154-2.09-1.81-.35-.356-.724-.69-1.087-1.034l-.095.084c.12.15.227.313.358.45.28.286.57.562.855.845.45.443.87.924 1.356 1.324.384.313.81.565 1.218.82l-.378.01c-.157-.13-.313-.26-.48-.37-.494-.33-.988-.63-1.348-1.13-.337-.47-.764-.87-1.152-1.3a1.73 1.73 0 0 0-.078.05c.147.54.335 1.06.648 1.496-5.035-3.873-9.486-8.947-16-9.74-1.56-.19-4.003-.006-6.04.766-8.432-4.41-19.158-8.32-27.263-1.23-.326.286.15.757.473.474 7.663-6.703 17.813-3.188 26.013 1.092-1.113.54-2.03 1.295-2.492 2.303-2.957-.672-6.015-.883-9.244-.326-2.375.41-5.272 1.225-6.685 3.37-1.1 1.67-1.442 4.19.108 5.714 2.626 2.582 9.234 3.445 11.313-.287.21-.376-.367-.714-.577-.337-2.055 3.69-11.505 2.55-11.1-2.31.475-5.685 8.776-6.126 13.036-5.64.99.113 1.96.285 2.92.498-.06.26-.096.53-.097.82-.017 3.82 4.433 4.407 7.184 3.187.394-.174.054-.75-.337-.578-1.785.792-4.534.993-5.714-.96-.48-.797-.526-1.58-.297-2.295 6.137 1.527 11.7 4.85 17.483 7.43-2.833.338-5.638.838-8.38 1.686-5.502 1.698-9.566 4.905-11.06 10.74-.53 2.077-.847 4.19-.894 6.335-.12 5.363-.01 10.723.606 16.057.406 3.51 1.12 6.952 2.79 10.12 1.508 2.857 3.712 4.98 6.827 5.922 4.27 1.29 8.583 1.213 12.81-.223 2.846-.967 4.822-3.127 6.733-5.326.905-1.04 1.738-2.148 2.87-2.977 2.407-1.77 5.022-1.73 7.34.168 1.614 1.322 2.79 3.06 4.226 4.55 1.812 1.888 3.87 3.386 6.446 4.01 3.438.83 6.906.917 10.365.136 3.32-.747 5.827-2.64 7.58-5.556 1.185-1.97 1.902-4.113 2.422-6.332.823-3.503 1.09-7.073 1.24-10.66.19-4.636.42-9.27-.253-13.888-.885-6.055-4.073-10.285-9.86-12.475-2.288-.866-4.643-1.458-7.05-1.85a81.45 81.45 0 0 0-2.207-.327c5.53-2.526 10.888-5.64 16.773-7.104.23.714.182 1.5-.297 2.292-1.18 1.954-3.93 1.753-5.714.962-.39-.174-.73.402-.337.576 2.75 1.22 7.2.635 7.183-3.186 0-.29-.036-.56-.095-.82.958-.213 1.93-.385 2.92-.498 4.26-.486 12.56-.045 13.035 5.64.405 4.858-9.046 6-11.1 2.31-.21-.377-.788-.04-.578.338 2.078 3.732 8.686 2.87 11.313.287 1.55-1.523 1.207-4.043.107-5.713-1.412-2.146-4.31-2.96-6.685-3.37-3.23-.558-6.288-.347-9.246.325-.463-1.007-1.38-1.76-2.493-2.302 8.2-4.28 18.353-7.795 26.015-1.09.323.28.798-.19.473-.476zM72.794 55.43c3.125-2.436 6.13-5.057 9.614-6.977 3.27-1.803 6.87-2.475 10.35-1.27-5.23 2.807-10.193 6.086-15.25 9.186l-.97.59a101.37 101.37 0 0 0-4.27-.318c.035-.035.062-.063.102-.1-.373.023-.524-.125-.568-.348.132-.1.263-.203.395-.305l.326.185c.087-.21.178-.43.27-.645 0 .002 0 0 0 0zm-1.03 1.11l-.007.08c-.163-.01-.328-.015-.49-.02.08-.063.163-.123.244-.186l.254.125zm.28-2.52c.122-.248.38-.43.58-.64.114.144.23.286.285.353-.01.398-.268.66-.523.64-.217-.016-.43-.18-.344-.353zm.385.69c.067-.005.144.064.223.147a62.46 62.46 0 0 1-.567.453 1.36 1.36 0 0 0-.122-.088l-.01-.162c.157-.124.306-.333.474-.35zm-1.156-.612c.234.006.6.316.59.5-.015.227-.423.607-.61.506-.158-.084-.286-.324-.32-.514-.044-.264.16-.496.34-.492zm-.14 1.254c.162.027.37.184.424.33.003.012 0 .023.003.035-.17.13-.34.26-.51.387a.47.47 0 0 1-.09-.002c-.094-.012-.166-.18-.248-.275.025-.33.15-.522.423-.475zm-.872-.743c.228-.008.48.08.506.36.024.26-.262.476-.658.468-.042-.06-.207-.196-.184-.272.065-.205-.014-.55.335-.56zm-.61 1.803c-.03-.316.212-.56.645-.56.05.05.24.147.27.282.03.12-.068.29-.2.424-.233-.01-.464-.02-.697-.028a.818.818 0 0 1-.018-.12zm-13.462.117c-.01 0-.02 0-.03.003l-.15-.104c.06.032.12.067.18.1zm-12.6-8.51c3.486 1.92 6.49 4.542 9.615 6.976.49.383.99.766 1.492 1.145.006.16.07.31.176.445-1.37.063-2.756.146-4.144.258-.224.018-.446.04-.667.057-.526-.32-1.054-.644-1.574-.962-5.058-3.1-10.02-6.38-15.25-9.186 3.48-1.205 7.08-.533 10.35 1.27zm-13.697 1.097c.466-.79 1.26-1.45 2.14-1.873.133-.064.268-.12.402-.176.93.498 1.83 1 2.697 1.496 4.688 2.68 9.204 5.643 13.825 8.436-.182.016-.364.035-.546.055-6.2-2.63-12.137-6.303-18.516-7.938zm22.102 33.516c.984 1.303-3.58-2.582-4.188-3.842s-.252-2.687.793-3.19c1.045-.507 2.386.106 2.994 1.364.608 1.26-.585 4.365.4 5.67zM41.7 74.697c.55-.703 1.68-.736 2.525-.076.846.66 1.08 3.205 2.2 3.768 1.12.563-3.34-.56-4.187-1.22-.845-.663-1.087-1.77-.538-2.47zm-6.8.723c.23-.86 1.257-1.336 2.294-1.06 1.037.276 2.248 2.524 3.5 2.603s-3.292.793-4.33.518c-1.036-.276-1.692-1.196-1.463-2.06zm-4.474 1.146c.146-.55.8-.852 1.46-.676.663.176 1.434 1.61 2.232 1.658s-2.1.506-2.76.33c-.66-.175-1.078-.763-.932-1.312zm-.04 7.432c-.017-.686 1.143-1.826.967-2.605-.174-.78 1.074 1.873 1.09 2.557s-.433 1.25-1 1.262c-.568.013-1.043-.53-1.058-1.214zm2.976 4.768c-.456.238-1.06-.014-1.348-.564-.287-.55.2-1.945-.257-2.51-.455-.564 1.625 1.094 1.913 1.646.287.55.15 1.19-.308 1.428zm2.57 3.752c-.437.273-1.06.066-1.386-.46-.328-.528.052-1.956-.444-2.485s1.703.97 2.03 1.498.24 1.177-.2 1.45zm3.81 2.72c-.306.375-.92.383-1.373.016-.454-.37-.554-1.754-1.157-2.07-.603-.318 1.81.34 2.262.707.452.37.572.97.265 1.35zm3.393 1.377c-.484-.045-1.19-.96-1.754-.902-.562.057 1.414-.598 1.897-.55.484.046.844.41.805.81-.038.402-.462.69-.945.642zm4.214-.1c-.485.046-1.354-.716-1.898-.55-.542.164 1.27-.857 1.755-.904.484-.045.907.24.945.643.04.402-.32.767-.804.814zm3.552-.894c-.4.04-1.114-.59-1.56-.45-.448.136 1.046-.706 1.443-.745.398-.04.747.197.778.53.034.33-.263.628-.66.667zm3.2-1.18c-.314.146-1.07-.16-1.396.08-.323.236.647-.87.958-1.016.312-.145.66-.053.78.205.123.26-.032.59-.343.73zM39.82 92.893c-6.146-3.207-7.522-12.72-7.522-12.72s7.898-2.987 14.045.22c6.146 3.205 8.212 11.395 8.212 11.395S45.967 96.1 39.82 92.893zm13.317-8.098c-.69-1.432-.287-3.057.902-3.63 1.186-.575 2.71.122 3.4 1.552.69 1.434-.664 4.96.456 6.443 1.12 1.482-4.07-2.934-4.76-4.366zm14.56 4.365c1.12-1.483-.237-5.01.455-6.444.69-1.43 2.215-2.127 3.404-1.553s1.592 2.2.902 3.63c-.69 1.433-5.88 5.85-4.76 4.366zm5.19 5.36c-.324-.24-1.082.065-1.394-.08-.31-.144-.466-.47-.345-.73.12-.26.47-.35.782-.206.31.143 1.28 1.25.957 1.015zm3.365.647c-.447-.137-1.162.492-1.56.453-.398-.038-.695-.337-.664-.667.032-.332.38-.568.78-.53s1.892.882 1.444.745zm3.89.797c-.544-.166-1.412.596-1.896.55-.483-.046-.844-.41-.805-.813.04-.4.464-.687.948-.64.483.046 2.297 1.068 1.754.904zm-9.102-4.178s2.067-8.19 8.212-11.395c6.146-3.206 14.044-.22 14.044-.22s-1.375 9.514-7.52 12.72c-6.15 3.21-14.736-1.104-14.736-1.104zM74 76.963c.608-1.258 1.95-1.87 2.995-1.365 1.046.504 1.402 1.934.794 3.193-.61 1.26-5.176 5.147-4.19 3.844.984-1.305-.208-4.41.4-5.67zm10.214 18.75c-.564-.057-1.27.857-1.755.902-.484.05-.908-.24-.947-.643-.04-.4.32-.764.805-.81.483-.047 2.46.608 1.894.55zm4.167-2.53c-.6.317-.7 1.702-1.153 2.07-.452.368-1.067.36-1.373-.015-.306-.377-.187-.98.266-1.348.452-.367 2.863-1.025 2.26-.706zm3.114-3.61c-.497.528-.116 1.956-.444 2.483-.328.527-.95.734-1.388.46-.438-.27-.527-.92-.2-1.446.328-.527 2.527-2.027 2.03-1.498zm2.344-3.882c-.455.566.03 1.96-.256 2.51-.287.553-.89.805-1.348.566-.457-.238-.594-.88-.307-1.428.287-.552 2.368-2.21 1.912-1.646zm.315-.48c-.567-.01-1.015-.576-1-1.26.018-.684 1.266-3.34 1.09-2.557-.176.78.983 1.92.968 2.605-.015.685-.49 1.228-1.057 1.214zm-2.676-7.66c.798-.05 1.57-1.482 2.23-1.66.662-.174 1.316.13 1.462.678.145.55-.27 1.137-.933 1.313-.662.176-3.558-.28-2.76-.33zm-6.577-.586c1.25-.078 2.462-2.326 3.5-2.604 1.037-.276 2.063.198 2.292 1.06.23.863-.426 1.783-1.462 2.06-1.038.276-5.583-.44-4.33-.517zm-3.53-2.342c.846-.66 1.977-.626 2.525.077.55.7.308 1.806-.54 2.47-.845.66-5.306 1.78-4.186 1.22 1.12-.564 1.353-3.107 2.2-3.767zm14.737-25.07c-6.116 1.565-11.826 5.01-17.75 7.608-.243-.03-.486-.06-.73-.084 4.418-2.688 8.75-5.512 13.24-8.078.867-.496 1.77-.998 2.697-1.496.135.06.27.11.403.176.88.424 1.674 1.084 2.14 1.873z"/>
</svg>