<?xml version="1.0" encoding="utf-8"?>
<!-- Generator: Adobe Illustrator 16.0.0, SVG Export Plug-In . SVG Version: 6.00 Build 0)  -->
<!DOCTYPE svg PUBLIC "-//W3C//DTD SVG 1.1//EN" "http://www.w3.org/Graphics/SVG/1.1/DTD/svg11.dtd">
<svg version="1.1" id="Layer_1" xmlns="http://www.w3.org/2000/svg" xmlns:xlink="http://www.w3.org/1999/xlink" x="0px" y="0px"
	 width="126px" height="126px" viewBox="0 0 126 126" enable-background="new 0 0 126 126" xml:space="preserve">
<path fill-rule="evenodd" clip-rule="evenodd" d="M63.729,62.938c-0.018,0.51-0.085,1.004-0.229,1.473v-3.85
	C63.669,61.328,63.756,62.118,63.729,62.938z M64.107,71.201c0.126-0.308-0.065-0.596-0.451-0.722
	c-0.041-0.013-0.088-0.028-0.156-0.051v1.035C63.735,71.542,63.979,71.513,64.107,71.201z M118.654,59.391
	c1.182,1.389,2.36,2.773,3.564,4.189c-1.896,0.638-3.641,0.518-5.193-0.492c-0.543,1.179-1.168,2.491-1.865,3.882
	c1.159,1.362,2.315,2.722,3.497,4.11c-1.953,0.656-3.742,0.501-5.331-0.595c-0.738,1.359-1.531,2.749-2.374,4.137
	c1.187,1.396,2.37,2.786,3.58,4.208c-2.109,0.709-4.026,0.465-5.706-0.882c-1.016,1.502-2.085,2.957-3.199,4.322
	c1.286,1.513,2.568,3.019,3.879,4.56c-2.45,0.824-4.645,0.369-6.504-1.623c-1.071,1.084-2.174,2.055-3.303,2.88
	c0.488,1.654,0.978,3.309,1.477,4.995c-2.241-0.209-3.908-1.229-4.893-3.184c-9.866,3.149-22.635-8.146-22.635-8.146
	s-5.625-5.477-9.404-6.319h-0.648c-0.031,0.007-0.064,0.02-0.096,0.026v-3.515c0.299,0.072,0.616,0.043,0.908-0.148
	c0.221-0.146,0.347-0.098,0.558,0.006c0.228,0.108,0.547,0.202,0.764,0.125c0.479-0.172,1.015-0.363,1.356-0.713
	c0.732-0.754,1.361-1.612,2.028-2.43c0.321-0.393,0.61-0.813,0.953-1.183c0.249-0.268,0.527-0.205,0.597,0.145
	c0.068,0.347,0.106,0.755-0.012,1.073c-0.354,0.962-0.789,1.892-1.203,2.859c-0.469-0.508-0.611-0.535-1.007-0.23
	c0.743,0.43,0.794,0.584,0.485,1.448c-0.014,0.04-0.035,0.078-0.046,0.118c-0.173,0.755-0.392,1.503-0.509,2.267
	c-0.123,0.792,0.023,1.566,0.423,2.274c-0.412-1.712-0.005-3.294,0.705-4.818c0.542-1.163,1.15-2.295,1.707-3.45
	c0.818-1.698,1.472-3.438,1.116-5.375c-0.15-0.824-0.473-1.576-1.275-1.989c-0.316-0.163-0.636-0.139-0.863,0.186
	c-0.203,0.284-0.168,0.603,0.082,0.891c0.369-0.625,0.699-0.65,1.171-0.073c0.133,0.162,0.284,0.347,0.32,0.54
	c0.108,0.575,0.232,1.162,0.222,1.741c-0.015,0.853-0.248,1.674-0.589,2.492c-0.101-0.359-0.146-0.685-0.28-0.968
	c-0.271-0.573-0.858-0.679-1.324-0.256c-0.176,0.16-0.337,0.349-0.459,0.55c-0.394,0.653-0.746,1.329-1.151,1.973
	c-0.398,0.631-0.798,1.269-1.285,1.828c-0.26,0.299-0.689,0.466-1.068,0.635c-0.236,0.105-0.538,0.015-0.563-0.271
	c-0.017-0.207,0.139-0.442,0.261-0.639c0.049-0.078,0.217-0.083,0.375-0.138c-0.312-0.315-0.628-0.332-0.99-0.22
	c-0.142,0.044-0.32,0.046-0.462,0.002c-0.346-0.106-0.649-0.095-0.944,0.19v-4.21c0.076-0.097,0.149-0.198,0.215-0.311
	c0.725-1.242,1.023-2.595,0.83-4.027c-0.159-1.183-0.541-2.289-1.045-3.352v-1.088c1.234,0.507,2.018,0.401,3.621-0.326
	c-0.062,0.128-0.104,0.226-0.155,0.318c-0.719,1.319-1.322,2.683-1.567,4.18c-0.254,1.552,0.028,3.005,0.83,4.352
	c0.329,0.553,0.825,0.919,1.452,1.095c0.943,0.267,1.78-0.306,1.732-1.221c-1.12,0.781-2.077,0.617-2.632-0.537
	c-0.305-0.633-0.495-1.361-0.561-2.061c-0.187-1.998,0.36-3.859,1.265-5.623c0.706-1.381,1.479-2.73,2.132-4.138
	c0.521-1.124,0.943-2.294,0.615-3.598c-0.221-0.879-0.796-1.348-1.699-1.277c-1.236,0.095-2.252,1.446-1.968,2.854
	c0.104,0.503,0.782,0.904,1.266,0.722c0.183-0.068,0.395-0.357,0.394-0.546c-0.001-0.194-0.246-0.387-0.383-0.58
	c-0.169,0.142-0.341,0.28-0.505,0.427c-0.034,0.03-0.043,0.092-0.063,0.139c-0.04,0.009-0.08,0.018-0.119,0.027
	c-0.062-0.176-0.184-0.355-0.174-0.53c0.037-0.706,0.807-1.349,1.508-1.297c0.697,0.051,1.191,0.646,1.127,1.43
	c-0.035,0.402-0.147,0.805-0.27,1.193c-0.477,1.529-1.181,2.932-2.387,4.03c-1.188,1.084-2.292,1.239-3.459,0.442v-8.256
	c0.031,0.001,0.064,0.007,0.096,0.008h0.453c-0.121-0.151-0.252-0.29-0.361-0.458c-1.381-2.104-0.628-5.075,1.773-6.735
	c-0.218,0.588-0.448,1.089-0.588,1.613c-0.418,1.563-0.231,3.023,0.922,4.241c0.396,0.419,0.862,0.705,1.353,0.887
	c1.212-0.315,2.426-0.624,3.643-0.924c1.102-1.228,1.483-2.715,1.271-4.34c-0.043-0.345-0.148-0.781-0.387-0.979
	c-0.524-0.432-1.14-0.986-1.741-1.016c-0.459-0.021-0.955,0.683-1.544,1.152c-0.505-0.383-0.845-1.058-0.499-1.905
	c0.51-1.247,1.589-1.257,2.801-1.006c-0.382-2.86,0.733-4.893,3.044-6.238c0.307,2.073,0.605,4.1,0.905,6.135
	c2.42-0.042,3.699,0.676,4.185,2.376c0.08,0.278,0.104,0.575,0.102,0.876c0.543-1.209,1.589-2.265,3.028-2.853
	c-0.34,0.527-0.673,0.967-0.922,1.449c-0.684,1.317-0.841,2.659-0.197,3.981c2.297-0.49,4.607-0.896,6.944-1.129
	c0.153-0.452,0.258-0.931,0.302-1.438c0.031-0.346,0.022-0.795-0.168-1.04c-0.419-0.534-0.9-1.208-1.481-1.366
	c-0.443-0.12-1.079,0.461-1.756,0.793c-0.41-0.482-0.597-1.215-0.077-1.968c0.767-1.108,1.822-0.886,2.952-0.38
	c0.242-2.876,1.769-4.62,4.315-5.437c-0.147,2.09-0.292,4.134-0.437,6.186c2.372,0.479,3.467,1.456,3.575,3.222
	c0.013,0.2,0,0.403-0.029,0.606c0.435-0.348,0.918-0.657,1.474-0.884c-0.34,0.527-0.673,0.967-0.922,1.449
	c-0.132,0.255-0.237,0.511-0.328,0.767c2.2,0.654,4.444,1.687,6.789,2.772c0.325-0.64,0.521-1.352,0.588-2.125
	c0.031-0.346,0.022-0.795-0.168-1.04c-0.419-0.534-0.9-1.208-1.481-1.366c-0.443-0.12-1.079,0.461-1.756,0.793
	c-0.41-0.482-0.597-1.215-0.077-1.968c0.767-1.108,1.822-0.886,2.952-0.38c0.242-2.876,1.769-4.62,4.315-5.437
	c-0.147,2.09-0.292,4.134-0.437,6.186c2.372,0.479,3.467,1.456,3.575,3.222c0.044,0.7-0.191,1.438-0.593,2.08
	c0.403-0.304,0.841-0.579,1.341-0.783c-0.34,0.527-0.673,0.967-0.922,1.449c-0.381,0.734-0.599,1.477-0.607,2.218
	c2.192,0.766,4.5,1.342,6.953,1.536c0.395-0.693,0.628-1.479,0.703-2.34c0.031-0.346,0.022-0.795-0.168-1.04
	c-0.419-0.534-0.9-1.208-1.481-1.366c-0.443-0.12-1.079,0.461-1.756,0.793c-0.41-0.482-0.597-1.215-0.077-1.968
	c0.767-1.108,1.822-0.886,2.952-0.38c0.242-2.876,1.769-4.62,4.315-5.437c-0.147,2.09-0.292,4.134-0.437,6.186
	c2.372,0.479,3.467,1.456,3.575,3.222c0.074,1.19-0.639,2.491-1.659,3.231c-2.148,5.012-2.153,5.023-2.153,5.023
	S119.193,58.108,118.654,59.391z M103.104,47.551c0.669,0.308,1.347,0.613,2.034,0.914c-0.281-0.172-0.533-0.412-0.749-0.721
	c0.907-0.399,1.99-0.644,2.752-1.274c0.923-0.765,0.676-2.158-0.26-2.807c-0.884-0.613-1.883-0.382-2.5,0.745
	c-0.494,0.902-0.803,1.908-1.168,2.877C103.179,47.376,103.14,47.462,103.104,47.551z M106.979,48.618
	c-0.49,0.166-0.943,0.175-1.352,0.059c0.495,0.212,0.998,0.417,1.505,0.616c0.14-0.357,0.319-0.702,0.545-1.028
	C107.453,48.408,107.223,48.535,106.979,48.618z M89.101,43.643c0.453-0.031,0.905-0.064,1.36-0.08
	c0.777-0.025,1.554,0.033,2.334,0.151c0.726-0.785,0.467-2.039-0.409-2.646c-0.884-0.613-1.883-0.382-2.5,0.745
	C89.568,42.392,89.329,43.015,89.101,43.643z M72.809,46.762c0.771-0.186,1.539-0.374,2.31-0.557
	c1.192-0.283,2.385-0.569,3.579-0.845c-0.134-0.446-0.197-0.899-0.181-1.354c-0.313,0.65-0.776,1.224-1.358,1.576
	c-0.968,0.585-1.927,0.432-2.717-0.297c0.8-0.585,1.805-1.057,2.412-1.837c0.737-0.945,0.195-2.253-0.857-2.685
	c-0.995-0.408-1.921,0.032-2.281,1.266c-0.288,0.987-0.373,2.036-0.521,3.061C73.109,45.673,72.982,46.23,72.809,46.762z
	 M74.822,68.78c-0.995-0.588-1.773-0.139-2.567,0.427c0.384-0.83,0.769-1.584,1.085-2.367c0.741-1.833,0.984-3.703,0.239-5.604
	c-0.284-0.723-0.679-1.368-1.382-1.766c-0.581-0.327-1.176-0.377-1.775-0.045c-0.423,0.233-0.591,0.626-0.487,0.935
	c0.388-0.128,0.767-0.335,1.158-0.363c0.641-0.049,1.076,0.356,1.391,0.882c0.711,1.186,0.771,2.492,0.636,3.813
	c-0.17,1.668-0.816,3.182-1.59,4.654c-0.727,1.386-1.441,2.779-2.084,4.203c-0.447,0.991-0.628,2.051-0.266,3.134
	c0.215,0.642,0.603,0.946,1.21,1.015c1.643,0.188,2.566-1.433,2.432-2.635c-0.07-0.638-0.726-1.095-1.317-0.938
	c-0.315,0.084-0.465,0.317-0.386,0.604c0.055,0.198,0.227,0.464,0.396,0.509c0.266,0.068,0.464-0.14,0.497-0.443
	c0.002-0.038,0.039-0.071,0.063-0.106c0.397,0.191,0.327,0.494,0.234,0.774c-0.241,0.744-0.948,1.161-1.645,0.994
	c-0.688-0.166-1.072-0.813-0.919-1.625c0.081-0.428,0.2-0.854,0.354-1.261C70.96,71.31,72.071,69.284,74.822,68.78z M73.606,54.34
	c-0.461,0.122-0.969,0.335-1.289,0.668c-0.766,0.802-1.435,1.695-2.14,2.557c-0.294,0.36-0.557,0.748-0.873,1.087
	c-0.295,0.313-0.585,0.23-0.652-0.197c-0.056-0.339-0.084-0.732,0.034-1.041c0.367-0.953,0.81-1.877,1.238-2.847
	c0.363,0.515,0.605,0.564,0.98,0.249c-0.748-0.375-0.774-0.438-0.534-1.272c0.176-0.609,0.384-1.214,0.508-1.833
	c0.186-0.93,0.198-1.859-0.25-2.852c0,0.202-0.012,0.298,0.002,0.389c0.135,0.896,0.105,1.799-0.203,2.636
	c-0.442,1.2-0.953,2.381-1.512,3.53c-0.673,1.384-1.422,2.73-1.781,4.243c-0.276,1.172-0.42,2.353,0.132,3.479
	c0.203,0.416,0.541,0.778,0.874,1.109c0.272,0.271,0.628,0.306,0.944,0c0.25-0.242,0.256-0.586-0.009-1.016
	c-0.034,0.075-0.058,0.136-0.087,0.191c-0.228,0.445-0.553,0.513-0.889,0.142c-0.215-0.235-0.405-0.511-0.533-0.803
	c-0.354-0.81-0.271-1.66-0.109-2.496c0.103-0.537,0.279-1.061,0.451-1.696c0.14,0.43,0.198,0.741,0.336,1.012
	c0.271,0.531,0.816,0.63,1.274,0.257c0.141-0.115,0.273-0.253,0.368-0.406c0.417-0.687,0.791-1.398,1.232-2.07
	c0.47-0.715,0.963-1.42,1.514-2.071c0.208-0.246,0.593-0.378,0.922-0.464c0.147-0.039,0.442,0.115,0.521,0.263
	c0.123,0.234,0.025,0.5-0.243,0.64c-0.115,0.06-0.244,0.09-0.395,0.146c0.287,0.273,0.614,0.398,0.912,0.223
	c0.227-0.133,0.453-0.4,0.517-0.65C75.034,54.791,74.327,54.15,73.606,54.34z M102.674,61.344c0,0-7.83-4.137-14.929-1.723
	C80.645,62.035,76.961,70.09,76.961,70.09s7.83,4.137,14.931,1.723S102.674,61.344,102.674,61.344z M105.159,71.098
	c-0.11,2.059-1.765,3.737-3.983,3.948c-0.742,0.069-1.502-0.065-2.254-0.088c-0.783-0.021-1.574-0.091-2.349-0.011
	c-0.907,0.096-1.687,0.701-2.019,1.377c1.1-1.026,1.813-1.279,3.316-1.136c0.575,0.055,1.143,0.185,1.718,0.23
	c0.62,0.05,1.255,0.118,1.868,0.049c2.551-0.288,4.438-2.399,4.325-4.815c-0.07-1.527-0.829-2.65-2.184-3.328
	c-1.23-0.615-2.455-0.562-3.596,0.253c-1.636,1.168-1.669,3.609-0.072,4.683c1.427,0.961,3.294,0.158,3.435-1.475
	c0.087-1.014-0.736-1.882-1.723-1.817c-0.693,0.045-1.247,0.622-1.229,1.3c0.011,0.414,0.185,0.746,0.575,0.928
	c0.384,0.179,0.741,0.154,1.081-0.198c-0.264,0.05-0.482,0.136-0.693,0.121c-0.429-0.03-0.714-0.393-0.706-0.828
	c0.008-0.47,0.381-0.896,0.848-0.972c0.868-0.139,1.615,0.717,1.383,1.602c-0.164,0.621-0.546,1.063-1.189,1.195
	c-0.783,0.162-1.439-0.125-1.922-0.73c-0.919-1.151-0.308-3.007,1.151-3.571C102.988,67.021,105.282,68.807,105.159,71.098z
	 M97.168,75.854c-2.514,0.414-4.236,2.829-3.944,5.546c0.062,0.574,0.156,1.144,0.249,1.714c0.229,1.391,0.125,2.694-0.944,3.771
	c0.973-0.699,1.374-1.682,1.332-2.834c-0.03-0.865-0.167-1.726-0.222-2.59c-0.115-1.807,0.454-3.326,1.981-4.386
	c1.996-1.387,4.613-0.53,5.28,1.708c0.535,1.799-0.762,3.526-2.545,3.39c-1.139-0.088-2.001-1.198-1.784-2.298
	c0.133-0.679,0.757-1.215,1.462-1.258c0.583-0.035,1.106,0.331,1.279,0.895c0.15,0.492-0.014,0.968-0.424,1.222
	c-0.368,0.228-0.836,0.189-1.106-0.105c-0.355-0.389-0.284-0.782,0.102-1.244c-0.604,0.468-0.632,1.075-0.153,1.486
	c0.352,0.304,0.757,0.346,1.17,0.163c0.454-0.2,0.742-0.551,0.796-1.062c0.131-1.226-1.117-2.119-2.316-1.647
	c-0.762,0.3-1.243,0.851-1.331,1.68c-0.101,0.959,0.268,1.742,1.041,2.297c1.654,1.183,4.146,0.076,4.563-2.009
	C102.168,77.704,99.854,75.412,97.168,75.854z M106.563,77.418c-0.079-0.82-0.495-1.42-1.269-1.724
	c-0.815-0.321-1.589-0.173-2.259,0.372c-0.866,0.706-1.083,1.652-0.952,2.729c0.084,0.688,0.101,1.383,0.141,1.969
	c0.21-0.324,0.172-0.831,0.141-1.337c-0.031-0.495-0.119-0.997-0.07-1.485c0.127-1.253,1.142-2.146,2.293-2.073
	c0.667,0.042,1.153,0.381,1.441,0.974c0.253,0.523,0.27,1.053-0.09,1.55c-0.322,0.444-0.982,0.655-1.458,0.467
	c-0.42-0.166-0.706-0.63-0.662-1.073c0.043-0.428,0.485-0.791,0.911-0.747c0.351,0.037,0.62,0.358,0.586,0.698
	c-0.037,0.374-0.316,0.525-0.852,0.464c0.004,0.042,0.008,0.084,0.011,0.127c0.24-0.028,0.55,0.024,0.703-0.105
	c0.173-0.146,0.299-0.465,0.283-0.697c-0.036-0.544-0.609-0.84-1.159-0.659c-0.501,0.164-0.794,0.621-0.745,1.158
	c0.056,0.611,0.531,1.116,1.133,1.201C105.728,79.373,106.666,78.475,106.563,77.418z M109.545,65.002
	c-1.858,0.129-3.312,1.723-3.328,3.714c-0.005,0.62,0.114,1.244,0.204,1.863c0.148,1.021,0.095,1.988-0.645,2.8
	c0.575-0.436,0.883-1.016,0.899-1.699c0.018-0.67-0.043-1.344-0.106-2.014c-0.084-0.88-0.031-1.729,0.407-2.522
	c0.877-1.587,2.781-2.158,4.133-1.238c1.283,0.875,1.433,2.722,0.277,3.575c-0.57,0.421-1.206,0.545-1.852,0.186
	c-0.553-0.308-0.813-0.809-0.773-1.443c0.039-0.596,0.607-1.091,1.213-1.078c0.506,0.011,0.977,0.425,0.91,0.915
	c-0.035,0.268-0.255,0.589-0.486,0.728c-0.159,0.095-0.544-0.009-0.715-0.154c-0.26-0.219-0.22-0.546,0.029-0.813
	c-0.35,0.286-0.4,0.613-0.155,0.942c0.25,0.336,0.787,0.394,1.174,0.126c0.379-0.262,0.527-0.733,0.378-1.197
	c-0.172-0.533-0.687-0.889-1.254-0.865c-1.119,0.047-1.826,1.235-1.339,2.286c0.352,0.76,0.942,1.216,1.811,1.198
	c1.011-0.021,1.759-0.506,2.163-1.423C113.319,67.002,111.679,64.854,109.545,65.002z M114.054,57.094
	c-0.014-0.112,0.003-0.213-0.039-0.303c-0.912-1.996-2.435-3.762-5.355-4.987c-3.768-1.581-8.373-1.561-12.109,0.063
	c-1.694,0.736-3.269,1.576-5.021,2.256c-3.365,1.303-6.946,1.304-10.574,0.416c3.892,0.361,6.787-0.463,8.408-2.48
	c-0.376,0.141-0.653,0.246-0.933,0.35c-4.316,1.611-9.368,1.048-12.691-0.336c-0.537-0.225-0.812-0.67-1.251-1.048
	c0.017,0.165,0.013,0.332,0.05,0.495c0.409,1.799,2.041,3.129,4.562,4.07c4.6,1.718,9.096,1.472,13.468-0.335
	c1.121-0.462,2.245-0.924,3.387-1.366c4.252-1.654,8.499-1.363,12.703,0.059c1.997,0.677,3.498,1.681,4.832,2.777
	c0.139,0.113,0.277,0.227,0.42,0.339C113.92,57.072,113.95,57.073,114.054,57.094z M119.54,51.393
	c0.507-0.197,0.998-0.421,1.399-0.753c0.923-0.765,0.676-2.158-0.26-2.807c-0.884-0.613-1.883-0.382-2.5,0.745
	c-0.494,0.902-0.803,1.908-1.168,2.877c-0.004,0.012-0.01,0.021-0.014,0.033C117.828,51.504,118.675,51.477,119.54,51.393z
	 M62.5,64.41v-3.85c-0.169,0.768-0.256,1.558-0.229,2.377C62.288,63.447,62.355,63.941,62.5,64.41z M61.893,71.201
	c0.128,0.312,0.372,0.341,0.607,0.263v-1.035c-0.068,0.022-0.115,0.038-0.156,0.051C61.958,70.605,61.767,70.894,61.893,71.201z
	 M62.313,48.168c-0.109,0.168-0.24,0.307-0.361,0.458h0.453c0.031-0.001,0.064-0.007,0.096-0.008v8.256
	c-1.167,0.797-2.271,0.642-3.459-0.442c-1.206-1.099-1.91-2.501-2.387-4.03c-0.122-0.389-0.234-0.791-0.27-1.193
	c-0.064-0.784,0.43-1.379,1.127-1.43c0.701-0.052,1.471,0.591,1.508,1.297c0.01,0.175-0.112,0.354-0.174,0.53
	c-0.039-0.01-0.079-0.019-0.119-0.027c-0.021-0.047-0.029-0.108-0.063-0.139c-0.164-0.146-0.336-0.285-0.505-0.427
	c-0.137,0.193-0.382,0.386-0.383,0.58c-0.001,0.188,0.211,0.478,0.394,0.546c0.483,0.183,1.162-0.219,1.266-0.722
	c0.284-1.407-0.731-2.759-1.968-2.854c-0.903-0.07-1.479,0.398-1.699,1.277c-0.328,1.304,0.094,2.474,0.615,3.598
	c0.652,1.407,1.426,2.757,2.132,4.138c0.904,1.764,1.451,3.625,1.265,5.623c-0.065,0.699-0.256,1.428-0.561,2.061
	c-0.555,1.154-1.512,1.318-2.632,0.537c-0.048,0.915,0.789,1.487,1.732,1.221c0.627-0.176,1.123-0.542,1.452-1.095
	c0.802-1.347,1.084-2.8,0.83-4.352c-0.245-1.497-0.849-2.86-1.567-4.18c-0.051-0.093-0.094-0.19-0.155-0.318
	c1.604,0.728,2.387,0.833,3.621,0.326v1.088c-0.504,1.063-0.886,2.169-1.045,3.352c-0.193,1.433,0.105,2.785,0.83,4.027
	c0.065,0.112,0.139,0.214,0.215,0.311v4.21c-0.295-0.285-0.599-0.297-0.944-0.19c-0.142,0.044-0.32,0.042-0.462-0.002
	c-0.362-0.112-0.679-0.096-0.99,0.22c0.158,0.055,0.326,0.06,0.375,0.138c0.122,0.196,0.277,0.432,0.261,0.639
	c-0.024,0.285-0.326,0.376-0.563,0.271c-0.379-0.169-0.809-0.336-1.068-0.635c-0.487-0.56-0.887-1.197-1.285-1.828
	c-0.405-0.644-0.758-1.319-1.151-1.973c-0.122-0.201-0.283-0.39-0.459-0.55c-0.466-0.423-1.054-0.317-1.324,0.256
	c-0.134,0.283-0.18,0.608-0.28,0.968c-0.341-0.818-0.574-1.64-0.589-2.492c-0.011-0.579,0.113-1.166,0.222-1.741
	c0.036-0.193,0.188-0.378,0.32-0.54c0.472-0.577,0.802-0.552,1.171,0.073c0.25-0.288,0.285-0.606,0.082-0.891
	c-0.228-0.324-0.547-0.349-0.863-0.186c-0.803,0.413-1.125,1.165-1.275,1.989c-0.355,1.937,0.298,3.677,1.116,5.375
	c0.557,1.155,1.165,2.287,1.707,3.45c0.71,1.524,1.117,3.106,0.705,4.818c0.399-0.708,0.546-1.482,0.423-2.274
	c-0.117-0.764-0.336-1.512-0.509-2.267c-0.011-0.04-0.032-0.078-0.046-0.118c-0.309-0.864-0.258-1.019,0.485-1.448
	c-0.396-0.305-0.538-0.277-1.007,0.23c-0.414-0.968-0.85-1.897-1.203-2.859c-0.118-0.318-0.08-0.727-0.012-1.073
	c0.069-0.35,0.348-0.412,0.597-0.145c0.343,0.37,0.632,0.79,0.953,1.183c0.667,0.817,1.296,1.676,2.028,2.43
	c0.342,0.35,0.877,0.541,1.356,0.713c0.217,0.077,0.536-0.017,0.764-0.125c0.211-0.104,0.337-0.151,0.558-0.006
	c0.292,0.191,0.609,0.221,0.908,0.148v3.515c-0.031-0.007-0.064-0.02-0.096-0.026h-0.648c-3.779,0.843-9.404,6.319-9.404,6.319
	s-12.769,11.296-22.635,8.146c-0.984,1.955-2.651,2.975-4.893,3.184c0.499-1.687,0.988-3.341,1.477-4.995
	c-1.129-0.825-2.231-1.796-3.303-2.88c-1.859,1.992-4.054,2.447-6.504,1.623c1.311-1.541,2.593-3.047,3.879-4.56
	c-1.114-1.365-2.184-2.82-3.199-4.322c-1.68,1.347-3.597,1.591-5.706,0.882c1.21-1.422,2.394-2.813,3.58-4.208
	c-0.843-1.388-1.636-2.777-2.374-4.137c-1.589,1.096-3.378,1.251-5.331,0.595c1.182-1.389,2.338-2.748,3.497-4.11
	c-0.697-1.391-1.322-2.703-1.865-3.882c-1.553,1.01-3.297,1.13-5.193,0.492c1.204-1.416,2.383-2.801,3.564-4.189
	c-0.539-1.282-0.832-2.045-0.832-2.045s-0.005-0.012-2.153-5.023c-1.021-0.74-1.733-2.041-1.659-3.231
	c0.108-1.766,1.203-2.742,3.575-3.222c-0.145-2.052-0.289-4.096-0.437-6.186c2.547,0.816,4.073,2.561,4.315,5.437
	c1.13-0.506,2.186-0.729,2.952,0.38c0.52,0.753,0.333,1.485-0.077,1.968c-0.677-0.332-1.313-0.913-1.756-0.793
	c-0.581,0.158-1.063,0.832-1.481,1.366c-0.19,0.245-0.199,0.694-0.168,1.04c0.075,0.861,0.309,1.646,0.703,2.34
	c2.453-0.194,4.761-0.771,6.953-1.536c-0.009-0.741-0.227-1.483-0.607-2.218c-0.249-0.482-0.582-0.922-0.922-1.449
	c0.5,0.204,0.938,0.479,1.341,0.783c-0.401-0.643-0.637-1.38-0.593-2.08c0.108-1.766,1.203-2.742,3.575-3.222
	c-0.145-2.052-0.289-4.096-0.437-6.186c2.547,0.816,4.073,2.561,4.315,5.437c1.13-0.506,2.186-0.729,2.952,0.38
	c0.52,0.753,0.333,1.485-0.077,1.968c-0.677-0.332-1.313-0.913-1.756-0.793c-0.581,0.158-1.063,0.832-1.481,1.366
	c-0.19,0.245-0.199,0.694-0.168,1.04c0.067,0.773,0.263,1.485,0.588,2.125c2.345-1.086,4.589-2.118,6.789-2.772
	c-0.091-0.256-0.196-0.512-0.328-0.767c-0.249-0.482-0.582-0.922-0.922-1.449c0.556,0.227,1.039,0.536,1.474,0.884
	c-0.029-0.203-0.042-0.406-0.029-0.606c0.108-1.766,1.203-2.742,3.575-3.222c-0.145-2.052-0.289-4.096-0.437-6.186
	c2.547,0.816,4.073,2.561,4.315,5.437c1.13-0.506,2.186-0.729,2.952,0.38c0.52,0.753,0.333,1.485-0.077,1.968
	c-0.677-0.332-1.313-0.913-1.756-0.793c-0.581,0.158-1.063,0.832-1.481,1.366c-0.19,0.245-0.199,0.694-0.168,1.04
	c0.044,0.508,0.148,0.986,0.302,1.438c2.337,0.233,4.647,0.639,6.944,1.129c0.644-1.322,0.486-2.664-0.197-3.981
	c-0.249-0.482-0.582-0.922-0.922-1.449c1.439,0.588,2.485,1.644,3.028,2.853c-0.002-0.301,0.021-0.598,0.102-0.876
	c0.485-1.7,1.765-2.418,4.185-2.376c0.3-2.035,0.599-4.062,0.905-6.135c2.311,1.346,3.426,3.378,3.044,6.238
	c1.212-0.251,2.291-0.241,2.801,1.006c0.346,0.848,0.006,1.522-0.499,1.905c-0.589-0.47-1.085-1.174-1.544-1.152
	c-0.602,0.029-1.217,0.584-1.741,1.016c-0.238,0.198-0.344,0.635-0.387,0.979c-0.213,1.625,0.169,3.112,1.271,4.34
	c1.217,0.3,2.431,0.608,3.643,0.924c0.49-0.182,0.956-0.468,1.353-0.887c1.153-1.218,1.34-2.678,0.922-4.241
	c-0.14-0.524-0.37-1.025-0.588-1.613C62.94,43.093,63.693,46.063,62.313,48.168z M9.002,51.488c-0.004-0.012-0.01-0.021-0.014-0.033
	c-0.365-0.969-0.674-1.975-1.168-2.877c-0.617-1.127-1.616-1.358-2.5-0.745c-0.936,0.648-1.183,2.042-0.26,2.807
	c0.401,0.332,0.893,0.556,1.399,0.753C7.325,51.477,8.172,51.504,9.002,51.488z M47.303,45.36c1.194,0.275,2.387,0.562,3.579,0.845
	c0.771,0.183,1.539,0.371,2.31,0.557c-0.174-0.531-0.301-1.089-0.385-1.671c-0.148-1.024-0.233-2.073-0.521-3.061
	c-0.36-1.233-1.286-1.674-2.281-1.266c-1.053,0.432-1.595,1.739-0.857,2.685c0.607,0.78,1.612,1.252,2.412,1.837
	c-0.79,0.729-1.749,0.882-2.717,0.297c-0.582-0.353-1.046-0.926-1.358-1.576C47.5,44.461,47.437,44.914,47.303,45.36z
	 M33.205,43.714c0.78-0.118,1.557-0.177,2.334-0.151c0.455,0.016,0.907,0.049,1.36,0.08c-0.229-0.628-0.468-1.251-0.785-1.83
	c-0.617-1.127-1.616-1.358-2.5-0.745C32.738,41.675,32.479,42.929,33.205,43.714z M18.859,46.47
	c0.762,0.631,1.845,0.875,2.752,1.274c-0.216,0.309-0.468,0.549-0.749,0.721c0.688-0.301,1.365-0.606,2.034-0.914
	c-0.036-0.089-0.075-0.175-0.109-0.266c-0.365-0.969-0.674-1.975-1.168-2.877c-0.617-1.127-1.616-1.358-2.5-0.745
	C18.184,44.312,17.937,45.705,18.859,46.47z M19.021,48.618c-0.244-0.083-0.475-0.21-0.698-0.354
	c0.226,0.326,0.405,0.671,0.545,1.028c0.507-0.199,1.01-0.404,1.505-0.616C19.965,48.793,19.512,48.784,19.021,48.618z
	 M19.431,69.666c-0.063,0.67-0.124,1.344-0.106,2.014c0.017,0.684,0.324,1.264,0.899,1.699c-0.739-0.812-0.793-1.779-0.645-2.8
	c0.09-0.619,0.209-1.243,0.204-1.863c-0.017-1.991-1.47-3.585-3.328-3.714c-2.134-0.148-3.774,2-2.945,3.885
	c0.404,0.917,1.152,1.402,2.163,1.423c0.868,0.018,1.459-0.438,1.811-1.198c0.487-1.051-0.22-2.239-1.339-2.286
	c-0.567-0.023-1.082,0.332-1.254,0.865c-0.149,0.464-0.001,0.936,0.378,1.197c0.387,0.268,0.924,0.21,1.174-0.126
	c0.245-0.329,0.194-0.656-0.155-0.942c0.249,0.268,0.289,0.595,0.029,0.813c-0.171,0.146-0.556,0.249-0.715,0.154
	c-0.231-0.139-0.451-0.46-0.486-0.728c-0.066-0.49,0.404-0.904,0.91-0.915c0.605-0.013,1.174,0.482,1.213,1.078
	c0.04,0.635-0.221,1.136-0.773,1.443c-0.646,0.359-1.281,0.235-1.852-0.186c-1.155-0.854-1.006-2.7,0.277-3.575
	c1.352-0.92,3.256-0.349,4.133,1.238C19.462,67.937,19.515,68.786,19.431,69.666z M25.33,70.29c0.008,0.436-0.277,0.798-0.706,0.828
	c-0.211,0.015-0.43-0.071-0.693-0.121c0.34,0.353,0.697,0.377,1.081,0.198c0.391-0.182,0.564-0.514,0.575-0.928
	c0.018-0.678-0.536-1.255-1.229-1.3c-0.986-0.064-1.81,0.804-1.723,1.817c0.141,1.633,2.008,2.436,3.435,1.475
	c1.597-1.073,1.563-3.515-0.072-4.683c-1.141-0.814-2.365-0.868-3.596-0.253c-1.354,0.678-2.113,1.801-2.184,3.328
	c-0.113,2.416,1.774,4.527,4.325,4.815c0.613,0.069,1.248,0.001,1.868-0.049c0.575-0.046,1.143-0.176,1.718-0.23
	c1.504-0.144,2.217,0.109,3.316,1.136c-0.332-0.676-1.111-1.281-2.019-1.377c-0.774-0.08-1.565-0.011-2.349,0.011
	c-0.752,0.022-1.512,0.157-2.254,0.088c-2.219-0.211-3.873-1.89-3.983-3.948c-0.123-2.291,2.171-4.076,4.219-3.284
	c1.459,0.564,2.07,2.42,1.151,3.571c-0.482,0.605-1.139,0.893-1.922,0.73c-0.644-0.132-1.025-0.574-1.189-1.195
	c-0.232-0.885,0.515-1.74,1.383-1.602C24.949,69.394,25.322,69.82,25.33,70.29z M22.964,76.066c-0.67-0.545-1.443-0.693-2.259-0.372
	c-0.773,0.304-1.189,0.903-1.269,1.724c-0.103,1.057,0.836,1.955,1.873,1.807c0.602-0.085,1.077-0.59,1.133-1.201
	c0.049-0.537-0.244-0.994-0.745-1.158c-0.55-0.181-1.123,0.115-1.159,0.659c-0.016,0.232,0.11,0.551,0.283,0.697
	c0.153,0.13,0.463,0.077,0.703,0.105c0.003-0.043,0.007-0.085,0.011-0.127c-0.535,0.062-0.814-0.09-0.852-0.464
	c-0.034-0.34,0.235-0.661,0.586-0.698c0.426-0.044,0.868,0.319,0.911,0.747c0.044,0.443-0.242,0.907-0.662,1.073
	c-0.476,0.188-1.136-0.022-1.458-0.467c-0.359-0.497-0.343-1.026-0.09-1.55c0.288-0.593,0.774-0.932,1.441-0.974
	c1.151-0.073,2.166,0.82,2.293,2.073c0.049,0.488-0.039,0.99-0.07,1.485c-0.031,0.506-0.069,1.013,0.141,1.337
	c0.04-0.586,0.057-1.281,0.141-1.969C24.047,77.719,23.83,76.772,22.964,76.066z M33.472,86.885
	c-1.069-1.077-1.174-2.381-0.944-3.771c0.093-0.57,0.188-1.14,0.249-1.714c0.292-2.717-1.431-5.132-3.944-5.546
	c-2.686-0.441-5,1.851-4.484,4.438c0.416,2.085,2.908,3.191,4.563,2.009c0.773-0.555,1.142-1.338,1.041-2.297
	c-0.088-0.829-0.569-1.38-1.331-1.68c-1.199-0.472-2.447,0.422-2.316,1.647c0.054,0.511,0.342,0.861,0.796,1.062
	c0.413,0.183,0.818,0.141,1.17-0.163c0.479-0.411,0.45-1.019-0.153-1.486c0.386,0.462,0.457,0.855,0.102,1.244
	c-0.271,0.295-0.738,0.333-1.106,0.105c-0.41-0.254-0.574-0.729-0.424-1.222c0.173-0.563,0.696-0.93,1.279-0.895
	c0.705,0.043,1.329,0.579,1.462,1.258c0.217,1.1-0.646,2.21-1.784,2.298c-1.783,0.137-3.08-1.591-2.545-3.39
	c0.667-2.238,3.284-3.095,5.28-1.708c1.527,1.06,2.097,2.579,1.981,4.386c-0.055,0.864-0.191,1.725-0.222,2.59
	C32.098,85.203,32.499,86.186,33.472,86.885z M49.039,70.09c0,0-3.684-8.055-10.784-10.469c-7.099-2.414-14.929,1.723-14.929,1.723
	s3.682,8.055,10.782,10.469S49.039,70.09,49.039,70.09z M51.462,51.52c0.037-0.163,0.033-0.33,0.05-0.495
	c-0.439,0.378-0.714,0.823-1.251,1.048c-3.323,1.384-8.375,1.947-12.691,0.336c-0.279-0.104-0.557-0.209-0.933-0.35
	c1.621,2.018,4.517,2.842,8.408,2.48c-3.628,0.888-7.209,0.887-10.574-0.416c-1.752-0.68-3.326-1.52-5.021-2.256
	c-3.736-1.624-8.342-1.645-12.109-0.063c-2.921,1.226-4.443,2.991-5.355,4.987c-0.042,0.09-0.025,0.19-0.039,0.303
	c0.104-0.021,0.134-0.021,0.145-0.03c0.143-0.112,0.281-0.226,0.42-0.339c1.334-1.097,2.835-2.101,4.832-2.777
	c4.204-1.422,8.451-1.713,12.703-0.059c1.142,0.442,2.266,0.904,3.387,1.366c4.372,1.807,8.868,2.053,13.468,0.335
	C49.421,54.648,51.053,53.318,51.462,51.52z M55.578,59.426c-0.6-0.332-1.194-0.282-1.775,0.045
	c-0.703,0.397-1.098,1.043-1.382,1.766c-0.745,1.9-0.502,3.771,0.239,5.604c0.316,0.783,0.701,1.537,1.085,2.367
	c-0.794-0.565-1.572-1.015-2.567-0.427c2.751,0.504,3.862,2.529,4.723,4.79c0.154,0.406,0.273,0.833,0.354,1.261
	c0.153,0.812-0.231,1.459-0.919,1.625c-0.696,0.167-1.403-0.25-1.645-0.994c-0.093-0.28-0.163-0.583,0.234-0.774
	c0.023,0.035,0.061,0.068,0.063,0.106c0.033,0.304,0.231,0.512,0.497,0.443c0.17-0.045,0.342-0.311,0.396-0.509
	c0.079-0.286-0.07-0.52-0.386-0.604c-0.592-0.156-1.247,0.301-1.317,0.938c-0.135,1.202,0.789,2.823,2.432,2.635
	c0.607-0.068,0.995-0.373,1.21-1.015c0.362-1.083,0.182-2.143-0.266-3.134c-0.643-1.424-1.357-2.817-2.084-4.203
	c-0.773-1.473-1.42-2.986-1.59-4.654c-0.136-1.321-0.075-2.628,0.636-3.813c0.314-0.525,0.75-0.931,1.391-0.882
	c0.392,0.028,0.771,0.235,1.158,0.363C56.169,60.052,56.001,59.659,55.578,59.426z M55.572,51.883
	c-0.309-0.837-0.338-1.739-0.203-2.636c0.014-0.091,0.002-0.187,0.002-0.389c-0.448,0.992-0.436,1.922-0.25,2.852
	c0.124,0.619,0.332,1.224,0.508,1.833c0.24,0.834,0.214,0.897-0.534,1.272c0.375,0.315,0.617,0.266,0.98-0.249
	c0.429,0.97,0.871,1.894,1.238,2.847c0.118,0.309,0.09,0.702,0.034,1.041c-0.067,0.428-0.357,0.511-0.652,0.197
	c-0.316-0.339-0.579-0.727-0.873-1.087c-0.705-0.861-1.374-1.755-2.14-2.557c-0.32-0.333-0.828-0.546-1.289-0.668
	c-0.721-0.189-1.428,0.451-1.262,1.104c0.063,0.25,0.29,0.518,0.517,0.65c0.298,0.176,0.625,0.051,0.912-0.223
	c-0.15-0.056-0.279-0.086-0.395-0.146c-0.269-0.14-0.366-0.405-0.243-0.64c0.079-0.147,0.374-0.302,0.521-0.263
	c0.329,0.086,0.714,0.218,0.922,0.464c0.551,0.651,1.044,1.356,1.514,2.071c0.441,0.672,0.815,1.384,1.232,2.07
	c0.095,0.153,0.228,0.291,0.368,0.406c0.458,0.373,1.004,0.274,1.274-0.257c0.138-0.271,0.196-0.582,0.336-1.012
	c0.172,0.636,0.349,1.159,0.451,1.696c0.161,0.836,0.245,1.687-0.109,2.496c-0.128,0.292-0.318,0.567-0.533,0.803
	c-0.336,0.371-0.661,0.304-0.889-0.142c-0.029-0.056-0.053-0.116-0.087-0.191c-0.265,0.43-0.259,0.773-0.009,1.016
	c0.316,0.306,0.672,0.271,0.944,0c0.333-0.331,0.671-0.693,0.874-1.109c0.552-1.126,0.408-2.307,0.132-3.479
	c-0.359-1.513-1.108-2.859-1.781-4.243C56.525,54.264,56.015,53.083,55.572,51.883z"/>
</svg>
