<?xml version="1.0" encoding="UTF-8" standalone="yes"?>
<svg xmlns="http://www.w3.org/2000/svg" viewBox="0 0 126 126">
  <path d="M116.668 80.058c-.48-1.585-1.352-2.8-2.408-3.848l-.426-1.473-.928.27c-2.77-2.215-6.13-3.895-7.454-7.554-.06-.17-.094-.334-.145-.5l.315-1.568-.652-.13c-.184-2.113.373-4.1.596-6.325.24-2.372-1.14-4.558-2.64-6.305l.212-1.05-1.608-.323c-1.387-1.09-3.063-1.752-4.682-2.455a9.02 9.02 0 0 1-3.052-2.16L94 45.63l-.128-.026.056-.628-.47-.042c.127-2.67-.02-5.325-.797-7.558 5.69-2.006 10.86-5.855 8.903-12.26-.94.942-3.06 1.648-4 2.826 0-1.648-1.178-3.767-1.413-5.414-.126.025-.24.07-.364.102.414-1.595.417-3.238-.106-4.81-.706-.235-1.884.47-2.59.707 0-.942-.235-2.59-.706-3.295-.908.113-2.31.392-3.65.73 3.236-4.682 4.46-8.985.59-10.146.236-1.413 0-2.59-.234-3.767-4.002 1.882-9.416 3.53-11.77 0-2.825 1.412-5.414 3.766-7.768 5.648-.47-.235-1.178-1.177-1.884-1.647-1.517 2.494-1.776 5.485-1.212 8.403-4.128 2.155-7.817 1.018-7.026-5.106-.47 1.883-2.118 3.766-1.883 6.826-1.177-.706-3.06-1.413-4.002-2.12 0 1.064.086 2.165.276 3.257-1.307-.01-2.624-.012-3.96 0-4.068-.057-8.633.07-13.193.434-4.64.37-9.24.954-13.7 2.33-6.265 1.933-10.893 5.586-12.593 12.23-.18.703-.33 1.413-.466 2.124h-.004v.03a30.947 30.947 0 0 0-.548 5.058c-.124 5.645-.02 11.284.548 16.9v67.542h3.365s-.964-56.378-.044-54.634c1.716 3.255 4.226 5.673 7.772 6.744 4.86 1.47 9.772 1.382 14.587-.254 3.242-1.102 5.49-3.562 7.666-6.064 1.03-1.185 1.98-2.446 3.27-3.39 2.74-2.015 5.72-1.97 8.356.192 1.838 1.506 3.18 3.482 4.813 5.183 2.064 2.148 4.407 3.854 7.342 4.563 3.913.946 7.863 1.044 11.802.155 3.78-.853 6.635-3.008 8.63-6.326 1.35-2.242 2.166-4.686 2.76-7.21.417-1.78.705-3.577.914-5.38l.237.552c.045 3.25 1.27 6.255 2.61 9.238l-.312.854.83.302c.954 2.114 1.888 4.234 2.41 6.442.18.75.16 1.463.066 2.165l-.42-.152-.647 1.783.674.246c-.2.784-.4 1.575-.466 2.4-.168 2.153 1.39 3.88 2.818 5.274.435.423 1.01-.323.58-.742-2.27-2.21-2.592-3.912-1.99-6.59l.166.06.647-1.78-.427-.156c.246-2.17-.43-4.245-1.19-6.323a36.19 36.19 0 0 0-1.125-2.676l.504-1.385-1.388-.506c-.94-2.01-1.842-4.04-2.24-6.175-.157-.833-.21-1.685-.21-2.544l.896-.38-.745-1.745-.048.02c.068-.812.16-1.62.243-2.408.178-1.712.456-3.72.656-5.8.5.507 1.052.973 1.68 1.372 1.995 1.265 4.276 1.784 6.145 3.26l-.184.922 1.474.294c1.874 2.116 2.524 4.625 1.914 7.477-.314 1.464-.404 2.85-.27 4.233l-.263-.053-.37 1.86.996.198c.104.41.23.818.378 1.235 1.27 3.506 4.59 5.097 7.313 7.19l.462 1.59 1.032-.3c.962.956 1.745 2.066 2.176 3.494.18.572 1.097.356.92-.226zM43.105 59.792c-3.894-.165-7.76.47-11.672.14-5.177-.433-8.95-2.844-11.586-7.215-.726-1.203-.573-1.91.632-2.533 3.38-1.748 6.906-2.99 11.2-2.974 2.368-.11 4.91.624 7.14 2.313 3.014 2.28 4.49 5.516 5.44 9.04.238.88-.374 1.262-1.155 1.23zm48.713-14.15c.044.073.082.15.128.222l-.058.65-.11.553c.017-.476.03-.95.04-1.425zm.848-.78l-.17-.015a12.332 12.332 0 0 1-.645-1.266c.014-1.958-.038-3.915-.202-5.87l.188-.06c.768 2.072.94 4.59.83 7.212zm-11.303 7.855c-2.637 4.372-6.408 6.783-11.586 7.216-3.913.328-7.78-.306-11.67-.14-.78.032-1.394-.35-1.156-1.23.95-3.525 2.425-6.76 5.44-9.04 2.23-1.69 4.77-2.424 7.14-2.314 4.293-.017 7.822 1.226 11.2 2.973 1.208.625 1.358 1.33.633 2.534zm10.088 3.39l-.17.07c.172-1.795.278-3.6.354-5.407.05-1.218.1-2.437.143-3.655l.72.144c-.297 3.173-.83 6.328-1.046 8.846z"/>
</svg>