<svg xmlns="http://www.w3.org/2000/svg" width="126" height="126" viewBox="0 0 126 126"><path d="M87.345 33.856c-.01-.03-.026-.074-.048-.12.275-.02.56-.03.854-.036 0 .003-.006.005-.008.01-.08.13-.142.287-.194.5-.02.08-.024.164-.028.246-.005.07-.01.136-.02.198-.027.132-.132.19-.22.108a.507.507 0 0 1-.13-.217 7.45 7.45 0 0 1-.103-.35c-.033-.112-.065-.225-.102-.34zM117.62 74.2c-.16.243-.324.488-.488.735-.17.245-.405.455-.616.685-.41.48-.966.825-1.52 1.196-.275.19-.59.29-.898.424-.324.11-.603.275-.978.33-.36.072-.727.137-1.1.19-.166.02-.41.062-.517.058h-.375c-.25 0-.504-.002-.757-.004h-.119c.048.004-.478-.04-.27-.024l-.063-.012-.254-.048-.51-.104c-.694-.11-1.333-.42-1.987-.7-1.225-.673-2.357-1.57-3.137-2.633a14.6 14.6 0 0 1-1.978-3.3c-.527-1.143-.908-2.31-1.244-3.488a27.243 27.243 0 0 1-.706-3.57 65.96 65.96 0 0 1-.294-3.576c-.14-2.4-.208-4.75-.465-7.034-.225-2.283-.696-4.508-1.412-6.535-.706-2.028-1.583-3.84-2.48-5.276-.688-1.12-1.43-2.03-2.293-2.738.41.783.772 1.635 1.07 2.54.41 1.263.74 2.62.957 4.034a30.96 30.96 0 0 1 .38 4.39c.04 1.514-.103 3.065-.242 4.51-.31 2.914-.674 5.724-.658 8.286.002 1.28.115 2.482.362 3.564.24 1.084.65 2.02 1.198 2.785a6.638 6.638 0 0 0 1.95 1.762c.703.424 1.408.692 2 .896.6.17 1.087.32 1.425.38l.52.123-.53.076a9.928 9.928 0 0 1-1.523.104c-.66-.023-1.49-.058-2.416-.355a7.095 7.095 0 0 1-2.9-1.635c-.927-.85-1.725-2.02-2.218-3.334-.506-1.31-.813-2.74-.95-4.19a29.814 29.814 0 0 1-.08-4.416c.064-1.48.22-2.956.36-4.398.16-1.455.293-2.814.332-4.174a45.878 45.878 0 0 0-.066-4.03c-.11-1.81-.346-3.507-.705-5.02-.02.11-.03.212-.057.326-.04.173-.09.345-.13.52.48 1.5.71 3.177.728 4.902.02 2.464-.327 5.06-1.058 7.652-.713 2.603-1.867 5.175-3.063 7.788-1.19 2.615-2.393 5.31-3.198 8.16-.42 1.416-.74 2.88-.888 4.316l-.03.537c-.003.066-.017.23-.01.217l.01.285.038 1.138c.053.75.042 1.546.172 2.247.318 2.85 1.076 5.735 2.303 7.965.34.537.622 1.106 1.037 1.538.347.503.812.847 1.224 1.233.91.652 1.892 1.095 2.938 1.29 2.107.313 4.355-.232 6.152-1.295 1.81-1.053 3.113-2.603 3.545-4.18.43-1.57.027-3.223-.814-4.6-.162-.365-.444-.66-.672-.975-.24-.31-.437-.64-.716-.89-.532-.522-.98-1.07-1.488-1.462l-1.322-1.117c-.414-.3-.766-.558-1.05-.766l-.88-.663.182-.396 1.067.32 1.29.417c.5.185 1.048.467 1.686.753 1.247.61 2.753 1.513 4.184 3.06.7.78 1.405 1.74 1.848 2.945l.313.932c.096.32.117.665.174 1.008.138.69.066 1.4.02 2.137-.243 1.428-.764 2.887-1.636 4.128-.868 1.23-1.96 2.36-3.274 3.208-2.576 1.73-6.026 2.656-9.537 1.86a11.24 11.24 0 0 1-4.75-2.508c-.625-.646-1.27-1.282-1.728-2.036-.542-.71-.893-1.496-1.256-2.275-.204-.386-.302-.794-.438-1.192l-.373-1.203c-.16-.812-.28-1.625-.416-2.432l-.098-2.417c.005-.806.07-1.614.107-2.41.014-.816.17-1.536.253-2.3l.13-1.133.033-.283c.024-.2.042-.225.063-.346l.12-.586c.32-1.55.805-2.998 1.23-4.445.907-2.87 1.683-5.717 2.26-8.51.588-2.79 1.05-5.48 1.545-7.95.118-.616.233-1.226.35-1.823a72.66 72.66 0 0 1-2.724 4.856c-2.227 3.625-4.636 6.897-8.84 8.407-2.554.916-5.157 1.427-7.858 1.264-1.505-.09-2.868-.685-4.21-1.352-1.335-.66-2.7-1.32-3.898-2.216-1.19-.89-2.46-1.717-3.492-2.77 0 0-4.277-4.164-7.15-4.805-2.873.64-7.15 4.805-7.15 4.805-1.035 1.053-2.3 1.88-3.493 2.77-1.25.93-2.6 1.723-3.897 2.365-1.343.666-2.706 1.11-4.21 1.2-2.702.164-5.306-.347-7.858-1.263-4.205-1.51-6.613-4.782-8.842-8.407a71.685 71.685 0 0 1-2.22-3.91c.428.12.71.395.827.846.074.295.237.5.486.65.133.082.266.16.395.244.29.19.458.455.466.807.006.278.002.556.002.806.006-.013.026-.05.042-.09.193-.508.22-1.03.175-1.566-.034-.393-.172-.736-.457-1-.598-.553-1.278-.794-2.008-.84a82.76 82.76 0 0 1-1.44-2.833 32.983 32.983 0 0 1-1.096-2.6c.013.024.02.053.036.075.23.303.557.27.704-.084.064-.154.09-.325.146-.485.087-.257.24-.37.514-.366.384.005.722.143 1 .402.166.15.307.33.445.484-.212-.664-1.052-1.386-1.817-1.332-.36.025-.67.16-.917.426a.767.767 0 0 0-.192.653c-.14-.372-.28-.743-.408-1.12.013-.006.028-.004.04-.01.423-.277.89-.403 1.395-.404-.385-.166-.78-.218-1.178-.113-.133.034-.26.097-.382.165-.16-.495-.31-.994-.452-1.494.098.024.196.043.292.074a.33.33 0 0 1 .17.16c.1.22.272.277.483.16.06-.03.15-.048.21-.024.68.27 1.33.596 1.918 1.037.94.71 1.608 1.6 1.812 2.782.082.477.092.968.162 1.447.107.723.36 1.376 1.048 1.75.544.295.813.765.942 1.344.127.574.11 1.148.016 1.727.04-.08.074-.16.097-.245.358-1.31.278-2.61-.106-3.896-.313-1.052-.93-1.936-1.6-2.78-1.146-1.442-2.507-2.61-4.25-3.283-.067-.025-.123-.11-.157-.18-.087-.178-.276-.277-.41-.164-.148.125-.28.086-.43.055a5.08 5.08 0 0 0-.22-.042A54.926 54.926 0 0 1 7.363 41c-.005-.02-.005-.037-.01-.057.567.57 1.134 1.143 1.702 1.713.374.375.818.607 1.35.696.285.048.572.138.84.255.566.25 1.035.65 1.437 1.114.41.475.78.98 1.16 1.46l.01.02c0 .005-.005.013 0-.007l-.01-.014c-.516-1.442-1.4-2.63-2.55-3.624-.604-.526-1.325-.866-2.06-1.175-.667-.28-1.333-.562-1.963-.915a5.19 5.19 0 0 1-.072-.913c.55.745 1.312 1.21 2.188 1.534-.168-.23-.342-.434-.475-.66-.196-.337-.476-.534-.838-.673a2.287 2.287 0 0 1-.763-.465c-.034-.033-.054-.07-.085-.104.135-1.128.79-2 2.146-2.87.016.114.015.23.032.343.018.113.003.18-.095.258-.235.187-.21.568.063.65.246.076.277.242.328.43.034.12.063.243.11.358.05.12.04.207-.05.314-.176.21-.09.545.167.577.24.03.286.178.362.34.076.165.155.31.063.513-.072.155.03.347.188.37.266.038.324.242.437.413.158.24.314.48.475.72.062.09.13.177.197.265.02-.08 0-.13-.027-.178-.193-.364-.395-.726-.576-1.095a.482.482 0 0 1-.014-.3c.05-.196-.02-.38-.2-.46-.266-.118-.48-.552-.414-.84a.376.376 0 0 0-.148-.408c-.335-.26-.31-.673-.435-1.022-.008-.022.032-.062.05-.093.142-.253.092-.45-.136-.61-.063-.046-.13-.13-.135-.2-.014-.153-.03-.308-.043-.462.212-.13.422-.262.666-.395.956-.52 1.92-1.01 2.893-1.473v0a49.77 49.77 0 0 1 2.046-.92c.047.003.092-.002.14.005a.57.57 0 0 0 .218 0c.047-.01.084-.062.124-.098-.03-.022-.058-.052-.087-.07 4.377-1.8 8.956-2.894 13.862-2.73 3.973.133 7.818 1.094 11.665 2.01 2.126.504 4.25 1.018 6.362 1.572a8.7 8.7 0 0 0 1.904.267 8.64 8.64 0 0 0 1.906-.268 277.145 277.145 0 0 1 6.362-1.574c3.846-.915 7.69-1.876 11.664-2.01 2.58-.085 5.064.188 7.48.716l.18.112c.523.33 1.08.474 1.7.438.104-.006.215 0 .324.003.707.203 1.41.425 2.104.67.12.075.242.153.365.242.395.29.78.607 1.152.913.16.13.317.26.476.388a.08.08 0 0 0 .022.033c.02.015.042.02.065.016a.08.08 0 0 0 .052-.04.084.084 0 0 0 .008-.046v-.002c0-.02-.013-.042-.027-.06a9.357 9.357 0 0 0-.66-.894c.52.204 1.034.42 1.546.643.162.258.334.514.524.767a20.27 20.27 0 0 1 1.214 1.808c.814 1.36 1.292 2.57 1.503 3.813.124.73.107 1.398-.05 2.04-.243.993-.528 2.04-1.085 2.963a.078.078 0 0 0 .084.116.086.086 0 0 0 .046-.032c.21-.3.41-.596.567-.915.594-1.203.905-2.547 1.01-4.36a6.21 6.21 0 0 0-.347-2.493c-.26-.723-.707-1.348-1.37-1.906a9.99 9.99 0 0 1-1.47-1.525c.096.043.192.08.287.125.02-.006.04-.01.06-.014a20.4 20.4 0 0 1 1.524-.232.486.486 0 0 0-.022.268c.033.164.088.336.167.51.2.45.408.897.614 1.34l.21.46c.003.007.004.014.008.02.017.032.053.048.087.04a.1.1 0 0 0 .074-.076c.15-.782.45-1.406.91-1.907.126-.136.135-.373.133-.606 0-.047-.037-.098-.074-.145.09.002.175-.004.27 0 .276.01.565.03.86.058.01.022.036.04.043.063.044.15-.015.322-.164.482-.086.092-.187.17-.293.25-.053.04-.107.08-.157.124-.57.47-.91 1.117-1.074 2.03a.08.08 0 0 0 .055.09.086.086 0 0 0 .04 0 .076.076 0 0 0 .055-.046c.297-.75.797-1.405 1.57-2.058.25-.212.4-.514.453-.878.652.086 1.337.228 2.04.443a3.36 3.36 0 0 0-1.878.73c-1.547 1.233-2.32 2.863-2.3 4.842.016 1.645-.163 3.746-1.707 5.43a.075.075 0 0 0 .003.106l.047.05c.02.02.046.026.072.02a.087.087 0 0 0 .033-.017c.106-.093.215-.185.324-.276.234-.197.476-.402.706-.613 1.19-1.098 1.706-2.466 1.535-4.067-.086-.813-.15-1.77.028-2.73.28-1.49 1.093-2.475 2.48-3.01.142-.055.28-.1.42-.13.904-.207 1.51.128 1.856.445.52.474.808 1.242.718 1.91-.07.538-.37.866-.836.95-.44.077-.8-.112-1.047-.533.108.058.253.102.37.074h.005a.448.448 0 0 0 .34-.54.46.46 0 0 0-.547-.337c-.2.048-.413.366-.376.566.008.05.04.095.085.14h-.01c-.033.012-.057.047-.052.082.05.397.333.727.708.822.206.053.43.056.642.007.584-.134 1.02-.602 1.09-1.164a2.774 2.774 0 0 0-.035-.786c-.06-.37-.184-.69-.354-.964.28.17.56.353.848.532.425.343.88.678 1.266 1.094.82.787 1.49 1.76 1.988 2.798 1.033 2.09 1.283 4.41 1.395 6.665.11 2.267.127 4.538.445 6.813.273 2.276.77 4.56 1.5 6.743.704 2.24 1.52 4.35 2.305 6.362.82 1.975 1.81 3.832 3.008 5.073.582.663 1.224 1.056 1.82 1.408.32.118.61.3.944.34l.24.068.12.037.017.006.66.04.376.023c.144.018.14-.02.22-.02.116-.02.233-.028.355-.028.12.026.27-.072.404-.093.13-.052.3-.036.418-.112.24-.133.527-.205.734-.408.11-.093.246-.15.344-.264l.3-.33c.845-.894 1.27-2.244 1.486-3.45.198-1.23.14-2.368.024-3.312a10.53 10.53 0 0 0-.545-2.18l-.305-.775.338-.274.658.598c.416.408.98 1.08 1.51 2.07.5.99 1.026 2.297 1.172 3.92.148 1.603.036 3.58-1.128 5.587zM27.18 41.564c0 .164.137.3.31.308a.322.322 0 0 0 .336-.3.337.337 0 0 0-.32-.328.326.326 0 0 0-.325.32zm-5.198-5.444c.158.548.44.84 1.004.333.03.015.077.034.122.058.178.094.368.153.372.425.003.17.234.3.407.244.146-.05.22.013.303.1.09.098.186.19.264.297.038.053.066.13.06.194-.028.274.017.35.295.447.16.056.29.48.188.61-.143.18-.115.34.08.457.184.11.193.456.017.58-.167.118-.21.295-.07.43.1.1.085.187.052.296a2.526 2.526 0 0 1-.76 1.195c.443-.293.7-.715.855-1.21a.384.384 0 0 1 .163-.198c.213-.123.237-.34.043-.504-.13-.11-.15-.49-.035-.605.21-.206.176-.393-.092-.508-.178-.077-.27-.494-.178-.66.056-.103.08-.265.037-.36-.042-.09-.212-.192-.295-.17-.198.05-.277-.05-.37-.175-.062-.083-.148-.148-.2-.235-.04-.07-.044-.16-.067-.24-.038-.128-.043-.302-.13-.365-.094-.07-.276-.084-.398-.047-.21.063-.608-.12-.652-.34a.483.483 0 0 0-.387-.408c-.208-.046-.37.04-.493.213-.044.058-.1.108-.135.146zm-.332 4.087a.46.46 0 0 0 .446.434.44.44 0 0 0 .423-.447.435.435 0 0 0-.43-.418c-.232-.002-.45.214-.44.432zm.46 1.866c.702.324 1.385.206 2.032-.158-1.132.6-2.665.163-2.7-1.286-.116.636.125 1.193.667 1.443zm-2.06-.426c.166.09.313.188.473.25.09.034.2.01.3.01-.044-.102-.08-.21-.14-.304-.032-.048-.108-.084-.17-.092-.278-.037-.543.02-.817.118.04.072.063.12.092.16.197.285.415.56.304.946-.01.034.038.084.06.126.053-.03.148-.06.15-.093.013-.177.032-.364-.01-.533-.048-.2-.156-.385-.24-.587zm-3.757 1.025c.316-.132.473-.437.602-.756.088-.217.208-.465.39-.59.688-.48 1.764-.07 1.996.732.145.494 0 1.04-.346 1.313-.3.236-.68.227-1.14-.05.18.32.423.426.762.357.798-.163 1.235-1.13.815-1.826-.354-.59-.888-.88-1.576-.813-.966.095-1.732.566-2.26 1.372-.47.713-.545 1.52-.417 2.35a.097.097 0 0 0 .018-.064c-.05-.923.24-1.64 1.158-2.024zm3.698-2.1l.004-.002-.003.003c-.093-.08-.176-.188-.285-.23-.063-.022-.202.04-.244.105-.033.054-.004.203.048.244.062.047.184.04.27.02.077-.022.143-.09.213-.14v.003c-.157.235-.316.47-.44.658.305-.063.463-.268.44-.658.002 0 .002-.002.003-.003 0-.002-.002 0-.002 0zm-2.025 2.6c.137-.015.23-.102.225-.27-.006-.158-.11-.242-.26-.242-.15 0-.253.096-.25.25.003.153.08.266.285.262zm-2.357 1.28c.167-.374.453-.612.833-.745.022-.008.05-.016.058-.03.028-.063.07-.13.063-.19-.004-.03-.104-.07-.16-.066a.473.473 0 0 0-.204.076c-.358.215-.543.54-.588.957zm.337 1.956c.082-.35.14-.752.273-1.13.13-.37.355-.694.783-.803.42-.105 1.01.202.784.813-.02.055-.045.12-.033.17.02.088.048.203.11.24.065.038.218.03.26-.02.104-.12.213-.27.237-.423.087-.543-.308-1.04-.856-1.116-.587-.084-1.125.265-1.38.877-.19.464-.216.943-.175 1.39zm.91.558c-.006.153.012.31.04.46.118.58.243 1.16.364 1.735-.01.005.01.002.014-.008.267-.604.636-1.12 1.192-1.5.12-.082.17-.294.205-.457.017-.07-.068-.2-.142-.24-.06-.032-.2.004-.254.06a1.478 1.478 0 0 0-.254.377c-.06.116-.076.254-.13.374-.075.162-.238.193-.33.062a.536.536 0 0 1-.08-.246c-.022-.212-.022-.427-.043-.64-.015-.15-.052-.3-.248-.307-.19-.008-.33.12-.336.33zm.872 2.634c.46-.667 1.082-1.127 1.793-1.493.336-.173.523-.493.608-.858.116-.502-.136-.93-.614-1.07-.217-.062-.382-.007-.456.15a.44.44 0 0 0 .163.546c.07.04.15.063.222.1.408.22.438.613.057.874-.146.098-.315.158-.473.237-.643.323-1.028.87-1.3 1.513zm3.084-6.99c-.013.056.082.136.163.257.088-.115.18-.185.177-.248-.003-.068-.1-.13-.153-.195-.067.06-.17.113-.186.185zm-6.982 2.078c-.055-.083-.104-.17-.163-.25-.253-.34-.452-.707-.533-1.128-.114-.593-.145-1.18.153-1.74.152-.284.13-.598.014-.88-.18-.425-.41-.828-.605-1.246-.127-.27-.29-.544-.336-.83-.104-.622-.144-1.253-.2-1.803-.03.28-.106.66-.104 1.038.008.868.04 1.736.09 2.604.09 1.512.528 2.902 1.496 4.096.047.06.094.115.142.173a.63.63 0 0 1 .044-.032zm-1.04-6.27c.108-.193.224-.394.33-.6a.95.95 0 0 0 .116-.296c.01-.055-.057-.12-.09-.18-.053.03-.123.05-.16.095-.24.305-.278.65-.196.982zm2.328-3.973c-.33-.312-1.003-.34-1.4-.086l-.033.008a.195.195 0 0 0-.023.017c-.315.08-.546.277-.75.532l.75-.532c.01-.003.017-.01.027-.013.01-.006.02-.007.03-.013.473-.147.944-.227 1.4.085zm-.82 6.916c.1-.933.346-1.8 1.008-2.514.24-.258.334-.604.314-.965-.03-.55-.52-.92-1.048-.788-.074.02-.168.083-.19.148-.02.05.04.163.097.2.12.08.258.135.393.19.3.124.514.327.535.665.02.325-.186.506-.457.636a2.003 2.003 0 0 0-.834.703c-.197.3-.255.62-.145.97.104.338.2.68.288.98-.012.033-.002.014.002-.007.012-.07.03-.142.037-.215zm-2.575 9.604c.028-.165-.102-.224-.286-.225-.124-.007-.176.09-.176.224 0 .166.11.257.256.224.085-.02.19-.137.207-.224zm.31-2.64c-.18-.202-.34-.437-.553-.6-.15-.11-.375-.133-.57-.172-.048-.01-.148.06-.16.11-.015.05.035.138.083.18.05.046.132.085.197.08.406-.026.703.162.945.47l.06-.067zm2.34 4.316c-.136-.787-.562-1.366-1.282-1.698-.218-.102-.48-.126-.725-.138-.085-.005-.177.135-.266.208.08.07.15.154.24.207.06.033.144.023.217.03.344.034.648.168.926.367.378.27.668.616.89 1.023zm-.027 3.8c.235-.214.467-.43.665-.674.854-1.047 1.354-2.27 1.727-3.552.21-.72.282-1.455.192-2.2-.085-.706-.37-1.323-.796-1.89-1.085-1.446-1.72-3.05-1.605-4.888.045-.724.246-1.4.718-1.975.3-.362.695-.593 1.118-.77.703-.296 1.13-.792 1.4-1.518.573-1.538 1.656-2.545 3.326-2.867-.063 0-.112-.005-.16 0-1.01.104-1.976.358-2.86.858-1.95 1.105-3.145 2.77-3.586 4.972-.342 1.705-.096 3.334.612 4.913.264.59.496 1.198.695 1.813.382 1.176.62 2.38.55 3.625a4.497 4.497 0 0 1-.455 1.785c-.425.85-.872 1.68-1.54 2.37zm9.31-5.922c.068-1.053-.47-1.807-1.486-2.092a2.915 2.915 0 0 0-2.11.18c-1.57.756-2.546 1.99-2.916 3.692-.38 1.75-1.032 3.338-2.58 4.406l.03.05c.356-.187.718-.364 1.067-.564 1.228-.703 1.933-1.752 2.102-3.166.096-.813.24-1.62.57-2.377.536-1.233 1.45-1.964 2.797-2.158 1.95-.282 2.64 1.514 2.227 2.613-.18.48-.524.727-.98.702-.45-.024-.757-.294-.888-.78a.792.792 0 0 0 .413.784c.604.31 1.4.017 1.63-.622.076-.21.11-.444.123-.67zm-1.77.62a.33.33 0 1 0-.004-.664c-.148.002-.364.206-.37.352-.007.125.213.31.372.31zm17.81-.452s-2.8-6.123-8.196-7.96c-2.19-.744-4.468-.663-6.407-.31-.022-.064-.054-.116-.073-.184 0 .067.01.13.02.192-.257.048-.507.1-.75.155v-.072c-.035.036-.072.063-.108.096-2.364.558-4.032 1.433-4.032 1.433s1.048 2.28 3.087 4.473c-.038 0-.07.014-.107.012.28.285.53.545.833.724 1.192 1.13 2.653 2.16 4.387 2.75 5.395 1.835 11.347-1.31 11.347-1.31zm29.15-18.65c.028.155.112.286.236.372.12.084.268.114.417.086l.024-.004c.3-.07.48-.35.42-.655a.555.555 0 0 0-.67-.44.557.557 0 0 0-.426.642zm-1.35 2.91c.425.36.897.61 1.404.74.58.152 1.12.073 1.6-.237l-.065.17c-.104.27-.213.55-.27.836-.3 1.476.007 2.724.915 3.712.646.7 1.654.998 2.635.774a2.75 2.75 0 0 0 1.767-1.26c.222-.372.29-.83.182-1.252a1.538 1.538 0 0 0-.704-.957.078.078 0 0 0-.1.016c-.024.027-.023.07 0 .1l.106.13c.396.472.516.978.352 1.5-.195.63-.76 1.123-1.47 1.286-.298.068-.6.073-.9.018-1.163-.22-1.968-.955-2.327-2.13-.457-1.485-.068-2.85 1.185-4.17.002-.003.014-.013.05-.02.034-.01.08-.012.12-.01.27.027.457-.11.443-.324-.014-.19.086-.25.235-.343.146-.088.29-.172.436-.256l.148-.086c.16.118.273.16.372.138.146-.034.21-.202.254-.36.005-.016.03-.04.05-.057a.3.3 0 0 0 .04-.04c.018-.02.023-.05.014-.077a.08.08 0 0 0-.06-.05 1.253 1.253 0 0 0-.065-.007c-.04-.002-.083-.005-.112-.02a.355.355 0 0 0-.238-.04c-.09.022-.155.083-.23.154l-.054.048c-.21.188-.47.33-.725.47a9.614 9.614 0 0 0-.262.144c-.017-.01-.037-.02-.062-.025-.26-.055-.456.092-.49.357a.51.51 0 0 1-.11.248c-.14.168-.29.332-.437.49l-.177.195c-.034.04-.066.078-.102.098-.628.36-1.225.507-1.83.455a2.3 2.3 0 0 1-1.254-.514c-.798-.634-.675-1.598-.295-2.287.1-.177.23-.343.354-.505.06-.075.117-.15.173-.228a.077.077 0 0 0-.007-.1.075.075 0 0 0-.098-.012c-.363.236-.654.62-.888 1.177-.39.922.003 1.696.498 2.112zm1.946 1.416a.076.076 0 0 0-.014-.084c-.02-.023-.055-.027-.084-.022l-.288.106a9.376 9.376 0 0 1-.637.22c-.3.084-.563.023-.775-.182a.914.914 0 0 0-.348-.207.69.69 0 0 0-.25-.02l-.098.002a.078.078 0 0 0-.058.022.078.078 0 0 0-.02.06l.003.093c.004.082.008.162.017.242.006.048.03.087.052.117l.015.022c.256.423.712.58 1.242.408.225-.072.436-.18.62-.274.026-.014.052-.026.077-.038l-.034.17c-.06.3-.122.61-.156.93-.02.177.07.364.167.542.05.094.23.13.328.106a.118.118 0 0 0 .03-.01c.104-.04.165-.198.175-.296a1.097 1.097 0 0 0-.04-.37c-.15-.623-.126-1.112.076-1.538zm-1.694 2.03c-.056-.22-.244-.327-.447-.24-.09.04-.15.124-.208.206-.022.03-.043.062-.066.09a.077.077 0 0 0-.017.07l.027.113a.074.074 0 0 0 .05.056l.11.047c.094.042.19.086.294.076a.285.285 0 0 0 .223-.136.365.365 0 0 0 .033-.283zm10.836 5.645s-.44-.23-1.172-.525a.412.412 0 0 0-.007-.14.432.432 0 0 0-.516-.307.412.412 0 0 0-.23.16c-2.192-.783-5.92-1.69-9.425-.5-5.398 1.837-8.2 7.96-8.2 7.96s5.954 3.146 11.353 1.31c5.398-1.835 8.197-7.958 8.197-7.958zm.143-10.463a.078.078 0 0 0-.063-.075c-.496-.097-.96-.038-1.367.174a2.31 2.31 0 0 0-.538.42c-.077.075-.075.263-.02.357.05.087.198.096.313.088a.238.238 0 0 0 .037-.006.413.413 0 0 0 .185-.11 2.71 2.71 0 0 1 1.392-.77.077.077 0 0 0 .06-.078zm-.838 1.14c-.227.39-.15.89.176 1.162.164.137.342.19.5.155.196-.044.334-.215.377-.468.02-.114.023-.23.026-.34.002-.078.004-.157.013-.235.025-.268.142-.4.41-.462.4-.088.785-.026 1.144.18.148.086.29.19.424.288.062.044.12.09.18.13.03.02.07.02.097-.007a.08.08 0 0 0 .015-.097c-.407-.69-1.552-1.306-2.417-1.04-.42.128-.738.374-.946.733zm1.363 7.434a.075.075 0 0 0-.066-.053c-.474-.043-.887-.196-1.34-.502a.944.944 0 0 0-.435-.13.52.52 0 0 0-.167.01.27.27 0 0 0-.186.13c-.046.087-.044.203.008.342.124.333.382.52.75.545.17.012.337 0 .486-.007l.025-.002c-.02.03-.035.06-.053.088-.12.195-.245.397-.346.613-.042.088 0 .19.04.288.016.035.03.072.04.104a.078.078 0 0 0 .045.052c.017.006.032.007.047.004a.07.07 0 0 0 .023-.01c.035-.02.078-.042.122-.062.123-.057.24-.11.252-.21.06-.45.325-.76.73-1.117a.07.07 0 0 0 .026-.082zm1.113 2.474a.08.08 0 0 0-.033-.046c-.4-.496-.5-1.082-.3-1.79a.077.077 0 0 0-.045-.09.076.076 0 0 0-.097.03c-.38.623-.217 1.547.348 1.977a.08.08 0 0 0 .064.014s.002-.002.004 0a.08.08 0 0 0 .06-.095zm.338-3.065a.08.08 0 0 0-.092-.052c-.918.21-1.556-.07-1.95-.854-.354-.705-.242-1.29.375-1.954a.074.074 0 0 0 .008-.096c-.02-.03-.056-.04-.09-.03-.286.112-.52.35-.66.67-.19.443-.187 1 .013 1.495.328.815 1.138 1.227 2.015 1.026.115-.025.23-.062.344-.11a.075.075 0 0 0 .04-.093zm.89-4.653c.018.016.04.02.063.017h.002a.084.084 0 0 0 .052-.038l.047-.09a.077.077 0 0 0-.023-.1 6.64 6.64 0 0 1-.218-.165 2.827 2.827 0 0 0-.553-.36c-.177-.08-.382-.07-.58-.06l-.124.005a.23.23 0 0 0-.026.003c-.09.02-.195.146-.198.233-.004.1.1.205.178.248.065.036.18.07.295.044h.002c.376-.11.718-.03 1.082.264zm.017 2.577a.25.25 0 0 0-.157.106c-.044.07-.053.164-.026.274.044.194.195.302.367.262a.46.46 0 0 0 .08-.027.45.45 0 0 0 .214-.37c-.005-.092-.038-.163-.1-.208-.08-.062-.203-.074-.377-.036zm1.134 4.437a.078.078 0 0 0-.15-.034c-.346.802-.826 1.138-1.552 1.1a.08.08 0 0 0-.08.065.08.08 0 0 0 .057.088c.21.06.434.063.65.014.6-.137 1.053-.657 1.076-1.233zm-.73-.56l.52.176a.06.06 0 0 0 .044.003.08.08 0 0 0 .06-.095.077.077 0 0 0-.02-.035c-.136-.266-.38-.39-.687-.356-.297.032-.544.256-.567.513-.015.135.067.35.19.417.078.04.193.037.276.018a.37.37 0 0 0 .18-.093c.096-.102.074-.296.06-.438a.203.203 0 0 0-.056-.11zm3.427-.912c-.147-.467-.412-.813-.785-1.027-1.07-.613-2.23-.65-3.61-.108a.08.08 0 0 0-.048.092c.01.038.046.063.085.058.156-.02.315-.054.468-.086.124-.027.248-.055.374-.074.676-.104 1.162.12 1.444.667.16.31.403.515.742.63l.133.044c.12.04.24.08.36.124.353.13.577.372.663.714.053.21.1.426.146.63l.056.252c.008.035.043.052.08.052l.012-.002a.09.09 0 0 0 .063-.07.952.952 0 0 0 .022-.098c.076-.546.012-1.115-.205-1.797zm-3.042-2.69c.03.016.06.033.09.052.075.046.153.093.24.12.072.023.148.008.217-.006l.063-.01c.348-.045.697.01 1.068.165.456.19.85.478 1.206.878.018.02.047.03.074.025h.002c.04-.004.068-.053.06-.095a.065.065 0 0 0-.018-.033c-.364-.853-.997-1.38-1.88-1.565-.276-.06-.576-.02-.867.03-.095.022-.153.122-.212.22a.81.81 0 0 1-.067.104.073.073 0 0 0-.012.062c.003.023.017.04.037.053zm3.53.584c.256.536.4 1.145.444 1.86 0 .038.03.07.07.072h.022a.08.08 0 0 0 .06-.06 1.63 1.63 0 0 0 .045-.31c.062-1.466-.3-2.868-1.104-4.288-.628-1.11-1.56-1.94-2.474-2.67-1.8-1.44-3.608-2.276-5.525-2.55-.042-.008-.104-.058-.167-.133-.177-.217-.476-.255-.615-.072-.087.117-.208.135-.363.137h-.032c-.092 0-.184.007-.276.013-.128.008-.26.017-.39.012a.435.435 0 0 1-.237-.097c-.21-.178-.5-.134-.574.096-.035.11-.092.134-.204.16l-.438.1a.078.078 0 0 0-.058.092l.007.03a.08.08 0 0 0 .093.058l.076-.018.238-.054.107-.026c.134-.03.217-.027.307.075.067.077.247.04.28.033.09-.02.142-.053.163-.098.045-.093.103-.116.153-.128a.74.74 0 0 1 .155-.013h.04c.206-.003.45-.005.686.02a.28.28 0 0 1 .173.103c.16.21.33.223.444.197a.554.554 0 0 0 .24-.134c.042-.037.122-.067.16-.062.908.138 1.674.352 2.346.65 1.31.586 2.174 1.422 2.646 2.557.113.27.205.557.296.833.074.235.153.48.245.713.233.6.66 1.43 1.64 1.705.592.167 1.012.548 1.322 1.2z"/></svg>