<?xml version="1.0" encoding="utf-8"?>
<!-- Generator: Adobe Illustrator 16.0.0, SVG Export Plug-In . SVG Version: 6.00 Build 0)  -->
<!DOCTYPE svg PUBLIC "-//W3C//DTD SVG 1.1//EN" "http://www.w3.org/Graphics/SVG/1.1/DTD/svg11.dtd">
<svg version="1.1" id="Layer_1" xmlns="http://www.w3.org/2000/svg" xmlns:xlink="http://www.w3.org/1999/xlink" x="0px" y="0px"
	 width="126px" height="126px" viewBox="0 0 126 126" enable-background="new 0 0 126 126" xml:space="preserve">
<path d="M123.333,41.042c-3.313,4.155-8.473,6.219-13.414,7.722c-5.891,1.792-11.997,2.806-18.023,4.035
	c-5.172,1.055-11.958,2.273-17.257,5.167l-9.209,3.812L63,59.347l-2.515,2.516L48.189,56.45l-0.013,0.029
	c-4.653-1.867-9.892-2.827-14.074-3.68c-6.025-1.229-12.132-2.242-18.022-4.035c-4.943-1.503-10.103-3.567-13.414-7.722
	c-0.536-0.674-1.659,0.207-1.187,0.916C8.89,53.116,14.938,65.462,24.522,75.01c4.306,4.288,9.469,8.155,15.488,9.57
	c6.53,1.535,12.979,0.089,18.84-2.975c2.754-1.146,4.148,0.115,4.148,0.115s-3.49-7.436,0-12.074H63c3.49,4.638,0,12.074,0,12.074
	s1.395-1.261,4.147-0.115c5.862,3.063,12.311,4.51,18.841,2.975c6.018-1.415,11.183-5.282,15.487-9.57
	c9.587-9.547,15.634-21.894,23.046-33.051C124.991,41.249,123.871,40.368,123.333,41.042z M15.2,57.071
	c-0.463-0.695-0.275-1.634,0.42-2.097c0.694-0.463,1.633-0.275,2.097,0.419c0.463,0.695,0.341,2.727,0.896,3.56
	C17.092,58.649,15.663,57.767,15.2,57.071z M19.06,62.862c-0.463-0.695-0.274-1.634,0.42-2.097c0.695-0.464,1.635-0.275,2.097,0.419
	c0.464,0.695,0.342,2.727,0.896,3.56C20.953,64.44,19.522,63.557,19.06,62.862z M23.038,68.809
	c-0.552-0.627-0.492-1.583,0.135-2.135c0.626-0.552,1.582-0.491,2.134,0.135s0.703,2.655,1.366,3.406
	C25.125,70.118,23.59,69.435,23.038,68.809z M28.351,73.602c-0.631-0.547-0.7-1.502-0.152-2.134
	c0.546-0.631,1.502-0.699,2.132-0.153c0.633,0.548,1.054,2.538,1.812,3.194C30.595,74.619,28.982,74.148,28.351,73.602z
	 M34.033,77.917c-0.712-0.436-0.936-1.366-0.5-2.079c0.437-0.712,1.366-0.936,2.079-0.5c0.712,0.436,1.454,2.331,2.309,2.854
	C36.413,78.555,34.745,78.354,34.033,77.917z M40.633,80.785c-0.772-0.313-1.146-1.195-0.832-1.969
	c0.313-0.774,1.195-1.148,1.97-0.834c0.772,0.313,1.815,2.062,2.744,2.438C43.087,81.024,41.407,81.099,40.633,80.785z
	 M24.409,60.223c10.928,2.912,30.686-0.947,32.547,13.565C44.571,79.972,31.527,70.649,24.409,60.223z M47.969,81.717
	c-0.833-0.046-1.473-0.759-1.427-1.593s0.759-1.473,1.593-1.427c0.834,0.046,2.387,1.362,3.388,1.417
	C50.367,81.149,48.804,81.763,47.969,81.717z M55.42,80.333c-0.77,0.323-1.656-0.039-1.979-0.809s0.039-1.656,0.81-1.979
	c0.769-0.324,2.739,0.182,3.664-0.207C57.327,78.774,56.19,80.01,55.42,80.333z M72.56,79.524c-0.324,0.77-1.21,1.132-1.979,0.809
	c-0.771-0.323-1.908-1.559-2.495-2.995c0.924,0.388,2.896-0.117,3.664,0.207C72.519,77.868,72.882,78.754,72.56,79.524z
	 M78.03,81.717c-0.834,0.046-2.399-0.568-3.553-1.603c0.999-0.056,2.552-1.372,3.386-1.417c0.834-0.045,1.548,0.593,1.594,1.427
	S78.863,81.671,78.03,81.717z M69.043,73.788c1.86-14.512,21.618-10.654,32.547-13.565C94.472,70.649,81.428,79.972,69.043,73.788z
	 M85.364,80.785c-0.772,0.313-2.452,0.239-3.88-0.365c0.929-0.376,1.972-2.125,2.745-2.438c0.773-0.314,1.656,0.06,1.969,0.834
	C86.513,79.59,86.139,80.472,85.364,80.785z M91.966,77.917c-0.712,0.437-2.38,0.638-3.889,0.275
	c0.855-0.524,1.596-2.418,2.31-2.854c0.713-0.436,1.643-0.212,2.079,0.5C92.901,76.551,92.677,77.481,91.966,77.917z M97.647,73.602
	c-0.631,0.547-2.244,1.018-3.79,0.907c0.758-0.656,1.179-2.646,1.812-3.194c0.629-0.546,1.586-0.478,2.132,0.153
	C98.347,72.1,98.279,73.054,97.647,73.602z M102.961,68.809c-0.553,0.625-2.087,1.309-3.636,1.406
	c0.663-0.751,0.815-2.78,1.367-3.406s1.508-0.687,2.134-0.135C103.452,67.227,103.513,68.182,102.961,68.809z M106.938,62.862
	c-0.463,0.695-1.893,1.578-3.412,1.882c0.555-0.833,0.433-2.865,0.896-3.56c0.464-0.694,1.402-0.883,2.097-0.419
	C107.214,61.229,107.401,62.167,106.938,62.862z M110.799,57.071c-0.463,0.695-1.894,1.578-3.412,1.882
	c0.555-0.833,0.432-2.865,0.896-3.56c0.461-0.695,1.4-0.882,2.096-0.419C111.074,55.438,111.263,56.376,110.799,57.071z
	 M96.573,61.892c-4.601,1.852-9.847,1.048-14.623,2.198c-0.017,0.003-0.03,0.009-0.047,0.013c-5.007,0.766-8.3,3.692-11.3,7.681
	c-0.587,0.781,0.727,1.533,1.306,0.763c1.422-1.89,2.943-3.559,4.738-4.807c-0.995,1.932-0.709,4.397-0.262,6.422
	c0.111,0.501,0.566,0.62,0.942,0.487c0.101,0.047,0.215,0.078,0.354,0.068c7.943-0.533,14.744-5.558,19.626-11.563
	C97.726,62.643,97.354,61.577,96.573,61.892z M77.73,73.201c-0.393-2.047-0.446-4.27,1.07-5.882c0.88-0.936,2.135-1.437,3.421-1.753
	c0.03-0.005,0.061-0.01,0.093-0.015c0.023-0.003,0.039-0.016,0.062-0.021c0.661-0.156,1.327-0.27,1.951-0.368
	c3.326-0.519,6.855-0.347,10.168-1.067C90.078,68.872,84.34,72.741,77.73,73.201z M49.612,74.163
	c0.448-2.025,0.734-4.49-0.261-6.422c1.793,1.248,3.316,2.917,4.738,4.807c0.578,0.77,1.892,0.018,1.306-0.763
	c-3-3.989-6.293-6.915-11.3-7.681c-0.016-0.004-0.032-0.01-0.047-0.013c-4.775-1.15-10.022-0.347-14.623-2.198
	c-0.783-0.315-1.152,0.75-0.735,1.264c4.882,6.005,11.685,11.03,19.625,11.563c0.141,0.01,0.255-0.021,0.354-0.068
	C49.047,74.783,49.502,74.665,49.612,74.163z M48.269,73.201c-6.609-0.46-12.348-4.329-16.765-9.106
	c3.313,0.72,6.842,0.548,10.168,1.067c0.624,0.098,1.29,0.211,1.951,0.368c0.022,0.004,0.038,0.018,0.062,0.021
	c0.031,0.005,0.063,0.01,0.093,0.015c1.284,0.317,2.541,0.817,3.421,1.753C48.715,68.931,48.66,71.154,48.269,73.201z"/>
</svg>
