<?xml version="1.0" encoding="utf-8"?>
<!-- Generator: Adobe Illustrator 16.0.0, SVG Export Plug-In . SVG Version: 6.00 Build 0)  -->
<!DOCTYPE svg PUBLIC "-//W3C//DTD SVG 1.1//EN" "http://www.w3.org/Graphics/SVG/1.1/DTD/svg11.dtd">
<svg version="1.1" id="Layer_1" xmlns="http://www.w3.org/2000/svg" xmlns:xlink="http://www.w3.org/1999/xlink" x="0px" y="0px"
	 width="126px" height="126px" viewBox="0 0 126 126" enable-background="new 0 0 126 126" xml:space="preserve">
<path fill-rule="evenodd" clip-rule="evenodd" d="M103.973,63.023c6.344,0,12.199-2.053,14.91-3.168
	c-3.426-1.104-4.289-3.609-4.328-3.73l-0.213-0.65l0.674-0.105c3.848-0.609,6.773-1.877,8.527-2.814
	c-5.008-0.332-9.836-3.986-10.049-4.148l-1.254-0.959l1.576-0.084c2.418-0.129,4.379-0.604,5.68-1.018l-9.268-2.07l2.941-0.492
	c0.621-0.104,2.57-0.922,4.254-1.678c-2.643-0.846-5.215-1.273-7.664-1.273c-3.582,0-5.629,0.939-5.65,0.949l-0.539,0.254
	l-0.24-0.547c-0.295-0.672-0.279-1.373,0.041-2.031c0.652-1.338,2.494-2.338,4.066-2.977c-0.932-0.072-1.914-0.109-2.941-0.109
	c-6.273,0-12.27,1.365-12.33,1.379l-0.617,0.143l-0.09-0.627c-0.197-1.387,0.744-2.523,1.883-3.367
	c-9.188,1.996-14.221,6.844-14.275,6.898l-0.99,0.971v-6.533c-4.596,2.676-9.354,9.758-9.404,9.834l-1.586,2.375l0.531-2.807
	c0.191-1.018,0.402-2.082,0.58-2.955L63,46.877l-5.092-5.326c0.113,0.895,0.273,2.021,0.475,3.086l0.529,2.807l-1.584-2.375
	c-0.051-0.076-4.809-7.158-9.404-9.834v6.533l-0.99-0.971c-0.055-0.055-5.088-4.902-14.275-6.898c1.139,0.844,2.08,1.98,1.881,3.367
	l-0.09,0.627l-0.615-0.143c-0.061-0.014-6.057-1.379-12.33-1.379c-1.027,0-2.01,0.037-2.941,0.109
	c1.572,0.639,3.414,1.639,4.066,2.977c0.32,0.658,0.336,1.359,0.041,2.031l-0.238,0.547l-0.541-0.254
	c-0.021-0.01-2.07-0.949-5.65-0.949c-2.449,0-5.021,0.428-7.664,1.273c1.684,0.756,3.633,1.574,4.254,1.678l2.941,0.492l-9.268,2.07
	c1.301,0.414,3.262,0.889,5.68,1.018l1.576,0.084l-1.254,0.959c-0.213,0.162-5.041,3.816-10.049,4.148
	c1.754,0.938,4.68,2.205,8.527,2.814l0.674,0.105l-0.213,0.65c-0.041,0.121-0.902,2.627-4.328,3.73
	c2.715,1.115,8.574,3.168,14.91,3.168c0.707,0,1.41-0.025,2.092-0.076l2.367-0.176l-2.016,1.25c-0.152,0.094-3.504,2.15-9.291,3.869
	c1.629,0.674,4.734,1.643,9.127,1.643c1.66,0,3.387-0.139,5.133-0.412l1.914-0.299l-4.279,3.895
	c1.441-0.172,3.924-0.496,7.971-1.088l0.633-0.092l0.031,0.639c0.006,0.121,0.094,2.689-2.578,5.016
	c0.529,0.047,1.191,0.084,1.951,0.084c5.188,0,14.59-1.699,19.285-13.072c0.053-0.104,0.529-1,1.506-2.016
	c-0.098,13.045-0.523,24.805,7.082,29.848l0.002,0.066c0.016-0.01,0.027-0.023,0.043-0.033c0.016,0.01,0.027,0.023,0.043,0.033
	v-0.066c7.633-5.059,7.176-16.879,7.082-29.979c1.008,1.072,1.459,2.039,1.5,2.129c4.703,11.391,14.105,13.09,19.293,13.09
	c0.76,0,1.422-0.037,1.951-0.084c-2.672-2.326-2.586-4.895-2.578-5.016l0.031-0.639l0.633,0.092
	c4.047,0.592,6.527,0.916,7.971,1.088l-4.281-3.895l1.916,0.299c1.746,0.273,3.473,0.412,5.133,0.412
	c4.393,0,7.496-0.969,9.129-1.643c-5.789-1.719-9.141-3.775-9.293-3.869l-2.016-1.25l2.365,0.176
	C102.561,62.998,103.266,63.023,103.973,63.023z M53.299,56.729c-0.398,3.506-4.67,5.951-10.207,6.225
	c-3.553,3.051-8.088,2.115-8.088,2.115c1.713-1.133,1.627-2.6,1.627-2.6c-3.693,0.539-4.635,0.607-4.635,0.607l1.789-1.668
	c-0.086-0.035-0.164-0.072-0.248-0.107c-4.619,0.602-7.186-1.023-7.186-1.023c1.393-0.377,2.531-0.811,3.371-1.182
	c-0.367-0.295-0.701-0.596-1.01-0.908c-3.512-0.391-6.34-1.83-6.34-1.83c2.186-0.297,2.65-1.797,2.65-1.797
	c-3.207-0.525-5.09-1.986-5.09-1.986c2.631,0.479,5.643-1.881,5.643-1.881c-2.221-0.129-3.648-0.857-3.648-0.857l3.904-0.879
	c-0.553-0.096-2.73-1.135-2.73-1.135c4.447-1.676,7.182-0.352,7.182-0.352c0.627-1.5-2.977-2.451-2.977-2.451
	c3.77-0.641,8.572,0.5,8.572,0.5c0.168-1.313-2.328-2.166-2.328-2.166c5.627,0.674,8.701,3.736,8.701,3.736l-0.035-2.959
	c1.979,0.932,4.098,3.756,4.797,4.738c0.063,0.031,0.123,0.063,0.188,0.092c-0.209-1.039-0.438-2.092-0.438-2.092l3.031,3.199
	l-0.148,0.334C52.127,52.188,53.561,54.453,53.299,56.729z M59.578,77.561l-1.357-5.428l1.357-5.43c0,0,1.357,2.43,1.357,5.43
	C60.936,75.131,59.578,77.561,59.578,77.561z M66.645,77.561c0,0-1.357-2.43-1.357-5.428c0-3,1.357-5.43,1.357-5.43L68,72.133
	L66.645,77.561z M63.225,51.137c0.223,2.752,0.379,9.438,0.379,17.262c0,10.279-0.27,18.613-0.604,18.613s-0.605-8.334-0.605-18.613
	c0-7.824,0.156-14.51,0.381-17.262c-5.799-0.043-10.465-1.65-10.465-3.633c0-0.146,0.035-0.293,0.084-0.436
	c0.631,1.787,5.063,3.174,10.471,3.197c0.043-0.305,0.088-0.48,0.135-0.48s0.09,0.176,0.133,0.48
	c5.408-0.023,9.842-1.41,10.471-3.197c0.051,0.143,0.084,0.289,0.084,0.436C73.688,49.486,69.023,51.094,63.225,51.137z
	 M92.463,61.301c-0.084,0.035-0.162,0.072-0.248,0.107l1.789,1.668c0,0-0.941-0.068-4.635-0.607c0,0-0.088,1.467,1.627,2.6
	c0,0-4.535,0.936-8.088-2.115c-5.537-0.273-9.809-2.719-10.209-6.225c-0.26-2.275,1.174-4.541,3.654-6.326l-0.148-0.334l3.031-3.199
	c0,0-0.229,1.053-0.438,2.092c0.063-0.029,0.125-0.061,0.188-0.092c0.699-0.982,2.818-3.807,4.797-4.738l-0.035,2.959
	c0,0,3.074-3.063,8.701-3.736c0,0-2.496,0.854-2.328,2.166c0,0,4.803-1.141,8.572-0.5c0,0-3.604,0.951-2.977,2.451
	c0,0,2.732-1.324,7.182,0.352c0,0-2.178,1.039-2.73,1.135l3.904,0.879c0,0-1.428,0.729-3.648,0.857c0,0,3.012,2.359,5.643,1.881
	c0,0-1.883,1.461-5.092,1.986c0,0,0.467,1.5,2.652,1.797c0,0-2.828,1.439-6.34,1.83c-0.309,0.313-0.643,0.613-1.01,0.908
	c0.84,0.371,1.979,0.805,3.371,1.182C99.648,60.277,97.082,61.902,92.463,61.301z M63.133,50.266
	c0.033,0.219,0.063,0.508,0.092,0.871c-0.076,0-0.148,0.004-0.225,0.004s-0.15-0.004-0.225-0.004
	c0.027-0.363,0.059-0.652,0.09-0.871c0.045,0,0.088,0.002,0.135,0.002C63.045,50.268,63.09,50.266,63.133,50.266z"/>
</svg>
