<?xml version="1.0" encoding="UTF-8" standalone="yes"?>
<svg xmlns="http://www.w3.org/2000/svg" viewBox="0 0 31.418 27.792">
  <path d="M30.923 15.387c-.944.494-1.753 0-1.753 0s1.978-1.214 2.248-2.383c-.495-.225-2.472-.584-2.472-.584s2.382-.854 2.157-2.202c-.494.404-2.876 1.033-2.876 1.033s3.775-3.324 2.876-6.965c-.72 1.482-4.13 2.337-4.13 2.337s2.872-1.708 2.153-3.287c-.99 1.624-3.55 2.928-3.55 2.928S28.765 1.41 27.233.6C25.8 2.08 20.136 6.666 20.136 6.666s1.573-4.405 2.697-5.618c-.81-.72-3.64 2.965-3.64 2.965s-.45-1.978.808-3.46c-2.484-1.22-4.673 4.09-4.81 4.225-.134.135 0-4.78 0-4.78S13.98 4.78 13.98 4.916 12.135 1.77 12.135 1.77l.36 3.505S9.482.915 6.066 2.625c2.876.77 3.686 4.27 3.686 4.27L3.28 4.734 7.82 6.89s-5.842-1.123-6.516.36c3.55-.09 4.584 4.315 4.584 4.315s-3.01-.9-4.135-2.563c-.62 1.63 3.383 3.552 3.383 3.687S2.292 14.172 0 12.554c.135 1.573 4.675 5.26 4.675 5.26l-4.09-.54 3.506 1.483S2.294 20.87 0 19.746c.662 3.146 6.293 4.09 6.293 4.09s-2.607.9-4.135.854c.596 1.107 3.734.36 4.134.146-.24.224-1.435 1.42-3.37 1.923 3.582 2.02 6.652.493 6.832.27l.146-2.696c-.68-.305-1.508-.088-2.02-1.238-.666-1.5-1.332-2.583-.332-4.625.61-1.245 1.762-.535 2.596.216-.023-.724-.122-1.21-.345-1.903-.405-1.26 1.887-4.226 1.887-4.226s.764 6.832 1.708 5.844c-.09-4.18 1.66-6.423 2.315-7.506.292 6.158 2.854 7.057 3.214 6.518-1.304-6.832 2.586-6.248 2.586-6.248s.2-1.708 2.277-1.43c4.44 1.52 4.53 12.127 4.53 12.127h1.26l-.945-1.077 1.933.314-1.798-1.17s2.112-.09 1.348-.846c-.81-.057-1.258-1.714-1.258-1.714s2.2-.677 2.066-1.98z"/>
</svg>