<?xml version="1.0" encoding="UTF-8" standalone="yes"?>
<svg xmlns="http://www.w3.org/2000/svg" viewBox="0 0 31.379 31.527">
  <path d="M7.71 31.527C5.435 29.293-1.164 19.03.18 12.315 1.52 5.6 4.675 1.105 10.922.285c6.248-.816 17.284-.35 19.68 7.826 2.394 8.177-1.49 14.132-1.695 16.323-.205 2.19-.788 4.846-2.335 5.927 3.21-3.154-.643-11.533-2.92-11.445.847 1.75-.525 4.32-.525 4.32s-.788-1.518-.583-.758c.204.76-.088.92-.234 2.044.016-1.503-2.275-3.328-2.275-3.328s-.162.963.174 2.044c-.775-1.913-2.745-3.854-2.745-3.854s.86 1.767.76 2.687c-.25-1.082-1.155-1.753-1.636-1.46.626.904.568 1.46.597 2.524-1.007-1.3-10.816-5.87-10.934-5.562-1.446 2.496 1.374 5.898 1.694 6.423-1.43-.13-1.343.467-1.343.467s1.3 1.65 1.81 1.81c-1.168-.438-1.387.132-1.387.132s.702 1.533 1.096 2.262c-1.022-1.11-1.05-.292-1.05-.292s.23 2.292.638 3.153z"/>
</svg>