<?xml version="1.0" encoding="UTF-8" standalone="yes"?>
<svg xmlns="http://www.w3.org/2000/svg" viewBox="0 0 20.908 30.5">
  <path d="M17.39 2.427s.04-.475.91-.73c-.85-.396-1.56.533-1.56.533l-1.265-.316s-.418-.97.652-1.244c-.75-.453-1.52.83-1.52.83S13.127-.494 12.672.117c.87.376.553 1.185.553 1.185S2.585-1.938 0 7.618c.69-1.105.87-.87.87-.87s-.916 5.943.374 9.772l.513.553s-.53-2.246-.056-4.19c.333-1.358 1.674-2.403 1.834-3.14.263-1.615-.317-3.184 1.526-4.37 1.842-1.183 4.692.347 5.764.29 1.072-.056 3.516-1.693 5.343-.71 1.957 1.053 1.288 4.196 1.343 4.66.105.577.908 1.156 1.44 2.103.534.948-.197 5.83-.197 5.83s.257.12.494-.197c.237-.316 1.244-8.766 1.145-9.062s.08-.71.494-.217c.354-3.117-3.495-5.643-3.495-5.643zM17.687 19.936c-.217.948-1.54 3.89-1.994 4.205s-3.533-1.5-4.54-1.54c-1.007-.038-3.79 1.027-4.402.77-.61-.255-4.835-6.572-5.092-5.82-.257.75 1.45 3.29 1.5 3.848.05.558.018 1.272.573 1.974.556.702 1.64 2.054 2.33 2.94 0-.71.276-.67.276-.67s2.21 2.96 2.803 2.547c-.692-.436-.416-.85-.416-.85s1.64 3.04 2.17 3.158c.534.118 2.41-3.258 2.41-3.258s.473.73 0 1.165c.67.06 3.315-2.566 4.263-4.58.947-2.013 1.382-5.724 1.382-5.724s-1.046.888-1.263 1.836z"/>
</svg>