<?xml version="1.0" encoding="iso-8859-1"?>
<!-- Generator: Adobe Illustrator 17.0.2, SVG Export Plug-In . SVG Version: 6.00 Build 0)  -->
<!DOCTYPE svg PUBLIC "-//W3C//DTD SVG 1.1//EN" "http://www.w3.org/Graphics/SVG/1.1/DTD/svg11.dtd">
<svg version="1.1" id="Capa_1" xmlns="http://www.w3.org/2000/svg" xmlns:xlink="http://www.w3.org/1999/xlink" x="0px" y="0px"
	 width="64px" height="64px" viewBox="0 0 64 64" style="enable-background:new 0 0 64 64;" xml:space="preserve">
<g>
	<path d="M58.095,7.843c0.158,0.003,0.288-0.122,0.291-0.279l0.066-3.021c0.002-0.159-0.121-0.288-0.279-0.291
		c-0.157-0.003-0.287,0.121-0.291,0.278l-0.064,3.021c-0.002,0.077,0.026,0.147,0.074,0.199C57.942,7.806,58.015,7.841,58.095,7.843
		z"/>
	<path d="M57.315,8.546l0.065-3.023c0.003-0.158-0.121-0.288-0.279-0.29c-0.157-0.004-0.287,0.121-0.291,0.278l-0.064,3.022
		c-0.002,0.077,0.025,0.146,0.074,0.199c0.051,0.055,0.123,0.091,0.204,0.093C57.181,8.828,57.311,8.703,57.315,8.546z"/>
	<path d="M56.242,9.528l0.065-3.022c0.004-0.158-0.121-0.288-0.278-0.292c-0.157-0.003-0.288,0.122-0.291,0.278l-0.065,3.022
		c-0.002,0.077,0.026,0.146,0.074,0.199c0.051,0.056,0.124,0.091,0.204,0.092C56.108,9.81,56.239,9.685,56.242,9.528z"/>
	<path d="M55.171,10.509l0.065-3.022c0.004-0.158-0.121-0.287-0.277-0.291c-0.158-0.003-0.289,0.122-0.292,0.279l-0.065,3.022
		c-0.002,0.077,0.027,0.146,0.075,0.199c0.051,0.056,0.122,0.09,0.204,0.092C55.037,10.791,55.167,10.666,55.171,10.509z"/>
	<path d="M54.099,11.49l0.065-3.021c0.004-0.158-0.12-0.288-0.277-0.291c-0.158-0.003-0.288,0.121-0.291,0.278l-0.065,3.022
		c-0.001,0.077,0.026,0.146,0.074,0.199c0.051,0.056,0.123,0.091,0.204,0.092C53.965,11.772,54.095,11.647,54.099,11.49z"/>
	<path d="M53.026,12.472l0.066-3.022c0.002-0.158-0.121-0.288-0.279-0.291c-0.158-0.003-0.287,0.121-0.291,0.279l-0.064,3.021
		c-0.002,0.077,0.025,0.146,0.074,0.198c0.051,0.056,0.123,0.092,0.203,0.094C52.894,12.754,53.023,12.629,53.026,12.472z"/>
	<path d="M51.955,13.454l0.065-3.022c0.002-0.158-0.121-0.288-0.279-0.291c-0.157-0.004-0.287,0.122-0.291,0.278l-0.065,3.022
		c-0.002,0.077,0.025,0.146,0.074,0.198c0.051,0.056,0.123,0.091,0.203,0.092C51.821,13.736,51.95,13.611,51.955,13.454z"/>
	<path d="M19.613,55.228l-0.065,3.022c-0.001,0.078,0.027,0.147,0.075,0.199c0.05,0.056,0.123,0.091,0.204,0.093
		c0.158,0.003,0.287-0.121,0.291-0.278l0.065-3.022c0.003-0.158-0.122-0.288-0.279-0.291C19.746,54.947,19.616,55.071,19.613,55.228
		z"/>
	<path d="M20.684,54.247l-0.065,3.022c-0.002,0.076,0.027,0.146,0.075,0.198c0.051,0.056,0.122,0.092,0.203,0.093
		c0.158,0.003,0.289-0.122,0.292-0.278l0.065-3.022c0.003-0.158-0.122-0.288-0.279-0.291C20.818,53.966,20.688,54.09,20.684,54.247z
		"/>
	<path d="M22.262,56.3l0.064-3.022c0.004-0.159-0.121-0.288-0.278-0.291c-0.158-0.003-0.288,0.122-0.291,0.278l-0.065,3.023
		c-0.001,0.075,0.027,0.146,0.075,0.197c0.051,0.056,0.123,0.091,0.204,0.093C22.127,56.582,22.258,56.457,22.262,56.3z"/>
	<path d="M23.333,55.318l0.064-3.02c0.004-0.158-0.122-0.289-0.278-0.292c-0.157-0.004-0.288,0.121-0.29,0.278l-0.066,3.022
		c-0.001,0.076,0.028,0.146,0.076,0.197c0.05,0.056,0.122,0.092,0.203,0.094C23.2,55.601,23.33,55.476,23.333,55.318z"/>
	<path d="M24.405,54.337l0.065-3.022c0.003-0.157-0.122-0.289-0.278-0.291c-0.158-0.004-0.288,0.121-0.292,0.278l-0.066,3.023
		c0,0.076,0.028,0.146,0.076,0.198c0.051,0.056,0.123,0.09,0.203,0.093C24.271,54.619,24.401,54.494,24.405,54.337z"/>
	<path d="M25.477,53.355l0.066-3.022c0.003-0.157-0.122-0.287-0.279-0.291c-0.158-0.003-0.289,0.122-0.292,0.279l-0.064,3.021
		c-0.002,0.078,0.026,0.148,0.074,0.2c0.051,0.055,0.123,0.09,0.203,0.092C25.343,53.638,25.474,53.513,25.477,53.355z"/>
	<path d="M26.548,52.374l0.066-3.022c0.003-0.157-0.123-0.287-0.279-0.291c-0.158-0.003-0.289,0.122-0.292,0.279l-0.065,3.021
		c-0.002,0.078,0.027,0.147,0.075,0.199c0.051,0.056,0.123,0.092,0.204,0.093C26.415,52.656,26.545,52.531,26.548,52.374z"/>
	<path d="M50.884,14.435l0.064-3.022c0.003-0.158-0.121-0.288-0.279-0.291c-0.156-0.004-0.287,0.121-0.291,0.279l-0.064,3.022
		c-0.002,0.078,0.026,0.146,0.075,0.199c0.051,0.055,0.122,0.09,0.203,0.092C50.749,14.717,50.88,14.592,50.884,14.435z"/>
	<path d="M49.811,15.417l0.065-3.021c0.004-0.158-0.121-0.289-0.279-0.291c-0.156-0.004-0.287,0.121-0.29,0.278l-0.065,3.021
		c-0.001,0.076,0.026,0.147,0.074,0.2c0.052,0.055,0.124,0.09,0.205,0.091C49.677,15.699,49.808,15.574,49.811,15.417z"/>
	<path d="M48.739,16.399l0.064-3.022c0.003-0.158-0.121-0.288-0.278-0.29c-0.157-0.004-0.287,0.12-0.29,0.277l-0.067,3.022
		c0,0.076,0.027,0.146,0.074,0.198c0.051,0.056,0.124,0.09,0.205,0.092C48.604,16.681,48.735,16.556,48.739,16.399z"/>
	<path d="M47.667,17.38l0.065-3.022c0.003-0.158-0.121-0.288-0.278-0.291c-0.158-0.003-0.288,0.121-0.292,0.277l-0.065,3.023
		c-0.001,0.076,0.027,0.146,0.075,0.199c0.051,0.056,0.124,0.09,0.205,0.092C47.533,17.662,47.664,17.537,47.667,17.38z"/>
	<path d="M46.596,18.362l0.065-3.022c0.003-0.158-0.122-0.287-0.278-0.291c-0.158-0.002-0.288,0.121-0.292,0.279l-0.065,3.022
		c-0.002,0.076,0.027,0.146,0.075,0.198c0.051,0.056,0.123,0.09,0.205,0.092C46.461,18.644,46.592,18.519,46.596,18.362z"/>
	<path d="M45.523,19.343l0.066-3.022c0.003-0.157-0.122-0.287-0.279-0.291c-0.158-0.003-0.288,0.121-0.292,0.279l-0.065,3.021
		c-0.002,0.077,0.026,0.147,0.074,0.2c0.051,0.056,0.123,0.091,0.205,0.092C45.39,19.625,45.52,19.501,45.523,19.343z"/>
	<path d="M44.451,20.325l0.066-3.023c0.002-0.157-0.122-0.288-0.279-0.29c-0.158-0.004-0.288,0.122-0.292,0.279l-0.065,3.022
		c-0.001,0.077,0.027,0.146,0.075,0.199c0.051,0.055,0.123,0.09,0.204,0.092C44.317,20.608,44.448,20.482,44.451,20.325z"/>
	<path d="M43.379,21.307l0.066-3.022c0.003-0.158-0.121-0.289-0.278-0.291c-0.158-0.004-0.288,0.122-0.292,0.279l-0.065,3.022
		c-0.001,0.076,0.027,0.146,0.075,0.198c0.051,0.055,0.123,0.09,0.203,0.092C43.245,21.59,43.376,21.464,43.379,21.307z"/>
	<path d="M42.308,22.288l0.065-3.021c0.003-0.159-0.122-0.288-0.279-0.292c-0.158-0.003-0.287,0.121-0.291,0.278l-0.066,3.023
		c-0.001,0.077,0.027,0.146,0.075,0.199c0.051,0.056,0.123,0.09,0.204,0.092C42.174,22.57,42.304,22.445,42.308,22.288z"/>
	<path d="M41.235,23.27l0.065-3.021c0.003-0.158-0.121-0.289-0.279-0.292c-0.158-0.002-0.288,0.122-0.291,0.278l-0.066,3.022
		c-0.001,0.076,0.027,0.147,0.075,0.199c0.051,0.056,0.124,0.091,0.204,0.092C41.102,23.552,41.232,23.427,41.235,23.27z"/>
	<path d="M40.164,24.252l0.066-3.023c0.002-0.158-0.122-0.288-0.279-0.291c-0.157-0.003-0.288,0.122-0.292,0.279l-0.065,3.021
		c-0.001,0.076,0.027,0.146,0.075,0.198c0.051,0.056,0.124,0.09,0.204,0.093C40.03,24.534,40.16,24.409,40.164,24.252z"/>
	<path d="M39.092,25.233l0.065-3.023c0.003-0.158-0.122-0.287-0.279-0.29c-0.158-0.004-0.288,0.122-0.292,0.278l-0.064,3.022
		c-0.002,0.077,0.026,0.146,0.074,0.199c0.05,0.056,0.122,0.091,0.204,0.092C38.958,25.515,39.088,25.39,39.092,25.233z"/>
	<path d="M38.02,26.215l0.065-3.022c0.003-0.157-0.122-0.288-0.279-0.291c-0.158-0.003-0.288,0.122-0.292,0.279l-0.064,3.021
		c-0.002,0.077,0.026,0.147,0.074,0.199c0.051,0.055,0.123,0.09,0.204,0.092C37.886,26.497,38.016,26.372,38.02,26.215z"/>
	<path d="M36.948,27.196l0.065-3.021c0.003-0.158-0.121-0.289-0.278-0.292c-0.158-0.003-0.288,0.121-0.292,0.279l-0.064,3.021
		c-0.001,0.077,0.027,0.147,0.075,0.2c0.051,0.055,0.123,0.09,0.204,0.092C36.815,27.478,36.944,27.354,36.948,27.196z"/>
	<path d="M35.056,23.609l-1.588,12.646c-0.01,0.085,0.019,0.168,0.073,0.227c0.045,0.049,0.105,0.082,0.175,0.09
		c0.156,0.021,0.299-0.091,0.318-0.247l1.575-12.542L57.499,3.736c0.117-0.106,0.124-0.287,0.018-0.403
		c-0.106-0.116-0.285-0.124-0.402-0.017L35.146,23.434C35.096,23.479,35.063,23.542,35.056,23.609z"/>
	<path d="M8.871,59.461l21.969-20.118c0.149-0.137,0.246-0.322,0.27-0.524l1.588-12.646c0.058-0.468-0.273-0.896-0.743-0.954
		c-0.468-0.059-0.895,0.272-0.954,0.741l-1.548,12.334L7.716,58.199c-0.348,0.319-0.373,0.859-0.053,1.208
		C7.981,59.755,8.522,59.778,8.871,59.461z"/>
	<path d="M52.419,35.036c-0.006-0.156-0.138-0.28-0.295-0.274l-12.736,0.471c-0.068,0.003-0.133,0.03-0.182,0.074L17.237,55.425
		c-0.116,0.107-0.125,0.287-0.018,0.402c0.106,0.116,0.287,0.125,0.403,0.018l21.891-20.047l12.631-0.466
		C52.303,35.325,52.425,35.193,52.419,35.036z"/>
	<polygon points="59.471,8.112 36.766,28.904 35.773,35.414 58.477,14.623 	"/>
	<polygon points="39.731,37.233 28.373,47.635 28.222,53.376 39.581,42.973 	"/>
</g>
</svg>
