<?xml version="1.0" encoding="iso-8859-1"?>
<!-- Generator: Adobe Illustrator 17.0.2, SVG Export Plug-In . SVG Version: 6.00 Build 0)  -->
<!DOCTYPE svg PUBLIC "-//W3C//DTD SVG 1.1//EN" "http://www.w3.org/Graphics/SVG/1.1/DTD/svg11.dtd">
<svg version="1.1" id="Capa_1" xmlns="http://www.w3.org/2000/svg" xmlns:xlink="http://www.w3.org/1999/xlink" x="0px" y="0px"
	 width="64px" height="64px" viewBox="0 0 64 64" style="enable-background:new 0 0 64 64;" xml:space="preserve">
<g>
	<path d="M7.623,61.581c0.193,0.182,0.44,0.272,0.687,0.272c0.266,0,0.531-0.105,0.727-0.313l18.79-19.908
		c0.175-0.185,0.273-0.432,0.273-0.686V27.917c0-0.552-0.448-1-1-1s-1,0.448-1,1v12.63L7.583,60.167
		C7.204,60.568,7.222,61.202,7.623,61.581z"/>
	<path d="M12.215,61.215c0.097,0.093,0.221,0.139,0.345,0.139c0.132,0,0.264-0.052,0.362-0.155l29.191-30.587
		c0.089-0.093,0.138-0.217,0.138-0.345V8.167l6.723-6.395c0.2-0.19,0.208-0.507,0.018-0.707c-0.19-0.2-0.507-0.208-0.707-0.017
		l-6.878,6.543c-0.099,0.094-0.155,0.226-0.155,0.362v22.113L12.199,60.509C12.008,60.708,12.016,61.024,12.215,61.215z"/>
	<polygon points="30.769,23.946 30.769,38.262 33.938,35.131 33.938,20.815 	"/>
	<polygon points="35.542,33.342 38.711,30.211 38.711,15.894 35.542,19.026 	"/>
	<path d="M37.662,12.787L25.247,24.251c-0.203,0.187-0.215,0.503-0.028,0.706c0.099,0.107,0.233,0.161,0.367,0.161
		c0.122,0,0.243-0.044,0.339-0.133L38.34,13.521c0.203-0.187,0.215-0.503,0.028-0.706C38.181,12.612,37.865,12.599,37.662,12.787z"
		/>
	<path d="M36.637,9.794L24.222,21.259c-0.203,0.187-0.215,0.503-0.028,0.706c0.099,0.107,0.232,0.161,0.367,0.161
		c0.122,0,0.243-0.044,0.339-0.133l12.415-11.464c0.203-0.187,0.215-0.503,0.028-0.707C37.156,9.62,36.839,9.607,36.637,9.794z"/>
	<path d="M55.113,30.944H43.537c-0.277,0-0.541,0.115-0.73,0.317L20.83,54.748c-0.378,0.403-0.357,1.036,0.047,1.414
		c0.193,0.181,0.438,0.269,0.683,0.269c0.267,0,0.533-0.106,0.73-0.316l21.681-23.171h11.143c0.552,0,1-0.448,1-1
		C56.113,31.392,55.665,30.944,55.113,30.944z"/>
	<polygon points="55.113,34.461 44.04,34.461 41.356,37.144 52.429,37.144 	"/>
	<polygon points="37.127,41.674 48.199,41.674 50.884,38.99 39.811,38.99 	"/>
	<path d="M57.474,34.688c-0.197-0.191-0.515-0.185-0.706,0.012l-7.214,7.467c-0.192,0.199-0.187,0.516,0.012,0.707
		c0.097,0.094,0.222,0.141,0.347,0.141c0.131,0,0.262-0.051,0.359-0.152l7.214-7.467C57.678,35.195,57.672,34.879,57.474,34.688z"/>
</g>
</svg>
