<?xml version="1.0" encoding="iso-8859-1"?>
<!-- Generator: Adobe Illustrator 17.0.2, SVG Export Plug-In . SVG Version: 6.00 Build 0)  -->
<!DOCTYPE svg PUBLIC "-//W3C//DTD SVG 1.1//EN" "http://www.w3.org/Graphics/SVG/1.1/DTD/svg11.dtd">
<svg version="1.1" id="Capa_1" xmlns="http://www.w3.org/2000/svg" xmlns:xlink="http://www.w3.org/1999/xlink" x="0px" y="0px"
	 width="64px" height="64px" viewBox="0 0 64 64" style="enable-background:new 0 0 64 64;" xml:space="preserve">
<g>
	<path d="M11.105,53.877c0.195,0.195,0.451,0.293,0.707,0.293s0.512-0.098,0.707-0.293l17.459-17.459
		c0.391-0.391,0.391-1.023,0-1.414c-0.061-0.062-0.136-0.096-0.207-0.138v-6.984L47.62,9.245c0.191-0.199,0.184-0.516-0.016-0.707
		c-0.198-0.191-0.515-0.184-0.707,0.016L28.91,27.335c-0.089,0.093-0.139,0.217-0.139,0.346v7.185
		c-0.071,0.042-0.146,0.076-0.207,0.138L11.105,52.463C10.715,52.853,10.715,53.486,11.105,53.877z"/>
	<path d="M28.125,26.502c0.131,0,0.263-0.052,0.361-0.154L46.475,7.565c0.191-0.199,0.184-0.516-0.016-0.707
		c-0.199-0.19-0.516-0.185-0.707,0.016L27.764,25.656c-0.191,0.199-0.184,0.516,0.016,0.707C27.876,26.456,28,26.502,28.125,26.502z
		"/>
	<path d="M44.889,5.238c-0.199-0.19-0.515-0.184-0.707,0.016L26.194,24.037c-0.191,0.199-0.184,0.516,0.016,0.707
		c0.097,0.093,0.221,0.139,0.346,0.139c0.131,0,0.263-0.052,0.361-0.154L44.905,5.945C45.096,5.746,45.089,5.43,44.889,5.238z"/>
	<path d="M42.867,3.451L24.878,22.233c-0.191,0.199-0.184,0.516,0.016,0.707c0.097,0.093,0.221,0.139,0.346,0.139
		c0.131,0,0.263-0.052,0.361-0.154L43.589,4.143c0.191-0.199,0.184-0.516-0.016-0.707C43.375,3.245,43.059,3.251,42.867,3.451z"/>
	<path d="M18.709,60.089l2.141-2.102c0.197-0.193,0.2-0.51,0.007-0.707c-0.194-0.197-0.511-0.2-0.707-0.006l-2.141,2.102
		c-0.197,0.193-0.2,0.51-0.007,0.707c0.098,0.1,0.228,0.149,0.357,0.149C18.486,60.232,18.612,60.185,18.709,60.089z"/>
	<path d="M27.274,51.684l2.141-2.102c0.197-0.193,0.2-0.51,0.007-0.707c-0.195-0.198-0.511-0.2-0.707-0.006l-2.141,2.102
		c-0.197,0.193-0.2,0.51-0.007,0.707c0.098,0.1,0.227,0.149,0.357,0.149C27.05,51.827,27.177,51.779,27.274,51.684z"/>
	<path d="M35.838,43.277l1.881-1.846c0.197-0.193,0.2-0.51,0.007-0.707c-0.194-0.197-0.511-0.2-0.707-0.006l-1.881,1.846
		c-0.197,0.193-0.2,0.51-0.007,0.707c0.098,0.1,0.227,0.149,0.357,0.149C35.614,43.421,35.741,43.373,35.838,43.277z"/>
	<path d="M22.992,55.886l2.141-2.102c0.197-0.193,0.2-0.51,0.007-0.707c-0.194-0.197-0.511-0.199-0.707-0.006l-2.141,2.102
		c-0.197,0.193-0.2,0.51-0.007,0.707c0.098,0.1,0.228,0.149,0.357,0.149C22.768,56.029,22.894,55.981,22.992,55.886z"/>
	<path d="M31.556,47.48l2.141-2.102c0.197-0.193,0.2-0.51,0.007-0.707c-0.194-0.197-0.511-0.2-0.707-0.006l-2.141,2.102
		c-0.197,0.193-0.2,0.51-0.007,0.707c0.098,0.1,0.228,0.149,0.357,0.149C31.332,47.624,31.458,47.576,31.556,47.48z"/>
	<path d="M59.596,18.558c-0.197-0.194-0.513-0.192-0.708,0.003L40.409,37.219c-0.194,0.196-0.192,0.513,0.003,0.707
		c0.098,0.097,0.225,0.145,0.352,0.145c0.129,0,0.257-0.05,0.356-0.148L59.6,19.266C59.794,19.069,59.792,18.752,59.596,18.558z"/>
	<path d="M13.591,55.519c0.128,0,0.256-0.049,0.354-0.147l17.395-17.466c0.195-0.195,0.194-0.512-0.001-0.707
		c-0.195-0.193-0.511-0.194-0.708,0.002L13.237,54.667c-0.195,0.195-0.194,0.512,0.001,0.707
		C13.336,55.471,13.464,55.519,13.591,55.519z"/>
	<path d="M53.262,14.933l-7.225,7.255c-0.195,0.196-0.194,0.513,0.001,0.708c0.098,0.097,0.226,0.145,0.353,0.145
		c0.128,0,0.257-0.049,0.354-0.147l7.225-7.255c0.195-0.196,0.194-0.513-0.002-0.708C53.774,14.737,53.457,14.739,53.262,14.933z"/>
	<path d="M56.542,15.768L15.455,57.044c-0.39,0.391-0.388,1.024,0.003,1.414c0.195,0.194,0.45,0.291,0.706,0.291
		c0.257,0,0.513-0.099,0.708-0.295l41.086-41.275c0.39-0.392,0.388-1.025-0.003-1.414C57.564,15.375,56.931,15.376,56.542,15.768z"
		/>
	<polygon points="35.305,35.027 35.888,32.865 35.703,32.674 33.519,33.166 31.836,34.78 33.66,34.818 33.623,36.642 	"/>
	<polygon points="39.944,30.402 40.527,28.24 40.342,28.047 38.158,28.54 36.476,30.154 38.299,30.192 38.262,32.016 	"/>
	<polygon points="44.186,25.952 44.769,23.79 44.584,23.598 42.4,24.09 40.717,25.704 42.541,25.742 42.503,27.566 	"/>
</g>
</svg>
