<?xml version="1.0" encoding="iso-8859-1"?>
<!-- Generator: Adobe Illustrator 17.0.2, SVG Export Plug-In . SVG Version: 6.00 Build 0)  -->
<!DOCTYPE svg PUBLIC "-//W3C//DTD SVG 1.1//EN" "http://www.w3.org/Graphics/SVG/1.1/DTD/svg11.dtd">
<svg version="1.1" id="Capa_1" xmlns="http://www.w3.org/2000/svg" xmlns:xlink="http://www.w3.org/1999/xlink" x="0px" y="0px"
	 width="64px" height="64px" viewBox="0 0 64 64" style="enable-background:new 0 0 64 64;" xml:space="preserve">
<g>
	<path d="M19.451,37.222c0.192,0.199,0.454,0.306,0.72,0.306c0.126,0,0.253-0.023,0.375-0.072c0.378-0.153,0.625-0.52,0.625-0.928
		V22.004l3.475,3.294v0.715C24.623,26.011,24.605,26,24.583,26c-0.552,0-1,0.448-1,1v6.75c0,0.253,0.096,0.496,0.268,0.681
		l14.417,15.5c0.197,0.212,0.464,0.319,0.732,0.319c0.244,0,0.488-0.089,0.681-0.268c0.012-0.012,0.016-0.027,0.028-0.039
		l1.466,1.556c0.189,0.201,0.452,0.315,0.727,0.315h10.772l4.803,4.493c0.193,0.181,0.438,0.27,0.683,0.27
		c0.267,0,0.533-0.107,0.731-0.316c0.377-0.403,0.356-1.036-0.047-1.414l-5.091-4.763c-0.185-0.173-0.429-0.27-0.683-0.27h-0.097
		L43.84,40.03h2.904l3.641,4.363c0.198,0.237,0.482,0.359,0.768,0.359c0.226,0,0.453-0.076,0.64-0.232
		c0.424-0.354,0.481-0.984,0.127-1.408l-3.941-4.723c-0.19-0.227-0.471-0.359-0.768-0.359H31.225l-4.579-4.857v-8.306
		c0-0.274-0.113-0.537-0.312-0.726L10.568,9.198c-0.4-0.38-1.034-0.364-1.414,0.038c-0.38,0.401-0.363,1.034,0.038,1.413l9.979,9.46
		v2.113L8.768,12.573c-0.203-0.188-0.519-0.177-0.707,0.027c-0.188,0.202-0.176,0.519,0.027,0.706l11.083,10.279v1.261L8.768,15.198
		c-0.203-0.189-0.519-0.176-0.707,0.027c-0.188,0.202-0.176,0.519,0.027,0.707L19.171,26.21v1.181L8.768,17.743
		c-0.203-0.188-0.519-0.177-0.707,0.027c-0.188,0.202-0.176,0.519,0.027,0.707l11.083,10.279v1.098L8.768,20.205
		c-0.203-0.188-0.519-0.177-0.707,0.027c-0.188,0.202-0.176,0.519,0.027,0.707l11.083,10.279v2.834L5.892,20.286
		c-0.383-0.397-1.017-0.407-1.414-0.025c-0.397,0.383-0.409,1.017-0.025,1.414L19.451,37.222z M42.472,40.03l9.133,9.783h-2.548
		l-9.133-9.783H42.472z M38.556,40.03l9.133,9.783h-2.548l-9.133-9.783H38.556z M34.64,40.03l9.133,9.783h-1.438L33.11,40.03H34.64z
		"/>
	<path d="M36.417,51.313c0.122,0,0.244-0.044,0.34-0.134c0.203-0.188,0.214-0.505,0.026-0.707l-14.417-15.5
		c-0.188-0.201-0.505-0.213-0.706-0.025c-0.203,0.188-0.214,0.505-0.026,0.707l14.417,15.5C36.15,51.26,36.284,51.313,36.417,51.313
		z"/>
</g>
</svg>
